<?xml version="1.0" encoding="UTF-8" standalone="no"?>
<!DOCTYPE svg PUBLIC "-//W3C//DTD SVG 1.1//EN"
 "http://www.w3.org/Graphics/SVG/1.1/DTD/svg11.dtd">
<!-- Generated by graphviz version 12.2.1 (20241206.2353)
 -->
<!-- Title: Text::Draw Pages: 1 -->
<svg width="210pt" height="175pt"
 viewBox="0.00 0.00 209.50 175.25" xmlns="http://www.w3.org/2000/svg" xmlns:xlink="http://www.w3.org/1999/xlink">

<svg id="main" version="1.1" xmlns="http://www.w3.org/2000/svg" xmlns:xlink="http://www.w3.org/1999/xlink" xml:space="preserve">

<style type="text/css"><![CDATA[
.node, .edge {opacity: 0.7;}
.node.selected, .edge.selected {opacity: 1;}
.edge:hover path { stroke: red; }
.edge:hover polygon { stroke: red; fill: red; }
]]></style>
<script type="application/ecmascript" xlink:href="../../svg.min.js"/>
<svg id="graph" class="graph">
<g id="graph0" class="graph" transform="scale(1 1) rotate(0) translate(4 171.25)">
<title>Text::Draw</title>
<!-- Node1 -->
<g id="Node000001" class="node">
<title>Node1</title>
<g id="a_Node000001"><a xlink:title="Draw &#45; Draws the text to the assigned coords.">
<polygon fill="#999999" stroke="#666666" points="64,-93.25 0,-93.25 0,-74 64,-74 64,-93.25"/>
<text text-anchor="middle" x="32" y="-79.75" font-family="Helvetica,sans-Serif" font-size="10.00">Text::Draw</text>
</a>
</g>
</g>
<!-- Node2 -->
<g id="Node000002" class="node">
<title>Node2</title>
<g id="a_Node000002"><a xlink:href="../../d7/da7/class_shape.html#a754ef1fcea3fbe3c3612da480ba8dd75" target="_top" xlink:title=" ">
<polygon fill="white" stroke="#666666" points="197.75,-167.25 103.75,-167.25 103.75,-148 197.75,-148 197.75,-167.25"/>
<text text-anchor="middle" x="150.75" y="-153.75" font-family="Helvetica,sans-Serif" font-size="10.00">Shape::getPainter</text>
</a>
</g>
</g>
<!-- Node1&#45;&gt;Node2 -->
<g id="edge1_Node000001_Node000002" class="edge">
<title>Node1&#45;&gt;Node2</title>
<g id="a_edge1_Node000001_Node000002"><a xlink:title=" ">
<path fill="none" stroke="#63b8ff" d="M42.61,-93.56C54.92,-105.82 77.39,-126.63 100,-139.62 102.05,-140.81 104.2,-141.93 106.39,-143"/>
<polygon fill="#63b8ff" stroke="#63b8ff" points="104.95,-146.19 115.51,-146.98 107.75,-139.77 104.95,-146.19"/>
</a>
</g>
</g>
<!-- Node3 -->
<g id="Node000003" class="node">
<title>Node3</title>
<g id="a_Node000003"><a xlink:href="../../d7/da7/class_shape.html#aebeb671fc243de273dc49f07ba71bac6" target="_top" xlink:title=" ">
<polygon fill="white" stroke="#666666" points="201.5,-130.25 100,-130.25 100,-111 201.5,-111 201.5,-130.25"/>
<text text-anchor="middle" x="150.75" y="-116.75" font-family="Helvetica,sans-Serif" font-size="10.00">Shape::getSelected</text>
</a>
</g>
</g>
<!-- Node1&#45;&gt;Node3 -->
<g id="edge2_Node000001_Node000003" class="edge">
<title>Node1&#45;&gt;Node3</title>
<g id="a_edge2_Node000001_Node000003"><a xlink:title=" ">
<path fill="none" stroke="#63b8ff" d="M64.29,-93.54C77.53,-97.74 93.16,-102.69 107.41,-107.21"/>
<polygon fill="#63b8ff" stroke="#63b8ff" points="105.94,-110.41 116.53,-110.1 108.05,-103.74 105.94,-110.41"/>
</a>
</g>
</g>
<!-- Node4 -->
<g id="Node000004" class="node">
<title>Node4</title>
<g id="a_Node000004"><a xlink:href="../../d7/da7/class_shape.html#a4b502262ae5a22122456b9624d5ccb3d" target="_top" xlink:title="Accessor Functions &#45; Returns the data named after them.">
<polygon fill="white" stroke="#666666" points="200.38,-93.25 101.12,-93.25 101.12,-74 200.38,-74 200.38,-93.25"/>
<text text-anchor="middle" x="150.75" y="-79.75" font-family="Helvetica,sans-Serif" font-size="10.00">Shape::getShapeId</text>
</a>
</g>
</g>
<!-- Node1&#45;&gt;Node4 -->
<g id="edge3_Node000001_Node000004" class="edge">
<title>Node1&#45;&gt;Node4</title>
<g id="a_edge3_Node000001_Node000004"><a xlink:title=" ">
<path fill="none" stroke="#63b8ff" d="M64.29,-83.62C72.08,-83.62 80.71,-83.62 89.39,-83.62"/>
<polygon fill="#63b8ff" stroke="#63b8ff" points="89.26,-87.13 99.26,-83.63 89.26,-80.13 89.26,-87.13"/>
</a>
</g>
</g>
<!-- Node5 -->
<g id="Node000005" class="node">
<title>Node5</title>
<g id="a_Node000005"><a xlink:href="../../d7/da7/class_shape.html#af604de36aa616c585bb30dedf5e5c68b" target="_top" xlink:title=" ">
<polygon fill="white" stroke="#666666" points="185.75,-56.25 115.75,-56.25 115.75,-37 185.75,-37 185.75,-56.25"/>
<text text-anchor="middle" x="150.75" y="-42.75" font-family="Helvetica,sans-Serif" font-size="10.00">Shape::getX</text>
</a>
</g>
</g>
<!-- Node1&#45;&gt;Node5 -->
<g id="edge4_Node000001_Node000005" class="edge">
<title>Node1&#45;&gt;Node5</title>
<g id="a_edge4_Node000001_Node000005"><a xlink:title=" ">
<path fill="none" stroke="#63b8ff" d="M64.29,-73.71C77.53,-69.51 93.16,-64.56 107.41,-60.04"/>
<polygon fill="#63b8ff" stroke="#63b8ff" points="108.05,-63.51 116.53,-57.15 105.94,-56.84 108.05,-63.51"/>
</a>
</g>
</g>
<!-- Node6 -->
<g id="Node000006" class="node">
<title>Node6</title>
<g id="a_Node000006"><a xlink:href="../../d7/da7/class_shape.html#a2e87ea4122381ffb83474f4b69247ded" target="_top" xlink:title=" ">
<polygon fill="white" stroke="#666666" points="185.75,-19.25 115.75,-19.25 115.75,0 185.75,0 185.75,-19.25"/>
<text text-anchor="middle" x="150.75" y="-5.75" font-family="Helvetica,sans-Serif" font-size="10.00">Shape::getY</text>
</a>
</g>
</g>
<!-- Node1&#45;&gt;Node6 -->
<g id="edge5_Node000001_Node000006" class="edge">
<title>Node1&#45;&gt;Node6</title>
<g id="a_edge5_Node000001_Node000006"><a xlink:title=" ">
<path fill="none" stroke="#63b8ff" d="M42.61,-73.69C54.92,-61.43 77.39,-40.62 100,-27.62 102.05,-26.44 104.2,-25.32 106.39,-24.25"/>
<polygon fill="#63b8ff" stroke="#63b8ff" points="107.75,-27.48 115.51,-20.27 104.95,-21.06 107.75,-27.48"/>
</a>
</g>
</g>
</g>
</svg>
</svg>

<style type='text/css'>
<![CDATA[
[data-mouse-over-selected='false'] { opacity: 0.7; }
[data-mouse-over-selected='true']  { opacity: 1.0; }
]]>
</style>
<script type="application/ecmascript"><![CDATA[
document.addEventListener('DOMContentLoaded', (event) => {
  highlightEdges();
  highlightAdjacentNodes();
});
]]></script>
</svg>
