<?xml version="1.0" encoding="UTF-8" standalone="no"?>
<!DOCTYPE svg PUBLIC "-//W3C//DTD SVG 1.1//EN"
 "http://www.w3.org/Graphics/SVG/1.1/DTD/svg11.dtd">
<!-- Generated by graphviz version 12.2.1 (20241206.2353)
 -->
<!-- Title: ApiClient::GoodGetReply Pages: 1 -->
<svg width="1039pt" height="390pt"
 viewBox="0.00 0.00 1038.50 390.25" xmlns="http://www.w3.org/2000/svg" xmlns:xlink="http://www.w3.org/1999/xlink">
<g id="graph0" class="graph" transform="scale(1 1) rotate(0) translate(4 386.25)">
<title>ApiClient::GoodGetReply</title>
<!-- Node1 -->
<g id="Node000001" class="node">
<title>Node1</title>
<g id="a_Node000001"><a xlink:title="Signal for a successful request sent to a Get endpoint.">
<polygon fill="#999999" stroke="#666666" points="1030.5,-206.25 904.25,-206.25 904.25,-187 1030.5,-187 1030.5,-206.25"/>
<text text-anchor="middle" x="967.38" y="-192.75" font-family="Helvetica,sans-Serif" font-size="10.00">ApiClient::GoodGetReply</text>
</a>
</g>
</g>
<!-- Node2 -->
<g id="Node000002" class="node">
<title>Node2</title>
<g id="a_Node000002"><a xlink:href="../../d2/dd1/class_api_client.html#a6b63bb2faeed34e082d84c1c624dda39" target="_top" xlink:title="Analyzes the reply for GET requests.">
<polygon fill="white" stroke="#666666" points="855.88,-308.25 717.62,-308.25 717.62,-289 855.88,-289 855.88,-308.25"/>
<text text-anchor="middle" x="786.75" y="-294.75" font-family="Helvetica,sans-Serif" font-size="10.00">ApiClient::AnalyzeGetReply</text>
</a>
</g>
</g>
<!-- Node1&#45;&gt;Node2 -->
<g id="edge1_Node000001_Node000002" class="edge">
<title>Node1&#45;&gt;Node2</title>
<g id="a_edge1_Node000001_Node000002"><a xlink:title=" ">
<path fill="none" stroke="#63b8ff" d="M950.22,-214.99C932.17,-234.31 901.14,-264.16 868.25,-280.62 861.97,-283.77 855.15,-286.36 848.22,-288.51"/>
<polygon fill="#63b8ff" stroke="#63b8ff" points="952.6,-217.56 956.75,-207.81 947.43,-212.85 952.6,-217.56"/>
</a>
</g>
</g>
<!-- Node8 -->
<g id="Node000008" class="node">
<title>Node8</title>
<g id="a_Node000008"><a xlink:href="../../d8/d80/src_2backend_2main_8cpp.html#a84072597d0db9696c164a2f9e30706f9" target="_top" xlink:title=" ">
<polygon fill="white" stroke="#666666" points="839,-271.25 734.5,-271.25 734.5,-252 839,-252 839,-271.25"/>
<text text-anchor="middle" x="786.75" y="-257.75" font-family="Helvetica,sans-Serif" font-size="10.00">GetConnectedClient</text>
</a>
</g>
</g>
<!-- Node1&#45;&gt;Node8 -->
<g id="edge7_Node000001_Node000008" class="edge">
<title>Node1&#45;&gt;Node8</title>
<g id="a_edge7_Node000001_Node000008"><a xlink:title=" ">
<path fill="none" stroke="#63b8ff" d="M937.86,-211.91C918.62,-221.74 892.42,-234.21 868.25,-242.62 858.49,-246.02 847.85,-249.02 837.6,-251.56"/>
<polygon fill="#63b8ff" stroke="#63b8ff" points="939.44,-215.04 946.7,-207.32 936.21,-208.82 939.44,-215.04"/>
</a>
</g>
</g>
<!-- Node9 -->
<g id="Node000009" class="node">
<title>Node9</title>
<g id="a_Node000009"><a xlink:href="../../d8/d08/class_render_area_manager.html#a40e9c4c1fdd040cbd0a0a366fb337024" target="_top" xlink:title="Constructs a RenderAreaManager object and connects API client signals.">
<polygon fill="white" stroke="#666666" points="842.38,-233.88 731.12,-233.88 731.12,-203.38 842.38,-203.38 842.38,-233.88"/>
<text text-anchor="start" x="739.12" y="-220.38" font-family="Helvetica,sans-Serif" font-size="10.00">RenderAreaManager::</text>
<text text-anchor="middle" x="786.75" y="-209.12" font-family="Helvetica,sans-Serif" font-size="10.00">RenderAreaManager</text>
</a>
</g>
</g>
<!-- Node1&#45;&gt;Node9 -->
<g id="edge8_Node000001_Node000009" class="edge">
<title>Node1&#45;&gt;Node9</title>
<g id="a_edge8_Node000001_Node000009"><a xlink:title=" ">
<path fill="none" stroke="#63b8ff" d="M892.52,-205.72C875.86,-207.77 858.47,-209.92 842.75,-211.85"/>
<polygon fill="#63b8ff" stroke="#63b8ff" points="892.9,-209.2 902.4,-204.5 892.05,-202.25 892.9,-209.2"/>
</a>
</g>
</g>
<!-- Node10 -->
<g id="Node000010" class="node">
<title>Node10</title>
<g id="a_Node000010"><a xlink:href="../../d3/dde/class_shapes_manager.html#ab717143ddccb519cf74e28a27793112a" target="_top" xlink:title="Default Constructor.">
<polygon fill="white" stroke="#666666" points="868.25,-185.25 705.25,-185.25 705.25,-166 868.25,-166 868.25,-185.25"/>
<text text-anchor="middle" x="786.75" y="-171.75" font-family="Helvetica,sans-Serif" font-size="10.00">ShapesManager::ShapesManager</text>
</a>
</g>
</g>
<!-- Node1&#45;&gt;Node10 -->
<g id="edge9_Node000001_Node000010" class="edge">
<title>Node1&#45;&gt;Node10</title>
<g id="a_edge9_Node000001_Node000010"><a xlink:title=" ">
<path fill="none" stroke="#63b8ff" d="M892.53,-187.94C884.67,-187.02 876.65,-186.08 868.71,-185.14"/>
<polygon fill="#63b8ff" stroke="#63b8ff" points="892.06,-191.41 902.4,-189.1 892.87,-184.46 892.06,-191.41"/>
</a>
</g>
</g>
<!-- Node11 -->
<g id="Node000011" class="node">
<title>Node11</title>
<g id="a_Node000011"><a xlink:href="../../d4/d0d/class_testimonial_manager.html#aded0ef0783e1e67e701f7c3bf3a80072" target="_top" xlink:title="Private constructor to enforce singleton pattern. Initializes API connections and timer.">
<polygon fill="white" stroke="#666666" points="841.25,-147.88 732.25,-147.88 732.25,-117.38 841.25,-117.38 841.25,-147.88"/>
<text text-anchor="start" x="740.25" y="-134.38" font-family="Helvetica,sans-Serif" font-size="10.00">TestimonialManager</text>
<text text-anchor="middle" x="786.75" y="-123.12" font-family="Helvetica,sans-Serif" font-size="10.00">::TestimonialManager</text>
</a>
</g>
</g>
<!-- Node1&#45;&gt;Node11 -->
<g id="edge10_Node000001_Node000011" class="edge">
<title>Node1&#45;&gt;Node11</title>
<g id="a_edge10_Node000001_Node000011"><a xlink:title=" ">
<path fill="none" stroke="#63b8ff" d="M933.18,-182.15C914.31,-174.17 890.15,-164.33 868.25,-156.62 859.72,-153.62 850.6,-150.67 841.68,-147.91"/>
<polygon fill="#63b8ff" stroke="#63b8ff" points="931.66,-185.31 942.23,-186.02 934.41,-178.87 931.66,-185.31"/>
</a>
</g>
</g>
<!-- Node21 -->
<g id="Node000021" class="node">
<title>Node21</title>
<g id="a_Node000021"><a xlink:href="../../d1/da2/class_user_manager.html#aefc22181e82f255ad68cb91d98373077" target="_top" xlink:title="Constructor. Initializes ApiClient connections and loads users.">
<polygon fill="white" stroke="#666666" points="856.25,-99.25 717.25,-99.25 717.25,-80 856.25,-80 856.25,-99.25"/>
<text text-anchor="middle" x="786.75" y="-85.75" font-family="Helvetica,sans-Serif" font-size="10.00">UserManager::UserManager</text>
</a>
</g>
</g>
<!-- Node1&#45;&gt;Node21 -->
<g id="edge23_Node000001_Node000021" class="edge">
<title>Node1&#45;&gt;Node21</title>
<g id="a_edge23_Node000001_Node000021"><a xlink:title=" ">
<path fill="none" stroke="#63b8ff" d="M950.92,-178.07C933.09,-157.9 901.87,-126.19 868.25,-108.62 861.38,-105.03 853.82,-102.11 846.18,-99.74"/>
<polygon fill="#63b8ff" stroke="#63b8ff" points="948.18,-180.25 957.36,-185.54 953.48,-175.68 948.18,-180.25"/>
</a>
</g>
</g>
<!-- Node3 -->
<g id="Node000003" class="node">
<title>Node3</title>
<g id="a_Node000003"><a xlink:href="../../d2/dd1/class_api_client.html#a7ac17ab761c4ee56fa63802573b343e3" target="_top" xlink:title="Default Constructor.">
<polygon fill="white" stroke="#666666" points="653.88,-382.25 552.38,-382.25 552.38,-363 653.88,-363 653.88,-382.25"/>
<text text-anchor="middle" x="603.12" y="-368.75" font-family="Helvetica,sans-Serif" font-size="10.00">ApiClient::ApiClient</text>
</a>
</g>
</g>
<!-- Node2&#45;&gt;Node3 -->
<g id="edge2_Node000002_Node000003" class="edge">
<title>Node2&#45;&gt;Node3</title>
<g id="a_edge2_Node000002_Node000003"><a xlink:title=" ">
<path fill="none" stroke="#63b8ff" d="M757.47,-313.98C734.25,-326.15 700.27,-342.99 669.25,-354.62 661.45,-357.55 652.97,-360.24 644.78,-362.59"/>
<polygon fill="#63b8ff" stroke="#63b8ff" points="759.1,-317.08 766.29,-309.3 755.82,-310.89 759.1,-317.08"/>
</a>
</g>
</g>
<!-- Node4 -->
<g id="Node000004" class="node">
<title>Node4</title>
<g id="a_Node000004"><a xlink:href="../../d2/dd1/class_api_client.html#a6bea8ab609c3dbd768ab921896fc3c73" target="_top" xlink:title="Makes a request to get data from the Get /render_area API Endpoint.">
<polygon fill="white" stroke="#666666" points="667.75,-345.25 538.5,-345.25 538.5,-326 667.75,-326 667.75,-345.25"/>
<text text-anchor="middle" x="603.12" y="-331.75" font-family="Helvetica,sans-Serif" font-size="10.00">ApiClient::GetRenderArea</text>
</a>
</g>
</g>
<!-- Node2&#45;&gt;Node4 -->
<g id="edge3_Node000002_Node000004" class="edge">
<title>Node2&#45;&gt;Node4</title>
<g id="a_edge3_Node000002_Node000004"><a xlink:title=" ">
<path fill="none" stroke="#63b8ff" d="M725.01,-311C701.83,-315.72 675.71,-321.04 653.69,-325.53"/>
<polygon fill="#63b8ff" stroke="#63b8ff" points="725.54,-314.46 734.64,-309.04 724.14,-307.6 725.54,-314.46"/>
</a>
</g>
</g>
<!-- Node5 -->
<g id="Node000005" class="node">
<title>Node5</title>
<g id="a_Node000005"><a xlink:href="../../d2/dd1/class_api_client.html#a6a3032eaed65944641fc1fde85edf5dc" target="_top" xlink:title="Makes a request to get data from the Get /shapes API Endpoint.">
<polygon fill="white" stroke="#666666" points="658.38,-308.25 547.88,-308.25 547.88,-289 658.38,-289 658.38,-308.25"/>
<text text-anchor="middle" x="603.12" y="-294.75" font-family="Helvetica,sans-Serif" font-size="10.00">ApiClient::GetShapes</text>
</a>
</g>
</g>
<!-- Node2&#45;&gt;Node5 -->
<g id="edge4_Node000002_Node000005" class="edge">
<title>Node2&#45;&gt;Node5</title>
<g id="a_edge4_Node000002_Node000005"><a xlink:title=" ">
<path fill="none" stroke="#63b8ff" d="M705.83,-298.62C689.88,-298.62 673.47,-298.62 658.61,-298.62"/>
<polygon fill="#63b8ff" stroke="#63b8ff" points="705.83,-302.13 715.83,-298.63 705.83,-295.13 705.83,-302.13"/>
</a>
</g>
</g>
<!-- Node6 -->
<g id="Node000006" class="node">
<title>Node6</title>
<g id="a_Node000006"><a xlink:href="../../d2/dd1/class_api_client.html#a7de3d9e256dde6ed86c19fa4b19c8af6" target="_top" xlink:title="Makes a request to get all testimonials via GET /testimonials.">
<polygon fill="white" stroke="#666666" points="669.25,-271.25 537,-271.25 537,-252 669.25,-252 669.25,-271.25"/>
<text text-anchor="middle" x="603.12" y="-257.75" font-family="Helvetica,sans-Serif" font-size="10.00">ApiClient::GetTestimonials</text>
</a>
</g>
</g>
<!-- Node2&#45;&gt;Node6 -->
<g id="edge5_Node000002_Node000006" class="edge">
<title>Node2&#45;&gt;Node6</title>
<g id="a_edge5_Node000002_Node000006"><a xlink:title=" ">
<path fill="none" stroke="#63b8ff" d="M725.01,-286.25C701.83,-281.53 675.71,-276.21 653.69,-271.72"/>
<polygon fill="#63b8ff" stroke="#63b8ff" points="724.14,-289.65 734.64,-288.21 725.54,-282.79 724.14,-289.65"/>
</a>
</g>
</g>
<!-- Node7 -->
<g id="Node000007" class="node">
<title>Node7</title>
<g id="a_Node000007"><a xlink:href="../../d2/dd1/class_api_client.html#a5782e90eb0265b193e81e989dc823a3d" target="_top" xlink:title="Makes a request to get data from the Get /users API Endpoint.">
<polygon fill="white" stroke="#666666" points="655,-234.25 551.25,-234.25 551.25,-215 655,-215 655,-234.25"/>
<text text-anchor="middle" x="603.12" y="-220.75" font-family="Helvetica,sans-Serif" font-size="10.00">ApiClient::GetUsers</text>
</a>
</g>
</g>
<!-- Node2&#45;&gt;Node7 -->
<g id="edge6_Node000002_Node000007" class="edge">
<title>Node2&#45;&gt;Node7</title>
<g id="a_edge6_Node000002_Node000007"><a xlink:title=" ">
<path fill="none" stroke="#63b8ff" d="M712.59,-284.36C710.07,-283.21 707.61,-281.97 705.25,-280.62 685.02,-269.14 689.19,-254.61 669.25,-242.62 664.02,-239.48 658.23,-236.88 652.32,-234.71"/>
<polygon fill="#63b8ff" stroke="#63b8ff" points="711.27,-287.6 721.85,-288.02 713.84,-281.09 711.27,-287.6"/>
</a>
</g>
</g>
<!-- Node12 -->
<g id="Node000012" class="node">
<title>Node12</title>
<g id="a_Node000012"><a xlink:href="../../d4/d0d/class_testimonial_manager.html#a7b05489ceb9a8bd5e94e955c50b9515f" target="_top" xlink:title="Returns a reference to the singleton TestimonialManager instance.">
<polygon fill="white" stroke="#666666" points="654.62,-147.88 551.62,-147.88 551.62,-117.38 654.62,-117.38 654.62,-147.88"/>
<text text-anchor="start" x="559.62" y="-134.38" font-family="Helvetica,sans-Serif" font-size="10.00">TestimonialManager</text>
<text text-anchor="middle" x="603.12" y="-123.12" font-family="Helvetica,sans-Serif" font-size="10.00">::getInstance</text>
</a>
</g>
</g>
<!-- Node11&#45;&gt;Node12 -->
<g id="edge11_Node000011_Node000012" class="edge">
<title>Node11&#45;&gt;Node12</title>
<g id="a_edge11_Node000011_Node000012"><a xlink:title=" ">
<path fill="none" stroke="#63b8ff" d="M720.83,-132.62C699.21,-132.62 675.47,-132.62 655.07,-132.62"/>
<polygon fill="#63b8ff" stroke="#63b8ff" points="720.73,-136.13 730.73,-132.63 720.73,-129.13 720.73,-136.13"/>
</a>
</g>
</g>
<!-- Node13 -->
<g id="Node000013" class="node">
<title>Node13</title>
<g id="a_Node000013"><a xlink:href="../../d4/d1f/class_testimonial_dialog.html#a4a73a410e9fd8c28b794fe0584976414" target="_top" xlink:title="Handles the cancellation of the testimonial submission.">
<polygon fill="white" stroke="#666666" points="472.12,-221.88 372.88,-221.88 372.88,-191.38 472.12,-191.38 472.12,-221.88"/>
<text text-anchor="start" x="380.88" y="-208.38" font-family="Helvetica,sans-Serif" font-size="10.00">TestimonialDialog::</text>
<text text-anchor="middle" x="422.5" y="-197.12" font-family="Helvetica,sans-Serif" font-size="10.00">onCancel</text>
</a>
</g>
</g>
<!-- Node12&#45;&gt;Node13 -->
<g id="edge12_Node000012_Node000013" class="edge">
<title>Node12&#45;&gt;Node13</title>
<g id="a_edge12_Node000012_Node000013"><a xlink:title=" ">
<path fill="none" stroke="#63b8ff" d="M562.46,-153.43C544.04,-162.68 521.68,-173.33 501,-181.62 491.82,-185.31 481.86,-188.85 472.24,-192.05"/>
<polygon fill="#63b8ff" stroke="#63b8ff" points="563.85,-156.65 571.18,-149 560.68,-150.41 563.85,-156.65"/>
</a>
</g>
</g>
<!-- Node15 -->
<g id="Node000015" class="node">
<title>Node15</title>
<g id="a_Node000015"><a xlink:href="../../d4/d1f/class_testimonial_dialog.html#a98f2520e872b1eabda8e66a3807ef39e" target="_top" xlink:title="Handles the submission of a new testimonial.">
<polygon fill="white" stroke="#666666" points="472.12,-172.88 372.88,-172.88 372.88,-142.38 472.12,-142.38 472.12,-172.88"/>
<text text-anchor="start" x="380.88" y="-159.38" font-family="Helvetica,sans-Serif" font-size="10.00">TestimonialDialog::</text>
<text text-anchor="middle" x="422.5" y="-148.12" font-family="Helvetica,sans-Serif" font-size="10.00">onSubmit</text>
</a>
</g>
</g>
<!-- Node12&#45;&gt;Node15 -->
<g id="edge14_Node000012_Node000015" class="edge">
<title>Node12&#45;&gt;Node15</title>
<g id="a_edge14_Node000012_Node000015"><a xlink:title=" ">
<path fill="none" stroke="#63b8ff" d="M540.1,-141.31C517.97,-144.4 493.37,-147.85 472.49,-150.77"/>
<polygon fill="#63b8ff" stroke="#63b8ff" points="540.5,-144.78 549.92,-139.93 539.53,-137.85 540.5,-144.78"/>
</a>
</g>
</g>
<!-- Node16 -->
<g id="Node000016" class="node">
<title>Node16</title>
<g id="a_Node000016"><a xlink:href="../../d8/d62/class_testimonials_display_dialog.html#a3176c00727ade2c7890937cf50b58d6f" target="_top" xlink:title="Refreshes the displayed list of testimonials.">
<polygon fill="white" stroke="#666666" points="488.25,-123.88 356.75,-123.88 356.75,-93.38 488.25,-93.38 488.25,-123.88"/>
<text text-anchor="start" x="364.75" y="-110.38" font-family="Helvetica,sans-Serif" font-size="10.00">TestimonialsDisplayDialog</text>
<text text-anchor="middle" x="422.5" y="-99.12" font-family="Helvetica,sans-Serif" font-size="10.00">::refreshTestimonials</text>
</a>
</g>
</g>
<!-- Node12&#45;&gt;Node16 -->
<g id="edge16_Node000012_Node000016" class="edge">
<title>Node12&#45;&gt;Node16</title>
<g id="a_edge16_Node000012_Node000016"><a xlink:title=" ">
<path fill="none" stroke="#63b8ff" d="M540.16,-124.3C523.54,-122.07 505.51,-119.64 488.72,-117.39"/>
<polygon fill="#63b8ff" stroke="#63b8ff" points="539.54,-127.75 549.92,-125.61 540.47,-120.81 539.54,-127.75"/>
</a>
</g>
</g>
<!-- Node18 -->
<g id="Node000018" class="node">
<title>Node18</title>
<g id="a_Node000018"><a xlink:href="../../d9/dc6/class_main_window.html#aa2910dbb80e3e72ef731d27d70100d8e" target="_top" xlink:title="Sets up connections and UI elements for the testimonial feature.">
<polygon fill="white" stroke="#666666" points="501,-75.25 344,-75.25 344,-56 501,-56 501,-75.25"/>
<text text-anchor="middle" x="422.5" y="-61.75" font-family="Helvetica,sans-Serif" font-size="10.00">MainWindow::setupTestimonials</text>
</a>
</g>
</g>
<!-- Node12&#45;&gt;Node18 -->
<g id="edge18_Node000012_Node000018" class="edge">
<title>Node12&#45;&gt;Node18</title>
<g id="a_edge18_Node000012_Node000018"><a xlink:title=" ">
<path fill="none" stroke="#63b8ff" d="M563.08,-111.81C544.62,-102.57 522.07,-92.12 501,-84.62 491.47,-81.24 481.08,-78.23 471.08,-75.67"/>
<polygon fill="#63b8ff" stroke="#63b8ff" points="561.3,-114.83 571.8,-116.25 564.47,-108.6 561.3,-114.83"/>
</a>
</g>
</g>
<!-- Node14 -->
<g id="Node000014" class="node">
<title>Node14</title>
<g id="a_Node000014"><a xlink:href="../../d4/d1f/class_testimonial_dialog.html#aa4e46d387d1d8fd4793ede8c2deb0fd4" target="_top" xlink:title="Constructs a TestimonialDialog.">
<polygon fill="white" stroke="#666666" points="288.88,-197.88 189.62,-197.88 189.62,-167.38 288.88,-167.38 288.88,-197.88"/>
<text text-anchor="start" x="197.62" y="-184.38" font-family="Helvetica,sans-Serif" font-size="10.00">TestimonialDialog::</text>
<text text-anchor="middle" x="239.25" y="-173.12" font-family="Helvetica,sans-Serif" font-size="10.00">TestimonialDialog</text>
</a>
</g>
</g>
<!-- Node13&#45;&gt;Node14 -->
<g id="edge13_Node000013_Node000014" class="edge">
<title>Node13&#45;&gt;Node14</title>
<g id="a_edge13_Node000013_Node000014"><a xlink:title=" ">
<path fill="none" stroke="#63b8ff" d="M361.26,-198.65C337.91,-195.56 311.51,-192.06 289.34,-189.12"/>
<polygon fill="#63b8ff" stroke="#63b8ff" points="360.58,-202.09 370.95,-199.93 361.5,-195.15 360.58,-202.09"/>
</a>
</g>
</g>
<!-- Node15&#45;&gt;Node14 -->
<g id="edge15_Node000015_Node000014" class="edge">
<title>Node15&#45;&gt;Node14</title>
<g id="a_edge15_Node000015_Node000014"><a xlink:title=" ">
<path fill="none" stroke="#63b8ff" d="M361.26,-165.93C337.91,-169.16 311.51,-172.8 289.34,-175.85"/>
<polygon fill="#63b8ff" stroke="#63b8ff" points="361.52,-169.43 370.95,-164.6 360.57,-162.5 361.52,-169.43"/>
</a>
</g>
</g>
<!-- Node17 -->
<g id="Node000017" class="node">
<title>Node17</title>
<g id="a_Node000017"><a xlink:href="../../d8/d62/class_testimonials_display_dialog.html#a4e2ab02e7129d2f299f13a6dc4538272" target="_top" xlink:title="Constructs a TestimonialsDisplayDialog.">
<polygon fill="white" stroke="#666666" points="308,-123.88 170.5,-123.88 170.5,-93.38 308,-93.38 308,-123.88"/>
<text text-anchor="start" x="178.5" y="-110.38" font-family="Helvetica,sans-Serif" font-size="10.00">TestimonialsDisplayDialog</text>
<text text-anchor="middle" x="239.25" y="-99.12" font-family="Helvetica,sans-Serif" font-size="10.00">::TestimonialsDisplayDialog</text>
</a>
</g>
</g>
<!-- Node16&#45;&gt;Node17 -->
<g id="edge17_Node000016_Node000017" class="edge">
<title>Node16&#45;&gt;Node17</title>
<g id="a_edge17_Node000016_Node000017"><a xlink:title=" ">
<path fill="none" stroke="#63b8ff" d="M345.18,-108.62C332.9,-108.62 320.27,-108.62 308.21,-108.62"/>
<polygon fill="#63b8ff" stroke="#63b8ff" points="344.81,-112.13 354.81,-108.63 344.81,-105.13 344.81,-112.13"/>
</a>
</g>
</g>
<!-- Node19 -->
<g id="Node000019" class="node">
<title>Node19</title>
<g id="a_Node000019"><a xlink:href="../../d9/dc6/class_main_window.html#a25d06b6f11a1eb7fa2239f01e853ae29" target="_top" xlink:title=" ">
<polygon fill="white" stroke="#666666" points="134.5,-47.25 0,-47.25 0,-28 134.5,-28 134.5,-47.25"/>
<text text-anchor="middle" x="67.25" y="-33.75" font-family="Helvetica,sans-Serif" font-size="10.00">MainWindow::MainWindow</text>
</a>
</g>
</g>
<!-- Node18&#45;&gt;Node19 -->
<g id="edge19_Node000018_Node000019" class="edge">
<title>Node18&#45;&gt;Node19</title>
<g id="a_edge19_Node000018_Node000019"><a xlink:title=" ">
<path fill="none" stroke="#63b8ff" d="M332.45,-59.15C284.46,-55.59 224.23,-51.02 170.5,-46.62 158.96,-45.68 146.68,-44.63 134.79,-43.6"/>
<polygon fill="#63b8ff" stroke="#63b8ff" points="332.01,-62.63 342.24,-59.87 332.52,-55.65 332.01,-62.63"/>
</a>
</g>
</g>
<!-- Node20 -->
<g id="Node000020" class="node">
<title>Node20</title>
<g id="a_Node000020"><a xlink:href="../../d9/dc6/class_main_window.html#a996c5a2b6f77944776856f08ec30858d" target="_top" xlink:title="Default constructor.">
<polygon fill="white" stroke="#666666" points="306.5,-19.25 172,-19.25 172,0 306.5,0 306.5,-19.25"/>
<text text-anchor="middle" x="239.25" y="-5.75" font-family="Helvetica,sans-Serif" font-size="10.00">MainWindow::MainWindow</text>
</a>
</g>
</g>
<!-- Node18&#45;&gt;Node20 -->
<g id="edge20_Node000018_Node000020" class="edge">
<title>Node18&#45;&gt;Node20</title>
<g id="a_edge20_Node000018_Node000020"><a xlink:title=" ">
<path fill="none" stroke="#63b8ff" d="M378.17,-52.24C345.87,-42.26 302.42,-28.83 272.98,-19.74"/>
<polygon fill="#63b8ff" stroke="#63b8ff" points="377.06,-55.56 387.65,-55.17 379.13,-48.87 377.06,-55.56"/>
</a>
</g>
</g>
<!-- Node20&#45;&gt;Node19 -->
<g id="edge21_Node000020_Node000019" class="edge">
<title>Node20&#45;&gt;Node19</title>
<g id="a_edge21_Node000020_Node000019"><a xlink:title=" ">
<path fill="none" stroke="#63b8ff" d="M165.52,-21.6C153.53,-23.58 141.21,-25.61 129.53,-27.53"/>
<polygon fill="#63b8ff" stroke="#63b8ff" points="166.08,-25.06 175.38,-19.98 164.95,-18.15 166.08,-25.06"/>
</a>
</g>
</g>
<!-- Node20&#45;&gt;Node20 -->
<g id="edge22_Node000020_Node000020" class="edge">
<title>Node20&#45;&gt;Node20</title>
<g id="a_edge22_Node000020_Node000020"><a xlink:title=" ">
<path fill="none" stroke="#63b8ff" d="M270.09,-30.32C266.54,-34.37 256.26,-37.25 239.25,-37.25 209.02,-37.25 200.04,-28.15 212.32,-19.54"/>
<polygon fill="#63b8ff" stroke="#63b8ff" points="273.4,-29.17 266.69,-20.96 266.82,-31.55 273.4,-29.17"/>
</a>
</g>
</g>
</g>
</svg>
