<?xml version="1.0" encoding="UTF-8" standalone="no"?>
<!DOCTYPE svg PUBLIC "-//W3C//DTD SVG 1.1//EN"
 "http://www.w3.org/Graphics/SVG/1.1/DTD/svg11.dtd">
<!-- Generated by graphviz version 12.2.1 (20241206.2353)
 -->
<!-- Title: ApiClient::PostRenderArea Pages: 1 -->
<svg width="487pt" height="64pt"
 viewBox="0.00 0.00 487.25 64.25" xmlns="http://www.w3.org/2000/svg" xmlns:xlink="http://www.w3.org/1999/xlink">
<g id="graph0" class="graph" transform="scale(1 1) rotate(0) translate(4 60.25)">
<title>ApiClient::PostRenderArea</title>
<!-- Node1 -->
<g id="Node000001" class="node">
<title>Node1</title>
<g id="a_Node000001"><a xlink:title="Makes a request to send data to the Post /render_area API Endpoint.">
<polygon fill="#999999" stroke="#666666" points="133.75,-37.25 0,-37.25 0,-18 133.75,-18 133.75,-37.25"/>
<text text-anchor="middle" x="66.88" y="-23.75" font-family="Helvetica,sans-Serif" font-size="10.00">ApiClient::PostRenderArea</text>
</a>
</g>
</g>
<!-- Node2 -->
<g id="Node000002" class="node">
<title>Node2</title>
<g id="a_Node000002"><a xlink:href="../../d2/dd1/class_api_client.html#aeaa808b2a23ba8e6f5e5520a991127e3" target="_top" xlink:title="Analyzes the reply for POST requests.">
<polygon fill="white" stroke="#666666" points="312.5,-37.25 169.75,-37.25 169.75,-18 312.5,-18 312.5,-37.25"/>
<text text-anchor="middle" x="241.12" y="-23.75" font-family="Helvetica,sans-Serif" font-size="10.00">ApiClient::AnalyzePostReply</text>
</a>
</g>
</g>
<!-- Node1&#45;&gt;Node2 -->
<g id="edge1_Node000001_Node000002" class="edge">
<title>Node1&#45;&gt;Node2</title>
<g id="a_edge1_Node000001_Node000002"><a xlink:title=" ">
<path fill="none" stroke="#63b8ff" d="M133.98,-27.62C141.85,-27.62 149.95,-27.62 158.01,-27.62"/>
<polygon fill="#63b8ff" stroke="#63b8ff" points="157.82,-31.13 167.82,-27.63 157.82,-24.13 157.82,-31.13"/>
</a>
</g>
</g>
<!-- Node3 -->
<g id="Node000003" class="node">
<title>Node3</title>
<g id="a_Node000003"><a xlink:href="../../d2/dd1/class_api_client.html#ac0f68b238bace3703854d7de15a3bb38" target="_top" xlink:title="Signal for a failed request sent to a Post endpoint.">
<polygon fill="white" stroke="#666666" points="476.25,-56.25 351.5,-56.25 351.5,-37 476.25,-37 476.25,-56.25"/>
<text text-anchor="middle" x="413.88" y="-42.75" font-family="Helvetica,sans-Serif" font-size="10.00">ApiClient::BadPostReply</text>
</a>
</g>
</g>
<!-- Node2&#45;&gt;Node3 -->
<g id="edge2_Node000002_Node000003" class="edge">
<title>Node2&#45;&gt;Node3</title>
<g id="a_edge2_Node000002_Node000003"><a xlink:title=" ">
<path fill="none" stroke="#63b8ff" d="M312.56,-35.46C321.54,-36.46 330.75,-37.49 339.77,-38.49"/>
<polygon fill="#63b8ff" stroke="#63b8ff" points="339.23,-41.95 349.55,-39.58 340,-34.99 339.23,-41.95"/>
</a>
</g>
</g>
<!-- Node4 -->
<g id="Node000004" class="node">
<title>Node4</title>
<g id="a_Node000004"><a xlink:href="../../d2/dd1/class_api_client.html#aa2e03a2c693acb0052f80415b453e279" target="_top" xlink:title="Signal for a successful request sent to a Post endpoint.">
<polygon fill="white" stroke="#666666" points="479.25,-19.25 348.5,-19.25 348.5,0 479.25,0 479.25,-19.25"/>
<text text-anchor="middle" x="413.88" y="-5.75" font-family="Helvetica,sans-Serif" font-size="10.00">ApiClient::GoodPostReply</text>
</a>
</g>
</g>
<!-- Node2&#45;&gt;Node4 -->
<g id="edge3_Node000002_Node000004" class="edge">
<title>Node2&#45;&gt;Node4</title>
<g id="a_edge3_Node000002_Node000004"><a xlink:title=" ">
<path fill="none" stroke="#63b8ff" d="M312.56,-20.2C320.55,-19.36 328.73,-18.5 336.79,-17.65"/>
<polygon fill="#63b8ff" stroke="#63b8ff" points="337,-21.14 346.57,-16.61 336.26,-14.18 337,-21.14"/>
</a>
</g>
</g>
</g>
</svg>
