<?xml version="1.0" encoding="UTF-8" standalone="no"?>
<!DOCTYPE svg PUBLIC "-//W3C//DTD SVG 1.1//EN"
 "http://www.w3.org/Graphics/SVG/1.1/DTD/svg11.dtd">
<!-- Generated by graphviz version 12.2.1 (20241206.2353)
 -->
<!-- Title: ApiClient::PostUsers Pages: 1 -->
<svg width="462pt" height="64pt"
 viewBox="0.00 0.00 461.75 64.25" xmlns="http://www.w3.org/2000/svg" xmlns:xlink="http://www.w3.org/1999/xlink">
<g id="graph0" class="graph" transform="scale(1 1) rotate(0) translate(4 60.25)">
<title>ApiClient::PostUsers</title>
<!-- Node1 -->
<g id="Node000001" class="node">
<title>Node1</title>
<g id="a_Node000001"><a xlink:title="Makes a request to send data to the Post /users API Endpoint.">
<polygon fill="#999999" stroke="#666666" points="108.25,-37.25 0,-37.25 0,-18 108.25,-18 108.25,-37.25"/>
<text text-anchor="middle" x="54.12" y="-23.75" font-family="Helvetica,sans-Serif" font-size="10.00">ApiClient::PostUsers</text>
</a>
</g>
</g>
<!-- Node2 -->
<g id="Node000002" class="node">
<title>Node2</title>
<g id="a_Node000002"><a xlink:href="../../d2/dd1/class_api_client.html#aeaa808b2a23ba8e6f5e5520a991127e3" target="_top" xlink:title="Analyzes the reply for POST requests.">
<polygon fill="white" stroke="#666666" points="287,-37.25 144.25,-37.25 144.25,-18 287,-18 287,-37.25"/>
<text text-anchor="middle" x="215.62" y="-23.75" font-family="Helvetica,sans-Serif" font-size="10.00">ApiClient::AnalyzePostReply</text>
</a>
</g>
</g>
<!-- Node1&#45;&gt;Node2 -->
<g id="edge1_Node000001_Node000002" class="edge">
<title>Node1&#45;&gt;Node2</title>
<g id="a_edge1_Node000001_Node000002"><a xlink:title=" ">
<path fill="none" stroke="#63b8ff" d="M108.68,-27.62C116.37,-27.62 124.42,-27.62 132.51,-27.62"/>
<polygon fill="#63b8ff" stroke="#63b8ff" points="132.42,-31.13 142.42,-27.63 132.42,-24.13 132.42,-31.13"/>
</a>
</g>
</g>
<!-- Node3 -->
<g id="Node000003" class="node">
<title>Node3</title>
<g id="a_Node000003"><a xlink:href="../../d2/dd1/class_api_client.html#ac0f68b238bace3703854d7de15a3bb38" target="_top" xlink:title="Signal for a failed request sent to a Post endpoint.">
<polygon fill="white" stroke="#666666" points="450.75,-56.25 326,-56.25 326,-37 450.75,-37 450.75,-56.25"/>
<text text-anchor="middle" x="388.38" y="-42.75" font-family="Helvetica,sans-Serif" font-size="10.00">ApiClient::BadPostReply</text>
</a>
</g>
</g>
<!-- Node2&#45;&gt;Node3 -->
<g id="edge2_Node000002_Node000003" class="edge">
<title>Node2&#45;&gt;Node3</title>
<g id="a_edge2_Node000002_Node000003"><a xlink:title=" ">
<path fill="none" stroke="#63b8ff" d="M287.06,-35.46C296.04,-36.46 305.25,-37.49 314.27,-38.49"/>
<polygon fill="#63b8ff" stroke="#63b8ff" points="313.73,-41.95 324.05,-39.58 314.5,-34.99 313.73,-41.95"/>
</a>
</g>
</g>
<!-- Node4 -->
<g id="Node000004" class="node">
<title>Node4</title>
<g id="a_Node000004"><a xlink:href="../../d2/dd1/class_api_client.html#aa2e03a2c693acb0052f80415b453e279" target="_top" xlink:title="Signal for a successful request sent to a Post endpoint.">
<polygon fill="white" stroke="#666666" points="453.75,-19.25 323,-19.25 323,0 453.75,0 453.75,-19.25"/>
<text text-anchor="middle" x="388.38" y="-5.75" font-family="Helvetica,sans-Serif" font-size="10.00">ApiClient::GoodPostReply</text>
</a>
</g>
</g>
<!-- Node2&#45;&gt;Node4 -->
<g id="edge3_Node000002_Node000004" class="edge">
<title>Node2&#45;&gt;Node4</title>
<g id="a_edge3_Node000002_Node000004"><a xlink:title=" ">
<path fill="none" stroke="#63b8ff" d="M287.06,-20.2C295.05,-19.36 303.23,-18.5 311.29,-17.65"/>
<polygon fill="#63b8ff" stroke="#63b8ff" points="311.5,-21.14 321.07,-16.61 310.76,-14.18 311.5,-21.14"/>
</a>
</g>
</g>
</g>
</svg>
