<?xml version="1.0" encoding="UTF-8" standalone="no"?>
<!DOCTYPE svg PUBLIC "-//W3C//DTD SVG 1.1//EN"
 "http://www.w3.org/Graphics/SVG/1.1/DTD/svg11.dtd">
<!-- Generated by graphviz version 12.2.1 (20241206.2353)
 -->
<!-- Title: ApiClient::GoodDeleteReply Pages: 1 -->
<svg width="538pt" height="211pt"
 viewBox="0.00 0.00 538.25 211.25" xmlns="http://www.w3.org/2000/svg" xmlns:xlink="http://www.w3.org/1999/xlink">
<g id="graph0" class="graph" transform="scale(1 1) rotate(0) translate(4 207.25)">
<title>ApiClient::GoodDeleteReply</title>
<!-- Node1 -->
<g id="Node000001" class="node">
<title>Node1</title>
<g id="a_Node000001"><a xlink:title="Signal for a successful request sent to a Delete endpoint.">
<polygon fill="#999999" stroke="#666666" points="530.25,-77.25 391.25,-77.25 391.25,-58 530.25,-58 530.25,-77.25"/>
<text text-anchor="middle" x="460.75" y="-63.75" font-family="Helvetica,sans-Serif" font-size="10.00">ApiClient::GoodDeleteReply</text>
</a>
</g>
</g>
<!-- Node2 -->
<g id="Node000002" class="node">
<title>Node2</title>
<g id="a_Node000002"><a xlink:href="../../d2/dd1/class_api_client.html#addc68bb9473d31fdf49098377f48d17b" target="_top" xlink:title="Analyzes the reply for DELETE requests.">
<polygon fill="white" stroke="#666666" points="336.5,-153.88 211,-153.88 211,-123.38 336.5,-123.38 336.5,-153.88"/>
<text text-anchor="start" x="219" y="-140.38" font-family="Helvetica,sans-Serif" font-size="10.00">ApiClient::AnalyzeDelete</text>
<text text-anchor="middle" x="273.75" y="-129.12" font-family="Helvetica,sans-Serif" font-size="10.00">Reply</text>
</a>
</g>
</g>
<!-- Node1&#45;&gt;Node2 -->
<g id="edge1_Node000001_Node000002" class="edge">
<title>Node1&#45;&gt;Node2</title>
<g id="a_edge1_Node000001_Node000002"><a xlink:title=" ">
<path fill="none" stroke="#63b8ff" d="M428.48,-82.5C407.91,-92.01 380.27,-104.27 355.25,-113.62 346.61,-116.85 337.35,-120.01 328.3,-122.93"/>
<polygon fill="#63b8ff" stroke="#63b8ff" points="429.87,-85.72 437.45,-78.32 426.91,-79.37 429.87,-85.72"/>
</a>
</g>
</g>
<!-- Node7 -->
<g id="Node000007" class="node">
<title>Node7</title>
<g id="a_Node000007"><a xlink:href="../../d8/d08/class_render_area_manager.html#a40e9c4c1fdd040cbd0a0a366fb337024" target="_top" xlink:title="Constructs a RenderAreaManager object and connects API client signals.">
<polygon fill="white" stroke="#666666" points="329.38,-104.88 218.12,-104.88 218.12,-74.38 329.38,-74.38 329.38,-104.88"/>
<text text-anchor="start" x="226.12" y="-91.38" font-family="Helvetica,sans-Serif" font-size="10.00">RenderAreaManager::</text>
<text text-anchor="middle" x="273.75" y="-80.12" font-family="Helvetica,sans-Serif" font-size="10.00">RenderAreaManager</text>
</a>
</g>
</g>
<!-- Node1&#45;&gt;Node7 -->
<g id="edge6_Node000001_Node000007" class="edge">
<title>Node1&#45;&gt;Node7</title>
<g id="a_edge6_Node000001_Node000007"><a xlink:title=" ">
<path fill="none" stroke="#63b8ff" d="M379.88,-77.12C363,-79.13 345.55,-81.21 329.83,-83.07"/>
<polygon fill="#63b8ff" stroke="#63b8ff" points="379.84,-80.65 389.36,-76 379.02,-73.7 379.84,-80.65"/>
</a>
</g>
</g>
<!-- Node8 -->
<g id="Node000008" class="node">
<title>Node8</title>
<g id="a_Node000008"><a xlink:href="../../d3/dde/class_shapes_manager.html#ab717143ddccb519cf74e28a27793112a" target="_top" xlink:title="Default Constructor.">
<polygon fill="white" stroke="#666666" points="355.25,-56.25 192.25,-56.25 192.25,-37 355.25,-37 355.25,-56.25"/>
<text text-anchor="middle" x="273.75" y="-42.75" font-family="Helvetica,sans-Serif" font-size="10.00">ShapesManager::ShapesManager</text>
</a>
</g>
</g>
<!-- Node1&#45;&gt;Node8 -->
<g id="edge7_Node000001_Node000008" class="edge">
<title>Node1&#45;&gt;Node8</title>
<g id="a_edge7_Node000001_Node000008"><a xlink:title=" ">
<path fill="none" stroke="#63b8ff" d="M379.67,-58.53C371.68,-57.63 363.56,-56.71 355.56,-55.8"/>
<polygon fill="#63b8ff" stroke="#63b8ff" points="379.03,-61.98 389.36,-59.63 379.82,-55.03 379.03,-61.98"/>
</a>
</g>
</g>
<!-- Node9 -->
<g id="Node000009" class="node">
<title>Node9</title>
<g id="a_Node000009"><a xlink:href="../../d1/da2/class_user_manager.html#aefc22181e82f255ad68cb91d98373077" target="_top" xlink:title="Constructor. Initializes ApiClient connections and loads users.">
<polygon fill="white" stroke="#666666" points="343.25,-19.25 204.25,-19.25 204.25,0 343.25,0 343.25,-19.25"/>
<text text-anchor="middle" x="273.75" y="-5.75" font-family="Helvetica,sans-Serif" font-size="10.00">UserManager::UserManager</text>
</a>
</g>
</g>
<!-- Node1&#45;&gt;Node9 -->
<g id="edge8_Node000001_Node000009" class="edge">
<title>Node1&#45;&gt;Node9</title>
<g id="a_edge8_Node000001_Node000009"><a xlink:title=" ">
<path fill="none" stroke="#63b8ff" d="M425.87,-53.22C405.63,-44.97 379.26,-34.86 355.25,-27.62 345.65,-24.73 335.28,-22.07 325.28,-19.74"/>
<polygon fill="#63b8ff" stroke="#63b8ff" points="424.45,-56.42 435.03,-57 427.13,-49.95 424.45,-56.42"/>
</a>
</g>
</g>
<!-- Node3 -->
<g id="Node000003" class="node">
<title>Node3</title>
<g id="a_Node000003"><a xlink:href="../../d2/dd1/class_api_client.html#a9b4a0deedb0a85a2a79e8257944cc6b6" target="_top" xlink:title="Makes a request to delete all render area data via Delete /render_area&#45;all.">
<polygon fill="white" stroke="#666666" points="154.75,-203.25 1.5,-203.25 1.5,-184 154.75,-184 154.75,-203.25"/>
<text text-anchor="middle" x="78.12" y="-189.75" font-family="Helvetica,sans-Serif" font-size="10.00">ApiClient::DeleteRenderAreaAll</text>
</a>
</g>
</g>
<!-- Node2&#45;&gt;Node3 -->
<g id="edge2_Node000002_Node000003" class="edge">
<title>Node2&#45;&gt;Node3</title>
<g id="a_edge2_Node000002_Node000003"><a xlink:title=" ">
<path fill="none" stroke="#63b8ff" d="M215.47,-157.8C196.69,-163.82 175.66,-170.29 156.25,-175.62 146.17,-178.4 135.28,-181.11 124.95,-183.55"/>
<polygon fill="#63b8ff" stroke="#63b8ff" points="216.35,-161.19 224.79,-154.78 214.2,-154.53 216.35,-161.19"/>
</a>
</g>
</g>
<!-- Node4 -->
<g id="Node000004" class="node">
<title>Node4</title>
<g id="a_Node000004"><a xlink:href="../../d2/dd1/class_api_client.html#adfd82e41d4424634a25e72626176fce9" target="_top" xlink:title="Makes a request to delete all shapes via the Delete /shapes&#45;all endpoint.">
<polygon fill="white" stroke="#666666" points="145.38,-166.25 10.88,-166.25 10.88,-147 145.38,-147 145.38,-166.25"/>
<text text-anchor="middle" x="78.12" y="-152.75" font-family="Helvetica,sans-Serif" font-size="10.00">ApiClient::DeleteShapesAll</text>
</a>
</g>
</g>
<!-- Node2&#45;&gt;Node4 -->
<g id="edge3_Node000002_Node000004" class="edge">
<title>Node2&#45;&gt;Node4</title>
<g id="a_edge3_Node000002_Node000004"><a xlink:title=" ">
<path fill="none" stroke="#63b8ff" d="M199.33,-145.45C181.76,-147.08 163.1,-148.82 145.85,-150.42"/>
<polygon fill="#63b8ff" stroke="#63b8ff" points="199.55,-148.95 209.18,-144.53 198.9,-141.98 199.55,-148.95"/>
</a>
</g>
</g>
<!-- Node5 -->
<g id="Node000005" class="node">
<title>Node5</title>
<g id="a_Node000005"><a xlink:href="../../d2/dd1/class_api_client.html#a46a2caf6cafa0ed3e8754dc1676159ba" target="_top" xlink:title="Makes a request to delete all testimonials via DELETE /testimonials.">
<polygon fill="white" stroke="#666666" points="156.25,-129.25 0,-129.25 0,-110 156.25,-110 156.25,-129.25"/>
<text text-anchor="middle" x="78.12" y="-115.75" font-family="Helvetica,sans-Serif" font-size="10.00">ApiClient::DeleteTestimonialsAll</text>
</a>
</g>
</g>
<!-- Node2&#45;&gt;Node5 -->
<g id="edge4_Node000002_Node000005" class="edge">
<title>Node2&#45;&gt;Node5</title>
<g id="a_edge4_Node000002_Node000005"><a xlink:title=" ">
<path fill="none" stroke="#63b8ff" d="M199.57,-131.44C185.48,-130.06 170.68,-128.61 156.46,-127.21"/>
<polygon fill="#63b8ff" stroke="#63b8ff" points="198.89,-134.89 209.18,-132.39 199.57,-127.93 198.89,-134.89"/>
</a>
</g>
</g>
<!-- Node6 -->
<g id="Node000006" class="node">
<title>Node6</title>
<g id="a_Node000006"><a xlink:href="../../d2/dd1/class_api_client.html#a4a58d3d1ab46afa9348afe1bfd4c2c02" target="_top" xlink:title="Makes a request to delete all user data via Delete /users&#45;all.">
<polygon fill="white" stroke="#666666" points="142,-92.25 14.25,-92.25 14.25,-73 142,-73 142,-92.25"/>
<text text-anchor="middle" x="78.12" y="-78.75" font-family="Helvetica,sans-Serif" font-size="10.00">ApiClient::DeleteUsersAll</text>
</a>
</g>
</g>
<!-- Node2&#45;&gt;Node6 -->
<g id="edge5_Node000002_Node000006" class="edge">
<title>Node2&#45;&gt;Node6</title>
<g id="a_edge5_Node000002_Node000006"><a xlink:title=" ">
<path fill="none" stroke="#63b8ff" d="M210.2,-119.51C204.12,-117.56 198.06,-115.57 192.25,-113.62 176.12,-108.21 172.56,-105.46 156.25,-100.62 146.63,-97.77 136.22,-95.09 126.26,-92.7"/>
<polygon fill="#63b8ff" stroke="#63b8ff" points="209.07,-122.82 219.66,-122.51 211.19,-116.15 209.07,-122.82"/>
</a>
</g>
</g>
</g>
</svg>
