<?xml version="1.0" encoding="UTF-8" standalone="no"?>
<!DOCTYPE svg PUBLIC "-//W3C//DTD SVG 1.1//EN"
 "http://www.w3.org/Graphics/SVG/1.1/DTD/svg11.dtd">
<!-- Generated by graphviz version 12.2.1 (20241206.2353)
 -->
<!-- Title: ApiClient::AnalyzeGetReply Pages: 1 -->
<svg width="315pt" height="175pt"
 viewBox="0.00 0.00 314.50 175.25" xmlns="http://www.w3.org/2000/svg" xmlns:xlink="http://www.w3.org/1999/xlink">

<svg id="main" version="1.1" xmlns="http://www.w3.org/2000/svg" xmlns:xlink="http://www.w3.org/1999/xlink" xml:space="preserve">

<style type="text/css"><![CDATA[
.node, .edge {opacity: 0.7;}
.node.selected, .edge.selected {opacity: 1;}
.edge:hover path { stroke: red; }
.edge:hover polygon { stroke: red; fill: red; }
]]></style>
<script type="application/ecmascript" xlink:href="../../svg.min.js"/>
<svg id="graph" class="graph">
<g id="graph0" class="graph" transform="scale(1 1) rotate(0) translate(4 171.25)">
<title>ApiClient::AnalyzeGetReply</title>
<!-- Node1 -->
<g id="Node000001" class="node">
<title>Node1</title>
<g id="a_Node000001"><a xlink:title="Analyzes the reply for GET requests.">
<polygon fill="#999999" stroke="#666666" points="306.5,-93.25 168.25,-93.25 168.25,-74 306.5,-74 306.5,-93.25"/>
<text text-anchor="middle" x="237.38" y="-79.75" font-family="Helvetica,sans-Serif" font-size="10.00">ApiClient::AnalyzeGetReply</text>
</a>
</g>
</g>
<!-- Node2 -->
<g id="Node000002" class="node">
<title>Node2</title>
<g id="a_Node000002"><a xlink:href="../../d2/dd1/class_api_client.html#a7ac17ab761c4ee56fa63802573b343e3" target="_top" xlink:title="Default Constructor.">
<polygon fill="white" stroke="#666666" points="116.88,-167.25 15.38,-167.25 15.38,-148 116.88,-148 116.88,-167.25"/>
<text text-anchor="middle" x="66.12" y="-153.75" font-family="Helvetica,sans-Serif" font-size="10.00">ApiClient::ApiClient</text>
</a>
</g>
</g>
<!-- Node1&#45;&gt;Node2 -->
<g id="edge1_Node000001_Node000002" class="edge">
<title>Node1&#45;&gt;Node2</title>
<g id="a_edge1_Node000001_Node000002"><a xlink:title=" ">
<path fill="none" stroke="#63b8ff" d="M210.75,-99.51C190.14,-111.76 160.12,-128.44 132.25,-139.62 124.85,-142.6 116.78,-145.26 108.93,-147.57"/>
<polygon fill="#63b8ff" stroke="#63b8ff" points="212.28,-102.67 219.04,-94.51 208.67,-96.67 212.28,-102.67"/>
</a>
</g>
</g>
<!-- Node3 -->
<g id="Node000003" class="node">
<title>Node3</title>
<g id="a_Node000003"><a xlink:href="../../d2/dd1/class_api_client.html#a6bea8ab609c3dbd768ab921896fc3c73" target="_top" xlink:title="Makes a request to get data from the Get /render_area API Endpoint.">
<polygon fill="white" stroke="#666666" points="130.75,-130.25 1.5,-130.25 1.5,-111 130.75,-111 130.75,-130.25"/>
<text text-anchor="middle" x="66.12" y="-116.75" font-family="Helvetica,sans-Serif" font-size="10.00">ApiClient::GetRenderArea</text>
</a>
</g>
</g>
<!-- Node1&#45;&gt;Node3 -->
<g id="edge2_Node000001_Node000003" class="edge">
<title>Node1&#45;&gt;Node3</title>
<g id="a_edge2_Node000001_Node000003"><a xlink:title=" ">
<path fill="none" stroke="#63b8ff" d="M178.89,-96.19C157.51,-100.87 133.55,-106.1 113.32,-110.53"/>
<polygon fill="#63b8ff" stroke="#63b8ff" points="179.63,-99.61 188.65,-94.06 178.13,-92.78 179.63,-99.61"/>
</a>
</g>
</g>
<!-- Node4 -->
<g id="Node000004" class="node">
<title>Node4</title>
<g id="a_Node000004"><a xlink:href="../../d2/dd1/class_api_client.html#a6a3032eaed65944641fc1fde85edf5dc" target="_top" xlink:title="Makes a request to get data from the Get /shapes API Endpoint.">
<polygon fill="white" stroke="#666666" points="121.38,-93.25 10.88,-93.25 10.88,-74 121.38,-74 121.38,-93.25"/>
<text text-anchor="middle" x="66.12" y="-79.75" font-family="Helvetica,sans-Serif" font-size="10.00">ApiClient::GetShapes</text>
</a>
</g>
</g>
<!-- Node1&#45;&gt;Node4 -->
<g id="edge3_Node000001_Node000004" class="edge">
<title>Node1&#45;&gt;Node4</title>
<g id="a_edge3_Node000001_Node000004"><a xlink:title=" ">
<path fill="none" stroke="#63b8ff" d="M156.72,-83.62C144.86,-83.62 132.87,-83.62 121.69,-83.62"/>
<polygon fill="#63b8ff" stroke="#63b8ff" points="156.51,-87.13 166.51,-83.63 156.51,-80.13 156.51,-87.13"/>
</a>
</g>
</g>
<!-- Node5 -->
<g id="Node000005" class="node">
<title>Node5</title>
<g id="a_Node000005"><a xlink:href="../../d2/dd1/class_api_client.html#a7de3d9e256dde6ed86c19fa4b19c8af6" target="_top" xlink:title="Makes a request to get all testimonials via GET /testimonials.">
<polygon fill="white" stroke="#666666" points="132.25,-56.25 0,-56.25 0,-37 132.25,-37 132.25,-56.25"/>
<text text-anchor="middle" x="66.12" y="-42.75" font-family="Helvetica,sans-Serif" font-size="10.00">ApiClient::GetTestimonials</text>
</a>
</g>
</g>
<!-- Node1&#45;&gt;Node5 -->
<g id="edge4_Node000001_Node000005" class="edge">
<title>Node1&#45;&gt;Node5</title>
<g id="a_edge4_Node000001_Node000005"><a xlink:title=" ">
<path fill="none" stroke="#63b8ff" d="M178.89,-71.06C157.51,-66.38 133.55,-61.15 113.32,-56.72"/>
<polygon fill="#63b8ff" stroke="#63b8ff" points="178.13,-74.47 188.65,-73.19 179.63,-67.64 178.13,-74.47"/>
</a>
</g>
</g>
<!-- Node6 -->
<g id="Node000006" class="node">
<title>Node6</title>
<g id="a_Node000006"><a xlink:href="../../d2/dd1/class_api_client.html#a5782e90eb0265b193e81e989dc823a3d" target="_top" xlink:title="Makes a request to get data from the Get /users API Endpoint.">
<polygon fill="white" stroke="#666666" points="118,-19.25 14.25,-19.25 14.25,0 118,0 118,-19.25"/>
<text text-anchor="middle" x="66.12" y="-5.75" font-family="Helvetica,sans-Serif" font-size="10.00">ApiClient::GetUsers</text>
</a>
</g>
</g>
<!-- Node1&#45;&gt;Node6 -->
<g id="edge5_Node000001_Node000006" class="edge">
<title>Node1&#45;&gt;Node6</title>
<g id="a_edge5_Node000001_Node000006"><a xlink:title=" ">
<path fill="none" stroke="#63b8ff" d="M210.75,-67.74C190.14,-55.49 160.12,-38.81 132.25,-27.62 124.85,-24.65 116.78,-21.99 108.93,-19.68"/>
<polygon fill="#63b8ff" stroke="#63b8ff" points="208.67,-70.58 219.04,-72.74 212.28,-64.58 208.67,-70.58"/>
</a>
</g>
</g>
</g>
</svg>
</svg>

<style type='text/css'>
<![CDATA[
[data-mouse-over-selected='false'] { opacity: 0.7; }
[data-mouse-over-selected='true']  { opacity: 1.0; }
]]>
</style>
<script type="application/ecmascript"><![CDATA[
document.addEventListener('DOMContentLoaded', (event) => {
  highlightEdges();
  highlightAdjacentNodes();
});
]]></script>
</svg>
