<?xml version="1.0" encoding="UTF-8" standalone="no"?>
<!DOCTYPE svg PUBLIC "-//W3C//DTD SVG 1.1//EN"
 "http://www.w3.org/Graphics/SVG/1.1/DTD/svg11.dtd">
<!-- Generated by graphviz version 12.2.1 (20241206.2353)
 -->
<!-- Title: ApiClient::GetRenderArea Pages: 1 -->
<svg width="474pt" height="64pt"
 viewBox="0.00 0.00 473.75 64.25" xmlns="http://www.w3.org/2000/svg" xmlns:xlink="http://www.w3.org/1999/xlink">
<g id="graph0" class="graph" transform="scale(1 1) rotate(0) translate(4 60.25)">
<title>ApiClient::GetRenderArea</title>
<!-- Node1 -->
<g id="Node000001" class="node">
<title>Node1</title>
<g id="a_Node000001"><a xlink:title="Makes a request to get data from the Get /render_area API Endpoint.">
<polygon fill="#999999" stroke="#666666" points="129.25,-37.25 0,-37.25 0,-18 129.25,-18 129.25,-37.25"/>
<text text-anchor="middle" x="64.62" y="-23.75" font-family="Helvetica,sans-Serif" font-size="10.00">ApiClient::GetRenderArea</text>
</a>
</g>
</g>
<!-- Node2 -->
<g id="Node000002" class="node">
<title>Node2</title>
<g id="a_Node000002"><a xlink:href="../../d2/dd1/class_api_client.html#a6b63bb2faeed34e082d84c1c624dda39" target="_top" xlink:title="Analyzes the reply for GET requests.">
<polygon fill="white" stroke="#666666" points="303.5,-37.25 165.25,-37.25 165.25,-18 303.5,-18 303.5,-37.25"/>
<text text-anchor="middle" x="234.38" y="-23.75" font-family="Helvetica,sans-Serif" font-size="10.00">ApiClient::AnalyzeGetReply</text>
</a>
</g>
</g>
<!-- Node1&#45;&gt;Node2 -->
<g id="edge1_Node000001_Node000002" class="edge">
<title>Node1&#45;&gt;Node2</title>
<g id="a_edge1_Node000001_Node000002"><a xlink:title=" ">
<path fill="none" stroke="#63b8ff" d="M129.52,-27.62C137.39,-27.62 145.5,-27.62 153.57,-27.62"/>
<polygon fill="#63b8ff" stroke="#63b8ff" points="153.39,-31.13 163.39,-27.63 153.39,-24.13 153.39,-31.13"/>
</a>
</g>
</g>
<!-- Node3 -->
<g id="Node000003" class="node">
<title>Node3</title>
<g id="a_Node000003"><a xlink:href="../../d2/dd1/class_api_client.html#ae22339e302eb27bc51fbdfc1b7c1a4ec" target="_top" xlink:title="Signal for a failed request sent to a Get endpoint.">
<polygon fill="white" stroke="#666666" points="462.75,-56.25 342.5,-56.25 342.5,-37 462.75,-37 462.75,-56.25"/>
<text text-anchor="middle" x="402.62" y="-42.75" font-family="Helvetica,sans-Serif" font-size="10.00">ApiClient::BadGetReply</text>
</a>
</g>
</g>
<!-- Node2&#45;&gt;Node3 -->
<g id="edge2_Node000002_Node000003" class="edge">
<title>Node2&#45;&gt;Node3</title>
<g id="a_edge2_Node000002_Node000003"><a xlink:title=" ">
<path fill="none" stroke="#63b8ff" d="M303.96,-35.46C312.89,-36.48 322.05,-37.53 331.01,-38.55"/>
<polygon fill="#63b8ff" stroke="#63b8ff" points="330.39,-42.01 340.72,-39.66 331.18,-35.05 330.39,-42.01"/>
</a>
</g>
</g>
<!-- Node4 -->
<g id="Node000004" class="node">
<title>Node4</title>
<g id="a_Node000004"><a xlink:href="../../d2/dd1/class_api_client.html#a940bf610f9fa472fc660e1ab60203de7" target="_top" xlink:title="Signal for a successful request sent to a Get endpoint.">
<polygon fill="white" stroke="#666666" points="465.75,-19.25 339.5,-19.25 339.5,0 465.75,0 465.75,-19.25"/>
<text text-anchor="middle" x="402.62" y="-5.75" font-family="Helvetica,sans-Serif" font-size="10.00">ApiClient::GoodGetReply</text>
</a>
</g>
</g>
<!-- Node2&#45;&gt;Node4 -->
<g id="edge3_Node000002_Node000004" class="edge">
<title>Node2&#45;&gt;Node4</title>
<g id="a_edge3_Node000002_Node000004"><a xlink:title=" ">
<path fill="none" stroke="#63b8ff" d="M303.96,-20.2C311.77,-19.35 319.76,-18.49 327.64,-17.64"/>
<polygon fill="#63b8ff" stroke="#63b8ff" points="328,-21.12 337.56,-16.56 327.24,-14.16 328,-21.12"/>
</a>
</g>
</g>
</g>
</svg>
