<?xml version="1.0" encoding="UTF-8" standalone="no"?>
<!DOCTYPE svg PUBLIC "-//W3C//DTD SVG 1.1//EN"
 "http://www.w3.org/Graphics/SVG/1.1/DTD/svg11.dtd">
<!-- Generated by graphviz version 12.2.1 (20241206.2353)
 -->
<!-- Title: ApiClient::AnalyzePostReply Pages: 1 -->
<svg width="318pt" height="64pt"
 viewBox="0.00 0.00 317.50 64.25" xmlns="http://www.w3.org/2000/svg" xmlns:xlink="http://www.w3.org/1999/xlink">
<g id="graph0" class="graph" transform="scale(1 1) rotate(0) translate(4 60.25)">
<title>ApiClient::AnalyzePostReply</title>
<!-- Node1 -->
<g id="Node000001" class="node">
<title>Node1</title>
<g id="a_Node000001"><a xlink:title="Analyzes the reply for POST requests.">
<polygon fill="#999999" stroke="#666666" points="142.75,-37.25 0,-37.25 0,-18 142.75,-18 142.75,-37.25"/>
<text text-anchor="middle" x="71.38" y="-23.75" font-family="Helvetica,sans-Serif" font-size="10.00">ApiClient::AnalyzePostReply</text>
</a>
</g>
</g>
<!-- Node2 -->
<g id="Node000002" class="node">
<title>Node2</title>
<g id="a_Node000002"><a xlink:href="../../d2/dd1/class_api_client.html#ac0f68b238bace3703854d7de15a3bb38" target="_top" xlink:title="Signal for a failed request sent to a Post endpoint.">
<polygon fill="white" stroke="#666666" points="306.5,-56.25 181.75,-56.25 181.75,-37 306.5,-37 306.5,-56.25"/>
<text text-anchor="middle" x="244.12" y="-42.75" font-family="Helvetica,sans-Serif" font-size="10.00">ApiClient::BadPostReply</text>
</a>
</g>
</g>
<!-- Node1&#45;&gt;Node2 -->
<g id="edge1_Node000001_Node000002" class="edge">
<title>Node1&#45;&gt;Node2</title>
<g id="a_edge1_Node000001_Node000002"><a xlink:title=" ">
<path fill="none" stroke="#63b8ff" d="M142.81,-35.46C151.79,-36.46 161,-37.49 170.02,-38.49"/>
<polygon fill="#63b8ff" stroke="#63b8ff" points="169.48,-41.95 179.8,-39.58 170.25,-34.99 169.48,-41.95"/>
</a>
</g>
</g>
<!-- Node3 -->
<g id="Node000003" class="node">
<title>Node3</title>
<g id="a_Node000003"><a xlink:href="../../d2/dd1/class_api_client.html#aa2e03a2c693acb0052f80415b453e279" target="_top" xlink:title="Signal for a successful request sent to a Post endpoint.">
<polygon fill="white" stroke="#666666" points="309.5,-19.25 178.75,-19.25 178.75,0 309.5,0 309.5,-19.25"/>
<text text-anchor="middle" x="244.12" y="-5.75" font-family="Helvetica,sans-Serif" font-size="10.00">ApiClient::GoodPostReply</text>
</a>
</g>
</g>
<!-- Node1&#45;&gt;Node3 -->
<g id="edge2_Node000001_Node000003" class="edge">
<title>Node1&#45;&gt;Node3</title>
<g id="a_edge2_Node000001_Node000003"><a xlink:title=" ">
<path fill="none" stroke="#63b8ff" d="M142.81,-20.2C150.8,-19.36 158.98,-18.5 167.04,-17.65"/>
<polygon fill="#63b8ff" stroke="#63b8ff" points="167.25,-21.14 176.82,-16.61 166.51,-14.18 167.25,-21.14"/>
</a>
</g>
</g>
</g>
</svg>
