<?xml version="1.0" encoding="UTF-8" standalone="no"?>
<!DOCTYPE svg PUBLIC "-//W3C//DTD SVG 1.1//EN"
 "http://www.w3.org/Graphics/SVG/1.1/DTD/svg11.dtd">
<!-- Generated by graphviz version 12.2.1 (20241206.2353)
 -->
<!-- Title: ApiClient::GoodPostReply Pages: 1 -->
<svg width="1048pt" height="371pt"
 viewBox="0.00 0.00 1047.50 371.25" xmlns="http://www.w3.org/2000/svg" xmlns:xlink="http://www.w3.org/1999/xlink">
<g id="graph0" class="graph" transform="scale(1 1) rotate(0) translate(4 367.25)">
<title>ApiClient::GoodPostReply</title>
<!-- Node1 -->
<g id="Node000001" class="node">
<title>Node1</title>
<g id="a_Node000001"><a xlink:title="Signal for a successful request sent to a Post endpoint.">
<polygon fill="#999999" stroke="#666666" points="1039.5,-206.25 908.75,-206.25 908.75,-187 1039.5,-187 1039.5,-206.25"/>
<text text-anchor="middle" x="974.12" y="-192.75" font-family="Helvetica,sans-Serif" font-size="10.00">ApiClient::GoodPostReply</text>
</a>
</g>
</g>
<!-- Node2 -->
<g id="Node000002" class="node">
<title>Node2</title>
<g id="a_Node000002"><a xlink:href="../../d2/dd1/class_api_client.html#aeaa808b2a23ba8e6f5e5520a991127e3" target="_top" xlink:title="Analyzes the reply for POST requests.">
<polygon fill="white" stroke="#666666" points="862.62,-308.25 719.88,-308.25 719.88,-289 862.62,-289 862.62,-308.25"/>
<text text-anchor="middle" x="791.25" y="-294.75" font-family="Helvetica,sans-Serif" font-size="10.00">ApiClient::AnalyzePostReply</text>
</a>
</g>
</g>
<!-- Node1&#45;&gt;Node2 -->
<g id="edge1_Node000001_Node000002" class="edge">
<title>Node1&#45;&gt;Node2</title>
<g id="a_edge1_Node000001_Node000002"><a xlink:title=" ">
<path fill="none" stroke="#63b8ff" d="M956.51,-214.98C937.97,-234.29 906.17,-264.13 872.75,-280.62 866.33,-283.79 859.35,-286.41 852.26,-288.57"/>
<polygon fill="#63b8ff" stroke="#63b8ff" points="958.96,-217.48 963.24,-207.79 953.85,-212.7 958.96,-217.48"/>
</a>
</g>
</g>
<!-- Node7 -->
<g id="Node000007" class="node">
<title>Node7</title>
<g id="a_Node000007"><a xlink:href="../../d8/d80/src_2backend_2main_8cpp.html#a84072597d0db9696c164a2f9e30706f9" target="_top" xlink:title=" ">
<polygon fill="white" stroke="#666666" points="843.5,-271.25 739,-271.25 739,-252 843.5,-252 843.5,-271.25"/>
<text text-anchor="middle" x="791.25" y="-257.75" font-family="Helvetica,sans-Serif" font-size="10.00">GetConnectedClient</text>
</a>
</g>
</g>
<!-- Node1&#45;&gt;Node7 -->
<g id="edge6_Node000001_Node000007" class="edge">
<title>Node1&#45;&gt;Node7</title>
<g id="a_edge6_Node000001_Node000007"><a xlink:title=" ">
<path fill="none" stroke="#63b8ff" d="M944.19,-211.74C924.47,-221.58 897.53,-234.12 872.75,-242.62 862.84,-246.03 852.03,-249.04 841.65,-251.6"/>
<polygon fill="#63b8ff" stroke="#63b8ff" points="945.65,-214.92 952.99,-207.28 942.49,-208.68 945.65,-214.92"/>
</a>
</g>
</g>
<!-- Node8 -->
<g id="Node000008" class="node">
<title>Node8</title>
<g id="a_Node000008"><a xlink:href="../../d8/d08/class_render_area_manager.html#a40e9c4c1fdd040cbd0a0a366fb337024" target="_top" xlink:title="Constructs a RenderAreaManager object and connects API client signals.">
<polygon fill="white" stroke="#666666" points="846.88,-233.88 735.62,-233.88 735.62,-203.38 846.88,-203.38 846.88,-233.88"/>
<text text-anchor="start" x="743.62" y="-220.38" font-family="Helvetica,sans-Serif" font-size="10.00">RenderAreaManager::</text>
<text text-anchor="middle" x="791.25" y="-209.12" font-family="Helvetica,sans-Serif" font-size="10.00">RenderAreaManager</text>
</a>
</g>
</g>
<!-- Node1&#45;&gt;Node8 -->
<g id="edge7_Node000001_Node000008" class="edge">
<title>Node1&#45;&gt;Node8</title>
<g id="a_edge7_Node000001_Node000008"><a xlink:title=" ">
<path fill="none" stroke="#63b8ff" d="M896.94,-205.89C880.29,-207.92 862.97,-210.02 847.33,-211.93"/>
<polygon fill="#63b8ff" stroke="#63b8ff" points="897.33,-209.37 906.83,-204.69 896.48,-202.42 897.33,-209.37"/>
</a>
</g>
</g>
<!-- Node9 -->
<g id="Node000009" class="node">
<title>Node9</title>
<g id="a_Node000009"><a xlink:href="../../d3/dde/class_shapes_manager.html#ab717143ddccb519cf74e28a27793112a" target="_top" xlink:title="Default Constructor.">
<polygon fill="white" stroke="#666666" points="872.75,-185.25 709.75,-185.25 709.75,-166 872.75,-166 872.75,-185.25"/>
<text text-anchor="middle" x="791.25" y="-171.75" font-family="Helvetica,sans-Serif" font-size="10.00">ShapesManager::ShapesManager</text>
</a>
</g>
</g>
<!-- Node1&#45;&gt;Node9 -->
<g id="edge8_Node000001_Node000009" class="edge">
<title>Node1&#45;&gt;Node9</title>
<g id="a_edge8_Node000001_Node000009"><a xlink:title=" ">
<path fill="none" stroke="#63b8ff" d="M897.17,-187.81C889.18,-186.88 881.04,-185.93 873,-185"/>
<polygon fill="#63b8ff" stroke="#63b8ff" points="896.5,-191.25 906.83,-188.93 897.3,-184.3 896.5,-191.25"/>
</a>
</g>
</g>
<!-- Node10 -->
<g id="Node000010" class="node">
<title>Node10</title>
<g id="a_Node000010"><a xlink:href="../../d4/d0d/class_testimonial_manager.html#aded0ef0783e1e67e701f7c3bf3a80072" target="_top" xlink:title="Private constructor to enforce singleton pattern. Initializes API connections and timer.">
<polygon fill="white" stroke="#666666" points="845.75,-147.88 736.75,-147.88 736.75,-117.38 845.75,-117.38 845.75,-147.88"/>
<text text-anchor="start" x="744.75" y="-134.38" font-family="Helvetica,sans-Serif" font-size="10.00">TestimonialManager</text>
<text text-anchor="middle" x="791.25" y="-123.12" font-family="Helvetica,sans-Serif" font-size="10.00">::TestimonialManager</text>
</a>
</g>
</g>
<!-- Node1&#45;&gt;Node10 -->
<g id="edge9_Node000001_Node000010" class="edge">
<title>Node1&#45;&gt;Node10</title>
<g id="a_edge9_Node000001_Node000010"><a xlink:title=" ">
<path fill="none" stroke="#63b8ff" d="M939.41,-182.31C920.06,-174.32 895.22,-164.43 872.75,-156.62 864.21,-153.66 855.08,-150.72 846.16,-147.97"/>
<polygon fill="#63b8ff" stroke="#63b8ff" points="937.85,-185.46 948.43,-186.07 940.54,-178.99 937.85,-185.46"/>
</a>
</g>
</g>
<!-- Node20 -->
<g id="Node000020" class="node">
<title>Node20</title>
<g id="a_Node000020"><a xlink:href="../../d1/da2/class_user_manager.html#aefc22181e82f255ad68cb91d98373077" target="_top" xlink:title="Constructor. Initializes ApiClient connections and loads users.">
<polygon fill="white" stroke="#666666" points="860.75,-99.25 721.75,-99.25 721.75,-80 860.75,-80 860.75,-99.25"/>
<text text-anchor="middle" x="791.25" y="-85.75" font-family="Helvetica,sans-Serif" font-size="10.00">UserManager::UserManager</text>
</a>
</g>
</g>
<!-- Node1&#45;&gt;Node20 -->
<g id="edge22_Node000001_Node000020" class="edge">
<title>Node1&#45;&gt;Node20</title>
<g id="a_edge22_Node000001_Node000020"><a xlink:title=" ">
<path fill="none" stroke="#63b8ff" d="M957.23,-178.09C938.9,-157.92 906.9,-126.22 872.75,-108.62 865.73,-105.01 858.01,-102.07 850.22,-99.68"/>
<polygon fill="#63b8ff" stroke="#63b8ff" points="954.6,-180.4 963.85,-185.56 959.84,-175.76 954.6,-180.4"/>
</a>
</g>
</g>
<!-- Node3 -->
<g id="Node000003" class="node">
<title>Node3</title>
<g id="a_Node000003"><a xlink:href="../../d2/dd1/class_api_client.html#a4112a3306ed988b66842c63b5bc857df" target="_top" xlink:title="Makes a request to send data to the Post /render_area API Endpoint.">
<polygon fill="white" stroke="#666666" points="672.25,-363.25 538.5,-363.25 538.5,-344 672.25,-344 672.25,-363.25"/>
<text text-anchor="middle" x="605.38" y="-349.75" font-family="Helvetica,sans-Serif" font-size="10.00">ApiClient::PostRenderArea</text>
</a>
</g>
</g>
<!-- Node2&#45;&gt;Node3 -->
<g id="edge2_Node000002_Node000003" class="edge">
<title>Node2&#45;&gt;Node3</title>
<g id="a_edge2_Node000002_Node000003"><a xlink:title=" ">
<path fill="none" stroke="#63b8ff" d="M749.44,-312.1C727.15,-319.33 699.02,-328.24 673.75,-335.62 664.57,-338.31 654.64,-341.05 645.3,-343.56"/>
<polygon fill="#63b8ff" stroke="#63b8ff" points="750.33,-315.49 758.76,-309.06 748.16,-308.83 750.33,-315.49"/>
</a>
</g>
</g>
<!-- Node4 -->
<g id="Node000004" class="node">
<title>Node4</title>
<g id="a_Node000004"><a xlink:href="../../d2/dd1/class_api_client.html#ae169e9c2947f90bb9fb95ab17db047d7" target="_top" xlink:title="Makes a request to send data to the Post /shapes API Endpoint.">
<polygon fill="white" stroke="#666666" points="662.88,-326.25 547.88,-326.25 547.88,-307 662.88,-307 662.88,-326.25"/>
<text text-anchor="middle" x="605.38" y="-312.75" font-family="Helvetica,sans-Serif" font-size="10.00">ApiClient::PostShapes</text>
</a>
</g>
</g>
<!-- Node2&#45;&gt;Node4 -->
<g id="edge3_Node000002_Node000004" class="edge">
<title>Node2&#45;&gt;Node4</title>
<g id="a_edge3_Node000002_Node000004"><a xlink:title=" ">
<path fill="none" stroke="#63b8ff" d="M708.4,-306.64C693.14,-308.13 677.5,-309.66 663.2,-311.06"/>
<polygon fill="#63b8ff" stroke="#63b8ff" points="708.3,-310.16 717.92,-305.71 707.62,-303.2 708.3,-310.16"/>
</a>
</g>
</g>
<!-- Node5 -->
<g id="Node000005" class="node">
<title>Node5</title>
<g id="a_Node000005"><a xlink:href="../../d2/dd1/class_api_client.html#a2db225a90ae46c72cd017a3ee3418d2b" target="_top" xlink:title="Makes a request to post testimonial data via POST /testimonials.">
<polygon fill="white" stroke="#666666" points="673.75,-289.25 537,-289.25 537,-270 673.75,-270 673.75,-289.25"/>
<text text-anchor="middle" x="605.38" y="-275.75" font-family="Helvetica,sans-Serif" font-size="10.00">ApiClient::PostTestimonials</text>
</a>
</g>
</g>
<!-- Node2&#45;&gt;Node5 -->
<g id="edge4_Node000002_Node000005" class="edge">
<title>Node2&#45;&gt;Node5</title>
<g id="a_edge4_Node000002_Node000005"><a xlink:title=" ">
<path fill="none" stroke="#63b8ff" d="M708.15,-290.14C696.78,-288.97 685.21,-287.77 674.14,-286.63"/>
<polygon fill="#63b8ff" stroke="#63b8ff" points="707.61,-293.6 717.92,-291.15 708.33,-286.64 707.61,-293.6"/>
</a>
</g>
</g>
<!-- Node6 -->
<g id="Node000006" class="node">
<title>Node6</title>
<g id="a_Node000006"><a xlink:href="../../d2/dd1/class_api_client.html#a043a6ed2acd12ef39291dce0fee9757a" target="_top" xlink:title="Makes a request to send data to the Post /users API Endpoint.">
<polygon fill="white" stroke="#666666" points="659.5,-252.25 551.25,-252.25 551.25,-233 659.5,-233 659.5,-252.25"/>
<text text-anchor="middle" x="605.38" y="-238.75" font-family="Helvetica,sans-Serif" font-size="10.00">ApiClient::PostUsers</text>
</a>
</g>
</g>
<!-- Node2&#45;&gt;Node6 -->
<g id="edge5_Node000002_Node000006" class="edge">
<title>Node2&#45;&gt;Node6</title>
<g id="a_edge5_Node000002_Node000006"><a xlink:title=" ">
<path fill="none" stroke="#63b8ff" d="M724.19,-285.49C719.26,-284.01 714.39,-282.39 709.75,-280.62 692.64,-274.12 690.72,-267.48 673.75,-260.62 666.34,-257.63 658.27,-254.98 650.38,-252.7"/>
<polygon fill="#63b8ff" stroke="#63b8ff" points="723.04,-288.8 733.61,-288.1 724.91,-282.05 723.04,-288.8"/>
</a>
</g>
</g>
<!-- Node11 -->
<g id="Node000011" class="node">
<title>Node11</title>
<g id="a_Node000011"><a xlink:href="../../d4/d0d/class_testimonial_manager.html#a7b05489ceb9a8bd5e94e955c50b9515f" target="_top" xlink:title="Returns a reference to the singleton TestimonialManager instance.">
<polygon fill="white" stroke="#666666" points="656.88,-147.88 553.88,-147.88 553.88,-117.38 656.88,-117.38 656.88,-147.88"/>
<text text-anchor="start" x="561.88" y="-134.38" font-family="Helvetica,sans-Serif" font-size="10.00">TestimonialManager</text>
<text text-anchor="middle" x="605.38" y="-123.12" font-family="Helvetica,sans-Serif" font-size="10.00">::getInstance</text>
</a>
</g>
</g>
<!-- Node10&#45;&gt;Node11 -->
<g id="edge10_Node000010_Node000011" class="edge">
<title>Node10&#45;&gt;Node11</title>
<g id="a_edge10_Node000010_Node000011"><a xlink:title=" ">
<path fill="none" stroke="#63b8ff" d="M725.16,-132.62C702.87,-132.62 678.28,-132.62 657.28,-132.62"/>
<polygon fill="#63b8ff" stroke="#63b8ff" points="725.06,-136.13 735.06,-132.63 725.06,-129.13 725.06,-136.13"/>
</a>
</g>
</g>
<!-- Node12 -->
<g id="Node000012" class="node">
<title>Node12</title>
<g id="a_Node000012"><a xlink:href="../../d4/d1f/class_testimonial_dialog.html#a4a73a410e9fd8c28b794fe0584976414" target="_top" xlink:title="Handles the cancellation of the testimonial submission.">
<polygon fill="white" stroke="#666666" points="472.12,-221.88 372.88,-221.88 372.88,-191.38 472.12,-191.38 472.12,-221.88"/>
<text text-anchor="start" x="380.88" y="-208.38" font-family="Helvetica,sans-Serif" font-size="10.00">TestimonialDialog::</text>
<text text-anchor="middle" x="422.5" y="-197.12" font-family="Helvetica,sans-Serif" font-size="10.00">onCancel</text>
</a>
</g>
</g>
<!-- Node11&#45;&gt;Node12 -->
<g id="edge11_Node000011_Node000012" class="edge">
<title>Node11&#45;&gt;Node12</title>
<g id="a_edge11_Node000011_Node000012"><a xlink:title=" ">
<path fill="none" stroke="#63b8ff" d="M563.78,-153.38C544.94,-162.61 522.09,-173.27 501,-181.62 491.8,-185.27 481.84,-188.79 472.22,-191.98"/>
<polygon fill="#63b8ff" stroke="#63b8ff" points="565.32,-156.52 572.72,-148.94 562.21,-150.25 565.32,-156.52"/>
</a>
</g>
</g>
<!-- Node14 -->
<g id="Node000014" class="node">
<title>Node14</title>
<g id="a_Node000014"><a xlink:href="../../d4/d1f/class_testimonial_dialog.html#a98f2520e872b1eabda8e66a3807ef39e" target="_top" xlink:title="Handles the submission of a new testimonial.">
<polygon fill="white" stroke="#666666" points="472.12,-172.88 372.88,-172.88 372.88,-142.38 472.12,-142.38 472.12,-172.88"/>
<text text-anchor="start" x="380.88" y="-159.38" font-family="Helvetica,sans-Serif" font-size="10.00">TestimonialDialog::</text>
<text text-anchor="middle" x="422.5" y="-148.12" font-family="Helvetica,sans-Serif" font-size="10.00">onSubmit</text>
</a>
</g>
</g>
<!-- Node11&#45;&gt;Node14 -->
<g id="edge13_Node000011_Node000014" class="edge">
<title>Node11&#45;&gt;Node14</title>
<g id="a_edge13_Node000011_Node000014"><a xlink:title=" ">
<path fill="none" stroke="#63b8ff" d="M542.21,-141.22C519.4,-144.37 493.91,-147.89 472.43,-150.86"/>
<polygon fill="#63b8ff" stroke="#63b8ff" points="542.58,-144.7 552.01,-139.86 541.63,-137.76 542.58,-144.7"/>
</a>
</g>
</g>
<!-- Node15 -->
<g id="Node000015" class="node">
<title>Node15</title>
<g id="a_Node000015"><a xlink:href="../../d8/d62/class_testimonials_display_dialog.html#a3176c00727ade2c7890937cf50b58d6f" target="_top" xlink:title="Refreshes the displayed list of testimonials.">
<polygon fill="white" stroke="#666666" points="488.25,-123.88 356.75,-123.88 356.75,-93.38 488.25,-93.38 488.25,-123.88"/>
<text text-anchor="start" x="364.75" y="-110.38" font-family="Helvetica,sans-Serif" font-size="10.00">TestimonialsDisplayDialog</text>
<text text-anchor="middle" x="422.5" y="-99.12" font-family="Helvetica,sans-Serif" font-size="10.00">::refreshTestimonials</text>
</a>
</g>
</g>
<!-- Node11&#45;&gt;Node15 -->
<g id="edge15_Node000011_Node000015" class="edge">
<title>Node11&#45;&gt;Node15</title>
<g id="a_edge15_Node000011_Node000015"><a xlink:title=" ">
<path fill="none" stroke="#63b8ff" d="M542.35,-124.4C524.99,-122.09 506.07,-119.58 488.53,-117.25"/>
<polygon fill="#63b8ff" stroke="#63b8ff" points="541.64,-127.83 552.01,-125.68 542.56,-120.89 541.64,-127.83"/>
</a>
</g>
</g>
<!-- Node17 -->
<g id="Node000017" class="node">
<title>Node17</title>
<g id="a_Node000017"><a xlink:href="../../d9/dc6/class_main_window.html#aa2910dbb80e3e72ef731d27d70100d8e" target="_top" xlink:title="Sets up connections and UI elements for the testimonial feature.">
<polygon fill="white" stroke="#666666" points="501,-75.25 344,-75.25 344,-56 501,-56 501,-75.25"/>
<text text-anchor="middle" x="422.5" y="-61.75" font-family="Helvetica,sans-Serif" font-size="10.00">MainWindow::setupTestimonials</text>
</a>
</g>
</g>
<!-- Node11&#45;&gt;Node17 -->
<g id="edge17_Node000011_Node000017" class="edge">
<title>Node11&#45;&gt;Node17</title>
<g id="a_edge17_Node000011_Node000017"><a xlink:title=" ">
<path fill="none" stroke="#63b8ff" d="M564.41,-111.85C545.54,-102.62 522.48,-92.17 501,-84.62 491.46,-81.28 481.06,-78.29 471.06,-75.74"/>
<polygon fill="#63b8ff" stroke="#63b8ff" points="562.84,-114.98 573.36,-116.3 565.96,-108.71 562.84,-114.98"/>
</a>
</g>
</g>
<!-- Node13 -->
<g id="Node000013" class="node">
<title>Node13</title>
<g id="a_Node000013"><a xlink:href="../../d4/d1f/class_testimonial_dialog.html#aa4e46d387d1d8fd4793ede8c2deb0fd4" target="_top" xlink:title="Constructs a TestimonialDialog.">
<polygon fill="white" stroke="#666666" points="288.88,-197.88 189.62,-197.88 189.62,-167.38 288.88,-167.38 288.88,-197.88"/>
<text text-anchor="start" x="197.62" y="-184.38" font-family="Helvetica,sans-Serif" font-size="10.00">TestimonialDialog::</text>
<text text-anchor="middle" x="239.25" y="-173.12" font-family="Helvetica,sans-Serif" font-size="10.00">TestimonialDialog</text>
</a>
</g>
</g>
<!-- Node12&#45;&gt;Node13 -->
<g id="edge12_Node000012_Node000013" class="edge">
<title>Node12&#45;&gt;Node13</title>
<g id="a_edge12_Node000012_Node000013"><a xlink:title=" ">
<path fill="none" stroke="#63b8ff" d="M361.26,-198.65C337.91,-195.56 311.51,-192.06 289.34,-189.12"/>
<polygon fill="#63b8ff" stroke="#63b8ff" points="360.58,-202.09 370.95,-199.93 361.5,-195.15 360.58,-202.09"/>
</a>
</g>
</g>
<!-- Node14&#45;&gt;Node13 -->
<g id="edge14_Node000014_Node000013" class="edge">
<title>Node14&#45;&gt;Node13</title>
<g id="a_edge14_Node000014_Node000013"><a xlink:title=" ">
<path fill="none" stroke="#63b8ff" d="M361.26,-165.93C337.91,-169.16 311.51,-172.8 289.34,-175.85"/>
<polygon fill="#63b8ff" stroke="#63b8ff" points="361.52,-169.43 370.95,-164.6 360.57,-162.5 361.52,-169.43"/>
</a>
</g>
</g>
<!-- Node16 -->
<g id="Node000016" class="node">
<title>Node16</title>
<g id="a_Node000016"><a xlink:href="../../d8/d62/class_testimonials_display_dialog.html#a4e2ab02e7129d2f299f13a6dc4538272" target="_top" xlink:title="Constructs a TestimonialsDisplayDialog.">
<polygon fill="white" stroke="#666666" points="308,-123.88 170.5,-123.88 170.5,-93.38 308,-93.38 308,-123.88"/>
<text text-anchor="start" x="178.5" y="-110.38" font-family="Helvetica,sans-Serif" font-size="10.00">TestimonialsDisplayDialog</text>
<text text-anchor="middle" x="239.25" y="-99.12" font-family="Helvetica,sans-Serif" font-size="10.00">::TestimonialsDisplayDialog</text>
</a>
</g>
</g>
<!-- Node15&#45;&gt;Node16 -->
<g id="edge16_Node000015_Node000016" class="edge">
<title>Node15&#45;&gt;Node16</title>
<g id="a_edge16_Node000015_Node000016"><a xlink:title=" ">
<path fill="none" stroke="#63b8ff" d="M345.18,-108.62C332.9,-108.62 320.27,-108.62 308.21,-108.62"/>
<polygon fill="#63b8ff" stroke="#63b8ff" points="344.81,-112.13 354.81,-108.63 344.81,-105.13 344.81,-112.13"/>
</a>
</g>
</g>
<!-- Node18 -->
<g id="Node000018" class="node">
<title>Node18</title>
<g id="a_Node000018"><a xlink:href="../../d9/dc6/class_main_window.html#a25d06b6f11a1eb7fa2239f01e853ae29" target="_top" xlink:title=" ">
<polygon fill="white" stroke="#666666" points="134.5,-47.25 0,-47.25 0,-28 134.5,-28 134.5,-47.25"/>
<text text-anchor="middle" x="67.25" y="-33.75" font-family="Helvetica,sans-Serif" font-size="10.00">MainWindow::MainWindow</text>
</a>
</g>
</g>
<!-- Node17&#45;&gt;Node18 -->
<g id="edge18_Node000017_Node000018" class="edge">
<title>Node17&#45;&gt;Node18</title>
<g id="a_edge18_Node000017_Node000018"><a xlink:title=" ">
<path fill="none" stroke="#63b8ff" d="M332.45,-59.15C284.46,-55.59 224.23,-51.02 170.5,-46.62 158.96,-45.68 146.68,-44.63 134.79,-43.6"/>
<polygon fill="#63b8ff" stroke="#63b8ff" points="332.01,-62.63 342.24,-59.87 332.52,-55.65 332.01,-62.63"/>
</a>
</g>
</g>
<!-- Node19 -->
<g id="Node000019" class="node">
<title>Node19</title>
<g id="a_Node000019"><a xlink:href="../../d9/dc6/class_main_window.html#a996c5a2b6f77944776856f08ec30858d" target="_top" xlink:title="Default constructor.">
<polygon fill="white" stroke="#666666" points="306.5,-19.25 172,-19.25 172,0 306.5,0 306.5,-19.25"/>
<text text-anchor="middle" x="239.25" y="-5.75" font-family="Helvetica,sans-Serif" font-size="10.00">MainWindow::MainWindow</text>
</a>
</g>
</g>
<!-- Node17&#45;&gt;Node19 -->
<g id="edge19_Node000017_Node000019" class="edge">
<title>Node17&#45;&gt;Node19</title>
<g id="a_edge19_Node000017_Node000019"><a xlink:title=" ">
<path fill="none" stroke="#63b8ff" d="M378.17,-52.24C345.87,-42.26 302.42,-28.83 272.98,-19.74"/>
<polygon fill="#63b8ff" stroke="#63b8ff" points="377.06,-55.56 387.65,-55.17 379.13,-48.87 377.06,-55.56"/>
</a>
</g>
</g>
<!-- Node19&#45;&gt;Node18 -->
<g id="edge20_Node000019_Node000018" class="edge">
<title>Node19&#45;&gt;Node18</title>
<g id="a_edge20_Node000019_Node000018"><a xlink:title=" ">
<path fill="none" stroke="#63b8ff" d="M165.52,-21.6C153.53,-23.58 141.21,-25.61 129.53,-27.53"/>
<polygon fill="#63b8ff" stroke="#63b8ff" points="166.08,-25.06 175.38,-19.98 164.95,-18.15 166.08,-25.06"/>
</a>
</g>
</g>
<!-- Node19&#45;&gt;Node19 -->
<g id="edge21_Node000019_Node000019" class="edge">
<title>Node19&#45;&gt;Node19</title>
<g id="a_edge21_Node000019_Node000019"><a xlink:title=" ">
<path fill="none" stroke="#63b8ff" d="M270.09,-30.32C266.54,-34.37 256.26,-37.25 239.25,-37.25 209.02,-37.25 200.04,-28.15 212.32,-19.54"/>
<polygon fill="#63b8ff" stroke="#63b8ff" points="273.4,-29.17 266.69,-20.96 266.82,-31.55 273.4,-29.17"/>
</a>
</g>
</g>
</g>
</svg>
