<?xml version="1.0" encoding="UTF-8" standalone="no"?>
<!DOCTYPE svg PUBLIC "-//W3C//DTD SVG 1.1//EN"
 "http://www.w3.org/Graphics/SVG/1.1/DTD/svg11.dtd">
<!-- Generated by graphviz version 12.2.1 (20241206.2353)
 -->
<!-- Title: ApiClient::AnalyzePostReply Pages: 1 -->
<svg width="324pt" height="138pt"
 viewBox="0.00 0.00 323.50 138.25" xmlns="http://www.w3.org/2000/svg" xmlns:xlink="http://www.w3.org/1999/xlink">
<g id="graph0" class="graph" transform="scale(1 1) rotate(0) translate(4 134.25)">
<title>ApiClient::AnalyzePostReply</title>
<!-- Node1 -->
<g id="Node000001" class="node">
<title>Node1</title>
<g id="a_Node000001"><a xlink:title="Analyzes the reply for POST requests.">
<polygon fill="#999999" stroke="#666666" points="315.5,-74.25 172.75,-74.25 172.75,-55 315.5,-55 315.5,-74.25"/>
<text text-anchor="middle" x="244.12" y="-60.75" font-family="Helvetica,sans-Serif" font-size="10.00">ApiClient::AnalyzePostReply</text>
</a>
</g>
</g>
<!-- Node2 -->
<g id="Node000002" class="node">
<title>Node2</title>
<g id="a_Node000002"><a xlink:href="../../d2/dd1/class_api_client.html#a4112a3306ed988b66842c63b5bc857df" target="_top" xlink:title="Makes a request to send data to the Post /render_area API Endpoint.">
<polygon fill="white" stroke="#666666" points="135.25,-130.25 1.5,-130.25 1.5,-111 135.25,-111 135.25,-130.25"/>
<text text-anchor="middle" x="68.38" y="-116.75" font-family="Helvetica,sans-Serif" font-size="10.00">ApiClient::PostRenderArea</text>
</a>
</g>
</g>
<!-- Node1&#45;&gt;Node2 -->
<g id="edge1_Node000001_Node000002" class="edge">
<title>Node1&#45;&gt;Node2</title>
<g id="a_edge1_Node000001_Node000002"><a xlink:title=" ">
<path fill="none" stroke="#63b8ff" d="M206.39,-78.59C186.01,-86.12 160.13,-95.34 136.75,-102.62 127.97,-105.36 118.46,-108.06 109.43,-110.5"/>
<polygon fill="#63b8ff" stroke="#63b8ff" points="207.53,-81.9 215.68,-75.13 205.09,-75.34 207.53,-81.9"/>
</a>
</g>
</g>
<!-- Node3 -->
<g id="Node000003" class="node">
<title>Node3</title>
<g id="a_Node000003"><a xlink:href="../../d2/dd1/class_api_client.html#ae169e9c2947f90bb9fb95ab17db047d7" target="_top" xlink:title="Makes a request to send data to the Post /shapes API Endpoint.">
<polygon fill="white" stroke="#666666" points="125.88,-93.25 10.88,-93.25 10.88,-74 125.88,-74 125.88,-93.25"/>
<text text-anchor="middle" x="68.38" y="-79.75" font-family="Helvetica,sans-Serif" font-size="10.00">ApiClient::PostShapes</text>
</a>
</g>
</g>
<!-- Node1&#45;&gt;Node3 -->
<g id="edge2_Node000001_Node000003" class="edge">
<title>Node1&#45;&gt;Node3</title>
<g id="a_edge2_Node000001_Node000003"><a xlink:title=" ">
<path fill="none" stroke="#63b8ff" d="M161.16,-73.59C149.32,-74.88 137.35,-76.19 126.15,-77.42"/>
<polygon fill="#63b8ff" stroke="#63b8ff" points="161.39,-77.08 170.95,-72.52 160.63,-70.13 161.39,-77.08"/>
</a>
</g>
</g>
<!-- Node4 -->
<g id="Node000004" class="node">
<title>Node4</title>
<g id="a_Node000004"><a xlink:href="../../d2/dd1/class_api_client.html#a2db225a90ae46c72cd017a3ee3418d2b" target="_top" xlink:title="Makes a request to post testimonial data via POST /testimonials.">
<polygon fill="white" stroke="#666666" points="136.75,-56.25 0,-56.25 0,-37 136.75,-37 136.75,-56.25"/>
<text text-anchor="middle" x="68.38" y="-42.75" font-family="Helvetica,sans-Serif" font-size="10.00">ApiClient::PostTestimonials</text>
</a>
</g>
</g>
<!-- Node1&#45;&gt;Node4 -->
<g id="edge3_Node000001_Node000004" class="edge">
<title>Node1&#45;&gt;Node4</title>
<g id="a_edge3_Node000001_Node000004"><a xlink:title=" ">
<path fill="none" stroke="#63b8ff" d="M161.16,-56.13C153.13,-55.3 145.04,-54.46 137.17,-53.65"/>
<polygon fill="#63b8ff" stroke="#63b8ff" points="160.64,-59.6 170.95,-57.15 161.36,-52.64 160.64,-59.6"/>
</a>
</g>
</g>
<!-- Node5 -->
<g id="Node000005" class="node">
<title>Node5</title>
<g id="a_Node000005"><a xlink:href="../../d2/dd1/class_api_client.html#a043a6ed2acd12ef39291dce0fee9757a" target="_top" xlink:title="Makes a request to send data to the Post /users API Endpoint.">
<polygon fill="white" stroke="#666666" points="122.5,-19.25 14.25,-19.25 14.25,0 122.5,0 122.5,-19.25"/>
<text text-anchor="middle" x="68.38" y="-5.75" font-family="Helvetica,sans-Serif" font-size="10.00">ApiClient::PostUsers</text>
</a>
</g>
</g>
<!-- Node1&#45;&gt;Node5 -->
<g id="edge4_Node000001_Node000005" class="edge">
<title>Node1&#45;&gt;Node5</title>
<g id="a_edge4_Node000001_Node000005"><a xlink:title=" ">
<path fill="none" stroke="#63b8ff" d="M205.53,-50.79C185.27,-43.53 159.78,-34.69 136.75,-27.62 127.84,-24.89 118.19,-22.17 109.06,-19.71"/>
<polygon fill="#63b8ff" stroke="#63b8ff" points="204.18,-54.02 214.78,-54.13 206.56,-47.44 204.18,-54.02"/>
</a>
</g>
</g>
</g>
</svg>
