<?xml version="1.0" encoding="UTF-8" standalone="no"?>
<!DOCTYPE svg PUBLIC "-//W3C//DTD SVG 1.1//EN"
 "http://www.w3.org/Graphics/SVG/1.1/DTD/svg11.dtd">
<!-- Generated by graphviz version 12.2.1 (20241206.2353)
 -->
<!-- Title: ApiClient::DeleteRenderAreaAll Pages: 1 -->
<svg width="498pt" height="64pt"
 viewBox="0.00 0.00 497.75 64.25" xmlns="http://www.w3.org/2000/svg" xmlns:xlink="http://www.w3.org/1999/xlink">
<g id="graph0" class="graph" transform="scale(1 1) rotate(0) translate(4 60.25)">
<title>ApiClient::DeleteRenderAreaAll</title>
<!-- Node1 -->
<g id="Node000001" class="node">
<title>Node1</title>
<g id="a_Node000001"><a xlink:title="Makes a request to delete all render area data via Delete /render_area&#45;all.">
<polygon fill="#999999" stroke="#666666" points="153.25,-37.25 0,-37.25 0,-18 153.25,-18 153.25,-37.25"/>
<text text-anchor="middle" x="76.62" y="-23.75" font-family="Helvetica,sans-Serif" font-size="10.00">ApiClient::DeleteRenderAreaAll</text>
</a>
</g>
</g>
<!-- Node2 -->
<g id="Node000002" class="node">
<title>Node2</title>
<g id="a_Node000002"><a xlink:href="../../d2/dd1/class_api_client.html#addc68bb9473d31fdf49098377f48d17b" target="_top" xlink:title="Analyzes the reply for DELETE requests.">
<polygon fill="white" stroke="#666666" points="314.75,-42.88 189.25,-42.88 189.25,-12.37 314.75,-12.37 314.75,-42.88"/>
<text text-anchor="start" x="197.25" y="-29.38" font-family="Helvetica,sans-Serif" font-size="10.00">ApiClient::AnalyzeDelete</text>
<text text-anchor="middle" x="252" y="-18.12" font-family="Helvetica,sans-Serif" font-size="10.00">Reply</text>
</a>
</g>
</g>
<!-- Node1&#45;&gt;Node2 -->
<g id="edge1_Node000001_Node000002" class="edge">
<title>Node1&#45;&gt;Node2</title>
<g id="a_edge1_Node000001_Node000002"><a xlink:title=" ">
<path fill="none" stroke="#63b8ff" d="M153.67,-27.62C161.56,-27.62 169.56,-27.62 177.42,-27.62"/>
<polygon fill="#63b8ff" stroke="#63b8ff" points="177.28,-31.13 187.28,-27.63 177.28,-24.13 177.28,-31.13"/>
</a>
</g>
</g>
<!-- Node3 -->
<g id="Node000003" class="node">
<title>Node3</title>
<g id="a_Node000003"><a xlink:href="../../d2/dd1/class_api_client.html#a2362fb6ae6555400e50840bd2138fa3c" target="_top" xlink:title="Signal for a failed request sent to a Delete endpoint.">
<polygon fill="white" stroke="#666666" points="486.75,-56.25 353.75,-56.25 353.75,-37 486.75,-37 486.75,-56.25"/>
<text text-anchor="middle" x="420.25" y="-42.75" font-family="Helvetica,sans-Serif" font-size="10.00">ApiClient::BadDeleteReply</text>
</a>
</g>
</g>
<!-- Node2&#45;&gt;Node3 -->
<g id="edge2_Node000002_Node000003" class="edge">
<title>Node2&#45;&gt;Node3</title>
<g id="a_edge2_Node000002_Node000003"><a xlink:title=" ">
<path fill="none" stroke="#63b8ff" d="M314.91,-34.7C323.73,-35.71 332.9,-36.76 341.98,-37.79"/>
<polygon fill="#63b8ff" stroke="#63b8ff" points="341.56,-41.27 351.89,-38.93 342.35,-34.31 341.56,-41.27"/>
</a>
</g>
</g>
<!-- Node4 -->
<g id="Node000004" class="node">
<title>Node4</title>
<g id="a_Node000004"><a xlink:href="../../d2/dd1/class_api_client.html#a36b7d26e91c582a56da7c3bcfbdccbd9" target="_top" xlink:title="Signal for a successful request sent to a Delete endpoint.">
<polygon fill="white" stroke="#666666" points="489.75,-19.25 350.75,-19.25 350.75,0 489.75,0 489.75,-19.25"/>
<text text-anchor="middle" x="420.25" y="-5.75" font-family="Helvetica,sans-Serif" font-size="10.00">ApiClient::GoodDeleteReply</text>
</a>
</g>
</g>
<!-- Node2&#45;&gt;Node4 -->
<g id="edge3_Node000002_Node000004" class="edge">
<title>Node2&#45;&gt;Node4</title>
<g id="a_edge3_Node000002_Node000004"><a xlink:title=" ">
<path fill="none" stroke="#63b8ff" d="M314.91,-20.92C322.75,-20.07 330.86,-19.19 338.94,-18.32"/>
<polygon fill="#63b8ff" stroke="#63b8ff" points="339.24,-21.81 348.8,-17.25 338.48,-14.85 339.24,-21.81"/>
</a>
</g>
</g>
</g>
</svg>
