<?xml version="1.0" encoding="UTF-8" standalone="no"?>
<!DOCTYPE svg PUBLIC "-//W3C//DTD SVG 1.1//EN"
 "http://www.w3.org/Graphics/SVG/1.1/DTD/svg11.dtd">
<!-- Generated by graphviz version 12.2.1 (20241206.2353)
 -->
<!-- Title: Circle Pages: 1 -->
<!--zoomable 1522 -->

<svg id="main" version="1.1" xmlns="http://www.w3.org/2000/svg" xmlns:xlink="http://www.w3.org/1999/xlink" xml:space="preserve" onload="init(evt)">

<style type="text/css"><![CDATA[
.node, .edge {opacity: 0.7;}
.node.selected, .edge.selected {opacity: 1;}
.edge:hover path { stroke: red; }
.edge:hover polygon { stroke: red; fill: red; }
]]></style>

<defs>
  <circle id="rim" cx="0" cy="0" r="7"/>
  <circle id="rim2" cx="0" cy="0" r="3.5"/>
  <g id="zoomPlus">
    <use xlink:href="#rim" fill="#404040"><set attributeName="fill" to="#808080" begin="zoomplus.mouseover" end="zoomplus.mouseout"/></use>
    <path d="M-4,0h8M0,-4v8" fill="none" stroke="white" stroke-width="1.5" pointer-events="none"/>
  </g>
  <g id="zoomMin">
    <use xlink:href="#rim" fill="#404040"><set attributeName="fill" to="#808080" begin="zoomminus.mouseover" end="zoomminus.mouseout"/></use>
    <path d="M-4,0h8" fill="none" stroke="white" stroke-width="1.5" pointer-events="none"/>
  </g>
  <g id="arrowUp" transform="translate(30 24)">
    <use xlink:href="#rim"/>
    <path pointer-events="none" fill="none" stroke="white" stroke-width="1.5" d="M0,-3.0v7 M-2.5,-0.5L0,-3.0L2.5,-0.5"/>
  </g>
  <g id="arrowRight" transform="rotate(90) translate(36 -43)">
    <use xlink:href="#rim"/>
    <path pointer-events="none" fill="none" stroke="white" stroke-width="1.5" d="M0,-3.0v7 M-2.5,-0.5L0,-3.0L2.5,-0.5"/>
  </g>
  <g id="arrowDown" transform="rotate(180) translate(-30 -48)">
    <use xlink:href="#rim"/>
    <path pointer-events="none" fill="none" stroke="white" stroke-width="1.5" d="M0,-3.0v7 M-2.5,-0.5L0,-3.0L2.5,-0.5"/>
  </g>
  <g id="arrowLeft" transform="rotate(270) translate(-36 17)">
    <use xlink:href="#rim"/>
    <path pointer-events="none" fill="none" stroke="white" stroke-width="1.5" d="M0,-3.0v7 M-2.5,-0.5L0,-3.0L2.5,-0.5"/>
  </g>
  <g id="resetDef">
    <use xlink:href="#rim2" fill="#404040"><set attributeName="fill" to="#808080" begin="reset.mouseover" end="reset.mouseout"/></use>
  </g>
</defs>
<script type="application/ecmascript">
var viewWidth = 197;
var viewHeight = 1522;
var sectionId = 'dynsection-1';
</script>
<script type="application/ecmascript" xlink:href="../../svg.min.js"/>
<svg id="graph" class="graph">
<g id="viewport">
<title>Circle</title>
<!-- Node1 -->
<g id="Node000001" class="node">
<title>Node1</title>
<g id="a_Node000001"><a xlink:title="The Circle class.">
<polygon fill="#999999" stroke="none" points="153,-250.5 15.75,-250.5 15.75,0 153,0 153,-250.5"/>
<text text-anchor="start" x="71.62" y="-237" font-family="Helvetica,sans-Serif" font-size="10.00">Circle</text>
<text text-anchor="start" x="21.25" y="-221.75" font-family="Helvetica,sans-Serif" font-size="10.00">&#45;</text>
<text text-anchor="start" x="29.75" y="-221.75" font-family="Helvetica,sans-Serif" font-size="10.00">int r</text>
<text text-anchor="start" x="19.75" y="-206.5" font-family="Helvetica,sans-Serif" font-size="10.00">+</text>
<text text-anchor="start" x="29.75" y="-206.5" font-family="Helvetica,sans-Serif" font-size="10.00">Circle(string shapeType,</text>
<text text-anchor="start" x="29.75" y="-195.25" font-family="Helvetica,sans-Serif" font-size="10.00"> QPoint coords, QPen pen,</text>
<text text-anchor="start" x="29.75" y="-184" font-family="Helvetica,sans-Serif" font-size="10.00"> QBrush brush, int r)</text>
<text text-anchor="start" x="19.75" y="-168.75" font-family="Helvetica,sans-Serif" font-size="10.00">+</text>
<text text-anchor="start" x="29.75" y="-168.75" font-family="Helvetica,sans-Serif" font-size="10.00">void Draw(QWidget *render</text>
<text text-anchor="start" x="29.75" y="-157.5" font-family="Helvetica,sans-Serif" font-size="10.00">Area) override</text>
<text text-anchor="start" x="19.75" y="-142.25" font-family="Helvetica,sans-Serif" font-size="10.00">+</text>
<text text-anchor="start" x="29.75" y="-142.25" font-family="Helvetica,sans-Serif" font-size="10.00">double Perimeter()</text>
<text text-anchor="start" x="29.75" y="-131" font-family="Helvetica,sans-Serif" font-size="10.00"> const override</text>
<text text-anchor="start" x="19.75" y="-115.75" font-family="Helvetica,sans-Serif" font-size="10.00">+</text>
<text text-anchor="start" x="29.75" y="-115.75" font-family="Helvetica,sans-Serif" font-size="10.00">double Area() const</text>
<text text-anchor="start" x="29.75" y="-104.5" font-family="Helvetica,sans-Serif" font-size="10.00"> override</text>
<text text-anchor="start" x="19.75" y="-89.25" font-family="Helvetica,sans-Serif" font-size="10.00">+</text>
<text text-anchor="start" x="29.75" y="-89.25" font-family="Helvetica,sans-Serif" font-size="10.00">bool isPointInside</text>
<text text-anchor="start" x="29.75" y="-78" font-family="Helvetica,sans-Serif" font-size="10.00">(const QPoint &amp;point)</text>
<text text-anchor="start" x="29.75" y="-66.75" font-family="Helvetica,sans-Serif" font-size="10.00"> const override</text>
<text text-anchor="start" x="19.75" y="-51.5" font-family="Helvetica,sans-Serif" font-size="10.00">+</text>
<text text-anchor="start" x="29.75" y="-51.5" font-family="Helvetica,sans-Serif" font-size="10.00">int getR() const</text>
<text text-anchor="start" x="19.75" y="-36.25" font-family="Helvetica,sans-Serif" font-size="10.00">+</text>
<text text-anchor="start" x="29.75" y="-36.25" font-family="Helvetica,sans-Serif" font-size="10.00">void setR(int radius)</text>
<text text-anchor="start" x="19.75" y="-21" font-family="Helvetica,sans-Serif" font-size="10.00">+</text>
<text text-anchor="start" x="29.75" y="-21" font-family="Helvetica,sans-Serif" font-size="10.00">void setX(int x)</text>
<text text-anchor="start" x="19.75" y="-5.75" font-family="Helvetica,sans-Serif" font-size="10.00">+</text>
<text text-anchor="start" x="29.75" y="-5.75" font-family="Helvetica,sans-Serif" font-size="10.00">void setY(int y)</text>
<polygon fill="#666666" stroke="#666666" points="15.75,-233.25 15.75,-233.25 153,-233.25 153,-233.25 15.75,-233.25"/>
<polygon fill="#666666" stroke="#666666" points="15.75,-218 15.75,-218 27.75,-218 27.75,-218 15.75,-218"/>
<polygon fill="#666666" stroke="#666666" points="27.75,-218 27.75,-218 153,-218 153,-218 27.75,-218"/>
<polygon fill="none" stroke="#666666" points="15.75,0 15.75,-250.5 153,-250.5 153,0 15.75,0"/>
</a>
</g>
</g>
<!-- Node2 -->
<g id="Node000002" class="node">
<title>Node2</title>
<g id="a_Node000002"><a xlink:href="../../d7/da7/class_shape.html" target="_top" xlink:title="The Shape Abstract Base Class.">
<polygon fill="white" stroke="none" points="168.75,-774 0,-774 0,-287.5 168.75,-287.5 168.75,-774"/>
<text text-anchor="start" x="70.5" y="-760.5" font-family="Helvetica,sans-Serif" font-size="10.00">Shape</text>
<text text-anchor="start" x="4" y="-745.25" font-family="Helvetica,sans-Serif" font-size="10.00">+</text>
<text text-anchor="start" x="14" y="-745.25" font-family="Helvetica,sans-Serif" font-size="10.00">static int nextTracker</text>
<text text-anchor="start" x="4" y="-730" font-family="Helvetica,sans-Serif" font-size="10.00">+</text>
<text text-anchor="start" x="14" y="-730" font-family="Helvetica,sans-Serif" font-size="10.00">static bool trackersInUse</text>
<text text-anchor="start" x="4.38" y="-714.75" font-family="Helvetica,sans-Serif" font-size="10.00">#</text>
<text text-anchor="start" x="14" y="-714.75" font-family="Helvetica,sans-Serif" font-size="10.00">QTreeWidgetItem * parentItem</text>
<text text-anchor="start" x="5.5" y="-699.5" font-family="Helvetica,sans-Serif" font-size="10.00">&#45;</text>
<text text-anchor="start" x="14" y="-699.5" font-family="Helvetica,sans-Serif" font-size="10.00">const int shapeId</text>
<text text-anchor="start" x="5.5" y="-684.25" font-family="Helvetica,sans-Serif" font-size="10.00">&#45;</text>
<text text-anchor="start" x="14" y="-684.25" font-family="Helvetica,sans-Serif" font-size="10.00">int trackerId</text>
<text text-anchor="start" x="5.5" y="-669" font-family="Helvetica,sans-Serif" font-size="10.00">&#45;</text>
<text text-anchor="start" x="14" y="-669" font-family="Helvetica,sans-Serif" font-size="10.00">string shapeType</text>
<text text-anchor="start" x="5.5" y="-653.75" font-family="Helvetica,sans-Serif" font-size="10.00">&#45;</text>
<text text-anchor="start" x="14" y="-653.75" font-family="Helvetica,sans-Serif" font-size="10.00">QPen pen</text>
<text text-anchor="start" x="5.5" y="-638.5" font-family="Helvetica,sans-Serif" font-size="10.00">&#45;</text>
<text text-anchor="start" x="14" y="-638.5" font-family="Helvetica,sans-Serif" font-size="10.00">QBrush brush</text>
<text text-anchor="start" x="5.5" y="-623.25" font-family="Helvetica,sans-Serif" font-size="10.00">&#45;</text>
<text text-anchor="start" x="14" y="-623.25" font-family="Helvetica,sans-Serif" font-size="10.00">QPoint coords</text>
<text text-anchor="start" x="5.5" y="-608" font-family="Helvetica,sans-Serif" font-size="10.00">&#45;</text>
<text text-anchor="start" x="14" y="-608" font-family="Helvetica,sans-Serif" font-size="10.00">QPainter painter</text>
<text text-anchor="start" x="5.5" y="-592.75" font-family="Helvetica,sans-Serif" font-size="10.00">&#45;</text>
<text text-anchor="start" x="14" y="-592.75" font-family="Helvetica,sans-Serif" font-size="10.00">bool isSelected</text>
<text text-anchor="start" x="4" y="-577.5" font-family="Helvetica,sans-Serif" font-size="10.00">+</text>
<text text-anchor="start" x="14" y="-577.5" font-family="Helvetica,sans-Serif" font-size="10.00">Shape(int shapeId,</text>
<text text-anchor="start" x="14" y="-566.25" font-family="Helvetica,sans-Serif" font-size="10.00"> string shapeType, QPoint</text>
<text text-anchor="start" x="14" y="-555" font-family="Helvetica,sans-Serif" font-size="10.00"> coords, QPen pen, QBrush brush)</text>
<text text-anchor="start" x="4" y="-539.75" font-family="Helvetica,sans-Serif" font-size="10.00">+</text>
<text text-anchor="start" x="14" y="-539.75" font-family="Helvetica,sans-Serif" font-size="10.00">virtual ~Shape()</text>
<text text-anchor="start" x="4" y="-524.5" font-family="Helvetica,sans-Serif" font-size="10.00">+</text>
<text text-anchor="start" x="14" y="-524.5" font-family="Helvetica,sans-Serif" font-size="10.00">virtual void Draw(QWidget</text>
<text text-anchor="start" x="14" y="-513.25" font-family="Helvetica,sans-Serif" font-size="10.00"> *renderArea)=0</text>
<text text-anchor="start" x="4" y="-498" font-family="Helvetica,sans-Serif" font-size="10.00">+</text>
<text text-anchor="start" x="14" y="-498" font-family="Helvetica,sans-Serif" font-size="10.00">virtual void Move(int</text>
<text text-anchor="start" x="14" y="-486.75" font-family="Helvetica,sans-Serif" font-size="10.00"> x, int y)</text>
<text text-anchor="start" x="4" y="-471.5" font-family="Helvetica,sans-Serif" font-size="10.00">+</text>
<text text-anchor="start" x="14" y="-471.5" font-family="Helvetica,sans-Serif" font-size="10.00">virtual double Perimeter</text>
<text text-anchor="start" x="14" y="-460.25" font-family="Helvetica,sans-Serif" font-size="10.00">() const =0</text>
<text text-anchor="start" x="4" y="-445" font-family="Helvetica,sans-Serif" font-size="10.00">+</text>
<text text-anchor="start" x="14" y="-445" font-family="Helvetica,sans-Serif" font-size="10.00">virtual double Area</text>
<text text-anchor="start" x="14" y="-433.75" font-family="Helvetica,sans-Serif" font-size="10.00">() const =0</text>
<text text-anchor="start" x="4" y="-418.5" font-family="Helvetica,sans-Serif" font-size="10.00">+</text>
<text text-anchor="start" x="14" y="-418.5" font-family="Helvetica,sans-Serif" font-size="10.00">virtual bool isPointInside</text>
<text text-anchor="start" x="14" y="-407.25" font-family="Helvetica,sans-Serif" font-size="10.00">(const QPoint &amp;point) const =0</text>
<text text-anchor="start" x="4" y="-392" font-family="Helvetica,sans-Serif" font-size="10.00">+</text>
<text text-anchor="start" x="14" y="-392" font-family="Helvetica,sans-Serif" font-size="10.00">void CreateParentItem()</text>
<text text-anchor="start" x="4" y="-376.75" font-family="Helvetica,sans-Serif" font-size="10.00">+</text>
<text text-anchor="start" x="14" y="-376.75" font-family="Helvetica,sans-Serif" font-size="10.00">void CreatePenChild()</text>
<text text-anchor="start" x="4" y="-361.5" font-family="Helvetica,sans-Serif" font-size="10.00">+</text>
<text text-anchor="start" x="14" y="-361.5" font-family="Helvetica,sans-Serif" font-size="10.00">void CreateBrushChild()</text>
<text text-anchor="start" x="14" y="-346.25" font-family="Helvetica,sans-Serif" font-size="10.00">and 36 more...</text>
<text text-anchor="start" x="5.5" y="-331" font-family="Helvetica,sans-Serif" font-size="10.00">&#45;</text>
<text text-anchor="start" x="14" y="-331" font-family="Helvetica,sans-Serif" font-size="10.00">Shape(Shape &amp;shape)</text>
<text text-anchor="start" x="14" y="-319.75" font-family="Helvetica,sans-Serif" font-size="10.00">=delete</text>
<text text-anchor="start" x="5.5" y="-304.5" font-family="Helvetica,sans-Serif" font-size="10.00">&#45;</text>
<text text-anchor="start" x="14" y="-304.5" font-family="Helvetica,sans-Serif" font-size="10.00">Shape &amp; operator=(Shape</text>
<text text-anchor="start" x="14" y="-293.25" font-family="Helvetica,sans-Serif" font-size="10.00"> &amp;object)=delete</text>
<polygon fill="#666666" stroke="#666666" points="0,-756.75 0,-756.75 168.75,-756.75 168.75,-756.75 0,-756.75"/>
<polygon fill="#666666" stroke="#666666" points="0,-589 0,-589 12,-589 12,-589 0,-589"/>
<polygon fill="#666666" stroke="#666666" points="12,-589 12,-589 168.75,-589 168.75,-589 12,-589"/>
<polygon fill="none" stroke="#666666" points="0,-287.5 0,-774 168.75,-774 168.75,-287.5 0,-287.5"/>
</a>
</g>
</g>
<!-- Node2&#45;&gt;Node1 -->
<g id="edge1_Node000001_Node000002" class="edge">
<title>Node2&#45;&gt;Node1</title>
<g id="a_edge1_Node000001_Node000002"><a xlink:title=" ">
<path fill="none" stroke="#63b8ff" d="M84.38,-276.47C84.38,-267.62 84.38,-258.91 84.38,-250.42"/>
<polygon fill="none" stroke="#63b8ff" points="80.88,-276.24 84.38,-286.24 87.88,-276.24 80.88,-276.24"/>
</a>
</g>
</g>
<!-- Node3 -->
<g id="Node000003" class="node">
<title>Node3</title>
<g id="a_Node000003"><a xlink:href="../../db/d35/classalpha_1_1vector.html" target="_top" xlink:title=" ">
<polygon fill="white" stroke="none" points="150.38,-1177.75 18.38,-1177.75 18.38,-855 150.38,-855 150.38,-1177.75"/>
<text text-anchor="start" x="22.88" y="-1164.25" font-family="Helvetica,sans-Serif" font-size="10.00">alpha::vector&lt; QTreeWidget</text>
<text text-anchor="start" x="66.75" y="-1153" font-family="Helvetica,sans-Serif" font-size="10.00">Item * &gt;</text>
<text text-anchor="start" x="23.88" y="-1137.75" font-family="Helvetica,sans-Serif" font-size="10.00">&#45;</text>
<text text-anchor="start" x="32.38" y="-1137.75" font-family="Helvetica,sans-Serif" font-size="10.00">int size_v</text>
<text text-anchor="start" x="23.88" y="-1122.5" font-family="Helvetica,sans-Serif" font-size="10.00">&#45;</text>
<text text-anchor="start" x="32.38" y="-1122.5" font-family="Helvetica,sans-Serif" font-size="10.00">QTreeWidgetItem ** elem</text>
<text text-anchor="start" x="23.88" y="-1107.25" font-family="Helvetica,sans-Serif" font-size="10.00">&#45;</text>
<text text-anchor="start" x="32.38" y="-1107.25" font-family="Helvetica,sans-Serif" font-size="10.00">int space</text>
<text text-anchor="start" x="22.38" y="-1092" font-family="Helvetica,sans-Serif" font-size="10.00">+</text>
<text text-anchor="start" x="32.38" y="-1092" font-family="Helvetica,sans-Serif" font-size="10.00">vector()</text>
<text text-anchor="start" x="22.38" y="-1076.75" font-family="Helvetica,sans-Serif" font-size="10.00">+</text>
<text text-anchor="start" x="32.38" y="-1076.75" font-family="Helvetica,sans-Serif" font-size="10.00">vector(int s)</text>
<text text-anchor="start" x="22.38" y="-1061.5" font-family="Helvetica,sans-Serif" font-size="10.00">+</text>
<text text-anchor="start" x="32.38" y="-1061.5" font-family="Helvetica,sans-Serif" font-size="10.00">vector(const vector</text>
<text text-anchor="start" x="32.38" y="-1050.25" font-family="Helvetica,sans-Serif" font-size="10.00"> &amp;other)</text>
<text text-anchor="start" x="22.38" y="-1035" font-family="Helvetica,sans-Serif" font-size="10.00">+</text>
<text text-anchor="start" x="32.38" y="-1035" font-family="Helvetica,sans-Serif" font-size="10.00">vector(vector &amp;&amp;other)</text>
<text text-anchor="start" x="32.38" y="-1023.75" font-family="Helvetica,sans-Serif" font-size="10.00"> noexcept</text>
<text text-anchor="start" x="22.38" y="-1008.5" font-family="Helvetica,sans-Serif" font-size="10.00">+</text>
<text text-anchor="start" x="32.38" y="-1008.5" font-family="Helvetica,sans-Serif" font-size="10.00">vector &amp; operator=</text>
<text text-anchor="start" x="32.38" y="-997.25" font-family="Helvetica,sans-Serif" font-size="10.00">(const vector &amp;other)</text>
<text text-anchor="start" x="22.38" y="-982" font-family="Helvetica,sans-Serif" font-size="10.00">+</text>
<text text-anchor="start" x="32.38" y="-982" font-family="Helvetica,sans-Serif" font-size="10.00">vector &amp; operator=</text>
<text text-anchor="start" x="32.38" y="-970.75" font-family="Helvetica,sans-Serif" font-size="10.00">(vector &amp;&amp;other) noexcept</text>
<text text-anchor="start" x="22.38" y="-955.5" font-family="Helvetica,sans-Serif" font-size="10.00">+</text>
<text text-anchor="start" x="32.38" y="-955.5" font-family="Helvetica,sans-Serif" font-size="10.00">~vector()</text>
<text text-anchor="start" x="22.38" y="-940.25" font-family="Helvetica,sans-Serif" font-size="10.00">+</text>
<text text-anchor="start" x="32.38" y="-940.25" font-family="Helvetica,sans-Serif" font-size="10.00">QTreeWidgetItem *&amp;</text>
<text text-anchor="start" x="32.38" y="-929" font-family="Helvetica,sans-Serif" font-size="10.00"> operator[](int n)</text>
<text text-anchor="start" x="22.38" y="-913.75" font-family="Helvetica,sans-Serif" font-size="10.00">+</text>
<text text-anchor="start" x="32.38" y="-913.75" font-family="Helvetica,sans-Serif" font-size="10.00">const QTreeWidgetItem</text>
<text text-anchor="start" x="32.38" y="-902.5" font-family="Helvetica,sans-Serif" font-size="10.00"> *&amp; operator[](int n)</text>
<text text-anchor="start" x="32.38" y="-891.25" font-family="Helvetica,sans-Serif" font-size="10.00"> const</text>
<text text-anchor="start" x="22.38" y="-876" font-family="Helvetica,sans-Serif" font-size="10.00">+</text>
<text text-anchor="start" x="32.38" y="-876" font-family="Helvetica,sans-Serif" font-size="10.00">int size() const</text>
<text text-anchor="start" x="32.38" y="-860.75" font-family="Helvetica,sans-Serif" font-size="10.00">and 10 more...</text>
<polygon fill="#666666" stroke="#666666" points="18.38,-1149.25 18.38,-1149.25 150.38,-1149.25 150.38,-1149.25 18.38,-1149.25"/>
<polygon fill="#666666" stroke="#666666" points="18.38,-1103.5 18.38,-1103.5 30.38,-1103.5 30.38,-1103.5 18.38,-1103.5"/>
<polygon fill="#666666" stroke="#666666" points="30.38,-1103.5 30.38,-1103.5 150.38,-1103.5 150.38,-1103.5 30.38,-1103.5"/>
<polygon fill="none" stroke="#666666" points="18.38,-855 18.38,-1177.75 150.38,-1177.75 150.38,-855 18.38,-855"/>
</a>
</g>
</g>
<!-- Node3&#45;&gt;Node2 -->
<g id="edge2_Node000002_Node000003" class="edge">
<title>Node3&#45;&gt;Node2</title>
<g id="a_edge2_Node000002_Node000003"><a xlink:title=" ">
<path fill="none" stroke="#63b8ff" d="M84.38,-855.01C84.38,-832.97 84.38,-809.91 84.38,-786.68"/>
<polygon fill="none" stroke="#63b8ff" points="84.38,-786.67 80.38,-780.67 84.38,-774.67 88.38,-780.67 84.38,-786.67"/>
</a>
</g>
<text text-anchor="middle" x="112.88" y="-827.5" font-family="Helvetica,sans-Serif" font-size="10.00" fill="grey"> #brushItems</text>
<text text-anchor="middle" x="112.88" y="-816.25" font-family="Helvetica,sans-Serif" font-size="10.00" fill="grey">#childItems</text>
<text text-anchor="middle" x="112.88" y="-805" font-family="Helvetica,sans-Serif" font-size="10.00" fill="grey">#penItems</text>
<text text-anchor="middle" x="112.88" y="-793.75" font-family="Helvetica,sans-Serif" font-size="10.00" fill="grey">#pointsItems</text>
</g>
<!-- Node4 -->
<g id="Node000004" class="node">
<title>Node4</title>
<g id="a_Node000004"><a xlink:href="../../db/d35/classalpha_1_1vector.html" target="_top" xlink:title=" ">
<polygon fill="white" stroke="none" points="150.38,-1514 18.38,-1514 18.38,-1225 150.38,-1225 150.38,-1514"/>
<text text-anchor="start" x="44.25" y="-1500.5" font-family="Helvetica,sans-Serif" font-size="10.00">alpha::vector&lt; T &gt;</text>
<text text-anchor="start" x="23.88" y="-1485.25" font-family="Helvetica,sans-Serif" font-size="10.00">&#45;</text>
<text text-anchor="start" x="32.38" y="-1485.25" font-family="Helvetica,sans-Serif" font-size="10.00">int size_v</text>
<text text-anchor="start" x="23.88" y="-1470" font-family="Helvetica,sans-Serif" font-size="10.00">&#45;</text>
<text text-anchor="start" x="32.38" y="-1470" font-family="Helvetica,sans-Serif" font-size="10.00">T * elem</text>
<text text-anchor="start" x="23.88" y="-1454.75" font-family="Helvetica,sans-Serif" font-size="10.00">&#45;</text>
<text text-anchor="start" x="32.38" y="-1454.75" font-family="Helvetica,sans-Serif" font-size="10.00">int space</text>
<text text-anchor="start" x="22.38" y="-1439.5" font-family="Helvetica,sans-Serif" font-size="10.00">+</text>
<text text-anchor="start" x="32.38" y="-1439.5" font-family="Helvetica,sans-Serif" font-size="10.00">vector()</text>
<text text-anchor="start" x="22.38" y="-1424.25" font-family="Helvetica,sans-Serif" font-size="10.00">+</text>
<text text-anchor="start" x="32.38" y="-1424.25" font-family="Helvetica,sans-Serif" font-size="10.00">vector(int s)</text>
<text text-anchor="start" x="22.38" y="-1409" font-family="Helvetica,sans-Serif" font-size="10.00">+</text>
<text text-anchor="start" x="32.38" y="-1409" font-family="Helvetica,sans-Serif" font-size="10.00">vector(const vector</text>
<text text-anchor="start" x="32.38" y="-1397.75" font-family="Helvetica,sans-Serif" font-size="10.00"> &amp;other)</text>
<text text-anchor="start" x="22.38" y="-1382.5" font-family="Helvetica,sans-Serif" font-size="10.00">+</text>
<text text-anchor="start" x="32.38" y="-1382.5" font-family="Helvetica,sans-Serif" font-size="10.00">vector &amp; operator=</text>
<text text-anchor="start" x="32.38" y="-1371.25" font-family="Helvetica,sans-Serif" font-size="10.00">(const vector &amp;other)</text>
<text text-anchor="start" x="22.38" y="-1356" font-family="Helvetica,sans-Serif" font-size="10.00">+</text>
<text text-anchor="start" x="32.38" y="-1356" font-family="Helvetica,sans-Serif" font-size="10.00">vector(vector &amp;&amp;other)</text>
<text text-anchor="start" x="32.38" y="-1344.75" font-family="Helvetica,sans-Serif" font-size="10.00"> noexcept</text>
<text text-anchor="start" x="22.38" y="-1329.5" font-family="Helvetica,sans-Serif" font-size="10.00">+</text>
<text text-anchor="start" x="32.38" y="-1329.5" font-family="Helvetica,sans-Serif" font-size="10.00">vector &amp; operator=</text>
<text text-anchor="start" x="32.38" y="-1318.25" font-family="Helvetica,sans-Serif" font-size="10.00">(vector &amp;&amp;other) noexcept</text>
<text text-anchor="start" x="22.38" y="-1303" font-family="Helvetica,sans-Serif" font-size="10.00">+</text>
<text text-anchor="start" x="32.38" y="-1303" font-family="Helvetica,sans-Serif" font-size="10.00">~vector()</text>
<text text-anchor="start" x="22.38" y="-1287.75" font-family="Helvetica,sans-Serif" font-size="10.00">+</text>
<text text-anchor="start" x="32.38" y="-1287.75" font-family="Helvetica,sans-Serif" font-size="10.00">T &amp; operator[](int n)</text>
<text text-anchor="start" x="22.38" y="-1272.5" font-family="Helvetica,sans-Serif" font-size="10.00">+</text>
<text text-anchor="start" x="32.38" y="-1272.5" font-family="Helvetica,sans-Serif" font-size="10.00">const T &amp; operator</text>
<text text-anchor="start" x="32.38" y="-1261.25" font-family="Helvetica,sans-Serif" font-size="10.00">[](int n) const</text>
<text text-anchor="start" x="22.38" y="-1246" font-family="Helvetica,sans-Serif" font-size="10.00">+</text>
<text text-anchor="start" x="32.38" y="-1246" font-family="Helvetica,sans-Serif" font-size="10.00">int size() const</text>
<text text-anchor="start" x="32.38" y="-1230.75" font-family="Helvetica,sans-Serif" font-size="10.00">and 10 more...</text>
<polygon fill="#666666" stroke="#666666" points="18.38,-1496.75 18.38,-1496.75 150.38,-1496.75 150.38,-1496.75 18.38,-1496.75"/>
<polygon fill="#666666" stroke="#666666" points="18.38,-1451 18.38,-1451 30.38,-1451 30.38,-1451 18.38,-1451"/>
<polygon fill="#666666" stroke="#666666" points="30.38,-1451 30.38,-1451 150.38,-1451 150.38,-1451 30.38,-1451"/>
<polygon fill="none" stroke="#666666" points="18.38,-1225 18.38,-1514 150.38,-1514 150.38,-1225 18.38,-1225"/>
</a>
</g>
</g>
<!-- Node4&#45;&gt;Node3 -->
<g id="edge3_Node000003_Node000004" class="edge">
<title>Node4&#45;&gt;Node3</title>
<g id="a_edge3_Node000003_Node000004"><a xlink:title=" ">
<path fill="none" stroke="orange" d="M84.38,-1213.76C84.38,-1201.79 84.38,-1189.7 84.38,-1177.7"/>
<polygon fill="orange" stroke="orange" points="80.88,-1213.66 84.38,-1223.66 87.88,-1213.66 80.88,-1213.66"/>
</a>
</g>
<text text-anchor="middle" x="136.88" y="-1197.5" font-family="Helvetica,sans-Serif" font-size="10.00" fill="grey"> &lt; QTreeWidgetItem * &gt;</text>
</g>
</g>
</svg>

<g id="navigator" transform="translate(0 0)" fill="#404254">
  <rect fill="#f2f5e9" fill-opacity="0.5" stroke="#606060" stroke-width=".5" x="0" y="0" width="60" height="60"/>
  <use id="zoomplus" xlink:href="#zoomPlus" x="17" y="9" onmousedown="handleZoom(evt,'in')"/>
  <use id="zoomminus" xlink:href="#zoomMin" x="42" y="9" onmousedown="handleZoom(evt,'out')"/>
  <use id="reset" xlink:href="#resetDef" x="30" y="36" onmousedown="handleReset()"/>
   <use id="arrowup" xlink:href="#arrowUp" x="0" y="0" onmousedown="handlePan(0,-1)"/>
  <use id="arrowright" xlink:href="#arrowRight" x="0" y="0" onmousedown="handlePan(1,0)"/>
  <use id="arrowdown" xlink:href="#arrowDown" x="0" y="0" onmousedown="handlePan(0,1)"/>
  <use id="arrowleft" xlink:href="#arrowLeft" x="0" y="0" onmousedown="handlePan(-1,0)"/>
</g>
<svg viewBox="0 0 15 15" width="100%" height="30px" preserveAspectRatio="xMaxYMin meet">
 <g id="arrow_out" transform="scale(0.3 0.3)">
  <a xlink:href="class_circle__coll__graph_org.svg" target="_base">
   <rect id="button" ry="5" rx="5" y="6" x="6" height="38" width="38"
        fill="#f2f5e9" fill-opacity="0.5" stroke="#606060" stroke-width="1.0"/>
   <path id="arrow"
     d="M 11.500037,31.436501 C 11.940474,20.09759 22.043105,11.32322 32.158766,21.979434 L 37.068811,17.246167 C 37.068811,17.246167 37.088388,32 37.088388,32 L 22.160133,31.978069 C 22.160133,31.978069 26.997745,27.140456 26.997745,27.140456 C 18.528582,18.264221 13.291696,25.230495 11.500037,31.436501 z"
     style="fill:#404040;"/>
  </a>
 </g>
</svg>

<style type='text/css'>
<![CDATA[
[data-mouse-over-selected='false'] { opacity: 0.7; }
[data-mouse-over-selected='true']  { opacity: 1.0; }
]]>
</style>
<script type="application/ecmascript"><![CDATA[
document.addEventListener('DOMContentLoaded', (event) => {
  highlightEdges();
  highlightAdjacentNodes();
});
]]></script>
</svg>
