<?xml version="1.0" encoding="UTF-8" standalone="no"?>
<!DOCTYPE svg PUBLIC "-//W3C//DTD SVG 1.1//EN"
 "http://www.w3.org/Graphics/SVG/1.1/DTD/svg11.dtd">
<!-- Generated by graphviz version 12.2.1 (20241206.2353)
 -->
<!-- Title: /Users/gautam/Local/Forge/Team&#45;Alphawolves/2D&#45;Graphics&#45;Modeler/src/objects/ellipse.cpp Pages: 1 -->
<svg width="824pt" height="227pt"
 viewBox="0.00 0.00 824.25 226.75" xmlns="http://www.w3.org/2000/svg" xmlns:xlink="http://www.w3.org/1999/xlink">
<g id="graph0" class="graph" transform="scale(1 1) rotate(0) translate(4 222.75)">
<title>/Users/gautam/Local/Forge/Team&#45;Alphawolves/2D&#45;Graphics&#45;Modeler/src/objects/ellipse.cpp</title>
<!-- Node1 -->
<g id="Node000001" class="node">
<title>Node1</title>
<g id="a_Node000001"><a xlink:title=" ">
<polygon fill="#999999" stroke="#666666" points="436.62,-218.75 307.38,-218.75 307.38,-165.75 436.62,-165.75 436.62,-218.75"/>
<text text-anchor="start" x="315.38" y="-205.25" font-family="Helvetica,sans-Serif" font-size="10.00">/Users/gautam/Local</text>
<text text-anchor="start" x="315.38" y="-194" font-family="Helvetica,sans-Serif" font-size="10.00">/Forge/Team&#45;Alphawolves</text>
<text text-anchor="start" x="315.38" y="-182.75" font-family="Helvetica,sans-Serif" font-size="10.00">/2D&#45;Graphics&#45;Modeler/src</text>
<text text-anchor="middle" x="372" y="-171.5" font-family="Helvetica,sans-Serif" font-size="10.00">/objects/ellipse.cpp</text>
</a>
</g>
</g>
<!-- Node2 -->
<g id="Node000002" class="node">
<title>Node2</title>
<g id="a_Node000002"><a xlink:href="../../da/dbf/ellipse_8h.html" target="_top" xlink:title=" ">
<polygon fill="white" stroke="#666666" points="398,-129.75 346,-129.75 346,-110.5 398,-110.5 398,-129.75"/>
<text text-anchor="middle" x="372" y="-116.25" font-family="Helvetica,sans-Serif" font-size="10.00">ellipse.h</text>
</a>
</g>
</g>
<!-- Node1&#45;&gt;Node2 -->
<g id="edge1_Node000001_Node000002" class="edge">
<title>Node1&#45;&gt;Node2</title>
<g id="a_edge1_Node000001_Node000002"><a xlink:title=" ">
<path fill="none" stroke="#63b8ff" d="M372,-165.54C372,-157.62 372,-149.02 372,-141.52"/>
<polygon fill="#63b8ff" stroke="#63b8ff" points="375.5,-141.75 372,-131.75 368.5,-141.75 375.5,-141.75"/>
</a>
</g>
</g>
<!-- Node3 -->
<g id="Node000003" class="node">
<title>Node3</title>
<g id="a_Node000003"><a xlink:href="../../da/d18/shape_8h.html" target="_top" xlink:title=" ">
<polygon fill="white" stroke="#666666" points="397.25,-74.5 346.75,-74.5 346.75,-55.25 397.25,-55.25 397.25,-74.5"/>
<text text-anchor="middle" x="372" y="-61" font-family="Helvetica,sans-Serif" font-size="10.00">shape.h</text>
</a>
</g>
</g>
<!-- Node2&#45;&gt;Node3 -->
<g id="edge2_Node000002_Node000003" class="edge">
<title>Node2&#45;&gt;Node3</title>
<g id="a_edge2_Node000002_Node000003"><a xlink:title=" ">
<path fill="none" stroke="#63b8ff" d="M372,-110.33C372,-103.82 372,-94.67 372,-86.37"/>
<polygon fill="#63b8ff" stroke="#63b8ff" points="375.5,-86.37 372,-76.37 368.5,-86.37 375.5,-86.37"/>
</a>
</g>
</g>
<!-- Node4 -->
<g id="Node000004" class="node">
<title>Node4</title>
<g id="a_Node000004"><a xlink:title=" ">
<polygon fill="#e0e0e0" stroke="#999999" points="40,-19.25 0,-19.25 0,0 40,0 40,-19.25"/>
<text text-anchor="middle" x="20" y="-5.75" font-family="Helvetica,sans-Serif" font-size="10.00">string</text>
</a>
</g>
</g>
<!-- Node3&#45;&gt;Node4 -->
<g id="edge3_Node000003_Node000004" class="edge">
<title>Node3&#45;&gt;Node4</title>
<g id="a_edge3_Node000003_Node000004"><a xlink:title=" ">
<path fill="none" stroke="#63b8ff" d="M346.64,-61.69C293.57,-56.85 166.8,-43.81 51.6,-19.53"/>
<polygon fill="#63b8ff" stroke="#63b8ff" points="52.49,-16.14 41.97,-17.46 51.02,-22.98 52.49,-16.14"/>
</a>
</g>
</g>
<!-- Node5 -->
<g id="Node000005" class="node">
<title>Node5</title>
<g id="a_Node000005"><a xlink:title=" ">
<polygon fill="#e0e0e0" stroke="#999999" points="101.5,-19.25 58.5,-19.25 58.5,0 101.5,0 101.5,-19.25"/>
<text text-anchor="middle" x="80" y="-5.75" font-family="Helvetica,sans-Serif" font-size="10.00">cmath</text>
</a>
</g>
</g>
<!-- Node3&#45;&gt;Node5 -->
<g id="edge4_Node000003_Node000005" class="edge">
<title>Node3&#45;&gt;Node5</title>
<g id="a_edge4_Node000003_Node000005"><a xlink:title=" ">
<path fill="none" stroke="#63b8ff" d="M346.27,-60.37C301.09,-54.01 204.4,-39.58 113.06,-19.5"/>
<polygon fill="#63b8ff" stroke="#63b8ff" points="113.94,-16.12 103.42,-17.36 112.42,-22.95 113.94,-16.12"/>
</a>
</g>
</g>
<!-- Node6 -->
<g id="Node000006" class="node">
<title>Node6</title>
<g id="a_Node000006"><a xlink:title=" ">
<polygon fill="#e0e0e0" stroke="#999999" points="174.12,-19.25 119.88,-19.25 119.88,0 174.12,0 174.12,-19.25"/>
<text text-anchor="middle" x="147" y="-5.75" font-family="Helvetica,sans-Serif" font-size="10.00">QWidget</text>
</a>
</g>
</g>
<!-- Node3&#45;&gt;Node6 -->
<g id="edge5_Node000003_Node000006" class="edge">
<title>Node3&#45;&gt;Node6</title>
<g id="a_edge5_Node000003_Node000006"><a xlink:title=" ">
<path fill="none" stroke="#63b8ff" d="M346.63,-57.87C307.32,-48.57 231.45,-30.61 185.4,-19.71"/>
<polygon fill="#63b8ff" stroke="#63b8ff" points="186.39,-16.35 175.85,-17.45 184.78,-23.16 186.39,-16.35"/>
</a>
</g>
</g>
<!-- Node7 -->
<g id="Node000007" class="node">
<title>Node7</title>
<g id="a_Node000007"><a xlink:title=" ">
<polygon fill="#e0e0e0" stroke="#999999" points="239.38,-19.25 192.62,-19.25 192.62,0 239.38,0 239.38,-19.25"/>
<text text-anchor="middle" x="216" y="-5.75" font-family="Helvetica,sans-Serif" font-size="10.00">QColor</text>
</a>
</g>
</g>
<!-- Node3&#45;&gt;Node7 -->
<g id="edge6_Node000003_Node000007" class="edge">
<title>Node3&#45;&gt;Node7</title>
<g id="a_edge6_Node000003_Node000007"><a xlink:title=" ">
<path fill="none" stroke="#63b8ff" d="M346.59,-55.2C320.52,-46.3 279.79,-32.4 250.75,-22.49"/>
<polygon fill="#63b8ff" stroke="#63b8ff" points="251.89,-19.18 241.3,-19.26 249.63,-25.8 251.89,-19.18"/>
</a>
</g>
</g>
<!-- Node8 -->
<g id="Node000008" class="node">
<title>Node8</title>
<g id="a_Node000008"><a xlink:title=" ">
<polygon fill="#e0e0e0" stroke="#999999" points="300.5,-19.25 257.5,-19.25 257.5,0 300.5,0 300.5,-19.25"/>
<text text-anchor="middle" x="279" y="-5.75" font-family="Helvetica,sans-Serif" font-size="10.00">QFont</text>
</a>
</g>
</g>
<!-- Node3&#45;&gt;Node8 -->
<g id="edge7_Node000003_Node000008" class="edge">
<title>Node3&#45;&gt;Node8</title>
<g id="a_edge7_Node000003_Node000008"><a xlink:title=" ">
<path fill="none" stroke="#63b8ff" d="M356.22,-54.84C342.06,-46.73 321.02,-34.68 304.47,-25.21"/>
<polygon fill="#63b8ff" stroke="#63b8ff" points="306.58,-22.39 296.17,-20.45 303.11,-28.46 306.58,-22.39"/>
</a>
</g>
</g>
<!-- Node9 -->
<g id="Node000009" class="node">
<title>Node9</title>
<g id="a_Node000009"><a xlink:title=" ">
<polygon fill="#e0e0e0" stroke="#999999" points="359.38,-19.25 318.62,-19.25 318.62,0 359.38,0 359.38,-19.25"/>
<text text-anchor="middle" x="339" y="-5.75" font-family="Helvetica,sans-Serif" font-size="10.00">QPen</text>
</a>
</g>
</g>
<!-- Node3&#45;&gt;Node9 -->
<g id="edge8_Node000003_Node000009" class="edge">
<title>Node3&#45;&gt;Node9</title>
<g id="a_edge8_Node000003_Node000009"><a xlink:title=" ">
<path fill="none" stroke="#63b8ff" d="M366.55,-55.08C362.23,-48.11 356.04,-38.12 350.62,-29.37"/>
<polygon fill="#63b8ff" stroke="#63b8ff" points="353.61,-27.55 345.36,-20.9 347.66,-31.24 353.61,-27.55"/>
</a>
</g>
</g>
<!-- Node10 -->
<g id="Node000010" class="node">
<title>Node10</title>
<g id="a_Node000010"><a xlink:title=" ">
<polygon fill="#e0e0e0" stroke="#999999" points="432.12,-19.25 377.88,-19.25 377.88,0 432.12,0 432.12,-19.25"/>
<text text-anchor="middle" x="405" y="-5.75" font-family="Helvetica,sans-Serif" font-size="10.00">QPainter</text>
</a>
</g>
</g>
<!-- Node3&#45;&gt;Node10 -->
<g id="edge9_Node000003_Node000010" class="edge">
<title>Node3&#45;&gt;Node10</title>
<g id="a_edge9_Node000003_Node000010"><a xlink:title=" ">
<path fill="none" stroke="#63b8ff" d="M377.45,-55.08C381.77,-48.11 387.96,-38.12 393.38,-29.37"/>
<polygon fill="#63b8ff" stroke="#63b8ff" points="396.34,-31.24 398.64,-20.9 390.39,-27.55 396.34,-31.24"/>
</a>
</g>
</g>
<!-- Node11 -->
<g id="Node000011" class="node">
<title>Node11</title>
<g id="a_Node000011"><a xlink:title=" ">
<polygon fill="#e0e0e0" stroke="#999999" points="489.62,-19.25 450.38,-19.25 450.38,0 489.62,0 489.62,-19.25"/>
<text text-anchor="middle" x="470" y="-5.75" font-family="Helvetica,sans-Serif" font-size="10.00">QList</text>
</a>
</g>
</g>
<!-- Node3&#45;&gt;Node11 -->
<g id="edge10_Node000003_Node000011" class="edge">
<title>Node3&#45;&gt;Node11</title>
<g id="a_edge10_Node000003_Node000011"><a xlink:title=" ">
<path fill="none" stroke="#63b8ff" d="M388.62,-54.84C403.69,-46.66 426.14,-34.46 443.65,-24.94"/>
<polygon fill="#63b8ff" stroke="#63b8ff" points="444.85,-28.27 451.96,-20.43 441.51,-22.12 444.85,-28.27"/>
</a>
</g>
</g>
<!-- Node12 -->
<g id="Node000012" class="node">
<title>Node12</title>
<g id="a_Node000012"><a xlink:title=" ">
<polygon fill="#e0e0e0" stroke="#999999" points="566.38,-19.25 507.62,-19.25 507.62,0 566.38,0 566.38,-19.25"/>
<text text-anchor="middle" x="537" y="-5.75" font-family="Helvetica,sans-Serif" font-size="10.00">QPolygon</text>
</a>
</g>
</g>
<!-- Node3&#45;&gt;Node12 -->
<g id="edge11_Node000003_Node000012" class="edge">
<title>Node3&#45;&gt;Node12</title>
<g id="a_edge11_Node000003_Node000012"><a xlink:title=" ">
<path fill="none" stroke="#63b8ff" d="M397.42,-55.67C424.23,-47.02 466.81,-33.28 497.9,-23.24"/>
<polygon fill="#63b8ff" stroke="#63b8ff" points="498.9,-26.6 507.35,-20.2 496.75,-19.94 498.9,-26.6"/>
</a>
</g>
</g>
<!-- Node13 -->
<g id="Node000013" class="node">
<title>Node13</title>
<g id="a_Node000013"><a xlink:title=" ">
<polygon fill="#e0e0e0" stroke="#999999" points="657.88,-19.25 584.12,-19.25 584.12,0 657.88,0 657.88,-19.25"/>
<text text-anchor="middle" x="621" y="-5.75" font-family="Helvetica,sans-Serif" font-size="10.00">QTreeWidget</text>
</a>
</g>
</g>
<!-- Node3&#45;&gt;Node13 -->
<g id="edge12_Node000003_Node000013" class="edge">
<title>Node3&#45;&gt;Node13</title>
<g id="a_edge12_Node000003_Node000013"><a xlink:title=" ">
<path fill="none" stroke="#63b8ff" d="M397.71,-58.38C438.92,-49.56 520.44,-32.13 572.75,-20.94"/>
<polygon fill="#63b8ff" stroke="#63b8ff" points="573.24,-24.42 582.28,-18.9 571.77,-17.57 573.24,-24.42"/>
</a>
</g>
</g>
<!-- Node14 -->
<g id="Node000014" class="node">
<title>Node14</title>
<g id="a_Node000014"><a xlink:title=" ">
<polygon fill="#e0e0e0" stroke="#999999" points="748.12,-19.25 675.88,-19.25 675.88,0 748.12,0 748.12,-19.25"/>
<text text-anchor="middle" x="712" y="-5.75" font-family="Helvetica,sans-Serif" font-size="10.00">QComboBox</text>
</a>
</g>
</g>
<!-- Node3&#45;&gt;Node14 -->
<g id="edge13_Node000003_Node000014" class="edge">
<title>Node3&#45;&gt;Node14</title>
<g id="a_edge13_Node000003_Node000014"><a xlink:title=" ">
<path fill="none" stroke="#63b8ff" d="M397.7,-60.33C447.25,-53.43 559.67,-37.41 664.57,-19.61"/>
<polygon fill="#63b8ff" stroke="#63b8ff" points="664.91,-23.1 674.18,-17.97 663.73,-16.2 664.91,-23.1"/>
</a>
</g>
</g>
<!-- Node15 -->
<g id="Node000015" class="node">
<title>Node15</title>
<g id="a_Node000015"><a xlink:href="../../d6/d68/vector_8h.html" target="_top" xlink:title=" ">
<polygon fill="white" stroke="#666666" points="816.25,-19.25 765.75,-19.25 765.75,0 816.25,0 816.25,-19.25"/>
<text text-anchor="middle" x="791" y="-5.75" font-family="Helvetica,sans-Serif" font-size="10.00">vector.h</text>
</a>
</g>
</g>
<!-- Node3&#45;&gt;Node15 -->
<g id="edge14_Node000003_Node000015" class="edge">
<title>Node3&#45;&gt;Node15</title>
<g id="a_edge14_Node000003_Node000015"><a xlink:title=" ">
<path fill="none" stroke="#63b8ff" d="M397.4,-62.11C457.72,-57.66 614.43,-44.65 754.55,-19.48"/>
<polygon fill="#63b8ff" stroke="#63b8ff" points="754.76,-23 763.97,-17.76 753.51,-16.11 754.76,-23"/>
</a>
</g>
</g>
</g>
</svg>
