<?xml version="1.0" encoding="UTF-8" standalone="no"?>
<!DOCTYPE svg PUBLIC "-//W3C//DTD SVG 1.1//EN"
 "http://www.w3.org/Graphics/SVG/1.1/DTD/svg11.dtd">
<!-- Generated by graphviz version 12.2.1 (20241206.2353)
 -->
<!-- Title: /Users/gautam/Local/Forge/Team&#45;Alphawolves/2D&#45;Graphics&#45;Modeler/src/backend/UserManager.cpp Pages: 1 -->
<svg width="1815pt" height="393pt"
 viewBox="0.00 0.00 1815.12 392.50" xmlns="http://www.w3.org/2000/svg" xmlns:xlink="http://www.w3.org/1999/xlink">
<g id="graph0" class="graph" transform="scale(1 1) rotate(0) translate(4 388.5)">
<title>/Users/gautam/Local/Forge/Team&#45;Alphawolves/2D&#45;Graphics&#45;Modeler/src/backend/UserManager.cpp</title>
<!-- Node1 -->
<g id="Node000001" class="node">
<title>Node1</title>
<g id="a_Node000001"><a xlink:title=" ">
<polygon fill="#999999" stroke="#666666" points="582.62,-384.5 447.38,-384.5 447.38,-331.5 582.62,-331.5 582.62,-384.5"/>
<text text-anchor="start" x="455.38" y="-371" font-family="Helvetica,sans-Serif" font-size="10.00">/Users/gautam/Local</text>
<text text-anchor="start" x="455.38" y="-359.75" font-family="Helvetica,sans-Serif" font-size="10.00">/Forge/Team&#45;Alphawolves</text>
<text text-anchor="start" x="455.38" y="-348.5" font-family="Helvetica,sans-Serif" font-size="10.00">/2D&#45;Graphics&#45;Modeler/src</text>
<text text-anchor="middle" x="515" y="-337.25" font-family="Helvetica,sans-Serif" font-size="10.00">/backend/UserManager.cpp</text>
</a>
</g>
</g>
<!-- Node2 -->
<g id="Node000002" class="node">
<title>Node2</title>
<g id="a_Node000002"><a xlink:href="../../d1/dc5/_user_manager_8h.html" target="_top" xlink:title=" ">
<polygon fill="white" stroke="#666666" points="556,-295.5 474,-295.5 474,-276.25 556,-276.25 556,-295.5"/>
<text text-anchor="middle" x="515" y="-282" font-family="Helvetica,sans-Serif" font-size="10.00">UserManager.h</text>
</a>
</g>
</g>
<!-- Node1&#45;&gt;Node2 -->
<g id="edge1_Node000001_Node000002" class="edge">
<title>Node1&#45;&gt;Node2</title>
<g id="a_edge1_Node000001_Node000002"><a xlink:title=" ">
<path fill="none" stroke="#63b8ff" d="M515,-331.29C515,-323.37 515,-314.77 515,-307.27"/>
<polygon fill="#63b8ff" stroke="#63b8ff" points="518.5,-307.5 515,-297.5 511.5,-307.5 518.5,-307.5"/>
</a>
</g>
</g>
<!-- Node3 -->
<g id="Node000003" class="node">
<title>Node3</title>
<g id="a_Node000003"><a xlink:title=" ">
<polygon fill="#e0e0e0" stroke="#999999" points="1300,-185 1248,-185 1248,-165.75 1300,-165.75 1300,-185"/>
<text text-anchor="middle" x="1274" y="-171.5" font-family="Helvetica,sans-Serif" font-size="10.00">QObject</text>
</a>
</g>
</g>
<!-- Node2&#45;&gt;Node3 -->
<g id="edge2_Node000002_Node000003" class="edge">
<title>Node2&#45;&gt;Node3</title>
<g id="a_edge2_Node000002_Node000003"><a xlink:title=" ">
<path fill="none" stroke="#63b8ff" d="M556.41,-284.49C700.71,-282.86 1175.76,-274.9 1234,-240.25 1250.5,-230.43 1261.23,-210.88 1267.38,-195.98"/>
<polygon fill="#63b8ff" stroke="#63b8ff" points="1270.62,-197.31 1270.83,-186.72 1264.06,-194.87 1270.62,-197.31"/>
</a>
</g>
</g>
<!-- Node4 -->
<g id="Node000004" class="node">
<title>Node4</title>
<g id="a_Node000004"><a xlink:title=" ">
<polygon fill="#e0e0e0" stroke="#999999" points="210.5,-129.75 161.5,-129.75 161.5,-110.5 210.5,-110.5 210.5,-129.75"/>
<text text-anchor="middle" x="186" y="-116.25" font-family="Helvetica,sans-Serif" font-size="10.00">QString</text>
</a>
</g>
</g>
<!-- Node2&#45;&gt;Node4 -->
<g id="edge3_Node000002_Node000004" class="edge">
<title>Node2&#45;&gt;Node4</title>
<g id="a_edge3_Node000002_Node000004"><a xlink:title=" ">
<path fill="none" stroke="#63b8ff" d="M473.66,-279.73C387.7,-268.07 194.54,-236.58 157,-185 146.52,-170.6 157.48,-151.81 168.8,-138.34"/>
<polygon fill="#63b8ff" stroke="#63b8ff" points="171.25,-140.84 175.42,-131.1 166.09,-136.12 171.25,-140.84"/>
</a>
</g>
</g>
<!-- Node5 -->
<g id="Node000005" class="node">
<title>Node5</title>
<g id="a_Node000005"><a xlink:title=" ">
<polygon fill="#e0e0e0" stroke="#999999" points="1454,-240.25 1402,-240.25 1402,-221 1454,-221 1454,-240.25"/>
<text text-anchor="middle" x="1428" y="-226.75" font-family="Helvetica,sans-Serif" font-size="10.00">QDebug</text>
</a>
</g>
</g>
<!-- Node2&#45;&gt;Node5 -->
<g id="edge4_Node000002_Node000005" class="edge">
<title>Node2&#45;&gt;Node5</title>
<g id="a_edge4_Node000002_Node000005"><a xlink:title=" ">
<path fill="none" stroke="#63b8ff" d="M556.41,-283.82C704.28,-279.89 1206.7,-265.12 1390.36,-240.28"/>
<polygon fill="#63b8ff" stroke="#63b8ff" points="1390.83,-243.75 1400.23,-238.88 1389.84,-236.82 1390.83,-243.75"/>
</a>
</g>
</g>
<!-- Node6 -->
<g id="Node000006" class="node">
<title>Node6</title>
<g id="a_Node000006"><a xlink:title=" ">
<polygon fill="#e0e0e0" stroke="#999999" points="211.62,-185 166.38,-185 166.38,-165.75 211.62,-165.75 211.62,-185"/>
<text text-anchor="middle" x="189" y="-171.5" font-family="Helvetica,sans-Serif" font-size="10.00">cctype</text>
</a>
</g>
</g>
<!-- Node2&#45;&gt;Node6 -->
<g id="edge5_Node000002_Node000006" class="edge">
<title>Node2&#45;&gt;Node6</title>
<g id="a_edge5_Node000002_Node000006"><a xlink:title=" ">
<path fill="none" stroke="#63b8ff" d="M487.77,-275.81C428.43,-256.06 287.63,-209.2 222.78,-187.62"/>
<polygon fill="#63b8ff" stroke="#63b8ff" points="223.98,-184.33 213.39,-184.49 221.77,-190.97 223.98,-184.33"/>
</a>
</g>
</g>
<!-- Node7 -->
<g id="Node000007" class="node">
<title>Node7</title>
<g id="a_Node000007"><a xlink:title=" ">
<polygon fill="#e0e0e0" stroke="#999999" points="1226,-19.25 1186,-19.25 1186,0 1226,0 1226,-19.25"/>
<text text-anchor="middle" x="1206" y="-5.75" font-family="Helvetica,sans-Serif" font-size="10.00">string</text>
</a>
</g>
</g>
<!-- Node2&#45;&gt;Node7 -->
<g id="edge6_Node000002_Node000007" class="edge">
<title>Node2&#45;&gt;Node7</title>
<g id="a_edge6_Node000002_Node000007"><a xlink:title=" ">
<path fill="none" stroke="#63b8ff" d="M556.47,-282.9C707.59,-275.16 1220,-243.94 1220,-176.38 1220,-176.38 1220,-176.38 1220,-119.12 1220,-88.01 1214.27,-52.28 1210.14,-30.59"/>
<polygon fill="#63b8ff" stroke="#63b8ff" points="1213.63,-30.19 1208.24,-21.06 1206.76,-31.55 1213.63,-30.19"/>
</a>
</g>
</g>
<!-- Node8 -->
<g id="Node000008" class="node">
<title>Node8</title>
<g id="a_Node000008"><a xlink:href="../../d3/dc3/_api_client_8h.html" target="_top" xlink:title="Implements the ApiClient class that makes API requests to the Crow Webservice.">
<polygon fill="white" stroke="#666666" points="1384,-240.25 1320,-240.25 1320,-221 1384,-221 1384,-240.25"/>
<text text-anchor="middle" x="1352" y="-226.75" font-family="Helvetica,sans-Serif" font-size="10.00">ApiClient.h</text>
</a>
</g>
</g>
<!-- Node2&#45;&gt;Node8 -->
<g id="edge7_Node000002_Node000008" class="edge">
<title>Node2&#45;&gt;Node8</title>
<g id="a_edge7_Node000002_Node000008"><a xlink:title=" ">
<path fill="none" stroke="#63b8ff" d="M556.11,-283.36C670.82,-278.94 1004.04,-264.8 1280,-240.25 1289.27,-239.43 1299.19,-238.36 1308.62,-237.26"/>
<polygon fill="#63b8ff" stroke="#63b8ff" points="1308.77,-240.76 1318.28,-236.09 1307.94,-233.81 1308.77,-240.76"/>
</a>
</g>
</g>
<!-- Node14 -->
<g id="Node000014" class="node">
<title>Node14</title>
<g id="a_Node000014"><a xlink:href="../../de/d40/_parser_8h.html" target="_top" xlink:title=" ">
<polygon fill="white" stroke="#666666" points="541,-240.25 489,-240.25 489,-221 541,-221 541,-240.25"/>
<text text-anchor="middle" x="515" y="-226.75" font-family="Helvetica,sans-Serif" font-size="10.00">Parser.h</text>
</a>
</g>
</g>
<!-- Node2&#45;&gt;Node14 -->
<g id="edge15_Node000002_Node000014" class="edge">
<title>Node2&#45;&gt;Node14</title>
<g id="a_edge15_Node000002_Node000014"><a xlink:title=" ">
<path fill="none" stroke="#63b8ff" d="M515,-276.08C515,-269.57 515,-260.42 515,-252.12"/>
<polygon fill="#63b8ff" stroke="#63b8ff" points="518.5,-252.12 515,-242.12 511.5,-252.12 518.5,-252.12"/>
</a>
</g>
</g>
<!-- Node20 -->
<g id="Node000020" class="node">
<title>Node20</title>
<g id="a_Node000020"><a xlink:href="../../d6/d68/vector_8h.html" target="_top" xlink:title=" ">
<polygon fill="white" stroke="#666666" points="180,-19.25 86,-19.25 86,0 180,0 180,-19.25"/>
<text text-anchor="middle" x="133" y="-5.75" font-family="Helvetica,sans-Serif" font-size="10.00">../objects/vector.h</text>
</a>
</g>
</g>
<!-- Node2&#45;&gt;Node20 -->
<g id="edge64_Node000002_Node000020" class="edge">
<title>Node2&#45;&gt;Node20</title>
<g id="a_edge64_Node000002_Node000020"><a xlink:title=" ">
<path fill="none" stroke="#63b8ff" d="M473.73,-284.94C351.52,-284.03 0,-273 0,-176.38 0,-176.38 0,-176.38 0,-119.12 0,-70.37 54.33,-39.61 93.54,-23.77"/>
<polygon fill="#63b8ff" stroke="#63b8ff" points="94.65,-27.09 102.73,-20.23 92.14,-20.56 94.65,-27.09"/>
</a>
</g>
</g>
<!-- Node41 -->
<g id="Node000041" class="node">
<title>Node41</title>
<g id="a_Node000041"><a xlink:href="../../d9/d9f/_user_account_8h.html" target="_top" xlink:title=" ">
<polygon fill="white" stroke="#666666" points="109.62,-185 28.38,-185 28.38,-165.75 109.62,-165.75 109.62,-185"/>
<text text-anchor="middle" x="69" y="-171.5" font-family="Helvetica,sans-Serif" font-size="10.00">UserAccount.h</text>
</a>
</g>
</g>
<!-- Node2&#45;&gt;Node41 -->
<g id="edge63_Node000002_Node000041" class="edge">
<title>Node2&#45;&gt;Node41</title>
<g id="a_edge63_Node000002_Node000041"><a xlink:title=" ">
<path fill="none" stroke="#63b8ff" d="M473.75,-283.93C386,-281.33 183.93,-271.97 124,-240.25 104.64,-230 89.12,-209.91 79.56,-194.98"/>
<polygon fill="#63b8ff" stroke="#63b8ff" points="82.63,-193.29 74.47,-186.53 76.64,-196.9 82.63,-193.29"/>
</a>
</g>
</g>
<!-- Node8&#45;&gt;Node3 -->
<g id="edge8_Node000008_Node000003" class="edge">
<title>Node8&#45;&gt;Node3</title>
<g id="a_edge8_Node000008_Node000003"><a xlink:title=" ">
<path fill="none" stroke="#63b8ff" d="M1338.77,-220.59C1327.23,-212.71 1310.23,-201.11 1296.55,-191.77"/>
<polygon fill="#63b8ff" stroke="#63b8ff" points="1298.78,-189.05 1288.55,-186.31 1294.83,-194.83 1298.78,-189.05"/>
</a>
</g>
</g>
<!-- Node8&#45;&gt;Node4 -->
<g id="edge14_Node000008_Node000004" class="edge">
<title>Node8&#45;&gt;Node4</title>
<g id="a_edge14_Node000008_Node000004"><a xlink:title=" ">
<path fill="none" stroke="#63b8ff" d="M1319.68,-229.71C1174.69,-229.86 583.51,-227.78 404,-185 383.63,-180.15 380.77,-172.64 361,-165.75 359.33,-165.17 272.63,-143.12 221.91,-130.24"/>
<polygon fill="#63b8ff" stroke="#63b8ff" points="222.79,-126.85 212.23,-127.78 221.06,-133.64 222.79,-126.85"/>
</a>
</g>
</g>
<!-- Node9 -->
<g id="Node000009" class="node">
<title>Node9</title>
<g id="a_Node000009"><a xlink:title=" ">
<polygon fill="#e0e0e0" stroke="#999999" points="1534.38,-185 1403.62,-185 1403.62,-165.75 1534.38,-165.75 1534.38,-185"/>
<text text-anchor="middle" x="1469" y="-171.5" font-family="Helvetica,sans-Serif" font-size="10.00">QNetworkAccessManager</text>
</a>
</g>
</g>
<!-- Node8&#45;&gt;Node9 -->
<g id="edge9_Node000008_Node000009" class="edge">
<title>Node8&#45;&gt;Node9</title>
<g id="a_edge9_Node000008_Node000009"><a xlink:title=" ">
<path fill="none" stroke="#63b8ff" d="M1371.85,-220.59C1390.17,-212.25 1417.65,-199.75 1438.71,-190.16"/>
<polygon fill="#63b8ff" stroke="#63b8ff" points="1440.03,-193.41 1447.68,-186.08 1437.13,-187.04 1440.03,-193.41"/>
</a>
</g>
</g>
<!-- Node10 -->
<g id="Node000010" class="node">
<title>Node10</title>
<g id="a_Node000010"><a xlink:title=" ">
<polygon fill="#e0e0e0" stroke="#999999" points="1637.88,-185 1552.12,-185 1552.12,-165.75 1637.88,-165.75 1637.88,-185"/>
<text text-anchor="middle" x="1595" y="-171.5" font-family="Helvetica,sans-Serif" font-size="10.00">QNetworkReply</text>
</a>
</g>
</g>
<!-- Node8&#45;&gt;Node10 -->
<g id="edge10_Node000008_Node000010" class="edge">
<title>Node8&#45;&gt;Node10</title>
<g id="a_edge10_Node000008_Node000010"><a xlink:title=" ">
<path fill="none" stroke="#63b8ff" d="M1384.27,-222.55C1424.67,-213.7 1494.4,-198.42 1542.52,-187.88"/>
<polygon fill="#63b8ff" stroke="#63b8ff" points="1543.15,-191.32 1552.17,-185.76 1541.65,-184.48 1543.15,-191.32"/>
</a>
</g>
</g>
<!-- Node11 -->
<g id="Node000011" class="node">
<title>Node11</title>
<g id="a_Node000011"><a xlink:title=" ">
<polygon fill="#e0e0e0" stroke="#999999" points="1752.5,-185 1655.5,-185 1655.5,-165.75 1752.5,-165.75 1752.5,-185"/>
<text text-anchor="middle" x="1704" y="-171.5" font-family="Helvetica,sans-Serif" font-size="10.00">QNetworkRequest</text>
</a>
</g>
</g>
<!-- Node8&#45;&gt;Node11 -->
<g id="edge11_Node000008_Node000011" class="edge">
<title>Node8&#45;&gt;Node11</title>
<g id="a_edge11_Node000008_Node000011"><a xlink:title=" ">
<path fill="none" stroke="#63b8ff" d="M1384.19,-222.64C1387.16,-222.06 1390.13,-221.5 1393,-221 1501.78,-201.87 1532.3,-201.53 1644.11,-185.4"/>
<polygon fill="#63b8ff" stroke="#63b8ff" points="1644.3,-188.91 1653.69,-184.01 1643.29,-181.99 1644.3,-188.91"/>
</a>
</g>
</g>
<!-- Node12 -->
<g id="Node000012" class="node">
<title>Node12</title>
<g id="a_Node000012"><a xlink:title=" ">
<polygon fill="#e0e0e0" stroke="#999999" points="1807.12,-185 1770.88,-185 1770.88,-165.75 1807.12,-165.75 1807.12,-185"/>
<text text-anchor="middle" x="1789" y="-171.5" font-family="Helvetica,sans-Serif" font-size="10.00">QUrl</text>
</a>
</g>
</g>
<!-- Node8&#45;&gt;Node12 -->
<g id="edge12_Node000008_Node000012" class="edge">
<title>Node8&#45;&gt;Node12</title>
<g id="a_edge12_Node000008_Node000012"><a xlink:title=" ">
<path fill="none" stroke="#63b8ff" d="M1384.17,-222.51C1387.15,-221.96 1390.12,-221.44 1393,-221 1552.21,-196.56 1598.54,-217.28 1759.28,-185.14"/>
<polygon fill="#63b8ff" stroke="#63b8ff" points="1759.97,-188.57 1769.06,-183.14 1758.57,-181.71 1759.97,-188.57"/>
</a>
</g>
</g>
<!-- Node13 -->
<g id="Node000013" class="node">
<title>Node13</title>
<g id="a_Node000013"><a xlink:title=" ">
<polygon fill="#e0e0e0" stroke="#999999" points="1385.5,-185 1318.5,-185 1318.5,-165.75 1385.5,-165.75 1385.5,-185"/>
<text text-anchor="middle" x="1352" y="-171.5" font-family="Helvetica,sans-Serif" font-size="10.00">QByteArray</text>
</a>
</g>
</g>
<!-- Node8&#45;&gt;Node13 -->
<g id="edge13_Node000008_Node000013" class="edge">
<title>Node8&#45;&gt;Node13</title>
<g id="a_edge13_Node000008_Node000013"><a xlink:title=" ">
<path fill="none" stroke="#63b8ff" d="M1352,-220.83C1352,-214.32 1352,-205.17 1352,-196.87"/>
<polygon fill="#63b8ff" stroke="#63b8ff" points="1355.5,-196.87 1352,-186.87 1348.5,-196.87 1355.5,-196.87"/>
</a>
</g>
</g>
<!-- Node14&#45;&gt;Node6 -->
<g id="edge17_Node000014_Node000006" class="edge">
<title>Node14&#45;&gt;Node6</title>
<g id="a_edge17_Node000014_Node000006"><a xlink:title=" ">
<path fill="none" stroke="#63b8ff" d="M488.76,-226.74C438.83,-221.02 326.53,-207.05 223.2,-185.48"/>
<polygon fill="#63b8ff" stroke="#63b8ff" points="223.94,-182.06 213.43,-183.41 222.48,-188.91 223.94,-182.06"/>
</a>
</g>
</g>
<!-- Node14&#45;&gt;Node7 -->
<g id="edge22_Node000014_Node000007" class="edge">
<title>Node14&#45;&gt;Node7</title>
<g id="a_edge22_Node000014_Node000007"><a xlink:title=" ">
<path fill="none" stroke="#63b8ff" d="M541.24,-229.23C650.5,-227.03 1068.16,-213.23 1163,-129.75 1191.93,-104.28 1201.4,-57.83 1204.5,-31.08"/>
<polygon fill="#63b8ff" stroke="#63b8ff" points="1207.98,-31.49 1205.42,-21.21 1201.01,-30.84 1207.98,-31.49"/>
</a>
</g>
</g>
<!-- Node15 -->
<g id="Node000015" class="node">
<title>Node15</title>
<g id="a_Node000015"><a xlink:title=" ">
<polygon fill="#e0e0e0" stroke="#999999" points="596.75,-185 543.25,-185 543.25,-165.75 596.75,-165.75 596.75,-185"/>
<text text-anchor="middle" x="570" y="-171.5" font-family="Helvetica,sans-Serif" font-size="10.00">iostream</text>
</a>
</g>
</g>
<!-- Node14&#45;&gt;Node15 -->
<g id="edge16_Node000014_Node000015" class="edge">
<title>Node14&#45;&gt;Node15</title>
<g id="a_edge16_Node000014_Node000015"><a xlink:title=" ">
<path fill="none" stroke="#63b8ff" d="M524.08,-220.83C531.84,-213.32 543.21,-202.31 552.7,-193.13"/>
<polygon fill="#63b8ff" stroke="#63b8ff" points="554.88,-195.88 559.63,-186.41 550.01,-190.85 554.88,-195.88"/>
</a>
</g>
</g>
<!-- Node16 -->
<g id="Node000016" class="node">
<title>Node16</title>
<g id="a_Node000016"><a xlink:title=" ">
<polygon fill="#e0e0e0" stroke="#999999" points="705,-185 653,-185 653,-165.75 705,-165.75 705,-185"/>
<text text-anchor="middle" x="679" y="-171.5" font-family="Helvetica,sans-Serif" font-size="10.00">QVector</text>
</a>
</g>
</g>
<!-- Node14&#45;&gt;Node16 -->
<g id="edge18_Node000014_Node000016" class="edge">
<title>Node14&#45;&gt;Node16</title>
<g id="a_edge18_Node000014_Node000016"><a xlink:title=" ">
<path fill="none" stroke="#63b8ff" d="M541.35,-221.07C568.61,-212.22 611.4,-198.33 642.03,-188.38"/>
<polygon fill="#63b8ff" stroke="#63b8ff" points="642.85,-191.79 651.28,-185.38 640.68,-185.14 642.85,-191.79"/>
</a>
</g>
</g>
<!-- Node17 -->
<g id="Node000017" class="node">
<title>Node17</title>
<g id="a_Node000017"><a xlink:title=" ">
<polygon fill="#e0e0e0" stroke="#999999" points="318.75,-185 229.25,-185 229.25,-165.75 318.75,-165.75 318.75,-185"/>
<text text-anchor="middle" x="274" y="-171.5" font-family="Helvetica,sans-Serif" font-size="10.00">QJsonDocument</text>
</a>
</g>
</g>
<!-- Node14&#45;&gt;Node17 -->
<g id="edge19_Node000014_Node000017" class="edge">
<title>Node14&#45;&gt;Node17</title>
<g id="a_edge19_Node000014_Node000017"><a xlink:title=" ">
<path fill="none" stroke="#63b8ff" d="M488.75,-223.82C449.85,-215.23 376.1,-198.93 326,-187.87"/>
<polygon fill="#63b8ff" stroke="#63b8ff" points="327.07,-184.52 316.55,-185.78 325.56,-191.35 327.07,-184.52"/>
</a>
</g>
</g>
<!-- Node18 -->
<g id="Node000018" class="node">
<title>Node18</title>
<g id="a_Node000018"><a xlink:title=" ">
<polygon fill="#e0e0e0" stroke="#999999" points="466.88,-129.75 399.12,-129.75 399.12,-110.5 466.88,-110.5 466.88,-129.75"/>
<text text-anchor="middle" x="433" y="-116.25" font-family="Helvetica,sans-Serif" font-size="10.00">QJsonArray</text>
</a>
</g>
</g>
<!-- Node14&#45;&gt;Node18 -->
<g id="edge20_Node000014_Node000018" class="edge">
<title>Node14&#45;&gt;Node18</title>
<g id="a_edge20_Node000014_Node000018"><a xlink:title=" ">
<path fill="none" stroke="#63b8ff" d="M514.18,-220.55C512.6,-207.38 508.13,-182.68 496,-165.75 487.16,-153.41 473.8,-143.25 461.66,-135.76"/>
<polygon fill="#63b8ff" stroke="#63b8ff" points="463.6,-132.84 453.19,-130.87 460.1,-138.9 463.6,-132.84"/>
</a>
</g>
</g>
<!-- Node19 -->
<g id="Node000019" class="node">
<title>Node19</title>
<g id="a_Node000019"><a xlink:title=" ">
<polygon fill="#e0e0e0" stroke="#999999" points="557.5,-129.75 484.5,-129.75 484.5,-110.5 557.5,-110.5 557.5,-129.75"/>
<text text-anchor="middle" x="521" y="-116.25" font-family="Helvetica,sans-Serif" font-size="10.00">QJsonObject</text>
</a>
</g>
</g>
<!-- Node14&#45;&gt;Node19 -->
<g id="edge21_Node000014_Node000019" class="edge">
<title>Node14&#45;&gt;Node19</title>
<g id="a_edge21_Node000014_Node000019"><a xlink:title=" ">
<path fill="none" stroke="#63b8ff" d="M541.27,-224.64C562.81,-219.02 591.94,-207.55 606,-185 620.11,-162.36 591.2,-144.92 563.34,-134.03"/>
<polygon fill="#63b8ff" stroke="#63b8ff" points="564.82,-130.85 554.23,-130.7 562.42,-137.42 564.82,-130.85"/>
</a>
</g>
</g>
<!-- Node14&#45;&gt;Node20 -->
<g id="edge23_Node000014_Node000020" class="edge">
<title>Node14&#45;&gt;Node20</title>
<g id="a_edge23_Node000014_Node000020"><a xlink:title=" ">
<path fill="none" stroke="#63b8ff" d="M488.71,-224.09C457.5,-217.05 404.24,-203.54 361,-185 345.39,-178.31 343.86,-171.82 328,-165.75 253.84,-137.37 208.11,-186.92 153,-129.75 127.48,-103.28 127.54,-57.2 130.1,-30.78"/>
<polygon fill="#63b8ff" stroke="#63b8ff" points="133.55,-31.41 131.28,-21.06 126.6,-30.57 133.55,-31.41"/>
</a>
</g>
</g>
<!-- Node21 -->
<g id="Node000021" class="node">
<title>Node21</title>
<g id="a_Node000021"><a xlink:href="../../dc/d12/all__shapes_8h.html" target="_top" xlink:title=" ">
<polygon fill="white" stroke="#666666" points="906.12,-185 791.88,-185 791.88,-165.75 906.12,-165.75 906.12,-185"/>
<text text-anchor="middle" x="849" y="-171.5" font-family="Helvetica,sans-Serif" font-size="10.00">../objects/all_shapes.h</text>
</a>
</g>
</g>
<!-- Node14&#45;&gt;Node21 -->
<g id="edge24_Node000014_Node000021" class="edge">
<title>Node14&#45;&gt;Node21</title>
<g id="a_edge24_Node000014_Node000021"><a xlink:title=" ">
<path fill="none" stroke="#63b8ff" d="M541.49,-225.4C592.78,-217.22 707.1,-199 780.99,-187.22"/>
<polygon fill="#63b8ff" stroke="#63b8ff" points="781.21,-190.73 790.54,-185.7 780.11,-183.81 781.21,-190.73"/>
</a>
</g>
</g>
<!-- Node14&#45;&gt;Node41 -->
<g id="edge54_Node000014_Node000041" class="edge">
<title>Node14&#45;&gt;Node41</title>
<g id="a_edge54_Node000014_Node000041"><a xlink:title=" ">
<path fill="none" stroke="#63b8ff" d="M488.77,-226.49C417.16,-217.94 217.31,-194.08 121.52,-182.65"/>
<polygon fill="#63b8ff" stroke="#63b8ff" points="121.94,-179.17 111.59,-181.46 121.11,-186.12 121.94,-179.17"/>
</a>
</g>
</g>
<!-- Node43 -->
<g id="Node000043" class="node">
<title>Node43</title>
<g id="a_Node000043"><a xlink:href="../../d5/d2a/_testimonial_8h.html" target="_top" xlink:title=" ">
<polygon fill="white" stroke="#666666" points="486.88,-185 413.12,-185 413.12,-165.75 486.88,-165.75 486.88,-185"/>
<text text-anchor="middle" x="450" y="-171.5" font-family="Helvetica,sans-Serif" font-size="10.00">Testimonial.h</text>
</a>
</g>
</g>
<!-- Node14&#45;&gt;Node43 -->
<g id="edge57_Node000014_Node000043" class="edge">
<title>Node14&#45;&gt;Node43</title>
<g id="a_edge57_Node000014_Node000043"><a xlink:title=" ">
<path fill="none" stroke="#63b8ff" d="M503.97,-220.59C494.58,-212.9 480.85,-201.65 469.59,-192.43"/>
<polygon fill="#63b8ff" stroke="#63b8ff" points="471.99,-189.86 462.03,-186.23 467.55,-195.28 471.99,-189.86"/>
</a>
</g>
</g>
<!-- Node22 -->
<g id="Node000022" class="node">
<title>Node22</title>
<g id="a_Node000022"><a xlink:href="../../d3/db6/circle_8h.html" target="_top" xlink:title=" ">
<polygon fill="white" stroke="#666666" points="1153.75,-129.75 1106.25,-129.75 1106.25,-110.5 1153.75,-110.5 1153.75,-129.75"/>
<text text-anchor="middle" x="1130" y="-116.25" font-family="Helvetica,sans-Serif" font-size="10.00">circle.h</text>
</a>
</g>
</g>
<!-- Node21&#45;&gt;Node22 -->
<g id="edge25_Node000021_Node000022" class="edge">
<title>Node21&#45;&gt;Node22</title>
<g id="a_edge25_Node000021_Node000022"><a xlink:title=" ">
<path fill="none" stroke="#63b8ff" d="M902.21,-165.26C951.53,-156.66 1026.87,-143.12 1092,-129.75 1092.99,-129.55 1093.99,-129.34 1094.99,-129.13"/>
<polygon fill="#63b8ff" stroke="#63b8ff" points="1095.4,-132.62 1104.43,-127.07 1093.92,-125.78 1095.4,-132.62"/>
</a>
</g>
</g>
<!-- Node23 -->
<g id="Node000023" class="node">
<title>Node23</title>
<g id="a_Node000023"><a xlink:href="../../da/d18/shape_8h.html" target="_top" xlink:title=" ">
<polygon fill="white" stroke="#666666" points="848.25,-74.5 797.75,-74.5 797.75,-55.25 848.25,-55.25 848.25,-74.5"/>
<text text-anchor="middle" x="823" y="-61" font-family="Helvetica,sans-Serif" font-size="10.00">shape.h</text>
</a>
</g>
</g>
<!-- Node21&#45;&gt;Node23 -->
<g id="edge49_Node000021_Node000023" class="edge">
<title>Node21&#45;&gt;Node23</title>
<g id="a_edge49_Node000021_Node000023"><a xlink:title=" ">
<path fill="none" stroke="#63b8ff" d="M906.38,-174.77C982.51,-173.33 1102.52,-163.02 1059,-110.5 1034.12,-80.47 919.63,-70.5 859.74,-67.31"/>
<polygon fill="#63b8ff" stroke="#63b8ff" points="860.21,-63.83 850.05,-66.83 859.86,-70.82 860.21,-63.83"/>
</a>
</g>
</g>
<!-- Node34 -->
<g id="Node000034" class="node">
<title>Node34</title>
<g id="a_Node000034"><a xlink:href="../../da/dbf/ellipse_8h.html" target="_top" xlink:title=" ">
<polygon fill="white" stroke="#666666" points="628,-129.75 576,-129.75 576,-110.5 628,-110.5 628,-129.75"/>
<text text-anchor="middle" x="602" y="-116.25" font-family="Helvetica,sans-Serif" font-size="10.00">ellipse.h</text>
</a>
</g>
</g>
<!-- Node21&#45;&gt;Node34 -->
<g id="edge39_Node000021_Node000034" class="edge">
<title>Node21&#45;&gt;Node34</title>
<g id="a_edge39_Node000021_Node000034"><a xlink:title=" ">
<path fill="none" stroke="#63b8ff" d="M803.82,-165.33C763.27,-157.11 701.84,-144.4 639.57,-130.28"/>
<polygon fill="#63b8ff" stroke="#63b8ff" points="640.35,-126.87 629.83,-128.06 638.8,-133.69 640.35,-126.87"/>
</a>
</g>
</g>
<!-- Node35 -->
<g id="Node000035" class="node">
<title>Node35</title>
<g id="a_Node000035"><a xlink:href="../../d7/d5d/line_8h.html" target="_top" xlink:title=" ">
<polygon fill="white" stroke="#666666" points="685.62,-129.75 646.38,-129.75 646.38,-110.5 685.62,-110.5 685.62,-129.75"/>
<text text-anchor="middle" x="666" y="-116.25" font-family="Helvetica,sans-Serif" font-size="10.00">line.h</text>
</a>
</g>
</g>
<!-- Node21&#45;&gt;Node35 -->
<g id="edge41_Node000021_Node000035" class="edge">
<title>Node21&#45;&gt;Node35</title>
<g id="a_edge41_Node000021_Node000035"><a xlink:title=" ">
<path fill="none" stroke="#63b8ff" d="M817.42,-165.29C788.47,-156.95 744.13,-144.14 696.76,-130.25"/>
<polygon fill="#63b8ff" stroke="#63b8ff" points="698,-126.97 687.42,-127.51 696.02,-133.68 698,-126.97"/>
</a>
</g>
</g>
<!-- Node36 -->
<g id="Node000036" class="node">
<title>Node36</title>
<g id="a_Node000036"><a xlink:href="../../dc/db6/polygon_8h.html" target="_top" xlink:title=" ">
<polygon fill="white" stroke="#666666" points="762,-129.75 704,-129.75 704,-110.5 762,-110.5 762,-129.75"/>
<text text-anchor="middle" x="733" y="-116.25" font-family="Helvetica,sans-Serif" font-size="10.00">polygon.h</text>
</a>
</g>
</g>
<!-- Node21&#45;&gt;Node36 -->
<g id="edge43_Node000021_Node000036" class="edge">
<title>Node21&#45;&gt;Node36</title>
<g id="a_edge43_Node000021_Node000036"><a xlink:title=" ">
<path fill="none" stroke="#63b8ff" d="M829.32,-165.34C811.16,-157 783.92,-144.5 763.03,-134.91"/>
<polygon fill="#63b8ff" stroke="#63b8ff" points="764.7,-131.83 754.15,-130.83 761.78,-138.19 764.7,-131.83"/>
</a>
</g>
</g>
<!-- Node37 -->
<g id="Node000037" class="node">
<title>Node37</title>
<g id="a_Node000037"><a xlink:href="../../d0/ddf/polyline_8h.html" target="_top" xlink:title=" ">
<polygon fill="white" stroke="#666666" points="837.62,-129.75 780.38,-129.75 780.38,-110.5 837.62,-110.5 837.62,-129.75"/>
<text text-anchor="middle" x="809" y="-116.25" font-family="Helvetica,sans-Serif" font-size="10.00">polyline.h</text>
</a>
</g>
</g>
<!-- Node21&#45;&gt;Node37 -->
<g id="edge45_Node000021_Node000037" class="edge">
<title>Node21&#45;&gt;Node37</title>
<g id="a_edge45_Node000021_Node000037"><a xlink:title=" ">
<path fill="none" stroke="#63b8ff" d="M842.39,-165.58C837.04,-158.46 829.32,-148.18 822.65,-139.3"/>
<polygon fill="#63b8ff" stroke="#63b8ff" points="825.46,-137.21 816.66,-131.32 819.87,-141.42 825.46,-137.21"/>
</a>
</g>
</g>
<!-- Node38 -->
<g id="Node000038" class="node">
<title>Node38</title>
<g id="a_Node000038"><a xlink:href="../../db/dd0/rectangle_8h.html" target="_top" xlink:title=" ">
<polygon fill="white" stroke="#666666" points="920,-129.75 856,-129.75 856,-110.5 920,-110.5 920,-129.75"/>
<text text-anchor="middle" x="888" y="-116.25" font-family="Helvetica,sans-Serif" font-size="10.00">rectangle.h</text>
</a>
</g>
</g>
<!-- Node21&#45;&gt;Node38 -->
<g id="edge47_Node000021_Node000038" class="edge">
<title>Node21&#45;&gt;Node38</title>
<g id="a_edge47_Node000021_Node000038"><a xlink:title=" ">
<path fill="none" stroke="#63b8ff" d="M855.44,-165.58C860.66,-158.46 868.19,-148.18 874.69,-139.3"/>
<polygon fill="#63b8ff" stroke="#63b8ff" points="877.44,-141.47 880.53,-131.33 871.79,-137.33 877.44,-141.47"/>
</a>
</g>
</g>
<!-- Node39 -->
<g id="Node000039" class="node">
<title>Node39</title>
<g id="a_Node000039"><a xlink:href="../../d7/d3c/square_8h.html" target="_top" xlink:title=" ">
<polygon fill="white" stroke="#666666" points="991.75,-129.75 938.25,-129.75 938.25,-110.5 991.75,-110.5 991.75,-129.75"/>
<text text-anchor="middle" x="965" y="-116.25" font-family="Helvetica,sans-Serif" font-size="10.00">square.h</text>
</a>
</g>
</g>
<!-- Node21&#45;&gt;Node39 -->
<g id="edge50_Node000021_Node000039" class="edge">
<title>Node21&#45;&gt;Node39</title>
<g id="a_edge50_Node000021_Node000039"><a xlink:title=" ">
<path fill="none" stroke="#63b8ff" d="M868.68,-165.34C886.84,-157 914.08,-144.5 934.97,-134.91"/>
<polygon fill="#63b8ff" stroke="#63b8ff" points="936.22,-138.19 943.85,-130.83 933.3,-131.83 936.22,-138.19"/>
</a>
</g>
</g>
<!-- Node40 -->
<g id="Node000040" class="node">
<title>Node40</title>
<g id="a_Node000040"><a xlink:href="../../d9/dcc/text_8h.html" target="_top" xlink:title=" ">
<polygon fill="white" stroke="#666666" points="1050.38,-129.75 1009.62,-129.75 1009.62,-110.5 1050.38,-110.5 1050.38,-129.75"/>
<text text-anchor="middle" x="1030" y="-116.25" font-family="Helvetica,sans-Serif" font-size="10.00">text.h</text>
</a>
</g>
</g>
<!-- Node21&#45;&gt;Node40 -->
<g id="edge52_Node000021_Node000040" class="edge">
<title>Node21&#45;&gt;Node40</title>
<g id="a_edge52_Node000021_Node000040"><a xlink:title=" ">
<path fill="none" stroke="#63b8ff" d="M880.16,-165.26C908.67,-156.92 952.31,-144.12 998.56,-130.46"/>
<polygon fill="#63b8ff" stroke="#63b8ff" points="999.36,-133.88 1007.96,-127.69 997.37,-127.17 999.36,-133.88"/>
</a>
</g>
</g>
<!-- Node22&#45;&gt;Node23 -->
<g id="edge26_Node000022_Node000023" class="edge">
<title>Node22&#45;&gt;Node23</title>
<g id="a_edge26_Node000022_Node000023"><a xlink:title=" ">
<path fill="none" stroke="#63b8ff" d="M1105.92,-113.44C1101.31,-112.41 1096.51,-111.39 1092,-110.5 1009.47,-94.3 911.93,-79.09 859.97,-71.3"/>
<polygon fill="#63b8ff" stroke="#63b8ff" points="860.59,-67.86 850.18,-69.84 859.55,-74.78 860.59,-67.86"/>
</a>
</g>
</g>
<!-- Node23&#45;&gt;Node7 -->
<g id="edge27_Node000023_Node000007" class="edge">
<title>Node23&#45;&gt;Node7</title>
<g id="a_edge27_Node000023_Node000007"><a xlink:title=" ">
<path fill="none" stroke="#63b8ff" d="M848.56,-62.1C905.49,-57.83 1047.13,-45.53 1174.42,-19.48"/>
<polygon fill="#63b8ff" stroke="#63b8ff" points="1174.95,-22.95 1184.03,-17.48 1173.53,-16.09 1174.95,-22.95"/>
</a>
</g>
</g>
<!-- Node23&#45;&gt;Node20 -->
<g id="edge38_Node000023_Node000020" class="edge">
<title>Node23&#45;&gt;Node20</title>
<g id="a_edge38_Node000023_Node000020"><a xlink:title=" ">
<path fill="none" stroke="#63b8ff" d="M797.62,-61.92C698.32,-54.25 334.5,-26.18 191.39,-15.13"/>
<polygon fill="#63b8ff" stroke="#63b8ff" points="192,-11.67 181.76,-14.39 191.46,-18.65 192,-11.67"/>
</a>
</g>
</g>
<!-- Node24 -->
<g id="Node000024" class="node">
<title>Node24</title>
<g id="a_Node000024"><a xlink:title=" ">
<polygon fill="#e0e0e0" stroke="#999999" points="1095.5,-19.25 1052.5,-19.25 1052.5,0 1095.5,0 1095.5,-19.25"/>
<text text-anchor="middle" x="1074" y="-5.75" font-family="Helvetica,sans-Serif" font-size="10.00">cmath</text>
</a>
</g>
</g>
<!-- Node23&#45;&gt;Node24 -->
<g id="edge28_Node000023_Node000024" class="edge">
<title>Node23&#45;&gt;Node24</title>
<g id="a_edge28_Node000023_Node000024"><a xlink:title=" ">
<path fill="none" stroke="#63b8ff" d="M848.54,-59.31C887.75,-52.16 965.36,-37.5 1040.91,-19.61"/>
<polygon fill="#63b8ff" stroke="#63b8ff" points="1041.65,-23.03 1050.56,-17.3 1040.02,-16.22 1041.65,-23.03"/>
</a>
</g>
</g>
<!-- Node25 -->
<g id="Node000025" class="node">
<title>Node25</title>
<g id="a_Node000025"><a xlink:title=" ">
<polygon fill="#e0e0e0" stroke="#999999" points="1168.12,-19.25 1113.88,-19.25 1113.88,0 1168.12,0 1168.12,-19.25"/>
<text text-anchor="middle" x="1141" y="-5.75" font-family="Helvetica,sans-Serif" font-size="10.00">QWidget</text>
</a>
</g>
</g>
<!-- Node23&#45;&gt;Node25 -->
<g id="edge29_Node000023_Node000025" class="edge">
<title>Node23&#45;&gt;Node25</title>
<g id="a_edge29_Node000023_Node000025"><a xlink:title=" ">
<path fill="none" stroke="#63b8ff" d="M848.4,-60.54C896.16,-54.11 1002.84,-39.07 1102.37,-19.64"/>
<polygon fill="#63b8ff" stroke="#63b8ff" points="1102.91,-23.1 1112.05,-17.73 1101.56,-16.24 1102.91,-23.1"/>
</a>
</g>
</g>
<!-- Node26 -->
<g id="Node000026" class="node">
<title>Node26</title>
<g id="a_Node000026"><a xlink:title=" ">
<polygon fill="#e0e0e0" stroke="#999999" points="525.38,-19.25 478.62,-19.25 478.62,0 525.38,0 525.38,-19.25"/>
<text text-anchor="middle" x="502" y="-5.75" font-family="Helvetica,sans-Serif" font-size="10.00">QColor</text>
</a>
</g>
</g>
<!-- Node23&#45;&gt;Node26 -->
<g id="edge30_Node000023_Node000026" class="edge">
<title>Node23&#45;&gt;Node26</title>
<g id="a_edge30_Node000023_Node000026"><a xlink:title=" ">
<path fill="none" stroke="#63b8ff" d="M797.42,-60.8C748.72,-54.76 639.17,-40.27 536.87,-19.44"/>
<polygon fill="#63b8ff" stroke="#63b8ff" points="537.71,-16.04 527.21,-17.44 536.29,-22.89 537.71,-16.04"/>
</a>
</g>
</g>
<!-- Node27 -->
<g id="Node000027" class="node">
<title>Node27</title>
<g id="a_Node000027"><a xlink:title=" ">
<polygon fill="#e0e0e0" stroke="#999999" points="586.5,-19.25 543.5,-19.25 543.5,0 586.5,0 586.5,-19.25"/>
<text text-anchor="middle" x="565" y="-5.75" font-family="Helvetica,sans-Serif" font-size="10.00">QFont</text>
</a>
</g>
</g>
<!-- Node23&#45;&gt;Node27 -->
<g id="edge31_Node000023_Node000027" class="edge">
<title>Node23&#45;&gt;Node27</title>
<g id="a_edge31_Node000023_Node000027"><a xlink:title=" ">
<path fill="none" stroke="#63b8ff" d="M797.33,-59.5C757.01,-52.48 676.19,-37.83 597.98,-19.56"/>
<polygon fill="#63b8ff" stroke="#63b8ff" points="598.97,-16.2 588.43,-17.31 597.36,-23.01 598.97,-16.2"/>
</a>
</g>
</g>
<!-- Node28 -->
<g id="Node000028" class="node">
<title>Node28</title>
<g id="a_Node000028"><a xlink:title=" ">
<polygon fill="#e0e0e0" stroke="#999999" points="645.38,-19.25 604.62,-19.25 604.62,0 645.38,0 645.38,-19.25"/>
<text text-anchor="middle" x="625" y="-5.75" font-family="Helvetica,sans-Serif" font-size="10.00">QPen</text>
</a>
</g>
</g>
<!-- Node23&#45;&gt;Node28 -->
<g id="edge32_Node000023_Node000028" class="edge">
<title>Node23&#45;&gt;Node28</title>
<g id="a_edge32_Node000023_Node000028"><a xlink:title=" ">
<path fill="none" stroke="#63b8ff" d="M797.34,-57.23C766.35,-49.17 712.37,-35.02 656.47,-19.61"/>
<polygon fill="#63b8ff" stroke="#63b8ff" points="657.67,-16.31 647.1,-17.02 655.81,-23.06 657.67,-16.31"/>
</a>
</g>
</g>
<!-- Node29 -->
<g id="Node000029" class="node">
<title>Node29</title>
<g id="a_Node000029"><a xlink:title=" ">
<polygon fill="#e0e0e0" stroke="#999999" points="718.12,-19.25 663.88,-19.25 663.88,0 718.12,0 718.12,-19.25"/>
<text text-anchor="middle" x="691" y="-5.75" font-family="Helvetica,sans-Serif" font-size="10.00">QPainter</text>
</a>
</g>
</g>
<!-- Node23&#45;&gt;Node29 -->
<g id="edge33_Node000023_Node000029" class="edge">
<title>Node23&#45;&gt;Node29</title>
<g id="a_edge33_Node000023_Node000029"><a xlink:title=" ">
<path fill="none" stroke="#63b8ff" d="M800.61,-54.84C779.56,-46.35 747.8,-33.54 723.88,-23.89"/>
<polygon fill="#63b8ff" stroke="#63b8ff" points="725.49,-20.76 714.91,-20.27 722.87,-27.26 725.49,-20.76"/>
</a>
</g>
</g>
<!-- Node30 -->
<g id="Node000030" class="node">
<title>Node30</title>
<g id="a_Node000030"><a xlink:title=" ">
<polygon fill="#e0e0e0" stroke="#999999" points="775.62,-19.25 736.38,-19.25 736.38,0 775.62,0 775.62,-19.25"/>
<text text-anchor="middle" x="756" y="-5.75" font-family="Helvetica,sans-Serif" font-size="10.00">QList</text>
</a>
</g>
</g>
<!-- Node23&#45;&gt;Node30 -->
<g id="edge34_Node000023_Node000030" class="edge">
<title>Node23&#45;&gt;Node30</title>
<g id="a_edge34_Node000023_Node000030"><a xlink:title=" ">
<path fill="none" stroke="#63b8ff" d="M811.63,-54.84C801.95,-47.15 787.8,-35.9 776.19,-26.68"/>
<polygon fill="#63b8ff" stroke="#63b8ff" points="778.39,-23.95 768.38,-20.47 774.03,-29.43 778.39,-23.95"/>
</a>
</g>
</g>
<!-- Node31 -->
<g id="Node000031" class="node">
<title>Node31</title>
<g id="a_Node000031"><a xlink:title=" ">
<polygon fill="#e0e0e0" stroke="#999999" points="852.38,-19.25 793.62,-19.25 793.62,0 852.38,0 852.38,-19.25"/>
<text text-anchor="middle" x="823" y="-5.75" font-family="Helvetica,sans-Serif" font-size="10.00">QPolygon</text>
</a>
</g>
</g>
<!-- Node23&#45;&gt;Node31 -->
<g id="edge35_Node000023_Node000031" class="edge">
<title>Node23&#45;&gt;Node31</title>
<g id="a_edge35_Node000023_Node000031"><a xlink:title=" ">
<path fill="none" stroke="#63b8ff" d="M823,-55.08C823,-48.57 823,-39.42 823,-31.12"/>
<polygon fill="#63b8ff" stroke="#63b8ff" points="826.5,-31.12 823,-21.12 819.5,-31.12 826.5,-31.12"/>
</a>
</g>
</g>
<!-- Node32 -->
<g id="Node000032" class="node">
<title>Node32</title>
<g id="a_Node000032"><a xlink:title=" ">
<polygon fill="#e0e0e0" stroke="#999999" points="943.88,-19.25 870.12,-19.25 870.12,0 943.88,0 943.88,-19.25"/>
<text text-anchor="middle" x="907" y="-5.75" font-family="Helvetica,sans-Serif" font-size="10.00">QTreeWidget</text>
</a>
</g>
</g>
<!-- Node23&#45;&gt;Node32 -->
<g id="edge36_Node000023_Node000032" class="edge">
<title>Node23&#45;&gt;Node32</title>
<g id="a_edge36_Node000023_Node000032"><a xlink:title=" ">
<path fill="none" stroke="#63b8ff" d="M837.25,-54.84C849.8,-46.89 868.33,-35.14 883.14,-25.75"/>
<polygon fill="#63b8ff" stroke="#63b8ff" points="884.83,-28.82 891.4,-20.51 881.08,-22.91 884.83,-28.82"/>
</a>
</g>
</g>
<!-- Node33 -->
<g id="Node000033" class="node">
<title>Node33</title>
<g id="a_Node000033"><a xlink:title=" ">
<polygon fill="#e0e0e0" stroke="#999999" points="1034.12,-19.25 961.88,-19.25 961.88,0 1034.12,0 1034.12,-19.25"/>
<text text-anchor="middle" x="998" y="-5.75" font-family="Helvetica,sans-Serif" font-size="10.00">QComboBox</text>
</a>
</g>
</g>
<!-- Node23&#45;&gt;Node33 -->
<g id="edge37_Node000023_Node000033" class="edge">
<title>Node23&#45;&gt;Node33</title>
<g id="a_edge37_Node000023_Node000033"><a xlink:title=" ">
<path fill="none" stroke="#63b8ff" d="M848.45,-56.13C876.98,-47.45 923.65,-33.25 957.27,-23.02"/>
<polygon fill="#63b8ff" stroke="#63b8ff" points="958.13,-26.42 966.68,-20.16 956.09,-19.72 958.13,-26.42"/>
</a>
</g>
</g>
<!-- Node34&#45;&gt;Node23 -->
<g id="edge40_Node000034_Node000023" class="edge">
<title>Node34&#45;&gt;Node23</title>
<g id="a_edge40_Node000034_Node000023"><a xlink:title=" ">
<path fill="none" stroke="#63b8ff" d="M628.37,-112.61C631.28,-111.89 634.2,-111.18 637,-110.5 688.91,-97.88 749.02,-83.5 786.53,-74.55"/>
<polygon fill="#63b8ff" stroke="#63b8ff" points="787.03,-78.03 795.94,-72.31 785.4,-71.23 787.03,-78.03"/>
</a>
</g>
</g>
<!-- Node35&#45;&gt;Node23 -->
<g id="edge42_Node000035_Node000023" class="edge">
<title>Node35&#45;&gt;Node23</title>
<g id="a_edge42_Node000035_Node000023"><a xlink:title=" ">
<path fill="none" stroke="#63b8ff" d="M685.88,-112.38C711.2,-103.79 755.42,-88.8 786.79,-78.16"/>
<polygon fill="#63b8ff" stroke="#63b8ff" points="787.52,-81.61 795.86,-75.08 785.27,-74.98 787.52,-81.61"/>
</a>
</g>
</g>
<!-- Node36&#45;&gt;Node23 -->
<g id="edge44_Node000036_Node000023" class="edge">
<title>Node36&#45;&gt;Node23</title>
<g id="a_edge44_Node000036_Node000023"><a xlink:title=" ">
<path fill="none" stroke="#63b8ff" d="M748.27,-110.09C761.84,-102.06 781.95,-90.16 797.9,-80.73"/>
<polygon fill="#63b8ff" stroke="#63b8ff" points="799.53,-83.83 806.36,-75.72 795.97,-77.8 799.53,-83.83"/>
</a>
</g>
</g>
<!-- Node37&#45;&gt;Node23 -->
<g id="edge46_Node000037_Node000023" class="edge">
<title>Node37&#45;&gt;Node23</title>
<g id="a_edge46_Node000037_Node000023"><a xlink:title=" ">
<path fill="none" stroke="#63b8ff" d="M811.31,-110.33C813.06,-103.67 815.54,-94.24 817.77,-85.78"/>
<polygon fill="#63b8ff" stroke="#63b8ff" points="821.1,-86.88 820.25,-76.32 814.33,-85.1 821.1,-86.88"/>
</a>
</g>
</g>
<!-- Node38&#45;&gt;Node23 -->
<g id="edge48_Node000038_Node000023" class="edge">
<title>Node38&#45;&gt;Node23</title>
<g id="a_edge48_Node000038_Node000023"><a xlink:title=" ">
<path fill="none" stroke="#63b8ff" d="M876.97,-110.09C867.58,-102.4 853.85,-91.15 842.59,-81.93"/>
<polygon fill="#63b8ff" stroke="#63b8ff" points="844.99,-79.36 835.03,-75.73 840.55,-84.78 844.99,-79.36"/>
</a>
</g>
</g>
<!-- Node39&#45;&gt;Node23 -->
<g id="edge51_Node000039_Node000023" class="edge">
<title>Node39&#45;&gt;Node23</title>
<g id="a_edge51_Node000039_Node000023"><a xlink:title=" ">
<path fill="none" stroke="#63b8ff" d="M940.91,-110.09C918.06,-101.52 883.48,-88.56 857.67,-78.88"/>
<polygon fill="#63b8ff" stroke="#63b8ff" points="859.22,-75.72 848.62,-75.48 856.76,-82.27 859.22,-75.72"/>
</a>
</g>
</g>
<!-- Node40&#45;&gt;Node23 -->
<g id="edge53_Node000040_Node000023" class="edge">
<title>Node40&#45;&gt;Node23</title>
<g id="a_edge53_Node000040_Node000023"><a xlink:title=" ">
<path fill="none" stroke="#63b8ff" d="M1009.44,-112.89C1006.61,-112.07 1003.74,-111.25 1001,-110.5 952.34,-97.17 895.77,-83.26 859.69,-74.58"/>
<polygon fill="#63b8ff" stroke="#63b8ff" points="860.75,-71.23 850.21,-72.31 859.12,-78.04 860.75,-71.23"/>
</a>
</g>
</g>
<!-- Node41&#45;&gt;Node4 -->
<g id="edge55_Node000041_Node000004" class="edge">
<title>Node41&#45;&gt;Node4</title>
<g id="a_edge55_Node000041_Node000004"><a xlink:title=" ">
<path fill="none" stroke="#63b8ff" d="M88.85,-165.34C107.17,-157 134.65,-144.5 155.71,-134.91"/>
<polygon fill="#63b8ff" stroke="#63b8ff" points="157.03,-138.16 164.68,-130.83 154.13,-131.79 157.03,-138.16"/>
</a>
</g>
</g>
<!-- Node42 -->
<g id="Node000042" class="node">
<title>Node42</title>
<g id="a_Node000042"><a xlink:title=" ">
<polygon fill="#e0e0e0" stroke="#999999" points="88.62,-129.75 49.38,-129.75 49.38,-110.5 88.62,-110.5 88.62,-129.75"/>
<text text-anchor="middle" x="69" y="-116.25" font-family="Helvetica,sans-Serif" font-size="10.00">utility</text>
</a>
</g>
</g>
<!-- Node41&#45;&gt;Node42 -->
<g id="edge56_Node000041_Node000042" class="edge">
<title>Node41&#45;&gt;Node42</title>
<g id="a_edge56_Node000041_Node000042"><a xlink:title=" ">
<path fill="none" stroke="#63b8ff" d="M69,-165.58C69,-159.07 69,-149.92 69,-141.62"/>
<polygon fill="#63b8ff" stroke="#63b8ff" points="72.5,-141.62 69,-131.62 65.5,-141.62 72.5,-141.62"/>
</a>
</g>
</g>
<!-- Node43&#45;&gt;Node4 -->
<g id="edge58_Node000043_Node000004" class="edge">
<title>Node43&#45;&gt;Node4</title>
<g id="a_edge58_Node000043_Node000004"><a xlink:title=" ">
<path fill="none" stroke="#63b8ff" d="M412.82,-167.83C369.37,-160.04 295.06,-146.26 221.66,-130.01"/>
<polygon fill="#63b8ff" stroke="#63b8ff" points="222.84,-126.69 212.32,-127.93 221.32,-133.52 222.84,-126.69"/>
</a>
</g>
</g>
<!-- Node43&#45;&gt;Node18 -->
<g id="edge61_Node000043_Node000018" class="edge">
<title>Node43&#45;&gt;Node18</title>
<g id="a_edge61_Node000043_Node000018"><a xlink:title=" ">
<path fill="none" stroke="#63b8ff" d="M447.19,-165.58C445.06,-158.92 442.06,-149.49 439.36,-141.03"/>
<polygon fill="#63b8ff" stroke="#63b8ff" points="442.7,-140.01 436.33,-131.55 436.04,-142.14 442.7,-140.01"/>
</a>
</g>
</g>
<!-- Node43&#45;&gt;Node19 -->
<g id="edge60_Node000043_Node000019" class="edge">
<title>Node43&#45;&gt;Node19</title>
<g id="a_edge60_Node000043_Node000019"><a xlink:title=" ">
<path fill="none" stroke="#63b8ff" d="M462.04,-165.34C472.41,-157.57 487.6,-146.17 499.97,-136.9"/>
<polygon fill="#63b8ff" stroke="#63b8ff" points="502.02,-139.73 507.92,-130.93 497.82,-134.13 502.02,-139.73"/>
</a>
</g>
</g>
<!-- Node44 -->
<g id="Node000044" class="node">
<title>Node44</title>
<g id="a_Node000044"><a xlink:title=" ">
<polygon fill="#e0e0e0" stroke="#999999" points="295.12,-129.75 228.88,-129.75 228.88,-110.5 295.12,-110.5 295.12,-129.75"/>
<text text-anchor="middle" x="262" y="-116.25" font-family="Helvetica,sans-Serif" font-size="10.00">QDateTime</text>
</a>
</g>
</g>
<!-- Node43&#45;&gt;Node44 -->
<g id="edge59_Node000043_Node000044" class="edge">
<title>Node43&#45;&gt;Node44</title>
<g id="a_edge59_Node000043_Node000044"><a xlink:title=" ">
<path fill="none" stroke="#63b8ff" d="M418.11,-165.34C386.91,-156.51 339.2,-142.99 304.74,-133.23"/>
<polygon fill="#63b8ff" stroke="#63b8ff" points="306.08,-129.97 295.5,-130.61 304.17,-136.71 306.08,-129.97"/>
</a>
</g>
</g>
<!-- Node45 -->
<g id="Node000045" class="node">
<title>Node45</title>
<g id="a_Node000045"><a xlink:title=" ">
<polygon fill="#e0e0e0" stroke="#999999" points="381.25,-129.75 312.75,-129.75 312.75,-110.5 381.25,-110.5 381.25,-129.75"/>
<text text-anchor="middle" x="347" y="-116.25" font-family="Helvetica,sans-Serif" font-size="10.00">QJsonValue</text>
</a>
</g>
</g>
<!-- Node43&#45;&gt;Node45 -->
<g id="edge62_Node000043_Node000045" class="edge">
<title>Node43&#45;&gt;Node45</title>
<g id="a_edge62_Node000043_Node000045"><a xlink:title=" ">
<path fill="none" stroke="#63b8ff" d="M432.53,-165.34C416.69,-157.16 393.09,-144.96 374.69,-135.44"/>
<polygon fill="#63b8ff" stroke="#63b8ff" points="376.39,-132.38 365.9,-130.9 373.18,-138.6 376.39,-132.38"/>
</a>
</g>
</g>
</g>
</svg>
