<?xml version="1.0" encoding="UTF-8" standalone="no"?>
<!DOCTYPE svg PUBLIC "-//W3C//DTD SVG 1.1//EN"
 "http://www.w3.org/Graphics/SVG/1.1/DTD/svg11.dtd">
<!-- Generated by graphviz version 12.2.1 (20241206.2353)
 -->
<!-- Title: ColumnEditDelegate Pages: 1 -->
<svg width="177pt" height="242pt"
 viewBox="0.00 0.00 176.75 241.50" xmlns="http://www.w3.org/2000/svg" xmlns:xlink="http://www.w3.org/1999/xlink">

<svg id="main" version="1.1" xmlns="http://www.w3.org/2000/svg" xmlns:xlink="http://www.w3.org/1999/xlink" xml:space="preserve">

<style type="text/css"><![CDATA[
.node, .edge {opacity: 0.7;}
.node.selected, .edge.selected {opacity: 1;}
.edge:hover path { stroke: red; }
.edge:hover polygon { stroke: red; fill: red; }
]]></style>
<script type="application/ecmascript" xlink:href="../../svg.min.js"/>
<svg id="graph" class="graph">
<g id="graph0" class="graph" transform="scale(1 1) rotate(0) translate(4 237.5)">
<title>ColumnEditDelegate</title>
<!-- Node1 -->
<g id="Node000001" class="node">
<title>Node1</title>
<g id="a_Node000001"><a xlink:title="The ColumnEditDelegate class.">
<polygon fill="#999999" stroke="none" points="168.75,-147.75 0,-147.75 0,0 168.75,0 168.75,-147.75"/>
<text text-anchor="start" x="39.38" y="-134.25" font-family="Helvetica,sans-Serif" font-size="10.00">ColumnEditDelegate</text>
<text text-anchor="start" x="5.5" y="-119" font-family="Helvetica,sans-Serif" font-size="10.00">&#45;</text>
<text text-anchor="start" x="14" y="-119" font-family="Helvetica,sans-Serif" font-size="10.00">bool canEdit</text>
<text text-anchor="start" x="4" y="-103.75" font-family="Helvetica,sans-Serif" font-size="10.00">+</text>
<text text-anchor="start" x="14" y="-103.75" font-family="Helvetica,sans-Serif" font-size="10.00">ColumnEditDelegate</text>
<text text-anchor="start" x="14" y="-92.5" font-family="Helvetica,sans-Serif" font-size="10.00">(QObject *parent=nullptr)</text>
<text text-anchor="start" x="4" y="-77.25" font-family="Helvetica,sans-Serif" font-size="10.00">+</text>
<text text-anchor="start" x="14" y="-77.25" font-family="Helvetica,sans-Serif" font-size="10.00">QWidget * createEditor</text>
<text text-anchor="start" x="14" y="-66" font-family="Helvetica,sans-Serif" font-size="10.00">(QWidget *parent, const</text>
<text text-anchor="start" x="14" y="-54.75" font-family="Helvetica,sans-Serif" font-size="10.00"> QStyleOptionViewItem &amp;option,</text>
<text text-anchor="start" x="14" y="-43.5" font-family="Helvetica,sans-Serif" font-size="10.00"> const QModelIndex &amp;index) const</text>
<text text-anchor="start" x="14" y="-32.25" font-family="Helvetica,sans-Serif" font-size="10.00"> override</text>
<text text-anchor="start" x="4" y="-17" font-family="Helvetica,sans-Serif" font-size="10.00">+</text>
<text text-anchor="start" x="14" y="-17" font-family="Helvetica,sans-Serif" font-size="10.00">void setCanEdit(bool</text>
<text text-anchor="start" x="14" y="-5.75" font-family="Helvetica,sans-Serif" font-size="10.00"> edit)</text>
<polygon fill="#666666" stroke="#666666" points="0,-130.5 0,-130.5 168.75,-130.5 168.75,-130.5 0,-130.5"/>
<polygon fill="#666666" stroke="#666666" points="0,-115.25 0,-115.25 12,-115.25 12,-115.25 0,-115.25"/>
<polygon fill="#666666" stroke="#666666" points="12,-115.25 12,-115.25 168.75,-115.25 168.75,-115.25 12,-115.25"/>
<polygon fill="none" stroke="#666666" points="0,0 0,-147.75 168.75,-147.75 168.75,0 0,0"/>
</a>
</g>
</g>
<!-- Node2 -->
<g id="Node000002" class="node">
<title>Node2</title>
<g id="a_Node000002"><a xlink:title=" ">
<polygon fill="white" stroke="none" points="135.25,-233.5 33.5,-233.5 33.5,-183.75 135.25,-183.75 135.25,-233.5"/>
<text text-anchor="start" x="37.5" y="-220" font-family="Helvetica,sans-Serif" font-size="10.00">QStyledItemDelegate</text>
<text text-anchor="start" x="82.88" y="-204.75" font-family="Helvetica,sans-Serif" font-size="10.00"> </text>
<text text-anchor="start" x="82.88" y="-189.5" font-family="Helvetica,sans-Serif" font-size="10.00"> </text>
<polygon fill="#666666" stroke="#666666" points="33.5,-216.25 33.5,-216.25 135.25,-216.25 135.25,-216.25 33.5,-216.25"/>
<polygon fill="#666666" stroke="#666666" points="33.5,-201 33.5,-201 135.25,-201 135.25,-201 33.5,-201"/>
<polygon fill="none" stroke="#666666" points="33.5,-183.75 33.5,-233.5 135.25,-233.5 135.25,-183.75 33.5,-183.75"/>
</a>
</g>
</g>
<!-- Node2&#45;&gt;Node1 -->
<g id="edge1_Node000001_Node000002" class="edge">
<title>Node2&#45;&gt;Node1</title>
<g id="a_edge1_Node000001_Node000002"><a xlink:title=" ">
<path fill="none" stroke="#63b8ff" d="M84.38,-172.43C84.38,-164.7 84.38,-156.25 84.38,-147.64"/>
<polygon fill="none" stroke="#63b8ff" points="80.88,-172.38 84.38,-182.38 87.88,-172.38 80.88,-172.38"/>
</a>
</g>
</g>
</g>
</svg>
</svg>

<style type='text/css'>
<![CDATA[
[data-mouse-over-selected='false'] { opacity: 0.7; }
[data-mouse-over-selected='true']  { opacity: 1.0; }
]]>
</style>
<script type="application/ecmascript"><![CDATA[
document.addEventListener('DOMContentLoaded', (event) => {
  highlightEdges();
  highlightAdjacentNodes();
});
]]></script>
</svg>
