<?xml version="1.0" encoding="UTF-8" standalone="no"?>
<!DOCTYPE svg PUBLIC "-//W3C//DTD SVG 1.1//EN"
 "http://www.w3.org/Graphics/SVG/1.1/DTD/svg11.dtd">
<!-- Generated by graphviz version 12.2.1 (20241206.2353)
 -->
<!-- Title: Graphical Class Hierarchy Pages: 1 -->
<svg width="201pt" height="212pt"
 viewBox="0.00 0.00 201.25 212.25" xmlns="http://www.w3.org/2000/svg" xmlns:xlink="http://www.w3.org/1999/xlink">
<g id="graph0" class="graph" transform="scale(1 1) rotate(0) translate(4 208.25)">
<title>Graphical Class Hierarchy</title>
<!-- Node0 -->
<g id="Node000000" class="node">
<title>Node0</title>
<g id="a_Node000000"><a xlink:title=" ">
<polygon fill="#e0e0e0" stroke="#999999" points="52,-111.25 0,-111.25 0,-92 52,-92 52,-111.25"/>
<text text-anchor="middle" x="26" y="-97.75" font-family="Helvetica,sans-Serif" font-size="10.00">QObject</text>
</a>
</g>
</g>
<!-- Node1 -->
<g id="Node000001" class="node">
<title>Node1</title>
<g id="a_Node000001"><a xlink:href="d2/dd1/class_api_client.html" target="_top" xlink:title="Documentation Qt Version 6.9.0.">
<polygon fill="white" stroke="#666666" points="168.5,-204.25 112.75,-204.25 112.75,-185 168.5,-185 168.5,-204.25"/>
<text text-anchor="middle" x="140.62" y="-190.75" font-family="Helvetica,sans-Serif" font-size="10.00">ApiClient</text>
</a>
</g>
</g>
<!-- Node0&#45;&gt;Node1 -->
<g id="edge5_Node000000_Node000001" class="edge">
<title>Node0&#45;&gt;Node1</title>
<g id="a_edge5_Node000000_Node000001"><a xlink:title=" ">
<path fill="none" stroke="#63b8ff" d="M38.43,-121.05C49.25,-137.91 66.95,-161.86 88,-176.62 95.23,-181.69 104.02,-185.46 112.28,-188.19"/>
<polygon fill="#63b8ff" stroke="#63b8ff" points="41.63,-119.58 33.4,-112.91 35.67,-123.25 41.63,-119.58"/>
</a>
</g>
</g>
<!-- Node2 -->
<g id="Node000002" class="node">
<title>Node2</title>
<g id="a_Node000002"><a xlink:href="d7/de6/class_app_driver.html" target="_top" xlink:title="Orchestrates the main application logic and connections.">
<polygon fill="white" stroke="#666666" points="170.38,-167.25 110.88,-167.25 110.88,-148 170.38,-148 170.38,-167.25"/>
<text text-anchor="middle" x="140.62" y="-153.75" font-family="Helvetica,sans-Serif" font-size="10.00">AppDriver</text>
</a>
</g>
</g>
<!-- Node0&#45;&gt;Node2 -->
<g id="edge6_Node000000_Node000002" class="edge">
<title>Node0&#45;&gt;Node2</title>
<g id="a_edge6_Node000000_Node000002"><a xlink:title=" ">
<path fill="none" stroke="#63b8ff" d="M50.4,-117.9C61.47,-125.16 75.07,-133.44 88,-139.62 95.11,-143.03 103.03,-146.11 110.5,-148.73"/>
<polygon fill="#63b8ff" stroke="#63b8ff" points="52.54,-115.13 42.29,-112.46 48.64,-120.94 52.54,-115.13"/>
</a>
</g>
</g>
<!-- Node3 -->
<g id="Node000003" class="node">
<title>Node3</title>
<g id="a_Node000003"><a xlink:href="d8/d08/class_render_area_manager.html" target="_top" xlink:title="Manages the shapes to be rendered and interacts with the backend API.">
<polygon fill="white" stroke="#666666" points="193.25,-130.25 88,-130.25 88,-111 193.25,-111 193.25,-130.25"/>
<text text-anchor="middle" x="140.62" y="-116.75" font-family="Helvetica,sans-Serif" font-size="10.00">RenderAreaManager</text>
</a>
</g>
</g>
<!-- Node0&#45;&gt;Node3 -->
<g id="edge7_Node000000_Node000003" class="edge">
<title>Node0&#45;&gt;Node3</title>
<g id="a_edge7_Node000000_Node000003"><a xlink:title=" ">
<path fill="none" stroke="#63b8ff" d="M63.48,-107.78C71.22,-109.08 79.52,-110.49 87.7,-111.87"/>
<polygon fill="#63b8ff" stroke="#63b8ff" points="64.21,-104.35 53.77,-106.14 63.05,-111.26 64.21,-104.35"/>
</a>
</g>
</g>
<!-- Node4 -->
<g id="Node000004" class="node">
<title>Node4</title>
<g id="a_Node000004"><a xlink:href="d3/dde/class_shapes_manager.html" target="_top" xlink:title=" ">
<polygon fill="white" stroke="#666666" points="183.88,-93.25 97.38,-93.25 97.38,-74 183.88,-74 183.88,-93.25"/>
<text text-anchor="middle" x="140.62" y="-79.75" font-family="Helvetica,sans-Serif" font-size="10.00">ShapesManager</text>
</a>
</g>
</g>
<!-- Node0&#45;&gt;Node4 -->
<g id="edge8_Node000000_Node000004" class="edge">
<title>Node0&#45;&gt;Node4</title>
<g id="a_edge8_Node000000_Node000004"><a xlink:title=" ">
<path fill="none" stroke="#63b8ff" d="M63.43,-95.8C74.2,-94.08 86.08,-92.18 97.19,-90.41"/>
<polygon fill="#63b8ff" stroke="#63b8ff" points="63.09,-92.31 53.77,-97.35 64.2,-99.22 63.09,-92.31"/>
</a>
</g>
</g>
<!-- Node5 -->
<g id="Node000005" class="node">
<title>Node5</title>
<g id="a_Node000005"><a xlink:href="d4/d0d/class_testimonial_manager.html" target="_top" xlink:title="Manages user testimonials, including storage, retrieval, and prompting logic.">
<polygon fill="white" stroke="#666666" points="192.12,-56.25 89.12,-56.25 89.12,-37 192.12,-37 192.12,-56.25"/>
<text text-anchor="middle" x="140.62" y="-42.75" font-family="Helvetica,sans-Serif" font-size="10.00">TestimonialManager</text>
</a>
</g>
</g>
<!-- Node0&#45;&gt;Node5 -->
<g id="edge9_Node000000_Node000005" class="edge">
<title>Node0&#45;&gt;Node5</title>
<g id="a_edge9_Node000000_Node000005"><a xlink:title=" ">
<path fill="none" stroke="#63b8ff" d="M50.89,-85.53C61.9,-78.54 75.3,-70.61 88,-64.62 94.1,-61.75 100.78,-59.09 107.26,-56.74"/>
<polygon fill="#63b8ff" stroke="#63b8ff" points="49.3,-82.39 42.82,-90.77 53.12,-88.26 49.3,-82.39"/>
</a>
</g>
</g>
<!-- Node6 -->
<g id="Node000006" class="node">
<title>Node6</title>
<g id="a_Node000006"><a xlink:href="d1/da2/class_user_manager.html" target="_top" xlink:title="Manages user accounts, including creation, authentication, and persistence.">
<polygon fill="white" stroke="#666666" points="177.88,-19.25 103.38,-19.25 103.38,0 177.88,0 177.88,-19.25"/>
<text text-anchor="middle" x="140.62" y="-5.75" font-family="Helvetica,sans-Serif" font-size="10.00">UserManager</text>
</a>
</g>
</g>
<!-- Node0&#45;&gt;Node6 -->
<g id="edge10_Node000000_Node000006" class="edge">
<title>Node0&#45;&gt;Node6</title>
<g id="a_edge10_Node000000_Node000006"><a xlink:title=" ">
<path fill="none" stroke="#63b8ff" d="M38.66,-82.19C49.54,-65.58 67.18,-42.13 88,-27.62 92.6,-24.42 97.81,-21.74 103.13,-19.51"/>
<polygon fill="#63b8ff" stroke="#63b8ff" points="35.97,-79.9 33.6,-90.23 41.89,-83.63 35.97,-79.9"/>
</a>
</g>
</g>
</g>
</svg>
