<?xml version="1.0" encoding="UTF-8" standalone="no"?>
<!DOCTYPE svg PUBLIC "-//W3C//DTD SVG 1.1//EN"
 "http://www.w3.org/Graphics/SVG/1.1/DTD/svg11.dtd">
<!-- Generated by graphviz version 12.2.1 (20241206.2353)
 -->
<!-- Title: Graphical Class Hierarchy Pages: 1 -->
<svg width="148pt" height="286pt"
 viewBox="0.00 0.00 148.00 286.25" xmlns="http://www.w3.org/2000/svg" xmlns:xlink="http://www.w3.org/1999/xlink">
<g id="graph0" class="graph" transform="scale(1 1) rotate(0) translate(4 282.25)">
<title>Graphical Class Hierarchy</title>
<!-- Node0 -->
<g id="Node000000" class="node">
<title>Node0</title>
<g id="a_Node000000"><a xlink:href="d7/da7/class_shape.html" target="_top" xlink:title="The Shape Abstract Base Class.">
<polygon fill="white" stroke="#666666" points="43.75,-148.25 0,-148.25 0,-129 43.75,-129 43.75,-148.25"/>
<text text-anchor="middle" x="21.88" y="-134.75" font-family="Helvetica,sans-Serif" font-size="10.00">Shape</text>
</a>
</g>
</g>
<!-- Node1 -->
<g id="Node000001" class="node">
<title>Node1</title>
<g id="a_Node000001"><a xlink:href="d0/d88/class_circle.html" target="_top" xlink:title="The Circle class.">
<polygon fill="white" stroke="#666666" points="130.62,-278.25 89.12,-278.25 89.12,-259 130.62,-259 130.62,-278.25"/>
<text text-anchor="middle" x="109.88" y="-264.75" font-family="Helvetica,sans-Serif" font-size="10.00">Circle</text>
</a>
</g>
</g>
<!-- Node0&#45;&gt;Node1 -->
<g id="edge13_Node000000_Node000001" class="edge">
<title>Node0&#45;&gt;Node1</title>
<g id="a_edge13_Node000000_Node000001"><a xlink:title=" ">
<path fill="none" stroke="#63b8ff" d="M29.54,-159.44C38.1,-183.6 54.87,-223.57 79.75,-250.62 82.49,-253.6 85.82,-256.26 89.25,-258.57"/>
<polygon fill="#63b8ff" stroke="#63b8ff" points="32.91,-158.48 26.4,-150.12 26.28,-160.72 32.91,-158.48"/>
</a>
</g>
</g>
<!-- Node2 -->
<g id="Node000002" class="node">
<title>Node2</title>
<g id="a_Node000002"><a xlink:href="dc/d25/class_ellipse.html" target="_top" xlink:title="The Ellipse class.">
<polygon fill="white" stroke="#666666" points="132.5,-241.25 87.25,-241.25 87.25,-222 132.5,-222 132.5,-241.25"/>
<text text-anchor="middle" x="109.88" y="-227.75" font-family="Helvetica,sans-Serif" font-size="10.00">Ellipse</text>
</a>
</g>
</g>
<!-- Node0&#45;&gt;Node2 -->
<g id="edge14_Node000000_Node000002" class="edge">
<title>Node0&#45;&gt;Node2</title>
<g id="a_edge14_Node000000_Node000002"><a xlink:title=" ">
<path fill="none" stroke="#63b8ff" d="M34.7,-158.03C45.18,-174.19 61.6,-197.12 79.75,-213.62 82.92,-216.5 86.61,-219.19 90.27,-221.56"/>
<polygon fill="#63b8ff" stroke="#63b8ff" points="37.81,-156.41 29.52,-149.82 31.89,-160.14 37.81,-156.41"/>
</a>
</g>
</g>
<!-- Node3 -->
<g id="Node000003" class="node">
<title>Node3</title>
<g id="a_Node000003"><a xlink:href="dd/db4/class_line.html" target="_top" xlink:title="The Line class.">
<polygon fill="white" stroke="#666666" points="126.88,-204.25 92.88,-204.25 92.88,-185 126.88,-185 126.88,-204.25"/>
<text text-anchor="middle" x="109.88" y="-190.75" font-family="Helvetica,sans-Serif" font-size="10.00">Line</text>
</a>
</g>
</g>
<!-- Node0&#45;&gt;Node3 -->
<g id="edge15_Node000000_Node000003" class="edge">
<title>Node0&#45;&gt;Node3</title>
<g id="a_edge15_Node000000_Node000003"><a xlink:title=" ">
<path fill="none" stroke="#63b8ff" d="M46.69,-154.81C56.82,-161.63 68.81,-169.59 79.75,-176.62 83.85,-179.26 88.31,-182.05 92.48,-184.64"/>
<polygon fill="#63b8ff" stroke="#63b8ff" points="48.78,-151.99 38.53,-149.3 44.86,-157.8 48.78,-151.99"/>
</a>
</g>
</g>
<!-- Node4 -->
<g id="Node000004" class="node">
<title>Node4</title>
<g id="a_Node000004"><a xlink:href="d1/db0/class_polygon.html" target="_top" xlink:title="The Polygon class.">
<polygon fill="white" stroke="#666666" points="135.5,-167.25 84.25,-167.25 84.25,-148 135.5,-148 135.5,-167.25"/>
<text text-anchor="middle" x="109.88" y="-153.75" font-family="Helvetica,sans-Serif" font-size="10.00">Polygon</text>
</a>
</g>
</g>
<!-- Node0&#45;&gt;Node4 -->
<g id="edge16_Node000000_Node000004" class="edge">
<title>Node0&#45;&gt;Node4</title>
<g id="a_edge16_Node000000_Node000004"><a xlink:title=" ">
<path fill="none" stroke="#63b8ff" d="M55.21,-145.77C64.7,-147.87 74.93,-150.13 83.89,-152.11"/>
<polygon fill="#63b8ff" stroke="#63b8ff" points="56.13,-142.39 45.61,-143.65 54.62,-149.22 56.13,-142.39"/>
</a>
</g>
</g>
<!-- Node5 -->
<g id="Node000005" class="node">
<title>Node5</title>
<g id="a_Node000005"><a xlink:href="d1/d42/class_polyline.html" target="_top" xlink:title="The Polyline class.">
<polygon fill="white" stroke="#666666" points="135.12,-130.25 84.62,-130.25 84.62,-111 135.12,-111 135.12,-130.25"/>
<text text-anchor="middle" x="109.88" y="-116.75" font-family="Helvetica,sans-Serif" font-size="10.00">Polyline</text>
</a>
</g>
</g>
<!-- Node0&#45;&gt;Node5 -->
<g id="edge17_Node000000_Node000005" class="edge">
<title>Node0&#45;&gt;Node5</title>
<g id="a_edge17_Node000000_Node000005"><a xlink:title=" ">
<path fill="none" stroke="#63b8ff" d="M55.31,-131.84C64.88,-129.83 75.2,-127.67 84.21,-125.79"/>
<polygon fill="#63b8ff" stroke="#63b8ff" points="54.69,-128.39 45.61,-133.87 56.12,-135.24 54.69,-128.39"/>
</a>
</g>
</g>
<!-- Node6 -->
<g id="Node000006" class="node">
<title>Node6</title>
<g id="a_Node000006"><a xlink:href="d9/dc7/class_rectangle.html" target="_top" xlink:title="The Rectangle class.">
<polygon fill="white" stroke="#666666" points="140,-93.25 79.75,-93.25 79.75,-74 140,-74 140,-93.25"/>
<text text-anchor="middle" x="109.88" y="-79.75" font-family="Helvetica,sans-Serif" font-size="10.00">Rectangle</text>
</a>
</g>
</g>
<!-- Node0&#45;&gt;Node6 -->
<g id="edge18_Node000000_Node000006" class="edge">
<title>Node0&#45;&gt;Node6</title>
<g id="a_edge18_Node000000_Node000006"><a xlink:title=" ">
<path fill="none" stroke="#63b8ff" d="M47.15,-122.66C57.2,-116.09 69.01,-108.44 79.75,-101.62 83.87,-99.01 88.33,-96.23 92.51,-93.65"/>
<polygon fill="#63b8ff" stroke="#63b8ff" points="45.5,-119.56 39.05,-127.96 49.33,-125.41 45.5,-119.56"/>
</a>
</g>
</g>
<!-- Node7 -->
<g id="Node000007" class="node">
<title>Node7</title>
<g id="a_Node000007"><a xlink:href="d9/d0c/class_square.html" target="_top" xlink:title="The Square class.">
<polygon fill="white" stroke="#666666" points="133.25,-56.25 86.5,-56.25 86.5,-37 133.25,-37 133.25,-56.25"/>
<text text-anchor="middle" x="109.88" y="-42.75" font-family="Helvetica,sans-Serif" font-size="10.00">Square</text>
</a>
</g>
</g>
<!-- Node0&#45;&gt;Node7 -->
<g id="edge19_Node000000_Node000007" class="edge">
<title>Node0&#45;&gt;Node7</title>
<g id="a_edge19_Node000000_Node000007"><a xlink:title=" ">
<path fill="none" stroke="#63b8ff" d="M34.92,-119.22C45.44,-103.31 61.8,-80.84 79.75,-64.62 82.93,-61.76 86.62,-59.08 90.29,-56.71"/>
<polygon fill="#63b8ff" stroke="#63b8ff" points="32.18,-117.03 29.72,-127.33 38.07,-120.81 32.18,-117.03"/>
</a>
</g>
</g>
<!-- Node8 -->
<g id="Node000008" class="node">
<title>Node8</title>
<g id="a_Node000008"><a xlink:href="da/d0e/class_text.html" target="_top" xlink:title="The Text class.">
<polygon fill="white" stroke="#666666" points="127.25,-19.25 92.5,-19.25 92.5,0 127.25,0 127.25,-19.25"/>
<text text-anchor="middle" x="109.88" y="-5.75" font-family="Helvetica,sans-Serif" font-size="10.00">Text</text>
</a>
</g>
</g>
<!-- Node0&#45;&gt;Node8 -->
<g id="edge20_Node000000_Node000008" class="edge">
<title>Node0&#45;&gt;Node8</title>
<g id="a_edge20_Node000000_Node000008"><a xlink:title=" ">
<path fill="none" stroke="#63b8ff" d="M29.59,-118C38.19,-94.05 55,-54.44 79.75,-27.62 83.3,-23.78 87.85,-20.45 92.29,-17.74"/>
<polygon fill="#63b8ff" stroke="#63b8ff" points="26.36,-116.62 26.43,-127.22 32.98,-118.89 26.36,-116.62"/>
</a>
</g>
</g>
</g>
</svg>
