<?xml version="1.0" encoding="UTF-8" standalone="no"?>
<!DOCTYPE svg PUBLIC "-//W3C//DTD SVG 1.1//EN"
 "http://www.w3.org/Graphics/SVG/1.1/DTD/svg11.dtd">
<!-- Generated by graphviz version 12.2.1 (20241206.2353)
 -->
<!-- Title: UserAccount::UserAccount Pages: 1 -->
<svg width="316pt" height="138pt"
 viewBox="0.00 0.00 316.00 138.25" xmlns="http://www.w3.org/2000/svg" xmlns:xlink="http://www.w3.org/1999/xlink">
<g id="graph0" class="graph" transform="scale(1 1) rotate(0) translate(4 134.25)">
<title>UserAccount::UserAccount</title>
<!-- Node1 -->
<g id="Node000001" class="node">
<title>Node1</title>
<g id="a_Node000001"><a xlink:title="Default constructor. Initializes as a guest user.">
<polygon fill="#999999" stroke="#666666" points="308,-74.25 172,-74.25 172,-55 308,-55 308,-74.25"/>
<text text-anchor="middle" x="240" y="-60.75" font-family="Helvetica,sans-Serif" font-size="10.00">UserAccount::UserAccount</text>
</a>
</g>
</g>
<!-- Node2 -->
<g id="Node000002" class="node">
<title>Node2</title>
<g id="a_Node000002"><a xlink:href="../../d3/d9d/class_user_account.html#abba894dc3a1dc2e5594a43bf6b73e7d5" target="_top" xlink:title="Copy assignment operator.">
<polygon fill="white" stroke="#666666" points="128.12,-130.25 7.88,-130.25 7.88,-111 128.12,-111 128.12,-130.25"/>
<text text-anchor="middle" x="68" y="-116.75" font-family="Helvetica,sans-Serif" font-size="10.00">UserAccount::operator=</text>
</a>
</g>
</g>
<!-- Node1&#45;&gt;Node2 -->
<g id="edge1_Node000001_Node000002" class="edge">
<title>Node1&#45;&gt;Node2</title>
<g id="a_edge1_Node000001_Node000002"><a xlink:title=" ">
<path fill="none" stroke="#63b8ff" d="M203.19,-78.75C183.51,-86.28 158.58,-95.44 136,-102.62 127.28,-105.4 117.83,-108.11 108.85,-110.56"/>
<polygon fill="#63b8ff" stroke="#63b8ff" points="204.34,-82.05 212.41,-75.19 201.82,-75.52 204.34,-82.05"/>
</a>
</g>
</g>
<!-- Node3 -->
<g id="Node000003" class="node">
<title>Node3</title>
<g id="a_Node000003"><a xlink:href="../../d3/d9d/class_user_account.html#a9402d2779bb041688e1bd91d79b9aaa0" target="_top" xlink:title="Move assignment operator.">
<polygon fill="white" stroke="#666666" points="128.12,-93.25 7.88,-93.25 7.88,-74 128.12,-74 128.12,-93.25"/>
<text text-anchor="middle" x="68" y="-79.75" font-family="Helvetica,sans-Serif" font-size="10.00">UserAccount::operator=</text>
</a>
</g>
</g>
<!-- Node1&#45;&gt;Node3 -->
<g id="edge2_Node000001_Node000003" class="edge">
<title>Node1&#45;&gt;Node3</title>
<g id="a_edge2_Node000001_Node000003"><a xlink:title=" ">
<path fill="none" stroke="#63b8ff" d="M160.65,-73.38C149.85,-74.59 138.92,-75.81 128.54,-76.97"/>
<polygon fill="#63b8ff" stroke="#63b8ff" points="160.76,-76.89 170.31,-72.3 159.98,-69.93 160.76,-76.89"/>
</a>
</g>
</g>
<!-- Node4 -->
<g id="Node000004" class="node">
<title>Node4</title>
<g id="a_Node000004"><a xlink:href="../../d3/d9d/class_user_account.html#a9d0dbf43617a842db4be1cab948e32f0" target="_top" xlink:title="Copy constructor.">
<polygon fill="white" stroke="#666666" points="136,-56.25 0,-56.25 0,-37 136,-37 136,-56.25"/>
<text text-anchor="middle" x="68" y="-42.75" font-family="Helvetica,sans-Serif" font-size="10.00">UserAccount::UserAccount</text>
</a>
</g>
</g>
<!-- Node1&#45;&gt;Node4 -->
<g id="edge3_Node000001_Node000004" class="edge">
<title>Node1&#45;&gt;Node4</title>
<g id="a_edge3_Node000001_Node000004"><a xlink:title=" ">
<path fill="none" stroke="#63b8ff" d="M160.46,-56.31C152.37,-55.45 144.21,-54.59 136.26,-53.75"/>
<polygon fill="#63b8ff" stroke="#63b8ff" points="159.99,-59.78 170.31,-57.35 160.73,-52.82 159.99,-59.78"/>
</a>
</g>
</g>
<!-- Node5 -->
<g id="Node000005" class="node">
<title>Node5</title>
<g id="a_Node000005"><a xlink:href="../../d3/d9d/class_user_account.html#aba9197e311b4ea2993e4be6096a70949" target="_top" xlink:title="Move constructor.">
<polygon fill="white" stroke="#666666" points="136,-19.25 0,-19.25 0,0 136,0 136,-19.25"/>
<text text-anchor="middle" x="68" y="-5.75" font-family="Helvetica,sans-Serif" font-size="10.00">UserAccount::UserAccount</text>
</a>
</g>
</g>
<!-- Node1&#45;&gt;Node5 -->
<g id="edge4_Node000001_Node000005" class="edge">
<title>Node1&#45;&gt;Node5</title>
<g id="a_edge4_Node000001_Node000005"><a xlink:title=" ">
<path fill="none" stroke="#63b8ff" d="M202.36,-50.63C182.8,-43.37 158.23,-34.59 136,-27.62 127.27,-24.89 117.81,-22.19 108.84,-19.75"/>
<polygon fill="#63b8ff" stroke="#63b8ff" points="200.94,-53.84 211.54,-54.07 203.4,-47.28 200.94,-53.84"/>
</a>
</g>
</g>
</g>
</svg>
