<?xml version="1.0" encoding="UTF-8" standalone="no"?>
<!DOCTYPE svg PUBLIC "-//W3C//DTD SVG 1.1//EN"
 "http://www.w3.org/Graphics/SVG/1.1/DTD/svg11.dtd">
<!-- Generated by graphviz version 12.2.1 (20241206.2353)
 -->
<!-- Title: /Users/gautam/Local/Forge/Team&#45;Alphawolves/2D&#45;Graphics&#45;Modeler/src/frontend/TestimonialDialog.cpp Pages: 1 -->
<svg width="1894pt" height="393pt"
 viewBox="0.00 0.00 1893.62 392.50" xmlns="http://www.w3.org/2000/svg" xmlns:xlink="http://www.w3.org/1999/xlink">
<g id="graph0" class="graph" transform="scale(1 1) rotate(0) translate(4 388.5)">
<title>/Users/gautam/Local/Forge/Team&#45;Alphawolves/2D&#45;Graphics&#45;Modeler/src/frontend/TestimonialDialog.cpp</title>
<!-- Node1 -->
<g id="Node000001" class="node">
<title>Node1</title>
<g id="a_Node000001"><a xlink:title=" ">
<polygon fill="#999999" stroke="#666666" points="1030.38,-384.5 877.12,-384.5 877.12,-331.5 1030.38,-331.5 1030.38,-384.5"/>
<text text-anchor="start" x="885.12" y="-371" font-family="Helvetica,sans-Serif" font-size="10.00">/Users/gautam/Local</text>
<text text-anchor="start" x="885.12" y="-359.75" font-family="Helvetica,sans-Serif" font-size="10.00">/Forge/Team&#45;Alphawolves</text>
<text text-anchor="start" x="885.12" y="-348.5" font-family="Helvetica,sans-Serif" font-size="10.00">/2D&#45;Graphics&#45;Modeler/src</text>
<text text-anchor="middle" x="953.75" y="-337.25" font-family="Helvetica,sans-Serif" font-size="10.00">/frontend/TestimonialDialog.cpp</text>
</a>
</g>
</g>
<!-- Node2 -->
<g id="Node000002" class="node">
<title>Node2</title>
<g id="a_Node000002"><a xlink:href="../../d9/db8/_testimonial_dialog_8h.html" target="_top" xlink:title="Defines the TestimonialDialog class for submitting user testimonials.">
<polygon fill="white" stroke="#666666" points="472.5,-295.5 371,-295.5 371,-276.25 472.5,-276.25 472.5,-295.5"/>
<text text-anchor="middle" x="421.75" y="-282" font-family="Helvetica,sans-Serif" font-size="10.00">TestimonialDialog.h</text>
</a>
</g>
</g>
<!-- Node1&#45;&gt;Node2 -->
<g id="edge1_Node000001_Node000002" class="edge">
<title>Node1&#45;&gt;Node2</title>
<g id="a_edge1_Node000001_Node000002"><a xlink:title=" ">
<path fill="none" stroke="#63b8ff" d="M876.68,-346.84C770.59,-332.86 581.63,-307.95 483.99,-295.08"/>
<polygon fill="#63b8ff" stroke="#63b8ff" points="484.7,-291.64 474.33,-293.81 483.79,-298.58 484.7,-291.64"/>
</a>
</g>
</g>
<!-- Node12 -->
<g id="Node000012" class="node">
<title>Node12</title>
<g id="a_Node000012"><a xlink:href="../../d4/d0a/_testimonial_manager_8h.html" target="_top" xlink:title=" ">
<polygon fill="white" stroke="#666666" points="1630.38,-295.5 1471.12,-295.5 1471.12,-276.25 1630.38,-276.25 1630.38,-295.5"/>
<text text-anchor="middle" x="1550.75" y="-282" font-family="Helvetica,sans-Serif" font-size="10.00">../backend/TestimonialManager.h</text>
</a>
</g>
</g>
<!-- Node1&#45;&gt;Node12 -->
<g id="edge11_Node000001_Node000012" class="edge">
<title>Node1&#45;&gt;Node12</title>
<g id="a_edge11_Node000001_Node000012"><a xlink:title=" ">
<path fill="none" stroke="#63b8ff" d="M1030.58,-347.98C1141.21,-334.98 1344.91,-311.05 1461.88,-297.31"/>
<polygon fill="#63b8ff" stroke="#63b8ff" points="1462.25,-300.79 1471.77,-296.15 1461.43,-293.84 1462.25,-300.79"/>
</a>
</g>
</g>
<!-- Node3 -->
<g id="Node000003" class="node">
<title>Node3</title>
<g id="a_Node000003"><a xlink:title=" ">
<polygon fill="#e0e0e0" stroke="#999999" points="640.38,-240.25 589.12,-240.25 589.12,-221 640.38,-221 640.38,-240.25"/>
<text text-anchor="middle" x="614.75" y="-226.75" font-family="Helvetica,sans-Serif" font-size="10.00">QDialog</text>
</a>
</g>
</g>
<!-- Node2&#45;&gt;Node3 -->
<g id="edge2_Node000002_Node000003" class="edge">
<title>Node2&#45;&gt;Node3</title>
<g id="a_edge2_Node000002_Node000003"><a xlink:title=" ">
<path fill="none" stroke="#63b8ff" d="M454.49,-275.84C488.65,-266.42 542.1,-251.67 577.76,-241.83"/>
<polygon fill="#63b8ff" stroke="#63b8ff" points="578.5,-245.26 587.21,-239.22 576.64,-238.51 578.5,-245.26"/>
</a>
</g>
</g>
<!-- Node4 -->
<g id="Node000004" class="node">
<title>Node4</title>
<g id="a_Node000004"><a xlink:title=" ">
<polygon fill="#e0e0e0" stroke="#999999" points="727.38,-240.25 658.12,-240.25 658.12,-221 727.38,-221 727.38,-240.25"/>
<text text-anchor="middle" x="692.75" y="-226.75" font-family="Helvetica,sans-Serif" font-size="10.00">QCheckBox</text>
</a>
</g>
</g>
<!-- Node2&#45;&gt;Node4 -->
<g id="edge3_Node000002_Node000004" class="edge">
<title>Node2&#45;&gt;Node4</title>
<g id="a_edge3_Node000002_Node000004"><a xlink:title=" ">
<path fill="none" stroke="#63b8ff" d="M468.49,-275.79C512.15,-267.29 579.47,-254.15 646.78,-240.83"/>
<polygon fill="#63b8ff" stroke="#63b8ff" points="647.4,-244.28 656.53,-238.9 646.04,-237.41 647.4,-244.28"/>
</a>
</g>
</g>
<!-- Node5 -->
<g id="Node000005" class="node">
<title>Node5</title>
<g id="a_Node000005"><a xlink:title=" ">
<polygon fill="#e0e0e0" stroke="#999999" points="59.5,-240.25 0,-240.25 0,-221 59.5,-221 59.5,-240.25"/>
<text text-anchor="middle" x="29.75" y="-226.75" font-family="Helvetica,sans-Serif" font-size="10.00">QTextEdit</text>
</a>
</g>
</g>
<!-- Node2&#45;&gt;Node5 -->
<g id="edge4_Node000002_Node000005" class="edge">
<title>Node2&#45;&gt;Node5</title>
<g id="a_edge4_Node000002_Node000005"><a xlink:title=" ">
<path fill="none" stroke="#63b8ff" d="M370.67,-279.91C304.05,-273.1 183.64,-259.67 71.14,-240.52"/>
<polygon fill="#63b8ff" stroke="#63b8ff" points="71.87,-237.09 61.42,-238.84 70.68,-243.99 71.87,-237.09"/>
</a>
</g>
</g>
<!-- Node6 -->
<g id="Node000006" class="node">
<title>Node6</title>
<g id="a_Node000006"><a xlink:title=" ">
<polygon fill="#e0e0e0" stroke="#999999" points="136.12,-240.25 77.38,-240.25 77.38,-221 136.12,-221 136.12,-240.25"/>
<text text-anchor="middle" x="106.75" y="-226.75" font-family="Helvetica,sans-Serif" font-size="10.00">QLineEdit</text>
</a>
</g>
</g>
<!-- Node2&#45;&gt;Node6 -->
<g id="edge5_Node000002_Node000006" class="edge">
<title>Node2&#45;&gt;Node6</title>
<g id="a_edge5_Node000002_Node000006"><a xlink:title=" ">
<path fill="none" stroke="#63b8ff" d="M370.73,-277.52C317.6,-269.66 231.72,-256.41 147.81,-240.55"/>
<polygon fill="#63b8ff" stroke="#63b8ff" points="148.49,-237.11 138.01,-238.68 147.18,-243.99 148.49,-237.11"/>
</a>
</g>
</g>
<!-- Node7 -->
<g id="Node000007" class="node">
<title>Node7</title>
<g id="a_Node000007"><a xlink:title=" ">
<polygon fill="#e0e0e0" stroke="#999999" points="231.12,-240.25 154.38,-240.25 154.38,-221 231.12,-221 231.12,-240.25"/>
<text text-anchor="middle" x="192.75" y="-226.75" font-family="Helvetica,sans-Serif" font-size="10.00">QVBoxLayout</text>
</a>
</g>
</g>
<!-- Node2&#45;&gt;Node7 -->
<g id="edge6_Node000002_Node000007" class="edge">
<title>Node2&#45;&gt;Node7</title>
<g id="a_edge6_Node000002_Node000007"><a xlink:title=" ">
<path fill="none" stroke="#63b8ff" d="M382.64,-275.78C343.91,-266.77 284.46,-252.95 242.41,-243.17"/>
<polygon fill="#63b8ff" stroke="#63b8ff" points="243.32,-239.79 232.79,-240.93 241.73,-246.61 243.32,-239.79"/>
</a>
</g>
</g>
<!-- Node8 -->
<g id="Node000008" class="node">
<title>Node8</title>
<g id="a_Node000008"><a xlink:title=" ">
<polygon fill="#e0e0e0" stroke="#999999" points="326.5,-240.25 249,-240.25 249,-221 326.5,-221 326.5,-240.25"/>
<text text-anchor="middle" x="287.75" y="-226.75" font-family="Helvetica,sans-Serif" font-size="10.00">QHBoxLayout</text>
</a>
</g>
</g>
<!-- Node2&#45;&gt;Node8 -->
<g id="edge7_Node000002_Node000008" class="edge">
<title>Node2&#45;&gt;Node8</title>
<g id="a_edge7_Node000002_Node000008"><a xlink:title=" ">
<path fill="none" stroke="#63b8ff" d="M399.02,-275.84C377.65,-267.35 345.41,-254.54 321.12,-244.89"/>
<polygon fill="#63b8ff" stroke="#63b8ff" points="322.59,-241.7 312,-241.26 320,-248.21 322.59,-241.7"/>
</a>
</g>
</g>
<!-- Node9 -->
<g id="Node000009" class="node">
<title>Node9</title>
<g id="a_Node000009"><a xlink:title=" ">
<polygon fill="#e0e0e0" stroke="#999999" points="419,-240.25 344.5,-240.25 344.5,-221 419,-221 419,-240.25"/>
<text text-anchor="middle" x="381.75" y="-226.75" font-family="Helvetica,sans-Serif" font-size="10.00">QPushButton</text>
</a>
</g>
</g>
<!-- Node2&#45;&gt;Node9 -->
<g id="edge8_Node000002_Node000009" class="edge">
<title>Node2&#45;&gt;Node9</title>
<g id="a_edge8_Node000002_Node000009"><a xlink:title=" ">
<path fill="none" stroke="#63b8ff" d="M415.14,-276.08C409.79,-268.96 402.07,-258.68 395.4,-249.8"/>
<polygon fill="#63b8ff" stroke="#63b8ff" points="398.21,-247.71 389.41,-241.82 392.62,-251.92 398.21,-247.71"/>
</a>
</g>
</g>
<!-- Node10 -->
<g id="Node000010" class="node">
<title>Node10</title>
<g id="a_Node000010"><a xlink:title=" ">
<polygon fill="#e0e0e0" stroke="#999999" points="484.12,-240.25 437.38,-240.25 437.38,-221 484.12,-221 484.12,-240.25"/>
<text text-anchor="middle" x="460.75" y="-226.75" font-family="Helvetica,sans-Serif" font-size="10.00">QLabel</text>
</a>
</g>
</g>
<!-- Node2&#45;&gt;Node10 -->
<g id="edge9_Node000002_Node000010" class="edge">
<title>Node2&#45;&gt;Node10</title>
<g id="a_edge9_Node000002_Node000010"><a xlink:title=" ">
<path fill="none" stroke="#63b8ff" d="M428.19,-276.08C433.41,-268.96 440.94,-258.68 447.44,-249.8"/>
<polygon fill="#63b8ff" stroke="#63b8ff" points="450.19,-251.97 453.28,-241.83 444.54,-247.83 450.19,-251.97"/>
</a>
</g>
</g>
<!-- Node11 -->
<g id="Node000011" class="node">
<title>Node11</title>
<g id="a_Node000011"><a xlink:title=" ">
<polygon fill="#e0e0e0" stroke="#999999" points="571,-240.25 502.5,-240.25 502.5,-221 571,-221 571,-240.25"/>
<text text-anchor="middle" x="536.75" y="-226.75" font-family="Helvetica,sans-Serif" font-size="10.00">QScrollArea</text>
</a>
</g>
</g>
<!-- Node2&#45;&gt;Node11 -->
<g id="edge10_Node000002_Node000011" class="edge">
<title>Node2&#45;&gt;Node11</title>
<g id="a_edge10_Node000002_Node000011"><a xlink:title=" ">
<path fill="none" stroke="#63b8ff" d="M441.26,-275.84C459.27,-267.5 486.27,-255 506.98,-245.41"/>
<polygon fill="#63b8ff" stroke="#63b8ff" points="508.17,-248.72 515.77,-241.34 505.23,-242.36 508.17,-248.72"/>
</a>
</g>
</g>
<!-- Node13 -->
<g id="Node000013" class="node">
<title>Node13</title>
<g id="a_Node000013"><a xlink:title=" ">
<polygon fill="#e0e0e0" stroke="#999999" points="912.75,-185 860.75,-185 860.75,-165.75 912.75,-165.75 912.75,-185"/>
<text text-anchor="middle" x="886.75" y="-171.5" font-family="Helvetica,sans-Serif" font-size="10.00">QObject</text>
</a>
</g>
</g>
<!-- Node12&#45;&gt;Node13 -->
<g id="edge12_Node000012_Node000013" class="edge">
<title>Node12&#45;&gt;Node13</title>
<g id="a_edge12_Node000012_Node000013"><a xlink:title=" ">
<path fill="none" stroke="#63b8ff" d="M1486.78,-275.79C1373.54,-259.46 1130.55,-223.25 926.75,-185 925.91,-184.84 925.06,-184.68 924.21,-184.52"/>
<polygon fill="#63b8ff" stroke="#63b8ff" points="924.94,-181.09 914.44,-182.54 923.55,-187.95 924.94,-181.09"/>
</a>
</g>
</g>
<!-- Node14 -->
<g id="Node000014" class="node">
<title>Node14</title>
<g id="a_Node000014"><a xlink:title=" ">
<polygon fill="#e0e0e0" stroke="#999999" points="1602.75,-185 1550.75,-185 1550.75,-165.75 1602.75,-165.75 1602.75,-185"/>
<text text-anchor="middle" x="1576.75" y="-171.5" font-family="Helvetica,sans-Serif" font-size="10.00">QVector</text>
</a>
</g>
</g>
<!-- Node12&#45;&gt;Node14 -->
<g id="edge13_Node000012_Node000014" class="edge">
<title>Node12&#45;&gt;Node14</title>
<g id="a_edge13_Node000012_Node000014"><a xlink:title=" ">
<path fill="none" stroke="#63b8ff" d="M1552.88,-276C1557.01,-258.75 1566.22,-220.33 1571.91,-196.56"/>
<polygon fill="#63b8ff" stroke="#63b8ff" points="1575.31,-197.39 1574.24,-186.85 1568.51,-195.76 1575.31,-197.39"/>
</a>
</g>
</g>
<!-- Node15 -->
<g id="Node000015" class="node">
<title>Node15</title>
<g id="a_Node000015"><a xlink:title=" ">
<polygon fill="#e0e0e0" stroke="#999999" points="1548.88,-240.25 1500.62,-240.25 1500.62,-221 1548.88,-221 1548.88,-240.25"/>
<text text-anchor="middle" x="1524.75" y="-226.75" font-family="Helvetica,sans-Serif" font-size="10.00">QTimer</text>
</a>
</g>
</g>
<!-- Node12&#45;&gt;Node15 -->
<g id="edge14_Node000012_Node000015" class="edge">
<title>Node12&#45;&gt;Node15</title>
<g id="a_edge14_Node000012_Node000015"><a xlink:title=" ">
<path fill="none" stroke="#63b8ff" d="M1546.46,-276.08C1543.13,-269.26 1538.39,-259.56 1534.19,-250.95"/>
<polygon fill="#63b8ff" stroke="#63b8ff" points="1537.33,-249.42 1529.8,-241.97 1531.04,-252.49 1537.33,-249.42"/>
</a>
</g>
</g>
<!-- Node16 -->
<g id="Node000016" class="node">
<title>Node16</title>
<g id="a_Node000016"><a xlink:title=" ">
<polygon fill="#e0e0e0" stroke="#999999" points="1710.5,-185 1621,-185 1621,-165.75 1710.5,-165.75 1710.5,-185"/>
<text text-anchor="middle" x="1665.75" y="-171.5" font-family="Helvetica,sans-Serif" font-size="10.00">QJsonDocument</text>
</a>
</g>
</g>
<!-- Node12&#45;&gt;Node16 -->
<g id="edge15_Node000012_Node000016" class="edge">
<title>Node12&#45;&gt;Node16</title>
<g id="a_edge15_Node000012_Node000016"><a xlink:title=" ">
<path fill="none" stroke="#63b8ff" d="M1560.16,-276C1579.37,-257.88 1623.34,-216.38 1648.06,-193.07"/>
<polygon fill="#63b8ff" stroke="#63b8ff" points="1650.24,-195.82 1655.11,-186.42 1645.43,-190.73 1650.24,-195.82"/>
</a>
</g>
</g>
<!-- Node17 -->
<g id="Node000017" class="node">
<title>Node17</title>
<g id="a_Node000017"><a xlink:title=" ">
<polygon fill="#e0e0e0" stroke="#999999" points="1885.62,-129.75 1817.88,-129.75 1817.88,-110.5 1885.62,-110.5 1885.62,-129.75"/>
<text text-anchor="middle" x="1851.75" y="-116.25" font-family="Helvetica,sans-Serif" font-size="10.00">QJsonArray</text>
</a>
</g>
</g>
<!-- Node12&#45;&gt;Node17 -->
<g id="edge16_Node000012_Node000017" class="edge">
<title>Node12&#45;&gt;Node17</title>
<g id="a_edge16_Node000012_Node000017"><a xlink:title=" ">
<path fill="none" stroke="#63b8ff" d="M1630.74,-278.57C1694.82,-272.14 1778.38,-260.22 1805.75,-240.25 1837.44,-217.12 1847.3,-169.04 1850.37,-141.56"/>
<polygon fill="#63b8ff" stroke="#63b8ff" points="1853.84,-142.01 1851.24,-131.74 1846.87,-141.39 1853.84,-142.01"/>
</a>
</g>
</g>
<!-- Node18 -->
<g id="Node000018" class="node">
<title>Node18</title>
<g id="a_Node000018"><a xlink:title=" ">
<polygon fill="#e0e0e0" stroke="#999999" points="1559.25,-129.75 1486.25,-129.75 1486.25,-110.5 1559.25,-110.5 1559.25,-129.75"/>
<text text-anchor="middle" x="1522.75" y="-116.25" font-family="Helvetica,sans-Serif" font-size="10.00">QJsonObject</text>
</a>
</g>
</g>
<!-- Node12&#45;&gt;Node18 -->
<g id="edge17_Node000012_Node000018" class="edge">
<title>Node12&#45;&gt;Node18</title>
<g id="a_edge17_Node000012_Node000018"><a xlink:title=" ">
<path fill="none" stroke="#63b8ff" d="M1502.24,-275.85C1455.98,-264.14 1390.26,-238.5 1368.75,-185 1350.58,-139.81 1422.83,-126.43 1474.49,-122.57"/>
<polygon fill="#63b8ff" stroke="#63b8ff" points="1474.54,-126.07 1484.3,-121.94 1474.1,-119.08 1474.54,-126.07"/>
</a>
</g>
</g>
<!-- Node19 -->
<g id="Node000019" class="node">
<title>Node19</title>
<g id="a_Node000019"><a xlink:title=" ">
<polygon fill="#e0e0e0" stroke="#999999" points="1732.75,-240.25 1680.75,-240.25 1680.75,-221 1732.75,-221 1732.75,-240.25"/>
<text text-anchor="middle" x="1706.75" y="-226.75" font-family="Helvetica,sans-Serif" font-size="10.00">QDebug</text>
</a>
</g>
</g>
<!-- Node12&#45;&gt;Node19 -->
<g id="edge18_Node000012_Node000019" class="edge">
<title>Node12&#45;&gt;Node19</title>
<g id="a_edge18_Node000012_Node000019"><a xlink:title=" ">
<path fill="none" stroke="#63b8ff" d="M1577.21,-275.84C1602.61,-267.17 1641.22,-254 1669.67,-244.28"/>
<polygon fill="#63b8ff" stroke="#63b8ff" points="1670.65,-247.65 1678.99,-241.1 1668.39,-241.02 1670.65,-247.65"/>
</a>
</g>
</g>
<!-- Node20 -->
<g id="Node000020" class="node">
<title>Node20</title>
<g id="a_Node000020"><a xlink:title=" ">
<polygon fill="#e0e0e0" stroke="#999999" points="1797.12,-240.25 1750.38,-240.25 1750.38,-221 1797.12,-221 1797.12,-240.25"/>
<text text-anchor="middle" x="1773.75" y="-226.75" font-family="Helvetica,sans-Serif" font-size="10.00">QHash</text>
</a>
</g>
</g>
<!-- Node12&#45;&gt;Node20 -->
<g id="edge19_Node000012_Node000020" class="edge">
<title>Node12&#45;&gt;Node20</title>
<g id="a_edge19_Node000012_Node000020"><a xlink:title=" ">
<path fill="none" stroke="#63b8ff" d="M1591.46,-275.78C1627.85,-267.56 1682.89,-254.9 1739.13,-240.85"/>
<polygon fill="#63b8ff" stroke="#63b8ff" points="1739.69,-244.32 1748.54,-238.49 1737.99,-237.53 1739.69,-244.32"/>
</a>
</g>
</g>
<!-- Node21 -->
<g id="Node000021" class="node">
<title>Node21</title>
<g id="a_Node000021"><a xlink:href="../../d5/d2a/_testimonial_8h.html" target="_top" xlink:title=" ">
<polygon fill="white" stroke="#666666" points="1802.62,-185 1728.88,-185 1728.88,-165.75 1802.62,-165.75 1802.62,-185"/>
<text text-anchor="middle" x="1765.75" y="-171.5" font-family="Helvetica,sans-Serif" font-size="10.00">Testimonial.h</text>
</a>
</g>
</g>
<!-- Node12&#45;&gt;Node21 -->
<g id="edge20_Node000012_Node000021" class="edge">
<title>Node12&#45;&gt;Node21</title>
<g id="a_edge20_Node000012_Node000021"><a xlink:title=" ">
<path fill="none" stroke="#63b8ff" d="M1567.47,-275.76C1590.71,-263.16 1634.16,-239.83 1671.75,-221 1693.08,-210.31 1717.42,-198.77 1735.99,-190.11"/>
<polygon fill="#63b8ff" stroke="#63b8ff" points="1737.23,-193.39 1744.82,-186 1734.27,-187.05 1737.23,-193.39"/>
</a>
</g>
</g>
<!-- Node25 -->
<g id="Node000025" class="node">
<title>Node25</title>
<g id="a_Node000025"><a xlink:href="../../d3/dc3/_api_client_8h.html" target="_top" xlink:title="Implements the ApiClient class that makes API requests to the Crow Webservice.">
<polygon fill="white" stroke="#666666" points="809.75,-240.25 745.75,-240.25 745.75,-221 809.75,-221 809.75,-240.25"/>
<text text-anchor="middle" x="777.75" y="-226.75" font-family="Helvetica,sans-Serif" font-size="10.00">ApiClient.h</text>
</a>
</g>
</g>
<!-- Node12&#45;&gt;Node25 -->
<g id="edge26_Node000012_Node000025" class="edge">
<title>Node12&#45;&gt;Node25</title>
<g id="a_edge26_Node000012_Node000025"><a xlink:title=" ">
<path fill="none" stroke="#63b8ff" d="M1470.94,-279.38C1309.13,-268.23 947.18,-243.3 821.63,-234.65"/>
<polygon fill="#63b8ff" stroke="#63b8ff" points="821.96,-231.16 811.75,-233.97 821.48,-238.15 821.96,-231.16"/>
</a>
</g>
</g>
<!-- Node31 -->
<g id="Node000031" class="node">
<title>Node31</title>
<g id="a_Node000031"><a xlink:href="../../de/d40/_parser_8h.html" target="_top" xlink:title=" ">
<polygon fill="white" stroke="#666666" points="1482.75,-240.25 1430.75,-240.25 1430.75,-221 1482.75,-221 1482.75,-240.25"/>
<text text-anchor="middle" x="1456.75" y="-226.75" font-family="Helvetica,sans-Serif" font-size="10.00">Parser.h</text>
</a>
</g>
</g>
<!-- Node12&#45;&gt;Node31 -->
<g id="edge34_Node000012_Node000031" class="edge">
<title>Node12&#45;&gt;Node31</title>
<g id="a_edge34_Node000012_Node000031"><a xlink:title=" ">
<path fill="none" stroke="#63b8ff" d="M1534.8,-275.84C1520.49,-267.73 1499.22,-255.68 1482.5,-246.21"/>
<polygon fill="#63b8ff" stroke="#63b8ff" points="1484.52,-243.33 1474.09,-241.45 1481.07,-249.42 1484.52,-243.33"/>
</a>
</g>
</g>
<!-- Node21&#45;&gt;Node17 -->
<g id="edge24_Node000021_Node000017" class="edge">
<title>Node21&#45;&gt;Node17</title>
<g id="a_edge24_Node000021_Node000017"><a xlink:title=" ">
<path fill="none" stroke="#63b8ff" d="M1780.34,-165.34C1793.19,-157.39 1812.16,-145.64 1827.32,-136.25"/>
<polygon fill="#63b8ff" stroke="#63b8ff" points="1829.14,-139.24 1835.8,-131 1825.46,-133.29 1829.14,-139.24"/>
</a>
</g>
</g>
<!-- Node21&#45;&gt;Node18 -->
<g id="edge23_Node000021_Node000018" class="edge">
<title>Node21&#45;&gt;Node18</title>
<g id="a_edge23_Node000021_Node000018"><a xlink:title=" ">
<path fill="none" stroke="#63b8ff" d="M1728.58,-166.23C1686.2,-156.94 1616.83,-141.74 1570.48,-131.59"/>
<polygon fill="#63b8ff" stroke="#63b8ff" points="1571.51,-128.23 1561,-129.51 1570.02,-135.07 1571.51,-128.23"/>
</a>
</g>
</g>
<!-- Node22 -->
<g id="Node000022" class="node">
<title>Node22</title>
<g id="a_Node000022"><a xlink:title=" ">
<polygon fill="#e0e0e0" stroke="#999999" points="1320.25,-129.75 1271.25,-129.75 1271.25,-110.5 1320.25,-110.5 1320.25,-129.75"/>
<text text-anchor="middle" x="1295.75" y="-116.25" font-family="Helvetica,sans-Serif" font-size="10.00">QString</text>
</a>
</g>
</g>
<!-- Node21&#45;&gt;Node22 -->
<g id="edge21_Node000021_Node000022" class="edge">
<title>Node21&#45;&gt;Node22</title>
<g id="a_edge21_Node000021_Node000022"><a xlink:title=" ">
<path fill="none" stroke="#63b8ff" d="M1728.39,-167.07C1725.47,-166.59 1722.57,-166.14 1719.75,-165.75 1550.54,-142.15 1502.63,-159.17 1331.69,-130"/>
<polygon fill="#63b8ff" stroke="#63b8ff" points="1332.46,-126.59 1322.01,-128.32 1331.26,-133.48 1332.46,-126.59"/>
</a>
</g>
</g>
<!-- Node23 -->
<g id="Node000023" class="node">
<title>Node23</title>
<g id="a_Node000023"><a xlink:title=" ">
<polygon fill="#e0e0e0" stroke="#999999" points="1713.88,-129.75 1647.62,-129.75 1647.62,-110.5 1713.88,-110.5 1713.88,-129.75"/>
<text text-anchor="middle" x="1680.75" y="-116.25" font-family="Helvetica,sans-Serif" font-size="10.00">QDateTime</text>
</a>
</g>
</g>
<!-- Node21&#45;&gt;Node23 -->
<g id="edge22_Node000021_Node000023" class="edge">
<title>Node21&#45;&gt;Node23</title>
<g id="a_edge22_Node000021_Node000023"><a xlink:title=" ">
<path fill="none" stroke="#63b8ff" d="M1751.33,-165.34C1738.63,-157.39 1719.88,-145.64 1704.89,-136.25"/>
<polygon fill="#63b8ff" stroke="#63b8ff" points="1706.85,-133.35 1696.52,-131.01 1703.14,-139.28 1706.85,-133.35"/>
</a>
</g>
</g>
<!-- Node24 -->
<g id="Node000024" class="node">
<title>Node24</title>
<g id="a_Node000024"><a xlink:title=" ">
<polygon fill="#e0e0e0" stroke="#999999" points="1800,-129.75 1731.5,-129.75 1731.5,-110.5 1800,-110.5 1800,-129.75"/>
<text text-anchor="middle" x="1765.75" y="-116.25" font-family="Helvetica,sans-Serif" font-size="10.00">QJsonValue</text>
</a>
</g>
</g>
<!-- Node21&#45;&gt;Node24 -->
<g id="edge25_Node000021_Node000024" class="edge">
<title>Node21&#45;&gt;Node24</title>
<g id="a_edge25_Node000021_Node000024"><a xlink:title=" ">
<path fill="none" stroke="#63b8ff" d="M1765.75,-165.58C1765.75,-159.07 1765.75,-149.92 1765.75,-141.62"/>
<polygon fill="#63b8ff" stroke="#63b8ff" points="1769.25,-141.62 1765.75,-131.62 1762.25,-141.62 1769.25,-141.62"/>
</a>
</g>
</g>
<!-- Node25&#45;&gt;Node13 -->
<g id="edge27_Node000025_Node000013" class="edge">
<title>Node25&#45;&gt;Node13</title>
<g id="a_edge27_Node000025_Node000013"><a xlink:title=" ">
<path fill="none" stroke="#63b8ff" d="M796.24,-220.59C813.15,-212.33 838.44,-199.98 857.99,-190.43"/>
<polygon fill="#63b8ff" stroke="#63b8ff" points="859.36,-193.65 866.81,-186.12 856.29,-187.36 859.36,-193.65"/>
</a>
</g>
</g>
<!-- Node25&#45;&gt;Node22 -->
<g id="edge33_Node000025_Node000022" class="edge">
<title>Node25&#45;&gt;Node22</title>
<g id="a_edge33_Node000025_Node000022"><a xlink:title=" ">
<path fill="none" stroke="#63b8ff" d="M810.16,-226.77C867.47,-221.33 990.24,-207.94 1091.75,-185 1152.14,-171.35 1220.45,-148.37 1260.71,-134.01"/>
<polygon fill="#63b8ff" stroke="#63b8ff" points="1261.64,-137.39 1269.87,-130.72 1259.28,-130.81 1261.64,-137.39"/>
</a>
</g>
</g>
<!-- Node26 -->
<g id="Node000026" class="node">
<title>Node26</title>
<g id="a_Node000026"><a xlink:title=" ">
<polygon fill="#e0e0e0" stroke="#999999" points="843.12,-185 712.38,-185 712.38,-165.75 843.12,-165.75 843.12,-185"/>
<text text-anchor="middle" x="777.75" y="-171.5" font-family="Helvetica,sans-Serif" font-size="10.00">QNetworkAccessManager</text>
</a>
</g>
</g>
<!-- Node25&#45;&gt;Node26 -->
<g id="edge28_Node000025_Node000026" class="edge">
<title>Node25&#45;&gt;Node26</title>
<g id="a_edge28_Node000025_Node000026"><a xlink:title=" ">
<path fill="none" stroke="#63b8ff" d="M777.75,-220.83C777.75,-214.32 777.75,-205.17 777.75,-196.87"/>
<polygon fill="#63b8ff" stroke="#63b8ff" points="781.25,-196.87 777.75,-186.87 774.25,-196.87 781.25,-196.87"/>
</a>
</g>
</g>
<!-- Node27 -->
<g id="Node000027" class="node">
<title>Node27</title>
<g id="a_Node000027"><a xlink:title=" ">
<polygon fill="#e0e0e0" stroke="#999999" points="439.62,-185 353.88,-185 353.88,-165.75 439.62,-165.75 439.62,-185"/>
<text text-anchor="middle" x="396.75" y="-171.5" font-family="Helvetica,sans-Serif" font-size="10.00">QNetworkReply</text>
</a>
</g>
</g>
<!-- Node25&#45;&gt;Node27 -->
<g id="edge29_Node000025_Node000027" class="edge">
<title>Node25&#45;&gt;Node27</title>
<g id="a_edge29_Node000025_Node000027"><a xlink:title=" ">
<path fill="none" stroke="#63b8ff" d="M745.57,-222.59C742.59,-222.02 739.62,-221.48 736.75,-221 612.7,-200.26 577.78,-203.58 451.17,-185.44"/>
<polygon fill="#63b8ff" stroke="#63b8ff" points="451.75,-181.99 441.36,-184.02 450.75,-188.92 451.75,-181.99"/>
</a>
</g>
</g>
<!-- Node28 -->
<g id="Node000028" class="node">
<title>Node28</title>
<g id="a_Node000028"><a xlink:title=" ">
<polygon fill="#e0e0e0" stroke="#999999" points="554.25,-185 457.25,-185 457.25,-165.75 554.25,-165.75 554.25,-185"/>
<text text-anchor="middle" x="505.75" y="-171.5" font-family="Helvetica,sans-Serif" font-size="10.00">QNetworkRequest</text>
</a>
</g>
</g>
<!-- Node25&#45;&gt;Node28 -->
<g id="edge30_Node000025_Node000028" class="edge">
<title>Node25&#45;&gt;Node28</title>
<g id="a_edge30_Node000025_Node000028"><a xlink:title=" ">
<path fill="none" stroke="#63b8ff" d="M745.53,-222.79C742.56,-222.18 739.6,-221.58 736.75,-221 678.49,-209.25 611.84,-196.44 565.15,-187.57"/>
<polygon fill="#63b8ff" stroke="#63b8ff" points="565.98,-184.17 555.51,-185.74 564.68,-191.04 565.98,-184.17"/>
</a>
</g>
</g>
<!-- Node29 -->
<g id="Node000029" class="node">
<title>Node29</title>
<g id="a_Node000029"><a xlink:title=" ">
<polygon fill="#e0e0e0" stroke="#999999" points="608.88,-185 572.62,-185 572.62,-165.75 608.88,-165.75 608.88,-185"/>
<text text-anchor="middle" x="590.75" y="-171.5" font-family="Helvetica,sans-Serif" font-size="10.00">QUrl</text>
</a>
</g>
</g>
<!-- Node25&#45;&gt;Node29 -->
<g id="edge31_Node000025_Node000029" class="edge">
<title>Node25&#45;&gt;Node29</title>
<g id="a_edge31_Node000025_Node000029"><a xlink:title=" ">
<path fill="none" stroke="#63b8ff" d="M745.4,-220.8C715.43,-212.57 669.33,-199.77 620.01,-185.31"/>
<polygon fill="#63b8ff" stroke="#63b8ff" points="621.14,-181.99 610.56,-182.53 619.16,-188.71 621.14,-181.99"/>
</a>
</g>
</g>
<!-- Node30 -->
<g id="Node000030" class="node">
<title>Node30</title>
<g id="a_Node000030"><a xlink:title=" ">
<polygon fill="#e0e0e0" stroke="#999999" points="694.25,-185 627.25,-185 627.25,-165.75 694.25,-165.75 694.25,-185"/>
<text text-anchor="middle" x="660.75" y="-171.5" font-family="Helvetica,sans-Serif" font-size="10.00">QByteArray</text>
</a>
</g>
</g>
<!-- Node25&#45;&gt;Node30 -->
<g id="edge32_Node000025_Node000030" class="edge">
<title>Node25&#45;&gt;Node30</title>
<g id="a_edge32_Node000025_Node000030"><a xlink:title=" ">
<path fill="none" stroke="#63b8ff" d="M757.9,-220.59C739.58,-212.25 712.1,-199.75 691.04,-190.16"/>
<polygon fill="#63b8ff" stroke="#63b8ff" points="692.62,-187.04 682.07,-186.08 689.72,-193.41 692.62,-187.04"/>
</a>
</g>
</g>
<!-- Node31&#45;&gt;Node14 -->
<g id="edge37_Node000031_Node000014" class="edge">
<title>Node31&#45;&gt;Node14</title>
<g id="a_edge37_Node000031_Node000014"><a xlink:title=" ">
<path fill="none" stroke="#63b8ff" d="M1477.11,-220.59C1495.98,-212.22 1524.34,-199.63 1545.98,-190.03"/>
<polygon fill="#63b8ff" stroke="#63b8ff" points="1547.19,-193.32 1554.91,-186.07 1544.35,-186.92 1547.19,-193.32"/>
</a>
</g>
</g>
<!-- Node31&#45;&gt;Node16 -->
<g id="edge38_Node000031_Node000016" class="edge">
<title>Node31&#45;&gt;Node16</title>
<g id="a_edge38_Node000031_Node000016"><a xlink:title=" ">
<path fill="none" stroke="#63b8ff" d="M1483.22,-222.88C1517.33,-214.19 1577.21,-198.93 1619.05,-188.27"/>
<polygon fill="#63b8ff" stroke="#63b8ff" points="1619.78,-191.7 1628.6,-185.84 1618.05,-184.92 1619.78,-191.7"/>
</a>
</g>
</g>
<!-- Node31&#45;&gt;Node17 -->
<g id="edge39_Node000031_Node000017" class="edge">
<title>Node31&#45;&gt;Node17</title>
<g id="a_edge39_Node000031_Node000017"><a xlink:title=" ">
<path fill="none" stroke="#63b8ff" d="M1483.05,-222.76C1485.97,-222.11 1488.92,-221.51 1491.75,-221 1562.19,-208.41 1751.18,-223.11 1811.75,-185 1828,-174.77 1838.77,-155.28 1844.99,-140.5"/>
<polygon fill="#63b8ff" stroke="#63b8ff" points="1848.19,-141.94 1848.49,-131.35 1841.65,-139.44 1848.19,-141.94"/>
</a>
</g>
</g>
<!-- Node31&#45;&gt;Node18 -->
<g id="edge40_Node000031_Node000018" class="edge">
<title>Node31&#45;&gt;Node18</title>
<g id="a_edge40_Node000031_Node000018"><a xlink:title=" ">
<path fill="none" stroke="#63b8ff" d="M1469.29,-220.73C1479.91,-212.58 1494.81,-199.58 1503.75,-185 1512,-171.55 1516.85,-154.3 1519.59,-141.11"/>
<polygon fill="#63b8ff" stroke="#63b8ff" points="1523,-141.93 1521.33,-131.47 1516.11,-140.69 1523,-141.93"/>
</a>
</g>
</g>
<!-- Node31&#45;&gt;Node21 -->
<g id="edge69_Node000031_Node000021" class="edge">
<title>Node31&#45;&gt;Node21</title>
<g id="a_edge69_Node000031_Node000021"><a xlink:title=" ">
<path fill="none" stroke="#63b8ff" d="M1483.07,-222.88C1485.99,-222.21 1488.93,-221.57 1491.75,-221 1588.78,-201.42 1616.71,-202.36 1717.32,-185.36"/>
<polygon fill="#63b8ff" stroke="#63b8ff" points="1717.85,-188.82 1727.12,-183.69 1716.67,-181.92 1717.85,-188.82"/>
</a>
</g>
</g>
<!-- Node32 -->
<g id="Node000032" class="node">
<title>Node32</title>
<g id="a_Node000032"><a xlink:title=" ">
<polygon fill="#e0e0e0" stroke="#999999" points="1431.5,-185 1378,-185 1378,-165.75 1431.5,-165.75 1431.5,-185"/>
<text text-anchor="middle" x="1404.75" y="-171.5" font-family="Helvetica,sans-Serif" font-size="10.00">iostream</text>
</a>
</g>
</g>
<!-- Node31&#45;&gt;Node32 -->
<g id="edge35_Node000031_Node000032" class="edge">
<title>Node31&#45;&gt;Node32</title>
<g id="a_edge35_Node000031_Node000032"><a xlink:title=" ">
<path fill="none" stroke="#63b8ff" d="M1448.16,-220.83C1440.91,-213.4 1430.3,-202.54 1421.38,-193.41"/>
<polygon fill="#63b8ff" stroke="#63b8ff" points="1424.07,-191.15 1414.58,-186.44 1419.06,-196.04 1424.07,-191.15"/>
</a>
</g>
</g>
<!-- Node33 -->
<g id="Node000033" class="node">
<title>Node33</title>
<g id="a_Node000033"><a xlink:title=" ">
<polygon fill="#e0e0e0" stroke="#999999" points="1494.38,-185 1449.12,-185 1449.12,-165.75 1494.38,-165.75 1494.38,-185"/>
<text text-anchor="middle" x="1471.75" y="-171.5" font-family="Helvetica,sans-Serif" font-size="10.00">cctype</text>
</a>
</g>
</g>
<!-- Node31&#45;&gt;Node33 -->
<g id="edge36_Node000031_Node000033" class="edge">
<title>Node31&#45;&gt;Node33</title>
<g id="a_edge36_Node000031_Node000033"><a xlink:title=" ">
<path fill="none" stroke="#63b8ff" d="M1459.23,-220.83C1461.1,-214.17 1463.76,-204.74 1466.14,-196.28"/>
<polygon fill="#63b8ff" stroke="#63b8ff" points="1469.47,-197.39 1468.81,-186.82 1462.73,-195.49 1469.47,-197.39"/>
</a>
</g>
</g>
<!-- Node34 -->
<g id="Node000034" class="node">
<title>Node34</title>
<g id="a_Node000034"><a xlink:title=" ">
<polygon fill="#e0e0e0" stroke="#999999" points="1257.75,-19.25 1217.75,-19.25 1217.75,0 1257.75,0 1257.75,-19.25"/>
<text text-anchor="middle" x="1237.75" y="-5.75" font-family="Helvetica,sans-Serif" font-size="10.00">string</text>
</a>
</g>
</g>
<!-- Node31&#45;&gt;Node34 -->
<g id="edge41_Node000031_Node000034" class="edge">
<title>Node31&#45;&gt;Node34</title>
<g id="a_edge41_Node000031_Node000034"><a xlink:title=" ">
<path fill="none" stroke="#63b8ff" d="M1430.48,-224.15C1409.73,-218.3 1382.11,-206.75 1368.75,-185 1350.92,-155.97 1402.79,-140.55 1386.75,-110.5 1361.84,-63.81 1304.35,-35.1 1268.51,-21.07"/>
<polygon fill="#63b8ff" stroke="#63b8ff" points="1270.15,-17.95 1259.56,-17.72 1267.69,-24.5 1270.15,-17.95"/>
</a>
</g>
</g>
<!-- Node35 -->
<g id="Node000035" class="node">
<title>Node35</title>
<g id="a_Node000035"><a xlink:href="../../d6/d68/vector_8h.html" target="_top" xlink:title=" ">
<polygon fill="white" stroke="#666666" points="763.75,-19.25 669.75,-19.25 669.75,0 763.75,0 763.75,-19.25"/>
<text text-anchor="middle" x="716.75" y="-5.75" font-family="Helvetica,sans-Serif" font-size="10.00">../objects/vector.h</text>
</a>
</g>
</g>
<!-- Node31&#45;&gt;Node35 -->
<g id="edge42_Node000031_Node000035" class="edge">
<title>Node31&#45;&gt;Node35</title>
<g id="a_edge42_Node000031_Node000035"><a xlink:title=" ">
<path fill="none" stroke="#63b8ff" d="M1430.42,-228.57C1341,-224.79 1049.58,-210.76 959.75,-185 941.55,-179.78 939.76,-171.59 921.75,-165.75 873.59,-150.12 729.61,-168.28 696.75,-129.75 672.69,-101.53 691.41,-55.46 705.29,-29.66"/>
<polygon fill="#63b8ff" stroke="#63b8ff" points="708.33,-31.4 710.23,-20.98 702.24,-27.94 708.33,-31.4"/>
</a>
</g>
</g>
<!-- Node36 -->
<g id="Node000036" class="node">
<title>Node36</title>
<g id="a_Node000036"><a xlink:href="../../dc/d12/all__shapes_8h.html" target="_top" xlink:title=" ">
<polygon fill="white" stroke="#666666" points="1082.88,-185 968.62,-185 968.62,-165.75 1082.88,-165.75 1082.88,-185"/>
<text text-anchor="middle" x="1025.75" y="-171.5" font-family="Helvetica,sans-Serif" font-size="10.00">../objects/all_shapes.h</text>
</a>
</g>
</g>
<!-- Node31&#45;&gt;Node36 -->
<g id="edge43_Node000031_Node000036" class="edge">
<title>Node31&#45;&gt;Node36</title>
<g id="a_edge43_Node000031_Node000036"><a xlink:title=" ">
<path fill="none" stroke="#63b8ff" d="M1430.44,-226.37C1364.69,-218.25 1191.54,-196.86 1094.37,-184.85"/>
<polygon fill="#63b8ff" stroke="#63b8ff" points="1095.06,-181.41 1084.7,-183.66 1094.2,-188.36 1095.06,-181.41"/>
</a>
</g>
</g>
<!-- Node56 -->
<g id="Node000056" class="node">
<title>Node56</title>
<g id="a_Node000056"><a xlink:href="../../d9/d9f/_user_account_8h.html" target="_top" xlink:title=" ">
<polygon fill="white" stroke="#666666" points="1283.38,-185 1202.12,-185 1202.12,-165.75 1283.38,-165.75 1283.38,-185"/>
<text text-anchor="middle" x="1242.75" y="-171.5" font-family="Helvetica,sans-Serif" font-size="10.00">UserAccount.h</text>
</a>
</g>
</g>
<!-- Node31&#45;&gt;Node56 -->
<g id="edge66_Node000031_Node000056" class="edge">
<title>Node31&#45;&gt;Node56</title>
<g id="a_edge66_Node000031_Node000056"><a xlink:title=" ">
<path fill="none" stroke="#63b8ff" d="M1430.51,-223.1C1395.67,-214.43 1333.54,-198.97 1290.33,-188.21"/>
<polygon fill="#63b8ff" stroke="#63b8ff" points="1291.25,-184.84 1280.7,-185.82 1289.56,-191.63 1291.25,-184.84"/>
</a>
</g>
</g>
<!-- Node37 -->
<g id="Node000037" class="node">
<title>Node37</title>
<g id="a_Node000037"><a xlink:href="../../d3/db6/circle_8h.html" target="_top" xlink:title=" ">
<polygon fill="white" stroke="#666666" points="1253.5,-129.75 1206,-129.75 1206,-110.5 1253.5,-110.5 1253.5,-129.75"/>
<text text-anchor="middle" x="1229.75" y="-116.25" font-family="Helvetica,sans-Serif" font-size="10.00">circle.h</text>
</a>
</g>
</g>
<!-- Node36&#45;&gt;Node37 -->
<g id="edge44_Node000036_Node000037" class="edge">
<title>Node36&#45;&gt;Node37</title>
<g id="a_edge44_Node000036_Node000037"><a xlink:title=" ">
<path fill="none" stroke="#63b8ff" d="M1060.47,-165.32C1092.79,-156.89 1142.6,-143.89 1194.79,-130.26"/>
<polygon fill="#63b8ff" stroke="#63b8ff" points="1195.34,-133.73 1204.14,-127.82 1193.58,-126.96 1195.34,-133.73"/>
</a>
</g>
</g>
<!-- Node38 -->
<g id="Node000038" class="node">
<title>Node38</title>
<g id="a_Node000038"><a xlink:href="../../da/d18/shape_8h.html" target="_top" xlink:title=" ">
<polygon fill="#fff0f0" stroke="red" points="972,-74.5 921.5,-74.5 921.5,-55.25 972,-55.25 972,-74.5"/>
<text text-anchor="middle" x="946.75" y="-61" font-family="Helvetica,sans-Serif" font-size="10.00">shape.h</text>
</a>
</g>
</g>
<!-- Node36&#45;&gt;Node38 -->
<g id="edge61_Node000036_Node000038" class="edge">
<title>Node36&#45;&gt;Node38</title>
<g id="a_edge61_Node000036_Node000038"><a xlink:title=" ">
<path fill="none" stroke="#63b8ff" d="M968.2,-167.34C877,-156.06 709.05,-134.69 704.75,-129.75 699.13,-123.3 699.28,-117.08 704.75,-110.5 730.44,-79.64 848.87,-70.04 910,-67.12"/>
<polygon fill="#63b8ff" stroke="#63b8ff" points="910.07,-70.62 919.91,-66.68 909.77,-63.62 910.07,-70.62"/>
</a>
</g>
</g>
<!-- Node49 -->
<g id="Node000049" class="node">
<title>Node49</title>
<g id="a_Node000049"><a xlink:href="../../da/dbf/ellipse_8h.html" target="_top" xlink:title=" ">
<polygon fill="white" stroke="#666666" points="765.75,-129.75 713.75,-129.75 713.75,-110.5 765.75,-110.5 765.75,-129.75"/>
<text text-anchor="middle" x="739.75" y="-116.25" font-family="Helvetica,sans-Serif" font-size="10.00">ellipse.h</text>
</a>
</g>
</g>
<!-- Node36&#45;&gt;Node49 -->
<g id="edge51_Node000036_Node000049" class="edge">
<title>Node36&#45;&gt;Node49</title>
<g id="a_edge51_Node000036_Node000049"><a xlink:title=" ">
<path fill="none" stroke="#63b8ff" d="M968.22,-165.25C919.7,-157.31 848.18,-145.01 777.03,-130.12"/>
<polygon fill="#63b8ff" stroke="#63b8ff" points="778.07,-126.77 767.56,-128.12 776.62,-133.61 778.07,-126.77"/>
</a>
</g>
</g>
<!-- Node50 -->
<g id="Node000050" class="node">
<title>Node50</title>
<g id="a_Node000050"><a xlink:href="../../d7/d5d/line_8h.html" target="_top" xlink:title=" ">
<polygon fill="white" stroke="#666666" points="823.38,-129.75 784.12,-129.75 784.12,-110.5 823.38,-110.5 823.38,-129.75"/>
<text text-anchor="middle" x="803.75" y="-116.25" font-family="Helvetica,sans-Serif" font-size="10.00">line.h</text>
</a>
</g>
</g>
<!-- Node36&#45;&gt;Node50 -->
<g id="edge53_Node000036_Node000050" class="edge">
<title>Node36&#45;&gt;Node50</title>
<g id="a_edge53_Node000036_Node000050"><a xlink:title=" ">
<path fill="none" stroke="#63b8ff" d="M983.02,-165.29C946.16,-157.28 891.27,-144.93 834.64,-130.12"/>
<polygon fill="#63b8ff" stroke="#63b8ff" points="835.7,-126.78 825.14,-127.61 833.91,-133.55 835.7,-126.78"/>
</a>
</g>
</g>
<!-- Node51 -->
<g id="Node000051" class="node">
<title>Node51</title>
<g id="a_Node000051"><a xlink:href="../../dc/db6/polygon_8h.html" target="_top" xlink:title=" ">
<polygon fill="white" stroke="#666666" points="899.75,-129.75 841.75,-129.75 841.75,-110.5 899.75,-110.5 899.75,-129.75"/>
<text text-anchor="middle" x="870.75" y="-116.25" font-family="Helvetica,sans-Serif" font-size="10.00">polygon.h</text>
</a>
</g>
</g>
<!-- Node36&#45;&gt;Node51 -->
<g id="edge55_Node000036_Node000051" class="edge">
<title>Node36&#45;&gt;Node51</title>
<g id="a_edge55_Node000036_Node000051"><a xlink:title=" ">
<path fill="none" stroke="#63b8ff" d="M999.46,-165.34C974.29,-156.7 936.1,-143.57 907.84,-133.87"/>
<polygon fill="#63b8ff" stroke="#63b8ff" points="909.2,-130.63 898.6,-130.69 906.92,-137.25 909.2,-130.63"/>
</a>
</g>
</g>
<!-- Node52 -->
<g id="Node000052" class="node">
<title>Node52</title>
<g id="a_Node000052"><a xlink:href="../../d0/ddf/polyline_8h.html" target="_top" xlink:title=" ">
<polygon fill="white" stroke="#666666" points="975.38,-129.75 918.12,-129.75 918.12,-110.5 975.38,-110.5 975.38,-129.75"/>
<text text-anchor="middle" x="946.75" y="-116.25" font-family="Helvetica,sans-Serif" font-size="10.00">polyline.h</text>
</a>
</g>
</g>
<!-- Node36&#45;&gt;Node52 -->
<g id="edge57_Node000036_Node000052" class="edge">
<title>Node36&#45;&gt;Node52</title>
<g id="a_edge57_Node000036_Node000052"><a xlink:title=" ">
<path fill="none" stroke="#63b8ff" d="M1012.35,-165.34C1000.66,-157.46 983.45,-145.86 969.59,-136.52"/>
<polygon fill="#63b8ff" stroke="#63b8ff" points="971.72,-133.74 961.47,-131.05 967.81,-139.54 971.72,-133.74"/>
</a>
</g>
</g>
<!-- Node53 -->
<g id="Node000053" class="node">
<title>Node53</title>
<g id="a_Node000053"><a xlink:href="../../db/dd0/rectangle_8h.html" target="_top" xlink:title=" ">
<polygon fill="white" stroke="#666666" points="1057.75,-129.75 993.75,-129.75 993.75,-110.5 1057.75,-110.5 1057.75,-129.75"/>
<text text-anchor="middle" x="1025.75" y="-116.25" font-family="Helvetica,sans-Serif" font-size="10.00">rectangle.h</text>
</a>
</g>
</g>
<!-- Node36&#45;&gt;Node53 -->
<g id="edge59_Node000036_Node000053" class="edge">
<title>Node36&#45;&gt;Node53</title>
<g id="a_edge59_Node000036_Node000053"><a xlink:title=" ">
<path fill="none" stroke="#63b8ff" d="M1025.75,-165.58C1025.75,-159.07 1025.75,-149.92 1025.75,-141.62"/>
<polygon fill="#63b8ff" stroke="#63b8ff" points="1029.25,-141.62 1025.75,-131.62 1022.25,-141.62 1029.25,-141.62"/>
</a>
</g>
</g>
<!-- Node54 -->
<g id="Node000054" class="node">
<title>Node54</title>
<g id="a_Node000054"><a xlink:href="../../d7/d3c/square_8h.html" target="_top" xlink:title=" ">
<polygon fill="white" stroke="#666666" points="1129.5,-129.75 1076,-129.75 1076,-110.5 1129.5,-110.5 1129.5,-129.75"/>
<text text-anchor="middle" x="1102.75" y="-116.25" font-family="Helvetica,sans-Serif" font-size="10.00">square.h</text>
</a>
</g>
</g>
<!-- Node36&#45;&gt;Node54 -->
<g id="edge62_Node000036_Node000054" class="edge">
<title>Node36&#45;&gt;Node54</title>
<g id="a_edge62_Node000036_Node000054"><a xlink:title=" ">
<path fill="none" stroke="#63b8ff" d="M1038.81,-165.34C1050.21,-157.46 1066.98,-145.86 1080.49,-136.52"/>
<polygon fill="#63b8ff" stroke="#63b8ff" points="1082.15,-139.63 1088.38,-131.06 1078.16,-133.87 1082.15,-139.63"/>
</a>
</g>
</g>
<!-- Node55 -->
<g id="Node000055" class="node">
<title>Node55</title>
<g id="a_Node000055"><a xlink:href="../../d9/dcc/text_8h.html" target="_top" xlink:title=" ">
<polygon fill="white" stroke="#666666" points="1188.12,-129.75 1147.38,-129.75 1147.38,-110.5 1188.12,-110.5 1188.12,-129.75"/>
<text text-anchor="middle" x="1167.75" y="-116.25" font-family="Helvetica,sans-Serif" font-size="10.00">text.h</text>
</a>
</g>
</g>
<!-- Node36&#45;&gt;Node55 -->
<g id="edge64_Node000036_Node000055" class="edge">
<title>Node36&#45;&gt;Node55</title>
<g id="a_edge64_Node000036_Node000055"><a xlink:title=" ">
<path fill="none" stroke="#63b8ff" d="M1049.84,-165.34C1073.79,-156.36 1110.65,-142.54 1136.77,-132.74"/>
<polygon fill="#63b8ff" stroke="#63b8ff" points="1137.69,-136.14 1145.82,-129.35 1135.23,-129.58 1137.69,-136.14"/>
</a>
</g>
</g>
<!-- Node37&#45;&gt;Node38 -->
<g id="edge45_Node000037_Node000038" class="edge">
<title>Node37&#45;&gt;Node38</title>
<g id="a_edge45_Node000037_Node000038"><a xlink:title=" ">
<path fill="none" stroke="#63b8ff" d="M1205.65,-112.59C1202.66,-111.85 1199.64,-111.13 1196.75,-110.5 1121.56,-93.99 1032.64,-79.24 983.7,-71.53"/>
<polygon fill="#63b8ff" stroke="#63b8ff" points="984.35,-68.09 973.93,-70.01 983.27,-75.01 984.35,-68.09"/>
</a>
</g>
</g>
<!-- Node38&#45;&gt;Node34 -->
<g id="edge46_Node000038_Node000034" class="edge">
<title>Node38&#45;&gt;Node34</title>
<g id="a_edge46_Node000038_Node000034"><a xlink:title=" ">
<path fill="none" stroke="#63b8ff" d="M972.32,-59.2C1025.65,-49.44 1148.58,-26.94 1206.49,-16.34"/>
<polygon fill="#63b8ff" stroke="#63b8ff" points="1206.8,-19.85 1216,-14.6 1205.54,-12.96 1206.8,-19.85"/>
</a>
</g>
</g>
<!-- Node38&#45;&gt;Node35 -->
<g id="edge50_Node000038_Node000035" class="edge">
<title>Node38&#45;&gt;Node35</title>
<g id="a_edge50_Node000038_Node000035"><a xlink:title=" ">
<path fill="none" stroke="#63b8ff" d="M921.26,-57.97C884.12,-49.37 814.38,-33.23 766.77,-22.21"/>
<polygon fill="#63b8ff" stroke="#63b8ff" points="767.78,-18.85 757.25,-20 766.2,-25.67 767.78,-18.85"/>
</a>
</g>
</g>
<!-- Node39 -->
<g id="Node000039" class="node">
<title>Node39</title>
<g id="a_Node000039"><a xlink:title=" ">
<polygon fill="#e0e0e0" stroke="#999999" points="1031.25,-19.25 988.25,-19.25 988.25,0 1031.25,0 1031.25,-19.25"/>
<text text-anchor="middle" x="1009.75" y="-5.75" font-family="Helvetica,sans-Serif" font-size="10.00">cmath</text>
</a>
</g>
</g>
<!-- Node38&#45;&gt;Node39 -->
<g id="edge47_Node000038_Node000039" class="edge">
<title>Node38&#45;&gt;Node39</title>
<g id="a_edge47_Node000038_Node000039"><a xlink:title=" ">
<path fill="none" stroke="#63b8ff" d="M957.44,-54.84C966.45,-47.22 979.58,-36.12 990.43,-26.95"/>
<polygon fill="#63b8ff" stroke="#63b8ff" points="992.69,-29.63 998.06,-20.5 988.17,-24.28 992.69,-29.63"/>
</a>
</g>
</g>
<!-- Node40 -->
<g id="Node000040" class="node">
<title>Node40</title>
<g id="a_Node000040"><a xlink:title=" ">
<polygon fill="#e0e0e0" stroke="#999999" points="904.88,-19.25 850.62,-19.25 850.62,0 904.88,0 904.88,-19.25"/>
<text text-anchor="middle" x="877.75" y="-5.75" font-family="Helvetica,sans-Serif" font-size="10.00">QWidget</text>
</a>
</g>
</g>
<!-- Node38&#45;&gt;Node40 -->
<g id="edge48_Node000038_Node000040" class="edge">
<title>Node38&#45;&gt;Node40</title>
<g id="a_edge48_Node000038_Node000040"><a xlink:title=" ">
<path fill="none" stroke="#63b8ff" d="M935.05,-54.84C924.97,-47.07 910.21,-35.67 898.19,-26.4"/>
<polygon fill="#63b8ff" stroke="#63b8ff" points="900.54,-23.79 890.48,-20.45 896.26,-29.33 900.54,-23.79"/>
</a>
</g>
</g>
<!-- Node41 -->
<g id="Node000041" class="node">
<title>Node41</title>
<g id="a_Node000041"><a xlink:title=" ">
<polygon fill="#e0e0e0" stroke="#999999" points="970.12,-19.25 923.38,-19.25 923.38,0 970.12,0 970.12,-19.25"/>
<text text-anchor="middle" x="946.75" y="-5.75" font-family="Helvetica,sans-Serif" font-size="10.00">QColor</text>
</a>
</g>
</g>
<!-- Node38&#45;&gt;Node41 -->
<g id="edge49_Node000038_Node000041" class="edge">
<title>Node38&#45;&gt;Node41</title>
<g id="a_edge49_Node000038_Node000041"><a xlink:title=" ">
<path fill="none" stroke="#63b8ff" d="M946.75,-55.08C946.75,-48.57 946.75,-39.42 946.75,-31.12"/>
<polygon fill="#63b8ff" stroke="#63b8ff" points="950.25,-31.12 946.75,-21.12 943.25,-31.12 950.25,-31.12"/>
</a>
</g>
</g>
<!-- Node49&#45;&gt;Node38 -->
<g id="edge52_Node000049_Node000038" class="edge">
<title>Node49&#45;&gt;Node38</title>
<g id="a_edge52_Node000049_Node000038"><a xlink:title=" ">
<path fill="none" stroke="#63b8ff" d="M765.97,-112.38C802.46,-102.99 868.74,-85.94 910.11,-75.3"/>
<polygon fill="#63b8ff" stroke="#63b8ff" points="910.79,-78.74 919.6,-72.86 909.05,-71.96 910.79,-78.74"/>
</a>
</g>
</g>
<!-- Node50&#45;&gt;Node38 -->
<g id="edge54_Node000050_Node000038" class="edge">
<title>Node50&#45;&gt;Node38</title>
<g id="a_edge54_Node000050_Node000038"><a xlink:title=" ">
<path fill="none" stroke="#63b8ff" d="M823.63,-111.72C846.4,-103.24 884.11,-89.2 911.81,-78.89"/>
<polygon fill="#63b8ff" stroke="#63b8ff" points="912.68,-82.3 920.83,-75.53 910.24,-75.74 912.68,-82.3"/>
</a>
</g>
</g>
<!-- Node51&#45;&gt;Node38 -->
<g id="edge56_Node000051_Node000038" class="edge">
<title>Node51&#45;&gt;Node38</title>
<g id="a_edge56_Node000051_Node000038"><a xlink:title=" ">
<path fill="none" stroke="#63b8ff" d="M883.64,-110.09C894.78,-102.29 911.12,-90.84 924.39,-81.54"/>
<polygon fill="#63b8ff" stroke="#63b8ff" points="926.37,-84.43 932.55,-75.82 922.36,-78.69 926.37,-84.43"/>
</a>
</g>
</g>
<!-- Node52&#45;&gt;Node38 -->
<g id="edge58_Node000052_Node000038" class="edge">
<title>Node52&#45;&gt;Node38</title>
<g id="a_edge58_Node000052_Node000038"><a xlink:title=" ">
<path fill="none" stroke="#63b8ff" d="M946.75,-110.33C946.75,-103.82 946.75,-94.67 946.75,-86.37"/>
<polygon fill="#63b8ff" stroke="#63b8ff" points="950.25,-86.37 946.75,-76.37 943.25,-86.37 950.25,-86.37"/>
</a>
</g>
</g>
<!-- Node53&#45;&gt;Node38 -->
<g id="edge60_Node000053_Node000038" class="edge">
<title>Node53&#45;&gt;Node38</title>
<g id="a_edge60_Node000053_Node000038"><a xlink:title=" ">
<path fill="none" stroke="#63b8ff" d="M1012.35,-110.09C1000.66,-102.21 983.45,-90.61 969.59,-81.27"/>
<polygon fill="#63b8ff" stroke="#63b8ff" points="971.72,-78.49 961.47,-75.8 967.81,-84.29 971.72,-78.49"/>
</a>
</g>
</g>
<!-- Node54&#45;&gt;Node38 -->
<g id="edge63_Node000054_Node000038" class="edge">
<title>Node54&#45;&gt;Node38</title>
<g id="a_edge63_Node000054_Node000038"><a xlink:title=" ">
<path fill="none" stroke="#63b8ff" d="M1076.29,-110.09C1050.65,-101.34 1011.58,-88.01 983.05,-78.27"/>
<polygon fill="#63b8ff" stroke="#63b8ff" points="984.33,-75.01 973.74,-75.09 982.07,-81.63 984.33,-75.01"/>
</a>
</g>
</g>
<!-- Node55&#45;&gt;Node38 -->
<g id="edge65_Node000055_Node000038" class="edge">
<title>Node55&#45;&gt;Node38</title>
<g id="a_edge65_Node000055_Node000038"><a xlink:title=" ">
<path fill="none" stroke="#63b8ff" d="M1146.88,-112.75C1144.15,-111.97 1141.39,-111.2 1138.75,-110.5 1085.08,-96.3 1022.34,-82.18 983.56,-73.74"/>
<polygon fill="#63b8ff" stroke="#63b8ff" points="984.33,-70.32 973.82,-71.62 982.85,-77.16 984.33,-70.32"/>
</a>
</g>
</g>
<!-- Node56&#45;&gt;Node22 -->
<g id="edge67_Node000056_Node000022" class="edge">
<title>Node56&#45;&gt;Node22</title>
<g id="a_edge67_Node000056_Node000022"><a xlink:title=" ">
<path fill="none" stroke="#63b8ff" d="M1251.5,-165.58C1258.9,-158.15 1269.71,-147.29 1278.8,-138.16"/>
<polygon fill="#63b8ff" stroke="#63b8ff" points="1281.17,-140.74 1285.74,-131.18 1276.21,-135.8 1281.17,-140.74"/>
</a>
</g>
</g>
<!-- Node57 -->
<g id="Node000057" class="node">
<title>Node57</title>
<g id="a_Node000057"><a xlink:title=" ">
<polygon fill="#e0e0e0" stroke="#999999" points="1377.38,-129.75 1338.12,-129.75 1338.12,-110.5 1377.38,-110.5 1377.38,-129.75"/>
<text text-anchor="middle" x="1357.75" y="-116.25" font-family="Helvetica,sans-Serif" font-size="10.00">utility</text>
</a>
</g>
</g>
<!-- Node56&#45;&gt;Node57 -->
<g id="edge68_Node000056_Node000057" class="edge">
<title>Node56&#45;&gt;Node57</title>
<g id="a_edge68_Node000056_Node000057"><a xlink:title=" ">
<path fill="none" stroke="#63b8ff" d="M1262.26,-165.34C1280.27,-157 1307.27,-144.5 1327.98,-134.91"/>
<polygon fill="#63b8ff" stroke="#63b8ff" points="1329.17,-138.22 1336.77,-130.84 1326.23,-131.86 1329.17,-138.22"/>
</a>
</g>
</g>
</g>
</svg>
