<?xml version="1.0" encoding="UTF-8" standalone="no"?>
<!DOCTYPE svg PUBLIC "-//W3C//DTD SVG 1.1//EN"
 "http://www.w3.org/Graphics/SVG/1.1/DTD/svg11.dtd">
<!-- Generated by graphviz version 12.2.1 (20241206.2353)
 -->
<!-- Title: ApiClient::ApiClient Pages: 1 -->
<svg width="446pt" height="64pt"
 viewBox="0.00 0.00 446.00 64.25" xmlns="http://www.w3.org/2000/svg" xmlns:xlink="http://www.w3.org/1999/xlink">
<g id="graph0" class="graph" transform="scale(1 1) rotate(0) translate(4 60.25)">
<title>ApiClient::ApiClient</title>
<!-- Node1 -->
<g id="Node000001" class="node">
<title>Node1</title>
<g id="a_Node000001"><a xlink:title="Default Constructor.">
<polygon fill="#999999" stroke="#666666" points="101.5,-37.25 0,-37.25 0,-18 101.5,-18 101.5,-37.25"/>
<text text-anchor="middle" x="50.75" y="-23.75" font-family="Helvetica,sans-Serif" font-size="10.00">ApiClient::ApiClient</text>
</a>
</g>
</g>
<!-- Node2 -->
<g id="Node000002" class="node">
<title>Node2</title>
<g id="a_Node000002"><a xlink:href="../../d2/dd1/class_api_client.html#a6b63bb2faeed34e082d84c1c624dda39" target="_top" xlink:title="Analyzes the reply for GET requests.">
<polygon fill="white" stroke="#666666" points="275.75,-37.25 137.5,-37.25 137.5,-18 275.75,-18 275.75,-37.25"/>
<text text-anchor="middle" x="206.62" y="-23.75" font-family="Helvetica,sans-Serif" font-size="10.00">ApiClient::AnalyzeGetReply</text>
</a>
</g>
</g>
<!-- Node1&#45;&gt;Node2 -->
<g id="edge1_Node000001_Node000002" class="edge">
<title>Node1&#45;&gt;Node2</title>
<g id="a_edge1_Node000001_Node000002"><a xlink:title=" ">
<path fill="none" stroke="#63b8ff" d="M101.71,-27.62C109.49,-27.62 117.7,-27.62 125.94,-27.62"/>
<polygon fill="#63b8ff" stroke="#63b8ff" points="125.66,-31.13 135.66,-27.63 125.66,-24.13 125.66,-31.13"/>
</a>
</g>
</g>
<!-- Node3 -->
<g id="Node000003" class="node">
<title>Node3</title>
<g id="a_Node000003"><a xlink:href="../../d2/dd1/class_api_client.html#ae22339e302eb27bc51fbdfc1b7c1a4ec" target="_top" xlink:title="Signal for a failed request sent to a Get endpoint.">
<polygon fill="white" stroke="#666666" points="435,-56.25 314.75,-56.25 314.75,-37 435,-37 435,-56.25"/>
<text text-anchor="middle" x="374.88" y="-42.75" font-family="Helvetica,sans-Serif" font-size="10.00">ApiClient::BadGetReply</text>
</a>
</g>
</g>
<!-- Node2&#45;&gt;Node3 -->
<g id="edge2_Node000002_Node000003" class="edge">
<title>Node2&#45;&gt;Node3</title>
<g id="a_edge2_Node000002_Node000003"><a xlink:title=" ">
<path fill="none" stroke="#63b8ff" d="M276.21,-35.46C285.14,-36.48 294.3,-37.53 303.26,-38.55"/>
<polygon fill="#63b8ff" stroke="#63b8ff" points="302.64,-42.01 312.97,-39.66 303.43,-35.05 302.64,-42.01"/>
</a>
</g>
</g>
<!-- Node4 -->
<g id="Node000004" class="node">
<title>Node4</title>
<g id="a_Node000004"><a xlink:href="../../d2/dd1/class_api_client.html#a940bf610f9fa472fc660e1ab60203de7" target="_top" xlink:title="Signal for a successful request sent to a Get endpoint.">
<polygon fill="white" stroke="#666666" points="438,-19.25 311.75,-19.25 311.75,0 438,0 438,-19.25"/>
<text text-anchor="middle" x="374.88" y="-5.75" font-family="Helvetica,sans-Serif" font-size="10.00">ApiClient::GoodGetReply</text>
</a>
</g>
</g>
<!-- Node2&#45;&gt;Node4 -->
<g id="edge3_Node000002_Node000004" class="edge">
<title>Node2&#45;&gt;Node4</title>
<g id="a_edge3_Node000002_Node000004"><a xlink:title=" ">
<path fill="none" stroke="#63b8ff" d="M276.21,-20.2C284.02,-19.35 292.01,-18.49 299.89,-17.64"/>
<polygon fill="#63b8ff" stroke="#63b8ff" points="300.25,-21.12 309.81,-16.56 299.49,-14.16 300.25,-21.12"/>
</a>
</g>
</g>
</g>
</svg>
