<?xml version="1.0" encoding="UTF-8" standalone="no"?>
<!DOCTYPE svg PUBLIC "-//W3C//DTD SVG 1.1//EN"
 "http://www.w3.org/Graphics/SVG/1.1/DTD/svg11.dtd">
<!-- Generated by graphviz version 12.2.1 (20241206.2353)
 -->
<!-- Title: ApiClient::AnalyzeGetReply Pages: 1 -->
<svg width="309pt" height="64pt"
 viewBox="0.00 0.00 308.50 64.25" xmlns="http://www.w3.org/2000/svg" xmlns:xlink="http://www.w3.org/1999/xlink">
<g id="graph0" class="graph" transform="scale(1 1) rotate(0) translate(4 60.25)">
<title>ApiClient::AnalyzeGetReply</title>
<!-- Node1 -->
<g id="Node000001" class="node">
<title>Node1</title>
<g id="a_Node000001"><a xlink:title="Analyzes the reply for GET requests.">
<polygon fill="#999999" stroke="#666666" points="138.25,-37.25 0,-37.25 0,-18 138.25,-18 138.25,-37.25"/>
<text text-anchor="middle" x="69.12" y="-23.75" font-family="Helvetica,sans-Serif" font-size="10.00">ApiClient::AnalyzeGetReply</text>
</a>
</g>
</g>
<!-- Node2 -->
<g id="Node000002" class="node">
<title>Node2</title>
<g id="a_Node000002"><a xlink:href="../../d2/dd1/class_api_client.html#ae22339e302eb27bc51fbdfc1b7c1a4ec" target="_top" xlink:title="Signal for a failed request sent to a Get endpoint.">
<polygon fill="white" stroke="#666666" points="297.5,-56.25 177.25,-56.25 177.25,-37 297.5,-37 297.5,-56.25"/>
<text text-anchor="middle" x="237.38" y="-42.75" font-family="Helvetica,sans-Serif" font-size="10.00">ApiClient::BadGetReply</text>
</a>
</g>
</g>
<!-- Node1&#45;&gt;Node2 -->
<g id="edge1_Node000001_Node000002" class="edge">
<title>Node1&#45;&gt;Node2</title>
<g id="a_edge1_Node000001_Node000002"><a xlink:title=" ">
<path fill="none" stroke="#63b8ff" d="M138.71,-35.46C147.64,-36.48 156.8,-37.53 165.76,-38.55"/>
<polygon fill="#63b8ff" stroke="#63b8ff" points="165.14,-42.01 175.47,-39.66 165.93,-35.05 165.14,-42.01"/>
</a>
</g>
</g>
<!-- Node3 -->
<g id="Node000003" class="node">
<title>Node3</title>
<g id="a_Node000003"><a xlink:href="../../d2/dd1/class_api_client.html#a940bf610f9fa472fc660e1ab60203de7" target="_top" xlink:title="Signal for a successful request sent to a Get endpoint.">
<polygon fill="white" stroke="#666666" points="300.5,-19.25 174.25,-19.25 174.25,0 300.5,0 300.5,-19.25"/>
<text text-anchor="middle" x="237.38" y="-5.75" font-family="Helvetica,sans-Serif" font-size="10.00">ApiClient::GoodGetReply</text>
</a>
</g>
</g>
<!-- Node1&#45;&gt;Node3 -->
<g id="edge2_Node000001_Node000003" class="edge">
<title>Node1&#45;&gt;Node3</title>
<g id="a_edge2_Node000001_Node000003"><a xlink:title=" ">
<path fill="none" stroke="#63b8ff" d="M138.71,-20.2C146.52,-19.35 154.51,-18.49 162.39,-17.64"/>
<polygon fill="#63b8ff" stroke="#63b8ff" points="162.75,-21.12 172.31,-16.56 161.99,-14.16 162.75,-21.12"/>
</a>
</g>
</g>
</g>
</svg>
