<?xml version="1.0" encoding="UTF-8" standalone="no"?>
<!DOCTYPE svg PUBLIC "-//W3C//DTD SVG 1.1//EN"
 "http://www.w3.org/Graphics/SVG/1.1/DTD/svg11.dtd">
<!-- Generated by graphviz version 12.2.1 (20241206.2353)
 -->
<!-- Title: ApiClient::DeleteTestimonialsAll Pages: 1 -->
<svg width="501pt" height="64pt"
 viewBox="0.00 0.00 500.75 64.25" xmlns="http://www.w3.org/2000/svg" xmlns:xlink="http://www.w3.org/1999/xlink">
<g id="graph0" class="graph" transform="scale(1 1) rotate(0) translate(4 60.25)">
<title>ApiClient::DeleteTestimonialsAll</title>
<!-- Node1 -->
<g id="Node000001" class="node">
<title>Node1</title>
<g id="a_Node000001"><a xlink:title="Makes a request to delete all testimonials via DELETE /testimonials.">
<polygon fill="#999999" stroke="#666666" points="156.25,-37.25 0,-37.25 0,-18 156.25,-18 156.25,-37.25"/>
<text text-anchor="middle" x="78.12" y="-23.75" font-family="Helvetica,sans-Serif" font-size="10.00">ApiClient::DeleteTestimonialsAll</text>
</a>
</g>
</g>
<!-- Node2 -->
<g id="Node000002" class="node">
<title>Node2</title>
<g id="a_Node000002"><a xlink:href="../../d2/dd1/class_api_client.html#addc68bb9473d31fdf49098377f48d17b" target="_top" xlink:title="Analyzes the reply for DELETE requests.">
<polygon fill="white" stroke="#666666" points="317.75,-42.88 192.25,-42.88 192.25,-12.37 317.75,-12.37 317.75,-42.88"/>
<text text-anchor="start" x="200.25" y="-29.38" font-family="Helvetica,sans-Serif" font-size="10.00">ApiClient::AnalyzeDelete</text>
<text text-anchor="middle" x="255" y="-18.12" font-family="Helvetica,sans-Serif" font-size="10.00">Reply</text>
</a>
</g>
</g>
<!-- Node1&#45;&gt;Node2 -->
<g id="edge1_Node000001_Node000002" class="edge">
<title>Node1&#45;&gt;Node2</title>
<g id="a_edge1_Node000001_Node000002"><a xlink:title=" ">
<path fill="none" stroke="#63b8ff" d="M156.59,-27.62C164.51,-27.62 172.54,-27.62 180.41,-27.62"/>
<polygon fill="#63b8ff" stroke="#63b8ff" points="180.3,-31.13 190.3,-27.63 180.3,-24.13 180.3,-31.13"/>
</a>
</g>
</g>
<!-- Node3 -->
<g id="Node000003" class="node">
<title>Node3</title>
<g id="a_Node000003"><a xlink:href="../../d2/dd1/class_api_client.html#a2362fb6ae6555400e50840bd2138fa3c" target="_top" xlink:title="Signal for a failed request sent to a Delete endpoint.">
<polygon fill="white" stroke="#666666" points="489.75,-56.25 356.75,-56.25 356.75,-37 489.75,-37 489.75,-56.25"/>
<text text-anchor="middle" x="423.25" y="-42.75" font-family="Helvetica,sans-Serif" font-size="10.00">ApiClient::BadDeleteReply</text>
</a>
</g>
</g>
<!-- Node2&#45;&gt;Node3 -->
<g id="edge2_Node000002_Node000003" class="edge">
<title>Node2&#45;&gt;Node3</title>
<g id="a_edge2_Node000002_Node000003"><a xlink:title=" ">
<path fill="none" stroke="#63b8ff" d="M317.91,-34.7C326.73,-35.71 335.9,-36.76 344.98,-37.79"/>
<polygon fill="#63b8ff" stroke="#63b8ff" points="344.56,-41.27 354.89,-38.93 345.35,-34.31 344.56,-41.27"/>
</a>
</g>
</g>
<!-- Node4 -->
<g id="Node000004" class="node">
<title>Node4</title>
<g id="a_Node000004"><a xlink:href="../../d2/dd1/class_api_client.html#a36b7d26e91c582a56da7c3bcfbdccbd9" target="_top" xlink:title="Signal for a successful request sent to a Delete endpoint.">
<polygon fill="white" stroke="#666666" points="492.75,-19.25 353.75,-19.25 353.75,0 492.75,0 492.75,-19.25"/>
<text text-anchor="middle" x="423.25" y="-5.75" font-family="Helvetica,sans-Serif" font-size="10.00">ApiClient::GoodDeleteReply</text>
</a>
</g>
</g>
<!-- Node2&#45;&gt;Node4 -->
<g id="edge3_Node000002_Node000004" class="edge">
<title>Node2&#45;&gt;Node4</title>
<g id="a_edge3_Node000002_Node000004"><a xlink:title=" ">
<path fill="none" stroke="#63b8ff" d="M317.91,-20.92C325.75,-20.07 333.86,-19.19 341.94,-18.32"/>
<polygon fill="#63b8ff" stroke="#63b8ff" points="342.24,-21.81 351.8,-17.25 341.48,-14.85 342.24,-21.81"/>
</a>
</g>
</g>
</g>
</svg>
