<?xml version="1.0" encoding="UTF-8" standalone="no"?>
<!DOCTYPE svg PUBLIC "-//W3C//DTD SVG 1.1//EN"
 "http://www.w3.org/Graphics/SVG/1.1/DTD/svg11.dtd">
<!-- Generated by graphviz version 12.2.1 (20241206.2353)
 -->
<!-- Title: ApiClient::BadDeleteReply Pages: 1 -->
<!--zoomable 211 -->

<svg id="main" version="1.1" xmlns="http://www.w3.org/2000/svg" xmlns:xlink="http://www.w3.org/1999/xlink" xml:space="preserve" onload="init(evt)">

<style type="text/css"><![CDATA[
.node, .edge {opacity: 0.7;}
.node.selected, .edge.selected {opacity: 1;}
.edge:hover path { stroke: red; }
.edge:hover polygon { stroke: red; fill: red; }
]]></style>

<defs>
  <circle id="rim" cx="0" cy="0" r="7"/>
  <circle id="rim2" cx="0" cy="0" r="3.5"/>
  <g id="zoomPlus">
    <use xlink:href="#rim" fill="#404040"><set attributeName="fill" to="#808080" begin="zoomplus.mouseover" end="zoomplus.mouseout"/></use>
    <path d="M-4,0h8M0,-4v8" fill="none" stroke="white" stroke-width="1.5" pointer-events="none"/>
  </g>
  <g id="zoomMin">
    <use xlink:href="#rim" fill="#404040"><set attributeName="fill" to="#808080" begin="zoomminus.mouseover" end="zoomminus.mouseout"/></use>
    <path d="M-4,0h8" fill="none" stroke="white" stroke-width="1.5" pointer-events="none"/>
  </g>
  <g id="arrowUp" transform="translate(30 24)">
    <use xlink:href="#rim"/>
    <path pointer-events="none" fill="none" stroke="white" stroke-width="1.5" d="M0,-3.0v7 M-2.5,-0.5L0,-3.0L2.5,-0.5"/>
  </g>
  <g id="arrowRight" transform="rotate(90) translate(36 -43)">
    <use xlink:href="#rim"/>
    <path pointer-events="none" fill="none" stroke="white" stroke-width="1.5" d="M0,-3.0v7 M-2.5,-0.5L0,-3.0L2.5,-0.5"/>
  </g>
  <g id="arrowDown" transform="rotate(180) translate(-30 -48)">
    <use xlink:href="#rim"/>
    <path pointer-events="none" fill="none" stroke="white" stroke-width="1.5" d="M0,-3.0v7 M-2.5,-0.5L0,-3.0L2.5,-0.5"/>
  </g>
  <g id="arrowLeft" transform="rotate(270) translate(-36 17)">
    <use xlink:href="#rim"/>
    <path pointer-events="none" fill="none" stroke="white" stroke-width="1.5" d="M0,-3.0v7 M-2.5,-0.5L0,-3.0L2.5,-0.5"/>
  </g>
  <g id="resetDef">
    <use xlink:href="#rim2" fill="#404040"><set attributeName="fill" to="#808080" begin="reset.mouseover" end="reset.mouseout"/></use>
  </g>
</defs>
<script type="application/ecmascript">
var viewWidth = 532;
var viewHeight = 211;
var sectionId = 'dynsection-9';
</script>
<script type="application/ecmascript" xlink:href="../../svg.min.js"/>
<svg id="graph" class="graph">
<g id="viewport">
<title>ApiClient::BadDeleteReply</title>
<!-- Node1 -->
<g id="Node000001" class="node">
<title>Node1</title>
<g id="a_Node000001"><a xlink:title="Signal for a failed request sent to a Delete endpoint.">
<polygon fill="#999999" stroke="#666666" points="524.25,-77.25 391.25,-77.25 391.25,-58 524.25,-58 524.25,-77.25"/>
<text text-anchor="middle" x="457.75" y="-63.75" font-family="Helvetica,sans-Serif" font-size="10.00">ApiClient::BadDeleteReply</text>
</a>
</g>
</g>
<!-- Node2 -->
<g id="Node000002" class="node">
<title>Node2</title>
<g id="a_Node000002"><a xlink:href="../../d2/dd1/class_api_client.html#addc68bb9473d31fdf49098377f48d17b" target="_top" xlink:title="Analyzes the reply for DELETE requests.">
<polygon fill="white" stroke="#666666" points="336.5,-153.88 211,-153.88 211,-123.38 336.5,-123.38 336.5,-153.88"/>
<text text-anchor="start" x="219" y="-140.38" font-family="Helvetica,sans-Serif" font-size="10.00">ApiClient::AnalyzeDelete</text>
<text text-anchor="middle" x="273.75" y="-129.12" font-family="Helvetica,sans-Serif" font-size="10.00">Reply</text>
</a>
</g>
</g>
<!-- Node1&#45;&gt;Node2 -->
<g id="edge1_Node000001_Node000002" class="edge">
<title>Node1&#45;&gt;Node2</title>
<g id="a_edge1_Node000001_Node000002"><a xlink:title=" ">
<path fill="none" stroke="#63b8ff" d="M426.15,-82.7C406.22,-92.21 379.51,-104.4 355.25,-113.62 346.63,-116.9 337.38,-120.08 328.33,-123.01"/>
<polygon fill="#63b8ff" stroke="#63b8ff" points="427.61,-85.88 435.1,-78.38 424.57,-79.57 427.61,-85.88"/>
</a>
</g>
</g>
<!-- Node7 -->
<g id="Node000007" class="node">
<title>Node7</title>
<g id="a_Node000007"><a xlink:href="../../d8/d08/class_render_area_manager.html#a40e9c4c1fdd040cbd0a0a366fb337024" target="_top" xlink:title="Constructs a RenderAreaManager object and connects API client signals.">
<polygon fill="white" stroke="#666666" points="329.38,-104.88 218.12,-104.88 218.12,-74.38 329.38,-74.38 329.38,-104.88"/>
<text text-anchor="start" x="226.12" y="-91.38" font-family="Helvetica,sans-Serif" font-size="10.00">RenderAreaManager::</text>
<text text-anchor="middle" x="273.75" y="-80.12" font-family="Helvetica,sans-Serif" font-size="10.00">RenderAreaManager</text>
</a>
</g>
</g>
<!-- Node1&#45;&gt;Node7 -->
<g id="edge6_Node000001_Node000007" class="edge">
<title>Node1&#45;&gt;Node7</title>
<g id="a_edge6_Node000001_Node000007"><a xlink:title=" ">
<path fill="none" stroke="#63b8ff" d="M379.36,-76.98C362.66,-79 345.34,-81.09 329.71,-82.98"/>
<polygon fill="#63b8ff" stroke="#63b8ff" points="379.78,-80.46 389.28,-75.78 378.94,-73.51 379.78,-80.46"/>
</a>
</g>
</g>
<!-- Node8 -->
<g id="Node000008" class="node">
<title>Node8</title>
<g id="a_Node000008"><a xlink:href="../../d3/dde/class_shapes_manager.html#ab717143ddccb519cf74e28a27793112a" target="_top" xlink:title="Default Constructor.">
<polygon fill="white" stroke="#666666" points="355.25,-56.25 192.25,-56.25 192.25,-37 355.25,-37 355.25,-56.25"/>
<text text-anchor="middle" x="273.75" y="-42.75" font-family="Helvetica,sans-Serif" font-size="10.00">ShapesManager::ShapesManager</text>
</a>
</g>
</g>
<!-- Node1&#45;&gt;Node8 -->
<g id="edge7_Node000001_Node000008" class="edge">
<title>Node1&#45;&gt;Node8</title>
<g id="a_edge7_Node000001_Node000008"><a xlink:title=" ">
<path fill="none" stroke="#63b8ff" d="M379.42,-58.7C371.57,-57.8 363.58,-56.87 355.7,-55.96"/>
<polygon fill="#63b8ff" stroke="#63b8ff" points="378.95,-62.17 389.28,-59.84 379.75,-55.22 378.95,-62.17"/>
</a>
</g>
</g>
<!-- Node9 -->
<g id="Node000009" class="node">
<title>Node9</title>
<g id="a_Node000009"><a xlink:href="../../d1/da2/class_user_manager.html#aefc22181e82f255ad68cb91d98373077" target="_top" xlink:title="Constructor. Initializes ApiClient connections and loads users.">
<polygon fill="white" stroke="#666666" points="343.25,-19.25 204.25,-19.25 204.25,0 343.25,0 343.25,-19.25"/>
<text text-anchor="middle" x="273.75" y="-5.75" font-family="Helvetica,sans-Serif" font-size="10.00">UserManager::UserManager</text>
</a>
</g>
</g>
<!-- Node1&#45;&gt;Node9 -->
<g id="edge8_Node000001_Node000009" class="edge">
<title>Node1&#45;&gt;Node9</title>
<g id="a_edge8_Node000001_Node000009"><a xlink:title=" ">
<path fill="none" stroke="#63b8ff" d="M423.61,-53.05C404,-44.81 378.52,-34.76 355.25,-27.62 345.67,-24.68 335.3,-22.01 325.31,-19.67"/>
<polygon fill="#63b8ff" stroke="#63b8ff" points="422.17,-56.24 432.74,-56.94 424.91,-49.8 422.17,-56.24"/>
</a>
</g>
</g>
<!-- Node3 -->
<g id="Node000003" class="node">
<title>Node3</title>
<g id="a_Node000003"><a xlink:href="../../d2/dd1/class_api_client.html#a9b4a0deedb0a85a2a79e8257944cc6b6" target="_top" xlink:title="Makes a request to delete all render area data via Delete /render_area&#45;all.">
<polygon fill="white" stroke="#666666" points="154.75,-203.25 1.5,-203.25 1.5,-184 154.75,-184 154.75,-203.25"/>
<text text-anchor="middle" x="78.12" y="-189.75" font-family="Helvetica,sans-Serif" font-size="10.00">ApiClient::DeleteRenderAreaAll</text>
</a>
</g>
</g>
<!-- Node2&#45;&gt;Node3 -->
<g id="edge2_Node000002_Node000003" class="edge">
<title>Node2&#45;&gt;Node3</title>
<g id="a_edge2_Node000002_Node000003"><a xlink:title=" ">
<path fill="none" stroke="#63b8ff" d="M215.47,-157.8C196.69,-163.82 175.66,-170.29 156.25,-175.62 146.17,-178.4 135.28,-181.11 124.95,-183.55"/>
<polygon fill="#63b8ff" stroke="#63b8ff" points="216.35,-161.19 224.79,-154.78 214.2,-154.53 216.35,-161.19"/>
</a>
</g>
</g>
<!-- Node4 -->
<g id="Node000004" class="node">
<title>Node4</title>
<g id="a_Node000004"><a xlink:href="../../d2/dd1/class_api_client.html#adfd82e41d4424634a25e72626176fce9" target="_top" xlink:title="Makes a request to delete all shapes via the Delete /shapes&#45;all endpoint.">
<polygon fill="white" stroke="#666666" points="145.38,-166.25 10.88,-166.25 10.88,-147 145.38,-147 145.38,-166.25"/>
<text text-anchor="middle" x="78.12" y="-152.75" font-family="Helvetica,sans-Serif" font-size="10.00">ApiClient::DeleteShapesAll</text>
</a>
</g>
</g>
<!-- Node2&#45;&gt;Node4 -->
<g id="edge3_Node000002_Node000004" class="edge">
<title>Node2&#45;&gt;Node4</title>
<g id="a_edge3_Node000002_Node000004"><a xlink:title=" ">
<path fill="none" stroke="#63b8ff" d="M199.33,-145.45C181.76,-147.08 163.1,-148.82 145.85,-150.42"/>
<polygon fill="#63b8ff" stroke="#63b8ff" points="199.55,-148.95 209.18,-144.53 198.9,-141.98 199.55,-148.95"/>
</a>
</g>
</g>
<!-- Node5 -->
<g id="Node000005" class="node">
<title>Node5</title>
<g id="a_Node000005"><a xlink:href="../../d2/dd1/class_api_client.html#a46a2caf6cafa0ed3e8754dc1676159ba" target="_top" xlink:title="Makes a request to delete all testimonials via DELETE /testimonials.">
<polygon fill="white" stroke="#666666" points="156.25,-129.25 0,-129.25 0,-110 156.25,-110 156.25,-129.25"/>
<text text-anchor="middle" x="78.12" y="-115.75" font-family="Helvetica,sans-Serif" font-size="10.00">ApiClient::DeleteTestimonialsAll</text>
</a>
</g>
</g>
<!-- Node2&#45;&gt;Node5 -->
<g id="edge4_Node000002_Node000005" class="edge">
<title>Node2&#45;&gt;Node5</title>
<g id="a_edge4_Node000002_Node000005"><a xlink:title=" ">
<path fill="none" stroke="#63b8ff" d="M199.57,-131.44C185.48,-130.06 170.68,-128.61 156.46,-127.21"/>
<polygon fill="#63b8ff" stroke="#63b8ff" points="198.89,-134.89 209.18,-132.39 199.57,-127.93 198.89,-134.89"/>
</a>
</g>
</g>
<!-- Node6 -->
<g id="Node000006" class="node">
<title>Node6</title>
<g id="a_Node000006"><a xlink:href="../../d2/dd1/class_api_client.html#a4a58d3d1ab46afa9348afe1bfd4c2c02" target="_top" xlink:title="Makes a request to delete all user data via Delete /users&#45;all.">
<polygon fill="white" stroke="#666666" points="142,-92.25 14.25,-92.25 14.25,-73 142,-73 142,-92.25"/>
<text text-anchor="middle" x="78.12" y="-78.75" font-family="Helvetica,sans-Serif" font-size="10.00">ApiClient::DeleteUsersAll</text>
</a>
</g>
</g>
<!-- Node2&#45;&gt;Node6 -->
<g id="edge5_Node000002_Node000006" class="edge">
<title>Node2&#45;&gt;Node6</title>
<g id="a_edge5_Node000002_Node000006"><a xlink:title=" ">
<path fill="none" stroke="#63b8ff" d="M210.2,-119.51C204.12,-117.56 198.06,-115.57 192.25,-113.62 176.12,-108.21 172.56,-105.46 156.25,-100.62 146.63,-97.77 136.22,-95.09 126.26,-92.7"/>
<polygon fill="#63b8ff" stroke="#63b8ff" points="209.07,-122.82 219.66,-122.51 211.19,-116.15 209.07,-122.82"/>
</a>
</g>
</g>
</g>
</svg>

<g id="navigator" transform="translate(0 0)" fill="#404254">
  <rect fill="#f2f5e9" fill-opacity="0.5" stroke="#606060" stroke-width=".5" x="0" y="0" width="60" height="60"/>
  <use id="zoomplus" xlink:href="#zoomPlus" x="17" y="9" onmousedown="handleZoom(evt,'in')"/>
  <use id="zoomminus" xlink:href="#zoomMin" x="42" y="9" onmousedown="handleZoom(evt,'out')"/>
  <use id="reset" xlink:href="#resetDef" x="30" y="36" onmousedown="handleReset()"/>
   <use id="arrowup" xlink:href="#arrowUp" x="0" y="0" onmousedown="handlePan(0,-1)"/>
  <use id="arrowright" xlink:href="#arrowRight" x="0" y="0" onmousedown="handlePan(1,0)"/>
  <use id="arrowdown" xlink:href="#arrowDown" x="0" y="0" onmousedown="handlePan(0,1)"/>
  <use id="arrowleft" xlink:href="#arrowLeft" x="0" y="0" onmousedown="handlePan(-1,0)"/>
</g>
<svg viewBox="0 0 15 15" width="100%" height="30px" preserveAspectRatio="xMaxYMin meet">
 <g id="arrow_out" transform="scale(0.3 0.3)">
  <a xlink:href="class_api_client_a2362fb6ae6555400e50840bd2138fa3c_icgraph_org.svg" target="_base">
   <rect id="button" ry="5" rx="5" y="6" x="6" height="38" width="38"
        fill="#f2f5e9" fill-opacity="0.5" stroke="#606060" stroke-width="1.0"/>
   <path id="arrow"
     d="M 11.500037,31.436501 C 11.940474,20.09759 22.043105,11.32322 32.158766,21.979434 L 37.068811,17.246167 C 37.068811,17.246167 37.088388,32 37.088388,32 L 22.160133,31.978069 C 22.160133,31.978069 26.997745,27.140456 26.997745,27.140456 C 18.528582,18.264221 13.291696,25.230495 11.500037,31.436501 z"
     style="fill:#404040;"/>
  </a>
 </g>
</svg>

<style type='text/css'>
<![CDATA[
[data-mouse-over-selected='false'] { opacity: 0.7; }
[data-mouse-over-selected='true']  { opacity: 1.0; }
]]>
</style>
<script type="application/ecmascript"><![CDATA[
document.addEventListener('DOMContentLoaded', (event) => {
  highlightEdges();
  highlightAdjacentNodes();
});
]]></script>
</svg>
