<?xml version="1.0" encoding="UTF-8" standalone="no"?>
<!DOCTYPE svg PUBLIC "-//W3C//DTD SVG 1.1//EN"
 "http://www.w3.org/Graphics/SVG/1.1/DTD/svg11.dtd">
<!-- Generated by graphviz version 12.2.1 (20241206.2353)
 -->
<!-- Title: ApiClient::AnalyzeDeleteReply Pages: 1 -->
<svg width="326pt" height="138pt"
 viewBox="0.00 0.00 325.75 138.25" xmlns="http://www.w3.org/2000/svg" xmlns:xlink="http://www.w3.org/1999/xlink">
<g id="graph0" class="graph" transform="scale(1 1) rotate(0) translate(4 134.25)">
<title>ApiClient::AnalyzeDeleteReply</title>
<!-- Node1 -->
<g id="Node000001" class="node">
<title>Node1</title>
<g id="a_Node000001"><a xlink:title="Analyzes the reply for DELETE requests.">
<polygon fill="#999999" stroke="#666666" points="317.75,-79.88 192.25,-79.88 192.25,-49.38 317.75,-49.38 317.75,-79.88"/>
<text text-anchor="start" x="200.25" y="-66.38" font-family="Helvetica,sans-Serif" font-size="10.00">ApiClient::AnalyzeDelete</text>
<text text-anchor="middle" x="255" y="-55.12" font-family="Helvetica,sans-Serif" font-size="10.00">Reply</text>
</a>
</g>
</g>
<!-- Node2 -->
<g id="Node000002" class="node">
<title>Node2</title>
<g id="a_Node000002"><a xlink:href="../../d2/dd1/class_api_client.html#a9b4a0deedb0a85a2a79e8257944cc6b6" target="_top" xlink:title="Makes a request to delete all render area data via Delete /render_area&#45;all.">
<polygon fill="white" stroke="#666666" points="154.75,-130.25 1.5,-130.25 1.5,-111 154.75,-111 154.75,-130.25"/>
<text text-anchor="middle" x="78.12" y="-116.75" font-family="Helvetica,sans-Serif" font-size="10.00">ApiClient::DeleteRenderAreaAll</text>
</a>
</g>
</g>
<!-- Node1&#45;&gt;Node2 -->
<g id="edge1_Node000001_Node000002" class="edge">
<title>Node1&#45;&gt;Node2</title>
<g id="a_edge1_Node000001_Node000002"><a xlink:title=" ">
<path fill="none" stroke="#63b8ff" d="M206.69,-84.57C190.82,-90.84 172.93,-97.47 156.25,-102.62 146.92,-105.51 136.84,-108.18 127.13,-110.53"/>
<polygon fill="#63b8ff" stroke="#63b8ff" points="207.92,-87.85 215.9,-80.88 205.31,-81.35 207.92,-87.85"/>
</a>
</g>
</g>
<!-- Node3 -->
<g id="Node000003" class="node">
<title>Node3</title>
<g id="a_Node000003"><a xlink:href="../../d2/dd1/class_api_client.html#adfd82e41d4424634a25e72626176fce9" target="_top" xlink:title="Makes a request to delete all shapes via the Delete /shapes&#45;all endpoint.">
<polygon fill="white" stroke="#666666" points="145.38,-93.25 10.88,-93.25 10.88,-74 145.38,-74 145.38,-93.25"/>
<text text-anchor="middle" x="78.12" y="-79.75" font-family="Helvetica,sans-Serif" font-size="10.00">ApiClient::DeleteShapesAll</text>
</a>
</g>
</g>
<!-- Node1&#45;&gt;Node3 -->
<g id="edge2_Node000001_Node000003" class="edge">
<title>Node1&#45;&gt;Node3</title>
<g id="a_edge2_Node000001_Node000003"><a xlink:title=" ">
<path fill="none" stroke="#63b8ff" d="M180.49,-72.61C168.99,-73.86 157.15,-75.15 145.81,-76.38"/>
<polygon fill="#63b8ff" stroke="#63b8ff" points="180.79,-76.1 190.35,-71.54 180.03,-69.14 180.79,-76.1"/>
</a>
</g>
</g>
<!-- Node4 -->
<g id="Node000004" class="node">
<title>Node4</title>
<g id="a_Node000004"><a xlink:href="../../d2/dd1/class_api_client.html#a46a2caf6cafa0ed3e8754dc1676159ba" target="_top" xlink:title="Makes a request to delete all testimonials via DELETE /testimonials.">
<polygon fill="white" stroke="#666666" points="156.25,-56.25 0,-56.25 0,-37 156.25,-37 156.25,-56.25"/>
<text text-anchor="middle" x="78.12" y="-42.75" font-family="Helvetica,sans-Serif" font-size="10.00">ApiClient::DeleteTestimonialsAll</text>
</a>
</g>
</g>
<!-- Node1&#45;&gt;Node4 -->
<g id="edge3_Node000001_Node000004" class="edge">
<title>Node1&#45;&gt;Node4</title>
<g id="a_edge3_Node000001_Node000004"><a xlink:title=" ">
<path fill="none" stroke="#63b8ff" d="M180.47,-57.06C172.61,-56.25 164.59,-55.42 156.68,-54.61"/>
<polygon fill="#63b8ff" stroke="#63b8ff" points="180.04,-60.53 190.35,-58.07 180.76,-53.57 180.04,-60.53"/>
</a>
</g>
</g>
<!-- Node5 -->
<g id="Node000005" class="node">
<title>Node5</title>
<g id="a_Node000005"><a xlink:href="../../d2/dd1/class_api_client.html#a4a58d3d1ab46afa9348afe1bfd4c2c02" target="_top" xlink:title="Makes a request to delete all user data via Delete /users&#45;all.">
<polygon fill="white" stroke="#666666" points="142,-19.25 14.25,-19.25 14.25,0 142,0 142,-19.25"/>
<text text-anchor="middle" x="78.12" y="-5.75" font-family="Helvetica,sans-Serif" font-size="10.00">ApiClient::DeleteUsersAll</text>
</a>
</g>
</g>
<!-- Node1&#45;&gt;Node5 -->
<g id="edge4_Node000001_Node000005" class="edge">
<title>Node1&#45;&gt;Node5</title>
<g id="a_edge4_Node000001_Node000005"><a xlink:title=" ">
<path fill="none" stroke="#63b8ff" d="M205.84,-44.94C190.17,-38.94 172.61,-32.61 156.25,-27.62 146.78,-24.74 136.54,-22.06 126.7,-19.69"/>
<polygon fill="#63b8ff" stroke="#63b8ff" points="204.34,-48.12 214.93,-48.48 206.88,-41.59 204.34,-48.12"/>
</a>
</g>
</g>
</g>
</svg>
