<?xml version="1.0" encoding="UTF-8" standalone="no"?>
<!DOCTYPE svg PUBLIC "-//W3C//DTD SVG 1.1//EN"
 "http://www.w3.org/Graphics/SVG/1.1/DTD/svg11.dtd">
<!-- Generated by graphviz version 12.2.1 (20241206.2353)
 -->
<!-- Title: /Users/gautam/Local/Forge/Team&#45;Alphawolves/2D&#45;Graphics&#45;Modeler/src/frontend/mainwindow.h Pages: 1 -->
<svg width="2383pt" height="227pt"
 viewBox="0.00 0.00 2382.50 226.75" xmlns="http://www.w3.org/2000/svg" xmlns:xlink="http://www.w3.org/1999/xlink">
<g id="graph0" class="graph" transform="scale(1 1) rotate(0) translate(4 222.75)">
<title>/Users/gautam/Local/Forge/Team&#45;Alphawolves/2D&#45;Graphics&#45;Modeler/src/frontend/mainwindow.h</title>
<!-- Node1 -->
<g id="Node000001" class="node">
<title>Node1</title>
<g id="a_Node000001"><a xlink:title=" ">
<polygon fill="#999999" stroke="#666666" points="989.5,-218.75 860.25,-218.75 860.25,-165.75 989.5,-165.75 989.5,-218.75"/>
<text text-anchor="start" x="868.25" y="-205.25" font-family="Helvetica,sans-Serif" font-size="10.00">/Users/gautam/Local</text>
<text text-anchor="start" x="868.25" y="-194" font-family="Helvetica,sans-Serif" font-size="10.00">/Forge/Team&#45;Alphawolves</text>
<text text-anchor="start" x="868.25" y="-182.75" font-family="Helvetica,sans-Serif" font-size="10.00">/2D&#45;Graphics&#45;Modeler/src</text>
<text text-anchor="middle" x="924.88" y="-171.5" font-family="Helvetica,sans-Serif" font-size="10.00">/frontend/mainwindow.h</text>
</a>
</g>
</g>
<!-- Node2 -->
<g id="Node000002" class="node">
<title>Node2</title>
<g id="a_Node000002"><a xlink:title=" ">
<polygon fill="#e0e0e0" stroke="#999999" points="79.75,-129.75 0,-129.75 0,-110.5 79.75,-110.5 79.75,-129.75"/>
<text text-anchor="middle" x="39.88" y="-116.25" font-family="Helvetica,sans-Serif" font-size="10.00">QMainWindow</text>
</a>
</g>
</g>
<!-- Node1&#45;&gt;Node2 -->
<g id="edge1_Node000001_Node000002" class="edge">
<title>Node1&#45;&gt;Node2</title>
<g id="a_edge1_Node000001_Node000002"><a xlink:title=" ">
<path fill="none" stroke="#63b8ff" d="M859.88,-188.7C720.77,-182.77 383.7,-165.8 91.45,-129.95"/>
<polygon fill="#63b8ff" stroke="#63b8ff" points="92.06,-126.5 81.71,-128.74 91.2,-133.44 92.06,-126.5"/>
</a>
</g>
</g>
<!-- Node3 -->
<g id="Node000003" class="node">
<title>Node3</title>
<g id="a_Node000003"><a xlink:title=" ">
<polygon fill="#e0e0e0" stroke="#999999" points="153.75,-129.75 98,-129.75 98,-110.5 153.75,-110.5 153.75,-129.75"/>
<text text-anchor="middle" x="125.88" y="-116.25" font-family="Helvetica,sans-Serif" font-size="10.00">algorithm</text>
</a>
</g>
</g>
<!-- Node1&#45;&gt;Node3 -->
<g id="edge2_Node000001_Node000003" class="edge">
<title>Node1&#45;&gt;Node3</title>
<g id="a_edge2_Node000001_Node000003"><a xlink:title=" ">
<path fill="none" stroke="#63b8ff" d="M859.76,-189.25C729.52,-184.55 427.62,-170.12 165.35,-129.9"/>
<polygon fill="#63b8ff" stroke="#63b8ff" points="165.99,-126.46 155.57,-128.38 164.91,-133.38 165.99,-126.46"/>
</a>
</g>
</g>
<!-- Node4 -->
<g id="Node000004" class="node">
<title>Node4</title>
<g id="a_Node000004"><a xlink:title=" ">
<polygon fill="#e0e0e0" stroke="#999999" points="241.88,-129.75 171.88,-129.75 171.88,-110.5 241.88,-110.5 241.88,-129.75"/>
<text text-anchor="middle" x="206.88" y="-116.25" font-family="Helvetica,sans-Serif" font-size="10.00">QTabWidget</text>
</a>
</g>
</g>
<!-- Node1&#45;&gt;Node4 -->
<g id="edge3_Node000001_Node000004" class="edge">
<title>Node1&#45;&gt;Node4</title>
<g id="a_edge3_Node000001_Node000004"><a xlink:title=" ">
<path fill="none" stroke="#63b8ff" d="M860.02,-187.55C741.51,-180.31 481.87,-162.21 253.55,-130"/>
<polygon fill="#63b8ff" stroke="#63b8ff" points="254.26,-126.56 243.86,-128.62 253.27,-133.49 254.26,-126.56"/>
</a>
</g>
</g>
<!-- Node5 -->
<g id="Node000005" class="node">
<title>Node5</title>
<g id="a_Node000005"><a xlink:title=" ">
<polygon fill="#e0e0e0" stroke="#999999" points="337.62,-129.75 260.12,-129.75 260.12,-110.5 337.62,-110.5 337.62,-129.75"/>
<text text-anchor="middle" x="298.88" y="-116.25" font-family="Helvetica,sans-Serif" font-size="10.00">QTableWidget</text>
</a>
</g>
</g>
<!-- Node1&#45;&gt;Node5 -->
<g id="edge4_Node000001_Node000005" class="edge">
<title>Node1&#45;&gt;Node5</title>
<g id="a_edge4_Node000001_Node000005"><a xlink:title=" ">
<path fill="none" stroke="#63b8ff" d="M860.11,-185.89C755.06,-176.85 540.8,-157.03 349.01,-129.96"/>
<polygon fill="#63b8ff" stroke="#63b8ff" points="349.76,-126.53 339.37,-128.59 348.78,-133.46 349.76,-126.53"/>
</a>
</g>
</g>
<!-- Node6 -->
<g id="Node000006" class="node">
<title>Node6</title>
<g id="a_Node000006"><a xlink:title=" ">
<polygon fill="#e0e0e0" stroke="#999999" points="428,-129.75 355.75,-129.75 355.75,-110.5 428,-110.5 428,-129.75"/>
<text text-anchor="middle" x="391.88" y="-116.25" font-family="Helvetica,sans-Serif" font-size="10.00">QComboBox</text>
</a>
</g>
</g>
<!-- Node1&#45;&gt;Node6 -->
<g id="edge5_Node000001_Node000006" class="edge">
<title>Node1&#45;&gt;Node6</title>
<g id="a_edge5_Node000001_Node000006"><a xlink:title=" ">
<path fill="none" stroke="#63b8ff" d="M859.96,-184.41C768.47,-174.47 596.16,-154.66 439.44,-130.07"/>
<polygon fill="#63b8ff" stroke="#63b8ff" points="440.11,-126.63 429.68,-128.53 439.02,-133.55 440.11,-126.63"/>
</a>
</g>
</g>
<!-- Node7 -->
<g id="Node000007" class="node">
<title>Node7</title>
<g id="a_Node000007"><a xlink:title=" ">
<polygon fill="#e0e0e0" stroke="#999999" points="517.62,-129.75 446.12,-129.75 446.12,-110.5 517.62,-110.5 517.62,-129.75"/>
<text text-anchor="middle" x="481.88" y="-116.25" font-family="Helvetica,sans-Serif" font-size="10.00">QApplication</text>
</a>
</g>
</g>
<!-- Node1&#45;&gt;Node7 -->
<g id="edge6_Node000001_Node000007" class="edge">
<title>Node1&#45;&gt;Node7</title>
<g id="a_edge6_Node000001_Node000007"><a xlink:title=" ">
<path fill="none" stroke="#63b8ff" d="M859.96,-181.95C783.38,-170.82 651.98,-151.21 528.84,-130.04"/>
<polygon fill="#63b8ff" stroke="#63b8ff" points="529.66,-126.63 519.21,-128.37 528.47,-133.52 529.66,-126.63"/>
</a>
</g>
</g>
<!-- Node8 -->
<g id="Node000008" class="node">
<title>Node8</title>
<g id="a_Node000008"><a xlink:title=" ">
<polygon fill="#e0e0e0" stroke="#999999" points="606.25,-129.75 535.5,-129.75 535.5,-110.5 606.25,-110.5 606.25,-129.75"/>
<text text-anchor="middle" x="570.88" y="-116.25" font-family="Helvetica,sans-Serif" font-size="10.00">QGridLayout</text>
</a>
</g>
</g>
<!-- Node1&#45;&gt;Node8 -->
<g id="edge7_Node000001_Node000008" class="edge">
<title>Node1&#45;&gt;Node8</title>
<g id="a_edge7_Node000001_Node000008"><a xlink:title=" ">
<path fill="none" stroke="#63b8ff" d="M859.95,-178.39C789.67,-164.47 679.35,-142.61 617.29,-130.32"/>
<polygon fill="#63b8ff" stroke="#63b8ff" points="618.26,-126.94 607.77,-128.43 616.9,-133.81 618.26,-126.94"/>
</a>
</g>
</g>
<!-- Node9 -->
<g id="Node000009" class="node">
<title>Node9</title>
<g id="a_Node000009"><a xlink:title=" ">
<polygon fill="#e0e0e0" stroke="#999999" points="578.25,-19.25 531.5,-19.25 531.5,0 578.25,0 578.25,-19.25"/>
<text text-anchor="middle" x="554.88" y="-5.75" font-family="Helvetica,sans-Serif" font-size="10.00">QLabel</text>
</a>
</g>
</g>
<!-- Node1&#45;&gt;Node9 -->
<g id="edge8_Node000001_Node000009" class="edge">
<title>Node1&#45;&gt;Node9</title>
<g id="a_edge8_Node000001_Node000009"><a xlink:title=" ">
<path fill="none" stroke="#63b8ff" d="M891.16,-165.38C863.88,-144.83 827.38,-118.29 810.88,-110.5 755.89,-84.53 734.95,-98.02 678.88,-74.5 663.22,-67.93 660.84,-63.27 645.88,-55.25 625.71,-44.44 602.56,-33.1 584.65,-24.56"/>
<polygon fill="#63b8ff" stroke="#63b8ff" points="586.16,-21.4 575.62,-20.28 583.16,-27.72 586.16,-21.4"/>
</a>
</g>
</g>
<!-- Node10 -->
<g id="Node000010" class="node">
<title>Node10</title>
<g id="a_Node000010"><a xlink:title=" ">
<polygon fill="#e0e0e0" stroke="#999999" points="1011.5,-129.75 972.25,-129.75 972.25,-110.5 1011.5,-110.5 1011.5,-129.75"/>
<text text-anchor="middle" x="991.88" y="-116.25" font-family="Helvetica,sans-Serif" font-size="10.00">QFile</text>
</a>
</g>
</g>
<!-- Node1&#45;&gt;Node10 -->
<g id="edge9_Node000001_Node000010" class="edge">
<title>Node1&#45;&gt;Node10</title>
<g id="a_edge9_Node000001_Node000010"><a xlink:title=" ">
<path fill="none" stroke="#63b8ff" d="M949.44,-165.54C958.11,-156.47 967.64,-146.49 975.46,-138.3"/>
<polygon fill="#63b8ff" stroke="#63b8ff" points="977.75,-140.98 982.12,-131.33 972.69,-136.14 977.75,-140.98"/>
</a>
</g>
</g>
<!-- Node11 -->
<g id="Node000011" class="node">
<title>Node11</title>
<g id="a_Node000011"><a xlink:title=" ">
<polygon fill="#e0e0e0" stroke="#999999" points="1064,-74.5 1015.75,-74.5 1015.75,-55.25 1064,-55.25 1064,-74.5"/>
<text text-anchor="middle" x="1039.88" y="-61" font-family="Helvetica,sans-Serif" font-size="10.00">QTimer</text>
</a>
</g>
</g>
<!-- Node1&#45;&gt;Node11 -->
<g id="edge10_Node000001_Node000011" class="edge">
<title>Node1&#45;&gt;Node11</title>
<g id="a_edge10_Node000001_Node000011"><a xlink:title=" ">
<path fill="none" stroke="#63b8ff" d="M979.86,-165.32C994.95,-155.94 1010.1,-144.06 1020.88,-129.75 1030.47,-117 1035.24,-99.45 1037.6,-85.97"/>
<polygon fill="#63b8ff" stroke="#63b8ff" points="1041.06,-86.47 1038.99,-76.08 1034.13,-85.5 1041.06,-86.47"/>
</a>
</g>
</g>
<!-- Node12 -->
<g id="Node000012" class="node">
<title>Node12</title>
<g id="a_Node000012"><a xlink:title=" ">
<polygon fill="#e0e0e0" stroke="#999999" points="1312.38,-129.75 1245.38,-129.75 1245.38,-110.5 1312.38,-110.5 1312.38,-129.75"/>
<text text-anchor="middle" x="1278.88" y="-116.25" font-family="Helvetica,sans-Serif" font-size="10.00">QStatusBar</text>
</a>
</g>
</g>
<!-- Node1&#45;&gt;Node12 -->
<g id="edge11_Node000001_Node000012" class="edge">
<title>Node1&#45;&gt;Node12</title>
<g id="a_edge11_Node000001_Node000012"><a xlink:title=" ">
<path fill="none" stroke="#63b8ff" d="M989.74,-178.62C1050.34,-166.78 1143.65,-148.47 1233.71,-130.38"/>
<polygon fill="#63b8ff" stroke="#63b8ff" points="1234.36,-133.82 1243.47,-128.41 1232.98,-126.95 1234.36,-133.82"/>
</a>
</g>
</g>
<!-- Node13 -->
<g id="Node000013" class="node">
<title>Node13</title>
<g id="a_Node000013"><a xlink:title=" ">
<polygon fill="#e0e0e0" stroke="#999999" points="1280.25,-19.25 1203.5,-19.25 1203.5,0 1280.25,0 1280.25,-19.25"/>
<text text-anchor="middle" x="1241.88" y="-5.75" font-family="Helvetica,sans-Serif" font-size="10.00">QVBoxLayout</text>
</a>
</g>
</g>
<!-- Node1&#45;&gt;Node13 -->
<g id="edge12_Node000001_Node000013" class="edge">
<title>Node1&#45;&gt;Node13</title>
<g id="a_edge12_Node000001_Node000013"><a xlink:title=" ">
<path fill="none" stroke="#63b8ff" d="M932.27,-165.4C942.95,-133.34 966.04,-79.89 1006.88,-55.25 1008.87,-54.04 1123.91,-32.53 1192.27,-19.82"/>
<polygon fill="#63b8ff" stroke="#63b8ff" points="1192.55,-23.33 1201.74,-18.06 1191.27,-16.45 1192.55,-23.33"/>
</a>
</g>
</g>
<!-- Node14 -->
<g id="Node000014" class="node">
<title>Node14</title>
<g id="a_Node000014"><a xlink:title=" ">
<polygon fill="#e0e0e0" stroke="#999999" points="513.12,-19.25 438.62,-19.25 438.62,0 513.12,0 513.12,-19.25"/>
<text text-anchor="middle" x="475.88" y="-5.75" font-family="Helvetica,sans-Serif" font-size="10.00">QPushButton</text>
</a>
</g>
</g>
<!-- Node1&#45;&gt;Node14 -->
<g id="edge13_Node000001_Node000014" class="edge">
<title>Node1&#45;&gt;Node14</title>
<g id="a_edge13_Node000001_Node000014"><a xlink:title=" ">
<path fill="none" stroke="#63b8ff" d="M859.85,-181.2C803.93,-171.46 721.66,-154.52 652.88,-129.75 635.06,-123.34 632.37,-117.74 614.88,-110.5 567.35,-90.82 543.19,-108.82 504.88,-74.5 491.96,-62.94 484.45,-44.49 480.31,-30.39"/>
<polygon fill="#63b8ff" stroke="#63b8ff" points="483.75,-29.68 477.88,-20.86 476.97,-31.41 483.75,-29.68"/>
</a>
</g>
</g>
<!-- Node15 -->
<g id="Node000015" class="node">
<title>Node15</title>
<g id="a_Node000015"><a xlink:title=" ">
<polygon fill="#e0e0e0" stroke="#999999" points="1391,-129.75 1330.75,-129.75 1330.75,-110.5 1391,-110.5 1391,-129.75"/>
<text text-anchor="middle" x="1360.88" y="-116.25" font-family="Helvetica,sans-Serif" font-size="10.00">QSpinBox</text>
</a>
</g>
</g>
<!-- Node1&#45;&gt;Node15 -->
<g id="edge14_Node000001_Node000015" class="edge">
<title>Node1&#45;&gt;Node15</title>
<g id="a_edge14_Node000001_Node000015"><a xlink:title=" ">
<path fill="none" stroke="#63b8ff" d="M989.73,-182.5C1066.2,-171.9 1197.38,-152.8 1319.25,-130.15"/>
<polygon fill="#63b8ff" stroke="#63b8ff" points="1319.58,-133.65 1328.77,-128.37 1318.3,-126.77 1319.58,-133.65"/>
</a>
</g>
</g>
<!-- Node16 -->
<g id="Node000016" class="node">
<title>Node16</title>
<g id="a_Node000016"><a xlink:title=" ">
<polygon fill="#e0e0e0" stroke="#999999" points="1460.5,-129.75 1409.25,-129.75 1409.25,-110.5 1460.5,-110.5 1460.5,-129.75"/>
<text text-anchor="middle" x="1434.88" y="-116.25" font-family="Helvetica,sans-Serif" font-size="10.00">QAction</text>
</a>
</g>
</g>
<!-- Node1&#45;&gt;Node16 -->
<g id="edge15_Node000001_Node000016" class="edge">
<title>Node1&#45;&gt;Node16</title>
<g id="a_edge15_Node000001_Node000016"><a xlink:title=" ">
<path fill="none" stroke="#63b8ff" d="M989.78,-185.19C1079.43,-176.3 1246.34,-157.89 1398.06,-129.89"/>
<polygon fill="#63b8ff" stroke="#63b8ff" points="1398.28,-133.41 1407.46,-128.14 1396.99,-126.53 1398.28,-133.41"/>
</a>
</g>
</g>
<!-- Node17 -->
<g id="Node000017" class="node">
<title>Node17</title>
<g id="a_Node000017"><a xlink:title=" ">
<polygon fill="#e0e0e0" stroke="#999999" points="1541.12,-129.75 1478.62,-129.75 1478.62,-110.5 1541.12,-110.5 1541.12,-129.75"/>
<text text-anchor="middle" x="1509.88" y="-116.25" font-family="Helvetica,sans-Serif" font-size="10.00">QMenuBar</text>
</a>
</g>
</g>
<!-- Node1&#45;&gt;Node17 -->
<g id="edge16_Node000001_Node000017" class="edge">
<title>Node1&#45;&gt;Node17</title>
<g id="a_edge16_Node000001_Node000017"><a xlink:title=" ">
<path fill="none" stroke="#63b8ff" d="M989.76,-186.04C1090.09,-177.53 1289.07,-158.79 1467.32,-130.02"/>
<polygon fill="#63b8ff" stroke="#63b8ff" points="1467.69,-133.51 1476.99,-128.45 1466.56,-126.6 1467.69,-133.51"/>
</a>
</g>
</g>
<!-- Node18 -->
<g id="Node000018" class="node">
<title>Node18</title>
<g id="a_Node000018"><a xlink:title=" ">
<polygon fill="#e0e0e0" stroke="#999999" points="1648.62,-129.75 1559.12,-129.75 1559.12,-110.5 1648.62,-110.5 1648.62,-129.75"/>
<text text-anchor="middle" x="1603.88" y="-116.25" font-family="Helvetica,sans-Serif" font-size="10.00">ui_mainwindow.h</text>
</a>
</g>
</g>
<!-- Node1&#45;&gt;Node18 -->
<g id="edge17_Node000001_Node000018" class="edge">
<title>Node1&#45;&gt;Node18</title>
<g id="a_edge17_Node000001_Node000018"><a xlink:title=" ">
<path fill="none" stroke="#63b8ff" d="M989.8,-186.16C1101.52,-177.12 1337.55,-156.76 1547.58,-129.97"/>
<polygon fill="#63b8ff" stroke="#63b8ff" points="1547.85,-133.47 1557.32,-128.72 1546.96,-126.52 1547.85,-133.47"/>
</a>
</g>
</g>
<!-- Node19 -->
<g id="Node000019" class="node">
<title>Node19</title>
<g id="a_Node000019"><a xlink:href="../../d9/d26/renderarea_8h.html" target="_top" xlink:title="Defines the RenderArea class, a custom QWidget for drawing and interacting with 2D shapes.">
<polygon fill="white" stroke="#666666" points="1888.88,-129.75 1818.88,-129.75 1818.88,-110.5 1888.88,-110.5 1888.88,-129.75"/>
<text text-anchor="middle" x="1853.88" y="-116.25" font-family="Helvetica,sans-Serif" font-size="10.00">renderarea.h</text>
</a>
</g>
</g>
<!-- Node1&#45;&gt;Node19 -->
<g id="edge18_Node000001_Node000019" class="edge">
<title>Node1&#45;&gt;Node19</title>
<g id="a_edge18_Node000001_Node000019"><a xlink:title=" ">
<path fill="none" stroke="#63b8ff" d="M989.83,-186.35C1166.81,-172.99 1654.5,-136.17 1807.4,-124.63"/>
<polygon fill="#63b8ff" stroke="#63b8ff" points="1807.44,-128.14 1817.15,-123.9 1806.91,-121.16 1807.44,-128.14"/>
</a>
</g>
</g>
<!-- Node42 -->
<g id="Node000042" class="node">
<title>Node42</title>
<g id="a_Node000042"><a xlink:href="../../d0/d47/loginwindow_8h.html" target="_top" xlink:title=" ">
<polygon fill="white" stroke="#666666" points="883.88,-74.5 807.88,-74.5 807.88,-55.25 883.88,-55.25 883.88,-74.5"/>
<text text-anchor="middle" x="845.88" y="-61" font-family="Helvetica,sans-Serif" font-size="10.00">loginwindow.h</text>
</a>
</g>
</g>
<!-- Node1&#45;&gt;Node42 -->
<g id="edge25_Node000001_Node000042" class="edge">
<title>Node1&#45;&gt;Node42</title>
<g id="a_edge25_Node000001_Node000042"><a xlink:title=" ">
<path fill="none" stroke="#63b8ff" d="M912.7,-165.44C904.67,-149.23 893.52,-128.12 881.88,-110.5 875.71,-101.17 868.02,-91.44 861.34,-83.45"/>
<polygon fill="#63b8ff" stroke="#63b8ff" points="864,-81.18 854.84,-75.87 858.69,-85.74 864,-81.18"/>
</a>
</g>
</g>
<!-- Node48 -->
<g id="Node000048" class="node">
<title>Node48</title>
<g id="a_Node000048"><a xlink:href="../../d9/db8/_testimonial_dialog_8h.html" target="_top" xlink:title="Defines the TestimonialDialog class for submitting user testimonials.">
<polygon fill="white" stroke="#666666" points="789.62,-74.5 688.12,-74.5 688.12,-55.25 789.62,-55.25 789.62,-74.5"/>
<text text-anchor="middle" x="738.88" y="-61" font-family="Helvetica,sans-Serif" font-size="10.00">TestimonialDialog.h</text>
</a>
</g>
</g>
<!-- Node1&#45;&gt;Node48 -->
<g id="edge34_Node000001_Node000048" class="edge">
<title>Node1&#45;&gt;Node48</title>
<g id="a_edge34_Node000001_Node000048"><a xlink:title=" ">
<path fill="none" stroke="#63b8ff" d="M903.6,-165.36C888.36,-148.08 866.6,-125.81 843.88,-110.5 823.82,-96.99 799.02,-86.22 778.56,-78.65"/>
<polygon fill="#63b8ff" stroke="#63b8ff" points="780.02,-75.45 769.42,-75.38 777.67,-82.04 780.02,-75.45"/>
</a>
</g>
</g>
<!-- Node52 -->
<g id="Node000052" class="node">
<title>Node52</title>
<g id="a_Node000052"><a xlink:href="../../da/d83/_testimonials_display_dialog_8h.html" target="_top" xlink:title="Defines the TestimonialsDisplayDialog class for showing customer testimonials.">
<polygon fill="white" stroke="#666666" points="801.75,-129.75 662,-129.75 662,-110.5 801.75,-110.5 801.75,-129.75"/>
<text text-anchor="middle" x="731.88" y="-116.25" font-family="Helvetica,sans-Serif" font-size="10.00">TestimonialsDisplayDialog.h</text>
</a>
</g>
</g>
<!-- Node1&#45;&gt;Node52 -->
<g id="edge44_Node000001_Node000052" class="edge">
<title>Node1&#45;&gt;Node52</title>
<g id="a_edge44_Node000001_Node000052"><a xlink:title=" ">
<path fill="none" stroke="#63b8ff" d="M859.8,-167.61C828.92,-156.38 793.21,-143.41 767.38,-134.03"/>
<polygon fill="#63b8ff" stroke="#63b8ff" points="768.63,-130.76 758.03,-130.63 766.24,-137.33 768.63,-130.76"/>
</a>
</g>
</g>
<!-- Node54 -->
<g id="Node000054" class="node">
<title>Node54</title>
<g id="a_Node000054"><a xlink:href="../../de/d50/_column_edit_delegate_8h.html" target="_top" xlink:title=" ">
<polygon fill="white" stroke="#666666" points="2116,-129.75 2001.75,-129.75 2001.75,-110.5 2116,-110.5 2116,-129.75"/>
<text text-anchor="middle" x="2058.88" y="-116.25" font-family="Helvetica,sans-Serif" font-size="10.00">ColumnEditDelegate.h</text>
</a>
</g>
</g>
<!-- Node1&#45;&gt;Node54 -->
<g id="edge52_Node000001_Node000054" class="edge">
<title>Node1&#45;&gt;Node54</title>
<g id="a_edge52_Node000001_Node000054"><a xlink:title=" ">
<path fill="none" stroke="#63b8ff" d="M989.92,-187.23C1188.55,-174.94 1786.08,-137.99 1989.89,-125.39"/>
<polygon fill="#63b8ff" stroke="#63b8ff" points="1990.03,-128.89 1999.8,-124.78 1989.6,-121.9 1990.03,-128.89"/>
</a>
</g>
</g>
<!-- Node56 -->
<g id="Node000056" class="node">
<title>Node56</title>
<g id="a_Node000056"><a xlink:href="../../d9/d9f/_user_account_8h.html" target="_top" xlink:title=" ">
<polygon fill="white" stroke="#666666" points="2357.88,-129.75 2227.88,-129.75 2227.88,-110.5 2357.88,-110.5 2357.88,-129.75"/>
<text text-anchor="middle" x="2292.88" y="-116.25" font-family="Helvetica,sans-Serif" font-size="10.00">../backend/UserAccount.h</text>
</a>
</g>
</g>
<!-- Node1&#45;&gt;Node56 -->
<g id="edge54_Node000001_Node000056" class="edge">
<title>Node1&#45;&gt;Node56</title>
<g id="a_edge54_Node000001_Node000056"><a xlink:title=" ">
<path fill="none" stroke="#63b8ff" d="M989.91,-187.92C1170.19,-178.68 1691.54,-151.98 2124.88,-129.75 2154.74,-128.22 2187.6,-126.53 2216.27,-125.06"/>
<polygon fill="#63b8ff" stroke="#63b8ff" points="2216.13,-128.57 2225.94,-124.56 2215.78,-121.58 2216.13,-128.57"/>
</a>
</g>
</g>
<!-- Node59 -->
<g id="Node000059" class="node">
<title>Node59</title>
<g id="a_Node000059"><a xlink:href="../../d4/d0a/_testimonial_manager_8h.html" target="_top" xlink:title=" ">
<polygon fill="#fff0f0" stroke="red" points="1227.5,-129.75 1068.25,-129.75 1068.25,-110.5 1227.5,-110.5 1227.5,-129.75"/>
<text text-anchor="middle" x="1147.88" y="-116.25" font-family="Helvetica,sans-Serif" font-size="10.00">../backend/TestimonialManager.h</text>
</a>
</g>
</g>
<!-- Node1&#45;&gt;Node59 -->
<g id="edge57_Node000001_Node000059" class="edge">
<title>Node1&#45;&gt;Node59</title>
<g id="a_edge57_Node000001_Node000059"><a xlink:title=" ">
<path fill="none" stroke="#63b8ff" d="M989.98,-170.78C1028.15,-158.77 1075.17,-143.99 1107.92,-133.69"/>
<polygon fill="#63b8ff" stroke="#63b8ff" points="1108.94,-137.04 1117.43,-130.7 1106.84,-130.36 1108.94,-137.04"/>
</a>
</g>
</g>
<!-- Node20 -->
<g id="Node000020" class="node">
<title>Node20</title>
<g id="a_Node000020"><a xlink:title=" ">
<polygon fill="#e0e0e0" stroke="#999999" points="2051,-74.5 1996.75,-74.5 1996.75,-55.25 2051,-55.25 2051,-74.5"/>
<text text-anchor="middle" x="2023.88" y="-61" font-family="Helvetica,sans-Serif" font-size="10.00">QWidget</text>
</a>
</g>
</g>
<!-- Node19&#45;&gt;Node20 -->
<g id="edge19_Node000019_Node000020" class="edge">
<title>Node19&#45;&gt;Node20</title>
<g id="a_edge19_Node000019_Node000020"><a xlink:title=" ">
<path fill="none" stroke="#63b8ff" d="M1882.71,-110.09C1910.98,-101.24 1954.24,-87.69 1985.42,-77.92"/>
<polygon fill="#63b8ff" stroke="#63b8ff" points="1986.37,-81.29 1994.86,-74.96 1984.27,-74.61 1986.37,-81.29"/>
</a>
</g>
</g>
<!-- Node21 -->
<g id="Node000021" class="node">
<title>Node21</title>
<g id="a_Node000021"><a xlink:title=" ">
<polygon fill="#e0e0e0" stroke="#999999" points="2123,-74.5 2068.75,-74.5 2068.75,-55.25 2123,-55.25 2123,-74.5"/>
<text text-anchor="middle" x="2095.88" y="-61" font-family="Helvetica,sans-Serif" font-size="10.00">QPainter</text>
</a>
</g>
</g>
<!-- Node19&#45;&gt;Node21 -->
<g id="edge20_Node000019_Node000021" class="edge">
<title>Node19&#45;&gt;Node21</title>
<g id="a_edge20_Node000019_Node000021"><a xlink:title=" ">
<path fill="none" stroke="#63b8ff" d="M1889.29,-111.7C1928.12,-103.5 1992.57,-89.74 2057.17,-75.08"/>
<polygon fill="#63b8ff" stroke="#63b8ff" points="2057.92,-78.5 2066.9,-72.87 2056.37,-71.67 2057.92,-78.5"/>
</a>
</g>
</g>
<!-- Node22 -->
<g id="Node000022" class="node">
<title>Node22</title>
<g id="a_Node000022"><a xlink:title=" ">
<polygon fill="#e0e0e0" stroke="#999999" points="1682.25,-74.5 1641.5,-74.5 1641.5,-55.25 1682.25,-55.25 1682.25,-74.5"/>
<text text-anchor="middle" x="1661.88" y="-61" font-family="Helvetica,sans-Serif" font-size="10.00">QPen</text>
</a>
</g>
</g>
<!-- Node19&#45;&gt;Node22 -->
<g id="edge21_Node000019_Node000022" class="edge">
<title>Node19&#45;&gt;Node22</title>
<g id="a_edge21_Node000019_Node000022"><a xlink:title=" ">
<path fill="none" stroke="#63b8ff" d="M1820.34,-110C1789.79,-101.67 1743.17,-88.89 1693.5,-74.93"/>
<polygon fill="#63b8ff" stroke="#63b8ff" points="1694.55,-71.59 1683.98,-72.25 1692.66,-78.33 1694.55,-71.59"/>
</a>
</g>
</g>
<!-- Node23 -->
<g id="Node000023" class="node">
<title>Node23</title>
<g id="a_Node000023"><a xlink:title=" ">
<polygon fill="#e0e0e0" stroke="#999999" points="1779,-74.5 1700.75,-74.5 1700.75,-55.25 1779,-55.25 1779,-74.5"/>
<text text-anchor="middle" x="1739.88" y="-61" font-family="Helvetica,sans-Serif" font-size="10.00">QMouseEvent</text>
</a>
</g>
</g>
<!-- Node19&#45;&gt;Node23 -->
<g id="edge22_Node000019_Node000023" class="edge">
<title>Node19&#45;&gt;Node23</title>
<g id="a_edge22_Node000019_Node000023"><a xlink:title=" ">
<path fill="none" stroke="#63b8ff" d="M1834.54,-110.09C1816.77,-101.79 1790.16,-89.36 1769.67,-79.79"/>
<polygon fill="#63b8ff" stroke="#63b8ff" points="1771.22,-76.65 1760.68,-75.59 1768.26,-83 1771.22,-76.65"/>
</a>
</g>
</g>
<!-- Node24 -->
<g id="Node000024" class="node">
<title>Node24</title>
<g id="a_Node000024"><a xlink:href="../../dc/d12/all__shapes_8h.html" target="_top" xlink:title=" ">
<polygon fill="#fff0f0" stroke="red" points="1911,-74.5 1796.75,-74.5 1796.75,-55.25 1911,-55.25 1911,-74.5"/>
<text text-anchor="middle" x="1853.88" y="-61" font-family="Helvetica,sans-Serif" font-size="10.00">../objects/all_shapes.h</text>
</a>
</g>
</g>
<!-- Node19&#45;&gt;Node24 -->
<g id="edge23_Node000019_Node000024" class="edge">
<title>Node19&#45;&gt;Node24</title>
<g id="a_edge23_Node000019_Node000024"><a xlink:title=" ">
<path fill="none" stroke="#63b8ff" d="M1853.88,-110.33C1853.88,-103.82 1853.88,-94.67 1853.88,-86.37"/>
<polygon fill="#63b8ff" stroke="#63b8ff" points="1857.38,-86.37 1853.88,-76.37 1850.38,-86.37 1857.38,-86.37"/>
</a>
</g>
</g>
<!-- Node34 -->
<g id="Node000034" class="node">
<title>Node34</title>
<g id="a_Node000034"><a xlink:href="../../d6/d68/vector_8h.html" target="_top" xlink:title=" ">
<polygon fill="white" stroke="#666666" points="1979.12,-74.5 1928.62,-74.5 1928.62,-55.25 1979.12,-55.25 1979.12,-74.5"/>
<text text-anchor="middle" x="1953.88" y="-61" font-family="Helvetica,sans-Serif" font-size="10.00">vector.h</text>
</a>
</g>
</g>
<!-- Node19&#45;&gt;Node34 -->
<g id="edge24_Node000019_Node000034" class="edge">
<title>Node19&#45;&gt;Node34</title>
<g id="a_edge24_Node000019_Node000034"><a xlink:title=" ">
<path fill="none" stroke="#63b8ff" d="M1870.84,-110.09C1886.14,-101.94 1908.91,-89.82 1926.74,-80.33"/>
<polygon fill="#63b8ff" stroke="#63b8ff" points="1928.31,-83.45 1935.49,-75.66 1925.02,-77.27 1928.31,-83.45"/>
</a>
</g>
</g>
<!-- Node42&#45;&gt;Node9 -->
<g id="edge33_Node000042_Node000009" class="edge">
<title>Node42&#45;&gt;Node9</title>
<g id="a_edge33_Node000042_Node000009"><a xlink:title=" ">
<path fill="none" stroke="#63b8ff" d="M807.41,-56.77C804.52,-56.25 801.65,-55.74 798.88,-55.25 708.25,-39.24 682.15,-39.65 589.58,-19.68"/>
<polygon fill="#63b8ff" stroke="#63b8ff" points="590.57,-16.32 580.06,-17.61 589.08,-23.16 590.57,-16.32"/>
</a>
</g>
</g>
<!-- Node42&#45;&gt;Node13 -->
<g id="edge30_Node000042_Node000013" class="edge">
<title>Node42&#45;&gt;Node13</title>
<g id="a_edge30_Node000042_Node000013"><a xlink:title=" ">
<path fill="none" stroke="#63b8ff" d="M884.19,-59.67C946.52,-52.67 1074.01,-37.73 1191.81,-19.66"/>
<polygon fill="#63b8ff" stroke="#63b8ff" points="1192.33,-23.12 1201.68,-18.13 1191.26,-16.2 1192.33,-23.12"/>
</a>
</g>
</g>
<!-- Node42&#45;&gt;Node14 -->
<g id="edge29_Node000042_Node000014" class="edge">
<title>Node42&#45;&gt;Node14</title>
<g id="a_edge29_Node000042_Node000014"><a xlink:title=" ">
<path fill="none" stroke="#63b8ff" d="M807.43,-56.65C804.54,-56.16 801.66,-55.69 798.88,-55.25 680.24,-36.64 647.01,-38.3 524.86,-19.48"/>
<polygon fill="#63b8ff" stroke="#63b8ff" points="525.47,-16.03 515.05,-17.95 524.39,-22.95 525.47,-16.03"/>
</a>
</g>
</g>
<!-- Node43 -->
<g id="Node000043" class="node">
<title>Node43</title>
<g id="a_Node000043"><a xlink:title=" ">
<polygon fill="#e0e0e0" stroke="#999999" points="1185.5,-19.25 1134.25,-19.25 1134.25,0 1185.5,0 1185.5,-19.25"/>
<text text-anchor="middle" x="1159.88" y="-5.75" font-family="Helvetica,sans-Serif" font-size="10.00">QDialog</text>
</a>
</g>
</g>
<!-- Node42&#45;&gt;Node43 -->
<g id="edge26_Node000042_Node000043" class="edge">
<title>Node42&#45;&gt;Node43</title>
<g id="a_edge26_Node000042_Node000043"><a xlink:title=" ">
<path fill="none" stroke="#63b8ff" d="M884.21,-57.49C888.81,-56.73 893.45,-55.97 897.88,-55.25 995.16,-39.47 1022.83,-39.47 1122.72,-19.54"/>
<polygon fill="#63b8ff" stroke="#63b8ff" points="1123.34,-22.98 1132.45,-17.57 1121.96,-16.12 1123.34,-22.98"/>
</a>
</g>
</g>
<!-- Node44 -->
<g id="Node000044" class="node">
<title>Node44</title>
<g id="a_Node000044"><a xlink:title=" ">
<polygon fill="#e0e0e0" stroke="#999999" points="1116,-19.25 1025.75,-19.25 1025.75,0 1116,0 1116,-19.25"/>
<text text-anchor="middle" x="1070.88" y="-5.75" font-family="Helvetica,sans-Serif" font-size="10.00">QStackedWidget</text>
</a>
</g>
</g>
<!-- Node42&#45;&gt;Node44 -->
<g id="edge27_Node000042_Node000044" class="edge">
<title>Node42&#45;&gt;Node44</title>
<g id="a_edge27_Node000042_Node000044"><a xlink:title=" ">
<path fill="none" stroke="#63b8ff" d="M884.3,-54.78C922.16,-45.82 980.17,-32.09 1021.44,-22.32"/>
<polygon fill="#63b8ff" stroke="#63b8ff" points="1022.21,-25.74 1031.14,-20.03 1020.6,-18.93 1022.21,-25.74"/>
</a>
</g>
</g>
<!-- Node45 -->
<g id="Node000045" class="node">
<title>Node45</title>
<g id="a_Node000045"><a xlink:title=" ">
<polygon fill="#e0e0e0" stroke="#999999" points="819.25,-19.25 760.5,-19.25 760.5,0 819.25,0 819.25,-19.25"/>
<text text-anchor="middle" x="789.88" y="-5.75" font-family="Helvetica,sans-Serif" font-size="10.00">QLineEdit</text>
</a>
</g>
</g>
<!-- Node42&#45;&gt;Node45 -->
<g id="edge28_Node000042_Node000045" class="edge">
<title>Node42&#45;&gt;Node45</title>
<g id="a_edge28_Node000042_Node000045"><a xlink:title=" ">
<path fill="none" stroke="#63b8ff" d="M836.38,-54.84C828.44,-47.3 816.93,-36.35 807.34,-27.23"/>
<polygon fill="#63b8ff" stroke="#63b8ff" points="809.99,-24.92 800.33,-20.57 805.17,-29.99 809.99,-24.92"/>
</a>
</g>
</g>
<!-- Node46 -->
<g id="Node000046" class="node">
<title>Node46</title>
<g id="a_Node000046"><a xlink:title=" ">
<polygon fill="#e0e0e0" stroke="#999999" points="1007.5,-19.25 932.25,-19.25 932.25,0 1007.5,0 1007.5,-19.25"/>
<text text-anchor="middle" x="969.88" y="-5.75" font-family="Helvetica,sans-Serif" font-size="10.00">QFormLayout</text>
</a>
</g>
</g>
<!-- Node42&#45;&gt;Node46 -->
<g id="edge31_Node000042_Node000046" class="edge">
<title>Node42&#45;&gt;Node46</title>
<g id="a_edge31_Node000042_Node000046"><a xlink:title=" ">
<path fill="none" stroke="#63b8ff" d="M866.91,-54.84C886.51,-46.43 915.98,-33.77 938.38,-24.15"/>
<polygon fill="#63b8ff" stroke="#63b8ff" points="939.54,-27.46 947.35,-20.3 936.78,-21.03 939.54,-27.46"/>
</a>
</g>
</g>
<!-- Node47 -->
<g id="Node000047" class="node">
<title>Node47</title>
<g id="a_Node000047"><a xlink:title=" ">
<polygon fill="#e0e0e0" stroke="#999999" points="914.62,-19.25 837.12,-19.25 837.12,0 914.62,0 914.62,-19.25"/>
<text text-anchor="middle" x="875.88" y="-5.75" font-family="Helvetica,sans-Serif" font-size="10.00">QHBoxLayout</text>
</a>
</g>
</g>
<!-- Node42&#45;&gt;Node47 -->
<g id="edge32_Node000042_Node000047" class="edge">
<title>Node42&#45;&gt;Node47</title>
<g id="a_edge32_Node000042_Node000047"><a xlink:title=" ">
<path fill="none" stroke="#63b8ff" d="M850.83,-55.08C854.76,-48.11 860.39,-38.12 865.31,-29.37"/>
<polygon fill="#63b8ff" stroke="#63b8ff" points="868.21,-31.36 870.07,-20.93 862.11,-27.92 868.21,-31.36"/>
</a>
</g>
</g>
<!-- Node48&#45;&gt;Node9 -->
<g id="edge42_Node000048_Node000009" class="edge">
<title>Node48&#45;&gt;Node9</title>
<g id="a_edge42_Node000048_Node000009"><a xlink:title=" ">
<path fill="none" stroke="#63b8ff" d="M707.66,-54.84C674.87,-45.35 623.42,-30.46 589.43,-20.62"/>
<polygon fill="#63b8ff" stroke="#63b8ff" points="590.65,-17.33 580.07,-17.92 588.7,-24.06 590.65,-17.33"/>
</a>
</g>
</g>
<!-- Node48&#45;&gt;Node13 -->
<g id="edge39_Node000048_Node000013" class="edge">
<title>Node48&#45;&gt;Node13</title>
<g id="a_edge39_Node000048_Node000013"><a xlink:title=" ">
<path fill="none" stroke="#63b8ff" d="M789.91,-56.35C792.94,-55.96 795.95,-55.59 798.88,-55.25 970.71,-35.1 1017.82,-42.88 1191.82,-19.56"/>
<polygon fill="#63b8ff" stroke="#63b8ff" points="1192.25,-23.03 1201.69,-18.22 1191.31,-16.09 1192.25,-23.03"/>
</a>
</g>
</g>
<!-- Node48&#45;&gt;Node14 -->
<g id="edge41_Node000048_Node000014" class="edge">
<title>Node48&#45;&gt;Node14</title>
<g id="a_edge41_Node000048_Node000014"><a xlink:title=" ">
<path fill="none" stroke="#63b8ff" d="M693.96,-54.78C646.83,-45.24 572.99,-30.29 524.51,-20.47"/>
<polygon fill="#63b8ff" stroke="#63b8ff" points="525.34,-17.07 514.85,-18.52 523.95,-23.93 525.34,-17.07"/>
</a>
</g>
</g>
<!-- Node48&#45;&gt;Node43 -->
<g id="edge35_Node000048_Node000043" class="edge">
<title>Node48&#45;&gt;Node43</title>
<g id="a_edge35_Node000048_Node000043"><a xlink:title=" ">
<path fill="none" stroke="#63b8ff" d="M789.92,-56.42C792.95,-56.01 795.95,-55.62 798.88,-55.25 939.95,-37.33 979.44,-44.38 1122.99,-19.35"/>
<polygon fill="#63b8ff" stroke="#63b8ff" points="1123.23,-22.86 1132.47,-17.68 1122.02,-15.97 1123.23,-22.86"/>
</a>
</g>
</g>
<!-- Node48&#45;&gt;Node45 -->
<g id="edge38_Node000048_Node000045" class="edge">
<title>Node48&#45;&gt;Node45</title>
<g id="a_edge38_Node000048_Node000045"><a xlink:title=" ">
<path fill="none" stroke="#63b8ff" d="M747.3,-55.08C754.41,-47.65 764.82,-36.79 773.56,-27.66"/>
<polygon fill="#63b8ff" stroke="#63b8ff" points="775.83,-30.35 780.22,-20.7 770.78,-25.5 775.83,-30.35"/>
</a>
</g>
</g>
<!-- Node48&#45;&gt;Node47 -->
<g id="edge40_Node000048_Node000047" class="edge">
<title>Node48&#45;&gt;Node47</title>
<g id="a_edge40_Node000048_Node000047"><a xlink:title=" ">
<path fill="none" stroke="#63b8ff" d="M762.12,-54.84C784.06,-46.31 817.22,-33.42 842.09,-23.76"/>
<polygon fill="#63b8ff" stroke="#63b8ff" points="843.06,-27.14 851.11,-20.25 840.52,-20.61 843.06,-27.14"/>
</a>
</g>
</g>
<!-- Node49 -->
<g id="Node000049" class="node">
<title>Node49</title>
<g id="a_Node000049"><a xlink:title=" ">
<polygon fill="#e0e0e0" stroke="#999999" points="742.5,-19.25 673.25,-19.25 673.25,0 742.5,0 742.5,-19.25"/>
<text text-anchor="middle" x="707.88" y="-5.75" font-family="Helvetica,sans-Serif" font-size="10.00">QCheckBox</text>
</a>
</g>
</g>
<!-- Node48&#45;&gt;Node49 -->
<g id="edge36_Node000048_Node000049" class="edge">
<title>Node48&#45;&gt;Node49</title>
<g id="a_edge36_Node000048_Node000049"><a xlink:title=" ">
<path fill="none" stroke="#63b8ff" d="M733.76,-55.08C729.7,-48.11 723.88,-38.12 718.79,-29.37"/>
<polygon fill="#63b8ff" stroke="#63b8ff" points="721.92,-27.8 713.87,-20.92 715.87,-31.32 721.92,-27.8"/>
</a>
</g>
</g>
<!-- Node50 -->
<g id="Node000050" class="node">
<title>Node50</title>
<g id="a_Node000050"><a xlink:title=" ">
<polygon fill="#e0e0e0" stroke="#999999" points="655.62,-19.25 596.12,-19.25 596.12,0 655.62,0 655.62,-19.25"/>
<text text-anchor="middle" x="625.88" y="-5.75" font-family="Helvetica,sans-Serif" font-size="10.00">QTextEdit</text>
</a>
</g>
</g>
<!-- Node48&#45;&gt;Node50 -->
<g id="edge37_Node000048_Node000050" class="edge">
<title>Node48&#45;&gt;Node50</title>
<g id="a_edge37_Node000048_Node000050"><a xlink:title=" ">
<path fill="none" stroke="#63b8ff" d="M719.71,-54.84C702.09,-46.54 675.72,-34.11 655.41,-24.54"/>
<polygon fill="#63b8ff" stroke="#63b8ff" points="657.05,-21.44 646.51,-20.35 654.06,-27.78 657.05,-21.44"/>
</a>
</g>
</g>
<!-- Node51 -->
<g id="Node000051" class="node">
<title>Node51</title>
<g id="a_Node000051"><a xlink:title=" ">
<polygon fill="#e0e0e0" stroke="#999999" points="420.12,-19.25 351.62,-19.25 351.62,0 420.12,0 420.12,-19.25"/>
<text text-anchor="middle" x="385.88" y="-5.75" font-family="Helvetica,sans-Serif" font-size="10.00">QScrollArea</text>
</a>
</g>
</g>
<!-- Node48&#45;&gt;Node51 -->
<g id="edge43_Node000048_Node000051" class="edge">
<title>Node48&#45;&gt;Node51</title>
<g id="a_edge43_Node000048_Node000051"><a xlink:title=" ">
<path fill="none" stroke="#63b8ff" d="M687.63,-57.27C628.51,-49.48 528.11,-35.71 431.57,-19.46"/>
<polygon fill="#63b8ff" stroke="#63b8ff" points="432.37,-16.04 421.92,-17.82 431.2,-22.94 432.37,-16.04"/>
</a>
</g>
</g>
<!-- Node52&#45;&gt;Node9 -->
<g id="edge49_Node000052_Node000009" class="edge">
<title>Node52&#45;&gt;Node9</title>
<g id="a_edge49_Node000052_Node000009"><a xlink:title=" ">
<path fill="none" stroke="#63b8ff" d="M712.69,-110.08C694.99,-101.53 668.17,-88.02 645.88,-74.5 620.95,-59.38 593.76,-39.87 575.66,-26.41"/>
<polygon fill="#63b8ff" stroke="#63b8ff" points="577.91,-23.73 567.81,-20.53 573.72,-29.33 577.91,-23.73"/>
</a>
</g>
</g>
<!-- Node52&#45;&gt;Node13 -->
<g id="edge46_Node000052_Node000013" class="edge">
<title>Node52&#45;&gt;Node13</title>
<g id="a_edge46_Node000052_Node000013"><a xlink:title=" ">
<path fill="none" stroke="#63b8ff" d="M783.59,-110.08C823.73,-102.41 880.5,-90.18 928.88,-74.5 949.57,-67.79 952.99,-61.32 973.88,-55.25 1065.98,-28.48 1094.75,-35.65 1191.93,-19.69"/>
<polygon fill="#63b8ff" stroke="#63b8ff" points="1192.39,-23.16 1201.66,-18.05 1191.22,-16.26 1192.39,-23.16"/>
</a>
</g>
</g>
<!-- Node52&#45;&gt;Node14 -->
<g id="edge48_Node000052_Node000014" class="edge">
<title>Node52&#45;&gt;Node14</title>
<g id="a_edge48_Node000052_Node000014"><a xlink:title=" ">
<path fill="none" stroke="#63b8ff" d="M672.98,-110.01C623.18,-101.57 556.3,-88.27 532.88,-74.5 513.9,-63.35 497.81,-43.73 487.61,-29.17"/>
<polygon fill="#63b8ff" stroke="#63b8ff" points="490.57,-27.29 482.11,-20.91 484.74,-31.17 490.57,-27.29"/>
</a>
</g>
</g>
<!-- Node52&#45;&gt;Node43 -->
<g id="edge45_Node000052_Node000043" class="edge">
<title>Node52&#45;&gt;Node43</title>
<g id="a_edge45_Node000052_Node000043"><a xlink:title=" ">
<path fill="none" stroke="#63b8ff" d="M771.1,-110.01C804.02,-101.94 852.08,-89.19 892.88,-74.5 912.58,-67.41 915.9,-61.53 935.88,-55.25 1014.1,-30.66 1039.28,-36.9 1122.86,-19.55"/>
<polygon fill="#63b8ff" stroke="#63b8ff" points="1123.39,-23.01 1132.44,-17.5 1121.93,-16.17 1123.39,-23.01"/>
</a>
</g>
</g>
<!-- Node52&#45;&gt;Node48 -->
<g id="edge51_Node000052_Node000048" class="edge">
<title>Node52&#45;&gt;Node48</title>
<g id="a_edge51_Node000052_Node000048"><a xlink:title=" ">
<path fill="none" stroke="#63b8ff" d="M733.03,-110.33C733.9,-103.74 735.12,-94.46 736.22,-86.07"/>
<polygon fill="#63b8ff" stroke="#63b8ff" points="739.66,-86.73 737.5,-76.36 732.72,-85.82 739.66,-86.73"/>
</a>
</g>
</g>
<!-- Node52&#45;&gt;Node51 -->
<g id="edge47_Node000052_Node000051" class="edge">
<title>Node52&#45;&gt;Node51</title>
<g id="a_edge47_Node000052_Node000051"><a xlink:title=" ">
<path fill="none" stroke="#63b8ff" d="M661.64,-110.84C616.04,-104.12 555.84,-92.72 504.88,-74.5 469.84,-61.97 432.51,-40.43 409.2,-25.86"/>
<polygon fill="#63b8ff" stroke="#63b8ff" points="411.12,-22.94 400.81,-20.53 407.37,-28.85 411.12,-22.94"/>
</a>
</g>
</g>
<!-- Node53 -->
<g id="Node000053" class="node">
<title>Node53</title>
<g id="a_Node000053"><a xlink:title=" ">
<polygon fill="#e0e0e0" stroke="#999999" points="593.5,-74.5 542.25,-74.5 542.25,-55.25 593.5,-55.25 593.5,-74.5"/>
<text text-anchor="middle" x="567.88" y="-61" font-family="Helvetica,sans-Serif" font-size="10.00">QFrame</text>
</a>
</g>
</g>
<!-- Node52&#45;&gt;Node53 -->
<g id="edge50_Node000052_Node000053" class="edge">
<title>Node52&#45;&gt;Node53</title>
<g id="a_edge50_Node000052_Node000053"><a xlink:title=" ">
<path fill="none" stroke="#63b8ff" d="M704.05,-110.09C676.75,-101.22 634.93,-87.65 604.84,-77.88"/>
<polygon fill="#63b8ff" stroke="#63b8ff" points="605.97,-74.56 595.37,-74.8 603.8,-81.22 605.97,-74.56"/>
</a>
</g>
</g>
<!-- Node55 -->
<g id="Node000055" class="node">
<title>Node55</title>
<g id="a_Node000055"><a xlink:title=" ">
<polygon fill="#e0e0e0" stroke="#999999" points="2250.75,-74.5 2141,-74.5 2141,-55.25 2250.75,-55.25 2250.75,-74.5"/>
<text text-anchor="middle" x="2195.88" y="-61" font-family="Helvetica,sans-Serif" font-size="10.00">QStyledItemDelegate</text>
</a>
</g>
</g>
<!-- Node54&#45;&gt;Node55 -->
<g id="edge53_Node000054_Node000055" class="edge">
<title>Node54&#45;&gt;Node55</title>
<g id="a_edge53_Node000054_Node000055"><a xlink:title=" ">
<path fill="none" stroke="#63b8ff" d="M2082.12,-110.09C2104.06,-101.56 2137.22,-88.67 2162.09,-79.01"/>
<polygon fill="#63b8ff" stroke="#63b8ff" points="2163.06,-82.39 2171.11,-75.5 2160.52,-75.86 2163.06,-82.39"/>
</a>
</g>
</g>
<!-- Node57 -->
<g id="Node000057" class="node">
<title>Node57</title>
<g id="a_Node000057"><a xlink:title=" ">
<polygon fill="#e0e0e0" stroke="#999999" points="2317.38,-74.5 2268.38,-74.5 2268.38,-55.25 2317.38,-55.25 2317.38,-74.5"/>
<text text-anchor="middle" x="2292.88" y="-61" font-family="Helvetica,sans-Serif" font-size="10.00">QString</text>
</a>
</g>
</g>
<!-- Node56&#45;&gt;Node57 -->
<g id="edge55_Node000056_Node000057" class="edge">
<title>Node56&#45;&gt;Node57</title>
<g id="a_edge55_Node000056_Node000057"><a xlink:title=" ">
<path fill="none" stroke="#63b8ff" d="M2292.88,-110.33C2292.88,-103.82 2292.88,-94.67 2292.88,-86.37"/>
<polygon fill="#63b8ff" stroke="#63b8ff" points="2296.38,-86.37 2292.88,-76.37 2289.38,-86.37 2296.38,-86.37"/>
</a>
</g>
</g>
<!-- Node58 -->
<g id="Node000058" class="node">
<title>Node58</title>
<g id="a_Node000058"><a xlink:title=" ">
<polygon fill="#e0e0e0" stroke="#999999" points="2374.5,-74.5 2335.25,-74.5 2335.25,-55.25 2374.5,-55.25 2374.5,-74.5"/>
<text text-anchor="middle" x="2354.88" y="-61" font-family="Helvetica,sans-Serif" font-size="10.00">utility</text>
</a>
</g>
</g>
<!-- Node56&#45;&gt;Node58 -->
<g id="edge56_Node000056_Node000058" class="edge">
<title>Node56&#45;&gt;Node58</title>
<g id="a_edge56_Node000056_Node000058"><a xlink:title=" ">
<path fill="none" stroke="#63b8ff" d="M2303.39,-110.09C2312.26,-102.47 2325.19,-91.37 2335.86,-82.2"/>
<polygon fill="#63b8ff" stroke="#63b8ff" points="2338.06,-84.93 2343.36,-75.76 2333.5,-79.62 2338.06,-84.93"/>
</a>
</g>
</g>
<!-- Node59&#45;&gt;Node11 -->
<g id="edge60_Node000059_Node000011" class="edge">
<title>Node59&#45;&gt;Node11</title>
<g id="a_edge60_Node000059_Node000011"><a xlink:title=" ">
<path fill="none" stroke="#63b8ff" d="M1129.55,-110.09C1112.8,-101.83 1087.74,-89.48 1068.37,-79.93"/>
<polygon fill="#63b8ff" stroke="#63b8ff" points="1070.16,-76.9 1059.64,-75.62 1067.06,-83.18 1070.16,-76.9"/>
</a>
</g>
</g>
<!-- Node60 -->
<g id="Node000060" class="node">
<title>Node60</title>
<g id="a_Node000060"><a xlink:title=" ">
<polygon fill="#e0e0e0" stroke="#999999" points="1133.88,-74.5 1081.88,-74.5 1081.88,-55.25 1133.88,-55.25 1133.88,-74.5"/>
<text text-anchor="middle" x="1107.88" y="-61" font-family="Helvetica,sans-Serif" font-size="10.00">QObject</text>
</a>
</g>
</g>
<!-- Node59&#45;&gt;Node60 -->
<g id="edge58_Node000059_Node000060" class="edge">
<title>Node59&#45;&gt;Node60</title>
<g id="a_edge58_Node000059_Node000060"><a xlink:title=" ">
<path fill="none" stroke="#63b8ff" d="M1141.27,-110.33C1135.92,-103.21 1128.2,-92.93 1121.53,-84.05"/>
<polygon fill="#63b8ff" stroke="#63b8ff" points="1124.34,-81.96 1115.53,-76.07 1118.74,-86.17 1124.34,-81.96"/>
</a>
</g>
</g>
<!-- Node61 -->
<g id="Node000061" class="node">
<title>Node61</title>
<g id="a_Node000061"><a xlink:title=" ">
<polygon fill="#e0e0e0" stroke="#999999" points="1203.88,-74.5 1151.88,-74.5 1151.88,-55.25 1203.88,-55.25 1203.88,-74.5"/>
<text text-anchor="middle" x="1177.88" y="-61" font-family="Helvetica,sans-Serif" font-size="10.00">QVector</text>
</a>
</g>
</g>
<!-- Node59&#45;&gt;Node61 -->
<g id="edge59_Node000059_Node000061" class="edge">
<title>Node59&#45;&gt;Node61</title>
<g id="a_edge59_Node000059_Node000061"><a xlink:title=" ">
<path fill="none" stroke="#63b8ff" d="M1152.83,-110.33C1156.76,-103.36 1162.39,-93.37 1167.31,-84.62"/>
<polygon fill="#63b8ff" stroke="#63b8ff" points="1170.21,-86.61 1172.07,-76.18 1164.11,-83.17 1170.21,-86.61"/>
</a>
</g>
</g>
<!-- Node62 -->
<g id="Node000062" class="node">
<title>Node62</title>
<g id="a_Node000062"><a xlink:title=" ">
<polygon fill="#e0e0e0" stroke="#999999" points="1311.62,-74.5 1222.12,-74.5 1222.12,-55.25 1311.62,-55.25 1311.62,-74.5"/>
<text text-anchor="middle" x="1266.88" y="-61" font-family="Helvetica,sans-Serif" font-size="10.00">QJsonDocument</text>
</a>
</g>
</g>
<!-- Node59&#45;&gt;Node62 -->
<g id="edge61_Node000059_Node000062" class="edge">
<title>Node59&#45;&gt;Node62</title>
<g id="a_edge61_Node000059_Node000062"><a xlink:title=" ">
<path fill="none" stroke="#63b8ff" d="M1168.06,-110.09C1186.78,-101.72 1214.9,-89.13 1236.36,-79.53"/>
<polygon fill="#63b8ff" stroke="#63b8ff" points="1237.51,-82.85 1245.21,-75.57 1234.65,-76.46 1237.51,-82.85"/>
</a>
</g>
</g>
<!-- Node63 -->
<g id="Node000063" class="node">
<title>Node63</title>
<g id="a_Node000063"><a xlink:title=" ">
<polygon fill="#e0e0e0" stroke="#999999" points="1397.75,-74.5 1330,-74.5 1330,-55.25 1397.75,-55.25 1397.75,-74.5"/>
<text text-anchor="middle" x="1363.88" y="-61" font-family="Helvetica,sans-Serif" font-size="10.00">QJsonArray</text>
</a>
</g>
</g>
<!-- Node59&#45;&gt;Node63 -->
<g id="edge62_Node000059_Node000063" class="edge">
<title>Node59&#45;&gt;Node63</title>
<g id="a_edge62_Node000059_Node000063"><a xlink:title=" ">
<path fill="none" stroke="#63b8ff" d="M1184.52,-110.09C1221.51,-100.97 1278.73,-86.86 1318.56,-77.05"/>
<polygon fill="#63b8ff" stroke="#63b8ff" points="1319.21,-80.49 1328.08,-74.7 1317.54,-73.69 1319.21,-80.49"/>
</a>
</g>
</g>
<!-- Node64 -->
<g id="Node000064" class="node">
<title>Node64</title>
<g id="a_Node000064"><a xlink:title=" ">
<polygon fill="#e0e0e0" stroke="#999999" points="1488.38,-74.5 1415.38,-74.5 1415.38,-55.25 1488.38,-55.25 1488.38,-74.5"/>
<text text-anchor="middle" x="1451.88" y="-61" font-family="Helvetica,sans-Serif" font-size="10.00">QJsonObject</text>
</a>
</g>
</g>
<!-- Node59&#45;&gt;Node64 -->
<g id="edge63_Node000059_Node000064" class="edge">
<title>Node59&#45;&gt;Node64</title>
<g id="a_edge63_Node000059_Node000064"><a xlink:title=" ">
<path fill="none" stroke="#63b8ff" d="M1202.5,-110.02C1252.49,-101.62 1328.82,-88.61 1403.97,-75"/>
<polygon fill="#63b8ff" stroke="#63b8ff" points="1404.35,-78.49 1413.56,-73.26 1403.09,-71.61 1404.35,-78.49"/>
</a>
</g>
</g>
<!-- Node65 -->
<g id="Node000065" class="node">
<title>Node65</title>
<g id="a_Node000065"><a xlink:title=" ">
<polygon fill="#e0e0e0" stroke="#999999" points="1558.88,-74.5 1506.88,-74.5 1506.88,-55.25 1558.88,-55.25 1558.88,-74.5"/>
<text text-anchor="middle" x="1532.88" y="-61" font-family="Helvetica,sans-Serif" font-size="10.00">QDebug</text>
</a>
</g>
</g>
<!-- Node59&#45;&gt;Node65 -->
<g id="edge64_Node000059_Node000065" class="edge">
<title>Node59&#45;&gt;Node65</title>
<g id="a_edge64_Node000059_Node000065"><a xlink:title=" ">
<path fill="none" stroke="#63b8ff" d="M1227.92,-110C1309.68,-100.5 1432.32,-85.7 1495.49,-74.71"/>
<polygon fill="#63b8ff" stroke="#63b8ff" points="1495.87,-78.2 1505.08,-72.97 1494.62,-71.31 1495.87,-78.2"/>
</a>
</g>
</g>
<!-- Node66 -->
<g id="Node000066" class="node">
<title>Node66</title>
<g id="a_Node000066"><a xlink:title=" ">
<polygon fill="#e0e0e0" stroke="#999999" points="1623.25,-74.5 1576.5,-74.5 1576.5,-55.25 1623.25,-55.25 1623.25,-74.5"/>
<text text-anchor="middle" x="1599.88" y="-61" font-family="Helvetica,sans-Serif" font-size="10.00">QHash</text>
</a>
</g>
</g>
<!-- Node59&#45;&gt;Node66 -->
<g id="edge65_Node000059_Node000066" class="edge">
<title>Node59&#45;&gt;Node66</title>
<g id="a_edge65_Node000059_Node000066"><a xlink:title=" ">
<path fill="none" stroke="#63b8ff" d="M1227.9,-111.31C1332.3,-101.01 1507.65,-83.36 1565.03,-74.58"/>
<polygon fill="#63b8ff" stroke="#63b8ff" points="1565.43,-78.06 1574.71,-72.95 1564.27,-71.16 1565.43,-78.06"/>
</a>
</g>
</g>
</g>
</svg>
