<?xml version="1.0" encoding="UTF-8" standalone="no"?>
<!DOCTYPE svg PUBLIC "-//W3C//DTD SVG 1.1//EN"
 "http://www.w3.org/Graphics/SVG/1.1/DTD/svg11.dtd">
<!-- Generated by graphviz version 12.2.1 (20241206.2353)
 -->
<!-- Title: Line::getStartPoint Pages: 1 -->
<!--zoomable 143 -->

<svg id="main" version="1.1" xmlns="http://www.w3.org/2000/svg" xmlns:xlink="http://www.w3.org/1999/xlink" xml:space="preserve" onload="init(evt)">

<style type="text/css"><![CDATA[
.node, .edge {opacity: 0.7;}
.node.selected, .edge.selected {opacity: 1;}
.edge:hover path { stroke: red; }
.edge:hover polygon { stroke: red; fill: red; }
]]></style>

<defs>
  <circle id="rim" cx="0" cy="0" r="7"/>
  <circle id="rim2" cx="0" cy="0" r="3.5"/>
  <g id="zoomPlus">
    <use xlink:href="#rim" fill="#404040"><set attributeName="fill" to="#808080" begin="zoomplus.mouseover" end="zoomplus.mouseout"/></use>
    <path d="M-4,0h8M0,-4v8" fill="none" stroke="white" stroke-width="1.5" pointer-events="none"/>
  </g>
  <g id="zoomMin">
    <use xlink:href="#rim" fill="#404040"><set attributeName="fill" to="#808080" begin="zoomminus.mouseover" end="zoomminus.mouseout"/></use>
    <path d="M-4,0h8" fill="none" stroke="white" stroke-width="1.5" pointer-events="none"/>
  </g>
  <g id="arrowUp" transform="translate(30 24)">
    <use xlink:href="#rim"/>
    <path pointer-events="none" fill="none" stroke="white" stroke-width="1.5" d="M0,-3.0v7 M-2.5,-0.5L0,-3.0L2.5,-0.5"/>
  </g>
  <g id="arrowRight" transform="rotate(90) translate(36 -43)">
    <use xlink:href="#rim"/>
    <path pointer-events="none" fill="none" stroke="white" stroke-width="1.5" d="M0,-3.0v7 M-2.5,-0.5L0,-3.0L2.5,-0.5"/>
  </g>
  <g id="arrowDown" transform="rotate(180) translate(-30 -48)">
    <use xlink:href="#rim"/>
    <path pointer-events="none" fill="none" stroke="white" stroke-width="1.5" d="M0,-3.0v7 M-2.5,-0.5L0,-3.0L2.5,-0.5"/>
  </g>
  <g id="arrowLeft" transform="rotate(270) translate(-36 17)">
    <use xlink:href="#rim"/>
    <path pointer-events="none" fill="none" stroke="white" stroke-width="1.5" d="M0,-3.0v7 M-2.5,-0.5L0,-3.0L2.5,-0.5"/>
  </g>
  <g id="resetDef">
    <use xlink:href="#rim2" fill="#404040"><set attributeName="fill" to="#808080" begin="reset.mouseover" end="reset.mouseout"/></use>
  </g>
</defs>
<script type="application/ecmascript">
var viewWidth = 664;
var viewHeight = 143;
var sectionId = 'dynsection-5';
</script>
<script type="application/ecmascript" xlink:href="../../svg.min.js"/>
<svg id="graph" class="graph">
<g id="viewport">
<title>Line::getStartPoint</title>
<!-- Node1 -->
<g id="Node000001" class="node">
<title>Node1</title>
<g id="a_Node000001"><a xlink:title="Accessor Functions.">
<polygon fill="#999999" stroke="#666666" points="655.75,-73.88 558.75,-73.88 558.75,-54.62 655.75,-54.62 655.75,-73.88"/>
<text text-anchor="middle" x="607.25" y="-60.38" font-family="Helvetica,sans-Serif" font-size="10.00">Line::getStartPoint</text>
</a>
</g>
</g>
<!-- Node2 -->
<g id="Node000002" class="node">
<title>Node2</title>
<g id="a_Node000002"><a xlink:href="../../dc/db7/class_parser.html#af246a0732ef6c7518e5aaee1043d12e4" target="_top" xlink:title="Gets the geometric dimensions of a shape as a JSON array string.">
<polygon fill="white" stroke="#666666" points="513.75,-116.88 368,-116.88 368,-97.62 513.75,-97.62 513.75,-116.88"/>
<text text-anchor="middle" x="440.88" y="-103.38" font-family="Helvetica,sans-Serif" font-size="10.00">Parser::GetShapeDimensions</text>
</a>
</g>
</g>
<!-- Node1&#45;&gt;Node2 -->
<g id="edge1_Node000001_Node000002" class="edge">
<title>Node1&#45;&gt;Node2</title>
<g id="a_edge1_Node000001_Node000002"><a xlink:title=" ">
<path fill="none" stroke="#63b8ff" d="M561.9,-77.44C549.28,-81.07 535.51,-84.92 522.75,-88.25 511.03,-91.31 498.29,-94.41 486.47,-97.19"/>
<polygon fill="#63b8ff" stroke="#63b8ff" points="562.55,-80.89 571.18,-74.74 560.6,-74.17 562.55,-80.89"/>
</a>
</g>
</g>
<!-- Node6 -->
<g id="Node000006" class="node">
<title>Node6</title>
<g id="a_Node000006"><a xlink:href="../../d8/d08/class_render_area_manager.html#af37e63015f3671115d0da8aff234a805" target="_top" xlink:title="Modifies a property of an existing shape based on a key&#45;value pair.">
<polygon fill="white" stroke="#666666" points="496.5,-79.5 385.25,-79.5 385.25,-49 496.5,-49 496.5,-79.5"/>
<text text-anchor="start" x="393.25" y="-66" font-family="Helvetica,sans-Serif" font-size="10.00">RenderAreaManager::</text>
<text text-anchor="middle" x="440.88" y="-54.75" font-family="Helvetica,sans-Serif" font-size="10.00">modifyShape</text>
</a>
</g>
</g>
<!-- Node1&#45;&gt;Node6 -->
<g id="edge6_Node000001_Node000006" class="edge">
<title>Node1&#45;&gt;Node6</title>
<g id="a_edge6_Node000001_Node000006"><a xlink:title=" ">
<path fill="none" stroke="#63b8ff" d="M547.16,-64.25C530.76,-64.25 513.02,-64.25 496.86,-64.25"/>
<polygon fill="#63b8ff" stroke="#63b8ff" points="546.75,-67.75 556.75,-64.25 546.75,-60.75 546.75,-67.75"/>
</a>
</g>
</g>
<!-- Node7 -->
<g id="Node000007" class="node">
<title>Node7</title>
<g id="a_Node000007"><a xlink:href="../../d9/ddf/class_render_area.html#a7fd734dcf63055b10a414b143a45a226" target="_top" xlink:title="Updates display coordinates of a shape&#39;s properties, typically in an associated view.">
<polygon fill="white" stroke="#666666" points="522.75,-30.5 359,-30.5 359,0 522.75,0 522.75,-30.5"/>
<text text-anchor="start" x="367" y="-17" font-family="Helvetica,sans-Serif" font-size="10.00">RenderArea::updateShapeDisplay</text>
<text text-anchor="middle" x="440.88" y="-5.75" font-family="Helvetica,sans-Serif" font-size="10.00">Coords</text>
</a>
</g>
</g>
<!-- Node1&#45;&gt;Node7 -->
<g id="edge7_Node000001_Node000007" class="edge">
<title>Node1&#45;&gt;Node7</title>
<g id="a_edge7_Node000001_Node000007"><a xlink:title=" ">
<path fill="none" stroke="#63b8ff" d="M561.56,-50.93C540.88,-44.76 516.17,-37.4 494.59,-30.96"/>
<polygon fill="#63b8ff" stroke="#63b8ff" points="560.56,-54.28 571.14,-53.78 562.56,-47.57 560.56,-54.28"/>
</a>
</g>
</g>
<!-- Node3 -->
<g id="Node000003" class="node">
<title>Node3</title>
<g id="a_Node000003"><a xlink:href="../../dc/db7/class_parser.html#a8f8932bed758cd3e61de3669fdef1110" target="_top" xlink:title="Appends common shape properties (ID, Type, Dimensions, Pen properties) to a JSON string.">
<polygon fill="white" stroke="#666666" points="323,-134.88 151,-134.88 151,-115.62 323,-115.62 323,-134.88"/>
<text text-anchor="middle" x="237" y="-121.38" font-family="Helvetica,sans-Serif" font-size="10.00">Parser::AppendCommonShapeData</text>
</a>
</g>
</g>
<!-- Node2&#45;&gt;Node3 -->
<g id="edge2_Node000002_Node000003" class="edge">
<title>Node2&#45;&gt;Node3</title>
<g id="a_edge2_Node000002_Node000003"><a xlink:title=" ">
<path fill="none" stroke="#63b8ff" d="M356.3,-114.7C345.38,-115.68 334.18,-116.67 323.23,-117.65"/>
<polygon fill="#63b8ff" stroke="#63b8ff" points="356.41,-118.21 366.06,-113.83 355.78,-111.23 356.41,-118.21"/>
</a>
</g>
</g>
<!-- Node5 -->
<g id="Node000005" class="node">
<title>Node5</title>
<g id="a_Node000005"><a xlink:href="../../dc/db7/class_parser.html#a3c8d6dcf6e07231eaedb036ebe90b51f" target="_top" xlink:title="Appends all properties specific to Text objects to a JSON string.">
<polygon fill="white" stroke="#666666" points="298.62,-97.88 175.38,-97.88 175.38,-78.62 298.62,-78.62 298.62,-97.88"/>
<text text-anchor="middle" x="237" y="-84.38" font-family="Helvetica,sans-Serif" font-size="10.00">Parser::AppendTextData</text>
</a>
</g>
</g>
<!-- Node2&#45;&gt;Node5 -->
<g id="edge4_Node000002_Node000005" class="edge">
<title>Node2&#45;&gt;Node5</title>
<g id="a_edge4_Node000002_Node000005"><a xlink:title=" ">
<path fill="none" stroke="#63b8ff" d="M356.34,-99.39C337.06,-97.57 316.91,-95.68 298.82,-93.97"/>
<polygon fill="#63b8ff" stroke="#63b8ff" points="355.77,-102.85 366.06,-100.3 356.43,-95.88 355.77,-102.85"/>
</a>
</g>
</g>
<!-- Node4 -->
<g id="Node000004" class="node">
<title>Node4</title>
<g id="a_Node000004"><a xlink:href="../../dc/db7/class_parser.html#ac0dc74d228421b62ece9d9e93511509e" target="_top" xlink:title="Converts a vector of Shape pointers into a JSON string representation.">
<polygon fill="white" stroke="#666666" points="115,-115.88 0,-115.88 0,-96.62 115,-96.62 115,-115.88"/>
<text text-anchor="middle" x="57.5" y="-102.38" font-family="Helvetica,sans-Serif" font-size="10.00">Parser::ShapesToJson</text>
</a>
</g>
</g>
<!-- Node3&#45;&gt;Node4 -->
<g id="edge3_Node000003_Node000004" class="edge">
<title>Node3&#45;&gt;Node4</title>
<g id="a_edge3_Node000003_Node000004"><a xlink:title=" ">
<path fill="none" stroke="#63b8ff" d="M139.39,-114.91C131.17,-114.03 123.04,-113.16 115.29,-112.33"/>
<polygon fill="#63b8ff" stroke="#63b8ff" points="138.81,-118.37 149.12,-115.95 139.55,-111.41 138.81,-118.37"/>
</a>
</g>
</g>
<!-- Node5&#45;&gt;Node4 -->
<g id="edge5_Node000005_Node000004" class="edge">
<title>Node5&#45;&gt;Node4</title>
<g id="a_edge5_Node000005_Node000004"><a xlink:title=" ">
<path fill="none" stroke="#63b8ff" d="M163.85,-95.57C147.65,-97.21 130.69,-98.93 115.22,-100.5"/>
<polygon fill="#63b8ff" stroke="#63b8ff" points="163.81,-99.09 173.41,-94.6 163.11,-92.12 163.81,-99.09"/>
</a>
</g>
</g>
<!-- Node8 -->
<g id="Node000008" class="node">
<title>Node8</title>
<g id="a_Node000008"><a xlink:href="../../d9/ddf/class_render_area.html#a84f2ea379248266648d22338e3904b45" target="_top" xlink:title="Handles mouse release events to finalize a shape move operation.">
<polygon fill="white" stroke="#666666" points="306.5,-30.5 167.5,-30.5 167.5,0 306.5,0 306.5,-30.5"/>
<text text-anchor="start" x="175.5" y="-17" font-family="Helvetica,sans-Serif" font-size="10.00">RenderArea::mouseRelease</text>
<text text-anchor="middle" x="237" y="-5.75" font-family="Helvetica,sans-Serif" font-size="10.00">Event</text>
</a>
</g>
</g>
<!-- Node7&#45;&gt;Node8 -->
<g id="edge8_Node000007_Node000008" class="edge">
<title>Node7&#45;&gt;Node8</title>
<g id="a_edge8_Node000007_Node000008"><a xlink:title=" ">
<path fill="none" stroke="#63b8ff" d="M347.26,-15.25C333.63,-15.25 319.79,-15.25 306.76,-15.25"/>
<polygon fill="#63b8ff" stroke="#63b8ff" points="347.12,-18.75 357.12,-15.25 347.12,-11.75 347.12,-18.75"/>
</a>
</g>
</g>
</g>
</svg>

<g id="navigator" transform="translate(0 0)" fill="#404254">
  <rect fill="#f2f5e9" fill-opacity="0.5" stroke="#606060" stroke-width=".5" x="0" y="0" width="60" height="60"/>
  <use id="zoomplus" xlink:href="#zoomPlus" x="17" y="9" onmousedown="handleZoom(evt,'in')"/>
  <use id="zoomminus" xlink:href="#zoomMin" x="42" y="9" onmousedown="handleZoom(evt,'out')"/>
  <use id="reset" xlink:href="#resetDef" x="30" y="36" onmousedown="handleReset()"/>
   <use id="arrowup" xlink:href="#arrowUp" x="0" y="0" onmousedown="handlePan(0,-1)"/>
  <use id="arrowright" xlink:href="#arrowRight" x="0" y="0" onmousedown="handlePan(1,0)"/>
  <use id="arrowdown" xlink:href="#arrowDown" x="0" y="0" onmousedown="handlePan(0,1)"/>
  <use id="arrowleft" xlink:href="#arrowLeft" x="0" y="0" onmousedown="handlePan(-1,0)"/>
</g>
<svg viewBox="0 0 15 15" width="100%" height="30px" preserveAspectRatio="xMaxYMin meet">
 <g id="arrow_out" transform="scale(0.3 0.3)">
  <a xlink:href="class_line_ae0c35900f7e283b3559263455ac18669_icgraph_org.svg" target="_base">
   <rect id="button" ry="5" rx="5" y="6" x="6" height="38" width="38"
        fill="#f2f5e9" fill-opacity="0.5" stroke="#606060" stroke-width="1.0"/>
   <path id="arrow"
     d="M 11.500037,31.436501 C 11.940474,20.09759 22.043105,11.32322 32.158766,21.979434 L 37.068811,17.246167 C 37.068811,17.246167 37.088388,32 37.088388,32 L 22.160133,31.978069 C 22.160133,31.978069 26.997745,27.140456 26.997745,27.140456 C 18.528582,18.264221 13.291696,25.230495 11.500037,31.436501 z"
     style="fill:#404040;"/>
  </a>
 </g>
</svg>

<style type='text/css'>
<![CDATA[
[data-mouse-over-selected='false'] { opacity: 0.7; }
[data-mouse-over-selected='true']  { opacity: 1.0; }
]]>
</style>
<script type="application/ecmascript"><![CDATA[
document.addEventListener('DOMContentLoaded', (event) => {
  highlightEdges();
  highlightAdjacentNodes();
});
]]></script>
</svg>
