<?xml version="1.0" encoding="UTF-8" standalone="no"?>
<!DOCTYPE svg PUBLIC "-//W3C//DTD SVG 1.1//EN"
 "http://www.w3.org/Graphics/SVG/1.1/DTD/svg11.dtd">
<!-- Generated by graphviz version 12.2.1 (20241206.2353)
 -->
<!-- Title: /Users/gautam/Local/Forge/Team&#45;Alphawolves/2D&#45;Graphics&#45;Modeler/src/backend/ApiClient.cpp Pages: 1 -->
<svg width="634pt" height="172pt"
 viewBox="0.00 0.00 633.50 171.50" xmlns="http://www.w3.org/2000/svg" xmlns:xlink="http://www.w3.org/1999/xlink">
<g id="graph0" class="graph" transform="scale(1 1) rotate(0) translate(4 167.5)">
<title>/Users/gautam/Local/Forge/Team&#45;Alphawolves/2D&#45;Graphics&#45;Modeler/src/backend/ApiClient.cpp</title>
<!-- Node1 -->
<g id="Node000001" class="node">
<title>Node1</title>
<g id="a_Node000001"><a xlink:title=" ">
<polygon fill="#999999" stroke="#666666" points="434.62,-163.5 305.38,-163.5 305.38,-110.5 434.62,-110.5 434.62,-163.5"/>
<text text-anchor="start" x="313.38" y="-150" font-family="Helvetica,sans-Serif" font-size="10.00">/Users/gautam/Local</text>
<text text-anchor="start" x="313.38" y="-138.75" font-family="Helvetica,sans-Serif" font-size="10.00">/Forge/Team&#45;Alphawolves</text>
<text text-anchor="start" x="313.38" y="-127.5" font-family="Helvetica,sans-Serif" font-size="10.00">/2D&#45;Graphics&#45;Modeler/src</text>
<text text-anchor="middle" x="370" y="-116.25" font-family="Helvetica,sans-Serif" font-size="10.00">/backend/ApiClient.cpp</text>
</a>
</g>
</g>
<!-- Node2 -->
<g id="Node000002" class="node">
<title>Node2</title>
<g id="a_Node000002"><a xlink:href="../../d3/dc3/_api_client_8h.html" target="_top" xlink:title="Implements the ApiClient class that makes API requests to the Crow Webservice.">
<polygon fill="white" stroke="#666666" points="402,-74.5 338,-74.5 338,-55.25 402,-55.25 402,-74.5"/>
<text text-anchor="middle" x="370" y="-61" font-family="Helvetica,sans-Serif" font-size="10.00">ApiClient.h</text>
</a>
</g>
</g>
<!-- Node1&#45;&gt;Node2 -->
<g id="edge1_Node000001_Node000002" class="edge">
<title>Node1&#45;&gt;Node2</title>
<g id="a_edge1_Node000001_Node000002"><a xlink:title=" ">
<path fill="none" stroke="#63b8ff" d="M370,-110.29C370,-102.37 370,-93.77 370,-86.27"/>
<polygon fill="#63b8ff" stroke="#63b8ff" points="373.5,-86.5 370,-76.5 366.5,-86.5 373.5,-86.5"/>
</a>
</g>
</g>
<!-- Node3 -->
<g id="Node000003" class="node">
<title>Node3</title>
<g id="a_Node000003"><a xlink:title=" ">
<polygon fill="#e0e0e0" stroke="#999999" points="52,-19.25 0,-19.25 0,0 52,0 52,-19.25"/>
<text text-anchor="middle" x="26" y="-5.75" font-family="Helvetica,sans-Serif" font-size="10.00">QObject</text>
</a>
</g>
</g>
<!-- Node2&#45;&gt;Node3 -->
<g id="edge2_Node000002_Node000003" class="edge">
<title>Node2&#45;&gt;Node3</title>
<g id="a_edge2_Node000002_Node000003"><a xlink:title=" ">
<path fill="none" stroke="#63b8ff" d="M337.8,-60.28C283.34,-53.98 169.42,-39.81 63.52,-19.57"/>
<polygon fill="#63b8ff" stroke="#63b8ff" points="64.28,-16.16 53.8,-17.69 62.95,-23.03 64.28,-16.16"/>
</a>
</g>
</g>
<!-- Node4 -->
<g id="Node000004" class="node">
<title>Node4</title>
<g id="a_Node000004"><a xlink:title=" ">
<polygon fill="#e0e0e0" stroke="#999999" points="200.38,-19.25 69.62,-19.25 69.62,0 200.38,0 200.38,-19.25"/>
<text text-anchor="middle" x="135" y="-5.75" font-family="Helvetica,sans-Serif" font-size="10.00">QNetworkAccessManager</text>
</a>
</g>
</g>
<!-- Node2&#45;&gt;Node4 -->
<g id="edge3_Node000002_Node000004" class="edge">
<title>Node2&#45;&gt;Node4</title>
<g id="a_edge3_Node000002_Node000004"><a xlink:title=" ">
<path fill="none" stroke="#63b8ff" d="M337.82,-56.58C298.68,-47.71 232.15,-32.64 186.01,-22.18"/>
<polygon fill="#63b8ff" stroke="#63b8ff" points="187.04,-18.83 176.51,-20.03 185.49,-25.66 187.04,-18.83"/>
</a>
</g>
</g>
<!-- Node5 -->
<g id="Node000005" class="node">
<title>Node5</title>
<g id="a_Node000005"><a xlink:title=" ">
<polygon fill="#e0e0e0" stroke="#999999" points="303.88,-19.25 218.12,-19.25 218.12,0 303.88,0 303.88,-19.25"/>
<text text-anchor="middle" x="261" y="-5.75" font-family="Helvetica,sans-Serif" font-size="10.00">QNetworkReply</text>
</a>
</g>
</g>
<!-- Node2&#45;&gt;Node5 -->
<g id="edge4_Node000002_Node000005" class="edge">
<title>Node2&#45;&gt;Node5</title>
<g id="a_edge4_Node000002_Node000005"><a xlink:title=" ">
<path fill="none" stroke="#63b8ff" d="M351.51,-54.84C334.6,-46.58 309.31,-34.23 289.76,-24.68"/>
<polygon fill="#63b8ff" stroke="#63b8ff" points="291.46,-21.61 280.94,-20.37 288.39,-27.9 291.46,-21.61"/>
</a>
</g>
</g>
<!-- Node6 -->
<g id="Node000006" class="node">
<title>Node6</title>
<g id="a_Node000006"><a xlink:title=" ">
<polygon fill="#e0e0e0" stroke="#999999" points="418.5,-19.25 321.5,-19.25 321.5,0 418.5,0 418.5,-19.25"/>
<text text-anchor="middle" x="370" y="-5.75" font-family="Helvetica,sans-Serif" font-size="10.00">QNetworkRequest</text>
</a>
</g>
</g>
<!-- Node2&#45;&gt;Node6 -->
<g id="edge5_Node000002_Node000006" class="edge">
<title>Node2&#45;&gt;Node6</title>
<g id="a_edge5_Node000002_Node000006"><a xlink:title=" ">
<path fill="none" stroke="#63b8ff" d="M370,-55.08C370,-48.57 370,-39.42 370,-31.12"/>
<polygon fill="#63b8ff" stroke="#63b8ff" points="373.5,-31.12 370,-21.12 366.5,-31.12 373.5,-31.12"/>
</a>
</g>
</g>
<!-- Node7 -->
<g id="Node000007" class="node">
<title>Node7</title>
<g id="a_Node000007"><a xlink:title=" ">
<polygon fill="#e0e0e0" stroke="#999999" points="473.12,-19.25 436.88,-19.25 436.88,0 473.12,0 473.12,-19.25"/>
<text text-anchor="middle" x="455" y="-5.75" font-family="Helvetica,sans-Serif" font-size="10.00">QUrl</text>
</a>
</g>
</g>
<!-- Node2&#45;&gt;Node7 -->
<g id="edge6_Node000002_Node000007" class="edge">
<title>Node2&#45;&gt;Node7</title>
<g id="a_edge6_Node000002_Node000007"><a xlink:title=" ">
<path fill="none" stroke="#63b8ff" d="M384.42,-54.84C397.12,-46.89 415.87,-35.14 430.86,-25.75"/>
<polygon fill="#63b8ff" stroke="#63b8ff" points="432.61,-28.78 439.23,-20.51 428.9,-22.85 432.61,-28.78"/>
</a>
</g>
</g>
<!-- Node8 -->
<g id="Node000008" class="node">
<title>Node8</title>
<g id="a_Node000008"><a xlink:title=" ">
<polygon fill="#e0e0e0" stroke="#999999" points="558.5,-19.25 491.5,-19.25 491.5,0 558.5,0 558.5,-19.25"/>
<text text-anchor="middle" x="525" y="-5.75" font-family="Helvetica,sans-Serif" font-size="10.00">QByteArray</text>
</a>
</g>
</g>
<!-- Node2&#45;&gt;Node8 -->
<g id="edge7_Node000002_Node000008" class="edge">
<title>Node2&#45;&gt;Node8</title>
<g id="a_edge7_Node000002_Node000008"><a xlink:title=" ">
<path fill="none" stroke="#63b8ff" d="M396.29,-54.84C421.46,-46.2 459.65,-33.07 487.91,-23.37"/>
<polygon fill="#63b8ff" stroke="#63b8ff" points="488.83,-26.75 497.15,-20.19 486.55,-20.13 488.83,-26.75"/>
</a>
</g>
</g>
<!-- Node9 -->
<g id="Node000009" class="node">
<title>Node9</title>
<g id="a_Node000009"><a xlink:title=" ">
<polygon fill="#e0e0e0" stroke="#999999" points="625.5,-19.25 576.5,-19.25 576.5,0 625.5,0 625.5,-19.25"/>
<text text-anchor="middle" x="601" y="-5.75" font-family="Helvetica,sans-Serif" font-size="10.00">QString</text>
</a>
</g>
</g>
<!-- Node2&#45;&gt;Node9 -->
<g id="edge8_Node000002_Node000009" class="edge">
<title>Node2&#45;&gt;Node9</title>
<g id="a_edge8_Node000002_Node000009"><a xlink:title=" ">
<path fill="none" stroke="#63b8ff" d="M402.32,-56.94C439.43,-48.91 502.42,-35.04 565.26,-19.86"/>
<polygon fill="#63b8ff" stroke="#63b8ff" points="565.79,-23.33 574.69,-17.57 564.14,-16.53 565.79,-23.33"/>
</a>
</g>
</g>
</g>
</svg>
