<?xml version="1.0" encoding="UTF-8" standalone="no"?>
<!DOCTYPE svg PUBLIC "-//W3C//DTD SVG 1.1//EN"
 "http://www.w3.org/Graphics/SVG/1.1/DTD/svg11.dtd">
<!-- Generated by graphviz version 12.2.1 (20241206.2353)
 -->
<!-- Title: Parser::ExtractValue Pages: 1 -->
<svg width="262pt" height="138pt"
 viewBox="0.00 0.00 262.00 138.25" xmlns="http://www.w3.org/2000/svg" xmlns:xlink="http://www.w3.org/1999/xlink">

<svg id="main" version="1.1" xmlns="http://www.w3.org/2000/svg" xmlns:xlink="http://www.w3.org/1999/xlink" xml:space="preserve">

<style type="text/css"><![CDATA[
.node, .edge {opacity: 0.7;}
.node.selected, .edge.selected {opacity: 1;}
.edge:hover path { stroke: red; }
.edge:hover polygon { stroke: red; fill: red; }
]]></style>
<script type="application/ecmascript" xlink:href="../../svg.min.js"/>
<svg id="graph" class="graph">
<g id="graph0" class="graph" transform="scale(1 1) rotate(0) translate(4 134.25)">
<title>Parser::ExtractValue</title>
<!-- Node1 -->
<g id="Node000001" class="node">
<title>Node1</title>
<g id="a_Node000001"><a xlink:title="Extracts a JSON value from the input string.">
<polygon fill="#999999" stroke="#666666" points="106,-74.25 0,-74.25 0,-55 106,-55 106,-74.25"/>
<text text-anchor="middle" x="53" y="-60.75" font-family="Helvetica,sans-Serif" font-size="10.00">Parser::ExtractValue</text>
</a>
</g>
</g>
<!-- Node2 -->
<g id="Node000002" class="node">
<title>Node2</title>
<g id="a_Node000002"><a xlink:href="../../dc/db7/class_parser.html#acabd71dccc533b85de37e566cda47abe" target="_top" xlink:title="Extracts a JSON array (content within &#39;[]&#39;) as a string.">
<polygon fill="white" stroke="#666666" points="250.62,-130.25 145.38,-130.25 145.38,-111 250.62,-111 250.62,-130.25"/>
<text text-anchor="middle" x="198" y="-116.75" font-family="Helvetica,sans-Serif" font-size="10.00">Parser::ExtractArray</text>
</a>
</g>
</g>
<!-- Node1&#45;&gt;Node2 -->
<g id="edge1_Node000001_Node000002" class="edge">
<title>Node1&#45;&gt;Node2</title>
<g id="a_edge1_Node000001_Node000002"><a xlink:title=" ">
<path fill="none" stroke="#63b8ff" d="M75.83,-74.71C93.5,-82.72 119.12,-93.96 142,-102.62 145.84,-104.08 149.86,-105.53 153.9,-106.94"/>
<polygon fill="#63b8ff" stroke="#63b8ff" points="152.52,-110.16 163.11,-110.06 154.77,-103.54 152.52,-110.16"/>
</a>
</g>
</g>
<!-- Node3 -->
<g id="Node000003" class="node">
<title>Node3</title>
<g id="a_Node000003"><a xlink:href="../../dc/db7/class_parser.html#a30398a0f28f70626124609a1071f7f60" target="_top" xlink:title="Extracts an integer value from the JSON string.">
<polygon fill="white" stroke="#666666" points="254,-93.25 142,-93.25 142,-74 254,-74 254,-93.25"/>
<text text-anchor="middle" x="198" y="-79.75" font-family="Helvetica,sans-Serif" font-size="10.00">Parser::ExtractInteger</text>
</a>
</g>
</g>
<!-- Node1&#45;&gt;Node3 -->
<g id="edge2_Node000001_Node000003" class="edge">
<title>Node1&#45;&gt;Node3</title>
<g id="a_edge2_Node000001_Node000003"><a xlink:title=" ">
<path fill="none" stroke="#63b8ff" d="M106.44,-71.59C114.24,-72.63 122.37,-73.71 130.41,-74.78"/>
<polygon fill="#63b8ff" stroke="#63b8ff" points="129.81,-78.23 140.19,-76.08 130.73,-71.29 129.81,-78.23"/>
</a>
</g>
</g>
<!-- Node4 -->
<g id="Node000004" class="node">
<title>Node4</title>
<g id="a_Node000004"><a xlink:href="../../dc/db7/class_parser.html#a6658bb70a8b63f8edab2c0a6c7c65d9a" target="_top" xlink:title="Extracts a JSON key (a string enclosed in double quotes) from the input string.">
<polygon fill="white" stroke="#666666" points="247.62,-56.25 148.38,-56.25 148.38,-37 247.62,-37 247.62,-56.25"/>
<text text-anchor="middle" x="198" y="-42.75" font-family="Helvetica,sans-Serif" font-size="10.00">Parser::ExtractKey</text>
</a>
</g>
</g>
<!-- Node1&#45;&gt;Node4 -->
<g id="edge3_Node000001_Node000004" class="edge">
<title>Node1&#45;&gt;Node4</title>
<g id="a_edge3_Node000001_Node000004"><a xlink:title=" ">
<path fill="none" stroke="#63b8ff" d="M106.44,-58.02C116.28,-56.79 126.65,-55.48 136.71,-54.21"/>
<polygon fill="#63b8ff" stroke="#63b8ff" points="136.91,-57.72 146.4,-52.99 136.04,-50.77 136.91,-57.72"/>
</a>
</g>
</g>
<!-- Node5 -->
<g id="Node000005" class="node">
<title>Node5</title>
<g id="a_Node000005"><a xlink:href="../../dc/db7/class_parser.html#a9dbc99f343ea14baa4e3c8d84066b83e" target="_top" xlink:title="Extracts a JSON literal (true, false, null) as a string.">
<polygon fill="white" stroke="#666666" points="252.12,-19.25 143.88,-19.25 143.88,0 252.12,0 252.12,-19.25"/>
<text text-anchor="middle" x="198" y="-5.75" font-family="Helvetica,sans-Serif" font-size="10.00">Parser::ExtractLiteral</text>
</a>
</g>
</g>
<!-- Node1&#45;&gt;Node5 -->
<g id="edge4_Node000001_Node000005" class="edge">
<title>Node1&#45;&gt;Node5</title>
<g id="a_edge4_Node000001_Node000005"><a xlink:title=" ">
<path fill="none" stroke="#63b8ff" d="M76.59,-54.53C94.24,-46.78 119.49,-36.03 142,-27.62 145.9,-26.17 149.98,-24.71 154.08,-23.3"/>
<polygon fill="#63b8ff" stroke="#63b8ff" points="155.07,-26.66 163.42,-20.14 152.83,-20.02 155.07,-26.66"/>
</a>
</g>
</g>
</g>
</svg>
</svg>

<style type='text/css'>
<![CDATA[
[data-mouse-over-selected='false'] { opacity: 0.7; }
[data-mouse-over-selected='true']  { opacity: 1.0; }
]]>
</style>
<script type="application/ecmascript"><![CDATA[
document.addEventListener('DOMContentLoaded', (event) => {
  highlightEdges();
  highlightAdjacentNodes();
});
]]></script>
</svg>
