<?xml version="1.0" encoding="UTF-8" standalone="no"?>
<!DOCTYPE svg PUBLIC "-//W3C//DTD SVG 1.1//EN"
 "http://www.w3.org/Graphics/SVG/1.1/DTD/svg11.dtd">
<!-- Generated by graphviz version 12.2.1 (20241206.2353)
 -->
<!-- Title: Parser::JsonToTestimonials Pages: 1 -->
<svg width="591pt" height="27pt"
 viewBox="0.00 0.00 591.00 27.25" xmlns="http://www.w3.org/2000/svg" xmlns:xlink="http://www.w3.org/1999/xlink">
<g id="graph0" class="graph" transform="scale(1 1) rotate(0) translate(4 23.25)">
<title>Parser::JsonToTestimonials</title>
<!-- Node1 -->
<g id="Node000001" class="node">
<title>Node1</title>
<g id="a_Node000001"><a xlink:title="Converts a JSON string representation into a QVector of Testimonial objects.">
<polygon fill="#999999" stroke="#666666" points="136.75,-19.25 0,-19.25 0,0 136.75,0 136.75,-19.25"/>
<text text-anchor="middle" x="68.38" y="-5.75" font-family="Helvetica,sans-Serif" font-size="10.00">Parser::JsonToTestimonials</text>
</a>
</g>
</g>
<!-- Node2 -->
<g id="Node000002" class="node">
<title>Node2</title>
<g id="a_Node000002"><a xlink:href="../../d4/dc3/class_testimonial.html#aa69b0b98f5d9e02b57084e8b7538b4f4" target="_top" xlink:title="Creates a Testimonial object from a QJsonObject.">
<polygon fill="white" stroke="#666666" points="284.75,-19.25 172.75,-19.25 172.75,0 284.75,0 284.75,-19.25"/>
<text text-anchor="middle" x="228.75" y="-5.75" font-family="Helvetica,sans-Serif" font-size="10.00">Testimonial::fromJson</text>
</a>
</g>
</g>
<!-- Node1&#45;&gt;Node2 -->
<g id="edge1_Node000001_Node000002" class="edge">
<title>Node1&#45;&gt;Node2</title>
<g id="a_edge1_Node000001_Node000002"><a xlink:title=" ">
<path fill="none" stroke="#63b8ff" d="M137,-9.62C144.91,-9.62 152.97,-9.62 160.87,-9.62"/>
<polygon fill="#63b8ff" stroke="#63b8ff" points="160.77,-13.13 170.77,-9.63 160.77,-6.13 160.77,-13.13"/>
</a>
</g>
</g>
<!-- Node3 -->
<g id="Node000003" class="node">
<title>Node3</title>
<g id="a_Node000003"><a xlink:href="../../d4/dc3/class_testimonial.html#a45e0d2efaf105ca416d58e94ae320e28" target="_top" xlink:title="Constructor with optional parameters.">
<polygon fill="white" stroke="#666666" points="441.75,-19.25 320.75,-19.25 320.75,0 441.75,0 441.75,-19.25"/>
<text text-anchor="middle" x="381.25" y="-5.75" font-family="Helvetica,sans-Serif" font-size="10.00">Testimonial::Testimonial</text>
</a>
</g>
</g>
<!-- Node2&#45;&gt;Node3 -->
<g id="edge2_Node000002_Node000003" class="edge">
<title>Node2&#45;&gt;Node3</title>
<g id="a_edge2_Node000002_Node000003"><a xlink:title=" ">
<path fill="none" stroke="#63b8ff" d="M284.94,-9.62C292.75,-9.62 300.87,-9.62 308.93,-9.62"/>
<polygon fill="#63b8ff" stroke="#63b8ff" points="308.74,-13.13 318.74,-9.63 308.74,-6.13 308.74,-13.13"/>
</a>
</g>
</g>
<!-- Node4 -->
<g id="Node000004" class="node">
<title>Node4</title>
<g id="a_Node000004"><a xlink:href="../../d4/dc3/class_testimonial.html#a1dafb84094d80403f321147c559896c8" target="_top" xlink:title="Returns true if the author is a guest, false otherwise.">
<polygon fill="white" stroke="#666666" points="583,-19.25 477.75,-19.25 477.75,0 583,0 583,-19.25"/>
<text text-anchor="middle" x="530.38" y="-5.75" font-family="Helvetica,sans-Serif" font-size="10.00">Testimonial::isGuest</text>
</a>
</g>
</g>
<!-- Node3&#45;&gt;Node4 -->
<g id="edge3_Node000003_Node000004" class="edge">
<title>Node3&#45;&gt;Node4</title>
<g id="a_edge3_Node000003_Node000004"><a xlink:title=" ">
<path fill="none" stroke="#63b8ff" d="M442.09,-9.62C450,-9.62 458.13,-9.62 466.1,-9.62"/>
<polygon fill="#63b8ff" stroke="#63b8ff" points="466.09,-13.13 476.09,-9.63 466.09,-6.13 466.09,-13.13"/>
</a>
</g>
</g>
</g>
</svg>
