<?xml version="1.0" encoding="UTF-8" standalone="no"?>
<!DOCTYPE svg PUBLIC "-//W3C//DTD SVG 1.1//EN"
 "http://www.w3.org/Graphics/SVG/1.1/DTD/svg11.dtd">
<!-- Generated by graphviz version 12.2.1 (20241206.2353)
 -->
<!-- Title: Parser::SkipWhitespace Pages: 1 -->
<svg width="766pt" height="129pt"
 viewBox="0.00 0.00 766.00 128.88" xmlns="http://www.w3.org/2000/svg" xmlns:xlink="http://www.w3.org/1999/xlink">
<g id="graph0" class="graph" transform="scale(1 1) rotate(0) translate(4 124.88)">
<title>Parser::SkipWhitespace</title>
<!-- Node1 -->
<g id="Node000001" class="node">
<title>Node1</title>
<g id="a_Node000001"><a xlink:title="Advances the parsing index past any whitespace characters.">
<polygon fill="#999999" stroke="#666666" points="758,-76.25 636.25,-76.25 636.25,-57 758,-57 758,-76.25"/>
<text text-anchor="middle" x="697.12" y="-62.75" font-family="Helvetica,sans-Serif" font-size="10.00">Parser::SkipWhitespace</text>
</a>
</g>
</g>
<!-- Node2 -->
<g id="Node000002" class="node">
<title>Node2</title>
<g id="a_Node000002"><a xlink:href="../../dc/db7/class_parser.html#a9c4bd21d0d23be70682e026d6e702ec9" target="_top" xlink:title="Converts a JSON string representation into a vector of Shape objects.">
<polygon fill="white" stroke="#666666" points="115,-95.25 0,-95.25 0,-76 115,-76 115,-95.25"/>
<text text-anchor="middle" x="57.5" y="-81.75" font-family="Helvetica,sans-Serif" font-size="10.00">Parser::JsonToShapes</text>
</a>
</g>
</g>
<!-- Node1&#45;&gt;Node2 -->
<g id="edge1_Node000001_Node000002" class="edge">
<title>Node1&#45;&gt;Node2</title>
<g id="a_edge1_Node000001_Node000002"><a xlink:title=" ">
<path fill="none" stroke="#63b8ff" d="M666.81,-81.6C648.26,-90.22 623.48,-100.19 600.25,-104.62 425.54,-137.99 213.51,-111.73 114.5,-95.7"/>
<polygon fill="#63b8ff" stroke="#63b8ff" points="668.08,-84.87 675.58,-77.39 665.05,-78.56 668.08,-84.87"/>
</a>
</g>
</g>
<!-- Node3 -->
<g id="Node000003" class="node">
<title>Node3</title>
<g id="a_Node000003"><a xlink:href="../../dc/db7/class_parser.html#a7e0c6d8559fd28407b48e9eef05496d8" target="_top" xlink:title="Converts a JSON string representation into a vector of UserAccount objects.">
<polygon fill="white" stroke="#666666" points="596.88,-95.25 488.62,-95.25 488.62,-76 596.88,-76 596.88,-95.25"/>
<text text-anchor="middle" x="542.75" y="-81.75" font-family="Helvetica,sans-Serif" font-size="10.00">Parser::JsonToUsers</text>
</a>
</g>
</g>
<!-- Node1&#45;&gt;Node3 -->
<g id="edge2_Node000001_Node000003" class="edge">
<title>Node1&#45;&gt;Node3</title>
<g id="a_edge2_Node000001_Node000003"><a xlink:title=" ">
<path fill="none" stroke="#63b8ff" d="M624.67,-75.53C615.4,-76.69 606.03,-77.86 597.12,-78.97"/>
<polygon fill="#63b8ff" stroke="#63b8ff" points="624.91,-79.03 634.4,-74.32 624.04,-72.09 624.91,-79.03"/>
</a>
</g>
</g>
<!-- Node4 -->
<g id="Node000004" class="node">
<title>Node4</title>
<g id="a_Node000004"><a xlink:href="../../dc/db7/class_parser.html#a4d2c4035d6109be0ceca773cfbcff523" target="_top" xlink:title="Parses a single JSON object (data within &#39;{}&#39;) into a MorphicShape.">
<polygon fill="white" stroke="#666666" points="276.5,-57.25 151,-57.25 151,-38 276.5,-38 276.5,-57.25"/>
<text text-anchor="middle" x="213.75" y="-43.75" font-family="Helvetica,sans-Serif" font-size="10.00">Parser::ParseJsonObject</text>
</a>
</g>
</g>
<!-- Node1&#45;&gt;Node4 -->
<g id="edge3_Node000001_Node000004" class="edge">
<title>Node1&#45;&gt;Node4</title>
<g id="a_edge3_Node000001_Node000004"><a xlink:title=" ">
<path fill="none" stroke="#63b8ff" d="M624.71,-63.81C530.41,-60.08 365.91,-53.59 276.64,-50.07"/>
<polygon fill="#63b8ff" stroke="#63b8ff" points="624.49,-67.3 634.62,-64.2 624.77,-60.31 624.49,-67.3"/>
</a>
</g>
</g>
<!-- Node5 -->
<g id="Node000005" class="node">
<title>Node5</title>
<g id="a_Node000005"><a xlink:href="../../dc/db7/class_parser.html#a0a4c2a3664d2d2c1f5444c18271a1cf4" target="_top" xlink:title="Converts a string representation of a JSON array of integers into an alpha::vector&lt;int&gt;.">
<polygon fill="white" stroke="#666666" points="600.25,-19.25 485.25,-19.25 485.25,0 600.25,0 600.25,-19.25"/>
<text text-anchor="middle" x="542.75" y="-5.75" font-family="Helvetica,sans-Serif" font-size="10.00">Parser::StringToVector</text>
</a>
</g>
</g>
<!-- Node1&#45;&gt;Node5 -->
<g id="edge5_Node000001_Node000005" class="edge">
<title>Node1&#45;&gt;Node5</title>
<g id="a_edge5_Node000001_Node000005"><a xlink:title=" ">
<path fill="none" stroke="#63b8ff" d="M658.53,-52.56C631.26,-42.36 595.03,-28.81 570.63,-19.68"/>
<polygon fill="#63b8ff" stroke="#63b8ff" points="657.22,-55.81 667.82,-56.04 659.68,-49.25 657.22,-55.81"/>
</a>
</g>
</g>
<!-- Node4&#45;&gt;Node2 -->
<g id="edge4_Node000004_Node000002" class="edge">
<title>Node4&#45;&gt;Node2</title>
<g id="a_edge4_Node000004_Node000002"><a xlink:title=" ">
<path fill="none" stroke="#63b8ff" d="M160.69,-60.45C140.69,-65.38 118.16,-70.93 99.35,-75.56"/>
<polygon fill="#63b8ff" stroke="#63b8ff" points="161.48,-63.86 170.35,-58.07 159.8,-57.06 161.48,-63.86"/>
</a>
</g>
</g>
<!-- Node6 -->
<g id="Node000006" class="node">
<title>Node6</title>
<g id="a_Node000006"><a xlink:href="../../dc/db7/class_parser.html#ac3bb64fa743348c1b31eb1118c6d4e0f" target="_top" xlink:title="Updates a MorphicShape accumulator with a parsed key&#45;value pair.">
<polygon fill="white" stroke="#666666" points="449.25,-19.25 312.5,-19.25 312.5,0 449.25,0 449.25,-19.25"/>
<text text-anchor="middle" x="380.88" y="-5.75" font-family="Helvetica,sans-Serif" font-size="10.00">Parser::UpdateAccumulator</text>
</a>
</g>
</g>
<!-- Node5&#45;&gt;Node6 -->
<g id="edge6_Node000005_Node000006" class="edge">
<title>Node5&#45;&gt;Node6</title>
<g id="a_edge6_Node000005_Node000006"><a xlink:title=" ">
<path fill="none" stroke="#63b8ff" d="M473.53,-9.62C465.64,-9.62 457.6,-9.62 449.72,-9.62"/>
<polygon fill="#63b8ff" stroke="#63b8ff" points="473.42,-13.13 483.42,-9.63 473.42,-6.13 473.42,-13.13"/>
</a>
</g>
</g>
<!-- Node6&#45;&gt;Node4 -->
<g id="edge7_Node000006_Node000004" class="edge">
<title>Node6&#45;&gt;Node4</title>
<g id="a_edge7_Node000006_Node000004"><a xlink:title=" ">
<path fill="none" stroke="#63b8ff" d="M325.04,-22.24C303.41,-27.22 278.9,-32.86 258.48,-37.56"/>
<polygon fill="#63b8ff" stroke="#63b8ff" points="325.62,-25.7 334.58,-20.05 324.05,-18.88 325.62,-25.7"/>
</a>
</g>
</g>
</g>
</svg>
