<?xml version="1.0" encoding="UTF-8" standalone="no"?>
<!DOCTYPE svg PUBLIC "-//W3C//DTD SVG 1.1//EN"
 "http://www.w3.org/Graphics/SVG/1.1/DTD/svg11.dtd">
<!-- Generated by graphviz version 12.2.1 (20241206.2353)
 -->
<!-- Title: Parser::AppendCommonShapeData Pages: 1 -->
<!--zoomable 656 -->

<svg id="main" version="1.1" xmlns="http://www.w3.org/2000/svg" xmlns:xlink="http://www.w3.org/1999/xlink" xml:space="preserve" onload="init(evt)">

<style type="text/css"><![CDATA[
.node, .edge {opacity: 0.7;}
.node.selected, .edge.selected {opacity: 1;}
.edge:hover path { stroke: red; }
.edge:hover polygon { stroke: red; fill: red; }
]]></style>

<defs>
  <circle id="rim" cx="0" cy="0" r="7"/>
  <circle id="rim2" cx="0" cy="0" r="3.5"/>
  <g id="zoomPlus">
    <use xlink:href="#rim" fill="#404040"><set attributeName="fill" to="#808080" begin="zoomplus.mouseover" end="zoomplus.mouseout"/></use>
    <path d="M-4,0h8M0,-4v8" fill="none" stroke="white" stroke-width="1.5" pointer-events="none"/>
  </g>
  <g id="zoomMin">
    <use xlink:href="#rim" fill="#404040"><set attributeName="fill" to="#808080" begin="zoomminus.mouseover" end="zoomminus.mouseout"/></use>
    <path d="M-4,0h8" fill="none" stroke="white" stroke-width="1.5" pointer-events="none"/>
  </g>
  <g id="arrowUp" transform="translate(30 24)">
    <use xlink:href="#rim"/>
    <path pointer-events="none" fill="none" stroke="white" stroke-width="1.5" d="M0,-3.0v7 M-2.5,-0.5L0,-3.0L2.5,-0.5"/>
  </g>
  <g id="arrowRight" transform="rotate(90) translate(36 -43)">
    <use xlink:href="#rim"/>
    <path pointer-events="none" fill="none" stroke="white" stroke-width="1.5" d="M0,-3.0v7 M-2.5,-0.5L0,-3.0L2.5,-0.5"/>
  </g>
  <g id="arrowDown" transform="rotate(180) translate(-30 -48)">
    <use xlink:href="#rim"/>
    <path pointer-events="none" fill="none" stroke="white" stroke-width="1.5" d="M0,-3.0v7 M-2.5,-0.5L0,-3.0L2.5,-0.5"/>
  </g>
  <g id="arrowLeft" transform="rotate(270) translate(-36 17)">
    <use xlink:href="#rim"/>
    <path pointer-events="none" fill="none" stroke="white" stroke-width="1.5" d="M0,-3.0v7 M-2.5,-0.5L0,-3.0L2.5,-0.5"/>
  </g>
  <g id="resetDef">
    <use xlink:href="#rim2" fill="#404040"><set attributeName="fill" to="#808080" begin="reset.mouseover" end="reset.mouseout"/></use>
  </g>
</defs>
<script type="application/ecmascript">
var viewWidth = 519;
var viewHeight = 656;
var sectionId = 'dynsection-6';
</script>
<script type="application/ecmascript" xlink:href="../../svg.min.js"/>
<svg id="graph" class="graph">
<g id="viewport">
<title>Parser::AppendCommonShapeData</title>
<!-- Node1 -->
<g id="Node000001" class="node">
<title>Node1</title>
<g id="a_Node000001"><a xlink:title="Appends common shape properties (ID, Type, Dimensions, Pen properties) to a JSON string.">
<polygon fill="#999999" stroke="#666666" points="172,-480.25 0,-480.25 0,-461 172,-461 172,-480.25"/>
<text text-anchor="middle" x="86" y="-466.75" font-family="Helvetica,sans-Serif" font-size="10.00">Parser::AppendCommonShapeData</text>
</a>
</g>
</g>
<!-- Node2 -->
<g id="Node000002" class="node">
<title>Node2</title>
<g id="a_Node000002"><a xlink:href="../../dc/db7/class_parser.html#a873d052551342d31e66e6746b09d2fe9" target="_top" xlink:title="Converts a QColor object to its string representation (e.g., &quot;red&quot;, &quot;blue&quot;).">
<polygon fill="white" stroke="#666666" points="325.62,-648.25 236.12,-648.25 236.12,-629 325.62,-629 325.62,-648.25"/>
<text text-anchor="middle" x="280.88" y="-634.75" font-family="Helvetica,sans-Serif" font-size="10.00">Parser::GetColor</text>
</a>
</g>
</g>
<!-- Node1&#45;&gt;Node2 -->
<g id="edge1_Node000001_Node000002" class="edge">
<title>Node1&#45;&gt;Node2</title>
<g id="a_edge1_Node000001_Node000002"><a xlink:title=" ">
<path fill="none" stroke="#63b8ff" d="M91.98,-480.51C106.13,-507.55 149.36,-583.15 208,-620.62 213.22,-623.96 219.01,-626.68 224.98,-628.89"/>
<polygon fill="#63b8ff" stroke="#63b8ff" points="223.8,-632.19 234.4,-631.89 225.93,-625.52 223.8,-632.19"/>
</a>
</g>
</g>
<!-- Node3 -->
<g id="Node000003" class="node">
<title>Node3</title>
<g id="a_Node000003"><a xlink:href="../../d7/da7/class_shape.html#a16aad057da1ce3475f666cbdd27da042" target="_top" xlink:title=" ">
<polygon fill="white" stroke="#666666" points="321.12,-611.25 240.62,-611.25 240.62,-592 321.12,-592 321.12,-611.25"/>
<text text-anchor="middle" x="280.88" y="-597.75" font-family="Helvetica,sans-Serif" font-size="10.00">Shape::getPen</text>
</a>
</g>
</g>
<!-- Node1&#45;&gt;Node3 -->
<g id="edge2_Node000001_Node000003" class="edge">
<title>Node1&#45;&gt;Node3</title>
<g id="a_edge2_Node000001_Node000003"><a xlink:title=" ">
<path fill="none" stroke="#63b8ff" d="M94.59,-480.54C112.06,-502.64 157.5,-556.15 208,-583.62 214.68,-587.26 222.11,-590.18 229.58,-592.51"/>
<polygon fill="#63b8ff" stroke="#63b8ff" points="228.46,-595.83 239.03,-595.13 230.33,-589.09 228.46,-595.83"/>
</a>
</g>
</g>
<!-- Node4 -->
<g id="Node000004" class="node">
<title>Node4</title>
<g id="a_Node000004"><a xlink:href="../../dc/db7/class_parser.html#a4cc8c1d3938f5f55be6074830f96090e" target="_top" xlink:title="Gets the pen cap style of a shape as a string (e.g., &quot;FlatCap&quot;, &quot;RoundCap&quot;).">
<polygon fill="white" stroke="#666666" points="342.88,-574.25 218.88,-574.25 218.88,-555 342.88,-555 342.88,-574.25"/>
<text text-anchor="middle" x="280.88" y="-560.75" font-family="Helvetica,sans-Serif" font-size="10.00">Parser::GetPenCapStyle</text>
</a>
</g>
</g>
<!-- Node1&#45;&gt;Node4 -->
<g id="edge3_Node000001_Node000004" class="edge">
<title>Node1&#45;&gt;Node4</title>
<g id="a_edge3_Node000001_Node000004"><a xlink:title=" ">
<path fill="none" stroke="#63b8ff" d="M99.67,-480.5C120.91,-496.61 165.56,-528.52 208,-546.62 211.83,-548.26 215.85,-549.77 219.94,-551.16"/>
<polygon fill="#63b8ff" stroke="#63b8ff" points="218.83,-554.48 229.42,-554.11 220.91,-547.8 218.83,-554.48"/>
</a>
</g>
</g>
<!-- Node6 -->
<g id="Node000006" class="node">
<title>Node6</title>
<g id="a_Node000006"><a xlink:href="../../d7/da7/class_shape.html#a4b502262ae5a22122456b9624d5ccb3d" target="_top" xlink:title="Accessor Functions &#45; Returns the data named after them.">
<polygon fill="white" stroke="#666666" points="499.88,-537.25 400.62,-537.25 400.62,-518 499.88,-518 499.88,-537.25"/>
<text text-anchor="middle" x="450.25" y="-523.75" font-family="Helvetica,sans-Serif" font-size="10.00">Shape::getShapeId</text>
</a>
</g>
</g>
<!-- Node1&#45;&gt;Node6 -->
<g id="edge28_Node000001_Node000006" class="edge">
<title>Node1&#45;&gt;Node6</title>
<g id="a_edge28_Node000001_Node000006"><a xlink:title=" ">
<path fill="none" stroke="#63b8ff" d="M165.96,-480.72C219.15,-487.8 290.81,-497.89 353.75,-508.62 365.49,-510.63 378.01,-512.97 389.98,-515.31"/>
<polygon fill="#63b8ff" stroke="#63b8ff" points="389.28,-518.74 399.77,-517.25 390.64,-511.87 389.28,-518.74"/>
</a>
</g>
</g>
<!-- Node7 -->
<g id="Node000007" class="node">
<title>Node7</title>
<g id="a_Node000007"><a xlink:href="../../d7/da7/class_shape.html#a4cbfcdf734ed9633dfb4dad1dab1cb6f" target="_top" xlink:title=" ">
<polygon fill="white" stroke="#666666" points="332.75,-297.25 229,-297.25 229,-278 332.75,-278 332.75,-297.25"/>
<text text-anchor="middle" x="280.88" y="-283.75" font-family="Helvetica,sans-Serif" font-size="10.00">Shape::getPenColor</text>
</a>
</g>
</g>
<!-- Node1&#45;&gt;Node7 -->
<g id="edge6_Node000001_Node000007" class="edge">
<title>Node1&#45;&gt;Node7</title>
<g id="a_edge6_Node000001_Node000007"><a xlink:title=" ">
<path fill="none" stroke="#63b8ff" d="M91.32,-460.59C104.33,-431.61 146.08,-347.23 208,-305.62 211.1,-303.54 214.41,-301.7 217.86,-300.08"/>
<polygon fill="#63b8ff" stroke="#63b8ff" points="219.13,-303.34 227.1,-296.37 216.52,-296.84 219.13,-303.34"/>
</a>
</g>
</g>
<!-- Node8 -->
<g id="Node000008" class="node">
<title>Node8</title>
<g id="a_Node000008"><a xlink:href="../../dc/db7/class_parser.html#aacdb18c8e63721594a5ee98f94e160c3" target="_top" xlink:title="Gets the pen join style of a shape as a string (e.g., &quot;MiterJoin&quot;, &quot;BevelJoin&quot;).">
<polygon fill="white" stroke="#666666" points="342.88,-537.25 218.88,-537.25 218.88,-518 342.88,-518 342.88,-537.25"/>
<text text-anchor="middle" x="280.88" y="-523.75" font-family="Helvetica,sans-Serif" font-size="10.00">Parser::GetPenJoinStyle</text>
</a>
</g>
</g>
<!-- Node1&#45;&gt;Node8 -->
<g id="edge7_Node000001_Node000008" class="edge">
<title>Node1&#45;&gt;Node8</title>
<g id="a_edge7_Node000001_Node000008"><a xlink:title=" ">
<path fill="none" stroke="#63b8ff" d="M121.04,-480.68C152.75,-490.06 200.25,-504.09 235.04,-514.37"/>
<polygon fill="#63b8ff" stroke="#63b8ff" points="233.82,-517.66 244.4,-517.14 235.8,-510.95 233.82,-517.66"/>
</a>
</g>
</g>
<!-- Node10 -->
<g id="Node000010" class="node">
<title>Node10</title>
<g id="a_Node000010"><a xlink:href="../../dc/db7/class_parser.html#af303a9796fe246709fd2da137248e6d2" target="_top" xlink:title="Gets the pen style of a shape as a string (e.g., &quot;SolidLine&quot;, &quot;DashLine&quot;).">
<polygon fill="white" stroke="#666666" points="333.88,-461.25 227.88,-461.25 227.88,-442 333.88,-442 333.88,-461.25"/>
<text text-anchor="middle" x="280.88" y="-447.75" font-family="Helvetica,sans-Serif" font-size="10.00">Parser::GetPenStyle</text>
</a>
</g>
</g>
<!-- Node1&#45;&gt;Node10 -->
<g id="edge10_Node000001_Node000010" class="edge">
<title>Node1&#45;&gt;Node10</title>
<g id="a_edge10_Node000001_Node000010"><a xlink:title=" ">
<path fill="none" stroke="#63b8ff" d="M172.44,-462.21C187.08,-460.77 202.07,-459.29 216.02,-457.92"/>
<polygon fill="#63b8ff" stroke="#63b8ff" points="216.35,-461.4 225.96,-456.94 215.67,-454.43 216.35,-461.4"/>
</a>
</g>
</g>
<!-- Node12 -->
<g id="Node000012" class="node">
<title>Node12</title>
<g id="a_Node000012"><a xlink:href="../../dc/db7/class_parser.html#af246a0732ef6c7518e5aaee1043d12e4" target="_top" xlink:title="Gets the geometric dimensions of a shape as a JSON array string.">
<polygon fill="white" stroke="#666666" points="353.75,-334.25 208,-334.25 208,-315 353.75,-315 353.75,-334.25"/>
<text text-anchor="middle" x="280.88" y="-320.75" font-family="Helvetica,sans-Serif" font-size="10.00">Parser::GetShapeDimensions</text>
</a>
</g>
</g>
<!-- Node1&#45;&gt;Node12 -->
<g id="edge13_Node000001_Node000012" class="edge">
<title>Node1&#45;&gt;Node12</title>
<g id="a_edge13_Node000001_Node000012"><a xlink:title=" ">
<path fill="none" stroke="#63b8ff" d="M100.26,-460.59C132.81,-435.95 216.96,-372.25 257.45,-341.6"/>
<polygon fill="#63b8ff" stroke="#63b8ff" points="259.46,-344.47 265.32,-335.64 255.23,-338.89 259.46,-344.47"/>
</a>
</g>
</g>
<!-- Node26 -->
<g id="Node000026" class="node">
<title>Node26</title>
<g id="a_Node000026"><a xlink:href="../../d7/da7/class_shape.html#ab89b48cc1a361849a094c894075361e1" target="_top" xlink:title=" ">
<polygon fill="white" stroke="#666666" points="336.88,-260.25 224.88,-260.25 224.88,-241 336.88,-241 336.88,-260.25"/>
<text text-anchor="middle" x="280.88" y="-246.75" font-family="Helvetica,sans-Serif" font-size="10.00">Shape::getShapeType</text>
</a>
</g>
</g>
<!-- Node1&#45;&gt;Node26 -->
<g id="edge29_Node000001_Node000026" class="edge">
<title>Node1&#45;&gt;Node26</title>
<g id="a_edge29_Node000001_Node000026"><a xlink:title=" ">
<path fill="none" stroke="#63b8ff" d="M89.88,-460.77C100.04,-427.88 137.41,-320.99 208,-268.62 209.94,-267.19 211.98,-265.86 214.09,-264.65"/>
<polygon fill="#63b8ff" stroke="#63b8ff" points="215.59,-267.81 223.09,-260.33 212.56,-261.5 215.59,-267.81"/>
</a>
</g>
</g>
<!-- Node27 -->
<g id="Node000027" class="node">
<title>Node27</title>
<g id="a_Node000027"><a xlink:href="../../d7/da7/class_shape.html#aec4675c2b06d40373eefac4b982af242" target="_top" xlink:title=" ">
<polygon fill="white" stroke="#666666" points="333.12,-223.25 228.62,-223.25 228.62,-204 333.12,-204 333.12,-223.25"/>
<text text-anchor="middle" x="280.88" y="-209.75" font-family="Helvetica,sans-Serif" font-size="10.00">Shape::getTrackerId</text>
</a>
</g>
</g>
<!-- Node1&#45;&gt;Node27 -->
<g id="edge30_Node000001_Node000027" class="edge">
<title>Node1&#45;&gt;Node27</title>
<g id="a_edge30_Node000001_Node000027"><a xlink:title=" ">
<path fill="none" stroke="#63b8ff" d="M88.97,-460.57C96.73,-423.72 128.77,-294.88 208,-231.62 211.06,-229.18 214.4,-227.07 217.93,-225.24"/>
<polygon fill="#63b8ff" stroke="#63b8ff" points="219.05,-228.56 226.84,-221.39 216.27,-222.14 219.05,-228.56"/>
</a>
</g>
</g>
<!-- Node5 -->
<g id="Node000005" class="node">
<title>Node5</title>
<g id="a_Node000005"><a xlink:href="../../d7/da7/class_shape.html#a1eaba6ddbc4404e64fc6910fa9a9fa11" target="_top" xlink:title=" ">
<polygon fill="white" stroke="#666666" points="510.75,-611.25 389.75,-611.25 389.75,-592 510.75,-592 510.75,-611.25"/>
<text text-anchor="middle" x="450.25" y="-597.75" font-family="Helvetica,sans-Serif" font-size="10.00">Shape::getPenCapStyle</text>
</a>
</g>
</g>
<!-- Node4&#45;&gt;Node5 -->
<g id="edge4_Node000004_Node000005" class="edge">
<title>Node4&#45;&gt;Node5</title>
<g id="a_edge4_Node000004_Node000005"><a xlink:title=" ">
<path fill="none" stroke="#63b8ff" d="M327.61,-574.74C347.63,-579.16 371.32,-584.4 392.46,-589.07"/>
<polygon fill="#63b8ff" stroke="#63b8ff" points="391.57,-592.46 402.09,-591.2 393.08,-585.62 391.57,-592.46"/>
</a>
</g>
</g>
<!-- Node4&#45;&gt;Node6 -->
<g id="edge5_Node000004_Node000006" class="edge">
<title>Node4&#45;&gt;Node6</title>
<g id="a_edge5_Node000004_Node000006"><a xlink:title=" ">
<path fill="none" stroke="#63b8ff" d="M327.61,-554.51C347.63,-550.09 371.32,-544.85 392.46,-540.18"/>
<polygon fill="#63b8ff" stroke="#63b8ff" points="393.08,-543.63 402.09,-538.05 391.57,-536.79 393.08,-543.63"/>
</a>
</g>
</g>
<!-- Node8&#45;&gt;Node6 -->
<g id="edge9_Node000008_Node000006" class="edge">
<title>Node8&#45;&gt;Node6</title>
<g id="a_edge9_Node000008_Node000006"><a xlink:title=" ">
<path fill="none" stroke="#63b8ff" d="M343.25,-527.62C358.19,-527.62 374.16,-527.62 389.05,-527.62"/>
<polygon fill="#63b8ff" stroke="#63b8ff" points="388.68,-531.13 398.68,-527.63 388.68,-524.13 388.68,-531.13"/>
</a>
</g>
</g>
<!-- Node9 -->
<g id="Node000009" class="node">
<title>Node9</title>
<g id="a_Node000009"><a xlink:href="../../d7/da7/class_shape.html#a7cf1547b5328248b8a4c066b4c714efa" target="_top" xlink:title=" ">
<polygon fill="white" stroke="#666666" points="510.75,-574.25 389.75,-574.25 389.75,-555 510.75,-555 510.75,-574.25"/>
<text text-anchor="middle" x="450.25" y="-560.75" font-family="Helvetica,sans-Serif" font-size="10.00">Shape::getPenJoinStyle</text>
</a>
</g>
</g>
<!-- Node8&#45;&gt;Node9 -->
<g id="edge8_Node000008_Node000009" class="edge">
<title>Node8&#45;&gt;Node9</title>
<g id="a_edge8_Node000008_Node000009"><a xlink:title=" ">
<path fill="none" stroke="#63b8ff" d="M327.61,-537.74C347.63,-542.16 371.32,-547.4 392.46,-552.07"/>
<polygon fill="#63b8ff" stroke="#63b8ff" points="391.57,-555.46 402.09,-554.2 393.08,-548.62 391.57,-555.46"/>
</a>
</g>
</g>
<!-- Node10&#45;&gt;Node6 -->
<g id="edge12_Node000010_Node000006" class="edge">
<title>Node10&#45;&gt;Node6</title>
<g id="a_edge12_Node000010_Node000006"><a xlink:title=" ">
<path fill="none" stroke="#63b8ff" d="M322.02,-461.63C332.75,-465.2 344.04,-469.81 353.75,-475.62 372.63,-486.93 370.71,-498.59 389.75,-509.62 391.95,-510.9 394.25,-512.09 396.61,-513.21"/>
<polygon fill="#63b8ff" stroke="#63b8ff" points="395.27,-516.44 405.85,-517.03 397.95,-509.97 395.27,-516.44"/>
</a>
</g>
</g>
<!-- Node11 -->
<g id="Node000011" class="node">
<title>Node11</title>
<g id="a_Node000011"><a xlink:href="../../d7/da7/class_shape.html#ad336858f193d765d831deb9ce29246aa" target="_top" xlink:title=" ">
<polygon fill="white" stroke="#666666" points="501.75,-500.25 398.75,-500.25 398.75,-481 501.75,-481 501.75,-500.25"/>
<text text-anchor="middle" x="450.25" y="-486.75" font-family="Helvetica,sans-Serif" font-size="10.00">Shape::getPenStyle</text>
</a>
</g>
</g>
<!-- Node10&#45;&gt;Node11 -->
<g id="edge11_Node000010_Node000011" class="edge">
<title>Node10&#45;&gt;Node11</title>
<g id="a_edge11_Node000010_Node000011"><a xlink:title=" ">
<path fill="none" stroke="#63b8ff" d="M324.98,-461.67C346.27,-466.63 372.19,-472.67 394.84,-477.95"/>
<polygon fill="#63b8ff" stroke="#63b8ff" points="393.99,-481.34 404.53,-480.2 395.58,-474.53 393.99,-481.34"/>
</a>
</g>
</g>
<!-- Node12&#45;&gt;Node6 -->
<g id="edge24_Node000012_Node000006" class="edge">
<title>Node12&#45;&gt;Node6</title>
<g id="a_edge24_Node000012_Node000006"><a xlink:title=" ">
<path fill="none" stroke="#63b8ff" d="M289.34,-334.73C303.03,-353.47 332.66,-395.13 353.75,-432.62 372.27,-465.55 361.19,-484.9 389.75,-509.62 390.67,-510.42 391.62,-511.18 392.6,-511.91"/>
<polygon fill="#63b8ff" stroke="#63b8ff" points="390.42,-514.68 400.8,-516.8 394.01,-508.67 390.42,-514.68"/>
</a>
</g>
</g>
<!-- Node13 -->
<g id="Node000013" class="node">
<title>Node13</title>
<g id="a_Node000013"><a xlink:href="../../dc/d25/class_ellipse.html#a77211318bb4d61848cfa76e887c290f0" target="_top" xlink:title="Accessor Functions.">
<polygon fill="white" stroke="#666666" points="486,-19.25 414.5,-19.25 414.5,0 486,0 486,-19.25"/>
<text text-anchor="middle" x="450.25" y="-5.75" font-family="Helvetica,sans-Serif" font-size="10.00">Ellipse::getA</text>
</a>
</g>
</g>
<!-- Node12&#45;&gt;Node13 -->
<g id="edge14_Node000012_Node000013" class="edge">
<title>Node12&#45;&gt;Node13</title>
<g id="a_edge14_Node000012_Node000013"><a xlink:title=" ">
<path fill="none" stroke="#63b8ff" d="M344.05,-314.67C347.64,-312.45 350.93,-309.8 353.75,-306.62 436.83,-213.2 308.95,-123.04 389.75,-27.62 393.53,-23.16 398.38,-19.78 403.68,-17.22"/>
<polygon fill="#63b8ff" stroke="#63b8ff" points="404.7,-20.58 412.83,-13.79 402.24,-14.02 404.7,-20.58"/>
</a>
</g>
</g>
<!-- Node14 -->
<g id="Node000014" class="node">
<title>Node14</title>
<g id="a_Node000014"><a xlink:href="../../dc/d25/class_ellipse.html#a18ac4b70047614c98a8e663cc900b656" target="_top" xlink:title=" ">
<polygon fill="white" stroke="#666666" points="486,-463.25 414.5,-463.25 414.5,-444 486,-444 486,-463.25"/>
<text text-anchor="middle" x="450.25" y="-449.75" font-family="Helvetica,sans-Serif" font-size="10.00">Ellipse::getB</text>
</a>
</g>
</g>
<!-- Node12&#45;&gt;Node14 -->
<g id="edge15_Node000012_Node000014" class="edge">
<title>Node12&#45;&gt;Node14</title>
<g id="a_edge15_Node000012_Node000014"><a xlink:title=" ">
<path fill="none" stroke="#63b8ff" d="M288.74,-334.55C304.22,-356.17 344.07,-407.82 389.75,-435.62 394.01,-438.22 398.68,-440.46 403.46,-442.4"/>
<polygon fill="#63b8ff" stroke="#63b8ff" points="401.99,-445.59 412.58,-445.66 404.34,-439 401.99,-445.59"/>
</a>
</g>
</g>
<!-- Node15 -->
<g id="Node000015" class="node">
<title>Node15</title>
<g id="a_Node000015"><a xlink:href="../../dd/db4/class_line.html#aedb630a8121c423320ef5e369e17f65f" target="_top" xlink:title=" ">
<polygon fill="white" stroke="#666666" points="496.88,-426.25 403.62,-426.25 403.62,-407 496.88,-407 496.88,-426.25"/>
<text text-anchor="middle" x="450.25" y="-412.75" font-family="Helvetica,sans-Serif" font-size="10.00">Line::getEndPoint</text>
</a>
</g>
</g>
<!-- Node12&#45;&gt;Node15 -->
<g id="edge16_Node000012_Node000015" class="edge">
<title>Node12&#45;&gt;Node15</title>
<g id="a_edge16_Node000012_Node000015"><a xlink:title=" ">
<path fill="none" stroke="#63b8ff" d="M293.73,-334.6C312.83,-350.22 352.08,-380.54 389.75,-398.62 392.81,-400.1 396.02,-401.48 399.3,-402.77"/>
<polygon fill="#63b8ff" stroke="#63b8ff" points="397.85,-405.97 408.45,-406.07 400.23,-399.38 397.85,-405.97"/>
</a>
</g>
</g>
<!-- Node16 -->
<g id="Node000016" class="node">
<title>Node16</title>
<g id="a_Node000016"><a xlink:href="../../d9/dc7/class_rectangle.html#af86510135f0d97d2295bbc304ea932bf" target="_top" xlink:title="Accessor Functions.">
<polygon fill="white" stroke="#666666" points="504.75,-389.25 395.75,-389.25 395.75,-370 504.75,-370 504.75,-389.25"/>
<text text-anchor="middle" x="450.25" y="-375.75" font-family="Helvetica,sans-Serif" font-size="10.00">Rectangle::getLength</text>
</a>
</g>
</g>
<!-- Node12&#45;&gt;Node16 -->
<g id="edge17_Node000012_Node000016" class="edge">
<title>Node12&#45;&gt;Node16</title>
<g id="a_edge17_Node000012_Node000016"><a xlink:title=" ">
<path fill="none" stroke="#63b8ff" d="M310.17,-334.65C331.88,-342.26 362.62,-352.87 389.75,-361.62 394.5,-363.16 399.48,-364.72 404.44,-366.26"/>
<polygon fill="#63b8ff" stroke="#63b8ff" points="403.17,-369.53 413.75,-369.12 405.22,-362.84 403.17,-369.53"/>
</a>
</g>
</g>
<!-- Node17 -->
<g id="Node000017" class="node">
<title>Node17</title>
<g id="a_Node000017"><a xlink:href="../../d9/d0c/class_square.html#a8f3f73c6ceea3fba1c09dcaba56f49af" target="_top" xlink:title="Accessor Functions.">
<polygon fill="white" stroke="#666666" points="498,-352.25 402.5,-352.25 402.5,-333 498,-333 498,-352.25"/>
<text text-anchor="middle" x="450.25" y="-338.75" font-family="Helvetica,sans-Serif" font-size="10.00">Square::getLength</text>
</a>
</g>
</g>
<!-- Node12&#45;&gt;Node17 -->
<g id="edge18_Node000012_Node000017" class="edge">
<title>Node12&#45;&gt;Node17</title>
<g id="a_edge18_Node000012_Node000017"><a xlink:title=" ">
<path fill="none" stroke="#63b8ff" d="M353.83,-332.36C366.18,-333.69 378.89,-335.06 390.83,-336.34"/>
<polygon fill="#63b8ff" stroke="#63b8ff" points="390.19,-339.79 400.51,-337.38 390.94,-332.83 390.19,-339.79"/>
</a>
</g>
</g>
<!-- Node18 -->
<g id="Node000018" class="node">
<title>Node18</title>
<g id="a_Node000018"><a xlink:href="../../da/d0e/class_text.html#aa538b21160165d28fbaf706c51221ef3" target="_top" xlink:title="Accessor Functions.">
<polygon fill="white" stroke="#666666" points="492,-315.25 408.5,-315.25 408.5,-296 492,-296 492,-315.25"/>
<text text-anchor="middle" x="450.25" y="-301.75" font-family="Helvetica,sans-Serif" font-size="10.00">Text::getLength</text>
</a>
</g>
</g>
<!-- Node12&#45;&gt;Node18 -->
<g id="edge19_Node000012_Node000018" class="edge">
<title>Node12&#45;&gt;Node18</title>
<g id="a_edge19_Node000012_Node000018"><a xlink:title=" ">
<path fill="none" stroke="#63b8ff" d="M353.83,-316.46C368.36,-314.81 383.38,-313.1 397.08,-311.55"/>
<polygon fill="#63b8ff" stroke="#63b8ff" points="397.19,-315.06 406.73,-310.45 396.4,-308.1 397.19,-315.06"/>
</a>
</g>
</g>
<!-- Node19 -->
<g id="Node000019" class="node">
<title>Node19</title>
<g id="a_Node000019"><a xlink:href="../../d7/da7/class_shape.html#ab1cc10b4862f2e16db50622e2df278f3" target="_top" xlink:title=" ">
<polygon fill="white" stroke="#666666" points="495.75,-278.25 404.75,-278.25 404.75,-259 495.75,-259 495.75,-278.25"/>
<text text-anchor="middle" x="450.25" y="-264.75" font-family="Helvetica,sans-Serif" font-size="10.00">Shape::getPoints</text>
</a>
</g>
</g>
<!-- Node12&#45;&gt;Node19 -->
<g id="edge20_Node000012_Node000019" class="edge">
<title>Node12&#45;&gt;Node19</title>
<g id="a_edge20_Node000012_Node000019"><a xlink:title=" ">
<path fill="none" stroke="#63b8ff" d="M329.6,-314.54C337.77,-312.29 346.09,-309.65 353.75,-306.62 370.77,-299.9 372.89,-293.76 389.75,-286.62 393.34,-285.11 397.1,-283.66 400.91,-282.29"/>
<polygon fill="#63b8ff" stroke="#63b8ff" points="401.89,-285.65 410.25,-279.14 399.65,-279.02 401.89,-285.65"/>
</a>
</g>
</g>
<!-- Node20 -->
<g id="Node000020" class="node">
<title>Node20</title>
<g id="a_Node000020"><a xlink:href="../../d1/db0/class_polygon.html#aa29df027578f8427676e9eb4a5ee67c2" target="_top" xlink:title="getPointsList &#45; Returns the pointsList by value">
<polygon fill="white" stroke="#666666" points="507.38,-241.25 393.12,-241.25 393.12,-222 507.38,-222 507.38,-241.25"/>
<text text-anchor="middle" x="450.25" y="-227.75" font-family="Helvetica,sans-Serif" font-size="10.00">Polygon::getPointsList</text>
</a>
</g>
</g>
<!-- Node12&#45;&gt;Node20 -->
<g id="edge21_Node000012_Node000020" class="edge">
<title>Node12&#45;&gt;Node20</title>
<g id="a_edge21_Node000012_Node000020"><a xlink:title=" ">
<path fill="none" stroke="#63b8ff" d="M339.41,-314.56C344.5,-312.41 349.37,-309.79 353.75,-306.62 378.02,-289.06 365.91,-267.77 389.75,-249.62 390.91,-248.74 392.11,-247.9 393.35,-247.1"/>
<polygon fill="#63b8ff" stroke="#63b8ff" points="394.89,-250.25 402.07,-242.46 391.6,-244.07 394.89,-250.25"/>
</a>
</g>
</g>
<!-- Node21 -->
<g id="Node000021" class="node">
<title>Node21</title>
<g id="a_Node000021"><a xlink:href="../../d1/d42/class_polyline.html#acb3340122423e1c80e3aa7c7a30fda84" target="_top" xlink:title="getPointsList &#45; Returns the pointsList by value">
<polygon fill="white" stroke="#666666" points="507,-204.25 393.5,-204.25 393.5,-185 507,-185 507,-204.25"/>
<text text-anchor="middle" x="450.25" y="-190.75" font-family="Helvetica,sans-Serif" font-size="10.00">Polyline::getPointsList</text>
</a>
</g>
</g>
<!-- Node12&#45;&gt;Node21 -->
<g id="edge22_Node000012_Node000021" class="edge">
<title>Node12&#45;&gt;Node21</title>
<g id="a_edge22_Node000012_Node000021"><a xlink:title=" ">
<path fill="none" stroke="#63b8ff" d="M341.86,-314.58C346.15,-312.4 350.19,-309.78 353.75,-306.62 387.23,-276.95 357,-243.1 389.75,-212.62 390.39,-212.03 391.04,-211.46 391.72,-210.9"/>
<polygon fill="#63b8ff" stroke="#63b8ff" points="393.52,-213.91 400.01,-205.53 389.71,-208.03 393.52,-213.91"/>
</a>
</g>
</g>
<!-- Node22 -->
<g id="Node000022" class="node">
<title>Node22</title>
<g id="a_Node000022"><a xlink:href="../../d0/d88/class_circle.html#a955ba2846a5c3a9f42b1e38f7ace0860" target="_top" xlink:title="getR &#45; Accessor &#45; Returns the radius">
<polygon fill="white" stroke="#666666" points="484.5,-167.25 416,-167.25 416,-148 484.5,-148 484.5,-167.25"/>
<text text-anchor="middle" x="450.25" y="-153.75" font-family="Helvetica,sans-Serif" font-size="10.00">Circle::getR</text>
</a>
</g>
</g>
<!-- Node12&#45;&gt;Node22 -->
<g id="edge23_Node000012_Node000022" class="edge">
<title>Node12&#45;&gt;Node22</title>
<g id="a_edge23_Node000012_Node000022"><a xlink:title=" ">
<path fill="none" stroke="#63b8ff" d="M342.89,-314.58C346.85,-312.4 350.53,-309.77 353.75,-306.62 396.93,-264.42 347.6,-218.86 389.75,-175.62 394.03,-171.23 399.35,-167.9 405.03,-165.38"/>
<polygon fill="#63b8ff" stroke="#63b8ff" points="405.83,-168.81 414.08,-162.16 403.48,-162.21 405.83,-168.81"/>
</a>
</g>
</g>
<!-- Node23 -->
<g id="Node000023" class="node">
<title>Node23</title>
<g id="a_Node000023"><a xlink:href="../../dd/db4/class_line.html#ae0c35900f7e283b3559263455ac18669" target="_top" xlink:title="Accessor Functions.">
<polygon fill="white" stroke="#666666" points="498.75,-130.25 401.75,-130.25 401.75,-111 498.75,-111 498.75,-130.25"/>
<text text-anchor="middle" x="450.25" y="-116.75" font-family="Helvetica,sans-Serif" font-size="10.00">Line::getStartPoint</text>
</a>
</g>
</g>
<!-- Node12&#45;&gt;Node23 -->
<g id="edge25_Node000012_Node000023" class="edge">
<title>Node12&#45;&gt;Node23</title>
<g id="a_edge25_Node000012_Node000023"><a xlink:title=" ">
<path fill="none" stroke="#63b8ff" d="M343.43,-314.59C347.21,-312.4 350.71,-309.77 353.75,-306.62 406.81,-251.71 338.03,-194.81 389.75,-138.62 390.47,-137.84 391.22,-137.1 392,-136.38"/>
<polygon fill="#63b8ff" stroke="#63b8ff" points="393.89,-139.33 400.08,-130.74 389.88,-133.59 393.89,-139.33"/>
</a>
</g>
</g>
<!-- Node24 -->
<g id="Node000024" class="node">
<title>Node24</title>
<g id="a_Node000024"><a xlink:href="../../d9/dc7/class_rectangle.html#ab38bbfcd0c11b39e0ef58ffd0b5c5069" target="_top" xlink:title=" ">
<polygon fill="white" stroke="#666666" points="502.88,-93.25 397.62,-93.25 397.62,-74 502.88,-74 502.88,-93.25"/>
<text text-anchor="middle" x="450.25" y="-79.75" font-family="Helvetica,sans-Serif" font-size="10.00">Rectangle::getWidth</text>
</a>
</g>
</g>
<!-- Node12&#45;&gt;Node24 -->
<g id="edge26_Node000012_Node000024" class="edge">
<title>Node12&#45;&gt;Node24</title>
<g id="a_edge26_Node000012_Node000024"><a xlink:title=" ">
<path fill="none" stroke="#63b8ff" d="M343.89,-314.52C347.52,-312.34 350.86,-309.73 353.75,-306.62 416.78,-238.92 328.38,-170.84 389.75,-101.62 390.01,-101.33 390.28,-101.04 390.55,-100.75"/>
<polygon fill="#63b8ff" stroke="#63b8ff" points="392.61,-103.58 398.3,-94.65 388.28,-98.08 392.61,-103.58"/>
</a>
</g>
</g>
<!-- Node25 -->
<g id="Node000025" class="node">
<title>Node25</title>
<g id="a_Node000025"><a xlink:href="../../da/d0e/class_text.html#ad24ce301552aff8f9231d438ff9bd1e4" target="_top" xlink:title=" ">
<polygon fill="white" stroke="#666666" points="490.12,-56.25 410.38,-56.25 410.38,-37 490.12,-37 490.12,-56.25"/>
<text text-anchor="middle" x="450.25" y="-42.75" font-family="Helvetica,sans-Serif" font-size="10.00">Text::getWidth</text>
</a>
</g>
</g>
<!-- Node12&#45;&gt;Node25 -->
<g id="edge27_Node000012_Node000025" class="edge">
<title>Node12&#45;&gt;Node25</title>
<g id="a_edge27_Node000012_Node000025"><a xlink:title=" ">
<path fill="none" stroke="#63b8ff" d="M343.98,-314.6C347.59,-312.4 350.9,-309.77 353.75,-306.62 426.79,-226.07 318.68,-146.92 389.75,-64.62 392.56,-61.37 395.94,-58.69 399.64,-56.49"/>
<polygon fill="#63b8ff" stroke="#63b8ff" points="401.02,-59.71 408.64,-52.34 398.09,-53.35 401.02,-59.71"/>
</a>
</g>
</g>
</g>
</svg>

<g id="navigator" transform="translate(0 0)" fill="#404254">
  <rect fill="#f2f5e9" fill-opacity="0.5" stroke="#606060" stroke-width=".5" x="0" y="0" width="60" height="60"/>
  <use id="zoomplus" xlink:href="#zoomPlus" x="17" y="9" onmousedown="handleZoom(evt,'in')"/>
  <use id="zoomminus" xlink:href="#zoomMin" x="42" y="9" onmousedown="handleZoom(evt,'out')"/>
  <use id="reset" xlink:href="#resetDef" x="30" y="36" onmousedown="handleReset()"/>
   <use id="arrowup" xlink:href="#arrowUp" x="0" y="0" onmousedown="handlePan(0,-1)"/>
  <use id="arrowright" xlink:href="#arrowRight" x="0" y="0" onmousedown="handlePan(1,0)"/>
  <use id="arrowdown" xlink:href="#arrowDown" x="0" y="0" onmousedown="handlePan(0,1)"/>
  <use id="arrowleft" xlink:href="#arrowLeft" x="0" y="0" onmousedown="handlePan(-1,0)"/>
</g>
<svg viewBox="0 0 15 15" width="100%" height="30px" preserveAspectRatio="xMaxYMin meet">
 <g id="arrow_out" transform="scale(0.3 0.3)">
  <a xlink:href="class_parser_a8f8932bed758cd3e61de3669fdef1110_cgraph_org.svg" target="_base">
   <rect id="button" ry="5" rx="5" y="6" x="6" height="38" width="38"
        fill="#f2f5e9" fill-opacity="0.5" stroke="#606060" stroke-width="1.0"/>
   <path id="arrow"
     d="M 11.500037,31.436501 C 11.940474,20.09759 22.043105,11.32322 32.158766,21.979434 L 37.068811,17.246167 C 37.068811,17.246167 37.088388,32 37.088388,32 L 22.160133,31.978069 C 22.160133,31.978069 26.997745,27.140456 26.997745,27.140456 C 18.528582,18.264221 13.291696,25.230495 11.500037,31.436501 z"
     style="fill:#404040;"/>
  </a>
 </g>
</svg>

<style type='text/css'>
<![CDATA[
[data-mouse-over-selected='false'] { opacity: 0.7; }
[data-mouse-over-selected='true']  { opacity: 1.0; }
]]>
</style>
<script type="application/ecmascript"><![CDATA[
document.addEventListener('DOMContentLoaded', (event) => {
  highlightEdges();
  highlightAdjacentNodes();
});
]]></script>
</svg>
