<?xml version="1.0" encoding="UTF-8" standalone="no"?>
<!DOCTYPE svg PUBLIC "-//W3C//DTD SVG 1.1//EN"
 "http://www.w3.org/Graphics/SVG/1.1/DTD/svg11.dtd">
<!-- Generated by graphviz version 12.2.1 (20241206.2353)
 -->
<!-- Title: Parser::BuildShape Pages: 1 -->
<svg width="409pt" height="64pt"
 viewBox="0.00 0.00 409.25 64.25" xmlns="http://www.w3.org/2000/svg" xmlns:xlink="http://www.w3.org/1999/xlink">
<g id="graph0" class="graph" transform="scale(1 1) rotate(0) translate(4 60.25)">
<title>Parser::BuildShape</title>
<!-- Node1 -->
<g id="Node000001" class="node">
<title>Node1</title>
<g id="a_Node000001"><a xlink:title="Constructs a concrete Shape object from a populated MorphicShape accumulator.">
<polygon fill="#999999" stroke="#666666" points="100,-37.25 0,-37.25 0,-18 100,-18 100,-37.25"/>
<text text-anchor="middle" x="50" y="-23.75" font-family="Helvetica,sans-Serif" font-size="10.00">Parser::BuildShape</text>
</a>
</g>
</g>
<!-- Node2 -->
<g id="Node000002" class="node">
<title>Node2</title>
<g id="a_Node000002"><a xlink:href="../../d7/da7/class_shape.html#af00c8cc69ddcc455d010997254e5d84f" target="_top" xlink:title=" ">
<polygon fill="white" stroke="#666666" points="240.5,-56.25 136,-56.25 136,-37 240.5,-37 240.5,-56.25"/>
<text text-anchor="middle" x="188.25" y="-42.75" font-family="Helvetica,sans-Serif" font-size="10.00">Shape::setTrackerId</text>
</a>
</g>
</g>
<!-- Node1&#45;&gt;Node2 -->
<g id="edge1_Node000001_Node000002" class="edge">
<title>Node1&#45;&gt;Node2</title>
<g id="a_edge1_Node000001_Node000002"><a xlink:title=" ">
<path fill="none" stroke="#63b8ff" d="M100.19,-34.48C108.06,-35.58 116.31,-36.73 124.45,-37.87"/>
<polygon fill="#63b8ff" stroke="#63b8ff" points="123.95,-41.33 134.34,-39.25 124.92,-34.4 123.95,-41.33"/>
</a>
</g>
</g>
<!-- Node4 -->
<g id="Node000004" class="node">
<title>Node4</title>
<g id="a_Node000004"><a xlink:href="../../db/d35/classalpha_1_1vector.html#a78b5e138cba3b9bc0f9d569c6dd96156" target="_top" xlink:title=" ">
<polygon fill="white" stroke="#666666" points="236.38,-19.25 140.12,-19.25 140.12,0 236.38,0 236.38,-19.25"/>
<text text-anchor="middle" x="188.25" y="-5.75" font-family="Helvetica,sans-Serif" font-size="10.00">alpha::vector::size</text>
</a>
</g>
</g>
<!-- Node1&#45;&gt;Node4 -->
<g id="edge3_Node000001_Node000004" class="edge">
<title>Node1&#45;&gt;Node4</title>
<g id="a_edge3_Node000001_Node000004"><a xlink:title=" ">
<path fill="none" stroke="#63b8ff" d="M100.19,-21.13C109.4,-19.91 119.12,-18.63 128.58,-17.38"/>
<polygon fill="#63b8ff" stroke="#63b8ff" points="129,-20.85 138.45,-16.07 128.08,-13.91 129,-20.85"/>
</a>
</g>
</g>
<!-- Node3 -->
<g id="Node000003" class="node">
<title>Node3</title>
<g id="a_Node000003"><a xlink:href="../../d7/da7/class_shape.html#a520308cc2273f60cb19bf5664570bcf8" target="_top" xlink:title=" ">
<polygon fill="white" stroke="#666666" points="401.25,-56.25 276.5,-56.25 276.5,-37 401.25,-37 401.25,-56.25"/>
<text text-anchor="middle" x="338.88" y="-42.75" font-family="Helvetica,sans-Serif" font-size="10.00">Shape::allocateTrackerId</text>
</a>
</g>
</g>
<!-- Node2&#45;&gt;Node3 -->
<g id="edge2_Node000002_Node000003" class="edge">
<title>Node2&#45;&gt;Node3</title>
<g id="a_edge2_Node000002_Node000003"><a xlink:title=" ">
<path fill="none" stroke="#63b8ff" d="M240.81,-46.62C248.56,-46.62 256.68,-46.62 264.78,-46.62"/>
<polygon fill="#63b8ff" stroke="#63b8ff" points="264.66,-50.13 274.66,-46.63 264.66,-43.13 264.66,-50.13"/>
</a>
</g>
</g>
</g>
</svg>
