<?xml version="1.0" encoding="UTF-8" standalone="no"?>
<!DOCTYPE svg PUBLIC "-//W3C//DTD SVG 1.1//EN"
 "http://www.w3.org/Graphics/SVG/1.1/DTD/svg11.dtd">
<!-- Generated by graphviz version 12.2.1 (20241206.2353)
 -->
<!-- Title: Parser::TestimonialsToJson Pages: 1 -->
<!--zoomable 137 -->

<svg id="main" version="1.1" xmlns="http://www.w3.org/2000/svg" xmlns:xlink="http://www.w3.org/1999/xlink" xml:space="preserve" onload="init(evt)">

<style type="text/css"><![CDATA[
.node, .edge {opacity: 0.7;}
.node.selected, .edge.selected {opacity: 1;}
.edge:hover path { stroke: red; }
.edge:hover polygon { stroke: red; fill: red; }
]]></style>

<defs>
  <circle id="rim" cx="0" cy="0" r="7"/>
  <circle id="rim2" cx="0" cy="0" r="3.5"/>
  <g id="zoomPlus">
    <use xlink:href="#rim" fill="#404040"><set attributeName="fill" to="#808080" begin="zoomplus.mouseover" end="zoomplus.mouseout"/></use>
    <path d="M-4,0h8M0,-4v8" fill="none" stroke="white" stroke-width="1.5" pointer-events="none"/>
  </g>
  <g id="zoomMin">
    <use xlink:href="#rim" fill="#404040"><set attributeName="fill" to="#808080" begin="zoomminus.mouseover" end="zoomminus.mouseout"/></use>
    <path d="M-4,0h8" fill="none" stroke="white" stroke-width="1.5" pointer-events="none"/>
  </g>
  <g id="arrowUp" transform="translate(30 24)">
    <use xlink:href="#rim"/>
    <path pointer-events="none" fill="none" stroke="white" stroke-width="1.5" d="M0,-3.0v7 M-2.5,-0.5L0,-3.0L2.5,-0.5"/>
  </g>
  <g id="arrowRight" transform="rotate(90) translate(36 -43)">
    <use xlink:href="#rim"/>
    <path pointer-events="none" fill="none" stroke="white" stroke-width="1.5" d="M0,-3.0v7 M-2.5,-0.5L0,-3.0L2.5,-0.5"/>
  </g>
  <g id="arrowDown" transform="rotate(180) translate(-30 -48)">
    <use xlink:href="#rim"/>
    <path pointer-events="none" fill="none" stroke="white" stroke-width="1.5" d="M0,-3.0v7 M-2.5,-0.5L0,-3.0L2.5,-0.5"/>
  </g>
  <g id="arrowLeft" transform="rotate(270) translate(-36 17)">
    <use xlink:href="#rim"/>
    <path pointer-events="none" fill="none" stroke="white" stroke-width="1.5" d="M0,-3.0v7 M-2.5,-0.5L0,-3.0L2.5,-0.5"/>
  </g>
  <g id="resetDef">
    <use xlink:href="#rim2" fill="#404040"><set attributeName="fill" to="#808080" begin="reset.mouseover" end="reset.mouseout"/></use>
  </g>
</defs>
<script type="application/ecmascript">
var viewWidth = 705;
var viewHeight = 137;
var sectionId = 'dynsection-46';
</script>
<script type="application/ecmascript" xlink:href="../../svg.min.js"/>
<svg id="graph" class="graph">
<g id="viewport">
<title>Parser::TestimonialsToJson</title>
<!-- Node1 -->
<g id="Node000001" class="node">
<title>Node1</title>
<g id="a_Node000001"><a xlink:title="Converts a QVector of Testimonial objects into a JSON string representation.">
<polygon fill="#999999" stroke="#666666" points="697.25,-73.88 560.5,-73.88 560.5,-54.62 697.25,-54.62 697.25,-73.88"/>
<text text-anchor="middle" x="628.88" y="-60.38" font-family="Helvetica,sans-Serif" font-size="10.00">Parser::TestimonialsToJson</text>
</a>
</g>
</g>
<!-- Node2 -->
<g id="Node000002" class="node">
<title>Node2</title>
<g id="a_Node000002"><a xlink:href="../../d4/d0d/class_testimonial_manager.html#a776df0038128c3464b01c4f52199a960" target="_top" xlink:title="Saves all current testimonials (via API client).">
<polygon fill="white" stroke="#666666" points="524.5,-79.5 421.5,-79.5 421.5,-49 524.5,-49 524.5,-79.5"/>
<text text-anchor="start" x="429.5" y="-66" font-family="Helvetica,sans-Serif" font-size="10.00">TestimonialManager</text>
<text text-anchor="middle" x="473" y="-54.75" font-family="Helvetica,sans-Serif" font-size="10.00">::saveTestimonials</text>
</a>
</g>
</g>
<!-- Node1&#45;&gt;Node2 -->
<g id="edge1_Node000001_Node000002" class="edge">
<title>Node1&#45;&gt;Node2</title>
<g id="a_edge1_Node000001_Node000002"><a xlink:title=" ">
<path fill="none" stroke="#63b8ff" d="M549.12,-64.25C540.85,-64.25 532.61,-64.25 524.78,-64.25"/>
<polygon fill="#63b8ff" stroke="#63b8ff" points="548.87,-67.75 558.87,-64.25 548.87,-60.75 548.87,-67.75"/>
</a>
</g>
</g>
<!-- Node3 -->
<g id="Node000003" class="node">
<title>Node3</title>
<g id="a_Node000003"><a xlink:href="../../d4/d0d/class_testimonial_manager.html#ab5c9dca488f9037b051263dfd8005c48" target="_top" xlink:title="Adds a new testimonial to the manager and persists it.">
<polygon fill="white" stroke="#666666" points="379.5,-128.5 276.5,-128.5 276.5,-98 379.5,-98 379.5,-128.5"/>
<text text-anchor="start" x="284.5" y="-115" font-family="Helvetica,sans-Serif" font-size="10.00">TestimonialManager</text>
<text text-anchor="middle" x="328" y="-103.75" font-family="Helvetica,sans-Serif" font-size="10.00">::addTestimonial</text>
</a>
</g>
</g>
<!-- Node2&#45;&gt;Node3 -->
<g id="edge2_Node000002_Node000003" class="edge">
<title>Node2&#45;&gt;Node3</title>
<g id="a_edge2_Node000002_Node000003"><a xlink:title=" ">
<path fill="none" stroke="#63b8ff" d="M415.67,-83.55C402.08,-88.21 387.73,-93.13 374.7,-97.59"/>
<polygon fill="#63b8ff" stroke="#63b8ff" points="416.6,-86.93 424.93,-80.38 414.33,-80.31 416.6,-86.93"/>
</a>
</g>
</g>
<!-- Node6 -->
<g id="Node000006" class="node">
<title>Node6</title>
<g id="a_Node000006"><a xlink:href="../../d4/d0d/class_testimonial_manager.html#af8576194e4cc9cc482d460666880c8b1" target="_top" xlink:title="Sets the &quot;do not show again&quot; preference for a user.">
<polygon fill="white" stroke="#666666" points="384.75,-79.5 271.25,-79.5 271.25,-49 384.75,-49 384.75,-79.5"/>
<text text-anchor="start" x="279.25" y="-66" font-family="Helvetica,sans-Serif" font-size="10.00">TestimonialManager</text>
<text text-anchor="middle" x="328" y="-54.75" font-family="Helvetica,sans-Serif" font-size="10.00">::setDoNotShowAgain</text>
</a>
</g>
</g>
<!-- Node2&#45;&gt;Node6 -->
<g id="edge5_Node000002_Node000006" class="edge">
<title>Node2&#45;&gt;Node6</title>
<g id="a_edge5_Node000002_Node000006"><a xlink:title=" ">
<path fill="none" stroke="#63b8ff" d="M409.71,-64.25C401.49,-64.25 393.11,-64.25 385,-64.25"/>
<polygon fill="#63b8ff" stroke="#63b8ff" points="409.67,-67.75 419.67,-64.25 409.67,-60.75 409.67,-67.75"/>
</a>
</g>
</g>
<!-- Node8 -->
<g id="Node000008" class="node">
<title>Node8</title>
<g id="a_Node000008"><a xlink:href="../../d4/d0d/class_testimonial_manager.html#a64a932285a93bbacf59e12b5f8445546" target="_top" xlink:title="Private destructor. Saves testimonials before destruction.">
<polygon fill="white" stroke="#666666" points="385.5,-30.5 270.5,-30.5 270.5,0 385.5,0 385.5,-30.5"/>
<text text-anchor="start" x="278.5" y="-17" font-family="Helvetica,sans-Serif" font-size="10.00">TestimonialManager</text>
<text text-anchor="middle" x="328" y="-5.75" font-family="Helvetica,sans-Serif" font-size="10.00">::~TestimonialManager</text>
</a>
</g>
</g>
<!-- Node2&#45;&gt;Node8 -->
<g id="edge9_Node000002_Node000008" class="edge">
<title>Node2&#45;&gt;Node8</title>
<g id="a_edge9_Node000002_Node000008"><a xlink:title=" ">
<path fill="none" stroke="#63b8ff" d="M415.67,-44.95C402.08,-40.29 387.73,-35.37 374.7,-30.91"/>
<polygon fill="#63b8ff" stroke="#63b8ff" points="414.33,-48.19 424.93,-48.12 416.6,-41.57 414.33,-48.19"/>
</a>
</g>
</g>
<!-- Node4 -->
<g id="Node000004" class="node">
<title>Node4</title>
<g id="a_Node000004"><a xlink:href="../../d4/d1f/class_testimonial_dialog.html#a98f2520e872b1eabda8e66a3807ef39e" target="_top" xlink:title="Handles the submission of a new testimonial.">
<polygon fill="white" stroke="#666666" points="234.5,-128.5 135.25,-128.5 135.25,-98 234.5,-98 234.5,-128.5"/>
<text text-anchor="start" x="143.25" y="-115" font-family="Helvetica,sans-Serif" font-size="10.00">TestimonialDialog::</text>
<text text-anchor="middle" x="184.88" y="-103.75" font-family="Helvetica,sans-Serif" font-size="10.00">onSubmit</text>
</a>
</g>
</g>
<!-- Node3&#45;&gt;Node4 -->
<g id="edge3_Node000003_Node000004" class="edge">
<title>Node3&#45;&gt;Node4</title>
<g id="a_edge3_Node000003_Node000004"><a xlink:title=" ">
<path fill="none" stroke="#63b8ff" d="M264.85,-113.25C254.81,-113.25 244.54,-113.25 234.86,-113.25"/>
<polygon fill="#63b8ff" stroke="#63b8ff" points="264.54,-116.75 274.54,-113.25 264.54,-109.75 264.54,-116.75"/>
</a>
</g>
</g>
<!-- Node5 -->
<g id="Node000005" class="node">
<title>Node5</title>
<g id="a_Node000005"><a xlink:href="../../d4/d1f/class_testimonial_dialog.html#aa4e46d387d1d8fd4793ede8c2deb0fd4" target="_top" xlink:title="Constructs a TestimonialDialog.">
<polygon fill="white" stroke="#666666" points="99.25,-103.5 0,-103.5 0,-73 99.25,-73 99.25,-103.5"/>
<text text-anchor="start" x="8" y="-90" font-family="Helvetica,sans-Serif" font-size="10.00">TestimonialDialog::</text>
<text text-anchor="middle" x="49.62" y="-78.75" font-family="Helvetica,sans-Serif" font-size="10.00">TestimonialDialog</text>
</a>
</g>
</g>
<!-- Node4&#45;&gt;Node5 -->
<g id="edge4_Node000004_Node000005" class="edge">
<title>Node4&#45;&gt;Node5</title>
<g id="a_edge4_Node000004_Node000005"><a xlink:title=" ">
<path fill="none" stroke="#63b8ff" d="M123.97,-102.01C115.78,-100.47 107.45,-98.91 99.48,-97.42"/>
<polygon fill="#63b8ff" stroke="#63b8ff" points="123.05,-105.4 133.53,-103.8 124.34,-98.52 123.05,-105.4"/>
</a>
</g>
</g>
<!-- Node6&#45;&gt;Node4 -->
<g id="edge8_Node000006_Node000004" class="edge">
<title>Node6&#45;&gt;Node4</title>
<g id="a_edge8_Node000006_Node000004"><a xlink:title=" ">
<path fill="none" stroke="#63b8ff" d="M271.41,-83.55C258,-88.21 243.83,-93.13 230.97,-97.59"/>
<polygon fill="#63b8ff" stroke="#63b8ff" points="272.23,-86.97 280.53,-80.39 269.93,-80.36 272.23,-86.97"/>
</a>
</g>
</g>
<!-- Node7 -->
<g id="Node000007" class="node">
<title>Node7</title>
<g id="a_Node000007"><a xlink:href="../../d4/d1f/class_testimonial_dialog.html#a4a73a410e9fd8c28b794fe0584976414" target="_top" xlink:title="Handles the cancellation of the testimonial submission.">
<polygon fill="white" stroke="#666666" points="234.5,-79.5 135.25,-79.5 135.25,-49 234.5,-49 234.5,-79.5"/>
<text text-anchor="start" x="143.25" y="-66" font-family="Helvetica,sans-Serif" font-size="10.00">TestimonialDialog::</text>
<text text-anchor="middle" x="184.88" y="-54.75" font-family="Helvetica,sans-Serif" font-size="10.00">onCancel</text>
</a>
</g>
</g>
<!-- Node6&#45;&gt;Node7 -->
<g id="edge6_Node000006_Node000007" class="edge">
<title>Node6&#45;&gt;Node7</title>
<g id="a_edge6_Node000006_Node000007"><a xlink:title=" ">
<path fill="none" stroke="#63b8ff" d="M259.45,-64.25C251.06,-64.25 242.61,-64.25 234.57,-64.25"/>
<polygon fill="#63b8ff" stroke="#63b8ff" points="259.3,-67.75 269.3,-64.25 259.3,-60.75 259.3,-67.75"/>
</a>
</g>
</g>
<!-- Node7&#45;&gt;Node5 -->
<g id="edge7_Node000007_Node000005" class="edge">
<title>Node7&#45;&gt;Node5</title>
<g id="a_edge7_Node000007_Node000005"><a xlink:title=" ">
<path fill="none" stroke="#63b8ff" d="M123.69,-75.09C115.59,-76.55 107.36,-78.03 99.48,-79.45"/>
<polygon fill="#63b8ff" stroke="#63b8ff" points="124.3,-78.54 133.52,-73.32 123.06,-71.65 124.3,-78.54"/>
</a>
</g>
</g>
</g>
</svg>

<g id="navigator" transform="translate(0 0)" fill="#404254">
  <rect fill="#f2f5e9" fill-opacity="0.5" stroke="#606060" stroke-width=".5" x="0" y="0" width="60" height="60"/>
  <use id="zoomplus" xlink:href="#zoomPlus" x="17" y="9" onmousedown="handleZoom(evt,'in')"/>
  <use id="zoomminus" xlink:href="#zoomMin" x="42" y="9" onmousedown="handleZoom(evt,'out')"/>
  <use id="reset" xlink:href="#resetDef" x="30" y="36" onmousedown="handleReset()"/>
   <use id="arrowup" xlink:href="#arrowUp" x="0" y="0" onmousedown="handlePan(0,-1)"/>
  <use id="arrowright" xlink:href="#arrowRight" x="0" y="0" onmousedown="handlePan(1,0)"/>
  <use id="arrowdown" xlink:href="#arrowDown" x="0" y="0" onmousedown="handlePan(0,1)"/>
  <use id="arrowleft" xlink:href="#arrowLeft" x="0" y="0" onmousedown="handlePan(-1,0)"/>
</g>
<svg viewBox="0 0 15 15" width="100%" height="30px" preserveAspectRatio="xMaxYMin meet">
 <g id="arrow_out" transform="scale(0.3 0.3)">
  <a xlink:href="class_parser_a37a8828ed47a09c969ed966865da186d_icgraph_org.svg" target="_base">
   <rect id="button" ry="5" rx="5" y="6" x="6" height="38" width="38"
        fill="#f2f5e9" fill-opacity="0.5" stroke="#606060" stroke-width="1.0"/>
   <path id="arrow"
     d="M 11.500037,31.436501 C 11.940474,20.09759 22.043105,11.32322 32.158766,21.979434 L 37.068811,17.246167 C 37.068811,17.246167 37.088388,32 37.088388,32 L 22.160133,31.978069 C 22.160133,31.978069 26.997745,27.140456 26.997745,27.140456 C 18.528582,18.264221 13.291696,25.230495 11.500037,31.436501 z"
     style="fill:#404040;"/>
  </a>
 </g>
</svg>

<style type='text/css'>
<![CDATA[
[data-mouse-over-selected='false'] { opacity: 0.7; }
[data-mouse-over-selected='true']  { opacity: 1.0; }
]]>
</style>
<script type="application/ecmascript"><![CDATA[
document.addEventListener('DOMContentLoaded', (event) => {
  highlightEdges();
  highlightAdjacentNodes();
});
]]></script>
</svg>
