<?xml version="1.0" encoding="UTF-8" standalone="no"?>
<!DOCTYPE svg PUBLIC "-//W3C//DTD SVG 1.1//EN"
 "http://www.w3.org/Graphics/SVG/1.1/DTD/svg11.dtd">
<!-- Generated by graphviz version 12.2.1 (20241206.2353)
 -->
<!-- Title: Parser::SkipWhitespace Pages: 1 -->
<!--zoomable 129 -->

<svg id="main" version="1.1" xmlns="http://www.w3.org/2000/svg" xmlns:xlink="http://www.w3.org/1999/xlink" xml:space="preserve" onload="init(evt)">

<style type="text/css"><![CDATA[
.node, .edge {opacity: 0.7;}
.node.selected, .edge.selected {opacity: 1;}
.edge:hover path { stroke: red; }
.edge:hover polygon { stroke: red; fill: red; }
]]></style>

<defs>
  <circle id="rim" cx="0" cy="0" r="7"/>
  <circle id="rim2" cx="0" cy="0" r="3.5"/>
  <g id="zoomPlus">
    <use xlink:href="#rim" fill="#404040"><set attributeName="fill" to="#808080" begin="zoomplus.mouseover" end="zoomplus.mouseout"/></use>
    <path d="M-4,0h8M0,-4v8" fill="none" stroke="white" stroke-width="1.5" pointer-events="none"/>
  </g>
  <g id="zoomMin">
    <use xlink:href="#rim" fill="#404040"><set attributeName="fill" to="#808080" begin="zoomminus.mouseover" end="zoomminus.mouseout"/></use>
    <path d="M-4,0h8" fill="none" stroke="white" stroke-width="1.5" pointer-events="none"/>
  </g>
  <g id="arrowUp" transform="translate(30 24)">
    <use xlink:href="#rim"/>
    <path pointer-events="none" fill="none" stroke="white" stroke-width="1.5" d="M0,-3.0v7 M-2.5,-0.5L0,-3.0L2.5,-0.5"/>
  </g>
  <g id="arrowRight" transform="rotate(90) translate(36 -43)">
    <use xlink:href="#rim"/>
    <path pointer-events="none" fill="none" stroke="white" stroke-width="1.5" d="M0,-3.0v7 M-2.5,-0.5L0,-3.0L2.5,-0.5"/>
  </g>
  <g id="arrowDown" transform="rotate(180) translate(-30 -48)">
    <use xlink:href="#rim"/>
    <path pointer-events="none" fill="none" stroke="white" stroke-width="1.5" d="M0,-3.0v7 M-2.5,-0.5L0,-3.0L2.5,-0.5"/>
  </g>
  <g id="arrowLeft" transform="rotate(270) translate(-36 17)">
    <use xlink:href="#rim"/>
    <path pointer-events="none" fill="none" stroke="white" stroke-width="1.5" d="M0,-3.0v7 M-2.5,-0.5L0,-3.0L2.5,-0.5"/>
  </g>
  <g id="resetDef">
    <use xlink:href="#rim2" fill="#404040"><set attributeName="fill" to="#808080" begin="reset.mouseover" end="reset.mouseout"/></use>
  </g>
</defs>
<script type="application/ecmascript">
var viewWidth = 766;
var viewHeight = 129;
var sectionId = 'dynsection-43';
</script>
<script type="application/ecmascript" xlink:href="../../svg.min.js"/>
<svg id="graph" class="graph">
<g id="viewport">
<title>Parser::SkipWhitespace</title>
<!-- Node1 -->
<g id="Node000001" class="node">
<title>Node1</title>
<g id="a_Node000001"><a xlink:title="Advances the parsing index past any whitespace characters.">
<polygon fill="#999999" stroke="#666666" points="758,-76.25 636.25,-76.25 636.25,-57 758,-57 758,-76.25"/>
<text text-anchor="middle" x="697.12" y="-62.75" font-family="Helvetica,sans-Serif" font-size="10.00">Parser::SkipWhitespace</text>
</a>
</g>
</g>
<!-- Node2 -->
<g id="Node000002" class="node">
<title>Node2</title>
<g id="a_Node000002"><a xlink:href="../../dc/db7/class_parser.html#a9c4bd21d0d23be70682e026d6e702ec9" target="_top" xlink:title="Converts a JSON string representation into a vector of Shape objects.">
<polygon fill="white" stroke="#666666" points="115,-95.25 0,-95.25 0,-76 115,-76 115,-95.25"/>
<text text-anchor="middle" x="57.5" y="-81.75" font-family="Helvetica,sans-Serif" font-size="10.00">Parser::JsonToShapes</text>
</a>
</g>
</g>
<!-- Node1&#45;&gt;Node2 -->
<g id="edge1_Node000001_Node000002" class="edge">
<title>Node1&#45;&gt;Node2</title>
<g id="a_edge1_Node000001_Node000002"><a xlink:title=" ">
<path fill="none" stroke="#63b8ff" d="M666.81,-81.6C648.26,-90.22 623.48,-100.19 600.25,-104.62 425.54,-137.99 213.51,-111.73 114.5,-95.7"/>
<polygon fill="#63b8ff" stroke="#63b8ff" points="668.08,-84.87 675.58,-77.39 665.05,-78.56 668.08,-84.87"/>
</a>
</g>
</g>
<!-- Node3 -->
<g id="Node000003" class="node">
<title>Node3</title>
<g id="a_Node000003"><a xlink:href="../../dc/db7/class_parser.html#a7e0c6d8559fd28407b48e9eef05496d8" target="_top" xlink:title="Converts a JSON string representation into a vector of UserAccount objects.">
<polygon fill="white" stroke="#666666" points="596.88,-95.25 488.62,-95.25 488.62,-76 596.88,-76 596.88,-95.25"/>
<text text-anchor="middle" x="542.75" y="-81.75" font-family="Helvetica,sans-Serif" font-size="10.00">Parser::JsonToUsers</text>
</a>
</g>
</g>
<!-- Node1&#45;&gt;Node3 -->
<g id="edge2_Node000001_Node000003" class="edge">
<title>Node1&#45;&gt;Node3</title>
<g id="a_edge2_Node000001_Node000003"><a xlink:title=" ">
<path fill="none" stroke="#63b8ff" d="M624.67,-75.53C615.4,-76.69 606.03,-77.86 597.12,-78.97"/>
<polygon fill="#63b8ff" stroke="#63b8ff" points="624.91,-79.03 634.4,-74.32 624.04,-72.09 624.91,-79.03"/>
</a>
</g>
</g>
<!-- Node4 -->
<g id="Node000004" class="node">
<title>Node4</title>
<g id="a_Node000004"><a xlink:href="../../dc/db7/class_parser.html#a4d2c4035d6109be0ceca773cfbcff523" target="_top" xlink:title="Parses a single JSON object (data within &#39;{}&#39;) into a MorphicShape.">
<polygon fill="white" stroke="#666666" points="276.5,-57.25 151,-57.25 151,-38 276.5,-38 276.5,-57.25"/>
<text text-anchor="middle" x="213.75" y="-43.75" font-family="Helvetica,sans-Serif" font-size="10.00">Parser::ParseJsonObject</text>
</a>
</g>
</g>
<!-- Node1&#45;&gt;Node4 -->
<g id="edge3_Node000001_Node000004" class="edge">
<title>Node1&#45;&gt;Node4</title>
<g id="a_edge3_Node000001_Node000004"><a xlink:title=" ">
<path fill="none" stroke="#63b8ff" d="M624.71,-63.81C530.41,-60.08 365.91,-53.59 276.64,-50.07"/>
<polygon fill="#63b8ff" stroke="#63b8ff" points="624.49,-67.3 634.62,-64.2 624.77,-60.31 624.49,-67.3"/>
</a>
</g>
</g>
<!-- Node5 -->
<g id="Node000005" class="node">
<title>Node5</title>
<g id="a_Node000005"><a xlink:href="../../dc/db7/class_parser.html#a0a4c2a3664d2d2c1f5444c18271a1cf4" target="_top" xlink:title="Converts a string representation of a JSON array of integers into an alpha::vector&lt;int&gt;.">
<polygon fill="white" stroke="#666666" points="600.25,-19.25 485.25,-19.25 485.25,0 600.25,0 600.25,-19.25"/>
<text text-anchor="middle" x="542.75" y="-5.75" font-family="Helvetica,sans-Serif" font-size="10.00">Parser::StringToVector</text>
</a>
</g>
</g>
<!-- Node1&#45;&gt;Node5 -->
<g id="edge5_Node000001_Node000005" class="edge">
<title>Node1&#45;&gt;Node5</title>
<g id="a_edge5_Node000001_Node000005"><a xlink:title=" ">
<path fill="none" stroke="#63b8ff" d="M658.53,-52.56C631.26,-42.36 595.03,-28.81 570.63,-19.68"/>
<polygon fill="#63b8ff" stroke="#63b8ff" points="657.22,-55.81 667.82,-56.04 659.68,-49.25 657.22,-55.81"/>
</a>
</g>
</g>
<!-- Node4&#45;&gt;Node2 -->
<g id="edge4_Node000004_Node000002" class="edge">
<title>Node4&#45;&gt;Node2</title>
<g id="a_edge4_Node000004_Node000002"><a xlink:title=" ">
<path fill="none" stroke="#63b8ff" d="M160.69,-60.45C140.69,-65.38 118.16,-70.93 99.35,-75.56"/>
<polygon fill="#63b8ff" stroke="#63b8ff" points="161.48,-63.86 170.35,-58.07 159.8,-57.06 161.48,-63.86"/>
</a>
</g>
</g>
<!-- Node6 -->
<g id="Node000006" class="node">
<title>Node6</title>
<g id="a_Node000006"><a xlink:href="../../dc/db7/class_parser.html#ac3bb64fa743348c1b31eb1118c6d4e0f" target="_top" xlink:title="Updates a MorphicShape accumulator with a parsed key&#45;value pair.">
<polygon fill="white" stroke="#666666" points="449.25,-19.25 312.5,-19.25 312.5,0 449.25,0 449.25,-19.25"/>
<text text-anchor="middle" x="380.88" y="-5.75" font-family="Helvetica,sans-Serif" font-size="10.00">Parser::UpdateAccumulator</text>
</a>
</g>
</g>
<!-- Node5&#45;&gt;Node6 -->
<g id="edge6_Node000005_Node000006" class="edge">
<title>Node5&#45;&gt;Node6</title>
<g id="a_edge6_Node000005_Node000006"><a xlink:title=" ">
<path fill="none" stroke="#63b8ff" d="M473.53,-9.62C465.64,-9.62 457.6,-9.62 449.72,-9.62"/>
<polygon fill="#63b8ff" stroke="#63b8ff" points="473.42,-13.13 483.42,-9.63 473.42,-6.13 473.42,-13.13"/>
</a>
</g>
</g>
<!-- Node6&#45;&gt;Node4 -->
<g id="edge7_Node000006_Node000004" class="edge">
<title>Node6&#45;&gt;Node4</title>
<g id="a_edge7_Node000006_Node000004"><a xlink:title=" ">
<path fill="none" stroke="#63b8ff" d="M325.04,-22.24C303.41,-27.22 278.9,-32.86 258.48,-37.56"/>
<polygon fill="#63b8ff" stroke="#63b8ff" points="325.62,-25.7 334.58,-20.05 324.05,-18.88 325.62,-25.7"/>
</a>
</g>
</g>
</g>
</svg>

<g id="navigator" transform="translate(0 0)" fill="#404254">
  <rect fill="#f2f5e9" fill-opacity="0.5" stroke="#606060" stroke-width=".5" x="0" y="0" width="60" height="60"/>
  <use id="zoomplus" xlink:href="#zoomPlus" x="17" y="9" onmousedown="handleZoom(evt,'in')"/>
  <use id="zoomminus" xlink:href="#zoomMin" x="42" y="9" onmousedown="handleZoom(evt,'out')"/>
  <use id="reset" xlink:href="#resetDef" x="30" y="36" onmousedown="handleReset()"/>
   <use id="arrowup" xlink:href="#arrowUp" x="0" y="0" onmousedown="handlePan(0,-1)"/>
  <use id="arrowright" xlink:href="#arrowRight" x="0" y="0" onmousedown="handlePan(1,0)"/>
  <use id="arrowdown" xlink:href="#arrowDown" x="0" y="0" onmousedown="handlePan(0,1)"/>
  <use id="arrowleft" xlink:href="#arrowLeft" x="0" y="0" onmousedown="handlePan(-1,0)"/>
</g>
<svg viewBox="0 0 15 15" width="100%" height="30px" preserveAspectRatio="xMaxYMin meet">
 <g id="arrow_out" transform="scale(0.3 0.3)">
  <a xlink:href="class_parser_a49fad6dc437bab644ea477090320cbe8_icgraph_org.svg" target="_base">
   <rect id="button" ry="5" rx="5" y="6" x="6" height="38" width="38"
        fill="#f2f5e9" fill-opacity="0.5" stroke="#606060" stroke-width="1.0"/>
   <path id="arrow"
     d="M 11.500037,31.436501 C 11.940474,20.09759 22.043105,11.32322 32.158766,21.979434 L 37.068811,17.246167 C 37.068811,17.246167 37.088388,32 37.088388,32 L 22.160133,31.978069 C 22.160133,31.978069 26.997745,27.140456 26.997745,27.140456 C 18.528582,18.264221 13.291696,25.230495 11.500037,31.436501 z"
     style="fill:#404040;"/>
  </a>
 </g>
</svg>

<style type='text/css'>
<![CDATA[
[data-mouse-over-selected='false'] { opacity: 0.7; }
[data-mouse-over-selected='true']  { opacity: 1.0; }
]]>
</style>
<script type="application/ecmascript"><![CDATA[
document.addEventListener('DOMContentLoaded', (event) => {
  highlightEdges();
  highlightAdjacentNodes();
});
]]></script>
</svg>
