<?xml version="1.0" encoding="UTF-8" standalone="no"?>
<!DOCTYPE svg PUBLIC "-//W3C//DTD SVG 1.1//EN"
 "http://www.w3.org/Graphics/SVG/1.1/DTD/svg11.dtd">
<!-- Generated by graphviz version 12.2.1 (20241206.2353)
 -->
<!-- Title: Parser::JsonToShapes Pages: 1 -->
<!--zoomable 308 -->

<svg id="main" version="1.1" xmlns="http://www.w3.org/2000/svg" xmlns:xlink="http://www.w3.org/1999/xlink" xml:space="preserve" onload="init(evt)">

<style type="text/css"><![CDATA[
.node, .edge {opacity: 0.7;}
.node.selected, .edge.selected {opacity: 1;}
.edge:hover path { stroke: red; }
.edge:hover polygon { stroke: red; fill: red; }
]]></style>

<defs>
  <circle id="rim" cx="0" cy="0" r="7"/>
  <circle id="rim2" cx="0" cy="0" r="3.5"/>
  <g id="zoomPlus">
    <use xlink:href="#rim" fill="#404040"><set attributeName="fill" to="#808080" begin="zoomplus.mouseover" end="zoomplus.mouseout"/></use>
    <path d="M-4,0h8M0,-4v8" fill="none" stroke="white" stroke-width="1.5" pointer-events="none"/>
  </g>
  <g id="zoomMin">
    <use xlink:href="#rim" fill="#404040"><set attributeName="fill" to="#808080" begin="zoomminus.mouseover" end="zoomminus.mouseout"/></use>
    <path d="M-4,0h8" fill="none" stroke="white" stroke-width="1.5" pointer-events="none"/>
  </g>
  <g id="arrowUp" transform="translate(30 24)">
    <use xlink:href="#rim"/>
    <path pointer-events="none" fill="none" stroke="white" stroke-width="1.5" d="M0,-3.0v7 M-2.5,-0.5L0,-3.0L2.5,-0.5"/>
  </g>
  <g id="arrowRight" transform="rotate(90) translate(36 -43)">
    <use xlink:href="#rim"/>
    <path pointer-events="none" fill="none" stroke="white" stroke-width="1.5" d="M0,-3.0v7 M-2.5,-0.5L0,-3.0L2.5,-0.5"/>
  </g>
  <g id="arrowDown" transform="rotate(180) translate(-30 -48)">
    <use xlink:href="#rim"/>
    <path pointer-events="none" fill="none" stroke="white" stroke-width="1.5" d="M0,-3.0v7 M-2.5,-0.5L0,-3.0L2.5,-0.5"/>
  </g>
  <g id="arrowLeft" transform="rotate(270) translate(-36 17)">
    <use xlink:href="#rim"/>
    <path pointer-events="none" fill="none" stroke="white" stroke-width="1.5" d="M0,-3.0v7 M-2.5,-0.5L0,-3.0L2.5,-0.5"/>
  </g>
  <g id="resetDef">
    <use xlink:href="#rim2" fill="#404040"><set attributeName="fill" to="#808080" begin="reset.mouseover" end="reset.mouseout"/></use>
  </g>
</defs>
<script type="application/ecmascript">
var viewWidth = 926;
var viewHeight = 308;
var sectionId = 'dynsection-35';
</script>
<script type="application/ecmascript" xlink:href="../../svg.min.js"/>
<svg id="graph" class="graph">
<g id="viewport">
<title>Parser::JsonToShapes</title>
<!-- Node1 -->
<g id="Node000001" class="node">
<title>Node1</title>
<g id="a_Node000001"><a xlink:title="Converts a JSON string representation into a vector of Shape objects.">
<polygon fill="#999999" stroke="#666666" points="115,-75.25 0,-75.25 0,-56 115,-56 115,-75.25"/>
<text text-anchor="middle" x="57.5" y="-61.75" font-family="Helvetica,sans-Serif" font-size="10.00">Parser::JsonToShapes</text>
</a>
</g>
</g>
<!-- Node2 -->
<g id="Node000002" class="node">
<title>Node2</title>
<g id="a_Node000002"><a xlink:href="../../dc/db7/class_parser.html#a991032ca21e8e64a0fa274b8056cc669" target="_top" xlink:title="Constructs a concrete Shape object from a populated MorphicShape accumulator.">
<polygon fill="white" stroke="#666666" points="263.75,-263.25 163.75,-263.25 163.75,-244 263.75,-244 263.75,-263.25"/>
<text text-anchor="middle" x="213.75" y="-249.75" font-family="Helvetica,sans-Serif" font-size="10.00">Parser::BuildShape</text>
</a>
</g>
</g>
<!-- Node1&#45;&gt;Node2 -->
<g id="edge1_Node000001_Node000002" class="edge">
<title>Node1&#45;&gt;Node2</title>
<g id="a_edge1_Node000001_Node000002"><a xlink:title=" ">
<path fill="none" stroke="#63b8ff" d="M66.79,-75.73C91.6,-105.97 165.49,-196.02 197.58,-235.14"/>
<polygon fill="#63b8ff" stroke="#63b8ff" points="194.78,-237.24 203.83,-242.75 200.19,-232.8 194.78,-237.24"/>
</a>
</g>
</g>
<!-- Node6 -->
<g id="Node000006" class="node">
<title>Node6</title>
<g id="a_Node000006"><a xlink:href="../../dc/db7/class_parser.html#a4d2c4035d6109be0ceca773cfbcff523" target="_top" xlink:title="Parses a single JSON object (data within &#39;{}&#39;) into a MorphicShape.">
<polygon fill="white" stroke="#666666" points="276.5,-113.25 151,-113.25 151,-94 276.5,-94 276.5,-113.25"/>
<text text-anchor="middle" x="213.75" y="-99.75" font-family="Helvetica,sans-Serif" font-size="10.00">Parser::ParseJsonObject</text>
</a>
</g>
</g>
<!-- Node1&#45;&gt;Node6 -->
<g id="edge5_Node000001_Node000006" class="edge">
<title>Node1&#45;&gt;Node6</title>
<g id="a_edge5_Node000001_Node000006"><a xlink:title=" ">
<path fill="none" stroke="#63b8ff" d="M99.43,-75.71C118.25,-80.34 140.78,-85.89 160.77,-90.82"/>
<polygon fill="#63b8ff" stroke="#63b8ff" points="159.88,-94.2 170.43,-93.2 161.55,-87.41 159.88,-94.2"/>
</a>
</g>
</g>
<!-- Node12 -->
<g id="Node000012" class="node">
<title>Node12</title>
<g id="a_Node000012"><a xlink:href="../../dc/db7/class_parser.html#a49fad6dc437bab644ea477090320cbe8" target="_top" xlink:title="Advances the parsing index past any whitespace characters.">
<polygon fill="white" stroke="#666666" points="769.62,-75.25 647.88,-75.25 647.88,-56 769.62,-56 769.62,-75.25"/>
<text text-anchor="middle" x="708.75" y="-61.75" font-family="Helvetica,sans-Serif" font-size="10.00">Parser::SkipWhitespace</text>
</a>
</g>
</g>
<!-- Node1&#45;&gt;Node12 -->
<g id="edge19_Node000001_Node000012" class="edge">
<title>Node1&#45;&gt;Node12</title>
<g id="a_edge19_Node000001_Node000012"><a xlink:title=" ">
<path fill="none" stroke="#63b8ff" d="M115.42,-58.79C215.63,-47.85 430,-29.29 610,-46.62 624.39,-48.01 639.82,-50.52 654.06,-53.27"/>
<polygon fill="#63b8ff" stroke="#63b8ff" points="653.21,-56.67 663.7,-55.21 654.59,-49.81 653.21,-56.67"/>
</a>
</g>
</g>
<!-- Node15 -->
<g id="Node000015" class="node">
<title>Node15</title>
<g id="a_Node000015"><a xlink:href="../../db/d35/classalpha_1_1vector.html#a8305c181181e4739a1c5f29cf3a2c144" target="_top" xlink:title=" ">
<polygon fill="white" stroke="#666666" points="771.5,-19.25 646,-19.25 646,0 771.5,0 771.5,-19.25"/>
<text text-anchor="middle" x="708.75" y="-5.75" font-family="Helvetica,sans-Serif" font-size="10.00">alpha::vector::push_back</text>
</a>
</g>
</g>
<!-- Node1&#45;&gt;Node15 -->
<g id="edge18_Node000001_Node000015" class="edge">
<title>Node1&#45;&gt;Node15</title>
<g id="a_edge18_Node000001_Node000015"><a xlink:title=" ">
<path fill="none" stroke="#63b8ff" d="M90.71,-55.61C108.34,-50.54 130.68,-44.81 151,-41.62 322.65,-14.69 527.24,-9.79 634.24,-9.27"/>
<polygon fill="#63b8ff" stroke="#63b8ff" points="634.04,-12.77 644.02,-9.24 634.01,-5.77 634.04,-12.77"/>
</a>
</g>
</g>
<!-- Node3 -->
<g id="Node000003" class="node">
<title>Node3</title>
<g id="a_Node000003"><a xlink:href="../../d7/da7/class_shape.html#af00c8cc69ddcc455d010997254e5d84f" target="_top" xlink:title=" ">
<polygon fill="white" stroke="#666666" points="433.12,-300.25 328.62,-300.25 328.62,-281 433.12,-281 433.12,-300.25"/>
<text text-anchor="middle" x="380.88" y="-286.75" font-family="Helvetica,sans-Serif" font-size="10.00">Shape::setTrackerId</text>
</a>
</g>
</g>
<!-- Node2&#45;&gt;Node3 -->
<g id="edge2_Node000002_Node000003" class="edge">
<title>Node2&#45;&gt;Node3</title>
<g id="a_edge2_Node000002_Node000003"><a xlink:title=" ">
<path fill="none" stroke="#63b8ff" d="M259.87,-263.74C279.62,-268.16 303,-273.4 323.85,-278.07"/>
<polygon fill="#63b8ff" stroke="#63b8ff" points="322.81,-281.42 333.33,-280.2 324.34,-274.59 322.81,-281.42"/>
</a>
</g>
</g>
<!-- Node5 -->
<g id="Node000005" class="node">
<title>Node5</title>
<g id="a_Node000005"><a xlink:href="../../db/d35/classalpha_1_1vector.html#a78b5e138cba3b9bc0f9d569c6dd96156" target="_top" xlink:title=" ">
<polygon fill="white" stroke="#666666" points="429,-263.25 332.75,-263.25 332.75,-244 429,-244 429,-263.25"/>
<text text-anchor="middle" x="380.88" y="-249.75" font-family="Helvetica,sans-Serif" font-size="10.00">alpha::vector::size</text>
</a>
</g>
</g>
<!-- Node2&#45;&gt;Node5 -->
<g id="edge4_Node000002_Node000005" class="edge">
<title>Node2&#45;&gt;Node5</title>
<g id="a_edge4_Node000002_Node000005"><a xlink:title=" ">
<path fill="none" stroke="#63b8ff" d="M263.85,-253.62C281.8,-253.62 302.29,-253.62 321,-253.62"/>
<polygon fill="#63b8ff" stroke="#63b8ff" points="320.87,-257.13 330.87,-253.63 320.87,-250.13 320.87,-257.13"/>
</a>
</g>
</g>
<!-- Node4 -->
<g id="Node000004" class="node">
<title>Node4</title>
<g id="a_Node000004"><a xlink:href="../../d7/da7/class_shape.html#a520308cc2273f60cb19bf5664570bcf8" target="_top" xlink:title=" ">
<polygon fill="white" stroke="#666666" points="610,-300.25 485.25,-300.25 485.25,-281 610,-281 610,-300.25"/>
<text text-anchor="middle" x="547.62" y="-286.75" font-family="Helvetica,sans-Serif" font-size="10.00">Shape::allocateTrackerId</text>
</a>
</g>
</g>
<!-- Node3&#45;&gt;Node4 -->
<g id="edge3_Node000003_Node000004" class="edge">
<title>Node3&#45;&gt;Node4</title>
<g id="a_edge3_Node000003_Node000004"><a xlink:title=" ">
<path fill="none" stroke="#63b8ff" d="M433.55,-290.62C446.31,-290.62 460.21,-290.62 473.76,-290.62"/>
<polygon fill="#63b8ff" stroke="#63b8ff" points="473.51,-294.13 483.51,-290.63 473.51,-287.13 473.51,-294.13"/>
</a>
</g>
</g>
<!-- Node7 -->
<g id="Node000007" class="node">
<title>Node7</title>
<g id="a_Node000007"><a xlink:href="../../dc/db7/class_parser.html#a6658bb70a8b63f8edab2c0a6c7c65d9a" target="_top" xlink:title="Extracts a JSON key (a string enclosed in double quotes) from the input string.">
<polygon fill="white" stroke="#666666" points="597.25,-262.25 498,-262.25 498,-243 597.25,-243 597.25,-262.25"/>
<text text-anchor="middle" x="547.62" y="-248.75" font-family="Helvetica,sans-Serif" font-size="10.00">Parser::ExtractKey</text>
</a>
</g>
</g>
<!-- Node6&#45;&gt;Node7 -->
<g id="edge6_Node000006_Node000007" class="edge">
<title>Node6&#45;&gt;Node7</title>
<g id="a_edge6_Node000006_Node000007"><a xlink:title=" ">
<path fill="none" stroke="#63b8ff" d="M222.15,-113.53C237.02,-132.71 272.57,-174.93 312.5,-196.62 342.17,-212.74 427.66,-230.82 486.69,-241.97"/>
<polygon fill="#63b8ff" stroke="#63b8ff" points="485.79,-245.36 496.26,-243.76 487.07,-238.48 485.79,-245.36"/>
</a>
</g>
</g>
<!-- Node8 -->
<g id="Node000008" class="node">
<title>Node8</title>
<g id="a_Node000008"><a xlink:href="../../dc/db7/class_parser.html#ade9641ed520d4e9b73600e3cc049af46" target="_top" xlink:title="Extracts a JSON value from the input string.">
<polygon fill="white" stroke="#666666" points="433.88,-187.25 327.88,-187.25 327.88,-168 433.88,-168 433.88,-187.25"/>
<text text-anchor="middle" x="380.88" y="-173.75" font-family="Helvetica,sans-Serif" font-size="10.00">Parser::ExtractValue</text>
</a>
</g>
</g>
<!-- Node6&#45;&gt;Node8 -->
<g id="edge7_Node000006_Node000008" class="edge">
<title>Node6&#45;&gt;Node8</title>
<g id="a_edge7_Node000006_Node000008"><a xlink:title=" ">
<path fill="none" stroke="#63b8ff" d="M237.02,-113.6C265.33,-126.29 314.45,-148.31 347.06,-162.92"/>
<polygon fill="#63b8ff" stroke="#63b8ff" points="345.49,-166.05 356.05,-166.95 348.36,-159.66 345.49,-166.05"/>
</a>
</g>
</g>
<!-- Node6&#45;&gt;Node12 -->
<g id="edge12_Node000006_Node000012" class="edge">
<title>Node6&#45;&gt;Node12</title>
<g id="a_edge12_Node000006_Node000012"><a xlink:title=" ">
<path fill="none" stroke="#63b8ff" d="M276.94,-103.4C354.99,-102.47 492.86,-98.75 610,-84.62 623.68,-82.98 638.31,-80.51 651.98,-77.9"/>
<polygon fill="#63b8ff" stroke="#63b8ff" points="652.58,-81.35 661.71,-75.98 651.22,-74.48 652.58,-81.35"/>
</a>
</g>
</g>
<!-- Node13 -->
<g id="Node000013" class="node">
<title>Node13</title>
<g id="a_Node000013"><a xlink:href="../../dc/db7/class_parser.html#ac3bb64fa743348c1b31eb1118c6d4e0f" target="_top" xlink:title="Updates a MorphicShape accumulator with a parsed key&#45;value pair.">
<polygon fill="white" stroke="#666666" points="449.25,-75.25 312.5,-75.25 312.5,-56 449.25,-56 449.25,-75.25"/>
<text text-anchor="middle" x="380.88" y="-61.75" font-family="Helvetica,sans-Serif" font-size="10.00">Parser::UpdateAccumulator</text>
</a>
</g>
</g>
<!-- Node6&#45;&gt;Node13 -->
<g id="edge13_Node000006_Node000013" class="edge">
<title>Node6&#45;&gt;Node13</title>
<g id="a_edge13_Node000006_Node000013"><a xlink:title=" ">
<path fill="none" stroke="#63b8ff" d="M258.57,-93.54C278.99,-88.84 303.5,-83.2 325.13,-78.22"/>
<polygon fill="#63b8ff" stroke="#63b8ff" points="325.7,-81.68 334.67,-76.03 324.13,-74.86 325.7,-81.68"/>
</a>
</g>
</g>
<!-- Node8&#45;&gt;Node7 -->
<g id="edge10_Node000008_Node000007" class="edge">
<title>Node8&#45;&gt;Node7</title>
<g id="a_edge10_Node000008_Node000007"><a xlink:title=" ">
<path fill="none" stroke="#63b8ff" d="M418.4,-187.66C428.76,-191.29 439.78,-195.92 449.25,-201.62 467.84,-212.82 466.35,-223.96 485.25,-234.62 487.58,-235.94 490.01,-237.16 492.5,-238.3"/>
<polygon fill="#63b8ff" stroke="#63b8ff" points="491.03,-241.48 501.61,-241.98 493.65,-234.99 491.03,-241.48"/>
</a>
</g>
</g>
<!-- Node9 -->
<g id="Node000009" class="node">
<title>Node9</title>
<g id="a_Node000009"><a xlink:href="../../dc/db7/class_parser.html#acabd71dccc533b85de37e566cda47abe" target="_top" xlink:title="Extracts a JSON array (content within &#39;[]&#39;) as a string.">
<polygon fill="white" stroke="#666666" points="600.25,-225.25 495,-225.25 495,-206 600.25,-206 600.25,-225.25"/>
<text text-anchor="middle" x="547.62" y="-211.75" font-family="Helvetica,sans-Serif" font-size="10.00">Parser::ExtractArray</text>
</a>
</g>
</g>
<!-- Node8&#45;&gt;Node9 -->
<g id="edge8_Node000008_Node000009" class="edge">
<title>Node8&#45;&gt;Node9</title>
<g id="a_edge8_Node000008_Node000009"><a xlink:title=" ">
<path fill="none" stroke="#63b8ff" d="M425.59,-187.71C445.97,-192.41 470.42,-198.05 492,-203.03"/>
<polygon fill="#63b8ff" stroke="#63b8ff" points="490.98,-206.38 501.51,-205.22 492.56,-199.56 490.98,-206.38"/>
</a>
</g>
</g>
<!-- Node10 -->
<g id="Node000010" class="node">
<title>Node10</title>
<g id="a_Node000010"><a xlink:href="../../dc/db7/class_parser.html#a30398a0f28f70626124609a1071f7f60" target="_top" xlink:title="Extracts an integer value from the JSON string.">
<polygon fill="white" stroke="#666666" points="603.62,-188.25 491.62,-188.25 491.62,-169 603.62,-169 603.62,-188.25"/>
<text text-anchor="middle" x="547.62" y="-174.75" font-family="Helvetica,sans-Serif" font-size="10.00">Parser::ExtractInteger</text>
</a>
</g>
</g>
<!-- Node8&#45;&gt;Node10 -->
<g id="edge9_Node000008_Node000010" class="edge">
<title>Node8&#45;&gt;Node10</title>
<g id="a_edge9_Node000008_Node000010"><a xlink:title=" ">
<path fill="none" stroke="#63b8ff" d="M434,-177.94C448.5,-178.03 464.45,-178.13 479.67,-178.22"/>
<polygon fill="#63b8ff" stroke="#63b8ff" points="479.6,-181.72 489.62,-178.28 479.64,-174.72 479.6,-181.72"/>
</a>
</g>
</g>
<!-- Node11 -->
<g id="Node000011" class="node">
<title>Node11</title>
<g id="a_Node000011"><a xlink:href="../../dc/db7/class_parser.html#a9dbc99f343ea14baa4e3c8d84066b83e" target="_top" xlink:title="Extracts a JSON literal (true, false, null) as a string.">
<polygon fill="white" stroke="#666666" points="601.75,-151.25 493.5,-151.25 493.5,-132 601.75,-132 601.75,-151.25"/>
<text text-anchor="middle" x="547.62" y="-137.75" font-family="Helvetica,sans-Serif" font-size="10.00">Parser::ExtractLiteral</text>
</a>
</g>
</g>
<!-- Node8&#45;&gt;Node11 -->
<g id="edge11_Node000008_Node000011" class="edge">
<title>Node8&#45;&gt;Node11</title>
<g id="a_edge11_Node000008_Node000011"><a xlink:title=" ">
<path fill="none" stroke="#63b8ff" d="M428.21,-167.5C447.15,-163.36 469.26,-158.53 489.21,-154.17"/>
<polygon fill="#63b8ff" stroke="#63b8ff" points="489.86,-157.61 498.88,-152.06 488.36,-150.77 489.86,-157.61"/>
</a>
</g>
</g>
<!-- Node14 -->
<g id="Node000014" class="node">
<title>Node14</title>
<g id="a_Node000014"><a xlink:href="../../dc/db7/class_parser.html#a0a4c2a3664d2d2c1f5444c18271a1cf4" target="_top" xlink:title="Converts a string representation of a JSON array of integers into an alpha::vector&lt;int&gt;.">
<polygon fill="white" stroke="#666666" points="605.12,-75.25 490.12,-75.25 490.12,-56 605.12,-56 605.12,-75.25"/>
<text text-anchor="middle" x="547.62" y="-61.75" font-family="Helvetica,sans-Serif" font-size="10.00">Parser::StringToVector</text>
</a>
</g>
</g>
<!-- Node13&#45;&gt;Node14 -->
<g id="edge14_Node000013_Node000014" class="edge">
<title>Node13&#45;&gt;Node14</title>
<g id="a_edge14_Node000013_Node000014"><a xlink:title=" ">
<path fill="none" stroke="#63b8ff" d="M449.36,-65.62C458.9,-65.62 468.72,-65.62 478.27,-65.62"/>
<polygon fill="#63b8ff" stroke="#63b8ff" points="478.25,-69.13 488.25,-65.63 478.25,-62.13 478.25,-69.13"/>
</a>
</g>
</g>
<!-- Node14&#45;&gt;Node12 -->
<g id="edge17_Node000014_Node000012" class="edge">
<title>Node14&#45;&gt;Node12</title>
<g id="a_edge17_Node000014_Node000012"><a xlink:title=" ">
<path fill="none" stroke="#63b8ff" d="M605.62,-65.62C615.47,-65.62 625.82,-65.62 636,-65.62"/>
<polygon fill="#63b8ff" stroke="#63b8ff" points="635.87,-69.13 645.87,-65.63 635.87,-62.13 635.87,-69.13"/>
</a>
</g>
</g>
<!-- Node14&#45;&gt;Node15 -->
<g id="edge15_Node000014_Node000015" class="edge">
<title>Node14&#45;&gt;Node15</title>
<g id="a_edge15_Node000014_Node000015"><a xlink:title=" ">
<path fill="none" stroke="#63b8ff" d="M577.07,-55.61C602.49,-46.67 639.96,-33.48 668.27,-23.52"/>
<polygon fill="#63b8ff" stroke="#63b8ff" points="669.31,-26.86 677.58,-20.24 666.99,-20.26 669.31,-26.86"/>
</a>
</g>
</g>
<!-- Node16 -->
<g id="Node000016" class="node">
<title>Node16</title>
<g id="a_Node000016"><a xlink:href="../../db/d35/classalpha_1_1vector.html#a6dd9585078696eb1d5e7186435f0e41c" target="_top" xlink:title=" ">
<polygon fill="white" stroke="#666666" points="918,-19.25 807.5,-19.25 807.5,0 918,0 918,-19.25"/>
<text text-anchor="middle" x="862.75" y="-5.75" font-family="Helvetica,sans-Serif" font-size="10.00">alpha::vector::reserve</text>
</a>
</g>
</g>
<!-- Node15&#45;&gt;Node16 -->
<g id="edge16_Node000015_Node000016" class="edge">
<title>Node15&#45;&gt;Node16</title>
<g id="a_edge16_Node000015_Node000016"><a xlink:title=" ">
<path fill="none" stroke="#63b8ff" d="M771.57,-9.62C779.62,-9.62 787.88,-9.62 795.99,-9.62"/>
<polygon fill="#63b8ff" stroke="#63b8ff" points="795.79,-13.13 805.79,-9.63 795.79,-6.13 795.79,-13.13"/>
</a>
</g>
</g>
</g>
</svg>

<g id="navigator" transform="translate(0 0)" fill="#404254">
  <rect fill="#f2f5e9" fill-opacity="0.5" stroke="#606060" stroke-width=".5" x="0" y="0" width="60" height="60"/>
  <use id="zoomplus" xlink:href="#zoomPlus" x="17" y="9" onmousedown="handleZoom(evt,'in')"/>
  <use id="zoomminus" xlink:href="#zoomMin" x="42" y="9" onmousedown="handleZoom(evt,'out')"/>
  <use id="reset" xlink:href="#resetDef" x="30" y="36" onmousedown="handleReset()"/>
   <use id="arrowup" xlink:href="#arrowUp" x="0" y="0" onmousedown="handlePan(0,-1)"/>
  <use id="arrowright" xlink:href="#arrowRight" x="0" y="0" onmousedown="handlePan(1,0)"/>
  <use id="arrowdown" xlink:href="#arrowDown" x="0" y="0" onmousedown="handlePan(0,1)"/>
  <use id="arrowleft" xlink:href="#arrowLeft" x="0" y="0" onmousedown="handlePan(-1,0)"/>
</g>
<svg viewBox="0 0 15 15" width="100%" height="30px" preserveAspectRatio="xMaxYMin meet">
 <g id="arrow_out" transform="scale(0.3 0.3)">
  <a xlink:href="class_parser_a9c4bd21d0d23be70682e026d6e702ec9_cgraph_org.svg" target="_base">
   <rect id="button" ry="5" rx="5" y="6" x="6" height="38" width="38"
        fill="#f2f5e9" fill-opacity="0.5" stroke="#606060" stroke-width="1.0"/>
   <path id="arrow"
     d="M 11.500037,31.436501 C 11.940474,20.09759 22.043105,11.32322 32.158766,21.979434 L 37.068811,17.246167 C 37.068811,17.246167 37.088388,32 37.088388,32 L 22.160133,31.978069 C 22.160133,31.978069 26.997745,27.140456 26.997745,27.140456 C 18.528582,18.264221 13.291696,25.230495 11.500037,31.436501 z"
     style="fill:#404040;"/>
  </a>
 </g>
</svg>

<style type='text/css'>
<![CDATA[
[data-mouse-over-selected='false'] { opacity: 0.7; }
[data-mouse-over-selected='true']  { opacity: 1.0; }
]]>
</style>
<script type="application/ecmascript"><![CDATA[
document.addEventListener('DOMContentLoaded', (event) => {
  highlightEdges();
  highlightAdjacentNodes();
});
]]></script>
</svg>
