<?xml version="1.0" encoding="UTF-8" standalone="no"?>
<!DOCTYPE svg PUBLIC "-//W3C//DTD SVG 1.1//EN"
 "http://www.w3.org/Graphics/SVG/1.1/DTD/svg11.dtd">
<!-- Generated by graphviz version 12.2.1 (20241206.2353)
 -->
<!-- Title: Parser::JsonToUsers Pages: 1 -->
<svg width="458pt" height="203pt"
 viewBox="0.00 0.00 458.00 203.25" xmlns="http://www.w3.org/2000/svg" xmlns:xlink="http://www.w3.org/1999/xlink">

<svg id="main" version="1.1" xmlns="http://www.w3.org/2000/svg" xmlns:xlink="http://www.w3.org/1999/xlink" xml:space="preserve">

<style type="text/css"><![CDATA[
.node, .edge {opacity: 0.7;}
.node.selected, .edge.selected {opacity: 1;}
.edge:hover path { stroke: red; }
.edge:hover polygon { stroke: red; fill: red; }
]]></style>
<script type="application/ecmascript" xlink:href="../../svg.min.js"/>
<svg id="graph" class="graph">
<g id="graph0" class="graph" transform="scale(1 1) rotate(0) translate(4 199.25)">
<title>Parser::JsonToUsers</title>
<!-- Node1 -->
<g id="Node000001" class="node">
<title>Node1</title>
<g id="a_Node000001"><a xlink:title="Converts a JSON string representation into a vector of UserAccount objects.">
<polygon fill="#999999" stroke="#666666" points="108.25,-93.25 0,-93.25 0,-74 108.25,-74 108.25,-93.25"/>
<text text-anchor="middle" x="54.12" y="-79.75" font-family="Helvetica,sans-Serif" font-size="10.00">Parser::JsonToUsers</text>
</a>
</g>
</g>
<!-- Node2 -->
<g id="Node000002" class="node">
<title>Node2</title>
<g id="a_Node000002"><a xlink:href="../../dc/db7/class_parser.html#a6658bb70a8b63f8edab2c0a6c7c65d9a" target="_top" xlink:title="Extracts a JSON key (a string enclosed in double quotes) from the input string.">
<polygon fill="white" stroke="#666666" points="443.62,-195.25 344.38,-195.25 344.38,-176 443.62,-176 443.62,-195.25"/>
<text text-anchor="middle" x="394" y="-181.75" font-family="Helvetica,sans-Serif" font-size="10.00">Parser::ExtractKey</text>
</a>
</g>
</g>
<!-- Node1&#45;&gt;Node2 -->
<g id="edge1_Node000001_Node000002" class="edge">
<title>Node1&#45;&gt;Node2</title>
<g id="a_edge1_Node000001_Node000002"><a xlink:title=" ">
<path fill="none" stroke="#63b8ff" d="M67.58,-93.62C84.1,-106.35 114.63,-128.07 144.25,-139.62 206.06,-163.74 281.55,-175.41 333.04,-180.93"/>
<polygon fill="#63b8ff" stroke="#63b8ff" points="332.49,-184.39 342.79,-181.92 333.2,-177.43 332.49,-184.39"/>
</a>
</g>
</g>
<!-- Node3 -->
<g id="Node000003" class="node">
<title>Node3</title>
<g id="a_Node000003"><a xlink:href="../../dc/db7/class_parser.html#ade9641ed520d4e9b73600e3cc049af46" target="_top" xlink:title="Extracts a JSON value from the input string.">
<polygon fill="white" stroke="#666666" points="276.12,-130.25 170.12,-130.25 170.12,-111 276.12,-111 276.12,-130.25"/>
<text text-anchor="middle" x="223.12" y="-116.75" font-family="Helvetica,sans-Serif" font-size="10.00">Parser::ExtractValue</text>
</a>
</g>
</g>
<!-- Node1&#45;&gt;Node3 -->
<g id="edge2_Node000001_Node000003" class="edge">
<title>Node1&#45;&gt;Node3</title>
<g id="a_edge2_Node000001_Node000003"><a xlink:title=" ">
<path fill="none" stroke="#63b8ff" d="M100.76,-93.74C120.73,-98.16 144.37,-103.4 165.46,-108.07"/>
<polygon fill="#63b8ff" stroke="#63b8ff" points="164.55,-111.45 175.07,-110.2 166.06,-104.62 164.55,-111.45"/>
</a>
</g>
</g>
<!-- Node7 -->
<g id="Node000007" class="node">
<title>Node7</title>
<g id="a_Node000007"><a xlink:href="../../db/d35/classalpha_1_1vector.html#a8305c181181e4739a1c5f29cf3a2c144" target="_top" xlink:title=" ">
<polygon fill="white" stroke="#666666" points="285.88,-93.25 160.38,-93.25 160.38,-74 285.88,-74 285.88,-93.25"/>
<text text-anchor="middle" x="223.12" y="-79.75" font-family="Helvetica,sans-Serif" font-size="10.00">alpha::vector::push_back</text>
</a>
</g>
</g>
<!-- Node1&#45;&gt;Node7 -->
<g id="edge7_Node000001_Node000007" class="edge">
<title>Node1&#45;&gt;Node7</title>
<g id="a_edge7_Node000001_Node000007"><a xlink:title=" ">
<path fill="none" stroke="#63b8ff" d="M108.42,-83.62C121.25,-83.62 135.18,-83.62 148.74,-83.62"/>
<polygon fill="#63b8ff" stroke="#63b8ff" points="148.5,-87.13 158.5,-83.63 148.5,-80.13 148.5,-87.13"/>
</a>
</g>
</g>
<!-- Node9 -->
<g id="Node000009" class="node">
<title>Node9</title>
<g id="a_Node000009"><a xlink:href="../../dc/db7/class_parser.html#a49fad6dc437bab644ea477090320cbe8" target="_top" xlink:title="Advances the parsing index past any whitespace characters.">
<polygon fill="white" stroke="#666666" points="284,-56.25 162.25,-56.25 162.25,-37 284,-37 284,-56.25"/>
<text text-anchor="middle" x="223.12" y="-42.75" font-family="Helvetica,sans-Serif" font-size="10.00">Parser::SkipWhitespace</text>
</a>
</g>
</g>
<!-- Node1&#45;&gt;Node9 -->
<g id="edge9_Node000001_Node000009" class="edge">
<title>Node1&#45;&gt;Node9</title>
<g id="a_edge9_Node000001_Node000009"><a xlink:title=" ">
<path fill="none" stroke="#63b8ff" d="M100.76,-73.51C120.73,-69.09 144.37,-63.85 165.46,-59.18"/>
<polygon fill="#63b8ff" stroke="#63b8ff" points="166.06,-62.63 175.07,-57.05 164.55,-55.8 166.06,-62.63"/>
</a>
</g>
</g>
<!-- Node10 -->
<g id="Node000010" class="node">
<title>Node10</title>
<g id="a_Node000010"><a xlink:href="../../dc/db7/class_parser.html#abd4e33be5c6b2f9e92412f598da0a78c" target="_top" xlink:title="Updates a RawUser accumulator with a parsed key&#45;value pair for user data.">
<polygon fill="white" stroke="#666666" points="302,-19.25 144.25,-19.25 144.25,0 302,0 302,-19.25"/>
<text text-anchor="middle" x="223.12" y="-5.75" font-family="Helvetica,sans-Serif" font-size="10.00">Parser::UpdateUserAccumulator</text>
</a>
</g>
</g>
<!-- Node1&#45;&gt;Node10 -->
<g id="edge10_Node000001_Node000010" class="edge">
<title>Node1&#45;&gt;Node10</title>
<g id="a_edge10_Node000001_Node000010"><a xlink:title=" ">
<path fill="none" stroke="#63b8ff" d="M67.95,-73.61C84.62,-61.07 115.06,-39.76 144.25,-27.62 148.31,-25.94 152.57,-24.39 156.9,-22.97"/>
<polygon fill="#63b8ff" stroke="#63b8ff" points="157.74,-26.38 166.32,-20.16 155.73,-19.67 157.74,-26.38"/>
</a>
</g>
</g>
<!-- Node3&#45;&gt;Node2 -->
<g id="edge5_Node000003_Node000002" class="edge">
<title>Node3&#45;&gt;Node2</title>
<g id="a_edge5_Node000003_Node000002"><a xlink:title=" ">
<path fill="none" stroke="#63b8ff" d="M247.04,-130.68C269.9,-140.56 306.1,-155.84 338,-167.62 341.91,-169.07 345.99,-170.51 350.09,-171.93"/>
<polygon fill="#63b8ff" stroke="#63b8ff" points="348.84,-175.2 359.43,-175.08 351.07,-168.57 348.84,-175.2"/>
</a>
</g>
</g>
<!-- Node4 -->
<g id="Node000004" class="node">
<title>Node4</title>
<g id="a_Node000004"><a xlink:href="../../dc/db7/class_parser.html#acabd71dccc533b85de37e566cda47abe" target="_top" xlink:title="Extracts a JSON array (content within &#39;[]&#39;) as a string.">
<polygon fill="white" stroke="#666666" points="446.62,-158.25 341.38,-158.25 341.38,-139 446.62,-139 446.62,-158.25"/>
<text text-anchor="middle" x="394" y="-144.75" font-family="Helvetica,sans-Serif" font-size="10.00">Parser::ExtractArray</text>
</a>
</g>
</g>
<!-- Node3&#45;&gt;Node4 -->
<g id="edge3_Node000003_Node000004" class="edge">
<title>Node3&#45;&gt;Node4</title>
<g id="a_edge3_Node000003_Node000004"><a xlink:title=" ">
<path fill="none" stroke="#63b8ff" d="M276.17,-129.25C293.18,-132.08 312.27,-135.24 330,-138.18"/>
<polygon fill="#63b8ff" stroke="#63b8ff" points="329.19,-141.59 339.63,-139.78 330.34,-134.69 329.19,-141.59"/>
</a>
</g>
</g>
<!-- Node5 -->
<g id="Node000005" class="node">
<title>Node5</title>
<g id="a_Node000005"><a xlink:href="../../dc/db7/class_parser.html#a30398a0f28f70626124609a1071f7f60" target="_top" xlink:title="Extracts an integer value from the JSON string.">
<polygon fill="white" stroke="#666666" points="450,-121.25 338,-121.25 338,-102 450,-102 450,-121.25"/>
<text text-anchor="middle" x="394" y="-107.75" font-family="Helvetica,sans-Serif" font-size="10.00">Parser::ExtractInteger</text>
</a>
</g>
</g>
<!-- Node3&#45;&gt;Node5 -->
<g id="edge4_Node000003_Node000005" class="edge">
<title>Node3&#45;&gt;Node5</title>
<g id="a_edge4_Node000003_Node000005"><a xlink:title=" ">
<path fill="none" stroke="#63b8ff" d="M276.17,-117.85C292,-117.01 309.61,-116.07 326.27,-115.18"/>
<polygon fill="#63b8ff" stroke="#63b8ff" points="326.3,-118.68 336.1,-114.66 325.93,-111.69 326.3,-118.68"/>
</a>
</g>
</g>
<!-- Node6 -->
<g id="Node000006" class="node">
<title>Node6</title>
<g id="a_Node000006"><a xlink:href="../../dc/db7/class_parser.html#a9dbc99f343ea14baa4e3c8d84066b83e" target="_top" xlink:title="Extracts a JSON literal (true, false, null) as a string.">
<polygon fill="white" stroke="#666666" points="448.12,-84.25 339.88,-84.25 339.88,-65 448.12,-65 448.12,-84.25"/>
<text text-anchor="middle" x="394" y="-70.75" font-family="Helvetica,sans-Serif" font-size="10.00">Parser::ExtractLiteral</text>
</a>
</g>
</g>
<!-- Node3&#45;&gt;Node6 -->
<g id="edge6_Node000003_Node000006" class="edge">
<title>Node3&#45;&gt;Node6</title>
<g id="a_edge6_Node000003_Node000006"><a xlink:title=" ">
<path fill="none" stroke="#63b8ff" d="M270.38,-110.51C280.82,-108.06 291.82,-105.36 302,-102.62 318.31,-98.24 336.1,-92.89 351.59,-88.05"/>
<polygon fill="#63b8ff" stroke="#63b8ff" points="352.48,-91.44 360.97,-85.09 350.38,-84.76 352.48,-91.44"/>
</a>
</g>
</g>
<!-- Node8 -->
<g id="Node000008" class="node">
<title>Node8</title>
<g id="a_Node000008"><a xlink:href="../../db/d35/classalpha_1_1vector.html#a6dd9585078696eb1d5e7186435f0e41c" target="_top" xlink:title=" ">
<polygon fill="white" stroke="#666666" points="449.25,-47.25 338.75,-47.25 338.75,-28 449.25,-28 449.25,-47.25"/>
<text text-anchor="middle" x="394" y="-33.75" font-family="Helvetica,sans-Serif" font-size="10.00">alpha::vector::reserve</text>
</a>
</g>
</g>
<!-- Node7&#45;&gt;Node8 -->
<g id="edge8_Node000007_Node000008" class="edge">
<title>Node7&#45;&gt;Node8</title>
<g id="a_edge8_Node000007_Node000008"><a xlink:title=" ">
<path fill="none" stroke="#63b8ff" d="M270.38,-73.51C280.82,-71.06 291.82,-68.36 302,-65.62 318.31,-61.24 336.1,-55.89 351.59,-51.05"/>
<polygon fill="#63b8ff" stroke="#63b8ff" points="352.48,-54.44 360.97,-48.09 350.38,-47.76 352.48,-54.44"/>
</a>
</g>
</g>
</g>
</svg>
</svg>

<style type='text/css'>
<![CDATA[
[data-mouse-over-selected='false'] { opacity: 0.7; }
[data-mouse-over-selected='true']  { opacity: 1.0; }
]]>
</style>
<script type="application/ecmascript"><![CDATA[
document.addEventListener('DOMContentLoaded', (event) => {
  highlightEdges();
  highlightAdjacentNodes();
});
]]></script>
</svg>
