<?xml version="1.0" encoding="UTF-8" standalone="no"?>
<!DOCTYPE svg PUBLIC "-//W3C//DTD SVG 1.1//EN"
 "http://www.w3.org/Graphics/SVG/1.1/DTD/svg11.dtd">
<!-- Generated by graphviz version 12.2.1 (20241206.2353)
 -->
<!-- Title: Parser::ParseJsonObject Pages: 1 -->
<svg width="765pt" height="214pt"
 viewBox="0.00 0.00 765.25 214.25" xmlns="http://www.w3.org/2000/svg" xmlns:xlink="http://www.w3.org/1999/xlink">
<g id="graph0" class="graph" transform="scale(1 1) rotate(0) translate(4 210.25)">
<title>Parser::ParseJsonObject</title>
<!-- Node1 -->
<g id="Node000001" class="node">
<title>Node1</title>
<g id="a_Node000001"><a xlink:title="Parses a single JSON object (data within &#39;{}&#39;) into a MorphicShape.">
<polygon fill="#999999" stroke="#666666" points="125.5,-94.25 0,-94.25 0,-75 125.5,-75 125.5,-94.25"/>
<text text-anchor="middle" x="62.75" y="-80.75" font-family="Helvetica,sans-Serif" font-size="10.00">Parser::ParseJsonObject</text>
</a>
</g>
</g>
<!-- Node2 -->
<g id="Node000002" class="node">
<title>Node2</title>
<g id="a_Node000002"><a xlink:href="../../dc/db7/class_parser.html#a6658bb70a8b63f8edab2c0a6c7c65d9a" target="_top" xlink:title="Extracts a JSON key (a string enclosed in double quotes) from the input string.">
<polygon fill="white" stroke="#666666" points="441.38,-206.25 342.12,-206.25 342.12,-187 441.38,-187 441.38,-206.25"/>
<text text-anchor="middle" x="391.75" y="-192.75" font-family="Helvetica,sans-Serif" font-size="10.00">Parser::ExtractKey</text>
</a>
</g>
</g>
<!-- Node1&#45;&gt;Node2 -->
<g id="edge1_Node000001_Node000002" class="edge">
<title>Node1&#45;&gt;Node2</title>
<g id="a_edge1_Node000001_Node000002"><a xlink:title=" ">
<path fill="none" stroke="#63b8ff" d="M77.97,-94.72C96.41,-107.39 129.96,-128.97 161.5,-141.62 216.94,-163.88 283.69,-178.64 330.83,-187.21"/>
<polygon fill="#63b8ff" stroke="#63b8ff" points="330.12,-190.64 340.58,-188.94 331.35,-183.75 330.12,-190.64"/>
</a>
</g>
</g>
<!-- Node3 -->
<g id="Node000003" class="node">
<title>Node3</title>
<g id="a_Node000003"><a xlink:href="../../dc/db7/class_parser.html#ade9641ed520d4e9b73600e3cc049af46" target="_top" xlink:title="Extracts a JSON value from the input string.">
<polygon fill="white" stroke="#666666" points="282.88,-132.25 176.88,-132.25 176.88,-113 282.88,-113 282.88,-132.25"/>
<text text-anchor="middle" x="229.88" y="-118.75" font-family="Helvetica,sans-Serif" font-size="10.00">Parser::ExtractValue</text>
</a>
</g>
</g>
<!-- Node1&#45;&gt;Node3 -->
<g id="edge2_Node000001_Node000003" class="edge">
<title>Node1&#45;&gt;Node3</title>
<g id="a_edge2_Node000001_Node000003"><a xlink:title=" ">
<path fill="none" stroke="#63b8ff" d="M107.57,-94.71C127.99,-99.41 152.5,-105.05 174.13,-110.03"/>
<polygon fill="#63b8ff" stroke="#63b8ff" points="173.13,-113.39 183.67,-112.22 174.7,-106.57 173.13,-113.39"/>
</a>
</g>
</g>
<!-- Node7 -->
<g id="Node000007" class="node">
<title>Node7</title>
<g id="a_Node000007"><a xlink:href="../../dc/db7/class_parser.html#a49fad6dc437bab644ea477090320cbe8" target="_top" xlink:title="Advances the parsing index past any whitespace characters.">
<polygon fill="white" stroke="#666666" points="608.88,-56.25 487.12,-56.25 487.12,-37 608.88,-37 608.88,-56.25"/>
<text text-anchor="middle" x="548" y="-42.75" font-family="Helvetica,sans-Serif" font-size="10.00">Parser::SkipWhitespace</text>
</a>
</g>
</g>
<!-- Node1&#45;&gt;Node7 -->
<g id="edge7_Node000001_Node000007" class="edge">
<title>Node1&#45;&gt;Node7</title>
<g id="a_edge7_Node000001_Node000007"><a xlink:title=" ">
<path fill="none" stroke="#63b8ff" d="M125.94,-79.73C215.62,-72.68 380.87,-59.69 475.49,-52.25"/>
<polygon fill="#63b8ff" stroke="#63b8ff" points="475.75,-55.74 485.44,-51.47 475.2,-48.76 475.75,-55.74"/>
</a>
</g>
</g>
<!-- Node8 -->
<g id="Node000008" class="node">
<title>Node8</title>
<g id="a_Node000008"><a xlink:href="../../dc/db7/class_parser.html#ac3bb64fa743348c1b31eb1118c6d4e0f" target="_top" xlink:title="Updates a MorphicShape accumulator with a parsed key&#45;value pair.">
<polygon fill="white" stroke="#666666" points="298.25,-19.25 161.5,-19.25 161.5,0 298.25,0 298.25,-19.25"/>
<text text-anchor="middle" x="229.88" y="-5.75" font-family="Helvetica,sans-Serif" font-size="10.00">Parser::UpdateAccumulator</text>
</a>
</g>
</g>
<!-- Node1&#45;&gt;Node8 -->
<g id="edge8_Node000001_Node000008" class="edge">
<title>Node1&#45;&gt;Node8</title>
<g id="a_edge8_Node000001_Node000008"><a xlink:title=" ">
<path fill="none" stroke="#63b8ff" d="M81.05,-74.66C100.31,-63.79 132.55,-46.26 161.5,-33.62 169.66,-30.06 178.54,-26.61 187.09,-23.49"/>
<polygon fill="#63b8ff" stroke="#63b8ff" points="187.99,-26.89 196.24,-20.24 185.65,-20.29 187.99,-26.89"/>
</a>
</g>
</g>
<!-- Node3&#45;&gt;Node2 -->
<g id="edge5_Node000003_Node000002" class="edge">
<title>Node3&#45;&gt;Node2</title>
<g id="a_edge5_Node000003_Node000002"><a xlink:title=" ">
<path fill="none" stroke="#63b8ff" d="M247.23,-132.74C267.21,-144.8 302.32,-165.03 334.25,-178.62 337.66,-180.08 341.23,-181.48 344.84,-182.81"/>
<polygon fill="#63b8ff" stroke="#63b8ff" points="343.69,-186.11 354.28,-186.1 345.99,-179.5 343.69,-186.11"/>
</a>
</g>
</g>
<!-- Node4 -->
<g id="Node000004" class="node">
<title>Node4</title>
<g id="a_Node000004"><a xlink:href="../../dc/db7/class_parser.html#acabd71dccc533b85de37e566cda47abe" target="_top" xlink:title="Extracts a JSON array (content within &#39;[]&#39;) as a string.">
<polygon fill="white" stroke="#666666" points="444.38,-169.25 339.12,-169.25 339.12,-150 444.38,-150 444.38,-169.25"/>
<text text-anchor="middle" x="391.75" y="-155.75" font-family="Helvetica,sans-Serif" font-size="10.00">Parser::ExtractArray</text>
</a>
</g>
</g>
<!-- Node3&#45;&gt;Node4 -->
<g id="edge3_Node000003_Node000004" class="edge">
<title>Node3&#45;&gt;Node4</title>
<g id="a_edge3_Node000003_Node000004"><a xlink:title=" ">
<path fill="none" stroke="#63b8ff" d="M274.56,-132.74C293.51,-137.12 315.9,-142.3 335.94,-146.94"/>
<polygon fill="#63b8ff" stroke="#63b8ff" points="335.11,-150.34 345.64,-149.19 336.69,-143.52 335.11,-150.34"/>
</a>
</g>
</g>
<!-- Node5 -->
<g id="Node000005" class="node">
<title>Node5</title>
<g id="a_Node000005"><a xlink:href="../../dc/db7/class_parser.html#a30398a0f28f70626124609a1071f7f60" target="_top" xlink:title="Extracts an integer value from the JSON string.">
<polygon fill="white" stroke="#666666" points="447.75,-132.25 335.75,-132.25 335.75,-113 447.75,-113 447.75,-132.25"/>
<text text-anchor="middle" x="391.75" y="-118.75" font-family="Helvetica,sans-Serif" font-size="10.00">Parser::ExtractInteger</text>
</a>
</g>
</g>
<!-- Node3&#45;&gt;Node5 -->
<g id="edge4_Node000003_Node000005" class="edge">
<title>Node3&#45;&gt;Node5</title>
<g id="a_edge4_Node000003_Node000005"><a xlink:title=" ">
<path fill="none" stroke="#63b8ff" d="M283.22,-122.62C296.24,-122.62 310.38,-122.62 323.99,-122.62"/>
<polygon fill="#63b8ff" stroke="#63b8ff" points="323.74,-126.13 333.74,-122.63 323.74,-119.13 323.74,-126.13"/>
</a>
</g>
</g>
<!-- Node6 -->
<g id="Node000006" class="node">
<title>Node6</title>
<g id="a_Node000006"><a xlink:href="../../dc/db7/class_parser.html#a9dbc99f343ea14baa4e3c8d84066b83e" target="_top" xlink:title="Extracts a JSON literal (true, false, null) as a string.">
<polygon fill="white" stroke="#666666" points="445.88,-95.25 337.62,-95.25 337.62,-76 445.88,-76 445.88,-95.25"/>
<text text-anchor="middle" x="391.75" y="-81.75" font-family="Helvetica,sans-Serif" font-size="10.00">Parser::ExtractLiteral</text>
</a>
</g>
</g>
<!-- Node3&#45;&gt;Node6 -->
<g id="edge6_Node000003_Node000006" class="edge">
<title>Node3&#45;&gt;Node6</title>
<g id="a_edge6_Node000003_Node000006"><a xlink:title=" ">
<path fill="none" stroke="#63b8ff" d="M274.56,-112.51C293.51,-108.13 315.9,-102.95 335.94,-98.31"/>
<polygon fill="#63b8ff" stroke="#63b8ff" points="336.69,-101.73 345.64,-96.06 335.11,-94.91 336.69,-101.73"/>
</a>
</g>
</g>
<!-- Node9 -->
<g id="Node000009" class="node">
<title>Node9</title>
<g id="a_Node000009"><a xlink:href="../../dc/db7/class_parser.html#a0a4c2a3664d2d2c1f5444c18271a1cf4" target="_top" xlink:title="Converts a string representation of a JSON array of integers into an alpha::vector&lt;int&gt;.">
<polygon fill="white" stroke="#666666" points="449.25,-19.25 334.25,-19.25 334.25,0 449.25,0 449.25,-19.25"/>
<text text-anchor="middle" x="391.75" y="-5.75" font-family="Helvetica,sans-Serif" font-size="10.00">Parser::StringToVector</text>
</a>
</g>
</g>
<!-- Node8&#45;&gt;Node9 -->
<g id="edge9_Node000008_Node000009" class="edge">
<title>Node8&#45;&gt;Node9</title>
<g id="a_edge9_Node000008_Node000009"><a xlink:title=" ">
<path fill="none" stroke="#63b8ff" d="M298.68,-9.62C306.57,-9.62 314.62,-9.62 322.52,-9.62"/>
<polygon fill="#63b8ff" stroke="#63b8ff" points="322.42,-13.13 332.42,-9.63 322.42,-6.13 322.42,-13.13"/>
</a>
</g>
</g>
<!-- Node9&#45;&gt;Node7 -->
<g id="edge12_Node000009_Node000007" class="edge">
<title>Node9&#45;&gt;Node7</title>
<g id="a_edge12_Node000009_Node000007"><a xlink:title=" ">
<path fill="none" stroke="#63b8ff" d="M434.9,-19.74C453.09,-24.1 474.58,-29.25 493.85,-33.88"/>
<polygon fill="#63b8ff" stroke="#63b8ff" points="492.89,-37.24 503.43,-36.17 494.52,-30.44 492.89,-37.24"/>
</a>
</g>
</g>
<!-- Node10 -->
<g id="Node000010" class="node">
<title>Node10</title>
<g id="a_Node000010"><a xlink:href="../../db/d35/classalpha_1_1vector.html#a8305c181181e4739a1c5f29cf3a2c144" target="_top" xlink:title=" ">
<polygon fill="white" stroke="#666666" points="610.75,-19.25 485.25,-19.25 485.25,0 610.75,0 610.75,-19.25"/>
<text text-anchor="middle" x="548" y="-5.75" font-family="Helvetica,sans-Serif" font-size="10.00">alpha::vector::push_back</text>
</a>
</g>
</g>
<!-- Node9&#45;&gt;Node10 -->
<g id="edge10_Node000009_Node000010" class="edge">
<title>Node9&#45;&gt;Node10</title>
<g id="a_edge10_Node000009_Node000010"><a xlink:title=" ">
<path fill="none" stroke="#63b8ff" d="M449.75,-9.62C457.42,-9.62 465.37,-9.62 473.28,-9.62"/>
<polygon fill="#63b8ff" stroke="#63b8ff" points="473.28,-13.13 483.28,-9.63 473.28,-6.13 473.28,-13.13"/>
</a>
</g>
</g>
<!-- Node11 -->
<g id="Node000011" class="node">
<title>Node11</title>
<g id="a_Node000011"><a xlink:href="../../db/d35/classalpha_1_1vector.html#a6dd9585078696eb1d5e7186435f0e41c" target="_top" xlink:title=" ">
<polygon fill="white" stroke="#666666" points="757.25,-19.25 646.75,-19.25 646.75,0 757.25,0 757.25,-19.25"/>
<text text-anchor="middle" x="702" y="-5.75" font-family="Helvetica,sans-Serif" font-size="10.00">alpha::vector::reserve</text>
</a>
</g>
</g>
<!-- Node10&#45;&gt;Node11 -->
<g id="edge11_Node000010_Node000011" class="edge">
<title>Node10&#45;&gt;Node11</title>
<g id="a_edge11_Node000010_Node000011"><a xlink:title=" ">
<path fill="none" stroke="#63b8ff" d="M610.82,-9.62C618.87,-9.62 627.13,-9.62 635.24,-9.62"/>
<polygon fill="#63b8ff" stroke="#63b8ff" points="635.04,-13.13 645.04,-9.63 635.04,-6.13 635.04,-13.13"/>
</a>
</g>
</g>
</g>
</svg>
