<?xml version="1.0" encoding="UTF-8" standalone="no"?>
<!DOCTYPE svg PUBLIC "-//W3C//DTD SVG 1.1//EN"
 "http://www.w3.org/Graphics/SVG/1.1/DTD/svg11.dtd">
<!-- Generated by graphviz version 12.2.1 (20241206.2353)
 -->
<!-- Title: Parser::Parser Pages: 1 -->
<svg width="215pt" height="138pt"
 viewBox="0.00 0.00 214.75 138.25" xmlns="http://www.w3.org/2000/svg" xmlns:xlink="http://www.w3.org/1999/xlink">
<g id="graph0" class="graph" transform="scale(1 1) rotate(0) translate(4 134.25)">
<title>Parser::Parser</title>
<!-- Node1 -->
<g id="Node000001" class="node">
<title>Node1</title>
<g id="a_Node000001"><a xlink:title="Default constructor. Initializes a Parser object.">
<polygon fill="#999999" stroke="#666666" points="206.75,-74.25 127.75,-74.25 127.75,-55 206.75,-55 206.75,-74.25"/>
<text text-anchor="middle" x="167.25" y="-60.75" font-family="Helvetica,sans-Serif" font-size="10.00">Parser::Parser</text>
</a>
</g>
</g>
<!-- Node2 -->
<g id="Node000002" class="node">
<title>Node2</title>
<g id="a_Node000002"><a xlink:href="../../dc/db7/class_parser.html#a4492f2702ae0fc9e5b23a2fa546ee7f3" target="_top" xlink:title="Deleted copy assignment operator to prevent copying Parser objects.">
<polygon fill="white" stroke="#666666" points="91.75,-130.25 0,-130.25 0,-111 91.75,-111 91.75,-130.25"/>
<text text-anchor="middle" x="45.88" y="-116.75" font-family="Helvetica,sans-Serif" font-size="10.00">Parser::operator=</text>
</a>
</g>
</g>
<!-- Node1&#45;&gt;Node2 -->
<g id="edge1_Node000001_Node000002" class="edge">
<title>Node1&#45;&gt;Node2</title>
<g id="a_edge1_Node000001_Node000002"><a xlink:title=" ">
<path fill="none" stroke="#63b8ff" d="M137.94,-79.83C124.15,-87.03 107.23,-95.59 91.75,-102.62 85.79,-105.33 79.29,-108.06 73.15,-110.55"/>
<polygon fill="#63b8ff" stroke="#63b8ff" points="139.25,-83.09 146.46,-75.33 135.98,-76.9 139.25,-83.09"/>
</a>
</g>
</g>
<!-- Node3 -->
<g id="Node000003" class="node">
<title>Node3</title>
<g id="a_Node000003"><a xlink:href="../../dc/db7/class_parser.html#adfbcdfe39e81929129e00fba8b546ed9" target="_top" xlink:title="Deleted move assignment operator to prevent moving Parser objects.">
<polygon fill="white" stroke="#666666" points="91.75,-93.25 0,-93.25 0,-74 91.75,-74 91.75,-93.25"/>
<text text-anchor="middle" x="45.88" y="-79.75" font-family="Helvetica,sans-Serif" font-size="10.00">Parser::operator=</text>
</a>
</g>
</g>
<!-- Node1&#45;&gt;Node3 -->
<g id="edge2_Node000001_Node000003" class="edge">
<title>Node1&#45;&gt;Node3</title>
<g id="a_edge2_Node000001_Node000003"><a xlink:title=" ">
<path fill="none" stroke="#63b8ff" d="M116.34,-72.57C108.3,-73.85 100.01,-75.17 92.08,-76.43"/>
<polygon fill="#63b8ff" stroke="#63b8ff" points="116.67,-76.06 126,-71.03 115.57,-69.15 116.67,-76.06"/>
</a>
</g>
</g>
<!-- Node4 -->
<g id="Node000004" class="node">
<title>Node4</title>
<g id="a_Node000004"><a xlink:href="../../dc/db7/class_parser.html#a48044a8caa14a251cb4dad9fb363658e" target="_top" xlink:title="Deleted copy constructor to prevent copying Parser objects.">
<polygon fill="white" stroke="#666666" points="85.38,-56.25 6.38,-56.25 6.38,-37 85.38,-37 85.38,-56.25"/>
<text text-anchor="middle" x="45.88" y="-42.75" font-family="Helvetica,sans-Serif" font-size="10.00">Parser::Parser</text>
</a>
</g>
</g>
<!-- Node1&#45;&gt;Node4 -->
<g id="edge3_Node000001_Node000004" class="edge">
<title>Node1&#45;&gt;Node4</title>
<g id="a_edge3_Node000001_Node000004"><a xlink:title=" ">
<path fill="none" stroke="#63b8ff" d="M116.25,-57.09C106.1,-55.55 95.55,-53.97 85.85,-52.5"/>
<polygon fill="#63b8ff" stroke="#63b8ff" points="115.59,-60.53 126,-58.56 116.63,-53.6 115.59,-60.53"/>
</a>
</g>
</g>
<!-- Node5 -->
<g id="Node000005" class="node">
<title>Node5</title>
<g id="a_Node000005"><a xlink:href="../../dc/db7/class_parser.html#aacd10e8fbc4e04201570a437198d8c61" target="_top" xlink:title="Deleted move constructor to prevent moving Parser objects.">
<polygon fill="white" stroke="#666666" points="85.38,-19.25 6.38,-19.25 6.38,0 85.38,0 85.38,-19.25"/>
<text text-anchor="middle" x="45.88" y="-5.75" font-family="Helvetica,sans-Serif" font-size="10.00">Parser::Parser</text>
</a>
</g>
</g>
<!-- Node1&#45;&gt;Node5 -->
<g id="edge4_Node000001_Node000005" class="edge">
<title>Node1&#45;&gt;Node5</title>
<g id="a_edge4_Node000001_Node000005"><a xlink:title=" ">
<path fill="none" stroke="#63b8ff" d="M136.93,-49.39C123.31,-42.49 106.83,-34.38 91.75,-27.62 85.77,-24.95 79.27,-22.23 73.12,-19.75"/>
<polygon fill="#63b8ff" stroke="#63b8ff" points="135.31,-52.49 145.81,-53.93 138.5,-46.26 135.31,-52.49"/>
</a>
</g>
</g>
</g>
</svg>
