<?xml version="1.0" encoding="UTF-8" standalone="no"?>
<!DOCTYPE svg PUBLIC "-//W3C//DTD SVG 1.1//EN"
 "http://www.w3.org/Graphics/SVG/1.1/DTD/svg11.dtd">
<!-- Generated by graphviz version 12.2.1 (20241206.2353)
 -->
<!-- Title: Parser::UsersToJson Pages: 1 -->
<svg width="290pt" height="138pt"
 viewBox="0.00 0.00 289.75 138.25" xmlns="http://www.w3.org/2000/svg" xmlns:xlink="http://www.w3.org/1999/xlink">
<g id="graph0" class="graph" transform="scale(1 1) rotate(0) translate(4 134.25)">
<title>Parser::UsersToJson</title>
<!-- Node1 -->
<g id="Node000001" class="node">
<title>Node1</title>
<g id="a_Node000001"><a xlink:title="Converts a vector of UserAccount pointers into a JSON string representation.">
<polygon fill="#999999" stroke="#666666" points="108.25,-74.25 0,-74.25 0,-55 108.25,-55 108.25,-74.25"/>
<text text-anchor="middle" x="54.12" y="-60.75" font-family="Helvetica,sans-Serif" font-size="10.00">Parser::UsersToJson</text>
</a>
</g>
</g>
<!-- Node2 -->
<g id="Node000002" class="node">
<title>Node2</title>
<g id="a_Node000002"><a xlink:href="../../d3/d9d/class_user_account.html#abfa3ef4d41cd1fd130080743542c7d5f" target="_top" xlink:title="Returns the password of the account.">
<polygon fill="white" stroke="#666666" points="281,-130.25 145,-130.25 145,-111 281,-111 281,-130.25"/>
<text text-anchor="middle" x="213" y="-116.75" font-family="Helvetica,sans-Serif" font-size="10.00">UserAccount::getPassword</text>
</a>
</g>
</g>
<!-- Node1&#45;&gt;Node2 -->
<g id="edge1_Node000001_Node000002" class="edge">
<title>Node1&#45;&gt;Node2</title>
<g id="a_edge1_Node000001_Node000002"><a xlink:title=" ">
<path fill="none" stroke="#63b8ff" d="M76.4,-74.72C94.25,-82.94 120.55,-94.47 144.25,-102.62 149.04,-104.27 154.06,-105.86 159.12,-107.36"/>
<polygon fill="#63b8ff" stroke="#63b8ff" points="158.12,-110.72 168.7,-110.1 160.04,-103.99 158.12,-110.72"/>
</a>
</g>
</g>
<!-- Node3 -->
<g id="Node000003" class="node">
<title>Node3</title>
<g id="a_Node000003"><a xlink:href="../../d3/d9d/class_user_account.html#a4a64725c2e0ff40d9d7baddc7bdf0d7f" target="_top" xlink:title="Returns the username of the account.">
<polygon fill="white" stroke="#666666" points="281.75,-93.25 144.25,-93.25 144.25,-74 281.75,-74 281.75,-93.25"/>
<text text-anchor="middle" x="213" y="-79.75" font-family="Helvetica,sans-Serif" font-size="10.00">UserAccount::getUsername</text>
</a>
</g>
</g>
<!-- Node1&#45;&gt;Node3 -->
<g id="edge2_Node000001_Node000003" class="edge">
<title>Node1&#45;&gt;Node3</title>
<g id="a_edge2_Node000001_Node000003"><a xlink:title=" ">
<path fill="none" stroke="#63b8ff" d="M108.67,-71.11C116.4,-72.05 124.48,-73.02 132.57,-74.01"/>
<polygon fill="#63b8ff" stroke="#63b8ff" points="132.14,-77.48 142.49,-75.21 132.98,-70.53 132.14,-77.48"/>
</a>
</g>
</g>
<!-- Node4 -->
<g id="Node000004" class="node">
<title>Node4</title>
<g id="a_Node000004"><a xlink:href="../../d3/d9d/class_user_account.html#a37a3f40eddf4512fe2a280d0566b8d19" target="_top" xlink:title="Returns true if the user has administrative privileges, false otherwise.">
<polygon fill="white" stroke="#666666" points="270.12,-56.25 155.88,-56.25 155.88,-37 270.12,-37 270.12,-56.25"/>
<text text-anchor="middle" x="213" y="-42.75" font-family="Helvetica,sans-Serif" font-size="10.00">UserAccount::isAdmin</text>
</a>
</g>
</g>
<!-- Node1&#45;&gt;Node4 -->
<g id="edge3_Node000001_Node000004" class="edge">
<title>Node1&#45;&gt;Node4</title>
<g id="a_edge3_Node000001_Node000004"><a xlink:title=" ">
<path fill="none" stroke="#63b8ff" d="M108.67,-58.48C120.11,-57.17 132.33,-55.77 144.22,-54.4"/>
<polygon fill="#63b8ff" stroke="#63b8ff" points="144.44,-57.9 153.98,-53.28 143.64,-50.95 144.44,-57.9"/>
</a>
</g>
</g>
<!-- Node5 -->
<g id="Node000005" class="node">
<title>Node5</title>
<g id="a_Node000005"><a xlink:href="../../db/d35/classalpha_1_1vector.html#a78b5e138cba3b9bc0f9d569c6dd96156" target="_top" xlink:title=" ">
<polygon fill="white" stroke="#666666" points="261.12,-19.25 164.88,-19.25 164.88,0 261.12,0 261.12,-19.25"/>
<text text-anchor="middle" x="213" y="-5.75" font-family="Helvetica,sans-Serif" font-size="10.00">alpha::vector::size</text>
</a>
</g>
</g>
<!-- Node1&#45;&gt;Node5 -->
<g id="edge4_Node000001_Node000005" class="edge">
<title>Node1&#45;&gt;Node5</title>
<g id="a_edge4_Node000001_Node000005"><a xlink:title=" ">
<path fill="none" stroke="#63b8ff" d="M77.15,-54.51C95,-46.55 120.92,-35.53 144.25,-27.62 149.25,-25.93 154.49,-24.3 159.76,-22.75"/>
<polygon fill="#63b8ff" stroke="#63b8ff" points="160.41,-26.2 169.08,-20.11 158.5,-19.47 160.41,-26.2"/>
</a>
</g>
</g>
</g>
</svg>
