<?xml version="1.0" encoding="UTF-8" standalone="no"?>
<!DOCTYPE svg PUBLIC "-//W3C//DTD SVG 1.1//EN"
 "http://www.w3.org/Graphics/SVG/1.1/DTD/svg11.dtd">
<!-- Generated by graphviz version 12.2.1 (20241206.2353)
 -->
<!-- Title: TestimonialsDisplayDialog::refreshTestimonials Pages: 1 -->
<svg width="812pt" height="383pt"
 viewBox="0.00 0.00 811.75 382.88" xmlns="http://www.w3.org/2000/svg" xmlns:xlink="http://www.w3.org/1999/xlink">
<g id="graph0" class="graph" transform="scale(1 1) rotate(0) translate(4 378.88)">
<title>TestimonialsDisplayDialog::refreshTestimonials</title>
<!-- Node1 -->
<g id="Node000001" class="node">
<title>Node1</title>
<g id="a_Node000001"><a xlink:title="Refreshes the displayed list of testimonials.">
<polygon fill="#999999" stroke="#666666" points="131.5,-195.5 0,-195.5 0,-165 131.5,-165 131.5,-195.5"/>
<text text-anchor="start" x="8" y="-182" font-family="Helvetica,sans-Serif" font-size="10.00">TestimonialsDisplayDialog</text>
<text text-anchor="middle" x="65.75" y="-170.75" font-family="Helvetica,sans-Serif" font-size="10.00">::refreshTestimonials</text>
</a>
</g>
</g>
<!-- Node2 -->
<g id="Node000002" class="node">
<title>Node2</title>
<g id="a_Node000002"><a xlink:href="../../d4/d0d/class_testimonial_manager.html#a7b05489ceb9a8bd5e94e955c50b9515f" target="_top" xlink:title="Returns a reference to the singleton TestimonialManager instance.">
<polygon fill="white" stroke="#666666" points="290.38,-220.5 187.38,-220.5 187.38,-190 290.38,-190 290.38,-220.5"/>
<text text-anchor="start" x="195.38" y="-207" font-family="Helvetica,sans-Serif" font-size="10.00">TestimonialManager</text>
<text text-anchor="middle" x="238.88" y="-195.75" font-family="Helvetica,sans-Serif" font-size="10.00">::getInstance</text>
</a>
</g>
</g>
<!-- Node1&#45;&gt;Node2 -->
<g id="edge1_Node000001_Node000002" class="edge">
<title>Node1&#45;&gt;Node2</title>
<g id="a_edge1_Node000001_Node000002"><a xlink:title=" ">
<path fill="none" stroke="#63b8ff" d="M131.93,-189.77C146.32,-191.87 161.52,-194.09 175.78,-196.18"/>
<polygon fill="#63b8ff" stroke="#63b8ff" points="175.08,-199.61 185.48,-197.6 176.09,-192.69 175.08,-199.61"/>
</a>
</g>
</g>
<!-- Node16 -->
<g id="Node000016" class="node">
<title>Node16</title>
<g id="a_Node000016"><a xlink:href="../../d4/d0d/class_testimonial_manager.html#ac40b670bcee48c927ed5655bf8456713" target="_top" xlink:title="Returns a vector of testimonials marked as satisfactory.">
<polygon fill="white" stroke="#666666" points="310.25,-171.5 167.5,-171.5 167.5,-141 310.25,-141 310.25,-171.5"/>
<text text-anchor="start" x="175.5" y="-158" font-family="Helvetica,sans-Serif" font-size="10.00">TestimonialManager</text>
<text text-anchor="middle" x="238.88" y="-146.75" font-family="Helvetica,sans-Serif" font-size="10.00">::getSatisfactoryTestimonials</text>
</a>
</g>
</g>
<!-- Node1&#45;&gt;Node16 -->
<g id="edge15_Node000001_Node000016" class="edge">
<title>Node1&#45;&gt;Node16</title>
<g id="a_edge15_Node000001_Node000016"><a xlink:title=" ">
<path fill="none" stroke="#63b8ff" d="M131.93,-171.11C139.77,-170.01 147.84,-168.88 155.87,-167.75"/>
<polygon fill="#63b8ff" stroke="#63b8ff" points="156.25,-171.23 165.67,-166.38 155.28,-164.3 156.25,-171.23"/>
</a>
</g>
</g>
<!-- Node3 -->
<g id="Node000003" class="node">
<title>Node3</title>
<g id="a_Node000003"><a xlink:href="../../d4/d0d/class_testimonial_manager.html#aded0ef0783e1e67e701f7c3bf3a80072" target="_top" xlink:title="Private constructor to enforce singleton pattern. Initializes API connections and timer.">
<polygon fill="white" stroke="#666666" points="455.25,-220.5 346.25,-220.5 346.25,-190 455.25,-190 455.25,-220.5"/>
<text text-anchor="start" x="354.25" y="-207" font-family="Helvetica,sans-Serif" font-size="10.00">TestimonialManager</text>
<text text-anchor="middle" x="400.75" y="-195.75" font-family="Helvetica,sans-Serif" font-size="10.00">::TestimonialManager</text>
</a>
</g>
</g>
<!-- Node2&#45;&gt;Node3 -->
<g id="edge2_Node000002_Node000003" class="edge">
<title>Node2&#45;&gt;Node3</title>
<g id="a_edge2_Node000002_Node000003"><a xlink:title=" ">
<path fill="none" stroke="#63b8ff" d="M290.46,-205.25C304.53,-205.25 320.01,-205.25 334.78,-205.25"/>
<polygon fill="#63b8ff" stroke="#63b8ff" points="334.39,-208.75 344.39,-205.25 334.39,-201.75 334.39,-208.75"/>
</a>
</g>
</g>
<!-- Node4 -->
<g id="Node000004" class="node">
<title>Node4</title>
<g id="a_Node000004"><a xlink:href="../../d2/dd1/class_api_client.html#ae22339e302eb27bc51fbdfc1b7c1a4ec" target="_top" xlink:title="Signal for a failed request sent to a Get endpoint.">
<polygon fill="white" stroke="#666666" points="616.75,-374.88 496.5,-374.88 496.5,-355.62 616.75,-355.62 616.75,-374.88"/>
<text text-anchor="middle" x="556.62" y="-361.38" font-family="Helvetica,sans-Serif" font-size="10.00">ApiClient::BadGetReply</text>
</a>
</g>
</g>
<!-- Node3&#45;&gt;Node4 -->
<g id="edge3_Node000003_Node000004" class="edge">
<title>Node3&#45;&gt;Node4</title>
<g id="a_edge3_Node000003_Node000004"><a xlink:title=" ">
<path fill="none" stroke="#63b8ff" d="M407.15,-220.71C418.19,-250 446.16,-313.64 491.25,-347.25 492.59,-348.25 493.98,-349.19 495.41,-350.08"/>
<polygon fill="#63b8ff" stroke="#63b8ff" points="493.54,-353.05 504.03,-354.53 496.75,-346.83 493.54,-353.05"/>
</a>
</g>
</g>
<!-- Node5 -->
<g id="Node000005" class="node">
<title>Node5</title>
<g id="a_Node000005"><a xlink:href="../../d2/dd1/class_api_client.html#ac0f68b238bace3703854d7de15a3bb38" target="_top" xlink:title="Signal for a failed request sent to a Post endpoint.">
<polygon fill="white" stroke="#666666" points="619,-337.88 494.25,-337.88 494.25,-318.62 619,-318.62 619,-337.88"/>
<text text-anchor="middle" x="556.62" y="-324.38" font-family="Helvetica,sans-Serif" font-size="10.00">ApiClient::BadPostReply</text>
</a>
</g>
</g>
<!-- Node3&#45;&gt;Node5 -->
<g id="edge4_Node000003_Node000005" class="edge">
<title>Node3&#45;&gt;Node5</title>
<g id="a_edge4_Node000003_Node000005"><a xlink:title=" ">
<path fill="none" stroke="#63b8ff" d="M410.97,-220.77C425.29,-243.55 455.03,-285.85 491.25,-309.25 493.78,-310.88 496.45,-312.38 499.21,-313.75"/>
<polygon fill="#63b8ff" stroke="#63b8ff" points="497.56,-316.85 508.13,-317.59 500.33,-310.42 497.56,-316.85"/>
</a>
</g>
</g>
<!-- Node6 -->
<g id="Node000006" class="node">
<title>Node6</title>
<g id="a_Node000006"><a xlink:href="../../d4/d0d/class_testimonial_manager.html#a69979eb09835fcb35d804fa169b63f0f" target="_top" xlink:title="Checks accumulated user time and emits shouldPromptForTestimonial if criteria are met.">
<polygon fill="white" stroke="#666666" points="616,-300.5 497.25,-300.5 497.25,-270 616,-270 616,-300.5"/>
<text text-anchor="start" x="505.25" y="-287" font-family="Helvetica,sans-Serif" font-size="10.00">TestimonialManager</text>
<text text-anchor="middle" x="556.62" y="-275.75" font-family="Helvetica,sans-Serif" font-size="10.00">::checkTimeAndPrompt</text>
</a>
</g>
</g>
<!-- Node3&#45;&gt;Node6 -->
<g id="edge5_Node000003_Node000006" class="edge">
<title>Node3&#45;&gt;Node6</title>
<g id="a_edge5_Node000003_Node000006"><a xlink:title=" ">
<path fill="none" stroke="#63b8ff" d="M423.83,-220.83C441.51,-232.87 467.25,-249.42 491.25,-261.25 493.96,-262.59 496.77,-263.9 499.63,-265.17"/>
<polygon fill="#63b8ff" stroke="#63b8ff" points="498.15,-268.34 508.72,-269.01 500.87,-261.89 498.15,-268.34"/>
</a>
</g>
</g>
<!-- Node10 -->
<g id="Node000010" class="node">
<title>Node10</title>
<g id="a_Node000010"><a xlink:href="../../d2/dd1/class_api_client.html#a940bf610f9fa472fc660e1ab60203de7" target="_top" xlink:title="Signal for a successful request sent to a Get endpoint.">
<polygon fill="white" stroke="#666666" points="619.75,-251.88 493.5,-251.88 493.5,-232.62 619.75,-232.62 619.75,-251.88"/>
<text text-anchor="middle" x="556.62" y="-238.38" font-family="Helvetica,sans-Serif" font-size="10.00">ApiClient::GoodGetReply</text>
</a>
</g>
</g>
<!-- Node3&#45;&gt;Node10 -->
<g id="edge9_Node000003_Node000010" class="edge">
<title>Node3&#45;&gt;Node10</title>
<g id="a_edge9_Node000003_Node000010"><a xlink:title=" ">
<path fill="none" stroke="#63b8ff" d="M455.57,-218.19C470.91,-221.88 487.61,-225.89 502.88,-229.57"/>
<polygon fill="#63b8ff" stroke="#63b8ff" points="501.7,-232.88 512.25,-231.82 503.34,-226.08 501.7,-232.88"/>
</a>
</g>
</g>
<!-- Node11 -->
<g id="Node000011" class="node">
<title>Node11</title>
<g id="a_Node000011"><a xlink:href="../../d2/dd1/class_api_client.html#aa2e03a2c693acb0052f80415b453e279" target="_top" xlink:title="Signal for a successful request sent to a Post endpoint.">
<polygon fill="white" stroke="#666666" points="622,-214.88 491.25,-214.88 491.25,-195.62 622,-195.62 622,-214.88"/>
<text text-anchor="middle" x="556.62" y="-201.38" font-family="Helvetica,sans-Serif" font-size="10.00">ApiClient::GoodPostReply</text>
</a>
</g>
</g>
<!-- Node3&#45;&gt;Node11 -->
<g id="edge10_Node000003_Node000011" class="edge">
<title>Node3&#45;&gt;Node11</title>
<g id="a_edge10_Node000003_Node000011"><a xlink:title=" ">
<path fill="none" stroke="#63b8ff" d="M455.57,-205.25C463.34,-205.25 471.47,-205.25 479.58,-205.25"/>
<polygon fill="#63b8ff" stroke="#63b8ff" points="479.48,-208.75 489.48,-205.25 479.48,-201.75 479.48,-208.75"/>
</a>
</g>
</g>
<!-- Node12 -->
<g id="Node000012" class="node">
<title>Node12</title>
<g id="a_Node000012"><a xlink:href="../../d4/d0d/class_testimonial_manager.html#aa256bebedcc689ce416c7a2fcade3900" target="_top" xlink:title="Slot called when a GET request for testimonials fails.">
<polygon fill="white" stroke="#666666" points="611.5,-177.5 501.75,-177.5 501.75,-147 611.5,-147 611.5,-177.5"/>
<text text-anchor="start" x="509.75" y="-164" font-family="Helvetica,sans-Serif" font-size="10.00">TestimonialManager</text>
<text text-anchor="middle" x="556.62" y="-152.75" font-family="Helvetica,sans-Serif" font-size="10.00">::onBadGetResponse</text>
</a>
</g>
</g>
<!-- Node3&#45;&gt;Node12 -->
<g id="edge11_Node000003_Node000012" class="edge">
<title>Node3&#45;&gt;Node12</title>
<g id="a_edge11_Node000003_Node000012"><a xlink:title=" ">
<path fill="none" stroke="#63b8ff" d="M455.57,-190.21C466.8,-187.07 478.75,-183.73 490.35,-180.49"/>
<polygon fill="#63b8ff" stroke="#63b8ff" points="491.17,-183.9 499.86,-177.83 489.29,-177.15 491.17,-183.9"/>
</a>
</g>
</g>
<!-- Node13 -->
<g id="Node000013" class="node">
<title>Node13</title>
<g id="a_Node000013"><a xlink:href="../../d4/d0d/class_testimonial_manager.html#acfda7a2d454b513c1c75d8d030a43dd9" target="_top" xlink:title="Slot called when a POST request to save testimonials fails.">
<polygon fill="white" stroke="#666666" points="613.75,-128.5 499.5,-128.5 499.5,-98 613.75,-98 613.75,-128.5"/>
<text text-anchor="start" x="507.5" y="-115" font-family="Helvetica,sans-Serif" font-size="10.00">TestimonialManager</text>
<text text-anchor="middle" x="556.62" y="-103.75" font-family="Helvetica,sans-Serif" font-size="10.00">::onBadPostResponse</text>
</a>
</g>
</g>
<!-- Node3&#45;&gt;Node13 -->
<g id="edge12_Node000003_Node000013" class="edge">
<title>Node3&#45;&gt;Node13</title>
<g id="a_edge12_Node000003_Node000013"><a xlink:title=" ">
<path fill="none" stroke="#63b8ff" d="M419.6,-189.57C436.98,-174.88 464.6,-153.03 491.25,-138.25 494.1,-136.67 497.07,-135.14 500.11,-133.67"/>
<polygon fill="#63b8ff" stroke="#63b8ff" points="501.54,-136.87 509.2,-129.55 498.65,-130.49 501.54,-136.87"/>
</a>
</g>
</g>
<!-- Node14 -->
<g id="Node000014" class="node">
<title>Node14</title>
<g id="a_Node000014"><a xlink:href="../../d4/d0d/class_testimonial_manager.html#a2a9ada04ab15847f2c1b3c81deb994d7" target="_top" xlink:title="Slot called when a GET request for testimonials succeeds.">
<polygon fill="white" stroke="#666666" points="614.5,-79.5 498.75,-79.5 498.75,-49 614.5,-49 614.5,-79.5"/>
<text text-anchor="start" x="506.75" y="-66" font-family="Helvetica,sans-Serif" font-size="10.00">TestimonialManager</text>
<text text-anchor="middle" x="556.62" y="-54.75" font-family="Helvetica,sans-Serif" font-size="10.00">::onGoodGetResponse</text>
</a>
</g>
</g>
<!-- Node3&#45;&gt;Node14 -->
<g id="edge13_Node000003_Node000014" class="edge">
<title>Node3&#45;&gt;Node14</title>
<g id="a_edge13_Node000003_Node000014"><a xlink:title=" ">
<path fill="none" stroke="#63b8ff" d="M410.11,-189.53C423.93,-164.94 453.77,-117.28 491.25,-89.25 493.01,-87.93 494.86,-86.67 496.76,-85.47"/>
<polygon fill="#63b8ff" stroke="#63b8ff" points="498.3,-88.62 505.33,-80.69 494.89,-82.51 498.3,-88.62"/>
</a>
</g>
</g>
<!-- Node15 -->
<g id="Node000015" class="node">
<title>Node15</title>
<g id="a_Node000015"><a xlink:href="../../d4/d0d/class_testimonial_manager.html#ad384569c01fdadf0bb38e053a7bee337" target="_top" xlink:title="Slot called when a POST request to save testimonials succeeds.">
<polygon fill="white" stroke="#666666" points="616.75,-30.5 496.5,-30.5 496.5,0 616.75,0 616.75,-30.5"/>
<text text-anchor="start" x="504.5" y="-17" font-family="Helvetica,sans-Serif" font-size="10.00">TestimonialManager</text>
<text text-anchor="middle" x="556.62" y="-5.75" font-family="Helvetica,sans-Serif" font-size="10.00">::onGoodPostResponse</text>
</a>
</g>
</g>
<!-- Node3&#45;&gt;Node15 -->
<g id="edge14_Node000003_Node000015" class="edge">
<title>Node3&#45;&gt;Node15</title>
<g id="a_edge14_Node000003_Node000015"><a xlink:title=" ">
<path fill="none" stroke="#63b8ff" d="M406.14,-189.76C416.04,-157.52 443.07,-82.68 491.25,-40.25 492.52,-39.14 493.84,-38.07 495.2,-37.05"/>
<polygon fill="#63b8ff" stroke="#63b8ff" points="496.95,-40.08 503.49,-31.75 493.18,-34.18 496.95,-40.08"/>
</a>
</g>
</g>
<!-- Node7 -->
<g id="Node000007" class="node">
<title>Node7</title>
<g id="a_Node000007"><a xlink:href="../../d4/d0d/class_testimonial_manager.html#a1ebec1a781a7508501e398bb042a0b2d" target="_top" xlink:title="Retrieves the &quot;do not show again&quot; preference for a user.">
<polygon fill="white" stroke="#666666" points="787.62,-349.5 674.12,-349.5 674.12,-319 787.62,-319 787.62,-349.5"/>
<text text-anchor="start" x="682.12" y="-336" font-family="Helvetica,sans-Serif" font-size="10.00">TestimonialManager</text>
<text text-anchor="middle" x="730.88" y="-324.75" font-family="Helvetica,sans-Serif" font-size="10.00">::getDoNotShowAgain</text>
</a>
</g>
</g>
<!-- Node6&#45;&gt;Node7 -->
<g id="edge6_Node000006_Node000007" class="edge">
<title>Node6&#45;&gt;Node7</title>
<g id="a_edge6_Node000006_Node000007"><a xlink:title=" ">
<path fill="none" stroke="#63b8ff" d="M612.6,-300.89C628.83,-305.51 646.77,-310.61 663.64,-315.41"/>
<polygon fill="#63b8ff" stroke="#63b8ff" points="662.5,-318.72 673.08,-318.09 664.42,-311.99 662.5,-318.72"/>
</a>
</g>
</g>
<!-- Node8 -->
<g id="Node000008" class="node">
<title>Node8</title>
<g id="a_Node000008"><a xlink:href="../../d4/d0d/class_testimonial_manager.html#a9466acdac4dddfe8947b41cb637cb556" target="_top" xlink:title="Checks if a user with the given username has already submitted a testimonial.">
<polygon fill="white" stroke="#666666" points="797.75,-300.5 664,-300.5 664,-270 797.75,-270 797.75,-300.5"/>
<text text-anchor="start" x="672" y="-287" font-family="Helvetica,sans-Serif" font-size="10.00">TestimonialManager</text>
<text text-anchor="middle" x="730.88" y="-275.75" font-family="Helvetica,sans-Serif" font-size="10.00">::hasUserGivenTestimonial</text>
</a>
</g>
</g>
<!-- Node6&#45;&gt;Node8 -->
<g id="edge7_Node000006_Node000008" class="edge">
<title>Node6&#45;&gt;Node8</title>
<g id="a_edge7_Node000006_Node000008"><a xlink:title=" ">
<path fill="none" stroke="#63b8ff" d="M616.42,-285.25C627.94,-285.25 640.19,-285.25 652.22,-285.25"/>
<polygon fill="#63b8ff" stroke="#63b8ff" points="652.14,-288.75 662.14,-285.25 652.14,-281.75 652.14,-288.75"/>
</a>
</g>
</g>
<!-- Node9 -->
<g id="Node000009" class="node">
<title>Node9</title>
<g id="a_Node000009"><a xlink:href="../../d4/d0d/class_testimonial_manager.html#ade7e70f55550c1417ab7d0ca7b3b3142" target="_top" xlink:title="Emitted to prompt the user for a testimonial.">
<polygon fill="white" stroke="#666666" points="803.75,-251.5 658,-251.5 658,-221 803.75,-221 803.75,-251.5"/>
<text text-anchor="start" x="666" y="-238" font-family="Helvetica,sans-Serif" font-size="10.00">TestimonialManager</text>
<text text-anchor="middle" x="730.88" y="-226.75" font-family="Helvetica,sans-Serif" font-size="10.00">::shouldPromptForTestimonial</text>
</a>
</g>
</g>
<!-- Node6&#45;&gt;Node9 -->
<g id="edge8_Node000006_Node000009" class="edge">
<title>Node6&#45;&gt;Node9</title>
<g id="a_edge8_Node000006_Node000009"><a xlink:title=" ">
<path fill="none" stroke="#63b8ff" d="M612.6,-269.61C628.83,-264.99 646.77,-259.89 663.64,-255.09"/>
<polygon fill="#63b8ff" stroke="#63b8ff" points="664.42,-258.51 673.08,-252.41 662.5,-251.78 664.42,-258.51"/>
</a>
</g>
</g>
</g>
</svg>
