<?xml version="1.0" encoding="UTF-8" standalone="no"?>
<!DOCTYPE svg PUBLIC "-//W3C//DTD SVG 1.1//EN"
 "http://www.w3.org/Graphics/SVG/1.1/DTD/svg11.dtd">
<!-- Generated by graphviz version 12.2.1 (20241206.2353)
 -->
<!-- Title: Ellipse::Draw Pages: 1 -->
<svg width="220pt" height="286pt"
 viewBox="0.00 0.00 220.00 286.25" xmlns="http://www.w3.org/2000/svg" xmlns:xlink="http://www.w3.org/1999/xlink">
<g id="graph0" class="graph" transform="scale(1 1) rotate(0) translate(4 282.25)">
<title>Ellipse::Draw</title>
<!-- Node1 -->
<g id="Node000001" class="node">
<title>Node1</title>
<g id="a_Node000001"><a xlink:title="Draw &#45; Draws the ellipse to the passed renderArea.">
<polygon fill="#999999" stroke="#666666" points="74.5,-148.25 0,-148.25 0,-129 74.5,-129 74.5,-148.25"/>
<text text-anchor="middle" x="37.25" y="-134.75" font-family="Helvetica,sans-Serif" font-size="10.00">Ellipse::Draw</text>
</a>
</g>
</g>
<!-- Node2 -->
<g id="Node000002" class="node">
<title>Node2</title>
<g id="a_Node000002"><a xlink:href="../../d7/da7/class_shape.html#acbb9f9354579fdaad31853d714653e0d" target="_top" xlink:title=" ">
<polygon fill="white" stroke="#666666" points="205.62,-278.25 116.88,-278.25 116.88,-259 205.62,-259 205.62,-278.25"/>
<text text-anchor="middle" x="161.25" y="-264.75" font-family="Helvetica,sans-Serif" font-size="10.00">Shape::getBrush</text>
</a>
</g>
</g>
<!-- Node1&#45;&gt;Node2 -->
<g id="edge1_Node000001_Node000002" class="edge">
<title>Node1&#45;&gt;Node2</title>
<g id="a_edge1_Node000001_Node000002"><a xlink:title=" ">
<path fill="none" stroke="#63b8ff" d="M42.04,-148.54C50.8,-170.17 74.48,-221.94 110.5,-250.62 111.61,-251.51 112.77,-252.35 113.97,-253.16"/>
<polygon fill="#63b8ff" stroke="#63b8ff" points="111.95,-256.04 122.39,-257.84 115.35,-249.92 111.95,-256.04"/>
</a>
</g>
</g>
<!-- Node3 -->
<g id="Node000003" class="node">
<title>Node3</title>
<g id="a_Node000003"><a xlink:href="../../d7/da7/class_shape.html#a754ef1fcea3fbe3c3612da480ba8dd75" target="_top" xlink:title=" ">
<polygon fill="white" stroke="#666666" points="208.25,-241.25 114.25,-241.25 114.25,-222 208.25,-222 208.25,-241.25"/>
<text text-anchor="middle" x="161.25" y="-227.75" font-family="Helvetica,sans-Serif" font-size="10.00">Shape::getPainter</text>
</a>
</g>
</g>
<!-- Node1&#45;&gt;Node3 -->
<g id="edge2_Node000001_Node000003" class="edge">
<title>Node1&#45;&gt;Node3</title>
<g id="a_edge2_Node000001_Node000003"><a xlink:title=" ">
<path fill="none" stroke="#63b8ff" d="M45.37,-148.53C57.21,-164.36 82.44,-195.42 110.5,-213.62 112.12,-214.67 113.8,-215.67 115.53,-216.62"/>
<polygon fill="#63b8ff" stroke="#63b8ff" points="113.91,-219.72 124.44,-220.86 116.92,-213.4 113.91,-219.72"/>
</a>
</g>
</g>
<!-- Node4 -->
<g id="Node000004" class="node">
<title>Node4</title>
<g id="a_Node000004"><a xlink:href="../../d7/da7/class_shape.html#a16aad057da1ce3475f666cbdd27da042" target="_top" xlink:title=" ">
<polygon fill="white" stroke="#666666" points="201.5,-204.25 121,-204.25 121,-185 201.5,-185 201.5,-204.25"/>
<text text-anchor="middle" x="161.25" y="-190.75" font-family="Helvetica,sans-Serif" font-size="10.00">Shape::getPen</text>
</a>
</g>
</g>
<!-- Node1&#45;&gt;Node4 -->
<g id="edge3_Node000001_Node000004" class="edge">
<title>Node1&#45;&gt;Node4</title>
<g id="a_edge3_Node000001_Node000004"><a xlink:title=" ">
<path fill="none" stroke="#63b8ff" d="M55.73,-148.69C70.16,-156.78 91.31,-168.16 110.5,-176.62 113.45,-177.93 116.54,-179.21 119.65,-180.46"/>
<polygon fill="#63b8ff" stroke="#63b8ff" points="118.26,-183.67 128.85,-183.98 120.76,-177.14 118.26,-183.67"/>
</a>
</g>
</g>
<!-- Node5 -->
<g id="Node000005" class="node">
<title>Node5</title>
<g id="a_Node000005"><a xlink:href="../../d7/da7/class_shape.html#ab1cc10b4862f2e16db50622e2df278f3" target="_top" xlink:title=" ">
<polygon fill="white" stroke="#666666" points="206.75,-167.25 115.75,-167.25 115.75,-148 206.75,-148 206.75,-167.25"/>
<text text-anchor="middle" x="161.25" y="-153.75" font-family="Helvetica,sans-Serif" font-size="10.00">Shape::getPoints</text>
</a>
</g>
</g>
<!-- Node1&#45;&gt;Node5 -->
<g id="edge4_Node000001_Node000005" class="edge">
<title>Node1&#45;&gt;Node5</title>
<g id="a_edge4_Node000001_Node000005"><a xlink:title=" ">
<path fill="none" stroke="#63b8ff" d="M74.85,-144.33C84.14,-145.77 94.32,-147.36 104.32,-148.91"/>
<polygon fill="#63b8ff" stroke="#63b8ff" points="103.56,-152.34 113.98,-150.42 104.64,-145.42 103.56,-152.34"/>
</a>
</g>
</g>
<!-- Node6 -->
<g id="Node000006" class="node">
<title>Node6</title>
<g id="a_Node000006"><a xlink:href="../../d7/da7/class_shape.html#aebeb671fc243de273dc49f07ba71bac6" target="_top" xlink:title=" ">
<polygon fill="white" stroke="#666666" points="212,-130.25 110.5,-130.25 110.5,-111 212,-111 212,-130.25"/>
<text text-anchor="middle" x="161.25" y="-116.75" font-family="Helvetica,sans-Serif" font-size="10.00">Shape::getSelected</text>
</a>
</g>
</g>
<!-- Node1&#45;&gt;Node6 -->
<g id="edge5_Node000001_Node000006" class="edge">
<title>Node1&#45;&gt;Node6</title>
<g id="a_edge5_Node000001_Node000006"><a xlink:title=" ">
<path fill="none" stroke="#63b8ff" d="M74.85,-133.22C82.48,-132.1 90.71,-130.88 98.95,-129.67"/>
<polygon fill="#63b8ff" stroke="#63b8ff" points="99.26,-133.16 108.64,-128.24 98.23,-126.24 99.26,-133.16"/>
</a>
</g>
</g>
<!-- Node7 -->
<g id="Node000007" class="node">
<title>Node7</title>
<g id="a_Node000007"><a xlink:href="../../d7/da7/class_shape.html#a4b502262ae5a22122456b9624d5ccb3d" target="_top" xlink:title="Accessor Functions &#45; Returns the data named after them.">
<polygon fill="white" stroke="#666666" points="210.88,-93.25 111.62,-93.25 111.62,-74 210.88,-74 210.88,-93.25"/>
<text text-anchor="middle" x="161.25" y="-79.75" font-family="Helvetica,sans-Serif" font-size="10.00">Shape::getShapeId</text>
</a>
</g>
</g>
<!-- Node1&#45;&gt;Node7 -->
<g id="edge6_Node000001_Node000007" class="edge">
<title>Node1&#45;&gt;Node7</title>
<g id="a_edge6_Node000001_Node000007"><a xlink:title=" ">
<path fill="none" stroke="#63b8ff" d="M56.35,-128.55C70.79,-120.71 91.63,-109.83 110.5,-101.62 113.5,-100.32 116.63,-99.03 119.79,-97.78"/>
<polygon fill="#63b8ff" stroke="#63b8ff" points="121.03,-101.05 129.13,-94.22 118.54,-94.51 121.03,-101.05"/>
</a>
</g>
</g>
<!-- Node8 -->
<g id="Node000008" class="node">
<title>Node8</title>
<g id="a_Node000008"><a xlink:href="../../d7/da7/class_shape.html#af604de36aa616c585bb30dedf5e5c68b" target="_top" xlink:title=" ">
<polygon fill="white" stroke="#666666" points="196.25,-56.25 126.25,-56.25 126.25,-37 196.25,-37 196.25,-56.25"/>
<text text-anchor="middle" x="161.25" y="-42.75" font-family="Helvetica,sans-Serif" font-size="10.00">Shape::getX</text>
</a>
</g>
</g>
<!-- Node1&#45;&gt;Node8 -->
<g id="edge7_Node000001_Node000008" class="edge">
<title>Node1&#45;&gt;Node8</title>
<g id="a_edge7_Node000001_Node000008"><a xlink:title=" ">
<path fill="none" stroke="#63b8ff" d="M45.59,-128.6C57.55,-112.92 82.73,-82.52 110.5,-64.62 112.3,-63.47 114.17,-62.37 116.11,-61.34"/>
<polygon fill="#63b8ff" stroke="#63b8ff" points="117.15,-64.72 124.72,-57.3 114.18,-58.38 117.15,-64.72"/>
</a>
</g>
</g>
<!-- Node9 -->
<g id="Node000009" class="node">
<title>Node9</title>
<g id="a_Node000009"><a xlink:href="../../d7/da7/class_shape.html#a2e87ea4122381ffb83474f4b69247ded" target="_top" xlink:title=" ">
<polygon fill="white" stroke="#666666" points="196.25,-19.25 126.25,-19.25 126.25,0 196.25,0 196.25,-19.25"/>
<text text-anchor="middle" x="161.25" y="-5.75" font-family="Helvetica,sans-Serif" font-size="10.00">Shape::getY</text>
</a>
</g>
</g>
<!-- Node1&#45;&gt;Node9 -->
<g id="edge8_Node000001_Node000009" class="edge">
<title>Node1&#45;&gt;Node9</title>
<g id="a_edge8_Node000001_Node000009"><a xlink:title=" ">
<path fill="none" stroke="#63b8ff" d="M42.07,-128.8C50.88,-107.36 74.65,-56.06 110.5,-27.62 112.2,-26.28 114.01,-25.02 115.9,-23.86"/>
<polygon fill="#63b8ff" stroke="#63b8ff" points="117.16,-27.15 124.44,-19.45 113.95,-20.93 117.16,-27.15"/>
</a>
</g>
</g>
</g>
</svg>
