<?xml version="1.0" encoding="UTF-8" standalone="no"?>
<!DOCTYPE svg PUBLIC "-//W3C//DTD SVG 1.1//EN"
 "http://www.w3.org/Graphics/SVG/1.1/DTD/svg11.dtd">
<!-- Generated by graphviz version 12.2.1 (20241206.2353)
 -->
<!-- Title: Ellipse::isPointInside Pages: 1 -->
<svg width="222pt" height="64pt"
 viewBox="0.00 0.00 221.50 64.25" xmlns="http://www.w3.org/2000/svg" xmlns:xlink="http://www.w3.org/1999/xlink">
<g id="graph0" class="graph" transform="scale(1 1) rotate(0) translate(4 60.25)">
<title>Ellipse::isPointInside</title>
<!-- Node1 -->
<g id="Node000001" class="node">
<title>Node1</title>
<g id="a_Node000001"><a xlink:title="isPointInside &#45; Returns True if point is inside the circle">
<polygon fill="#999999" stroke="#666666" points="107.5,-37.25 0,-37.25 0,-18 107.5,-18 107.5,-37.25"/>
<text text-anchor="middle" x="53.75" y="-23.75" font-family="Helvetica,sans-Serif" font-size="10.00">Ellipse::isPointInside</text>
</a>
</g>
</g>
<!-- Node2 -->
<g id="Node000002" class="node">
<title>Node2</title>
<g id="a_Node000002"><a xlink:href="../../d7/da7/class_shape.html#af604de36aa616c585bb30dedf5e5c68b" target="_top" xlink:title=" ">
<polygon fill="white" stroke="#666666" points="213.5,-56.25 143.5,-56.25 143.5,-37 213.5,-37 213.5,-56.25"/>
<text text-anchor="middle" x="178.5" y="-42.75" font-family="Helvetica,sans-Serif" font-size="10.00">Shape::getX</text>
</a>
</g>
</g>
<!-- Node1&#45;&gt;Node2 -->
<g id="edge1_Node000001_Node000002" class="edge">
<title>Node1&#45;&gt;Node2</title>
<g id="a_edge1_Node000001_Node000002"><a xlink:title=" ">
<path fill="none" stroke="#63b8ff" d="M107.88,-35.85C115.89,-37.09 124.09,-38.36 131.92,-39.57"/>
<polygon fill="#63b8ff" stroke="#63b8ff" points="131.15,-42.99 141.57,-41.06 132.22,-36.08 131.15,-42.99"/>
</a>
</g>
</g>
<!-- Node3 -->
<g id="Node000003" class="node">
<title>Node3</title>
<g id="a_Node000003"><a xlink:href="../../d7/da7/class_shape.html#a2e87ea4122381ffb83474f4b69247ded" target="_top" xlink:title=" ">
<polygon fill="white" stroke="#666666" points="213.5,-19.25 143.5,-19.25 143.5,0 213.5,0 213.5,-19.25"/>
<text text-anchor="middle" x="178.5" y="-5.75" font-family="Helvetica,sans-Serif" font-size="10.00">Shape::getY</text>
</a>
</g>
</g>
<!-- Node1&#45;&gt;Node3 -->
<g id="edge2_Node000001_Node000003" class="edge">
<title>Node1&#45;&gt;Node3</title>
<g id="a_edge2_Node000001_Node000003"><a xlink:title=" ">
<path fill="none" stroke="#63b8ff" d="M107.88,-19.83C115.89,-18.66 124.09,-17.46 131.92,-16.31"/>
<polygon fill="#63b8ff" stroke="#63b8ff" points="132.18,-19.81 141.57,-14.89 131.17,-12.88 132.18,-19.81"/>
</a>
</g>
</g>
</g>
</svg>
