<?xml version="1.0" encoding="UTF-8" standalone="no"?>
<!DOCTYPE svg PUBLIC "-//W3C//DTD SVG 1.1//EN"
 "http://www.w3.org/Graphics/SVG/1.1/DTD/svg11.dtd">
<!-- Generated by graphviz version 12.2.1 (20241206.2353)
 -->
<!-- Title: Ellipse::getB Pages: 1 -->
<svg width="620pt" height="64pt"
 viewBox="0.00 0.00 620.25 64.25" xmlns="http://www.w3.org/2000/svg" xmlns:xlink="http://www.w3.org/1999/xlink">
<g id="graph0" class="graph" transform="scale(1 1) rotate(0) translate(4 60.25)">
<title>Ellipse::getB</title>
<!-- Node1 -->
<g id="Node000001" class="node">
<title>Node1</title>
<g id="a_Node000001"><a xlink:title=" ">
<polygon fill="#999999" stroke="#666666" points="612.25,-37.25 540.75,-37.25 540.75,-18 612.25,-18 612.25,-37.25"/>
<text text-anchor="middle" x="576.5" y="-23.75" font-family="Helvetica,sans-Serif" font-size="10.00">Ellipse::getB</text>
</a>
</g>
</g>
<!-- Node2 -->
<g id="Node000002" class="node">
<title>Node2</title>
<g id="a_Node000002"><a xlink:href="../../dc/db7/class_parser.html#af246a0732ef6c7518e5aaee1043d12e4" target="_top" xlink:title="Gets the geometric dimensions of a shape as a JSON array string.">
<polygon fill="white" stroke="#666666" points="504.75,-37.25 359,-37.25 359,-18 504.75,-18 504.75,-37.25"/>
<text text-anchor="middle" x="431.88" y="-23.75" font-family="Helvetica,sans-Serif" font-size="10.00">Parser::GetShapeDimensions</text>
</a>
</g>
</g>
<!-- Node1&#45;&gt;Node2 -->
<g id="edge1_Node000001_Node000002" class="edge">
<title>Node1&#45;&gt;Node2</title>
<g id="a_edge1_Node000001_Node000002"><a xlink:title=" ">
<path fill="none" stroke="#63b8ff" d="M529.26,-27.62C521.52,-27.62 513.32,-27.62 505.11,-27.62"/>
<polygon fill="#63b8ff" stroke="#63b8ff" points="529.1,-31.13 539.1,-27.63 529.1,-24.13 529.1,-31.13"/>
</a>
</g>
</g>
<!-- Node3 -->
<g id="Node000003" class="node">
<title>Node3</title>
<g id="a_Node000003"><a xlink:href="../../dc/db7/class_parser.html#a8f8932bed758cd3e61de3669fdef1110" target="_top" xlink:title="Appends common shape properties (ID, Type, Dimensions, Pen properties) to a JSON string.">
<polygon fill="white" stroke="#666666" points="323,-56.25 151,-56.25 151,-37 323,-37 323,-56.25"/>
<text text-anchor="middle" x="237" y="-42.75" font-family="Helvetica,sans-Serif" font-size="10.00">Parser::AppendCommonShapeData</text>
</a>
</g>
</g>
<!-- Node2&#45;&gt;Node3 -->
<g id="edge2_Node000002_Node000003" class="edge">
<title>Node2&#45;&gt;Node3</title>
<g id="a_edge2_Node000002_Node000003"><a xlink:title=" ">
<path fill="none" stroke="#63b8ff" d="M347.12,-35.88C339.27,-36.65 331.31,-37.43 323.45,-38.21"/>
<polygon fill="#63b8ff" stroke="#63b8ff" points="347.39,-39.37 357,-34.9 346.71,-32.4 347.39,-39.37"/>
</a>
</g>
</g>
<!-- Node5 -->
<g id="Node000005" class="node">
<title>Node5</title>
<g id="a_Node000005"><a xlink:href="../../dc/db7/class_parser.html#a3c8d6dcf6e07231eaedb036ebe90b51f" target="_top" xlink:title="Appends all properties specific to Text objects to a JSON string.">
<polygon fill="white" stroke="#666666" points="298.62,-19.25 175.38,-19.25 175.38,0 298.62,0 298.62,-19.25"/>
<text text-anchor="middle" x="237" y="-5.75" font-family="Helvetica,sans-Serif" font-size="10.00">Parser::AppendTextData</text>
</a>
</g>
</g>
<!-- Node2&#45;&gt;Node5 -->
<g id="edge4_Node000002_Node000005" class="edge">
<title>Node2&#45;&gt;Node5</title>
<g id="a_edge4_Node000002_Node000005"><a xlink:title=" ">
<path fill="none" stroke="#63b8ff" d="M347.38,-19.83C331.15,-18.32 314.43,-16.76 299.1,-15.33"/>
<polygon fill="#63b8ff" stroke="#63b8ff" points="346.72,-23.29 357,-20.73 347.37,-16.32 346.72,-23.29"/>
</a>
</g>
</g>
<!-- Node4 -->
<g id="Node000004" class="node">
<title>Node4</title>
<g id="a_Node000004"><a xlink:href="../../dc/db7/class_parser.html#ac0dc74d228421b62ece9d9e93511509e" target="_top" xlink:title="Converts a vector of Shape pointers into a JSON string representation.">
<polygon fill="white" stroke="#666666" points="115,-37.25 0,-37.25 0,-18 115,-18 115,-37.25"/>
<text text-anchor="middle" x="57.5" y="-23.75" font-family="Helvetica,sans-Serif" font-size="10.00">Parser::ShapesToJson</text>
</a>
</g>
</g>
<!-- Node3&#45;&gt;Node4 -->
<g id="edge3_Node000003_Node000004" class="edge">
<title>Node3&#45;&gt;Node4</title>
<g id="a_edge3_Node000003_Node000004"><a xlink:title=" ">
<path fill="none" stroke="#63b8ff" d="M139.39,-36.28C131.17,-35.4 123.04,-34.53 115.29,-33.7"/>
<polygon fill="#63b8ff" stroke="#63b8ff" points="138.81,-39.74 149.12,-37.33 139.55,-32.78 138.81,-39.74"/>
</a>
</g>
</g>
<!-- Node5&#45;&gt;Node4 -->
<g id="edge5_Node000005_Node000004" class="edge">
<title>Node5&#45;&gt;Node4</title>
<g id="a_edge5_Node000005_Node000004"><a xlink:title=" ">
<path fill="none" stroke="#63b8ff" d="M163.85,-16.94C147.65,-18.58 130.69,-20.3 115.22,-21.87"/>
<polygon fill="#63b8ff" stroke="#63b8ff" points="163.81,-20.46 173.41,-15.97 163.11,-13.5 163.81,-20.46"/>
</a>
</g>
</g>
</g>
</svg>
