<?xml version="1.0" encoding="UTF-8" standalone="no"?>
<!DOCTYPE svg PUBLIC "-//W3C//DTD SVG 1.1//EN"
 "http://www.w3.org/Graphics/SVG/1.1/DTD/svg11.dtd">
<!-- Generated by graphviz version 12.2.1 (20241206.2353)
 -->
<!-- Title: TestimonialDialog Pages: 1 -->
<svg width="178pt" height="292pt"
 viewBox="0.00 0.00 178.25 292.00" xmlns="http://www.w3.org/2000/svg" xmlns:xlink="http://www.w3.org/1999/xlink">

<svg id="main" version="1.1" xmlns="http://www.w3.org/2000/svg" xmlns:xlink="http://www.w3.org/1999/xlink" xml:space="preserve">

<style type="text/css"><![CDATA[
.node, .edge {opacity: 0.7;}
.node.selected, .edge.selected {opacity: 1;}
.edge:hover path { stroke: red; }
.edge:hover polygon { stroke: red; fill: red; }
]]></style>
<script type="application/ecmascript" xlink:href="../../svg.min.js"/>
<svg id="graph" class="graph">
<g id="graph0" class="graph" transform="scale(1 1) rotate(0) translate(4 288)">
<title>TestimonialDialog</title>
<!-- Node1 -->
<g id="Node000001" class="node">
<title>Node1</title>
<g id="a_Node000001"><a xlink:title="The TestimonialDialog class provides a user interface for submitting testimonials.">
<polygon fill="#999999" stroke="none" points="170.25,-198.25 0,-198.25 0,0 170.25,0 170.25,-198.25"/>
<text text-anchor="start" x="46.5" y="-184.75" font-family="Helvetica,sans-Serif" font-size="10.00">TestimonialDialog</text>
<text text-anchor="start" x="5.5" y="-169.5" font-family="Helvetica,sans-Serif" font-size="10.00">&#45;</text>
<text text-anchor="start" x="14" y="-169.5" font-family="Helvetica,sans-Serif" font-size="10.00">QLineEdit * m_authorEdit</text>
<text text-anchor="start" x="5.5" y="-154.25" font-family="Helvetica,sans-Serif" font-size="10.00">&#45;</text>
<text text-anchor="start" x="14" y="-154.25" font-family="Helvetica,sans-Serif" font-size="10.00">QTextEdit * m_contentEdit</text>
<text text-anchor="start" x="5.5" y="-139" font-family="Helvetica,sans-Serif" font-size="10.00">&#45;</text>
<text text-anchor="start" x="14" y="-139" font-family="Helvetica,sans-Serif" font-size="10.00">QCheckBox * m_doNotShowAgain</text>
<text text-anchor="start" x="4" y="-123.75" font-family="Helvetica,sans-Serif" font-size="10.00">+</text>
<text text-anchor="start" x="14" y="-123.75" font-family="Helvetica,sans-Serif" font-size="10.00">TestimonialDialog</text>
<text text-anchor="start" x="14" y="-112.5" font-family="Helvetica,sans-Serif" font-size="10.00">(QWidget *parent=nullptr)</text>
<text text-anchor="start" x="5.5" y="-97.25" font-family="Helvetica,sans-Serif" font-size="10.00">&#45;</text>
<text text-anchor="start" x="14" y="-97.25" font-family="Helvetica,sans-Serif" font-size="10.00">void onSubmit()</text>
<text text-anchor="start" x="5.5" y="-82" font-family="Helvetica,sans-Serif" font-size="10.00">&#45;</text>
<text text-anchor="start" x="14" y="-82" font-family="Helvetica,sans-Serif" font-size="10.00">void onCancel()</text>
<text text-anchor="start" x="5.12" y="-66.75" font-family="Helvetica,sans-Serif" font-size="10.00">*</text>
<text text-anchor="start" x="14" y="-66.75" font-family="Helvetica,sans-Serif" font-size="10.00">QLineEdit * m_authorEdit</text>
<text text-anchor="start" x="5.12" y="-51.5" font-family="Helvetica,sans-Serif" font-size="10.00">*</text>
<text text-anchor="start" x="14" y="-51.5" font-family="Helvetica,sans-Serif" font-size="10.00">QTextEdit * m_contentEdit</text>
<text text-anchor="start" x="5.12" y="-36.25" font-family="Helvetica,sans-Serif" font-size="10.00">*</text>
<text text-anchor="start" x="14" y="-36.25" font-family="Helvetica,sans-Serif" font-size="10.00">QCheckBox * m_doNotShowAgain</text>
<text text-anchor="start" x="5.12" y="-21" font-family="Helvetica,sans-Serif" font-size="10.00">*</text>
<text text-anchor="start" x="14" y="-21" font-family="Helvetica,sans-Serif" font-size="10.00">void onSubmit()</text>
<text text-anchor="start" x="5.12" y="-5.75" font-family="Helvetica,sans-Serif" font-size="10.00">*</text>
<text text-anchor="start" x="14" y="-5.75" font-family="Helvetica,sans-Serif" font-size="10.00">void onCancel()</text>
<polygon fill="#666666" stroke="#666666" points="0,-181 0,-181 170.25,-181 170.25,-181 0,-181"/>
<polygon fill="#666666" stroke="#666666" points="0,-135.25 0,-135.25 12,-135.25 12,-135.25 0,-135.25"/>
<polygon fill="#666666" stroke="#666666" points="12,-135.25 12,-135.25 170.25,-135.25 170.25,-135.25 12,-135.25"/>
<polygon fill="none" stroke="#666666" points="0,0 0,-198.25 170.25,-198.25 170.25,0 0,0"/>
</a>
</g>
</g>
<!-- Node2 -->
<g id="Node000002" class="node">
<title>Node2</title>
<g id="a_Node000002"><a xlink:title=" ">
<polygon fill="white" stroke="none" points="106.75,-284 63.5,-284 63.5,-234.25 106.75,-234.25 106.75,-284"/>
<text text-anchor="start" x="67.5" y="-270.5" font-family="Helvetica,sans-Serif" font-size="10.00">QDialog</text>
<text text-anchor="start" x="83.62" y="-255.25" font-family="Helvetica,sans-Serif" font-size="10.00"> </text>
<text text-anchor="start" x="83.62" y="-240" font-family="Helvetica,sans-Serif" font-size="10.00"> </text>
<polygon fill="#666666" stroke="#666666" points="63.5,-266.75 63.5,-266.75 106.75,-266.75 106.75,-266.75 63.5,-266.75"/>
<polygon fill="#666666" stroke="#666666" points="63.5,-251.5 63.5,-251.5 106.75,-251.5 106.75,-251.5 63.5,-251.5"/>
<polygon fill="none" stroke="#666666" points="63.5,-234.25 63.5,-284 106.75,-284 106.75,-234.25 63.5,-234.25"/>
</a>
</g>
</g>
<!-- Node2&#45;&gt;Node1 -->
<g id="edge1_Node000001_Node000002" class="edge">
<title>Node2&#45;&gt;Node1</title>
<g id="a_edge1_Node000001_Node000002"><a xlink:title=" ">
<path fill="none" stroke="#63b8ff" d="M85.12,-223.09C85.12,-215.38 85.12,-206.84 85.12,-197.97"/>
<polygon fill="none" stroke="#63b8ff" points="81.63,-222.96 85.13,-232.96 88.63,-222.96 81.63,-222.96"/>
</a>
</g>
</g>
</g>
</svg>
</svg>

<style type='text/css'>
<![CDATA[
[data-mouse-over-selected='false'] { opacity: 0.7; }
[data-mouse-over-selected='true']  { opacity: 1.0; }
]]>
</style>
<script type="application/ecmascript"><![CDATA[
document.addEventListener('DOMContentLoaded', (event) => {
  highlightEdges();
  highlightAdjacentNodes();
});
]]></script>
</svg>
