<?xml version="1.0" encoding="UTF-8" standalone="no"?>
<!DOCTYPE svg PUBLIC "-//W3C//DTD SVG 1.1//EN"
 "http://www.w3.org/Graphics/SVG/1.1/DTD/svg11.dtd">
<!-- Generated by graphviz version 12.2.1 (20241206.2353)
 -->
<!-- Title: alpha::vector&lt; T &gt; Pages: 1 -->
<svg width="604pt" height="667pt"
 viewBox="0.00 0.00 604.00 667.00" xmlns="http://www.w3.org/2000/svg" xmlns:xlink="http://www.w3.org/1999/xlink">
<g id="graph0" class="graph" transform="scale(1 1) rotate(0) translate(4 663)">
<title>alpha::vector&lt; T &gt;</title>
<!-- Node1 -->
<g id="Node000001" class="node">
<title>Node1</title>
<g id="a_Node000001"><a xlink:title=" ">
<polygon fill="#999999" stroke="none" points="357,-659 225,-659 225,-370 357,-370 357,-659"/>
<text text-anchor="start" x="250.88" y="-645.5" font-family="Helvetica,sans-Serif" font-size="10.00">alpha::vector&lt; T &gt;</text>
<text text-anchor="start" x="230.5" y="-630.25" font-family="Helvetica,sans-Serif" font-size="10.00">&#45;</text>
<text text-anchor="start" x="239" y="-630.25" font-family="Helvetica,sans-Serif" font-size="10.00">int size_v</text>
<text text-anchor="start" x="230.5" y="-615" font-family="Helvetica,sans-Serif" font-size="10.00">&#45;</text>
<text text-anchor="start" x="239" y="-615" font-family="Helvetica,sans-Serif" font-size="10.00">T * elem</text>
<text text-anchor="start" x="230.5" y="-599.75" font-family="Helvetica,sans-Serif" font-size="10.00">&#45;</text>
<text text-anchor="start" x="239" y="-599.75" font-family="Helvetica,sans-Serif" font-size="10.00">int space</text>
<text text-anchor="start" x="229" y="-584.5" font-family="Helvetica,sans-Serif" font-size="10.00">+</text>
<text text-anchor="start" x="239" y="-584.5" font-family="Helvetica,sans-Serif" font-size="10.00">vector()</text>
<text text-anchor="start" x="229" y="-569.25" font-family="Helvetica,sans-Serif" font-size="10.00">+</text>
<text text-anchor="start" x="239" y="-569.25" font-family="Helvetica,sans-Serif" font-size="10.00">vector(int s)</text>
<text text-anchor="start" x="229" y="-554" font-family="Helvetica,sans-Serif" font-size="10.00">+</text>
<text text-anchor="start" x="239" y="-554" font-family="Helvetica,sans-Serif" font-size="10.00">vector(const vector</text>
<text text-anchor="start" x="239" y="-542.75" font-family="Helvetica,sans-Serif" font-size="10.00"> &amp;other)</text>
<text text-anchor="start" x="229" y="-527.5" font-family="Helvetica,sans-Serif" font-size="10.00">+</text>
<text text-anchor="start" x="239" y="-527.5" font-family="Helvetica,sans-Serif" font-size="10.00">vector &amp; operator=</text>
<text text-anchor="start" x="239" y="-516.25" font-family="Helvetica,sans-Serif" font-size="10.00">(const vector &amp;other)</text>
<text text-anchor="start" x="229" y="-501" font-family="Helvetica,sans-Serif" font-size="10.00">+</text>
<text text-anchor="start" x="239" y="-501" font-family="Helvetica,sans-Serif" font-size="10.00">vector(vector &amp;&amp;other)</text>
<text text-anchor="start" x="239" y="-489.75" font-family="Helvetica,sans-Serif" font-size="10.00"> noexcept</text>
<text text-anchor="start" x="229" y="-474.5" font-family="Helvetica,sans-Serif" font-size="10.00">+</text>
<text text-anchor="start" x="239" y="-474.5" font-family="Helvetica,sans-Serif" font-size="10.00">vector &amp; operator=</text>
<text text-anchor="start" x="239" y="-463.25" font-family="Helvetica,sans-Serif" font-size="10.00">(vector &amp;&amp;other) noexcept</text>
<text text-anchor="start" x="229" y="-448" font-family="Helvetica,sans-Serif" font-size="10.00">+</text>
<text text-anchor="start" x="239" y="-448" font-family="Helvetica,sans-Serif" font-size="10.00">~vector()</text>
<text text-anchor="start" x="229" y="-432.75" font-family="Helvetica,sans-Serif" font-size="10.00">+</text>
<text text-anchor="start" x="239" y="-432.75" font-family="Helvetica,sans-Serif" font-size="10.00">T &amp; operator[](int n)</text>
<text text-anchor="start" x="229" y="-417.5" font-family="Helvetica,sans-Serif" font-size="10.00">+</text>
<text text-anchor="start" x="239" y="-417.5" font-family="Helvetica,sans-Serif" font-size="10.00">const T &amp; operator</text>
<text text-anchor="start" x="239" y="-406.25" font-family="Helvetica,sans-Serif" font-size="10.00">[](int n) const</text>
<text text-anchor="start" x="229" y="-391" font-family="Helvetica,sans-Serif" font-size="10.00">+</text>
<text text-anchor="start" x="239" y="-391" font-family="Helvetica,sans-Serif" font-size="10.00">int size() const</text>
<text text-anchor="start" x="239" y="-375.75" font-family="Helvetica,sans-Serif" font-size="10.00">and 10 more...</text>
<polygon fill="#666666" stroke="#666666" points="225,-641.75 225,-641.75 357,-641.75 357,-641.75 225,-641.75"/>
<polygon fill="#666666" stroke="#666666" points="225,-596 225,-596 237,-596 237,-596 225,-596"/>
<polygon fill="#666666" stroke="#666666" points="237,-596 237,-596 357,-596 357,-596 237,-596"/>
<polygon fill="none" stroke="#666666" points="225,-370 225,-659 357,-659 357,-370 225,-370"/>
</a>
</g>
</g>
<!-- Node2 -->
<g id="Node000002" class="node">
<title>Node2</title>
<g id="a_Node000002"><a xlink:href="../../db/d35/classalpha_1_1vector.html" target="_top" xlink:title=" ">
<polygon fill="white" stroke="none" points="132,-311.5 0,-311.5 0,-11.25 132,-11.25 132,-311.5"/>
<text text-anchor="start" x="11.62" y="-298" font-family="Helvetica,sans-Serif" font-size="10.00">alpha::vector&lt; Shape * &gt;</text>
<text text-anchor="start" x="5.5" y="-282.75" font-family="Helvetica,sans-Serif" font-size="10.00">&#45;</text>
<text text-anchor="start" x="14" y="-282.75" font-family="Helvetica,sans-Serif" font-size="10.00">int size_v</text>
<text text-anchor="start" x="5.5" y="-267.5" font-family="Helvetica,sans-Serif" font-size="10.00">&#45;</text>
<text text-anchor="start" x="14" y="-267.5" font-family="Helvetica,sans-Serif" font-size="10.00">Shape ** elem</text>
<text text-anchor="start" x="5.5" y="-252.25" font-family="Helvetica,sans-Serif" font-size="10.00">&#45;</text>
<text text-anchor="start" x="14" y="-252.25" font-family="Helvetica,sans-Serif" font-size="10.00">int space</text>
<text text-anchor="start" x="4" y="-237" font-family="Helvetica,sans-Serif" font-size="10.00">+</text>
<text text-anchor="start" x="14" y="-237" font-family="Helvetica,sans-Serif" font-size="10.00">vector()</text>
<text text-anchor="start" x="4" y="-221.75" font-family="Helvetica,sans-Serif" font-size="10.00">+</text>
<text text-anchor="start" x="14" y="-221.75" font-family="Helvetica,sans-Serif" font-size="10.00">vector(int s)</text>
<text text-anchor="start" x="4" y="-206.5" font-family="Helvetica,sans-Serif" font-size="10.00">+</text>
<text text-anchor="start" x="14" y="-206.5" font-family="Helvetica,sans-Serif" font-size="10.00">vector(const vector</text>
<text text-anchor="start" x="14" y="-195.25" font-family="Helvetica,sans-Serif" font-size="10.00"> &amp;other)</text>
<text text-anchor="start" x="4" y="-180" font-family="Helvetica,sans-Serif" font-size="10.00">+</text>
<text text-anchor="start" x="14" y="-180" font-family="Helvetica,sans-Serif" font-size="10.00">vector(vector &amp;&amp;other)</text>
<text text-anchor="start" x="14" y="-168.75" font-family="Helvetica,sans-Serif" font-size="10.00"> noexcept</text>
<text text-anchor="start" x="4" y="-153.5" font-family="Helvetica,sans-Serif" font-size="10.00">+</text>
<text text-anchor="start" x="14" y="-153.5" font-family="Helvetica,sans-Serif" font-size="10.00">vector &amp; operator=</text>
<text text-anchor="start" x="14" y="-142.25" font-family="Helvetica,sans-Serif" font-size="10.00">(const vector &amp;other)</text>
<text text-anchor="start" x="4" y="-127" font-family="Helvetica,sans-Serif" font-size="10.00">+</text>
<text text-anchor="start" x="14" y="-127" font-family="Helvetica,sans-Serif" font-size="10.00">vector &amp; operator=</text>
<text text-anchor="start" x="14" y="-115.75" font-family="Helvetica,sans-Serif" font-size="10.00">(vector &amp;&amp;other) noexcept</text>
<text text-anchor="start" x="4" y="-100.5" font-family="Helvetica,sans-Serif" font-size="10.00">+</text>
<text text-anchor="start" x="14" y="-100.5" font-family="Helvetica,sans-Serif" font-size="10.00">~vector()</text>
<text text-anchor="start" x="4" y="-85.25" font-family="Helvetica,sans-Serif" font-size="10.00">+</text>
<text text-anchor="start" x="14" y="-85.25" font-family="Helvetica,sans-Serif" font-size="10.00">Shape *&amp; operator[]</text>
<text text-anchor="start" x="14" y="-74" font-family="Helvetica,sans-Serif" font-size="10.00">(int n)</text>
<text text-anchor="start" x="4" y="-58.75" font-family="Helvetica,sans-Serif" font-size="10.00">+</text>
<text text-anchor="start" x="14" y="-58.75" font-family="Helvetica,sans-Serif" font-size="10.00">const Shape *&amp; operator</text>
<text text-anchor="start" x="14" y="-47.5" font-family="Helvetica,sans-Serif" font-size="10.00">[](int n) const</text>
<text text-anchor="start" x="4" y="-32.25" font-family="Helvetica,sans-Serif" font-size="10.00">+</text>
<text text-anchor="start" x="14" y="-32.25" font-family="Helvetica,sans-Serif" font-size="10.00">int size() const</text>
<text text-anchor="start" x="14" y="-17" font-family="Helvetica,sans-Serif" font-size="10.00">and 10 more...</text>
<polygon fill="#666666" stroke="#666666" points="0,-294.25 0,-294.25 132,-294.25 132,-294.25 0,-294.25"/>
<polygon fill="#666666" stroke="#666666" points="0,-248.5 0,-248.5 12,-248.5 12,-248.5 0,-248.5"/>
<polygon fill="#666666" stroke="#666666" points="12,-248.5 12,-248.5 132,-248.5 132,-248.5 12,-248.5"/>
<polygon fill="none" stroke="#666666" points="0,-11.25 0,-311.5 132,-311.5 132,-11.25 0,-11.25"/>
</a>
</g>
</g>
<!-- Node1&#45;&gt;Node2 -->
<g id="edge1_Node000001_Node000002" class="edge">
<title>Node1&#45;&gt;Node2</title>
<g id="a_edge1_Node000001_Node000002"><a xlink:title=" ">
<path fill="none" stroke="orange" d="M217.86,-429.11C191.87,-397 163.51,-359.31 141,-322.75 137.94,-317.78 134.92,-312.66 131.95,-307.44"/>
<polygon fill="orange" stroke="orange" points="215.13,-431.31 224.16,-436.84 220.56,-426.88 215.13,-431.31"/>
</a>
</g>
<text text-anchor="middle" x="186.69" y="-342.5" font-family="Helvetica,sans-Serif" font-size="10.00" fill="grey"> &lt; Shape * &gt;</text>
</g>
<!-- Node3 -->
<g id="Node000003" class="node">
<title>Node3</title>
<g id="a_Node000003"><a xlink:href="../../db/d35/classalpha_1_1vector.html" target="_top" xlink:title=" ">
<polygon fill="white" stroke="none" points="282,-305.88 150,-305.88 150,-16.88 282,-16.88 282,-305.88"/>
<text text-anchor="start" x="173.62" y="-292.38" font-family="Helvetica,sans-Serif" font-size="10.00">alpha::vector&lt; int &gt;</text>
<text text-anchor="start" x="155.5" y="-277.12" font-family="Helvetica,sans-Serif" font-size="10.00">&#45;</text>
<text text-anchor="start" x="164" y="-277.12" font-family="Helvetica,sans-Serif" font-size="10.00">int size_v</text>
<text text-anchor="start" x="155.5" y="-261.88" font-family="Helvetica,sans-Serif" font-size="10.00">&#45;</text>
<text text-anchor="start" x="164" y="-261.88" font-family="Helvetica,sans-Serif" font-size="10.00">int * elem</text>
<text text-anchor="start" x="155.5" y="-246.62" font-family="Helvetica,sans-Serif" font-size="10.00">&#45;</text>
<text text-anchor="start" x="164" y="-246.62" font-family="Helvetica,sans-Serif" font-size="10.00">int space</text>
<text text-anchor="start" x="154" y="-231.38" font-family="Helvetica,sans-Serif" font-size="10.00">+</text>
<text text-anchor="start" x="164" y="-231.38" font-family="Helvetica,sans-Serif" font-size="10.00">vector()</text>
<text text-anchor="start" x="154" y="-216.12" font-family="Helvetica,sans-Serif" font-size="10.00">+</text>
<text text-anchor="start" x="164" y="-216.12" font-family="Helvetica,sans-Serif" font-size="10.00">vector(int s)</text>
<text text-anchor="start" x="154" y="-200.88" font-family="Helvetica,sans-Serif" font-size="10.00">+</text>
<text text-anchor="start" x="164" y="-200.88" font-family="Helvetica,sans-Serif" font-size="10.00">vector(const vector</text>
<text text-anchor="start" x="164" y="-189.62" font-family="Helvetica,sans-Serif" font-size="10.00"> &amp;other)</text>
<text text-anchor="start" x="154" y="-174.38" font-family="Helvetica,sans-Serif" font-size="10.00">+</text>
<text text-anchor="start" x="164" y="-174.38" font-family="Helvetica,sans-Serif" font-size="10.00">vector(vector &amp;&amp;other)</text>
<text text-anchor="start" x="164" y="-163.12" font-family="Helvetica,sans-Serif" font-size="10.00"> noexcept</text>
<text text-anchor="start" x="154" y="-147.88" font-family="Helvetica,sans-Serif" font-size="10.00">+</text>
<text text-anchor="start" x="164" y="-147.88" font-family="Helvetica,sans-Serif" font-size="10.00">vector &amp; operator=</text>
<text text-anchor="start" x="164" y="-136.62" font-family="Helvetica,sans-Serif" font-size="10.00">(const vector &amp;other)</text>
<text text-anchor="start" x="154" y="-121.38" font-family="Helvetica,sans-Serif" font-size="10.00">+</text>
<text text-anchor="start" x="164" y="-121.38" font-family="Helvetica,sans-Serif" font-size="10.00">vector &amp; operator=</text>
<text text-anchor="start" x="164" y="-110.12" font-family="Helvetica,sans-Serif" font-size="10.00">(vector &amp;&amp;other) noexcept</text>
<text text-anchor="start" x="154" y="-94.88" font-family="Helvetica,sans-Serif" font-size="10.00">+</text>
<text text-anchor="start" x="164" y="-94.88" font-family="Helvetica,sans-Serif" font-size="10.00">~vector()</text>
<text text-anchor="start" x="154" y="-79.62" font-family="Helvetica,sans-Serif" font-size="10.00">+</text>
<text text-anchor="start" x="164" y="-79.62" font-family="Helvetica,sans-Serif" font-size="10.00">int &amp; operator[](int n)</text>
<text text-anchor="start" x="154" y="-64.38" font-family="Helvetica,sans-Serif" font-size="10.00">+</text>
<text text-anchor="start" x="164" y="-64.38" font-family="Helvetica,sans-Serif" font-size="10.00">const int &amp; operator</text>
<text text-anchor="start" x="164" y="-53.12" font-family="Helvetica,sans-Serif" font-size="10.00">[](int n) const</text>
<text text-anchor="start" x="154" y="-37.88" font-family="Helvetica,sans-Serif" font-size="10.00">+</text>
<text text-anchor="start" x="164" y="-37.88" font-family="Helvetica,sans-Serif" font-size="10.00">int size() const</text>
<text text-anchor="start" x="164" y="-22.62" font-family="Helvetica,sans-Serif" font-size="10.00">and 10 more...</text>
<polygon fill="#666666" stroke="#666666" points="150,-288.62 150,-288.62 282,-288.62 282,-288.62 150,-288.62"/>
<polygon fill="#666666" stroke="#666666" points="150,-242.88 150,-242.88 162,-242.88 162,-242.88 150,-242.88"/>
<polygon fill="#666666" stroke="#666666" points="162,-242.88 162,-242.88 282,-242.88 282,-242.88 162,-242.88"/>
<polygon fill="none" stroke="#666666" points="150,-16.88 150,-305.88 282,-305.88 282,-16.88 150,-16.88"/>
</a>
</g>
</g>
<!-- Node1&#45;&gt;Node3 -->
<g id="edge2_Node000001_Node000003" class="edge">
<title>Node1&#45;&gt;Node3</title>
<g id="a_edge2_Node000001_Node000003"><a xlink:title=" ">
<path fill="none" stroke="orange" d="M257.98,-358.92C254.21,-341.26 250.38,-323.32 246.64,-305.81"/>
<polygon fill="orange" stroke="orange" points="254.56,-359.65 260.07,-368.7 261.4,-358.19 254.56,-359.65"/>
</a>
</g>
<text text-anchor="middle" x="271.5" y="-342.5" font-family="Helvetica,sans-Serif" font-size="10.00" fill="grey"> &lt; int &gt;</text>
</g>
<!-- Node4 -->
<g id="Node000004" class="node">
<title>Node4</title>
<g id="a_Node000004"><a xlink:href="../../db/d35/classalpha_1_1vector.html" target="_top" xlink:title=" ">
<polygon fill="white" stroke="none" points="432,-322.75 300,-322.75 300,0 432,0 432,-322.75"/>
<text text-anchor="start" x="304.5" y="-309.25" font-family="Helvetica,sans-Serif" font-size="10.00">alpha::vector&lt; QTreeWidget</text>
<text text-anchor="start" x="348.38" y="-298" font-family="Helvetica,sans-Serif" font-size="10.00">Item * &gt;</text>
<text text-anchor="start" x="305.5" y="-282.75" font-family="Helvetica,sans-Serif" font-size="10.00">&#45;</text>
<text text-anchor="start" x="314" y="-282.75" font-family="Helvetica,sans-Serif" font-size="10.00">int size_v</text>
<text text-anchor="start" x="305.5" y="-267.5" font-family="Helvetica,sans-Serif" font-size="10.00">&#45;</text>
<text text-anchor="start" x="314" y="-267.5" font-family="Helvetica,sans-Serif" font-size="10.00">QTreeWidgetItem ** elem</text>
<text text-anchor="start" x="305.5" y="-252.25" font-family="Helvetica,sans-Serif" font-size="10.00">&#45;</text>
<text text-anchor="start" x="314" y="-252.25" font-family="Helvetica,sans-Serif" font-size="10.00">int space</text>
<text text-anchor="start" x="304" y="-237" font-family="Helvetica,sans-Serif" font-size="10.00">+</text>
<text text-anchor="start" x="314" y="-237" font-family="Helvetica,sans-Serif" font-size="10.00">vector()</text>
<text text-anchor="start" x="304" y="-221.75" font-family="Helvetica,sans-Serif" font-size="10.00">+</text>
<text text-anchor="start" x="314" y="-221.75" font-family="Helvetica,sans-Serif" font-size="10.00">vector(int s)</text>
<text text-anchor="start" x="304" y="-206.5" font-family="Helvetica,sans-Serif" font-size="10.00">+</text>
<text text-anchor="start" x="314" y="-206.5" font-family="Helvetica,sans-Serif" font-size="10.00">vector(const vector</text>
<text text-anchor="start" x="314" y="-195.25" font-family="Helvetica,sans-Serif" font-size="10.00"> &amp;other)</text>
<text text-anchor="start" x="304" y="-180" font-family="Helvetica,sans-Serif" font-size="10.00">+</text>
<text text-anchor="start" x="314" y="-180" font-family="Helvetica,sans-Serif" font-size="10.00">vector(vector &amp;&amp;other)</text>
<text text-anchor="start" x="314" y="-168.75" font-family="Helvetica,sans-Serif" font-size="10.00"> noexcept</text>
<text text-anchor="start" x="304" y="-153.5" font-family="Helvetica,sans-Serif" font-size="10.00">+</text>
<text text-anchor="start" x="314" y="-153.5" font-family="Helvetica,sans-Serif" font-size="10.00">vector &amp; operator=</text>
<text text-anchor="start" x="314" y="-142.25" font-family="Helvetica,sans-Serif" font-size="10.00">(const vector &amp;other)</text>
<text text-anchor="start" x="304" y="-127" font-family="Helvetica,sans-Serif" font-size="10.00">+</text>
<text text-anchor="start" x="314" y="-127" font-family="Helvetica,sans-Serif" font-size="10.00">vector &amp; operator=</text>
<text text-anchor="start" x="314" y="-115.75" font-family="Helvetica,sans-Serif" font-size="10.00">(vector &amp;&amp;other) noexcept</text>
<text text-anchor="start" x="304" y="-100.5" font-family="Helvetica,sans-Serif" font-size="10.00">+</text>
<text text-anchor="start" x="314" y="-100.5" font-family="Helvetica,sans-Serif" font-size="10.00">~vector()</text>
<text text-anchor="start" x="304" y="-85.25" font-family="Helvetica,sans-Serif" font-size="10.00">+</text>
<text text-anchor="start" x="314" y="-85.25" font-family="Helvetica,sans-Serif" font-size="10.00">QTreeWidgetItem *&amp;</text>
<text text-anchor="start" x="314" y="-74" font-family="Helvetica,sans-Serif" font-size="10.00"> operator[](int n)</text>
<text text-anchor="start" x="304" y="-58.75" font-family="Helvetica,sans-Serif" font-size="10.00">+</text>
<text text-anchor="start" x="314" y="-58.75" font-family="Helvetica,sans-Serif" font-size="10.00">const QTreeWidgetItem</text>
<text text-anchor="start" x="314" y="-47.5" font-family="Helvetica,sans-Serif" font-size="10.00"> *&amp; operator[](int n)</text>
<text text-anchor="start" x="314" y="-36.25" font-family="Helvetica,sans-Serif" font-size="10.00"> const</text>
<text text-anchor="start" x="304" y="-21" font-family="Helvetica,sans-Serif" font-size="10.00">+</text>
<text text-anchor="start" x="314" y="-21" font-family="Helvetica,sans-Serif" font-size="10.00">int size() const</text>
<text text-anchor="start" x="314" y="-5.75" font-family="Helvetica,sans-Serif" font-size="10.00">and 10 more...</text>
<polygon fill="#666666" stroke="#666666" points="300,-294.25 300,-294.25 432,-294.25 432,-294.25 300,-294.25"/>
<polygon fill="#666666" stroke="#666666" points="300,-248.5 300,-248.5 312,-248.5 312,-248.5 300,-248.5"/>
<polygon fill="#666666" stroke="#666666" points="312,-248.5 312,-248.5 432,-248.5 432,-248.5 312,-248.5"/>
<polygon fill="none" stroke="#666666" points="300,0 300,-322.75 432,-322.75 432,0 300,0"/>
</a>
</g>
</g>
<!-- Node1&#45;&gt;Node4 -->
<g id="edge3_Node000001_Node000004" class="edge">
<title>Node1&#45;&gt;Node4</title>
<g id="a_edge3_Node000001_Node000004"><a xlink:title=" ">
<path fill="none" stroke="orange" d="M323.97,-359.13C326.56,-347.04 329.16,-334.82 331.75,-322.7"/>
<polygon fill="orange" stroke="orange" points="320.6,-358.19 321.93,-368.7 327.44,-359.65 320.6,-358.19"/>
</a>
</g>
<text text-anchor="middle" x="378.75" y="-342.5" font-family="Helvetica,sans-Serif" font-size="10.00" fill="grey"> &lt; QTreeWidgetItem * &gt;</text>
</g>
<!-- Node5 -->
<g id="Node000005" class="node">
<title>Node5</title>
<g id="a_Node000005"><a xlink:href="../../db/d35/classalpha_1_1vector.html" target="_top" xlink:title=" ">
<polygon fill="white" stroke="none" points="596,-311.5 450,-311.5 450,-11.25 596,-11.25 596,-311.5"/>
<text text-anchor="start" x="454" y="-298" font-family="Helvetica,sans-Serif" font-size="10.00">alpha::vector&lt; UserAccount * &gt;</text>
<text text-anchor="start" x="459" y="-282.75" font-family="Helvetica,sans-Serif" font-size="10.00">&#45;</text>
<text text-anchor="start" x="471" y="-282.75" font-family="Helvetica,sans-Serif" font-size="10.00">int size_v</text>
<text text-anchor="start" x="459" y="-267.5" font-family="Helvetica,sans-Serif" font-size="10.00">&#45;</text>
<text text-anchor="start" x="471" y="-267.5" font-family="Helvetica,sans-Serif" font-size="10.00">UserAccount ** elem</text>
<text text-anchor="start" x="459" y="-252.25" font-family="Helvetica,sans-Serif" font-size="10.00">&#45;</text>
<text text-anchor="start" x="471" y="-252.25" font-family="Helvetica,sans-Serif" font-size="10.00">int space</text>
<text text-anchor="start" x="457.5" y="-237" font-family="Helvetica,sans-Serif" font-size="10.00">+</text>
<text text-anchor="start" x="471" y="-237" font-family="Helvetica,sans-Serif" font-size="10.00">vector()</text>
<text text-anchor="start" x="457.5" y="-221.75" font-family="Helvetica,sans-Serif" font-size="10.00">+</text>
<text text-anchor="start" x="471" y="-221.75" font-family="Helvetica,sans-Serif" font-size="10.00">vector(int s)</text>
<text text-anchor="start" x="457.5" y="-206.5" font-family="Helvetica,sans-Serif" font-size="10.00">+</text>
<text text-anchor="start" x="471" y="-206.5" font-family="Helvetica,sans-Serif" font-size="10.00">vector(const vector</text>
<text text-anchor="start" x="471" y="-195.25" font-family="Helvetica,sans-Serif" font-size="10.00"> &amp;other)</text>
<text text-anchor="start" x="457.5" y="-180" font-family="Helvetica,sans-Serif" font-size="10.00">+</text>
<text text-anchor="start" x="471" y="-180" font-family="Helvetica,sans-Serif" font-size="10.00">vector(vector &amp;&amp;other)</text>
<text text-anchor="start" x="471" y="-168.75" font-family="Helvetica,sans-Serif" font-size="10.00"> noexcept</text>
<text text-anchor="start" x="457.5" y="-153.5" font-family="Helvetica,sans-Serif" font-size="10.00">+</text>
<text text-anchor="start" x="471" y="-153.5" font-family="Helvetica,sans-Serif" font-size="10.00">vector &amp; operator=</text>
<text text-anchor="start" x="471" y="-142.25" font-family="Helvetica,sans-Serif" font-size="10.00">(const vector &amp;other)</text>
<text text-anchor="start" x="457.5" y="-127" font-family="Helvetica,sans-Serif" font-size="10.00">+</text>
<text text-anchor="start" x="471" y="-127" font-family="Helvetica,sans-Serif" font-size="10.00">vector &amp; operator=</text>
<text text-anchor="start" x="471" y="-115.75" font-family="Helvetica,sans-Serif" font-size="10.00">(vector &amp;&amp;other) noexcept</text>
<text text-anchor="start" x="457.5" y="-100.5" font-family="Helvetica,sans-Serif" font-size="10.00">+</text>
<text text-anchor="start" x="471" y="-100.5" font-family="Helvetica,sans-Serif" font-size="10.00">~vector()</text>
<text text-anchor="start" x="457.5" y="-85.25" font-family="Helvetica,sans-Serif" font-size="10.00">+</text>
<text text-anchor="start" x="471" y="-85.25" font-family="Helvetica,sans-Serif" font-size="10.00">UserAccount *&amp; operator</text>
<text text-anchor="start" x="471" y="-74" font-family="Helvetica,sans-Serif" font-size="10.00">[](int n)</text>
<text text-anchor="start" x="457.5" y="-58.75" font-family="Helvetica,sans-Serif" font-size="10.00">+</text>
<text text-anchor="start" x="471" y="-58.75" font-family="Helvetica,sans-Serif" font-size="10.00">const UserAccount *&amp;</text>
<text text-anchor="start" x="471" y="-47.5" font-family="Helvetica,sans-Serif" font-size="10.00"> operator[](int n) const</text>
<text text-anchor="start" x="457.5" y="-32.25" font-family="Helvetica,sans-Serif" font-size="10.00">+</text>
<text text-anchor="start" x="471" y="-32.25" font-family="Helvetica,sans-Serif" font-size="10.00">int size() const</text>
<text text-anchor="start" x="471" y="-17" font-family="Helvetica,sans-Serif" font-size="10.00">and 10 more...</text>
<polygon fill="#666666" stroke="#666666" points="450,-294.25 450,-294.25 596,-294.25 596,-294.25 450,-294.25"/>
<polygon fill="#666666" stroke="#666666" points="450,-248.5 450,-248.5 469,-248.5 469,-248.5 450,-248.5"/>
<polygon fill="#666666" stroke="#666666" points="469,-248.5 469,-248.5 596,-248.5 596,-248.5 469,-248.5"/>
<polygon fill="none" stroke="#666666" points="450,-11.25 450,-311.5 596,-311.5 596,-11.25 450,-11.25"/>
</a>
</g>
</g>
<!-- Node1&#45;&gt;Node5 -->
<g id="edge4_Node000001_Node000005" class="edge">
<title>Node1&#45;&gt;Node5</title>
<g id="a_edge4_Node000001_Node000005"><a xlink:title=" ">
<path fill="none" stroke="orange" d="M364.48,-440.33C388.76,-413.87 414.71,-382.88 435,-352 443.47,-339.11 451.55,-325.27 459.14,-311.16"/>
<polygon fill="orange" stroke="orange" points="361.93,-437.93 357.7,-447.64 367.07,-442.69 361.93,-437.93"/>
</a>
</g>
<text text-anchor="middle" x="483.43" y="-342.5" font-family="Helvetica,sans-Serif" font-size="10.00" fill="grey"> &lt; UserAccount * &gt;</text>
</g>
</g>
</svg>
