<?xml version="1.0" encoding="UTF-8" standalone="no"?>
<!DOCTYPE svg PUBLIC "-//W3C//DTD SVG 1.1//EN"
 "http://www.w3.org/Graphics/SVG/1.1/DTD/svg11.dtd">
<!-- Generated by graphviz version 12.2.1 (20241206.2353)
 -->
<!-- Title: /Users/gautam/Local/Forge/Team&#45;Alphawolves/2D&#45;Graphics&#45;Modeler/src/frontend/renderarea.h Pages: 1 -->
<!--zoomable 328 -->

<svg id="main" version="1.1" xmlns="http://www.w3.org/2000/svg" xmlns:xlink="http://www.w3.org/1999/xlink" xml:space="preserve" onload="init(evt)">

<style type="text/css"><![CDATA[
.node, .edge {opacity: 0.7;}
.node.selected, .edge.selected {opacity: 1;}
.edge:hover path { stroke: red; }
.edge:hover polygon { stroke: red; fill: red; }
]]></style>

<defs>
  <circle id="rim" cx="0" cy="0" r="7"/>
  <circle id="rim2" cx="0" cy="0" r="3.5"/>
  <g id="zoomPlus">
    <use xlink:href="#rim" fill="#404040"><set attributeName="fill" to="#808080" begin="zoomplus.mouseover" end="zoomplus.mouseout"/></use>
    <path d="M-4,0h8M0,-4v8" fill="none" stroke="white" stroke-width="1.5" pointer-events="none"/>
  </g>
  <g id="zoomMin">
    <use xlink:href="#rim" fill="#404040"><set attributeName="fill" to="#808080" begin="zoomminus.mouseover" end="zoomminus.mouseout"/></use>
    <path d="M-4,0h8" fill="none" stroke="white" stroke-width="1.5" pointer-events="none"/>
  </g>
  <g id="arrowUp" transform="translate(30 24)">
    <use xlink:href="#rim"/>
    <path pointer-events="none" fill="none" stroke="white" stroke-width="1.5" d="M0,-3.0v7 M-2.5,-0.5L0,-3.0L2.5,-0.5"/>
  </g>
  <g id="arrowRight" transform="rotate(90) translate(36 -43)">
    <use xlink:href="#rim"/>
    <path pointer-events="none" fill="none" stroke="white" stroke-width="1.5" d="M0,-3.0v7 M-2.5,-0.5L0,-3.0L2.5,-0.5"/>
  </g>
  <g id="arrowDown" transform="rotate(180) translate(-30 -48)">
    <use xlink:href="#rim"/>
    <path pointer-events="none" fill="none" stroke="white" stroke-width="1.5" d="M0,-3.0v7 M-2.5,-0.5L0,-3.0L2.5,-0.5"/>
  </g>
  <g id="arrowLeft" transform="rotate(270) translate(-36 17)">
    <use xlink:href="#rim"/>
    <path pointer-events="none" fill="none" stroke="white" stroke-width="1.5" d="M0,-3.0v7 M-2.5,-0.5L0,-3.0L2.5,-0.5"/>
  </g>
  <g id="resetDef">
    <use xlink:href="#rim2" fill="#404040"><set attributeName="fill" to="#808080" begin="reset.mouseover" end="reset.mouseout"/></use>
  </g>
</defs>
<script type="application/ecmascript">
var viewWidth = 524;
var viewHeight = 328;
var sectionId = 'dynsection-1';
</script>
<script type="application/ecmascript" xlink:href="../../svg.min.js"/>
<svg id="graph" class="graph">
<g id="viewport">
<title>/Users/gautam/Local/Forge/Team&#45;Alphawolves/2D&#45;Graphics&#45;Modeler/src/frontend/renderarea.h</title>
<!-- Node1 -->
<g id="Node000001" class="node">
<title>Node1</title>
<g id="a_Node000001"><a xlink:title="Defines the RenderArea class, a custom QWidget for drawing and interacting with 2D shapes.">
<polygon fill="#999999" stroke="#666666" points="369.25,-320 240,-320 240,-267 369.25,-267 369.25,-320"/>
<text text-anchor="start" x="248" y="-306.5" font-family="Helvetica,sans-Serif" font-size="10.00">/Users/gautam/Local</text>
<text text-anchor="start" x="248" y="-295.25" font-family="Helvetica,sans-Serif" font-size="10.00">/Forge/Team&#45;Alphawolves</text>
<text text-anchor="start" x="248" y="-284" font-family="Helvetica,sans-Serif" font-size="10.00">/2D&#45;Graphics&#45;Modeler/src</text>
<text text-anchor="middle" x="304.62" y="-272.75" font-family="Helvetica,sans-Serif" font-size="10.00">/frontend/renderarea.h</text>
</a>
</g>
</g>
<!-- Node2 -->
<g id="Node000002" class="node">
<title>Node2</title>
<g id="a_Node000002"><a xlink:href="../../dc/dbb/_app_driver_8h.html" target="_top" xlink:title=" ">
<polygon fill="white" stroke="#666666" points="276.25,-142 147,-142 147,-89 276.25,-89 276.25,-142"/>
<text text-anchor="start" x="155" y="-128.5" font-family="Helvetica,sans-Serif" font-size="10.00">/Users/gautam/Local</text>
<text text-anchor="start" x="155" y="-117.25" font-family="Helvetica,sans-Serif" font-size="10.00">/Forge/Team&#45;Alphawolves</text>
<text text-anchor="start" x="155" y="-106" font-family="Helvetica,sans-Serif" font-size="10.00">/2D&#45;Graphics&#45;Modeler/src</text>
<text text-anchor="middle" x="211.62" y="-94.75" font-family="Helvetica,sans-Serif" font-size="10.00">/backend/AppDriver.h</text>
</a>
</g>
</g>
<!-- Node1&#45;&gt;Node2 -->
<g id="edge1_Node000001_Node000002" class="edge">
<title>Node1&#45;&gt;Node2</title>
<g id="a_edge1_Node000001_Node000002"><a xlink:title=" ">
<path fill="none" stroke="#63b8ff" d="M254.74,-259.53C245.44,-251.25 236.74,-241.65 230.62,-231 214.88,-203.56 211.3,-166.71 210.89,-142.32"/>
<polygon fill="#63b8ff" stroke="#63b8ff" points="252.31,-262.07 262.23,-265.79 256.8,-256.69 252.31,-262.07"/>
</a>
</g>
</g>
<!-- Node6 -->
<g id="Node000006" class="node">
<title>Node6</title>
<g id="a_Node000006"><a xlink:href="../../d9/d53/mainwindow_8h.html" target="_top" xlink:title=" ">
<polygon fill="white" stroke="#666666" points="369.25,-231 240,-231 240,-178 369.25,-178 369.25,-231"/>
<text text-anchor="start" x="248" y="-217.5" font-family="Helvetica,sans-Serif" font-size="10.00">/Users/gautam/Local</text>
<text text-anchor="start" x="248" y="-206.25" font-family="Helvetica,sans-Serif" font-size="10.00">/Forge/Team&#45;Alphawolves</text>
<text text-anchor="start" x="248" y="-195" font-family="Helvetica,sans-Serif" font-size="10.00">/2D&#45;Graphics&#45;Modeler/src</text>
<text text-anchor="middle" x="304.62" y="-183.75" font-family="Helvetica,sans-Serif" font-size="10.00">/frontend/mainwindow.h</text>
</a>
</g>
</g>
<!-- Node1&#45;&gt;Node6 -->
<g id="edge5_Node000001_Node000006" class="edge">
<title>Node1&#45;&gt;Node6</title>
<g id="a_edge5_Node000001_Node000006"><a xlink:title=" ">
<path fill="none" stroke="#63b8ff" d="M304.62,-255.61C304.62,-247.41 304.62,-238.89 304.62,-231.25"/>
<polygon fill="#63b8ff" stroke="#63b8ff" points="301.13,-255.35 304.63,-265.35 308.13,-255.35 301.13,-255.35"/>
</a>
</g>
</g>
<!-- Node8 -->
<g id="Node000008" class="node">
<title>Node8</title>
<g id="a_Node000008"><a xlink:href="../../df/daa/renderarea_8cpp.html" target="_top" xlink:title=" ">
<polygon fill="white" stroke="#666666" points="516.25,-231 387,-231 387,-178 516.25,-178 516.25,-231"/>
<text text-anchor="start" x="395" y="-217.5" font-family="Helvetica,sans-Serif" font-size="10.00">/Users/gautam/Local</text>
<text text-anchor="start" x="395" y="-206.25" font-family="Helvetica,sans-Serif" font-size="10.00">/Forge/Team&#45;Alphawolves</text>
<text text-anchor="start" x="395" y="-195" font-family="Helvetica,sans-Serif" font-size="10.00">/2D&#45;Graphics&#45;Modeler/src</text>
<text text-anchor="middle" x="451.62" y="-183.75" font-family="Helvetica,sans-Serif" font-size="10.00">/frontend/renderarea.cpp</text>
</a>
</g>
</g>
<!-- Node1&#45;&gt;Node8 -->
<g id="edge8_Node000001_Node000008" class="edge">
<title>Node1&#45;&gt;Node8</title>
<g id="a_edge8_Node000001_Node000008"><a xlink:title=" ">
<path fill="none" stroke="#63b8ff" d="M357.8,-261.03C374.23,-251.31 392.12,-240.72 407.83,-231.42"/>
<polygon fill="#63b8ff" stroke="#63b8ff" points="356.46,-257.76 349.63,-265.86 360.02,-263.78 356.46,-257.76"/>
</a>
</g>
</g>
<!-- Node3 -->
<g id="Node000003" class="node">
<title>Node3</title>
<g id="a_Node000003"><a xlink:href="../../dc/df3/_app_driver_8cpp.html" target="_top" xlink:title=" ">
<polygon fill="white" stroke="#666666" points="129.25,-53 0,-53 0,0 129.25,0 129.25,-53"/>
<text text-anchor="start" x="8" y="-39.5" font-family="Helvetica,sans-Serif" font-size="10.00">/Users/gautam/Local</text>
<text text-anchor="start" x="8" y="-28.25" font-family="Helvetica,sans-Serif" font-size="10.00">/Forge/Team&#45;Alphawolves</text>
<text text-anchor="start" x="8" y="-17" font-family="Helvetica,sans-Serif" font-size="10.00">/2D&#45;Graphics&#45;Modeler/src</text>
<text text-anchor="middle" x="64.62" y="-5.75" font-family="Helvetica,sans-Serif" font-size="10.00">/backend/AppDriver.cpp</text>
</a>
</g>
</g>
<!-- Node2&#45;&gt;Node3 -->
<g id="edge2_Node000002_Node000003" class="edge">
<title>Node2&#45;&gt;Node3</title>
<g id="a_edge2_Node000002_Node000003"><a xlink:title=" ">
<path fill="none" stroke="#63b8ff" d="M158.45,-83.03C142.02,-73.31 124.13,-62.72 108.42,-53.42"/>
<polygon fill="#63b8ff" stroke="#63b8ff" points="156.23,-85.78 166.62,-87.86 159.79,-79.76 156.23,-85.78"/>
</a>
</g>
</g>
<!-- Node4 -->
<g id="Node000004" class="node">
<title>Node4</title>
<g id="a_Node000004"><a xlink:href="../../d8/d80/src_2backend_2main_8cpp.html" target="_top" xlink:title=" ">
<polygon fill="white" stroke="#666666" points="276.25,-53 147,-53 147,0 276.25,0 276.25,-53"/>
<text text-anchor="start" x="155" y="-39.5" font-family="Helvetica,sans-Serif" font-size="10.00">/Users/gautam/Local</text>
<text text-anchor="start" x="155" y="-28.25" font-family="Helvetica,sans-Serif" font-size="10.00">/Forge/Team&#45;Alphawolves</text>
<text text-anchor="start" x="155" y="-17" font-family="Helvetica,sans-Serif" font-size="10.00">/2D&#45;Graphics&#45;Modeler/src</text>
<text text-anchor="middle" x="211.62" y="-5.75" font-family="Helvetica,sans-Serif" font-size="10.00">/backend/main.cpp</text>
</a>
</g>
</g>
<!-- Node2&#45;&gt;Node4 -->
<g id="edge3_Node000002_Node000004" class="edge">
<title>Node2&#45;&gt;Node4</title>
<g id="a_edge3_Node000002_Node000004"><a xlink:title=" ">
<path fill="none" stroke="#63b8ff" d="M211.62,-77.61C211.62,-69.41 211.62,-60.89 211.62,-53.25"/>
<polygon fill="#63b8ff" stroke="#63b8ff" points="208.13,-77.35 211.63,-87.35 215.13,-77.35 208.13,-77.35"/>
</a>
</g>
</g>
<!-- Node5 -->
<g id="Node000005" class="node">
<title>Node5</title>
<g id="a_Node000005"><a xlink:href="../../d2/d21/src_2frontend_2main_8cpp.html" target="_top" xlink:title="Main entry point for the 2D Graphics Modeler application.">
<polygon fill="white" stroke="#666666" points="423.25,-53 294,-53 294,0 423.25,0 423.25,-53"/>
<text text-anchor="start" x="302" y="-39.5" font-family="Helvetica,sans-Serif" font-size="10.00">/Users/gautam/Local</text>
<text text-anchor="start" x="302" y="-28.25" font-family="Helvetica,sans-Serif" font-size="10.00">/Forge/Team&#45;Alphawolves</text>
<text text-anchor="start" x="302" y="-17" font-family="Helvetica,sans-Serif" font-size="10.00">/2D&#45;Graphics&#45;Modeler/src</text>
<text text-anchor="middle" x="358.62" y="-5.75" font-family="Helvetica,sans-Serif" font-size="10.00">/frontend/main.cpp</text>
</a>
</g>
</g>
<!-- Node2&#45;&gt;Node5 -->
<g id="edge4_Node000002_Node000005" class="edge">
<title>Node2&#45;&gt;Node5</title>
<g id="a_edge4_Node000002_Node000005"><a xlink:title=" ">
<path fill="none" stroke="#63b8ff" d="M264.8,-83.03C281.23,-73.31 299.12,-62.72 314.83,-53.42"/>
<polygon fill="#63b8ff" stroke="#63b8ff" points="263.46,-79.76 256.63,-87.86 267.02,-85.78 263.46,-79.76"/>
</a>
</g>
</g>
<!-- Node6&#45;&gt;Node2 -->
<g id="edge6_Node000006_Node000002" class="edge">
<title>Node6&#45;&gt;Node2</title>
<g id="a_edge6_Node000006_Node000002"><a xlink:title=" ">
<path fill="none" stroke="#63b8ff" d="M268.64,-169.83C258.91,-160.73 248.53,-151.02 239.33,-142.42"/>
<polygon fill="#63b8ff" stroke="#63b8ff" points="266.17,-172.32 275.87,-176.6 270.96,-167.21 266.17,-172.32"/>
</a>
</g>
</g>
<!-- Node7 -->
<g id="Node000007" class="node">
<title>Node7</title>
<g id="a_Node000007"><a xlink:href="../../d8/dd9/mainwindow_8cpp.html" target="_top" xlink:title=" ">
<polygon fill="white" stroke="#666666" points="423.25,-142 294,-142 294,-89 423.25,-89 423.25,-142"/>
<text text-anchor="start" x="302" y="-128.5" font-family="Helvetica,sans-Serif" font-size="10.00">/Users/gautam/Local</text>
<text text-anchor="start" x="302" y="-117.25" font-family="Helvetica,sans-Serif" font-size="10.00">/Forge/Team&#45;Alphawolves</text>
<text text-anchor="start" x="302" y="-106" font-family="Helvetica,sans-Serif" font-size="10.00">/2D&#45;Graphics&#45;Modeler/src</text>
<text text-anchor="middle" x="358.62" y="-94.75" font-family="Helvetica,sans-Serif" font-size="10.00">/frontend/mainwindow.cpp</text>
</a>
</g>
</g>
<!-- Node6&#45;&gt;Node7 -->
<g id="edge7_Node000006_Node000007" class="edge">
<title>Node6&#45;&gt;Node7</title>
<g id="a_edge7_Node000006_Node000007"><a xlink:title=" ">
<path fill="none" stroke="#63b8ff" d="M326.47,-168.3C331.88,-159.59 337.57,-150.42 342.64,-142.25"/>
<polygon fill="#63b8ff" stroke="#63b8ff" points="323.63,-166.24 321.33,-176.58 329.58,-169.93 323.63,-166.24"/>
</a>
</g>
</g>
</g>
</svg>

<g id="navigator" transform="translate(0 0)" fill="#404254">
  <rect fill="#f2f5e9" fill-opacity="0.5" stroke="#606060" stroke-width=".5" x="0" y="0" width="60" height="60"/>
  <use id="zoomplus" xlink:href="#zoomPlus" x="17" y="9" onmousedown="handleZoom(evt,'in')"/>
  <use id="zoomminus" xlink:href="#zoomMin" x="42" y="9" onmousedown="handleZoom(evt,'out')"/>
  <use id="reset" xlink:href="#resetDef" x="30" y="36" onmousedown="handleReset()"/>
   <use id="arrowup" xlink:href="#arrowUp" x="0" y="0" onmousedown="handlePan(0,-1)"/>
  <use id="arrowright" xlink:href="#arrowRight" x="0" y="0" onmousedown="handlePan(1,0)"/>
  <use id="arrowdown" xlink:href="#arrowDown" x="0" y="0" onmousedown="handlePan(0,1)"/>
  <use id="arrowleft" xlink:href="#arrowLeft" x="0" y="0" onmousedown="handlePan(-1,0)"/>
</g>
<svg viewBox="0 0 15 15" width="100%" height="30px" preserveAspectRatio="xMaxYMin meet">
 <g id="arrow_out" transform="scale(0.3 0.3)">
  <a xlink:href="renderarea_8h__dep__incl_org.svg" target="_base">
   <rect id="button" ry="5" rx="5" y="6" x="6" height="38" width="38"
        fill="#f2f5e9" fill-opacity="0.5" stroke="#606060" stroke-width="1.0"/>
   <path id="arrow"
     d="M 11.500037,31.436501 C 11.940474,20.09759 22.043105,11.32322 32.158766,21.979434 L 37.068811,17.246167 C 37.068811,17.246167 37.088388,32 37.088388,32 L 22.160133,31.978069 C 22.160133,31.978069 26.997745,27.140456 26.997745,27.140456 C 18.528582,18.264221 13.291696,25.230495 11.500037,31.436501 z"
     style="fill:#404040;"/>
  </a>
 </g>
</svg>

<style type='text/css'>
<![CDATA[
[data-mouse-over-selected='false'] { opacity: 0.7; }
[data-mouse-over-selected='true']  { opacity: 1.0; }
]]>
</style>
<script type="application/ecmascript"><![CDATA[
document.addEventListener('DOMContentLoaded', (event) => {
  highlightEdges();
  highlightAdjacentNodes();
});
]]></script>
</svg>
