<?xml version="1.0" encoding="UTF-8" standalone="no"?>
<!DOCTYPE svg PUBLIC "-//W3C//DTD SVG 1.1//EN"
 "http://www.w3.org/Graphics/SVG/1.1/DTD/svg11.dtd">
<!-- Generated by graphviz version 12.2.1 (20241206.2353)
 -->
<!-- Title: alpha::vector::vector Pages: 1 -->
<svg width="269pt" height="138pt"
 viewBox="0.00 0.00 268.75 138.25" xmlns="http://www.w3.org/2000/svg" xmlns:xlink="http://www.w3.org/1999/xlink">

<svg id="main" version="1.1" xmlns="http://www.w3.org/2000/svg" xmlns:xlink="http://www.w3.org/1999/xlink" xml:space="preserve">

<style type="text/css"><![CDATA[
.node, .edge {opacity: 0.7;}
.node.selected, .edge.selected {opacity: 1;}
.edge:hover path { stroke: red; }
.edge:hover polygon { stroke: red; fill: red; }
]]></style>
<script type="application/ecmascript" xlink:href="../../svg.min.js"/>
<svg id="graph" class="graph">
<g id="graph0" class="graph" transform="scale(1 1) rotate(0) translate(4 134.25)">
<title>alpha::vector::vector</title>
<!-- Node1 -->
<g id="Node000001" class="node">
<title>Node1</title>
<g id="a_Node000001"><a xlink:title=" ">
<polygon fill="#999999" stroke="#666666" points="260.75,-74.25 155.5,-74.25 155.5,-55 260.75,-55 260.75,-74.25"/>
<text text-anchor="middle" x="208.12" y="-60.75" font-family="Helvetica,sans-Serif" font-size="10.00">alpha::vector::vector</text>
</a>
</g>
</g>
<!-- Node2 -->
<g id="Node000002" class="node">
<title>Node2</title>
<g id="a_Node000002"><a xlink:href="../../db/d35/classalpha_1_1vector.html#a9778c1d66638e03527c6b40197ddd6a3" target="_top" xlink:title=" ">
<polygon fill="white" stroke="#666666" points="119.5,-130.25 0,-130.25 0,-111 119.5,-111 119.5,-130.25"/>
<text text-anchor="middle" x="59.75" y="-116.75" font-family="Helvetica,sans-Serif" font-size="10.00">alpha::vector::operator=</text>
</a>
</g>
</g>
<!-- Node1&#45;&gt;Node2 -->
<g id="edge1_Node000001_Node000002" class="edge">
<title>Node1&#45;&gt;Node2</title>
<g id="a_edge1_Node000001_Node000002"><a xlink:title=" ">
<path fill="none" stroke="#63b8ff" d="M175.59,-79.32C159.07,-86.76 138.39,-95.66 119.5,-102.62 111.99,-105.39 103.84,-108.08 96.07,-110.51"/>
<polygon fill="#63b8ff" stroke="#63b8ff" points="176.76,-82.63 184.41,-75.3 173.86,-76.26 176.76,-82.63"/>
</a>
</g>
</g>
<!-- Node3 -->
<g id="Node000003" class="node">
<title>Node3</title>
<g id="a_Node000003"><a xlink:href="../../db/d35/classalpha_1_1vector.html#a51b44c5dc5832b3079b19d27fb815ca2" target="_top" xlink:title=" ">
<polygon fill="white" stroke="#666666" points="119.5,-93.25 0,-93.25 0,-74 119.5,-74 119.5,-93.25"/>
<text text-anchor="middle" x="59.75" y="-79.75" font-family="Helvetica,sans-Serif" font-size="10.00">alpha::vector::operator=</text>
</a>
</g>
</g>
<!-- Node1&#45;&gt;Node3 -->
<g id="edge2_Node000001_Node000003" class="edge">
<title>Node1&#45;&gt;Node3</title>
<g id="a_edge2_Node000001_Node000003"><a xlink:title=" ">
<path fill="none" stroke="#63b8ff" d="M143.94,-72.83C135.94,-73.87 127.77,-74.93 119.83,-75.96"/>
<polygon fill="#63b8ff" stroke="#63b8ff" points="144.14,-76.33 153.61,-71.57 143.24,-69.39 144.14,-76.33"/>
</a>
</g>
</g>
<!-- Node4 -->
<g id="Node000004" class="node">
<title>Node4</title>
<g id="a_Node000004"><a xlink:href="../../db/d35/classalpha_1_1vector.html#acdbca32a43520b18ee06124a189a8144" target="_top" xlink:title=" ">
<polygon fill="white" stroke="#666666" points="112.38,-56.25 7.12,-56.25 7.12,-37 112.38,-37 112.38,-56.25"/>
<text text-anchor="middle" x="59.75" y="-42.75" font-family="Helvetica,sans-Serif" font-size="10.00">alpha::vector::vector</text>
</a>
</g>
</g>
<!-- Node1&#45;&gt;Node4 -->
<g id="edge3_Node000001_Node000004" class="edge">
<title>Node1&#45;&gt;Node4</title>
<g id="a_edge3_Node000001_Node000004"><a xlink:title=" ">
<path fill="none" stroke="#63b8ff" d="M143.91,-56.85C133.46,-55.57 122.73,-54.25 112.6,-53"/>
<polygon fill="#63b8ff" stroke="#63b8ff" points="143.25,-60.3 153.6,-58.04 144.11,-53.35 143.25,-60.3"/>
</a>
</g>
</g>
<!-- Node5 -->
<g id="Node000005" class="node">
<title>Node5</title>
<g id="a_Node000005"><a xlink:href="../../db/d35/classalpha_1_1vector.html#a2828dcd0e52f5488d0311265c03e9d3e" target="_top" xlink:title=" ">
<polygon fill="white" stroke="#666666" points="112.38,-19.25 7.12,-19.25 7.12,0 112.38,0 112.38,-19.25"/>
<text text-anchor="middle" x="59.75" y="-5.75" font-family="Helvetica,sans-Serif" font-size="10.00">alpha::vector::vector</text>
</a>
</g>
</g>
<!-- Node1&#45;&gt;Node5 -->
<g id="edge4_Node000001_Node000005" class="edge">
<title>Node1&#45;&gt;Node5</title>
<g id="a_edge4_Node000001_Node000005"><a xlink:title=" ">
<path fill="none" stroke="#63b8ff" d="M174.88,-50.08C158.46,-42.91 138.09,-34.38 119.5,-27.62 111.88,-24.86 103.61,-22.15 95.74,-19.7"/>
<polygon fill="#63b8ff" stroke="#63b8ff" points="173.1,-53.12 183.66,-53.95 175.92,-46.71 173.1,-53.12"/>
</a>
</g>
</g>
</g>
</svg>
</svg>

<style type='text/css'>
<![CDATA[
[data-mouse-over-selected='false'] { opacity: 0.7; }
[data-mouse-over-selected='true']  { opacity: 1.0; }
]]>
</style>
<script type="application/ecmascript"><![CDATA[
document.addEventListener('DOMContentLoaded', (event) => {
  highlightEdges();
  highlightAdjacentNodes();
});
]]></script>
</svg>
