<?xml version="1.0" encoding="UTF-8" standalone="no"?>
<!DOCTYPE svg PUBLIC "-//W3C//DTD SVG 1.1//EN"
 "http://www.w3.org/Graphics/SVG/1.1/DTD/svg11.dtd">
<!-- Generated by graphviz version 12.2.1 (20241206.2353)
 -->
<!-- Title: alpha::vector::reserve Pages: 1 -->
<!--zoomable 217 -->

<svg id="main" version="1.1" xmlns="http://www.w3.org/2000/svg" xmlns:xlink="http://www.w3.org/1999/xlink" xml:space="preserve" onload="init(evt)">

<style type="text/css"><![CDATA[
.node, .edge {opacity: 0.7;}
.node.selected, .edge.selected {opacity: 1;}
.edge:hover path { stroke: red; }
.edge:hover polygon { stroke: red; fill: red; }
]]></style>

<defs>
  <circle id="rim" cx="0" cy="0" r="7"/>
  <circle id="rim2" cx="0" cy="0" r="3.5"/>
  <g id="zoomPlus">
    <use xlink:href="#rim" fill="#404040"><set attributeName="fill" to="#808080" begin="zoomplus.mouseover" end="zoomplus.mouseout"/></use>
    <path d="M-4,0h8M0,-4v8" fill="none" stroke="white" stroke-width="1.5" pointer-events="none"/>
  </g>
  <g id="zoomMin">
    <use xlink:href="#rim" fill="#404040"><set attributeName="fill" to="#808080" begin="zoomminus.mouseover" end="zoomminus.mouseout"/></use>
    <path d="M-4,0h8" fill="none" stroke="white" stroke-width="1.5" pointer-events="none"/>
  </g>
  <g id="arrowUp" transform="translate(30 24)">
    <use xlink:href="#rim"/>
    <path pointer-events="none" fill="none" stroke="white" stroke-width="1.5" d="M0,-3.0v7 M-2.5,-0.5L0,-3.0L2.5,-0.5"/>
  </g>
  <g id="arrowRight" transform="rotate(90) translate(36 -43)">
    <use xlink:href="#rim"/>
    <path pointer-events="none" fill="none" stroke="white" stroke-width="1.5" d="M0,-3.0v7 M-2.5,-0.5L0,-3.0L2.5,-0.5"/>
  </g>
  <g id="arrowDown" transform="rotate(180) translate(-30 -48)">
    <use xlink:href="#rim"/>
    <path pointer-events="none" fill="none" stroke="white" stroke-width="1.5" d="M0,-3.0v7 M-2.5,-0.5L0,-3.0L2.5,-0.5"/>
  </g>
  <g id="arrowLeft" transform="rotate(270) translate(-36 17)">
    <use xlink:href="#rim"/>
    <path pointer-events="none" fill="none" stroke="white" stroke-width="1.5" d="M0,-3.0v7 M-2.5,-0.5L0,-3.0L2.5,-0.5"/>
  </g>
  <g id="resetDef">
    <use xlink:href="#rim2" fill="#404040"><set attributeName="fill" to="#808080" begin="reset.mouseover" end="reset.mouseout"/></use>
  </g>
</defs>
<script type="application/ecmascript">
var viewWidth = 1009;
var viewHeight = 217;
var sectionId = 'dynsection-12';
</script>
<script type="application/ecmascript" xlink:href="../../svg.min.js"/>
<svg id="graph" class="graph">
<g id="viewport">
<title>alpha::vector::reserve</title>
<!-- Node1 -->
<g id="Node000001" class="node">
<title>Node1</title>
<g id="a_Node000001"><a xlink:title=" ">
<polygon fill="#999999" stroke="#666666" points="1001.25,-110.88 890.75,-110.88 890.75,-91.62 1001.25,-91.62 1001.25,-110.88"/>
<text text-anchor="middle" x="946" y="-97.38" font-family="Helvetica,sans-Serif" font-size="10.00">alpha::vector::reserve</text>
</a>
</g>
</g>
<!-- Node2 -->
<g id="Node000002" class="node">
<title>Node2</title>
<g id="a_Node000002"><a xlink:href="../../db/d35/classalpha_1_1vector.html#a227cc7dc4cc72af0a487e20597954b67" target="_top" xlink:title=" ">
<polygon fill="white" stroke="#666666" points="843.12,-147.88 740.88,-147.88 740.88,-128.62 843.12,-128.62 843.12,-147.88"/>
<text text-anchor="middle" x="792" y="-134.38" font-family="Helvetica,sans-Serif" font-size="10.00">alpha::vector::insert</text>
</a>
</g>
</g>
<!-- Node1&#45;&gt;Node2 -->
<g id="edge1_Node000001_Node000002" class="edge">
<title>Node1&#45;&gt;Node2</title>
<g id="a_edge1_Node000001_Node000002"><a xlink:title=" ">
<path fill="none" stroke="#63b8ff" d="M892.31,-114.08C873.38,-118.68 852.32,-123.81 834.48,-128.15"/>
<polygon fill="#63b8ff" stroke="#63b8ff" points="893.11,-117.48 901.99,-111.72 891.45,-110.68 893.11,-117.48"/>
</a>
</g>
</g>
<!-- Node3 -->
<g id="Node000003" class="node">
<title>Node3</title>
<g id="a_Node000003"><a xlink:href="../../db/d35/classalpha_1_1vector.html#a8305c181181e4739a1c5f29cf3a2c144" target="_top" xlink:title=" ">
<polygon fill="white" stroke="#666666" points="854.75,-110.88 729.25,-110.88 729.25,-91.62 854.75,-91.62 854.75,-110.88"/>
<text text-anchor="middle" x="792" y="-97.38" font-family="Helvetica,sans-Serif" font-size="10.00">alpha::vector::push_back</text>
</a>
</g>
</g>
<!-- Node1&#45;&gt;Node3 -->
<g id="edge2_Node000001_Node000003" class="edge">
<title>Node1&#45;&gt;Node3</title>
<g id="a_edge2_Node000001_Node000003"><a xlink:title=" ">
<path fill="none" stroke="#63b8ff" d="M879.04,-101.25C871.09,-101.25 862.98,-101.25 855.08,-101.25"/>
<polygon fill="#63b8ff" stroke="#63b8ff" points="879.04,-104.75 889.04,-101.25 879.04,-97.75 879.04,-104.75"/>
</a>
</g>
</g>
<!-- Node14 -->
<g id="Node000014" class="node">
<title>Node14</title>
<g id="a_Node000014"><a xlink:href="../../db/d35/classalpha_1_1vector.html#aafbc8044c15d29161e5458aafcf572e2" target="_top" xlink:title=" ">
<polygon fill="white" stroke="#666666" points="844.25,-73.88 739.75,-73.88 739.75,-54.62 844.25,-54.62 844.25,-73.88"/>
<text text-anchor="middle" x="792" y="-60.38" font-family="Helvetica,sans-Serif" font-size="10.00">alpha::vector::resize</text>
</a>
</g>
</g>
<!-- Node1&#45;&gt;Node14 -->
<g id="edge14_Node000001_Node000014" class="edge">
<title>Node1&#45;&gt;Node14</title>
<g id="a_edge14_Node000001_Node000014"><a xlink:title=" ">
<path fill="none" stroke="#63b8ff" d="M892.31,-88.42C873.38,-83.82 852.32,-78.69 834.48,-74.35"/>
<polygon fill="#63b8ff" stroke="#63b8ff" points="891.45,-91.82 901.99,-90.78 893.11,-85.02 891.45,-91.82"/>
</a>
</g>
</g>
<!-- Node4 -->
<g id="Node000004" class="node">
<title>Node4</title>
<g id="a_Node000004"><a xlink:href="../../dc/db7/class_parser.html#a9c4bd21d0d23be70682e026d6e702ec9" target="_top" xlink:title="Converts a JSON string representation into a vector of Shape objects.">
<polygon fill="white" stroke="#666666" points="115,-131.88 0,-131.88 0,-112.62 115,-112.62 115,-131.88"/>
<text text-anchor="middle" x="57.5" y="-118.38" font-family="Helvetica,sans-Serif" font-size="10.00">Parser::JsonToShapes</text>
</a>
</g>
</g>
<!-- Node3&#45;&gt;Node4 -->
<g id="edge3_Node000003_Node000004" class="edge">
<title>Node3&#45;&gt;Node4</title>
<g id="a_edge3_Node000003_Node000004"><a xlink:title=" ">
<path fill="none" stroke="#63b8ff" d="M734.33,-116.2C732.58,-117.15 730.88,-118.17 729.25,-119.25 708.18,-133.19 716.08,-152.43 693.25,-163.25 477.45,-265.51 173.3,-165.75 84.05,-132.31"/>
<polygon fill="#63b8ff" stroke="#63b8ff" points="735.8,-119.37 743.39,-111.99 732.85,-113.03 735.8,-119.37"/>
</a>
</g>
</g>
<!-- Node5 -->
<g id="Node000005" class="node">
<title>Node5</title>
<g id="a_Node000005"><a xlink:href="../../dc/db7/class_parser.html#a7e0c6d8559fd28407b48e9eef05496d8" target="_top" xlink:title="Converts a JSON string representation into a vector of UserAccount objects.">
<polygon fill="white" stroke="#666666" points="665.5,-153.88 557.25,-153.88 557.25,-134.62 665.5,-134.62 665.5,-153.88"/>
<text text-anchor="middle" x="611.38" y="-140.38" font-family="Helvetica,sans-Serif" font-size="10.00">Parser::JsonToUsers</text>
</a>
</g>
</g>
<!-- Node3&#45;&gt;Node5 -->
<g id="edge4_Node000003_Node000005" class="edge">
<title>Node3&#45;&gt;Node5</title>
<g id="a_edge4_Node000003_Node000005"><a xlink:title=" ">
<path fill="none" stroke="#63b8ff" d="M739.51,-113.99C724.59,-117.66 708.28,-121.64 693.25,-125.25 681.05,-128.18 667.8,-131.31 655.63,-134.17"/>
<polygon fill="#63b8ff" stroke="#63b8ff" points="740.25,-117.42 749.13,-111.63 738.58,-110.62 740.25,-117.42"/>
</a>
</g>
</g>
<!-- Node6 -->
<g id="Node000006" class="node">
<title>Node6</title>
<g id="a_Node000006"><a xlink:href="../../d9/dc6/class_main_window.html#a755e3ce5cc1f97792cc7f7eff9da3858" target="_top" xlink:title="Slot triggered when the sort method or order in the shape report table changes.">
<polygon fill="white" stroke="#666666" points="680.88,-116.5 541.88,-116.5 541.88,-86 680.88,-86 680.88,-116.5"/>
<text text-anchor="start" x="549.88" y="-103" font-family="Helvetica,sans-Serif" font-size="10.00">MainWindow::onSortMethod</text>
<text text-anchor="middle" x="611.38" y="-91.75" font-family="Helvetica,sans-Serif" font-size="10.00">Changed</text>
</a>
</g>
</g>
<!-- Node3&#45;&gt;Node6 -->
<g id="edge5_Node000003_Node000006" class="edge">
<title>Node3&#45;&gt;Node6</title>
<g id="a_edge5_Node000003_Node000006"><a xlink:title=" ">
<path fill="none" stroke="#63b8ff" d="M717.4,-101.25C705.39,-101.25 692.98,-101.25 681.08,-101.25"/>
<polygon fill="#63b8ff" stroke="#63b8ff" points="717.26,-104.75 727.26,-101.25 717.26,-97.75 717.26,-104.75"/>
</a>
</g>
</g>
<!-- Node9 -->
<g id="Node000009" class="node">
<title>Node9</title>
<g id="a_Node000009"><a xlink:href="../../dc/db7/class_parser.html#a0a4c2a3664d2d2c1f5444c18271a1cf4" target="_top" xlink:title="Converts a string representation of a JSON array of integers into an alpha::vector&lt;int&gt;.">
<polygon fill="white" stroke="#666666" points="668.88,-67.88 553.88,-67.88 553.88,-48.62 668.88,-48.62 668.88,-67.88"/>
<text text-anchor="middle" x="611.38" y="-54.38" font-family="Helvetica,sans-Serif" font-size="10.00">Parser::StringToVector</text>
</a>
</g>
</g>
<!-- Node3&#45;&gt;Node9 -->
<g id="edge8_Node000003_Node000009" class="edge">
<title>Node3&#45;&gt;Node9</title>
<g id="a_edge8_Node000003_Node000009"><a xlink:title=" ">
<path fill="none" stroke="#63b8ff" d="M739.51,-88.51C724.59,-84.84 708.28,-80.86 693.25,-77.25 681.05,-74.32 667.8,-71.19 655.63,-68.33"/>
<polygon fill="#63b8ff" stroke="#63b8ff" points="738.58,-91.88 749.13,-90.87 740.25,-85.08 738.58,-91.88"/>
</a>
</g>
</g>
<!-- Node12 -->
<g id="Node000012" class="node">
<title>Node12</title>
<g id="a_Node000012"><a xlink:href="../../d9/ddf/class_render_area.html#a7fd734dcf63055b10a414b143a45a226" target="_top" xlink:title="Updates display coordinates of a shape&#39;s properties, typically in an associated view.">
<polygon fill="white" stroke="#666666" points="693.25,-30.5 529.5,-30.5 529.5,0 693.25,0 693.25,-30.5"/>
<text text-anchor="start" x="537.5" y="-17" font-family="Helvetica,sans-Serif" font-size="10.00">RenderArea::updateShapeDisplay</text>
<text text-anchor="middle" x="611.38" y="-5.75" font-family="Helvetica,sans-Serif" font-size="10.00">Coords</text>
</a>
</g>
</g>
<!-- Node3&#45;&gt;Node12 -->
<g id="edge12_Node000003_Node000012" class="edge">
<title>Node3&#45;&gt;Node12</title>
<g id="a_edge12_Node000003_Node000012"><a xlink:title=" ">
<path fill="none" stroke="#63b8ff" d="M734.33,-86.3C732.58,-85.35 730.88,-84.33 729.25,-83.25 708.18,-69.31 714.29,-53.24 693.25,-39.25 688.49,-36.09 683.31,-33.33 677.94,-30.93"/>
<polygon fill="#63b8ff" stroke="#63b8ff" points="732.85,-89.47 743.39,-90.51 735.8,-83.13 732.85,-89.47"/>
</a>
</g>
</g>
<!-- Node7 -->
<g id="Node000007" class="node">
<title>Node7</title>
<g id="a_Node000007"><a xlink:href="../../d9/dc6/class_main_window.html#ac4c479f9beafaee136b98e7fac6761ee" target="_top" xlink:title="Creates and displays a new tab or window containing the shape report table.">
<polygon fill="white" stroke="#666666" points="493.5,-110.88 321.5,-110.88 321.5,-91.62 493.5,-91.62 493.5,-110.88"/>
<text text-anchor="middle" x="407.5" y="-97.38" font-family="Helvetica,sans-Serif" font-size="10.00">MainWindow::createShapeTableTab</text>
</a>
</g>
</g>
<!-- Node6&#45;&gt;Node7 -->
<g id="edge6_Node000006_Node000007" class="edge">
<title>Node6&#45;&gt;Node7</title>
<g id="a_edge6_Node000006_Node000007"><a xlink:title=" ">
<path fill="none" stroke="#63b8ff" d="M530.18,-101.25C518.25,-101.25 505.91,-101.25 493.88,-101.25"/>
<polygon fill="#63b8ff" stroke="#63b8ff" points="529.95,-104.75 539.95,-101.25 529.95,-97.75 529.95,-104.75"/>
</a>
</g>
</g>
<!-- Node8 -->
<g id="Node000008" class="node">
<title>Node8</title>
<g id="a_Node000008"><a xlink:href="../../d9/dc6/class_main_window.html#a25d06b6f11a1eb7fa2239f01e853ae29" target="_top" xlink:title=" ">
<polygon fill="white" stroke="#666666" points="285.5,-110.88 151,-110.88 151,-91.62 285.5,-91.62 285.5,-110.88"/>
<text text-anchor="middle" x="218.25" y="-97.38" font-family="Helvetica,sans-Serif" font-size="10.00">MainWindow::MainWindow</text>
</a>
</g>
</g>
<!-- Node7&#45;&gt;Node8 -->
<g id="edge7_Node000007_Node000008" class="edge">
<title>Node7&#45;&gt;Node8</title>
<g id="a_edge7_Node000007_Node000008"><a xlink:title=" ">
<path fill="none" stroke="#63b8ff" d="M309.66,-101.25C301.58,-101.25 293.52,-101.25 285.74,-101.25"/>
<polygon fill="#63b8ff" stroke="#63b8ff" points="309.58,-104.75 319.58,-101.25 309.58,-97.75 309.58,-104.75"/>
</a>
</g>
</g>
<!-- Node10 -->
<g id="Node000010" class="node">
<title>Node10</title>
<g id="a_Node000010"><a xlink:href="../../dc/db7/class_parser.html#ac3bb64fa743348c1b31eb1118c6d4e0f" target="_top" xlink:title="Updates a MorphicShape accumulator with a parsed key&#45;value pair.">
<polygon fill="white" stroke="#666666" points="475.88,-70.88 339.12,-70.88 339.12,-51.62 475.88,-51.62 475.88,-70.88"/>
<text text-anchor="middle" x="407.5" y="-57.38" font-family="Helvetica,sans-Serif" font-size="10.00">Parser::UpdateAccumulator</text>
</a>
</g>
</g>
<!-- Node9&#45;&gt;Node10 -->
<g id="edge9_Node000009_Node000010" class="edge">
<title>Node9&#45;&gt;Node10</title>
<g id="a_edge9_Node000009_Node000010"><a xlink:title=" ">
<path fill="none" stroke="#63b8ff" d="M542.36,-59.26C521.07,-59.58 497.57,-59.93 476.29,-60.24"/>
<polygon fill="#63b8ff" stroke="#63b8ff" points="542.14,-62.76 552.09,-59.12 542.04,-55.77 542.14,-62.76"/>
</a>
</g>
</g>
<!-- Node11 -->
<g id="Node000011" class="node">
<title>Node11</title>
<g id="a_Node000011"><a xlink:href="../../dc/db7/class_parser.html#a4d2c4035d6109be0ceca773cfbcff523" target="_top" xlink:title="Parses a single JSON object (data within &#39;{}&#39;) into a MorphicShape.">
<polygon fill="white" stroke="#666666" points="281,-72.88 155.5,-72.88 155.5,-53.62 281,-53.62 281,-72.88"/>
<text text-anchor="middle" x="218.25" y="-59.38" font-family="Helvetica,sans-Serif" font-size="10.00">Parser::ParseJsonObject</text>
</a>
</g>
</g>
<!-- Node10&#45;&gt;Node11 -->
<g id="edge10_Node000010_Node000011" class="edge">
<title>Node10&#45;&gt;Node11</title>
<g id="a_edge10_Node000010_Node000011"><a xlink:title=" ">
<path fill="none" stroke="#63b8ff" d="M327.51,-62.09C312.07,-62.26 296.08,-62.43 281.29,-62.59"/>
<polygon fill="#63b8ff" stroke="#63b8ff" points="327.16,-65.6 337.12,-61.99 327.08,-58.6 327.16,-65.6"/>
</a>
</g>
</g>
<!-- Node11&#45;&gt;Node4 -->
<g id="edge11_Node000011_Node000004" class="edge">
<title>Node11&#45;&gt;Node4</title>
<g id="a_edge11_Node000011_Node000004"><a xlink:title=" ">
<path fill="none" stroke="#63b8ff" d="M167.87,-76.65C162.15,-78.43 156.42,-80.31 151,-82.25 125.96,-91.21 98.05,-103.63 79.5,-112.25"/>
<polygon fill="#63b8ff" stroke="#63b8ff" points="168.77,-80.03 177.35,-73.81 166.76,-73.33 168.77,-80.03"/>
</a>
</g>
</g>
<!-- Node13 -->
<g id="Node000013" class="node">
<title>Node13</title>
<g id="a_Node000013"><a xlink:href="../../d9/ddf/class_render_area.html#a84f2ea379248266648d22338e3904b45" target="_top" xlink:title="Handles mouse release events to finalize a shape move operation.">
<polygon fill="white" stroke="#666666" points="477,-30.5 338,-30.5 338,0 477,0 477,-30.5"/>
<text text-anchor="start" x="346" y="-17" font-family="Helvetica,sans-Serif" font-size="10.00">RenderArea::mouseRelease</text>
<text text-anchor="middle" x="407.5" y="-5.75" font-family="Helvetica,sans-Serif" font-size="10.00">Event</text>
</a>
</g>
</g>
<!-- Node12&#45;&gt;Node13 -->
<g id="edge13_Node000012_Node000013" class="edge">
<title>Node12&#45;&gt;Node13</title>
<g id="a_edge13_Node000012_Node000013"><a xlink:title=" ">
<path fill="none" stroke="#63b8ff" d="M517.76,-15.25C504.13,-15.25 490.29,-15.25 477.26,-15.25"/>
<polygon fill="#63b8ff" stroke="#63b8ff" points="517.62,-18.75 527.62,-15.25 517.62,-11.75 517.62,-18.75"/>
</a>
</g>
</g>
</g>
</svg>

<g id="navigator" transform="translate(0 0)" fill="#404254">
  <rect fill="#f2f5e9" fill-opacity="0.5" stroke="#606060" stroke-width=".5" x="0" y="0" width="60" height="60"/>
  <use id="zoomplus" xlink:href="#zoomPlus" x="17" y="9" onmousedown="handleZoom(evt,'in')"/>
  <use id="zoomminus" xlink:href="#zoomMin" x="42" y="9" onmousedown="handleZoom(evt,'out')"/>
  <use id="reset" xlink:href="#resetDef" x="30" y="36" onmousedown="handleReset()"/>
   <use id="arrowup" xlink:href="#arrowUp" x="0" y="0" onmousedown="handlePan(0,-1)"/>
  <use id="arrowright" xlink:href="#arrowRight" x="0" y="0" onmousedown="handlePan(1,0)"/>
  <use id="arrowdown" xlink:href="#arrowDown" x="0" y="0" onmousedown="handlePan(0,1)"/>
  <use id="arrowleft" xlink:href="#arrowLeft" x="0" y="0" onmousedown="handlePan(-1,0)"/>
</g>
<svg viewBox="0 0 15 15" width="100%" height="30px" preserveAspectRatio="xMaxYMin meet">
 <g id="arrow_out" transform="scale(0.3 0.3)">
  <a xlink:href="classalpha_1_1vector_a6dd9585078696eb1d5e7186435f0e41c_icgraph_org.svg" target="_base">
   <rect id="button" ry="5" rx="5" y="6" x="6" height="38" width="38"
        fill="#f2f5e9" fill-opacity="0.5" stroke="#606060" stroke-width="1.0"/>
   <path id="arrow"
     d="M 11.500037,31.436501 C 11.940474,20.09759 22.043105,11.32322 32.158766,21.979434 L 37.068811,17.246167 C 37.068811,17.246167 37.088388,32 37.088388,32 L 22.160133,31.978069 C 22.160133,31.978069 26.997745,27.140456 26.997745,27.140456 C 18.528582,18.264221 13.291696,25.230495 11.500037,31.436501 z"
     style="fill:#404040;"/>
  </a>
 </g>
</svg>

<style type='text/css'>
<![CDATA[
[data-mouse-over-selected='false'] { opacity: 0.7; }
[data-mouse-over-selected='true']  { opacity: 1.0; }
]]>
</style>
<script type="application/ecmascript"><![CDATA[
document.addEventListener('DOMContentLoaded', (event) => {
  highlightEdges();
  highlightAdjacentNodes();
});
]]></script>
</svg>
