<?xml version="1.0" encoding="UTF-8" standalone="no"?>
<!DOCTYPE svg PUBLIC "-//W3C//DTD SVG 1.1//EN"
 "http://www.w3.org/Graphics/SVG/1.1/DTD/svg11.dtd">
<!-- Generated by graphviz version 12.2.1 (20241206.2353)
 -->
<!-- Title: alpha::vector::push_back Pages: 1 -->
<svg width="863pt" height="199pt"
 viewBox="0.00 0.00 862.75 198.53" xmlns="http://www.w3.org/2000/svg" xmlns:xlink="http://www.w3.org/1999/xlink">
<g id="graph0" class="graph" transform="scale(1 1) rotate(0) translate(4 194.53)">
<title>alpha::vector::push_back</title>
<!-- Node1 -->
<g id="Node000001" class="node">
<title>Node1</title>
<g id="a_Node000001"><a xlink:title=" ">
<polygon fill="#999999" stroke="#666666" points="854.75,-110.88 729.25,-110.88 729.25,-91.62 854.75,-91.62 854.75,-110.88"/>
<text text-anchor="middle" x="792" y="-97.38" font-family="Helvetica,sans-Serif" font-size="10.00">alpha::vector::push_back</text>
</a>
</g>
</g>
<!-- Node2 -->
<g id="Node000002" class="node">
<title>Node2</title>
<g id="a_Node000002"><a xlink:href="../../dc/db7/class_parser.html#a9c4bd21d0d23be70682e026d6e702ec9" target="_top" xlink:title="Converts a JSON string representation into a vector of Shape objects.">
<polygon fill="white" stroke="#666666" points="115,-131.88 0,-131.88 0,-112.62 115,-112.62 115,-131.88"/>
<text text-anchor="middle" x="57.5" y="-118.38" font-family="Helvetica,sans-Serif" font-size="10.00">Parser::JsonToShapes</text>
</a>
</g>
</g>
<!-- Node1&#45;&gt;Node2 -->
<g id="edge1_Node000001_Node000002" class="edge">
<title>Node1&#45;&gt;Node2</title>
<g id="a_edge1_Node000001_Node000002"><a xlink:title=" ">
<path fill="none" stroke="#63b8ff" d="M771.32,-118.54C752.68,-133.67 723.16,-154.56 693.25,-163.25 471.34,-227.69 188.12,-159.39 92.07,-132.3"/>
<polygon fill="#63b8ff" stroke="#63b8ff" points="773.45,-121.32 778.86,-112.21 768.95,-115.96 773.45,-121.32"/>
</a>
</g>
</g>
<!-- Node3 -->
<g id="Node000003" class="node">
<title>Node3</title>
<g id="a_Node000003"><a xlink:href="../../dc/db7/class_parser.html#a7e0c6d8559fd28407b48e9eef05496d8" target="_top" xlink:title="Converts a JSON string representation into a vector of UserAccount objects.">
<polygon fill="white" stroke="#666666" points="665.5,-153.88 557.25,-153.88 557.25,-134.62 665.5,-134.62 665.5,-153.88"/>
<text text-anchor="middle" x="611.38" y="-140.38" font-family="Helvetica,sans-Serif" font-size="10.00">Parser::JsonToUsers</text>
</a>
</g>
</g>
<!-- Node1&#45;&gt;Node3 -->
<g id="edge2_Node000001_Node000003" class="edge">
<title>Node1&#45;&gt;Node3</title>
<g id="a_edge2_Node000001_Node000003"><a xlink:title=" ">
<path fill="none" stroke="#63b8ff" d="M739.51,-113.99C724.59,-117.66 708.28,-121.64 693.25,-125.25 681.05,-128.18 667.8,-131.31 655.63,-134.17"/>
<polygon fill="#63b8ff" stroke="#63b8ff" points="740.25,-117.42 749.13,-111.63 738.58,-110.62 740.25,-117.42"/>
</a>
</g>
</g>
<!-- Node4 -->
<g id="Node000004" class="node">
<title>Node4</title>
<g id="a_Node000004"><a xlink:href="../../d9/dc6/class_main_window.html#a755e3ce5cc1f97792cc7f7eff9da3858" target="_top" xlink:title="Slot triggered when the sort method or order in the shape report table changes.">
<polygon fill="white" stroke="#666666" points="680.88,-116.5 541.88,-116.5 541.88,-86 680.88,-86 680.88,-116.5"/>
<text text-anchor="start" x="549.88" y="-103" font-family="Helvetica,sans-Serif" font-size="10.00">MainWindow::onSortMethod</text>
<text text-anchor="middle" x="611.38" y="-91.75" font-family="Helvetica,sans-Serif" font-size="10.00">Changed</text>
</a>
</g>
</g>
<!-- Node1&#45;&gt;Node4 -->
<g id="edge3_Node000001_Node000004" class="edge">
<title>Node1&#45;&gt;Node4</title>
<g id="a_edge3_Node000001_Node000004"><a xlink:title=" ">
<path fill="none" stroke="#63b8ff" d="M717.4,-101.25C705.39,-101.25 692.98,-101.25 681.08,-101.25"/>
<polygon fill="#63b8ff" stroke="#63b8ff" points="717.26,-104.75 727.26,-101.25 717.26,-97.75 717.26,-104.75"/>
</a>
</g>
</g>
<!-- Node7 -->
<g id="Node000007" class="node">
<title>Node7</title>
<g id="a_Node000007"><a xlink:href="../../dc/db7/class_parser.html#a0a4c2a3664d2d2c1f5444c18271a1cf4" target="_top" xlink:title="Converts a string representation of a JSON array of integers into an alpha::vector&lt;int&gt;.">
<polygon fill="white" stroke="#666666" points="668.88,-67.88 553.88,-67.88 553.88,-48.62 668.88,-48.62 668.88,-67.88"/>
<text text-anchor="middle" x="611.38" y="-54.38" font-family="Helvetica,sans-Serif" font-size="10.00">Parser::StringToVector</text>
</a>
</g>
</g>
<!-- Node1&#45;&gt;Node7 -->
<g id="edge6_Node000001_Node000007" class="edge">
<title>Node1&#45;&gt;Node7</title>
<g id="a_edge6_Node000001_Node000007"><a xlink:title=" ">
<path fill="none" stroke="#63b8ff" d="M739.51,-88.51C724.59,-84.84 708.28,-80.86 693.25,-77.25 681.05,-74.32 667.8,-71.19 655.63,-68.33"/>
<polygon fill="#63b8ff" stroke="#63b8ff" points="738.58,-91.88 749.13,-90.87 740.25,-85.08 738.58,-91.88"/>
</a>
</g>
</g>
<!-- Node10 -->
<g id="Node000010" class="node">
<title>Node10</title>
<g id="a_Node000010"><a xlink:href="../../d9/ddf/class_render_area.html#a7fd734dcf63055b10a414b143a45a226" target="_top" xlink:title="Updates display coordinates of a shape&#39;s properties, typically in an associated view.">
<polygon fill="white" stroke="#666666" points="693.25,-30.5 529.5,-30.5 529.5,0 693.25,0 693.25,-30.5"/>
<text text-anchor="start" x="537.5" y="-17" font-family="Helvetica,sans-Serif" font-size="10.00">RenderArea::updateShapeDisplay</text>
<text text-anchor="middle" x="611.38" y="-5.75" font-family="Helvetica,sans-Serif" font-size="10.00">Coords</text>
</a>
</g>
</g>
<!-- Node1&#45;&gt;Node10 -->
<g id="edge10_Node000001_Node000010" class="edge">
<title>Node1&#45;&gt;Node10</title>
<g id="a_edge10_Node000001_Node000010"><a xlink:title=" ">
<path fill="none" stroke="#63b8ff" d="M768.67,-84.55C749.49,-70.84 720.67,-51.72 693.25,-39.25 686.58,-36.22 679.44,-33.46 672.25,-30.97"/>
<polygon fill="#63b8ff" stroke="#63b8ff" points="766.39,-87.22 776.54,-90.27 770.51,-81.56 766.39,-87.22"/>
</a>
</g>
</g>
<!-- Node5 -->
<g id="Node000005" class="node">
<title>Node5</title>
<g id="a_Node000005"><a xlink:href="../../d9/dc6/class_main_window.html#ac4c479f9beafaee136b98e7fac6761ee" target="_top" xlink:title="Creates and displays a new tab or window containing the shape report table.">
<polygon fill="white" stroke="#666666" points="493.5,-110.88 321.5,-110.88 321.5,-91.62 493.5,-91.62 493.5,-110.88"/>
<text text-anchor="middle" x="407.5" y="-97.38" font-family="Helvetica,sans-Serif" font-size="10.00">MainWindow::createShapeTableTab</text>
</a>
</g>
</g>
<!-- Node4&#45;&gt;Node5 -->
<g id="edge4_Node000004_Node000005" class="edge">
<title>Node4&#45;&gt;Node5</title>
<g id="a_edge4_Node000004_Node000005"><a xlink:title=" ">
<path fill="none" stroke="#63b8ff" d="M530.18,-101.25C518.25,-101.25 505.91,-101.25 493.88,-101.25"/>
<polygon fill="#63b8ff" stroke="#63b8ff" points="529.95,-104.75 539.95,-101.25 529.95,-97.75 529.95,-104.75"/>
</a>
</g>
</g>
<!-- Node6 -->
<g id="Node000006" class="node">
<title>Node6</title>
<g id="a_Node000006"><a xlink:href="../../d9/dc6/class_main_window.html#a25d06b6f11a1eb7fa2239f01e853ae29" target="_top" xlink:title=" ">
<polygon fill="white" stroke="#666666" points="285.5,-110.88 151,-110.88 151,-91.62 285.5,-91.62 285.5,-110.88"/>
<text text-anchor="middle" x="218.25" y="-97.38" font-family="Helvetica,sans-Serif" font-size="10.00">MainWindow::MainWindow</text>
</a>
</g>
</g>
<!-- Node5&#45;&gt;Node6 -->
<g id="edge5_Node000005_Node000006" class="edge">
<title>Node5&#45;&gt;Node6</title>
<g id="a_edge5_Node000005_Node000006"><a xlink:title=" ">
<path fill="none" stroke="#63b8ff" d="M309.66,-101.25C301.58,-101.25 293.52,-101.25 285.74,-101.25"/>
<polygon fill="#63b8ff" stroke="#63b8ff" points="309.58,-104.75 319.58,-101.25 309.58,-97.75 309.58,-104.75"/>
</a>
</g>
</g>
<!-- Node8 -->
<g id="Node000008" class="node">
<title>Node8</title>
<g id="a_Node000008"><a xlink:href="../../dc/db7/class_parser.html#ac3bb64fa743348c1b31eb1118c6d4e0f" target="_top" xlink:title="Updates a MorphicShape accumulator with a parsed key&#45;value pair.">
<polygon fill="white" stroke="#666666" points="475.88,-70.88 339.12,-70.88 339.12,-51.62 475.88,-51.62 475.88,-70.88"/>
<text text-anchor="middle" x="407.5" y="-57.38" font-family="Helvetica,sans-Serif" font-size="10.00">Parser::UpdateAccumulator</text>
</a>
</g>
</g>
<!-- Node7&#45;&gt;Node8 -->
<g id="edge7_Node000007_Node000008" class="edge">
<title>Node7&#45;&gt;Node8</title>
<g id="a_edge7_Node000007_Node000008"><a xlink:title=" ">
<path fill="none" stroke="#63b8ff" d="M542.36,-59.26C521.07,-59.58 497.57,-59.93 476.29,-60.24"/>
<polygon fill="#63b8ff" stroke="#63b8ff" points="542.14,-62.76 552.09,-59.12 542.04,-55.77 542.14,-62.76"/>
</a>
</g>
</g>
<!-- Node9 -->
<g id="Node000009" class="node">
<title>Node9</title>
<g id="a_Node000009"><a xlink:href="../../dc/db7/class_parser.html#a4d2c4035d6109be0ceca773cfbcff523" target="_top" xlink:title="Parses a single JSON object (data within &#39;{}&#39;) into a MorphicShape.">
<polygon fill="white" stroke="#666666" points="281,-72.88 155.5,-72.88 155.5,-53.62 281,-53.62 281,-72.88"/>
<text text-anchor="middle" x="218.25" y="-59.38" font-family="Helvetica,sans-Serif" font-size="10.00">Parser::ParseJsonObject</text>
</a>
</g>
</g>
<!-- Node8&#45;&gt;Node9 -->
<g id="edge8_Node000008_Node000009" class="edge">
<title>Node8&#45;&gt;Node9</title>
<g id="a_edge8_Node000008_Node000009"><a xlink:title=" ">
<path fill="none" stroke="#63b8ff" d="M327.51,-62.09C312.07,-62.26 296.08,-62.43 281.29,-62.59"/>
<polygon fill="#63b8ff" stroke="#63b8ff" points="327.16,-65.6 337.12,-61.99 327.08,-58.6 327.16,-65.6"/>
</a>
</g>
</g>
<!-- Node9&#45;&gt;Node2 -->
<g id="edge9_Node000009_Node000002" class="edge">
<title>Node9&#45;&gt;Node2</title>
<g id="a_edge9_Node000009_Node000002"><a xlink:title=" ">
<path fill="none" stroke="#63b8ff" d="M167.87,-76.65C162.15,-78.43 156.42,-80.31 151,-82.25 125.96,-91.21 98.05,-103.63 79.5,-112.25"/>
<polygon fill="#63b8ff" stroke="#63b8ff" points="168.77,-80.03 177.35,-73.81 166.76,-73.33 168.77,-80.03"/>
</a>
</g>
</g>
<!-- Node11 -->
<g id="Node000011" class="node">
<title>Node11</title>
<g id="a_Node000011"><a xlink:href="../../d9/ddf/class_render_area.html#a84f2ea379248266648d22338e3904b45" target="_top" xlink:title="Handles mouse release events to finalize a shape move operation.">
<polygon fill="white" stroke="#666666" points="477,-30.5 338,-30.5 338,0 477,0 477,-30.5"/>
<text text-anchor="start" x="346" y="-17" font-family="Helvetica,sans-Serif" font-size="10.00">RenderArea::mouseRelease</text>
<text text-anchor="middle" x="407.5" y="-5.75" font-family="Helvetica,sans-Serif" font-size="10.00">Event</text>
</a>
</g>
</g>
<!-- Node10&#45;&gt;Node11 -->
<g id="edge11_Node000010_Node000011" class="edge">
<title>Node10&#45;&gt;Node11</title>
<g id="a_edge11_Node000010_Node000011"><a xlink:title=" ">
<path fill="none" stroke="#63b8ff" d="M517.76,-15.25C504.13,-15.25 490.29,-15.25 477.26,-15.25"/>
<polygon fill="#63b8ff" stroke="#63b8ff" points="517.62,-18.75 527.62,-15.25 517.62,-11.75 517.62,-18.75"/>
</a>
</g>
</g>
</g>
</svg>
