<?xml version="1.0" encoding="UTF-8" standalone="no"?>
<!DOCTYPE svg PUBLIC "-//W3C//DTD SVG 1.1//EN"
 "http://www.w3.org/Graphics/SVG/1.1/DTD/svg11.dtd">
<!-- Generated by graphviz version 12.2.1 (20241206.2353)
 -->
<!-- Title: alpha::vector::size Pages: 1 -->
<svg width="858pt" height="236pt"
 viewBox="0.00 0.00 857.50 236.25" xmlns="http://www.w3.org/2000/svg" xmlns:xlink="http://www.w3.org/1999/xlink">
<g id="graph0" class="graph" transform="scale(1 1) rotate(0) translate(4 232.25)">
<title>alpha::vector::size</title>
<!-- Node1 -->
<g id="Node000001" class="node">
<title>Node1</title>
<g id="a_Node000001"><a xlink:title=" ">
<polygon fill="#999999" stroke="#666666" points="849.5,-123.25 753.25,-123.25 753.25,-104 849.5,-104 849.5,-123.25"/>
<text text-anchor="middle" x="801.38" y="-109.75" font-family="Helvetica,sans-Serif" font-size="10.00">alpha::vector::size</text>
</a>
</g>
</g>
<!-- Node2 -->
<g id="Node000002" class="node">
<title>Node2</title>
<g id="a_Node000002"><a xlink:href="../../dc/db7/class_parser.html#a991032ca21e8e64a0fa274b8056cc669" target="_top" xlink:title="Constructs a concrete Shape object from a populated MorphicShape accumulator.">
<polygon fill="white" stroke="#666666" points="685.38,-228.25 585.38,-228.25 585.38,-209 685.38,-209 685.38,-228.25"/>
<text text-anchor="middle" x="635.38" y="-214.75" font-family="Helvetica,sans-Serif" font-size="10.00">Parser::BuildShape</text>
</a>
</g>
</g>
<!-- Node1&#45;&gt;Node2 -->
<g id="edge1_Node000001_Node000002" class="edge">
<title>Node1&#45;&gt;Node2</title>
<g id="a_edge1_Node000001_Node000002"><a xlink:title=" ">
<path fill="none" stroke="#63b8ff" d="M786.99,-132.94C772.22,-152.74 746.62,-182.94 717.25,-199.62 707.59,-205.11 696.43,-209.01 685.54,-211.79"/>
<polygon fill="#63b8ff" stroke="#63b8ff" points="789.79,-135.04 792.8,-124.88 784.11,-130.94 789.79,-135.04"/>
</a>
</g>
</g>
<!-- Node4 -->
<g id="Node000004" class="node">
<title>Node4</title>
<g id="a_Node000004"><a xlink:href="../../d9/dc6/class_main_window.html#a90f63362e90934cea68694f0207dd7dc" target="_top" xlink:title="Populates the shape report table with data from the provided vector of shapes.">
<polygon fill="white" stroke="#666666" points="706.75,-190.88 564,-190.88 564,-160.38 706.75,-160.38 706.75,-190.88"/>
<text text-anchor="start" x="572" y="-177.38" font-family="Helvetica,sans-Serif" font-size="10.00">MainWindow::populateShape</text>
<text text-anchor="middle" x="635.38" y="-166.12" font-family="Helvetica,sans-Serif" font-size="10.00">Table</text>
</a>
</g>
</g>
<!-- Node1&#45;&gt;Node4 -->
<g id="edge3_Node000001_Node000004" class="edge">
<title>Node1&#45;&gt;Node4</title>
<g id="a_edge3_Node000001_Node000004"><a xlink:title=" ">
<path fill="none" stroke="#63b8ff" d="M770.43,-128.55C754.8,-136.02 735.24,-144.88 717.25,-151.62 709.43,-154.56 701.09,-157.37 692.84,-159.98"/>
<polygon fill="#63b8ff" stroke="#63b8ff" points="771.72,-131.81 779.19,-124.3 768.66,-125.51 771.72,-131.81"/>
</a>
</g>
</g>
<!-- Node8 -->
<g id="Node000008" class="node">
<title>Node8</title>
<g id="a_Node000008"><a xlink:href="../../d9/dc6/class_main_window.html#ae822357dee3e9aad5cf276768b7f8019" target="_top" xlink:title=" ">
<polygon fill="white" stroke="#666666" points="704.88,-142.25 565.88,-142.25 565.88,-123 704.88,-123 704.88,-142.25"/>
<text text-anchor="middle" x="635.38" y="-128.75" font-family="Helvetica,sans-Serif" font-size="10.00">MainWindow::selection_sort</text>
</a>
</g>
</g>
<!-- Node1&#45;&gt;Node8 -->
<g id="edge8_Node000001_Node000008" class="edge">
<title>Node1&#45;&gt;Node8</title>
<g id="a_edge8_Node000001_Node000008"><a xlink:title=" ">
<path fill="none" stroke="#63b8ff" d="M741.86,-120.4C730.04,-121.77 717.5,-123.23 705.36,-124.63"/>
<polygon fill="#63b8ff" stroke="#63b8ff" points="741.91,-123.92 751.44,-119.29 741.1,-116.97 741.91,-123.92"/>
</a>
</g>
</g>
<!-- Node9 -->
<g id="Node000009" class="node">
<title>Node9</title>
<g id="a_Node000009"><a xlink:href="../../dc/db7/class_parser.html#ac0dc74d228421b62ece9d9e93511509e" target="_top" xlink:title="Converts a vector of Shape pointers into a JSON string representation.">
<polygon fill="white" stroke="#666666" points="692.88,-105.25 577.88,-105.25 577.88,-86 692.88,-86 692.88,-105.25"/>
<text text-anchor="middle" x="635.38" y="-91.75" font-family="Helvetica,sans-Serif" font-size="10.00">Parser::ShapesToJson</text>
</a>
</g>
</g>
<!-- Node1&#45;&gt;Node9 -->
<g id="edge11_Node000001_Node000009" class="edge">
<title>Node1&#45;&gt;Node9</title>
<g id="a_edge11_Node000001_Node000009"><a xlink:title=" ">
<path fill="none" stroke="#63b8ff" d="M741.72,-107.19C725.96,-105.46 708.95,-103.59 693.29,-101.87"/>
<polygon fill="#63b8ff" stroke="#63b8ff" points="741.11,-110.64 751.43,-108.25 741.88,-103.68 741.11,-110.64"/>
</a>
</g>
</g>
<!-- Node10 -->
<g id="Node000010" class="node">
<title>Node10</title>
<g id="a_Node000010"><a xlink:href="../../d9/ddf/class_render_area.html#a7fd734dcf63055b10a414b143a45a226" target="_top" xlink:title="Updates display coordinates of a shape&#39;s properties, typically in an associated view.">
<polygon fill="white" stroke="#666666" points="717.25,-67.88 553.5,-67.88 553.5,-37.38 717.25,-37.38 717.25,-67.88"/>
<text text-anchor="start" x="561.5" y="-54.38" font-family="Helvetica,sans-Serif" font-size="10.00">RenderArea::updateShapeDisplay</text>
<text text-anchor="middle" x="635.38" y="-43.12" font-family="Helvetica,sans-Serif" font-size="10.00">Coords</text>
</a>
</g>
</g>
<!-- Node1&#45;&gt;Node10 -->
<g id="edge12_Node000001_Node000010" class="edge">
<title>Node1&#45;&gt;Node10</title>
<g id="a_edge12_Node000001_Node000010"><a xlink:title=" ">
<path fill="none" stroke="#63b8ff" d="M769.76,-98.85C754.23,-91.65 734.95,-83.16 717.25,-76.62 709.42,-73.73 701.06,-70.94 692.81,-68.34"/>
<polygon fill="#63b8ff" stroke="#63b8ff" points="767.94,-101.86 778.48,-102.94 770.91,-95.52 767.94,-101.86"/>
</a>
</g>
</g>
<!-- Node12 -->
<g id="Node000012" class="node">
<title>Node12</title>
<g id="a_Node000012"><a xlink:href="../../dc/db7/class_parser.html#aec700c3508cbac1197ff4010160be3cb" target="_top" xlink:title="Converts a vector of UserAccount pointers into a JSON string representation.">
<polygon fill="white" stroke="#666666" points="689.5,-19.25 581.25,-19.25 581.25,0 689.5,0 689.5,-19.25"/>
<text text-anchor="middle" x="635.38" y="-5.75" font-family="Helvetica,sans-Serif" font-size="10.00">Parser::UsersToJson</text>
</a>
</g>
</g>
<!-- Node1&#45;&gt;Node12 -->
<g id="edge14_Node000001_Node000012" class="edge">
<title>Node1&#45;&gt;Node12</title>
<g id="a_edge14_Node000001_Node000012"><a xlink:title=" ">
<path fill="none" stroke="#63b8ff" d="M786.94,-94.54C772.13,-74.97 746.49,-45.12 717.25,-28.62 708.83,-23.88 699.28,-20.31 689.77,-17.64"/>
<polygon fill="#63b8ff" stroke="#63b8ff" points="784.03,-96.49 792.77,-102.49 789.68,-92.36 784.03,-96.49"/>
</a>
</g>
</g>
<!-- Node3 -->
<g id="Node000003" class="node">
<title>Node3</title>
<g id="a_Node000003"><a xlink:href="../../dc/db7/class_parser.html#a9c4bd21d0d23be70682e026d6e702ec9" target="_top" xlink:title="Converts a JSON string representation into a vector of Shape objects.">
<polygon fill="white" stroke="#666666" points="505.5,-228.25 390.5,-228.25 390.5,-209 505.5,-209 505.5,-228.25"/>
<text text-anchor="middle" x="448" y="-214.75" font-family="Helvetica,sans-Serif" font-size="10.00">Parser::JsonToShapes</text>
</a>
</g>
</g>
<!-- Node2&#45;&gt;Node3 -->
<g id="edge2_Node000002_Node000003" class="edge">
<title>Node2&#45;&gt;Node3</title>
<g id="a_edge2_Node000002_Node000003"><a xlink:title=" ">
<path fill="none" stroke="#63b8ff" d="M573.73,-218.62C551.94,-218.62 527.45,-218.62 505.98,-218.62"/>
<polygon fill="#63b8ff" stroke="#63b8ff" points="573.67,-222.13 583.67,-218.63 573.67,-215.13 573.67,-222.13"/>
</a>
</g>
</g>
<!-- Node5 -->
<g id="Node000005" class="node">
<title>Node5</title>
<g id="a_Node000005"><a xlink:href="../../d9/dc6/class_main_window.html#ac4c479f9beafaee136b98e7fac6761ee" target="_top" xlink:title="Creates and displays a new tab or window containing the shape report table.">
<polygon fill="white" stroke="#666666" points="342.5,-147.25 170.5,-147.25 170.5,-128 342.5,-128 342.5,-147.25"/>
<text text-anchor="middle" x="256.5" y="-133.75" font-family="Helvetica,sans-Serif" font-size="10.00">MainWindow::createShapeTableTab</text>
</a>
</g>
</g>
<!-- Node4&#45;&gt;Node5 -->
<g id="edge4_Node000004_Node000005" class="edge">
<title>Node4&#45;&gt;Node5</title>
<g id="a_edge4_Node000004_Node000005"><a xlink:title=" ">
<path fill="none" stroke="#63b8ff" d="M552.08,-174.07C501.78,-172.39 436.24,-168.89 378.5,-161.62 352.47,-158.35 323.65,-152.71 300.66,-147.72"/>
<polygon fill="#63b8ff" stroke="#63b8ff" points="551.92,-177.57 562.03,-174.38 552.14,-170.57 551.92,-177.57"/>
</a>
</g>
</g>
<!-- Node7 -->
<g id="Node000007" class="node">
<title>Node7</title>
<g id="a_Node000007"><a xlink:href="../../d9/dc6/class_main_window.html#a755e3ce5cc1f97792cc7f7eff9da3858" target="_top" xlink:title="Slot triggered when the sort method or order in the shape report table changes.">
<polygon fill="white" stroke="#666666" points="517.5,-152.88 378.5,-152.88 378.5,-122.38 517.5,-122.38 517.5,-152.88"/>
<text text-anchor="start" x="386.5" y="-139.38" font-family="Helvetica,sans-Serif" font-size="10.00">MainWindow::onSortMethod</text>
<text text-anchor="middle" x="448" y="-128.12" font-family="Helvetica,sans-Serif" font-size="10.00">Changed</text>
</a>
</g>
</g>
<!-- Node4&#45;&gt;Node7 -->
<g id="edge6_Node000004_Node000007" class="edge">
<title>Node4&#45;&gt;Node7</title>
<g id="a_edge6_Node000004_Node000007"><a xlink:title=" ">
<path fill="none" stroke="#63b8ff" d="M552.72,-158.89C541.09,-156.5 529.23,-154.07 517.88,-151.75"/>
<polygon fill="#63b8ff" stroke="#63b8ff" points="551.78,-162.27 562.28,-160.85 553.19,-155.41 551.78,-162.27"/>
</a>
</g>
</g>
<!-- Node6 -->
<g id="Node000006" class="node">
<title>Node6</title>
<g id="a_Node000006"><a xlink:href="../../d9/dc6/class_main_window.html#a25d06b6f11a1eb7fa2239f01e853ae29" target="_top" xlink:title=" ">
<polygon fill="white" stroke="#666666" points="134.5,-147.25 0,-147.25 0,-128 134.5,-128 134.5,-147.25"/>
<text text-anchor="middle" x="67.25" y="-133.75" font-family="Helvetica,sans-Serif" font-size="10.00">MainWindow::MainWindow</text>
</a>
</g>
</g>
<!-- Node5&#45;&gt;Node6 -->
<g id="edge5_Node000005_Node000006" class="edge">
<title>Node5&#45;&gt;Node6</title>
<g id="a_edge5_Node000005_Node000006"><a xlink:title=" ">
<path fill="none" stroke="#63b8ff" d="M158.66,-137.62C150.58,-137.62 142.52,-137.62 134.74,-137.62"/>
<polygon fill="#63b8ff" stroke="#63b8ff" points="158.58,-141.13 168.58,-137.63 158.58,-134.13 158.58,-141.13"/>
</a>
</g>
</g>
<!-- Node7&#45;&gt;Node5 -->
<g id="edge7_Node000007_Node000005" class="edge">
<title>Node7&#45;&gt;Node5</title>
<g id="a_edge7_Node000007_Node000005"><a xlink:title=" ">
<path fill="none" stroke="#63b8ff" d="M366.65,-137.62C358.79,-137.62 350.79,-137.62 342.87,-137.62"/>
<polygon fill="#63b8ff" stroke="#63b8ff" points="366.54,-141.13 376.54,-137.63 366.54,-134.13 366.54,-141.13"/>
</a>
</g>
</g>
<!-- Node8&#45;&gt;Node5 -->
<g id="edge9_Node000008_Node000005" class="edge">
<title>Node8&#45;&gt;Node5</title>
<g id="a_edge9_Node000008_Node000005"><a xlink:title=" ">
<path fill="none" stroke="#63b8ff" d="M572.1,-120.59C554.51,-117.72 535.32,-115.06 517.5,-113.62 455.92,-108.65 439.98,-107.59 378.5,-113.62 351.43,-116.28 321.44,-122.21 298.09,-127.51"/>
<polygon fill="#63b8ff" stroke="#63b8ff" points="571.45,-124.03 581.9,-122.25 572.62,-117.13 571.45,-124.03"/>
</a>
</g>
</g>
<!-- Node8&#45;&gt;Node7 -->
<g id="edge10_Node000008_Node000007" class="edge">
<title>Node8&#45;&gt;Node7</title>
<g id="a_edge10_Node000008_Node000007"><a xlink:title=" ">
<path fill="none" stroke="#63b8ff" d="M554.16,-134.79C542.1,-135.11 529.76,-135.45 517.96,-135.76"/>
<polygon fill="#63b8ff" stroke="#63b8ff" points="554.2,-138.29 564.1,-134.52 554.01,-131.29 554.2,-138.29"/>
</a>
</g>
</g>
<!-- Node11 -->
<g id="Node000011" class="node">
<title>Node11</title>
<g id="a_Node000011"><a xlink:href="../../d9/ddf/class_render_area.html#a84f2ea379248266648d22338e3904b45" target="_top" xlink:title="Handles mouse release events to finalize a shape move operation.">
<polygon fill="white" stroke="#666666" points="517.5,-66.88 378.5,-66.88 378.5,-36.38 517.5,-36.38 517.5,-66.88"/>
<text text-anchor="start" x="386.5" y="-53.38" font-family="Helvetica,sans-Serif" font-size="10.00">RenderArea::mouseRelease</text>
<text text-anchor="middle" x="448" y="-42.12" font-family="Helvetica,sans-Serif" font-size="10.00">Event</text>
</a>
</g>
</g>
<!-- Node10&#45;&gt;Node11 -->
<g id="edge13_Node000010_Node000011" class="edge">
<title>Node10&#45;&gt;Node11</title>
<g id="a_edge13_Node000010_Node000011"><a xlink:title=" ">
<path fill="none" stroke="#63b8ff" d="M541.7,-52.13C533.65,-52.08 525.59,-52.04 517.78,-52"/>
<polygon fill="#63b8ff" stroke="#63b8ff" points="541.53,-55.62 551.55,-52.18 541.57,-48.62 541.53,-55.62"/>
</a>
</g>
</g>
</g>
</svg>
