<?xml version="1.0" encoding="UTF-8" standalone="no"?>
<!DOCTYPE svg PUBLIC "-//W3C//DTD SVG 1.1//EN"
 "http://www.w3.org/Graphics/SVG/1.1/DTD/svg11.dtd">
<!-- Generated by graphviz version 12.2.1 (20241206.2353)
 -->
<!-- Title: LoginWindow::username Pages: 1 -->
<svg width="680pt" height="101pt"
 viewBox="0.00 0.00 679.50 101.25" xmlns="http://www.w3.org/2000/svg" xmlns:xlink="http://www.w3.org/1999/xlink">
<g id="graph0" class="graph" transform="scale(1 1) rotate(0) translate(4 97.25)">
<title>LoginWindow::username</title>
<!-- Node1 -->
<g id="Node000001" class="node">
<title>Node1</title>
<g id="a_Node000001"><a xlink:title="Returns the username entered in the currently active input field (login or signup).">
<polygon fill="#999999" stroke="#666666" points="671.5,-55.25 548.25,-55.25 548.25,-36 671.5,-36 671.5,-55.25"/>
<text text-anchor="middle" x="609.88" y="-41.75" font-family="Helvetica,sans-Serif" font-size="10.00">LoginWindow::username</text>
</a>
</g>
</g>
<!-- Node2 -->
<g id="Node000002" class="node">
<title>Node2</title>
<g id="a_Node000002"><a xlink:href="../../de/d74/class_login_window.html#a075f5a5f9da1f4b202aec66d6bd7ec76" target="_top" xlink:title="Emitted when the user attempts to log in with the provided credentials.">
<polygon fill="white" stroke="#666666" points="508.12,-74.25 360.12,-74.25 360.12,-55 508.12,-55 508.12,-74.25"/>
<text text-anchor="middle" x="434.12" y="-60.75" font-family="Helvetica,sans-Serif" font-size="10.00">LoginWindow::loginRequested</text>
</a>
</g>
</g>
<!-- Node1&#45;&gt;Node2 -->
<g id="edge1_Node000001_Node000002" class="edge">
<title>Node1&#45;&gt;Node2</title>
<g id="a_edge1_Node000001_Node000002"><a xlink:title=" ">
<path fill="none" stroke="#63b8ff" d="M536.81,-53.51C527.43,-54.53 517.81,-55.58 508.41,-56.61"/>
<polygon fill="#63b8ff" stroke="#63b8ff" points="537.04,-57 546.6,-52.43 536.28,-50.04 537.04,-57"/>
</a>
</g>
</g>
<!-- Node7 -->
<g id="Node000007" class="node">
<title>Node7</title>
<g id="a_Node000007"><a xlink:href="../../de/d74/class_login_window.html#ae166943123818d0b0a3dcdcf66380994" target="_top" xlink:title="Emitted when the user attempts to sign up with the provided credentials. (Admin flag is currently har...">
<polygon fill="white" stroke="#666666" points="512.25,-37.25 356,-37.25 356,-18 512.25,-18 512.25,-37.25"/>
<text text-anchor="middle" x="434.12" y="-23.75" font-family="Helvetica,sans-Serif" font-size="10.00">LoginWindow::signupRequested</text>
</a>
</g>
</g>
<!-- Node1&#45;&gt;Node7 -->
<g id="edge6_Node000001_Node000007" class="edge">
<title>Node1&#45;&gt;Node7</title>
<g id="a_edge6_Node000001_Node000007"><a xlink:title=" ">
<path fill="none" stroke="#63b8ff" d="M536.93,-38.17C528.92,-37.34 520.73,-36.49 512.66,-35.66"/>
<polygon fill="#63b8ff" stroke="#63b8ff" points="536.29,-41.62 546.6,-39.17 537.01,-34.66 536.29,-41.62"/>
</a>
</g>
</g>
<!-- Node3 -->
<g id="Node000003" class="node">
<title>Node3</title>
<g id="a_Node000003"><a xlink:href="../../de/d74/class_login_window.html#a4677fdb497a115ea633069d51eb03944" target="_top" xlink:title="Emits the loginRequested signal with current input from login fields.">
<polygon fill="white" stroke="#666666" points="315.88,-93.25 179.12,-93.25 179.12,-74 315.88,-74 315.88,-93.25"/>
<text text-anchor="middle" x="247.5" y="-79.75" font-family="Helvetica,sans-Serif" font-size="10.00">LoginWindow::attemptLogin</text>
</a>
</g>
</g>
<!-- Node2&#45;&gt;Node3 -->
<g id="edge2_Node000002_Node000003" class="edge">
<title>Node2&#45;&gt;Node3</title>
<g id="a_edge2_Node000002_Node000003"><a xlink:title=" ">
<path fill="none" stroke="#63b8ff" d="M348.48,-73.34C337.71,-74.44 326.81,-75.57 316.35,-76.64"/>
<polygon fill="#63b8ff" stroke="#63b8ff" points="348.53,-76.85 358.12,-72.34 347.81,-69.89 348.53,-76.85"/>
</a>
</g>
</g>
<!-- Node5 -->
<g id="Node000005" class="node">
<title>Node5</title>
<g id="a_Node000005"><a xlink:href="../../d9/dc6/class_main_window.html#a44b1462463b23490276f54034ab12325" target="_top" xlink:title="Slot triggered when the login button is clicked, typically opening a login dialog.">
<polygon fill="white" stroke="#666666" points="320,-56.25 175,-56.25 175,-37 320,-37 320,-56.25"/>
<text text-anchor="middle" x="247.5" y="-42.75" font-family="Helvetica,sans-Serif" font-size="10.00">MainWindow::onLoginClicked</text>
</a>
</g>
</g>
<!-- Node2&#45;&gt;Node5 -->
<g id="edge4_Node000002_Node000005" class="edge">
<title>Node2&#45;&gt;Node5</title>
<g id="a_edge4_Node000002_Node000005"><a xlink:title=" ">
<path fill="none" stroke="#63b8ff" d="M348.27,-56.35C338.9,-55.44 329.43,-54.52 320.24,-53.62"/>
<polygon fill="#63b8ff" stroke="#63b8ff" points="347.83,-59.83 358.12,-57.31 348.51,-52.86 347.83,-59.83"/>
</a>
</g>
</g>
<!-- Node4 -->
<g id="Node000004" class="node">
<title>Node4</title>
<g id="a_Node000004"><a xlink:href="../../de/d74/class_login_window.html#aa4c04d26b299de00156bbf3c32b2a082" target="_top" xlink:title="Constructor that sets up the UI components for login and signup.">
<polygon fill="white" stroke="#666666" points="139,-19.25 0,-19.25 0,0 139,0 139,-19.25"/>
<text text-anchor="middle" x="69.5" y="-5.75" font-family="Helvetica,sans-Serif" font-size="10.00">LoginWindow::LoginWindow</text>
</a>
</g>
</g>
<!-- Node3&#45;&gt;Node4 -->
<g id="edge3_Node000003_Node000004" class="edge">
<title>Node3&#45;&gt;Node4</title>
<g id="a_edge3_Node000003_Node000004"><a xlink:title=" ">
<path fill="none" stroke="#63b8ff" d="M181.84,-69.22C179.49,-68.11 177.2,-66.91 175,-65.62 154.92,-53.87 159.02,-39.48 139,-27.62 133.71,-24.49 127.87,-21.9 121.91,-19.75"/>
<polygon fill="#63b8ff" stroke="#63b8ff" points="180.49,-72.45 191.07,-72.99 183.14,-65.97 180.49,-72.45"/>
</a>
</g>
</g>
<!-- Node6 -->
<g id="Node000006" class="node">
<title>Node6</title>
<g id="a_Node000006"><a xlink:href="../../d9/dc6/class_main_window.html#a25d06b6f11a1eb7fa2239f01e853ae29" target="_top" xlink:title=" ">
<polygon fill="white" stroke="#666666" points="136.75,-56.25 2.25,-56.25 2.25,-37 136.75,-37 136.75,-56.25"/>
<text text-anchor="middle" x="69.5" y="-42.75" font-family="Helvetica,sans-Serif" font-size="10.00">MainWindow::MainWindow</text>
</a>
</g>
</g>
<!-- Node5&#45;&gt;Node6 -->
<g id="edge5_Node000005_Node000006" class="edge">
<title>Node5&#45;&gt;Node6</title>
<g id="a_edge5_Node000005_Node000006"><a xlink:title=" ">
<path fill="none" stroke="#63b8ff" d="M163.18,-46.62C154.4,-46.62 145.56,-46.62 137.01,-46.62"/>
<polygon fill="#63b8ff" stroke="#63b8ff" points="163.15,-50.13 173.15,-46.63 163.15,-43.13 163.15,-50.13"/>
</a>
</g>
</g>
<!-- Node7&#45;&gt;Node5 -->
<g id="edge9_Node000007_Node000005" class="edge">
<title>Node7&#45;&gt;Node5</title>
<g id="a_edge9_Node000007_Node000005"><a xlink:title=" ">
<path fill="none" stroke="#63b8ff" d="M344.37,-36.76C336.36,-37.58 328.33,-38.41 320.5,-39.22"/>
<polygon fill="#63b8ff" stroke="#63b8ff" points="344.54,-40.26 354.12,-35.76 343.82,-33.3 344.54,-40.26"/>
</a>
</g>
</g>
<!-- Node8 -->
<g id="Node000008" class="node">
<title>Node8</title>
<g id="a_Node000008"><a xlink:href="../../de/d74/class_login_window.html#a70f65bf3f12674754e167540444b7009" target="_top" xlink:title="Emits the signupRequested signal with current input from signup fields.">
<polygon fill="white" stroke="#666666" points="319.25,-19.25 175.75,-19.25 175.75,0 319.25,0 319.25,-19.25"/>
<text text-anchor="middle" x="247.5" y="-5.75" font-family="Helvetica,sans-Serif" font-size="10.00">LoginWindow::attemptSignup</text>
</a>
</g>
</g>
<!-- Node7&#45;&gt;Node8 -->
<g id="edge7_Node000007_Node000008" class="edge">
<title>Node7&#45;&gt;Node8</title>
<g id="a_edge7_Node000007_Node000008"><a xlink:title=" ">
<path fill="none" stroke="#63b8ff" d="M344.36,-18.97C336.06,-18.16 327.72,-17.35 319.62,-16.56"/>
<polygon fill="#63b8ff" stroke="#63b8ff" points="343.83,-22.44 354.12,-19.92 344.51,-15.47 343.83,-22.44"/>
</a>
</g>
</g>
<!-- Node8&#45;&gt;Node4 -->
<g id="edge8_Node000008_Node000004" class="edge">
<title>Node8&#45;&gt;Node4</title>
<g id="a_edge8_Node000008_Node000004"><a xlink:title=" ">
<path fill="none" stroke="#63b8ff" d="M164.14,-9.62C155.82,-9.62 147.43,-9.62 139.27,-9.62"/>
<polygon fill="#63b8ff" stroke="#63b8ff" points="163.91,-13.13 173.91,-9.63 163.91,-6.13 163.91,-13.13"/>
</a>
</g>
</g>
</g>
</svg>
