<?xml version="1.0" encoding="UTF-8" standalone="no"?>
<!DOCTYPE svg PUBLIC "-//W3C//DTD SVG 1.1//EN"
 "http://www.w3.org/Graphics/SVG/1.1/DTD/svg11.dtd">
<!-- Generated by graphviz version 12.2.1 (20241206.2353)
 -->
<!-- Title: LoginWindow::attemptLogin Pages: 1 -->
<svg width="488pt" height="64pt"
 viewBox="0.00 0.00 488.00 64.25" xmlns="http://www.w3.org/2000/svg" xmlns:xlink="http://www.w3.org/1999/xlink">
<g id="graph0" class="graph" transform="scale(1 1) rotate(0) translate(4 60.25)">
<title>LoginWindow::attemptLogin</title>
<!-- Node1 -->
<g id="Node000001" class="node">
<title>Node1</title>
<g id="a_Node000001"><a xlink:title="Emits the loginRequested signal with current input from login fields.">
<polygon fill="#999999" stroke="#666666" points="136.75,-37.25 0,-37.25 0,-18 136.75,-18 136.75,-37.25"/>
<text text-anchor="middle" x="68.38" y="-23.75" font-family="Helvetica,sans-Serif" font-size="10.00">LoginWindow::attemptLogin</text>
</a>
</g>
</g>
<!-- Node2 -->
<g id="Node000002" class="node">
<title>Node2</title>
<g id="a_Node000002"><a xlink:href="../../de/d74/class_login_window.html#a075f5a5f9da1f4b202aec66d6bd7ec76" target="_top" xlink:title="Emitted when the user attempts to log in with the provided credentials.">
<polygon fill="white" stroke="#666666" points="320.75,-37.25 172.75,-37.25 172.75,-18 320.75,-18 320.75,-37.25"/>
<text text-anchor="middle" x="246.75" y="-23.75" font-family="Helvetica,sans-Serif" font-size="10.00">LoginWindow::loginRequested</text>
</a>
</g>
</g>
<!-- Node1&#45;&gt;Node2 -->
<g id="edge1_Node000001_Node000002" class="edge">
<title>Node1&#45;&gt;Node2</title>
<g id="a_edge1_Node000001_Node000002"><a xlink:title=" ">
<path fill="none" stroke="#63b8ff" d="M137.06,-27.62C144.92,-27.62 153.01,-27.62 161.05,-27.62"/>
<polygon fill="#63b8ff" stroke="#63b8ff" points="160.87,-31.13 170.87,-27.63 160.87,-24.13 160.87,-31.13"/>
</a>
</g>
</g>
<!-- Node3 -->
<g id="Node000003" class="node">
<title>Node3</title>
<g id="a_Node000003"><a xlink:href="../../de/d74/class_login_window.html#ab207055cd16762112d1facbd35da9c25" target="_top" xlink:title="Returns the password entered in the currently active input field (login or signup).">
<polygon fill="white" stroke="#666666" points="479.62,-56.25 357.12,-56.25 357.12,-37 479.62,-37 479.62,-56.25"/>
<text text-anchor="middle" x="418.38" y="-42.75" font-family="Helvetica,sans-Serif" font-size="10.00">LoginWindow::password</text>
</a>
</g>
</g>
<!-- Node2&#45;&gt;Node3 -->
<g id="edge2_Node000002_Node000003" class="edge">
<title>Node2&#45;&gt;Node3</title>
<g id="a_edge2_Node000002_Node000003"><a xlink:title=" ">
<path fill="none" stroke="#63b8ff" d="M321.16,-35.85C329.26,-36.75 337.49,-37.68 345.57,-38.58"/>
<polygon fill="#63b8ff" stroke="#63b8ff" points="345.01,-42.04 355.34,-39.68 345.79,-35.08 345.01,-42.04"/>
</a>
</g>
</g>
<!-- Node4 -->
<g id="Node000004" class="node">
<title>Node4</title>
<g id="a_Node000004"><a xlink:href="../../de/d74/class_login_window.html#a2b28bf4bc7080e39afb0d096d212e0a0" target="_top" xlink:title="Returns the username entered in the currently active input field (login or signup).">
<polygon fill="white" stroke="#666666" points="480,-19.25 356.75,-19.25 356.75,0 480,0 480,-19.25"/>
<text text-anchor="middle" x="418.38" y="-5.75" font-family="Helvetica,sans-Serif" font-size="10.00">LoginWindow::username</text>
</a>
</g>
</g>
<!-- Node2&#45;&gt;Node4 -->
<g id="edge3_Node000002_Node000004" class="edge">
<title>Node2&#45;&gt;Node4</title>
<g id="a_edge3_Node000002_Node000004"><a xlink:title=" ">
<path fill="none" stroke="#63b8ff" d="M321.16,-19.83C329.04,-19 337.06,-18.15 344.93,-17.31"/>
<polygon fill="#63b8ff" stroke="#63b8ff" points="345.24,-20.8 354.82,-16.26 344.5,-13.84 345.24,-20.8"/>
</a>
</g>
</g>
</g>
</svg>
