<?xml version="1.0" encoding="UTF-8" standalone="no"?>
<!DOCTYPE svg PUBLIC "-//W3C//DTD SVG 1.1//EN"
 "http://www.w3.org/Graphics/SVG/1.1/DTD/svg11.dtd">
<!-- Generated by graphviz version 12.2.1 (20241206.2353)
 -->
<!-- Title: LoginWindow::signupRequested Pages: 1 -->
<svg width="324pt" height="64pt"
 viewBox="0.00 0.00 323.50 64.25" xmlns="http://www.w3.org/2000/svg" xmlns:xlink="http://www.w3.org/1999/xlink">
<g id="graph0" class="graph" transform="scale(1 1) rotate(0) translate(4 60.25)">
<title>LoginWindow::signupRequested</title>
<!-- Node1 -->
<g id="Node000001" class="node">
<title>Node1</title>
<g id="a_Node000001"><a xlink:title="Emitted when the user attempts to sign up with the provided credentials. (Admin flag is currently har...">
<polygon fill="#999999" stroke="#666666" points="156.25,-37.25 0,-37.25 0,-18 156.25,-18 156.25,-37.25"/>
<text text-anchor="middle" x="78.12" y="-23.75" font-family="Helvetica,sans-Serif" font-size="10.00">LoginWindow::signupRequested</text>
</a>
</g>
</g>
<!-- Node2 -->
<g id="Node000002" class="node">
<title>Node2</title>
<g id="a_Node000002"><a xlink:href="../../de/d74/class_login_window.html#ab207055cd16762112d1facbd35da9c25" target="_top" xlink:title="Returns the password entered in the currently active input field (login or signup).">
<polygon fill="white" stroke="#666666" points="315.12,-56.25 192.62,-56.25 192.62,-37 315.12,-37 315.12,-56.25"/>
<text text-anchor="middle" x="253.88" y="-42.75" font-family="Helvetica,sans-Serif" font-size="10.00">LoginWindow::password</text>
</a>
</g>
</g>
<!-- Node1&#45;&gt;Node2 -->
<g id="edge1_Node000001_Node000002" class="edge">
<title>Node1&#45;&gt;Node2</title>
<g id="a_edge1_Node000001_Node000002"><a xlink:title=" ">
<path fill="none" stroke="#63b8ff" d="M156.6,-36.1C164.72,-36.98 172.95,-37.88 181,-38.77"/>
<polygon fill="#63b8ff" stroke="#63b8ff" points="180.41,-42.22 190.73,-39.83 181.17,-35.26 180.41,-42.22"/>
</a>
</g>
</g>
<!-- Node3 -->
<g id="Node000003" class="node">
<title>Node3</title>
<g id="a_Node000003"><a xlink:href="../../de/d74/class_login_window.html#a2b28bf4bc7080e39afb0d096d212e0a0" target="_top" xlink:title="Returns the username entered in the currently active input field (login or signup).">
<polygon fill="white" stroke="#666666" points="315.5,-19.25 192.25,-19.25 192.25,0 315.5,0 315.5,-19.25"/>
<text text-anchor="middle" x="253.88" y="-5.75" font-family="Helvetica,sans-Serif" font-size="10.00">LoginWindow::username</text>
</a>
</g>
</g>
<!-- Node1&#45;&gt;Node3 -->
<g id="edge2_Node000001_Node000003" class="edge">
<title>Node1&#45;&gt;Node3</title>
<g id="a_edge2_Node000001_Node000003"><a xlink:title=" ">
<path fill="none" stroke="#63b8ff" d="M156.6,-19.6C164.56,-18.77 172.64,-17.94 180.54,-17.12"/>
<polygon fill="#63b8ff" stroke="#63b8ff" points="180.88,-20.6 190.47,-16.09 180.16,-13.64 180.88,-20.6"/>
</a>
</g>
</g>
</g>
</svg>
