<?xml version="1.0" encoding="UTF-8" standalone="no"?>
<!DOCTYPE svg PUBLIC "-//W3C//DTD SVG 1.1//EN"
 "http://www.w3.org/Graphics/SVG/1.1/DTD/svg11.dtd">
<!-- Generated by graphviz version 12.2.1 (20241206.2353)
 -->
<!-- Title: LoginWindow::signupRequested Pages: 1 -->
<svg width="520pt" height="64pt"
 viewBox="0.00 0.00 520.25 64.25" xmlns="http://www.w3.org/2000/svg" xmlns:xlink="http://www.w3.org/1999/xlink">
<g id="graph0" class="graph" transform="scale(1 1) rotate(0) translate(4 60.25)">
<title>LoginWindow::signupRequested</title>
<!-- Node1 -->
<g id="Node000001" class="node">
<title>Node1</title>
<g id="a_Node000001"><a xlink:title="Emitted when the user attempts to sign up with the provided credentials. (Admin flag is currently har...">
<polygon fill="#999999" stroke="#666666" points="512.25,-37.25 356,-37.25 356,-18 512.25,-18 512.25,-37.25"/>
<text text-anchor="middle" x="434.12" y="-23.75" font-family="Helvetica,sans-Serif" font-size="10.00">LoginWindow::signupRequested</text>
</a>
</g>
</g>
<!-- Node2 -->
<g id="Node000002" class="node">
<title>Node2</title>
<g id="a_Node000002"><a xlink:href="../../de/d74/class_login_window.html#a70f65bf3f12674754e167540444b7009" target="_top" xlink:title="Emits the signupRequested signal with current input from signup fields.">
<polygon fill="white" stroke="#666666" points="319.25,-56.25 175.75,-56.25 175.75,-37 319.25,-37 319.25,-56.25"/>
<text text-anchor="middle" x="247.5" y="-42.75" font-family="Helvetica,sans-Serif" font-size="10.00">LoginWindow::attemptSignup</text>
</a>
</g>
</g>
<!-- Node1&#45;&gt;Node2 -->
<g id="edge1_Node000001_Node000002" class="edge">
<title>Node1&#45;&gt;Node2</title>
<g id="a_edge1_Node000001_Node000002"><a xlink:title=" ">
<path fill="none" stroke="#63b8ff" d="M344.36,-36.76C336.06,-37.61 327.72,-38.47 319.62,-39.31"/>
<polygon fill="#63b8ff" stroke="#63b8ff" points="344.54,-40.26 354.12,-35.76 343.82,-33.3 344.54,-40.26"/>
</a>
</g>
</g>
<!-- Node4 -->
<g id="Node000004" class="node">
<title>Node4</title>
<g id="a_Node000004"><a xlink:href="../../d9/dc6/class_main_window.html#a44b1462463b23490276f54034ab12325" target="_top" xlink:title="Slot triggered when the login button is clicked, typically opening a login dialog.">
<polygon fill="white" stroke="#666666" points="320,-19.25 175,-19.25 175,0 320,0 320,-19.25"/>
<text text-anchor="middle" x="247.5" y="-5.75" font-family="Helvetica,sans-Serif" font-size="10.00">MainWindow::onLoginClicked</text>
</a>
</g>
</g>
<!-- Node1&#45;&gt;Node4 -->
<g id="edge3_Node000001_Node000004" class="edge">
<title>Node1&#45;&gt;Node4</title>
<g id="a_edge3_Node000001_Node000004"><a xlink:title=" ">
<path fill="none" stroke="#63b8ff" d="M344.37,-18.97C336.36,-18.19 328.33,-17.41 320.5,-16.64"/>
<polygon fill="#63b8ff" stroke="#63b8ff" points="343.83,-22.44 354.12,-19.92 344.51,-15.47 343.83,-22.44"/>
</a>
</g>
</g>
<!-- Node3 -->
<g id="Node000003" class="node">
<title>Node3</title>
<g id="a_Node000003"><a xlink:href="../../de/d74/class_login_window.html#aa4c04d26b299de00156bbf3c32b2a082" target="_top" xlink:title="Constructor that sets up the UI components for login and signup.">
<polygon fill="white" stroke="#666666" points="139,-56.25 0,-56.25 0,-37 139,-37 139,-56.25"/>
<text text-anchor="middle" x="69.5" y="-42.75" font-family="Helvetica,sans-Serif" font-size="10.00">LoginWindow::LoginWindow</text>
</a>
</g>
</g>
<!-- Node2&#45;&gt;Node3 -->
<g id="edge2_Node000002_Node000003" class="edge">
<title>Node2&#45;&gt;Node3</title>
<g id="a_edge2_Node000002_Node000003"><a xlink:title=" ">
<path fill="none" stroke="#63b8ff" d="M164.14,-46.62C155.82,-46.62 147.43,-46.62 139.27,-46.62"/>
<polygon fill="#63b8ff" stroke="#63b8ff" points="163.91,-50.13 173.91,-46.63 163.91,-43.13 163.91,-50.13"/>
</a>
</g>
</g>
<!-- Node5 -->
<g id="Node000005" class="node">
<title>Node5</title>
<g id="a_Node000005"><a xlink:href="../../d9/dc6/class_main_window.html#a25d06b6f11a1eb7fa2239f01e853ae29" target="_top" xlink:title=" ">
<polygon fill="white" stroke="#666666" points="136.75,-19.25 2.25,-19.25 2.25,0 136.75,0 136.75,-19.25"/>
<text text-anchor="middle" x="69.5" y="-5.75" font-family="Helvetica,sans-Serif" font-size="10.00">MainWindow::MainWindow</text>
</a>
</g>
</g>
<!-- Node4&#45;&gt;Node5 -->
<g id="edge4_Node000004_Node000005" class="edge">
<title>Node4&#45;&gt;Node5</title>
<g id="a_edge4_Node000004_Node000005"><a xlink:title=" ">
<path fill="none" stroke="#63b8ff" d="M163.18,-9.62C154.4,-9.62 145.56,-9.62 137.01,-9.62"/>
<polygon fill="#63b8ff" stroke="#63b8ff" points="163.15,-13.13 173.15,-9.63 163.15,-6.13 163.15,-13.13"/>
</a>
</g>
</g>
</g>
</svg>
