<?xml version="1.0" encoding="UTF-8" standalone="no"?>
<!DOCTYPE svg PUBLIC "-//W3C//DTD SVG 1.1//EN"
 "http://www.w3.org/Graphics/SVG/1.1/DTD/svg11.dtd">
<!-- Generated by graphviz version 12.2.1 (20241206.2353)
 -->
<!-- Title: LoginWindow::password Pages: 1 -->
<!--zoomable 101 -->

<svg id="main" version="1.1" xmlns="http://www.w3.org/2000/svg" xmlns:xlink="http://www.w3.org/1999/xlink" xml:space="preserve" onload="init(evt)">

<style type="text/css"><![CDATA[
.node, .edge {opacity: 0.7;}
.node.selected, .edge.selected {opacity: 1;}
.edge:hover path { stroke: red; }
.edge:hover polygon { stroke: red; fill: red; }
]]></style>

<defs>
  <circle id="rim" cx="0" cy="0" r="7"/>
  <circle id="rim2" cx="0" cy="0" r="3.5"/>
  <g id="zoomPlus">
    <use xlink:href="#rim" fill="#404040"><set attributeName="fill" to="#808080" begin="zoomplus.mouseover" end="zoomplus.mouseout"/></use>
    <path d="M-4,0h8M0,-4v8" fill="none" stroke="white" stroke-width="1.5" pointer-events="none"/>
  </g>
  <g id="zoomMin">
    <use xlink:href="#rim" fill="#404040"><set attributeName="fill" to="#808080" begin="zoomminus.mouseover" end="zoomminus.mouseout"/></use>
    <path d="M-4,0h8" fill="none" stroke="white" stroke-width="1.5" pointer-events="none"/>
  </g>
  <g id="arrowUp" transform="translate(30 24)">
    <use xlink:href="#rim"/>
    <path pointer-events="none" fill="none" stroke="white" stroke-width="1.5" d="M0,-3.0v7 M-2.5,-0.5L0,-3.0L2.5,-0.5"/>
  </g>
  <g id="arrowRight" transform="rotate(90) translate(36 -43)">
    <use xlink:href="#rim"/>
    <path pointer-events="none" fill="none" stroke="white" stroke-width="1.5" d="M0,-3.0v7 M-2.5,-0.5L0,-3.0L2.5,-0.5"/>
  </g>
  <g id="arrowDown" transform="rotate(180) translate(-30 -48)">
    <use xlink:href="#rim"/>
    <path pointer-events="none" fill="none" stroke="white" stroke-width="1.5" d="M0,-3.0v7 M-2.5,-0.5L0,-3.0L2.5,-0.5"/>
  </g>
  <g id="arrowLeft" transform="rotate(270) translate(-36 17)">
    <use xlink:href="#rim"/>
    <path pointer-events="none" fill="none" stroke="white" stroke-width="1.5" d="M0,-3.0v7 M-2.5,-0.5L0,-3.0L2.5,-0.5"/>
  </g>
  <g id="resetDef">
    <use xlink:href="#rim2" fill="#404040"><set attributeName="fill" to="#808080" begin="reset.mouseover" end="reset.mouseout"/></use>
  </g>
</defs>
<script type="application/ecmascript">
var viewWidth = 679;
var viewHeight = 101;
var sectionId = 'dynsection-9';
</script>
<script type="application/ecmascript" xlink:href="../../svg.min.js"/>
<svg id="graph" class="graph">
<g id="viewport">
<title>LoginWindow::password</title>
<!-- Node1 -->
<g id="Node000001" class="node">
<title>Node1</title>
<g id="a_Node000001"><a xlink:title="Returns the password entered in the currently active input field (login or signup).">
<polygon fill="#999999" stroke="#666666" points="670.75,-55.25 548.25,-55.25 548.25,-36 670.75,-36 670.75,-55.25"/>
<text text-anchor="middle" x="609.5" y="-41.75" font-family="Helvetica,sans-Serif" font-size="10.00">LoginWindow::password</text>
</a>
</g>
</g>
<!-- Node2 -->
<g id="Node000002" class="node">
<title>Node2</title>
<g id="a_Node000002"><a xlink:href="../../de/d74/class_login_window.html#a075f5a5f9da1f4b202aec66d6bd7ec76" target="_top" xlink:title="Emitted when the user attempts to log in with the provided credentials.">
<polygon fill="white" stroke="#666666" points="508.12,-74.25 360.12,-74.25 360.12,-55 508.12,-55 508.12,-74.25"/>
<text text-anchor="middle" x="434.12" y="-60.75" font-family="Helvetica,sans-Serif" font-size="10.00">LoginWindow::loginRequested</text>
</a>
</g>
</g>
<!-- Node1&#45;&gt;Node2 -->
<g id="edge1_Node000001_Node000002" class="edge">
<title>Node1&#45;&gt;Node2</title>
<g id="a_edge1_Node000001_Node000002"><a xlink:title=" ">
<path fill="none" stroke="#63b8ff" d="M536.68,-53.5C527.39,-54.51 517.86,-55.56 508.55,-56.58"/>
<polygon fill="#63b8ff" stroke="#63b8ff" points="536.8,-57 546.36,-52.44 536.04,-50.05 536.8,-57"/>
</a>
</g>
</g>
<!-- Node7 -->
<g id="Node000007" class="node">
<title>Node7</title>
<g id="a_Node000007"><a xlink:href="../../de/d74/class_login_window.html#ae166943123818d0b0a3dcdcf66380994" target="_top" xlink:title="Emitted when the user attempts to sign up with the provided credentials. (Admin flag is currently har...">
<polygon fill="white" stroke="#666666" points="512.25,-37.25 356,-37.25 356,-18 512.25,-18 512.25,-37.25"/>
<text text-anchor="middle" x="434.12" y="-23.75" font-family="Helvetica,sans-Serif" font-size="10.00">LoginWindow::signupRequested</text>
</a>
</g>
</g>
<!-- Node1&#45;&gt;Node7 -->
<g id="edge6_Node000001_Node000007" class="edge">
<title>Node1&#45;&gt;Node7</title>
<g id="a_edge6_Node000001_Node000007"><a xlink:title=" ">
<path fill="none" stroke="#63b8ff" d="M536.43,-38.14C528.53,-37.32 520.46,-36.48 512.49,-35.66"/>
<polygon fill="#63b8ff" stroke="#63b8ff" points="536.05,-41.62 546.36,-39.17 536.77,-34.66 536.05,-41.62"/>
</a>
</g>
</g>
<!-- Node3 -->
<g id="Node000003" class="node">
<title>Node3</title>
<g id="a_Node000003"><a xlink:href="../../de/d74/class_login_window.html#a4677fdb497a115ea633069d51eb03944" target="_top" xlink:title="Emits the loginRequested signal with current input from login fields.">
<polygon fill="white" stroke="#666666" points="315.88,-93.25 179.12,-93.25 179.12,-74 315.88,-74 315.88,-93.25"/>
<text text-anchor="middle" x="247.5" y="-79.75" font-family="Helvetica,sans-Serif" font-size="10.00">LoginWindow::attemptLogin</text>
</a>
</g>
</g>
<!-- Node2&#45;&gt;Node3 -->
<g id="edge2_Node000002_Node000003" class="edge">
<title>Node2&#45;&gt;Node3</title>
<g id="a_edge2_Node000002_Node000003"><a xlink:title=" ">
<path fill="none" stroke="#63b8ff" d="M348.48,-73.34C337.71,-74.44 326.81,-75.57 316.35,-76.64"/>
<polygon fill="#63b8ff" stroke="#63b8ff" points="348.53,-76.85 358.12,-72.34 347.81,-69.89 348.53,-76.85"/>
</a>
</g>
</g>
<!-- Node5 -->
<g id="Node000005" class="node">
<title>Node5</title>
<g id="a_Node000005"><a xlink:href="../../d9/dc6/class_main_window.html#a44b1462463b23490276f54034ab12325" target="_top" xlink:title="Slot triggered when the login button is clicked, typically opening a login dialog.">
<polygon fill="white" stroke="#666666" points="320,-56.25 175,-56.25 175,-37 320,-37 320,-56.25"/>
<text text-anchor="middle" x="247.5" y="-42.75" font-family="Helvetica,sans-Serif" font-size="10.00">MainWindow::onLoginClicked</text>
</a>
</g>
</g>
<!-- Node2&#45;&gt;Node5 -->
<g id="edge4_Node000002_Node000005" class="edge">
<title>Node2&#45;&gt;Node5</title>
<g id="a_edge4_Node000002_Node000005"><a xlink:title=" ">
<path fill="none" stroke="#63b8ff" d="M348.27,-56.35C338.9,-55.44 329.43,-54.52 320.24,-53.62"/>
<polygon fill="#63b8ff" stroke="#63b8ff" points="347.83,-59.83 358.12,-57.31 348.51,-52.86 347.83,-59.83"/>
</a>
</g>
</g>
<!-- Node4 -->
<g id="Node000004" class="node">
<title>Node4</title>
<g id="a_Node000004"><a xlink:href="../../de/d74/class_login_window.html#aa4c04d26b299de00156bbf3c32b2a082" target="_top" xlink:title="Constructor that sets up the UI components for login and signup.">
<polygon fill="white" stroke="#666666" points="139,-19.25 0,-19.25 0,0 139,0 139,-19.25"/>
<text text-anchor="middle" x="69.5" y="-5.75" font-family="Helvetica,sans-Serif" font-size="10.00">LoginWindow::LoginWindow</text>
</a>
</g>
</g>
<!-- Node3&#45;&gt;Node4 -->
<g id="edge3_Node000003_Node000004" class="edge">
<title>Node3&#45;&gt;Node4</title>
<g id="a_edge3_Node000003_Node000004"><a xlink:title=" ">
<path fill="none" stroke="#63b8ff" d="M181.84,-69.22C179.49,-68.11 177.2,-66.91 175,-65.62 154.92,-53.87 159.02,-39.48 139,-27.62 133.71,-24.49 127.87,-21.9 121.91,-19.75"/>
<polygon fill="#63b8ff" stroke="#63b8ff" points="180.49,-72.45 191.07,-72.99 183.14,-65.97 180.49,-72.45"/>
</a>
</g>
</g>
<!-- Node6 -->
<g id="Node000006" class="node">
<title>Node6</title>
<g id="a_Node000006"><a xlink:href="../../d9/dc6/class_main_window.html#a25d06b6f11a1eb7fa2239f01e853ae29" target="_top" xlink:title=" ">
<polygon fill="white" stroke="#666666" points="136.75,-56.25 2.25,-56.25 2.25,-37 136.75,-37 136.75,-56.25"/>
<text text-anchor="middle" x="69.5" y="-42.75" font-family="Helvetica,sans-Serif" font-size="10.00">MainWindow::MainWindow</text>
</a>
</g>
</g>
<!-- Node5&#45;&gt;Node6 -->
<g id="edge5_Node000005_Node000006" class="edge">
<title>Node5&#45;&gt;Node6</title>
<g id="a_edge5_Node000005_Node000006"><a xlink:title=" ">
<path fill="none" stroke="#63b8ff" d="M163.18,-46.62C154.4,-46.62 145.56,-46.62 137.01,-46.62"/>
<polygon fill="#63b8ff" stroke="#63b8ff" points="163.15,-50.13 173.15,-46.63 163.15,-43.13 163.15,-50.13"/>
</a>
</g>
</g>
<!-- Node7&#45;&gt;Node5 -->
<g id="edge9_Node000007_Node000005" class="edge">
<title>Node7&#45;&gt;Node5</title>
<g id="a_edge9_Node000007_Node000005"><a xlink:title=" ">
<path fill="none" stroke="#63b8ff" d="M344.37,-36.76C336.36,-37.58 328.33,-38.41 320.5,-39.22"/>
<polygon fill="#63b8ff" stroke="#63b8ff" points="344.54,-40.26 354.12,-35.76 343.82,-33.3 344.54,-40.26"/>
</a>
</g>
</g>
<!-- Node8 -->
<g id="Node000008" class="node">
<title>Node8</title>
<g id="a_Node000008"><a xlink:href="../../de/d74/class_login_window.html#a70f65bf3f12674754e167540444b7009" target="_top" xlink:title="Emits the signupRequested signal with current input from signup fields.">
<polygon fill="white" stroke="#666666" points="319.25,-19.25 175.75,-19.25 175.75,0 319.25,0 319.25,-19.25"/>
<text text-anchor="middle" x="247.5" y="-5.75" font-family="Helvetica,sans-Serif" font-size="10.00">LoginWindow::attemptSignup</text>
</a>
</g>
</g>
<!-- Node7&#45;&gt;Node8 -->
<g id="edge7_Node000007_Node000008" class="edge">
<title>Node7&#45;&gt;Node8</title>
<g id="a_edge7_Node000007_Node000008"><a xlink:title=" ">
<path fill="none" stroke="#63b8ff" d="M344.36,-18.97C336.06,-18.16 327.72,-17.35 319.62,-16.56"/>
<polygon fill="#63b8ff" stroke="#63b8ff" points="343.83,-22.44 354.12,-19.92 344.51,-15.47 343.83,-22.44"/>
</a>
</g>
</g>
<!-- Node8&#45;&gt;Node4 -->
<g id="edge8_Node000008_Node000004" class="edge">
<title>Node8&#45;&gt;Node4</title>
<g id="a_edge8_Node000008_Node000004"><a xlink:title=" ">
<path fill="none" stroke="#63b8ff" d="M164.14,-9.62C155.82,-9.62 147.43,-9.62 139.27,-9.62"/>
<polygon fill="#63b8ff" stroke="#63b8ff" points="163.91,-13.13 173.91,-9.63 163.91,-6.13 163.91,-13.13"/>
</a>
</g>
</g>
</g>
</svg>

<g id="navigator" transform="translate(0 0)" fill="#404254">
  <rect fill="#f2f5e9" fill-opacity="0.5" stroke="#606060" stroke-width=".5" x="0" y="0" width="60" height="60"/>
  <use id="zoomplus" xlink:href="#zoomPlus" x="17" y="9" onmousedown="handleZoom(evt,'in')"/>
  <use id="zoomminus" xlink:href="#zoomMin" x="42" y="9" onmousedown="handleZoom(evt,'out')"/>
  <use id="reset" xlink:href="#resetDef" x="30" y="36" onmousedown="handleReset()"/>
   <use id="arrowup" xlink:href="#arrowUp" x="0" y="0" onmousedown="handlePan(0,-1)"/>
  <use id="arrowright" xlink:href="#arrowRight" x="0" y="0" onmousedown="handlePan(1,0)"/>
  <use id="arrowdown" xlink:href="#arrowDown" x="0" y="0" onmousedown="handlePan(0,1)"/>
  <use id="arrowleft" xlink:href="#arrowLeft" x="0" y="0" onmousedown="handlePan(-1,0)"/>
</g>
<svg viewBox="0 0 15 15" width="100%" height="30px" preserveAspectRatio="xMaxYMin meet">
 <g id="arrow_out" transform="scale(0.3 0.3)">
  <a xlink:href="class_login_window_ab207055cd16762112d1facbd35da9c25_icgraph_org.svg" target="_base">
   <rect id="button" ry="5" rx="5" y="6" x="6" height="38" width="38"
        fill="#f2f5e9" fill-opacity="0.5" stroke="#606060" stroke-width="1.0"/>
   <path id="arrow"
     d="M 11.500037,31.436501 C 11.940474,20.09759 22.043105,11.32322 32.158766,21.979434 L 37.068811,17.246167 C 37.068811,17.246167 37.088388,32 37.088388,32 L 22.160133,31.978069 C 22.160133,31.978069 26.997745,27.140456 26.997745,27.140456 C 18.528582,18.264221 13.291696,25.230495 11.500037,31.436501 z"
     style="fill:#404040;"/>
  </a>
 </g>
</svg>

<style type='text/css'>
<![CDATA[
[data-mouse-over-selected='false'] { opacity: 0.7; }
[data-mouse-over-selected='true']  { opacity: 1.0; }
]]>
</style>
<script type="application/ecmascript"><![CDATA[
document.addEventListener('DOMContentLoaded', (event) => {
  highlightEdges();
  highlightAdjacentNodes();
});
]]></script>
</svg>
