<?xml version="1.0" encoding="UTF-8" standalone="no"?>
<!DOCTYPE svg PUBLIC "-//W3C//DTD SVG 1.1//EN"
 "http://www.w3.org/Graphics/SVG/1.1/DTD/svg11.dtd">
<!-- Generated by graphviz version 12.2.1 (20241206.2353)
 -->
<!-- Title: LoginWindow::LoginWindow Pages: 1 -->
<svg width="691pt" height="138pt"
 viewBox="0.00 0.00 690.75 138.25" xmlns="http://www.w3.org/2000/svg" xmlns:xlink="http://www.w3.org/1999/xlink">
<g id="graph0" class="graph" transform="scale(1 1) rotate(0) translate(4 134.25)">
<title>LoginWindow::LoginWindow</title>
<!-- Node1 -->
<g id="Node000001" class="node">
<title>Node1</title>
<g id="a_Node000001"><a xlink:title="Constructor that sets up the UI components for login and signup.">
<polygon fill="#999999" stroke="#666666" points="139,-74.25 0,-74.25 0,-55 139,-55 139,-74.25"/>
<text text-anchor="middle" x="69.5" y="-60.75" font-family="Helvetica,sans-Serif" font-size="10.00">LoginWindow::LoginWindow</text>
</a>
</g>
</g>
<!-- Node2 -->
<g id="Node000002" class="node">
<title>Node2</title>
<g id="a_Node000002"><a xlink:href="../../de/d74/class_login_window.html#a4677fdb497a115ea633069d51eb03944" target="_top" xlink:title="Emits the loginRequested signal with current input from login fields.">
<polygon fill="white" stroke="#666666" points="321.5,-130.25 184.75,-130.25 184.75,-111 321.5,-111 321.5,-130.25"/>
<text text-anchor="middle" x="253.12" y="-116.75" font-family="Helvetica,sans-Serif" font-size="10.00">LoginWindow::attemptLogin</text>
</a>
</g>
</g>
<!-- Node1&#45;&gt;Node2 -->
<g id="edge1_Node000001_Node000002" class="edge">
<title>Node1&#45;&gt;Node2</title>
<g id="a_edge1_Node000001_Node000002"><a xlink:title=" ">
<path fill="none" stroke="#63b8ff" d="M95.56,-74.69C116.55,-82.9 147.43,-94.43 175,-102.62 181.16,-104.46 187.65,-106.22 194.13,-107.88"/>
<polygon fill="#63b8ff" stroke="#63b8ff" points="192.97,-111.2 203.52,-110.2 194.65,-104.4 192.97,-111.2"/>
</a>
</g>
</g>
<!-- Node6 -->
<g id="Node000006" class="node">
<title>Node6</title>
<g id="a_Node000006"><a xlink:href="../../de/d74/class_login_window.html#a70f65bf3f12674754e167540444b7009" target="_top" xlink:title="Emits the signupRequested signal with current input from signup fields.">
<polygon fill="white" stroke="#666666" points="324.88,-93.25 181.38,-93.25 181.38,-74 324.88,-74 324.88,-93.25"/>
<text text-anchor="middle" x="253.12" y="-79.75" font-family="Helvetica,sans-Serif" font-size="10.00">LoginWindow::attemptSignup</text>
</a>
</g>
</g>
<!-- Node1&#45;&gt;Node6 -->
<g id="edge5_Node000001_Node000006" class="edge">
<title>Node1&#45;&gt;Node6</title>
<g id="a_edge5_Node000001_Node000006"><a xlink:title=" ">
<path fill="none" stroke="#63b8ff" d="M139.42,-71.84C149.34,-72.87 159.63,-73.95 169.77,-75.01"/>
<polygon fill="#63b8ff" stroke="#63b8ff" points="169.32,-78.48 179.63,-76.04 170.05,-71.52 169.32,-78.48"/>
</a>
</g>
</g>
<!-- Node8 -->
<g id="Node000008" class="node">
<title>Node8</title>
<g id="a_Node000008"><a xlink:href="../../de/d74/class_login_window.html#ac5d204dd749d28fdbdcda5a6080339b4" target="_top" xlink:title="Switches the QStackedWidget to display the login page.">
<polygon fill="white" stroke="#666666" points="327.88,-56.25 178.38,-56.25 178.38,-37 327.88,-37 327.88,-56.25"/>
<text text-anchor="middle" x="253.12" y="-42.75" font-family="Helvetica,sans-Serif" font-size="10.00">LoginWindow::showLoginPage</text>
</a>
</g>
</g>
<!-- Node1&#45;&gt;Node8 -->
<g id="edge9_Node000001_Node000008" class="edge">
<title>Node1&#45;&gt;Node8</title>
<g id="a_edge9_Node000001_Node000008"><a xlink:title=" ">
<path fill="none" stroke="#63b8ff" d="M139.42,-57.79C148.41,-56.9 157.71,-55.98 166.92,-55.07"/>
<polygon fill="#63b8ff" stroke="#63b8ff" points="166.99,-58.58 176.59,-54.11 166.3,-51.61 166.99,-58.58"/>
</a>
</g>
</g>
<!-- Node9 -->
<g id="Node000009" class="node">
<title>Node9</title>
<g id="a_Node000009"><a xlink:href="../../de/d74/class_login_window.html#a090d7c9a09bfc32e168c090c95f6cb54" target="_top" xlink:title="Switches the QStackedWidget to display the signup page.">
<polygon fill="white" stroke="#666666" points="331.25,-19.25 175,-19.25 175,0 331.25,0 331.25,-19.25"/>
<text text-anchor="middle" x="253.12" y="-5.75" font-family="Helvetica,sans-Serif" font-size="10.00">LoginWindow::showSignupPage</text>
</a>
</g>
</g>
<!-- Node1&#45;&gt;Node9 -->
<g id="edge10_Node000001_Node000009" class="edge">
<title>Node1&#45;&gt;Node9</title>
<g id="a_edge10_Node000001_Node000009"><a xlink:title=" ">
<path fill="none" stroke="#63b8ff" d="M96.43,-54.54C117.42,-46.59 147.85,-35.57 175,-27.62 181.17,-25.82 187.66,-24.07 194.15,-22.42"/>
<polygon fill="#63b8ff" stroke="#63b8ff" points="194.66,-25.9 203.54,-20.11 192.99,-19.1 194.66,-25.9"/>
</a>
</g>
</g>
<!-- Node3 -->
<g id="Node000003" class="node">
<title>Node3</title>
<g id="a_Node000003"><a xlink:href="../../de/d74/class_login_window.html#a075f5a5f9da1f4b202aec66d6bd7ec76" target="_top" xlink:title="Emitted when the user attempts to log in with the provided credentials.">
<polygon fill="white" stroke="#666666" points="519.38,-130.25 371.38,-130.25 371.38,-111 519.38,-111 519.38,-130.25"/>
<text text-anchor="middle" x="445.38" y="-116.75" font-family="Helvetica,sans-Serif" font-size="10.00">LoginWindow::loginRequested</text>
</a>
</g>
</g>
<!-- Node2&#45;&gt;Node3 -->
<g id="edge2_Node000002_Node000003" class="edge">
<title>Node2&#45;&gt;Node3</title>
<g id="a_edge2_Node000002_Node000003"><a xlink:title=" ">
<path fill="none" stroke="#63b8ff" d="M321.74,-120.62C334.13,-120.62 347.2,-120.62 360.01,-120.62"/>
<polygon fill="#63b8ff" stroke="#63b8ff" points="359.66,-124.13 369.66,-120.63 359.66,-117.13 359.66,-124.13"/>
</a>
</g>
</g>
<!-- Node4 -->
<g id="Node000004" class="node">
<title>Node4</title>
<g id="a_Node000004"><a xlink:href="../../de/d74/class_login_window.html#ab207055cd16762112d1facbd35da9c25" target="_top" xlink:title="Returns the password entered in the currently active input field (login or signup).">
<polygon fill="white" stroke="#666666" points="682.38,-130.25 559.88,-130.25 559.88,-111 682.38,-111 682.38,-130.25"/>
<text text-anchor="middle" x="621.12" y="-116.75" font-family="Helvetica,sans-Serif" font-size="10.00">LoginWindow::password</text>
</a>
</g>
</g>
<!-- Node3&#45;&gt;Node4 -->
<g id="edge3_Node000003_Node000004" class="edge">
<title>Node3&#45;&gt;Node4</title>
<g id="a_edge3_Node000003_Node000004"><a xlink:title=" ">
<path fill="none" stroke="#63b8ff" d="M519.81,-120.62C529.22,-120.62 538.86,-120.62 548.25,-120.62"/>
<polygon fill="#63b8ff" stroke="#63b8ff" points="548.04,-124.13 558.04,-120.63 548.04,-117.13 548.04,-124.13"/>
</a>
</g>
</g>
<!-- Node5 -->
<g id="Node000005" class="node">
<title>Node5</title>
<g id="a_Node000005"><a xlink:href="../../de/d74/class_login_window.html#a2b28bf4bc7080e39afb0d096d212e0a0" target="_top" xlink:title="Returns the username entered in the currently active input field (login or signup).">
<polygon fill="white" stroke="#666666" points="682.75,-93.25 559.5,-93.25 559.5,-74 682.75,-74 682.75,-93.25"/>
<text text-anchor="middle" x="621.12" y="-79.75" font-family="Helvetica,sans-Serif" font-size="10.00">LoginWindow::username</text>
</a>
</g>
</g>
<!-- Node3&#45;&gt;Node5 -->
<g id="edge4_Node000003_Node000005" class="edge">
<title>Node3&#45;&gt;Node5</title>
<g id="a_edge4_Node000003_Node000005"><a xlink:title=" ">
<path fill="none" stroke="#63b8ff" d="M493.85,-110.51C514.73,-106.07 539.46,-100.8 561.47,-96.11"/>
<polygon fill="#63b8ff" stroke="#63b8ff" points="562.17,-99.54 571.22,-94.04 560.71,-92.7 562.17,-99.54"/>
</a>
</g>
</g>
<!-- Node7 -->
<g id="Node000007" class="node">
<title>Node7</title>
<g id="a_Node000007"><a xlink:href="../../de/d74/class_login_window.html#ae166943123818d0b0a3dcdcf66380994" target="_top" xlink:title="Emitted when the user attempts to sign up with the provided credentials. (Admin flag is currently har...">
<polygon fill="white" stroke="#666666" points="523.5,-93.25 367.25,-93.25 367.25,-74 523.5,-74 523.5,-93.25"/>
<text text-anchor="middle" x="445.38" y="-79.75" font-family="Helvetica,sans-Serif" font-size="10.00">LoginWindow::signupRequested</text>
</a>
</g>
</g>
<!-- Node6&#45;&gt;Node7 -->
<g id="edge6_Node000006_Node000007" class="edge">
<title>Node6&#45;&gt;Node7</title>
<g id="a_edge6_Node000006_Node000007"><a xlink:title=" ">
<path fill="none" stroke="#63b8ff" d="M325.24,-83.62C335.13,-83.62 345.39,-83.62 355.56,-83.62"/>
<polygon fill="#63b8ff" stroke="#63b8ff" points="355.46,-87.13 365.46,-83.63 355.46,-80.13 355.46,-87.13"/>
</a>
</g>
</g>
<!-- Node7&#45;&gt;Node4 -->
<g id="edge7_Node000007_Node000004" class="edge">
<title>Node7&#45;&gt;Node4</title>
<g id="a_edge7_Node000007_Node000004"><a xlink:title=" ">
<path fill="none" stroke="#63b8ff" d="M493.85,-93.74C514.73,-98.18 539.46,-103.45 561.47,-108.14"/>
<polygon fill="#63b8ff" stroke="#63b8ff" points="560.71,-111.55 571.22,-110.21 562.17,-104.71 560.71,-111.55"/>
</a>
</g>
</g>
<!-- Node7&#45;&gt;Node5 -->
<g id="edge8_Node000007_Node000005" class="edge">
<title>Node7&#45;&gt;Node5</title>
<g id="a_edge8_Node000007_Node000005"><a xlink:title=" ">
<path fill="none" stroke="#63b8ff" d="M523.85,-83.62C531.81,-83.62 539.89,-83.62 547.79,-83.62"/>
<polygon fill="#63b8ff" stroke="#63b8ff" points="547.71,-87.13 557.71,-83.63 547.71,-80.13 547.71,-87.13"/>
</a>
</g>
</g>
</g>
</svg>
