<?xml version="1.0" encoding="UTF-8" standalone="no"?>
<!DOCTYPE svg PUBLIC "-//W3C//DTD SVG 1.1//EN"
 "http://www.w3.org/Graphics/SVG/1.1/DTD/svg11.dtd">
<!-- Generated by graphviz version 12.2.1 (20241206.2353)
 -->
<!-- Title: LoginWindow::loginRequested Pages: 1 -->
<svg width="315pt" height="64pt"
 viewBox="0.00 0.00 315.25 64.25" xmlns="http://www.w3.org/2000/svg" xmlns:xlink="http://www.w3.org/1999/xlink">
<g id="graph0" class="graph" transform="scale(1 1) rotate(0) translate(4 60.25)">
<title>LoginWindow::loginRequested</title>
<!-- Node1 -->
<g id="Node000001" class="node">
<title>Node1</title>
<g id="a_Node000001"><a xlink:title="Emitted when the user attempts to log in with the provided credentials.">
<polygon fill="#999999" stroke="#666666" points="148,-37.25 0,-37.25 0,-18 148,-18 148,-37.25"/>
<text text-anchor="middle" x="74" y="-23.75" font-family="Helvetica,sans-Serif" font-size="10.00">LoginWindow::loginRequested</text>
</a>
</g>
</g>
<!-- Node2 -->
<g id="Node000002" class="node">
<title>Node2</title>
<g id="a_Node000002"><a xlink:href="../../de/d74/class_login_window.html#ab207055cd16762112d1facbd35da9c25" target="_top" xlink:title="Returns the password entered in the currently active input field (login or signup).">
<polygon fill="white" stroke="#666666" points="306.88,-56.25 184.38,-56.25 184.38,-37 306.88,-37 306.88,-56.25"/>
<text text-anchor="middle" x="245.62" y="-42.75" font-family="Helvetica,sans-Serif" font-size="10.00">LoginWindow::password</text>
</a>
</g>
</g>
<!-- Node1&#45;&gt;Node2 -->
<g id="edge1_Node000001_Node000002" class="edge">
<title>Node1&#45;&gt;Node2</title>
<g id="a_edge1_Node000001_Node000002"><a xlink:title=" ">
<path fill="none" stroke="#63b8ff" d="M148.41,-35.85C156.51,-36.75 164.74,-37.68 172.82,-38.58"/>
<polygon fill="#63b8ff" stroke="#63b8ff" points="172.26,-42.04 182.59,-39.68 173.04,-35.08 172.26,-42.04"/>
</a>
</g>
</g>
<!-- Node3 -->
<g id="Node000003" class="node">
<title>Node3</title>
<g id="a_Node000003"><a xlink:href="../../de/d74/class_login_window.html#a2b28bf4bc7080e39afb0d096d212e0a0" target="_top" xlink:title="Returns the username entered in the currently active input field (login or signup).">
<polygon fill="white" stroke="#666666" points="307.25,-19.25 184,-19.25 184,0 307.25,0 307.25,-19.25"/>
<text text-anchor="middle" x="245.62" y="-5.75" font-family="Helvetica,sans-Serif" font-size="10.00">LoginWindow::username</text>
</a>
</g>
</g>
<!-- Node1&#45;&gt;Node3 -->
<g id="edge2_Node000001_Node000003" class="edge">
<title>Node1&#45;&gt;Node3</title>
<g id="a_edge2_Node000001_Node000003"><a xlink:title=" ">
<path fill="none" stroke="#63b8ff" d="M148.41,-19.83C156.29,-19 164.31,-18.15 172.18,-17.31"/>
<polygon fill="#63b8ff" stroke="#63b8ff" points="172.49,-20.8 182.07,-16.26 171.75,-13.84 172.49,-20.8"/>
</a>
</g>
</g>
</g>
</svg>
