<?xml version="1.0" encoding="UTF-8" standalone="no"?>
<!DOCTYPE svg PUBLIC "-//W3C//DTD SVG 1.1//EN"
 "http://www.w3.org/Graphics/SVG/1.1/DTD/svg11.dtd">
<!-- Generated by graphviz version 12.2.1 (20241206.2353)
 -->
<!-- Title: /Users/gautam/Local/Forge/Team&#45;Alphawolves/2D&#45;Graphics&#45;Modeler/src/backend/UserManager.h Pages: 1 -->
<svg width="693pt" height="239pt"
 viewBox="0.00 0.00 693.25 239.00" xmlns="http://www.w3.org/2000/svg" xmlns:xlink="http://www.w3.org/1999/xlink">
<g id="graph0" class="graph" transform="scale(1 1) rotate(0) translate(4 235)">
<title>/Users/gautam/Local/Forge/Team&#45;Alphawolves/2D&#45;Graphics&#45;Modeler/src/backend/UserManager.h</title>
<!-- Node1 -->
<g id="Node000001" class="node">
<title>Node1</title>
<g id="a_Node000001"><a xlink:title=" ">
<polygon fill="#999999" stroke="#666666" points="457.25,-231 328,-231 328,-178 457.25,-178 457.25,-231"/>
<text text-anchor="start" x="336" y="-217.5" font-family="Helvetica,sans-Serif" font-size="10.00">/Users/gautam/Local</text>
<text text-anchor="start" x="336" y="-206.25" font-family="Helvetica,sans-Serif" font-size="10.00">/Forge/Team&#45;Alphawolves</text>
<text text-anchor="start" x="336" y="-195" font-family="Helvetica,sans-Serif" font-size="10.00">/2D&#45;Graphics&#45;Modeler/src</text>
<text text-anchor="middle" x="392.62" y="-183.75" font-family="Helvetica,sans-Serif" font-size="10.00">/backend/UserManager.h</text>
</a>
</g>
</g>
<!-- Node2 -->
<g id="Node000002" class="node">
<title>Node2</title>
<g id="a_Node000002"><a xlink:href="../../dc/dbb/_app_driver_8h.html" target="_top" xlink:title=" ">
<polygon fill="white" stroke="#666666" points="303.25,-142 174,-142 174,-89 303.25,-89 303.25,-142"/>
<text text-anchor="start" x="182" y="-128.5" font-family="Helvetica,sans-Serif" font-size="10.00">/Users/gautam/Local</text>
<text text-anchor="start" x="182" y="-117.25" font-family="Helvetica,sans-Serif" font-size="10.00">/Forge/Team&#45;Alphawolves</text>
<text text-anchor="start" x="182" y="-106" font-family="Helvetica,sans-Serif" font-size="10.00">/2D&#45;Graphics&#45;Modeler/src</text>
<text text-anchor="middle" x="238.62" y="-94.75" font-family="Helvetica,sans-Serif" font-size="10.00">/backend/AppDriver.h</text>
</a>
</g>
</g>
<!-- Node1&#45;&gt;Node2 -->
<g id="edge1_Node000001_Node000002" class="edge">
<title>Node1&#45;&gt;Node2</title>
<g id="a_edge1_Node000001_Node000002"><a xlink:title=" ">
<path fill="none" stroke="#63b8ff" d="M336.91,-172.03C319.71,-162.31 300.96,-151.72 284.5,-142.42"/>
<polygon fill="#63b8ff" stroke="#63b8ff" points="335.09,-175.02 345.52,-176.89 338.53,-168.92 335.09,-175.02"/>
</a>
</g>
</g>
<!-- Node4 -->
<g id="Node000004" class="node">
<title>Node4</title>
<g id="a_Node000004"><a xlink:href="../../d8/d80/src_2backend_2main_8cpp.html" target="_top" xlink:title=" ">
<polygon fill="white" stroke="#666666" points="423.25,-53 294,-53 294,0 423.25,0 423.25,-53"/>
<text text-anchor="start" x="302" y="-39.5" font-family="Helvetica,sans-Serif" font-size="10.00">/Users/gautam/Local</text>
<text text-anchor="start" x="302" y="-28.25" font-family="Helvetica,sans-Serif" font-size="10.00">/Forge/Team&#45;Alphawolves</text>
<text text-anchor="start" x="302" y="-17" font-family="Helvetica,sans-Serif" font-size="10.00">/2D&#45;Graphics&#45;Modeler/src</text>
<text text-anchor="middle" x="358.62" y="-5.75" font-family="Helvetica,sans-Serif" font-size="10.00">/backend/main.cpp</text>
</a>
</g>
</g>
<!-- Node1&#45;&gt;Node4 -->
<g id="edge6_Node000001_Node000004" class="edge">
<title>Node1&#45;&gt;Node4</title>
<g id="a_edge6_Node000001_Node000004"><a xlink:title=" ">
<path fill="none" stroke="#63b8ff" d="M372.73,-167.44C369.06,-159.29 365.73,-150.53 363.62,-142 356.28,-112.25 355.96,-76.86 356.87,-53.38"/>
<polygon fill="#63b8ff" stroke="#63b8ff" points="369.53,-168.85 377.01,-176.35 375.83,-165.82 369.53,-168.85"/>
</a>
</g>
</g>
<!-- Node6 -->
<g id="Node000006" class="node">
<title>Node6</title>
<g id="a_Node000006"><a xlink:href="../../d4/d3b/_user_manager_8cpp.html" target="_top" xlink:title=" ">
<polygon fill="white" stroke="#666666" points="508.25,-142 373,-142 373,-89 508.25,-89 508.25,-142"/>
<text text-anchor="start" x="381" y="-128.5" font-family="Helvetica,sans-Serif" font-size="10.00">/Users/gautam/Local</text>
<text text-anchor="start" x="381" y="-117.25" font-family="Helvetica,sans-Serif" font-size="10.00">/Forge/Team&#45;Alphawolves</text>
<text text-anchor="start" x="381" y="-106" font-family="Helvetica,sans-Serif" font-size="10.00">/2D&#45;Graphics&#45;Modeler/src</text>
<text text-anchor="middle" x="440.62" y="-94.75" font-family="Helvetica,sans-Serif" font-size="10.00">/backend/UserManager.cpp</text>
</a>
</g>
</g>
<!-- Node1&#45;&gt;Node6 -->
<g id="edge5_Node000001_Node000006" class="edge">
<title>Node1&#45;&gt;Node6</title>
<g id="a_edge5_Node000001_Node000006"><a xlink:title=" ">
<path fill="none" stroke="#63b8ff" d="M412.2,-168.02C416.96,-159.39 421.96,-150.33 426.42,-142.25"/>
<polygon fill="#63b8ff" stroke="#63b8ff" points="409.26,-166.1 407.5,-176.54 415.39,-169.48 409.26,-166.1"/>
</a>
</g>
</g>
<!-- Node7 -->
<g id="Node000007" class="node">
<title>Node7</title>
<g id="a_Node000007"><a xlink:href="../../de/d9f/moc___user_manager_8cpp.html" target="_top" xlink:title=" ">
<polygon fill="white" stroke="#666666" points="685.25,-142 526,-142 526,-89 685.25,-89 685.25,-142"/>
<text text-anchor="start" x="534" y="-128.5" font-family="Helvetica,sans-Serif" font-size="10.00">/Users/gautam/Local</text>
<text text-anchor="start" x="534" y="-117.25" font-family="Helvetica,sans-Serif" font-size="10.00">/Forge/Team&#45;Alphawolves</text>
<text text-anchor="start" x="534" y="-106" font-family="Helvetica,sans-Serif" font-size="10.00">/2D&#45;Graphics&#45;Modeler/src</text>
<text text-anchor="middle" x="605.62" y="-94.75" font-family="Helvetica,sans-Serif" font-size="10.00">/backend/moc_UserManager.cpp</text>
</a>
</g>
</g>
<!-- Node1&#45;&gt;Node7 -->
<g id="edge7_Node000001_Node000007" class="edge">
<title>Node1&#45;&gt;Node7</title>
<g id="a_edge7_Node000001_Node000007"><a xlink:title=" ">
<path fill="none" stroke="#63b8ff" d="M466.64,-173.27C491.31,-163.19 518.55,-152.06 542.33,-142.35"/>
<polygon fill="#63b8ff" stroke="#63b8ff" points="465.58,-169.92 457.64,-176.94 468.23,-176.4 465.58,-169.92"/>
</a>
</g>
</g>
<!-- Node3 -->
<g id="Node000003" class="node">
<title>Node3</title>
<g id="a_Node000003"><a xlink:href="../../dc/df3/_app_driver_8cpp.html" target="_top" xlink:title=" ">
<polygon fill="white" stroke="#666666" points="129.25,-53 0,-53 0,0 129.25,0 129.25,-53"/>
<text text-anchor="start" x="8" y="-39.5" font-family="Helvetica,sans-Serif" font-size="10.00">/Users/gautam/Local</text>
<text text-anchor="start" x="8" y="-28.25" font-family="Helvetica,sans-Serif" font-size="10.00">/Forge/Team&#45;Alphawolves</text>
<text text-anchor="start" x="8" y="-17" font-family="Helvetica,sans-Serif" font-size="10.00">/2D&#45;Graphics&#45;Modeler/src</text>
<text text-anchor="middle" x="64.62" y="-5.75" font-family="Helvetica,sans-Serif" font-size="10.00">/backend/AppDriver.cpp</text>
</a>
</g>
</g>
<!-- Node2&#45;&gt;Node3 -->
<g id="edge2_Node000002_Node000003" class="edge">
<title>Node2&#45;&gt;Node3</title>
<g id="a_edge2_Node000002_Node000003"><a xlink:title=" ">
<path fill="none" stroke="#63b8ff" d="M176.77,-83.57C157.03,-73.7 135.41,-62.89 116.46,-53.42"/>
<polygon fill="#63b8ff" stroke="#63b8ff" points="175.03,-86.61 185.54,-87.96 178.16,-80.35 175.03,-86.61"/>
</a>
</g>
</g>
<!-- Node2&#45;&gt;Node4 -->
<g id="edge3_Node000002_Node000004" class="edge">
<title>Node2&#45;&gt;Node4</title>
<g id="a_edge3_Node000002_Node000004"><a xlink:title=" ">
<path fill="none" stroke="#63b8ff" d="M283.54,-81.93C296.53,-72.52 310.53,-62.37 322.88,-53.42"/>
<polygon fill="#63b8ff" stroke="#63b8ff" points="281.57,-79.04 275.53,-87.74 285.68,-84.71 281.57,-79.04"/>
</a>
</g>
</g>
<!-- Node5 -->
<g id="Node000005" class="node">
<title>Node5</title>
<g id="a_Node000005"><a xlink:href="../../d2/d21/src_2frontend_2main_8cpp.html" target="_top" xlink:title="Main entry point for the 2D Graphics Modeler application.">
<polygon fill="white" stroke="#666666" points="276.25,-53 147,-53 147,0 276.25,0 276.25,-53"/>
<text text-anchor="start" x="155" y="-39.5" font-family="Helvetica,sans-Serif" font-size="10.00">/Users/gautam/Local</text>
<text text-anchor="start" x="155" y="-28.25" font-family="Helvetica,sans-Serif" font-size="10.00">/Forge/Team&#45;Alphawolves</text>
<text text-anchor="start" x="155" y="-17" font-family="Helvetica,sans-Serif" font-size="10.00">/2D&#45;Graphics&#45;Modeler/src</text>
<text text-anchor="middle" x="211.62" y="-5.75" font-family="Helvetica,sans-Serif" font-size="10.00">/frontend/main.cpp</text>
</a>
</g>
</g>
<!-- Node2&#45;&gt;Node5 -->
<g id="edge4_Node000002_Node000005" class="edge">
<title>Node2&#45;&gt;Node5</title>
<g id="a_edge4_Node000002_Node000005"><a xlink:title=" ">
<path fill="none" stroke="#63b8ff" d="M227.27,-77.9C224.69,-69.61 222.01,-60.98 219.62,-53.25"/>
<polygon fill="#63b8ff" stroke="#63b8ff" points="223.91,-78.91 230.22,-87.42 230.6,-76.83 223.91,-78.91"/>
</a>
</g>
</g>
</g>
</svg>
