<?xml version="1.0" encoding="UTF-8" standalone="no"?>
<!DOCTYPE svg PUBLIC "-//W3C//DTD SVG 1.1//EN"
 "http://www.w3.org/Graphics/SVG/1.1/DTD/svg11.dtd">
<!-- Generated by graphviz version 12.2.1 (20241206.2353)
 -->
<!-- Title: TestimonialManager::checkTimeAndPrompt Pages: 1 -->
<svg width="309pt" height="137pt"
 viewBox="0.00 0.00 308.50 136.50" xmlns="http://www.w3.org/2000/svg" xmlns:xlink="http://www.w3.org/1999/xlink">
<g id="graph0" class="graph" transform="scale(1 1) rotate(0) translate(4 132.5)">
<title>TestimonialManager::checkTimeAndPrompt</title>
<!-- Node1 -->
<g id="Node000001" class="node">
<title>Node1</title>
<g id="a_Node000001"><a xlink:title="Checks accumulated user time and emits shouldPromptForTestimonial if criteria are met.">
<polygon fill="#999999" stroke="#666666" points="118.75,-79.5 0,-79.5 0,-49 118.75,-49 118.75,-79.5"/>
<text text-anchor="start" x="8" y="-66" font-family="Helvetica,sans-Serif" font-size="10.00">TestimonialManager</text>
<text text-anchor="middle" x="59.38" y="-54.75" font-family="Helvetica,sans-Serif" font-size="10.00">::checkTimeAndPrompt</text>
</a>
</g>
</g>
<!-- Node2 -->
<g id="Node000002" class="node">
<title>Node2</title>
<g id="a_Node000002"><a xlink:href="../../d4/d0d/class_testimonial_manager.html#a1ebec1a781a7508501e398bb042a0b2d" target="_top" xlink:title="Retrieves the &quot;do not show again&quot; preference for a user.">
<polygon fill="white" stroke="#666666" points="284.38,-128.5 170.88,-128.5 170.88,-98 284.38,-98 284.38,-128.5"/>
<text text-anchor="start" x="178.88" y="-115" font-family="Helvetica,sans-Serif" font-size="10.00">TestimonialManager</text>
<text text-anchor="middle" x="227.62" y="-103.75" font-family="Helvetica,sans-Serif" font-size="10.00">::getDoNotShowAgain</text>
</a>
</g>
</g>
<!-- Node1&#45;&gt;Node2 -->
<g id="edge1_Node000001_Node000002" class="edge">
<title>Node1&#45;&gt;Node2</title>
<g id="a_edge1_Node000001_Node000002"><a xlink:title=" ">
<path fill="none" stroke="#63b8ff" d="M113.43,-79.89C128.95,-84.46 146.09,-89.51 162.23,-94.27"/>
<polygon fill="#63b8ff" stroke="#63b8ff" points="161.18,-97.61 171.76,-97.08 163.16,-90.9 161.18,-97.61"/>
</a>
</g>
</g>
<!-- Node3 -->
<g id="Node000003" class="node">
<title>Node3</title>
<g id="a_Node000003"><a xlink:href="../../d4/d0d/class_testimonial_manager.html#a9466acdac4dddfe8947b41cb637cb556" target="_top" xlink:title="Checks if a user with the given username has already submitted a testimonial.">
<polygon fill="white" stroke="#666666" points="294.5,-79.5 160.75,-79.5 160.75,-49 294.5,-49 294.5,-79.5"/>
<text text-anchor="start" x="168.75" y="-66" font-family="Helvetica,sans-Serif" font-size="10.00">TestimonialManager</text>
<text text-anchor="middle" x="227.62" y="-54.75" font-family="Helvetica,sans-Serif" font-size="10.00">::hasUserGivenTestimonial</text>
</a>
</g>
</g>
<!-- Node1&#45;&gt;Node3 -->
<g id="edge2_Node000001_Node000003" class="edge">
<title>Node1&#45;&gt;Node3</title>
<g id="a_edge2_Node000001_Node000003"><a xlink:title=" ">
<path fill="none" stroke="#63b8ff" d="M118.99,-64.25C128.7,-64.25 138.9,-64.25 149,-64.25"/>
<polygon fill="#63b8ff" stroke="#63b8ff" points="148.81,-67.75 158.81,-64.25 148.81,-60.75 148.81,-67.75"/>
</a>
</g>
</g>
<!-- Node4 -->
<g id="Node000004" class="node">
<title>Node4</title>
<g id="a_Node000004"><a xlink:href="../../d4/d0d/class_testimonial_manager.html#ade7e70f55550c1417ab7d0ca7b3b3142" target="_top" xlink:title="Emitted to prompt the user for a testimonial.">
<polygon fill="white" stroke="#666666" points="300.5,-30.5 154.75,-30.5 154.75,0 300.5,0 300.5,-30.5"/>
<text text-anchor="start" x="162.75" y="-17" font-family="Helvetica,sans-Serif" font-size="10.00">TestimonialManager</text>
<text text-anchor="middle" x="227.62" y="-5.75" font-family="Helvetica,sans-Serif" font-size="10.00">::shouldPromptForTestimonial</text>
</a>
</g>
</g>
<!-- Node1&#45;&gt;Node4 -->
<g id="edge3_Node000001_Node000004" class="edge">
<title>Node1&#45;&gt;Node4</title>
<g id="a_edge3_Node000001_Node000004"><a xlink:title=" ">
<path fill="none" stroke="#63b8ff" d="M113.43,-48.61C128.95,-44.04 146.09,-38.99 162.23,-34.23"/>
<polygon fill="#63b8ff" stroke="#63b8ff" points="163.16,-37.6 171.76,-31.42 161.18,-30.89 163.16,-37.6"/>
</a>
</g>
</g>
</g>
</svg>
