<?xml version="1.0" encoding="UTF-8" standalone="no"?>
<!DOCTYPE svg PUBLIC "-//W3C//DTD SVG 1.1//EN"
 "http://www.w3.org/Graphics/SVG/1.1/DTD/svg11.dtd">
<!-- Generated by graphviz version 12.2.1 (20241206.2353)
 -->
<!-- Title: TestimonialManager::getSatisfactoryTestimonials Pages: 1 -->
<svg width="492pt" height="39pt"
 viewBox="0.00 0.00 491.75 38.50" xmlns="http://www.w3.org/2000/svg" xmlns:xlink="http://www.w3.org/1999/xlink">
<g id="graph0" class="graph" transform="scale(1 1) rotate(0) translate(4 34.5)">
<title>TestimonialManager::getSatisfactoryTestimonials</title>
<!-- Node1 -->
<g id="Node000001" class="node">
<title>Node1</title>
<g id="a_Node000001"><a xlink:title="Returns a vector of testimonials marked as satisfactory.">
<polygon fill="#999999" stroke="#666666" points="483.75,-30.5 341,-30.5 341,0 483.75,0 483.75,-30.5"/>
<text text-anchor="start" x="349" y="-17" font-family="Helvetica,sans-Serif" font-size="10.00">TestimonialManager</text>
<text text-anchor="middle" x="412.38" y="-5.75" font-family="Helvetica,sans-Serif" font-size="10.00">::getSatisfactoryTestimonials</text>
</a>
</g>
</g>
<!-- Node2 -->
<g id="Node000002" class="node">
<title>Node2</title>
<g id="a_Node000002"><a xlink:href="../../d8/d62/class_testimonials_display_dialog.html#a3176c00727ade2c7890937cf50b58d6f" target="_top" xlink:title="Refreshes the displayed list of testimonials.">
<polygon fill="white" stroke="#666666" points="305,-30.5 173.5,-30.5 173.5,0 305,0 305,-30.5"/>
<text text-anchor="start" x="181.5" y="-17" font-family="Helvetica,sans-Serif" font-size="10.00">TestimonialsDisplayDialog</text>
<text text-anchor="middle" x="239.25" y="-5.75" font-family="Helvetica,sans-Serif" font-size="10.00">::refreshTestimonials</text>
</a>
</g>
</g>
<!-- Node1&#45;&gt;Node2 -->
<g id="edge1_Node000001_Node000002" class="edge">
<title>Node1&#45;&gt;Node2</title>
<g id="a_edge1_Node000001_Node000002"><a xlink:title=" ">
<path fill="none" stroke="#63b8ff" d="M329.46,-15.25C321.41,-15.25 313.31,-15.25 305.46,-15.25"/>
<polygon fill="#63b8ff" stroke="#63b8ff" points="329.27,-18.75 339.27,-15.25 329.27,-11.75 329.27,-18.75"/>
</a>
</g>
</g>
<!-- Node3 -->
<g id="Node000003" class="node">
<title>Node3</title>
<g id="a_Node000003"><a xlink:href="../../d8/d62/class_testimonials_display_dialog.html#a4e2ab02e7129d2f299f13a6dc4538272" target="_top" xlink:title="Constructs a TestimonialsDisplayDialog.">
<polygon fill="white" stroke="#666666" points="137.5,-30.5 0,-30.5 0,0 137.5,0 137.5,-30.5"/>
<text text-anchor="start" x="8" y="-17" font-family="Helvetica,sans-Serif" font-size="10.00">TestimonialsDisplayDialog</text>
<text text-anchor="middle" x="68.75" y="-5.75" font-family="Helvetica,sans-Serif" font-size="10.00">::TestimonialsDisplayDialog</text>
</a>
</g>
</g>
<!-- Node2&#45;&gt;Node3 -->
<g id="edge2_Node000002_Node000003" class="edge">
<title>Node2&#45;&gt;Node3</title>
<g id="a_edge2_Node000002_Node000003"><a xlink:title=" ">
<path fill="none" stroke="#63b8ff" d="M161.85,-15.25C153.83,-15.25 145.71,-15.25 137.79,-15.25"/>
<polygon fill="#63b8ff" stroke="#63b8ff" points="161.59,-18.75 171.59,-15.25 161.59,-11.75 161.59,-18.75"/>
</a>
</g>
</g>
</g>
</svg>
