<?xml version="1.0" encoding="UTF-8" standalone="no"?>
<!DOCTYPE svg PUBLIC "-//W3C//DTD SVG 1.1//EN"
 "http://www.w3.org/Graphics/SVG/1.1/DTD/svg11.dtd">
<!-- Generated by graphviz version 12.2.1 (20241206.2353)
 -->
<!-- Title: TestimonialManager::getInstance Pages: 1 -->
<svg width="605pt" height="383pt"
 viewBox="0.00 0.00 604.50 382.88" xmlns="http://www.w3.org/2000/svg" xmlns:xlink="http://www.w3.org/1999/xlink">
<g id="graph0" class="graph" transform="scale(1 1) rotate(0) translate(4 378.88)">
<title>TestimonialManager::getInstance</title>
<!-- Node1 -->
<g id="Node000001" class="node">
<title>Node1</title>
<g id="a_Node000001"><a xlink:title="Returns a reference to the singleton TestimonialManager instance.">
<polygon fill="#999999" stroke="#666666" points="103,-220.5 0,-220.5 0,-190 103,-190 103,-220.5"/>
<text text-anchor="start" x="8" y="-207" font-family="Helvetica,sans-Serif" font-size="10.00">TestimonialManager</text>
<text text-anchor="middle" x="51.5" y="-195.75" font-family="Helvetica,sans-Serif" font-size="10.00">::getInstance</text>
</a>
</g>
</g>
<!-- Node2 -->
<g id="Node000002" class="node">
<title>Node2</title>
<g id="a_Node000002"><a xlink:href="../../d4/d0d/class_testimonial_manager.html#aded0ef0783e1e67e701f7c3bf3a80072" target="_top" xlink:title="Private constructor to enforce singleton pattern. Initializes API connections and timer.">
<polygon fill="white" stroke="#666666" points="248,-220.5 139,-220.5 139,-190 248,-190 248,-220.5"/>
<text text-anchor="start" x="147" y="-207" font-family="Helvetica,sans-Serif" font-size="10.00">TestimonialManager</text>
<text text-anchor="middle" x="193.5" y="-195.75" font-family="Helvetica,sans-Serif" font-size="10.00">::TestimonialManager</text>
</a>
</g>
</g>
<!-- Node1&#45;&gt;Node2 -->
<g id="edge1_Node000001_Node000002" class="edge">
<title>Node1&#45;&gt;Node2</title>
<g id="a_edge1_Node000001_Node000002"><a xlink:title=" ">
<path fill="none" stroke="#63b8ff" d="M103.44,-205.25C111.11,-205.25 119.11,-205.25 127.03,-205.25"/>
<polygon fill="#63b8ff" stroke="#63b8ff" points="127.02,-208.75 137.02,-205.25 127.02,-201.75 127.02,-208.75"/>
</a>
</g>
</g>
<!-- Node3 -->
<g id="Node000003" class="node">
<title>Node3</title>
<g id="a_Node000003"><a xlink:href="../../d2/dd1/class_api_client.html#ae22339e302eb27bc51fbdfc1b7c1a4ec" target="_top" xlink:title="Signal for a failed request sent to a Get endpoint.">
<polygon fill="white" stroke="#666666" points="409.5,-374.88 289.25,-374.88 289.25,-355.62 409.5,-355.62 409.5,-374.88"/>
<text text-anchor="middle" x="349.38" y="-361.38" font-family="Helvetica,sans-Serif" font-size="10.00">ApiClient::BadGetReply</text>
</a>
</g>
</g>
<!-- Node2&#45;&gt;Node3 -->
<g id="edge2_Node000002_Node000003" class="edge">
<title>Node2&#45;&gt;Node3</title>
<g id="a_edge2_Node000002_Node000003"><a xlink:title=" ">
<path fill="none" stroke="#63b8ff" d="M199.9,-220.71C210.94,-250 238.91,-313.64 284,-347.25 285.34,-348.25 286.73,-349.19 288.16,-350.08"/>
<polygon fill="#63b8ff" stroke="#63b8ff" points="286.29,-353.05 296.78,-354.53 289.5,-346.83 286.29,-353.05"/>
</a>
</g>
</g>
<!-- Node4 -->
<g id="Node000004" class="node">
<title>Node4</title>
<g id="a_Node000004"><a xlink:href="../../d2/dd1/class_api_client.html#ac0f68b238bace3703854d7de15a3bb38" target="_top" xlink:title="Signal for a failed request sent to a Post endpoint.">
<polygon fill="white" stroke="#666666" points="411.75,-337.88 287,-337.88 287,-318.62 411.75,-318.62 411.75,-337.88"/>
<text text-anchor="middle" x="349.38" y="-324.38" font-family="Helvetica,sans-Serif" font-size="10.00">ApiClient::BadPostReply</text>
</a>
</g>
</g>
<!-- Node2&#45;&gt;Node4 -->
<g id="edge3_Node000002_Node000004" class="edge">
<title>Node2&#45;&gt;Node4</title>
<g id="a_edge3_Node000002_Node000004"><a xlink:title=" ">
<path fill="none" stroke="#63b8ff" d="M203.72,-220.77C218.04,-243.55 247.78,-285.85 284,-309.25 286.53,-310.88 289.2,-312.38 291.96,-313.75"/>
<polygon fill="#63b8ff" stroke="#63b8ff" points="290.31,-316.85 300.88,-317.59 293.08,-310.42 290.31,-316.85"/>
</a>
</g>
</g>
<!-- Node5 -->
<g id="Node000005" class="node">
<title>Node5</title>
<g id="a_Node000005"><a xlink:href="../../d4/d0d/class_testimonial_manager.html#a69979eb09835fcb35d804fa169b63f0f" target="_top" xlink:title="Checks accumulated user time and emits shouldPromptForTestimonial if criteria are met.">
<polygon fill="white" stroke="#666666" points="408.75,-300.5 290,-300.5 290,-270 408.75,-270 408.75,-300.5"/>
<text text-anchor="start" x="298" y="-287" font-family="Helvetica,sans-Serif" font-size="10.00">TestimonialManager</text>
<text text-anchor="middle" x="349.38" y="-275.75" font-family="Helvetica,sans-Serif" font-size="10.00">::checkTimeAndPrompt</text>
</a>
</g>
</g>
<!-- Node2&#45;&gt;Node5 -->
<g id="edge4_Node000002_Node000005" class="edge">
<title>Node2&#45;&gt;Node5</title>
<g id="a_edge4_Node000002_Node000005"><a xlink:title=" ">
<path fill="none" stroke="#63b8ff" d="M216.58,-220.83C234.26,-232.87 260,-249.42 284,-261.25 286.71,-262.59 289.52,-263.9 292.38,-265.17"/>
<polygon fill="#63b8ff" stroke="#63b8ff" points="290.9,-268.34 301.47,-269.01 293.62,-261.89 290.9,-268.34"/>
</a>
</g>
</g>
<!-- Node9 -->
<g id="Node000009" class="node">
<title>Node9</title>
<g id="a_Node000009"><a xlink:href="../../d2/dd1/class_api_client.html#a940bf610f9fa472fc660e1ab60203de7" target="_top" xlink:title="Signal for a successful request sent to a Get endpoint.">
<polygon fill="white" stroke="#666666" points="412.5,-251.88 286.25,-251.88 286.25,-232.62 412.5,-232.62 412.5,-251.88"/>
<text text-anchor="middle" x="349.38" y="-238.38" font-family="Helvetica,sans-Serif" font-size="10.00">ApiClient::GoodGetReply</text>
</a>
</g>
</g>
<!-- Node2&#45;&gt;Node9 -->
<g id="edge8_Node000002_Node000009" class="edge">
<title>Node2&#45;&gt;Node9</title>
<g id="a_edge8_Node000002_Node000009"><a xlink:title=" ">
<path fill="none" stroke="#63b8ff" d="M248.32,-218.19C263.66,-221.88 280.36,-225.89 295.63,-229.57"/>
<polygon fill="#63b8ff" stroke="#63b8ff" points="294.45,-232.88 305,-231.82 296.09,-226.08 294.45,-232.88"/>
</a>
</g>
</g>
<!-- Node10 -->
<g id="Node000010" class="node">
<title>Node10</title>
<g id="a_Node000010"><a xlink:href="../../d2/dd1/class_api_client.html#aa2e03a2c693acb0052f80415b453e279" target="_top" xlink:title="Signal for a successful request sent to a Post endpoint.">
<polygon fill="white" stroke="#666666" points="414.75,-214.88 284,-214.88 284,-195.62 414.75,-195.62 414.75,-214.88"/>
<text text-anchor="middle" x="349.38" y="-201.38" font-family="Helvetica,sans-Serif" font-size="10.00">ApiClient::GoodPostReply</text>
</a>
</g>
</g>
<!-- Node2&#45;&gt;Node10 -->
<g id="edge9_Node000002_Node000010" class="edge">
<title>Node2&#45;&gt;Node10</title>
<g id="a_edge9_Node000002_Node000010"><a xlink:title=" ">
<path fill="none" stroke="#63b8ff" d="M248.32,-205.25C256.09,-205.25 264.22,-205.25 272.33,-205.25"/>
<polygon fill="#63b8ff" stroke="#63b8ff" points="272.23,-208.75 282.23,-205.25 272.23,-201.75 272.23,-208.75"/>
</a>
</g>
</g>
<!-- Node11 -->
<g id="Node000011" class="node">
<title>Node11</title>
<g id="a_Node000011"><a xlink:href="../../d4/d0d/class_testimonial_manager.html#aa256bebedcc689ce416c7a2fcade3900" target="_top" xlink:title="Slot called when a GET request for testimonials fails.">
<polygon fill="white" stroke="#666666" points="404.25,-177.5 294.5,-177.5 294.5,-147 404.25,-147 404.25,-177.5"/>
<text text-anchor="start" x="302.5" y="-164" font-family="Helvetica,sans-Serif" font-size="10.00">TestimonialManager</text>
<text text-anchor="middle" x="349.38" y="-152.75" font-family="Helvetica,sans-Serif" font-size="10.00">::onBadGetResponse</text>
</a>
</g>
</g>
<!-- Node2&#45;&gt;Node11 -->
<g id="edge10_Node000002_Node000011" class="edge">
<title>Node2&#45;&gt;Node11</title>
<g id="a_edge10_Node000002_Node000011"><a xlink:title=" ">
<path fill="none" stroke="#63b8ff" d="M248.32,-190.21C259.55,-187.07 271.5,-183.73 283.1,-180.49"/>
<polygon fill="#63b8ff" stroke="#63b8ff" points="283.92,-183.9 292.61,-177.83 282.04,-177.15 283.92,-183.9"/>
</a>
</g>
</g>
<!-- Node12 -->
<g id="Node000012" class="node">
<title>Node12</title>
<g id="a_Node000012"><a xlink:href="../../d4/d0d/class_testimonial_manager.html#acfda7a2d454b513c1c75d8d030a43dd9" target="_top" xlink:title="Slot called when a POST request to save testimonials fails.">
<polygon fill="white" stroke="#666666" points="406.5,-128.5 292.25,-128.5 292.25,-98 406.5,-98 406.5,-128.5"/>
<text text-anchor="start" x="300.25" y="-115" font-family="Helvetica,sans-Serif" font-size="10.00">TestimonialManager</text>
<text text-anchor="middle" x="349.38" y="-103.75" font-family="Helvetica,sans-Serif" font-size="10.00">::onBadPostResponse</text>
</a>
</g>
</g>
<!-- Node2&#45;&gt;Node12 -->
<g id="edge11_Node000002_Node000012" class="edge">
<title>Node2&#45;&gt;Node12</title>
<g id="a_edge11_Node000002_Node000012"><a xlink:title=" ">
<path fill="none" stroke="#63b8ff" d="M212.35,-189.57C229.73,-174.88 257.35,-153.03 284,-138.25 286.85,-136.67 289.82,-135.14 292.86,-133.67"/>
<polygon fill="#63b8ff" stroke="#63b8ff" points="294.29,-136.87 301.95,-129.55 291.4,-130.49 294.29,-136.87"/>
</a>
</g>
</g>
<!-- Node13 -->
<g id="Node000013" class="node">
<title>Node13</title>
<g id="a_Node000013"><a xlink:href="../../d4/d0d/class_testimonial_manager.html#a2a9ada04ab15847f2c1b3c81deb994d7" target="_top" xlink:title="Slot called when a GET request for testimonials succeeds.">
<polygon fill="white" stroke="#666666" points="407.25,-79.5 291.5,-79.5 291.5,-49 407.25,-49 407.25,-79.5"/>
<text text-anchor="start" x="299.5" y="-66" font-family="Helvetica,sans-Serif" font-size="10.00">TestimonialManager</text>
<text text-anchor="middle" x="349.38" y="-54.75" font-family="Helvetica,sans-Serif" font-size="10.00">::onGoodGetResponse</text>
</a>
</g>
</g>
<!-- Node2&#45;&gt;Node13 -->
<g id="edge12_Node000002_Node000013" class="edge">
<title>Node2&#45;&gt;Node13</title>
<g id="a_edge12_Node000002_Node000013"><a xlink:title=" ">
<path fill="none" stroke="#63b8ff" d="M202.86,-189.53C216.68,-164.94 246.52,-117.28 284,-89.25 285.76,-87.93 287.61,-86.67 289.51,-85.47"/>
<polygon fill="#63b8ff" stroke="#63b8ff" points="291.05,-88.62 298.08,-80.69 287.64,-82.51 291.05,-88.62"/>
</a>
</g>
</g>
<!-- Node14 -->
<g id="Node000014" class="node">
<title>Node14</title>
<g id="a_Node000014"><a xlink:href="../../d4/d0d/class_testimonial_manager.html#ad384569c01fdadf0bb38e053a7bee337" target="_top" xlink:title="Slot called when a POST request to save testimonials succeeds.">
<polygon fill="white" stroke="#666666" points="409.5,-30.5 289.25,-30.5 289.25,0 409.5,0 409.5,-30.5"/>
<text text-anchor="start" x="297.25" y="-17" font-family="Helvetica,sans-Serif" font-size="10.00">TestimonialManager</text>
<text text-anchor="middle" x="349.38" y="-5.75" font-family="Helvetica,sans-Serif" font-size="10.00">::onGoodPostResponse</text>
</a>
</g>
</g>
<!-- Node2&#45;&gt;Node14 -->
<g id="edge13_Node000002_Node000014" class="edge">
<title>Node2&#45;&gt;Node14</title>
<g id="a_edge13_Node000002_Node000014"><a xlink:title=" ">
<path fill="none" stroke="#63b8ff" d="M198.89,-189.76C208.79,-157.52 235.82,-82.68 284,-40.25 285.27,-39.14 286.59,-38.07 287.95,-37.05"/>
<polygon fill="#63b8ff" stroke="#63b8ff" points="289.7,-40.08 296.24,-31.75 285.93,-34.18 289.7,-40.08"/>
</a>
</g>
</g>
<!-- Node6 -->
<g id="Node000006" class="node">
<title>Node6</title>
<g id="a_Node000006"><a xlink:href="../../d4/d0d/class_testimonial_manager.html#a1ebec1a781a7508501e398bb042a0b2d" target="_top" xlink:title="Retrieves the &quot;do not show again&quot; preference for a user.">
<polygon fill="white" stroke="#666666" points="580.38,-349.5 466.88,-349.5 466.88,-319 580.38,-319 580.38,-349.5"/>
<text text-anchor="start" x="474.88" y="-336" font-family="Helvetica,sans-Serif" font-size="10.00">TestimonialManager</text>
<text text-anchor="middle" x="523.62" y="-324.75" font-family="Helvetica,sans-Serif" font-size="10.00">::getDoNotShowAgain</text>
</a>
</g>
</g>
<!-- Node5&#45;&gt;Node6 -->
<g id="edge5_Node000005_Node000006" class="edge">
<title>Node5&#45;&gt;Node6</title>
<g id="a_edge5_Node000005_Node000006"><a xlink:title=" ">
<path fill="none" stroke="#63b8ff" d="M405.35,-300.89C421.58,-305.51 439.52,-310.61 456.39,-315.41"/>
<polygon fill="#63b8ff" stroke="#63b8ff" points="455.25,-318.72 465.83,-318.09 457.17,-311.99 455.25,-318.72"/>
</a>
</g>
</g>
<!-- Node7 -->
<g id="Node000007" class="node">
<title>Node7</title>
<g id="a_Node000007"><a xlink:href="../../d4/d0d/class_testimonial_manager.html#a9466acdac4dddfe8947b41cb637cb556" target="_top" xlink:title="Checks if a user with the given username has already submitted a testimonial.">
<polygon fill="white" stroke="#666666" points="590.5,-300.5 456.75,-300.5 456.75,-270 590.5,-270 590.5,-300.5"/>
<text text-anchor="start" x="464.75" y="-287" font-family="Helvetica,sans-Serif" font-size="10.00">TestimonialManager</text>
<text text-anchor="middle" x="523.62" y="-275.75" font-family="Helvetica,sans-Serif" font-size="10.00">::hasUserGivenTestimonial</text>
</a>
</g>
</g>
<!-- Node5&#45;&gt;Node7 -->
<g id="edge6_Node000005_Node000007" class="edge">
<title>Node5&#45;&gt;Node7</title>
<g id="a_edge6_Node000005_Node000007"><a xlink:title=" ">
<path fill="none" stroke="#63b8ff" d="M409.17,-285.25C420.69,-285.25 432.94,-285.25 444.97,-285.25"/>
<polygon fill="#63b8ff" stroke="#63b8ff" points="444.89,-288.75 454.89,-285.25 444.89,-281.75 444.89,-288.75"/>
</a>
</g>
</g>
<!-- Node8 -->
<g id="Node000008" class="node">
<title>Node8</title>
<g id="a_Node000008"><a xlink:href="../../d4/d0d/class_testimonial_manager.html#ade7e70f55550c1417ab7d0ca7b3b3142" target="_top" xlink:title="Emitted to prompt the user for a testimonial.">
<polygon fill="white" stroke="#666666" points="596.5,-251.5 450.75,-251.5 450.75,-221 596.5,-221 596.5,-251.5"/>
<text text-anchor="start" x="458.75" y="-238" font-family="Helvetica,sans-Serif" font-size="10.00">TestimonialManager</text>
<text text-anchor="middle" x="523.62" y="-226.75" font-family="Helvetica,sans-Serif" font-size="10.00">::shouldPromptForTestimonial</text>
</a>
</g>
</g>
<!-- Node5&#45;&gt;Node8 -->
<g id="edge7_Node000005_Node000008" class="edge">
<title>Node5&#45;&gt;Node8</title>
<g id="a_edge7_Node000005_Node000008"><a xlink:title=" ">
<path fill="none" stroke="#63b8ff" d="M405.35,-269.61C421.58,-264.99 439.52,-259.89 456.39,-255.09"/>
<polygon fill="#63b8ff" stroke="#63b8ff" points="457.17,-258.51 465.83,-252.41 455.25,-251.78 457.17,-258.51"/>
</a>
</g>
</g>
</g>
</svg>
