<?xml version="1.0" encoding="UTF-8" standalone="no"?>
<!DOCTYPE svg PUBLIC "-//W3C//DTD SVG 1.1//EN"
 "http://www.w3.org/Graphics/SVG/1.1/DTD/svg11.dtd">
<!-- Generated by graphviz version 12.2.1 (20241206.2353)
 -->
<!-- Title: TestimonialManager::TestimonialManager Pages: 1 -->
<svg width="466pt" height="383pt"
 viewBox="0.00 0.00 465.50 382.88" xmlns="http://www.w3.org/2000/svg" xmlns:xlink="http://www.w3.org/1999/xlink">

<svg id="main" version="1.1" xmlns="http://www.w3.org/2000/svg" xmlns:xlink="http://www.w3.org/1999/xlink" xml:space="preserve">

<style type="text/css"><![CDATA[
.node, .edge {opacity: 0.7;}
.node.selected, .edge.selected {opacity: 1;}
.edge:hover path { stroke: red; }
.edge:hover polygon { stroke: red; fill: red; }
]]></style>
<script type="application/ecmascript" xlink:href="../../svg.min.js"/>
<svg id="graph" class="graph">
<g id="graph0" class="graph" transform="scale(1 1) rotate(0) translate(4 378.88)">
<title>TestimonialManager::TestimonialManager</title>
<!-- Node1 -->
<g id="Node000001" class="node">
<title>Node1</title>
<g id="a_Node000001"><a xlink:title="Private constructor to enforce singleton pattern. Initializes API connections and timer.">
<polygon fill="#999999" stroke="#666666" points="109,-220.5 0,-220.5 0,-190 109,-190 109,-220.5"/>
<text text-anchor="start" x="8" y="-207" font-family="Helvetica,sans-Serif" font-size="10.00">TestimonialManager</text>
<text text-anchor="middle" x="54.5" y="-195.75" font-family="Helvetica,sans-Serif" font-size="10.00">::TestimonialManager</text>
</a>
</g>
</g>
<!-- Node2 -->
<g id="Node000002" class="node">
<title>Node2</title>
<g id="a_Node000002"><a xlink:href="../../d2/dd1/class_api_client.html#ae22339e302eb27bc51fbdfc1b7c1a4ec" target="_top" xlink:title="Signal for a failed request sent to a Get endpoint.">
<polygon fill="white" stroke="#666666" points="270.5,-374.88 150.25,-374.88 150.25,-355.62 270.5,-355.62 270.5,-374.88"/>
<text text-anchor="middle" x="210.38" y="-361.38" font-family="Helvetica,sans-Serif" font-size="10.00">ApiClient::BadGetReply</text>
</a>
</g>
</g>
<!-- Node1&#45;&gt;Node2 -->
<g id="edge1_Node000001_Node000002" class="edge">
<title>Node1&#45;&gt;Node2</title>
<g id="a_edge1_Node000001_Node000002"><a xlink:title=" ">
<path fill="none" stroke="#63b8ff" d="M60.9,-220.71C71.94,-250 99.91,-313.64 145,-347.25 146.34,-348.25 147.73,-349.19 149.16,-350.08"/>
<polygon fill="#63b8ff" stroke="#63b8ff" points="147.29,-353.05 157.78,-354.53 150.5,-346.83 147.29,-353.05"/>
</a>
</g>
</g>
<!-- Node3 -->
<g id="Node000003" class="node">
<title>Node3</title>
<g id="a_Node000003"><a xlink:href="../../d2/dd1/class_api_client.html#ac0f68b238bace3703854d7de15a3bb38" target="_top" xlink:title="Signal for a failed request sent to a Post endpoint.">
<polygon fill="white" stroke="#666666" points="272.75,-337.88 148,-337.88 148,-318.62 272.75,-318.62 272.75,-337.88"/>
<text text-anchor="middle" x="210.38" y="-324.38" font-family="Helvetica,sans-Serif" font-size="10.00">ApiClient::BadPostReply</text>
</a>
</g>
</g>
<!-- Node1&#45;&gt;Node3 -->
<g id="edge2_Node000001_Node000003" class="edge">
<title>Node1&#45;&gt;Node3</title>
<g id="a_edge2_Node000001_Node000003"><a xlink:title=" ">
<path fill="none" stroke="#63b8ff" d="M64.72,-220.77C79.04,-243.55 108.78,-285.85 145,-309.25 147.53,-310.88 150.2,-312.38 152.96,-313.75"/>
<polygon fill="#63b8ff" stroke="#63b8ff" points="151.31,-316.85 161.88,-317.59 154.08,-310.42 151.31,-316.85"/>
</a>
</g>
</g>
<!-- Node4 -->
<g id="Node000004" class="node">
<title>Node4</title>
<g id="a_Node000004"><a xlink:href="../../d4/d0d/class_testimonial_manager.html#a69979eb09835fcb35d804fa169b63f0f" target="_top" xlink:title="Checks accumulated user time and emits shouldPromptForTestimonial if criteria are met.">
<polygon fill="white" stroke="#666666" points="269.75,-300.5 151,-300.5 151,-270 269.75,-270 269.75,-300.5"/>
<text text-anchor="start" x="159" y="-287" font-family="Helvetica,sans-Serif" font-size="10.00">TestimonialManager</text>
<text text-anchor="middle" x="210.38" y="-275.75" font-family="Helvetica,sans-Serif" font-size="10.00">::checkTimeAndPrompt</text>
</a>
</g>
</g>
<!-- Node1&#45;&gt;Node4 -->
<g id="edge3_Node000001_Node000004" class="edge">
<title>Node1&#45;&gt;Node4</title>
<g id="a_edge3_Node000001_Node000004"><a xlink:title=" ">
<path fill="none" stroke="#63b8ff" d="M77.58,-220.83C95.26,-232.87 121,-249.42 145,-261.25 147.71,-262.59 150.52,-263.9 153.38,-265.17"/>
<polygon fill="#63b8ff" stroke="#63b8ff" points="151.9,-268.34 162.47,-269.01 154.62,-261.89 151.9,-268.34"/>
</a>
</g>
</g>
<!-- Node8 -->
<g id="Node000008" class="node">
<title>Node8</title>
<g id="a_Node000008"><a xlink:href="../../d2/dd1/class_api_client.html#a940bf610f9fa472fc660e1ab60203de7" target="_top" xlink:title="Signal for a successful request sent to a Get endpoint.">
<polygon fill="white" stroke="#666666" points="273.5,-251.88 147.25,-251.88 147.25,-232.62 273.5,-232.62 273.5,-251.88"/>
<text text-anchor="middle" x="210.38" y="-238.38" font-family="Helvetica,sans-Serif" font-size="10.00">ApiClient::GoodGetReply</text>
</a>
</g>
</g>
<!-- Node1&#45;&gt;Node8 -->
<g id="edge7_Node000001_Node000008" class="edge">
<title>Node1&#45;&gt;Node8</title>
<g id="a_edge7_Node000001_Node000008"><a xlink:title=" ">
<path fill="none" stroke="#63b8ff" d="M109.32,-218.19C124.66,-221.88 141.36,-225.89 156.63,-229.57"/>
<polygon fill="#63b8ff" stroke="#63b8ff" points="155.45,-232.88 166,-231.82 157.09,-226.08 155.45,-232.88"/>
</a>
</g>
</g>
<!-- Node9 -->
<g id="Node000009" class="node">
<title>Node9</title>
<g id="a_Node000009"><a xlink:href="../../d2/dd1/class_api_client.html#aa2e03a2c693acb0052f80415b453e279" target="_top" xlink:title="Signal for a successful request sent to a Post endpoint.">
<polygon fill="white" stroke="#666666" points="275.75,-214.88 145,-214.88 145,-195.62 275.75,-195.62 275.75,-214.88"/>
<text text-anchor="middle" x="210.38" y="-201.38" font-family="Helvetica,sans-Serif" font-size="10.00">ApiClient::GoodPostReply</text>
</a>
</g>
</g>
<!-- Node1&#45;&gt;Node9 -->
<g id="edge8_Node000001_Node000009" class="edge">
<title>Node1&#45;&gt;Node9</title>
<g id="a_edge8_Node000001_Node000009"><a xlink:title=" ">
<path fill="none" stroke="#63b8ff" d="M109.32,-205.25C117.09,-205.25 125.22,-205.25 133.33,-205.25"/>
<polygon fill="#63b8ff" stroke="#63b8ff" points="133.23,-208.75 143.23,-205.25 133.23,-201.75 133.23,-208.75"/>
</a>
</g>
</g>
<!-- Node10 -->
<g id="Node000010" class="node">
<title>Node10</title>
<g id="a_Node000010"><a xlink:href="../../d4/d0d/class_testimonial_manager.html#aa256bebedcc689ce416c7a2fcade3900" target="_top" xlink:title="Slot called when a GET request for testimonials fails.">
<polygon fill="white" stroke="#666666" points="265.25,-177.5 155.5,-177.5 155.5,-147 265.25,-147 265.25,-177.5"/>
<text text-anchor="start" x="163.5" y="-164" font-family="Helvetica,sans-Serif" font-size="10.00">TestimonialManager</text>
<text text-anchor="middle" x="210.38" y="-152.75" font-family="Helvetica,sans-Serif" font-size="10.00">::onBadGetResponse</text>
</a>
</g>
</g>
<!-- Node1&#45;&gt;Node10 -->
<g id="edge9_Node000001_Node000010" class="edge">
<title>Node1&#45;&gt;Node10</title>
<g id="a_edge9_Node000001_Node000010"><a xlink:title=" ">
<path fill="none" stroke="#63b8ff" d="M109.32,-190.21C120.55,-187.07 132.5,-183.73 144.1,-180.49"/>
<polygon fill="#63b8ff" stroke="#63b8ff" points="144.92,-183.9 153.61,-177.83 143.04,-177.15 144.92,-183.9"/>
</a>
</g>
</g>
<!-- Node11 -->
<g id="Node000011" class="node">
<title>Node11</title>
<g id="a_Node000011"><a xlink:href="../../d4/d0d/class_testimonial_manager.html#acfda7a2d454b513c1c75d8d030a43dd9" target="_top" xlink:title="Slot called when a POST request to save testimonials fails.">
<polygon fill="white" stroke="#666666" points="267.5,-128.5 153.25,-128.5 153.25,-98 267.5,-98 267.5,-128.5"/>
<text text-anchor="start" x="161.25" y="-115" font-family="Helvetica,sans-Serif" font-size="10.00">TestimonialManager</text>
<text text-anchor="middle" x="210.38" y="-103.75" font-family="Helvetica,sans-Serif" font-size="10.00">::onBadPostResponse</text>
</a>
</g>
</g>
<!-- Node1&#45;&gt;Node11 -->
<g id="edge10_Node000001_Node000011" class="edge">
<title>Node1&#45;&gt;Node11</title>
<g id="a_edge10_Node000001_Node000011"><a xlink:title=" ">
<path fill="none" stroke="#63b8ff" d="M73.35,-189.57C90.73,-174.88 118.35,-153.03 145,-138.25 147.85,-136.67 150.82,-135.14 153.86,-133.67"/>
<polygon fill="#63b8ff" stroke="#63b8ff" points="155.29,-136.87 162.95,-129.55 152.4,-130.49 155.29,-136.87"/>
</a>
</g>
</g>
<!-- Node12 -->
<g id="Node000012" class="node">
<title>Node12</title>
<g id="a_Node000012"><a xlink:href="../../d4/d0d/class_testimonial_manager.html#a2a9ada04ab15847f2c1b3c81deb994d7" target="_top" xlink:title="Slot called when a GET request for testimonials succeeds.">
<polygon fill="white" stroke="#666666" points="268.25,-79.5 152.5,-79.5 152.5,-49 268.25,-49 268.25,-79.5"/>
<text text-anchor="start" x="160.5" y="-66" font-family="Helvetica,sans-Serif" font-size="10.00">TestimonialManager</text>
<text text-anchor="middle" x="210.38" y="-54.75" font-family="Helvetica,sans-Serif" font-size="10.00">::onGoodGetResponse</text>
</a>
</g>
</g>
<!-- Node1&#45;&gt;Node12 -->
<g id="edge11_Node000001_Node000012" class="edge">
<title>Node1&#45;&gt;Node12</title>
<g id="a_edge11_Node000001_Node000012"><a xlink:title=" ">
<path fill="none" stroke="#63b8ff" d="M63.86,-189.53C77.68,-164.94 107.52,-117.28 145,-89.25 146.76,-87.93 148.61,-86.67 150.51,-85.47"/>
<polygon fill="#63b8ff" stroke="#63b8ff" points="152.05,-88.62 159.08,-80.69 148.64,-82.51 152.05,-88.62"/>
</a>
</g>
</g>
<!-- Node13 -->
<g id="Node000013" class="node">
<title>Node13</title>
<g id="a_Node000013"><a xlink:href="../../d4/d0d/class_testimonial_manager.html#ad384569c01fdadf0bb38e053a7bee337" target="_top" xlink:title="Slot called when a POST request to save testimonials succeeds.">
<polygon fill="white" stroke="#666666" points="270.5,-30.5 150.25,-30.5 150.25,0 270.5,0 270.5,-30.5"/>
<text text-anchor="start" x="158.25" y="-17" font-family="Helvetica,sans-Serif" font-size="10.00">TestimonialManager</text>
<text text-anchor="middle" x="210.38" y="-5.75" font-family="Helvetica,sans-Serif" font-size="10.00">::onGoodPostResponse</text>
</a>
</g>
</g>
<!-- Node1&#45;&gt;Node13 -->
<g id="edge12_Node000001_Node000013" class="edge">
<title>Node1&#45;&gt;Node13</title>
<g id="a_edge12_Node000001_Node000013"><a xlink:title=" ">
<path fill="none" stroke="#63b8ff" d="M59.89,-189.76C69.79,-157.52 96.82,-82.68 145,-40.25 146.27,-39.14 147.59,-38.07 148.95,-37.05"/>
<polygon fill="#63b8ff" stroke="#63b8ff" points="150.7,-40.08 157.24,-31.75 146.93,-34.18 150.7,-40.08"/>
</a>
</g>
</g>
<!-- Node5 -->
<g id="Node000005" class="node">
<title>Node5</title>
<g id="a_Node000005"><a xlink:href="../../d4/d0d/class_testimonial_manager.html#a1ebec1a781a7508501e398bb042a0b2d" target="_top" xlink:title="Retrieves the &quot;do not show again&quot; preference for a user.">
<polygon fill="white" stroke="#666666" points="441.38,-349.5 327.88,-349.5 327.88,-319 441.38,-319 441.38,-349.5"/>
<text text-anchor="start" x="335.88" y="-336" font-family="Helvetica,sans-Serif" font-size="10.00">TestimonialManager</text>
<text text-anchor="middle" x="384.62" y="-324.75" font-family="Helvetica,sans-Serif" font-size="10.00">::getDoNotShowAgain</text>
</a>
</g>
</g>
<!-- Node4&#45;&gt;Node5 -->
<g id="edge4_Node000004_Node000005" class="edge">
<title>Node4&#45;&gt;Node5</title>
<g id="a_edge4_Node000004_Node000005"><a xlink:title=" ">
<path fill="none" stroke="#63b8ff" d="M266.35,-300.89C282.58,-305.51 300.52,-310.61 317.39,-315.41"/>
<polygon fill="#63b8ff" stroke="#63b8ff" points="316.25,-318.72 326.83,-318.09 318.17,-311.99 316.25,-318.72"/>
</a>
</g>
</g>
<!-- Node6 -->
<g id="Node000006" class="node">
<title>Node6</title>
<g id="a_Node000006"><a xlink:href="../../d4/d0d/class_testimonial_manager.html#a9466acdac4dddfe8947b41cb637cb556" target="_top" xlink:title="Checks if a user with the given username has already submitted a testimonial.">
<polygon fill="white" stroke="#666666" points="451.5,-300.5 317.75,-300.5 317.75,-270 451.5,-270 451.5,-300.5"/>
<text text-anchor="start" x="325.75" y="-287" font-family="Helvetica,sans-Serif" font-size="10.00">TestimonialManager</text>
<text text-anchor="middle" x="384.62" y="-275.75" font-family="Helvetica,sans-Serif" font-size="10.00">::hasUserGivenTestimonial</text>
</a>
</g>
</g>
<!-- Node4&#45;&gt;Node6 -->
<g id="edge5_Node000004_Node000006" class="edge">
<title>Node4&#45;&gt;Node6</title>
<g id="a_edge5_Node000004_Node000006"><a xlink:title=" ">
<path fill="none" stroke="#63b8ff" d="M270.17,-285.25C281.69,-285.25 293.94,-285.25 305.97,-285.25"/>
<polygon fill="#63b8ff" stroke="#63b8ff" points="305.89,-288.75 315.89,-285.25 305.89,-281.75 305.89,-288.75"/>
</a>
</g>
</g>
<!-- Node7 -->
<g id="Node000007" class="node">
<title>Node7</title>
<g id="a_Node000007"><a xlink:href="../../d4/d0d/class_testimonial_manager.html#ade7e70f55550c1417ab7d0ca7b3b3142" target="_top" xlink:title="Emitted to prompt the user for a testimonial.">
<polygon fill="white" stroke="#666666" points="457.5,-251.5 311.75,-251.5 311.75,-221 457.5,-221 457.5,-251.5"/>
<text text-anchor="start" x="319.75" y="-238" font-family="Helvetica,sans-Serif" font-size="10.00">TestimonialManager</text>
<text text-anchor="middle" x="384.62" y="-226.75" font-family="Helvetica,sans-Serif" font-size="10.00">::shouldPromptForTestimonial</text>
</a>
</g>
</g>
<!-- Node4&#45;&gt;Node7 -->
<g id="edge6_Node000004_Node000007" class="edge">
<title>Node4&#45;&gt;Node7</title>
<g id="a_edge6_Node000004_Node000007"><a xlink:title=" ">
<path fill="none" stroke="#63b8ff" d="M266.35,-269.61C282.58,-264.99 300.52,-259.89 317.39,-255.09"/>
<polygon fill="#63b8ff" stroke="#63b8ff" points="318.17,-258.51 326.83,-252.41 316.25,-251.78 318.17,-258.51"/>
</a>
</g>
</g>
</g>
</svg>
</svg>

<style type='text/css'>
<![CDATA[
[data-mouse-over-selected='false'] { opacity: 0.7; }
[data-mouse-over-selected='true']  { opacity: 1.0; }
]]>
</style>
<script type="application/ecmascript"><![CDATA[
document.addEventListener('DOMContentLoaded', (event) => {
  highlightEdges();
  highlightAdjacentNodes();
});
]]></script>
</svg>
