<?xml version="1.0" encoding="UTF-8" standalone="no"?>
<!DOCTYPE svg PUBLIC "-//W3C//DTD SVG 1.1//EN"
 "http://www.w3.org/Graphics/SVG/1.1/DTD/svg11.dtd">
<!-- Generated by graphviz version 12.2.1 (20241206.2353)
 -->
<!-- Title: TestimonialManager::~TestimonialManager Pages: 1 -->
<svg width="435pt" height="39pt"
 viewBox="0.00 0.00 434.75 38.50" xmlns="http://www.w3.org/2000/svg" xmlns:xlink="http://www.w3.org/1999/xlink">
<g id="graph0" class="graph" transform="scale(1 1) rotate(0) translate(4 34.5)">
<title>TestimonialManager::~TestimonialManager</title>
<!-- Node1 -->
<g id="Node000001" class="node">
<title>Node1</title>
<g id="a_Node000001"><a xlink:title="Private destructor. Saves testimonials before destruction.">
<polygon fill="#999999" stroke="#666666" points="115,-30.5 0,-30.5 0,0 115,0 115,-30.5"/>
<text text-anchor="start" x="8" y="-17" font-family="Helvetica,sans-Serif" font-size="10.00">TestimonialManager</text>
<text text-anchor="middle" x="57.5" y="-5.75" font-family="Helvetica,sans-Serif" font-size="10.00">::~TestimonialManager</text>
</a>
</g>
</g>
<!-- Node2 -->
<g id="Node000002" class="node">
<title>Node2</title>
<g id="a_Node000002"><a xlink:href="../../d4/d0d/class_testimonial_manager.html#a776df0038128c3464b01c4f52199a960" target="_top" xlink:title="Saves all current testimonials (via API client).">
<polygon fill="white" stroke="#666666" points="254,-30.5 151,-30.5 151,0 254,0 254,-30.5"/>
<text text-anchor="start" x="159" y="-17" font-family="Helvetica,sans-Serif" font-size="10.00">TestimonialManager</text>
<text text-anchor="middle" x="202.5" y="-5.75" font-family="Helvetica,sans-Serif" font-size="10.00">::saveTestimonials</text>
</a>
</g>
</g>
<!-- Node1&#45;&gt;Node2 -->
<g id="edge1_Node000001_Node000002" class="edge">
<title>Node1&#45;&gt;Node2</title>
<g id="a_edge1_Node000001_Node000002"><a xlink:title=" ">
<path fill="none" stroke="#63b8ff" d="M115.43,-15.25C123.28,-15.25 131.37,-15.25 139.31,-15.25"/>
<polygon fill="#63b8ff" stroke="#63b8ff" points="139.27,-18.75 149.27,-15.25 139.27,-11.75 139.27,-18.75"/>
</a>
</g>
</g>
<!-- Node3 -->
<g id="Node000003" class="node">
<title>Node3</title>
<g id="a_Node000003"><a xlink:href="../../dc/db7/class_parser.html#a37a8828ed47a09c969ed966865da186d" target="_top" xlink:title="Converts a QVector of Testimonial objects into a JSON string representation.">
<polygon fill="white" stroke="#666666" points="426.75,-24.88 290,-24.88 290,-5.63 426.75,-5.63 426.75,-24.88"/>
<text text-anchor="middle" x="358.38" y="-11.38" font-family="Helvetica,sans-Serif" font-size="10.00">Parser::TestimonialsToJson</text>
</a>
</g>
</g>
<!-- Node2&#45;&gt;Node3 -->
<g id="edge2_Node000002_Node000003" class="edge">
<title>Node2&#45;&gt;Node3</title>
<g id="a_edge2_Node000002_Node000003"><a xlink:title=" ">
<path fill="none" stroke="#63b8ff" d="M254.31,-15.25C261.99,-15.25 270.06,-15.25 278.16,-15.25"/>
<polygon fill="#63b8ff" stroke="#63b8ff" points="278.09,-18.75 288.09,-15.25 278.09,-11.75 278.09,-18.75"/>
</a>
</g>
</g>
</g>
</svg>
