<?xml version="1.0" encoding="UTF-8" standalone="no"?>
<!DOCTYPE svg PUBLIC "-//W3C//DTD SVG 1.1//EN"
 "http://www.w3.org/Graphics/SVG/1.1/DTD/svg11.dtd">
<!-- Generated by graphviz version 12.2.1 (20241206.2353)
 -->
<!-- Title: Square::Draw Pages: 1 -->
<svg width="222pt" height="249pt"
 viewBox="0.00 0.00 221.50 249.25" xmlns="http://www.w3.org/2000/svg" xmlns:xlink="http://www.w3.org/1999/xlink">

<svg id="main" version="1.1" xmlns="http://www.w3.org/2000/svg" xmlns:xlink="http://www.w3.org/1999/xlink" xml:space="preserve">

<style type="text/css"><![CDATA[
.node, .edge {opacity: 0.7;}
.node.selected, .edge.selected {opacity: 1;}
.edge:hover path { stroke: red; }
.edge:hover polygon { stroke: red; fill: red; }
]]></style>
<script type="application/ecmascript" xlink:href="../../svg.min.js"/>
<svg id="graph" class="graph">
<g id="graph0" class="graph" transform="scale(1 1) rotate(0) translate(4 245.25)">
<title>Square::Draw</title>
<!-- Node1 -->
<g id="Node000001" class="node">
<title>Node1</title>
<g id="a_Node000001"><a xlink:title="Draw &#45; Draws a Square at the assigned coords.">
<polygon fill="#999999" stroke="#666666" points="76,-130.25 0,-130.25 0,-111 76,-111 76,-130.25"/>
<text text-anchor="middle" x="38" y="-116.75" font-family="Helvetica,sans-Serif" font-size="10.00">Square::Draw</text>
</a>
</g>
</g>
<!-- Node2 -->
<g id="Node000002" class="node">
<title>Node2</title>
<g id="a_Node000002"><a xlink:href="../../d7/da7/class_shape.html#acbb9f9354579fdaad31853d714653e0d" target="_top" xlink:title=" ">
<polygon fill="white" stroke="#666666" points="207.12,-241.25 118.38,-241.25 118.38,-222 207.12,-222 207.12,-241.25"/>
<text text-anchor="middle" x="162.75" y="-227.75" font-family="Helvetica,sans-Serif" font-size="10.00">Shape::getBrush</text>
</a>
</g>
</g>
<!-- Node1&#45;&gt;Node2 -->
<g id="edge1_Node000001_Node000002" class="edge">
<title>Node1&#45;&gt;Node2</title>
<g id="a_edge1_Node000001_Node000002"><a xlink:title=" ">
<path fill="none" stroke="#63b8ff" d="M44.26,-130.53C54.71,-149.34 79.9,-190.41 112,-213.62 113.35,-214.6 114.76,-215.53 116.21,-216.41"/>
<polygon fill="#63b8ff" stroke="#63b8ff" points="114.41,-219.42 124.9,-220.89 117.62,-213.2 114.41,-219.42"/>
</a>
</g>
</g>
<!-- Node3 -->
<g id="Node000003" class="node">
<title>Node3</title>
<g id="a_Node000003"><a xlink:href="../../d7/da7/class_shape.html#a754ef1fcea3fbe3c3612da480ba8dd75" target="_top" xlink:title=" ">
<polygon fill="white" stroke="#666666" points="209.75,-204.25 115.75,-204.25 115.75,-185 209.75,-185 209.75,-204.25"/>
<text text-anchor="middle" x="162.75" y="-190.75" font-family="Helvetica,sans-Serif" font-size="10.00">Shape::getPainter</text>
</a>
</g>
</g>
<!-- Node1&#45;&gt;Node3 -->
<g id="edge2_Node000001_Node000003" class="edge">
<title>Node1&#45;&gt;Node3</title>
<g id="a_edge2_Node000001_Node000003"><a xlink:title=" ">
<path fill="none" stroke="#63b8ff" d="M49.64,-130.5C63.23,-142.69 87.9,-163.43 112,-176.62 114.19,-177.83 116.48,-178.97 118.82,-180.07"/>
<polygon fill="#63b8ff" stroke="#63b8ff" points="117.3,-183.22 127.87,-183.92 120.04,-176.78 117.3,-183.22"/>
</a>
</g>
</g>
<!-- Node4 -->
<g id="Node000004" class="node">
<title>Node4</title>
<g id="a_Node000004"><a xlink:href="../../d7/da7/class_shape.html#a16aad057da1ce3475f666cbdd27da042" target="_top" xlink:title=" ">
<polygon fill="white" stroke="#666666" points="203,-167.25 122.5,-167.25 122.5,-148 203,-148 203,-167.25"/>
<text text-anchor="middle" x="162.75" y="-153.75" font-family="Helvetica,sans-Serif" font-size="10.00">Shape::getPen</text>
</a>
</g>
</g>
<!-- Node1&#45;&gt;Node4 -->
<g id="edge3_Node000001_Node000004" class="edge">
<title>Node1&#45;&gt;Node4</title>
<g id="a_edge3_Node000001_Node000004"><a xlink:title=" ">
<path fill="none" stroke="#63b8ff" d="M72.54,-130.74C86.34,-134.9 102.53,-139.77 117.3,-144.23"/>
<polygon fill="#63b8ff" stroke="#63b8ff" points="116.21,-147.56 126.8,-147.09 118.24,-140.85 116.21,-147.56"/>
</a>
</g>
</g>
<!-- Node5 -->
<g id="Node000005" class="node">
<title>Node5</title>
<g id="a_Node000005"><a xlink:href="../../d7/da7/class_shape.html#aebeb671fc243de273dc49f07ba71bac6" target="_top" xlink:title=" ">
<polygon fill="white" stroke="#666666" points="213.5,-130.25 112,-130.25 112,-111 213.5,-111 213.5,-130.25"/>
<text text-anchor="middle" x="162.75" y="-116.75" font-family="Helvetica,sans-Serif" font-size="10.00">Shape::getSelected</text>
</a>
</g>
</g>
<!-- Node1&#45;&gt;Node5 -->
<g id="edge4_Node000001_Node000005" class="edge">
<title>Node1&#45;&gt;Node5</title>
<g id="a_edge4_Node000001_Node000005"><a xlink:title=" ">
<path fill="none" stroke="#63b8ff" d="M76.5,-120.62C84.07,-120.62 92.21,-120.62 100.36,-120.62"/>
<polygon fill="#63b8ff" stroke="#63b8ff" points="100.3,-124.13 110.3,-120.63 100.3,-117.13 100.3,-124.13"/>
</a>
</g>
</g>
<!-- Node6 -->
<g id="Node000006" class="node">
<title>Node6</title>
<g id="a_Node000006"><a xlink:href="../../d7/da7/class_shape.html#a4b502262ae5a22122456b9624d5ccb3d" target="_top" xlink:title="Accessor Functions &#45; Returns the data named after them.">
<polygon fill="white" stroke="#666666" points="212.38,-93.25 113.12,-93.25 113.12,-74 212.38,-74 212.38,-93.25"/>
<text text-anchor="middle" x="162.75" y="-79.75" font-family="Helvetica,sans-Serif" font-size="10.00">Shape::getShapeId</text>
</a>
</g>
</g>
<!-- Node1&#45;&gt;Node6 -->
<g id="edge5_Node000001_Node000006" class="edge">
<title>Node1&#45;&gt;Node6</title>
<g id="a_edge5_Node000001_Node000006"><a xlink:title=" ">
<path fill="none" stroke="#63b8ff" d="M72.54,-110.51C86.34,-106.35 102.53,-101.48 117.3,-97.02"/>
<polygon fill="#63b8ff" stroke="#63b8ff" points="118.24,-100.4 126.8,-94.16 116.21,-93.69 118.24,-100.4"/>
</a>
</g>
</g>
<!-- Node7 -->
<g id="Node000007" class="node">
<title>Node7</title>
<g id="a_Node000007"><a xlink:href="../../d7/da7/class_shape.html#af604de36aa616c585bb30dedf5e5c68b" target="_top" xlink:title=" ">
<polygon fill="white" stroke="#666666" points="197.75,-56.25 127.75,-56.25 127.75,-37 197.75,-37 197.75,-56.25"/>
<text text-anchor="middle" x="162.75" y="-42.75" font-family="Helvetica,sans-Serif" font-size="10.00">Shape::getX</text>
</a>
</g>
</g>
<!-- Node1&#45;&gt;Node7 -->
<g id="edge6_Node000001_Node000007" class="edge">
<title>Node1&#45;&gt;Node7</title>
<g id="a_edge6_Node000001_Node000007"><a xlink:title=" ">
<path fill="none" stroke="#63b8ff" d="M49.64,-110.75C63.23,-98.56 87.9,-77.82 112,-64.62 114.19,-63.42 116.48,-62.28 118.82,-61.18"/>
<polygon fill="#63b8ff" stroke="#63b8ff" points="120.04,-64.47 127.87,-57.33 117.3,-58.03 120.04,-64.47"/>
</a>
</g>
</g>
<!-- Node8 -->
<g id="Node000008" class="node">
<title>Node8</title>
<g id="a_Node000008"><a xlink:href="../../d7/da7/class_shape.html#a2e87ea4122381ffb83474f4b69247ded" target="_top" xlink:title=" ">
<polygon fill="white" stroke="#666666" points="197.75,-19.25 127.75,-19.25 127.75,0 197.75,0 197.75,-19.25"/>
<text text-anchor="middle" x="162.75" y="-5.75" font-family="Helvetica,sans-Serif" font-size="10.00">Shape::getY</text>
</a>
</g>
</g>
<!-- Node1&#45;&gt;Node8 -->
<g id="edge7_Node000001_Node000008" class="edge">
<title>Node1&#45;&gt;Node8</title>
<g id="a_edge7_Node000001_Node000008"><a xlink:title=" ">
<path fill="none" stroke="#63b8ff" d="M44.26,-110.72C54.71,-91.91 79.9,-50.84 112,-27.62 113.73,-26.37 115.56,-25.2 117.45,-24.1"/>
<polygon fill="#63b8ff" stroke="#63b8ff" points="118.53,-27.47 125.93,-19.89 115.42,-21.2 118.53,-27.47"/>
</a>
</g>
</g>
</g>
</svg>
</svg>

<style type='text/css'>
<![CDATA[
[data-mouse-over-selected='false'] { opacity: 0.7; }
[data-mouse-over-selected='true']  { opacity: 1.0; }
]]>
</style>
<script type="application/ecmascript"><![CDATA[
document.addEventListener('DOMContentLoaded', (event) => {
  highlightEdges();
  highlightAdjacentNodes();
});
]]></script>
</svg>
