<?xml version="1.0" encoding="UTF-8" standalone="no"?>
<!DOCTYPE svg PUBLIC "-//W3C//DTD SVG 1.1//EN"
 "http://www.w3.org/Graphics/SVG/1.1/DTD/svg11.dtd">
<!-- Generated by graphviz version 12.2.1 (20241206.2353)
 -->
<!-- Title: Square::Square Pages: 1 -->
<svg width="415pt" height="175pt"
 viewBox="0.00 0.00 415.25 175.25" xmlns="http://www.w3.org/2000/svg" xmlns:xlink="http://www.w3.org/1999/xlink">
<g id="graph0" class="graph" transform="scale(1 1) rotate(0) translate(4 171.25)">
<title>Square::Square</title>
<!-- Node1 -->
<g id="Node000001" class="node">
<title>Node1</title>
<g id="a_Node000001"><a xlink:title="Square.">
<polygon fill="#999999" stroke="#666666" points="83.5,-74.25 0,-74.25 0,-55 83.5,-55 83.5,-74.25"/>
<text text-anchor="middle" x="41.75" y="-60.75" font-family="Helvetica,sans-Serif" font-size="10.00">Square::Square</text>
</a>
</g>
</g>
<!-- Node2 -->
<g id="Node000002" class="node">
<title>Node2</title>
<g id="a_Node000002"><a xlink:href="../../d7/da7/class_shape.html#a4a45883fd666ce244e518e808a0bd7ca" target="_top" xlink:title="CreateBrushChild &#45; Adds brush data to brushItems vector for a QTreeWidget.">
<polygon fill="white" stroke="#666666" points="246.5,-130.25 119.5,-130.25 119.5,-111 246.5,-111 246.5,-130.25"/>
<text text-anchor="middle" x="183" y="-116.75" font-family="Helvetica,sans-Serif" font-size="10.00">Shape::CreateBrushChild</text>
</a>
</g>
</g>
<!-- Node1&#45;&gt;Node2 -->
<g id="edge1_Node000001_Node000002" class="edge">
<title>Node1&#45;&gt;Node2</title>
<g id="a_edge1_Node000001_Node000002"><a xlink:title=" ">
<path fill="none" stroke="#63b8ff" d="M60.63,-74.63C75.93,-82.9 98.71,-94.56 119.5,-102.62 123.59,-104.21 127.87,-105.73 132.2,-107.17"/>
<polygon fill="#63b8ff" stroke="#63b8ff" points="130.93,-110.43 141.52,-110.1 133.03,-103.76 130.93,-110.43"/>
</a>
</g>
</g>
<!-- Node3 -->
<g id="Node000003" class="node">
<title>Node3</title>
<g id="a_Node000003"><a xlink:href="../../d7/da7/class_shape.html#ad3725fd4cfb43613897c2d3f3e647842" target="_top" xlink:title="CreateParentItem &#45; Adds data cooresponding to all shapes to parentItem for a QTreeWidget.">
<polygon fill="white" stroke="#666666" points="246.5,-93.25 119.5,-93.25 119.5,-74 246.5,-74 246.5,-93.25"/>
<text text-anchor="middle" x="183" y="-79.75" font-family="Helvetica,sans-Serif" font-size="10.00">Shape::CreateParentItem</text>
</a>
</g>
</g>
<!-- Node1&#45;&gt;Node3 -->
<g id="edge2_Node000001_Node000003" class="edge">
<title>Node1&#45;&gt;Node3</title>
<g id="a_edge2_Node000001_Node000003"><a xlink:title=" ">
<path fill="none" stroke="#63b8ff" d="M83.78,-70.22C91.39,-71.26 99.55,-72.38 107.8,-73.5"/>
<polygon fill="#63b8ff" stroke="#63b8ff" points="107.18,-76.95 117.56,-74.83 108.12,-70.01 107.18,-76.95"/>
</a>
</g>
</g>
<!-- Node8 -->
<g id="Node000008" class="node">
<title>Node8</title>
<g id="a_Node000008"><a xlink:href="../../d7/da7/class_shape.html#a54f827e6bce6b42cdb4b70c443d2c005" target="_top" xlink:title="CreatePenChild &#45; Adds pen data to penItems vector for a QTreeWidget.">
<polygon fill="white" stroke="#666666" points="242.38,-56.25 123.62,-56.25 123.62,-37 242.38,-37 242.38,-56.25"/>
<text text-anchor="middle" x="183" y="-42.75" font-family="Helvetica,sans-Serif" font-size="10.00">Shape::CreatePenChild</text>
</a>
</g>
</g>
<!-- Node1&#45;&gt;Node8 -->
<g id="edge7_Node000001_Node000008" class="edge">
<title>Node1&#45;&gt;Node8</title>
<g id="a_edge7_Node000001_Node000008"><a xlink:title=" ">
<path fill="none" stroke="#63b8ff" d="M83.78,-59.32C92.66,-58.17 102.29,-56.93 111.93,-55.68"/>
<polygon fill="#63b8ff" stroke="#63b8ff" points="112.24,-59.17 121.71,-54.42 111.34,-52.23 112.24,-59.17"/>
</a>
</g>
</g>
<!-- Node9 -->
<g id="Node000009" class="node">
<title>Node9</title>
<g id="a_Node000009"><a xlink:href="../../d7/da7/class_shape.html#a3fffc5f799f419e3e608e03ab1f3e913" target="_top" xlink:title="Shape Constructor.">
<polygon fill="white" stroke="#666666" points="221.75,-19.25 144.25,-19.25 144.25,0 221.75,0 221.75,-19.25"/>
<text text-anchor="middle" x="183" y="-5.75" font-family="Helvetica,sans-Serif" font-size="10.00">Shape::Shape</text>
</a>
</g>
</g>
<!-- Node1&#45;&gt;Node9 -->
<g id="edge8_Node000001_Node000009" class="edge">
<title>Node1&#45;&gt;Node9</title>
<g id="a_edge8_Node000001_Node000009"><a xlink:title=" ">
<path fill="none" stroke="#63b8ff" d="M61.28,-54.6C76.59,-46.58 99.05,-35.44 119.5,-27.62 123.89,-25.95 128.51,-24.34 133.16,-22.82"/>
<polygon fill="#63b8ff" stroke="#63b8ff" points="134.03,-26.22 142.54,-19.91 131.95,-19.53 134.03,-26.22"/>
</a>
</g>
</g>
<!-- Node4 -->
<g id="Node000004" class="node">
<title>Node4</title>
<g id="a_Node000004"><a xlink:href="../../d7/da7/class_shape.html#a4b502262ae5a22122456b9624d5ccb3d" target="_top" xlink:title="Accessor Functions &#45; Returns the data named after them.">
<polygon fill="white" stroke="#666666" points="394.5,-167.25 295.25,-167.25 295.25,-148 394.5,-148 394.5,-167.25"/>
<text text-anchor="middle" x="344.88" y="-153.75" font-family="Helvetica,sans-Serif" font-size="10.00">Shape::getShapeId</text>
</a>
</g>
</g>
<!-- Node3&#45;&gt;Node4 -->
<g id="edge3_Node000003_Node000004" class="edge">
<title>Node3&#45;&gt;Node4</title>
<g id="a_edge3_Node000003_Node000004"><a xlink:title=" ">
<path fill="none" stroke="#63b8ff" d="M229.6,-93.64C235.5,-95.82 241.29,-98.46 246.5,-101.62 266.38,-113.71 262.65,-127.49 282.5,-139.62 284.5,-140.85 286.58,-141.99 288.73,-143.06"/>
<polygon fill="#63b8ff" stroke="#63b8ff" points="287.14,-146.18 297.71,-146.93 289.91,-139.76 287.14,-146.18"/>
</a>
</g>
</g>
<!-- Node5 -->
<g id="Node000005" class="node">
<title>Node5</title>
<g id="a_Node000005"><a xlink:href="../../d7/da7/class_shape.html#aec4675c2b06d40373eefac4b982af242" target="_top" xlink:title=" ">
<polygon fill="white" stroke="#666666" points="397.12,-130.25 292.62,-130.25 292.62,-111 397.12,-111 397.12,-130.25"/>
<text text-anchor="middle" x="344.88" y="-116.75" font-family="Helvetica,sans-Serif" font-size="10.00">Shape::getTrackerId</text>
</a>
</g>
</g>
<!-- Node3&#45;&gt;Node5 -->
<g id="edge4_Node000003_Node000005" class="edge">
<title>Node3&#45;&gt;Node5</title>
<g id="a_edge4_Node000003_Node000005"><a xlink:title=" ">
<path fill="none" stroke="#63b8ff" d="M227.69,-93.74C246.63,-98.12 269.02,-103.3 289.07,-107.94"/>
<polygon fill="#63b8ff" stroke="#63b8ff" points="288.24,-111.34 298.77,-110.19 289.81,-104.52 288.24,-111.34"/>
</a>
</g>
</g>
<!-- Node6 -->
<g id="Node000006" class="node">
<title>Node6</title>
<g id="a_Node000006"><a xlink:href="../../d7/da7/class_shape.html#af604de36aa616c585bb30dedf5e5c68b" target="_top" xlink:title=" ">
<polygon fill="white" stroke="#666666" points="379.88,-93.25 309.88,-93.25 309.88,-74 379.88,-74 379.88,-93.25"/>
<text text-anchor="middle" x="344.88" y="-79.75" font-family="Helvetica,sans-Serif" font-size="10.00">Shape::getX</text>
</a>
</g>
</g>
<!-- Node3&#45;&gt;Node6 -->
<g id="edge5_Node000003_Node000006" class="edge">
<title>Node3&#45;&gt;Node6</title>
<g id="a_edge5_Node000003_Node000006"><a xlink:title=" ">
<path fill="none" stroke="#63b8ff" d="M246.73,-83.62C263.9,-83.62 282.19,-83.62 298.22,-83.62"/>
<polygon fill="#63b8ff" stroke="#63b8ff" points="297.92,-87.13 307.92,-83.63 297.92,-80.13 297.92,-87.13"/>
</a>
</g>
</g>
<!-- Node7 -->
<g id="Node000007" class="node">
<title>Node7</title>
<g id="a_Node000007"><a xlink:href="../../d7/da7/class_shape.html#a2e87ea4122381ffb83474f4b69247ded" target="_top" xlink:title=" ">
<polygon fill="white" stroke="#666666" points="379.88,-56.25 309.88,-56.25 309.88,-37 379.88,-37 379.88,-56.25"/>
<text text-anchor="middle" x="344.88" y="-42.75" font-family="Helvetica,sans-Serif" font-size="10.00">Shape::getY</text>
</a>
</g>
</g>
<!-- Node3&#45;&gt;Node7 -->
<g id="edge6_Node000003_Node000007" class="edge">
<title>Node3&#45;&gt;Node7</title>
<g id="a_edge6_Node000003_Node000007"><a xlink:title=" ">
<path fill="none" stroke="#63b8ff" d="M227.69,-73.51C249.65,-68.43 276.25,-62.28 298.45,-57.14"/>
<polygon fill="#63b8ff" stroke="#63b8ff" points="299.19,-60.56 308.14,-54.9 297.61,-53.74 299.19,-60.56"/>
</a>
</g>
</g>
<!-- Node10 -->
<g id="Node000010" class="node">
<title>Node10</title>
<g id="a_Node000010"><a xlink:href="../../d7/da7/class_shape.html#a520308cc2273f60cb19bf5664570bcf8" target="_top" xlink:title=" ">
<polygon fill="white" stroke="#666666" points="407.25,-19.25 282.5,-19.25 282.5,0 407.25,0 407.25,-19.25"/>
<text text-anchor="middle" x="344.88" y="-5.75" font-family="Helvetica,sans-Serif" font-size="10.00">Shape::allocateTrackerId</text>
</a>
</g>
</g>
<!-- Node9&#45;&gt;Node10 -->
<g id="edge9_Node000009_Node000010" class="edge">
<title>Node9&#45;&gt;Node10</title>
<g id="a_edge9_Node000009_Node000010"><a xlink:title=" ">
<path fill="none" stroke="#63b8ff" d="M221.89,-9.62C236.66,-9.62 254.11,-9.62 271.12,-9.62"/>
<polygon fill="#63b8ff" stroke="#63b8ff" points="270.69,-13.13 280.69,-9.63 270.69,-6.13 270.69,-13.13"/>
</a>
</g>
</g>
</g>
</svg>
