<?xml version="1.0" encoding="UTF-8" standalone="no"?>
<!DOCTYPE svg PUBLIC "-//W3C//DTD SVG 1.1//EN"
 "http://www.w3.org/Graphics/SVG/1.1/DTD/svg11.dtd">
<!-- Generated by graphviz version 12.2.1 (20241206.2353)
 -->
<!-- Title: ShapesManager::shapesChanged Pages: 1 -->
<svg width="556pt" height="199pt"
 viewBox="0.00 0.00 555.50 198.88" xmlns="http://www.w3.org/2000/svg" xmlns:xlink="http://www.w3.org/1999/xlink">
<g id="graph0" class="graph" transform="scale(1 1) rotate(0) translate(4 194.88)">
<title>ShapesManager::shapesChanged</title>
<!-- Node1 -->
<g id="Node000001" class="node">
<title>Node1</title>
<g id="a_Node000001"><a xlink:title=" ">
<polygon fill="#999999" stroke="#666666" points="547.5,-104.88 384.5,-104.88 384.5,-85.62 547.5,-85.62 547.5,-104.88"/>
<text text-anchor="middle" x="466" y="-91.38" font-family="Helvetica,sans-Serif" font-size="10.00">ShapesManager::shapesChanged</text>
</a>
</g>
</g>
<!-- Node2 -->
<g id="Node000002" class="node">
<title>Node2</title>
<g id="a_Node000002"><a xlink:href="../../d3/dde/class_shapes_manager.html#ae851cda2501ba8af0f6f44d5361a5348" target="_top" xlink:title="These functions are used to add, delete, and load shapes in the ShapesManager.">
<polygon fill="white" stroke="#666666" points="341.75,-190.88 205.75,-190.88 205.75,-171.62 341.75,-171.62 341.75,-190.88"/>
<text text-anchor="middle" x="273.75" y="-177.38" font-family="Helvetica,sans-Serif" font-size="10.00">ShapesManager::addShape</text>
</a>
</g>
</g>
<!-- Node1&#45;&gt;Node2 -->
<g id="edge1_Node000001_Node000002" class="edge">
<title>Node1&#45;&gt;Node2</title>
<g id="a_edge1_Node000001_Node000002"><a xlink:title=" ">
<path fill="none" stroke="#63b8ff" d="M441.03,-111.62C418.14,-126.61 382.23,-148.5 348.5,-162.25 340.05,-165.69 330.8,-168.66 321.79,-171.16"/>
<polygon fill="#63b8ff" stroke="#63b8ff" points="442.93,-114.56 449.32,-106.11 439.05,-108.73 442.93,-114.56"/>
</a>
</g>
</g>
<!-- Node3 -->
<g id="Node000003" class="node">
<title>Node3</title>
<g id="a_Node000003"><a xlink:href="../../d3/dde/class_shapes_manager.html#a3f497ccd5877aa974e3811df954f149b" target="_top" xlink:title=" ">
<polygon fill="white" stroke="#666666" points="338.75,-153.5 208.75,-153.5 208.75,-123 338.75,-123 338.75,-153.5"/>
<text text-anchor="start" x="216.75" y="-140" font-family="Helvetica,sans-Serif" font-size="10.00">ShapesManager::deleteAll</text>
<text text-anchor="middle" x="273.75" y="-128.75" font-family="Helvetica,sans-Serif" font-size="10.00">Shapes</text>
</a>
</g>
</g>
<!-- Node1&#45;&gt;Node3 -->
<g id="edge2_Node000001_Node000003" class="edge">
<title>Node1&#45;&gt;Node3</title>
<g id="a_edge2_Node000001_Node000003"><a xlink:title=" ">
<path fill="none" stroke="#63b8ff" d="M409.21,-107.86C387.16,-112.84 361.69,-118.6 338.89,-123.75"/>
<polygon fill="#63b8ff" stroke="#63b8ff" points="409.94,-111.28 418.92,-105.67 408.39,-104.46 409.94,-111.28"/>
</a>
</g>
</g>
<!-- Node4 -->
<g id="Node000004" class="node">
<title>Node4</title>
<g id="a_Node000004"><a xlink:href="../../d3/dde/class_shapes_manager.html#a00d9c085c697132f0ce4ad260c3b9147" target="_top" xlink:title=" ">
<polygon fill="white" stroke="#666666" points="347,-104.88 200.5,-104.88 200.5,-85.62 347,-85.62 347,-104.88"/>
<text text-anchor="middle" x="273.75" y="-91.38" font-family="Helvetica,sans-Serif" font-size="10.00">ShapesManager::deleteShape</text>
</a>
</g>
</g>
<!-- Node1&#45;&gt;Node4 -->
<g id="edge3_Node000001_Node000004" class="edge">
<title>Node1&#45;&gt;Node4</title>
<g id="a_edge3_Node000001_Node000004"><a xlink:title=" ">
<path fill="none" stroke="#63b8ff" d="M372.79,-95.25C364.2,-95.25 355.58,-95.25 347.2,-95.25"/>
<polygon fill="#63b8ff" stroke="#63b8ff" points="372.53,-98.75 382.53,-95.25 372.53,-91.75 372.53,-98.75"/>
</a>
</g>
</g>
<!-- Node5 -->
<g id="Node000005" class="node">
<title>Node5</title>
<g id="a_Node000005"><a xlink:href="../../d3/dde/class_shapes_manager.html#aeb0348ac6e97b3248dfc262bfd4eceaa" target="_top" xlink:title=" ">
<polygon fill="white" stroke="#666666" points="348.5,-67.88 199,-67.88 199,-48.62 348.5,-48.62 348.5,-67.88"/>
<text text-anchor="middle" x="273.75" y="-54.38" font-family="Helvetica,sans-Serif" font-size="10.00">ShapesManager::modifyShape</text>
</a>
</g>
</g>
<!-- Node1&#45;&gt;Node5 -->
<g id="edge4_Node000001_Node000005" class="edge">
<title>Node1&#45;&gt;Node5</title>
<g id="a_edge4_Node000001_Node000005"><a xlink:title=" ">
<path fill="none" stroke="#63b8ff" d="M402.04,-83C377.6,-78.25 349.95,-72.87 326.67,-68.35"/>
<polygon fill="#63b8ff" stroke="#63b8ff" points="401.04,-86.38 411.53,-84.85 402.38,-79.51 401.04,-86.38"/>
</a>
</g>
</g>
<!-- Node6 -->
<g id="Node000006" class="node">
<title>Node6</title>
<g id="a_Node000006"><a xlink:href="../../d3/dde/class_shapes_manager.html#a1f4218728de2c529424149d6a9b61ce3" target="_top" xlink:title=" ">
<polygon fill="white" stroke="#666666" points="344.75,-30.5 202.75,-30.5 202.75,0 344.75,0 344.75,-30.5"/>
<text text-anchor="start" x="210.75" y="-17" font-family="Helvetica,sans-Serif" font-size="10.00">ShapesManager::onGoodGet</text>
<text text-anchor="middle" x="273.75" y="-5.75" font-family="Helvetica,sans-Serif" font-size="10.00">Response</text>
</a>
</g>
</g>
<!-- Node1&#45;&gt;Node6 -->
<g id="edge5_Node000001_Node000006" class="edge">
<title>Node1&#45;&gt;Node6</title>
<g id="a_edge5_Node000001_Node000006"><a xlink:title=" ">
<path fill="none" stroke="#63b8ff" d="M435.75,-79.85C412.48,-67.92 378.89,-51.43 348.5,-39.25 341.25,-36.34 333.5,-33.52 325.85,-30.9"/>
<polygon fill="#63b8ff" stroke="#63b8ff" points="434.14,-82.95 444.63,-84.44 437.36,-76.74 434.14,-82.95"/>
</a>
</g>
</g>
<!-- Node7 -->
<g id="Node000007" class="node">
<title>Node7</title>
<g id="a_Node000007"><a xlink:href="../../d3/dde/class_shapes_manager.html#ab717143ddccb519cf74e28a27793112a" target="_top" xlink:title="Default Constructor.">
<polygon fill="white" stroke="#666666" points="163,-24.88 0,-24.88 0,-5.63 163,-5.63 163,-24.88"/>
<text text-anchor="middle" x="81.5" y="-11.38" font-family="Helvetica,sans-Serif" font-size="10.00">ShapesManager::ShapesManager</text>
</a>
</g>
</g>
<!-- Node6&#45;&gt;Node7 -->
<g id="edge6_Node000006_Node000007" class="edge">
<title>Node6&#45;&gt;Node7</title>
<g id="a_edge6_Node000006_Node000007"><a xlink:title=" ">
<path fill="none" stroke="#63b8ff" d="M190.99,-15.25C181.86,-15.25 172.56,-15.25 163.43,-15.25"/>
<polygon fill="#63b8ff" stroke="#63b8ff" points="190.93,-18.75 200.93,-15.25 190.93,-11.75 190.93,-18.75"/>
</a>
</g>
</g>
</g>
</svg>
