<?xml version="1.0" encoding="UTF-8" standalone="no"?>
<!DOCTYPE svg PUBLIC "-//W3C//DTD SVG 1.1//EN"
 "http://www.w3.org/Graphics/SVG/1.1/DTD/svg11.dtd">
<!-- Generated by graphviz version 12.2.1 (20241206.2353)
 -->
<!-- Title: ShapesManager::saveShapes Pages: 1 -->
<svg width="340pt" height="101pt"
 viewBox="0.00 0.00 340.00 101.25" xmlns="http://www.w3.org/2000/svg" xmlns:xlink="http://www.w3.org/1999/xlink">
<g id="graph0" class="graph" transform="scale(1 1) rotate(0) translate(4 97.25)">
<title>ShapesManager::saveShapes</title>
<!-- Node1 -->
<g id="Node000001" class="node">
<title>Node1</title>
<g id="a_Node000001"><a xlink:title=" ">
<polygon fill="#999999" stroke="#666666" points="332,-56.25 185.5,-56.25 185.5,-37 332,-37 332,-56.25"/>
<text text-anchor="middle" x="258.75" y="-42.75" font-family="Helvetica,sans-Serif" font-size="10.00">ShapesManager::saveShapes</text>
</a>
</g>
</g>
<!-- Node2 -->
<g id="Node000002" class="node">
<title>Node2</title>
<g id="a_Node000002"><a xlink:href="../../d3/dde/class_shapes_manager.html#ae851cda2501ba8af0f6f44d5361a5348" target="_top" xlink:title="These functions are used to add, delete, and load shapes in the ShapesManager.">
<polygon fill="white" stroke="#666666" points="142.75,-93.25 6.75,-93.25 6.75,-74 142.75,-74 142.75,-93.25"/>
<text text-anchor="middle" x="74.75" y="-79.75" font-family="Helvetica,sans-Serif" font-size="10.00">ShapesManager::addShape</text>
</a>
</g>
</g>
<!-- Node1&#45;&gt;Node2 -->
<g id="edge1_Node000001_Node000002" class="edge">
<title>Node1&#45;&gt;Node2</title>
<g id="a_edge1_Node000001_Node000002"><a xlink:title=" ">
<path fill="none" stroke="#63b8ff" d="M196.88,-59C173.66,-63.72 147.48,-69.04 125.42,-73.53"/>
<polygon fill="#63b8ff" stroke="#63b8ff" points="197.43,-62.46 206.53,-57.04 196.04,-55.6 197.43,-62.46"/>
</a>
</g>
</g>
<!-- Node3 -->
<g id="Node000003" class="node">
<title>Node3</title>
<g id="a_Node000003"><a xlink:href="../../d3/dde/class_shapes_manager.html#a00d9c085c697132f0ce4ad260c3b9147" target="_top" xlink:title=" ">
<polygon fill="white" stroke="#666666" points="148,-56.25 1.5,-56.25 1.5,-37 148,-37 148,-56.25"/>
<text text-anchor="middle" x="74.75" y="-42.75" font-family="Helvetica,sans-Serif" font-size="10.00">ShapesManager::deleteShape</text>
</a>
</g>
</g>
<!-- Node1&#45;&gt;Node3 -->
<g id="edge2_Node000001_Node000003" class="edge">
<title>Node1&#45;&gt;Node3</title>
<g id="a_edge2_Node000001_Node000003"><a xlink:title=" ">
<path fill="none" stroke="#63b8ff" d="M173.61,-46.62C165.17,-46.62 156.65,-46.62 148.35,-46.62"/>
<polygon fill="#63b8ff" stroke="#63b8ff" points="173.52,-50.13 183.52,-46.63 173.52,-43.13 173.52,-50.13"/>
</a>
</g>
</g>
<!-- Node4 -->
<g id="Node000004" class="node">
<title>Node4</title>
<g id="a_Node000004"><a xlink:href="../../d3/dde/class_shapes_manager.html#aeb0348ac6e97b3248dfc262bfd4eceaa" target="_top" xlink:title=" ">
<polygon fill="white" stroke="#666666" points="149.5,-19.25 0,-19.25 0,0 149.5,0 149.5,-19.25"/>
<text text-anchor="middle" x="74.75" y="-5.75" font-family="Helvetica,sans-Serif" font-size="10.00">ShapesManager::modifyShape</text>
</a>
</g>
</g>
<!-- Node1&#45;&gt;Node4 -->
<g id="edge3_Node000001_Node000004" class="edge">
<title>Node1&#45;&gt;Node4</title>
<g id="a_edge3_Node000001_Node000004"><a xlink:title=" ">
<path fill="none" stroke="#63b8ff" d="M196.88,-34.25C173.66,-29.53 147.48,-24.21 125.42,-19.72"/>
<polygon fill="#63b8ff" stroke="#63b8ff" points="196.04,-37.65 206.53,-36.21 197.43,-30.79 196.04,-37.65"/>
</a>
</g>
</g>
</g>
</svg>
