<?xml version="1.0" encoding="UTF-8" standalone="no"?>
<!DOCTYPE svg PUBLIC "-//W3C//DTD SVG 1.1//EN"
 "http://www.w3.org/Graphics/SVG/1.1/DTD/svg11.dtd">
<!-- Generated by graphviz version 12.2.1 (20241206.2353)
 -->
<!-- Title: ShapesManager::onGoodGetResponse Pages: 1 -->
<svg width="349pt" height="64pt"
 viewBox="0.00 0.00 349.00 64.25" xmlns="http://www.w3.org/2000/svg" xmlns:xlink="http://www.w3.org/1999/xlink">
<g id="graph0" class="graph" transform="scale(1 1) rotate(0) translate(4 60.25)">
<title>ShapesManager::onGoodGetResponse</title>
<!-- Node1 -->
<g id="Node000001" class="node">
<title>Node1</title>
<g id="a_Node000001"><a xlink:title=" ">
<polygon fill="#999999" stroke="#666666" points="142,-42.88 0,-42.88 0,-12.37 142,-12.37 142,-42.88"/>
<text text-anchor="start" x="8" y="-29.38" font-family="Helvetica,sans-Serif" font-size="10.00">ShapesManager::onGoodGet</text>
<text text-anchor="middle" x="71" y="-18.12" font-family="Helvetica,sans-Serif" font-size="10.00">Response</text>
</a>
</g>
</g>
<!-- Node2 -->
<g id="Node000002" class="node">
<title>Node2</title>
<g id="a_Node000002"><a xlink:href="../../d3/dde/class_shapes_manager.html#a401502eb4c12357f6f5ae53953c3b3de" target="_top" xlink:title=" ">
<polygon fill="white" stroke="#666666" points="341,-56.25 178,-56.25 178,-37 341,-37 341,-56.25"/>
<text text-anchor="middle" x="259.5" y="-42.75" font-family="Helvetica,sans-Serif" font-size="10.00">ShapesManager::shapesChanged</text>
</a>
</g>
</g>
<!-- Node1&#45;&gt;Node2 -->
<g id="edge1_Node000001_Node000002" class="edge">
<title>Node1&#45;&gt;Node2</title>
<g id="a_edge1_Node000001_Node000002"><a xlink:title=" ">
<path fill="none" stroke="#63b8ff" d="M142.24,-34.78C150.1,-35.58 158.2,-36.41 166.28,-37.23"/>
<polygon fill="#63b8ff" stroke="#63b8ff" points="165.86,-40.71 176.17,-38.24 166.57,-33.74 165.86,-40.71"/>
</a>
</g>
</g>
<!-- Node3 -->
<g id="Node000003" class="node">
<title>Node3</title>
<g id="a_Node000003"><a xlink:href="../../d3/dde/class_shapes_manager.html#a4d0a61ed21a16e9e7b428641549afbd2" target="_top" xlink:title=" ">
<polygon fill="white" stroke="#666666" points="339.12,-19.25 179.88,-19.25 179.88,0 339.12,0 339.12,-19.25"/>
<text text-anchor="middle" x="259.5" y="-5.75" font-family="Helvetica,sans-Serif" font-size="10.00">ShapesManager::statusMessage</text>
</a>
</g>
</g>
<!-- Node1&#45;&gt;Node3 -->
<g id="edge2_Node000001_Node000003" class="edge">
<title>Node1&#45;&gt;Node3</title>
<g id="a_edge2_Node000001_Node000003"><a xlink:title=" ">
<path fill="none" stroke="#63b8ff" d="M142.24,-20.85C150.71,-20.03 159.46,-19.18 168.16,-18.34"/>
<polygon fill="#63b8ff" stroke="#63b8ff" points="168.44,-21.83 178.06,-17.39 167.77,-14.87 168.44,-21.83"/>
</a>
</g>
</g>
</g>
</svg>
