<?xml version="1.0" encoding="UTF-8" standalone="no"?>
<!DOCTYPE svg PUBLIC "-//W3C//DTD SVG 1.1//EN"
 "http://www.w3.org/Graphics/SVG/1.1/DTD/svg11.dtd">
<!-- Generated by graphviz version 12.2.1 (20241206.2353)
 -->
<!-- Title: ShapesManager::shapesChanged Pages: 1 -->
<!--zoomable 199 -->

<svg id="main" version="1.1" xmlns="http://www.w3.org/2000/svg" xmlns:xlink="http://www.w3.org/1999/xlink" xml:space="preserve" onload="init(evt)">

<style type="text/css"><![CDATA[
.node, .edge {opacity: 0.7;}
.node.selected, .edge.selected {opacity: 1;}
.edge:hover path { stroke: red; }
.edge:hover polygon { stroke: red; fill: red; }
]]></style>

<defs>
  <circle id="rim" cx="0" cy="0" r="7"/>
  <circle id="rim2" cx="0" cy="0" r="3.5"/>
  <g id="zoomPlus">
    <use xlink:href="#rim" fill="#404040"><set attributeName="fill" to="#808080" begin="zoomplus.mouseover" end="zoomplus.mouseout"/></use>
    <path d="M-4,0h8M0,-4v8" fill="none" stroke="white" stroke-width="1.5" pointer-events="none"/>
  </g>
  <g id="zoomMin">
    <use xlink:href="#rim" fill="#404040"><set attributeName="fill" to="#808080" begin="zoomminus.mouseover" end="zoomminus.mouseout"/></use>
    <path d="M-4,0h8" fill="none" stroke="white" stroke-width="1.5" pointer-events="none"/>
  </g>
  <g id="arrowUp" transform="translate(30 24)">
    <use xlink:href="#rim"/>
    <path pointer-events="none" fill="none" stroke="white" stroke-width="1.5" d="M0,-3.0v7 M-2.5,-0.5L0,-3.0L2.5,-0.5"/>
  </g>
  <g id="arrowRight" transform="rotate(90) translate(36 -43)">
    <use xlink:href="#rim"/>
    <path pointer-events="none" fill="none" stroke="white" stroke-width="1.5" d="M0,-3.0v7 M-2.5,-0.5L0,-3.0L2.5,-0.5"/>
  </g>
  <g id="arrowDown" transform="rotate(180) translate(-30 -48)">
    <use xlink:href="#rim"/>
    <path pointer-events="none" fill="none" stroke="white" stroke-width="1.5" d="M0,-3.0v7 M-2.5,-0.5L0,-3.0L2.5,-0.5"/>
  </g>
  <g id="arrowLeft" transform="rotate(270) translate(-36 17)">
    <use xlink:href="#rim"/>
    <path pointer-events="none" fill="none" stroke="white" stroke-width="1.5" d="M0,-3.0v7 M-2.5,-0.5L0,-3.0L2.5,-0.5"/>
  </g>
  <g id="resetDef">
    <use xlink:href="#rim2" fill="#404040"><set attributeName="fill" to="#808080" begin="reset.mouseover" end="reset.mouseout"/></use>
  </g>
</defs>
<script type="application/ecmascript">
var viewWidth = 556;
var viewHeight = 199;
var sectionId = 'dynsection-20';
</script>
<script type="application/ecmascript" xlink:href="../../svg.min.js"/>
<svg id="graph" class="graph">
<g id="viewport">
<title>ShapesManager::shapesChanged</title>
<!-- Node1 -->
<g id="Node000001" class="node">
<title>Node1</title>
<g id="a_Node000001"><a xlink:title=" ">
<polygon fill="#999999" stroke="#666666" points="547.5,-104.88 384.5,-104.88 384.5,-85.62 547.5,-85.62 547.5,-104.88"/>
<text text-anchor="middle" x="466" y="-91.38" font-family="Helvetica,sans-Serif" font-size="10.00">ShapesManager::shapesChanged</text>
</a>
</g>
</g>
<!-- Node2 -->
<g id="Node000002" class="node">
<title>Node2</title>
<g id="a_Node000002"><a xlink:href="../../d3/dde/class_shapes_manager.html#ae851cda2501ba8af0f6f44d5361a5348" target="_top" xlink:title="These functions are used to add, delete, and load shapes in the ShapesManager.">
<polygon fill="white" stroke="#666666" points="341.75,-190.88 205.75,-190.88 205.75,-171.62 341.75,-171.62 341.75,-190.88"/>
<text text-anchor="middle" x="273.75" y="-177.38" font-family="Helvetica,sans-Serif" font-size="10.00">ShapesManager::addShape</text>
</a>
</g>
</g>
<!-- Node1&#45;&gt;Node2 -->
<g id="edge1_Node000001_Node000002" class="edge">
<title>Node1&#45;&gt;Node2</title>
<g id="a_edge1_Node000001_Node000002"><a xlink:title=" ">
<path fill="none" stroke="#63b8ff" d="M441.03,-111.62C418.14,-126.61 382.23,-148.5 348.5,-162.25 340.05,-165.69 330.8,-168.66 321.79,-171.16"/>
<polygon fill="#63b8ff" stroke="#63b8ff" points="442.93,-114.56 449.32,-106.11 439.05,-108.73 442.93,-114.56"/>
</a>
</g>
</g>
<!-- Node3 -->
<g id="Node000003" class="node">
<title>Node3</title>
<g id="a_Node000003"><a xlink:href="../../d3/dde/class_shapes_manager.html#a3f497ccd5877aa974e3811df954f149b" target="_top" xlink:title=" ">
<polygon fill="white" stroke="#666666" points="338.75,-153.5 208.75,-153.5 208.75,-123 338.75,-123 338.75,-153.5"/>
<text text-anchor="start" x="216.75" y="-140" font-family="Helvetica,sans-Serif" font-size="10.00">ShapesManager::deleteAll</text>
<text text-anchor="middle" x="273.75" y="-128.75" font-family="Helvetica,sans-Serif" font-size="10.00">Shapes</text>
</a>
</g>
</g>
<!-- Node1&#45;&gt;Node3 -->
<g id="edge2_Node000001_Node000003" class="edge">
<title>Node1&#45;&gt;Node3</title>
<g id="a_edge2_Node000001_Node000003"><a xlink:title=" ">
<path fill="none" stroke="#63b8ff" d="M409.21,-107.86C387.16,-112.84 361.69,-118.6 338.89,-123.75"/>
<polygon fill="#63b8ff" stroke="#63b8ff" points="409.94,-111.28 418.92,-105.67 408.39,-104.46 409.94,-111.28"/>
</a>
</g>
</g>
<!-- Node4 -->
<g id="Node000004" class="node">
<title>Node4</title>
<g id="a_Node000004"><a xlink:href="../../d3/dde/class_shapes_manager.html#a00d9c085c697132f0ce4ad260c3b9147" target="_top" xlink:title=" ">
<polygon fill="white" stroke="#666666" points="347,-104.88 200.5,-104.88 200.5,-85.62 347,-85.62 347,-104.88"/>
<text text-anchor="middle" x="273.75" y="-91.38" font-family="Helvetica,sans-Serif" font-size="10.00">ShapesManager::deleteShape</text>
</a>
</g>
</g>
<!-- Node1&#45;&gt;Node4 -->
<g id="edge3_Node000001_Node000004" class="edge">
<title>Node1&#45;&gt;Node4</title>
<g id="a_edge3_Node000001_Node000004"><a xlink:title=" ">
<path fill="none" stroke="#63b8ff" d="M372.79,-95.25C364.2,-95.25 355.58,-95.25 347.2,-95.25"/>
<polygon fill="#63b8ff" stroke="#63b8ff" points="372.53,-98.75 382.53,-95.25 372.53,-91.75 372.53,-98.75"/>
</a>
</g>
</g>
<!-- Node5 -->
<g id="Node000005" class="node">
<title>Node5</title>
<g id="a_Node000005"><a xlink:href="../../d3/dde/class_shapes_manager.html#aeb0348ac6e97b3248dfc262bfd4eceaa" target="_top" xlink:title=" ">
<polygon fill="white" stroke="#666666" points="348.5,-67.88 199,-67.88 199,-48.62 348.5,-48.62 348.5,-67.88"/>
<text text-anchor="middle" x="273.75" y="-54.38" font-family="Helvetica,sans-Serif" font-size="10.00">ShapesManager::modifyShape</text>
</a>
</g>
</g>
<!-- Node1&#45;&gt;Node5 -->
<g id="edge4_Node000001_Node000005" class="edge">
<title>Node1&#45;&gt;Node5</title>
<g id="a_edge4_Node000001_Node000005"><a xlink:title=" ">
<path fill="none" stroke="#63b8ff" d="M402.04,-83C377.6,-78.25 349.95,-72.87 326.67,-68.35"/>
<polygon fill="#63b8ff" stroke="#63b8ff" points="401.04,-86.38 411.53,-84.85 402.38,-79.51 401.04,-86.38"/>
</a>
</g>
</g>
<!-- Node6 -->
<g id="Node000006" class="node">
<title>Node6</title>
<g id="a_Node000006"><a xlink:href="../../d3/dde/class_shapes_manager.html#a1f4218728de2c529424149d6a9b61ce3" target="_top" xlink:title=" ">
<polygon fill="white" stroke="#666666" points="344.75,-30.5 202.75,-30.5 202.75,0 344.75,0 344.75,-30.5"/>
<text text-anchor="start" x="210.75" y="-17" font-family="Helvetica,sans-Serif" font-size="10.00">ShapesManager::onGoodGet</text>
<text text-anchor="middle" x="273.75" y="-5.75" font-family="Helvetica,sans-Serif" font-size="10.00">Response</text>
</a>
</g>
</g>
<!-- Node1&#45;&gt;Node6 -->
<g id="edge5_Node000001_Node000006" class="edge">
<title>Node1&#45;&gt;Node6</title>
<g id="a_edge5_Node000001_Node000006"><a xlink:title=" ">
<path fill="none" stroke="#63b8ff" d="M435.75,-79.85C412.48,-67.92 378.89,-51.43 348.5,-39.25 341.25,-36.34 333.5,-33.52 325.85,-30.9"/>
<polygon fill="#63b8ff" stroke="#63b8ff" points="434.14,-82.95 444.63,-84.44 437.36,-76.74 434.14,-82.95"/>
</a>
</g>
</g>
<!-- Node7 -->
<g id="Node000007" class="node">
<title>Node7</title>
<g id="a_Node000007"><a xlink:href="../../d3/dde/class_shapes_manager.html#ab717143ddccb519cf74e28a27793112a" target="_top" xlink:title="Default Constructor.">
<polygon fill="white" stroke="#666666" points="163,-24.88 0,-24.88 0,-5.63 163,-5.63 163,-24.88"/>
<text text-anchor="middle" x="81.5" y="-11.38" font-family="Helvetica,sans-Serif" font-size="10.00">ShapesManager::ShapesManager</text>
</a>
</g>
</g>
<!-- Node6&#45;&gt;Node7 -->
<g id="edge6_Node000006_Node000007" class="edge">
<title>Node6&#45;&gt;Node7</title>
<g id="a_edge6_Node000006_Node000007"><a xlink:title=" ">
<path fill="none" stroke="#63b8ff" d="M190.99,-15.25C181.86,-15.25 172.56,-15.25 163.43,-15.25"/>
<polygon fill="#63b8ff" stroke="#63b8ff" points="190.93,-18.75 200.93,-15.25 190.93,-11.75 190.93,-18.75"/>
</a>
</g>
</g>
</g>
</svg>

<g id="navigator" transform="translate(0 0)" fill="#404254">
  <rect fill="#f2f5e9" fill-opacity="0.5" stroke="#606060" stroke-width=".5" x="0" y="0" width="60" height="60"/>
  <use id="zoomplus" xlink:href="#zoomPlus" x="17" y="9" onmousedown="handleZoom(evt,'in')"/>
  <use id="zoomminus" xlink:href="#zoomMin" x="42" y="9" onmousedown="handleZoom(evt,'out')"/>
  <use id="reset" xlink:href="#resetDef" x="30" y="36" onmousedown="handleReset()"/>
   <use id="arrowup" xlink:href="#arrowUp" x="0" y="0" onmousedown="handlePan(0,-1)"/>
  <use id="arrowright" xlink:href="#arrowRight" x="0" y="0" onmousedown="handlePan(1,0)"/>
  <use id="arrowdown" xlink:href="#arrowDown" x="0" y="0" onmousedown="handlePan(0,1)"/>
  <use id="arrowleft" xlink:href="#arrowLeft" x="0" y="0" onmousedown="handlePan(-1,0)"/>
</g>
<svg viewBox="0 0 15 15" width="100%" height="30px" preserveAspectRatio="xMaxYMin meet">
 <g id="arrow_out" transform="scale(0.3 0.3)">
  <a xlink:href="class_shapes_manager_a401502eb4c12357f6f5ae53953c3b3de_icgraph_org.svg" target="_base">
   <rect id="button" ry="5" rx="5" y="6" x="6" height="38" width="38"
        fill="#f2f5e9" fill-opacity="0.5" stroke="#606060" stroke-width="1.0"/>
   <path id="arrow"
     d="M 11.500037,31.436501 C 11.940474,20.09759 22.043105,11.32322 32.158766,21.979434 L 37.068811,17.246167 C 37.068811,17.246167 37.088388,32 37.088388,32 L 22.160133,31.978069 C 22.160133,31.978069 26.997745,27.140456 26.997745,27.140456 C 18.528582,18.264221 13.291696,25.230495 11.500037,31.436501 z"
     style="fill:#404040;"/>
  </a>
 </g>
</svg>

<style type='text/css'>
<![CDATA[
[data-mouse-over-selected='false'] { opacity: 0.7; }
[data-mouse-over-selected='true']  { opacity: 1.0; }
]]>
</style>
<script type="application/ecmascript"><![CDATA[
document.addEventListener('DOMContentLoaded', (event) => {
  highlightEdges();
  highlightAdjacentNodes();
});
]]></script>
</svg>
