<?xml version="1.0" encoding="UTF-8" standalone="no"?>
<!DOCTYPE svg PUBLIC "-//W3C//DTD SVG 1.1//EN"
 "http://www.w3.org/Graphics/SVG/1.1/DTD/svg11.dtd">
<!-- Generated by graphviz version 12.2.1 (20241206.2353)
 -->
<!-- Title: Parser::UpdateAccumulator Pages: 1 -->
<svg width="604pt" height="64pt"
 viewBox="0.00 0.00 603.75 64.25" xmlns="http://www.w3.org/2000/svg" xmlns:xlink="http://www.w3.org/1999/xlink">
<g id="graph0" class="graph" transform="scale(1 1) rotate(0) translate(4 60.25)">
<title>Parser::UpdateAccumulator</title>
<!-- Node1 -->
<g id="Node000001" class="node">
<title>Node1</title>
<g id="a_Node000001"><a xlink:title="Updates a MorphicShape accumulator with a parsed key&#45;value pair.">
<polygon fill="#999999" stroke="#666666" points="136.75,-37.25 0,-37.25 0,-18 136.75,-18 136.75,-37.25"/>
<text text-anchor="middle" x="68.38" y="-23.75" font-family="Helvetica,sans-Serif" font-size="10.00">Parser::UpdateAccumulator</text>
</a>
</g>
</g>
<!-- Node2 -->
<g id="Node000002" class="node">
<title>Node2</title>
<g id="a_Node000002"><a xlink:href="../../dc/db7/class_parser.html#a0a4c2a3664d2d2c1f5444c18271a1cf4" target="_top" xlink:title="Converts a string representation of a JSON array of integers into an alpha::vector&lt;int&gt;.">
<polygon fill="white" stroke="#666666" points="287.75,-37.25 172.75,-37.25 172.75,-18 287.75,-18 287.75,-37.25"/>
<text text-anchor="middle" x="230.25" y="-23.75" font-family="Helvetica,sans-Serif" font-size="10.00">Parser::StringToVector</text>
</a>
</g>
</g>
<!-- Node1&#45;&gt;Node2 -->
<g id="edge1_Node000001_Node000002" class="edge">
<title>Node1&#45;&gt;Node2</title>
<g id="a_edge1_Node000001_Node000002"><a xlink:title=" ">
<path fill="none" stroke="#63b8ff" d="M137.18,-27.62C145.07,-27.62 153.12,-27.62 161.02,-27.62"/>
<polygon fill="#63b8ff" stroke="#63b8ff" points="160.92,-31.13 170.92,-27.63 160.92,-24.13 160.92,-31.13"/>
</a>
</g>
</g>
<!-- Node3 -->
<g id="Node000003" class="node">
<title>Node3</title>
<g id="a_Node000003"><a xlink:href="../../db/d35/classalpha_1_1vector.html#a8305c181181e4739a1c5f29cf3a2c144" target="_top" xlink:title=" ">
<polygon fill="white" stroke="#666666" points="449.25,-56.25 323.75,-56.25 323.75,-37 449.25,-37 449.25,-56.25"/>
<text text-anchor="middle" x="386.5" y="-42.75" font-family="Helvetica,sans-Serif" font-size="10.00">alpha::vector::push_back</text>
</a>
</g>
</g>
<!-- Node2&#45;&gt;Node3 -->
<g id="edge2_Node000002_Node000003" class="edge">
<title>Node2&#45;&gt;Node3</title>
<g id="a_edge2_Node000002_Node000003"><a xlink:title=" ">
<path fill="none" stroke="#63b8ff" d="M288.25,-34.65C296.01,-35.6 304.06,-36.59 312.05,-37.58"/>
<polygon fill="#63b8ff" stroke="#63b8ff" points="311.43,-41.03 321.79,-38.78 312.29,-34.08 311.43,-41.03"/>
</a>
</g>
</g>
<!-- Node5 -->
<g id="Node000005" class="node">
<title>Node5</title>
<g id="a_Node000005"><a xlink:href="../../dc/db7/class_parser.html#a49fad6dc437bab644ea477090320cbe8" target="_top" xlink:title="Advances the parsing index past any whitespace characters.">
<polygon fill="white" stroke="#666666" points="447.38,-19.25 325.62,-19.25 325.62,0 447.38,0 447.38,-19.25"/>
<text text-anchor="middle" x="386.5" y="-5.75" font-family="Helvetica,sans-Serif" font-size="10.00">Parser::SkipWhitespace</text>
</a>
</g>
</g>
<!-- Node2&#45;&gt;Node5 -->
<g id="edge4_Node000002_Node000005" class="edge">
<title>Node2&#45;&gt;Node5</title>
<g id="a_edge4_Node000002_Node000005"><a xlink:title=" ">
<path fill="none" stroke="#63b8ff" d="M288.25,-20.97C296.66,-19.99 305.42,-18.97 314.08,-17.96"/>
<polygon fill="#63b8ff" stroke="#63b8ff" points="314.34,-21.45 323.87,-16.82 313.53,-14.5 314.34,-21.45"/>
</a>
</g>
</g>
<!-- Node4 -->
<g id="Node000004" class="node">
<title>Node4</title>
<g id="a_Node000004"><a xlink:href="../../db/d35/classalpha_1_1vector.html#a6dd9585078696eb1d5e7186435f0e41c" target="_top" xlink:title=" ">
<polygon fill="white" stroke="#666666" points="595.75,-56.25 485.25,-56.25 485.25,-37 595.75,-37 595.75,-56.25"/>
<text text-anchor="middle" x="540.5" y="-42.75" font-family="Helvetica,sans-Serif" font-size="10.00">alpha::vector::reserve</text>
</a>
</g>
</g>
<!-- Node3&#45;&gt;Node4 -->
<g id="edge3_Node000003_Node000004" class="edge">
<title>Node3&#45;&gt;Node4</title>
<g id="a_edge3_Node000003_Node000004"><a xlink:title=" ">
<path fill="none" stroke="#63b8ff" d="M449.32,-46.62C457.37,-46.62 465.63,-46.62 473.74,-46.62"/>
<polygon fill="#63b8ff" stroke="#63b8ff" points="473.54,-50.13 483.54,-46.63 473.54,-43.13 473.54,-50.13"/>
</a>
</g>
</g>
</g>
</svg>
