<?xml version="1.0" encoding="UTF-8" standalone="no"?>
<!DOCTYPE svg PUBLIC "-//W3C//DTD SVG 1.1//EN"
 "http://www.w3.org/Graphics/SVG/1.1/DTD/svg11.dtd">
<!-- Generated by graphviz version 12.2.1 (20241206.2353)
 -->
<!-- Title: Parser::GetShapeDimensions Pages: 1 -->
<svg width="304pt" height="508pt"
 viewBox="0.00 0.00 304.00 508.25" xmlns="http://www.w3.org/2000/svg" xmlns:xlink="http://www.w3.org/1999/xlink">
<g id="graph0" class="graph" transform="scale(1 1) rotate(0) translate(4 504.25)">
<title>Parser::GetShapeDimensions</title>
<!-- Node1 -->
<g id="Node000001" class="node">
<title>Node1</title>
<g id="a_Node000001"><a xlink:title="Gets the geometric dimensions of a shape as a JSON array string.">
<polygon fill="#999999" stroke="#666666" points="145.75,-259.25 0,-259.25 0,-240 145.75,-240 145.75,-259.25"/>
<text text-anchor="middle" x="72.88" y="-245.75" font-family="Helvetica,sans-Serif" font-size="10.00">Parser::GetShapeDimensions</text>
</a>
</g>
</g>
<!-- Node2 -->
<g id="Node000002" class="node">
<title>Node2</title>
<g id="a_Node000002"><a xlink:href="../../dc/d25/class_ellipse.html#a77211318bb4d61848cfa76e887c290f0" target="_top" xlink:title="Accessor Functions.">
<polygon fill="white" stroke="#666666" points="274.62,-500.25 203.12,-500.25 203.12,-481 274.62,-481 274.62,-500.25"/>
<text text-anchor="middle" x="238.88" y="-486.75" font-family="Helvetica,sans-Serif" font-size="10.00">Ellipse::getA</text>
</a>
</g>
</g>
<!-- Node1&#45;&gt;Node2 -->
<g id="edge1_Node000001_Node000002" class="edge">
<title>Node1&#45;&gt;Node2</title>
<g id="a_edge1_Node000001_Node000002"><a xlink:title=" ">
<path fill="none" stroke="#63b8ff" d="M75.72,-259.31C82.77,-293.75 111.3,-411.42 181.75,-472.62 184.91,-475.37 188.49,-477.7 192.28,-479.67"/>
<polygon fill="#63b8ff" stroke="#63b8ff" points="190.69,-482.8 201.26,-483.51 193.45,-476.36 190.69,-482.8"/>
</a>
</g>
</g>
<!-- Node3 -->
<g id="Node000003" class="node">
<title>Node3</title>
<g id="a_Node000003"><a xlink:href="../../dc/d25/class_ellipse.html#a18ac4b70047614c98a8e663cc900b656" target="_top" xlink:title=" ">
<polygon fill="white" stroke="#666666" points="274.62,-463.25 203.12,-463.25 203.12,-444 274.62,-444 274.62,-463.25"/>
<text text-anchor="middle" x="238.88" y="-449.75" font-family="Helvetica,sans-Serif" font-size="10.00">Ellipse::getB</text>
</a>
</g>
</g>
<!-- Node1&#45;&gt;Node3 -->
<g id="edge2_Node000001_Node000003" class="edge">
<title>Node1&#45;&gt;Node3</title>
<g id="a_edge2_Node000001_Node000003"><a xlink:title=" ">
<path fill="none" stroke="#63b8ff" d="M76.74,-259.39C86.26,-290.11 119.81,-385.77 181.75,-435.62 184.97,-438.22 188.57,-440.44 192.35,-442.34"/>
<polygon fill="#63b8ff" stroke="#63b8ff" points="190.67,-445.43 201.24,-446.09 193.39,-438.98 190.67,-445.43"/>
</a>
</g>
</g>
<!-- Node4 -->
<g id="Node000004" class="node">
<title>Node4</title>
<g id="a_Node000004"><a xlink:href="../../dd/db4/class_line.html#aedb630a8121c423320ef5e369e17f65f" target="_top" xlink:title=" ">
<polygon fill="white" stroke="#666666" points="285.5,-426.25 192.25,-426.25 192.25,-407 285.5,-407 285.5,-426.25"/>
<text text-anchor="middle" x="238.88" y="-412.75" font-family="Helvetica,sans-Serif" font-size="10.00">Line::getEndPoint</text>
</a>
</g>
</g>
<!-- Node1&#45;&gt;Node4 -->
<g id="edge3_Node000001_Node000004" class="edge">
<title>Node1&#45;&gt;Node4</title>
<g id="a_edge3_Node000001_Node000004"><a xlink:title=" ">
<path fill="none" stroke="#63b8ff" d="M78.34,-259.65C90.73,-286.35 128.23,-359.83 181.75,-398.62 183.1,-399.6 184.5,-400.53 185.94,-401.4"/>
<polygon fill="#63b8ff" stroke="#63b8ff" points="184.11,-404.4 194.61,-405.81 187.29,-398.16 184.11,-404.4"/>
</a>
</g>
</g>
<!-- Node5 -->
<g id="Node000005" class="node">
<title>Node5</title>
<g id="a_Node000005"><a xlink:href="../../d9/dc7/class_rectangle.html#af86510135f0d97d2295bbc304ea932bf" target="_top" xlink:title="Accessor Functions.">
<polygon fill="white" stroke="#666666" points="293.38,-389.25 184.38,-389.25 184.38,-370 293.38,-370 293.38,-389.25"/>
<text text-anchor="middle" x="238.88" y="-375.75" font-family="Helvetica,sans-Serif" font-size="10.00">Rectangle::getLength</text>
</a>
</g>
</g>
<!-- Node1&#45;&gt;Node5 -->
<g id="edge4_Node000001_Node000005" class="edge">
<title>Node1&#45;&gt;Node5</title>
<g id="a_edge4_Node000001_Node000005"><a xlink:title=" ">
<path fill="none" stroke="#63b8ff" d="M80.76,-259.58C96.26,-281.3 136.15,-333.21 181.75,-361.62 183.64,-362.8 185.61,-363.91 187.64,-364.95"/>
<polygon fill="#63b8ff" stroke="#63b8ff" points="186.18,-368.13 196.74,-369 189.03,-361.74 186.18,-368.13"/>
</a>
</g>
</g>
<!-- Node6 -->
<g id="Node000006" class="node">
<title>Node6</title>
<g id="a_Node000006"><a xlink:href="../../d9/d0c/class_square.html#a8f3f73c6ceea3fba1c09dcaba56f49af" target="_top" xlink:title="Accessor Functions.">
<polygon fill="white" stroke="#666666" points="286.62,-352.25 191.12,-352.25 191.12,-333 286.62,-333 286.62,-352.25"/>
<text text-anchor="middle" x="238.88" y="-338.75" font-family="Helvetica,sans-Serif" font-size="10.00">Square::getLength</text>
</a>
</g>
</g>
<!-- Node1&#45;&gt;Node6 -->
<g id="edge5_Node000001_Node000006" class="edge">
<title>Node1&#45;&gt;Node6</title>
<g id="a_edge5_Node000001_Node000006"><a xlink:title=" ">
<path fill="none" stroke="#63b8ff" d="M85.75,-259.67C104.86,-275.42 144.12,-306.03 181.75,-324.62 184.49,-325.98 187.36,-327.27 190.29,-328.48"/>
<polygon fill="#63b8ff" stroke="#63b8ff" points="189.02,-331.74 199.61,-332.01 191.5,-325.19 189.02,-331.74"/>
</a>
</g>
</g>
<!-- Node7 -->
<g id="Node000007" class="node">
<title>Node7</title>
<g id="a_Node000007"><a xlink:href="../../da/d0e/class_text.html#aa538b21160165d28fbaf706c51221ef3" target="_top" xlink:title="Accessor Functions.">
<polygon fill="white" stroke="#666666" points="280.62,-315.25 197.12,-315.25 197.12,-296 280.62,-296 280.62,-315.25"/>
<text text-anchor="middle" x="238.88" y="-301.75" font-family="Helvetica,sans-Serif" font-size="10.00">Text::getLength</text>
</a>
</g>
</g>
<!-- Node1&#45;&gt;Node7 -->
<g id="edge6_Node000001_Node000007" class="edge">
<title>Node1&#45;&gt;Node7</title>
<g id="a_edge6_Node000001_Node000007"><a xlink:title=" ">
<path fill="none" stroke="#63b8ff" d="M101.74,-259.68C123.48,-267.47 154.46,-278.44 181.75,-287.62 185.99,-289.05 190.43,-290.52 194.86,-291.97"/>
<polygon fill="#63b8ff" stroke="#63b8ff" points="193.74,-295.28 204.33,-295.03 195.89,-288.62 193.74,-295.28"/>
</a>
</g>
</g>
<!-- Node8 -->
<g id="Node000008" class="node">
<title>Node8</title>
<g id="a_Node000008"><a xlink:href="../../d7/da7/class_shape.html#ab1cc10b4862f2e16db50622e2df278f3" target="_top" xlink:title=" ">
<polygon fill="white" stroke="#666666" points="284.38,-278.25 193.38,-278.25 193.38,-259 284.38,-259 284.38,-278.25"/>
<text text-anchor="middle" x="238.88" y="-264.75" font-family="Helvetica,sans-Serif" font-size="10.00">Shape::getPoints</text>
</a>
</g>
</g>
<!-- Node1&#45;&gt;Node8 -->
<g id="edge7_Node000001_Node000008" class="edge">
<title>Node1&#45;&gt;Node8</title>
<g id="a_edge7_Node000001_Node000008"><a xlink:title=" ">
<path fill="none" stroke="#63b8ff" d="M145.81,-257.96C157.81,-259.35 170.11,-260.77 181.65,-262.11"/>
<polygon fill="#63b8ff" stroke="#63b8ff" points="181.06,-265.57 191.4,-263.24 181.87,-258.61 181.06,-265.57"/>
</a>
</g>
</g>
<!-- Node9 -->
<g id="Node000009" class="node">
<title>Node9</title>
<g id="a_Node000009"><a xlink:href="../../d1/db0/class_polygon.html#aa29df027578f8427676e9eb4a5ee67c2" target="_top" xlink:title="getPointsList &#45; Returns the pointsList by value">
<polygon fill="white" stroke="#666666" points="296,-241.25 181.75,-241.25 181.75,-222 296,-222 296,-241.25"/>
<text text-anchor="middle" x="238.88" y="-227.75" font-family="Helvetica,sans-Serif" font-size="10.00">Polygon::getPointsList</text>
</a>
</g>
</g>
<!-- Node1&#45;&gt;Node9 -->
<g id="edge8_Node000001_Node000009" class="edge">
<title>Node1&#45;&gt;Node9</title>
<g id="a_edge8_Node000001_Node000009"><a xlink:title=" ">
<path fill="none" stroke="#63b8ff" d="M145.81,-241.73C153.88,-240.84 162.09,-239.94 170.1,-239.06"/>
<polygon fill="#63b8ff" stroke="#63b8ff" points="170.22,-242.57 179.77,-238 169.45,-235.61 170.22,-242.57"/>
</a>
</g>
</g>
<!-- Node10 -->
<g id="Node000010" class="node">
<title>Node10</title>
<g id="a_Node000010"><a xlink:href="../../d1/d42/class_polyline.html#acb3340122423e1c80e3aa7c7a30fda84" target="_top" xlink:title="getPointsList &#45; Returns the pointsList by value">
<polygon fill="white" stroke="#666666" points="295.62,-204.25 182.12,-204.25 182.12,-185 295.62,-185 295.62,-204.25"/>
<text text-anchor="middle" x="238.88" y="-190.75" font-family="Helvetica,sans-Serif" font-size="10.00">Polyline::getPointsList</text>
</a>
</g>
</g>
<!-- Node1&#45;&gt;Node10 -->
<g id="edge9_Node000001_Node000010" class="edge">
<title>Node1&#45;&gt;Node10</title>
<g id="a_edge9_Node000001_Node000010"><a xlink:title=" ">
<path fill="none" stroke="#63b8ff" d="M102.67,-239.57C124.37,-232.04 154.88,-221.54 181.75,-212.62 186.18,-211.16 190.8,-209.64 195.42,-208.14"/>
<polygon fill="#63b8ff" stroke="#63b8ff" points="196.2,-211.57 204.64,-205.16 194.05,-204.91 196.2,-211.57"/>
</a>
</g>
</g>
<!-- Node11 -->
<g id="Node000011" class="node">
<title>Node11</title>
<g id="a_Node000011"><a xlink:href="../../d0/d88/class_circle.html#a955ba2846a5c3a9f42b1e38f7ace0860" target="_top" xlink:title="getR &#45; Accessor &#45; Returns the radius">
<polygon fill="white" stroke="#666666" points="273.12,-167.25 204.62,-167.25 204.62,-148 273.12,-148 273.12,-167.25"/>
<text text-anchor="middle" x="238.88" y="-153.75" font-family="Helvetica,sans-Serif" font-size="10.00">Circle::getR</text>
</a>
</g>
</g>
<!-- Node1&#45;&gt;Node11 -->
<g id="edge10_Node000001_Node000011" class="edge">
<title>Node1&#45;&gt;Node11</title>
<g id="a_edge10_Node000001_Node000011"><a xlink:title=" ">
<path fill="none" stroke="#63b8ff" d="M85.77,-239.72C104.92,-224.2 144.23,-194.02 181.75,-175.62 185.51,-173.78 189.5,-172.07 193.55,-170.49"/>
<polygon fill="#63b8ff" stroke="#63b8ff" points="194.65,-173.82 202.88,-167.14 192.29,-167.23 194.65,-173.82"/>
</a>
</g>
</g>
<!-- Node12 -->
<g id="Node000012" class="node">
<title>Node12</title>
<g id="a_Node000012"><a xlink:href="../../d7/da7/class_shape.html#a4b502262ae5a22122456b9624d5ccb3d" target="_top" xlink:title="Accessor Functions &#45; Returns the data named after them.">
<polygon fill="white" stroke="#666666" points="288.5,-130.25 189.25,-130.25 189.25,-111 288.5,-111 288.5,-130.25"/>
<text text-anchor="middle" x="238.88" y="-116.75" font-family="Helvetica,sans-Serif" font-size="10.00">Shape::getShapeId</text>
</a>
</g>
</g>
<!-- Node1&#45;&gt;Node12 -->
<g id="edge11_Node000001_Node000012" class="edge">
<title>Node1&#45;&gt;Node12</title>
<g id="a_edge11_Node000001_Node000012"><a xlink:title=" ">
<path fill="none" stroke="#63b8ff" d="M80.78,-239.76C96.33,-218.25 136.3,-166.8 181.75,-138.62 183.64,-137.45 185.62,-136.35 187.65,-135.31"/>
<polygon fill="#63b8ff" stroke="#63b8ff" points="189.03,-138.53 196.76,-131.27 186.2,-132.13 189.03,-138.53"/>
</a>
</g>
</g>
<!-- Node13 -->
<g id="Node000013" class="node">
<title>Node13</title>
<g id="a_Node000013"><a xlink:href="../../dd/db4/class_line.html#ae0c35900f7e283b3559263455ac18669" target="_top" xlink:title="Accessor Functions.">
<polygon fill="white" stroke="#666666" points="287.38,-93.25 190.38,-93.25 190.38,-74 287.38,-74 287.38,-93.25"/>
<text text-anchor="middle" x="238.88" y="-79.75" font-family="Helvetica,sans-Serif" font-size="10.00">Line::getStartPoint</text>
</a>
</g>
</g>
<!-- Node1&#45;&gt;Node13 -->
<g id="edge12_Node000001_Node000013" class="edge">
<title>Node1&#45;&gt;Node13</title>
<g id="a_edge12_Node000001_Node000013"><a xlink:title=" ">
<path fill="none" stroke="#63b8ff" d="M78.35,-239.67C90.8,-213.15 128.4,-140.17 181.75,-101.62 183.12,-100.63 184.55,-99.69 186.03,-98.8"/>
<polygon fill="#63b8ff" stroke="#63b8ff" points="187.56,-101.95 194.91,-94.32 184.41,-95.7 187.56,-101.95"/>
</a>
</g>
</g>
<!-- Node14 -->
<g id="Node000014" class="node">
<title>Node14</title>
<g id="a_Node000014"><a xlink:href="../../d9/dc7/class_rectangle.html#ab38bbfcd0c11b39e0ef58ffd0b5c5069" target="_top" xlink:title=" ">
<polygon fill="white" stroke="#666666" points="291.5,-56.25 186.25,-56.25 186.25,-37 291.5,-37 291.5,-56.25"/>
<text text-anchor="middle" x="238.88" y="-42.75" font-family="Helvetica,sans-Serif" font-size="10.00">Rectangle::getWidth</text>
</a>
</g>
</g>
<!-- Node1&#45;&gt;Node14 -->
<g id="edge13_Node000001_Node000014" class="edge">
<title>Node1&#45;&gt;Node14</title>
<g id="a_edge13_Node000001_Node000014"><a xlink:title=" ">
<path fill="none" stroke="#63b8ff" d="M76.76,-239.92C86.33,-209.35 120,-114.21 181.75,-64.62 182.73,-63.84 183.74,-63.09 184.78,-62.37"/>
<polygon fill="#63b8ff" stroke="#63b8ff" points="186.48,-65.43 193.48,-57.48 183.05,-59.33 186.48,-65.43"/>
</a>
</g>
</g>
<!-- Node15 -->
<g id="Node000015" class="node">
<title>Node15</title>
<g id="a_Node000015"><a xlink:href="../../da/d0e/class_text.html#ad24ce301552aff8f9231d438ff9bd1e4" target="_top" xlink:title=" ">
<polygon fill="white" stroke="#666666" points="278.75,-19.25 199,-19.25 199,0 278.75,0 278.75,-19.25"/>
<text text-anchor="middle" x="238.88" y="-5.75" font-family="Helvetica,sans-Serif" font-size="10.00">Text::getWidth</text>
</a>
</g>
</g>
<!-- Node1&#45;&gt;Node15 -->
<g id="edge14_Node000001_Node000015" class="edge">
<title>Node1&#45;&gt;Node15</title>
<g id="a_edge14_Node000001_Node000015"><a xlink:title=" ">
<path fill="none" stroke="#63b8ff" d="M75.83,-239.5C83.1,-204.62 111.82,-88.27 181.75,-27.62 183.8,-25.84 186.04,-24.24 188.39,-22.79"/>
<polygon fill="#63b8ff" stroke="#63b8ff" points="189.85,-25.97 197.23,-18.37 186.72,-19.71 189.85,-25.97"/>
</a>
</g>
</g>
</g>
</svg>
