<?xml version="1.0" encoding="UTF-8" standalone="no"?>
<!DOCTYPE svg PUBLIC "-//W3C//DTD SVG 1.1//EN"
 "http://www.w3.org/Graphics/SVG/1.1/DTD/svg11.dtd">
<!-- Generated by graphviz version 12.2.1 (20241206.2353)
 -->
<!-- Title: Parser::GetBrushStyle Pages: 1 -->
<svg width="439pt" height="27pt"
 viewBox="0.00 0.00 439.25 27.25" xmlns="http://www.w3.org/2000/svg" xmlns:xlink="http://www.w3.org/1999/xlink">
<g id="graph0" class="graph" transform="scale(1 1) rotate(0) translate(4 23.25)">
<title>Parser::GetBrushStyle</title>
<!-- Node1 -->
<g id="Node000001" class="node">
<title>Node1</title>
<g id="a_Node000001"><a xlink:title="Gets the brush style of a shape as a string (e.g., &quot;SolidPattern&quot;, &quot;NoBrush&quot;).">
<polygon fill="#999999" stroke="#666666" points="431.25,-19.25 317,-19.25 317,0 431.25,0 431.25,-19.25"/>
<text text-anchor="middle" x="374.12" y="-5.75" font-family="Helvetica,sans-Serif" font-size="10.00">Parser::GetBrushStyle</text>
</a>
</g>
</g>
<!-- Node2 -->
<g id="Node000002" class="node">
<title>Node2</title>
<g id="a_Node000002"><a xlink:href="../../dc/db7/class_parser.html#a4947ae95392cd961660d9202d4c12e5e" target="_top" xlink:title="Appends QBrush properties (BrushColor, BrushStyle) to a JSON string.">
<polygon fill="white" stroke="#666666" points="281,-19.25 151,-19.25 151,0 281,0 281,-19.25"/>
<text text-anchor="middle" x="216" y="-5.75" font-family="Helvetica,sans-Serif" font-size="10.00">Parser::AppendBrushData</text>
</a>
</g>
</g>
<!-- Node1&#45;&gt;Node2 -->
<g id="edge1_Node000001_Node000002" class="edge">
<title>Node1&#45;&gt;Node2</title>
<g id="a_edge1_Node000001_Node000002"><a xlink:title=" ">
<path fill="none" stroke="#63b8ff" d="M305.51,-9.62C297.45,-9.62 289.24,-9.62 281.23,-9.62"/>
<polygon fill="#63b8ff" stroke="#63b8ff" points="305.25,-13.13 315.25,-9.63 305.25,-6.13 305.25,-13.13"/>
</a>
</g>
</g>
<!-- Node3 -->
<g id="Node000003" class="node">
<title>Node3</title>
<g id="a_Node000003"><a xlink:href="../../dc/db7/class_parser.html#ac0dc74d228421b62ece9d9e93511509e" target="_top" xlink:title="Converts a vector of Shape pointers into a JSON string representation.">
<polygon fill="white" stroke="#666666" points="115,-19.25 0,-19.25 0,0 115,0 115,-19.25"/>
<text text-anchor="middle" x="57.5" y="-5.75" font-family="Helvetica,sans-Serif" font-size="10.00">Parser::ShapesToJson</text>
</a>
</g>
</g>
<!-- Node2&#45;&gt;Node3 -->
<g id="edge2_Node000002_Node000003" class="edge">
<title>Node2&#45;&gt;Node3</title>
<g id="a_edge2_Node000002_Node000003"><a xlink:title=" ">
<path fill="none" stroke="#63b8ff" d="M139.44,-9.62C131.29,-9.62 123.1,-9.62 115.23,-9.62"/>
<polygon fill="#63b8ff" stroke="#63b8ff" points="139.38,-13.13 149.38,-9.63 139.38,-6.13 139.38,-13.13"/>
</a>
</g>
</g>
</g>
</svg>
