<?xml version="1.0" encoding="UTF-8" standalone="no"?>
<!DOCTYPE svg PUBLIC "-//W3C//DTD SVG 1.1//EN"
 "http://www.w3.org/Graphics/SVG/1.1/DTD/svg11.dtd">
<!-- Generated by graphviz version 12.2.1 (20241206.2353)
 -->
<!-- Title: Parser::AppendTextData Pages: 1 -->
<!--zoomable 582 -->

<svg id="main" version="1.1" xmlns="http://www.w3.org/2000/svg" xmlns:xlink="http://www.w3.org/1999/xlink" xml:space="preserve" onload="init(evt)">

<style type="text/css"><![CDATA[
.node, .edge {opacity: 0.7;}
.node.selected, .edge.selected {opacity: 1;}
.edge:hover path { stroke: red; }
.edge:hover polygon { stroke: red; fill: red; }
]]></style>

<defs>
  <circle id="rim" cx="0" cy="0" r="7"/>
  <circle id="rim2" cx="0" cy="0" r="3.5"/>
  <g id="zoomPlus">
    <use xlink:href="#rim" fill="#404040"><set attributeName="fill" to="#808080" begin="zoomplus.mouseover" end="zoomplus.mouseout"/></use>
    <path d="M-4,0h8M0,-4v8" fill="none" stroke="white" stroke-width="1.5" pointer-events="none"/>
  </g>
  <g id="zoomMin">
    <use xlink:href="#rim" fill="#404040"><set attributeName="fill" to="#808080" begin="zoomminus.mouseover" end="zoomminus.mouseout"/></use>
    <path d="M-4,0h8" fill="none" stroke="white" stroke-width="1.5" pointer-events="none"/>
  </g>
  <g id="arrowUp" transform="translate(30 24)">
    <use xlink:href="#rim"/>
    <path pointer-events="none" fill="none" stroke="white" stroke-width="1.5" d="M0,-3.0v7 M-2.5,-0.5L0,-3.0L2.5,-0.5"/>
  </g>
  <g id="arrowRight" transform="rotate(90) translate(36 -43)">
    <use xlink:href="#rim"/>
    <path pointer-events="none" fill="none" stroke="white" stroke-width="1.5" d="M0,-3.0v7 M-2.5,-0.5L0,-3.0L2.5,-0.5"/>
  </g>
  <g id="arrowDown" transform="rotate(180) translate(-30 -48)">
    <use xlink:href="#rim"/>
    <path pointer-events="none" fill="none" stroke="white" stroke-width="1.5" d="M0,-3.0v7 M-2.5,-0.5L0,-3.0L2.5,-0.5"/>
  </g>
  <g id="arrowLeft" transform="rotate(270) translate(-36 17)">
    <use xlink:href="#rim"/>
    <path pointer-events="none" fill="none" stroke="white" stroke-width="1.5" d="M0,-3.0v7 M-2.5,-0.5L0,-3.0L2.5,-0.5"/>
  </g>
  <g id="resetDef">
    <use xlink:href="#rim2" fill="#404040"><set attributeName="fill" to="#808080" begin="reset.mouseover" end="reset.mouseout"/></use>
  </g>
</defs>
<script type="application/ecmascript">
var viewWidth = 466;
var viewHeight = 582;
var sectionId = 'dynsection-8';
</script>
<script type="application/ecmascript" xlink:href="../../svg.min.js"/>
<svg id="graph" class="graph">
<g id="viewport">
<title>Parser::AppendTextData</title>
<!-- Node1 -->
<g id="Node000001" class="node">
<title>Node1</title>
<g id="a_Node000001"><a xlink:title="Appends all properties specific to Text objects to a JSON string.">
<polygon fill="#999999" stroke="#666666" points="123.25,-315.25 0,-315.25 0,-296 123.25,-296 123.25,-315.25"/>
<text text-anchor="middle" x="61.62" y="-301.75" font-family="Helvetica,sans-Serif" font-size="10.00">Parser::AppendTextData</text>
</a>
</g>
</g>
<!-- Node2 -->
<g id="Node000002" class="node">
<title>Node2</title>
<g id="a_Node000002"><a xlink:href="../../dc/db7/class_parser.html#a34f89825a62c101002365cdc06188b0b" target="_top" xlink:title="Gets the text alignment of a Text object as a string (e.g., &quot;AlignLeft&quot;, &quot;AlignCenter&quot;).">
<polygon fill="white" stroke="#666666" points="296.38,-538.25 167.88,-538.25 167.88,-519 296.38,-519 296.38,-538.25"/>
<text text-anchor="middle" x="232.12" y="-524.75" font-family="Helvetica,sans-Serif" font-size="10.00">Parser::GetAlignmentFlag</text>
</a>
</g>
</g>
<!-- Node1&#45;&gt;Node2 -->
<g id="edge1_Node000001_Node000002" class="edge">
<title>Node1&#45;&gt;Node2</title>
<g id="a_edge1_Node000001_Node000002"><a xlink:title=" ">
<path fill="none" stroke="#63b8ff" d="M66.64,-315.66C78.02,-343.29 112.74,-421.91 159.25,-474.62 172.25,-489.36 189.86,-502.67 204.39,-512.39"/>
<polygon fill="#63b8ff" stroke="#63b8ff" points="202.29,-515.2 212.59,-517.69 206.1,-509.32 202.29,-515.2"/>
</a>
</g>
</g>
<!-- Node4 -->
<g id="Node000004" class="node">
<title>Node4</title>
<g id="a_Node000004"><a xlink:href="../../dc/db7/class_parser.html#a873d052551342d31e66e6746b09d2fe9" target="_top" xlink:title="Converts a QColor object to its string representation (e.g., &quot;red&quot;, &quot;blue&quot;).">
<polygon fill="white" stroke="#666666" points="276.88,-465.25 187.38,-465.25 187.38,-446 276.88,-446 276.88,-465.25"/>
<text text-anchor="middle" x="232.12" y="-451.75" font-family="Helvetica,sans-Serif" font-size="10.00">Parser::GetColor</text>
</a>
</g>
</g>
<!-- Node1&#45;&gt;Node4 -->
<g id="edge3_Node000001_Node000004" class="edge">
<title>Node1&#45;&gt;Node4</title>
<g id="a_edge3_Node000001_Node000004"><a xlink:title=" ">
<path fill="none" stroke="#63b8ff" d="M67.48,-315.41C79.63,-338.94 113.69,-399.14 159.25,-431.62 164.6,-435.44 170.6,-438.68 176.8,-441.43"/>
<polygon fill="#63b8ff" stroke="#63b8ff" points="175.33,-444.61 185.91,-445.03 177.9,-438.1 175.33,-444.61"/>
</a>
</g>
</g>
<!-- Node5 -->
<g id="Node000005" class="node">
<title>Node5</title>
<g id="a_Node000005"><a xlink:href="../../da/d0e/class_text.html#ace6ab02148fe23efffcd3f7c3dde9183" target="_top" xlink:title=" ">
<polygon fill="white" stroke="#666666" points="436.12,-537.25 362.38,-537.25 362.38,-518 436.12,-518 436.12,-537.25"/>
<text text-anchor="middle" x="399.25" y="-523.75" font-family="Helvetica,sans-Serif" font-size="10.00">Text::getFont</text>
</a>
</g>
</g>
<!-- Node1&#45;&gt;Node5 -->
<g id="edge4_Node000001_Node000005" class="edge">
<title>Node1&#45;&gt;Node5</title>
<g id="a_edge4_Node000001_Node000005"><a xlink:title=" ">
<path fill="none" stroke="#63b8ff" d="M69.95,-315.46C84.67,-334.52 119.84,-376.55 159.25,-398.62 217.65,-431.34 253.11,-394.33 305,-436.62 333.04,-459.48 313.53,-486.08 341,-509.62 344.19,-512.36 347.8,-514.68 351.62,-516.65"/>
<polygon fill="#63b8ff" stroke="#63b8ff" points="350.09,-519.81 360.66,-520.49 352.83,-513.36 350.09,-519.81"/>
</a>
</g>
</g>
<!-- Node6 -->
<g id="Node000006" class="node">
<title>Node6</title>
<g id="a_Node000006"><a xlink:href="../../dc/db7/class_parser.html#a772810a8efbdda40d51d9a81125a45c0" target="_top" xlink:title="Gets the font style of a Text object as a string (e.g., &quot;StyleNormal&quot;, &quot;StyleItalic&quot;).">
<polygon fill="white" stroke="#666666" points="286.25,-389.25 178,-389.25 178,-370 286.25,-370 286.25,-389.25"/>
<text text-anchor="middle" x="232.12" y="-375.75" font-family="Helvetica,sans-Serif" font-size="10.00">Parser::GetFontStyle</text>
</a>
</g>
</g>
<!-- Node1&#45;&gt;Node6 -->
<g id="edge5_Node000001_Node000006" class="edge">
<title>Node1&#45;&gt;Node6</title>
<g id="a_edge5_Node000001_Node000006"><a xlink:title=" ">
<path fill="none" stroke="#63b8ff" d="M77.03,-315.71C95.35,-328.12 128.35,-349.09 159.25,-361.62 163.36,-363.29 167.66,-364.83 172.03,-366.26"/>
<polygon fill="#63b8ff" stroke="#63b8ff" points="170.94,-369.58 181.52,-369.12 172.96,-362.88 170.94,-369.58"/>
</a>
</g>
</g>
<!-- Node7 -->
<g id="Node000007" class="node">
<title>Node7</title>
<g id="a_Node000007"><a xlink:href="../../dc/db7/class_parser.html#ae8599ff5bde69ad1ceb08f81b955539d" target="_top" xlink:title="Gets the font weight of a Text object as a string (e.g., &quot;Normal&quot;, &quot;Bold&quot;).">
<polygon fill="white" stroke="#666666" points="290,-352.25 174.25,-352.25 174.25,-333 290,-333 290,-352.25"/>
<text text-anchor="middle" x="232.12" y="-338.75" font-family="Helvetica,sans-Serif" font-size="10.00">Parser::GetFontWeight</text>
</a>
</g>
</g>
<!-- Node1&#45;&gt;Node7 -->
<g id="edge7_Node000001_Node000007" class="edge">
<title>Node1&#45;&gt;Node7</title>
<g id="a_edge7_Node000001_Node000007"><a xlink:title=" ">
<path fill="none" stroke="#63b8ff" d="M108.67,-315.74C128.82,-320.16 152.68,-325.4 173.95,-330.07"/>
<polygon fill="#63b8ff" stroke="#63b8ff" points="173.14,-333.48 183.66,-332.2 174.64,-326.64 173.14,-333.48"/>
</a>
</g>
</g>
<!-- Node8 -->
<g id="Node000008" class="node">
<title>Node8</title>
<g id="a_Node000008"><a xlink:href="../../dc/db7/class_parser.html#af246a0732ef6c7518e5aaee1043d12e4" target="_top" xlink:title="Gets the geometric dimensions of a shape as a JSON array string.">
<polygon fill="white" stroke="#666666" points="305,-315.25 159.25,-315.25 159.25,-296 305,-296 305,-315.25"/>
<text text-anchor="middle" x="232.12" y="-301.75" font-family="Helvetica,sans-Serif" font-size="10.00">Parser::GetShapeDimensions</text>
</a>
</g>
</g>
<!-- Node1&#45;&gt;Node8 -->
<g id="edge9_Node000001_Node000008" class="edge">
<title>Node1&#45;&gt;Node8</title>
<g id="a_edge9_Node000001_Node000008"><a xlink:title=" ">
<path fill="none" stroke="#63b8ff" d="M123.46,-305.62C131.27,-305.62 139.38,-305.62 147.48,-305.62"/>
<polygon fill="#63b8ff" stroke="#63b8ff" points="147.39,-309.13 157.39,-305.63 147.39,-302.13 147.39,-309.13"/>
</a>
</g>
</g>
<!-- Node19 -->
<g id="Node000019" class="node">
<title>Node19</title>
<g id="a_Node000019"><a xlink:href="../../d7/da7/class_shape.html#a4b502262ae5a22122456b9624d5ccb3d" target="_top" xlink:title="Accessor Functions &#45; Returns the data named after them.">
<polygon fill="white" stroke="#666666" points="448.88,-19.25 349.62,-19.25 349.62,0 448.88,0 448.88,-19.25"/>
<text text-anchor="middle" x="399.25" y="-5.75" font-family="Helvetica,sans-Serif" font-size="10.00">Shape::getShapeId</text>
</a>
</g>
</g>
<!-- Node1&#45;&gt;Node19 -->
<g id="edge24_Node000001_Node000019" class="edge">
<title>Node1&#45;&gt;Node19</title>
<g id="a_edge24_Node000001_Node000019"><a xlink:title=" ">
<path fill="none" stroke="#63b8ff" d="M111.7,-295.54C180.58,-281.17 298.35,-255.76 305,-248.62 372.88,-175.85 275.84,-102.85 341,-27.62 341.26,-27.33 341.52,-27.04 341.78,-26.75"/>
<polygon fill="#63b8ff" stroke="#63b8ff" points="343.78,-29.64 349.4,-20.66 339.41,-24.17 343.78,-29.64"/>
</a>
</g>
</g>
<!-- Node23 -->
<g id="Node000023" class="node">
<title>Node23</title>
<g id="a_Node000023"><a xlink:href="../../d7/da7/class_shape.html#ab89b48cc1a361849a094c894075361e1" target="_top" xlink:title=" ">
<polygon fill="white" stroke="#666666" points="288.12,-239.25 176.12,-239.25 176.12,-220 288.12,-220 288.12,-239.25"/>
<text text-anchor="middle" x="232.12" y="-225.75" font-family="Helvetica,sans-Serif" font-size="10.00">Shape::getShapeType</text>
</a>
</g>
</g>
<!-- Node1&#45;&gt;Node23 -->
<g id="edge25_Node000001_Node000023" class="edge">
<title>Node1&#45;&gt;Node23</title>
<g id="a_edge25_Node000001_Node000023"><a xlink:title=" ">
<path fill="none" stroke="#63b8ff" d="M79.29,-295.52C98.21,-284.31 130.22,-266.17 159.25,-253.62 167.84,-249.91 177.2,-246.41 186.24,-243.29"/>
<polygon fill="#63b8ff" stroke="#63b8ff" points="187.22,-246.65 195.6,-240.16 185.01,-240.01 187.22,-246.65"/>
</a>
</g>
</g>
<!-- Node24 -->
<g id="Node000024" class="node">
<title>Node24</title>
<g id="a_Node000024"><a xlink:href="../../da/d0e/class_text.html#af3456aea5e1ce4ac424465a189e31294" target="_top" xlink:title=" ">
<polygon fill="white" stroke="#666666" points="280.25,-202.25 184,-202.25 184,-183 280.25,-183 280.25,-202.25"/>
<text text-anchor="middle" x="232.12" y="-188.75" font-family="Helvetica,sans-Serif" font-size="10.00">Text::getTextColor</text>
</a>
</g>
</g>
<!-- Node1&#45;&gt;Node24 -->
<g id="edge26_Node000001_Node000024" class="edge">
<title>Node1&#45;&gt;Node24</title>
<g id="a_edge26_Node000001_Node000024"><a xlink:title=" ">
<path fill="none" stroke="#63b8ff" d="M69.88,-295.54C84.48,-276 119.44,-232.95 159.25,-210.62 163.6,-208.19 168.27,-206.08 173.08,-204.25"/>
<polygon fill="#63b8ff" stroke="#63b8ff" points="173.93,-207.65 182.3,-201.16 171.71,-201.02 173.93,-207.65"/>
</a>
</g>
</g>
<!-- Node25 -->
<g id="Node000025" class="node">
<title>Node25</title>
<g id="a_Node000025"><a xlink:href="../../da/d0e/class_text.html#ac4d54ea22e31be28700336bbc5bde23e" target="_top" xlink:title=" ">
<polygon fill="white" stroke="#666666" points="281.38,-165.25 182.88,-165.25 182.88,-146 281.38,-146 281.38,-165.25"/>
<text text-anchor="middle" x="232.12" y="-151.75" font-family="Helvetica,sans-Serif" font-size="10.00">Text::getTextString</text>
</a>
</g>
</g>
<!-- Node1&#45;&gt;Node25 -->
<g id="edge27_Node000001_Node000025" class="edge">
<title>Node1&#45;&gt;Node25</title>
<g id="a_edge27_Node000001_Node000025"><a xlink:title=" ">
<path fill="none" stroke="#63b8ff" d="M67.02,-295.5C78.36,-270.58 111.18,-205.96 159.25,-173.62 163.15,-171 167.41,-168.76 171.83,-166.84"/>
<polygon fill="#63b8ff" stroke="#63b8ff" points="172.8,-170.22 180.96,-163.46 170.37,-163.65 172.8,-170.22"/>
</a>
</g>
</g>
<!-- Node26 -->
<g id="Node000026" class="node">
<title>Node26</title>
<g id="a_Node000026"><a xlink:href="../../d7/da7/class_shape.html#aec4675c2b06d40373eefac4b982af242" target="_top" xlink:title=" ">
<polygon fill="white" stroke="#666666" points="284.38,-128.25 179.88,-128.25 179.88,-109 284.38,-109 284.38,-128.25"/>
<text text-anchor="middle" x="232.12" y="-114.75" font-family="Helvetica,sans-Serif" font-size="10.00">Shape::getTrackerId</text>
</a>
</g>
</g>
<!-- Node1&#45;&gt;Node26 -->
<g id="edge28_Node000001_Node000026" class="edge">
<title>Node1&#45;&gt;Node26</title>
<g id="a_edge28_Node000001_Node000026"><a xlink:title=" ">
<path fill="none" stroke="#63b8ff" d="M65.26,-295.79C73.63,-266.57 102.41,-179.69 159.25,-136.62 162.37,-134.26 165.76,-132.21 169.32,-130.42"/>
<polygon fill="#63b8ff" stroke="#63b8ff" points="170.43,-133.75 178.3,-126.64 167.72,-127.29 170.43,-133.75"/>
</a>
</g>
</g>
<!-- Node3 -->
<g id="Node000003" class="node">
<title>Node3</title>
<g id="a_Node000003"><a xlink:href="../../da/d0e/class_text.html#a3d6716fc88f895932e2c96940188c647" target="_top" xlink:title=" ">
<polygon fill="white" stroke="#666666" points="457.5,-574.25 341,-574.25 341,-555 457.5,-555 457.5,-574.25"/>
<text text-anchor="middle" x="399.25" y="-560.75" font-family="Helvetica,sans-Serif" font-size="10.00">Text::getTextAlignment</text>
</a>
</g>
</g>
<!-- Node2&#45;&gt;Node3 -->
<g id="edge2_Node000002_Node000003" class="edge">
<title>Node2&#45;&gt;Node3</title>
<g id="a_edge2_Node000002_Node000003"><a xlink:title=" ">
<path fill="none" stroke="#63b8ff" d="M279.56,-538.75C298.55,-542.89 320.71,-547.72 340.71,-552.08"/>
<polygon fill="#63b8ff" stroke="#63b8ff" points="339.88,-555.48 350.4,-554.19 341.37,-548.64 339.88,-555.48"/>
</a>
</g>
</g>
<!-- Node6&#45;&gt;Node5 -->
<g id="edge6_Node000006_Node000005" class="edge">
<title>Node6&#45;&gt;Node5</title>
<g id="a_edge6_Node000006_Node000005"><a xlink:title=" ">
<path fill="none" stroke="#63b8ff" d="M283.33,-389.7C291.32,-393.08 298.94,-397.59 305,-403.62 340.27,-438.72 305.42,-474.85 341,-509.62 344.18,-512.73 347.89,-515.3 351.86,-517.43"/>
<polygon fill="#63b8ff" stroke="#63b8ff" points="350.18,-520.52 360.74,-521.26 352.95,-514.09 350.18,-520.52"/>
</a>
</g>
</g>
<!-- Node7&#45;&gt;Node5 -->
<g id="edge8_Node000007_Node000005" class="edge">
<title>Node7&#45;&gt;Node5</title>
<g id="a_edge8_Node000007_Node000005"><a xlink:title=" ">
<path fill="none" stroke="#63b8ff" d="M290.46,-350.61C295.84,-353.15 300.83,-356.42 305,-360.62 352.97,-409 294.48,-459.85 341,-509.62 344.07,-512.91 347.74,-515.6 351.71,-517.81"/>
<polygon fill="#63b8ff" stroke="#63b8ff" points="350.1,-520.92 360.66,-521.73 352.91,-514.51 350.1,-520.92"/>
</a>
</g>
</g>
<!-- Node9 -->
<g id="Node000009" class="node">
<title>Node9</title>
<g id="a_Node000009"><a xlink:href="../../dc/d25/class_ellipse.html#a77211318bb4d61848cfa76e887c290f0" target="_top" xlink:title="Accessor Functions.">
<polygon fill="white" stroke="#666666" points="435,-500.25 363.5,-500.25 363.5,-481 435,-481 435,-500.25"/>
<text text-anchor="middle" x="399.25" y="-486.75" font-family="Helvetica,sans-Serif" font-size="10.00">Ellipse::getA</text>
</a>
</g>
</g>
<!-- Node8&#45;&gt;Node9 -->
<g id="edge10_Node000008_Node000009" class="edge">
<title>Node8&#45;&gt;Node9</title>
<g id="a_edge10_Node000008_Node000009"><a xlink:title=" ">
<path fill="none" stroke="#63b8ff" d="M294.25,-315.56C298.18,-317.77 301.83,-320.43 305,-323.62 352.97,-372 294.48,-422.85 341,-472.62 344.32,-476.18 348.34,-479.04 352.68,-481.33"/>
<polygon fill="#63b8ff" stroke="#63b8ff" points="351.27,-484.53 361.84,-485.15 353.96,-478.07 351.27,-484.53"/>
</a>
</g>
</g>
<!-- Node10 -->
<g id="Node000010" class="node">
<title>Node10</title>
<g id="a_Node000010"><a xlink:href="../../dc/d25/class_ellipse.html#a18ac4b70047614c98a8e663cc900b656" target="_top" xlink:title=" ">
<polygon fill="white" stroke="#666666" points="435,-463.25 363.5,-463.25 363.5,-444 435,-444 435,-463.25"/>
<text text-anchor="middle" x="399.25" y="-449.75" font-family="Helvetica,sans-Serif" font-size="10.00">Ellipse::getB</text>
</a>
</g>
</g>
<!-- Node8&#45;&gt;Node10 -->
<g id="edge11_Node000008_Node000010" class="edge">
<title>Node8&#45;&gt;Node10</title>
<g id="a_edge11_Node000008_Node000010"><a xlink:title=" ">
<path fill="none" stroke="#63b8ff" d="M293.65,-315.64C297.77,-317.83 301.62,-320.46 305,-323.62 343.16,-359.36 303.91,-398.77 341,-435.62 344.41,-439.01 348.45,-441.76 352.78,-444"/>
<polygon fill="#63b8ff" stroke="#63b8ff" points="351.28,-447.16 361.86,-447.75 353.95,-440.7 351.28,-447.16"/>
</a>
</g>
</g>
<!-- Node11 -->
<g id="Node000011" class="node">
<title>Node11</title>
<g id="a_Node000011"><a xlink:href="../../dd/db4/class_line.html#aedb630a8121c423320ef5e369e17f65f" target="_top" xlink:title=" ">
<polygon fill="white" stroke="#666666" points="445.88,-426.25 352.62,-426.25 352.62,-407 445.88,-407 445.88,-426.25"/>
<text text-anchor="middle" x="399.25" y="-412.75" font-family="Helvetica,sans-Serif" font-size="10.00">Line::getEndPoint</text>
</a>
</g>
</g>
<!-- Node8&#45;&gt;Node11 -->
<g id="edge12_Node000008_Node000011" class="edge">
<title>Node8&#45;&gt;Node11</title>
<g id="a_edge12_Node000008_Node000011"><a xlink:title=" ">
<path fill="none" stroke="#63b8ff" d="M292.12,-315.66C296.74,-317.83 301.11,-320.45 305,-323.62 333.65,-347 313.06,-374.41 341,-398.62 341.93,-399.43 342.89,-400.19 343.88,-400.92"/>
<polygon fill="#63b8ff" stroke="#63b8ff" points="341.8,-403.76 352.18,-405.86 345.37,-397.74 341.8,-403.76"/>
</a>
</g>
</g>
<!-- Node12 -->
<g id="Node000012" class="node">
<title>Node12</title>
<g id="a_Node000012"><a xlink:href="../../d9/dc7/class_rectangle.html#af86510135f0d97d2295bbc304ea932bf" target="_top" xlink:title="Accessor Functions.">
<polygon fill="white" stroke="#666666" points="453.75,-389.25 344.75,-389.25 344.75,-370 453.75,-370 453.75,-389.25"/>
<text text-anchor="middle" x="399.25" y="-375.75" font-family="Helvetica,sans-Serif" font-size="10.00">Rectangle::getLength</text>
</a>
</g>
</g>
<!-- Node8&#45;&gt;Node12 -->
<g id="edge13_Node000008_Node000012" class="edge">
<title>Node8&#45;&gt;Node12</title>
<g id="a_edge13_Node000008_Node000012"><a xlink:title=" ">
<path fill="none" stroke="#63b8ff" d="M287.43,-315.66C293.57,-317.82 299.56,-320.44 305,-323.62 325.09,-335.36 321.27,-349.3 341,-361.62 342.89,-362.81 344.86,-363.91 346.89,-364.95"/>
<polygon fill="#63b8ff" stroke="#63b8ff" points="345.44,-368.14 356,-369 348.28,-361.74 345.44,-368.14"/>
</a>
</g>
</g>
<!-- Node13 -->
<g id="Node000013" class="node">
<title>Node13</title>
<g id="a_Node000013"><a xlink:href="../../d9/d0c/class_square.html#a8f3f73c6ceea3fba1c09dcaba56f49af" target="_top" xlink:title="Accessor Functions.">
<polygon fill="white" stroke="#666666" points="447,-352.25 351.5,-352.25 351.5,-333 447,-333 447,-352.25"/>
<text text-anchor="middle" x="399.25" y="-338.75" font-family="Helvetica,sans-Serif" font-size="10.00">Square::getLength</text>
</a>
</g>
</g>
<!-- Node8&#45;&gt;Node13 -->
<g id="edge14_Node000008_Node000013" class="edge">
<title>Node8&#45;&gt;Node13</title>
<g id="a_edge14_Node000008_Node000013"><a xlink:title=" ">
<path fill="none" stroke="#63b8ff" d="M278.25,-315.74C298,-320.16 321.37,-325.4 342.22,-330.07"/>
<polygon fill="#63b8ff" stroke="#63b8ff" points="341.18,-333.42 351.71,-332.2 342.71,-326.59 341.18,-333.42"/>
</a>
</g>
</g>
<!-- Node14 -->
<g id="Node000014" class="node">
<title>Node14</title>
<g id="a_Node000014"><a xlink:href="../../da/d0e/class_text.html#aa538b21160165d28fbaf706c51221ef3" target="_top" xlink:title="Accessor Functions.">
<polygon fill="white" stroke="#666666" points="441,-315.25 357.5,-315.25 357.5,-296 441,-296 441,-315.25"/>
<text text-anchor="middle" x="399.25" y="-301.75" font-family="Helvetica,sans-Serif" font-size="10.00">Text::getLength</text>
</a>
</g>
</g>
<!-- Node8&#45;&gt;Node14 -->
<g id="edge15_Node000008_Node000014" class="edge">
<title>Node8&#45;&gt;Node14</title>
<g id="a_edge15_Node000008_Node000014"><a xlink:title=" ">
<path fill="none" stroke="#63b8ff" d="M305.07,-305.62C318.92,-305.62 333.17,-305.62 346.23,-305.62"/>
<polygon fill="#63b8ff" stroke="#63b8ff" points="345.86,-309.13 355.86,-305.63 345.86,-302.13 345.86,-309.13"/>
</a>
</g>
</g>
<!-- Node15 -->
<g id="Node000015" class="node">
<title>Node15</title>
<g id="a_Node000015"><a xlink:href="../../d7/da7/class_shape.html#ab1cc10b4862f2e16db50622e2df278f3" target="_top" xlink:title=" ">
<polygon fill="white" stroke="#666666" points="444.75,-278.25 353.75,-278.25 353.75,-259 444.75,-259 444.75,-278.25"/>
<text text-anchor="middle" x="399.25" y="-264.75" font-family="Helvetica,sans-Serif" font-size="10.00">Shape::getPoints</text>
</a>
</g>
</g>
<!-- Node8&#45;&gt;Node15 -->
<g id="edge16_Node000008_Node000015" class="edge">
<title>Node8&#45;&gt;Node15</title>
<g id="a_edge16_Node000008_Node000015"><a xlink:title=" ">
<path fill="none" stroke="#63b8ff" d="M278.25,-295.51C298.08,-291.07 321.56,-285.81 342.48,-281.12"/>
<polygon fill="#63b8ff" stroke="#63b8ff" points="343,-284.59 351.99,-278.99 341.47,-277.76 343,-284.59"/>
</a>
</g>
</g>
<!-- Node16 -->
<g id="Node000016" class="node">
<title>Node16</title>
<g id="a_Node000016"><a xlink:href="../../d1/db0/class_polygon.html#aa29df027578f8427676e9eb4a5ee67c2" target="_top" xlink:title="getPointsList &#45; Returns the pointsList by value">
<polygon fill="white" stroke="#666666" points="456.38,-241.25 342.12,-241.25 342.12,-222 456.38,-222 456.38,-241.25"/>
<text text-anchor="middle" x="399.25" y="-227.75" font-family="Helvetica,sans-Serif" font-size="10.00">Polygon::getPointsList</text>
</a>
</g>
</g>
<!-- Node8&#45;&gt;Node16 -->
<g id="edge17_Node000008_Node000016" class="edge">
<title>Node8&#45;&gt;Node16</title>
<g id="a_edge17_Node000008_Node000016"><a xlink:title=" ">
<path fill="none" stroke="#63b8ff" d="M272.79,-295.55C283.62,-291.96 295.09,-287.36 305,-281.62 323.53,-270.91 322.38,-260.18 341,-249.62 343.21,-248.37 345.52,-247.2 347.88,-246.09"/>
<polygon fill="#63b8ff" stroke="#63b8ff" points="349.22,-249.33 357.13,-242.28 346.55,-242.86 349.22,-249.33"/>
</a>
</g>
</g>
<!-- Node17 -->
<g id="Node000017" class="node">
<title>Node17</title>
<g id="a_Node000017"><a xlink:href="../../d1/d42/class_polyline.html#acb3340122423e1c80e3aa7c7a30fda84" target="_top" xlink:title="getPointsList &#45; Returns the pointsList by value">
<polygon fill="white" stroke="#666666" points="456,-204.25 342.5,-204.25 342.5,-185 456,-185 456,-204.25"/>
<text text-anchor="middle" x="399.25" y="-190.75" font-family="Helvetica,sans-Serif" font-size="10.00">Polyline::getPointsList</text>
</a>
</g>
</g>
<!-- Node8&#45;&gt;Node17 -->
<g id="edge18_Node000008_Node000017" class="edge">
<title>Node8&#45;&gt;Node17</title>
<g id="a_edge18_Node000008_Node000017"><a xlink:title=" ">
<path fill="none" stroke="#63b8ff" d="M280.35,-295.63C289.2,-292.23 297.89,-287.69 305,-281.62 331.32,-259.18 314.48,-234.84 341,-212.62 341.94,-211.84 342.91,-211.09 343.91,-210.37"/>
<polygon fill="#63b8ff" stroke="#63b8ff" points="345.4,-213.56 352.28,-205.5 341.87,-207.5 345.4,-213.56"/>
</a>
</g>
</g>
<!-- Node18 -->
<g id="Node000018" class="node">
<title>Node18</title>
<g id="a_Node000018"><a xlink:href="../../d0/d88/class_circle.html#a955ba2846a5c3a9f42b1e38f7ace0860" target="_top" xlink:title="getR &#45; Accessor &#45; Returns the radius">
<polygon fill="white" stroke="#666666" points="433.5,-167.25 365,-167.25 365,-148 433.5,-148 433.5,-167.25"/>
<text text-anchor="middle" x="399.25" y="-153.75" font-family="Helvetica,sans-Serif" font-size="10.00">Circle::getR</text>
</a>
</g>
</g>
<!-- Node8&#45;&gt;Node18 -->
<g id="edge19_Node000008_Node000018" class="edge">
<title>Node8&#45;&gt;Node18</title>
<g id="a_edge19_Node000008_Node000018"><a xlink:title=" ">
<path fill="none" stroke="#63b8ff" d="M283.33,-295.55C291.32,-292.17 298.94,-287.66 305,-281.62 340.27,-246.53 305.42,-210.4 341,-175.62 344.7,-172 349.13,-169.11 353.86,-166.8"/>
<polygon fill="#63b8ff" stroke="#63b8ff" points="355.08,-170.08 363.11,-163.16 352.52,-163.56 355.08,-170.08"/>
</a>
</g>
</g>
<!-- Node8&#45;&gt;Node19 -->
<g id="edge20_Node000008_Node000019" class="edge">
<title>Node8&#45;&gt;Node19</title>
<g id="a_edge20_Node000008_Node000019"><a xlink:title=" ">
<path fill="none" stroke="#63b8ff" d="M286.12,-295.63C293.31,-292.23 299.95,-287.69 305,-281.62 377.99,-194.03 267.24,-114.57 341,-27.62 341.25,-27.33 341.51,-27.03 341.77,-26.75"/>
<polygon fill="#63b8ff" stroke="#63b8ff" points="343.78,-29.63 349.34,-20.61 339.37,-24.19 343.78,-29.63"/>
</a>
</g>
</g>
<!-- Node20 -->
<g id="Node000020" class="node">
<title>Node20</title>
<g id="a_Node000020"><a xlink:href="../../dd/db4/class_line.html#ae0c35900f7e283b3559263455ac18669" target="_top" xlink:title="Accessor Functions.">
<polygon fill="white" stroke="#666666" points="447.75,-130.25 350.75,-130.25 350.75,-111 447.75,-111 447.75,-130.25"/>
<text text-anchor="middle" x="399.25" y="-116.75" font-family="Helvetica,sans-Serif" font-size="10.00">Line::getStartPoint</text>
</a>
</g>
</g>
<!-- Node8&#45;&gt;Node20 -->
<g id="edge21_Node000008_Node000020" class="edge">
<title>Node8&#45;&gt;Node20</title>
<g id="a_edge21_Node000008_Node000020"><a xlink:title=" ">
<path fill="none" stroke="#63b8ff" d="M284.48,-295.63C292.15,-292.24 299.37,-287.7 305,-281.62 349.56,-233.56 296.02,-186.29 341,-138.62 341.38,-138.23 341.76,-137.84 342.15,-137.46"/>
<polygon fill="#63b8ff" stroke="#63b8ff" points="344.2,-140.29 350.19,-131.55 340.06,-134.65 344.2,-140.29"/>
</a>
</g>
</g>
<!-- Node21 -->
<g id="Node000021" class="node">
<title>Node21</title>
<g id="a_Node000021"><a xlink:href="../../d9/dc7/class_rectangle.html#ab38bbfcd0c11b39e0ef58ffd0b5c5069" target="_top" xlink:title=" ">
<polygon fill="white" stroke="#666666" points="451.88,-93.25 346.62,-93.25 346.62,-74 451.88,-74 451.88,-93.25"/>
<text text-anchor="middle" x="399.25" y="-79.75" font-family="Helvetica,sans-Serif" font-size="10.00">Rectangle::getWidth</text>
</a>
</g>
</g>
<!-- Node8&#45;&gt;Node21 -->
<g id="edge22_Node000008_Node000021" class="edge">
<title>Node8&#45;&gt;Node21</title>
<g id="a_edge22_Node000008_Node000021"><a xlink:title=" ">
<path fill="none" stroke="#63b8ff" d="M285.46,-295.54C292.83,-292.15 299.69,-287.64 305,-281.62 358.98,-220.45 286.49,-162.32 341,-101.62 341.36,-101.23 341.72,-100.84 342.1,-100.46"/>
<polygon fill="#63b8ff" stroke="#63b8ff" points="343.96,-103.44 349.77,-94.58 339.7,-97.88 343.96,-103.44"/>
</a>
</g>
</g>
<!-- Node22 -->
<g id="Node000022" class="node">
<title>Node22</title>
<g id="a_Node000022"><a xlink:href="../../da/d0e/class_text.html#ad24ce301552aff8f9231d438ff9bd1e4" target="_top" xlink:title=" ">
<polygon fill="white" stroke="#666666" points="439.12,-56.25 359.38,-56.25 359.38,-37 439.12,-37 439.12,-56.25"/>
<text text-anchor="middle" x="399.25" y="-42.75" font-family="Helvetica,sans-Serif" font-size="10.00">Text::getWidth</text>
</a>
</g>
</g>
<!-- Node8&#45;&gt;Node22 -->
<g id="edge23_Node000008_Node000022" class="edge">
<title>Node8&#45;&gt;Node22</title>
<g id="a_edge23_Node000008_Node000022"><a xlink:title=" ">
<path fill="none" stroke="#63b8ff" d="M286,-295.52C293.21,-292.14 299.88,-287.63 305,-281.62 368.46,-207.26 276.88,-138.43 341,-64.62 343.32,-61.96 346.02,-59.68 348.98,-57.74"/>
<polygon fill="#63b8ff" stroke="#63b8ff" points="350.4,-60.94 357.73,-53.29 347.23,-54.7 350.4,-60.94"/>
</a>
</g>
</g>
</g>
</svg>

<g id="navigator" transform="translate(0 0)" fill="#404254">
  <rect fill="#f2f5e9" fill-opacity="0.5" stroke="#606060" stroke-width=".5" x="0" y="0" width="60" height="60"/>
  <use id="zoomplus" xlink:href="#zoomPlus" x="17" y="9" onmousedown="handleZoom(evt,'in')"/>
  <use id="zoomminus" xlink:href="#zoomMin" x="42" y="9" onmousedown="handleZoom(evt,'out')"/>
  <use id="reset" xlink:href="#resetDef" x="30" y="36" onmousedown="handleReset()"/>
   <use id="arrowup" xlink:href="#arrowUp" x="0" y="0" onmousedown="handlePan(0,-1)"/>
  <use id="arrowright" xlink:href="#arrowRight" x="0" y="0" onmousedown="handlePan(1,0)"/>
  <use id="arrowdown" xlink:href="#arrowDown" x="0" y="0" onmousedown="handlePan(0,1)"/>
  <use id="arrowleft" xlink:href="#arrowLeft" x="0" y="0" onmousedown="handlePan(-1,0)"/>
</g>
<svg viewBox="0 0 15 15" width="100%" height="30px" preserveAspectRatio="xMaxYMin meet">
 <g id="arrow_out" transform="scale(0.3 0.3)">
  <a xlink:href="class_parser_a3c8d6dcf6e07231eaedb036ebe90b51f_cgraph_org.svg" target="_base">
   <rect id="button" ry="5" rx="5" y="6" x="6" height="38" width="38"
        fill="#f2f5e9" fill-opacity="0.5" stroke="#606060" stroke-width="1.0"/>
   <path id="arrow"
     d="M 11.500037,31.436501 C 11.940474,20.09759 22.043105,11.32322 32.158766,21.979434 L 37.068811,17.246167 C 37.068811,17.246167 37.088388,32 37.088388,32 L 22.160133,31.978069 C 22.160133,31.978069 26.997745,27.140456 26.997745,27.140456 C 18.528582,18.264221 13.291696,25.230495 11.500037,31.436501 z"
     style="fill:#404040;"/>
  </a>
 </g>
</svg>

<style type='text/css'>
<![CDATA[
[data-mouse-over-selected='false'] { opacity: 0.7; }
[data-mouse-over-selected='true']  { opacity: 1.0; }
]]>
</style>
<script type="application/ecmascript"><![CDATA[
document.addEventListener('DOMContentLoaded', (event) => {
  highlightEdges();
  highlightAdjacentNodes();
});
]]></script>
</svg>
