<?xml version="1.0" encoding="UTF-8" standalone="no"?>
<!DOCTYPE svg PUBLIC "-//W3C//DTD SVG 1.1//EN"
 "http://www.w3.org/Graphics/SVG/1.1/DTD/svg11.dtd">
<!-- Generated by graphviz version 12.2.1 (20241206.2353)
 -->
<!-- Title: Parser::ExtractKey Pages: 1 -->
<svg width="562pt" height="64pt"
 viewBox="0.00 0.00 561.75 64.25" xmlns="http://www.w3.org/2000/svg" xmlns:xlink="http://www.w3.org/1999/xlink">
<g id="graph0" class="graph" transform="scale(1 1) rotate(0) translate(4 60.25)">
<title>Parser::ExtractKey</title>
<!-- Node1 -->
<g id="Node000001" class="node">
<title>Node1</title>
<g id="a_Node000001"><a xlink:title="Extracts a JSON key (a string enclosed in double quotes) from the input string.">
<polygon fill="#999999" stroke="#666666" points="553.75,-38.25 454.5,-38.25 454.5,-19 553.75,-19 553.75,-38.25"/>
<text text-anchor="middle" x="504.12" y="-24.75" font-family="Helvetica,sans-Serif" font-size="10.00">Parser::ExtractKey</text>
</a>
</g>
</g>
<!-- Node2 -->
<g id="Node000002" class="node">
<title>Node2</title>
<g id="a_Node000002"><a xlink:href="../../dc/db7/class_parser.html#ade9641ed520d4e9b73600e3cc049af46" target="_top" xlink:title="Extracts a JSON value from the input string.">
<polygon fill="white" stroke="#666666" points="418.5,-38.25 312.5,-38.25 312.5,-19 418.5,-19 418.5,-38.25"/>
<text text-anchor="middle" x="365.5" y="-24.75" font-family="Helvetica,sans-Serif" font-size="10.00">Parser::ExtractValue</text>
</a>
</g>
</g>
<!-- Node1&#45;&gt;Node2 -->
<g id="edge1_Node000001_Node000002" class="edge">
<title>Node1&#45;&gt;Node2</title>
<g id="a_edge1_Node000001_Node000002"><a xlink:title=" ">
<path fill="none" stroke="#63b8ff" d="M442.67,-28.62C434.71,-28.62 426.6,-28.62 418.79,-28.62"/>
<polygon fill="#63b8ff" stroke="#63b8ff" points="442.67,-32.13 452.67,-28.63 442.67,-25.13 442.67,-32.13"/>
</a>
</g>
</g>
<!-- Node3 -->
<g id="Node000003" class="node">
<title>Node3</title>
<g id="a_Node000003"><a xlink:href="../../dc/db7/class_parser.html#a7e0c6d8559fd28407b48e9eef05496d8" target="_top" xlink:title="Converts a JSON string representation into a vector of UserAccount objects.">
<polygon fill="white" stroke="#666666" points="267.88,-56.25 159.62,-56.25 159.62,-37 267.88,-37 267.88,-56.25"/>
<text text-anchor="middle" x="213.75" y="-42.75" font-family="Helvetica,sans-Serif" font-size="10.00">Parser::JsonToUsers</text>
</a>
</g>
</g>
<!-- Node1&#45;&gt;Node3 -->
<g id="edge5_Node000001_Node000003" class="edge">
<title>Node1&#45;&gt;Node3</title>
<g id="a_edge5_Node000001_Node000003"><a xlink:title=" ">
<path fill="none" stroke="#63b8ff" d="M455.25,-41.3C443.33,-43.92 430.52,-46.29 418.5,-47.62 367.7,-53.26 309.33,-52.21 268.12,-50.23"/>
<polygon fill="#63b8ff" stroke="#63b8ff" points="455.92,-44.74 464.88,-39.08 454.34,-37.92 455.92,-44.74"/>
</a>
</g>
</g>
<!-- Node4 -->
<g id="Node000004" class="node">
<title>Node4</title>
<g id="a_Node000004"><a xlink:href="../../dc/db7/class_parser.html#a4d2c4035d6109be0ceca773cfbcff523" target="_top" xlink:title="Parses a single JSON object (data within &#39;{}&#39;) into a MorphicShape.">
<polygon fill="white" stroke="#666666" points="276.5,-19.25 151,-19.25 151,0 276.5,0 276.5,-19.25"/>
<text text-anchor="middle" x="213.75" y="-5.75" font-family="Helvetica,sans-Serif" font-size="10.00">Parser::ParseJsonObject</text>
</a>
</g>
</g>
<!-- Node1&#45;&gt;Node4 -->
<g id="edge6_Node000001_Node000004" class="edge">
<title>Node1&#45;&gt;Node4</title>
<g id="a_edge6_Node000001_Node000004"><a xlink:title=" ">
<path fill="none" stroke="#63b8ff" d="M455.25,-15.95C443.33,-13.33 430.52,-10.96 418.5,-9.62 371.21,-4.38 317.37,-4.65 276.92,-6.08"/>
<polygon fill="#63b8ff" stroke="#63b8ff" points="454.34,-19.33 464.88,-18.17 455.92,-12.51 454.34,-19.33"/>
</a>
</g>
</g>
<!-- Node2&#45;&gt;Node3 -->
<g id="edge2_Node000002_Node000003" class="edge">
<title>Node2&#45;&gt;Node3</title>
<g id="a_edge2_Node000002_Node000003"><a xlink:title=" ">
<path fill="none" stroke="#63b8ff" d="M300.97,-36.26C290.11,-37.57 278.93,-38.91 268.36,-40.18"/>
<polygon fill="#63b8ff" stroke="#63b8ff" points="301.11,-39.77 310.62,-35.1 300.28,-32.82 301.11,-39.77"/>
</a>
</g>
</g>
<!-- Node2&#45;&gt;Node4 -->
<g id="edge3_Node000002_Node000004" class="edge">
<title>Node2&#45;&gt;Node4</title>
<g id="a_edge3_Node000002_Node000004"><a xlink:title=" ">
<path fill="none" stroke="#63b8ff" d="M300.71,-20.53C292.81,-19.53 284.74,-18.51 276.87,-17.51"/>
<polygon fill="#63b8ff" stroke="#63b8ff" points="300.26,-24 310.62,-21.79 301.14,-17.06 300.26,-24"/>
</a>
</g>
</g>
<!-- Node5 -->
<g id="Node000005" class="node">
<title>Node5</title>
<g id="a_Node000005"><a xlink:href="../../dc/db7/class_parser.html#a9c4bd21d0d23be70682e026d6e702ec9" target="_top" xlink:title="Converts a JSON string representation into a vector of Shape objects.">
<polygon fill="white" stroke="#666666" points="115,-19.25 0,-19.25 0,0 115,0 115,-19.25"/>
<text text-anchor="middle" x="57.5" y="-5.75" font-family="Helvetica,sans-Serif" font-size="10.00">Parser::JsonToShapes</text>
</a>
</g>
</g>
<!-- Node4&#45;&gt;Node5 -->
<g id="edge4_Node000004_Node000005" class="edge">
<title>Node4&#45;&gt;Node5</title>
<g id="a_edge4_Node000004_Node000005"><a xlink:title=" ">
<path fill="none" stroke="#63b8ff" d="M139.51,-9.62C131.4,-9.62 123.23,-9.62 115.37,-9.62"/>
<polygon fill="#63b8ff" stroke="#63b8ff" points="139.39,-13.13 149.39,-9.63 139.39,-6.13 139.39,-13.13"/>
</a>
</g>
</g>
</g>
</svg>
