<?xml version="1.0" encoding="UTF-8" standalone="no"?>
<!DOCTYPE svg PUBLIC "-//W3C//DTD SVG 1.1//EN"
 "http://www.w3.org/Graphics/SVG/1.1/DTD/svg11.dtd">
<!-- Generated by graphviz version 12.2.1 (20241206.2353)
 -->
<!-- Title: Parser::TestimonialsToJson Pages: 1 -->
<svg width="705pt" height="137pt"
 viewBox="0.00 0.00 705.25 136.50" xmlns="http://www.w3.org/2000/svg" xmlns:xlink="http://www.w3.org/1999/xlink">
<g id="graph0" class="graph" transform="scale(1 1) rotate(0) translate(4 132.5)">
<title>Parser::TestimonialsToJson</title>
<!-- Node1 -->
<g id="Node000001" class="node">
<title>Node1</title>
<g id="a_Node000001"><a xlink:title="Converts a QVector of Testimonial objects into a JSON string representation.">
<polygon fill="#999999" stroke="#666666" points="697.25,-73.88 560.5,-73.88 560.5,-54.62 697.25,-54.62 697.25,-73.88"/>
<text text-anchor="middle" x="628.88" y="-60.38" font-family="Helvetica,sans-Serif" font-size="10.00">Parser::TestimonialsToJson</text>
</a>
</g>
</g>
<!-- Node2 -->
<g id="Node000002" class="node">
<title>Node2</title>
<g id="a_Node000002"><a xlink:href="../../d4/d0d/class_testimonial_manager.html#a776df0038128c3464b01c4f52199a960" target="_top" xlink:title="Saves all current testimonials (via API client).">
<polygon fill="white" stroke="#666666" points="524.5,-79.5 421.5,-79.5 421.5,-49 524.5,-49 524.5,-79.5"/>
<text text-anchor="start" x="429.5" y="-66" font-family="Helvetica,sans-Serif" font-size="10.00">TestimonialManager</text>
<text text-anchor="middle" x="473" y="-54.75" font-family="Helvetica,sans-Serif" font-size="10.00">::saveTestimonials</text>
</a>
</g>
</g>
<!-- Node1&#45;&gt;Node2 -->
<g id="edge1_Node000001_Node000002" class="edge">
<title>Node1&#45;&gt;Node2</title>
<g id="a_edge1_Node000001_Node000002"><a xlink:title=" ">
<path fill="none" stroke="#63b8ff" d="M549.12,-64.25C540.85,-64.25 532.61,-64.25 524.78,-64.25"/>
<polygon fill="#63b8ff" stroke="#63b8ff" points="548.87,-67.75 558.87,-64.25 548.87,-60.75 548.87,-67.75"/>
</a>
</g>
</g>
<!-- Node3 -->
<g id="Node000003" class="node">
<title>Node3</title>
<g id="a_Node000003"><a xlink:href="../../d4/d0d/class_testimonial_manager.html#ab5c9dca488f9037b051263dfd8005c48" target="_top" xlink:title="Adds a new testimonial to the manager and persists it.">
<polygon fill="white" stroke="#666666" points="379.5,-128.5 276.5,-128.5 276.5,-98 379.5,-98 379.5,-128.5"/>
<text text-anchor="start" x="284.5" y="-115" font-family="Helvetica,sans-Serif" font-size="10.00">TestimonialManager</text>
<text text-anchor="middle" x="328" y="-103.75" font-family="Helvetica,sans-Serif" font-size="10.00">::addTestimonial</text>
</a>
</g>
</g>
<!-- Node2&#45;&gt;Node3 -->
<g id="edge2_Node000002_Node000003" class="edge">
<title>Node2&#45;&gt;Node3</title>
<g id="a_edge2_Node000002_Node000003"><a xlink:title=" ">
<path fill="none" stroke="#63b8ff" d="M415.67,-83.55C402.08,-88.21 387.73,-93.13 374.7,-97.59"/>
<polygon fill="#63b8ff" stroke="#63b8ff" points="416.6,-86.93 424.93,-80.38 414.33,-80.31 416.6,-86.93"/>
</a>
</g>
</g>
<!-- Node6 -->
<g id="Node000006" class="node">
<title>Node6</title>
<g id="a_Node000006"><a xlink:href="../../d4/d0d/class_testimonial_manager.html#af8576194e4cc9cc482d460666880c8b1" target="_top" xlink:title="Sets the &quot;do not show again&quot; preference for a user.">
<polygon fill="white" stroke="#666666" points="384.75,-79.5 271.25,-79.5 271.25,-49 384.75,-49 384.75,-79.5"/>
<text text-anchor="start" x="279.25" y="-66" font-family="Helvetica,sans-Serif" font-size="10.00">TestimonialManager</text>
<text text-anchor="middle" x="328" y="-54.75" font-family="Helvetica,sans-Serif" font-size="10.00">::setDoNotShowAgain</text>
</a>
</g>
</g>
<!-- Node2&#45;&gt;Node6 -->
<g id="edge5_Node000002_Node000006" class="edge">
<title>Node2&#45;&gt;Node6</title>
<g id="a_edge5_Node000002_Node000006"><a xlink:title=" ">
<path fill="none" stroke="#63b8ff" d="M409.71,-64.25C401.49,-64.25 393.11,-64.25 385,-64.25"/>
<polygon fill="#63b8ff" stroke="#63b8ff" points="409.67,-67.75 419.67,-64.25 409.67,-60.75 409.67,-67.75"/>
</a>
</g>
</g>
<!-- Node8 -->
<g id="Node000008" class="node">
<title>Node8</title>
<g id="a_Node000008"><a xlink:href="../../d4/d0d/class_testimonial_manager.html#a64a932285a93bbacf59e12b5f8445546" target="_top" xlink:title="Private destructor. Saves testimonials before destruction.">
<polygon fill="white" stroke="#666666" points="385.5,-30.5 270.5,-30.5 270.5,0 385.5,0 385.5,-30.5"/>
<text text-anchor="start" x="278.5" y="-17" font-family="Helvetica,sans-Serif" font-size="10.00">TestimonialManager</text>
<text text-anchor="middle" x="328" y="-5.75" font-family="Helvetica,sans-Serif" font-size="10.00">::~TestimonialManager</text>
</a>
</g>
</g>
<!-- Node2&#45;&gt;Node8 -->
<g id="edge9_Node000002_Node000008" class="edge">
<title>Node2&#45;&gt;Node8</title>
<g id="a_edge9_Node000002_Node000008"><a xlink:title=" ">
<path fill="none" stroke="#63b8ff" d="M415.67,-44.95C402.08,-40.29 387.73,-35.37 374.7,-30.91"/>
<polygon fill="#63b8ff" stroke="#63b8ff" points="414.33,-48.19 424.93,-48.12 416.6,-41.57 414.33,-48.19"/>
</a>
</g>
</g>
<!-- Node4 -->
<g id="Node000004" class="node">
<title>Node4</title>
<g id="a_Node000004"><a xlink:href="../../d4/d1f/class_testimonial_dialog.html#a98f2520e872b1eabda8e66a3807ef39e" target="_top" xlink:title="Handles the submission of a new testimonial.">
<polygon fill="white" stroke="#666666" points="234.5,-128.5 135.25,-128.5 135.25,-98 234.5,-98 234.5,-128.5"/>
<text text-anchor="start" x="143.25" y="-115" font-family="Helvetica,sans-Serif" font-size="10.00">TestimonialDialog::</text>
<text text-anchor="middle" x="184.88" y="-103.75" font-family="Helvetica,sans-Serif" font-size="10.00">onSubmit</text>
</a>
</g>
</g>
<!-- Node3&#45;&gt;Node4 -->
<g id="edge3_Node000003_Node000004" class="edge">
<title>Node3&#45;&gt;Node4</title>
<g id="a_edge3_Node000003_Node000004"><a xlink:title=" ">
<path fill="none" stroke="#63b8ff" d="M264.85,-113.25C254.81,-113.25 244.54,-113.25 234.86,-113.25"/>
<polygon fill="#63b8ff" stroke="#63b8ff" points="264.54,-116.75 274.54,-113.25 264.54,-109.75 264.54,-116.75"/>
</a>
</g>
</g>
<!-- Node5 -->
<g id="Node000005" class="node">
<title>Node5</title>
<g id="a_Node000005"><a xlink:href="../../d4/d1f/class_testimonial_dialog.html#aa4e46d387d1d8fd4793ede8c2deb0fd4" target="_top" xlink:title="Constructs a TestimonialDialog.">
<polygon fill="white" stroke="#666666" points="99.25,-103.5 0,-103.5 0,-73 99.25,-73 99.25,-103.5"/>
<text text-anchor="start" x="8" y="-90" font-family="Helvetica,sans-Serif" font-size="10.00">TestimonialDialog::</text>
<text text-anchor="middle" x="49.62" y="-78.75" font-family="Helvetica,sans-Serif" font-size="10.00">TestimonialDialog</text>
</a>
</g>
</g>
<!-- Node4&#45;&gt;Node5 -->
<g id="edge4_Node000004_Node000005" class="edge">
<title>Node4&#45;&gt;Node5</title>
<g id="a_edge4_Node000004_Node000005"><a xlink:title=" ">
<path fill="none" stroke="#63b8ff" d="M123.97,-102.01C115.78,-100.47 107.45,-98.91 99.48,-97.42"/>
<polygon fill="#63b8ff" stroke="#63b8ff" points="123.05,-105.4 133.53,-103.8 124.34,-98.52 123.05,-105.4"/>
</a>
</g>
</g>
<!-- Node6&#45;&gt;Node4 -->
<g id="edge8_Node000006_Node000004" class="edge">
<title>Node6&#45;&gt;Node4</title>
<g id="a_edge8_Node000006_Node000004"><a xlink:title=" ">
<path fill="none" stroke="#63b8ff" d="M271.41,-83.55C258,-88.21 243.83,-93.13 230.97,-97.59"/>
<polygon fill="#63b8ff" stroke="#63b8ff" points="272.23,-86.97 280.53,-80.39 269.93,-80.36 272.23,-86.97"/>
</a>
</g>
</g>
<!-- Node7 -->
<g id="Node000007" class="node">
<title>Node7</title>
<g id="a_Node000007"><a xlink:href="../../d4/d1f/class_testimonial_dialog.html#a4a73a410e9fd8c28b794fe0584976414" target="_top" xlink:title="Handles the cancellation of the testimonial submission.">
<polygon fill="white" stroke="#666666" points="234.5,-79.5 135.25,-79.5 135.25,-49 234.5,-49 234.5,-79.5"/>
<text text-anchor="start" x="143.25" y="-66" font-family="Helvetica,sans-Serif" font-size="10.00">TestimonialDialog::</text>
<text text-anchor="middle" x="184.88" y="-54.75" font-family="Helvetica,sans-Serif" font-size="10.00">onCancel</text>
</a>
</g>
</g>
<!-- Node6&#45;&gt;Node7 -->
<g id="edge6_Node000006_Node000007" class="edge">
<title>Node6&#45;&gt;Node7</title>
<g id="a_edge6_Node000006_Node000007"><a xlink:title=" ">
<path fill="none" stroke="#63b8ff" d="M259.45,-64.25C251.06,-64.25 242.61,-64.25 234.57,-64.25"/>
<polygon fill="#63b8ff" stroke="#63b8ff" points="259.3,-67.75 269.3,-64.25 259.3,-60.75 259.3,-67.75"/>
</a>
</g>
</g>
<!-- Node7&#45;&gt;Node5 -->
<g id="edge7_Node000007_Node000005" class="edge">
<title>Node7&#45;&gt;Node5</title>
<g id="a_edge7_Node000007_Node000005"><a xlink:title=" ">
<path fill="none" stroke="#63b8ff" d="M123.69,-75.09C115.59,-76.55 107.36,-78.03 99.48,-79.45"/>
<polygon fill="#63b8ff" stroke="#63b8ff" points="124.3,-78.54 133.52,-73.32 123.06,-71.65 124.3,-78.54"/>
</a>
</g>
</g>
</g>
</svg>
