<?xml version="1.0" encoding="UTF-8" standalone="no"?>
<!DOCTYPE svg PUBLIC "-//W3C//DTD SVG 1.1//EN"
 "http://www.w3.org/Graphics/SVG/1.1/DTD/svg11.dtd">
<!-- Generated by graphviz version 12.2.1 (20241206.2353)
 -->
<!-- Title: Parser::GetColor Pages: 1 -->
<svg width="457pt" height="101pt"
 viewBox="0.00 0.00 456.50 101.25" xmlns="http://www.w3.org/2000/svg" xmlns:xlink="http://www.w3.org/1999/xlink">
<g id="graph0" class="graph" transform="scale(1 1) rotate(0) translate(4 97.25)">
<title>Parser::GetColor</title>
<!-- Node1 -->
<g id="Node000001" class="node">
<title>Node1</title>
<g id="a_Node000001"><a xlink:title="Converts a QColor object to its string representation (e.g., &quot;red&quot;, &quot;blue&quot;).">
<polygon fill="#999999" stroke="#666666" points="448.5,-56.25 359,-56.25 359,-37 448.5,-37 448.5,-56.25"/>
<text text-anchor="middle" x="403.75" y="-42.75" font-family="Helvetica,sans-Serif" font-size="10.00">Parser::GetColor</text>
</a>
</g>
</g>
<!-- Node2 -->
<g id="Node000002" class="node">
<title>Node2</title>
<g id="a_Node000002"><a xlink:href="../../dc/db7/class_parser.html#a4947ae95392cd961660d9202d4c12e5e" target="_top" xlink:title="Appends QBrush properties (BrushColor, BrushStyle) to a JSON string.">
<polygon fill="white" stroke="#666666" points="302,-93.25 172,-93.25 172,-74 302,-74 302,-93.25"/>
<text text-anchor="middle" x="237" y="-79.75" font-family="Helvetica,sans-Serif" font-size="10.00">Parser::AppendBrushData</text>
</a>
</g>
</g>
<!-- Node1&#45;&gt;Node2 -->
<g id="edge1_Node000001_Node000002" class="edge">
<title>Node1&#45;&gt;Node2</title>
<g id="a_edge1_Node000001_Node000002"><a xlink:title=" ">
<path fill="none" stroke="#63b8ff" d="M350.45,-59.28C341.31,-61.44 331.88,-63.63 323,-65.62 311.23,-68.27 298.51,-71.02 286.59,-73.56"/>
<polygon fill="#63b8ff" stroke="#63b8ff" points="351.01,-62.75 359.93,-57.03 349.39,-55.94 351.01,-62.75"/>
</a>
</g>
</g>
<!-- Node4 -->
<g id="Node000004" class="node">
<title>Node4</title>
<g id="a_Node000004"><a xlink:href="../../dc/db7/class_parser.html#a8f8932bed758cd3e61de3669fdef1110" target="_top" xlink:title="Appends common shape properties (ID, Type, Dimensions, Pen properties) to a JSON string.">
<polygon fill="white" stroke="#666666" points="323,-56.25 151,-56.25 151,-37 323,-37 323,-56.25"/>
<text text-anchor="middle" x="237" y="-42.75" font-family="Helvetica,sans-Serif" font-size="10.00">Parser::AppendCommonShapeData</text>
</a>
</g>
</g>
<!-- Node1&#45;&gt;Node4 -->
<g id="edge3_Node000001_Node000004" class="edge">
<title>Node1&#45;&gt;Node4</title>
<g id="a_edge3_Node000001_Node000004"><a xlink:title=" ">
<path fill="none" stroke="#63b8ff" d="M347.2,-46.62C339.49,-46.62 331.42,-46.62 323.31,-46.62"/>
<polygon fill="#63b8ff" stroke="#63b8ff" points="347.09,-50.13 357.09,-46.63 347.09,-43.13 347.09,-50.13"/>
</a>
</g>
</g>
<!-- Node5 -->
<g id="Node000005" class="node">
<title>Node5</title>
<g id="a_Node000005"><a xlink:href="../../dc/db7/class_parser.html#a3c8d6dcf6e07231eaedb036ebe90b51f" target="_top" xlink:title="Appends all properties specific to Text objects to a JSON string.">
<polygon fill="white" stroke="#666666" points="298.62,-19.25 175.38,-19.25 175.38,0 298.62,0 298.62,-19.25"/>
<text text-anchor="middle" x="237" y="-5.75" font-family="Helvetica,sans-Serif" font-size="10.00">Parser::AppendTextData</text>
</a>
</g>
</g>
<!-- Node1&#45;&gt;Node5 -->
<g id="edge5_Node000001_Node000005" class="edge">
<title>Node1&#45;&gt;Node5</title>
<g id="a_edge5_Node000001_Node000005"><a xlink:title=" ">
<path fill="none" stroke="#63b8ff" d="M350.45,-33.97C341.31,-31.81 331.88,-29.62 323,-27.62 311.23,-24.98 298.51,-22.23 286.59,-19.69"/>
<polygon fill="#63b8ff" stroke="#63b8ff" points="349.39,-37.31 359.93,-36.22 351.01,-30.5 349.39,-37.31"/>
</a>
</g>
</g>
<!-- Node3 -->
<g id="Node000003" class="node">
<title>Node3</title>
<g id="a_Node000003"><a xlink:href="../../dc/db7/class_parser.html#ac0dc74d228421b62ece9d9e93511509e" target="_top" xlink:title="Converts a vector of Shape pointers into a JSON string representation.">
<polygon fill="white" stroke="#666666" points="115,-56.25 0,-56.25 0,-37 115,-37 115,-56.25"/>
<text text-anchor="middle" x="57.5" y="-42.75" font-family="Helvetica,sans-Serif" font-size="10.00">Parser::ShapesToJson</text>
</a>
</g>
</g>
<!-- Node2&#45;&gt;Node3 -->
<g id="edge2_Node000002_Node000003" class="edge">
<title>Node2&#45;&gt;Node3</title>
<g id="a_edge2_Node000002_Node000003"><a xlink:title=" ">
<path fill="none" stroke="#63b8ff" d="M176.33,-71.19C153.76,-66.48 128.36,-61.19 106.94,-56.72"/>
<polygon fill="#63b8ff" stroke="#63b8ff" points="175.51,-74.59 186.02,-73.21 176.94,-67.74 175.51,-74.59"/>
</a>
</g>
</g>
<!-- Node4&#45;&gt;Node3 -->
<g id="edge4_Node000004_Node000003" class="edge">
<title>Node4&#45;&gt;Node3</title>
<g id="a_edge4_Node000004_Node000003"><a xlink:title=" ">
<path fill="none" stroke="#63b8ff" d="M139.39,-46.62C131.17,-46.62 123.04,-46.62 115.29,-46.62"/>
<polygon fill="#63b8ff" stroke="#63b8ff" points="139.12,-50.13 149.12,-46.63 139.12,-43.13 139.12,-50.13"/>
</a>
</g>
</g>
<!-- Node5&#45;&gt;Node3 -->
<g id="edge6_Node000005_Node000003" class="edge">
<title>Node5&#45;&gt;Node3</title>
<g id="a_edge6_Node000005_Node000003"><a xlink:title=" ">
<path fill="none" stroke="#63b8ff" d="M176.33,-22.06C153.76,-26.77 128.36,-32.06 106.94,-36.53"/>
<polygon fill="#63b8ff" stroke="#63b8ff" points="176.94,-25.51 186.02,-20.04 175.51,-18.66 176.94,-25.51"/>
</a>
</g>
</g>
</g>
</svg>
