<?xml version="1.0" encoding="UTF-8" standalone="no"?>
<!DOCTYPE svg PUBLIC "-//W3C//DTD SVG 1.1//EN"
 "http://www.w3.org/Graphics/SVG/1.1/DTD/svg11.dtd">
<!-- Generated by graphviz version 12.2.1 (20241206.2353)
 -->
<!-- Title: Parser::ShapesToJson Pages: 1 -->
<!--zoomable 810 -->

<svg id="main" version="1.1" xmlns="http://www.w3.org/2000/svg" xmlns:xlink="http://www.w3.org/1999/xlink" xml:space="preserve" onload="init(evt)">

<style type="text/css"><![CDATA[
.node, .edge {opacity: 0.7;}
.node.selected, .edge.selected {opacity: 1;}
.edge:hover path { stroke: red; }
.edge:hover polygon { stroke: red; fill: red; }
]]></style>

<defs>
  <circle id="rim" cx="0" cy="0" r="7"/>
  <circle id="rim2" cx="0" cy="0" r="3.5"/>
  <g id="zoomPlus">
    <use xlink:href="#rim" fill="#404040"><set attributeName="fill" to="#808080" begin="zoomplus.mouseover" end="zoomplus.mouseout"/></use>
    <path d="M-4,0h8M0,-4v8" fill="none" stroke="white" stroke-width="1.5" pointer-events="none"/>
  </g>
  <g id="zoomMin">
    <use xlink:href="#rim" fill="#404040"><set attributeName="fill" to="#808080" begin="zoomminus.mouseover" end="zoomminus.mouseout"/></use>
    <path d="M-4,0h8" fill="none" stroke="white" stroke-width="1.5" pointer-events="none"/>
  </g>
  <g id="arrowUp" transform="translate(30 24)">
    <use xlink:href="#rim"/>
    <path pointer-events="none" fill="none" stroke="white" stroke-width="1.5" d="M0,-3.0v7 M-2.5,-0.5L0,-3.0L2.5,-0.5"/>
  </g>
  <g id="arrowRight" transform="rotate(90) translate(36 -43)">
    <use xlink:href="#rim"/>
    <path pointer-events="none" fill="none" stroke="white" stroke-width="1.5" d="M0,-3.0v7 M-2.5,-0.5L0,-3.0L2.5,-0.5"/>
  </g>
  <g id="arrowDown" transform="rotate(180) translate(-30 -48)">
    <use xlink:href="#rim"/>
    <path pointer-events="none" fill="none" stroke="white" stroke-width="1.5" d="M0,-3.0v7 M-2.5,-0.5L0,-3.0L2.5,-0.5"/>
  </g>
  <g id="arrowLeft" transform="rotate(270) translate(-36 17)">
    <use xlink:href="#rim"/>
    <path pointer-events="none" fill="none" stroke="white" stroke-width="1.5" d="M0,-3.0v7 M-2.5,-0.5L0,-3.0L2.5,-0.5"/>
  </g>
  <g id="resetDef">
    <use xlink:href="#rim2" fill="#404040"><set attributeName="fill" to="#808080" begin="reset.mouseover" end="reset.mouseout"/></use>
  </g>
</defs>
<script type="application/ecmascript">
var viewWidth = 670;
var viewHeight = 810;
var sectionId = 'dynsection-42';
</script>
<script type="application/ecmascript" xlink:href="../../svg.min.js"/>
<svg id="graph" class="graph">
<g id="viewport">
<title>Parser::ShapesToJson</title>
<!-- Node1 -->
<g id="Node000001" class="node">
<title>Node1</title>
<g id="a_Node000001"><a xlink:title="Converts a vector of Shape pointers into a JSON string representation.">
<polygon fill="#999999" stroke="#666666" points="115,-521.25 0,-521.25 0,-502 115,-502 115,-521.25"/>
<text text-anchor="middle" x="57.5" y="-507.75" font-family="Helvetica,sans-Serif" font-size="10.00">Parser::ShapesToJson</text>
</a>
</g>
</g>
<!-- Node2 -->
<g id="Node000002" class="node">
<title>Node2</title>
<g id="a_Node000002"><a xlink:href="../../dc/db7/class_parser.html#a4947ae95392cd961660d9202d4c12e5e" target="_top" xlink:title="Appends QBrush properties (BrushColor, BrushStyle) to a JSON string.">
<polygon fill="white" stroke="#666666" points="302,-765.25 172,-765.25 172,-746 302,-746 302,-765.25"/>
<text text-anchor="middle" x="237" y="-751.75" font-family="Helvetica,sans-Serif" font-size="10.00">Parser::AppendBrushData</text>
</a>
</g>
</g>
<!-- Node1&#45;&gt;Node2 -->
<g id="edge1_Node000001_Node000002" class="edge">
<title>Node1&#45;&gt;Node2</title>
<g id="a_edge1_Node000001_Node000002"><a xlink:title=" ">
<path fill="none" stroke="#63b8ff" d="M59.66,-521.72C64.2,-556.48 83.95,-672.35 151,-731.62 155.02,-735.18 159.54,-738.22 164.33,-740.8"/>
<polygon fill="#63b8ff" stroke="#63b8ff" points="162.59,-743.85 173.13,-744.87 165.52,-737.5 162.59,-743.85"/>
</a>
</g>
</g>
<!-- Node6 -->
<g id="Node000006" class="node">
<title>Node6</title>
<g id="a_Node000006"><a xlink:href="../../d7/da7/class_shape.html#a4b502262ae5a22122456b9624d5ccb3d" target="_top" xlink:title="Accessor Functions &#45; Returns the data named after them.">
<polygon fill="white" stroke="#666666" points="650.88,-648.25 551.62,-648.25 551.62,-629 650.88,-629 650.88,-648.25"/>
<text text-anchor="middle" x="601.25" y="-634.75" font-family="Helvetica,sans-Serif" font-size="10.00">Shape::getShapeId</text>
</a>
</g>
</g>
<!-- Node1&#45;&gt;Node6 -->
<g id="edge53_Node000001_Node000006" class="edge">
<title>Node1&#45;&gt;Node6</title>
<g id="a_edge53_Node000001_Node000006"><a xlink:title=" ">
<path fill="none" stroke="#63b8ff" d="M69.38,-521.69C106.36,-555.1 231.97,-662.33 359,-698.62 421.28,-716.42 445.24,-724.22 504.75,-698.62 526.12,-689.43 521.33,-673.44 540.75,-660.62 545,-657.82 549.66,-655.31 554.44,-653.08"/>
<polygon fill="#63b8ff" stroke="#63b8ff" points="555.72,-656.34 563.58,-649.23 553.01,-649.88 555.72,-656.34"/>
</a>
</g>
</g>
<!-- Node8 -->
<g id="Node000008" class="node">
<title>Node8</title>
<g id="a_Node000008"><a xlink:href="../../dc/db7/class_parser.html#a8f8932bed758cd3e61de3669fdef1110" target="_top" xlink:title="Appends common shape properties (ID, Type, Dimensions, Pen properties) to a JSON string.">
<polygon fill="white" stroke="#666666" points="323,-521.25 151,-521.25 151,-502 323,-502 323,-521.25"/>
<text text-anchor="middle" x="237" y="-507.75" font-family="Helvetica,sans-Serif" font-size="10.00">Parser::AppendCommonShapeData</text>
</a>
</g>
</g>
<!-- Node1&#45;&gt;Node8 -->
<g id="edge7_Node000001_Node000008" class="edge">
<title>Node1&#45;&gt;Node8</title>
<g id="a_edge7_Node000001_Node000008"><a xlink:title=" ">
<path fill="none" stroke="#63b8ff" d="M115.15,-511.62C122.96,-511.62 131.16,-511.62 139.45,-511.62"/>
<polygon fill="#63b8ff" stroke="#63b8ff" points="139.26,-515.13 149.26,-511.63 139.26,-508.13 139.26,-515.13"/>
</a>
</g>
</g>
<!-- Node33 -->
<g id="Node000033" class="node">
<title>Node33</title>
<g id="a_Node000033"><a xlink:href="../../dc/db7/class_parser.html#a3c8d6dcf6e07231eaedb036ebe90b51f" target="_top" xlink:title="Appends all properties specific to Text objects to a JSON string.">
<polygon fill="white" stroke="#666666" points="298.62,-315.25 175.38,-315.25 175.38,-296 298.62,-296 298.62,-315.25"/>
<text text-anchor="middle" x="237" y="-301.75" font-family="Helvetica,sans-Serif" font-size="10.00">Parser::AppendTextData</text>
</a>
</g>
</g>
<!-- Node1&#45;&gt;Node33 -->
<g id="edge38_Node000001_Node000033" class="edge">
<title>Node1&#45;&gt;Node33</title>
<g id="a_edge38_Node000001_Node000033"><a xlink:title=" ">
<path fill="none" stroke="#63b8ff" d="M67.06,-501.69C95,-469.26 183.82,-366.18 220.22,-323.94"/>
<polygon fill="#63b8ff" stroke="#63b8ff" points="222.66,-326.47 226.54,-316.61 217.36,-321.9 222.66,-326.47"/>
</a>
</g>
</g>
<!-- Node41 -->
<g id="Node000041" class="node">
<title>Node41</title>
<g id="a_Node000041"><a xlink:href="../../db/d35/classalpha_1_1vector.html#a78b5e138cba3b9bc0f9d569c6dd96156" target="_top" xlink:title=" ">
<polygon fill="white" stroke="#666666" points="285.12,-278.25 188.88,-278.25 188.88,-259 285.12,-259 285.12,-278.25"/>
<text text-anchor="middle" x="237" y="-264.75" font-family="Helvetica,sans-Serif" font-size="10.00">alpha::vector::size</text>
</a>
</g>
</g>
<!-- Node1&#45;&gt;Node41 -->
<g id="edge54_Node000001_Node000041" class="edge">
<title>Node1&#45;&gt;Node41</title>
<g id="a_edge54_Node000001_Node000041"><a xlink:title=" ">
<path fill="none" stroke="#63b8ff" d="M59.38,-501.64C63.08,-466.17 80.59,-345.3 151,-286.62 158.66,-280.24 168.04,-275.95 177.73,-273.11"/>
<polygon fill="#63b8ff" stroke="#63b8ff" points="178.35,-276.56 187.26,-270.82 176.72,-269.75 178.35,-276.56"/>
</a>
</g>
</g>
<!-- Node3 -->
<g id="Node000003" class="node">
<title>Node3</title>
<g id="a_Node000003"><a xlink:href="../../d7/da7/class_shape.html#a8b5e05c84e401dddad339a15fa7d8ab1" target="_top" xlink:title=" ">
<polygon fill="white" stroke="#666666" points="487.88,-802.25 375.88,-802.25 375.88,-783 487.88,-783 487.88,-802.25"/>
<text text-anchor="middle" x="431.88" y="-788.75" font-family="Helvetica,sans-Serif" font-size="10.00">Shape::getBrushColor</text>
</a>
</g>
</g>
<!-- Node2&#45;&gt;Node3 -->
<g id="edge2_Node000002_Node000003" class="edge">
<title>Node2&#45;&gt;Node3</title>
<g id="a_edge2_Node000002_Node000003"><a xlink:title=" ">
<path fill="none" stroke="#63b8ff" d="M290.7,-765.74C314.3,-770.26 342.34,-775.64 367.11,-780.39"/>
<polygon fill="#63b8ff" stroke="#63b8ff" points="366.27,-783.79 376.75,-782.24 367.59,-776.92 366.27,-783.79"/>
</a>
</g>
</g>
<!-- Node4 -->
<g id="Node000004" class="node">
<title>Node4</title>
<g id="a_Node000004"><a xlink:href="../../dc/db7/class_parser.html#a2ae1381ec08a2e3b54077c753d4dbf34" target="_top" xlink:title="Gets the brush style of a shape as a string (e.g., &quot;SolidPattern&quot;, &quot;NoBrush&quot;).">
<polygon fill="white" stroke="#666666" points="489,-765.25 374.75,-765.25 374.75,-746 489,-746 489,-765.25"/>
<text text-anchor="middle" x="431.88" y="-751.75" font-family="Helvetica,sans-Serif" font-size="10.00">Parser::GetBrushStyle</text>
</a>
</g>
</g>
<!-- Node2&#45;&gt;Node4 -->
<g id="edge3_Node000002_Node000004" class="edge">
<title>Node2&#45;&gt;Node4</title>
<g id="a_edge3_Node000002_Node000004"><a xlink:title=" ">
<path fill="none" stroke="#63b8ff" d="M302.49,-755.62C321.99,-755.62 343.46,-755.62 363.16,-755.62"/>
<polygon fill="#63b8ff" stroke="#63b8ff" points="363.01,-759.13 373.01,-755.63 363.01,-752.13 363.01,-759.13"/>
</a>
</g>
</g>
<!-- Node7 -->
<g id="Node000007" class="node">
<title>Node7</title>
<g id="a_Node000007"><a xlink:href="../../dc/db7/class_parser.html#a873d052551342d31e66e6746b09d2fe9" target="_top" xlink:title="Converts a QColor object to its string representation (e.g., &quot;red&quot;, &quot;blue&quot;).">
<polygon fill="white" stroke="#666666" points="476.62,-652.25 387.12,-652.25 387.12,-633 476.62,-633 476.62,-652.25"/>
<text text-anchor="middle" x="431.88" y="-638.75" font-family="Helvetica,sans-Serif" font-size="10.00">Parser::GetColor</text>
</a>
</g>
</g>
<!-- Node2&#45;&gt;Node7 -->
<g id="edge6_Node000002_Node000007" class="edge">
<title>Node2&#45;&gt;Node7</title>
<g id="a_edge6_Node000002_Node000007"><a xlink:title=" ">
<path fill="none" stroke="#63b8ff" d="M247.67,-745.62C266.97,-726.22 312.47,-683.42 359,-660.62 364.42,-657.97 370.26,-655.69 376.19,-653.73"/>
<polygon fill="#63b8ff" stroke="#63b8ff" points="376.86,-657.18 385.44,-650.96 374.85,-650.47 376.86,-657.18"/>
</a>
</g>
</g>
<!-- Node5 -->
<g id="Node000005" class="node">
<title>Node5</title>
<g id="a_Node000005"><a xlink:href="../../d7/da7/class_shape.html#a32e7b26329177063e40671687a0c62be" target="_top" xlink:title=" ">
<polygon fill="white" stroke="#666666" points="656.88,-765.25 545.62,-765.25 545.62,-746 656.88,-746 656.88,-765.25"/>
<text text-anchor="middle" x="601.25" y="-751.75" font-family="Helvetica,sans-Serif" font-size="10.00">Shape::getBrushStyle</text>
</a>
</g>
</g>
<!-- Node4&#45;&gt;Node5 -->
<g id="edge4_Node000004_Node000005" class="edge">
<title>Node4&#45;&gt;Node5</title>
<g id="a_edge4_Node000004_Node000005"><a xlink:title=" ">
<path fill="none" stroke="#63b8ff" d="M489.07,-755.62C503.53,-755.62 519.21,-755.62 534.12,-755.62"/>
<polygon fill="#63b8ff" stroke="#63b8ff" points="533.82,-759.13 543.82,-755.63 533.82,-752.13 533.82,-759.13"/>
</a>
</g>
</g>
<!-- Node4&#45;&gt;Node6 -->
<g id="edge5_Node000004_Node000006" class="edge">
<title>Node4&#45;&gt;Node6</title>
<g id="a_edge5_Node000004_Node000006"><a xlink:title=" ">
<path fill="none" stroke="#63b8ff" d="M480.53,-745.55C489.24,-742.16 497.78,-737.64 504.75,-731.62 531.54,-708.51 514.33,-684.16 540.75,-660.62 543.55,-658.13 546.65,-655.92 549.93,-653.94"/>
<polygon fill="#63b8ff" stroke="#63b8ff" points="551.49,-657.08 558.81,-649.42 548.31,-650.84 551.49,-657.08"/>
</a>
</g>
</g>
<!-- Node8&#45;&gt;Node6 -->
<g id="edge35_Node000008_Node000006" class="edge">
<title>Node8&#45;&gt;Node6</title>
<g id="a_edge35_Node000008_Node000006"><a xlink:title=" ">
<path fill="none" stroke="#63b8ff" d="M323.33,-515.31C390.13,-519.73 476.32,-529.26 504.75,-549.62 533.51,-570.23 513.64,-597.9 540.75,-620.62 541.7,-621.42 542.69,-622.18 543.7,-622.91"/>
<polygon fill="#63b8ff" stroke="#63b8ff" points="541.79,-625.85 552.19,-627.84 545.3,-619.79 541.79,-625.85"/>
</a>
</g>
</g>
<!-- Node8&#45;&gt;Node7 -->
<g id="edge8_Node000008_Node000007" class="edge">
<title>Node8&#45;&gt;Node7</title>
<g id="a_edge8_Node000008_Node000007"><a xlink:title=" ">
<path fill="none" stroke="#63b8ff" d="M245.59,-521.54C263.06,-543.64 308.5,-597.15 359,-624.62 364.37,-627.55 370.22,-630 376.19,-632.07"/>
<polygon fill="#63b8ff" stroke="#63b8ff" points="374.95,-635.35 385.53,-634.93 377,-628.65 374.95,-635.35"/>
</a>
</g>
</g>
<!-- Node9 -->
<g id="Node000009" class="node">
<title>Node9</title>
<g id="a_Node000009"><a xlink:href="../../d7/da7/class_shape.html#a16aad057da1ce3475f666cbdd27da042" target="_top" xlink:title=" ">
<polygon fill="white" stroke="#666666" points="472.12,-615.25 391.62,-615.25 391.62,-596 472.12,-596 472.12,-615.25"/>
<text text-anchor="middle" x="431.88" y="-601.75" font-family="Helvetica,sans-Serif" font-size="10.00">Shape::getPen</text>
</a>
</g>
</g>
<!-- Node8&#45;&gt;Node9 -->
<g id="edge9_Node000008_Node000009" class="edge">
<title>Node8&#45;&gt;Node9</title>
<g id="a_edge9_Node000008_Node000009"><a xlink:title=" ">
<path fill="none" stroke="#63b8ff" d="M250.67,-521.5C271.91,-537.61 316.56,-569.52 359,-587.62 365.76,-590.51 373.08,-593 380.37,-595.13"/>
<polygon fill="#63b8ff" stroke="#63b8ff" points="379.32,-598.47 389.89,-597.7 381.14,-591.71 379.32,-598.47"/>
</a>
</g>
</g>
<!-- Node10 -->
<g id="Node000010" class="node">
<title>Node10</title>
<g id="a_Node000010"><a xlink:href="../../dc/db7/class_parser.html#a4cc8c1d3938f5f55be6074830f96090e" target="_top" xlink:title="Gets the pen cap style of a shape as a string (e.g., &quot;FlatCap&quot;, &quot;RoundCap&quot;).">
<polygon fill="white" stroke="#666666" points="493.88,-689.25 369.88,-689.25 369.88,-670 493.88,-670 493.88,-689.25"/>
<text text-anchor="middle" x="431.88" y="-675.75" font-family="Helvetica,sans-Serif" font-size="10.00">Parser::GetPenCapStyle</text>
</a>
</g>
</g>
<!-- Node8&#45;&gt;Node10 -->
<g id="edge10_Node000008_Node000010" class="edge">
<title>Node8&#45;&gt;Node10</title>
<g id="a_edge10_Node000008_Node000010"><a xlink:title=" ">
<path fill="none" stroke="#63b8ff" d="M242.98,-521.51C257.13,-548.55 300.36,-624.15 359,-661.62 360.87,-662.82 362.81,-663.94 364.81,-664.98"/>
<polygon fill="#63b8ff" stroke="#63b8ff" points="363.25,-668.11 373.81,-668.98 366.1,-661.72 363.25,-668.11"/>
</a>
</g>
</g>
<!-- Node12 -->
<g id="Node000012" class="node">
<title>Node12</title>
<g id="a_Node000012"><a xlink:href="../../d7/da7/class_shape.html#a4cbfcdf734ed9633dfb4dad1dab1cb6f" target="_top" xlink:title=" ">
<polygon fill="white" stroke="#666666" points="483.75,-578.25 380,-578.25 380,-559 483.75,-559 483.75,-578.25"/>
<text text-anchor="middle" x="431.88" y="-564.75" font-family="Helvetica,sans-Serif" font-size="10.00">Shape::getPenColor</text>
</a>
</g>
</g>
<!-- Node8&#45;&gt;Node12 -->
<g id="edge13_Node000008_Node000012" class="edge">
<title>Node8&#45;&gt;Node12</title>
<g id="a_edge13_Node000008_Node000012"><a xlink:title=" ">
<path fill="none" stroke="#63b8ff" d="M272.04,-521.68C303.75,-531.06 351.25,-545.09 386.04,-555.37"/>
<polygon fill="#63b8ff" stroke="#63b8ff" points="384.82,-558.66 395.4,-558.14 386.8,-551.95 384.82,-558.66"/>
</a>
</g>
</g>
<!-- Node13 -->
<g id="Node000013" class="node">
<title>Node13</title>
<g id="a_Node000013"><a xlink:href="../../dc/db7/class_parser.html#aacdb18c8e63721594a5ee98f94e160c3" target="_top" xlink:title="Gets the pen join style of a shape as a string (e.g., &quot;MiterJoin&quot;, &quot;BevelJoin&quot;).">
<polygon fill="white" stroke="#666666" points="493.88,-502.25 369.88,-502.25 369.88,-483 493.88,-483 493.88,-502.25"/>
<text text-anchor="middle" x="431.88" y="-488.75" font-family="Helvetica,sans-Serif" font-size="10.00">Parser::GetPenJoinStyle</text>
</a>
</g>
</g>
<!-- Node8&#45;&gt;Node13 -->
<g id="edge14_Node000008_Node000013" class="edge">
<title>Node8&#45;&gt;Node13</title>
<g id="a_edge14_Node000008_Node000013"><a xlink:title=" ">
<path fill="none" stroke="#63b8ff" d="M323.44,-503.21C335.08,-502.06 346.93,-500.89 358.31,-499.77"/>
<polygon fill="#63b8ff" stroke="#63b8ff" points="358.4,-503.28 368.01,-498.82 357.71,-496.32 358.4,-503.28"/>
</a>
</g>
</g>
<!-- Node15 -->
<g id="Node000015" class="node">
<title>Node15</title>
<g id="a_Node000015"><a xlink:href="../../dc/db7/class_parser.html#af303a9796fe246709fd2da137248e6d2" target="_top" xlink:title="Gets the pen style of a shape as a string (e.g., &quot;SolidLine&quot;, &quot;DashLine&quot;).">
<polygon fill="white" stroke="#666666" points="484.88,-465.25 378.88,-465.25 378.88,-446 484.88,-446 484.88,-465.25"/>
<text text-anchor="middle" x="431.88" y="-451.75" font-family="Helvetica,sans-Serif" font-size="10.00">Parser::GetPenStyle</text>
</a>
</g>
</g>
<!-- Node8&#45;&gt;Node15 -->
<g id="edge17_Node000008_Node000015" class="edge">
<title>Node8&#45;&gt;Node15</title>
<g id="a_edge17_Node000008_Node000015"><a xlink:title=" ">
<path fill="none" stroke="#63b8ff" d="M268.19,-501.6C292.57,-493.64 327.85,-482.41 359,-473.62 365.19,-471.88 371.7,-470.13 378.17,-468.45"/>
<polygon fill="#63b8ff" stroke="#63b8ff" points="378.67,-471.93 387.49,-466.06 376.94,-465.15 378.67,-471.93"/>
</a>
</g>
</g>
<!-- Node17 -->
<g id="Node000017" class="node">
<title>Node17</title>
<g id="a_Node000017"><a xlink:href="../../dc/db7/class_parser.html#af246a0732ef6c7518e5aaee1043d12e4" target="_top" xlink:title="Gets the geometric dimensions of a shape as a JSON array string.">
<polygon fill="white" stroke="#666666" points="504.75,-315.25 359,-315.25 359,-296 504.75,-296 504.75,-315.25"/>
<text text-anchor="middle" x="431.88" y="-301.75" font-family="Helvetica,sans-Serif" font-size="10.00">Parser::GetShapeDimensions</text>
</a>
</g>
</g>
<!-- Node8&#45;&gt;Node17 -->
<g id="edge20_Node000008_Node000017" class="edge">
<title>Node8&#45;&gt;Node17</title>
<g id="a_edge20_Node000008_Node000017"><a xlink:title=" ">
<path fill="none" stroke="#63b8ff" d="M244.96,-501.59C262.52,-476.66 310.65,-410.41 359,-362.62 374.05,-347.75 392.84,-332.96 407.44,-322.17"/>
<polygon fill="#63b8ff" stroke="#63b8ff" points="409.08,-325.3 415.12,-316.59 404.97,-319.64 409.08,-325.3"/>
</a>
</g>
</g>
<!-- Node31 -->
<g id="Node000031" class="node">
<title>Node31</title>
<g id="a_Node000031"><a xlink:href="../../d7/da7/class_shape.html#ab89b48cc1a361849a094c894075361e1" target="_top" xlink:title=" ">
<polygon fill="white" stroke="#666666" points="487.88,-391.25 375.88,-391.25 375.88,-372 487.88,-372 487.88,-391.25"/>
<text text-anchor="middle" x="431.88" y="-377.75" font-family="Helvetica,sans-Serif" font-size="10.00">Shape::getShapeType</text>
</a>
</g>
</g>
<!-- Node8&#45;&gt;Node31 -->
<g id="edge36_Node000008_Node000031" class="edge">
<title>Node8&#45;&gt;Node31</title>
<g id="a_edge36_Node000008_Node000031"><a xlink:title=" ">
<path fill="none" stroke="#63b8ff" d="M245.61,-501.8C263.12,-479.91 308.65,-426.88 359,-399.62 361.67,-398.18 364.45,-396.85 367.31,-395.63"/>
<polygon fill="#63b8ff" stroke="#63b8ff" points="368.36,-398.97 376.48,-392.17 365.89,-392.42 368.36,-398.97"/>
</a>
</g>
</g>
<!-- Node32 -->
<g id="Node000032" class="node">
<title>Node32</title>
<g id="a_Node000032"><a xlink:href="../../d7/da7/class_shape.html#aec4675c2b06d40373eefac4b982af242" target="_top" xlink:title=" ">
<polygon fill="white" stroke="#666666" points="484.12,-428.25 379.62,-428.25 379.62,-409 484.12,-409 484.12,-428.25"/>
<text text-anchor="middle" x="431.88" y="-414.75" font-family="Helvetica,sans-Serif" font-size="10.00">Shape::getTrackerId</text>
</a>
</g>
</g>
<!-- Node8&#45;&gt;Node32 -->
<g id="edge37_Node000008_Node000032" class="edge">
<title>Node8&#45;&gt;Node32</title>
<g id="a_edge37_Node000008_Node000032"><a xlink:title=" ">
<path fill="none" stroke="#63b8ff" d="M251.04,-501.63C272.45,-485.67 316.89,-454.44 359,-436.62 362.84,-435 366.86,-433.5 370.95,-432.12"/>
<polygon fill="#63b8ff" stroke="#63b8ff" points="371.92,-435.48 380.43,-429.17 369.84,-428.8 371.92,-435.48"/>
</a>
</g>
</g>
<!-- Node10&#45;&gt;Node6 -->
<g id="edge12_Node000010_Node000006" class="edge">
<title>Node10&#45;&gt;Node6</title>
<g id="a_edge12_Node000010_Node000006"><a xlink:title=" ">
<path fill="none" stroke="#63b8ff" d="M473.82,-669.6C496.21,-664.11 524.18,-657.26 548.12,-651.4"/>
<polygon fill="#63b8ff" stroke="#63b8ff" points="548.8,-654.83 557.68,-649.05 547.13,-648.03 548.8,-654.83"/>
</a>
</g>
</g>
<!-- Node11 -->
<g id="Node000011" class="node">
<title>Node11</title>
<g id="a_Node000011"><a xlink:href="../../d7/da7/class_shape.html#a1eaba6ddbc4404e64fc6910fa9a9fa11" target="_top" xlink:title=" ">
<polygon fill="white" stroke="#666666" points="661.75,-689.25 540.75,-689.25 540.75,-670 661.75,-670 661.75,-689.25"/>
<text text-anchor="middle" x="601.25" y="-675.75" font-family="Helvetica,sans-Serif" font-size="10.00">Shape::getPenCapStyle</text>
</a>
</g>
</g>
<!-- Node10&#45;&gt;Node11 -->
<g id="edge11_Node000010_Node000011" class="edge">
<title>Node10&#45;&gt;Node11</title>
<g id="a_edge11_Node000010_Node000011"><a xlink:title=" ">
<path fill="none" stroke="#63b8ff" d="M494.25,-679.62C505.51,-679.62 517.36,-679.62 528.89,-679.62"/>
<polygon fill="#63b8ff" stroke="#63b8ff" points="528.77,-683.13 538.77,-679.63 528.77,-676.13 528.77,-683.13"/>
</a>
</g>
</g>
<!-- Node13&#45;&gt;Node6 -->
<g id="edge16_Node000013_Node000006" class="edge">
<title>Node13&#45;&gt;Node6</title>
<g id="a_edge16_Node000013_Node000006"><a xlink:title=" ">
<path fill="none" stroke="#63b8ff" d="M483.05,-502.73C491.04,-506.1 498.67,-510.61 504.75,-516.62 539.53,-551.02 505.49,-586.73 540.75,-620.62 541.36,-621.21 541.99,-621.78 542.64,-622.33"/>
<polygon fill="#63b8ff" stroke="#63b8ff" points="540.36,-625.02 550.62,-627.66 544.25,-619.2 540.36,-625.02"/>
</a>
</g>
</g>
<!-- Node14 -->
<g id="Node000014" class="node">
<title>Node14</title>
<g id="a_Node000014"><a xlink:href="../../d7/da7/class_shape.html#a7cf1547b5328248b8a4c066b4c714efa" target="_top" xlink:title=" ">
<polygon fill="white" stroke="#666666" points="661.75,-611.25 540.75,-611.25 540.75,-592 661.75,-592 661.75,-611.25"/>
<text text-anchor="middle" x="601.25" y="-597.75" font-family="Helvetica,sans-Serif" font-size="10.00">Shape::getPenJoinStyle</text>
</a>
</g>
</g>
<!-- Node13&#45;&gt;Node14 -->
<g id="edge15_Node000013_Node000014" class="edge">
<title>Node13&#45;&gt;Node14</title>
<g id="a_edge15_Node000013_Node000014"><a xlink:title=" ">
<path fill="none" stroke="#63b8ff" d="M480.04,-502.68C488.9,-506.08 497.61,-510.61 504.75,-516.62 530.6,-538.4 514.59,-562.22 540.75,-583.62 541.71,-584.41 542.7,-585.16 543.73,-585.88"/>
<polygon fill="#63b8ff" stroke="#63b8ff" points="541.85,-588.84 552.26,-590.76 545.32,-582.76 541.85,-588.84"/>
</a>
</g>
</g>
<!-- Node15&#45;&gt;Node6 -->
<g id="edge19_Node000015_Node000006" class="edge">
<title>Node15&#45;&gt;Node6</title>
<g id="a_edge19_Node000015_Node000006"><a xlink:title=" ">
<path fill="none" stroke="#63b8ff" d="M485.18,-461.5C492.47,-464.26 499.31,-468.15 504.75,-473.62 552.19,-521.31 494.48,-571.8 540.75,-620.62 541.23,-621.13 541.71,-621.61 542.22,-622.09"/>
<polygon fill="#63b8ff" stroke="#63b8ff" points="539.9,-624.74 550.05,-627.77 544.01,-619.07 539.9,-624.74"/>
</a>
</g>
</g>
<!-- Node16 -->
<g id="Node000016" class="node">
<title>Node16</title>
<g id="a_Node000016"><a xlink:href="../../d7/da7/class_shape.html#ad336858f193d765d831deb9ce29246aa" target="_top" xlink:title=" ">
<polygon fill="white" stroke="#666666" points="652.75,-574.25 549.75,-574.25 549.75,-555 652.75,-555 652.75,-574.25"/>
<text text-anchor="middle" x="601.25" y="-560.75" font-family="Helvetica,sans-Serif" font-size="10.00">Shape::getPenStyle</text>
</a>
</g>
</g>
<!-- Node15&#45;&gt;Node16 -->
<g id="edge18_Node000015_Node000016" class="edge">
<title>Node15&#45;&gt;Node16</title>
<g id="a_edge18_Node000015_Node000016"><a xlink:title=" ">
<path fill="none" stroke="#63b8ff" d="M485.3,-463C492.32,-465.57 499.04,-469.02 504.75,-473.62 532.9,-496.34 513.16,-523.23 540.75,-546.62 541.7,-547.43 542.68,-548.19 543.69,-548.93"/>
<polygon fill="#63b8ff" stroke="#63b8ff" points="541.76,-551.85 552.16,-553.88 545.29,-545.81 541.76,-551.85"/>
</a>
</g>
</g>
<!-- Node17&#45;&gt;Node6 -->
<g id="edge31_Node000017_Node000006" class="edge">
<title>Node17&#45;&gt;Node6</title>
<g id="a_edge31_Node000017_Node000006"><a xlink:title=" ">
<path fill="none" stroke="#63b8ff" d="M486.32,-315.72C493.37,-319.11 499.83,-323.62 504.75,-329.62 587.28,-430.48 456.79,-520.96 540.75,-620.62 541.21,-621.17 541.68,-621.69 542.16,-622.2"/>
<polygon fill="#63b8ff" stroke="#63b8ff" points="539.91,-624.88 549.96,-628.26 544.21,-619.36 539.91,-624.88"/>
</a>
</g>
</g>
<!-- Node18 -->
<g id="Node000018" class="node">
<title>Node18</title>
<g id="a_Node000018"><a xlink:href="../../dc/d25/class_ellipse.html#a77211318bb4d61848cfa76e887c290f0" target="_top" xlink:title="Accessor Functions.">
<polygon fill="white" stroke="#666666" points="637,-241.25 565.5,-241.25 565.5,-222 637,-222 637,-241.25"/>
<text text-anchor="middle" x="601.25" y="-227.75" font-family="Helvetica,sans-Serif" font-size="10.00">Ellipse::getA</text>
</a>
</g>
</g>
<!-- Node17&#45;&gt;Node18 -->
<g id="edge21_Node000017_Node000018" class="edge">
<title>Node17&#45;&gt;Node18</title>
<g id="a_edge21_Node000017_Node000018"><a xlink:title=" ">
<path fill="none" stroke="#63b8ff" d="M487.18,-295.59C493.32,-293.43 499.31,-290.81 504.75,-287.62 524.84,-275.89 520.95,-261.85 540.75,-249.62 545.05,-246.97 549.77,-244.68 554.61,-242.72"/>
<polygon fill="#63b8ff" stroke="#63b8ff" points="555.61,-246.08 563.85,-239.43 553.26,-239.49 555.61,-246.08"/>
</a>
</g>
</g>
<!-- Node19 -->
<g id="Node000019" class="node">
<title>Node19</title>
<g id="a_Node000019"><a xlink:href="../../dc/d25/class_ellipse.html#a18ac4b70047614c98a8e663cc900b656" target="_top" xlink:title=" ">
<polygon fill="white" stroke="#666666" points="637,-204.25 565.5,-204.25 565.5,-185 637,-185 637,-204.25"/>
<text text-anchor="middle" x="601.25" y="-190.75" font-family="Helvetica,sans-Serif" font-size="10.00">Ellipse::getB</text>
</a>
</g>
</g>
<!-- Node17&#45;&gt;Node19 -->
<g id="edge22_Node000017_Node000019" class="edge">
<title>Node17&#45;&gt;Node19</title>
<g id="a_edge22_Node000017_Node000019"><a xlink:title=" ">
<path fill="none" stroke="#63b8ff" d="M491.87,-295.59C496.49,-293.42 500.86,-290.8 504.75,-287.62 533.4,-264.25 512.67,-236.68 540.75,-212.62 544.84,-209.12 549.59,-206.3 554.59,-204.03"/>
<polygon fill="#63b8ff" stroke="#63b8ff" points="555.54,-207.41 563.67,-200.63 553.08,-200.86 555.54,-207.41"/>
</a>
</g>
</g>
<!-- Node20 -->
<g id="Node000020" class="node">
<title>Node20</title>
<g id="a_Node000020"><a xlink:href="../../dd/db4/class_line.html#aedb630a8121c423320ef5e369e17f65f" target="_top" xlink:title=" ">
<polygon fill="white" stroke="#666666" points="647.88,-167.25 554.62,-167.25 554.62,-148 647.88,-148 647.88,-167.25"/>
<text text-anchor="middle" x="601.25" y="-153.75" font-family="Helvetica,sans-Serif" font-size="10.00">Line::getEndPoint</text>
</a>
</g>
</g>
<!-- Node17&#45;&gt;Node20 -->
<g id="edge23_Node000017_Node000020" class="edge">
<title>Node17&#45;&gt;Node20</title>
<g id="a_edge23_Node000017_Node000020"><a xlink:title=" ">
<path fill="none" stroke="#63b8ff" d="M493.4,-295.61C497.52,-293.42 501.37,-290.79 504.75,-287.62 542.91,-251.89 503.46,-212.28 540.75,-175.62 541.95,-174.44 543.23,-173.34 544.57,-172.31"/>
<polygon fill="#63b8ff" stroke="#63b8ff" points="546.13,-175.45 552.85,-167.27 542.49,-169.47 546.13,-175.45"/>
</a>
</g>
</g>
<!-- Node21 -->
<g id="Node000021" class="node">
<title>Node21</title>
<g id="a_Node000021"><a xlink:href="../../d9/dc7/class_rectangle.html#af86510135f0d97d2295bbc304ea932bf" target="_top" xlink:title="Accessor Functions.">
<polygon fill="white" stroke="#666666" points="655.75,-130.25 546.75,-130.25 546.75,-111 655.75,-111 655.75,-130.25"/>
<text text-anchor="middle" x="601.25" y="-116.75" font-family="Helvetica,sans-Serif" font-size="10.00">Rectangle::getLength</text>
</a>
</g>
</g>
<!-- Node17&#45;&gt;Node21 -->
<g id="edge24_Node000017_Node000021" class="edge">
<title>Node17&#45;&gt;Node21</title>
<g id="a_edge24_Node000017_Node000021"><a xlink:title=" ">
<path fill="none" stroke="#63b8ff" d="M494,-295.69C497.93,-293.48 501.58,-290.82 504.75,-287.62 552.72,-239.25 493.96,-188.14 540.75,-138.62 541.12,-138.23 541.5,-137.85 541.89,-137.47"/>
<polygon fill="#63b8ff" stroke="#63b8ff" points="543.81,-140.4 549.77,-131.64 539.65,-134.78 543.81,-140.4"/>
</a>
</g>
</g>
<!-- Node22 -->
<g id="Node000022" class="node">
<title>Node22</title>
<g id="a_Node000022"><a xlink:href="../../d9/d0c/class_square.html#a8f3f73c6ceea3fba1c09dcaba56f49af" target="_top" xlink:title="Accessor Functions.">
<polygon fill="white" stroke="#666666" points="649,-93.25 553.5,-93.25 553.5,-74 649,-74 649,-93.25"/>
<text text-anchor="middle" x="601.25" y="-79.75" font-family="Helvetica,sans-Serif" font-size="10.00">Square::getLength</text>
</a>
</g>
</g>
<!-- Node17&#45;&gt;Node22 -->
<g id="edge25_Node000017_Node000022" class="edge">
<title>Node17&#45;&gt;Node22</title>
<g id="a_edge25_Node000017_Node000022"><a xlink:title=" ">
<path fill="none" stroke="#63b8ff" d="M494.5,-295.66C498.27,-293.45 501.74,-290.8 504.75,-287.62 562.65,-226.49 484.34,-164.14 540.75,-101.62 541.73,-100.54 542.76,-99.53 543.86,-98.57"/>
<polygon fill="#63b8ff" stroke="#63b8ff" points="545.51,-101.67 551.86,-93.19 541.61,-95.86 545.51,-101.67"/>
</a>
</g>
</g>
<!-- Node23 -->
<g id="Node000023" class="node">
<title>Node23</title>
<g id="a_Node000023"><a xlink:href="../../da/d0e/class_text.html#aa538b21160165d28fbaf706c51221ef3" target="_top" xlink:title="Accessor Functions.">
<polygon fill="white" stroke="#666666" points="643,-537.25 559.5,-537.25 559.5,-518 643,-518 643,-537.25"/>
<text text-anchor="middle" x="601.25" y="-523.75" font-family="Helvetica,sans-Serif" font-size="10.00">Text::getLength</text>
</a>
</g>
</g>
<!-- Node17&#45;&gt;Node23 -->
<g id="edge26_Node000017_Node000023" class="edge">
<title>Node17&#45;&gt;Node23</title>
<g id="a_edge26_Node000017_Node000023"><a xlink:title=" ">
<path fill="none" stroke="#63b8ff" d="M485.21,-315.71C492.58,-319.1 499.44,-323.61 504.75,-329.62 558.73,-390.8 485.91,-449.22 540.75,-509.62 543.14,-512.26 545.9,-514.51 548.89,-516.44"/>
<polygon fill="#63b8ff" stroke="#63b8ff" points="547.23,-519.52 557.74,-520.87 550.37,-513.26 547.23,-519.52"/>
</a>
</g>
</g>
<!-- Node24 -->
<g id="Node000024" class="node">
<title>Node24</title>
<g id="a_Node000024"><a xlink:href="../../d7/da7/class_shape.html#ab1cc10b4862f2e16db50622e2df278f3" target="_top" xlink:title=" ">
<polygon fill="white" stroke="#666666" points="646.75,-500.25 555.75,-500.25 555.75,-481 646.75,-481 646.75,-500.25"/>
<text text-anchor="middle" x="601.25" y="-486.75" font-family="Helvetica,sans-Serif" font-size="10.00">Shape::getPoints</text>
</a>
</g>
</g>
<!-- Node17&#45;&gt;Node24 -->
<g id="edge27_Node000017_Node000024" class="edge">
<title>Node17&#45;&gt;Node24</title>
<g id="a_edge27_Node000017_Node000024"><a xlink:title=" ">
<path fill="none" stroke="#63b8ff" d="M484.23,-315.62C491.9,-319.01 499.12,-323.55 504.75,-329.62 549.31,-377.69 495.51,-425.2 540.75,-472.62 542.29,-474.24 543.96,-475.7 545.74,-477.04"/>
<polygon fill="#63b8ff" stroke="#63b8ff" points="543.69,-479.89 554.08,-481.94 547.23,-473.86 543.69,-479.89"/>
</a>
</g>
</g>
<!-- Node25 -->
<g id="Node000025" class="node">
<title>Node25</title>
<g id="a_Node000025"><a xlink:href="../../d1/db0/class_polygon.html#aa29df027578f8427676e9eb4a5ee67c2" target="_top" xlink:title="getPointsList &#45; Returns the pointsList by value">
<polygon fill="white" stroke="#666666" points="658.38,-463.25 544.12,-463.25 544.12,-444 658.38,-444 658.38,-463.25"/>
<text text-anchor="middle" x="601.25" y="-449.75" font-family="Helvetica,sans-Serif" font-size="10.00">Polygon::getPointsList</text>
</a>
</g>
</g>
<!-- Node17&#45;&gt;Node25 -->
<g id="edge28_Node000017_Node000025" class="edge">
<title>Node17&#45;&gt;Node25</title>
<g id="a_edge28_Node000017_Node000025"><a xlink:title=" ">
<path fill="none" stroke="#63b8ff" d="M483.08,-315.7C491.07,-319.08 498.69,-323.59 504.75,-329.62 540.02,-364.72 504.98,-401.04 540.75,-435.62 541.36,-436.22 541.99,-436.79 542.64,-437.34"/>
<polygon fill="#63b8ff" stroke="#63b8ff" points="540.35,-440.02 550.6,-442.68 544.25,-434.21 540.35,-440.02"/>
</a>
</g>
</g>
<!-- Node26 -->
<g id="Node000026" class="node">
<title>Node26</title>
<g id="a_Node000026"><a xlink:href="../../d1/d42/class_polyline.html#acb3340122423e1c80e3aa7c7a30fda84" target="_top" xlink:title="getPointsList &#45; Returns the pointsList by value">
<polygon fill="white" stroke="#666666" points="658,-426.25 544.5,-426.25 544.5,-407 658,-407 658,-426.25"/>
<text text-anchor="middle" x="601.25" y="-412.75" font-family="Helvetica,sans-Serif" font-size="10.00">Polyline::getPointsList</text>
</a>
</g>
</g>
<!-- Node17&#45;&gt;Node26 -->
<g id="edge29_Node000017_Node000026" class="edge">
<title>Node17&#45;&gt;Node26</title>
<g id="a_edge29_Node000017_Node000026"><a xlink:title=" ">
<path fill="none" stroke="#63b8ff" d="M480.1,-315.62C488.95,-319.02 497.64,-323.56 504.75,-329.62 531.07,-352.07 514.11,-376.56 540.75,-398.62 541.71,-399.42 542.7,-400.17 543.71,-400.9"/>
<polygon fill="#63b8ff" stroke="#63b8ff" points="541.82,-403.84 552.23,-405.8 545.31,-397.78 541.82,-403.84"/>
</a>
</g>
</g>
<!-- Node27 -->
<g id="Node000027" class="node">
<title>Node27</title>
<g id="a_Node000027"><a xlink:href="../../d0/d88/class_circle.html#a955ba2846a5c3a9f42b1e38f7ace0860" target="_top" xlink:title="getR &#45; Accessor &#45; Returns the radius">
<polygon fill="white" stroke="#666666" points="635.5,-389.25 567,-389.25 567,-370 635.5,-370 635.5,-389.25"/>
<text text-anchor="middle" x="601.25" y="-375.75" font-family="Helvetica,sans-Serif" font-size="10.00">Circle::getR</text>
</a>
</g>
</g>
<!-- Node17&#45;&gt;Node27 -->
<g id="edge30_Node000017_Node000027" class="edge">
<title>Node17&#45;&gt;Node27</title>
<g id="a_edge30_Node000017_Node000027"><a xlink:title=" ">
<path fill="none" stroke="#63b8ff" d="M472.54,-315.7C483.37,-319.29 494.84,-323.89 504.75,-329.62 523.28,-340.34 522.07,-351.17 540.75,-361.62 545.5,-364.28 550.69,-366.6 555.97,-368.59"/>
<polygon fill="#63b8ff" stroke="#63b8ff" points="554.76,-371.88 565.35,-371.77 557.01,-365.25 554.76,-371.88"/>
</a>
</g>
</g>
<!-- Node28 -->
<g id="Node000028" class="node">
<title>Node28</title>
<g id="a_Node000028"><a xlink:href="../../dd/db4/class_line.html#ae0c35900f7e283b3559263455ac18669" target="_top" xlink:title="Accessor Functions.">
<polygon fill="white" stroke="#666666" points="649.75,-352.25 552.75,-352.25 552.75,-333 649.75,-333 649.75,-352.25"/>
<text text-anchor="middle" x="601.25" y="-338.75" font-family="Helvetica,sans-Serif" font-size="10.00">Line::getStartPoint</text>
</a>
</g>
</g>
<!-- Node17&#45;&gt;Node28 -->
<g id="edge32_Node000017_Node000028" class="edge">
<title>Node17&#45;&gt;Node28</title>
<g id="a_edge32_Node000017_Node000028"><a xlink:title=" ">
<path fill="none" stroke="#63b8ff" d="M478.61,-315.74C498.63,-320.16 522.32,-325.4 543.46,-330.07"/>
<polygon fill="#63b8ff" stroke="#63b8ff" points="542.57,-333.46 553.09,-332.2 544.08,-326.62 542.57,-333.46"/>
</a>
</g>
</g>
<!-- Node29 -->
<g id="Node000029" class="node">
<title>Node29</title>
<g id="a_Node000029"><a xlink:href="../../d9/dc7/class_rectangle.html#ab38bbfcd0c11b39e0ef58ffd0b5c5069" target="_top" xlink:title=" ">
<polygon fill="white" stroke="#666666" points="653.88,-315.25 548.62,-315.25 548.62,-296 653.88,-296 653.88,-315.25"/>
<text text-anchor="middle" x="601.25" y="-301.75" font-family="Helvetica,sans-Serif" font-size="10.00">Rectangle::getWidth</text>
</a>
</g>
</g>
<!-- Node17&#45;&gt;Node29 -->
<g id="edge33_Node000017_Node000029" class="edge">
<title>Node17&#45;&gt;Node29</title>
<g id="a_edge33_Node000017_Node000029"><a xlink:title=" ">
<path fill="none" stroke="#63b8ff" d="M504.83,-305.62C515.56,-305.62 526.56,-305.62 537.1,-305.62"/>
<polygon fill="#63b8ff" stroke="#63b8ff" points="536.8,-309.13 546.8,-305.63 536.8,-302.13 536.8,-309.13"/>
</a>
</g>
</g>
<!-- Node30 -->
<g id="Node000030" class="node">
<title>Node30</title>
<g id="a_Node000030"><a xlink:href="../../da/d0e/class_text.html#ad24ce301552aff8f9231d438ff9bd1e4" target="_top" xlink:title=" ">
<polygon fill="white" stroke="#666666" points="641.12,-278.25 561.38,-278.25 561.38,-259 641.12,-259 641.12,-278.25"/>
<text text-anchor="middle" x="601.25" y="-264.75" font-family="Helvetica,sans-Serif" font-size="10.00">Text::getWidth</text>
</a>
</g>
</g>
<!-- Node17&#45;&gt;Node30 -->
<g id="edge34_Node000017_Node000030" class="edge">
<title>Node17&#45;&gt;Node30</title>
<g id="a_edge34_Node000017_Node000030"><a xlink:title=" ">
<path fill="none" stroke="#63b8ff" d="M478.61,-295.51C500.72,-290.63 527.31,-284.75 549.98,-279.74"/>
<polygon fill="#63b8ff" stroke="#63b8ff" points="550.61,-283.18 559.62,-277.61 549.1,-276.35 550.61,-283.18"/>
</a>
</g>
</g>
<!-- Node33&#45;&gt;Node6 -->
<g id="edge48_Node000033_Node000006" class="edge">
<title>Node33&#45;&gt;Node6</title>
<g id="a_edge48_Node000033_Node000006"><a xlink:title=" ">
<path fill="none" stroke="#63b8ff" d="M298.89,-314.88C373.21,-326.75 490.76,-347.59 504.75,-362.62 583.62,-447.38 465.47,-532.66 540.75,-620.62 541.21,-621.16 541.69,-621.69 542.18,-622.19"/>
<polygon fill="#63b8ff" stroke="#63b8ff" points="539.95,-624.89 550.01,-628.22 544.22,-619.34 539.95,-624.89"/>
</a>
</g>
</g>
<!-- Node33&#45;&gt;Node7 -->
<g id="edge41_Node000033_Node000007" class="edge">
<title>Node33&#45;&gt;Node7</title>
<g id="a_edge41_Node000033_Node000007"><a xlink:title=" ">
<path fill="none" stroke="#63b8ff" d="M243.19,-315.52C257.44,-343.01 297.81,-422.86 323,-492.62 343.65,-549.82 315.56,-582.08 359,-624.62 363.83,-629.35 369.7,-632.9 375.99,-635.55"/>
<polygon fill="#63b8ff" stroke="#63b8ff" points="374.82,-638.85 385.41,-638.73 377.05,-632.21 374.82,-638.85"/>
</a>
</g>
</g>
<!-- Node33&#45;&gt;Node17 -->
<g id="edge47_Node000033_Node000017" class="edge">
<title>Node33&#45;&gt;Node17</title>
<g id="a_edge47_Node000033_Node000017"><a xlink:title=" ">
<path fill="none" stroke="#63b8ff" d="M299.03,-305.62C314.45,-305.62 331.28,-305.62 347.59,-305.62"/>
<polygon fill="#63b8ff" stroke="#63b8ff" points="347.27,-309.13 357.27,-305.63 347.27,-302.13 347.27,-309.13"/>
</a>
</g>
</g>
<!-- Node33&#45;&gt;Node31 -->
<g id="edge49_Node000033_Node000031" class="edge">
<title>Node33&#45;&gt;Node31</title>
<g id="a_edge49_Node000033_Node000031"><a xlink:title=" ">
<path fill="none" stroke="#63b8ff" d="M259.63,-315.57C283.67,-326.47 323.75,-344.19 359,-357.62 368.38,-361.2 378.55,-364.77 388.21,-368.03"/>
<polygon fill="#63b8ff" stroke="#63b8ff" points="386.8,-371.25 397.39,-371.08 389,-364.61 386.8,-371.25"/>
</a>
</g>
</g>
<!-- Node33&#45;&gt;Node32 -->
<g id="edge52_Node000033_Node000032" class="edge">
<title>Node33&#45;&gt;Node32</title>
<g id="a_edge52_Node000033_Node000032"><a xlink:title=" ">
<path fill="none" stroke="#63b8ff" d="M247.67,-315.63C266.97,-335.03 312.47,-377.83 359,-400.62 362.08,-402.13 365.29,-403.52 368.58,-404.8"/>
<polygon fill="#63b8ff" stroke="#63b8ff" points="367.25,-408.04 377.85,-408.02 369.55,-401.43 367.25,-408.04"/>
</a>
</g>
</g>
<!-- Node34 -->
<g id="Node000034" class="node">
<title>Node34</title>
<g id="a_Node000034"><a xlink:href="../../dc/db7/class_parser.html#a34f89825a62c101002365cdc06188b0b" target="_top" xlink:title="Gets the text alignment of a Text object as a string (e.g., &quot;AlignLeft&quot;, &quot;AlignCenter&quot;).">
<polygon fill="white" stroke="#666666" points="496.12,-278.25 367.62,-278.25 367.62,-259 496.12,-259 496.12,-278.25"/>
<text text-anchor="middle" x="431.88" y="-264.75" font-family="Helvetica,sans-Serif" font-size="10.00">Parser::GetAlignmentFlag</text>
</a>
</g>
</g>
<!-- Node33&#45;&gt;Node34 -->
<g id="edge39_Node000033_Node000034" class="edge">
<title>Node33&#45;&gt;Node34</title>
<g id="a_edge39_Node000033_Node000034"><a xlink:title=" ">
<path fill="none" stroke="#63b8ff" d="M290.7,-295.51C314.3,-290.99 342.34,-285.61 367.11,-280.86"/>
<polygon fill="#63b8ff" stroke="#63b8ff" points="367.59,-284.33 376.75,-279.01 366.27,-277.46 367.59,-284.33"/>
</a>
</g>
</g>
<!-- Node36 -->
<g id="Node000036" class="node">
<title>Node36</title>
<g id="a_Node000036"><a xlink:href="../../da/d0e/class_text.html#ace6ab02148fe23efffcd3f7c3dde9183" target="_top" xlink:title=" ">
<polygon fill="white" stroke="#666666" points="638.12,-19.25 564.38,-19.25 564.38,0 638.12,0 638.12,-19.25"/>
<text text-anchor="middle" x="601.25" y="-5.75" font-family="Helvetica,sans-Serif" font-size="10.00">Text::getFont</text>
</a>
</g>
</g>
<!-- Node33&#45;&gt;Node36 -->
<g id="edge42_Node000033_Node000036" class="edge">
<title>Node33&#45;&gt;Node36</title>
<g id="a_edge42_Node000033_Node000036"><a xlink:title=" ">
<path fill="none" stroke="#63b8ff" d="M298.9,-301.51C307.85,-298.56 316.29,-294.14 323,-287.62 371.85,-240.14 318.87,-193.68 359,-138.62 372.94,-119.5 519.15,-37.3 540.75,-27.62 544.79,-25.82 549.06,-24.12 553.39,-22.56"/>
<polygon fill="#63b8ff" stroke="#63b8ff" points="554.36,-25.93 562.72,-19.42 552.13,-19.29 554.36,-25.93"/>
</a>
</g>
</g>
<!-- Node37 -->
<g id="Node000037" class="node">
<title>Node37</title>
<g id="a_Node000037"><a xlink:href="../../dc/db7/class_parser.html#a772810a8efbdda40d51d9a81125a45c0" target="_top" xlink:title="Gets the font style of a Text object as a string (e.g., &quot;StyleNormal&quot;, &quot;StyleItalic&quot;).">
<polygon fill="white" stroke="#666666" points="486,-37.25 377.75,-37.25 377.75,-18 486,-18 486,-37.25"/>
<text text-anchor="middle" x="431.88" y="-23.75" font-family="Helvetica,sans-Serif" font-size="10.00">Parser::GetFontStyle</text>
</a>
</g>
</g>
<!-- Node33&#45;&gt;Node37 -->
<g id="edge43_Node000033_Node000037" class="edge">
<title>Node33&#45;&gt;Node37</title>
<g id="a_edge43_Node000033_Node000037"><a xlink:title=" ">
<path fill="none" stroke="#63b8ff" d="M298.81,-301.99C307.88,-299 316.38,-294.45 323,-287.62 385.88,-222.79 313.6,-165.7 359,-87.62 369.52,-69.53 387.65,-54.45 403.06,-43.94"/>
<polygon fill="#63b8ff" stroke="#63b8ff" points="404.93,-46.9 411.43,-38.53 401.13,-41.02 404.93,-46.9"/>
</a>
</g>
</g>
<!-- Node38 -->
<g id="Node000038" class="node">
<title>Node38</title>
<g id="a_Node000038"><a xlink:href="../../dc/db7/class_parser.html#ae8599ff5bde69ad1ceb08f81b955539d" target="_top" xlink:title="Gets the font weight of a Text object as a string (e.g., &quot;Normal&quot;, &quot;Bold&quot;).">
<polygon fill="white" stroke="#666666" points="489.75,-241.25 374,-241.25 374,-222 489.75,-222 489.75,-241.25"/>
<text text-anchor="middle" x="431.88" y="-227.75" font-family="Helvetica,sans-Serif" font-size="10.00">Parser::GetFontWeight</text>
</a>
</g>
</g>
<!-- Node33&#45;&gt;Node38 -->
<g id="edge45_Node000033_Node000038" class="edge">
<title>Node33&#45;&gt;Node38</title>
<g id="a_edge45_Node000033_Node000038"><a xlink:title=" ">
<path fill="none" stroke="#63b8ff" d="M299.08,-297.39C307.42,-294.94 315.63,-291.75 323,-287.62 343.3,-276.26 338.91,-261.36 359,-249.62 361.3,-248.28 363.69,-247.04 366.15,-245.89"/>
<polygon fill="#63b8ff" stroke="#63b8ff" points="367.22,-249.24 375.16,-242.23 364.58,-242.75 367.22,-249.24"/>
</a>
</g>
</g>
<!-- Node39 -->
<g id="Node000039" class="node">
<title>Node39</title>
<g id="a_Node000039"><a xlink:href="../../da/d0e/class_text.html#af3456aea5e1ce4ac424465a189e31294" target="_top" xlink:title=" ">
<polygon fill="white" stroke="#666666" points="480,-204.25 383.75,-204.25 383.75,-185 480,-185 480,-204.25"/>
<text text-anchor="middle" x="431.88" y="-190.75" font-family="Helvetica,sans-Serif" font-size="10.00">Text::getTextColor</text>
</a>
</g>
</g>
<!-- Node33&#45;&gt;Node39 -->
<g id="edge50_Node000033_Node000039" class="edge">
<title>Node33&#45;&gt;Node39</title>
<g id="a_edge50_Node000033_Node000039"><a xlink:title=" ">
<path fill="none" stroke="#63b8ff" d="M299.1,-299.82C307.71,-297.04 316,-293.12 323,-287.62 352.07,-264.78 330.35,-236 359,-212.62 363.2,-209.2 367.97,-206.41 373,-204.15"/>
<polygon fill="#63b8ff" stroke="#63b8ff" points="374.04,-207.49 382.19,-200.72 371.6,-200.93 374.04,-207.49"/>
</a>
</g>
</g>
<!-- Node40 -->
<g id="Node000040" class="node">
<title>Node40</title>
<g id="a_Node000040"><a xlink:href="../../da/d0e/class_text.html#ac4d54ea22e31be28700336bbc5bde23e" target="_top" xlink:title=" ">
<polygon fill="white" stroke="#666666" points="481.12,-167.25 382.62,-167.25 382.62,-148 481.12,-148 481.12,-167.25"/>
<text text-anchor="middle" x="431.88" y="-153.75" font-family="Helvetica,sans-Serif" font-size="10.00">Text::getTextString</text>
</a>
</g>
</g>
<!-- Node33&#45;&gt;Node40 -->
<g id="edge51_Node000033_Node000040" class="edge">
<title>Node33&#45;&gt;Node40</title>
<g id="a_edge51_Node000033_Node000040"><a xlink:title=" ">
<path fill="none" stroke="#63b8ff" d="M298.93,-300.94C307.77,-298.04 316.17,-293.79 323,-287.62 361.81,-252.59 320.84,-211.36 359,-175.62 362.75,-172.12 367.07,-169.27 371.7,-166.95"/>
<polygon fill="#63b8ff" stroke="#63b8ff" points="372.86,-170.26 380.82,-163.26 370.23,-163.77 372.86,-170.26"/>
</a>
</g>
</g>
<!-- Node35 -->
<g id="Node000035" class="node">
<title>Node35</title>
<g id="a_Node000035"><a xlink:href="../../da/d0e/class_text.html#a3d6716fc88f895932e2c96940188c647" target="_top" xlink:title=" ">
<polygon fill="white" stroke="#666666" points="659.5,-56.25 543,-56.25 543,-37 659.5,-37 659.5,-56.25"/>
<text text-anchor="middle" x="601.25" y="-42.75" font-family="Helvetica,sans-Serif" font-size="10.00">Text::getTextAlignment</text>
</a>
</g>
</g>
<!-- Node34&#45;&gt;Node35 -->
<g id="edge40_Node000034_Node000035" class="edge">
<title>Node34&#45;&gt;Node35</title>
<g id="a_edge40_Node000034_Node000035"><a xlink:title=" ">
<path fill="none" stroke="#63b8ff" d="M494.5,-258.66C498.27,-256.45 501.74,-253.8 504.75,-250.62 562.65,-189.49 484.34,-127.14 540.75,-64.62 541.11,-64.22 541.48,-63.83 541.86,-63.45"/>
<polygon fill="#63b8ff" stroke="#63b8ff" points="543.8,-66.37 549.63,-57.52 539.56,-60.8 543.8,-66.37"/>
</a>
</g>
</g>
<!-- Node37&#45;&gt;Node36 -->
<g id="edge44_Node000037_Node000036" class="edge">
<title>Node37&#45;&gt;Node36</title>
<g id="a_edge44_Node000037_Node000036"><a xlink:title=" ">
<path fill="none" stroke="#63b8ff" d="M486.29,-21.88C507.59,-19.59 531.9,-16.98 552.58,-14.75"/>
<polygon fill="#63b8ff" stroke="#63b8ff" points="552.9,-18.24 562.47,-13.69 552.15,-11.28 552.9,-18.24"/>
</a>
</g>
</g>
<!-- Node38&#45;&gt;Node36 -->
<g id="edge46_Node000038_Node000036" class="edge">
<title>Node38&#45;&gt;Node36</title>
<g id="a_edge46_Node000038_Node000036"><a xlink:title=" ">
<path fill="none" stroke="#63b8ff" d="M490.06,-224C495.54,-221.4 500.59,-218.01 504.75,-213.62 562.65,-152.49 484.34,-90.14 540.75,-27.62 544.36,-23.63 548.82,-20.51 553.66,-18.07"/>
<polygon fill="#63b8ff" stroke="#63b8ff" points="554.58,-21.47 562.58,-14.53 552,-14.96 554.58,-21.47"/>
</a>
</g>
</g>
</g>
</svg>

<g id="navigator" transform="translate(0 0)" fill="#404254">
  <rect fill="#f2f5e9" fill-opacity="0.5" stroke="#606060" stroke-width=".5" x="0" y="0" width="60" height="60"/>
  <use id="zoomplus" xlink:href="#zoomPlus" x="17" y="9" onmousedown="handleZoom(evt,'in')"/>
  <use id="zoomminus" xlink:href="#zoomMin" x="42" y="9" onmousedown="handleZoom(evt,'out')"/>
  <use id="reset" xlink:href="#resetDef" x="30" y="36" onmousedown="handleReset()"/>
   <use id="arrowup" xlink:href="#arrowUp" x="0" y="0" onmousedown="handlePan(0,-1)"/>
  <use id="arrowright" xlink:href="#arrowRight" x="0" y="0" onmousedown="handlePan(1,0)"/>
  <use id="arrowdown" xlink:href="#arrowDown" x="0" y="0" onmousedown="handlePan(0,1)"/>
  <use id="arrowleft" xlink:href="#arrowLeft" x="0" y="0" onmousedown="handlePan(-1,0)"/>
</g>
<svg viewBox="0 0 15 15" width="100%" height="30px" preserveAspectRatio="xMaxYMin meet">
 <g id="arrow_out" transform="scale(0.3 0.3)">
  <a xlink:href="class_parser_ac0dc74d228421b62ece9d9e93511509e_cgraph_org.svg" target="_base">
   <rect id="button" ry="5" rx="5" y="6" x="6" height="38" width="38"
        fill="#f2f5e9" fill-opacity="0.5" stroke="#606060" stroke-width="1.0"/>
   <path id="arrow"
     d="M 11.500037,31.436501 C 11.940474,20.09759 22.043105,11.32322 32.158766,21.979434 L 37.068811,17.246167 C 37.068811,17.246167 37.088388,32 37.088388,32 L 22.160133,31.978069 C 22.160133,31.978069 26.997745,27.140456 26.997745,27.140456 C 18.528582,18.264221 13.291696,25.230495 11.500037,31.436501 z"
     style="fill:#404040;"/>
  </a>
 </g>
</svg>

<style type='text/css'>
<![CDATA[
[data-mouse-over-selected='false'] { opacity: 0.7; }
[data-mouse-over-selected='true']  { opacity: 1.0; }
]]>
</style>
<script type="application/ecmascript"><![CDATA[
document.addEventListener('DOMContentLoaded', (event) => {
  highlightEdges();
  highlightAdjacentNodes();
});
]]></script>
</svg>
