<?xml version="1.0" encoding="UTF-8" standalone="no"?>
<!DOCTYPE svg PUBLIC "-//W3C//DTD SVG 1.1//EN"
 "http://www.w3.org/Graphics/SVG/1.1/DTD/svg11.dtd">
<!-- Generated by graphviz version 12.2.1 (20241206.2353)
 -->
<!-- Title: Parser::AppendBrushData Pages: 1 -->
<svg width="436pt" height="101pt"
 viewBox="0.00 0.00 435.50 101.25" xmlns="http://www.w3.org/2000/svg" xmlns:xlink="http://www.w3.org/1999/xlink">
<g id="graph0" class="graph" transform="scale(1 1) rotate(0) translate(4 97.25)">
<title>Parser::AppendBrushData</title>
<!-- Node1 -->
<g id="Node000001" class="node">
<title>Node1</title>
<g id="a_Node000001"><a xlink:title="Appends QBrush properties (BrushColor, BrushStyle) to a JSON string.">
<polygon fill="#999999" stroke="#666666" points="130,-56.25 0,-56.25 0,-37 130,-37 130,-56.25"/>
<text text-anchor="middle" x="65" y="-42.75" font-family="Helvetica,sans-Serif" font-size="10.00">Parser::AppendBrushData</text>
</a>
</g>
</g>
<!-- Node2 -->
<g id="Node000002" class="node">
<title>Node2</title>
<g id="a_Node000002"><a xlink:href="../../d7/da7/class_shape.html#a8b5e05c84e401dddad339a15fa7d8ab1" target="_top" xlink:title=" ">
<polygon fill="white" stroke="#666666" points="279.12,-93.25 167.12,-93.25 167.12,-74 279.12,-74 279.12,-93.25"/>
<text text-anchor="middle" x="223.12" y="-79.75" font-family="Helvetica,sans-Serif" font-size="10.00">Shape::getBrushColor</text>
</a>
</g>
</g>
<!-- Node1&#45;&gt;Node2 -->
<g id="edge1_Node000001_Node000002" class="edge">
<title>Node1&#45;&gt;Node2</title>
<g id="a_edge1_Node000001_Node000002"><a xlink:title=" ">
<path fill="none" stroke="#63b8ff" d="M108.66,-56.74C127.08,-61.1 148.83,-66.25 168.33,-70.88"/>
<polygon fill="#63b8ff" stroke="#63b8ff" points="167.5,-74.28 178.04,-73.18 169.12,-67.47 167.5,-74.28"/>
</a>
</g>
</g>
<!-- Node3 -->
<g id="Node000003" class="node">
<title>Node3</title>
<g id="a_Node000003"><a xlink:href="../../dc/db7/class_parser.html#a2ae1381ec08a2e3b54077c753d4dbf34" target="_top" xlink:title="Gets the brush style of a shape as a string (e.g., &quot;SolidPattern&quot;, &quot;NoBrush&quot;).">
<polygon fill="white" stroke="#666666" points="280.25,-56.25 166,-56.25 166,-37 280.25,-37 280.25,-56.25"/>
<text text-anchor="middle" x="223.12" y="-42.75" font-family="Helvetica,sans-Serif" font-size="10.00">Parser::GetBrushStyle</text>
</a>
</g>
</g>
<!-- Node1&#45;&gt;Node3 -->
<g id="edge2_Node000001_Node000003" class="edge">
<title>Node1&#45;&gt;Node3</title>
<g id="a_edge2_Node000001_Node000003"><a xlink:title=" ">
<path fill="none" stroke="#63b8ff" d="M130.4,-46.62C138.3,-46.62 146.4,-46.62 154.35,-46.62"/>
<polygon fill="#63b8ff" stroke="#63b8ff" points="154.34,-50.13 164.34,-46.63 154.34,-43.13 154.34,-50.13"/>
</a>
</g>
</g>
<!-- Node6 -->
<g id="Node000006" class="node">
<title>Node6</title>
<g id="a_Node000006"><a xlink:href="../../dc/db7/class_parser.html#a873d052551342d31e66e6746b09d2fe9" target="_top" xlink:title="Converts a QColor object to its string representation (e.g., &quot;red&quot;, &quot;blue&quot;).">
<polygon fill="white" stroke="#666666" points="267.88,-19.25 178.38,-19.25 178.38,0 267.88,0 267.88,-19.25"/>
<text text-anchor="middle" x="223.12" y="-5.75" font-family="Helvetica,sans-Serif" font-size="10.00">Parser::GetColor</text>
</a>
</g>
</g>
<!-- Node1&#45;&gt;Node6 -->
<g id="edge5_Node000001_Node000006" class="edge">
<title>Node1&#45;&gt;Node6</title>
<g id="a_edge5_Node000001_Node000006"><a xlink:title=" ">
<path fill="none" stroke="#63b8ff" d="M108.66,-36.51C127.08,-32.15 148.83,-27 168.33,-22.37"/>
<polygon fill="#63b8ff" stroke="#63b8ff" points="169.12,-25.78 178.04,-20.07 167.5,-18.97 169.12,-25.78"/>
</a>
</g>
</g>
<!-- Node4 -->
<g id="Node000004" class="node">
<title>Node4</title>
<g id="a_Node000004"><a xlink:href="../../d7/da7/class_shape.html#a32e7b26329177063e40671687a0c62be" target="_top" xlink:title=" ">
<polygon fill="white" stroke="#666666" points="427.5,-74.25 316.25,-74.25 316.25,-55 427.5,-55 427.5,-74.25"/>
<text text-anchor="middle" x="371.88" y="-60.75" font-family="Helvetica,sans-Serif" font-size="10.00">Shape::getBrushStyle</text>
</a>
</g>
</g>
<!-- Node3&#45;&gt;Node4 -->
<g id="edge3_Node000003_Node000004" class="edge">
<title>Node3&#45;&gt;Node4</title>
<g id="a_edge3_Node000003_Node000004"><a xlink:title=" ">
<path fill="none" stroke="#63b8ff" d="M280.44,-53.53C288.35,-54.5 296.54,-55.51 304.62,-56.5"/>
<polygon fill="#63b8ff" stroke="#63b8ff" points="304.06,-59.96 314.42,-57.7 304.92,-53.01 304.06,-59.96"/>
</a>
</g>
</g>
<!-- Node5 -->
<g id="Node000005" class="node">
<title>Node5</title>
<g id="a_Node000005"><a xlink:href="../../d7/da7/class_shape.html#a4b502262ae5a22122456b9624d5ccb3d" target="_top" xlink:title="Accessor Functions &#45; Returns the data named after them.">
<polygon fill="white" stroke="#666666" points="421.5,-37.25 322.25,-37.25 322.25,-18 421.5,-18 421.5,-37.25"/>
<text text-anchor="middle" x="371.88" y="-23.75" font-family="Helvetica,sans-Serif" font-size="10.00">Shape::getShapeId</text>
</a>
</g>
</g>
<!-- Node3&#45;&gt;Node5 -->
<g id="edge4_Node000003_Node000005" class="edge">
<title>Node3&#45;&gt;Node5</title>
<g id="a_edge4_Node000003_Node000005"><a xlink:title=" ">
<path fill="none" stroke="#63b8ff" d="M280.44,-39.33C290.43,-38.04 300.86,-36.69 310.94,-35.39"/>
<polygon fill="#63b8ff" stroke="#63b8ff" points="311.16,-38.89 320.62,-34.13 310.26,-31.94 311.16,-38.89"/>
</a>
</g>
</g>
</g>
</svg>
