<?xml version="1.0" encoding="UTF-8" standalone="no"?>
<!DOCTYPE svg PUBLIC "-//W3C//DTD SVG 1.1//EN"
 "http://www.w3.org/Graphics/SVG/1.1/DTD/svg11.dtd">
<!-- Generated by graphviz version 12.2.1 (20241206.2353)
 -->
<!-- Title: /Users/gautam/Local/Forge/Team&#45;Alphawolves/2D&#45;Graphics&#45;Modeler/src/frontend/TestimonialDialog.h Pages: 1 -->
<svg width="735pt" height="116pt"
 viewBox="0.00 0.00 734.88 116.25" xmlns="http://www.w3.org/2000/svg" xmlns:xlink="http://www.w3.org/1999/xlink">
<g id="graph0" class="graph" transform="scale(1 1) rotate(0) translate(4 112.25)">
<title>/Users/gautam/Local/Forge/Team&#45;Alphawolves/2D&#45;Graphics&#45;Modeler/src/frontend/TestimonialDialog.h</title>
<!-- Node1 -->
<g id="Node000001" class="node">
<title>Node1</title>
<g id="a_Node000001"><a xlink:title="Defines the TestimonialDialog class for submitting user testimonials.">
<polygon fill="#999999" stroke="#666666" points="420,-108.25 277.25,-108.25 277.25,-55.25 420,-55.25 420,-108.25"/>
<text text-anchor="start" x="285.25" y="-94.75" font-family="Helvetica,sans-Serif" font-size="10.00">/Users/gautam/Local</text>
<text text-anchor="start" x="285.25" y="-83.5" font-family="Helvetica,sans-Serif" font-size="10.00">/Forge/Team&#45;Alphawolves</text>
<text text-anchor="start" x="285.25" y="-72.25" font-family="Helvetica,sans-Serif" font-size="10.00">/2D&#45;Graphics&#45;Modeler/src</text>
<text text-anchor="middle" x="348.62" y="-61" font-family="Helvetica,sans-Serif" font-size="10.00">/frontend/TestimonialDialog.h</text>
</a>
</g>
</g>
<!-- Node2 -->
<g id="Node000002" class="node">
<title>Node2</title>
<g id="a_Node000002"><a xlink:title=" ">
<polygon fill="#e0e0e0" stroke="#999999" points="51.25,-19.25 0,-19.25 0,0 51.25,0 51.25,-19.25"/>
<text text-anchor="middle" x="25.62" y="-5.75" font-family="Helvetica,sans-Serif" font-size="10.00">QDialog</text>
</a>
</g>
</g>
<!-- Node1&#45;&gt;Node2 -->
<g id="edge1_Node000001_Node000002" class="edge">
<title>Node1&#45;&gt;Node2</title>
<g id="a_edge1_Node000001_Node000002"><a xlink:title=" ">
<path fill="none" stroke="#63b8ff" d="M276.9,-66.29C220.95,-54.83 141.01,-38.05 62.63,-19.89"/>
<polygon fill="#63b8ff" stroke="#63b8ff" points="63.6,-16.52 53.06,-17.66 62.01,-23.34 63.6,-16.52"/>
</a>
</g>
</g>
<!-- Node3 -->
<g id="Node000003" class="node">
<title>Node3</title>
<g id="a_Node000003"><a xlink:title=" ">
<polygon fill="#e0e0e0" stroke="#999999" points="138.25,-19.25 69,-19.25 69,0 138.25,0 138.25,-19.25"/>
<text text-anchor="middle" x="103.62" y="-5.75" font-family="Helvetica,sans-Serif" font-size="10.00">QCheckBox</text>
</a>
</g>
</g>
<!-- Node1&#45;&gt;Node3 -->
<g id="edge2_Node000001_Node000003" class="edge">
<title>Node1&#45;&gt;Node3</title>
<g id="a_edge2_Node000001_Node000003"><a xlink:title=" ">
<path fill="none" stroke="#63b8ff" d="M276.77,-60.18C234.47,-48.08 182.4,-33.17 146.46,-22.89"/>
<polygon fill="#63b8ff" stroke="#63b8ff" points="147.43,-19.52 136.85,-20.14 145.5,-26.25 147.43,-19.52"/>
</a>
</g>
</g>
<!-- Node4 -->
<g id="Node000004" class="node">
<title>Node4</title>
<g id="a_Node000004"><a xlink:title=" ">
<polygon fill="#e0e0e0" stroke="#999999" points="215.38,-19.25 155.88,-19.25 155.88,0 215.38,0 215.38,-19.25"/>
<text text-anchor="middle" x="185.62" y="-5.75" font-family="Helvetica,sans-Serif" font-size="10.00">QTextEdit</text>
</a>
</g>
</g>
<!-- Node1&#45;&gt;Node4 -->
<g id="edge3_Node000001_Node000004" class="edge">
<title>Node1&#45;&gt;Node4</title>
<g id="a_edge3_Node000001_Node000004"><a xlink:title=" ">
<path fill="none" stroke="#63b8ff" d="M288.39,-54.84C264.21,-44.43 237.35,-32.88 217.15,-24.19"/>
<polygon fill="#63b8ff" stroke="#63b8ff" points="218.64,-21.02 208.07,-20.28 215.87,-27.45 218.64,-21.02"/>
</a>
</g>
</g>
<!-- Node5 -->
<g id="Node000005" class="node">
<title>Node5</title>
<g id="a_Node000005"><a xlink:title=" ">
<polygon fill="#e0e0e0" stroke="#999999" points="292,-19.25 233.25,-19.25 233.25,0 292,0 292,-19.25"/>
<text text-anchor="middle" x="262.62" y="-5.75" font-family="Helvetica,sans-Serif" font-size="10.00">QLineEdit</text>
</a>
</g>
</g>
<!-- Node1&#45;&gt;Node5 -->
<g id="edge4_Node000001_Node000005" class="edge">
<title>Node1&#45;&gt;Node5</title>
<g id="a_edge4_Node000001_Node000005"><a xlink:title=" ">
<path fill="none" stroke="#63b8ff" d="M317.09,-55.04C305.49,-45.58 292.69,-35.14 282.42,-26.76"/>
<polygon fill="#63b8ff" stroke="#63b8ff" points="284.93,-24.3 274.97,-20.69 280.51,-29.72 284.93,-24.3"/>
</a>
</g>
</g>
<!-- Node6 -->
<g id="Node000006" class="node">
<title>Node6</title>
<g id="a_Node000006"><a xlink:title=" ">
<polygon fill="#e0e0e0" stroke="#999999" points="387,-19.25 310.25,-19.25 310.25,0 387,0 387,-19.25"/>
<text text-anchor="middle" x="348.62" y="-5.75" font-family="Helvetica,sans-Serif" font-size="10.00">QVBoxLayout</text>
</a>
</g>
</g>
<!-- Node1&#45;&gt;Node6 -->
<g id="edge5_Node000001_Node000006" class="edge">
<title>Node1&#45;&gt;Node6</title>
<g id="a_edge5_Node000001_Node000006"><a xlink:title=" ">
<path fill="none" stroke="#63b8ff" d="M348.62,-55.04C348.62,-47.12 348.62,-38.52 348.62,-31.02"/>
<polygon fill="#63b8ff" stroke="#63b8ff" points="352.13,-31.25 348.63,-21.25 345.13,-31.25 352.13,-31.25"/>
</a>
</g>
</g>
<!-- Node7 -->
<g id="Node000007" class="node">
<title>Node7</title>
<g id="a_Node000007"><a xlink:title=" ">
<polygon fill="#e0e0e0" stroke="#999999" points="482.38,-19.25 404.88,-19.25 404.88,0 482.38,0 482.38,-19.25"/>
<text text-anchor="middle" x="443.62" y="-5.75" font-family="Helvetica,sans-Serif" font-size="10.00">QHBoxLayout</text>
</a>
</g>
</g>
<!-- Node1&#45;&gt;Node7 -->
<g id="edge6_Node000001_Node000007" class="edge">
<title>Node1&#45;&gt;Node7</title>
<g id="a_edge6_Node000001_Node000007"><a xlink:title=" ">
<path fill="none" stroke="#63b8ff" d="M383.73,-54.84C396.65,-45.3 410.88,-34.8 422.23,-26.42"/>
<polygon fill="#63b8ff" stroke="#63b8ff" points="424.17,-29.34 430.14,-20.58 420.01,-23.7 424.17,-29.34"/>
</a>
</g>
</g>
<!-- Node8 -->
<g id="Node000008" class="node">
<title>Node8</title>
<g id="a_Node000008"><a xlink:title=" ">
<polygon fill="#e0e0e0" stroke="#999999" points="574.88,-19.25 500.38,-19.25 500.38,0 574.88,0 574.88,-19.25"/>
<text text-anchor="middle" x="537.62" y="-5.75" font-family="Helvetica,sans-Serif" font-size="10.00">QPushButton</text>
</a>
</g>
</g>
<!-- Node1&#45;&gt;Node8 -->
<g id="edge7_Node000001_Node000008" class="edge">
<title>Node1&#45;&gt;Node8</title>
<g id="a_edge7_Node000001_Node000008"><a xlink:title=" ">
<path fill="none" stroke="#63b8ff" d="M418.46,-54.84C447.15,-44.19 479.1,-32.34 502.68,-23.59"/>
<polygon fill="#63b8ff" stroke="#63b8ff" points="503.64,-26.97 511.8,-20.21 501.2,-20.41 503.64,-26.97"/>
</a>
</g>
</g>
<!-- Node9 -->
<g id="Node000009" class="node">
<title>Node9</title>
<g id="a_Node000009"><a xlink:title=" ">
<polygon fill="#e0e0e0" stroke="#999999" points="640,-19.25 593.25,-19.25 593.25,0 640,0 640,-19.25"/>
<text text-anchor="middle" x="616.62" y="-5.75" font-family="Helvetica,sans-Serif" font-size="10.00">QLabel</text>
</a>
</g>
</g>
<!-- Node1&#45;&gt;Node9 -->
<g id="edge8_Node000001_Node000009" class="edge">
<title>Node1&#45;&gt;Node9</title>
<g id="a_edge8_Node000001_Node000009"><a xlink:title=" ">
<path fill="none" stroke="#63b8ff" d="M420.44,-61.96C472.77,-48.27 541.35,-30.32 582.02,-19.68"/>
<polygon fill="#63b8ff" stroke="#63b8ff" points="582.71,-23.12 591.5,-17.2 580.94,-16.34 582.71,-23.12"/>
</a>
</g>
</g>
<!-- Node10 -->
<g id="Node000010" class="node">
<title>Node10</title>
<g id="a_Node000010"><a xlink:title=" ">
<polygon fill="#e0e0e0" stroke="#999999" points="726.88,-19.25 658.38,-19.25 658.38,0 726.88,0 726.88,-19.25"/>
<text text-anchor="middle" x="692.62" y="-5.75" font-family="Helvetica,sans-Serif" font-size="10.00">QScrollArea</text>
</a>
</g>
</g>
<!-- Node1&#45;&gt;Node10 -->
<g id="edge9_Node000001_Node000010" class="edge">
<title>Node1&#45;&gt;Node10</title>
<g id="a_edge9_Node000001_Node000010"><a xlink:title=" ">
<path fill="none" stroke="#63b8ff" d="M420.32,-66.13C488.62,-52.21 589.36,-31.68 647.24,-19.88"/>
<polygon fill="#63b8ff" stroke="#63b8ff" points="647.64,-23.37 656.74,-17.94 646.24,-16.51 647.64,-23.37"/>
</a>
</g>
</g>
</g>
</svg>
