<?xml version="1.0" encoding="UTF-8" standalone="no"?>
<!DOCTYPE svg PUBLIC "-//W3C//DTD SVG 1.1//EN"
 "http://www.w3.org/Graphics/SVG/1.1/DTD/svg11.dtd">
<!-- Generated by graphviz version 12.2.1 (20241206.2353)
 -->
<!-- Title: RenderArea::mouseMoveEvent Pages: 1 -->
<svg width="394pt" height="82pt"
 viewBox="0.00 0.00 393.50 82.25" xmlns="http://www.w3.org/2000/svg" xmlns:xlink="http://www.w3.org/1999/xlink">
<g id="graph0" class="graph" transform="scale(1 1) rotate(0) translate(4 78.25)">
<title>RenderArea::mouseMoveEvent</title>
<!-- Node1 -->
<g id="Node000001" class="node">
<title>Node1</title>
<g id="a_Node000001"><a xlink:title="Handles mouse move events to drag selected shapes if editing is allowed.">
<polygon fill="#999999" stroke="#666666" points="152.5,-55.25 0,-55.25 0,-36 152.5,-36 152.5,-55.25"/>
<text text-anchor="middle" x="76.25" y="-41.75" font-family="Helvetica,sans-Serif" font-size="10.00">RenderArea::mouseMoveEvent</text>
</a>
</g>
</g>
<!-- Node2 -->
<g id="Node000002" class="node">
<title>Node2</title>
<g id="a_Node000002"><a xlink:href="../../d7/da7/class_shape.html#ab1cc10b4862f2e16db50622e2df278f3" target="_top" xlink:title=" ">
<polygon fill="white" stroke="#666666" points="279.5,-74.25 188.5,-74.25 188.5,-55 279.5,-55 279.5,-74.25"/>
<text text-anchor="middle" x="234" y="-60.75" font-family="Helvetica,sans-Serif" font-size="10.00">Shape::getPoints</text>
</a>
</g>
</g>
<!-- Node1&#45;&gt;Node2 -->
<g id="edge1_Node000001_Node000002" class="edge">
<title>Node1&#45;&gt;Node2</title>
<g id="a_edge1_Node000001_Node000002"><a xlink:title=" ">
<path fill="none" stroke="#63b8ff" d="M152.84,-54.85C160.97,-55.84 169.12,-56.83 176.96,-57.79"/>
<polygon fill="#63b8ff" stroke="#63b8ff" points="176.32,-61.24 186.67,-58.97 177.16,-54.29 176.32,-61.24"/>
</a>
</g>
</g>
<!-- Node3 -->
<g id="Node000003" class="node">
<title>Node3</title>
<g id="a_Node000003"><a xlink:href="../../d7/da7/class_shape.html#a92caf93f740dc9f39677632151be9341" target="_top" xlink:title="Move &#45; Moves the shape to the x and y coords.">
<polygon fill="white" stroke="#666666" points="270.88,-37.25 197.12,-37.25 197.12,-18 270.88,-18 270.88,-37.25"/>
<text text-anchor="middle" x="234" y="-23.75" font-family="Helvetica,sans-Serif" font-size="10.00">Shape::Move</text>
</a>
</g>
</g>
<!-- Node1&#45;&gt;Node3 -->
<g id="edge2_Node000001_Node000003" class="edge">
<title>Node1&#45;&gt;Node3</title>
<g id="a_edge2_Node000001_Node000003"><a xlink:title=" ">
<path fill="none" stroke="#63b8ff" d="M152.84,-36.89C163.99,-35.6 175.21,-34.3 185.57,-33.11"/>
<polygon fill="#63b8ff" stroke="#63b8ff" points="185.81,-36.6 195.35,-31.98 185.01,-29.65 185.81,-36.6"/>
</a>
</g>
</g>
<!-- Node4 -->
<g id="Node000004" class="node">
<title>Node4</title>
<g id="a_Node000004"><a xlink:href="../../d7/da7/class_shape.html#a2d8fd6861bf7906e0152a699ce6054c8" target="_top" xlink:title=" ">
<polygon fill="white" stroke="#666666" points="385.5,-56.25 315.5,-56.25 315.5,-37 385.5,-37 385.5,-56.25"/>
<text text-anchor="middle" x="350.5" y="-42.75" font-family="Helvetica,sans-Serif" font-size="10.00">Shape::setX</text>
</a>
</g>
</g>
<!-- Node3&#45;&gt;Node4 -->
<g id="edge3_Node000003_Node000004" class="edge">
<title>Node3&#45;&gt;Node4</title>
<g id="a_edge3_Node000003_Node000004"><a xlink:title=" ">
<path fill="none" stroke="#63b8ff" d="M271.23,-33.64C281.63,-35.36 293.12,-37.27 304.01,-39.08"/>
<polygon fill="#63b8ff" stroke="#63b8ff" points="303.14,-42.48 313.58,-40.66 304.28,-35.57 303.14,-42.48"/>
</a>
</g>
</g>
<!-- Node5 -->
<g id="Node000005" class="node">
<title>Node5</title>
<g id="a_Node000005"><a xlink:href="../../d7/da7/class_shape.html#aa2b8845b186bf95781ca5d5e22316343" target="_top" xlink:title=" ">
<polygon fill="white" stroke="#666666" points="385.5,-19.25 315.5,-19.25 315.5,0 385.5,0 385.5,-19.25"/>
<text text-anchor="middle" x="350.5" y="-5.75" font-family="Helvetica,sans-Serif" font-size="10.00">Shape::setY</text>
</a>
</g>
</g>
<!-- Node3&#45;&gt;Node5 -->
<g id="edge4_Node000003_Node000005" class="edge">
<title>Node3&#45;&gt;Node5</title>
<g id="a_edge4_Node000003_Node000005"><a xlink:title=" ">
<path fill="none" stroke="#63b8ff" d="M271.23,-21.93C281.63,-20.29 293.12,-18.49 304.01,-16.78"/>
<polygon fill="#63b8ff" stroke="#63b8ff" points="304.24,-20.28 313.57,-15.27 303.15,-13.37 304.24,-20.28"/>
</a>
</g>
</g>
</g>
</svg>
