<?xml version="1.0" encoding="UTF-8" standalone="no"?>
<!DOCTYPE svg PUBLIC "-//W3C//DTD SVG 1.1//EN"
 "http://www.w3.org/Graphics/SVG/1.1/DTD/svg11.dtd">
<!-- Generated by graphviz version 12.2.1 (20241206.2353)
 -->
<!-- Title: RenderArea::mouseReleaseEvent Pages: 1 -->
<!--zoomable 323 -->

<svg id="main" version="1.1" xmlns="http://www.w3.org/2000/svg" xmlns:xlink="http://www.w3.org/1999/xlink" xml:space="preserve" onload="init(evt)">

<style type="text/css"><![CDATA[
.node, .edge {opacity: 0.7;}
.node.selected, .edge.selected {opacity: 1;}
.edge:hover path { stroke: red; }
.edge:hover polygon { stroke: red; fill: red; }
]]></style>

<defs>
  <circle id="rim" cx="0" cy="0" r="7"/>
  <circle id="rim2" cx="0" cy="0" r="3.5"/>
  <g id="zoomPlus">
    <use xlink:href="#rim" fill="#404040"><set attributeName="fill" to="#808080" begin="zoomplus.mouseover" end="zoomplus.mouseout"/></use>
    <path d="M-4,0h8M0,-4v8" fill="none" stroke="white" stroke-width="1.5" pointer-events="none"/>
  </g>
  <g id="zoomMin">
    <use xlink:href="#rim" fill="#404040"><set attributeName="fill" to="#808080" begin="zoomminus.mouseover" end="zoomminus.mouseout"/></use>
    <path d="M-4,0h8" fill="none" stroke="white" stroke-width="1.5" pointer-events="none"/>
  </g>
  <g id="arrowUp" transform="translate(30 24)">
    <use xlink:href="#rim"/>
    <path pointer-events="none" fill="none" stroke="white" stroke-width="1.5" d="M0,-3.0v7 M-2.5,-0.5L0,-3.0L2.5,-0.5"/>
  </g>
  <g id="arrowRight" transform="rotate(90) translate(36 -43)">
    <use xlink:href="#rim"/>
    <path pointer-events="none" fill="none" stroke="white" stroke-width="1.5" d="M0,-3.0v7 M-2.5,-0.5L0,-3.0L2.5,-0.5"/>
  </g>
  <g id="arrowDown" transform="rotate(180) translate(-30 -48)">
    <use xlink:href="#rim"/>
    <path pointer-events="none" fill="none" stroke="white" stroke-width="1.5" d="M0,-3.0v7 M-2.5,-0.5L0,-3.0L2.5,-0.5"/>
  </g>
  <g id="arrowLeft" transform="rotate(270) translate(-36 17)">
    <use xlink:href="#rim"/>
    <path pointer-events="none" fill="none" stroke="white" stroke-width="1.5" d="M0,-3.0v7 M-2.5,-0.5L0,-3.0L2.5,-0.5"/>
  </g>
  <g id="resetDef">
    <use xlink:href="#rim2" fill="#404040"><set attributeName="fill" to="#808080" begin="reset.mouseover" end="reset.mouseout"/></use>
  </g>
</defs>
<script type="application/ecmascript">
var viewWidth = 655;
var viewHeight = 323;
var sectionId = 'dynsection-3';
</script>
<script type="application/ecmascript" xlink:href="../../svg.min.js"/>
<svg id="graph" class="graph">
<g id="viewport">
<title>RenderArea::mouseReleaseEvent</title>
<!-- Node1 -->
<g id="Node000001" class="node">
<title>Node1</title>
<g id="a_Node000001"><a xlink:title="Handles mouse release events to finalize a shape move operation.">
<polygon fill="#999999" stroke="#666666" points="139,-172.88 0,-172.88 0,-142.38 139,-142.38 139,-172.88"/>
<text text-anchor="start" x="8" y="-159.38" font-family="Helvetica,sans-Serif" font-size="10.00">RenderArea::mouseRelease</text>
<text text-anchor="middle" x="69.5" y="-148.12" font-family="Helvetica,sans-Serif" font-size="10.00">Event</text>
</a>
</g>
</g>
<!-- Node2 -->
<g id="Node000002" class="node">
<title>Node2</title>
<g id="a_Node000002"><a xlink:href="../../d9/ddf/class_render_area.html#a7fd734dcf63055b10a414b143a45a226" target="_top" xlink:title="Updates display coordinates of a shape&#39;s properties, typically in an associated view.">
<polygon fill="white" stroke="#666666" points="338.75,-172.88 175,-172.88 175,-142.38 338.75,-142.38 338.75,-172.88"/>
<text text-anchor="start" x="183" y="-159.38" font-family="Helvetica,sans-Serif" font-size="10.00">RenderArea::updateShapeDisplay</text>
<text text-anchor="middle" x="256.88" y="-148.12" font-family="Helvetica,sans-Serif" font-size="10.00">Coords</text>
</a>
</g>
</g>
<!-- Node1&#45;&gt;Node2 -->
<g id="edge1_Node000001_Node000002" class="edge">
<title>Node1&#45;&gt;Node2</title>
<g id="a_edge1_Node000001_Node000002"><a xlink:title=" ">
<path fill="none" stroke="#63b8ff" d="M139.26,-157.62C147.11,-157.62 155.2,-157.62 163.28,-157.62"/>
<polygon fill="#63b8ff" stroke="#63b8ff" points="163.18,-161.13 173.18,-157.63 163.18,-154.13 163.18,-161.13"/>
</a>
</g>
</g>
<!-- Node3 -->
<g id="Node000003" class="node">
<title>Node3</title>
<g id="a_Node000003"><a xlink:href="../../d7/da7/class_shape.html#a8e5d4c7be5890c73cab44af6005573d4" target="_top" xlink:title=" ">
<polygon fill="white" stroke="#666666" points="492.75,-315.25 382.25,-315.25 382.25,-296 492.75,-296 492.75,-315.25"/>
<text text-anchor="middle" x="437.5" y="-301.75" font-family="Helvetica,sans-Serif" font-size="10.00">Shape::getChildItems</text>
</a>
</g>
</g>
<!-- Node2&#45;&gt;Node3 -->
<g id="edge2_Node000002_Node000003" class="edge">
<title>Node2&#45;&gt;Node3</title>
<g id="a_edge2_Node000002_Node000003"><a xlink:title=" ">
<path fill="none" stroke="#63b8ff" d="M267.44,-172.97C285.2,-200.19 325.93,-256.94 374.75,-287.62 376.63,-288.81 378.59,-289.91 380.6,-290.95"/>
<polygon fill="#63b8ff" stroke="#63b8ff" points="379.1,-294.11 389.66,-294.95 381.93,-287.71 379.1,-294.11"/>
</a>
</g>
</g>
<!-- Node4 -->
<g id="Node000004" class="node">
<title>Node4</title>
<g id="a_Node000004"><a xlink:href="../../dd/db4/class_line.html#aedb630a8121c423320ef5e369e17f65f" target="_top" xlink:title=" ">
<polygon fill="white" stroke="#666666" points="484.12,-278.25 390.88,-278.25 390.88,-259 484.12,-259 484.12,-278.25"/>
<text text-anchor="middle" x="437.5" y="-264.75" font-family="Helvetica,sans-Serif" font-size="10.00">Line::getEndPoint</text>
</a>
</g>
</g>
<!-- Node2&#45;&gt;Node4 -->
<g id="edge3_Node000002_Node000004" class="edge">
<title>Node2&#45;&gt;Node4</title>
<g id="a_edge3_Node000002_Node000004"><a xlink:title=" ">
<path fill="none" stroke="#63b8ff" d="M273.11,-173.05C294.18,-193.55 334.22,-229.64 374.75,-250.62 377.45,-252.02 380.27,-253.32 383.15,-254.54"/>
<polygon fill="#63b8ff" stroke="#63b8ff" points="381.79,-257.76 392.38,-258.01 384.26,-251.21 381.79,-257.76"/>
</a>
</g>
</g>
<!-- Node5 -->
<g id="Node000005" class="node">
<title>Node5</title>
<g id="a_Node000005"><a xlink:href="../../d7/da7/class_shape.html#a516fb93ee4883eabf72c7dc1dc9cd25f" target="_top" xlink:title=" ">
<polygon fill="white" stroke="#666666" points="495.38,-241.25 379.62,-241.25 379.62,-222 495.38,-222 495.38,-241.25"/>
<text text-anchor="middle" x="437.5" y="-227.75" font-family="Helvetica,sans-Serif" font-size="10.00">Shape::getPointsItems</text>
</a>
</g>
</g>
<!-- Node2&#45;&gt;Node5 -->
<g id="edge4_Node000002_Node000005" class="edge">
<title>Node2&#45;&gt;Node5</title>
<g id="a_edge4_Node000002_Node000005"><a xlink:title=" ">
<path fill="none" stroke="#63b8ff" d="M287.07,-173.26C310.37,-185.33 344.07,-201.89 374.75,-213.62 378.86,-215.2 383.16,-216.71 387.51,-218.14"/>
<polygon fill="#63b8ff" stroke="#63b8ff" points="386.26,-221.42 396.85,-221.09 388.37,-214.75 386.26,-221.42"/>
</a>
</g>
</g>
<!-- Node6 -->
<g id="Node000006" class="node">
<title>Node6</title>
<g id="a_Node000006"><a xlink:href="../../d1/db0/class_polygon.html#aa29df027578f8427676e9eb4a5ee67c2" target="_top" xlink:title="getPointsList &#45; Returns the pointsList by value">
<polygon fill="white" stroke="#666666" points="494.62,-204.25 380.38,-204.25 380.38,-185 494.62,-185 494.62,-204.25"/>
<text text-anchor="middle" x="437.5" y="-190.75" font-family="Helvetica,sans-Serif" font-size="10.00">Polygon::getPointsList</text>
</a>
</g>
</g>
<!-- Node2&#45;&gt;Node6 -->
<g id="edge5_Node000002_Node000006" class="edge">
<title>Node2&#45;&gt;Node6</title>
<g id="a_edge5_Node000002_Node000006"><a xlink:title=" ">
<path fill="none" stroke="#63b8ff" d="M333.89,-173.37C348.13,-176.32 362.84,-179.37 376.51,-182.2"/>
<polygon fill="#63b8ff" stroke="#63b8ff" points="375.74,-185.61 386.24,-184.21 377.16,-178.76 375.74,-185.61"/>
</a>
</g>
</g>
<!-- Node7 -->
<g id="Node000007" class="node">
<title>Node7</title>
<g id="a_Node000007"><a xlink:href="../../d1/d42/class_polyline.html#acb3340122423e1c80e3aa7c7a30fda84" target="_top" xlink:title="getPointsList &#45; Returns the pointsList by value">
<polygon fill="white" stroke="#666666" points="494.25,-167.25 380.75,-167.25 380.75,-148 494.25,-148 494.25,-167.25"/>
<text text-anchor="middle" x="437.5" y="-153.75" font-family="Helvetica,sans-Serif" font-size="10.00">Polyline::getPointsList</text>
</a>
</g>
</g>
<!-- Node2&#45;&gt;Node7 -->
<g id="edge6_Node000002_Node000007" class="edge">
<title>Node2&#45;&gt;Node7</title>
<g id="a_edge6_Node000002_Node000007"><a xlink:title=" ">
<path fill="none" stroke="#63b8ff" d="M339.09,-157.62C349.09,-157.62 359.23,-157.62 369,-157.62"/>
<polygon fill="#63b8ff" stroke="#63b8ff" points="368.75,-161.13 378.75,-157.63 368.75,-154.13 368.75,-161.13"/>
</a>
</g>
</g>
<!-- Node8 -->
<g id="Node000008" class="node">
<title>Node8</title>
<g id="a_Node000008"><a xlink:href="../../d7/da7/class_shape.html#a4b502262ae5a22122456b9624d5ccb3d" target="_top" xlink:title="Accessor Functions &#45; Returns the data named after them.">
<polygon fill="white" stroke="#666666" points="487.12,-130.25 387.88,-130.25 387.88,-111 487.12,-111 487.12,-130.25"/>
<text text-anchor="middle" x="437.5" y="-116.75" font-family="Helvetica,sans-Serif" font-size="10.00">Shape::getShapeId</text>
</a>
</g>
</g>
<!-- Node2&#45;&gt;Node8 -->
<g id="edge7_Node000002_Node000008" class="edge">
<title>Node2&#45;&gt;Node8</title>
<g id="a_edge7_Node000002_Node000008"><a xlink:title=" ">
<path fill="none" stroke="#63b8ff" d="M333.89,-141.88C348.13,-138.93 362.84,-135.88 376.51,-133.05"/>
<polygon fill="#63b8ff" stroke="#63b8ff" points="377.16,-136.49 386.24,-131.04 375.74,-129.64 377.16,-136.49"/>
</a>
</g>
</g>
<!-- Node9 -->
<g id="Node000009" class="node">
<title>Node9</title>
<g id="a_Node000009"><a xlink:href="../../dd/db4/class_line.html#ae0c35900f7e283b3559263455ac18669" target="_top" xlink:title="Accessor Functions.">
<polygon fill="white" stroke="#666666" points="486,-93.25 389,-93.25 389,-74 486,-74 486,-93.25"/>
<text text-anchor="middle" x="437.5" y="-79.75" font-family="Helvetica,sans-Serif" font-size="10.00">Line::getStartPoint</text>
</a>
</g>
</g>
<!-- Node2&#45;&gt;Node9 -->
<g id="edge8_Node000002_Node000009" class="edge">
<title>Node2&#45;&gt;Node9</title>
<g id="a_edge8_Node000002_Node000009"><a xlink:title=" ">
<path fill="none" stroke="#63b8ff" d="M287.07,-141.99C310.37,-129.92 344.07,-113.36 374.75,-101.62 378.86,-100.05 383.16,-98.54 387.51,-97.11"/>
<polygon fill="#63b8ff" stroke="#63b8ff" points="388.37,-100.5 396.85,-94.16 386.26,-93.83 388.37,-100.5"/>
</a>
</g>
</g>
<!-- Node10 -->
<g id="Node000010" class="node">
<title>Node10</title>
<g id="a_Node000010"><a xlink:href="../../db/d35/classalpha_1_1vector.html#a8305c181181e4739a1c5f29cf3a2c144" target="_top" xlink:title=" ">
<polygon fill="white" stroke="#666666" points="500.25,-56.25 374.75,-56.25 374.75,-37 500.25,-37 500.25,-56.25"/>
<text text-anchor="middle" x="437.5" y="-42.75" font-family="Helvetica,sans-Serif" font-size="10.00">alpha::vector::push_back</text>
</a>
</g>
</g>
<!-- Node2&#45;&gt;Node10 -->
<g id="edge9_Node000002_Node000010" class="edge">
<title>Node2&#45;&gt;Node10</title>
<g id="a_edge9_Node000002_Node000010"><a xlink:title=" ">
<path fill="none" stroke="#63b8ff" d="M273.11,-142.2C294.18,-121.7 334.22,-85.61 374.75,-64.62 377.45,-63.23 380.27,-61.93 383.15,-60.71"/>
<polygon fill="#63b8ff" stroke="#63b8ff" points="384.26,-64.04 392.38,-57.24 381.79,-57.49 384.26,-64.04"/>
</a>
</g>
</g>
<!-- Node12 -->
<g id="Node000012" class="node">
<title>Node12</title>
<g id="a_Node000012"><a xlink:href="../../db/d35/classalpha_1_1vector.html#a78b5e138cba3b9bc0f9d569c6dd96156" target="_top" xlink:title=" ">
<polygon fill="white" stroke="#666666" points="485.62,-19.25 389.38,-19.25 389.38,0 485.62,0 485.62,-19.25"/>
<text text-anchor="middle" x="437.5" y="-5.75" font-family="Helvetica,sans-Serif" font-size="10.00">alpha::vector::size</text>
</a>
</g>
</g>
<!-- Node2&#45;&gt;Node12 -->
<g id="edge11_Node000002_Node000012" class="edge">
<title>Node2&#45;&gt;Node12</title>
<g id="a_edge11_Node000002_Node000012"><a xlink:title=" ">
<path fill="none" stroke="#63b8ff" d="M267.44,-142.28C285.2,-115.06 325.93,-58.31 374.75,-27.62 376.63,-26.44 378.59,-25.34 380.6,-24.3"/>
<polygon fill="#63b8ff" stroke="#63b8ff" points="381.93,-27.54 389.66,-20.3 379.1,-21.14 381.93,-27.54"/>
</a>
</g>
</g>
<!-- Node11 -->
<g id="Node000011" class="node">
<title>Node11</title>
<g id="a_Node000011"><a xlink:href="../../db/d35/classalpha_1_1vector.html#a6dd9585078696eb1d5e7186435f0e41c" target="_top" xlink:title=" ">
<polygon fill="white" stroke="#666666" points="646.75,-56.25 536.25,-56.25 536.25,-37 646.75,-37 646.75,-56.25"/>
<text text-anchor="middle" x="591.5" y="-42.75" font-family="Helvetica,sans-Serif" font-size="10.00">alpha::vector::reserve</text>
</a>
</g>
</g>
<!-- Node10&#45;&gt;Node11 -->
<g id="edge10_Node000010_Node000011" class="edge">
<title>Node10&#45;&gt;Node11</title>
<g id="a_edge10_Node000010_Node000011"><a xlink:title=" ">
<path fill="none" stroke="#63b8ff" d="M500.32,-46.62C508.37,-46.62 516.63,-46.62 524.74,-46.62"/>
<polygon fill="#63b8ff" stroke="#63b8ff" points="524.54,-50.13 534.54,-46.63 524.54,-43.13 524.54,-50.13"/>
</a>
</g>
</g>
</g>
</svg>

<g id="navigator" transform="translate(0 0)" fill="#404254">
  <rect fill="#f2f5e9" fill-opacity="0.5" stroke="#606060" stroke-width=".5" x="0" y="0" width="60" height="60"/>
  <use id="zoomplus" xlink:href="#zoomPlus" x="17" y="9" onmousedown="handleZoom(evt,'in')"/>
  <use id="zoomminus" xlink:href="#zoomMin" x="42" y="9" onmousedown="handleZoom(evt,'out')"/>
  <use id="reset" xlink:href="#resetDef" x="30" y="36" onmousedown="handleReset()"/>
   <use id="arrowup" xlink:href="#arrowUp" x="0" y="0" onmousedown="handlePan(0,-1)"/>
  <use id="arrowright" xlink:href="#arrowRight" x="0" y="0" onmousedown="handlePan(1,0)"/>
  <use id="arrowdown" xlink:href="#arrowDown" x="0" y="0" onmousedown="handlePan(0,1)"/>
  <use id="arrowleft" xlink:href="#arrowLeft" x="0" y="0" onmousedown="handlePan(-1,0)"/>
</g>
<svg viewBox="0 0 15 15" width="100%" height="30px" preserveAspectRatio="xMaxYMin meet">
 <g id="arrow_out" transform="scale(0.3 0.3)">
  <a xlink:href="class_render_area_a84f2ea379248266648d22338e3904b45_cgraph_org.svg" target="_base">
   <rect id="button" ry="5" rx="5" y="6" x="6" height="38" width="38"
        fill="#f2f5e9" fill-opacity="0.5" stroke="#606060" stroke-width="1.0"/>
   <path id="arrow"
     d="M 11.500037,31.436501 C 11.940474,20.09759 22.043105,11.32322 32.158766,21.979434 L 37.068811,17.246167 C 37.068811,17.246167 37.088388,32 37.088388,32 L 22.160133,31.978069 C 22.160133,31.978069 26.997745,27.140456 26.997745,27.140456 C 18.528582,18.264221 13.291696,25.230495 11.500037,31.436501 z"
     style="fill:#404040;"/>
  </a>
 </g>
</svg>

<style type='text/css'>
<![CDATA[
[data-mouse-over-selected='false'] { opacity: 0.7; }
[data-mouse-over-selected='true']  { opacity: 1.0; }
]]>
</style>
<script type="application/ecmascript"><![CDATA[
document.addEventListener('DOMContentLoaded', (event) => {
  highlightEdges();
  highlightAdjacentNodes();
});
]]></script>
</svg>
