<?xml version="1.0" encoding="UTF-8" standalone="no"?>
<!DOCTYPE svg PUBLIC "-//W3C//DTD SVG 1.1//EN"
 "http://www.w3.org/Graphics/SVG/1.1/DTD/svg11.dtd">
<!-- Generated by graphviz version 12.2.1 (20241206.2353)
 -->
<!-- Title: Polyline::Draw Pages: 1 -->
<svg width="225pt" height="212pt"
 viewBox="0.00 0.00 225.25 212.25" xmlns="http://www.w3.org/2000/svg" xmlns:xlink="http://www.w3.org/1999/xlink">

<svg id="main" version="1.1" xmlns="http://www.w3.org/2000/svg" xmlns:xlink="http://www.w3.org/1999/xlink" xml:space="preserve">

<style type="text/css"><![CDATA[
.node, .edge {opacity: 0.7;}
.node.selected, .edge.selected {opacity: 1;}
.edge:hover path { stroke: red; }
.edge:hover polygon { stroke: red; fill: red; }
]]></style>
<script type="application/ecmascript" xlink:href="../../svg.min.js"/>
<svg id="graph" class="graph">
<g id="graph0" class="graph" transform="scale(1 1) rotate(0) translate(4 208.25)">
<title>Polyline::Draw</title>
<!-- Node1 -->
<g id="Node000001" class="node">
<title>Node1</title>
<g id="a_Node000001"><a xlink:title="Draw &#45; Draws a Polyline at the assigne coords with points in the pointsList.">
<polygon fill="#999999" stroke="#666666" points="79.75,-111.25 0,-111.25 0,-92 79.75,-92 79.75,-111.25"/>
<text text-anchor="middle" x="39.88" y="-97.75" font-family="Helvetica,sans-Serif" font-size="10.00">Polyline::Draw</text>
</a>
</g>
</g>
<!-- Node2 -->
<g id="Node000002" class="node">
<title>Node2</title>
<g id="a_Node000002"><a xlink:href="../../d7/da7/class_shape.html#acbb9f9354579fdaad31853d714653e0d" target="_top" xlink:title=" ">
<polygon fill="white" stroke="#666666" points="210.88,-204.25 122.12,-204.25 122.12,-185 210.88,-185 210.88,-204.25"/>
<text text-anchor="middle" x="166.5" y="-190.75" font-family="Helvetica,sans-Serif" font-size="10.00">Shape::getBrush</text>
</a>
</g>
</g>
<!-- Node1&#45;&gt;Node2 -->
<g id="edge1_Node000001_Node000002" class="edge">
<title>Node1&#45;&gt;Node2</title>
<g id="a_edge1_Node000001_Node000002"><a xlink:title=" ">
<path fill="none" stroke="#63b8ff" d="M48.33,-111.52C60.72,-127.32 87.03,-158.35 115.75,-176.62 117.55,-177.77 119.44,-178.86 121.37,-179.89"/>
<polygon fill="#63b8ff" stroke="#63b8ff" points="119.45,-182.85 130,-183.91 122.41,-176.51 119.45,-182.85"/>
</a>
</g>
</g>
<!-- Node3 -->
<g id="Node000003" class="node">
<title>Node3</title>
<g id="a_Node000003"><a xlink:href="../../d7/da7/class_shape.html#a754ef1fcea3fbe3c3612da480ba8dd75" target="_top" xlink:title=" ">
<polygon fill="white" stroke="#666666" points="213.5,-167.25 119.5,-167.25 119.5,-148 213.5,-148 213.5,-167.25"/>
<text text-anchor="middle" x="166.5" y="-153.75" font-family="Helvetica,sans-Serif" font-size="10.00">Shape::getPainter</text>
</a>
</g>
</g>
<!-- Node1&#45;&gt;Node3 -->
<g id="edge2_Node000001_Node000003" class="edge">
<title>Node1&#45;&gt;Node3</title>
<g id="a_edge2_Node000001_Node000003"><a xlink:title=" ">
<path fill="none" stroke="#63b8ff" d="M59.04,-111.63C74.02,-119.69 95.95,-131.06 115.75,-139.62 118.75,-140.92 121.88,-142.21 125.05,-143.46"/>
<polygon fill="#63b8ff" stroke="#63b8ff" points="123.8,-146.73 134.39,-147.02 126.29,-140.19 123.8,-146.73"/>
</a>
</g>
</g>
<!-- Node4 -->
<g id="Node000004" class="node">
<title>Node4</title>
<g id="a_Node000004"><a xlink:href="../../d7/da7/class_shape.html#a16aad057da1ce3475f666cbdd27da042" target="_top" xlink:title=" ">
<polygon fill="white" stroke="#666666" points="206.75,-130.25 126.25,-130.25 126.25,-111 206.75,-111 206.75,-130.25"/>
<text text-anchor="middle" x="166.5" y="-116.75" font-family="Helvetica,sans-Serif" font-size="10.00">Shape::getPen</text>
</a>
</g>
</g>
<!-- Node1&#45;&gt;Node4 -->
<g id="edge3_Node000001_Node000004" class="edge">
<title>Node1&#45;&gt;Node4</title>
<g id="a_edge3_Node000001_Node000004"><a xlink:title=" ">
<path fill="none" stroke="#63b8ff" d="M79.97,-107.58C90.99,-109.27 103.16,-111.12 114.76,-112.89"/>
<polygon fill="#63b8ff" stroke="#63b8ff" points="114.21,-116.35 124.62,-114.39 115.27,-109.43 114.21,-116.35"/>
</a>
</g>
</g>
<!-- Node5 -->
<g id="Node000005" class="node">
<title>Node5</title>
<g id="a_Node000005"><a xlink:href="../../d7/da7/class_shape.html#aebeb671fc243de273dc49f07ba71bac6" target="_top" xlink:title=" ">
<polygon fill="white" stroke="#666666" points="217.25,-93.25 115.75,-93.25 115.75,-74 217.25,-74 217.25,-93.25"/>
<text text-anchor="middle" x="166.5" y="-79.75" font-family="Helvetica,sans-Serif" font-size="10.00">Shape::getSelected</text>
</a>
</g>
</g>
<!-- Node1&#45;&gt;Node5 -->
<g id="edge4_Node000001_Node000005" class="edge">
<title>Node1&#45;&gt;Node5</title>
<g id="a_edge4_Node000001_Node000005"><a xlink:title=" ">
<path fill="none" stroke="#63b8ff" d="M79.97,-95.98C87.72,-94.86 96.03,-93.66 104.32,-92.46"/>
<polygon fill="#63b8ff" stroke="#63b8ff" points="104.65,-95.95 114.05,-91.06 103.65,-89.02 104.65,-95.95"/>
</a>
</g>
</g>
<!-- Node6 -->
<g id="Node000006" class="node">
<title>Node6</title>
<g id="a_Node000006"><a xlink:href="../../d7/da7/class_shape.html#a4b502262ae5a22122456b9624d5ccb3d" target="_top" xlink:title="Accessor Functions &#45; Returns the data named after them.">
<polygon fill="white" stroke="#666666" points="216.12,-56.25 116.88,-56.25 116.88,-37 216.12,-37 216.12,-56.25"/>
<text text-anchor="middle" x="166.5" y="-42.75" font-family="Helvetica,sans-Serif" font-size="10.00">Shape::getShapeId</text>
</a>
</g>
</g>
<!-- Node1&#45;&gt;Node6 -->
<g id="edge5_Node000001_Node000006" class="edge">
<title>Node1&#45;&gt;Node6</title>
<g id="a_edge5_Node000001_Node000006"><a xlink:title=" ">
<path fill="none" stroke="#63b8ff" d="M59.68,-91.6C74.66,-83.8 96.28,-72.93 115.75,-64.62 118.76,-63.34 121.9,-62.07 125.06,-60.82"/>
<polygon fill="#63b8ff" stroke="#63b8ff" points="126.3,-64.1 134.41,-57.28 123.82,-57.55 126.3,-64.1"/>
</a>
</g>
</g>
<!-- Node7 -->
<g id="Node000007" class="node">
<title>Node7</title>
<g id="a_Node000007"><a xlink:href="../../d7/da7/class_shape.html#af604de36aa616c585bb30dedf5e5c68b" target="_top" xlink:title=" ">
<polygon fill="white" stroke="#666666" points="201.5,-19.25 131.5,-19.25 131.5,0 201.5,0 201.5,-19.25"/>
<text text-anchor="middle" x="166.5" y="-5.75" font-family="Helvetica,sans-Serif" font-size="10.00">Shape::getX</text>
</a>
</g>
</g>
<!-- Node1&#45;&gt;Node7 -->
<g id="edge6_Node000001_Node000007" class="edge">
<title>Node1&#45;&gt;Node7</title>
<g id="a_edge6_Node000001_Node000007"><a xlink:title=" ">
<path fill="none" stroke="#63b8ff" d="M48.56,-91.62C61.08,-75.95 87.32,-45.58 115.75,-27.62 117.56,-26.48 119.44,-25.4 121.38,-24.38"/>
<polygon fill="#63b8ff" stroke="#63b8ff" points="122.42,-27.76 130.01,-20.37 119.47,-21.41 122.42,-27.76"/>
</a>
</g>
</g>
</g>
</svg>
</svg>

<style type='text/css'>
<![CDATA[
[data-mouse-over-selected='false'] { opacity: 0.7; }
[data-mouse-over-selected='true']  { opacity: 1.0; }
]]>
</style>
<script type="application/ecmascript"><![CDATA[
document.addEventListener('DOMContentLoaded', (event) => {
  highlightEdges();
  highlightAdjacentNodes();
});
]]></script>
</svg>
