<?xml version="1.0" encoding="UTF-8" standalone="no"?>
<!DOCTYPE svg PUBLIC "-//W3C//DTD SVG 1.1//EN"
 "http://www.w3.org/Graphics/SVG/1.1/DTD/svg11.dtd">
<!-- Generated by graphviz version 12.2.1 (20241206.2353)
 -->
<!-- Title: Polyline::getPointsList Pages: 1 -->
<svg width="680pt" height="180pt"
 viewBox="0.00 0.00 680.25 179.88" xmlns="http://www.w3.org/2000/svg" xmlns:xlink="http://www.w3.org/1999/xlink">
<g id="graph0" class="graph" transform="scale(1 1) rotate(0) translate(4 175.88)">
<title>Polyline::getPointsList</title>
<!-- Node1 -->
<g id="Node000001" class="node">
<title>Node1</title>
<g id="a_Node000001"><a xlink:title="getPointsList &#45; Returns the pointsList by value">
<polygon fill="#999999" stroke="#666666" points="672.25,-88.88 558.75,-88.88 558.75,-69.62 672.25,-69.62 672.25,-88.88"/>
<text text-anchor="middle" x="615.5" y="-75.38" font-family="Helvetica,sans-Serif" font-size="10.00">Polyline::getPointsList</text>
</a>
</g>
</g>
<!-- Node2 -->
<g id="Node000002" class="node">
<title>Node2</title>
<g id="a_Node000002"><a xlink:href="../../dc/db7/class_parser.html#af246a0732ef6c7518e5aaee1043d12e4" target="_top" xlink:title="Gets the geometric dimensions of a shape as a JSON array string.">
<polygon fill="white" stroke="#666666" points="513.75,-153.88 368,-153.88 368,-134.62 513.75,-134.62 513.75,-153.88"/>
<text text-anchor="middle" x="440.88" y="-140.38" font-family="Helvetica,sans-Serif" font-size="10.00">Parser::GetShapeDimensions</text>
</a>
</g>
</g>
<!-- Node1&#45;&gt;Node2 -->
<g id="edge1_Node000001_Node000002" class="edge">
<title>Node1&#45;&gt;Node2</title>
<g id="a_edge1_Node000001_Node000002"><a xlink:title=" ">
<path fill="none" stroke="#63b8ff" d="M587.46,-94.92C569.57,-104.75 545.33,-117.07 522.75,-125.25 513.26,-128.69 502.91,-131.67 492.88,-134.18"/>
<polygon fill="#63b8ff" stroke="#63b8ff" points="589.11,-98 596.13,-90.06 585.69,-91.89 589.11,-98"/>
</a>
</g>
</g>
<!-- Node6 -->
<g id="Node000006" class="node">
<title>Node6</title>
<g id="a_Node000006"><a xlink:href="../../d8/d08/class_render_area_manager.html#af37e63015f3671115d0da8aff234a805" target="_top" xlink:title="Modifies a property of an existing shape based on a key&#45;value pair.">
<polygon fill="white" stroke="#666666" points="496.5,-116.5 385.25,-116.5 385.25,-86 496.5,-86 496.5,-116.5"/>
<text text-anchor="start" x="393.25" y="-103" font-family="Helvetica,sans-Serif" font-size="10.00">RenderAreaManager::</text>
<text text-anchor="middle" x="440.88" y="-91.75" font-family="Helvetica,sans-Serif" font-size="10.00">modifyShape</text>
</a>
</g>
</g>
<!-- Node1&#45;&gt;Node6 -->
<g id="edge6_Node000001_Node000006" class="edge">
<title>Node1&#45;&gt;Node6</title>
<g id="a_edge6_Node000001_Node000006"><a xlink:title=" ">
<path fill="none" stroke="#63b8ff" d="M547.1,-87.84C530.42,-89.97 512.76,-92.22 496.76,-94.26"/>
<polygon fill="#63b8ff" stroke="#63b8ff" points="547.47,-91.32 556.95,-86.58 546.59,-84.38 547.47,-91.32"/>
</a>
</g>
</g>
<!-- Node7 -->
<g id="Node000007" class="node">
<title>Node7</title>
<g id="a_Node000007"><a xlink:href="../../d1/d42/class_polyline.html#a27e879d516bc07264e2e871211df3a1f" target="_top" xlink:title="Polyline.">
<polygon fill="white" stroke="#666666" points="486.38,-67.88 395.38,-67.88 395.38,-48.62 486.38,-48.62 486.38,-67.88"/>
<text text-anchor="middle" x="440.88" y="-54.38" font-family="Helvetica,sans-Serif" font-size="10.00">Polyline::Polyline</text>
</a>
</g>
</g>
<!-- Node1&#45;&gt;Node7 -->
<g id="edge7_Node000001_Node000007" class="edge">
<title>Node1&#45;&gt;Node7</title>
<g id="a_edge7_Node000001_Node000007"><a xlink:title=" ">
<path fill="none" stroke="#63b8ff" d="M547.07,-71.05C526.82,-68.58 505.13,-65.94 486.73,-63.71"/>
<polygon fill="#63b8ff" stroke="#63b8ff" points="546.6,-74.52 556.95,-72.25 547.45,-67.57 546.6,-74.52"/>
</a>
</g>
</g>
<!-- Node8 -->
<g id="Node000008" class="node">
<title>Node8</title>
<g id="a_Node000008"><a xlink:href="../../d9/ddf/class_render_area.html#a7fd734dcf63055b10a414b143a45a226" target="_top" xlink:title="Updates display coordinates of a shape&#39;s properties, typically in an associated view.">
<polygon fill="white" stroke="#666666" points="522.75,-30.5 359,-30.5 359,0 522.75,0 522.75,-30.5"/>
<text text-anchor="start" x="367" y="-17" font-family="Helvetica,sans-Serif" font-size="10.00">RenderArea::updateShapeDisplay</text>
<text text-anchor="middle" x="440.88" y="-5.75" font-family="Helvetica,sans-Serif" font-size="10.00">Coords</text>
</a>
</g>
</g>
<!-- Node1&#45;&gt;Node8 -->
<g id="edge8_Node000001_Node000008" class="edge">
<title>Node1&#45;&gt;Node8</title>
<g id="a_edge8_Node000001_Node000008"><a xlink:title=" ">
<path fill="none" stroke="#63b8ff" d="M583.41,-64.56C565.82,-56.54 543.3,-46.75 522.75,-39.25 514.77,-36.34 506.25,-33.51 497.86,-30.89"/>
<polygon fill="#63b8ff" stroke="#63b8ff" points="581.74,-67.65 592.29,-68.66 584.67,-61.29 581.74,-67.65"/>
</a>
</g>
</g>
<!-- Node3 -->
<g id="Node000003" class="node">
<title>Node3</title>
<g id="a_Node000003"><a xlink:href="../../dc/db7/class_parser.html#a8f8932bed758cd3e61de3669fdef1110" target="_top" xlink:title="Appends common shape properties (ID, Type, Dimensions, Pen properties) to a JSON string.">
<polygon fill="white" stroke="#666666" points="323,-171.88 151,-171.88 151,-152.62 323,-152.62 323,-171.88"/>
<text text-anchor="middle" x="237" y="-158.38" font-family="Helvetica,sans-Serif" font-size="10.00">Parser::AppendCommonShapeData</text>
</a>
</g>
</g>
<!-- Node2&#45;&gt;Node3 -->
<g id="edge2_Node000002_Node000003" class="edge">
<title>Node2&#45;&gt;Node3</title>
<g id="a_edge2_Node000002_Node000003"><a xlink:title=" ">
<path fill="none" stroke="#63b8ff" d="M356.3,-151.7C345.38,-152.68 334.18,-153.67 323.23,-154.65"/>
<polygon fill="#63b8ff" stroke="#63b8ff" points="356.41,-155.21 366.06,-150.83 355.78,-148.23 356.41,-155.21"/>
</a>
</g>
</g>
<!-- Node5 -->
<g id="Node000005" class="node">
<title>Node5</title>
<g id="a_Node000005"><a xlink:href="../../dc/db7/class_parser.html#a3c8d6dcf6e07231eaedb036ebe90b51f" target="_top" xlink:title="Appends all properties specific to Text objects to a JSON string.">
<polygon fill="white" stroke="#666666" points="298.62,-134.88 175.38,-134.88 175.38,-115.62 298.62,-115.62 298.62,-134.88"/>
<text text-anchor="middle" x="237" y="-121.38" font-family="Helvetica,sans-Serif" font-size="10.00">Parser::AppendTextData</text>
</a>
</g>
</g>
<!-- Node2&#45;&gt;Node5 -->
<g id="edge4_Node000002_Node000005" class="edge">
<title>Node2&#45;&gt;Node5</title>
<g id="a_edge4_Node000002_Node000005"><a xlink:title=" ">
<path fill="none" stroke="#63b8ff" d="M356.34,-136.39C337.06,-134.57 316.91,-132.68 298.82,-130.97"/>
<polygon fill="#63b8ff" stroke="#63b8ff" points="355.77,-139.85 366.06,-137.3 356.43,-132.88 355.77,-139.85"/>
</a>
</g>
</g>
<!-- Node4 -->
<g id="Node000004" class="node">
<title>Node4</title>
<g id="a_Node000004"><a xlink:href="../../dc/db7/class_parser.html#ac0dc74d228421b62ece9d9e93511509e" target="_top" xlink:title="Converts a vector of Shape pointers into a JSON string representation.">
<polygon fill="white" stroke="#666666" points="115,-152.88 0,-152.88 0,-133.62 115,-133.62 115,-152.88"/>
<text text-anchor="middle" x="57.5" y="-139.38" font-family="Helvetica,sans-Serif" font-size="10.00">Parser::ShapesToJson</text>
</a>
</g>
</g>
<!-- Node3&#45;&gt;Node4 -->
<g id="edge3_Node000003_Node000004" class="edge">
<title>Node3&#45;&gt;Node4</title>
<g id="a_edge3_Node000003_Node000004"><a xlink:title=" ">
<path fill="none" stroke="#63b8ff" d="M139.39,-151.91C131.17,-151.03 123.04,-150.16 115.29,-149.33"/>
<polygon fill="#63b8ff" stroke="#63b8ff" points="138.81,-155.37 149.12,-152.95 139.55,-148.41 138.81,-155.37"/>
</a>
</g>
</g>
<!-- Node5&#45;&gt;Node4 -->
<g id="edge5_Node000005_Node000004" class="edge">
<title>Node5&#45;&gt;Node4</title>
<g id="a_edge5_Node000005_Node000004"><a xlink:title=" ">
<path fill="none" stroke="#63b8ff" d="M163.85,-132.57C147.65,-134.21 130.69,-135.93 115.22,-137.5"/>
<polygon fill="#63b8ff" stroke="#63b8ff" points="163.81,-136.09 173.41,-131.6 163.11,-129.12 163.81,-136.09"/>
</a>
</g>
</g>
<!-- Node9 -->
<g id="Node000009" class="node">
<title>Node9</title>
<g id="a_Node000009"><a xlink:href="../../d9/ddf/class_render_area.html#a84f2ea379248266648d22338e3904b45" target="_top" xlink:title="Handles mouse release events to finalize a shape move operation.">
<polygon fill="white" stroke="#666666" points="306.5,-30.5 167.5,-30.5 167.5,0 306.5,0 306.5,-30.5"/>
<text text-anchor="start" x="175.5" y="-17" font-family="Helvetica,sans-Serif" font-size="10.00">RenderArea::mouseRelease</text>
<text text-anchor="middle" x="237" y="-5.75" font-family="Helvetica,sans-Serif" font-size="10.00">Event</text>
</a>
</g>
</g>
<!-- Node8&#45;&gt;Node9 -->
<g id="edge9_Node000008_Node000009" class="edge">
<title>Node8&#45;&gt;Node9</title>
<g id="a_edge9_Node000008_Node000009"><a xlink:title=" ">
<path fill="none" stroke="#63b8ff" d="M347.26,-15.25C333.63,-15.25 319.79,-15.25 306.76,-15.25"/>
<polygon fill="#63b8ff" stroke="#63b8ff" points="347.12,-18.75 357.12,-15.25 347.12,-11.75 347.12,-18.75"/>
</a>
</g>
</g>
</g>
</svg>
