<?xml version="1.0" encoding="UTF-8" standalone="no"?>
<!DOCTYPE svg PUBLIC "-//W3C//DTD SVG 1.1//EN"
 "http://www.w3.org/Graphics/SVG/1.1/DTD/svg11.dtd">
<!-- Generated by graphviz version 12.2.1 (20241206.2353)
 -->
<!-- Title: Polyline::Polyline Pages: 1 -->
<svg width="425pt" height="230pt"
 viewBox="0.00 0.00 425.00 230.25" xmlns="http://www.w3.org/2000/svg" xmlns:xlink="http://www.w3.org/1999/xlink">

<svg id="main" version="1.1" xmlns="http://www.w3.org/2000/svg" xmlns:xlink="http://www.w3.org/1999/xlink" xml:space="preserve">

<style type="text/css"><![CDATA[
.node, .edge {opacity: 0.7;}
.node.selected, .edge.selected {opacity: 1;}
.edge:hover path { stroke: red; }
.edge:hover polygon { stroke: red; fill: red; }
]]></style>
<script type="application/ecmascript" xlink:href="../../svg.min.js"/>
<svg id="graph" class="graph">
<g id="graph0" class="graph" transform="scale(1 1) rotate(0) translate(4 226.25)">
<title>Polyline::Polyline</title>
<!-- Node1 -->
<g id="Node000001" class="node">
<title>Node1</title>
<g id="a_Node000001"><a xlink:title="Polyline.">
<polygon fill="#999999" stroke="#666666" points="91,-93.25 0,-93.25 0,-74 91,-74 91,-93.25"/>
<text text-anchor="middle" x="45.5" y="-79.75" font-family="Helvetica,sans-Serif" font-size="10.00">Polyline::Polyline</text>
</a>
</g>
</g>
<!-- Node2 -->
<g id="Node000002" class="node">
<title>Node2</title>
<g id="a_Node000002"><a xlink:href="../../d7/da7/class_shape.html#ad3725fd4cfb43613897c2d3f3e647842" target="_top" xlink:title="CreateParentItem &#45; Adds data cooresponding to all shapes to parentItem for a QTreeWidget.">
<polygon fill="white" stroke="#666666" points="255.12,-167.25 128.12,-167.25 128.12,-148 255.12,-148 255.12,-167.25"/>
<text text-anchor="middle" x="191.62" y="-153.75" font-family="Helvetica,sans-Serif" font-size="10.00">Shape::CreateParentItem</text>
</a>
</g>
</g>
<!-- Node1&#45;&gt;Node2 -->
<g id="edge1_Node000001_Node000002" class="edge">
<title>Node1&#45;&gt;Node2</title>
<g id="a_edge1_Node000001_Node000002"><a xlink:title=" ">
<path fill="none" stroke="#63b8ff" d="M58.26,-93.71C73.29,-106.13 100.53,-127.11 127,-139.62 130.12,-141.1 133.38,-142.47 136.71,-143.76"/>
<polygon fill="#63b8ff" stroke="#63b8ff" points="135.45,-147.02 146.04,-147.02 137.76,-140.42 135.45,-147.02"/>
</a>
</g>
</g>
<!-- Node7 -->
<g id="Node000007" class="node">
<title>Node7</title>
<g id="a_Node000007"><a xlink:href="../../d7/da7/class_shape.html#a54f827e6bce6b42cdb4b70c443d2c005" target="_top" xlink:title="CreatePenChild &#45; Adds pen data to penItems vector for a QTreeWidget.">
<polygon fill="white" stroke="#666666" points="251,-93.25 132.25,-93.25 132.25,-74 251,-74 251,-93.25"/>
<text text-anchor="middle" x="191.62" y="-79.75" font-family="Helvetica,sans-Serif" font-size="10.00">Shape::CreatePenChild</text>
</a>
</g>
</g>
<!-- Node1&#45;&gt;Node7 -->
<g id="edge6_Node000001_Node000007" class="edge">
<title>Node1&#45;&gt;Node7</title>
<g id="a_edge6_Node000001_Node000007"><a xlink:title=" ">
<path fill="none" stroke="#63b8ff" d="M91.31,-83.62C100.52,-83.62 110.42,-83.62 120.28,-83.62"/>
<polygon fill="#63b8ff" stroke="#63b8ff" points="120.27,-87.13 130.27,-83.63 120.27,-80.13 120.27,-87.13"/>
</a>
</g>
</g>
<!-- Node8 -->
<g id="Node000008" class="node">
<title>Node8</title>
<g id="a_Node000008"><a xlink:href="../../d7/da7/class_shape.html#aa7c347f6f5b1add61d6cad5a01f1c7a4" target="_top" xlink:title="CreatePointsChild &#45; Adds points data to pointsItems vector for a QTreeWidget.">
<polygon fill="white" stroke="#666666" points="256.25,-130.25 127,-130.25 127,-111 256.25,-111 256.25,-130.25"/>
<text text-anchor="middle" x="191.62" y="-116.75" font-family="Helvetica,sans-Serif" font-size="10.00">Shape::CreatePointsChild</text>
</a>
</g>
</g>
<!-- Node1&#45;&gt;Node8 -->
<g id="edge7_Node000001_Node000008" class="edge">
<title>Node1&#45;&gt;Node8</title>
<g id="a_edge7_Node000001_Node000008"><a xlink:title=" ">
<path fill="none" stroke="#63b8ff" d="M85.88,-93.74C102.64,-98.04 122.4,-103.11 140.21,-107.68"/>
<polygon fill="#63b8ff" stroke="#63b8ff" points="139.27,-111.05 149.82,-110.15 141.01,-104.27 139.27,-111.05"/>
</a>
</g>
</g>
<!-- Node9 -->
<g id="Node000009" class="node">
<title>Node9</title>
<g id="a_Node000009"><a xlink:href="../../d1/d42/class_polyline.html#acb3340122423e1c80e3aa7c7a30fda84" target="_top" xlink:title="getPointsList &#45; Returns the pointsList by value">
<polygon fill="white" stroke="#666666" points="248.38,-56.25 134.88,-56.25 134.88,-37 248.38,-37 248.38,-56.25"/>
<text text-anchor="middle" x="191.62" y="-42.75" font-family="Helvetica,sans-Serif" font-size="10.00">Polyline::getPointsList</text>
</a>
</g>
</g>
<!-- Node1&#45;&gt;Node9 -->
<g id="edge10_Node000001_Node000009" class="edge">
<title>Node1&#45;&gt;Node9</title>
<g id="a_edge10_Node000001_Node000009"><a xlink:title=" ">
<path fill="none" stroke="#63b8ff" d="M85.88,-73.51C102.64,-69.21 122.4,-64.14 140.21,-59.57"/>
<polygon fill="#63b8ff" stroke="#63b8ff" points="141.01,-62.98 149.82,-57.1 139.27,-56.2 141.01,-62.98"/>
</a>
</g>
</g>
<!-- Node10 -->
<g id="Node000010" class="node">
<title>Node10</title>
<g id="a_Node000010"><a xlink:href="../../d7/da7/class_shape.html#a3fffc5f799f419e3e608e03ab1f3e913" target="_top" xlink:title="Shape Constructor.">
<polygon fill="white" stroke="#666666" points="230.38,-19.25 152.88,-19.25 152.88,0 230.38,0 230.38,-19.25"/>
<text text-anchor="middle" x="191.62" y="-5.75" font-family="Helvetica,sans-Serif" font-size="10.00">Shape::Shape</text>
</a>
</g>
</g>
<!-- Node1&#45;&gt;Node10 -->
<g id="edge11_Node000001_Node000010" class="edge">
<title>Node1&#45;&gt;Node10</title>
<g id="a_edge11_Node000001_Node000010"><a xlink:title=" ">
<path fill="none" stroke="#63b8ff" d="M58.26,-73.54C73.29,-61.12 100.53,-40.14 127,-27.62 131.74,-25.38 136.82,-23.36 141.97,-21.57"/>
<polygon fill="#63b8ff" stroke="#63b8ff" points="142.63,-25.03 151.08,-18.64 140.49,-18.36 142.63,-25.03"/>
</a>
</g>
</g>
<!-- Node3 -->
<g id="Node000003" class="node">
<title>Node3</title>
<g id="a_Node000003"><a xlink:href="../../d7/da7/class_shape.html#a4b502262ae5a22122456b9624d5ccb3d" target="_top" xlink:title="Accessor Functions &#45; Returns the data named after them.">
<polygon fill="white" stroke="#666666" points="404.25,-185.25 305,-185.25 305,-166 404.25,-166 404.25,-185.25"/>
<text text-anchor="middle" x="354.62" y="-171.75" font-family="Helvetica,sans-Serif" font-size="10.00">Shape::getShapeId</text>
</a>
</g>
</g>
<!-- Node2&#45;&gt;Node3 -->
<g id="edge2_Node000002_Node000003" class="edge">
<title>Node2&#45;&gt;Node3</title>
<g id="a_edge2_Node000002_Node000003"><a xlink:title=" ">
<path fill="none" stroke="#63b8ff" d="M255.33,-164.64C267.84,-166.03 280.95,-167.5 293.37,-168.89"/>
<polygon fill="#63b8ff" stroke="#63b8ff" points="292.71,-172.34 303.04,-169.97 293.49,-165.38 292.71,-172.34"/>
</a>
</g>
</g>
<!-- Node4 -->
<g id="Node000004" class="node">
<title>Node4</title>
<g id="a_Node000004"><a xlink:href="../../d7/da7/class_shape.html#aec4675c2b06d40373eefac4b982af242" target="_top" xlink:title=" ">
<polygon fill="white" stroke="#666666" points="406.88,-222.25 302.38,-222.25 302.38,-203 406.88,-203 406.88,-222.25"/>
<text text-anchor="middle" x="354.62" y="-208.75" font-family="Helvetica,sans-Serif" font-size="10.00">Shape::getTrackerId</text>
</a>
</g>
</g>
<!-- Node2&#45;&gt;Node4 -->
<g id="edge3_Node000002_Node000004" class="edge">
<title>Node2&#45;&gt;Node4</title>
<g id="a_edge3_Node000002_Node000004"><a xlink:title=" ">
<path fill="none" stroke="#63b8ff" d="M218.25,-167.71C238.27,-175.45 266.86,-186.2 292.25,-194.62 297,-196.2 301.98,-197.78 306.97,-199.32"/>
<polygon fill="#63b8ff" stroke="#63b8ff" points="305.76,-202.61 316.34,-202.14 307.78,-195.9 305.76,-202.61"/>
</a>
</g>
</g>
<!-- Node5 -->
<g id="Node000005" class="node">
<title>Node5</title>
<g id="a_Node000005"><a xlink:href="../../d7/da7/class_shape.html#af604de36aa616c585bb30dedf5e5c68b" target="_top" xlink:title=" ">
<polygon fill="white" stroke="#666666" points="389.62,-111.25 319.62,-111.25 319.62,-92 389.62,-92 389.62,-111.25"/>
<text text-anchor="middle" x="354.62" y="-97.75" font-family="Helvetica,sans-Serif" font-size="10.00">Shape::getX</text>
</a>
</g>
</g>
<!-- Node2&#45;&gt;Node5 -->
<g id="edge4_Node000002_Node000005" class="edge">
<title>Node2&#45;&gt;Node5</title>
<g id="a_edge4_Node000002_Node000005"><a xlink:title=" ">
<path fill="none" stroke="#63b8ff" d="M233.49,-147.58C241.16,-145.27 249.03,-142.6 256.25,-139.62 273.17,-132.64 275.36,-126.69 292.25,-119.62 297.49,-117.43 303.09,-115.4 308.7,-113.54"/>
<polygon fill="#63b8ff" stroke="#63b8ff" points="309.44,-116.98 317.95,-110.66 307.36,-110.29 309.44,-116.98"/>
</a>
</g>
</g>
<!-- Node6 -->
<g id="Node000006" class="node">
<title>Node6</title>
<g id="a_Node000006"><a xlink:href="../../d7/da7/class_shape.html#a2e87ea4122381ffb83474f4b69247ded" target="_top" xlink:title=" ">
<polygon fill="white" stroke="#666666" points="389.62,-148.25 319.62,-148.25 319.62,-129 389.62,-129 389.62,-148.25"/>
<text text-anchor="middle" x="354.62" y="-134.75" font-family="Helvetica,sans-Serif" font-size="10.00">Shape::getY</text>
</a>
</g>
</g>
<!-- Node2&#45;&gt;Node6 -->
<g id="edge5_Node000002_Node000006" class="edge">
<title>Node2&#45;&gt;Node6</title>
<g id="a_edge5_Node000002_Node000006"><a xlink:title=" ">
<path fill="none" stroke="#63b8ff" d="M255.33,-150.22C272.81,-148.16 291.47,-145.96 307.78,-144.04"/>
<polygon fill="#63b8ff" stroke="#63b8ff" points="308.16,-147.51 317.69,-142.87 307.34,-140.56 308.16,-147.51"/>
</a>
</g>
</g>
<!-- Node8&#45;&gt;Node5 -->
<g id="edge8_Node000008_Node000005" class="edge">
<title>Node8&#45;&gt;Node5</title>
<g id="a_edge8_Node000008_Node000005"><a xlink:title=" ">
<path fill="none" stroke="#63b8ff" d="M256.72,-113.06C273.94,-111.03 292.2,-108.87 308.17,-106.99"/>
<polygon fill="#63b8ff" stroke="#63b8ff" points="308.33,-110.49 317.85,-105.85 307.51,-103.54 308.33,-110.49"/>
</a>
</g>
</g>
<!-- Node8&#45;&gt;Node6 -->
<g id="edge9_Node000008_Node000006" class="edge">
<title>Node8&#45;&gt;Node6</title>
<g id="a_edge9_Node000008_Node000006"><a xlink:title=" ">
<path fill="none" stroke="#63b8ff" d="M256.72,-127.79C273.94,-129.72 292.2,-131.76 308.17,-133.54"/>
<polygon fill="#63b8ff" stroke="#63b8ff" points="307.52,-136.99 317.85,-134.63 308.3,-130.04 307.52,-136.99"/>
</a>
</g>
</g>
<!-- Node11 -->
<g id="Node000011" class="node">
<title>Node11</title>
<g id="a_Node000011"><a xlink:href="../../d7/da7/class_shape.html#a520308cc2273f60cb19bf5664570bcf8" target="_top" xlink:title=" ">
<polygon fill="white" stroke="#666666" points="417,-19.25 292.25,-19.25 292.25,0 417,0 417,-19.25"/>
<text text-anchor="middle" x="354.62" y="-5.75" font-family="Helvetica,sans-Serif" font-size="10.00">Shape::allocateTrackerId</text>
</a>
</g>
</g>
<!-- Node10&#45;&gt;Node11 -->
<g id="edge12_Node000010_Node000011" class="edge">
<title>Node10&#45;&gt;Node11</title>
<g id="a_edge12_Node000010_Node000011"><a xlink:title=" ">
<path fill="none" stroke="#63b8ff" d="M230.78,-9.62C245.73,-9.62 263.41,-9.62 280.62,-9.62"/>
<polygon fill="#63b8ff" stroke="#63b8ff" points="280.32,-13.13 290.32,-9.63 280.32,-6.13 280.32,-13.13"/>
</a>
</g>
</g>
</g>
</svg>
</svg>

<style type='text/css'>
<![CDATA[
[data-mouse-over-selected='false'] { opacity: 0.7; }
[data-mouse-over-selected='true']  { opacity: 1.0; }
]]>
</style>
<script type="application/ecmascript"><![CDATA[
document.addEventListener('DOMContentLoaded', (event) => {
  highlightEdges();
  highlightAdjacentNodes();
});
]]></script>
</svg>
