<?xml version="1.0" encoding="UTF-8" standalone="no"?>
<!DOCTYPE svg PUBLIC "-//W3C//DTD SVG 1.1//EN"
 "http://www.w3.org/Graphics/SVG/1.1/DTD/svg11.dtd">
<!-- Generated by graphviz version 12.2.1 (20241206.2353)
 -->
<!-- Title: /Users/gautam/Local/Forge/Team&#45;Alphawolves/2D&#45;Graphics&#45;Modeler/src/backend/UserAccount.h Pages: 1 -->
<!--zoomable 506 -->

<svg id="main" version="1.1" xmlns="http://www.w3.org/2000/svg" xmlns:xlink="http://www.w3.org/1999/xlink" xml:space="preserve" onload="init(evt)">

<style type="text/css"><![CDATA[
.node, .edge {opacity: 0.7;}
.node.selected, .edge.selected {opacity: 1;}
.edge:hover path { stroke: red; }
.edge:hover polygon { stroke: red; fill: red; }
]]></style>

<defs>
  <circle id="rim" cx="0" cy="0" r="7"/>
  <circle id="rim2" cx="0" cy="0" r="3.5"/>
  <g id="zoomPlus">
    <use xlink:href="#rim" fill="#404040"><set attributeName="fill" to="#808080" begin="zoomplus.mouseover" end="zoomplus.mouseout"/></use>
    <path d="M-4,0h8M0,-4v8" fill="none" stroke="white" stroke-width="1.5" pointer-events="none"/>
  </g>
  <g id="zoomMin">
    <use xlink:href="#rim" fill="#404040"><set attributeName="fill" to="#808080" begin="zoomminus.mouseover" end="zoomminus.mouseout"/></use>
    <path d="M-4,0h8" fill="none" stroke="white" stroke-width="1.5" pointer-events="none"/>
  </g>
  <g id="arrowUp" transform="translate(30 24)">
    <use xlink:href="#rim"/>
    <path pointer-events="none" fill="none" stroke="white" stroke-width="1.5" d="M0,-3.0v7 M-2.5,-0.5L0,-3.0L2.5,-0.5"/>
  </g>
  <g id="arrowRight" transform="rotate(90) translate(36 -43)">
    <use xlink:href="#rim"/>
    <path pointer-events="none" fill="none" stroke="white" stroke-width="1.5" d="M0,-3.0v7 M-2.5,-0.5L0,-3.0L2.5,-0.5"/>
  </g>
  <g id="arrowDown" transform="rotate(180) translate(-30 -48)">
    <use xlink:href="#rim"/>
    <path pointer-events="none" fill="none" stroke="white" stroke-width="1.5" d="M0,-3.0v7 M-2.5,-0.5L0,-3.0L2.5,-0.5"/>
  </g>
  <g id="arrowLeft" transform="rotate(270) translate(-36 17)">
    <use xlink:href="#rim"/>
    <path pointer-events="none" fill="none" stroke="white" stroke-width="1.5" d="M0,-3.0v7 M-2.5,-0.5L0,-3.0L2.5,-0.5"/>
  </g>
  <g id="resetDef">
    <use xlink:href="#rim2" fill="#404040"><set attributeName="fill" to="#808080" begin="reset.mouseover" end="reset.mouseout"/></use>
  </g>
</defs>
<script type="application/ecmascript">
var viewWidth = 1532;
var viewHeight = 506;
var sectionId = 'dynsection-1';
</script>
<script type="application/ecmascript" xlink:href="../../svg.min.js"/>
<svg id="graph" class="graph">
<g id="viewport">
<title>/Users/gautam/Local/Forge/Team&#45;Alphawolves/2D&#45;Graphics&#45;Modeler/src/backend/UserAccount.h</title>
<!-- Node1 -->
<g id="Node000001" class="node">
<title>Node1</title>
<g id="a_Node000001"><a xlink:title=" ">
<polygon fill="#999999" stroke="#666666" points="1045.25,-498 916,-498 916,-445 1045.25,-445 1045.25,-498"/>
<text text-anchor="start" x="924" y="-484.5" font-family="Helvetica,sans-Serif" font-size="10.00">/Users/gautam/Local</text>
<text text-anchor="start" x="924" y="-473.25" font-family="Helvetica,sans-Serif" font-size="10.00">/Forge/Team&#45;Alphawolves</text>
<text text-anchor="start" x="924" y="-462" font-family="Helvetica,sans-Serif" font-size="10.00">/2D&#45;Graphics&#45;Modeler/src</text>
<text text-anchor="middle" x="980.62" y="-450.75" font-family="Helvetica,sans-Serif" font-size="10.00">/backend/UserAccount.h</text>
</a>
</g>
</g>
<!-- Node2 -->
<g id="Node000002" class="node">
<title>Node2</title>
<g id="a_Node000002"><a xlink:href="../../de/d40/_parser_8h.html" target="_top" xlink:title=" ">
<polygon fill="white" stroke="#666666" points="999.25,-409 870,-409 870,-356 999.25,-356 999.25,-409"/>
<text text-anchor="start" x="878" y="-395.5" font-family="Helvetica,sans-Serif" font-size="10.00">/Users/gautam/Local</text>
<text text-anchor="start" x="878" y="-384.25" font-family="Helvetica,sans-Serif" font-size="10.00">/Forge/Team&#45;Alphawolves</text>
<text text-anchor="start" x="878" y="-373" font-family="Helvetica,sans-Serif" font-size="10.00">/2D&#45;Graphics&#45;Modeler/src</text>
<text text-anchor="middle" x="934.62" y="-361.75" font-family="Helvetica,sans-Serif" font-size="10.00">/backend/Parser.h</text>
</a>
</g>
</g>
<!-- Node1&#45;&gt;Node2 -->
<g id="edge1_Node000001_Node000002" class="edge">
<title>Node1&#45;&gt;Node2</title>
<g id="a_edge1_Node000001_Node000002"><a xlink:title=" ">
<path fill="none" stroke="#63b8ff" d="M961.72,-434.74C957.2,-426.2 952.47,-417.24 948.24,-409.25"/>
<polygon fill="#63b8ff" stroke="#63b8ff" points="958.6,-436.33 966.36,-443.53 964.78,-433.05 958.6,-436.33"/>
</a>
</g>
</g>
<!-- Node16 -->
<g id="Node000016" class="node">
<title>Node16</title>
<g id="a_Node000016"><a xlink:href="../../d9/d53/mainwindow_8h.html" target="_top" xlink:title=" ">
<polygon fill="white" stroke="#666666" points="129.25,-231 0,-231 0,-178 129.25,-178 129.25,-231"/>
<text text-anchor="start" x="8" y="-217.5" font-family="Helvetica,sans-Serif" font-size="10.00">/Users/gautam/Local</text>
<text text-anchor="start" x="8" y="-206.25" font-family="Helvetica,sans-Serif" font-size="10.00">/Forge/Team&#45;Alphawolves</text>
<text text-anchor="start" x="8" y="-195" font-family="Helvetica,sans-Serif" font-size="10.00">/2D&#45;Graphics&#45;Modeler/src</text>
<text text-anchor="middle" x="64.62" y="-183.75" font-family="Helvetica,sans-Serif" font-size="10.00">/frontend/mainwindow.h</text>
</a>
</g>
</g>
<!-- Node1&#45;&gt;Node16 -->
<g id="edge26_Node000001_Node000016" class="edge">
<title>Node1&#45;&gt;Node16</title>
<g id="a_edge26_Node000001_Node000016"><a xlink:title=" ">
<path fill="none" stroke="#63b8ff" d="M904.43,-460.13C775.85,-441.24 508.75,-396.01 293.62,-320 226.36,-296.23 153.43,-257.26 108.37,-231.49"/>
<polygon fill="#63b8ff" stroke="#63b8ff" points="903.8,-463.57 914.19,-461.55 904.8,-456.65 903.8,-463.57"/>
</a>
</g>
</g>
<!-- Node18 -->
<g id="Node000018" class="node">
<title>Node18</title>
<g id="a_Node000018"><a xlink:href="../../d1/dc5/_user_manager_8h.html" target="_top" xlink:title=" ">
<polygon fill="white" stroke="#666666" points="1265.25,-320 1136,-320 1136,-267 1265.25,-267 1265.25,-320"/>
<text text-anchor="start" x="1144" y="-306.5" font-family="Helvetica,sans-Serif" font-size="10.00">/Users/gautam/Local</text>
<text text-anchor="start" x="1144" y="-295.25" font-family="Helvetica,sans-Serif" font-size="10.00">/Forge/Team&#45;Alphawolves</text>
<text text-anchor="start" x="1144" y="-284" font-family="Helvetica,sans-Serif" font-size="10.00">/2D&#45;Graphics&#45;Modeler/src</text>
<text text-anchor="middle" x="1200.62" y="-272.75" font-family="Helvetica,sans-Serif" font-size="10.00">/backend/UserManager.h</text>
</a>
</g>
</g>
<!-- Node1&#45;&gt;Node18 -->
<g id="edge25_Node000001_Node000018" class="edge">
<title>Node1&#45;&gt;Node18</title>
<g id="a_edge25_Node000001_Node000018"><a xlink:title=" ">
<path fill="none" stroke="#63b8ff" d="M998.1,-434.47C1012.81,-405.34 1033.5,-367.37 1046.62,-356 1060.77,-343.75 1100.26,-328.08 1135.71,-315.62"/>
<polygon fill="#63b8ff" stroke="#63b8ff" points="994.99,-432.88 993.65,-443.39 1001.25,-436 994.99,-432.88"/>
</a>
</g>
</g>
<!-- Node21 -->
<g id="Node000021" class="node">
<title>Node21</title>
<g id="a_Node000021"><a xlink:href="../../d1/db5/_user_account_8cpp.html" target="_top" xlink:title=" ">
<polygon fill="white" stroke="#666666" points="1189.88,-409 1055.38,-409 1055.38,-356 1189.88,-356 1189.88,-409"/>
<text text-anchor="start" x="1063.38" y="-395.5" font-family="Helvetica,sans-Serif" font-size="10.00">/Users/gautam/Local</text>
<text text-anchor="start" x="1063.38" y="-384.25" font-family="Helvetica,sans-Serif" font-size="10.00">/Forge/Team&#45;Alphawolves</text>
<text text-anchor="start" x="1063.38" y="-373" font-family="Helvetica,sans-Serif" font-size="10.00">/2D&#45;Graphics&#45;Modeler/src</text>
<text text-anchor="middle" x="1122.62" y="-361.75" font-family="Helvetica,sans-Serif" font-size="10.00">/backend/UserAccount.cpp</text>
</a>
</g>
</g>
<!-- Node1&#45;&gt;Node21 -->
<g id="edge24_Node000001_Node000021" class="edge">
<title>Node1&#45;&gt;Node21</title>
<g id="a_edge24_Node000001_Node000021"><a xlink:title=" ">
<path fill="none" stroke="#63b8ff" d="M1032.44,-438.75C1048.18,-429.11 1065.28,-418.63 1080.32,-409.42"/>
<polygon fill="#63b8ff" stroke="#63b8ff" points="1030.83,-435.63 1024.14,-443.84 1034.49,-441.6 1030.83,-435.63"/>
</a>
</g>
</g>
<!-- Node3 -->
<g id="Node000003" class="node">
<title>Node3</title>
<g id="a_Node000003"><a xlink:href="../../de/df6/_parser_8cpp.html" target="_top" xlink:title=" ">
<polygon fill="white" stroke="#666666" points="1079.25,-320 950,-320 950,-267 1079.25,-267 1079.25,-320"/>
<text text-anchor="start" x="958" y="-306.5" font-family="Helvetica,sans-Serif" font-size="10.00">/Users/gautam/Local</text>
<text text-anchor="start" x="958" y="-295.25" font-family="Helvetica,sans-Serif" font-size="10.00">/Forge/Team&#45;Alphawolves</text>
<text text-anchor="start" x="958" y="-284" font-family="Helvetica,sans-Serif" font-size="10.00">/2D&#45;Graphics&#45;Modeler/src</text>
<text text-anchor="middle" x="1014.62" y="-272.75" font-family="Helvetica,sans-Serif" font-size="10.00">/backend/Parser.cpp</text>
</a>
</g>
</g>
<!-- Node2&#45;&gt;Node3 -->
<g id="edge2_Node000002_Node000003" class="edge">
<title>Node2&#45;&gt;Node3</title>
<g id="a_edge2_Node000002_Node000003"><a xlink:title=" ">
<path fill="none" stroke="#63b8ff" d="M965.96,-347.43C974.27,-338.38 983.11,-328.77 990.95,-320.25"/>
<polygon fill="#63b8ff" stroke="#63b8ff" points="963.41,-345.02 959.22,-354.75 968.56,-349.76 963.41,-345.02"/>
</a>
</g>
</g>
<!-- Node4 -->
<g id="Node000004" class="node">
<title>Node4</title>
<g id="a_Node000004"><a xlink:href="../../d6/d83/_render_area_manager_8h.html" target="_top" xlink:title=" ">
<polygon fill="white" stroke="#666666" points="932.38,-320 776.88,-320 776.88,-267 932.38,-267 932.38,-320"/>
<text text-anchor="start" x="784.88" y="-306.5" font-family="Helvetica,sans-Serif" font-size="10.00">/Users/gautam/Local</text>
<text text-anchor="start" x="784.88" y="-295.25" font-family="Helvetica,sans-Serif" font-size="10.00">/Forge/Team&#45;Alphawolves</text>
<text text-anchor="start" x="784.88" y="-284" font-family="Helvetica,sans-Serif" font-size="10.00">/2D&#45;Graphics&#45;Modeler/src</text>
<text text-anchor="middle" x="854.62" y="-272.75" font-family="Helvetica,sans-Serif" font-size="10.00">/backend/RenderAreaManager.h</text>
</a>
</g>
</g>
<!-- Node2&#45;&gt;Node4 -->
<g id="edge3_Node000002_Node000004" class="edge">
<title>Node2&#45;&gt;Node4</title>
<g id="a_edge3_Node000002_Node000004"><a xlink:title=" ">
<path fill="none" stroke="#63b8ff" d="M903.29,-347.43C894.98,-338.38 886.14,-328.77 878.3,-320.25"/>
<polygon fill="#63b8ff" stroke="#63b8ff" points="900.69,-349.76 910.03,-354.75 905.84,-345.02 900.69,-349.76"/>
</a>
</g>
</g>
<!-- Node7 -->
<g id="Node000007" class="node">
<title>Node7</title>
<g id="a_Node000007"><a xlink:href="../../d8/d80/src_2backend_2main_8cpp.html" target="_top" xlink:title=" ">
<polygon fill="white" stroke="#666666" points="1226.25,-53 1097,-53 1097,0 1226.25,0 1226.25,-53"/>
<text text-anchor="start" x="1105" y="-39.5" font-family="Helvetica,sans-Serif" font-size="10.00">/Users/gautam/Local</text>
<text text-anchor="start" x="1105" y="-28.25" font-family="Helvetica,sans-Serif" font-size="10.00">/Forge/Team&#45;Alphawolves</text>
<text text-anchor="start" x="1105" y="-17" font-family="Helvetica,sans-Serif" font-size="10.00">/2D&#45;Graphics&#45;Modeler/src</text>
<text text-anchor="middle" x="1161.62" y="-5.75" font-family="Helvetica,sans-Serif" font-size="10.00">/backend/main.cpp</text>
</a>
</g>
</g>
<!-- Node2&#45;&gt;Node7 -->
<g id="edge23_Node000002_Node000007" class="edge">
<title>Node2&#45;&gt;Node7</title>
<g id="a_edge23_Node000002_Node000007"><a xlink:title=" ">
<path fill="none" stroke="#63b8ff" d="M1010.35,-354.75C1046.3,-341.42 1082.74,-326.74 1088.62,-320 1156.95,-241.74 1163.21,-108.98 1162.57,-53.3"/>
<polygon fill="#63b8ff" stroke="#63b8ff" points="1009.34,-351.39 1001.16,-358.12 1011.76,-357.96 1009.34,-351.39"/>
</a>
</g>
</g>
<!-- Node10 -->
<g id="Node000010" class="node">
<title>Node10</title>
<g id="a_Node000010"><a xlink:href="../../db/dd2/_shapes_manager_8h.html" target="_top" xlink:title=" ">
<polygon fill="white" stroke="#666666" points="439,-320 302.25,-320 302.25,-267 439,-267 439,-320"/>
<text text-anchor="start" x="310.25" y="-306.5" font-family="Helvetica,sans-Serif" font-size="10.00">/Users/gautam/Local</text>
<text text-anchor="start" x="310.25" y="-295.25" font-family="Helvetica,sans-Serif" font-size="10.00">/Forge/Team&#45;Alphawolves</text>
<text text-anchor="start" x="310.25" y="-284" font-family="Helvetica,sans-Serif" font-size="10.00">/2D&#45;Graphics&#45;Modeler/src</text>
<text text-anchor="middle" x="370.62" y="-272.75" font-family="Helvetica,sans-Serif" font-size="10.00">/backend/ShapesManager.h</text>
</a>
</g>
</g>
<!-- Node2&#45;&gt;Node10 -->
<g id="edge9_Node000002_Node000010" class="edge">
<title>Node2&#45;&gt;Node10</title>
<g id="a_edge9_Node000002_Node000010"><a xlink:title=" ">
<path fill="none" stroke="#63b8ff" d="M858.35,-370.84C774.67,-359.01 636.44,-339.06 517.62,-320 492.05,-315.9 464.03,-311.11 439.37,-306.8"/>
<polygon fill="#63b8ff" stroke="#63b8ff" points="857.65,-374.28 868.04,-372.21 858.63,-367.35 857.65,-374.28"/>
</a>
</g>
</g>
<!-- Node12 -->
<g id="Node000012" class="node">
<title>Node12</title>
<g id="a_Node000012"><a xlink:href="../../d4/d0a/_testimonial_manager_8h.html" target="_top" xlink:title=" ">
<polygon fill="white" stroke="#666666" points="680.25,-320 527,-320 527,-267 680.25,-267 680.25,-320"/>
<text text-anchor="start" x="535" y="-306.5" font-family="Helvetica,sans-Serif" font-size="10.00">/Users/gautam/Local</text>
<text text-anchor="start" x="535" y="-295.25" font-family="Helvetica,sans-Serif" font-size="10.00">/Forge/Team&#45;Alphawolves</text>
<text text-anchor="start" x="535" y="-284" font-family="Helvetica,sans-Serif" font-size="10.00">/2D&#45;Graphics&#45;Modeler/src</text>
<text text-anchor="middle" x="603.62" y="-272.75" font-family="Helvetica,sans-Serif" font-size="10.00">/backend/TestimonialManager.h</text>
</a>
</g>
</g>
<!-- Node2&#45;&gt;Node12 -->
<g id="edge11_Node000002_Node000012" class="edge">
<title>Node2&#45;&gt;Node12</title>
<g id="a_edge11_Node000002_Node000012"><a xlink:title=" ">
<path fill="none" stroke="#63b8ff" d="M858.53,-361.5C805.21,-347.49 734.21,-328.82 680.68,-314.75"/>
<polygon fill="#63b8ff" stroke="#63b8ff" points="857.6,-364.87 868.16,-364.03 859.38,-358.1 857.6,-364.87"/>
</a>
</g>
</g>
<!-- Node2&#45;&gt;Node18 -->
<g id="edge18_Node000002_Node000018" class="edge">
<title>Node2&#45;&gt;Node18</title>
<g id="a_edge18_Node000002_Node000018"><a xlink:title=" ">
<path fill="none" stroke="#63b8ff" d="M1010.61,-356.65C1050.15,-343.71 1097.98,-328.07 1135.77,-315.71"/>
<polygon fill="#63b8ff" stroke="#63b8ff" points="1009.55,-353.31 1001.13,-359.75 1011.73,-359.96 1009.55,-353.31"/>
</a>
</g>
</g>
<!-- Node5 -->
<g id="Node000005" class="node">
<title>Node5</title>
<g id="a_Node000005"><a xlink:href="../../dc/dbb/_app_driver_8h.html" target="_top" xlink:title=" ">
<polygon fill="white" stroke="#666666" points="1079.25,-142 950,-142 950,-89 1079.25,-89 1079.25,-142"/>
<text text-anchor="start" x="958" y="-128.5" font-family="Helvetica,sans-Serif" font-size="10.00">/Users/gautam/Local</text>
<text text-anchor="start" x="958" y="-117.25" font-family="Helvetica,sans-Serif" font-size="10.00">/Forge/Team&#45;Alphawolves</text>
<text text-anchor="start" x="958" y="-106" font-family="Helvetica,sans-Serif" font-size="10.00">/2D&#45;Graphics&#45;Modeler/src</text>
<text text-anchor="middle" x="1014.62" y="-94.75" font-family="Helvetica,sans-Serif" font-size="10.00">/backend/AppDriver.h</text>
</a>
</g>
</g>
<!-- Node4&#45;&gt;Node5 -->
<g id="edge4_Node000004_Node000005" class="edge">
<title>Node4&#45;&gt;Node5</title>
<g id="a_edge4_Node000004_Node000005"><a xlink:title=" ">
<path fill="none" stroke="#63b8ff" d="M943.51,-265.86C994.51,-250.37 1048.85,-233.42 1050.62,-231 1070.11,-204.46 1051.83,-167.07 1034.98,-142.32"/>
<polygon fill="#63b8ff" stroke="#63b8ff" points="942.7,-262.45 934.14,-268.7 944.73,-269.15 942.7,-262.45"/>
</a>
</g>
</g>
<!-- Node9 -->
<g id="Node000009" class="node">
<title>Node9</title>
<g id="a_Node000009"><a xlink:href="../../d1/d86/_render_area_manager_8cpp.html" target="_top" xlink:title=" ">
<polygon fill="white" stroke="#666666" points="1041.62,-231 875.62,-231 875.62,-178 1041.62,-178 1041.62,-231"/>
<text text-anchor="start" x="883.62" y="-217.5" font-family="Helvetica,sans-Serif" font-size="10.00">/Users/gautam/Local</text>
<text text-anchor="start" x="883.62" y="-206.25" font-family="Helvetica,sans-Serif" font-size="10.00">/Forge/Team&#45;Alphawolves</text>
<text text-anchor="start" x="883.62" y="-195" font-family="Helvetica,sans-Serif" font-size="10.00">/2D&#45;Graphics&#45;Modeler/src</text>
<text text-anchor="middle" x="958.62" y="-183.75" font-family="Helvetica,sans-Serif" font-size="10.00">/backend/RenderAreaManager.cpp</text>
</a>
</g>
</g>
<!-- Node4&#45;&gt;Node9 -->
<g id="edge8_Node000004_Node000009" class="edge">
<title>Node4&#45;&gt;Node9</title>
<g id="a_edge8_Node000004_Node000009"><a xlink:title=" ">
<path fill="none" stroke="#63b8ff" d="M894.21,-259.38C905.28,-250.12 917.15,-240.2 927.64,-231.42"/>
<polygon fill="#63b8ff" stroke="#63b8ff" points="892.13,-256.56 886.71,-265.66 896.62,-261.93 892.13,-256.56"/>
</a>
</g>
</g>
<!-- Node6 -->
<g id="Node000006" class="node">
<title>Node6</title>
<g id="a_Node000006"><a xlink:href="../../dc/df3/_app_driver_8cpp.html" target="_top" xlink:title=" ">
<polygon fill="white" stroke="#666666" points="1079.25,-53 950,-53 950,0 1079.25,0 1079.25,-53"/>
<text text-anchor="start" x="958" y="-39.5" font-family="Helvetica,sans-Serif" font-size="10.00">/Users/gautam/Local</text>
<text text-anchor="start" x="958" y="-28.25" font-family="Helvetica,sans-Serif" font-size="10.00">/Forge/Team&#45;Alphawolves</text>
<text text-anchor="start" x="958" y="-17" font-family="Helvetica,sans-Serif" font-size="10.00">/2D&#45;Graphics&#45;Modeler/src</text>
<text text-anchor="middle" x="1014.62" y="-5.75" font-family="Helvetica,sans-Serif" font-size="10.00">/backend/AppDriver.cpp</text>
</a>
</g>
</g>
<!-- Node5&#45;&gt;Node6 -->
<g id="edge5_Node000005_Node000006" class="edge">
<title>Node5&#45;&gt;Node6</title>
<g id="a_edge5_Node000005_Node000006"><a xlink:title=" ">
<path fill="none" stroke="#63b8ff" d="M1014.62,-77.61C1014.62,-69.41 1014.62,-60.89 1014.62,-53.25"/>
<polygon fill="#63b8ff" stroke="#63b8ff" points="1011.13,-77.35 1014.63,-87.35 1018.13,-77.35 1011.13,-77.35"/>
</a>
</g>
</g>
<!-- Node5&#45;&gt;Node7 -->
<g id="edge6_Node000005_Node000007" class="edge">
<title>Node5&#45;&gt;Node7</title>
<g id="a_edge6_Node000005_Node000007"><a xlink:title=" ">
<path fill="none" stroke="#63b8ff" d="M1067.8,-83.03C1084.23,-73.31 1102.12,-62.72 1117.83,-53.42"/>
<polygon fill="#63b8ff" stroke="#63b8ff" points="1066.46,-79.76 1059.63,-87.86 1070.02,-85.78 1066.46,-79.76"/>
</a>
</g>
</g>
<!-- Node8 -->
<g id="Node000008" class="node">
<title>Node8</title>
<g id="a_Node000008"><a xlink:href="../../d2/d21/src_2frontend_2main_8cpp.html" target="_top" xlink:title="Main entry point for the 2D Graphics Modeler application.">
<polygon fill="white" stroke="#666666" points="932.25,-53 803,-53 803,0 932.25,0 932.25,-53"/>
<text text-anchor="start" x="811" y="-39.5" font-family="Helvetica,sans-Serif" font-size="10.00">/Users/gautam/Local</text>
<text text-anchor="start" x="811" y="-28.25" font-family="Helvetica,sans-Serif" font-size="10.00">/Forge/Team&#45;Alphawolves</text>
<text text-anchor="start" x="811" y="-17" font-family="Helvetica,sans-Serif" font-size="10.00">/2D&#45;Graphics&#45;Modeler/src</text>
<text text-anchor="middle" x="867.62" y="-5.75" font-family="Helvetica,sans-Serif" font-size="10.00">/frontend/main.cpp</text>
</a>
</g>
</g>
<!-- Node5&#45;&gt;Node8 -->
<g id="edge7_Node000005_Node000008" class="edge">
<title>Node5&#45;&gt;Node8</title>
<g id="a_edge7_Node000005_Node000008"><a xlink:title=" ">
<path fill="none" stroke="#63b8ff" d="M961.45,-83.03C945.02,-73.31 927.13,-62.72 911.42,-53.42"/>
<polygon fill="#63b8ff" stroke="#63b8ff" points="959.23,-85.78 969.62,-87.86 962.79,-79.76 959.23,-85.78"/>
</a>
</g>
</g>
<!-- Node11 -->
<g id="Node000011" class="node">
<title>Node11</title>
<g id="a_Node000011"><a xlink:href="../../d0/d45/_shapes_manager_8cpp.html" target="_top" xlink:title=" ">
<polygon fill="white" stroke="#666666" points="294.25,-231 147,-231 147,-178 294.25,-178 294.25,-231"/>
<text text-anchor="start" x="155" y="-217.5" font-family="Helvetica,sans-Serif" font-size="10.00">/Users/gautam/Local</text>
<text text-anchor="start" x="155" y="-206.25" font-family="Helvetica,sans-Serif" font-size="10.00">/Forge/Team&#45;Alphawolves</text>
<text text-anchor="start" x="155" y="-195" font-family="Helvetica,sans-Serif" font-size="10.00">/2D&#45;Graphics&#45;Modeler/src</text>
<text text-anchor="middle" x="220.62" y="-183.75" font-family="Helvetica,sans-Serif" font-size="10.00">/backend/ShapesManager.cpp</text>
</a>
</g>
</g>
<!-- Node10&#45;&gt;Node11 -->
<g id="edge10_Node000010_Node000011" class="edge">
<title>Node10&#45;&gt;Node11</title>
<g id="a_edge10_Node000010_Node000011"><a xlink:title=" ">
<path fill="none" stroke="#63b8ff" d="M316.36,-261.03C299.6,-251.31 281.35,-240.72 265.31,-231.42"/>
<polygon fill="#63b8ff" stroke="#63b8ff" points="314.31,-263.88 324.72,-265.87 317.82,-257.83 314.31,-263.88"/>
</a>
</g>
</g>
<!-- Node13 -->
<g id="Node000013" class="node">
<title>Node13</title>
<g id="a_Node000013"><a xlink:href="../../d7/d96/_testimonial_manager_8cpp.html" target="_top" xlink:title=" ">
<polygon fill="white" stroke="#666666" points="685.5,-231 521.75,-231 521.75,-178 685.5,-178 685.5,-231"/>
<text text-anchor="start" x="529.75" y="-217.5" font-family="Helvetica,sans-Serif" font-size="10.00">/Users/gautam/Local</text>
<text text-anchor="start" x="529.75" y="-206.25" font-family="Helvetica,sans-Serif" font-size="10.00">/Forge/Team&#45;Alphawolves</text>
<text text-anchor="start" x="529.75" y="-195" font-family="Helvetica,sans-Serif" font-size="10.00">/2D&#45;Graphics&#45;Modeler/src</text>
<text text-anchor="middle" x="603.62" y="-183.75" font-family="Helvetica,sans-Serif" font-size="10.00">/backend/TestimonialManager.cpp</text>
</a>
</g>
</g>
<!-- Node12&#45;&gt;Node13 -->
<g id="edge12_Node000012_Node000013" class="edge">
<title>Node12&#45;&gt;Node13</title>
<g id="a_edge12_Node000012_Node000013"><a xlink:title=" ">
<path fill="none" stroke="#63b8ff" d="M603.62,-255.61C603.62,-247.41 603.62,-238.89 603.62,-231.25"/>
<polygon fill="#63b8ff" stroke="#63b8ff" points="600.13,-255.35 603.63,-265.35 607.13,-255.35 600.13,-255.35"/>
</a>
</g>
</g>
<!-- Node14 -->
<g id="Node000014" class="node">
<title>Node14</title>
<g id="a_Node000014"><a xlink:href="../../da/d08/_testimonial_dialog_8cpp.html" target="_top" xlink:title=" ">
<polygon fill="white" stroke="#666666" points="857.25,-231 704,-231 704,-178 857.25,-178 857.25,-231"/>
<text text-anchor="start" x="712" y="-217.5" font-family="Helvetica,sans-Serif" font-size="10.00">/Users/gautam/Local</text>
<text text-anchor="start" x="712" y="-206.25" font-family="Helvetica,sans-Serif" font-size="10.00">/Forge/Team&#45;Alphawolves</text>
<text text-anchor="start" x="712" y="-195" font-family="Helvetica,sans-Serif" font-size="10.00">/2D&#45;Graphics&#45;Modeler/src</text>
<text text-anchor="middle" x="780.62" y="-183.75" font-family="Helvetica,sans-Serif" font-size="10.00">/frontend/TestimonialDialog.cpp</text>
</a>
</g>
</g>
<!-- Node12&#45;&gt;Node14 -->
<g id="edge13_Node000012_Node000014" class="edge">
<title>Node12&#45;&gt;Node14</title>
<g id="a_edge13_Node000012_Node000014"><a xlink:title=" ">
<path fill="none" stroke="#63b8ff" d="M666.55,-261.57C686.63,-251.7 708.62,-240.89 727.9,-231.42"/>
<polygon fill="#63b8ff" stroke="#63b8ff" points="665.04,-258.41 657.61,-265.97 668.13,-264.69 665.04,-258.41"/>
</a>
</g>
</g>
<!-- Node15 -->
<g id="Node000015" class="node">
<title>Node15</title>
<g id="a_Node000015"><a xlink:href="../../d6/db1/_testimonials_display_dialog_8cpp.html" target="_top" xlink:title=" ">
<polygon fill="white" stroke="#666666" points="503.38,-231 311.88,-231 311.88,-178 503.38,-178 503.38,-231"/>
<text text-anchor="start" x="319.88" y="-217.5" font-family="Helvetica,sans-Serif" font-size="10.00">/Users/gautam/Local</text>
<text text-anchor="start" x="319.88" y="-206.25" font-family="Helvetica,sans-Serif" font-size="10.00">/Forge/Team&#45;Alphawolves</text>
<text text-anchor="start" x="319.88" y="-195" font-family="Helvetica,sans-Serif" font-size="10.00">/2D&#45;Graphics&#45;Modeler/src</text>
<text text-anchor="middle" x="407.62" y="-183.75" font-family="Helvetica,sans-Serif" font-size="10.00">/frontend/TestimonialsDisplayDialog.cpp</text>
</a>
</g>
</g>
<!-- Node12&#45;&gt;Node15 -->
<g id="edge14_Node000012_Node000015" class="edge">
<title>Node12&#45;&gt;Node15</title>
<g id="a_edge14_Node000012_Node000015"><a xlink:title=" ">
<path fill="none" stroke="#63b8ff" d="M534.6,-261.86C512.14,-251.89 487.45,-240.93 465.86,-231.35"/>
<polygon fill="#63b8ff" stroke="#63b8ff" points="533.14,-265.04 543.7,-265.9 535.98,-258.64 533.14,-265.04"/>
</a>
</g>
</g>
<!-- Node12&#45;&gt;Node16 -->
<g id="edge15_Node000012_Node000016" class="edge">
<title>Node12&#45;&gt;Node16</title>
<g id="a_edge15_Node000012_Node000016"><a xlink:title=" ">
<path fill="none" stroke="#63b8ff" d="M515.68,-277.39C493.5,-273.78 469.71,-270.09 447.62,-267 310.26,-247.81 272.81,-262.06 137.62,-231 135.01,-230.4 132.35,-229.74 129.69,-229.02"/>
<polygon fill="#63b8ff" stroke="#63b8ff" points="514.84,-280.8 525.27,-278.96 515.97,-273.89 514.84,-280.8"/>
</a>
</g>
</g>
<!-- Node16&#45;&gt;Node5 -->
<g id="edge16_Node000016_Node000005" class="edge">
<title>Node16&#45;&gt;Node5</title>
<g id="a_edge16_Node000016_Node000005"><a xlink:title=" ">
<path fill="none" stroke="#63b8ff" d="M140.88,-177.61C314.01,-145.11 778.16,-125.28 949.77,-118.81"/>
<polygon fill="#63b8ff" stroke="#63b8ff" points="140.27,-174.16 131.14,-179.53 141.63,-181.03 140.27,-174.16"/>
</a>
</g>
</g>
<!-- Node17 -->
<g id="Node000017" class="node">
<title>Node17</title>
<g id="a_Node000017"><a xlink:href="../../d8/dd9/mainwindow_8cpp.html" target="_top" xlink:title=" ">
<polygon fill="white" stroke="#666666" points="129.25,-142 0,-142 0,-89 129.25,-89 129.25,-142"/>
<text text-anchor="start" x="8" y="-128.5" font-family="Helvetica,sans-Serif" font-size="10.00">/Users/gautam/Local</text>
<text text-anchor="start" x="8" y="-117.25" font-family="Helvetica,sans-Serif" font-size="10.00">/Forge/Team&#45;Alphawolves</text>
<text text-anchor="start" x="8" y="-106" font-family="Helvetica,sans-Serif" font-size="10.00">/2D&#45;Graphics&#45;Modeler/src</text>
<text text-anchor="middle" x="64.62" y="-94.75" font-family="Helvetica,sans-Serif" font-size="10.00">/frontend/mainwindow.cpp</text>
</a>
</g>
</g>
<!-- Node16&#45;&gt;Node17 -->
<g id="edge17_Node000016_Node000017" class="edge">
<title>Node16&#45;&gt;Node17</title>
<g id="a_edge17_Node000016_Node000017"><a xlink:title=" ">
<path fill="none" stroke="#63b8ff" d="M64.62,-166.61C64.62,-158.41 64.62,-149.89 64.62,-142.25"/>
<polygon fill="#63b8ff" stroke="#63b8ff" points="61.13,-166.35 64.63,-176.35 68.13,-166.35 61.13,-166.35"/>
</a>
</g>
</g>
<!-- Node18&#45;&gt;Node5 -->
<g id="edge19_Node000018_Node000005" class="edge">
<title>Node18&#45;&gt;Node5</title>
<g id="a_edge19_Node000018_Node000005"><a xlink:title=" ">
<path fill="none" stroke="#63b8ff" d="M1164.93,-258.72C1129.02,-224.75 1074.44,-173.1 1041.88,-142.29"/>
<polygon fill="#63b8ff" stroke="#63b8ff" points="1162.41,-261.16 1172.08,-265.49 1167.22,-256.07 1162.41,-261.16"/>
</a>
</g>
</g>
<!-- Node18&#45;&gt;Node7 -->
<g id="edge21_Node000018_Node000007" class="edge">
<title>Node18&#45;&gt;Node7</title>
<g id="a_edge21_Node000018_Node000007"><a xlink:title=" ">
<path fill="none" stroke="#63b8ff" d="M1195.17,-255.4C1187.15,-200.96 1172.41,-100.77 1165.45,-53.5"/>
<polygon fill="#63b8ff" stroke="#63b8ff" points="1191.68,-255.73 1196.59,-265.11 1198.6,-254.71 1191.68,-255.73"/>
</a>
</g>
</g>
<!-- Node19 -->
<g id="Node000019" class="node">
<title>Node19</title>
<g id="a_Node000019"><a xlink:href="../../d4/d3b/_user_manager_8cpp.html" target="_top" xlink:title=" ">
<polygon fill="white" stroke="#666666" points="1347.25,-231 1212,-231 1212,-178 1347.25,-178 1347.25,-231"/>
<text text-anchor="start" x="1220" y="-217.5" font-family="Helvetica,sans-Serif" font-size="10.00">/Users/gautam/Local</text>
<text text-anchor="start" x="1220" y="-206.25" font-family="Helvetica,sans-Serif" font-size="10.00">/Forge/Team&#45;Alphawolves</text>
<text text-anchor="start" x="1220" y="-195" font-family="Helvetica,sans-Serif" font-size="10.00">/2D&#45;Graphics&#45;Modeler/src</text>
<text text-anchor="middle" x="1279.62" y="-183.75" font-family="Helvetica,sans-Serif" font-size="10.00">/backend/UserManager.cpp</text>
</a>
</g>
</g>
<!-- Node18&#45;&gt;Node19 -->
<g id="edge20_Node000018_Node000019" class="edge">
<title>Node18&#45;&gt;Node19</title>
<g id="a_edge20_Node000018_Node000019"><a xlink:title=" ">
<path fill="none" stroke="#63b8ff" d="M1231.57,-258.43C1239.78,-249.38 1248.51,-239.77 1256.24,-231.25"/>
<polygon fill="#63b8ff" stroke="#63b8ff" points="1229.05,-255.99 1224.92,-265.75 1234.23,-260.7 1229.05,-255.99"/>
</a>
</g>
</g>
<!-- Node20 -->
<g id="Node000020" class="node">
<title>Node20</title>
<g id="a_Node000020"><a xlink:href="../../de/d9f/moc___user_manager_8cpp.html" target="_top" xlink:title=" ">
<polygon fill="white" stroke="#666666" points="1524.25,-231 1365,-231 1365,-178 1524.25,-178 1524.25,-231"/>
<text text-anchor="start" x="1373" y="-217.5" font-family="Helvetica,sans-Serif" font-size="10.00">/Users/gautam/Local</text>
<text text-anchor="start" x="1373" y="-206.25" font-family="Helvetica,sans-Serif" font-size="10.00">/Forge/Team&#45;Alphawolves</text>
<text text-anchor="start" x="1373" y="-195" font-family="Helvetica,sans-Serif" font-size="10.00">/2D&#45;Graphics&#45;Modeler/src</text>
<text text-anchor="middle" x="1444.62" y="-183.75" font-family="Helvetica,sans-Serif" font-size="10.00">/backend/moc_UserManager.cpp</text>
</a>
</g>
</g>
<!-- Node18&#45;&gt;Node20 -->
<g id="edge22_Node000018_Node000020" class="edge">
<title>Node18&#45;&gt;Node20</title>
<g id="a_edge22_Node000018_Node000020"><a xlink:title=" ">
<path fill="none" stroke="#63b8ff" d="M1276.28,-265.53C1306.77,-254.65 1341.81,-242.16 1372,-231.39"/>
<polygon fill="#63b8ff" stroke="#63b8ff" points="1275.36,-262.14 1267.12,-268.79 1277.71,-268.73 1275.36,-262.14"/>
</a>
</g>
</g>
</g>
</svg>

<g id="navigator" transform="translate(0 0)" fill="#404254">
  <rect fill="#f2f5e9" fill-opacity="0.5" stroke="#606060" stroke-width=".5" x="0" y="0" width="60" height="60"/>
  <use id="zoomplus" xlink:href="#zoomPlus" x="17" y="9" onmousedown="handleZoom(evt,'in')"/>
  <use id="zoomminus" xlink:href="#zoomMin" x="42" y="9" onmousedown="handleZoom(evt,'out')"/>
  <use id="reset" xlink:href="#resetDef" x="30" y="36" onmousedown="handleReset()"/>
   <use id="arrowup" xlink:href="#arrowUp" x="0" y="0" onmousedown="handlePan(0,-1)"/>
  <use id="arrowright" xlink:href="#arrowRight" x="0" y="0" onmousedown="handlePan(1,0)"/>
  <use id="arrowdown" xlink:href="#arrowDown" x="0" y="0" onmousedown="handlePan(0,1)"/>
  <use id="arrowleft" xlink:href="#arrowLeft" x="0" y="0" onmousedown="handlePan(-1,0)"/>
</g>
<svg viewBox="0 0 15 15" width="100%" height="30px" preserveAspectRatio="xMaxYMin meet">
 <g id="arrow_out" transform="scale(0.3 0.3)">
  <a xlink:href="_user_account_8h__dep__incl_org.svg" target="_base">
   <rect id="button" ry="5" rx="5" y="6" x="6" height="38" width="38"
        fill="#f2f5e9" fill-opacity="0.5" stroke="#606060" stroke-width="1.0"/>
   <path id="arrow"
     d="M 11.500037,31.436501 C 11.940474,20.09759 22.043105,11.32322 32.158766,21.979434 L 37.068811,17.246167 C 37.068811,17.246167 37.088388,32 37.088388,32 L 22.160133,31.978069 C 22.160133,31.978069 26.997745,27.140456 26.997745,27.140456 C 18.528582,18.264221 13.291696,25.230495 11.500037,31.436501 z"
     style="fill:#404040;"/>
  </a>
 </g>
</svg>

<style type='text/css'>
<![CDATA[
[data-mouse-over-selected='false'] { opacity: 0.7; }
[data-mouse-over-selected='true']  { opacity: 1.0; }
]]>
</style>
<script type="application/ecmascript"><![CDATA[
document.addEventListener('DOMContentLoaded', (event) => {
  highlightEdges();
  highlightAdjacentNodes();
});
]]></script>
</svg>
