<?xml version="1.0" encoding="UTF-8" standalone="no"?>
<!DOCTYPE svg PUBLIC "-//W3C//DTD SVG 1.1//EN"
 "http://www.w3.org/Graphics/SVG/1.1/DTD/svg11.dtd">
<!-- Generated by graphviz version 12.2.1 (20241206.2353)
 -->
<!-- Title: ShapesManager::ShapesManager Pages: 1 -->
<!--zoomable 494 -->

<svg id="main" version="1.1" xmlns="http://www.w3.org/2000/svg" xmlns:xlink="http://www.w3.org/1999/xlink" xml:space="preserve" onload="init(evt)">

<style type="text/css"><![CDATA[
.node, .edge {opacity: 0.7;}
.node.selected, .edge.selected {opacity: 1;}
.edge:hover path { stroke: red; }
.edge:hover polygon { stroke: red; fill: red; }
]]></style>

<defs>
  <circle id="rim" cx="0" cy="0" r="7"/>
  <circle id="rim2" cx="0" cy="0" r="3.5"/>
  <g id="zoomPlus">
    <use xlink:href="#rim" fill="#404040"><set attributeName="fill" to="#808080" begin="zoomplus.mouseover" end="zoomplus.mouseout"/></use>
    <path d="M-4,0h8M0,-4v8" fill="none" stroke="white" stroke-width="1.5" pointer-events="none"/>
  </g>
  <g id="zoomMin">
    <use xlink:href="#rim" fill="#404040"><set attributeName="fill" to="#808080" begin="zoomminus.mouseover" end="zoomminus.mouseout"/></use>
    <path d="M-4,0h8" fill="none" stroke="white" stroke-width="1.5" pointer-events="none"/>
  </g>
  <g id="arrowUp" transform="translate(30 24)">
    <use xlink:href="#rim"/>
    <path pointer-events="none" fill="none" stroke="white" stroke-width="1.5" d="M0,-3.0v7 M-2.5,-0.5L0,-3.0L2.5,-0.5"/>
  </g>
  <g id="arrowRight" transform="rotate(90) translate(36 -43)">
    <use xlink:href="#rim"/>
    <path pointer-events="none" fill="none" stroke="white" stroke-width="1.5" d="M0,-3.0v7 M-2.5,-0.5L0,-3.0L2.5,-0.5"/>
  </g>
  <g id="arrowDown" transform="rotate(180) translate(-30 -48)">
    <use xlink:href="#rim"/>
    <path pointer-events="none" fill="none" stroke="white" stroke-width="1.5" d="M0,-3.0v7 M-2.5,-0.5L0,-3.0L2.5,-0.5"/>
  </g>
  <g id="arrowLeft" transform="rotate(270) translate(-36 17)">
    <use xlink:href="#rim"/>
    <path pointer-events="none" fill="none" stroke="white" stroke-width="1.5" d="M0,-3.0v7 M-2.5,-0.5L0,-3.0L2.5,-0.5"/>
  </g>
  <g id="resetDef">
    <use xlink:href="#rim2" fill="#404040"><set attributeName="fill" to="#808080" begin="reset.mouseover" end="reset.mouseout"/></use>
  </g>
</defs>
<script type="application/ecmascript">
var viewWidth = 586;
var viewHeight = 494;
var sectionId = 'dynsection-2';
</script>
<script type="application/ecmascript" xlink:href="../../svg.min.js"/>
<svg id="graph" class="graph">
<g id="viewport">
<title>ShapesManager::ShapesManager</title>
<!-- Node1 -->
<g id="Node000001" class="node">
<title>Node1</title>
<g id="a_Node000001"><a xlink:title="Default Constructor.">
<polygon fill="#999999" stroke="#666666" points="163,-278.88 0,-278.88 0,-259.62 163,-259.62 163,-278.88"/>
<text text-anchor="middle" x="81.5" y="-265.38" font-family="Helvetica,sans-Serif" font-size="10.00">ShapesManager::ShapesManager</text>
</a>
</g>
</g>
<!-- Node2 -->
<g id="Node000002" class="node">
<title>Node2</title>
<g id="a_Node000002"><a xlink:href="../../d2/dd1/class_api_client.html#a2362fb6ae6555400e50840bd2138fa3c" target="_top" xlink:title="Signal for a failed request sent to a Delete endpoint.">
<polygon fill="white" stroke="#666666" points="355.62,-485.88 222.62,-485.88 222.62,-466.62 355.62,-466.62 355.62,-485.88"/>
<text text-anchor="middle" x="289.12" y="-472.38" font-family="Helvetica,sans-Serif" font-size="10.00">ApiClient::BadDeleteReply</text>
</a>
</g>
</g>
<!-- Node1&#45;&gt;Node2 -->
<g id="edge1_Node000001_Node000002" class="edge">
<title>Node1&#45;&gt;Node2</title>
<g id="a_edge1_Node000001_Node000002"><a xlink:title=" ">
<path fill="none" stroke="#63b8ff" d="M85.41,-279.03C95.39,-310.7 131.34,-411.07 199,-458.25 202.93,-460.99 207.19,-463.34 211.63,-465.34"/>
<polygon fill="#63b8ff" stroke="#63b8ff" points="210.28,-468.57 220.87,-468.88 212.78,-462.03 210.28,-468.57"/>
</a>
</g>
</g>
<!-- Node3 -->
<g id="Node000003" class="node">
<title>Node3</title>
<g id="a_Node000003"><a xlink:href="../../d2/dd1/class_api_client.html#ae22339e302eb27bc51fbdfc1b7c1a4ec" target="_top" xlink:title="Signal for a failed request sent to a Get endpoint.">
<polygon fill="white" stroke="#666666" points="349.25,-448.88 229,-448.88 229,-429.62 349.25,-429.62 349.25,-448.88"/>
<text text-anchor="middle" x="289.12" y="-435.38" font-family="Helvetica,sans-Serif" font-size="10.00">ApiClient::BadGetReply</text>
</a>
</g>
</g>
<!-- Node1&#45;&gt;Node3 -->
<g id="edge2_Node000001_Node000003" class="edge">
<title>Node1&#45;&gt;Node3</title>
<g id="a_edge2_Node000001_Node000003"><a xlink:title=" ">
<path fill="none" stroke="#63b8ff" d="M86.88,-279.02C99.71,-306.43 140.05,-384.45 199,-421.25 204.89,-424.93 211.38,-427.87 218.1,-430.22"/>
<polygon fill="#63b8ff" stroke="#63b8ff" points="216.76,-433.47 227.34,-433.02 218.78,-426.77 216.76,-433.47"/>
</a>
</g>
</g>
<!-- Node4 -->
<g id="Node000004" class="node">
<title>Node4</title>
<g id="a_Node000004"><a xlink:href="../../d2/dd1/class_api_client.html#ac0f68b238bace3703854d7de15a3bb38" target="_top" xlink:title="Signal for a failed request sent to a Post endpoint.">
<polygon fill="white" stroke="#666666" points="351.5,-411.88 226.75,-411.88 226.75,-392.62 351.5,-392.62 351.5,-411.88"/>
<text text-anchor="middle" x="289.12" y="-398.38" font-family="Helvetica,sans-Serif" font-size="10.00">ApiClient::BadPostReply</text>
</a>
</g>
</g>
<!-- Node1&#45;&gt;Node4 -->
<g id="edge3_Node000001_Node000004" class="edge">
<title>Node1&#45;&gt;Node4</title>
<g id="a_edge3_Node000001_Node000004"><a xlink:title=" ">
<path fill="none" stroke="#63b8ff" d="M89.34,-279.18C105.51,-301.82 148.57,-357.41 199,-384.25 204.31,-387.08 210.02,-389.46 215.89,-391.47"/>
<polygon fill="#63b8ff" stroke="#63b8ff" points="214.53,-394.72 225.12,-394.27 216.56,-388.02 214.53,-394.72"/>
</a>
</g>
</g>
<!-- Node5 -->
<g id="Node000005" class="node">
<title>Node5</title>
<g id="a_Node000005"><a xlink:href="../../d2/dd1/class_api_client.html#a36b7d26e91c582a56da7c3bcfbdccbd9" target="_top" xlink:title="Signal for a successful request sent to a Delete endpoint.">
<polygon fill="white" stroke="#666666" points="358.62,-374.88 219.62,-374.88 219.62,-355.62 358.62,-355.62 358.62,-374.88"/>
<text text-anchor="middle" x="289.12" y="-361.38" font-family="Helvetica,sans-Serif" font-size="10.00">ApiClient::GoodDeleteReply</text>
</a>
</g>
</g>
<!-- Node1&#45;&gt;Node5 -->
<g id="edge4_Node000001_Node000005" class="edge">
<title>Node1&#45;&gt;Node5</title>
<g id="a_edge4_Node000001_Node000005"><a xlink:title=" ">
<path fill="none" stroke="#63b8ff" d="M93.85,-279.11C113.73,-295.84 156.76,-329.66 199,-347.25 203.26,-349.03 207.71,-350.63 212.26,-352.08"/>
<polygon fill="#63b8ff" stroke="#63b8ff" points="210.94,-355.34 221.52,-354.77 212.89,-348.62 210.94,-355.34"/>
</a>
</g>
</g>
<!-- Node6 -->
<g id="Node000006" class="node">
<title>Node6</title>
<g id="a_Node000006"><a xlink:href="../../d2/dd1/class_api_client.html#a940bf610f9fa472fc660e1ab60203de7" target="_top" xlink:title="Signal for a successful request sent to a Get endpoint.">
<polygon fill="white" stroke="#666666" points="352.25,-337.88 226,-337.88 226,-318.62 352.25,-318.62 352.25,-337.88"/>
<text text-anchor="middle" x="289.12" y="-324.38" font-family="Helvetica,sans-Serif" font-size="10.00">ApiClient::GoodGetReply</text>
</a>
</g>
</g>
<!-- Node1&#45;&gt;Node6 -->
<g id="edge5_Node000001_Node000006" class="edge">
<title>Node1&#45;&gt;Node6</title>
<g id="a_edge5_Node000001_Node000006"><a xlink:title=" ">
<path fill="none" stroke="#63b8ff" d="M107.63,-279.24C131.01,-288.25 166.96,-301.42 199,-310.25 206.16,-312.22 213.69,-314.08 221.23,-315.79"/>
<polygon fill="#63b8ff" stroke="#63b8ff" points="220.22,-319.15 230.74,-317.88 221.72,-312.32 220.22,-319.15"/>
</a>
</g>
</g>
<!-- Node7 -->
<g id="Node000007" class="node">
<title>Node7</title>
<g id="a_Node000007"><a xlink:href="../../d2/dd1/class_api_client.html#aa2e03a2c693acb0052f80415b453e279" target="_top" xlink:title="Signal for a successful request sent to a Post endpoint.">
<polygon fill="white" stroke="#666666" points="354.5,-300.88 223.75,-300.88 223.75,-281.62 354.5,-281.62 354.5,-300.88"/>
<text text-anchor="middle" x="289.12" y="-287.38" font-family="Helvetica,sans-Serif" font-size="10.00">ApiClient::GoodPostReply</text>
</a>
</g>
</g>
<!-- Node1&#45;&gt;Node7 -->
<g id="edge6_Node000001_Node000007" class="edge">
<title>Node1&#45;&gt;Node7</title>
<g id="a_edge6_Node000001_Node000007"><a xlink:title=" ">
<path fill="none" stroke="#63b8ff" d="M163.47,-277.91C179.48,-279.63 196.23,-281.42 212.07,-283.11"/>
<polygon fill="#63b8ff" stroke="#63b8ff" points="211.59,-286.58 221.91,-284.17 212.34,-279.62 211.59,-286.58"/>
</a>
</g>
</g>
<!-- Node8 -->
<g id="Node000008" class="node">
<title>Node8</title>
<g id="a_Node000008"><a xlink:href="../../d3/dde/class_shapes_manager.html#a7343341db18a456c331b3a9f7664e414" target="_top" xlink:title=" ">
<polygon fill="white" stroke="#666666" points="363.5,-263.5 214.75,-263.5 214.75,-233 363.5,-233 363.5,-263.5"/>
<text text-anchor="start" x="222.75" y="-250" font-family="Helvetica,sans-Serif" font-size="10.00">ShapesManager::onBadDelete</text>
<text text-anchor="middle" x="289.12" y="-238.75" font-family="Helvetica,sans-Serif" font-size="10.00">Response</text>
</a>
</g>
</g>
<!-- Node1&#45;&gt;Node8 -->
<g id="edge7_Node000001_Node000008" class="edge">
<title>Node1&#45;&gt;Node8</title>
<g id="a_edge7_Node000001_Node000008"><a xlink:title=" ">
<path fill="none" stroke="#63b8ff" d="M163.47,-260.98C176.42,-259.66 189.86,-258.29 202.91,-256.95"/>
<polygon fill="#63b8ff" stroke="#63b8ff" points="203.15,-260.45 212.75,-255.95 202.44,-253.48 203.15,-260.45"/>
</a>
</g>
</g>
<!-- Node10 -->
<g id="Node000010" class="node">
<title>Node10</title>
<g id="a_Node000010"><a xlink:href="../../d3/dde/class_shapes_manager.html#ae61c2dac370eba6bcb9d941b8a24f57b" target="_top" xlink:title=" ">
<polygon fill="white" stroke="#666666" points="379.25,-214.88 199,-214.88 199,-195.62 379.25,-195.62 379.25,-214.88"/>
<text text-anchor="middle" x="289.12" y="-201.38" font-family="Helvetica,sans-Serif" font-size="10.00">ShapesManager::onBadGetResponse</text>
</a>
</g>
</g>
<!-- Node1&#45;&gt;Node10 -->
<g id="edge9_Node000001_Node000010" class="edge">
<title>Node1&#45;&gt;Node10</title>
<g id="a_edge9_Node000001_Node000010"><a xlink:title=" ">
<path fill="none" stroke="#63b8ff" d="M105.33,-259.19C128.56,-249.25 165.75,-234.15 199,-224.25 206.71,-221.95 214.88,-219.82 223.02,-217.87"/>
<polygon fill="#63b8ff" stroke="#63b8ff" points="223.61,-221.33 232.57,-215.68 222.04,-214.51 223.61,-221.33"/>
</a>
</g>
</g>
<!-- Node11 -->
<g id="Node000011" class="node">
<title>Node11</title>
<g id="a_Node000011"><a xlink:href="../../d3/dde/class_shapes_manager.html#a54d9f7249989e2ef04258fbfa75fce07" target="_top" xlink:title=" ">
<polygon fill="white" stroke="#666666" points="359.38,-177.5 218.88,-177.5 218.88,-147 359.38,-147 359.38,-177.5"/>
<text text-anchor="start" x="226.88" y="-164" font-family="Helvetica,sans-Serif" font-size="10.00">ShapesManager::onBadPost</text>
<text text-anchor="middle" x="289.12" y="-152.75" font-family="Helvetica,sans-Serif" font-size="10.00">Response</text>
</a>
</g>
</g>
<!-- Node1&#45;&gt;Node11 -->
<g id="edge11_Node000001_Node000011" class="edge">
<title>Node1&#45;&gt;Node11</title>
<g id="a_edge11_Node000001_Node000011"><a xlink:title=" ">
<path fill="none" stroke="#63b8ff" d="M93.54,-259.29C113.28,-241.98 156.56,-206.29 199,-186.25 202.33,-184.68 205.79,-183.19 209.31,-181.79"/>
<polygon fill="#63b8ff" stroke="#63b8ff" points="210.45,-185.1 218.63,-178.37 208.04,-178.53 210.45,-185.1"/>
</a>
</g>
</g>
<!-- Node12 -->
<g id="Node000012" class="node">
<title>Node12</title>
<g id="a_Node000012"><a xlink:href="../../d3/dde/class_shapes_manager.html#a5fccd5114bcd112aaf83b1a555df8aa2" target="_top" xlink:title=" ">
<polygon fill="white" stroke="#666666" points="366.5,-128.5 211.75,-128.5 211.75,-98 366.5,-98 366.5,-128.5"/>
<text text-anchor="start" x="219.75" y="-115" font-family="Helvetica,sans-Serif" font-size="10.00">ShapesManager::onGoodDelete</text>
<text text-anchor="middle" x="289.12" y="-103.75" font-family="Helvetica,sans-Serif" font-size="10.00">Response</text>
</a>
</g>
</g>
<!-- Node1&#45;&gt;Node12 -->
<g id="edge13_Node000001_Node000012" class="edge">
<title>Node1&#45;&gt;Node12</title>
<g id="a_edge13_Node000001_Node000012"><a xlink:title=" ">
<path fill="none" stroke="#63b8ff" d="M88.45,-259.3C103.63,-234.81 146.35,-171.16 199,-138.25 201.59,-136.63 204.29,-135.11 207.07,-133.69"/>
<polygon fill="#63b8ff" stroke="#63b8ff" points="208.4,-136.93 216.03,-129.58 205.48,-130.57 208.4,-136.93"/>
</a>
</g>
</g>
<!-- Node13 -->
<g id="Node000013" class="node">
<title>Node13</title>
<g id="a_Node000013"><a xlink:href="../../d3/dde/class_shapes_manager.html#a1f4218728de2c529424149d6a9b61ce3" target="_top" xlink:title=" ">
<polygon fill="white" stroke="#666666" points="360.12,-30.5 218.12,-30.5 218.12,0 360.12,0 360.12,-30.5"/>
<text text-anchor="start" x="226.12" y="-17" font-family="Helvetica,sans-Serif" font-size="10.00">ShapesManager::onGoodGet</text>
<text text-anchor="middle" x="289.12" y="-5.75" font-family="Helvetica,sans-Serif" font-size="10.00">Response</text>
</a>
</g>
</g>
<!-- Node1&#45;&gt;Node13 -->
<g id="edge15_Node000001_Node000013" class="edge">
<title>Node1&#45;&gt;Node13</title>
<g id="a_edge15_Node000001_Node000013"><a xlink:title=" ">
<path fill="none" stroke="#63b8ff" d="M84.58,-259.2C92.49,-223.49 124.15,-101.63 199,-40.25 201.71,-38.03 204.6,-36 207.63,-34.16"/>
<polygon fill="#63b8ff" stroke="#63b8ff" points="209.14,-37.32 216.35,-29.56 205.87,-31.13 209.14,-37.32"/>
</a>
</g>
</g>
<!-- Node15 -->
<g id="Node000015" class="node">
<title>Node15</title>
<g id="a_Node000015"><a xlink:href="../../d3/dde/class_shapes_manager.html#abdb8e613c7e219d5eef0c6c54107bacc" target="_top" xlink:title=" ">
<polygon fill="white" stroke="#666666" points="362.38,-79.5 215.88,-79.5 215.88,-49 362.38,-49 362.38,-79.5"/>
<text text-anchor="start" x="223.88" y="-66" font-family="Helvetica,sans-Serif" font-size="10.00">ShapesManager::onGoodPost</text>
<text text-anchor="middle" x="289.12" y="-54.75" font-family="Helvetica,sans-Serif" font-size="10.00">Response</text>
</a>
</g>
</g>
<!-- Node1&#45;&gt;Node15 -->
<g id="edge18_Node000001_Node000015" class="edge">
<title>Node1&#45;&gt;Node15</title>
<g id="a_edge18_Node000001_Node000015"><a xlink:title=" ">
<path fill="none" stroke="#63b8ff" d="M86.01,-259.27C97.26,-228.78 135.46,-136.06 199,-89.25 201.05,-87.74 203.19,-86.32 205.39,-84.99"/>
<polygon fill="#63b8ff" stroke="#63b8ff" points="206.91,-88.15 214.11,-80.38 203.64,-81.96 206.91,-88.15"/>
</a>
</g>
</g>
<!-- Node9 -->
<g id="Node000009" class="node">
<title>Node9</title>
<g id="a_Node000009"><a xlink:href="../../d3/dde/class_shapes_manager.html#a4d0a61ed21a16e9e7b428641549afbd2" target="_top" xlink:title=" ">
<polygon fill="white" stroke="#666666" points="576.38,-146.88 417.12,-146.88 417.12,-127.62 576.38,-127.62 576.38,-146.88"/>
<text text-anchor="middle" x="496.75" y="-133.38" font-family="Helvetica,sans-Serif" font-size="10.00">ShapesManager::statusMessage</text>
</a>
</g>
</g>
<!-- Node8&#45;&gt;Node9 -->
<g id="edge8_Node000008_Node000009" class="edge">
<title>Node8&#45;&gt;Node9</title>
<g id="a_edge8_Node000008_Node000009"><a xlink:title=" ">
<path fill="none" stroke="#63b8ff" d="M358.74,-232.64C365.8,-230.19 372.76,-227.4 379.25,-224.25 417.2,-205.81 455.25,-174.37 477.1,-154.76"/>
<polygon fill="#63b8ff" stroke="#63b8ff" points="479.28,-157.5 484.3,-148.17 474.56,-152.34 479.28,-157.5"/>
</a>
</g>
</g>
<!-- Node10&#45;&gt;Node9 -->
<g id="edge10_Node000010_Node000009" class="edge">
<title>Node10&#45;&gt;Node9</title>
<g id="a_edge10_Node000010_Node000009"><a xlink:title=" ">
<path fill="none" stroke="#63b8ff" d="M345.22,-195.2C356.58,-192.66 368.38,-189.66 379.25,-186.25 409.07,-176.89 441.77,-162.78 464.92,-152.1"/>
<polygon fill="#63b8ff" stroke="#63b8ff" points="466.2,-155.36 473.78,-147.95 463.24,-149.02 466.2,-155.36"/>
</a>
</g>
</g>
<!-- Node11&#45;&gt;Node9 -->
<g id="edge12_Node000011_Node000009" class="edge">
<title>Node11&#45;&gt;Node9</title>
<g id="a_edge12_Node000011_Node000009"><a xlink:title=" ">
<path fill="none" stroke="#63b8ff" d="M359.74,-153.79C374.46,-152 390.2,-150.08 405.55,-148.22"/>
<polygon fill="#63b8ff" stroke="#63b8ff" points="405.64,-151.73 415.14,-147.05 404.79,-144.78 405.64,-151.73"/>
</a>
</g>
</g>
<!-- Node12&#45;&gt;Node9 -->
<g id="edge14_Node000012_Node000009" class="edge">
<title>Node12&#45;&gt;Node9</title>
<g id="a_edge14_Node000012_Node000009"><a xlink:title=" ">
<path fill="none" stroke="#63b8ff" d="M366.98,-122.22C379.6,-123.69 392.78,-125.23 405.68,-126.74"/>
<polygon fill="#63b8ff" stroke="#63b8ff" points="405.08,-130.19 415.42,-127.87 405.9,-123.24 405.08,-130.19"/>
</a>
</g>
</g>
<!-- Node13&#45;&gt;Node9 -->
<g id="edge17_Node000013_Node000009" class="edge">
<title>Node13&#45;&gt;Node9</title>
<g id="a_edge17_Node000013_Node000009"><a xlink:title=" ">
<path fill="none" stroke="#63b8ff" d="M357.5,-30.84C365.02,-33.54 372.42,-36.66 379.25,-40.25 419.18,-61.24 457.86,-97.6 479.07,-119.34"/>
<polygon fill="#63b8ff" stroke="#63b8ff" points="476.31,-121.52 485.75,-126.33 481.37,-116.68 476.31,-121.52"/>
</a>
</g>
</g>
<!-- Node14 -->
<g id="Node000014" class="node">
<title>Node14</title>
<g id="a_Node000014"><a xlink:href="../../d3/dde/class_shapes_manager.html#a401502eb4c12357f6f5ae53953c3b3de" target="_top" xlink:title=" ">
<polygon fill="white" stroke="#666666" points="578.25,-24.88 415.25,-24.88 415.25,-5.62 578.25,-5.62 578.25,-24.88"/>
<text text-anchor="middle" x="496.75" y="-11.38" font-family="Helvetica,sans-Serif" font-size="10.00">ShapesManager::shapesChanged</text>
</a>
</g>
</g>
<!-- Node13&#45;&gt;Node14 -->
<g id="edge16_Node000013_Node000014" class="edge">
<title>Node13&#45;&gt;Node14</title>
<g id="a_edge16_Node000013_Node000014"><a xlink:title=" ">
<path fill="none" stroke="#63b8ff" d="M360.6,-15.25C374.36,-15.25 388.98,-15.25 403.33,-15.25"/>
<polygon fill="#63b8ff" stroke="#63b8ff" points="403.24,-18.75 413.24,-15.25 403.24,-11.75 403.24,-18.75"/>
</a>
</g>
</g>
<!-- Node15&#45;&gt;Node9 -->
<g id="edge19_Node000015_Node000009" class="edge">
<title>Node15&#45;&gt;Node9</title>
<g id="a_edge19_Node000015_Node000009"><a xlink:title=" ">
<path fill="none" stroke="#63b8ff" d="M349.87,-79.96C359.75,-82.86 369.83,-86 379.25,-89.25 408.17,-99.23 440.26,-112.63 463.43,-122.73"/>
<polygon fill="#63b8ff" stroke="#63b8ff" points="461.77,-125.83 472.33,-126.65 464.59,-119.42 461.77,-125.83"/>
</a>
</g>
</g>
</g>
</svg>

<g id="navigator" transform="translate(0 0)" fill="#404254">
  <rect fill="#f2f5e9" fill-opacity="0.5" stroke="#606060" stroke-width=".5" x="0" y="0" width="60" height="60"/>
  <use id="zoomplus" xlink:href="#zoomPlus" x="17" y="9" onmousedown="handleZoom(evt,'in')"/>
  <use id="zoomminus" xlink:href="#zoomMin" x="42" y="9" onmousedown="handleZoom(evt,'out')"/>
  <use id="reset" xlink:href="#resetDef" x="30" y="36" onmousedown="handleReset()"/>
   <use id="arrowup" xlink:href="#arrowUp" x="0" y="0" onmousedown="handlePan(0,-1)"/>
  <use id="arrowright" xlink:href="#arrowRight" x="0" y="0" onmousedown="handlePan(1,0)"/>
  <use id="arrowdown" xlink:href="#arrowDown" x="0" y="0" onmousedown="handlePan(0,1)"/>
  <use id="arrowleft" xlink:href="#arrowLeft" x="0" y="0" onmousedown="handlePan(-1,0)"/>
</g>
<svg viewBox="0 0 15 15" width="100%" height="30px" preserveAspectRatio="xMaxYMin meet">
 <g id="arrow_out" transform="scale(0.3 0.3)">
  <a xlink:href="class_shapes_manager_ab717143ddccb519cf74e28a27793112a_cgraph_org.svg" target="_base">
   <rect id="button" ry="5" rx="5" y="6" x="6" height="38" width="38"
        fill="#f2f5e9" fill-opacity="0.5" stroke="#606060" stroke-width="1.0"/>
   <path id="arrow"
     d="M 11.500037,31.436501 C 11.940474,20.09759 22.043105,11.32322 32.158766,21.979434 L 37.068811,17.246167 C 37.068811,17.246167 37.088388,32 37.088388,32 L 22.160133,31.978069 C 22.160133,31.978069 26.997745,27.140456 26.997745,27.140456 C 18.528582,18.264221 13.291696,25.230495 11.500037,31.436501 z"
     style="fill:#404040;"/>
  </a>
 </g>
</svg>

<style type='text/css'>
<![CDATA[
[data-mouse-over-selected='false'] { opacity: 0.7; }
[data-mouse-over-selected='true']  { opacity: 1.0; }
]]>
</style>
<script type="application/ecmascript"><![CDATA[
document.addEventListener('DOMContentLoaded', (event) => {
  highlightEdges();
  highlightAdjacentNodes();
});
]]></script>
</svg>
