<?xml version="1.0" encoding="UTF-8" standalone="no"?>
<!DOCTYPE svg PUBLIC "-//W3C//DTD SVG 1.1//EN"
 "http://www.w3.org/Graphics/SVG/1.1/DTD/svg11.dtd">
<!-- Generated by graphviz version 12.2.1 (20241206.2353)
 -->
<!-- Title: ShapesManager::statusMessage Pages: 1 -->
<!--zoomable 272 -->

<svg id="main" version="1.1" xmlns="http://www.w3.org/2000/svg" xmlns:xlink="http://www.w3.org/1999/xlink" xml:space="preserve" onload="init(evt)">

<style type="text/css"><![CDATA[
.node, .edge {opacity: 0.7;}
.node.selected, .edge.selected {opacity: 1;}
.edge:hover path { stroke: red; }
.edge:hover polygon { stroke: red; fill: red; }
]]></style>

<defs>
  <circle id="rim" cx="0" cy="0" r="7"/>
  <circle id="rim2" cx="0" cy="0" r="3.5"/>
  <g id="zoomPlus">
    <use xlink:href="#rim" fill="#404040"><set attributeName="fill" to="#808080" begin="zoomplus.mouseover" end="zoomplus.mouseout"/></use>
    <path d="M-4,0h8M0,-4v8" fill="none" stroke="white" stroke-width="1.5" pointer-events="none"/>
  </g>
  <g id="zoomMin">
    <use xlink:href="#rim" fill="#404040"><set attributeName="fill" to="#808080" begin="zoomminus.mouseover" end="zoomminus.mouseout"/></use>
    <path d="M-4,0h8" fill="none" stroke="white" stroke-width="1.5" pointer-events="none"/>
  </g>
  <g id="arrowUp" transform="translate(30 24)">
    <use xlink:href="#rim"/>
    <path pointer-events="none" fill="none" stroke="white" stroke-width="1.5" d="M0,-3.0v7 M-2.5,-0.5L0,-3.0L2.5,-0.5"/>
  </g>
  <g id="arrowRight" transform="rotate(90) translate(36 -43)">
    <use xlink:href="#rim"/>
    <path pointer-events="none" fill="none" stroke="white" stroke-width="1.5" d="M0,-3.0v7 M-2.5,-0.5L0,-3.0L2.5,-0.5"/>
  </g>
  <g id="arrowDown" transform="rotate(180) translate(-30 -48)">
    <use xlink:href="#rim"/>
    <path pointer-events="none" fill="none" stroke="white" stroke-width="1.5" d="M0,-3.0v7 M-2.5,-0.5L0,-3.0L2.5,-0.5"/>
  </g>
  <g id="arrowLeft" transform="rotate(270) translate(-36 17)">
    <use xlink:href="#rim"/>
    <path pointer-events="none" fill="none" stroke="white" stroke-width="1.5" d="M0,-3.0v7 M-2.5,-0.5L0,-3.0L2.5,-0.5"/>
  </g>
  <g id="resetDef">
    <use xlink:href="#rim2" fill="#404040"><set attributeName="fill" to="#808080" begin="reset.mouseover" end="reset.mouseout"/></use>
  </g>
</defs>
<script type="application/ecmascript">
var viewWidth = 583;
var viewHeight = 272;
var sectionId = 'dynsection-22';
</script>
<script type="application/ecmascript" xlink:href="../../svg.min.js"/>
<svg id="graph" class="graph">
<g id="viewport">
<title>ShapesManager::statusMessage</title>
<!-- Node1 -->
<g id="Node000001" class="node">
<title>Node1</title>
<g id="a_Node000001"><a xlink:title=" ">
<polygon fill="#999999" stroke="#666666" points="574.5,-146.88 415.25,-146.88 415.25,-127.62 574.5,-127.62 574.5,-146.88"/>
<text text-anchor="middle" x="494.88" y="-133.38" font-family="Helvetica,sans-Serif" font-size="10.00">ShapesManager::statusMessage</text>
</a>
</g>
</g>
<!-- Node2 -->
<g id="Node000002" class="node">
<title>Node2</title>
<g id="a_Node000002"><a xlink:href="../../d3/dde/class_shapes_manager.html#a7343341db18a456c331b3a9f7664e414" target="_top" xlink:title=" ">
<polygon fill="white" stroke="#666666" points="363.5,-263.5 214.75,-263.5 214.75,-233 363.5,-233 363.5,-263.5"/>
<text text-anchor="start" x="222.75" y="-250" font-family="Helvetica,sans-Serif" font-size="10.00">ShapesManager::onBadDelete</text>
<text text-anchor="middle" x="289.12" y="-238.75" font-family="Helvetica,sans-Serif" font-size="10.00">Response</text>
</a>
</g>
</g>
<!-- Node1&#45;&gt;Node2 -->
<g id="edge1_Node000001_Node000002" class="edge">
<title>Node1&#45;&gt;Node2</title>
<g id="a_edge1_Node000001_Node000002"><a xlink:title=" ">
<path fill="none" stroke="#63b8ff" d="M475.58,-154.78C454.13,-174.4 416.73,-205.86 379.25,-224.25 372.92,-227.36 366.13,-230.1 359.23,-232.52"/>
<polygon fill="#63b8ff" stroke="#63b8ff" points="477.71,-157.57 482.64,-148.19 472.93,-152.45 477.71,-157.57"/>
</a>
</g>
</g>
<!-- Node4 -->
<g id="Node000004" class="node">
<title>Node4</title>
<g id="a_Node000004"><a xlink:href="../../d3/dde/class_shapes_manager.html#ae61c2dac370eba6bcb9d941b8a24f57b" target="_top" xlink:title=" ">
<polygon fill="white" stroke="#666666" points="379.25,-214.88 199,-214.88 199,-195.62 379.25,-195.62 379.25,-214.88"/>
<text text-anchor="middle" x="289.12" y="-201.38" font-family="Helvetica,sans-Serif" font-size="10.00">ShapesManager::onBadGetResponse</text>
</a>
</g>
</g>
<!-- Node1&#45;&gt;Node4 -->
<g id="edge3_Node000001_Node000004" class="edge">
<title>Node1&#45;&gt;Node4</title>
<g id="a_edge3_Node000001_Node000004"><a xlink:title=" ">
<path fill="none" stroke="#63b8ff" d="M463.26,-152.27C440.52,-162.94 408.5,-176.98 379.25,-186.25 368.54,-189.64 356.92,-192.62 345.71,-195.14"/>
<polygon fill="#63b8ff" stroke="#63b8ff" points="464.73,-155.44 472.26,-147.98 461.72,-149.12 464.73,-155.44"/>
</a>
</g>
</g>
<!-- Node5 -->
<g id="Node000005" class="node">
<title>Node5</title>
<g id="a_Node000005"><a xlink:href="../../d3/dde/class_shapes_manager.html#a54d9f7249989e2ef04258fbfa75fce07" target="_top" xlink:title=" ">
<polygon fill="white" stroke="#666666" points="359.38,-177.5 218.88,-177.5 218.88,-147 359.38,-147 359.38,-177.5"/>
<text text-anchor="start" x="226.88" y="-164" font-family="Helvetica,sans-Serif" font-size="10.00">ShapesManager::onBadPost</text>
<text text-anchor="middle" x="289.12" y="-152.75" font-family="Helvetica,sans-Serif" font-size="10.00">Response</text>
</a>
</g>
</g>
<!-- Node1&#45;&gt;Node5 -->
<g id="edge5_Node000001_Node000005" class="edge">
<title>Node1&#45;&gt;Node5</title>
<g id="a_edge5_Node000001_Node000005"><a xlink:title=" ">
<path fill="none" stroke="#63b8ff" d="M403.66,-148.32C388.97,-150.12 373.96,-151.96 359.86,-153.69"/>
<polygon fill="#63b8ff" stroke="#63b8ff" points="403.81,-151.83 413.31,-147.14 402.95,-144.88 403.81,-151.83"/>
</a>
</g>
</g>
<!-- Node6 -->
<g id="Node000006" class="node">
<title>Node6</title>
<g id="a_Node000006"><a xlink:href="../../d3/dde/class_shapes_manager.html#a5fccd5114bcd112aaf83b1a555df8aa2" target="_top" xlink:title=" ">
<polygon fill="white" stroke="#666666" points="366.5,-128.5 211.75,-128.5 211.75,-98 366.5,-98 366.5,-128.5"/>
<text text-anchor="start" x="219.75" y="-115" font-family="Helvetica,sans-Serif" font-size="10.00">ShapesManager::onGoodDelete</text>
<text text-anchor="middle" x="289.12" y="-103.75" font-family="Helvetica,sans-Serif" font-size="10.00">Response</text>
</a>
</g>
</g>
<!-- Node1&#45;&gt;Node6 -->
<g id="edge7_Node000001_Node000006" class="edge">
<title>Node1&#45;&gt;Node6</title>
<g id="a_edge7_Node000001_Node000006"><a xlink:title=" ">
<path fill="none" stroke="#63b8ff" d="M403.61,-126.62C391.33,-125.17 378.82,-123.7 366.8,-122.28"/>
<polygon fill="#63b8ff" stroke="#63b8ff" points="402.96,-130.07 413.31,-127.76 403.78,-123.11 402.96,-130.07"/>
</a>
</g>
</g>
<!-- Node7 -->
<g id="Node000007" class="node">
<title>Node7</title>
<g id="a_Node000007"><a xlink:href="../../d3/dde/class_shapes_manager.html#a1f4218728de2c529424149d6a9b61ce3" target="_top" xlink:title=" ">
<polygon fill="white" stroke="#666666" points="360.12,-79.5 218.12,-79.5 218.12,-49 360.12,-49 360.12,-79.5"/>
<text text-anchor="start" x="226.12" y="-66" font-family="Helvetica,sans-Serif" font-size="10.00">ShapesManager::onGoodGet</text>
<text text-anchor="middle" x="289.12" y="-54.75" font-family="Helvetica,sans-Serif" font-size="10.00">Response</text>
</a>
</g>
</g>
<!-- Node1&#45;&gt;Node7 -->
<g id="edge9_Node000001_Node000007" class="edge">
<title>Node1&#45;&gt;Node7</title>
<g id="a_edge9_Node000001_Node000007"><a xlink:title=" ">
<path fill="none" stroke="#63b8ff" d="M461.79,-122.56C439.03,-112.46 407.62,-99.13 379.25,-89.25 369.84,-85.97 359.76,-82.82 349.89,-79.92"/>
<polygon fill="#63b8ff" stroke="#63b8ff" points="460.27,-125.72 470.83,-126.62 463.14,-119.33 460.27,-125.72"/>
</a>
</g>
</g>
<!-- Node8 -->
<g id="Node000008" class="node">
<title>Node8</title>
<g id="a_Node000008"><a xlink:href="../../d3/dde/class_shapes_manager.html#abdb8e613c7e219d5eef0c6c54107bacc" target="_top" xlink:title=" ">
<polygon fill="white" stroke="#666666" points="362.38,-30.5 215.88,-30.5 215.88,0 362.38,0 362.38,-30.5"/>
<text text-anchor="start" x="223.88" y="-17" font-family="Helvetica,sans-Serif" font-size="10.00">ShapesManager::onGoodPost</text>
<text text-anchor="middle" x="289.12" y="-5.75" font-family="Helvetica,sans-Serif" font-size="10.00">Response</text>
</a>
</g>
</g>
<!-- Node1&#45;&gt;Node8 -->
<g id="edge11_Node000001_Node000008" class="edge">
<title>Node1&#45;&gt;Node8</title>
<g id="a_edge11_Node000001_Node000008"><a xlink:title=" ">
<path fill="none" stroke="#63b8ff" d="M477.24,-119.04C456.38,-97.25 418.54,-61.1 379.25,-40.25 372.58,-36.71 365.35,-33.63 358,-30.95"/>
<polygon fill="#63b8ff" stroke="#63b8ff" points="474.67,-121.41 484.06,-126.31 479.77,-116.62 474.67,-121.41"/>
</a>
</g>
</g>
<!-- Node3 -->
<g id="Node000003" class="node">
<title>Node3</title>
<g id="a_Node000003"><a xlink:href="../../d3/dde/class_shapes_manager.html#ab717143ddccb519cf74e28a27793112a" target="_top" xlink:title="Default Constructor.">
<polygon fill="white" stroke="#666666" points="163,-146.88 0,-146.88 0,-127.62 163,-127.62 163,-146.88"/>
<text text-anchor="middle" x="81.5" y="-133.38" font-family="Helvetica,sans-Serif" font-size="10.00">ShapesManager::ShapesManager</text>
</a>
</g>
</g>
<!-- Node2&#45;&gt;Node3 -->
<g id="edge2_Node000002_Node000003" class="edge">
<title>Node2&#45;&gt;Node3</title>
<g id="a_edge2_Node000002_Node000003"><a xlink:title=" ">
<path fill="none" stroke="#63b8ff" d="M209.04,-228.71C205.6,-227.31 202.24,-225.83 199,-224.25 155.63,-203.18 112.13,-165.12 92.83,-147.15"/>
<polygon fill="#63b8ff" stroke="#63b8ff" points="207.5,-231.87 218.09,-232.1 209.96,-225.31 207.5,-231.87"/>
</a>
</g>
</g>
<!-- Node4&#45;&gt;Node3 -->
<g id="edge4_Node000004_Node000003" class="edge">
<title>Node4&#45;&gt;Node3</title>
<g id="a_edge4_Node000004_Node000003"><a xlink:title=" ">
<path fill="none" stroke="#63b8ff" d="M222.02,-192.62C214.21,-190.69 206.39,-188.57 199,-186.25 164.46,-175.41 126.05,-158.19 103.1,-147.31"/>
<polygon fill="#63b8ff" stroke="#63b8ff" points="221.02,-195.98 231.55,-194.85 222.62,-189.16 221.02,-195.98"/>
</a>
</g>
</g>
<!-- Node5&#45;&gt;Node3 -->
<g id="edge6_Node000005_Node000003" class="edge">
<title>Node5&#45;&gt;Node3</title>
<g id="a_edge6_Node000005_Node000003"><a xlink:title=" ">
<path fill="none" stroke="#63b8ff" d="M207.13,-152.4C192.75,-150.65 177.78,-148.83 163.4,-147.09"/>
<polygon fill="#63b8ff" stroke="#63b8ff" points="206.66,-155.87 217.01,-153.6 207.5,-148.92 206.66,-155.87"/>
</a>
</g>
</g>
<!-- Node6&#45;&gt;Node3 -->
<g id="edge8_Node000006_Node000003" class="edge">
<title>Node6&#45;&gt;Node3</title>
<g id="a_edge8_Node000006_Node000003"><a xlink:title=" ">
<path fill="none" stroke="#63b8ff" d="M200.16,-123.52C187.95,-124.94 175.46,-126.4 163.39,-127.81"/>
<polygon fill="#63b8ff" stroke="#63b8ff" points="200.24,-127.03 209.76,-122.4 199.42,-120.08 200.24,-127.03"/>
</a>
</g>
</g>
<!-- Node7&#45;&gt;Node3 -->
<g id="edge10_Node000007_Node000003" class="edge">
<title>Node7&#45;&gt;Node3</title>
<g id="a_edge10_Node000007_Node000003"><a xlink:title=" ">
<path fill="none" stroke="#63b8ff" d="M217.69,-83.17C211.34,-85.13 205.03,-87.17 199,-89.25 165.5,-100.81 127.75,-116.96 104.54,-127.26"/>
<polygon fill="#63b8ff" stroke="#63b8ff" points="218.36,-86.63 226.93,-80.4 216.34,-79.92 218.36,-86.63"/>
</a>
</g>
</g>
<!-- Node8&#45;&gt;Node3 -->
<g id="edge12_Node000008_Node000003" class="edge">
<title>Node8&#45;&gt;Node3</title>
<g id="a_edge12_Node000008_Node000003"><a xlink:title=" ">
<path fill="none" stroke="#63b8ff" d="M210.3,-34.92C206.42,-36.57 202.63,-38.34 199,-40.25 153.57,-64.13 109.76,-107.91 91.45,-127.42"/>
<polygon fill="#63b8ff" stroke="#63b8ff" points="211.3,-38.29 219.34,-31.39 208.75,-31.77 211.3,-38.29"/>
</a>
</g>
</g>
</g>
</svg>

<g id="navigator" transform="translate(0 0)" fill="#404254">
  <rect fill="#f2f5e9" fill-opacity="0.5" stroke="#606060" stroke-width=".5" x="0" y="0" width="60" height="60"/>
  <use id="zoomplus" xlink:href="#zoomPlus" x="17" y="9" onmousedown="handleZoom(evt,'in')"/>
  <use id="zoomminus" xlink:href="#zoomMin" x="42" y="9" onmousedown="handleZoom(evt,'out')"/>
  <use id="reset" xlink:href="#resetDef" x="30" y="36" onmousedown="handleReset()"/>
   <use id="arrowup" xlink:href="#arrowUp" x="0" y="0" onmousedown="handlePan(0,-1)"/>
  <use id="arrowright" xlink:href="#arrowRight" x="0" y="0" onmousedown="handlePan(1,0)"/>
  <use id="arrowdown" xlink:href="#arrowDown" x="0" y="0" onmousedown="handlePan(0,1)"/>
  <use id="arrowleft" xlink:href="#arrowLeft" x="0" y="0" onmousedown="handlePan(-1,0)"/>
</g>
<svg viewBox="0 0 15 15" width="100%" height="30px" preserveAspectRatio="xMaxYMin meet">
 <g id="arrow_out" transform="scale(0.3 0.3)">
  <a xlink:href="class_shapes_manager_a4d0a61ed21a16e9e7b428641549afbd2_icgraph_org.svg" target="_base">
   <rect id="button" ry="5" rx="5" y="6" x="6" height="38" width="38"
        fill="#f2f5e9" fill-opacity="0.5" stroke="#606060" stroke-width="1.0"/>
   <path id="arrow"
     d="M 11.500037,31.436501 C 11.940474,20.09759 22.043105,11.32322 32.158766,21.979434 L 37.068811,17.246167 C 37.068811,17.246167 37.088388,32 37.088388,32 L 22.160133,31.978069 C 22.160133,31.978069 26.997745,27.140456 26.997745,27.140456 C 18.528582,18.264221 13.291696,25.230495 11.500037,31.436501 z"
     style="fill:#404040;"/>
  </a>
 </g>
</svg>

<style type='text/css'>
<![CDATA[
[data-mouse-over-selected='false'] { opacity: 0.7; }
[data-mouse-over-selected='true']  { opacity: 1.0; }
]]>
</style>
<script type="application/ecmascript"><![CDATA[
document.addEventListener('DOMContentLoaded', (event) => {
  highlightEdges();
  highlightAdjacentNodes();
});
]]></script>
</svg>
