<?xml version="1.0" encoding="UTF-8" standalone="no"?>
<!DOCTYPE svg PUBLIC "-//W3C//DTD SVG 1.1//EN"
 "http://www.w3.org/Graphics/SVG/1.1/DTD/svg11.dtd">
<!-- Generated by graphviz version 12.2.1 (20241206.2353)
 -->
<!-- Title: ShapesManager::modifyShape Pages: 1 -->
<svg width="357pt" height="150pt"
 viewBox="0.00 0.00 356.50 149.88" xmlns="http://www.w3.org/2000/svg" xmlns:xlink="http://www.w3.org/1999/xlink">
<g id="graph0" class="graph" transform="scale(1 1) rotate(0) translate(4 145.88)">
<title>ShapesManager::modifyShape</title>
<!-- Node1 -->
<g id="Node000001" class="node">
<title>Node1</title>
<g id="a_Node000001"><a xlink:title=" ">
<polygon fill="#999999" stroke="#666666" points="149.5,-85.88 0,-85.88 0,-66.62 149.5,-66.62 149.5,-85.88"/>
<text text-anchor="middle" x="74.75" y="-72.38" font-family="Helvetica,sans-Serif" font-size="10.00">ShapesManager::modifyShape</text>
</a>
</g>
</g>
<!-- Node2 -->
<g id="Node000002" class="node">
<title>Node2</title>
<g id="a_Node000002"><a xlink:href="../../d7/da7/class_shape.html#aec4675c2b06d40373eefac4b982af242" target="_top" xlink:title=" ">
<polygon fill="white" stroke="#666666" points="319.25,-141.88 214.75,-141.88 214.75,-122.62 319.25,-122.62 319.25,-141.88"/>
<text text-anchor="middle" x="267" y="-128.38" font-family="Helvetica,sans-Serif" font-size="10.00">Shape::getTrackerId</text>
</a>
</g>
</g>
<!-- Node1&#45;&gt;Node2 -->
<g id="edge1_Node000001_Node000002" class="edge">
<title>Node1&#45;&gt;Node2</title>
<g id="a_edge1_Node000001_Node000002"><a xlink:title=" ">
<path fill="none" stroke="#63b8ff" d="M102.09,-86.32C124.16,-94.52 156.6,-106.04 185.5,-114.25 192.1,-116.12 199.05,-117.93 205.98,-119.62"/>
<polygon fill="#63b8ff" stroke="#63b8ff" points="204.81,-122.94 215.35,-121.84 206.42,-116.13 204.81,-122.94"/>
</a>
</g>
</g>
<!-- Node3 -->
<g id="Node000003" class="node">
<title>Node3</title>
<g id="a_Node000003"><a xlink:href="../../d3/dde/class_shapes_manager.html#a1b76d87eb372f56453320d1b0bf566ac" target="_top" xlink:title=" ">
<polygon fill="white" stroke="#666666" points="340.25,-104.88 193.75,-104.88 193.75,-85.62 340.25,-85.62 340.25,-104.88"/>
<text text-anchor="middle" x="267" y="-91.38" font-family="Helvetica,sans-Serif" font-size="10.00">ShapesManager::saveShapes</text>
</a>
</g>
</g>
<!-- Node1&#45;&gt;Node3 -->
<g id="edge2_Node000001_Node000003" class="edge">
<title>Node1&#45;&gt;Node3</title>
<g id="a_edge2_Node000001_Node000003"><a xlink:title=" ">
<path fill="none" stroke="#63b8ff" d="M149.85,-83.65C160.46,-84.71 171.43,-85.81 182.21,-86.88"/>
<polygon fill="#63b8ff" stroke="#63b8ff" points="181.55,-90.33 191.85,-87.84 182.24,-83.37 181.55,-90.33"/>
</a>
</g>
</g>
<!-- Node4 -->
<g id="Node000004" class="node">
<title>Node4</title>
<g id="a_Node000004"><a xlink:href="../../d3/dde/class_shapes_manager.html#a401502eb4c12357f6f5ae53953c3b3de" target="_top" xlink:title=" ">
<polygon fill="white" stroke="#666666" points="348.5,-67.88 185.5,-67.88 185.5,-48.62 348.5,-48.62 348.5,-67.88"/>
<text text-anchor="middle" x="267" y="-54.38" font-family="Helvetica,sans-Serif" font-size="10.00">ShapesManager::shapesChanged</text>
</a>
</g>
</g>
<!-- Node1&#45;&gt;Node4 -->
<g id="edge3_Node000001_Node000004" class="edge">
<title>Node1&#45;&gt;Node4</title>
<g id="a_edge3_Node000001_Node000004"><a xlink:title=" ">
<path fill="none" stroke="#63b8ff" d="M149.85,-69.24C157.72,-68.49 165.8,-67.73 173.84,-66.97"/>
<polygon fill="#63b8ff" stroke="#63b8ff" points="174.04,-70.47 183.67,-66.04 173.38,-63.5 174.04,-70.47"/>
</a>
</g>
</g>
<!-- Node5 -->
<g id="Node000005" class="node">
<title>Node5</title>
<g id="a_Node000005"><a xlink:href="../../d3/dde/class_shapes_manager.html#aefe8d8daf30445ae70b4035831f857dc" target="_top" xlink:title=" ">
<polygon fill="white" stroke="#666666" points="336.88,-30.5 197.12,-30.5 197.12,0 336.88,0 336.88,-30.5"/>
<text text-anchor="start" x="205.12" y="-17" font-family="Helvetica,sans-Serif" font-size="10.00">ShapesManager::shapesNot</text>
<text text-anchor="middle" x="267" y="-5.75" font-family="Helvetica,sans-Serif" font-size="10.00">Changed</text>
</a>
</g>
</g>
<!-- Node1&#45;&gt;Node5 -->
<g id="edge4_Node000001_Node000005" class="edge">
<title>Node1&#45;&gt;Node5</title>
<g id="a_edge4_Node000001_Node000005"><a xlink:title=" ">
<path fill="none" stroke="#63b8ff" d="M104.54,-66.23C126.63,-58.62 157.9,-48.01 185.5,-39.25 190.62,-37.63 195.93,-35.97 201.27,-34.33"/>
<polygon fill="#63b8ff" stroke="#63b8ff" points="202.23,-37.7 210.78,-31.44 200.19,-31 202.23,-37.7"/>
</a>
</g>
</g>
</g>
</svg>
