<?xml version="1.0" encoding="UTF-8" standalone="no"?>
<!DOCTYPE svg PUBLIC "-//W3C//DTD SVG 1.1//EN"
 "http://www.w3.org/Graphics/SVG/1.1/DTD/svg11.dtd">
<!-- Generated by graphviz version 12.2.1 (20241206.2353)
 -->
<!-- Title: TestimonialManager::setDoNotShowAgain Pages: 1 -->
<svg width="392pt" height="88pt"
 viewBox="0.00 0.00 392.00 87.50" xmlns="http://www.w3.org/2000/svg" xmlns:xlink="http://www.w3.org/1999/xlink">
<g id="graph0" class="graph" transform="scale(1 1) rotate(0) translate(4 83.5)">
<title>TestimonialManager::setDoNotShowAgain</title>
<!-- Node1 -->
<g id="Node000001" class="node">
<title>Node1</title>
<g id="a_Node000001"><a xlink:title="Sets the &quot;do not show again&quot; preference for a user.">
<polygon fill="#999999" stroke="#666666" points="384,-54.5 270.5,-54.5 270.5,-24 384,-24 384,-54.5"/>
<text text-anchor="start" x="278.5" y="-41" font-family="Helvetica,sans-Serif" font-size="10.00">TestimonialManager</text>
<text text-anchor="middle" x="327.25" y="-29.75" font-family="Helvetica,sans-Serif" font-size="10.00">::setDoNotShowAgain</text>
</a>
</g>
</g>
<!-- Node2 -->
<g id="Node000002" class="node">
<title>Node2</title>
<g id="a_Node000002"><a xlink:href="../../d4/d1f/class_testimonial_dialog.html#a4a73a410e9fd8c28b794fe0584976414" target="_top" xlink:title="Handles the cancellation of the testimonial submission.">
<polygon fill="white" stroke="#666666" points="234.5,-79.5 135.25,-79.5 135.25,-49 234.5,-49 234.5,-79.5"/>
<text text-anchor="start" x="143.25" y="-66" font-family="Helvetica,sans-Serif" font-size="10.00">TestimonialDialog::</text>
<text text-anchor="middle" x="184.88" y="-54.75" font-family="Helvetica,sans-Serif" font-size="10.00">onCancel</text>
</a>
</g>
</g>
<!-- Node1&#45;&gt;Node2 -->
<g id="edge1_Node000001_Node000002" class="edge">
<title>Node1&#45;&gt;Node2</title>
<g id="a_edge1_Node000001_Node000002"><a xlink:title=" ">
<path fill="none" stroke="#63b8ff" d="M259.21,-51.19C250.96,-52.66 242.67,-54.14 234.76,-55.54"/>
<polygon fill="#63b8ff" stroke="#63b8ff" points="259.65,-54.67 268.88,-49.47 258.42,-47.78 259.65,-54.67"/>
</a>
</g>
</g>
<!-- Node4 -->
<g id="Node000004" class="node">
<title>Node4</title>
<g id="a_Node000004"><a xlink:href="../../d4/d1f/class_testimonial_dialog.html#a98f2520e872b1eabda8e66a3807ef39e" target="_top" xlink:title="Handles the submission of a new testimonial.">
<polygon fill="white" stroke="#666666" points="234.5,-30.5 135.25,-30.5 135.25,0 234.5,0 234.5,-30.5"/>
<text text-anchor="start" x="143.25" y="-17" font-family="Helvetica,sans-Serif" font-size="10.00">TestimonialDialog::</text>
<text text-anchor="middle" x="184.88" y="-5.75" font-family="Helvetica,sans-Serif" font-size="10.00">onSubmit</text>
</a>
</g>
</g>
<!-- Node1&#45;&gt;Node4 -->
<g id="edge3_Node000001_Node000004" class="edge">
<title>Node1&#45;&gt;Node4</title>
<g id="a_edge3_Node000001_Node000004"><a xlink:title=" ">
<path fill="none" stroke="#63b8ff" d="M259.21,-27.79C250.96,-26.38 242.67,-24.96 234.76,-23.61"/>
<polygon fill="#63b8ff" stroke="#63b8ff" points="258.43,-31.21 268.87,-29.44 259.61,-24.31 258.43,-31.21"/>
</a>
</g>
</g>
<!-- Node3 -->
<g id="Node000003" class="node">
<title>Node3</title>
<g id="a_Node000003"><a xlink:href="../../d4/d1f/class_testimonial_dialog.html#aa4e46d387d1d8fd4793ede8c2deb0fd4" target="_top" xlink:title="Constructs a TestimonialDialog.">
<polygon fill="white" stroke="#666666" points="99.25,-54.5 0,-54.5 0,-24 99.25,-24 99.25,-54.5"/>
<text text-anchor="start" x="8" y="-41" font-family="Helvetica,sans-Serif" font-size="10.00">TestimonialDialog::</text>
<text text-anchor="middle" x="49.62" y="-29.75" font-family="Helvetica,sans-Serif" font-size="10.00">TestimonialDialog</text>
</a>
</g>
</g>
<!-- Node2&#45;&gt;Node3 -->
<g id="edge2_Node000002_Node000003" class="edge">
<title>Node2&#45;&gt;Node3</title>
<g id="a_edge2_Node000002_Node000003"><a xlink:title=" ">
<path fill="none" stroke="#63b8ff" d="M123.97,-53.01C115.78,-51.47 107.45,-49.91 99.48,-48.42"/>
<polygon fill="#63b8ff" stroke="#63b8ff" points="123.05,-56.4 133.53,-54.8 124.34,-49.52 123.05,-56.4"/>
</a>
</g>
</g>
<!-- Node4&#45;&gt;Node3 -->
<g id="edge4_Node000004_Node000003" class="edge">
<title>Node4&#45;&gt;Node3</title>
<g id="a_edge4_Node000004_Node000003"><a xlink:title=" ">
<path fill="none" stroke="#63b8ff" d="M123.69,-26.09C115.59,-27.55 107.36,-29.03 99.48,-30.45"/>
<polygon fill="#63b8ff" stroke="#63b8ff" points="124.3,-29.54 133.52,-24.32 123.06,-22.65 124.3,-29.54"/>
</a>
</g>
</g>
</g>
</svg>
