<?xml version="1.0" encoding="UTF-8" standalone="no"?>
<!DOCTYPE svg PUBLIC "-//W3C//DTD SVG 1.1//EN"
 "http://www.w3.org/Graphics/SVG/1.1/DTD/svg11.dtd">
<!-- Generated by graphviz version 12.2.1 (20241206.2353)
 -->
<!-- Title: Shape::getPainter Pages: 1 -->
<svg width="228pt" height="286pt"
 viewBox="0.00 0.00 227.50 286.25" xmlns="http://www.w3.org/2000/svg" xmlns:xlink="http://www.w3.org/1999/xlink">
<g id="graph0" class="graph" transform="scale(1 1) rotate(0) translate(4 282.25)">
<title>Shape::getPainter</title>
<!-- Node1 -->
<g id="Node000001" class="node">
<title>Node1</title>
<g id="a_Node000001"><a xlink:title=" ">
<polygon fill="#999999" stroke="#666666" points="219.5,-148.25 125.5,-148.25 125.5,-129 219.5,-129 219.5,-148.25"/>
<text text-anchor="middle" x="172.5" y="-134.75" font-family="Helvetica,sans-Serif" font-size="10.00">Shape::getPainter</text>
</a>
</g>
</g>
<!-- Node2 -->
<g id="Node000002" class="node">
<title>Node2</title>
<g id="a_Node000002"><a xlink:href="../../d0/d88/class_circle.html#ac05f869cde1af46ac56ff2e0318980bb" target="_top" xlink:title="Draw &#45; Draws a circle at the assigned coords with the given radius.">
<polygon fill="white" stroke="#666666" points="80.12,-278.25 9.38,-278.25 9.38,-259 80.12,-259 80.12,-278.25"/>
<text text-anchor="middle" x="44.75" y="-264.75" font-family="Helvetica,sans-Serif" font-size="10.00">Circle::Draw</text>
</a>
</g>
</g>
<!-- Node1&#45;&gt;Node2 -->
<g id="edge1_Node000001_Node000002" class="edge">
<title>Node1&#45;&gt;Node2</title>
<g id="a_edge1_Node000001_Node000002"><a xlink:title=" ">
<path fill="none" stroke="#63b8ff" d="M161.28,-158.76C147.84,-183.43 122.07,-225.11 89.5,-250.62 85.49,-253.77 80.86,-256.44 76.14,-258.69"/>
<polygon fill="#63b8ff" stroke="#63b8ff" points="164.29,-160.55 165.86,-150.07 158.1,-157.29 164.29,-160.55"/>
</a>
</g>
</g>
<!-- Node3 -->
<g id="Node000003" class="node">
<title>Node3</title>
<g id="a_Node000003"><a xlink:href="../../dc/d25/class_ellipse.html#a76eaec1becd0860f48dd5c39bb00dabf" target="_top" xlink:title="Draw &#45; Draws the ellipse to the passed renderArea.">
<polygon fill="white" stroke="#666666" points="82,-241.25 7.5,-241.25 7.5,-222 82,-222 82,-241.25"/>
<text text-anchor="middle" x="44.75" y="-227.75" font-family="Helvetica,sans-Serif" font-size="10.00">Ellipse::Draw</text>
</a>
</g>
</g>
<!-- Node1&#45;&gt;Node3 -->
<g id="edge2_Node000001_Node000003" class="edge">
<title>Node1&#45;&gt;Node3</title>
<g id="a_edge2_Node000001_Node000003"><a xlink:title=" ">
<path fill="none" stroke="#63b8ff" d="M155.15,-156.87C139.56,-173.41 114.79,-197.57 89.5,-213.62 84.78,-216.62 79.49,-219.29 74.25,-221.6"/>
<polygon fill="#63b8ff" stroke="#63b8ff" points="157.57,-159.41 161.78,-149.68 152.42,-154.66 157.57,-159.41"/>
</a>
</g>
</g>
<!-- Node4 -->
<g id="Node000004" class="node">
<title>Node4</title>
<g id="a_Node000004"><a xlink:href="../../dd/db4/class_line.html#ad68aeb558c52eace258a55e24f45d11e" target="_top" xlink:title="Draw &#45; Draws a line from startPoint to endPoint.">
<polygon fill="white" stroke="#666666" points="76.38,-204.25 13.12,-204.25 13.12,-185 76.38,-185 76.38,-204.25"/>
<text text-anchor="middle" x="44.75" y="-190.75" font-family="Helvetica,sans-Serif" font-size="10.00">Line::Draw</text>
</a>
</g>
</g>
<!-- Node1&#45;&gt;Node4 -->
<g id="edge3_Node000001_Node000004" class="edge">
<title>Node1&#45;&gt;Node4</title>
<g id="a_edge3_Node000001_Node000004"><a xlink:title=" ">
<path fill="none" stroke="#63b8ff" d="M139.98,-153.62C124.79,-160.75 106.27,-169.29 89.5,-176.62 83.48,-179.26 76.95,-182 70.82,-184.53"/>
<polygon fill="#63b8ff" stroke="#63b8ff" points="141.46,-156.8 149.01,-149.37 138.47,-150.47 141.46,-156.8"/>
</a>
</g>
</g>
<!-- Node5 -->
<g id="Node000005" class="node">
<title>Node5</title>
<g id="a_Node000005"><a xlink:href="../../d1/db0/class_polygon.html#ae6ac66f1548f1d4baf2ceea00feea940" target="_top" xlink:title="Draw &#45; Draws a Polygon at the assigned coords with points in the pointsList.">
<polygon fill="white" stroke="#666666" points="85,-167.25 4.5,-167.25 4.5,-148 85,-148 85,-167.25"/>
<text text-anchor="middle" x="44.75" y="-153.75" font-family="Helvetica,sans-Serif" font-size="10.00">Polygon::Draw</text>
</a>
</g>
</g>
<!-- Node1&#45;&gt;Node5 -->
<g id="edge4_Node000001_Node000005" class="edge">
<title>Node1&#45;&gt;Node5</title>
<g id="a_edge4_Node000001_Node000005"><a xlink:title=" ">
<path fill="none" stroke="#63b8ff" d="M113.87,-147.33C104.25,-148.79 94.46,-150.27 85.42,-151.63"/>
<polygon fill="#63b8ff" stroke="#63b8ff" points="114.17,-150.83 123.54,-145.87 113.13,-143.91 114.17,-150.83"/>
</a>
</g>
</g>
<!-- Node6 -->
<g id="Node000006" class="node">
<title>Node6</title>
<g id="a_Node000006"><a xlink:href="../../d1/d42/class_polyline.html#a554e950db881f3d67e05f453c1f22e77" target="_top" xlink:title="Draw &#45; Draws a Polyline at the assigne coords with points in the pointsList.">
<polygon fill="white" stroke="#666666" points="84.62,-130.25 4.88,-130.25 4.88,-111 84.62,-111 84.62,-130.25"/>
<text text-anchor="middle" x="44.75" y="-116.75" font-family="Helvetica,sans-Serif" font-size="10.00">Polyline::Draw</text>
</a>
</g>
</g>
<!-- Node1&#45;&gt;Node6 -->
<g id="edge5_Node000001_Node000006" class="edge">
<title>Node1&#45;&gt;Node6</title>
<g id="a_edge5_Node000001_Node000006"><a xlink:title=" ">
<path fill="none" stroke="#63b8ff" d="M113.75,-130.36C104.02,-128.97 94.13,-127.55 85.01,-126.25"/>
<polygon fill="#63b8ff" stroke="#63b8ff" points="113.14,-133.81 123.53,-131.76 114.13,-126.88 113.14,-133.81"/>
</a>
</g>
</g>
<!-- Node7 -->
<g id="Node000007" class="node">
<title>Node7</title>
<g id="a_Node000007"><a xlink:href="../../d9/dc7/class_rectangle.html#a146fede0215e7c98fbc99b6c302ed743" target="_top" xlink:title="Draw &#45; Draws a Rectangle at the assigned coords.">
<polygon fill="white" stroke="#666666" points="89.5,-93.25 0,-93.25 0,-74 89.5,-74 89.5,-93.25"/>
<text text-anchor="middle" x="44.75" y="-79.75" font-family="Helvetica,sans-Serif" font-size="10.00">Rectangle::Draw</text>
</a>
</g>
</g>
<!-- Node1&#45;&gt;Node7 -->
<g id="edge6_Node000001_Node000007" class="edge">
<title>Node1&#45;&gt;Node7</title>
<g id="a_edge6_Node000001_Node000007"><a xlink:title=" ">
<path fill="none" stroke="#63b8ff" d="M139.31,-123.8C124.24,-116.94 106,-108.74 89.5,-101.62 83.32,-98.96 76.6,-96.15 70.34,-93.57"/>
<polygon fill="#63b8ff" stroke="#63b8ff" points="137.74,-126.93 148.29,-127.9 140.65,-120.56 137.74,-126.93"/>
</a>
</g>
</g>
<!-- Node8 -->
<g id="Node000008" class="node">
<title>Node8</title>
<g id="a_Node000008"><a xlink:href="../../d9/d0c/class_square.html#a76509a6807c851fb2fd88713cd856f64" target="_top" xlink:title="Draw &#45; Draws a Square at the assigned coords.">
<polygon fill="white" stroke="#666666" points="82.75,-56.25 6.75,-56.25 6.75,-37 82.75,-37 82.75,-56.25"/>
<text text-anchor="middle" x="44.75" y="-42.75" font-family="Helvetica,sans-Serif" font-size="10.00">Square::Draw</text>
</a>
</g>
</g>
<!-- Node1&#45;&gt;Node8 -->
<g id="edge7_Node000001_Node000008" class="edge">
<title>Node1&#45;&gt;Node8</title>
<g id="a_edge7_Node000001_Node000008"><a xlink:title=" ">
<path fill="none" stroke="#63b8ff" d="M154.84,-120.37C139.21,-104.07 114.55,-80.41 89.5,-64.62 84.77,-61.65 79.47,-58.98 74.23,-56.67"/>
<polygon fill="#63b8ff" stroke="#63b8ff" points="152.11,-122.57 161.51,-127.47 157.21,-117.78 152.11,-122.57"/>
</a>
</g>
</g>
<!-- Node9 -->
<g id="Node000009" class="node">
<title>Node9</title>
<g id="a_Node000009"><a xlink:href="../../da/d0e/class_text.html#aac7609b2292703561a26921d23aa2541" target="_top" xlink:title="Draw &#45; Draws the text to the assigned coords.">
<polygon fill="white" stroke="#666666" points="76.75,-19.25 12.75,-19.25 12.75,0 76.75,0 76.75,-19.25"/>
<text text-anchor="middle" x="44.75" y="-5.75" font-family="Helvetica,sans-Serif" font-size="10.00">Text::Draw</text>
</a>
</g>
</g>
<!-- Node1&#45;&gt;Node9 -->
<g id="edge8_Node000001_Node000009" class="edge">
<title>Node1&#45;&gt;Node9</title>
<g id="a_edge8_Node000001_Node000009"><a xlink:title=" ">
<path fill="none" stroke="#63b8ff" d="M161.23,-118.67C147.75,-94.22 121.94,-52.93 89.5,-27.62 85.48,-24.49 80.85,-21.82 76.13,-19.57"/>
<polygon fill="#63b8ff" stroke="#63b8ff" points="158.03,-120.1 165.83,-127.27 164.2,-116.8 158.03,-120.1"/>
</a>
</g>
</g>
</g>
</svg>
