<?xml version="1.0" encoding="UTF-8" standalone="no"?>
<!DOCTYPE svg PUBLIC "-//W3C//DTD SVG 1.1//EN"
 "http://www.w3.org/Graphics/SVG/1.1/DTD/svg11.dtd">
<!-- Generated by graphviz version 12.2.1 (20241206.2353)
 -->
<!-- Title: Shape::Move Pages: 1 -->
<svg width="188pt" height="64pt"
 viewBox="0.00 0.00 187.75 64.25" xmlns="http://www.w3.org/2000/svg" xmlns:xlink="http://www.w3.org/1999/xlink">
<g id="graph0" class="graph" transform="scale(1 1) rotate(0) translate(4 60.25)">
<title>Shape::Move</title>
<!-- Node1 -->
<g id="Node000001" class="node">
<title>Node1</title>
<g id="a_Node000001"><a xlink:title="Move &#45; Moves the shape to the x and y coords.">
<polygon fill="#999999" stroke="#666666" points="73.75,-37.25 0,-37.25 0,-18 73.75,-18 73.75,-37.25"/>
<text text-anchor="middle" x="36.88" y="-23.75" font-family="Helvetica,sans-Serif" font-size="10.00">Shape::Move</text>
</a>
</g>
</g>
<!-- Node2 -->
<g id="Node000002" class="node">
<title>Node2</title>
<g id="a_Node000002"><a xlink:href="../../d7/da7/class_shape.html#a2d8fd6861bf7906e0152a699ce6054c8" target="_top" xlink:title=" ">
<polygon fill="white" stroke="#666666" points="179.75,-56.25 109.75,-56.25 109.75,-37 179.75,-37 179.75,-56.25"/>
<text text-anchor="middle" x="144.75" y="-42.75" font-family="Helvetica,sans-Serif" font-size="10.00">Shape::setX</text>
</a>
</g>
</g>
<!-- Node1&#45;&gt;Node2 -->
<g id="edge1_Node000001_Node000002" class="edge">
<title>Node1&#45;&gt;Node2</title>
<g id="a_edge1_Node000001_Node000002"><a xlink:title=" ">
<path fill="none" stroke="#63b8ff" d="M74.02,-34.11C81.83,-35.51 90.2,-37.01 98.32,-38.47"/>
<polygon fill="#63b8ff" stroke="#63b8ff" points="97.61,-41.9 108.07,-40.22 98.84,-35.01 97.61,-41.9"/>
</a>
</g>
</g>
<!-- Node3 -->
<g id="Node000003" class="node">
<title>Node3</title>
<g id="a_Node000003"><a xlink:href="../../d7/da7/class_shape.html#aa2b8845b186bf95781ca5d5e22316343" target="_top" xlink:title=" ">
<polygon fill="white" stroke="#666666" points="179.75,-19.25 109.75,-19.25 109.75,0 179.75,0 179.75,-19.25"/>
<text text-anchor="middle" x="144.75" y="-5.75" font-family="Helvetica,sans-Serif" font-size="10.00">Shape::setY</text>
</a>
</g>
</g>
<!-- Node1&#45;&gt;Node3 -->
<g id="edge2_Node000001_Node000003" class="edge">
<title>Node1&#45;&gt;Node3</title>
<g id="a_edge2_Node000001_Node000003"><a xlink:title=" ">
<path fill="none" stroke="#63b8ff" d="M74.02,-21.48C81.83,-20.15 90.2,-18.73 98.32,-17.35"/>
<polygon fill="#63b8ff" stroke="#63b8ff" points="98.79,-20.82 108.07,-15.69 97.62,-13.92 98.79,-20.82"/>
</a>
</g>
</g>
</g>
</svg>
