<?xml version="1.0" encoding="UTF-8" standalone="no"?>
<!DOCTYPE svg PUBLIC "-//W3C//DTD SVG 1.1//EN"
 "http://www.w3.org/Graphics/SVG/1.1/DTD/svg11.dtd">
<!-- Generated by graphviz version 12.2.1 (20241206.2353)
 -->
<!-- Title: Shape::CreatePenChild Pages: 1 -->
<svg width="273pt" height="249pt"
 viewBox="0.00 0.00 273.25 249.25" xmlns="http://www.w3.org/2000/svg" xmlns:xlink="http://www.w3.org/1999/xlink">
<g id="graph0" class="graph" transform="scale(1 1) rotate(0) translate(4 245.25)">
<title>Shape::CreatePenChild</title>
<!-- Node1 -->
<g id="Node000001" class="node">
<title>Node1</title>
<g id="a_Node000001"><a xlink:title="CreatePenChild &#45; Adds pen data to penItems vector for a QTreeWidget.">
<polygon fill="#999999" stroke="#666666" points="265.25,-130.25 146.5,-130.25 146.5,-111 265.25,-111 265.25,-130.25"/>
<text text-anchor="middle" x="205.88" y="-116.75" font-family="Helvetica,sans-Serif" font-size="10.00">Shape::CreatePenChild</text>
</a>
</g>
</g>
<!-- Node2 -->
<g id="Node000002" class="node">
<title>Node2</title>
<g id="a_Node000002"><a xlink:href="../../d0/d88/class_circle.html#a782690f42da545ac8e35d3732ed76f42" target="_top" xlink:title="Circle Constructor.">
<polygon fill="white" stroke="#666666" points="91.75,-241.25 18.75,-241.25 18.75,-222 91.75,-222 91.75,-241.25"/>
<text text-anchor="middle" x="55.25" y="-227.75" font-family="Helvetica,sans-Serif" font-size="10.00">Circle::Circle</text>
</a>
</g>
</g>
<!-- Node1&#45;&gt;Node2 -->
<g id="edge1_Node000001_Node000002" class="edge">
<title>Node1&#45;&gt;Node2</title>
<g id="a_edge1_Node000001_Node000002"><a xlink:title=" ">
<path fill="none" stroke="#63b8ff" d="M190.35,-139.4C173.3,-160.26 143.19,-193.62 110.5,-213.62 104.83,-217.1 98.41,-219.98 92.02,-222.35"/>
<polygon fill="#63b8ff" stroke="#63b8ff" points="192.98,-141.72 196.48,-131.72 187.5,-137.36 192.98,-141.72"/>
</a>
</g>
</g>
<!-- Node3 -->
<g id="Node000003" class="node">
<title>Node3</title>
<g id="a_Node000003"><a xlink:href="../../dc/d25/class_ellipse.html#a6fd6f0bad023ecfd3d607142c21846c4" target="_top" xlink:title="Ellipse Constructor.">
<polygon fill="white" stroke="#666666" points="95.5,-204.25 15,-204.25 15,-185 95.5,-185 95.5,-204.25"/>
<text text-anchor="middle" x="55.25" y="-190.75" font-family="Helvetica,sans-Serif" font-size="10.00">Ellipse::Ellipse</text>
</a>
</g>
</g>
<!-- Node1&#45;&gt;Node3 -->
<g id="edge2_Node000001_Node000003" class="edge">
<title>Node1&#45;&gt;Node3</title>
<g id="a_edge2_Node000001_Node000003"><a xlink:title=" ">
<path fill="none" stroke="#63b8ff" d="M180.93,-136.79C162.31,-148.88 135.51,-165.22 110.5,-176.62 104.09,-179.55 97.06,-182.24 90.25,-184.59"/>
<polygon fill="#63b8ff" stroke="#63b8ff" points="182.68,-139.83 189.11,-131.41 178.83,-133.98 182.68,-139.83"/>
</a>
</g>
</g>
<!-- Node4 -->
<g id="Node000004" class="node">
<title>Node4</title>
<g id="a_Node000004"><a xlink:href="../../dd/db4/class_line.html#aab2a9c230d1bbb8a9e07f4c554e00c26" target="_top" xlink:title="Line Constructor.">
<polygon fill="white" stroke="#666666" points="84.25,-167.25 26.25,-167.25 26.25,-148 84.25,-148 84.25,-167.25"/>
<text text-anchor="middle" x="55.25" y="-153.75" font-family="Helvetica,sans-Serif" font-size="10.00">Line::Line</text>
</a>
</g>
</g>
<!-- Node1&#45;&gt;Node4 -->
<g id="edge3_Node000001_Node000004" class="edge">
<title>Node1&#45;&gt;Node4</title>
<g id="a_edge3_Node000001_Node000004"><a xlink:title=" ">
<path fill="none" stroke="#63b8ff" d="M153.26,-133.48C130.22,-139.21 103.96,-145.75 84.58,-150.57"/>
<polygon fill="#63b8ff" stroke="#63b8ff" points="153.94,-136.91 162.79,-131.1 152.24,-130.12 153.94,-136.91"/>
</a>
</g>
</g>
<!-- Node5 -->
<g id="Node000005" class="node">
<title>Node5</title>
<g id="a_Node000005"><a xlink:href="../../d1/db0/class_polygon.html#a7ab0204bb62eddea1fb659e8a6ecd202" target="_top" xlink:title="Polygon Constructor.">
<polygon fill="white" stroke="#666666" points="101.5,-130.25 9,-130.25 9,-111 101.5,-111 101.5,-130.25"/>
<text text-anchor="middle" x="55.25" y="-116.75" font-family="Helvetica,sans-Serif" font-size="10.00">Polygon::Polygon</text>
</a>
</g>
</g>
<!-- Node1&#45;&gt;Node5 -->
<g id="edge4_Node000001_Node000005" class="edge">
<title>Node1&#45;&gt;Node5</title>
<g id="a_edge4_Node000001_Node000005"><a xlink:title=" ">
<path fill="none" stroke="#63b8ff" d="M134.94,-120.62C123.66,-120.62 112.24,-120.62 101.73,-120.62"/>
<polygon fill="#63b8ff" stroke="#63b8ff" points="134.62,-124.13 144.62,-120.63 134.62,-117.13 134.62,-124.13"/>
</a>
</g>
</g>
<!-- Node6 -->
<g id="Node000006" class="node">
<title>Node6</title>
<g id="a_Node000006"><a xlink:href="../../d1/d42/class_polyline.html#a27e879d516bc07264e2e871211df3a1f" target="_top" xlink:title="Polyline.">
<polygon fill="white" stroke="#666666" points="100.75,-93.25 9.75,-93.25 9.75,-74 100.75,-74 100.75,-93.25"/>
<text text-anchor="middle" x="55.25" y="-79.75" font-family="Helvetica,sans-Serif" font-size="10.00">Polyline::Polyline</text>
</a>
</g>
</g>
<!-- Node1&#45;&gt;Node6 -->
<g id="edge5_Node000001_Node000006" class="edge">
<title>Node1&#45;&gt;Node6</title>
<g id="a_edge5_Node000001_Node000006"><a xlink:title=" ">
<path fill="none" stroke="#63b8ff" d="M153.09,-107.73C134.66,-103.14 114.17,-98.05 96.81,-93.72"/>
<polygon fill="#63b8ff" stroke="#63b8ff" points="152.24,-111.13 162.79,-110.15 153.94,-104.34 152.24,-111.13"/>
</a>
</g>
</g>
<!-- Node7 -->
<g id="Node000007" class="node">
<title>Node7</title>
<g id="a_Node000007"><a xlink:href="../../d9/dc7/class_rectangle.html#af84479273a72d93294cd210732117dd7" target="_top" xlink:title="Rectangle.">
<polygon fill="white" stroke="#666666" points="110.5,-56.25 0,-56.25 0,-37 110.5,-37 110.5,-56.25"/>
<text text-anchor="middle" x="55.25" y="-42.75" font-family="Helvetica,sans-Serif" font-size="10.00">Rectangle::Rectangle</text>
</a>
</g>
</g>
<!-- Node1&#45;&gt;Node7 -->
<g id="edge6_Node000001_Node000007" class="edge">
<title>Node1&#45;&gt;Node7</title>
<g id="a_edge6_Node000001_Node000007"><a xlink:title=" ">
<path fill="none" stroke="#63b8ff" d="M180.93,-104.46C162.31,-92.37 135.51,-76.03 110.5,-64.62 104.09,-61.7 97.06,-59.01 90.25,-56.66"/>
<polygon fill="#63b8ff" stroke="#63b8ff" points="178.83,-107.27 189.11,-109.84 182.68,-101.42 178.83,-107.27"/>
</a>
</g>
</g>
<!-- Node8 -->
<g id="Node000008" class="node">
<title>Node8</title>
<g id="a_Node000008"><a xlink:href="../../d9/d0c/class_square.html#a4b6e69fc0dda7084eb3db5d3fe92dfb3" target="_top" xlink:title="Square.">
<polygon fill="white" stroke="#666666" points="97,-19.25 13.5,-19.25 13.5,0 97,0 97,-19.25"/>
<text text-anchor="middle" x="55.25" y="-5.75" font-family="Helvetica,sans-Serif" font-size="10.00">Square::Square</text>
</a>
</g>
</g>
<!-- Node1&#45;&gt;Node8 -->
<g id="edge7_Node000001_Node000008" class="edge">
<title>Node1&#45;&gt;Node8</title>
<g id="a_edge7_Node000001_Node000008"><a xlink:title=" ">
<path fill="none" stroke="#63b8ff" d="M190.35,-101.85C173.3,-80.99 143.19,-47.63 110.5,-27.62 105.42,-24.52 99.74,-21.88 94.03,-19.66"/>
<polygon fill="#63b8ff" stroke="#63b8ff" points="187.5,-103.89 196.48,-109.53 192.98,-99.53 187.5,-103.89"/>
</a>
</g>
</g>
</g>
</svg>
