<?xml version="1.0" encoding="UTF-8" standalone="no"?>
<!DOCTYPE svg PUBLIC "-//W3C//DTD SVG 1.1//EN"
 "http://www.w3.org/Graphics/SVG/1.1/DTD/svg11.dtd">
<!-- Generated by graphviz version 12.2.1 (20241206.2353)
 -->
<!-- Title: Shape::CreateParentItem Pages: 1 -->
<svg width="282pt" height="286pt"
 viewBox="0.00 0.00 281.50 286.25" xmlns="http://www.w3.org/2000/svg" xmlns:xlink="http://www.w3.org/1999/xlink">

<svg id="main" version="1.1" xmlns="http://www.w3.org/2000/svg" xmlns:xlink="http://www.w3.org/1999/xlink" xml:space="preserve">

<style type="text/css"><![CDATA[
.node, .edge {opacity: 0.7;}
.node.selected, .edge.selected {opacity: 1;}
.edge:hover path { stroke: red; }
.edge:hover polygon { stroke: red; fill: red; }
]]></style>
<script type="application/ecmascript" xlink:href="../../svg.min.js"/>
<svg id="graph" class="graph">
<g id="graph0" class="graph" transform="scale(1 1) rotate(0) translate(4 282.25)">
<title>Shape::CreateParentItem</title>
<!-- Node1 -->
<g id="Node000001" class="node">
<title>Node1</title>
<g id="a_Node000001"><a xlink:title="CreateParentItem &#45; Adds data cooresponding to all shapes to parentItem for a QTreeWidget.">
<polygon fill="#999999" stroke="#666666" points="273.5,-148.25 146.5,-148.25 146.5,-129 273.5,-129 273.5,-148.25"/>
<text text-anchor="middle" x="210" y="-134.75" font-family="Helvetica,sans-Serif" font-size="10.00">Shape::CreateParentItem</text>
</a>
</g>
</g>
<!-- Node2 -->
<g id="Node000002" class="node">
<title>Node2</title>
<g id="a_Node000002"><a xlink:href="../../d0/d88/class_circle.html#a782690f42da545ac8e35d3732ed76f42" target="_top" xlink:title="Circle Constructor.">
<polygon fill="white" stroke="#666666" points="91.75,-278.25 18.75,-278.25 18.75,-259 91.75,-259 91.75,-278.25"/>
<text text-anchor="middle" x="55.25" y="-264.75" font-family="Helvetica,sans-Serif" font-size="10.00">Circle::Circle</text>
</a>
</g>
</g>
<!-- Node1&#45;&gt;Node2 -->
<g id="edge1_Node000001_Node000002" class="edge">
<title>Node1&#45;&gt;Node2</title>
<g id="a_edge1_Node000001_Node000002"><a xlink:title=" ">
<path fill="none" stroke="#63b8ff" d="M196.75,-158.03C180.12,-182.89 148.09,-225.73 110.5,-250.62 104.96,-254.3 98.6,-257.28 92.23,-259.68"/>
<polygon fill="#63b8ff" stroke="#63b8ff" points="199.56,-160.13 202.09,-149.85 193.69,-156.31 199.56,-160.13"/>
</a>
</g>
</g>
<!-- Node3 -->
<g id="Node000003" class="node">
<title>Node3</title>
<g id="a_Node000003"><a xlink:href="../../dc/d25/class_ellipse.html#a6fd6f0bad023ecfd3d607142c21846c4" target="_top" xlink:title="Ellipse Constructor.">
<polygon fill="white" stroke="#666666" points="95.5,-241.25 15,-241.25 15,-222 95.5,-222 95.5,-241.25"/>
<text text-anchor="middle" x="55.25" y="-227.75" font-family="Helvetica,sans-Serif" font-size="10.00">Ellipse::Ellipse</text>
</a>
</g>
</g>
<!-- Node1&#45;&gt;Node3 -->
<g id="edge2_Node000001_Node000003" class="edge">
<title>Node1&#45;&gt;Node3</title>
<g id="a_edge2_Node000001_Node000003"><a xlink:title=" ">
<path fill="none" stroke="#63b8ff" d="M190,-156.18C171.06,-172.88 140.56,-197.76 110.5,-213.62 104.8,-216.64 98.49,-219.28 92.26,-221.54"/>
<polygon fill="#63b8ff" stroke="#63b8ff" points="192.08,-159 197.18,-149.72 187.41,-153.8 192.08,-159"/>
</a>
</g>
</g>
<!-- Node4 -->
<g id="Node000004" class="node">
<title>Node4</title>
<g id="a_Node000004"><a xlink:href="../../dd/db4/class_line.html#aab2a9c230d1bbb8a9e07f4c554e00c26" target="_top" xlink:title="Line Constructor.">
<polygon fill="white" stroke="#666666" points="84.25,-204.25 26.25,-204.25 26.25,-185 84.25,-185 84.25,-204.25"/>
<text text-anchor="middle" x="55.25" y="-190.75" font-family="Helvetica,sans-Serif" font-size="10.00">Line::Line</text>
</a>
</g>
</g>
<!-- Node1&#45;&gt;Node4 -->
<g id="edge3_Node000001_Node000004" class="edge">
<title>Node1&#45;&gt;Node4</title>
<g id="a_edge3_Node000001_Node000004"><a xlink:title=" ">
<path fill="none" stroke="#63b8ff" d="M173.35,-152.85C154.71,-160.17 131.46,-169.11 110.5,-176.62 102.09,-179.64 92.89,-182.76 84.49,-185.54"/>
<polygon fill="#63b8ff" stroke="#63b8ff" points="174.6,-156.12 182.61,-149.2 172.03,-149.61 174.6,-156.12"/>
</a>
</g>
</g>
<!-- Node5 -->
<g id="Node000005" class="node">
<title>Node5</title>
<g id="a_Node000005"><a xlink:href="../../d1/db0/class_polygon.html#a7ab0204bb62eddea1fb659e8a6ecd202" target="_top" xlink:title="Polygon Constructor.">
<polygon fill="white" stroke="#666666" points="101.5,-167.25 9,-167.25 9,-148 101.5,-148 101.5,-167.25"/>
<text text-anchor="middle" x="55.25" y="-153.75" font-family="Helvetica,sans-Serif" font-size="10.00">Polygon::Polygon</text>
</a>
</g>
</g>
<!-- Node1&#45;&gt;Node5 -->
<g id="edge4_Node000001_Node000005" class="edge">
<title>Node1&#45;&gt;Node5</title>
<g id="a_edge4_Node000001_Node000005"><a xlink:title=" ">
<path fill="none" stroke="#63b8ff" d="M135.08,-147.82C123.68,-149.24 112.19,-150.67 101.66,-151.98"/>
<polygon fill="#63b8ff" stroke="#63b8ff" points="135.44,-151.3 144.93,-146.59 134.57,-144.36 135.44,-151.3"/>
</a>
</g>
</g>
<!-- Node6 -->
<g id="Node000006" class="node">
<title>Node6</title>
<g id="a_Node000006"><a xlink:href="../../d1/d42/class_polyline.html#a27e879d516bc07264e2e871211df3a1f" target="_top" xlink:title="Polyline.">
<polygon fill="white" stroke="#666666" points="100.75,-130.25 9.75,-130.25 9.75,-111 100.75,-111 100.75,-130.25"/>
<text text-anchor="middle" x="55.25" y="-116.75" font-family="Helvetica,sans-Serif" font-size="10.00">Polyline::Polyline</text>
</a>
</g>
</g>
<!-- Node1&#45;&gt;Node6 -->
<g id="edge5_Node000001_Node000006" class="edge">
<title>Node1&#45;&gt;Node6</title>
<g id="a_edge5_Node000001_Node000006"><a xlink:title=" ">
<path fill="none" stroke="#63b8ff" d="M135.32,-129.94C123.67,-128.57 111.93,-127.19 101.2,-125.92"/>
<polygon fill="#63b8ff" stroke="#63b8ff" points="134.59,-133.38 144.93,-131.07 135.41,-126.43 134.59,-133.38"/>
</a>
</g>
</g>
<!-- Node7 -->
<g id="Node000007" class="node">
<title>Node7</title>
<g id="a_Node000007"><a xlink:href="../../d9/dc7/class_rectangle.html#af84479273a72d93294cd210732117dd7" target="_top" xlink:title="Rectangle.">
<polygon fill="white" stroke="#666666" points="110.5,-93.25 0,-93.25 0,-74 110.5,-74 110.5,-93.25"/>
<text text-anchor="middle" x="55.25" y="-79.75" font-family="Helvetica,sans-Serif" font-size="10.00">Rectangle::Rectangle</text>
</a>
</g>
</g>
<!-- Node1&#45;&gt;Node7 -->
<g id="edge6_Node000001_Node000007" class="edge">
<title>Node1&#45;&gt;Node7</title>
<g id="a_edge6_Node000001_Node000007"><a xlink:title=" ">
<path fill="none" stroke="#63b8ff" d="M172.55,-124.55C154.03,-117.49 131.13,-108.92 110.5,-101.62 103.02,-98.98 94.91,-96.23 87.3,-93.7"/>
<polygon fill="#63b8ff" stroke="#63b8ff" points="171.17,-127.77 181.76,-128.07 173.67,-121.23 171.17,-127.77"/>
</a>
</g>
</g>
<!-- Node8 -->
<g id="Node000008" class="node">
<title>Node8</title>
<g id="a_Node000008"><a xlink:href="../../d9/d0c/class_square.html#a4b6e69fc0dda7084eb3db5d3fe92dfb3" target="_top" xlink:title="Square.">
<polygon fill="white" stroke="#666666" points="97,-56.25 13.5,-56.25 13.5,-37 97,-37 97,-56.25"/>
<text text-anchor="middle" x="55.25" y="-42.75" font-family="Helvetica,sans-Serif" font-size="10.00">Square::Square</text>
</a>
</g>
</g>
<!-- Node1&#45;&gt;Node8 -->
<g id="edge7_Node000001_Node000008" class="edge">
<title>Node1&#45;&gt;Node8</title>
<g id="a_edge7_Node000001_Node000008"><a xlink:title=" ">
<path fill="none" stroke="#63b8ff" d="M189.7,-121.1C170.71,-104.63 140.33,-80.24 110.5,-64.62 104.79,-61.63 98.48,-59 92.24,-56.74"/>
<polygon fill="#63b8ff" stroke="#63b8ff" points="187.34,-123.69 197.15,-127.69 191.97,-118.44 187.34,-123.69"/>
</a>
</g>
</g>
<!-- Node9 -->
<g id="Node000009" class="node">
<title>Node9</title>
<g id="a_Node000009"><a xlink:href="../../da/d0e/class_text.html#a3c521086182cf14349dc8c120afd9d09" target="_top" xlink:title="Text.">
<polygon fill="white" stroke="#666666" points="85,-19.25 25.5,-19.25 25.5,0 85,0 85,-19.25"/>
<text text-anchor="middle" x="55.25" y="-5.75" font-family="Helvetica,sans-Serif" font-size="10.00">Text::Text</text>
</a>
</g>
</g>
<!-- Node1&#45;&gt;Node9 -->
<g id="edge8_Node000001_Node000009" class="edge">
<title>Node1&#45;&gt;Node9</title>
<g id="a_edge8_Node000001_Node000009"><a xlink:title=" ">
<path fill="none" stroke="#63b8ff" d="M196.71,-119.4C180.03,-94.77 147.96,-52.31 110.5,-27.62 102.96,-22.66 93.93,-18.95 85.41,-16.23"/>
<polygon fill="#63b8ff" stroke="#63b8ff" points="193.63,-121.08 202.06,-127.5 199.47,-117.23 193.63,-121.08"/>
</a>
</g>
</g>
</g>
</svg>
</svg>

<style type='text/css'>
<![CDATA[
[data-mouse-over-selected='false'] { opacity: 0.7; }
[data-mouse-over-selected='true']  { opacity: 1.0; }
]]>
</style>
<script type="application/ecmascript"><![CDATA[
document.addEventListener('DOMContentLoaded', (event) => {
  highlightEdges();
  highlightAdjacentNodes();
});
]]></script>
</svg>
