<?xml version="1.0" encoding="UTF-8" standalone="no"?>
<!DOCTYPE svg PUBLIC "-//W3C//DTD SVG 1.1//EN"
 "http://www.w3.org/Graphics/SVG/1.1/DTD/svg11.dtd">
<!-- Generated by graphviz version 12.2.1 (20241206.2353)
 -->
<!-- Title: Shape::getPenColor Pages: 1 -->
<svg width="895pt" height="431pt"
 viewBox="0.00 0.00 894.50 430.50" xmlns="http://www.w3.org/2000/svg" xmlns:xlink="http://www.w3.org/1999/xlink">
<g id="graph0" class="graph" transform="scale(1 1) rotate(0) translate(4 426.5)">
<title>Shape::getPenColor</title>
<!-- Node1 -->
<g id="Node000001" class="node">
<title>Node1</title>
<g id="a_Node000001"><a xlink:title=" ">
<polygon fill="#999999" stroke="#666666" points="886.5,-176.88 782.75,-176.88 782.75,-157.62 886.5,-157.62 886.5,-176.88"/>
<text text-anchor="middle" x="834.62" y="-163.38" font-family="Helvetica,sans-Serif" font-size="10.00">Shape::getPenColor</text>
</a>
</g>
</g>
<!-- Node2 -->
<g id="Node000002" class="node">
<title>Node2</title>
<g id="a_Node000002"><a xlink:href="../../dc/db7/class_parser.html#a8f8932bed758cd3e61de3669fdef1110" target="_top" xlink:title="Appends common shape properties (ID, Type, Dimensions, Pen properties) to a JSON string.">
<polygon fill="white" stroke="#666666" points="746.75,-207.88 574.75,-207.88 574.75,-188.62 746.75,-188.62 746.75,-207.88"/>
<text text-anchor="middle" x="660.75" y="-194.38" font-family="Helvetica,sans-Serif" font-size="10.00">Parser::AppendCommonShapeData</text>
</a>
</g>
</g>
<!-- Node1&#45;&gt;Node2 -->
<g id="edge1_Node000001_Node000002" class="edge">
<title>Node1&#45;&gt;Node2</title>
<g id="a_edge1_Node000001_Node000002"><a xlink:title=" ">
<path fill="none" stroke="#63b8ff" d="M771.26,-178.5C753.77,-181.65 734.86,-185.06 717.76,-188.15"/>
<polygon fill="#63b8ff" stroke="#63b8ff" points="771.81,-181.96 781.03,-176.74 770.57,-175.07 771.81,-181.96"/>
</a>
</g>
</g>
<!-- Node4 -->
<g id="Node000004" class="node">
<title>Node4</title>
<g id="a_Node000004"><a xlink:href="../../d9/dc6/class_main_window.html#a5ff173340d6b138bee993d26454d2aaa" target="_top" xlink:title="Populates the tree widget with details of the current shapes and sets up editing controls.">
<polygon fill="white" stroke="#666666" points="715.62,-161.5 605.88,-161.5 605.88,-131 715.62,-131 715.62,-161.5"/>
<text text-anchor="start" x="613.88" y="-148" font-family="Helvetica,sans-Serif" font-size="10.00">MainWindow::shapes</text>
<text text-anchor="middle" x="660.75" y="-136.75" font-family="Helvetica,sans-Serif" font-size="10.00">_to_treeWidget</text>
</a>
</g>
</g>
<!-- Node1&#45;&gt;Node4 -->
<g id="edge3_Node000001_Node000004" class="edge">
<title>Node1&#45;&gt;Node4</title>
<g id="a_edge3_Node000001_Node000004"><a xlink:title=" ">
<path fill="none" stroke="#63b8ff" d="M771.19,-159.62C753.09,-157.41 733.49,-155.02 715.94,-152.87"/>
<polygon fill="#63b8ff" stroke="#63b8ff" points="770.67,-163.08 781.02,-160.82 771.52,-156.14 770.67,-163.08"/>
</a>
</g>
</g>
<!-- Node3 -->
<g id="Node000003" class="node">
<title>Node3</title>
<g id="a_Node000003"><a xlink:href="../../dc/db7/class_parser.html#ac0dc74d228421b62ece9d9e93511509e" target="_top" xlink:title="Converts a vector of Shape pointers into a JSON string representation.">
<polygon fill="white" stroke="#666666" points="510.25,-232.88 395.25,-232.88 395.25,-213.62 510.25,-213.62 510.25,-232.88"/>
<text text-anchor="middle" x="452.75" y="-219.38" font-family="Helvetica,sans-Serif" font-size="10.00">Parser::ShapesToJson</text>
</a>
</g>
</g>
<!-- Node2&#45;&gt;Node3 -->
<g id="edge2_Node000002_Node000003" class="edge">
<title>Node2&#45;&gt;Node3</title>
<g id="a_edge2_Node000002_Node000003"><a xlink:title=" ">
<path fill="none" stroke="#63b8ff" d="M565.33,-209.71C546.68,-211.97 527.65,-214.28 510.72,-216.34"/>
<polygon fill="#63b8ff" stroke="#63b8ff" points="565.55,-213.21 575.05,-208.53 564.7,-206.26 565.55,-213.21"/>
</a>
</g>
</g>
<!-- Node5 -->
<g id="Node000005" class="node">
<title>Node5</title>
<g id="a_Node000005"><a xlink:href="../../d9/dc6/class_main_window.html#afe8619a02bba82d0ad5e05065d6c0ea1" target="_top" xlink:title="Adds a given shape to the properties tree widget and emits shapeAdded signal.">
<polygon fill="white" stroke="#666666" points="528.62,-195.88 376.88,-195.88 376.88,-176.62 528.62,-176.62 528.62,-195.88"/>
<text text-anchor="middle" x="452.75" y="-182.38" font-family="Helvetica,sans-Serif" font-size="10.00">MainWindow::addToShapeTree</text>
</a>
</g>
</g>
<!-- Node4&#45;&gt;Node5 -->
<g id="edge4_Node000004_Node000005" class="edge">
<title>Node4&#45;&gt;Node5</title>
<g id="a_edge4_Node000004_Node000005"><a xlink:title=" ">
<path fill="none" stroke="#63b8ff" d="M594.48,-158.92C565.84,-164.49 532.67,-170.93 505.74,-176.16"/>
<polygon fill="#63b8ff" stroke="#63b8ff" points="594.99,-162.39 604.14,-157.05 593.66,-155.52 594.99,-162.39"/>
</a>
</g>
</g>
<!-- Node14 -->
<g id="Node000014" class="node">
<title>Node14</title>
<g id="a_Node000014"><a xlink:href="../../d9/dc6/class_main_window.html#a841a40f673ad191cd737b49591568446" target="_top" xlink:title="Slot triggered when the render area&#39;s content has changed, requiring a UI update.">
<polygon fill="white" stroke="#666666" points="523,-143.5 382.5,-143.5 382.5,-113 523,-113 523,-143.5"/>
<text text-anchor="start" x="390.5" y="-130" font-family="Helvetica,sans-Serif" font-size="10.00">MainWindow::onRenderArea</text>
<text text-anchor="middle" x="452.75" y="-118.75" font-family="Helvetica,sans-Serif" font-size="10.00">Changed</text>
</a>
</g>
</g>
<!-- Node4&#45;&gt;Node14 -->
<g id="edge13_Node000004_Node000014" class="edge">
<title>Node4&#45;&gt;Node14</title>
<g id="a_edge13_Node000004_Node000014"><a xlink:title=" ">
<path fill="none" stroke="#63b8ff" d="M594.43,-140.54C571.81,-138.57 546.38,-136.34 523.42,-134.34"/>
<polygon fill="#63b8ff" stroke="#63b8ff" points="593.85,-144.01 604.12,-141.39 594.46,-137.03 593.85,-144.01"/>
</a>
</g>
</g>
<!-- Node18 -->
<g id="Node000018" class="node">
<title>Node18</title>
<g id="a_Node000018"><a xlink:href="../../d9/dc6/class_main_window.html#a04d9898f7479308e0e7e2b8796426c2b" target="_top" xlink:title="Slot triggered upon successful user authentication. Updates UI with user info.">
<polygon fill="white" stroke="#666666" points="538.75,-64.88 366.75,-64.88 366.75,-45.62 538.75,-45.62 538.75,-64.88"/>
<text text-anchor="middle" x="452.75" y="-51.38" font-family="Helvetica,sans-Serif" font-size="10.00">MainWindow::onUserAuthentication</text>
</a>
</g>
</g>
<!-- Node4&#45;&gt;Node18 -->
<g id="edge17_Node000004_Node000018" class="edge">
<title>Node4&#45;&gt;Node18</title>
<g id="a_edge17_Node000004_Node000018"><a xlink:title=" ">
<path fill="none" stroke="#63b8ff" d="M613.95,-126.02C571.33,-107.19 509.6,-79.92 476.6,-65.34"/>
<polygon fill="#63b8ff" stroke="#63b8ff" points="612.39,-129.16 622.95,-129.99 615.22,-122.75 612.39,-129.16"/>
</a>
</g>
</g>
<!-- Node6 -->
<g id="Node000006" class="node">
<title>Node6</title>
<g id="a_Node000006"><a xlink:href="../../d9/dc6/class_main_window.html#a9b9bf9b3d640e2bcace3cbfdc5d75d8b" target="_top" xlink:title="Slot triggered to create and add a new Circle shape.">
<polygon fill="white" stroke="#666666" points="328.5,-422.5 190.25,-422.5 190.25,-392 328.5,-392 328.5,-422.5"/>
<text text-anchor="start" x="198.25" y="-409" font-family="Helvetica,sans-Serif" font-size="10.00">MainWindow::on_actionnew</text>
<text text-anchor="middle" x="259.38" y="-397.75" font-family="Helvetica,sans-Serif" font-size="10.00">_circle_button_triggered</text>
</a>
</g>
</g>
<!-- Node5&#45;&gt;Node6 -->
<g id="edge5_Node000005_Node000006" class="edge">
<title>Node5&#45;&gt;Node6</title>
<g id="a_edge5_Node000005_Node000006"><a xlink:title=" ">
<path fill="none" stroke="#63b8ff" d="M367.92,-203.11C367.53,-203.48 367.13,-203.86 366.75,-204.25 309.94,-261.58 383.64,-321.28 330.75,-382.25 327.61,-385.87 323.9,-388.97 319.86,-391.62"/>
<polygon fill="#63b8ff" stroke="#63b8ff" points="369.92,-205.98 375.83,-197.19 365.72,-200.38 369.92,-205.98"/>
</a>
</g>
</g>
<!-- Node7 -->
<g id="Node000007" class="node">
<title>Node7</title>
<g id="a_Node000007"><a xlink:href="../../d9/dc6/class_main_window.html#a4e25fe2c6dd72b44efdf2d1b1e9c1846" target="_top" xlink:title="Slot triggered to create and add a new Ellipse shape.">
<polygon fill="white" stroke="#666666" points="328.5,-373.5 190.25,-373.5 190.25,-343 328.5,-343 328.5,-373.5"/>
<text text-anchor="start" x="198.25" y="-360" font-family="Helvetica,sans-Serif" font-size="10.00">MainWindow::on_actionnew</text>
<text text-anchor="middle" x="259.38" y="-348.75" font-family="Helvetica,sans-Serif" font-size="10.00">_ellipse_button_triggered</text>
</a>
</g>
</g>
<!-- Node5&#45;&gt;Node7 -->
<g id="edge6_Node000005_Node000007" class="edge">
<title>Node5&#45;&gt;Node7</title>
<g id="a_edge6_Node000005_Node000007"><a xlink:title=" ">
<path fill="none" stroke="#63b8ff" d="M368.33,-202.83C367.79,-203.29 367.27,-203.77 366.75,-204.25 323.35,-244.98 371.36,-289.73 330.75,-333.25 327.39,-336.85 323.47,-339.94 319.25,-342.58"/>
<polygon fill="#63b8ff" stroke="#63b8ff" points="370.23,-205.77 376.45,-197.19 366.24,-200.02 370.23,-205.77"/>
</a>
</g>
</g>
<!-- Node8 -->
<g id="Node000008" class="node">
<title>Node8</title>
<g id="a_Node000008"><a xlink:href="../../d9/dc6/class_main_window.html#abd3987548635bfd1133f8f0d5e0a1879" target="_top" xlink:title="Slot triggered to create and add a new Line shape.">
<polygon fill="white" stroke="#666666" points="328.5,-324.5 190.25,-324.5 190.25,-294 328.5,-294 328.5,-324.5"/>
<text text-anchor="start" x="198.25" y="-311" font-family="Helvetica,sans-Serif" font-size="10.00">MainWindow::on_actionnew</text>
<text text-anchor="middle" x="259.38" y="-299.75" font-family="Helvetica,sans-Serif" font-size="10.00">_line_button_triggered</text>
</a>
</g>
</g>
<!-- Node5&#45;&gt;Node8 -->
<g id="edge7_Node000005_Node000008" class="edge">
<title>Node5&#45;&gt;Node8</title>
<g id="a_edge7_Node000005_Node000008"><a xlink:title=" ">
<path fill="none" stroke="#63b8ff" d="M369.73,-202C368.71,-202.72 367.72,-203.47 366.75,-204.25 336.39,-228.72 359.42,-257.83 330.75,-284.25 326.84,-287.85 322.38,-290.94 317.64,-293.59"/>
<polygon fill="#63b8ff" stroke="#63b8ff" points="371.27,-205.15 378.14,-197.08 367.74,-199.11 371.27,-205.15"/>
</a>
</g>
</g>
<!-- Node9 -->
<g id="Node000009" class="node">
<title>Node9</title>
<g id="a_Node000009"><a xlink:href="../../d9/dc6/class_main_window.html#a28e2b0b2efac43e0553aef6a8d23aee5" target="_top" xlink:title="Slot triggered to create and add a new Polygon shape.">
<polygon fill="white" stroke="#666666" points="328.5,-275.5 190.25,-275.5 190.25,-245 328.5,-245 328.5,-275.5"/>
<text text-anchor="start" x="198.25" y="-262" font-family="Helvetica,sans-Serif" font-size="10.00">MainWindow::on_actionnew</text>
<text text-anchor="middle" x="259.38" y="-250.75" font-family="Helvetica,sans-Serif" font-size="10.00">_polygon_button_triggered</text>
</a>
</g>
</g>
<!-- Node5&#45;&gt;Node9 -->
<g id="edge8_Node000005_Node000009" class="edge">
<title>Node5&#45;&gt;Node9</title>
<g id="a_edge8_Node000005_Node000009"><a xlink:title=" ">
<path fill="none" stroke="#63b8ff" d="M376.31,-200.05C373.03,-201.33 369.83,-202.73 366.75,-204.25 347.83,-213.62 349.01,-224.65 330.75,-235.25 324.81,-238.7 318.31,-241.79 311.74,-244.53"/>
<polygon fill="#63b8ff" stroke="#63b8ff" points="377.26,-203.43 385.57,-196.86 374.97,-196.81 377.26,-203.43"/>
</a>
</g>
</g>
<!-- Node10 -->
<g id="Node000010" class="node">
<title>Node10</title>
<g id="a_Node000010"><a xlink:href="../../d9/dc6/class_main_window.html#ab4fc6a65cac38759157fd77d12497a89" target="_top" xlink:title="Slot triggered to create and add a new Polyline shape.">
<polygon fill="white" stroke="#666666" points="328.5,-226.5 190.25,-226.5 190.25,-196 328.5,-196 328.5,-226.5"/>
<text text-anchor="start" x="198.25" y="-213" font-family="Helvetica,sans-Serif" font-size="10.00">MainWindow::on_actionnew</text>
<text text-anchor="middle" x="259.38" y="-201.75" font-family="Helvetica,sans-Serif" font-size="10.00">_polyline_button_triggered</text>
</a>
</g>
</g>
<!-- Node5&#45;&gt;Node10 -->
<g id="edge9_Node000005_Node000010" class="edge">
<title>Node5&#45;&gt;Node10</title>
<g id="a_edge9_Node000005_Node000010"><a xlink:title=" ">
<path fill="none" stroke="#63b8ff" d="M365.25,-197.55C353.04,-199.14 340.63,-200.77 328.82,-202.31"/>
<polygon fill="#63b8ff" stroke="#63b8ff" points="365.43,-201.06 374.89,-196.29 364.52,-194.12 365.43,-201.06"/>
</a>
</g>
</g>
<!-- Node11 -->
<g id="Node000011" class="node">
<title>Node11</title>
<g id="a_Node000011"><a xlink:href="../../d9/dc6/class_main_window.html#af65e6b1a5513198eece131b1d164a978" target="_top" xlink:title="Slot triggered to create and add a new Rectangle shape.">
<polygon fill="white" stroke="#666666" points="328.5,-177.5 190.25,-177.5 190.25,-147 328.5,-147 328.5,-177.5"/>
<text text-anchor="start" x="198.25" y="-164" font-family="Helvetica,sans-Serif" font-size="10.00">MainWindow::on_actionnew</text>
<text text-anchor="middle" x="259.38" y="-152.75" font-family="Helvetica,sans-Serif" font-size="10.00">_rectange_button_triggered</text>
</a>
</g>
</g>
<!-- Node5&#45;&gt;Node11 -->
<g id="edge10_Node000005_Node000011" class="edge">
<title>Node5&#45;&gt;Node11</title>
<g id="a_edge10_Node000005_Node000011"><a xlink:title=" ">
<path fill="none" stroke="#63b8ff" d="M365.25,-175.4C353.04,-173.87 340.63,-172.31 328.82,-170.83"/>
<polygon fill="#63b8ff" stroke="#63b8ff" points="364.53,-178.84 374.89,-176.61 365.4,-171.89 364.53,-178.84"/>
</a>
</g>
</g>
<!-- Node12 -->
<g id="Node000012" class="node">
<title>Node12</title>
<g id="a_Node000012"><a xlink:href="../../d9/dc6/class_main_window.html#a7d1d40640f58ce6dd36eabcee8ecdc6e" target="_top" xlink:title="Slot triggered to create and add a new Square shape.">
<polygon fill="white" stroke="#666666" points="328.5,-128.5 190.25,-128.5 190.25,-98 328.5,-98 328.5,-128.5"/>
<text text-anchor="start" x="198.25" y="-115" font-family="Helvetica,sans-Serif" font-size="10.00">MainWindow::on_actionnew</text>
<text text-anchor="middle" x="259.38" y="-103.75" font-family="Helvetica,sans-Serif" font-size="10.00">_square_button_triggered</text>
</a>
</g>
</g>
<!-- Node5&#45;&gt;Node12 -->
<g id="edge11_Node000005_Node000012" class="edge">
<title>Node5&#45;&gt;Node12</title>
<g id="a_edge11_Node000005_Node000012"><a xlink:title=" ">
<path fill="none" stroke="#63b8ff" d="M416.2,-171.98C386.63,-160.14 346.86,-144.3 330.75,-138.25 322.5,-135.15 313.66,-131.93 305.14,-128.88"/>
<polygon fill="#63b8ff" stroke="#63b8ff" points="414.58,-175.1 425.17,-175.57 417.19,-168.61 414.58,-175.1"/>
</a>
</g>
</g>
<!-- Node13 -->
<g id="Node000013" class="node">
<title>Node13</title>
<g id="a_Node000013"><a xlink:href="../../d9/dc6/class_main_window.html#aebcb152e26ef6d6bd4fc348e815fe8c8" target="_top" xlink:title="Slot triggered to create and add a new Text shape.">
<polygon fill="white" stroke="#666666" points="328.5,-79.5 190.25,-79.5 190.25,-49 328.5,-49 328.5,-79.5"/>
<text text-anchor="start" x="198.25" y="-66" font-family="Helvetica,sans-Serif" font-size="10.00">MainWindow::on_actionnew</text>
<text text-anchor="middle" x="259.38" y="-54.75" font-family="Helvetica,sans-Serif" font-size="10.00">_text_button_triggered</text>
</a>
</g>
</g>
<!-- Node5&#45;&gt;Node13 -->
<g id="edge12_Node000005_Node000013" class="edge">
<title>Node5&#45;&gt;Node13</title>
<g id="a_edge12_Node000005_Node000013"><a xlink:title=" ">
<path fill="none" stroke="#63b8ff" d="M400.6,-172.19C388.6,-167.24 376.49,-160.72 366.75,-152.25 342.42,-131.08 355.49,-109.94 330.75,-89.25 326.47,-85.67 321.65,-82.59 316.58,-79.94"/>
<polygon fill="#63b8ff" stroke="#63b8ff" points="399.05,-175.35 409.64,-175.62 401.53,-168.8 399.05,-175.35"/>
</a>
</g>
</g>
<!-- Node15 -->
<g id="Node000015" class="node">
<title>Node15</title>
<g id="a_Node000015"><a xlink:href="../../d7/de6/class_app_driver.html#af39fbba491cc4dc1d378d6e140507554" target="_top" xlink:title="Connects signals from backend managers to slots in the frontend UI.">
<polygon fill="white" stroke="#666666" points="330.75,-30.5 188,-30.5 188,0 330.75,0 330.75,-30.5"/>
<text text-anchor="start" x="196" y="-17" font-family="Helvetica,sans-Serif" font-size="10.00">AppDriver::connectManagers</text>
<text text-anchor="middle" x="259.38" y="-5.75" font-family="Helvetica,sans-Serif" font-size="10.00">ToFrontend</text>
</a>
</g>
</g>
<!-- Node14&#45;&gt;Node15 -->
<g id="edge14_Node000014_Node000015" class="edge">
<title>Node14&#45;&gt;Node15</title>
<g id="a_edge14_Node000014_Node000015"><a xlink:title=" ">
<path fill="none" stroke="#63b8ff" d="M414.77,-106.89C399.46,-97.5 381.8,-85.97 366.75,-74.25 349.38,-60.73 349.52,-51.74 330.75,-40.25 325,-36.73 318.68,-33.61 312.26,-30.87"/>
<polygon fill="#63b8ff" stroke="#63b8ff" points="412.78,-109.77 423.15,-111.94 416.4,-103.78 412.78,-109.77"/>
</a>
</g>
</g>
<!-- Node16 -->
<g id="Node000016" class="node">
<title>Node16</title>
<g id="a_Node000016"><a xlink:href="../../d7/de6/class_app_driver.html#af5bf7b6bd96161d95a0a67cc7693127d" target="_top" xlink:title="Initializes and shows the main application window and loads initial data.">
<polygon fill="white" stroke="#666666" points="152,-24.88 73,-24.88 73,-5.63 152,-5.63 152,-24.88"/>
<text text-anchor="middle" x="112.5" y="-11.38" font-family="Helvetica,sans-Serif" font-size="10.00">AppDriver::run</text>
</a>
</g>
</g>
<!-- Node15&#45;&gt;Node16 -->
<g id="edge15_Node000015_Node000016" class="edge">
<title>Node15&#45;&gt;Node16</title>
<g id="a_edge15_Node000015_Node000016"><a xlink:title=" ">
<path fill="none" stroke="#63b8ff" d="M176.21,-15.25C167.88,-15.25 159.73,-15.25 152.2,-15.25"/>
<polygon fill="#63b8ff" stroke="#63b8ff" points="176.12,-18.75 186.12,-15.25 176.12,-11.75 176.12,-18.75"/>
</a>
</g>
</g>
<!-- Node17 -->
<g id="Node000017" class="node">
<title>Node17</title>
<g id="a_Node000017"><a xlink:href="../../d8/d80/src_2backend_2main_8cpp.html#a0ddf1224851353fc92bfbff6f499fa97" target="_top" xlink:title=" ">
<polygon fill="white" stroke="#666666" points="37,-24.88 0,-24.88 0,-5.63 37,-5.63 37,-24.88"/>
<text text-anchor="middle" x="18.5" y="-11.38" font-family="Helvetica,sans-Serif" font-size="10.00">main</text>
</a>
</g>
</g>
<!-- Node16&#45;&gt;Node17 -->
<g id="edge16_Node000016_Node000017" class="edge">
<title>Node16&#45;&gt;Node17</title>
<g id="a_edge16_Node000016_Node000017"><a xlink:title=" ">
<path fill="none" stroke="#63b8ff" d="M61.34,-15.25C52.67,-15.25 44.2,-15.25 37.18,-15.25"/>
<polygon fill="#63b8ff" stroke="#63b8ff" points="61.24,-18.75 71.24,-15.25 61.24,-11.75 61.24,-18.75"/>
</a>
</g>
</g>
<!-- Node18&#45;&gt;Node15 -->
<g id="edge18_Node000018_Node000015" class="edge">
<title>Node18&#45;&gt;Node15</title>
<g id="a_edge18_Node000018_Node000015"><a xlink:title=" ">
<path fill="none" stroke="#63b8ff" d="M392.34,-42.83C372.94,-38.78 351.22,-34.24 331.08,-30.03"/>
<polygon fill="#63b8ff" stroke="#63b8ff" points="391.47,-46.23 401.98,-44.85 392.9,-39.37 391.47,-46.23"/>
</a>
</g>
</g>
</g>
</svg>
