<?xml version="1.0" encoding="UTF-8" standalone="no"?>
<!DOCTYPE svg PUBLIC "-//W3C//DTD SVG 1.1//EN"
 "http://www.w3.org/Graphics/SVG/1.1/DTD/svg11.dtd">
<!-- Generated by graphviz version 12.2.1 (20241206.2353)
 -->
<!-- Title: Shape::CreateBrushChild Pages: 1 -->
<svg width="282pt" height="175pt"
 viewBox="0.00 0.00 281.50 175.25" xmlns="http://www.w3.org/2000/svg" xmlns:xlink="http://www.w3.org/1999/xlink">

<svg id="main" version="1.1" xmlns="http://www.w3.org/2000/svg" xmlns:xlink="http://www.w3.org/1999/xlink" xml:space="preserve">

<style type="text/css"><![CDATA[
.node, .edge {opacity: 0.7;}
.node.selected, .edge.selected {opacity: 1;}
.edge:hover path { stroke: red; }
.edge:hover polygon { stroke: red; fill: red; }
]]></style>
<script type="application/ecmascript" xlink:href="../../svg.min.js"/>
<svg id="graph" class="graph">
<g id="graph0" class="graph" transform="scale(1 1) rotate(0) translate(4 171.25)">
<title>Shape::CreateBrushChild</title>
<!-- Node1 -->
<g id="Node000001" class="node">
<title>Node1</title>
<g id="a_Node000001"><a xlink:title="CreateBrushChild &#45; Adds brush data to brushItems vector for a QTreeWidget.">
<polygon fill="#999999" stroke="#666666" points="273.5,-93.25 146.5,-93.25 146.5,-74 273.5,-74 273.5,-93.25"/>
<text text-anchor="middle" x="210" y="-79.75" font-family="Helvetica,sans-Serif" font-size="10.00">Shape::CreateBrushChild</text>
</a>
</g>
</g>
<!-- Node2 -->
<g id="Node000002" class="node">
<title>Node2</title>
<g id="a_Node000002"><a xlink:href="../../d0/d88/class_circle.html#a782690f42da545ac8e35d3732ed76f42" target="_top" xlink:title="Circle Constructor.">
<polygon fill="white" stroke="#666666" points="91.75,-167.25 18.75,-167.25 18.75,-148 91.75,-148 91.75,-167.25"/>
<text text-anchor="middle" x="55.25" y="-153.75" font-family="Helvetica,sans-Serif" font-size="10.00">Circle::Circle</text>
</a>
</g>
</g>
<!-- Node1&#45;&gt;Node2 -->
<g id="edge1_Node000001_Node000002" class="edge">
<title>Node1&#45;&gt;Node2</title>
<g id="a_edge1_Node000001_Node000002"><a xlink:title=" ">
<path fill="none" stroke="#63b8ff" d="M183.84,-99.76C164.35,-111.81 136.4,-128.1 110.5,-139.62 103.97,-142.53 96.83,-145.22 89.92,-147.6"/>
<polygon fill="#63b8ff" stroke="#63b8ff" points="185.56,-102.81 192.18,-94.54 181.85,-96.88 185.56,-102.81"/>
</a>
</g>
</g>
<!-- Node3 -->
<g id="Node000003" class="node">
<title>Node3</title>
<g id="a_Node000003"><a xlink:href="../../dc/d25/class_ellipse.html#a6fd6f0bad023ecfd3d607142c21846c4" target="_top" xlink:title="Ellipse Constructor.">
<polygon fill="white" stroke="#666666" points="95.5,-130.25 15,-130.25 15,-111 95.5,-111 95.5,-130.25"/>
<text text-anchor="middle" x="55.25" y="-116.75" font-family="Helvetica,sans-Serif" font-size="10.00">Ellipse::Ellipse</text>
</a>
</g>
</g>
<!-- Node1&#45;&gt;Node3 -->
<g id="edge2_Node000001_Node000003" class="edge">
<title>Node1&#45;&gt;Node3</title>
<g id="a_edge2_Node000001_Node000003"><a xlink:title=" ">
<path fill="none" stroke="#63b8ff" d="M156.22,-96.41C136.41,-101.21 114.25,-106.58 95.84,-111.04"/>
<polygon fill="#63b8ff" stroke="#63b8ff" points="156.89,-99.85 165.79,-94.09 155.25,-93.04 156.89,-99.85"/>
</a>
</g>
</g>
<!-- Node4 -->
<g id="Node000004" class="node">
<title>Node4</title>
<g id="a_Node000004"><a xlink:href="../../d1/db0/class_polygon.html#a7ab0204bb62eddea1fb659e8a6ecd202" target="_top" xlink:title="Polygon Constructor.">
<polygon fill="white" stroke="#666666" points="101.5,-93.25 9,-93.25 9,-74 101.5,-74 101.5,-93.25"/>
<text text-anchor="middle" x="55.25" y="-79.75" font-family="Helvetica,sans-Serif" font-size="10.00">Polygon::Polygon</text>
</a>
</g>
</g>
<!-- Node1&#45;&gt;Node4 -->
<g id="edge3_Node000001_Node000004" class="edge">
<title>Node1&#45;&gt;Node4</title>
<g id="a_edge3_Node000001_Node000004"><a xlink:title=" ">
<path fill="none" stroke="#63b8ff" d="M135.08,-83.62C123.68,-83.62 112.19,-83.62 101.66,-83.62"/>
<polygon fill="#63b8ff" stroke="#63b8ff" points="134.92,-87.13 144.92,-83.63 134.92,-80.13 134.92,-87.13"/>
</a>
</g>
</g>
<!-- Node5 -->
<g id="Node000005" class="node">
<title>Node5</title>
<g id="a_Node000005"><a xlink:href="../../d9/dc7/class_rectangle.html#af84479273a72d93294cd210732117dd7" target="_top" xlink:title="Rectangle.">
<polygon fill="white" stroke="#666666" points="110.5,-56.25 0,-56.25 0,-37 110.5,-37 110.5,-56.25"/>
<text text-anchor="middle" x="55.25" y="-42.75" font-family="Helvetica,sans-Serif" font-size="10.00">Rectangle::Rectangle</text>
</a>
</g>
</g>
<!-- Node1&#45;&gt;Node5 -->
<g id="edge4_Node000001_Node000005" class="edge">
<title>Node1&#45;&gt;Node5</title>
<g id="a_edge4_Node000001_Node000005"><a xlink:title=" ">
<path fill="none" stroke="#63b8ff" d="M156.32,-70.86C137.23,-66.24 115.95,-61.09 97.94,-56.72"/>
<polygon fill="#63b8ff" stroke="#63b8ff" points="155.25,-74.21 165.79,-73.16 156.89,-67.4 155.25,-74.21"/>
</a>
</g>
</g>
<!-- Node6 -->
<g id="Node000006" class="node">
<title>Node6</title>
<g id="a_Node000006"><a xlink:href="../../d9/d0c/class_square.html#a4b6e69fc0dda7084eb3db5d3fe92dfb3" target="_top" xlink:title="Square.">
<polygon fill="white" stroke="#666666" points="97,-19.25 13.5,-19.25 13.5,0 97,0 97,-19.25"/>
<text text-anchor="middle" x="55.25" y="-5.75" font-family="Helvetica,sans-Serif" font-size="10.00">Square::Square</text>
</a>
</g>
</g>
<!-- Node1&#45;&gt;Node6 -->
<g id="edge5_Node000001_Node000006" class="edge">
<title>Node1&#45;&gt;Node6</title>
<g id="a_edge5_Node000001_Node000006"><a xlink:title=" ">
<path fill="none" stroke="#63b8ff" d="M183.84,-67.49C164.35,-55.44 136.4,-39.15 110.5,-27.62 103.97,-24.72 96.83,-22.03 89.92,-19.65"/>
<polygon fill="#63b8ff" stroke="#63b8ff" points="181.85,-70.37 192.18,-72.71 185.56,-64.44 181.85,-70.37"/>
</a>
</g>
</g>
</g>
</svg>
</svg>

<style type='text/css'>
<![CDATA[
[data-mouse-over-selected='false'] { opacity: 0.7; }
[data-mouse-over-selected='true']  { opacity: 1.0; }
]]>
</style>
<script type="application/ecmascript"><![CDATA[
document.addEventListener('DOMContentLoaded', (event) => {
  highlightEdges();
  highlightAdjacentNodes();
});
]]></script>
</svg>
