<?xml version="1.0" encoding="UTF-8" standalone="no"?>
<!DOCTYPE svg PUBLIC "-//W3C//DTD SVG 1.1//EN"
 "http://www.w3.org/Graphics/SVG/1.1/DTD/svg11.dtd">
<!-- Generated by graphviz version 12.2.1 (20241206.2353)
 -->
<!-- Title: Rectangle::isPointInside Pages: 1 -->
<svg width="237pt" height="64pt"
 viewBox="0.00 0.00 236.50 64.25" xmlns="http://www.w3.org/2000/svg" xmlns:xlink="http://www.w3.org/1999/xlink">
<g id="graph0" class="graph" transform="scale(1 1) rotate(0) translate(4 60.25)">
<title>Rectangle::isPointInside</title>
<!-- Node1 -->
<g id="Node000001" class="node">
<title>Node1</title>
<g id="a_Node000001"><a xlink:title="isPointInside &#45; Returns True if point is inside the Rectangle">
<polygon fill="#999999" stroke="#666666" points="122.5,-37.25 0,-37.25 0,-18 122.5,-18 122.5,-37.25"/>
<text text-anchor="middle" x="61.25" y="-23.75" font-family="Helvetica,sans-Serif" font-size="10.00">Rectangle::isPointInside</text>
</a>
</g>
</g>
<!-- Node2 -->
<g id="Node000002" class="node">
<title>Node2</title>
<g id="a_Node000002"><a xlink:href="../../d7/da7/class_shape.html#af604de36aa616c585bb30dedf5e5c68b" target="_top" xlink:title=" ">
<polygon fill="white" stroke="#666666" points="228.5,-56.25 158.5,-56.25 158.5,-37 228.5,-37 228.5,-56.25"/>
<text text-anchor="middle" x="193.5" y="-42.75" font-family="Helvetica,sans-Serif" font-size="10.00">Shape::getX</text>
</a>
</g>
</g>
<!-- Node1&#45;&gt;Node2 -->
<g id="edge1_Node000001_Node000002" class="edge">
<title>Node1&#45;&gt;Node2</title>
<g id="a_edge1_Node000001_Node000002"><a xlink:title=" ">
<path fill="none" stroke="#63b8ff" d="M122.8,-36.46C130.83,-37.63 138.95,-38.81 146.67,-39.94"/>
<polygon fill="#63b8ff" stroke="#63b8ff" points="146.13,-43.4 156.53,-41.38 147.14,-36.47 146.13,-43.4"/>
</a>
</g>
</g>
<!-- Node3 -->
<g id="Node000003" class="node">
<title>Node3</title>
<g id="a_Node000003"><a xlink:href="../../d7/da7/class_shape.html#a2e87ea4122381ffb83474f4b69247ded" target="_top" xlink:title=" ">
<polygon fill="white" stroke="#666666" points="228.5,-19.25 158.5,-19.25 158.5,0 228.5,0 228.5,-19.25"/>
<text text-anchor="middle" x="193.5" y="-5.75" font-family="Helvetica,sans-Serif" font-size="10.00">Shape::getY</text>
</a>
</g>
</g>
<!-- Node1&#45;&gt;Node3 -->
<g id="edge2_Node000001_Node000003" class="edge">
<title>Node1&#45;&gt;Node3</title>
<g id="a_edge2_Node000001_Node000003"><a xlink:title=" ">
<path fill="none" stroke="#63b8ff" d="M122.8,-19.26C130.83,-18.15 138.95,-17.03 146.67,-15.96"/>
<polygon fill="#63b8ff" stroke="#63b8ff" points="147.1,-19.43 156.53,-14.6 146.14,-12.5 147.1,-19.43"/>
</a>
</g>
</g>
</g>
</svg>
