<?xml version="1.0" encoding="UTF-8" standalone="no"?>
<!DOCTYPE svg PUBLIC "-//W3C//DTD SVG 1.1//EN"
 "http://www.w3.org/Graphics/SVG/1.1/DTD/svg11.dtd">
<!-- Generated by graphviz version 12.2.1 (20241206.2353)
 -->
<!-- Title: ShapesManager Pages: 1 -->
<!--zoomable 500 -->

<svg id="main" version="1.1" xmlns="http://www.w3.org/2000/svg" xmlns:xlink="http://www.w3.org/1999/xlink" xml:space="preserve" onload="init(evt)">

<style type="text/css"><![CDATA[
.node, .edge {opacity: 0.7;}
.node.selected, .edge.selected {opacity: 1;}
.edge:hover path { stroke: red; }
.edge:hover polygon { stroke: red; fill: red; }
]]></style>

<defs>
  <circle id="rim" cx="0" cy="0" r="7"/>
  <circle id="rim2" cx="0" cy="0" r="3.5"/>
  <g id="zoomPlus">
    <use xlink:href="#rim" fill="#404040"><set attributeName="fill" to="#808080" begin="zoomplus.mouseover" end="zoomplus.mouseout"/></use>
    <path d="M-4,0h8M0,-4v8" fill="none" stroke="white" stroke-width="1.5" pointer-events="none"/>
  </g>
  <g id="zoomMin">
    <use xlink:href="#rim" fill="#404040"><set attributeName="fill" to="#808080" begin="zoomminus.mouseover" end="zoomminus.mouseout"/></use>
    <path d="M-4,0h8" fill="none" stroke="white" stroke-width="1.5" pointer-events="none"/>
  </g>
  <g id="arrowUp" transform="translate(30 24)">
    <use xlink:href="#rim"/>
    <path pointer-events="none" fill="none" stroke="white" stroke-width="1.5" d="M0,-3.0v7 M-2.5,-0.5L0,-3.0L2.5,-0.5"/>
  </g>
  <g id="arrowRight" transform="rotate(90) translate(36 -43)">
    <use xlink:href="#rim"/>
    <path pointer-events="none" fill="none" stroke="white" stroke-width="1.5" d="M0,-3.0v7 M-2.5,-0.5L0,-3.0L2.5,-0.5"/>
  </g>
  <g id="arrowDown" transform="rotate(180) translate(-30 -48)">
    <use xlink:href="#rim"/>
    <path pointer-events="none" fill="none" stroke="white" stroke-width="1.5" d="M0,-3.0v7 M-2.5,-0.5L0,-3.0L2.5,-0.5"/>
  </g>
  <g id="arrowLeft" transform="rotate(270) translate(-36 17)">
    <use xlink:href="#rim"/>
    <path pointer-events="none" fill="none" stroke="white" stroke-width="1.5" d="M0,-3.0v7 M-2.5,-0.5L0,-3.0L2.5,-0.5"/>
  </g>
  <g id="resetDef">
    <use xlink:href="#rim2" fill="#404040"><set attributeName="fill" to="#808080" begin="reset.mouseover" end="reset.mouseout"/></use>
  </g>
</defs>
<script type="application/ecmascript">
var viewWidth = 160;
var viewHeight = 500;
var sectionId = 'dynsection-0';
</script>
<script type="application/ecmascript" xlink:href="../../svg.min.js"/>
<svg id="graph" class="graph">
<g id="viewport">
<title>ShapesManager</title>
<!-- Node1 -->
<g id="Node000001" class="node">
<title>Node1</title>
<g id="a_Node000001"><a xlink:title=" ">
<polygon fill="#999999" stroke="none" points="151.5,-406.25 0,-406.25 0,0 151.5,0 151.5,-406.25"/>
<text text-anchor="start" x="40.5" y="-392.75" font-family="Helvetica,sans-Serif" font-size="10.00">ShapesManager</text>
<text text-anchor="start" x="5.5" y="-377.5" font-family="Helvetica,sans-Serif" font-size="10.00">&#45;</text>
<text text-anchor="start" x="14" y="-377.5" font-family="Helvetica,sans-Serif" font-size="10.00">alpha::vector&lt; Shape</text>
<text text-anchor="start" x="14" y="-366.25" font-family="Helvetica,sans-Serif" font-size="10.00"> * &gt; shapes</text>
<text text-anchor="start" x="5.5" y="-351" font-family="Helvetica,sans-Serif" font-size="10.00">&#45;</text>
<text text-anchor="start" x="14" y="-351" font-family="Helvetica,sans-Serif" font-size="10.00">ApiClient client</text>
<text text-anchor="start" x="5.5" y="-335.75" font-family="Helvetica,sans-Serif" font-size="10.00">&#45;</text>
<text text-anchor="start" x="14" y="-335.75" font-family="Helvetica,sans-Serif" font-size="10.00">Parser parse</text>
<text text-anchor="start" x="4" y="-320.5" font-family="Helvetica,sans-Serif" font-size="10.00">+</text>
<text text-anchor="start" x="14" y="-320.5" font-family="Helvetica,sans-Serif" font-size="10.00">ShapesManager(QObject</text>
<text text-anchor="start" x="14" y="-309.25" font-family="Helvetica,sans-Serif" font-size="10.00"> *parent=nullptr)</text>
<text text-anchor="start" x="4" y="-294" font-family="Helvetica,sans-Serif" font-size="10.00">+</text>
<text text-anchor="start" x="14" y="-294" font-family="Helvetica,sans-Serif" font-size="10.00">~ShapesManager()</text>
<text text-anchor="start" x="4" y="-278.75" font-family="Helvetica,sans-Serif" font-size="10.00">+</text>
<text text-anchor="start" x="14" y="-278.75" font-family="Helvetica,sans-Serif" font-size="10.00">alpha::vector&lt; Shape</text>
<text text-anchor="start" x="14" y="-267.5" font-family="Helvetica,sans-Serif" font-size="10.00"> * &gt; * getShapesRef()</text>
<text text-anchor="start" x="4" y="-252.25" font-family="Helvetica,sans-Serif" font-size="10.00">+</text>
<text text-anchor="start" x="14" y="-252.25" font-family="Helvetica,sans-Serif" font-size="10.00">void addShape(Shape</text>
<text text-anchor="start" x="14" y="-241" font-family="Helvetica,sans-Serif" font-size="10.00"> *shape)</text>
<text text-anchor="start" x="4" y="-225.75" font-family="Helvetica,sans-Serif" font-size="10.00">+</text>
<text text-anchor="start" x="14" y="-225.75" font-family="Helvetica,sans-Serif" font-size="10.00">void modifyShape(Shape</text>
<text text-anchor="start" x="14" y="-214.5" font-family="Helvetica,sans-Serif" font-size="10.00"> *shape)</text>
<text text-anchor="start" x="4" y="-199.25" font-family="Helvetica,sans-Serif" font-size="10.00">+</text>
<text text-anchor="start" x="14" y="-199.25" font-family="Helvetica,sans-Serif" font-size="10.00">void deleteShape(const</text>
<text text-anchor="start" x="14" y="-188" font-family="Helvetica,sans-Serif" font-size="10.00"> int trackerId)</text>
<text text-anchor="start" x="4" y="-172.75" font-family="Helvetica,sans-Serif" font-size="10.00">+</text>
<text text-anchor="start" x="14" y="-172.75" font-family="Helvetica,sans-Serif" font-size="10.00">void deleteAllShapes()</text>
<text text-anchor="start" x="4" y="-157.5" font-family="Helvetica,sans-Serif" font-size="10.00">+</text>
<text text-anchor="start" x="14" y="-157.5" font-family="Helvetica,sans-Serif" font-size="10.00">void loadShapes()</text>
<text text-anchor="start" x="4" y="-142.25" font-family="Helvetica,sans-Serif" font-size="10.00">+</text>
<text text-anchor="start" x="14" y="-142.25" font-family="Helvetica,sans-Serif" font-size="10.00">void saveShapes()</text>
<text text-anchor="start" x="5.5" y="-127" font-family="Helvetica,sans-Serif" font-size="10.00">&#45;</text>
<text text-anchor="start" x="14" y="-127" font-family="Helvetica,sans-Serif" font-size="10.00">void onGoodGetResponse</text>
<text text-anchor="start" x="14" y="-115.75" font-family="Helvetica,sans-Serif" font-size="10.00">(const QString &amp;json)</text>
<text text-anchor="start" x="5.5" y="-100.5" font-family="Helvetica,sans-Serif" font-size="10.00">&#45;</text>
<text text-anchor="start" x="14" y="-100.5" font-family="Helvetica,sans-Serif" font-size="10.00">void onBadGetResponse</text>
<text text-anchor="start" x="14" y="-89.25" font-family="Helvetica,sans-Serif" font-size="10.00">(const QString &amp;errorMsg)</text>
<text text-anchor="start" x="5.5" y="-74" font-family="Helvetica,sans-Serif" font-size="10.00">&#45;</text>
<text text-anchor="start" x="14" y="-74" font-family="Helvetica,sans-Serif" font-size="10.00">void onGoodPostResponse()</text>
<text text-anchor="start" x="5.5" y="-58.75" font-family="Helvetica,sans-Serif" font-size="10.00">&#45;</text>
<text text-anchor="start" x="14" y="-58.75" font-family="Helvetica,sans-Serif" font-size="10.00">void onBadPostResponse</text>
<text text-anchor="start" x="14" y="-47.5" font-family="Helvetica,sans-Serif" font-size="10.00">(const QString &amp;errorMsg)</text>
<text text-anchor="start" x="5.5" y="-32.25" font-family="Helvetica,sans-Serif" font-size="10.00">&#45;</text>
<text text-anchor="start" x="14" y="-32.25" font-family="Helvetica,sans-Serif" font-size="10.00">void onGoodDeleteResponse()</text>
<text text-anchor="start" x="5.5" y="-17" font-family="Helvetica,sans-Serif" font-size="10.00">&#45;</text>
<text text-anchor="start" x="14" y="-17" font-family="Helvetica,sans-Serif" font-size="10.00">void onBadDeleteResponse</text>
<text text-anchor="start" x="14" y="-5.75" font-family="Helvetica,sans-Serif" font-size="10.00">(const QString &amp;errorMsg)</text>
<polygon fill="#666666" stroke="#666666" points="0,-389 0,-389 151.5,-389 151.5,-389 0,-389"/>
<polygon fill="#666666" stroke="#666666" points="0,-332 0,-332 12,-332 12,-332 0,-332"/>
<polygon fill="#666666" stroke="#666666" points="12,-332 12,-332 151.5,-332 151.5,-332 12,-332"/>
<polygon fill="none" stroke="#666666" points="0,0 0,-406.25 151.5,-406.25 151.5,0 0,0"/>
</a>
</g>
</g>
<!-- Node2 -->
<g id="Node000002" class="node">
<title>Node2</title>
<g id="a_Node000002"><a xlink:title=" ">
<polygon fill="white" stroke="none" points="97.75,-492 53.75,-492 53.75,-442.25 97.75,-442.25 97.75,-492"/>
<text text-anchor="start" x="57.75" y="-478.5" font-family="Helvetica,sans-Serif" font-size="10.00">QObject</text>
<text text-anchor="start" x="74.25" y="-463.25" font-family="Helvetica,sans-Serif" font-size="10.00"> </text>
<text text-anchor="start" x="74.25" y="-448" font-family="Helvetica,sans-Serif" font-size="10.00"> </text>
<polygon fill="#666666" stroke="#666666" points="53.75,-474.75 53.75,-474.75 97.75,-474.75 97.75,-474.75 53.75,-474.75"/>
<polygon fill="#666666" stroke="#666666" points="53.75,-459.5 53.75,-459.5 97.75,-459.5 97.75,-459.5 53.75,-459.5"/>
<polygon fill="none" stroke="#666666" points="53.75,-442.25 53.75,-492 97.75,-492 97.75,-442.25 53.75,-442.25"/>
</a>
</g>
</g>
<!-- Node2&#45;&gt;Node1 -->
<g id="edge1_Node000001_Node000002" class="edge">
<title>Node2&#45;&gt;Node1</title>
<g id="a_edge1_Node000001_Node000002"><a xlink:title=" ">
<path fill="none" stroke="#63b8ff" d="M75.75,-431.07C75.75,-423.57 75.75,-415.14 75.75,-406.06"/>
<polygon fill="none" stroke="#63b8ff" points="72.25,-430.9 75.75,-440.9 79.25,-430.9 72.25,-430.9"/>
</a>
</g>
</g>
</g>
</svg>

<g id="navigator" transform="translate(0 0)" fill="#404254">
  <rect fill="#f2f5e9" fill-opacity="0.5" stroke="#606060" stroke-width=".5" x="0" y="0" width="60" height="60"/>
  <use id="zoomplus" xlink:href="#zoomPlus" x="17" y="9" onmousedown="handleZoom(evt,'in')"/>
  <use id="zoomminus" xlink:href="#zoomMin" x="42" y="9" onmousedown="handleZoom(evt,'out')"/>
  <use id="reset" xlink:href="#resetDef" x="30" y="36" onmousedown="handleReset()"/>
   <use id="arrowup" xlink:href="#arrowUp" x="0" y="0" onmousedown="handlePan(0,-1)"/>
  <use id="arrowright" xlink:href="#arrowRight" x="0" y="0" onmousedown="handlePan(1,0)"/>
  <use id="arrowdown" xlink:href="#arrowDown" x="0" y="0" onmousedown="handlePan(0,1)"/>
  <use id="arrowleft" xlink:href="#arrowLeft" x="0" y="0" onmousedown="handlePan(-1,0)"/>
</g>
<svg viewBox="0 0 15 15" width="100%" height="30px" preserveAspectRatio="xMaxYMin meet">
 <g id="arrow_out" transform="scale(0.3 0.3)">
  <a xlink:href="class_shapes_manager__inherit__graph_org.svg" target="_base">
   <rect id="button" ry="5" rx="5" y="6" x="6" height="38" width="38"
        fill="#f2f5e9" fill-opacity="0.5" stroke="#606060" stroke-width="1.0"/>
   <path id="arrow"
     d="M 11.500037,31.436501 C 11.940474,20.09759 22.043105,11.32322 32.158766,21.979434 L 37.068811,17.246167 C 37.068811,17.246167 37.088388,32 37.088388,32 L 22.160133,31.978069 C 22.160133,31.978069 26.997745,27.140456 26.997745,27.140456 C 18.528582,18.264221 13.291696,25.230495 11.500037,31.436501 z"
     style="fill:#404040;"/>
  </a>
 </g>
</svg>

<style type='text/css'>
<![CDATA[
[data-mouse-over-selected='false'] { opacity: 0.7; }
[data-mouse-over-selected='true']  { opacity: 1.0; }
]]>
</style>
<script type="application/ecmascript"><![CDATA[
document.addEventListener('DOMContentLoaded', (event) => {
  highlightEdges();
  highlightAdjacentNodes();
});
]]></script>
</svg>
