<?xml version="1.0" encoding="UTF-8" standalone="no"?>
<!DOCTYPE svg PUBLIC "-//W3C//DTD SVG 1.1//EN"
 "http://www.w3.org/Graphics/SVG/1.1/DTD/svg11.dtd">
<!-- Generated by graphviz version 12.2.1 (20241206.2353)
 -->
<!-- Title: /Users/gautam/Local/Forge/Team&#45;Alphawolves/2D&#45;Graphics&#45;Modeler/src/backend/Parser.h Pages: 1 -->
<!--zoomable 282 -->

<svg id="main" version="1.1" xmlns="http://www.w3.org/2000/svg" xmlns:xlink="http://www.w3.org/1999/xlink" xml:space="preserve" onload="init(evt)">

<style type="text/css"><![CDATA[
.node, .edge {opacity: 0.7;}
.node.selected, .edge.selected {opacity: 1;}
.edge:hover path { stroke: red; }
.edge:hover polygon { stroke: red; fill: red; }
]]></style>

<defs>
  <circle id="rim" cx="0" cy="0" r="7"/>
  <circle id="rim2" cx="0" cy="0" r="3.5"/>
  <g id="zoomPlus">
    <use xlink:href="#rim" fill="#404040"><set attributeName="fill" to="#808080" begin="zoomplus.mouseover" end="zoomplus.mouseout"/></use>
    <path d="M-4,0h8M0,-4v8" fill="none" stroke="white" stroke-width="1.5" pointer-events="none"/>
  </g>
  <g id="zoomMin">
    <use xlink:href="#rim" fill="#404040"><set attributeName="fill" to="#808080" begin="zoomminus.mouseover" end="zoomminus.mouseout"/></use>
    <path d="M-4,0h8" fill="none" stroke="white" stroke-width="1.5" pointer-events="none"/>
  </g>
  <g id="arrowUp" transform="translate(30 24)">
    <use xlink:href="#rim"/>
    <path pointer-events="none" fill="none" stroke="white" stroke-width="1.5" d="M0,-3.0v7 M-2.5,-0.5L0,-3.0L2.5,-0.5"/>
  </g>
  <g id="arrowRight" transform="rotate(90) translate(36 -43)">
    <use xlink:href="#rim"/>
    <path pointer-events="none" fill="none" stroke="white" stroke-width="1.5" d="M0,-3.0v7 M-2.5,-0.5L0,-3.0L2.5,-0.5"/>
  </g>
  <g id="arrowDown" transform="rotate(180) translate(-30 -48)">
    <use xlink:href="#rim"/>
    <path pointer-events="none" fill="none" stroke="white" stroke-width="1.5" d="M0,-3.0v7 M-2.5,-0.5L0,-3.0L2.5,-0.5"/>
  </g>
  <g id="arrowLeft" transform="rotate(270) translate(-36 17)">
    <use xlink:href="#rim"/>
    <path pointer-events="none" fill="none" stroke="white" stroke-width="1.5" d="M0,-3.0v7 M-2.5,-0.5L0,-3.0L2.5,-0.5"/>
  </g>
  <g id="resetDef">
    <use xlink:href="#rim2" fill="#404040"><set attributeName="fill" to="#808080" begin="reset.mouseover" end="reset.mouseout"/></use>
  </g>
</defs>
<script type="application/ecmascript">
var viewWidth = 1409;
var viewHeight = 282;
var sectionId = 'dynsection-0';
</script>
<script type="application/ecmascript" xlink:href="../../svg.min.js"/>
<svg id="graph" class="graph">
<g id="viewport">
<title>/Users/gautam/Local/Forge/Team&#45;Alphawolves/2D&#45;Graphics&#45;Modeler/src/backend/Parser.h</title>
<!-- Node1 -->
<g id="Node000001" class="node">
<title>Node1</title>
<g id="a_Node000001"><a xlink:title=" ">
<polygon fill="#999999" stroke="#666666" points="425.38,-274 296.12,-274 296.12,-221 425.38,-221 425.38,-274"/>
<text text-anchor="start" x="304.12" y="-260.5" font-family="Helvetica,sans-Serif" font-size="10.00">/Users/gautam/Local</text>
<text text-anchor="start" x="304.12" y="-249.25" font-family="Helvetica,sans-Serif" font-size="10.00">/Forge/Team&#45;Alphawolves</text>
<text text-anchor="start" x="304.12" y="-238" font-family="Helvetica,sans-Serif" font-size="10.00">/2D&#45;Graphics&#45;Modeler/src</text>
<text text-anchor="middle" x="360.75" y="-226.75" font-family="Helvetica,sans-Serif" font-size="10.00">/backend/Parser.h</text>
</a>
</g>
</g>
<!-- Node2 -->
<g id="Node000002" class="node">
<title>Node2</title>
<g id="a_Node000002"><a xlink:title=" ">
<polygon fill="#e0e0e0" stroke="#999999" points="53.5,-185 0,-185 0,-165.75 53.5,-165.75 53.5,-185"/>
<text text-anchor="middle" x="26.75" y="-171.5" font-family="Helvetica,sans-Serif" font-size="10.00">iostream</text>
</a>
</g>
</g>
<!-- Node1&#45;&gt;Node2 -->
<g id="edge1_Node000001_Node000002" class="edge">
<title>Node1&#45;&gt;Node2</title>
<g id="a_edge1_Node000001_Node000002"><a xlink:title=" ">
<path fill="none" stroke="#63b8ff" d="M295.85,-233.91C237.73,-222.45 149.89,-204.73 65,-185.68"/>
<polygon fill="#63b8ff" stroke="#63b8ff" points="65.86,-182.28 55.33,-183.5 64.32,-189.11 65.86,-182.28"/>
</a>
</g>
</g>
<!-- Node3 -->
<g id="Node000003" class="node">
<title>Node3</title>
<g id="a_Node000003"><a xlink:title=" ">
<polygon fill="#e0e0e0" stroke="#999999" points="116.38,-185 71.12,-185 71.12,-165.75 116.38,-165.75 116.38,-185"/>
<text text-anchor="middle" x="93.75" y="-171.5" font-family="Helvetica,sans-Serif" font-size="10.00">cctype</text>
</a>
</g>
</g>
<!-- Node1&#45;&gt;Node3 -->
<g id="edge2_Node000001_Node000003" class="edge">
<title>Node1&#45;&gt;Node3</title>
<g id="a_edge2_Node000001_Node000003"><a xlink:title=" ">
<path fill="none" stroke="#63b8ff" d="M295.63,-229.59C251.02,-217.98 190.21,-202.09 127.68,-185.5"/>
<polygon fill="#63b8ff" stroke="#63b8ff" points="128.84,-182.19 118.28,-183 127.05,-188.95 128.84,-182.19"/>
</a>
</g>
</g>
<!-- Node4 -->
<g id="Node000004" class="node">
<title>Node4</title>
<g id="a_Node000004"><a xlink:title=" ">
<polygon fill="#e0e0e0" stroke="#999999" points="186.75,-185 134.75,-185 134.75,-165.75 186.75,-165.75 186.75,-185"/>
<text text-anchor="middle" x="160.75" y="-171.5" font-family="Helvetica,sans-Serif" font-size="10.00">QVector</text>
</a>
</g>
</g>
<!-- Node1&#45;&gt;Node4 -->
<g id="edge3_Node000001_Node000004" class="edge">
<title>Node1&#45;&gt;Node4</title>
<g id="a_edge3_Node000001_Node000004"><a xlink:title=" ">
<path fill="none" stroke="#63b8ff" d="M295.82,-223.73C263.13,-212.27 224.73,-198.81 197.25,-189.17"/>
<polygon fill="#63b8ff" stroke="#63b8ff" points="198.58,-185.93 187.98,-185.92 196.26,-192.53 198.58,-185.93"/>
</a>
</g>
</g>
<!-- Node5 -->
<g id="Node000005" class="node">
<title>Node5</title>
<g id="a_Node000005"><a xlink:title=" ">
<polygon fill="#e0e0e0" stroke="#999999" points="294.5,-185 205,-185 205,-165.75 294.5,-165.75 294.5,-185"/>
<text text-anchor="middle" x="249.75" y="-171.5" font-family="Helvetica,sans-Serif" font-size="10.00">QJsonDocument</text>
</a>
</g>
</g>
<!-- Node1&#45;&gt;Node5 -->
<g id="edge4_Node000001_Node000005" class="edge">
<title>Node1&#45;&gt;Node5</title>
<g id="a_edge4_Node000001_Node000005"><a xlink:title=" ">
<path fill="none" stroke="#63b8ff" d="M319.73,-220.59C304.18,-210.76 287,-199.91 273.55,-191.41"/>
<polygon fill="#63b8ff" stroke="#63b8ff" points="275.69,-188.62 265.37,-186.24 271.95,-194.54 275.69,-188.62"/>
</a>
</g>
</g>
<!-- Node6 -->
<g id="Node000006" class="node">
<title>Node6</title>
<g id="a_Node000006"><a xlink:title=" ">
<polygon fill="#e0e0e0" stroke="#999999" points="207.62,-129.75 139.88,-129.75 139.88,-110.5 207.62,-110.5 207.62,-129.75"/>
<text text-anchor="middle" x="173.75" y="-116.25" font-family="Helvetica,sans-Serif" font-size="10.00">QJsonArray</text>
</a>
</g>
</g>
<!-- Node1&#45;&gt;Node6 -->
<g id="edge5_Node000001_Node000006" class="edge">
<title>Node1&#45;&gt;Node6</title>
<g id="a_edge5_Node000001_Node000006"><a xlink:title=" ">
<path fill="none" stroke="#63b8ff" d="M348.09,-220.66C338.22,-202.96 322.97,-180.16 303.75,-165.75 290,-155.44 250.58,-142.61 218.72,-133.35"/>
<polygon fill="#63b8ff" stroke="#63b8ff" points="219.85,-130.04 209.28,-130.65 217.93,-136.77 219.85,-130.04"/>
</a>
</g>
</g>
<!-- Node7 -->
<g id="Node000007" class="node">
<title>Node7</title>
<g id="a_Node000007"><a xlink:title=" ">
<polygon fill="#e0e0e0" stroke="#999999" points="298.25,-129.75 225.25,-129.75 225.25,-110.5 298.25,-110.5 298.25,-129.75"/>
<text text-anchor="middle" x="261.75" y="-116.25" font-family="Helvetica,sans-Serif" font-size="10.00">QJsonObject</text>
</a>
</g>
</g>
<!-- Node1&#45;&gt;Node7 -->
<g id="edge6_Node000001_Node000007" class="edge">
<title>Node1&#45;&gt;Node7</title>
<g id="a_edge6_Node000001_Node000007"><a xlink:title=" ">
<path fill="none" stroke="#63b8ff" d="M357.99,-220.63C355.07,-203.57 349.06,-181.56 336.75,-165.75 326.34,-152.38 310.71,-142.17 296.41,-134.92"/>
<polygon fill="#63b8ff" stroke="#63b8ff" points="298.23,-131.91 287.69,-130.8 295.24,-138.24 298.23,-131.91"/>
</a>
</g>
</g>
<!-- Node8 -->
<g id="Node000008" class="node">
<title>Node8</title>
<g id="a_Node000008"><a xlink:title=" ">
<polygon fill="#e0e0e0" stroke="#999999" points="580.75,-19.25 540.75,-19.25 540.75,0 580.75,0 580.75,-19.25"/>
<text text-anchor="middle" x="560.75" y="-5.75" font-family="Helvetica,sans-Serif" font-size="10.00">string</text>
</a>
</g>
</g>
<!-- Node1&#45;&gt;Node8 -->
<g id="edge7_Node000001_Node000008" class="edge">
<title>Node1&#45;&gt;Node8</title>
<g id="a_edge7_Node000001_Node000008"><a xlink:title=" ">
<path fill="none" stroke="#63b8ff" d="M425.7,-240.53C470.75,-233.51 529.93,-218.24 571.75,-185 599.83,-162.69 609.84,-145.66 602.75,-110.5 596.78,-80.91 581.79,-49.16 571.43,-29.6"/>
<polygon fill="#63b8ff" stroke="#63b8ff" points="574.56,-28.02 566.7,-20.92 568.42,-31.38 574.56,-28.02"/>
</a>
</g>
</g>
<!-- Node9 -->
<g id="Node000009" class="node">
<title>Node9</title>
<g id="a_Node000009"><a xlink:href="../../d6/d68/vector_8h.html" target="_top" xlink:title=" ">
<polygon fill="white" stroke="#666666" points="1400.75,-19.25 1306.75,-19.25 1306.75,0 1400.75,0 1400.75,-19.25"/>
<text text-anchor="middle" x="1353.75" y="-5.75" font-family="Helvetica,sans-Serif" font-size="10.00">../objects/vector.h</text>
</a>
</g>
</g>
<!-- Node1&#45;&gt;Node9 -->
<g id="edge8_Node000001_Node000009" class="edge">
<title>Node1&#45;&gt;Node9</title>
<g id="a_edge8_Node000001_Node000009"><a xlink:title=" ">
<path fill="none" stroke="#63b8ff" d="M425.62,-244C603.86,-236.16 1097.15,-207.82 1236.75,-129.75 1282.54,-104.14 1322.06,-55.21 1341.29,-28.72"/>
<polygon fill="#63b8ff" stroke="#63b8ff" points="1344.05,-30.89 1346.97,-20.71 1338.33,-26.84 1344.05,-30.89"/>
</a>
</g>
</g>
<!-- Node10 -->
<g id="Node000010" class="node">
<title>Node10</title>
<g id="a_Node000010"><a xlink:href="../../dc/d12/all__shapes_8h.html" target="_top" xlink:title=" ">
<polygon fill="white" stroke="#666666" points="986.88,-185 872.62,-185 872.62,-165.75 986.88,-165.75 986.88,-185"/>
<text text-anchor="middle" x="929.75" y="-171.5" font-family="Helvetica,sans-Serif" font-size="10.00">../objects/all_shapes.h</text>
</a>
</g>
</g>
<!-- Node1&#45;&gt;Node10 -->
<g id="edge9_Node000001_Node000010" class="edge">
<title>Node1&#45;&gt;Node10</title>
<g id="a_edge9_Node000001_Node000010"><a xlink:title=" ">
<path fill="none" stroke="#63b8ff" d="M425.74,-238.49C534.03,-225.14 750.38,-198.48 861.07,-184.84"/>
<polygon fill="#63b8ff" stroke="#63b8ff" points="861.41,-188.32 870.91,-183.63 860.56,-181.38 861.41,-188.32"/>
</a>
</g>
</g>
<!-- Node30 -->
<g id="Node000030" class="node">
<title>Node30</title>
<g id="a_Node000030"><a xlink:href="../../d9/d9f/_user_account_8h.html" target="_top" xlink:title=" ">
<polygon fill="white" stroke="#666666" points="562.38,-185 481.12,-185 481.12,-165.75 562.38,-165.75 562.38,-185"/>
<text text-anchor="middle" x="521.75" y="-171.5" font-family="Helvetica,sans-Serif" font-size="10.00">UserAccount.h</text>
</a>
</g>
</g>
<!-- Node1&#45;&gt;Node30 -->
<g id="edge39_Node000001_Node000030" class="edge">
<title>Node1&#45;&gt;Node30</title>
<g id="a_edge39_Node000001_Node000030"><a xlink:title=" ">
<path fill="none" stroke="#63b8ff" d="M420.24,-220.59C444.13,-210.18 470.66,-198.63 490.61,-189.94"/>
<polygon fill="#63b8ff" stroke="#63b8ff" points="491.8,-193.24 499.57,-186.04 489,-186.82 491.8,-193.24"/>
</a>
</g>
</g>
<!-- Node33 -->
<g id="Node000033" class="node">
<title>Node33</title>
<g id="a_Node000033"><a xlink:href="../../d5/d2a/_testimonial_8h.html" target="_top" xlink:title=" ">
<polygon fill="white" stroke="#666666" points="462.62,-185 388.88,-185 388.88,-165.75 462.62,-165.75 462.62,-185"/>
<text text-anchor="middle" x="425.75" y="-171.5" font-family="Helvetica,sans-Serif" font-size="10.00">Testimonial.h</text>
</a>
</g>
</g>
<!-- Node1&#45;&gt;Node33 -->
<g id="edge42_Node000001_Node000033" class="edge">
<title>Node1&#45;&gt;Node33</title>
<g id="a_edge42_Node000001_Node000033"><a xlink:title=" ">
<path fill="none" stroke="#63b8ff" d="M384.58,-220.79C392.9,-211.81 402.04,-201.96 409.59,-193.81"/>
<polygon fill="#63b8ff" stroke="#63b8ff" points="412.04,-196.31 416.28,-186.6 406.91,-191.55 412.04,-196.31"/>
</a>
</g>
</g>
<!-- Node11 -->
<g id="Node000011" class="node">
<title>Node11</title>
<g id="a_Node000011"><a xlink:href="../../d3/db6/circle_8h.html" target="_top" xlink:title=" ">
<polygon fill="white" stroke="#666666" points="1157.5,-129.75 1110,-129.75 1110,-110.5 1157.5,-110.5 1157.5,-129.75"/>
<text text-anchor="middle" x="1133.75" y="-116.25" font-family="Helvetica,sans-Serif" font-size="10.00">circle.h</text>
</a>
</g>
</g>
<!-- Node10&#45;&gt;Node11 -->
<g id="edge10_Node000010_Node000011" class="edge">
<title>Node10&#45;&gt;Node11</title>
<g id="a_edge10_Node000010_Node000011"><a xlink:title=" ">
<path fill="none" stroke="#63b8ff" d="M964.36,-165.34C1001.75,-155.58 1061.02,-140.11 1098.62,-130.29"/>
<polygon fill="#63b8ff" stroke="#63b8ff" points="1099.29,-133.74 1108.08,-127.83 1097.52,-126.96 1099.29,-133.74"/>
</a>
</g>
</g>
<!-- Node12 -->
<g id="Node000012" class="node">
<title>Node12</title>
<g id="a_Node000012"><a xlink:href="../../da/d18/shape_8h.html" target="_top" xlink:title=" ">
<polygon fill="white" stroke="#666666" points="994,-74.5 943.5,-74.5 943.5,-55.25 994,-55.25 994,-74.5"/>
<text text-anchor="middle" x="968.75" y="-61" font-family="Helvetica,sans-Serif" font-size="10.00">shape.h</text>
</a>
</g>
</g>
<!-- Node10&#45;&gt;Node12 -->
<g id="edge34_Node000010_Node000012" class="edge">
<title>Node10&#45;&gt;Node12</title>
<g id="a_edge34_Node000010_Node000012"><a xlink:title=" ">
<path fill="none" stroke="#63b8ff" d="M987.34,-170.19C1014.89,-164.95 1045.54,-153.67 1062.75,-129.75 1081.33,-103.92 1039.2,-85.28 1005.47,-75.03"/>
<polygon fill="#63b8ff" stroke="#63b8ff" points="1006.49,-71.68 995.91,-72.29 1004.56,-78.41 1006.49,-71.68"/>
</a>
</g>
</g>
<!-- Node23 -->
<g id="Node000023" class="node">
<title>Node23</title>
<g id="a_Node000023"><a xlink:href="../../da/dbf/ellipse_8h.html" target="_top" xlink:title=" ">
<polygon fill="white" stroke="#666666" points="1227.75,-129.75 1175.75,-129.75 1175.75,-110.5 1227.75,-110.5 1227.75,-129.75"/>
<text text-anchor="middle" x="1201.75" y="-116.25" font-family="Helvetica,sans-Serif" font-size="10.00">ellipse.h</text>
</a>
</g>
</g>
<!-- Node10&#45;&gt;Node23 -->
<g id="edge24_Node000010_Node000023" class="edge">
<title>Node10&#45;&gt;Node23</title>
<g id="a_edge24_Node000010_Node000023"><a xlink:title=" ">
<path fill="none" stroke="#63b8ff" d="M982.63,-165.28C1028.33,-157.23 1096.39,-144.78 1164.49,-130.15"/>
<polygon fill="#63b8ff" stroke="#63b8ff" points="1164.9,-133.64 1173.93,-128.1 1163.42,-126.8 1164.9,-133.64"/>
</a>
</g>
</g>
<!-- Node24 -->
<g id="Node000024" class="node">
<title>Node24</title>
<g id="a_Node000024"><a xlink:href="../../d7/d5d/line_8h.html" target="_top" xlink:title=" ">
<polygon fill="white" stroke="#666666" points="689.38,-129.75 650.12,-129.75 650.12,-110.5 689.38,-110.5 689.38,-129.75"/>
<text text-anchor="middle" x="669.75" y="-116.25" font-family="Helvetica,sans-Serif" font-size="10.00">line.h</text>
</a>
</g>
</g>
<!-- Node10&#45;&gt;Node24 -->
<g id="edge26_Node000010_Node000024" class="edge">
<title>Node10&#45;&gt;Node24</title>
<g id="a_edge26_Node000010_Node000024"><a xlink:title=" ">
<path fill="none" stroke="#63b8ff" d="M874.81,-165.33C830.28,-157.64 765.71,-145.7 700.54,-129.98"/>
<polygon fill="#63b8ff" stroke="#63b8ff" points="701.66,-126.66 691.12,-127.68 700,-133.46 701.66,-126.66"/>
</a>
</g>
</g>
<!-- Node25 -->
<g id="Node000025" class="node">
<title>Node25</title>
<g id="a_Node000025"><a xlink:href="../../dc/db6/polygon_8h.html" target="_top" xlink:title=" ">
<polygon fill="white" stroke="#666666" points="765.75,-129.75 707.75,-129.75 707.75,-110.5 765.75,-110.5 765.75,-129.75"/>
<text text-anchor="middle" x="736.75" y="-116.25" font-family="Helvetica,sans-Serif" font-size="10.00">polygon.h</text>
</a>
</g>
</g>
<!-- Node10&#45;&gt;Node25 -->
<g id="edge28_Node000010_Node000025" class="edge">
<title>Node10&#45;&gt;Node25</title>
<g id="a_edge28_Node000010_Node000025"><a xlink:title=" ">
<path fill="none" stroke="#63b8ff" d="M897.01,-165.34C863.92,-156.21 812.72,-142.09 777.13,-132.27"/>
<polygon fill="#63b8ff" stroke="#63b8ff" points="778.2,-128.93 767.62,-129.64 776.33,-135.68 778.2,-128.93"/>
</a>
</g>
</g>
<!-- Node26 -->
<g id="Node000026" class="node">
<title>Node26</title>
<g id="a_Node000026"><a xlink:href="../../d0/ddf/polyline_8h.html" target="_top" xlink:title=" ">
<polygon fill="white" stroke="#666666" points="841.38,-129.75 784.12,-129.75 784.12,-110.5 841.38,-110.5 841.38,-129.75"/>
<text text-anchor="middle" x="812.75" y="-116.25" font-family="Helvetica,sans-Serif" font-size="10.00">polyline.h</text>
</a>
</g>
</g>
<!-- Node10&#45;&gt;Node26 -->
<g id="edge30_Node000010_Node000026" class="edge">
<title>Node10&#45;&gt;Node26</title>
<g id="a_edge30_Node000010_Node000026"><a xlink:title=" ">
<path fill="none" stroke="#63b8ff" d="M909.9,-165.34C891.58,-157 864.1,-144.5 843.04,-134.91"/>
<polygon fill="#63b8ff" stroke="#63b8ff" points="844.62,-131.79 834.07,-130.83 841.72,-138.16 844.62,-131.79"/>
</a>
</g>
</g>
<!-- Node27 -->
<g id="Node000027" class="node">
<title>Node27</title>
<g id="a_Node000027"><a xlink:href="../../db/dd0/rectangle_8h.html" target="_top" xlink:title=" ">
<polygon fill="white" stroke="#666666" points="923.75,-129.75 859.75,-129.75 859.75,-110.5 923.75,-110.5 923.75,-129.75"/>
<text text-anchor="middle" x="891.75" y="-116.25" font-family="Helvetica,sans-Serif" font-size="10.00">rectangle.h</text>
</a>
</g>
</g>
<!-- Node10&#45;&gt;Node27 -->
<g id="edge32_Node000010_Node000027" class="edge">
<title>Node10&#45;&gt;Node27</title>
<g id="a_edge32_Node000010_Node000027"><a xlink:title=" ">
<path fill="none" stroke="#63b8ff" d="M923.48,-165.58C918.39,-158.46 911.05,-148.18 904.72,-139.3"/>
<polygon fill="#63b8ff" stroke="#63b8ff" points="907.7,-137.45 899.04,-131.34 902,-141.51 907.7,-137.45"/>
</a>
</g>
</g>
<!-- Node28 -->
<g id="Node000028" class="node">
<title>Node28</title>
<g id="a_Node000028"><a xlink:href="../../d7/d3c/square_8h.html" target="_top" xlink:title=" ">
<polygon fill="white" stroke="#666666" points="995.5,-129.75 942,-129.75 942,-110.5 995.5,-110.5 995.5,-129.75"/>
<text text-anchor="middle" x="968.75" y="-116.25" font-family="Helvetica,sans-Serif" font-size="10.00">square.h</text>
</a>
</g>
</g>
<!-- Node10&#45;&gt;Node28 -->
<g id="edge35_Node000010_Node000028" class="edge">
<title>Node10&#45;&gt;Node28</title>
<g id="a_edge35_Node000010_Node000028"><a xlink:title=" ">
<path fill="none" stroke="#63b8ff" d="M936.19,-165.58C941.41,-158.46 948.94,-148.18 955.44,-139.3"/>
<polygon fill="#63b8ff" stroke="#63b8ff" points="958.19,-141.47 961.28,-131.33 952.54,-137.33 958.19,-141.47"/>
</a>
</g>
</g>
<!-- Node29 -->
<g id="Node000029" class="node">
<title>Node29</title>
<g id="a_Node000029"><a xlink:href="../../d9/dcc/text_8h.html" target="_top" xlink:title=" ">
<polygon fill="white" stroke="#666666" points="1054.12,-129.75 1013.38,-129.75 1013.38,-110.5 1054.12,-110.5 1054.12,-129.75"/>
<text text-anchor="middle" x="1033.75" y="-116.25" font-family="Helvetica,sans-Serif" font-size="10.00">text.h</text>
</a>
</g>
</g>
<!-- Node10&#45;&gt;Node29 -->
<g id="edge37_Node000010_Node000029" class="edge">
<title>Node10&#45;&gt;Node29</title>
<g id="a_edge37_Node000010_Node000029"><a xlink:title=" ">
<path fill="none" stroke="#63b8ff" d="M947.39,-165.34C963.38,-157.16 987.21,-144.96 1005.79,-135.44"/>
<polygon fill="#63b8ff" stroke="#63b8ff" points="1007.37,-138.57 1014.67,-130.89 1004.18,-132.33 1007.37,-138.57"/>
</a>
</g>
</g>
<!-- Node11&#45;&gt;Node12 -->
<g id="edge11_Node000011_Node000012" class="edge">
<title>Node11&#45;&gt;Node12</title>
<g id="a_edge11_Node000011_Node000012"><a xlink:title=" ">
<path fill="none" stroke="#63b8ff" d="M1109.76,-111.38C1082.25,-102.51 1036.88,-87.86 1005.04,-77.59"/>
<polygon fill="#63b8ff" stroke="#63b8ff" points="1006.43,-74.36 995.84,-74.62 1004.28,-81.02 1006.43,-74.36"/>
</a>
</g>
</g>
<!-- Node12&#45;&gt;Node8 -->
<g id="edge12_Node000012_Node000008" class="edge">
<title>Node12&#45;&gt;Node8</title>
<g id="a_edge12_Node000012_Node000008"><a xlink:title=" ">
<path fill="none" stroke="#63b8ff" d="M943.23,-62.39C883.43,-58.59 729.56,-46.95 592.34,-19.46"/>
<polygon fill="#63b8ff" stroke="#63b8ff" points="593.22,-16.07 582.72,-17.49 591.81,-22.92 593.22,-16.07"/>
</a>
</g>
</g>
<!-- Node12&#45;&gt;Node9 -->
<g id="edge23_Node000012_Node000009" class="edge">
<title>Node12&#45;&gt;Node9</title>
<g id="a_edge23_Node000012_Node000009"><a xlink:title=" ">
<path fill="none" stroke="#63b8ff" d="M994.37,-60.56C1048.08,-53.57 1176.7,-36.67 1295.32,-19.58"/>
<polygon fill="#63b8ff" stroke="#63b8ff" points="1295.51,-23.09 1304.9,-18.2 1294.51,-16.16 1295.51,-23.09"/>
</a>
</g>
</g>
<!-- Node13 -->
<g id="Node000013" class="node">
<title>Node13</title>
<g id="a_Node000013"><a xlink:title=" ">
<polygon fill="#e0e0e0" stroke="#999999" points="958.25,-19.25 915.25,-19.25 915.25,0 958.25,0 958.25,-19.25"/>
<text text-anchor="middle" x="936.75" y="-5.75" font-family="Helvetica,sans-Serif" font-size="10.00">cmath</text>
</a>
</g>
</g>
<!-- Node12&#45;&gt;Node13 -->
<g id="edge13_Node000012_Node000013" class="edge">
<title>Node12&#45;&gt;Node13</title>
<g id="a_edge13_Node000012_Node000013"><a xlink:title=" ">
<path fill="none" stroke="#63b8ff" d="M963.47,-55.08C959.28,-48.11 953.27,-38.12 948.02,-29.37"/>
<polygon fill="#63b8ff" stroke="#63b8ff" points="951.08,-27.68 942.93,-20.91 945.08,-31.28 951.08,-27.68"/>
</a>
</g>
</g>
<!-- Node14 -->
<g id="Node000014" class="node">
<title>Node14</title>
<g id="a_Node000014"><a xlink:title=" ">
<polygon fill="#e0e0e0" stroke="#999999" points="1030.88,-19.25 976.62,-19.25 976.62,0 1030.88,0 1030.88,-19.25"/>
<text text-anchor="middle" x="1003.75" y="-5.75" font-family="Helvetica,sans-Serif" font-size="10.00">QWidget</text>
</a>
</g>
</g>
<!-- Node12&#45;&gt;Node14 -->
<g id="edge14_Node000012_Node000014" class="edge">
<title>Node12&#45;&gt;Node14</title>
<g id="a_edge14_Node000012_Node000014"><a xlink:title=" ">
<path fill="none" stroke="#63b8ff" d="M974.53,-55.08C979.16,-48.03 985.82,-37.9 991.62,-29.08"/>
<polygon fill="#63b8ff" stroke="#63b8ff" points="994.45,-31.15 997.01,-20.87 988.6,-27.31 994.45,-31.15"/>
</a>
</g>
</g>
<!-- Node15 -->
<g id="Node000015" class="node">
<title>Node15</title>
<g id="a_Node000015"><a xlink:title=" ">
<polygon fill="#e0e0e0" stroke="#999999" points="1096.12,-19.25 1049.38,-19.25 1049.38,0 1096.12,0 1096.12,-19.25"/>
<text text-anchor="middle" x="1072.75" y="-5.75" font-family="Helvetica,sans-Serif" font-size="10.00">QColor</text>
</a>
</g>
</g>
<!-- Node12&#45;&gt;Node15 -->
<g id="edge15_Node000012_Node000015" class="edge">
<title>Node12&#45;&gt;Node15</title>
<g id="a_edge15_Node000012_Node000015"><a xlink:title=" ">
<path fill="none" stroke="#63b8ff" d="M986.39,-54.84C1002.38,-46.66 1026.21,-34.46 1044.79,-24.94"/>
<polygon fill="#63b8ff" stroke="#63b8ff" points="1046.37,-28.07 1053.67,-20.39 1043.18,-21.83 1046.37,-28.07"/>
</a>
</g>
</g>
<!-- Node16 -->
<g id="Node000016" class="node">
<title>Node16</title>
<g id="a_Node000016"><a xlink:title=" ">
<polygon fill="#e0e0e0" stroke="#999999" points="1157.25,-19.25 1114.25,-19.25 1114.25,0 1157.25,0 1157.25,-19.25"/>
<text text-anchor="middle" x="1135.75" y="-5.75" font-family="Helvetica,sans-Serif" font-size="10.00">QFont</text>
</a>
</g>
</g>
<!-- Node12&#45;&gt;Node16 -->
<g id="edge16_Node000012_Node000016" class="edge">
<title>Node12&#45;&gt;Node16</title>
<g id="a_edge16_Node000012_Node000016"><a xlink:title=" ">
<path fill="none" stroke="#63b8ff" d="M994.48,-55.67C1023.65,-46.37 1071.28,-31.18 1103.06,-21.05"/>
<polygon fill="#63b8ff" stroke="#63b8ff" points="1104.08,-24.4 1112.54,-18.02 1101.95,-17.73 1104.08,-24.4"/>
</a>
</g>
</g>
<!-- Node17 -->
<g id="Node000017" class="node">
<title>Node17</title>
<g id="a_Node000017"><a xlink:title=" ">
<polygon fill="#e0e0e0" stroke="#999999" points="1216.12,-19.25 1175.38,-19.25 1175.38,0 1216.12,0 1216.12,-19.25"/>
<text text-anchor="middle" x="1195.75" y="-5.75" font-family="Helvetica,sans-Serif" font-size="10.00">QPen</text>
</a>
</g>
</g>
<!-- Node12&#45;&gt;Node17 -->
<g id="edge17_Node000012_Node000017" class="edge">
<title>Node12&#45;&gt;Node17</title>
<g id="a_edge17_Node000012_Node000017"><a xlink:title=" ">
<path fill="none" stroke="#63b8ff" d="M994.2,-58.71C1030.02,-51.32 1097.59,-36.94 1163.84,-19.88"/>
<polygon fill="#63b8ff" stroke="#63b8ff" points="1164.63,-23.3 1173.42,-17.39 1162.86,-16.52 1164.63,-23.3"/>
</a>
</g>
</g>
<!-- Node18 -->
<g id="Node000018" class="node">
<title>Node18</title>
<g id="a_Node000018"><a xlink:title=" ">
<polygon fill="#e0e0e0" stroke="#999999" points="1288.88,-19.25 1234.62,-19.25 1234.62,0 1288.88,0 1288.88,-19.25"/>
<text text-anchor="middle" x="1261.75" y="-5.75" font-family="Helvetica,sans-Serif" font-size="10.00">QPainter</text>
</a>
</g>
</g>
<!-- Node12&#45;&gt;Node18 -->
<g id="edge18_Node000012_Node000018" class="edge">
<title>Node12&#45;&gt;Node18</title>
<g id="a_edge18_Node000012_Node000018"><a xlink:title=" ">
<path fill="none" stroke="#63b8ff" d="M994.27,-59.92C1038.58,-52.94 1132.81,-37.64 1223.04,-19.49"/>
<polygon fill="#63b8ff" stroke="#63b8ff" points="1223.72,-22.92 1232.83,-17.5 1222.33,-16.06 1223.72,-22.92"/>
</a>
</g>
</g>
<!-- Node19 -->
<g id="Node000019" class="node">
<title>Node19</title>
<g id="a_Node000019"><a xlink:title=" ">
<polygon fill="#e0e0e0" stroke="#999999" points="638.38,-19.25 599.12,-19.25 599.12,0 638.38,0 638.38,-19.25"/>
<text text-anchor="middle" x="618.75" y="-5.75" font-family="Helvetica,sans-Serif" font-size="10.00">QList</text>
</a>
</g>
</g>
<!-- Node12&#45;&gt;Node19 -->
<g id="edge19_Node000012_Node000019" class="edge">
<title>Node12&#45;&gt;Node19</title>
<g id="a_edge19_Node000012_Node000019"><a xlink:title=" ">
<path fill="none" stroke="#63b8ff" d="M943.14,-61.64C890.15,-56.73 764.53,-43.66 649.69,-19.35"/>
<polygon fill="#63b8ff" stroke="#63b8ff" points="650.61,-15.97 640.1,-17.28 649.13,-22.81 650.61,-15.97"/>
</a>
</g>
</g>
<!-- Node20 -->
<g id="Node000020" class="node">
<title>Node20</title>
<g id="a_Node000020"><a xlink:title=" ">
<polygon fill="#e0e0e0" stroke="#999999" points="715.12,-19.25 656.38,-19.25 656.38,0 715.12,0 715.12,-19.25"/>
<text text-anchor="middle" x="685.75" y="-5.75" font-family="Helvetica,sans-Serif" font-size="10.00">QPolygon</text>
</a>
</g>
</g>
<!-- Node12&#45;&gt;Node20 -->
<g id="edge20_Node000012_Node000020" class="edge">
<title>Node12&#45;&gt;Node20</title>
<g id="a_edge20_Node000012_Node000020"><a xlink:title=" ">
<path fill="none" stroke="#63b8ff" d="M943.29,-59.61C900.56,-52.37 811.49,-36.94 726.71,-19.79"/>
<polygon fill="#63b8ff" stroke="#63b8ff" points="727.57,-16.39 717.08,-17.83 726.18,-23.25 727.57,-16.39"/>
</a>
</g>
</g>
<!-- Node21 -->
<g id="Node000021" class="node">
<title>Node21</title>
<g id="a_Node000021"><a xlink:title=" ">
<polygon fill="#e0e0e0" stroke="#999999" points="806.62,-19.25 732.88,-19.25 732.88,0 806.62,0 806.62,-19.25"/>
<text text-anchor="middle" x="769.75" y="-5.75" font-family="Helvetica,sans-Serif" font-size="10.00">QTreeWidget</text>
</a>
</g>
</g>
<!-- Node12&#45;&gt;Node21 -->
<g id="edge21_Node000012_Node000021" class="edge">
<title>Node12&#45;&gt;Node21</title>
<g id="a_edge21_Node000012_Node000021"><a xlink:title=" ">
<path fill="none" stroke="#63b8ff" d="M943.14,-57.02C910.68,-48.34 854.19,-33.22 814.53,-22.61"/>
<polygon fill="#63b8ff" stroke="#63b8ff" points="815.6,-19.27 805.03,-20.07 813.79,-26.03 815.6,-19.27"/>
</a>
</g>
</g>
<!-- Node22 -->
<g id="Node000022" class="node">
<title>Node22</title>
<g id="a_Node000022"><a xlink:title=" ">
<polygon fill="#e0e0e0" stroke="#999999" points="896.88,-19.25 824.62,-19.25 824.62,0 896.88,0 896.88,-19.25"/>
<text text-anchor="middle" x="860.75" y="-5.75" font-family="Helvetica,sans-Serif" font-size="10.00">QComboBox</text>
</a>
</g>
</g>
<!-- Node12&#45;&gt;Node22 -->
<g id="edge22_Node000012_Node000022" class="edge">
<title>Node12&#45;&gt;Node22</title>
<g id="a_edge22_Node000012_Node000022"><a xlink:title=" ">
<path fill="none" stroke="#63b8ff" d="M950.43,-54.84C933.67,-46.58 908.62,-34.23 889.25,-24.68"/>
<polygon fill="#63b8ff" stroke="#63b8ff" points="891.03,-21.65 880.52,-20.37 887.94,-27.93 891.03,-21.65"/>
</a>
</g>
</g>
<!-- Node23&#45;&gt;Node12 -->
<g id="edge25_Node000023_Node000012" class="edge">
<title>Node23&#45;&gt;Node12</title>
<g id="a_edge25_Node000023_Node000012"><a xlink:title=" ">
<path fill="none" stroke="#63b8ff" d="M1175.39,-112.57C1172.48,-111.86 1169.55,-111.16 1166.75,-110.5 1110.56,-97.25 1045.2,-82.68 1005.42,-73.91"/>
<polygon fill="#63b8ff" stroke="#63b8ff" points="1006.42,-70.55 995.9,-71.81 1004.91,-77.38 1006.42,-70.55"/>
</a>
</g>
</g>
<!-- Node24&#45;&gt;Node12 -->
<g id="edge27_Node000024_Node000012" class="edge">
<title>Node24&#45;&gt;Node12</title>
<g id="a_edge27_Node000024_Node000012"><a xlink:title=" ">
<path fill="none" stroke="#63b8ff" d="M689.63,-112.86C692.67,-112 695.78,-111.18 698.75,-110.5 781.22,-91.5 879.64,-77.34 931.89,-70.48"/>
<polygon fill="#63b8ff" stroke="#63b8ff" points="932.26,-73.96 941.73,-69.2 931.36,-67.02 932.26,-73.96"/>
</a>
</g>
</g>
<!-- Node25&#45;&gt;Node12 -->
<g id="edge29_Node000025_Node000012" class="edge">
<title>Node25&#45;&gt;Node12</title>
<g id="a_edge29_Node000025_Node000012"><a xlink:title=" ">
<path fill="none" stroke="#63b8ff" d="M766.13,-112.38C808.4,-102.68 886.3,-84.8 932.22,-74.26"/>
<polygon fill="#63b8ff" stroke="#63b8ff" points="932.72,-77.74 941.69,-72.09 931.16,-70.91 932.72,-77.74"/>
</a>
</g>
</g>
<!-- Node26&#45;&gt;Node12 -->
<g id="edge31_Node000026_Node000012" class="edge">
<title>Node26&#45;&gt;Node12</title>
<g id="a_edge31_Node000026_Node000012"><a xlink:title=" ">
<path fill="none" stroke="#63b8ff" d="M839.21,-110.09C864.85,-101.34 903.92,-88.01 932.45,-78.27"/>
<polygon fill="#63b8ff" stroke="#63b8ff" points="933.43,-81.63 941.76,-75.09 931.17,-75.01 933.43,-81.63"/>
</a>
</g>
</g>
<!-- Node27&#45;&gt;Node12 -->
<g id="edge33_Node000027_Node000012" class="edge">
<title>Node27&#45;&gt;Node12</title>
<g id="a_edge33_Node000027_Node000012"><a xlink:title=" ">
<path fill="none" stroke="#63b8ff" d="M904.81,-110.09C916.21,-102.21 932.98,-90.61 946.49,-81.27"/>
<polygon fill="#63b8ff" stroke="#63b8ff" points="948.15,-84.38 954.38,-75.81 944.16,-78.62 948.15,-84.38"/>
</a>
</g>
</g>
<!-- Node28&#45;&gt;Node12 -->
<g id="edge36_Node000028_Node000012" class="edge">
<title>Node28&#45;&gt;Node12</title>
<g id="a_edge36_Node000028_Node000012"><a xlink:title=" ">
<path fill="none" stroke="#63b8ff" d="M968.75,-110.33C968.75,-103.82 968.75,-94.67 968.75,-86.37"/>
<polygon fill="#63b8ff" stroke="#63b8ff" points="972.25,-86.37 968.75,-76.37 965.25,-86.37 972.25,-86.37"/>
</a>
</g>
</g>
<!-- Node29&#45;&gt;Node12 -->
<g id="edge38_Node000029_Node000012" class="edge">
<title>Node29&#45;&gt;Node12</title>
<g id="a_edge38_Node000029_Node000012"><a xlink:title=" ">
<path fill="none" stroke="#63b8ff" d="M1022.72,-110.09C1013.33,-102.4 999.6,-91.15 988.34,-81.93"/>
<polygon fill="#63b8ff" stroke="#63b8ff" points="990.74,-79.36 980.78,-75.73 986.3,-84.78 990.74,-79.36"/>
</a>
</g>
</g>
<!-- Node31 -->
<g id="Node000031" class="node">
<title>Node31</title>
<g id="a_Node000031"><a xlink:title=" ">
<polygon fill="#e0e0e0" stroke="#999999" points="536.25,-129.75 487.25,-129.75 487.25,-110.5 536.25,-110.5 536.25,-129.75"/>
<text text-anchor="middle" x="511.75" y="-116.25" font-family="Helvetica,sans-Serif" font-size="10.00">QString</text>
</a>
</g>
</g>
<!-- Node30&#45;&gt;Node31 -->
<g id="edge40_Node000030_Node000031" class="edge">
<title>Node30&#45;&gt;Node31</title>
<g id="a_edge40_Node000030_Node000031"><a xlink:title=" ">
<path fill="none" stroke="#63b8ff" d="M520.1,-165.58C518.86,-158.99 517.12,-149.71 515.54,-141.32"/>
<polygon fill="#63b8ff" stroke="#63b8ff" points="519,-140.78 513.72,-131.6 512.12,-142.07 519,-140.78"/>
</a>
</g>
</g>
<!-- Node32 -->
<g id="Node000032" class="node">
<title>Node32</title>
<g id="a_Node000032"><a xlink:title=" ">
<polygon fill="#e0e0e0" stroke="#999999" points="593.38,-129.75 554.12,-129.75 554.12,-110.5 593.38,-110.5 593.38,-129.75"/>
<text text-anchor="middle" x="573.75" y="-116.25" font-family="Helvetica,sans-Serif" font-size="10.00">utility</text>
</a>
</g>
</g>
<!-- Node30&#45;&gt;Node32 -->
<g id="edge41_Node000030_Node000032" class="edge">
<title>Node30&#45;&gt;Node32</title>
<g id="a_edge41_Node000030_Node000032"><a xlink:title=" ">
<path fill="none" stroke="#63b8ff" d="M530.34,-165.58C537.59,-158.15 548.2,-147.29 557.12,-138.16"/>
<polygon fill="#63b8ff" stroke="#63b8ff" points="559.44,-140.79 563.92,-131.19 554.43,-135.9 559.44,-140.79"/>
</a>
</g>
</g>
<!-- Node33&#45;&gt;Node6 -->
<g id="edge46_Node000033_Node000006" class="edge">
<title>Node33&#45;&gt;Node6</title>
<g id="a_edge46_Node000033_Node000006"><a xlink:title=" ">
<path fill="none" stroke="#63b8ff" d="M388.57,-166.52C343.44,-156.98 267.4,-140.91 218.94,-130.67"/>
<polygon fill="#63b8ff" stroke="#63b8ff" points="219.84,-127.29 209.33,-128.64 218.39,-134.14 219.84,-127.29"/>
</a>
</g>
</g>
<!-- Node33&#45;&gt;Node7 -->
<g id="edge45_Node000033_Node000007" class="edge">
<title>Node33&#45;&gt;Node7</title>
<g id="a_edge45_Node000033_Node000007"><a xlink:title=" ">
<path fill="none" stroke="#63b8ff" d="M397.93,-165.34C371.19,-156.66 330.53,-143.46 300.6,-133.74"/>
<polygon fill="#63b8ff" stroke="#63b8ff" points="301.74,-130.43 291.15,-130.67 299.58,-137.09 301.74,-130.43"/>
</a>
</g>
</g>
<!-- Node33&#45;&gt;Node31 -->
<g id="edge43_Node000033_Node000031" class="edge">
<title>Node33&#45;&gt;Node31</title>
<g id="a_edge43_Node000033_Node000031"><a xlink:title=" ">
<path fill="none" stroke="#63b8ff" d="M440.34,-165.34C453.19,-157.39 472.16,-145.64 487.32,-136.25"/>
<polygon fill="#63b8ff" stroke="#63b8ff" points="489.14,-139.24 495.8,-131 485.46,-133.29 489.14,-139.24"/>
</a>
</g>
</g>
<!-- Node34 -->
<g id="Node000034" class="node">
<title>Node34</title>
<g id="a_Node000034"><a xlink:title=" ">
<polygon fill="#e0e0e0" stroke="#999999" points="468.88,-129.75 402.62,-129.75 402.62,-110.5 468.88,-110.5 468.88,-129.75"/>
<text text-anchor="middle" x="435.75" y="-116.25" font-family="Helvetica,sans-Serif" font-size="10.00">QDateTime</text>
</a>
</g>
</g>
<!-- Node33&#45;&gt;Node34 -->
<g id="edge44_Node000033_Node000034" class="edge">
<title>Node33&#45;&gt;Node34</title>
<g id="a_edge44_Node000033_Node000034"><a xlink:title=" ">
<path fill="none" stroke="#63b8ff" d="M427.4,-165.58C428.64,-158.99 430.38,-149.71 431.96,-141.32"/>
<polygon fill="#63b8ff" stroke="#63b8ff" points="435.38,-142.07 433.78,-131.6 428.5,-140.78 435.38,-142.07"/>
</a>
</g>
</g>
<!-- Node35 -->
<g id="Node000035" class="node">
<title>Node35</title>
<g id="a_Node000035"><a xlink:title=" ">
<polygon fill="#e0e0e0" stroke="#999999" points="385,-129.75 316.5,-129.75 316.5,-110.5 385,-110.5 385,-129.75"/>
<text text-anchor="middle" x="350.75" y="-116.25" font-family="Helvetica,sans-Serif" font-size="10.00">QJsonValue</text>
</a>
</g>
</g>
<!-- Node33&#45;&gt;Node35 -->
<g id="edge47_Node000033_Node000035" class="edge">
<title>Node33&#45;&gt;Node35</title>
<g id="a_edge47_Node000033_Node000035"><a xlink:title=" ">
<path fill="none" stroke="#63b8ff" d="M413.03,-165.34C402.04,-157.54 385.91,-146.09 372.82,-136.79"/>
<polygon fill="#63b8ff" stroke="#63b8ff" points="374.95,-134.01 364.77,-131.08 370.9,-139.72 374.95,-134.01"/>
</a>
</g>
</g>
</g>
</svg>

<g id="navigator" transform="translate(0 0)" fill="#404254">
  <rect fill="#f2f5e9" fill-opacity="0.5" stroke="#606060" stroke-width=".5" x="0" y="0" width="60" height="60"/>
  <use id="zoomplus" xlink:href="#zoomPlus" x="17" y="9" onmousedown="handleZoom(evt,'in')"/>
  <use id="zoomminus" xlink:href="#zoomMin" x="42" y="9" onmousedown="handleZoom(evt,'out')"/>
  <use id="reset" xlink:href="#resetDef" x="30" y="36" onmousedown="handleReset()"/>
   <use id="arrowup" xlink:href="#arrowUp" x="0" y="0" onmousedown="handlePan(0,-1)"/>
  <use id="arrowright" xlink:href="#arrowRight" x="0" y="0" onmousedown="handlePan(1,0)"/>
  <use id="arrowdown" xlink:href="#arrowDown" x="0" y="0" onmousedown="handlePan(0,1)"/>
  <use id="arrowleft" xlink:href="#arrowLeft" x="0" y="0" onmousedown="handlePan(-1,0)"/>
</g>
<svg viewBox="0 0 15 15" width="100%" height="30px" preserveAspectRatio="xMaxYMin meet">
 <g id="arrow_out" transform="scale(0.3 0.3)">
  <a xlink:href="_parser_8h__incl_org.svg" target="_base">
   <rect id="button" ry="5" rx="5" y="6" x="6" height="38" width="38"
        fill="#f2f5e9" fill-opacity="0.5" stroke="#606060" stroke-width="1.0"/>
   <path id="arrow"
     d="M 11.500037,31.436501 C 11.940474,20.09759 22.043105,11.32322 32.158766,21.979434 L 37.068811,17.246167 C 37.068811,17.246167 37.088388,32 37.088388,32 L 22.160133,31.978069 C 22.160133,31.978069 26.997745,27.140456 26.997745,27.140456 C 18.528582,18.264221 13.291696,25.230495 11.500037,31.436501 z"
     style="fill:#404040;"/>
  </a>
 </g>
</svg>

<style type='text/css'>
<![CDATA[
[data-mouse-over-selected='false'] { opacity: 0.7; }
[data-mouse-over-selected='true']  { opacity: 1.0; }
]]>
</style>
<script type="application/ecmascript"><![CDATA[
document.addEventListener('DOMContentLoaded', (event) => {
  highlightEdges();
  highlightAdjacentNodes();
});
]]></script>
</svg>
