<?xml version="1.0" encoding="UTF-8" standalone="no"?>
<!DOCTYPE svg PUBLIC "-//W3C//DTD SVG 1.1//EN"
 "http://www.w3.org/Graphics/SVG/1.1/DTD/svg11.dtd">
<!-- Generated by graphviz version 12.2.1 (20241206.2353)
 -->
<!-- Title: /Users/gautam/Local/Forge/Team&#45;Alphawolves/2D&#45;Graphics&#45;Modeler/src/frontend/TestimonialsDisplayDialog.h Pages: 1 -->
<svg width="735pt" height="172pt"
 viewBox="0.00 0.00 735.00 171.50" xmlns="http://www.w3.org/2000/svg" xmlns:xlink="http://www.w3.org/1999/xlink">
<g id="graph0" class="graph" transform="scale(1 1) rotate(0) translate(4 167.5)">
<title>/Users/gautam/Local/Forge/Team&#45;Alphawolves/2D&#45;Graphics&#45;Modeler/src/frontend/TestimonialsDisplayDialog.h</title>
<!-- Node1 -->
<g id="Node000001" class="node">
<title>Node1</title>
<g id="a_Node000001"><a xlink:title="Defines the TestimonialsDisplayDialog class for showing customer testimonials.">
<polygon fill="#999999" stroke="#666666" points="366.12,-163.5 185.12,-163.5 185.12,-110.5 366.12,-110.5 366.12,-163.5"/>
<text text-anchor="start" x="193.12" y="-150" font-family="Helvetica,sans-Serif" font-size="10.00">/Users/gautam/Local</text>
<text text-anchor="start" x="193.12" y="-138.75" font-family="Helvetica,sans-Serif" font-size="10.00">/Forge/Team&#45;Alphawolves</text>
<text text-anchor="start" x="193.12" y="-127.5" font-family="Helvetica,sans-Serif" font-size="10.00">/2D&#45;Graphics&#45;Modeler/src</text>
<text text-anchor="middle" x="275.62" y="-116.25" font-family="Helvetica,sans-Serif" font-size="10.00">/frontend/TestimonialsDisplayDialog.h</text>
</a>
</g>
</g>
<!-- Node2 -->
<g id="Node000002" class="node">
<title>Node2</title>
<g id="a_Node000002"><a xlink:title=" ">
<polygon fill="#e0e0e0" stroke="#999999" points="51.25,-19.25 0,-19.25 0,0 51.25,0 51.25,-19.25"/>
<text text-anchor="middle" x="25.62" y="-5.75" font-family="Helvetica,sans-Serif" font-size="10.00">QDialog</text>
</a>
</g>
</g>
<!-- Node1&#45;&gt;Node2 -->
<g id="edge1_Node000001_Node000002" class="edge">
<title>Node1&#45;&gt;Node2</title>
<g id="a_edge1_Node000001_Node000002"><a xlink:title=" ">
<path fill="none" stroke="#63b8ff" d="M223.82,-110.02C172.23,-84.15 94.94,-45.39 53.78,-24.75"/>
<polygon fill="#63b8ff" stroke="#63b8ff" points="55.52,-21.7 45.01,-20.35 52.38,-27.96 55.52,-21.7"/>
</a>
</g>
</g>
<!-- Node3 -->
<g id="Node000003" class="node">
<title>Node3</title>
<g id="a_Node000003"><a xlink:title=" ">
<polygon fill="#e0e0e0" stroke="#999999" points="146,-19.25 69.25,-19.25 69.25,0 146,0 146,-19.25"/>
<text text-anchor="middle" x="107.62" y="-5.75" font-family="Helvetica,sans-Serif" font-size="10.00">QVBoxLayout</text>
</a>
</g>
</g>
<!-- Node1&#45;&gt;Node3 -->
<g id="edge2_Node000001_Node000003" class="edge">
<title>Node1&#45;&gt;Node3</title>
<g id="a_edge2_Node000001_Node000003"><a xlink:title=" ">
<path fill="none" stroke="#63b8ff" d="M240.82,-110.02C206.94,-84.74 156.59,-47.17 128.5,-26.2"/>
<polygon fill="#63b8ff" stroke="#63b8ff" points="130.87,-23.61 120.77,-20.43 126.69,-29.22 130.87,-23.61"/>
</a>
</g>
</g>
<!-- Node4 -->
<g id="Node000004" class="node">
<title>Node4</title>
<g id="a_Node000004"><a xlink:title=" ">
<polygon fill="#e0e0e0" stroke="#999999" points="232.88,-19.25 164.38,-19.25 164.38,0 232.88,0 232.88,-19.25"/>
<text text-anchor="middle" x="198.62" y="-5.75" font-family="Helvetica,sans-Serif" font-size="10.00">QScrollArea</text>
</a>
</g>
</g>
<!-- Node1&#45;&gt;Node4 -->
<g id="edge3_Node000001_Node000004" class="edge">
<title>Node1&#45;&gt;Node4</title>
<g id="a_edge3_Node000001_Node000004"><a xlink:title=" ">
<path fill="none" stroke="#63b8ff" d="M259.67,-110.02C244.89,-85.96 223.27,-50.75 210.12,-29.34"/>
<polygon fill="#63b8ff" stroke="#63b8ff" points="213.1,-27.51 204.88,-20.82 207.14,-31.17 213.1,-27.51"/>
</a>
</g>
</g>
<!-- Node5 -->
<g id="Node000005" class="node">
<title>Node5</title>
<g id="a_Node000005"><a xlink:title=" ">
<polygon fill="#e0e0e0" stroke="#999999" points="325.88,-19.25 251.38,-19.25 251.38,0 325.88,0 325.88,-19.25"/>
<text text-anchor="middle" x="288.62" y="-5.75" font-family="Helvetica,sans-Serif" font-size="10.00">QPushButton</text>
</a>
</g>
</g>
<!-- Node1&#45;&gt;Node5 -->
<g id="edge4_Node000001_Node000005" class="edge">
<title>Node1&#45;&gt;Node5</title>
<g id="a_edge4_Node000001_Node000005"><a xlink:title=" ">
<path fill="none" stroke="#63b8ff" d="M278.32,-110.02C280.76,-86.51 284.3,-52.36 286.53,-30.83"/>
<polygon fill="#63b8ff" stroke="#63b8ff" points="290,-31.34 287.55,-21.03 283.03,-30.62 290,-31.34"/>
</a>
</g>
</g>
<!-- Node6 -->
<g id="Node000006" class="node">
<title>Node6</title>
<g id="a_Node000006"><a xlink:title=" ">
<polygon fill="#e0e0e0" stroke="#999999" points="727,-19.25 680.25,-19.25 680.25,0 727,0 727,-19.25"/>
<text text-anchor="middle" x="703.62" y="-5.75" font-family="Helvetica,sans-Serif" font-size="10.00">QLabel</text>
</a>
</g>
</g>
<!-- Node1&#45;&gt;Node6 -->
<g id="edge5_Node000001_Node000006" class="edge">
<title>Node1&#45;&gt;Node6</title>
<g id="a_edge5_Node000001_Node000006"><a xlink:title=" ">
<path fill="none" stroke="#63b8ff" d="M336.15,-110.04C360.64,-99.32 389.11,-86.6 414.62,-74.5 431.73,-66.39 434.63,-61.14 452.62,-55.25 542.58,-25.81 572.42,-38.66 668.77,-19.41"/>
<polygon fill="#63b8ff" stroke="#63b8ff" points="669.33,-22.87 678.41,-17.41 667.91,-16.01 669.33,-22.87"/>
</a>
</g>
</g>
<!-- Node7 -->
<g id="Node000007" class="node">
<title>Node7</title>
<g id="a_Node000007"><a xlink:title=" ">
<polygon fill="#e0e0e0" stroke="#999999" points="513.25,-74.5 462,-74.5 462,-55.25 513.25,-55.25 513.25,-74.5"/>
<text text-anchor="middle" x="487.62" y="-61" font-family="Helvetica,sans-Serif" font-size="10.00">QFrame</text>
</a>
</g>
</g>
<!-- Node1&#45;&gt;Node7 -->
<g id="edge6_Node000001_Node000007" class="edge">
<title>Node1&#45;&gt;Node7</title>
<g id="a_edge6_Node000001_Node000007"><a xlink:title=" ">
<path fill="none" stroke="#63b8ff" d="M353.96,-110.09C387.2,-99.09 424.33,-86.81 451.01,-77.99"/>
<polygon fill="#63b8ff" stroke="#63b8ff" points="451.93,-81.37 460.32,-74.91 449.73,-74.72 451.93,-81.37"/>
</a>
</g>
</g>
<!-- Node8 -->
<g id="Node000008" class="node">
<title>Node8</title>
<g id="a_Node000008"><a xlink:href="../../d9/db8/_testimonial_dialog_8h.html" target="_top" xlink:title="Defines the TestimonialDialog class for submitting user testimonials.">
<polygon fill="white" stroke="#666666" points="405.38,-74.5 303.88,-74.5 303.88,-55.25 405.38,-55.25 405.38,-74.5"/>
<text text-anchor="middle" x="354.62" y="-61" font-family="Helvetica,sans-Serif" font-size="10.00">TestimonialDialog.h</text>
</a>
</g>
</g>
<!-- Node1&#45;&gt;Node8 -->
<g id="edge7_Node000001_Node000008" class="edge">
<title>Node1&#45;&gt;Node8</title>
<g id="a_edge7_Node000001_Node000008"><a xlink:title=" ">
<path fill="none" stroke="#63b8ff" d="M304.59,-110.29C315.03,-101.02 326.52,-90.82 335.86,-82.53"/>
<polygon fill="#63b8ff" stroke="#63b8ff" points="338.07,-85.25 343.23,-75.99 333.43,-80.01 338.07,-85.25"/>
</a>
</g>
</g>
<!-- Node8&#45;&gt;Node2 -->
<g id="edge8_Node000008_Node000002" class="edge">
<title>Node8&#45;&gt;Node2</title>
<g id="a_edge8_Node000008_Node000002"><a xlink:title=" ">
<path fill="none" stroke="#63b8ff" d="M303.39,-57.54C246.89,-50.23 153.08,-37.15 62.83,-19.52"/>
<polygon fill="#63b8ff" stroke="#63b8ff" points="63.53,-16.1 53.04,-17.59 62.18,-22.96 63.53,-16.1"/>
</a>
</g>
</g>
<!-- Node8&#45;&gt;Node3 -->
<g id="edge12_Node000008_Node000003" class="edge">
<title>Node8&#45;&gt;Node3</title>
<g id="a_edge12_Node000008_Node000003"><a xlink:title=" ">
<path fill="none" stroke="#63b8ff" d="M312.44,-54.78C269.51,-45.53 202.98,-31.18 157.47,-21.37"/>
<polygon fill="#63b8ff" stroke="#63b8ff" points="158.37,-17.98 147.86,-19.3 156.89,-24.83 158.37,-17.98"/>
</a>
</g>
</g>
<!-- Node8&#45;&gt;Node4 -->
<g id="edge16_Node000008_Node000004" class="edge">
<title>Node8&#45;&gt;Node4</title>
<g id="a_edge16_Node000008_Node000004"><a xlink:title=" ">
<path fill="none" stroke="#63b8ff" d="M328.16,-54.84C302.84,-46.2 264.39,-33.07 235.96,-23.37"/>
<polygon fill="#63b8ff" stroke="#63b8ff" points="237.25,-20.11 226.65,-20.19 234.98,-26.73 237.25,-20.11"/>
</a>
</g>
</g>
<!-- Node8&#45;&gt;Node5 -->
<g id="edge14_Node000008_Node000005" class="edge">
<title>Node8&#45;&gt;Node5</title>
<g id="a_edge14_Node000008_Node000005"><a xlink:title=" ">
<path fill="none" stroke="#63b8ff" d="M343.43,-54.84C333.89,-47.15 319.95,-35.9 308.52,-26.68"/>
<polygon fill="#63b8ff" stroke="#63b8ff" points="310.81,-24.03 300.83,-20.48 306.42,-29.48 310.81,-24.03"/>
</a>
</g>
</g>
<!-- Node8&#45;&gt;Node6 -->
<g id="edge15_Node000008_Node000006" class="edge">
<title>Node8&#45;&gt;Node6</title>
<g id="a_edge15_Node000008_Node000006"><a xlink:title=" ">
<path fill="none" stroke="#63b8ff" d="M405.58,-57.01C481.37,-46.75 619.4,-27.88 668.7,-19.27"/>
<polygon fill="#63b8ff" stroke="#63b8ff" points="669.23,-22.73 678.42,-17.45 667.95,-15.85 669.23,-22.73"/>
</a>
</g>
</g>
<!-- Node9 -->
<g id="Node000009" class="node">
<title>Node9</title>
<g id="a_Node000009"><a xlink:title=" ">
<polygon fill="#e0e0e0" stroke="#999999" points="508.25,-19.25 439,-19.25 439,0 508.25,0 508.25,-19.25"/>
<text text-anchor="middle" x="473.62" y="-5.75" font-family="Helvetica,sans-Serif" font-size="10.00">QCheckBox</text>
</a>
</g>
</g>
<!-- Node8&#45;&gt;Node9 -->
<g id="edge9_Node000008_Node000009" class="edge">
<title>Node8&#45;&gt;Node9</title>
<g id="a_edge9_Node000008_Node000009"><a xlink:title=" ">
<path fill="none" stroke="#63b8ff" d="M374.81,-54.84C393.53,-46.47 421.65,-33.88 443.11,-24.28"/>
<polygon fill="#63b8ff" stroke="#63b8ff" points="444.26,-27.6 451.96,-20.32 441.4,-21.21 444.26,-27.6"/>
</a>
</g>
</g>
<!-- Node10 -->
<g id="Node000010" class="node">
<title>Node10</title>
<g id="a_Node000010"><a xlink:title=" ">
<polygon fill="#e0e0e0" stroke="#999999" points="585.38,-19.25 525.88,-19.25 525.88,0 585.38,0 585.38,-19.25"/>
<text text-anchor="middle" x="555.62" y="-5.75" font-family="Helvetica,sans-Serif" font-size="10.00">QTextEdit</text>
</a>
</g>
</g>
<!-- Node8&#45;&gt;Node10 -->
<g id="edge10_Node000008_Node000010" class="edge">
<title>Node8&#45;&gt;Node10</title>
<g id="a_edge10_Node000008_Node000010"><a xlink:title=" ">
<path fill="none" stroke="#63b8ff" d="M388.72,-54.84C423.54,-45.62 477.6,-31.3 514.7,-21.47"/>
<polygon fill="#63b8ff" stroke="#63b8ff" points="515.4,-24.9 524.17,-18.96 513.61,-18.14 515.4,-24.9"/>
</a>
</g>
</g>
<!-- Node11 -->
<g id="Node000011" class="node">
<title>Node11</title>
<g id="a_Node000011"><a xlink:title=" ">
<polygon fill="#e0e0e0" stroke="#999999" points="662,-19.25 603.25,-19.25 603.25,0 662,0 662,-19.25"/>
<text text-anchor="middle" x="632.62" y="-5.75" font-family="Helvetica,sans-Serif" font-size="10.00">QLineEdit</text>
</a>
</g>
</g>
<!-- Node8&#45;&gt;Node11 -->
<g id="edge11_Node000008_Node000011" class="edge">
<title>Node8&#45;&gt;Node11</title>
<g id="a_edge11_Node000008_Node000011"><a xlink:title=" ">
<path fill="none" stroke="#63b8ff" d="M405.77,-54.97C451.97,-46.79 522.1,-34.03 591.63,-19.81"/>
<polygon fill="#63b8ff" stroke="#63b8ff" points="592.21,-23.27 601.3,-17.82 590.8,-16.41 592.21,-23.27"/>
</a>
</g>
</g>
<!-- Node12 -->
<g id="Node000012" class="node">
<title>Node12</title>
<g id="a_Node000012"><a xlink:title=" ">
<polygon fill="#e0e0e0" stroke="#999999" points="421.38,-19.25 343.88,-19.25 343.88,0 421.38,0 421.38,-19.25"/>
<text text-anchor="middle" x="382.62" y="-5.75" font-family="Helvetica,sans-Serif" font-size="10.00">QHBoxLayout</text>
</a>
</g>
</g>
<!-- Node8&#45;&gt;Node12 -->
<g id="edge13_Node000008_Node000012" class="edge">
<title>Node8&#45;&gt;Node12</title>
<g id="a_edge13_Node000008_Node000012"><a xlink:title=" ">
<path fill="none" stroke="#63b8ff" d="M359.25,-55.08C362.87,-48.19 368.05,-38.34 372.62,-29.66"/>
<polygon fill="#63b8ff" stroke="#63b8ff" points="375.64,-31.43 377.2,-20.95 369.44,-28.17 375.64,-31.43"/>
</a>
</g>
</g>
</g>
</svg>
