<?xml version="1.0" encoding="UTF-8" standalone="no"?>
<!DOCTYPE svg PUBLIC "-//W3C//DTD SVG 1.1//EN"
 "http://www.w3.org/Graphics/SVG/1.1/DTD/svg11.dtd">
<!-- Generated by graphviz version 12.2.1 (20241206.2353)
 -->
<!-- Title: TestimonialDialog::TestimonialDialog Pages: 1 -->
<svg width="892pt" height="420pt"
 viewBox="0.00 0.00 891.50 419.88" xmlns="http://www.w3.org/2000/svg" xmlns:xlink="http://www.w3.org/1999/xlink">
<g id="graph0" class="graph" transform="scale(1 1) rotate(0) translate(4 415.88)">
<title>TestimonialDialog::TestimonialDialog</title>
<!-- Node1 -->
<g id="Node000001" class="node">
<title>Node1</title>
<g id="a_Node000001"><a xlink:title="Constructs a TestimonialDialog.">
<polygon fill="#999999" stroke="#666666" points="99.25,-152.88 0,-152.88 0,-122.38 99.25,-122.38 99.25,-152.88"/>
<text text-anchor="start" x="8" y="-139.38" font-family="Helvetica,sans-Serif" font-size="10.00">TestimonialDialog::</text>
<text text-anchor="middle" x="49.62" y="-128.12" font-family="Helvetica,sans-Serif" font-size="10.00">TestimonialDialog</text>
</a>
</g>
</g>
<!-- Node2 -->
<g id="Node000002" class="node">
<title>Node2</title>
<g id="a_Node000002"><a xlink:href="../../d4/d1f/class_testimonial_dialog.html#a4a73a410e9fd8c28b794fe0584976414" target="_top" xlink:title="Handles the cancellation of the testimonial submission.">
<polygon fill="white" stroke="#666666" points="234.5,-177.88 135.25,-177.88 135.25,-147.38 234.5,-147.38 234.5,-177.88"/>
<text text-anchor="start" x="143.25" y="-164.38" font-family="Helvetica,sans-Serif" font-size="10.00">TestimonialDialog::</text>
<text text-anchor="middle" x="184.88" y="-153.12" font-family="Helvetica,sans-Serif" font-size="10.00">onCancel</text>
</a>
</g>
</g>
<!-- Node1&#45;&gt;Node2 -->
<g id="edge1_Node000001_Node000002" class="edge">
<title>Node1&#45;&gt;Node2</title>
<g id="a_edge1_Node000001_Node000002"><a xlink:title=" ">
<path fill="none" stroke="#63b8ff" d="M99.49,-146.79C107.45,-148.29 115.78,-149.85 123.98,-151.39"/>
<polygon fill="#63b8ff" stroke="#63b8ff" points="123.06,-154.78 133.53,-153.18 124.35,-147.9 123.06,-154.78"/>
</a>
</g>
</g>
<!-- Node20 -->
<g id="Node000020" class="node">
<title>Node20</title>
<g id="a_Node000020"><a xlink:href="../../d4/d1f/class_testimonial_dialog.html#a98f2520e872b1eabda8e66a3807ef39e" target="_top" xlink:title="Handles the submission of a new testimonial.">
<polygon fill="white" stroke="#666666" points="234.5,-128.88 135.25,-128.88 135.25,-98.38 234.5,-98.38 234.5,-128.88"/>
<text text-anchor="start" x="143.25" y="-115.38" font-family="Helvetica,sans-Serif" font-size="10.00">TestimonialDialog::</text>
<text text-anchor="middle" x="184.88" y="-104.12" font-family="Helvetica,sans-Serif" font-size="10.00">onSubmit</text>
</a>
</g>
</g>
<!-- Node1&#45;&gt;Node20 -->
<g id="edge19_Node000001_Node000020" class="edge">
<title>Node1&#45;&gt;Node20</title>
<g id="a_edge19_Node000001_Node000020"><a xlink:title=" ">
<path fill="none" stroke="#63b8ff" d="M99.49,-128.82C107.36,-127.41 115.59,-125.92 123.7,-124.46"/>
<polygon fill="#63b8ff" stroke="#63b8ff" points="124.31,-127.91 133.53,-122.69 123.07,-121.02 124.31,-127.91"/>
</a>
</g>
</g>
<!-- Node3 -->
<g id="Node000003" class="node">
<title>Node3</title>
<g id="a_Node000003"><a xlink:href="../../d4/d0d/class_testimonial_manager.html#a7b05489ceb9a8bd5e94e955c50b9515f" target="_top" xlink:title="Returns a reference to the singleton TestimonialManager instance.">
<polygon fill="white" stroke="#666666" points="378.75,-177.88 275.75,-177.88 275.75,-147.38 378.75,-147.38 378.75,-177.88"/>
<text text-anchor="start" x="283.75" y="-164.38" font-family="Helvetica,sans-Serif" font-size="10.00">TestimonialManager</text>
<text text-anchor="middle" x="327.25" y="-153.12" font-family="Helvetica,sans-Serif" font-size="10.00">::getInstance</text>
</a>
</g>
</g>
<!-- Node2&#45;&gt;Node3 -->
<g id="edge2_Node000002_Node000003" class="edge">
<title>Node2&#45;&gt;Node3</title>
<g id="a_edge2_Node000002_Node000003"><a xlink:title=" ">
<path fill="none" stroke="#63b8ff" d="M234.97,-162.62C244.4,-162.62 254.4,-162.62 264.18,-162.62"/>
<polygon fill="#63b8ff" stroke="#63b8ff" points="264,-166.13 274,-162.63 264,-159.13 264,-166.13"/>
</a>
</g>
</g>
<!-- Node17 -->
<g id="Node000017" class="node">
<title>Node17</title>
<g id="a_Node000017"><a xlink:href="../../d4/d0d/class_testimonial_manager.html#af8576194e4cc9cc482d460666880c8b1" target="_top" xlink:title="Sets the &quot;do not show again&quot; preference for a user.">
<polygon fill="white" stroke="#666666" points="384,-128.88 270.5,-128.88 270.5,-98.38 384,-98.38 384,-128.88"/>
<text text-anchor="start" x="278.5" y="-115.38" font-family="Helvetica,sans-Serif" font-size="10.00">TestimonialManager</text>
<text text-anchor="middle" x="327.25" y="-104.12" font-family="Helvetica,sans-Serif" font-size="10.00">::setDoNotShowAgain</text>
</a>
</g>
</g>
<!-- Node2&#45;&gt;Node17 -->
<g id="edge16_Node000002_Node000017" class="edge">
<title>Node2&#45;&gt;Node17</title>
<g id="a_edge16_Node000002_Node000017"><a xlink:title=" ">
<path fill="none" stroke="#63b8ff" d="M230.68,-146.99C243.47,-142.52 257.55,-137.6 270.89,-132.95"/>
<polygon fill="#63b8ff" stroke="#63b8ff" points="271.68,-136.38 279.96,-129.78 269.37,-129.77 271.68,-136.38"/>
</a>
</g>
</g>
<!-- Node4 -->
<g id="Node000004" class="node">
<title>Node4</title>
<g id="a_Node000004"><a xlink:href="../../d4/d0d/class_testimonial_manager.html#aded0ef0783e1e67e701f7c3bf3a80072" target="_top" xlink:title="Private constructor to enforce singleton pattern. Initializes API connections and timer.">
<polygon fill="white" stroke="#666666" points="529,-211.88 420,-211.88 420,-181.38 529,-181.38 529,-211.88"/>
<text text-anchor="start" x="428" y="-198.38" font-family="Helvetica,sans-Serif" font-size="10.00">TestimonialManager</text>
<text text-anchor="middle" x="474.5" y="-187.12" font-family="Helvetica,sans-Serif" font-size="10.00">::TestimonialManager</text>
</a>
</g>
</g>
<!-- Node3&#45;&gt;Node4 -->
<g id="edge3_Node000003_Node000004" class="edge">
<title>Node3&#45;&gt;Node4</title>
<g id="a_edge3_Node000003_Node000004"><a xlink:title=" ">
<path fill="none" stroke="#63b8ff" d="M379.05,-174.52C388.56,-176.74 398.62,-179.1 408.49,-181.41"/>
<polygon fill="#63b8ff" stroke="#63b8ff" points="407.51,-184.77 418.04,-183.64 409.1,-177.96 407.51,-184.77"/>
</a>
</g>
</g>
<!-- Node5 -->
<g id="Node000005" class="node">
<title>Node5</title>
<g id="a_Node000005"><a xlink:href="../../d2/dd1/class_api_client.html#ae22339e302eb27bc51fbdfc1b7c1a4ec" target="_top" xlink:title="Signal for a failed request sent to a Get endpoint.">
<polygon fill="white" stroke="#666666" points="693.5,-265.25 573.25,-265.25 573.25,-246 693.5,-246 693.5,-265.25"/>
<text text-anchor="middle" x="633.38" y="-251.75" font-family="Helvetica,sans-Serif" font-size="10.00">ApiClient::BadGetReply</text>
</a>
</g>
</g>
<!-- Node4&#45;&gt;Node5 -->
<g id="edge4_Node000004_Node000005" class="edge">
<title>Node4&#45;&gt;Node5</title>
<g id="a_edge4_Node000004_Node000005"><a xlink:title=" ">
<path fill="none" stroke="#63b8ff" d="M506.44,-212.36C523.44,-220.61 545.06,-230.45 565,-237.62 569.68,-239.31 574.59,-240.91 579.53,-242.42"/>
<polygon fill="#63b8ff" stroke="#63b8ff" points="578.31,-245.71 588.89,-245.15 580.27,-238.99 578.31,-245.71"/>
</a>
</g>
</g>
<!-- Node6 -->
<g id="Node000006" class="node">
<title>Node6</title>
<g id="a_Node000006"><a xlink:href="../../d2/dd1/class_api_client.html#ac0f68b238bace3703854d7de15a3bb38" target="_top" xlink:title="Signal for a failed request sent to a Post endpoint.">
<polygon fill="white" stroke="#666666" points="695.75,-228.25 571,-228.25 571,-209 695.75,-209 695.75,-228.25"/>
<text text-anchor="middle" x="633.38" y="-214.75" font-family="Helvetica,sans-Serif" font-size="10.00">ApiClient::BadPostReply</text>
</a>
</g>
</g>
<!-- Node4&#45;&gt;Node6 -->
<g id="edge5_Node000004_Node000006" class="edge">
<title>Node4&#45;&gt;Node6</title>
<g id="a_edge5_Node000004_Node000006"><a xlink:title=" ">
<path fill="none" stroke="#63b8ff" d="M529.49,-204.2C539.15,-205.55 549.36,-206.98 559.44,-208.4"/>
<polygon fill="#63b8ff" stroke="#63b8ff" points="558.86,-211.85 569.24,-209.77 559.83,-204.92 558.86,-211.85"/>
</a>
</g>
</g>
<!-- Node7 -->
<g id="Node000007" class="node">
<title>Node7</title>
<g id="a_Node000007"><a xlink:href="../../d4/d0d/class_testimonial_manager.html#a69979eb09835fcb35d804fa169b63f0f" target="_top" xlink:title="Checks accumulated user time and emits shouldPromptForTestimonial if criteria are met.">
<polygon fill="white" stroke="#666666" points="692.75,-190.88 574,-190.88 574,-160.38 692.75,-160.38 692.75,-190.88"/>
<text text-anchor="start" x="582" y="-177.38" font-family="Helvetica,sans-Serif" font-size="10.00">TestimonialManager</text>
<text text-anchor="middle" x="633.38" y="-166.12" font-family="Helvetica,sans-Serif" font-size="10.00">::checkTimeAndPrompt</text>
</a>
</g>
</g>
<!-- Node4&#45;&gt;Node7 -->
<g id="edge6_Node000004_Node000007" class="edge">
<title>Node4&#45;&gt;Node7</title>
<g id="a_edge6_Node000004_Node000007"><a xlink:title=" ">
<path fill="none" stroke="#63b8ff" d="M529.49,-189.4C540.08,-187.98 551.33,-186.47 562.36,-185"/>
<polygon fill="#63b8ff" stroke="#63b8ff" points="562.78,-188.47 572.23,-183.68 561.85,-181.53 562.78,-188.47"/>
</a>
</g>
</g>
<!-- Node11 -->
<g id="Node000011" class="node">
<title>Node11</title>
<g id="a_Node000011"><a xlink:href="../../d2/dd1/class_api_client.html#a940bf610f9fa472fc660e1ab60203de7" target="_top" xlink:title="Signal for a successful request sent to a Get endpoint.">
<polygon fill="white" stroke="#666666" points="696.5,-142.25 570.25,-142.25 570.25,-123 696.5,-123 696.5,-142.25"/>
<text text-anchor="middle" x="633.38" y="-128.75" font-family="Helvetica,sans-Serif" font-size="10.00">ApiClient::GoodGetReply</text>
</a>
</g>
</g>
<!-- Node4&#45;&gt;Node11 -->
<g id="edge10_Node000004_Node000011" class="edge">
<title>Node4&#45;&gt;Node11</title>
<g id="a_edge10_Node000004_Node000011"><a xlink:title=" ">
<path fill="none" stroke="#63b8ff" d="M503.09,-181.03C520.47,-171.64 543.6,-159.93 565,-151.62 570.05,-149.67 575.37,-147.81 580.73,-146.09"/>
<polygon fill="#63b8ff" stroke="#63b8ff" points="581.71,-149.45 590.26,-143.18 579.67,-142.76 581.71,-149.45"/>
</a>
</g>
</g>
<!-- Node12 -->
<g id="Node000012" class="node">
<title>Node12</title>
<g id="a_Node000012"><a xlink:href="../../d2/dd1/class_api_client.html#aa2e03a2c693acb0052f80415b453e279" target="_top" xlink:title="Signal for a successful request sent to a Post endpoint.">
<polygon fill="white" stroke="#666666" points="698.75,-105.25 568,-105.25 568,-86 698.75,-86 698.75,-105.25"/>
<text text-anchor="middle" x="633.38" y="-91.75" font-family="Helvetica,sans-Serif" font-size="10.00">ApiClient::GoodPostReply</text>
</a>
</g>
</g>
<!-- Node4&#45;&gt;Node12 -->
<g id="edge11_Node000004_Node000012" class="edge">
<title>Node4&#45;&gt;Node12</title>
<g id="a_edge11_Node000004_Node000012"><a xlink:title=" ">
<path fill="none" stroke="#63b8ff" d="M488.06,-181.04C504,-162.29 533.28,-131.14 565,-113.62 567.5,-112.24 570.12,-110.96 572.81,-109.78"/>
<polygon fill="#63b8ff" stroke="#63b8ff" points="573.95,-113.09 582.01,-106.21 571.42,-106.56 573.95,-113.09"/>
</a>
</g>
</g>
<!-- Node13 -->
<g id="Node000013" class="node">
<title>Node13</title>
<g id="a_Node000013"><a xlink:href="../../d4/d0d/class_testimonial_manager.html#aa256bebedcc689ce416c7a2fcade3900" target="_top" xlink:title="Slot called when a GET request for testimonials fails.">
<polygon fill="white" stroke="#666666" points="688.25,-67.88 578.5,-67.88 578.5,-37.38 688.25,-37.38 688.25,-67.88"/>
<text text-anchor="start" x="586.5" y="-54.38" font-family="Helvetica,sans-Serif" font-size="10.00">TestimonialManager</text>
<text text-anchor="middle" x="633.38" y="-43.12" font-family="Helvetica,sans-Serif" font-size="10.00">::onBadGetResponse</text>
</a>
</g>
</g>
<!-- Node4&#45;&gt;Node13 -->
<g id="edge12_Node000004_Node000013" class="edge">
<title>Node4&#45;&gt;Node13</title>
<g id="a_edge12_Node000004_Node000013"><a xlink:title=" ">
<path fill="none" stroke="#63b8ff" d="M483.19,-181.06C496.49,-155.68 526.11,-105.34 565,-76.62 566.34,-75.63 567.73,-74.68 569.15,-73.76"/>
<polygon fill="#63b8ff" stroke="#63b8ff" points="570.67,-76.93 577.67,-68.98 567.23,-70.83 570.67,-76.93"/>
</a>
</g>
</g>
<!-- Node14 -->
<g id="Node000014" class="node">
<title>Node14</title>
<g id="a_Node000014"><a xlink:href="../../d4/d0d/class_testimonial_manager.html#acfda7a2d454b513c1c75d8d030a43dd9" target="_top" xlink:title="Slot called when a POST request to save testimonials fails.">
<polygon fill="white" stroke="#666666" points="690.5,-411.88 576.25,-411.88 576.25,-381.38 690.5,-381.38 690.5,-411.88"/>
<text text-anchor="start" x="584.25" y="-398.38" font-family="Helvetica,sans-Serif" font-size="10.00">TestimonialManager</text>
<text text-anchor="middle" x="633.38" y="-387.12" font-family="Helvetica,sans-Serif" font-size="10.00">::onBadPostResponse</text>
</a>
</g>
</g>
<!-- Node4&#45;&gt;Node14 -->
<g id="edge13_Node000004_Node000014" class="edge">
<title>Node4&#45;&gt;Node14</title>
<g id="a_edge13_Node000004_Node000014"><a xlink:title=" ">
<path fill="none" stroke="#63b8ff" d="M479.36,-212.33C488.45,-246.19 514.37,-326.62 565,-371.62 566.25,-372.74 567.56,-373.8 568.91,-374.82"/>
<polygon fill="#63b8ff" stroke="#63b8ff" points="566.81,-377.63 577.12,-380.09 570.59,-371.74 566.81,-377.63"/>
</a>
</g>
</g>
<!-- Node15 -->
<g id="Node000015" class="node">
<title>Node15</title>
<g id="a_Node000015"><a xlink:href="../../d4/d0d/class_testimonial_manager.html#a2a9ada04ab15847f2c1b3c81deb994d7" target="_top" xlink:title="Slot called when a GET request for testimonials succeeds.">
<polygon fill="white" stroke="#666666" points="691.25,-362.88 575.5,-362.88 575.5,-332.38 691.25,-332.38 691.25,-362.88"/>
<text text-anchor="start" x="583.5" y="-349.38" font-family="Helvetica,sans-Serif" font-size="10.00">TestimonialManager</text>
<text text-anchor="middle" x="633.38" y="-338.12" font-family="Helvetica,sans-Serif" font-size="10.00">::onGoodGetResponse</text>
</a>
</g>
</g>
<!-- Node4&#45;&gt;Node15 -->
<g id="edge14_Node000004_Node000015" class="edge">
<title>Node4&#45;&gt;Node15</title>
<g id="a_edge14_Node000004_Node000015"><a xlink:title=" ">
<path fill="none" stroke="#63b8ff" d="M482.62,-212.07C495.47,-238.36 524.97,-291.93 565,-322.62 566.74,-323.96 568.57,-325.24 570.45,-326.45"/>
<polygon fill="#63b8ff" stroke="#63b8ff" points="568.53,-329.38 578.96,-331.24 571.97,-323.28 568.53,-329.38"/>
</a>
</g>
</g>
<!-- Node16 -->
<g id="Node000016" class="node">
<title>Node16</title>
<g id="a_Node000016"><a xlink:href="../../d4/d0d/class_testimonial_manager.html#ad384569c01fdadf0bb38e053a7bee337" target="_top" xlink:title="Slot called when a POST request to save testimonials succeeds.">
<polygon fill="white" stroke="#666666" points="693.5,-313.88 573.25,-313.88 573.25,-283.38 693.5,-283.38 693.5,-313.88"/>
<text text-anchor="start" x="581.25" y="-300.38" font-family="Helvetica,sans-Serif" font-size="10.00">TestimonialManager</text>
<text text-anchor="middle" x="633.38" y="-289.12" font-family="Helvetica,sans-Serif" font-size="10.00">::onGoodPostResponse</text>
</a>
</g>
</g>
<!-- Node4&#45;&gt;Node16 -->
<g id="edge15_Node000004_Node000016" class="edge">
<title>Node4&#45;&gt;Node16</title>
<g id="a_edge15_Node000004_Node000016"><a xlink:title=" ">
<path fill="none" stroke="#63b8ff" d="M489.96,-212.36C506.61,-229.68 535.47,-257.34 565,-274.62 567.05,-275.83 569.17,-276.98 571.34,-278.09"/>
<polygon fill="#63b8ff" stroke="#63b8ff" points="569.85,-281.26 580.39,-282.31 572.81,-274.91 569.85,-281.26"/>
</a>
</g>
</g>
<!-- Node8 -->
<g id="Node000008" class="node">
<title>Node8</title>
<g id="a_Node000008"><a xlink:href="../../d4/d0d/class_testimonial_manager.html#a1ebec1a781a7508501e398bb042a0b2d" target="_top" xlink:title="Retrieves the &quot;do not show again&quot; preference for a user.">
<polygon fill="white" stroke="#666666" points="867.38,-239.88 753.88,-239.88 753.88,-209.38 867.38,-209.38 867.38,-239.88"/>
<text text-anchor="start" x="761.88" y="-226.38" font-family="Helvetica,sans-Serif" font-size="10.00">TestimonialManager</text>
<text text-anchor="middle" x="810.62" y="-215.12" font-family="Helvetica,sans-Serif" font-size="10.00">::getDoNotShowAgain</text>
</a>
</g>
</g>
<!-- Node7&#45;&gt;Node8 -->
<g id="edge7_Node000007_Node000008" class="edge">
<title>Node7&#45;&gt;Node8</title>
<g id="a_edge7_Node000007_Node000008"><a xlink:title=" ">
<path fill="none" stroke="#63b8ff" d="M690.31,-191.26C707.06,-195.95 725.61,-201.13 742.98,-205.99"/>
<polygon fill="#63b8ff" stroke="#63b8ff" points="741.59,-209.24 752.17,-208.56 743.48,-202.5 741.59,-209.24"/>
</a>
</g>
</g>
<!-- Node9 -->
<g id="Node000009" class="node">
<title>Node9</title>
<g id="a_Node000009"><a xlink:href="../../d4/d0d/class_testimonial_manager.html#a9466acdac4dddfe8947b41cb637cb556" target="_top" xlink:title="Checks if a user with the given username has already submitted a testimonial.">
<polygon fill="white" stroke="#666666" points="877.5,-190.88 743.75,-190.88 743.75,-160.38 877.5,-160.38 877.5,-190.88"/>
<text text-anchor="start" x="751.75" y="-177.38" font-family="Helvetica,sans-Serif" font-size="10.00">TestimonialManager</text>
<text text-anchor="middle" x="810.62" y="-166.12" font-family="Helvetica,sans-Serif" font-size="10.00">::hasUserGivenTestimonial</text>
</a>
</g>
</g>
<!-- Node7&#45;&gt;Node9 -->
<g id="edge8_Node000007_Node000009" class="edge">
<title>Node7&#45;&gt;Node9</title>
<g id="a_edge8_Node000007_Node000009"><a xlink:title=" ">
<path fill="none" stroke="#63b8ff" d="M693.22,-175.62C705.68,-175.62 719.01,-175.62 732.04,-175.62"/>
<polygon fill="#63b8ff" stroke="#63b8ff" points="731.87,-179.13 741.87,-175.63 731.87,-172.13 731.87,-179.13"/>
</a>
</g>
</g>
<!-- Node10 -->
<g id="Node000010" class="node">
<title>Node10</title>
<g id="a_Node000010"><a xlink:href="../../d4/d0d/class_testimonial_manager.html#ade7e70f55550c1417ab7d0ca7b3b3142" target="_top" xlink:title="Emitted to prompt the user for a testimonial.">
<polygon fill="white" stroke="#666666" points="883.5,-141.88 737.75,-141.88 737.75,-111.38 883.5,-111.38 883.5,-141.88"/>
<text text-anchor="start" x="745.75" y="-128.38" font-family="Helvetica,sans-Serif" font-size="10.00">TestimonialManager</text>
<text text-anchor="middle" x="810.62" y="-117.12" font-family="Helvetica,sans-Serif" font-size="10.00">::shouldPromptForTestimonial</text>
</a>
</g>
</g>
<!-- Node7&#45;&gt;Node10 -->
<g id="edge9_Node000007_Node000010" class="edge">
<title>Node7&#45;&gt;Node10</title>
<g id="a_edge9_Node000007_Node000010"><a xlink:title=" ">
<path fill="none" stroke="#63b8ff" d="M690.31,-159.99C706.82,-155.37 725.08,-150.26 742.23,-145.47"/>
<polygon fill="#63b8ff" stroke="#63b8ff" points="743.18,-148.84 751.86,-142.77 741.29,-142.1 743.18,-148.84"/>
</a>
</g>
</g>
<!-- Node18 -->
<g id="Node000018" class="node">
<title>Node18</title>
<g id="a_Node000018"><a xlink:href="../../d4/d0d/class_testimonial_manager.html#a776df0038128c3464b01c4f52199a960" target="_top" xlink:title="Saves all current testimonials (via API client).">
<polygon fill="white" stroke="#666666" points="526,-79.88 423,-79.88 423,-49.38 526,-49.38 526,-79.88"/>
<text text-anchor="start" x="431" y="-66.38" font-family="Helvetica,sans-Serif" font-size="10.00">TestimonialManager</text>
<text text-anchor="middle" x="474.5" y="-55.12" font-family="Helvetica,sans-Serif" font-size="10.00">::saveTestimonials</text>
</a>
</g>
</g>
<!-- Node17&#45;&gt;Node18 -->
<g id="edge17_Node000017_Node000018" class="edge">
<title>Node17&#45;&gt;Node18</title>
<g id="a_edge17_Node000017_Node000018"><a xlink:title=" ">
<path fill="none" stroke="#63b8ff" d="M374.61,-97.99C387.84,-93.52 402.42,-88.6 416.22,-83.95"/>
<polygon fill="#63b8ff" stroke="#63b8ff" points="417.29,-87.28 425.65,-80.77 415.06,-80.65 417.29,-87.28"/>
</a>
</g>
</g>
<!-- Node19 -->
<g id="Node000019" class="node">
<title>Node19</title>
<g id="a_Node000019"><a xlink:href="../../dc/db7/class_parser.html#a37a8828ed47a09c969ed966865da186d" target="_top" xlink:title="Converts a QVector of Testimonial objects into a JSON string representation.">
<polygon fill="white" stroke="#666666" points="701.75,-19.25 565,-19.25 565,0 701.75,0 701.75,-19.25"/>
<text text-anchor="middle" x="633.38" y="-5.75" font-family="Helvetica,sans-Serif" font-size="10.00">Parser::TestimonialsToJson</text>
</a>
</g>
</g>
<!-- Node18&#45;&gt;Node19 -->
<g id="edge18_Node000018_Node000019" class="edge">
<title>Node18&#45;&gt;Node19</title>
<g id="a_edge18_Node000018_Node000019"><a xlink:title=" ">
<path fill="none" stroke="#63b8ff" d="M511.74,-49.01C527.9,-42.33 547.25,-34.68 565,-28.62 570.82,-26.64 576.98,-24.7 583.11,-22.86"/>
<polygon fill="#63b8ff" stroke="#63b8ff" points="583.96,-26.25 592.58,-20.09 582,-19.53 583.96,-26.25"/>
</a>
</g>
</g>
<!-- Node20&#45;&gt;Node3 -->
<g id="edge22_Node000020_Node000003" class="edge">
<title>Node20&#45;&gt;Node3</title>
<g id="a_edge22_Node000020_Node000003"><a xlink:title=" ">
<path fill="none" stroke="#63b8ff" d="M230.68,-129.26C243.47,-133.73 257.55,-138.65 270.89,-143.3"/>
<polygon fill="#63b8ff" stroke="#63b8ff" points="269.37,-146.48 279.96,-146.47 271.68,-139.87 269.37,-146.48"/>
</a>
</g>
</g>
<!-- Node20&#45;&gt;Node17 -->
<g id="edge23_Node000020_Node000017" class="edge">
<title>Node20&#45;&gt;Node17</title>
<g id="a_edge23_Node000020_Node000017"><a xlink:title=" ">
<path fill="none" stroke="#63b8ff" d="M234.97,-113.62C242.71,-113.62 250.82,-113.62 258.89,-113.62"/>
<polygon fill="#63b8ff" stroke="#63b8ff" points="258.7,-117.13 268.7,-113.63 258.7,-110.13 258.7,-117.13"/>
</a>
</g>
</g>
<!-- Node21 -->
<g id="Node000021" class="node">
<title>Node21</title>
<g id="a_Node000021"><a xlink:href="../../d4/d0d/class_testimonial_manager.html#ab5c9dca488f9037b051263dfd8005c48" target="_top" xlink:title="Adds a new testimonial to the manager and persists it.">
<polygon fill="white" stroke="#666666" points="378.75,-79.88 275.75,-79.88 275.75,-49.38 378.75,-49.38 378.75,-79.88"/>
<text text-anchor="start" x="283.75" y="-66.38" font-family="Helvetica,sans-Serif" font-size="10.00">TestimonialManager</text>
<text text-anchor="middle" x="327.25" y="-55.12" font-family="Helvetica,sans-Serif" font-size="10.00">::addTestimonial</text>
</a>
</g>
</g>
<!-- Node20&#45;&gt;Node21 -->
<g id="edge20_Node000020_Node000021" class="edge">
<title>Node20&#45;&gt;Node21</title>
<g id="a_edge20_Node000020_Node000021"><a xlink:title=" ">
<path fill="none" stroke="#63b8ff" d="M230.68,-97.99C243.47,-93.52 257.55,-88.6 270.89,-83.95"/>
<polygon fill="#63b8ff" stroke="#63b8ff" points="271.68,-87.38 279.96,-80.78 269.37,-80.77 271.68,-87.38"/>
</a>
</g>
</g>
<!-- Node21&#45;&gt;Node18 -->
<g id="edge21_Node000021_Node000018" class="edge">
<title>Node21&#45;&gt;Node18</title>
<g id="a_edge21_Node000021_Node000018"><a xlink:title=" ">
<path fill="none" stroke="#63b8ff" d="M379.05,-64.62C389.62,-64.62 400.86,-64.62 411.77,-64.62"/>
<polygon fill="#63b8ff" stroke="#63b8ff" points="411.46,-68.13 421.46,-64.63 411.46,-61.13 411.46,-68.13"/>
</a>
</g>
</g>
</g>
</svg>
