<?xml version="1.0" encoding="UTF-8" standalone="no"?>
<!DOCTYPE svg PUBLIC "-//W3C//DTD SVG 1.1//EN"
 "http://www.w3.org/Graphics/SVG/1.1/DTD/svg11.dtd">
<!-- Generated by graphviz version 12.2.1 (20241206.2353)
 -->
<!-- Title: TestimonialDialog::onCancel Pages: 1 -->
<!--zoomable 420 -->

<svg id="main" version="1.1" xmlns="http://www.w3.org/2000/svg" xmlns:xlink="http://www.w3.org/1999/xlink" xml:space="preserve" onload="init(evt)">

<style type="text/css"><![CDATA[
.node, .edge {opacity: 0.7;}
.node.selected, .edge.selected {opacity: 1;}
.edge:hover path { stroke: red; }
.edge:hover polygon { stroke: red; fill: red; }
]]></style>

<defs>
  <circle id="rim" cx="0" cy="0" r="7"/>
  <circle id="rim2" cx="0" cy="0" r="3.5"/>
  <g id="zoomPlus">
    <use xlink:href="#rim" fill="#404040"><set attributeName="fill" to="#808080" begin="zoomplus.mouseover" end="zoomplus.mouseout"/></use>
    <path d="M-4,0h8M0,-4v8" fill="none" stroke="white" stroke-width="1.5" pointer-events="none"/>
  </g>
  <g id="zoomMin">
    <use xlink:href="#rim" fill="#404040"><set attributeName="fill" to="#808080" begin="zoomminus.mouseover" end="zoomminus.mouseout"/></use>
    <path d="M-4,0h8" fill="none" stroke="white" stroke-width="1.5" pointer-events="none"/>
  </g>
  <g id="arrowUp" transform="translate(30 24)">
    <use xlink:href="#rim"/>
    <path pointer-events="none" fill="none" stroke="white" stroke-width="1.5" d="M0,-3.0v7 M-2.5,-0.5L0,-3.0L2.5,-0.5"/>
  </g>
  <g id="arrowRight" transform="rotate(90) translate(36 -43)">
    <use xlink:href="#rim"/>
    <path pointer-events="none" fill="none" stroke="white" stroke-width="1.5" d="M0,-3.0v7 M-2.5,-0.5L0,-3.0L2.5,-0.5"/>
  </g>
  <g id="arrowDown" transform="rotate(180) translate(-30 -48)">
    <use xlink:href="#rim"/>
    <path pointer-events="none" fill="none" stroke="white" stroke-width="1.5" d="M0,-3.0v7 M-2.5,-0.5L0,-3.0L2.5,-0.5"/>
  </g>
  <g id="arrowLeft" transform="rotate(270) translate(-36 17)">
    <use xlink:href="#rim"/>
    <path pointer-events="none" fill="none" stroke="white" stroke-width="1.5" d="M0,-3.0v7 M-2.5,-0.5L0,-3.0L2.5,-0.5"/>
  </g>
  <g id="resetDef">
    <use xlink:href="#rim2" fill="#404040"><set attributeName="fill" to="#808080" begin="reset.mouseover" end="reset.mouseout"/></use>
  </g>
</defs>
<script type="application/ecmascript">
var viewWidth = 756;
var viewHeight = 420;
var sectionId = 'dynsection-3';
</script>
<script type="application/ecmascript" xlink:href="../../svg.min.js"/>
<svg id="graph" class="graph">
<g id="viewport">
<title>TestimonialDialog::onCancel</title>
<!-- Node1 -->
<g id="Node000001" class="node">
<title>Node1</title>
<g id="a_Node000001"><a xlink:title="Handles the cancellation of the testimonial submission.">
<polygon fill="#999999" stroke="#666666" points="99.25,-140.88 0,-140.88 0,-110.38 99.25,-110.38 99.25,-140.88"/>
<text text-anchor="start" x="8" y="-127.38" font-family="Helvetica,sans-Serif" font-size="10.00">TestimonialDialog::</text>
<text text-anchor="middle" x="49.62" y="-116.12" font-family="Helvetica,sans-Serif" font-size="10.00">onCancel</text>
</a>
</g>
</g>
<!-- Node2 -->
<g id="Node000002" class="node">
<title>Node2</title>
<g id="a_Node000002"><a xlink:href="../../d4/d0d/class_testimonial_manager.html#a7b05489ceb9a8bd5e94e955c50b9515f" target="_top" xlink:title="Returns a reference to the singleton TestimonialManager instance.">
<polygon fill="white" stroke="#666666" points="243.5,-165.88 140.5,-165.88 140.5,-135.38 243.5,-135.38 243.5,-165.88"/>
<text text-anchor="start" x="148.5" y="-152.38" font-family="Helvetica,sans-Serif" font-size="10.00">TestimonialManager</text>
<text text-anchor="middle" x="192" y="-141.12" font-family="Helvetica,sans-Serif" font-size="10.00">::getInstance</text>
</a>
</g>
</g>
<!-- Node1&#45;&gt;Node2 -->
<g id="edge1_Node000001_Node000002" class="edge">
<title>Node1&#45;&gt;Node2</title>
<g id="a_edge1_Node000001_Node000002"><a xlink:title=" ">
<path fill="none" stroke="#63b8ff" d="M99.72,-134.37C109.26,-136.07 119.37,-137.87 129.25,-139.63"/>
<polygon fill="#63b8ff" stroke="#63b8ff" points="128.32,-143.02 138.78,-141.32 129.54,-136.12 128.32,-143.02"/>
</a>
</g>
</g>
<!-- Node16 -->
<g id="Node000016" class="node">
<title>Node16</title>
<g id="a_Node000016"><a xlink:href="../../d4/d0d/class_testimonial_manager.html#af8576194e4cc9cc482d460666880c8b1" target="_top" xlink:title="Sets the &quot;do not show again&quot; preference for a user.">
<polygon fill="white" stroke="#666666" points="248.75,-116.88 135.25,-116.88 135.25,-86.38 248.75,-86.38 248.75,-116.88"/>
<text text-anchor="start" x="143.25" y="-103.38" font-family="Helvetica,sans-Serif" font-size="10.00">TestimonialManager</text>
<text text-anchor="middle" x="192" y="-92.12" font-family="Helvetica,sans-Serif" font-size="10.00">::setDoNotShowAgain</text>
</a>
</g>
</g>
<!-- Node1&#45;&gt;Node16 -->
<g id="edge15_Node000001_Node000016" class="edge">
<title>Node1&#45;&gt;Node16</title>
<g id="a_edge15_Node000001_Node000016"><a xlink:title=" ">
<path fill="none" stroke="#63b8ff" d="M99.72,-117.23C107.46,-115.91 115.57,-114.52 123.64,-113.14"/>
<polygon fill="#63b8ff" stroke="#63b8ff" points="124.21,-116.6 133.47,-111.46 123.03,-109.7 124.21,-116.6"/>
</a>
</g>
</g>
<!-- Node3 -->
<g id="Node000003" class="node">
<title>Node3</title>
<g id="a_Node000003"><a xlink:href="../../d4/d0d/class_testimonial_manager.html#aded0ef0783e1e67e701f7c3bf3a80072" target="_top" xlink:title="Private constructor to enforce singleton pattern. Initializes API connections and timer.">
<polygon fill="white" stroke="#666666" points="393.75,-235.88 284.75,-235.88 284.75,-205.38 393.75,-205.38 393.75,-235.88"/>
<text text-anchor="start" x="292.75" y="-222.38" font-family="Helvetica,sans-Serif" font-size="10.00">TestimonialManager</text>
<text text-anchor="middle" x="339.25" y="-211.12" font-family="Helvetica,sans-Serif" font-size="10.00">::TestimonialManager</text>
</a>
</g>
</g>
<!-- Node2&#45;&gt;Node3 -->
<g id="edge2_Node000002_Node000003" class="edge">
<title>Node2&#45;&gt;Node3</title>
<g id="a_edge2_Node000002_Node000003"><a xlink:title=" ">
<path fill="none" stroke="#63b8ff" d="M225.6,-166.33C246.25,-176.29 273.18,-189.27 295.53,-200.04"/>
<polygon fill="#63b8ff" stroke="#63b8ff" points="293.87,-203.12 304.4,-204.31 296.91,-196.82 293.87,-203.12"/>
</a>
</g>
</g>
<!-- Node4 -->
<g id="Node000004" class="node">
<title>Node4</title>
<g id="a_Node000004"><a xlink:href="../../d2/dd1/class_api_client.html#ae22339e302eb27bc51fbdfc1b7c1a4ec" target="_top" xlink:title="Signal for a failed request sent to a Get endpoint.">
<polygon fill="white" stroke="#666666" points="558.25,-412.25 438,-412.25 438,-393 558.25,-393 558.25,-412.25"/>
<text text-anchor="middle" x="498.12" y="-398.75" font-family="Helvetica,sans-Serif" font-size="10.00">ApiClient::BadGetReply</text>
</a>
</g>
</g>
<!-- Node3&#45;&gt;Node4 -->
<g id="edge3_Node000003_Node000004" class="edge">
<title>Node3&#45;&gt;Node4</title>
<g id="a_edge3_Node000003_Node000004"><a xlink:title=" ">
<path fill="none" stroke="#63b8ff" d="M344.18,-235.95C353.33,-268.54 379.26,-344.94 429.75,-384.62 430.87,-385.51 432.04,-386.35 433.24,-387.15"/>
<polygon fill="#63b8ff" stroke="#63b8ff" points="431.2,-390.02 441.65,-391.78 434.58,-383.89 431.2,-390.02"/>
</a>
</g>
</g>
<!-- Node5 -->
<g id="Node000005" class="node">
<title>Node5</title>
<g id="a_Node000005"><a xlink:href="../../d2/dd1/class_api_client.html#ac0f68b238bace3703854d7de15a3bb38" target="_top" xlink:title="Signal for a failed request sent to a Post endpoint.">
<polygon fill="white" stroke="#666666" points="560.5,-375.25 435.75,-375.25 435.75,-356 560.5,-356 560.5,-375.25"/>
<text text-anchor="middle" x="498.12" y="-361.75" font-family="Helvetica,sans-Serif" font-size="10.00">ApiClient::BadPostReply</text>
</a>
</g>
</g>
<!-- Node3&#45;&gt;Node5 -->
<g id="edge4_Node000003_Node000005" class="edge">
<title>Node3&#45;&gt;Node5</title>
<g id="a_edge4_Node000003_Node000005"><a xlink:title=" ">
<path fill="none" stroke="#63b8ff" d="M346.92,-236C359.27,-262.65 388.3,-317.41 429.75,-346.62 431.93,-348.16 434.23,-349.57 436.61,-350.87"/>
<polygon fill="#63b8ff" stroke="#63b8ff" points="434.88,-353.93 445.43,-354.96 437.83,-347.58 434.88,-353.93"/>
</a>
</g>
</g>
<!-- Node6 -->
<g id="Node000006" class="node">
<title>Node6</title>
<g id="a_Node000006"><a xlink:href="../../d4/d0d/class_testimonial_manager.html#a69979eb09835fcb35d804fa169b63f0f" target="_top" xlink:title="Checks accumulated user time and emits shouldPromptForTestimonial if criteria are met.">
<polygon fill="white" stroke="#666666" points="557.5,-337.88 438.75,-337.88 438.75,-307.38 557.5,-307.38 557.5,-337.88"/>
<text text-anchor="start" x="446.75" y="-324.38" font-family="Helvetica,sans-Serif" font-size="10.00">TestimonialManager</text>
<text text-anchor="middle" x="498.12" y="-313.12" font-family="Helvetica,sans-Serif" font-size="10.00">::checkTimeAndPrompt</text>
</a>
</g>
</g>
<!-- Node3&#45;&gt;Node6 -->
<g id="edge5_Node000003_Node000006" class="edge">
<title>Node3&#45;&gt;Node6</title>
<g id="a_edge5_Node000003_Node000006"><a xlink:title=" ">
<path fill="none" stroke="#63b8ff" d="M354.71,-236.36C371.36,-253.68 400.22,-281.34 429.75,-298.62 431.8,-299.83 433.92,-300.98 436.09,-302.09"/>
<polygon fill="#63b8ff" stroke="#63b8ff" points="434.6,-305.26 445.14,-306.31 437.56,-298.91 434.6,-305.26"/>
</a>
</g>
</g>
<!-- Node10 -->
<g id="Node000010" class="node">
<title>Node10</title>
<g id="a_Node000010"><a xlink:href="../../d2/dd1/class_api_client.html#a940bf610f9fa472fc660e1ab60203de7" target="_top" xlink:title="Signal for a successful request sent to a Get endpoint.">
<polygon fill="white" stroke="#666666" points="561.25,-289.25 435,-289.25 435,-270 561.25,-270 561.25,-289.25"/>
<text text-anchor="middle" x="498.12" y="-275.75" font-family="Helvetica,sans-Serif" font-size="10.00">ApiClient::GoodGetReply</text>
</a>
</g>
</g>
<!-- Node3&#45;&gt;Node10 -->
<g id="edge9_Node000003_Node000010" class="edge">
<title>Node3&#45;&gt;Node10</title>
<g id="a_edge9_Node000003_Node000010"><a xlink:title=" ">
<path fill="none" stroke="#63b8ff" d="M371.19,-236.36C388.19,-244.61 409.81,-254.45 429.75,-261.62 434.43,-263.31 439.34,-264.91 444.28,-266.42"/>
<polygon fill="#63b8ff" stroke="#63b8ff" points="443.06,-269.71 453.64,-269.15 445.02,-262.99 443.06,-269.71"/>
</a>
</g>
</g>
<!-- Node11 -->
<g id="Node000011" class="node">
<title>Node11</title>
<g id="a_Node000011"><a xlink:href="../../d2/dd1/class_api_client.html#aa2e03a2c693acb0052f80415b453e279" target="_top" xlink:title="Signal for a successful request sent to a Post endpoint.">
<polygon fill="white" stroke="#666666" points="563.5,-252.25 432.75,-252.25 432.75,-233 563.5,-233 563.5,-252.25"/>
<text text-anchor="middle" x="498.12" y="-238.75" font-family="Helvetica,sans-Serif" font-size="10.00">ApiClient::GoodPostReply</text>
</a>
</g>
</g>
<!-- Node3&#45;&gt;Node11 -->
<g id="edge10_Node000003_Node000011" class="edge">
<title>Node3&#45;&gt;Node11</title>
<g id="a_edge10_Node000003_Node000011"><a xlink:title=" ">
<path fill="none" stroke="#63b8ff" d="M394.24,-228.2C403,-229.42 412.21,-230.72 421.37,-232"/>
<polygon fill="#63b8ff" stroke="#63b8ff" points="420.6,-235.43 430.99,-233.35 421.57,-228.49 420.6,-235.43"/>
</a>
</g>
</g>
<!-- Node12 -->
<g id="Node000012" class="node">
<title>Node12</title>
<g id="a_Node000012"><a xlink:href="../../d4/d0d/class_testimonial_manager.html#aa256bebedcc689ce416c7a2fcade3900" target="_top" xlink:title="Slot called when a GET request for testimonials fails.">
<polygon fill="white" stroke="#666666" points="553,-214.88 443.25,-214.88 443.25,-184.38 553,-184.38 553,-214.88"/>
<text text-anchor="start" x="451.25" y="-201.38" font-family="Helvetica,sans-Serif" font-size="10.00">TestimonialManager</text>
<text text-anchor="middle" x="498.12" y="-190.12" font-family="Helvetica,sans-Serif" font-size="10.00">::onBadGetResponse</text>
</a>
</g>
</g>
<!-- Node3&#45;&gt;Node12 -->
<g id="edge11_Node000003_Node000012" class="edge">
<title>Node3&#45;&gt;Node12</title>
<g id="a_edge11_Node000003_Node000012"><a xlink:title=" ">
<path fill="none" stroke="#63b8ff" d="M394.24,-213.4C406.25,-211.79 419.11,-210.07 431.53,-208.41"/>
<polygon fill="#63b8ff" stroke="#63b8ff" points="431.82,-211.9 441.27,-207.1 430.9,-204.96 431.82,-211.9"/>
</a>
</g>
</g>
<!-- Node13 -->
<g id="Node000013" class="node">
<title>Node13</title>
<g id="a_Node000013"><a xlink:href="../../d4/d0d/class_testimonial_manager.html#acfda7a2d454b513c1c75d8d030a43dd9" target="_top" xlink:title="Slot called when a POST request to save testimonials fails.">
<polygon fill="white" stroke="#666666" points="555.25,-165.88 441,-165.88 441,-135.38 555.25,-135.38 555.25,-165.88"/>
<text text-anchor="start" x="449" y="-152.38" font-family="Helvetica,sans-Serif" font-size="10.00">TestimonialManager</text>
<text text-anchor="middle" x="498.12" y="-141.12" font-family="Helvetica,sans-Serif" font-size="10.00">::onBadPostResponse</text>
</a>
</g>
</g>
<!-- Node3&#45;&gt;Node13 -->
<g id="edge12_Node000003_Node000013" class="edge">
<title>Node3&#45;&gt;Node13</title>
<g id="a_edge12_Node000003_Node000013"><a xlink:title=" ">
<path fill="none" stroke="#63b8ff" d="M369.29,-205C386.61,-195.94 409.18,-184.58 429.75,-175.62 433.75,-173.88 437.92,-172.15 442.14,-170.45"/>
<polygon fill="#63b8ff" stroke="#63b8ff" points="443.19,-173.8 451.22,-166.89 440.63,-167.28 443.19,-173.8"/>
</a>
</g>
</g>
<!-- Node14 -->
<g id="Node000014" class="node">
<title>Node14</title>
<g id="a_Node000014"><a xlink:href="../../d4/d0d/class_testimonial_manager.html#a2a9ada04ab15847f2c1b3c81deb994d7" target="_top" xlink:title="Slot called when a GET request for testimonials succeeds.">
<polygon fill="white" stroke="#666666" points="556,-116.88 440.25,-116.88 440.25,-86.38 556,-86.38 556,-116.88"/>
<text text-anchor="start" x="448.25" y="-103.38" font-family="Helvetica,sans-Serif" font-size="10.00">TestimonialManager</text>
<text text-anchor="middle" x="498.12" y="-92.12" font-family="Helvetica,sans-Serif" font-size="10.00">::onGoodGetResponse</text>
</a>
</g>
</g>
<!-- Node3&#45;&gt;Node14 -->
<g id="edge13_Node000003_Node000014" class="edge">
<title>Node3&#45;&gt;Node14</title>
<g id="a_edge13_Node000003_Node000014"><a xlink:title=" ">
<path fill="none" stroke="#63b8ff" d="M351.31,-205.22C366.75,-184.69 396.63,-148.45 429.75,-126.62 431.99,-125.15 434.33,-123.74 436.74,-122.41"/>
<polygon fill="#63b8ff" stroke="#63b8ff" points="438.2,-125.59 445.57,-117.99 435.07,-119.33 438.2,-125.59"/>
</a>
</g>
</g>
<!-- Node15 -->
<g id="Node000015" class="node">
<title>Node15</title>
<g id="a_Node000015"><a xlink:href="../../d4/d0d/class_testimonial_manager.html#ad384569c01fdadf0bb38e053a7bee337" target="_top" xlink:title="Slot called when a POST request to save testimonials succeeds.">
<polygon fill="white" stroke="#666666" points="558.25,-67.88 438,-67.88 438,-37.38 558.25,-37.38 558.25,-67.88"/>
<text text-anchor="start" x="446" y="-54.38" font-family="Helvetica,sans-Serif" font-size="10.00">TestimonialManager</text>
<text text-anchor="middle" x="498.12" y="-43.12" font-family="Helvetica,sans-Serif" font-size="10.00">::onGoodPostResponse</text>
</a>
</g>
</g>
<!-- Node3&#45;&gt;Node15 -->
<g id="edge14_Node000003_Node000015" class="edge">
<title>Node3&#45;&gt;Node15</title>
<g id="a_edge14_Node000003_Node000015"><a xlink:title=" ">
<path fill="none" stroke="#63b8ff" d="M349.29,-204.95C369.67,-169.77 418.34,-86.92 429.75,-77.62 431.25,-76.41 432.81,-75.24 434.42,-74.13"/>
<polygon fill="#63b8ff" stroke="#63b8ff" points="436.03,-77.25 442.84,-69.13 432.45,-71.23 436.03,-77.25"/>
</a>
</g>
</g>
<!-- Node7 -->
<g id="Node000007" class="node">
<title>Node7</title>
<g id="a_Node000007"><a xlink:href="../../d4/d0d/class_testimonial_manager.html#a1ebec1a781a7508501e398bb042a0b2d" target="_top" xlink:title="Retrieves the &quot;do not show again&quot; preference for a user.">
<polygon fill="white" stroke="#666666" points="732.12,-386.88 618.62,-386.88 618.62,-356.38 732.12,-356.38 732.12,-386.88"/>
<text text-anchor="start" x="626.62" y="-373.38" font-family="Helvetica,sans-Serif" font-size="10.00">TestimonialManager</text>
<text text-anchor="middle" x="675.38" y="-362.12" font-family="Helvetica,sans-Serif" font-size="10.00">::getDoNotShowAgain</text>
</a>
</g>
</g>
<!-- Node6&#45;&gt;Node7 -->
<g id="edge6_Node000006_Node000007" class="edge">
<title>Node6&#45;&gt;Node7</title>
<g id="a_edge6_Node000006_Node000007"><a xlink:title=" ">
<path fill="none" stroke="#63b8ff" d="M555.06,-338.26C571.81,-342.95 590.36,-348.13 607.73,-352.99"/>
<polygon fill="#63b8ff" stroke="#63b8ff" points="606.34,-356.24 616.92,-355.56 608.23,-349.5 606.34,-356.24"/>
</a>
</g>
</g>
<!-- Node8 -->
<g id="Node000008" class="node">
<title>Node8</title>
<g id="a_Node000008"><a xlink:href="../../d4/d0d/class_testimonial_manager.html#a9466acdac4dddfe8947b41cb637cb556" target="_top" xlink:title="Checks if a user with the given username has already submitted a testimonial.">
<polygon fill="white" stroke="#666666" points="742.25,-337.88 608.5,-337.88 608.5,-307.38 742.25,-307.38 742.25,-337.88"/>
<text text-anchor="start" x="616.5" y="-324.38" font-family="Helvetica,sans-Serif" font-size="10.00">TestimonialManager</text>
<text text-anchor="middle" x="675.38" y="-313.12" font-family="Helvetica,sans-Serif" font-size="10.00">::hasUserGivenTestimonial</text>
</a>
</g>
</g>
<!-- Node6&#45;&gt;Node8 -->
<g id="edge7_Node000006_Node000008" class="edge">
<title>Node6&#45;&gt;Node8</title>
<g id="a_edge7_Node000006_Node000008"><a xlink:title=" ">
<path fill="none" stroke="#63b8ff" d="M557.97,-322.62C570.43,-322.62 583.76,-322.62 596.79,-322.62"/>
<polygon fill="#63b8ff" stroke="#63b8ff" points="596.62,-326.13 606.62,-322.63 596.62,-319.13 596.62,-326.13"/>
</a>
</g>
</g>
<!-- Node9 -->
<g id="Node000009" class="node">
<title>Node9</title>
<g id="a_Node000009"><a xlink:href="../../d4/d0d/class_testimonial_manager.html#ade7e70f55550c1417ab7d0ca7b3b3142" target="_top" xlink:title="Emitted to prompt the user for a testimonial.">
<polygon fill="white" stroke="#666666" points="748.25,-288.88 602.5,-288.88 602.5,-258.38 748.25,-258.38 748.25,-288.88"/>
<text text-anchor="start" x="610.5" y="-275.38" font-family="Helvetica,sans-Serif" font-size="10.00">TestimonialManager</text>
<text text-anchor="middle" x="675.38" y="-264.12" font-family="Helvetica,sans-Serif" font-size="10.00">::shouldPromptForTestimonial</text>
</a>
</g>
</g>
<!-- Node6&#45;&gt;Node9 -->
<g id="edge8_Node000006_Node000009" class="edge">
<title>Node6&#45;&gt;Node9</title>
<g id="a_edge8_Node000006_Node000009"><a xlink:title=" ">
<path fill="none" stroke="#63b8ff" d="M555.06,-306.99C571.57,-302.37 589.83,-297.26 606.98,-292.47"/>
<polygon fill="#63b8ff" stroke="#63b8ff" points="607.93,-295.84 616.61,-289.77 606.04,-289.1 607.93,-295.84"/>
</a>
</g>
</g>
<!-- Node17 -->
<g id="Node000017" class="node">
<title>Node17</title>
<g id="a_Node000017"><a xlink:href="../../d4/d0d/class_testimonial_manager.html#a776df0038128c3464b01c4f52199a960" target="_top" xlink:title="Saves all current testimonials (via API client).">
<polygon fill="white" stroke="#666666" points="390.75,-116.88 287.75,-116.88 287.75,-86.38 390.75,-86.38 390.75,-116.88"/>
<text text-anchor="start" x="295.75" y="-103.38" font-family="Helvetica,sans-Serif" font-size="10.00">TestimonialManager</text>
<text text-anchor="middle" x="339.25" y="-92.12" font-family="Helvetica,sans-Serif" font-size="10.00">::saveTestimonials</text>
</a>
</g>
</g>
<!-- Node16&#45;&gt;Node17 -->
<g id="edge16_Node000016_Node000017" class="edge">
<title>Node16&#45;&gt;Node17</title>
<g id="a_edge16_Node000016_Node000017"><a xlink:title=" ">
<path fill="none" stroke="#63b8ff" d="M249.16,-101.62C258.03,-101.62 267.24,-101.62 276.23,-101.62"/>
<polygon fill="#63b8ff" stroke="#63b8ff" points="275.95,-105.13 285.95,-101.63 275.95,-98.13 275.95,-105.13"/>
</a>
</g>
</g>
<!-- Node18 -->
<g id="Node000018" class="node">
<title>Node18</title>
<g id="a_Node000018"><a xlink:href="../../dc/db7/class_parser.html#a37a8828ed47a09c969ed966865da186d" target="_top" xlink:title="Converts a QVector of Testimonial objects into a JSON string representation.">
<polygon fill="white" stroke="#666666" points="566.5,-19.25 429.75,-19.25 429.75,0 566.5,0 566.5,-19.25"/>
<text text-anchor="middle" x="498.12" y="-5.75" font-family="Helvetica,sans-Serif" font-size="10.00">Parser::TestimonialsToJson</text>
</a>
</g>
</g>
<!-- Node17&#45;&gt;Node18 -->
<g id="edge17_Node000017_Node000018" class="edge">
<title>Node17&#45;&gt;Node18</title>
<g id="a_edge17_Node000017_Node000018"><a xlink:title=" ">
<path fill="none" stroke="#63b8ff" d="M355.31,-86C372.05,-69.49 400.57,-43.8 429.75,-28.62 433.25,-26.8 436.95,-25.14 440.74,-23.62"/>
<polygon fill="#63b8ff" stroke="#63b8ff" points="441.92,-26.91 450.14,-20.23 439.55,-20.33 441.92,-26.91"/>
</a>
</g>
</g>
</g>
</svg>

<g id="navigator" transform="translate(0 0)" fill="#404254">
  <rect fill="#f2f5e9" fill-opacity="0.5" stroke="#606060" stroke-width=".5" x="0" y="0" width="60" height="60"/>
  <use id="zoomplus" xlink:href="#zoomPlus" x="17" y="9" onmousedown="handleZoom(evt,'in')"/>
  <use id="zoomminus" xlink:href="#zoomMin" x="42" y="9" onmousedown="handleZoom(evt,'out')"/>
  <use id="reset" xlink:href="#resetDef" x="30" y="36" onmousedown="handleReset()"/>
   <use id="arrowup" xlink:href="#arrowUp" x="0" y="0" onmousedown="handlePan(0,-1)"/>
  <use id="arrowright" xlink:href="#arrowRight" x="0" y="0" onmousedown="handlePan(1,0)"/>
  <use id="arrowdown" xlink:href="#arrowDown" x="0" y="0" onmousedown="handlePan(0,1)"/>
  <use id="arrowleft" xlink:href="#arrowLeft" x="0" y="0" onmousedown="handlePan(-1,0)"/>
</g>
<svg viewBox="0 0 15 15" width="100%" height="30px" preserveAspectRatio="xMaxYMin meet">
 <g id="arrow_out" transform="scale(0.3 0.3)">
  <a xlink:href="class_testimonial_dialog_a4a73a410e9fd8c28b794fe0584976414_cgraph_org.svg" target="_base">
   <rect id="button" ry="5" rx="5" y="6" x="6" height="38" width="38"
        fill="#f2f5e9" fill-opacity="0.5" stroke="#606060" stroke-width="1.0"/>
   <path id="arrow"
     d="M 11.500037,31.436501 C 11.940474,20.09759 22.043105,11.32322 32.158766,21.979434 L 37.068811,17.246167 C 37.068811,17.246167 37.088388,32 37.088388,32 L 22.160133,31.978069 C 22.160133,31.978069 26.997745,27.140456 26.997745,27.140456 C 18.528582,18.264221 13.291696,25.230495 11.500037,31.436501 z"
     style="fill:#404040;"/>
  </a>
 </g>
</svg>

<style type='text/css'>
<![CDATA[
[data-mouse-over-selected='false'] { opacity: 0.7; }
[data-mouse-over-selected='true']  { opacity: 1.0; }
]]>
</style>
<script type="application/ecmascript"><![CDATA[
document.addEventListener('DOMContentLoaded', (event) => {
  highlightEdges();
  highlightAdjacentNodes();
});
]]></script>
</svg>
