<?xml version="1.0" encoding="UTF-8" standalone="no"?>
<!DOCTYPE svg PUBLIC "-//W3C//DTD SVG 1.1//EN"
 "http://www.w3.org/Graphics/SVG/1.1/DTD/svg11.dtd">
<!-- Generated by graphviz version 12.2.1 (20241206.2353)
 -->
<!-- Title: Graphical Class Hierarchy Pages: 1 -->
<svg width="227pt" height="101pt"
 viewBox="0.00 0.00 226.75 101.25" xmlns="http://www.w3.org/2000/svg" xmlns:xlink="http://www.w3.org/1999/xlink">
<g id="graph0" class="graph" transform="scale(1 1) rotate(0) translate(4 97.25)">
<title>Graphical Class Hierarchy</title>
<!-- Node0 -->
<g id="Node000000" class="node">
<title>Node0</title>
<g id="a_Node000000"><a xlink:title=" ">
<polygon fill="#e0e0e0" stroke="#999999" points="51.25,-56.25 0,-56.25 0,-37 51.25,-37 51.25,-56.25"/>
<text text-anchor="middle" x="25.62" y="-42.75" font-family="Helvetica,sans-Serif" font-size="10.00">QDialog</text>
</a>
</g>
</g>
<!-- Node1 -->
<g id="Node000001" class="node">
<title>Node1</title>
<g id="a_Node000001"><a xlink:href="de/d74/class_login_window.html" target="_top" xlink:title="A dialog window for user login and signup.">
<polygon fill="white" stroke="#666666" points="190.25,-93.25 115.75,-93.25 115.75,-74 190.25,-74 190.25,-93.25"/>
<text text-anchor="middle" x="153" y="-79.75" font-family="Helvetica,sans-Serif" font-size="10.00">LoginWindow</text>
</a>
</g>
</g>
<!-- Node0&#45;&gt;Node1 -->
<g id="edge1_Node000000_Node000001" class="edge">
<title>Node0&#45;&gt;Node1</title>
<g id="a_edge1_Node000000_Node000001"><a xlink:title=" ">
<path fill="none" stroke="#63b8ff" d="M62.37,-58.04C70.53,-60.59 79.18,-63.24 87.25,-65.62 96.31,-68.3 106.12,-71.09 115.3,-73.65"/>
<polygon fill="#63b8ff" stroke="#63b8ff" points="63.67,-54.78 53.08,-55.12 61.57,-61.46 63.67,-54.78"/>
</a>
</g>
</g>
<!-- Node2 -->
<g id="Node000002" class="node">
<title>Node2</title>
<g id="a_Node000002"><a xlink:href="d4/d1f/class_testimonial_dialog.html" target="_top" xlink:title="The TestimonialDialog class provides a user interface for submitting testimonials.">
<polygon fill="white" stroke="#666666" points="199.62,-56.25 106.38,-56.25 106.38,-37 199.62,-37 199.62,-56.25"/>
<text text-anchor="middle" x="153" y="-42.75" font-family="Helvetica,sans-Serif" font-size="10.00">TestimonialDialog</text>
</a>
</g>
</g>
<!-- Node0&#45;&gt;Node2 -->
<g id="edge2_Node000000_Node000002" class="edge">
<title>Node0&#45;&gt;Node2</title>
<g id="a_edge2_Node000000_Node000002"><a xlink:title=" ">
<path fill="none" stroke="#63b8ff" d="M62.91,-46.62C76.33,-46.62 91.74,-46.62 105.92,-46.62"/>
<polygon fill="#63b8ff" stroke="#63b8ff" points="63.21,-43.13 53.21,-46.63 63.21,-50.13 63.21,-43.13"/>
</a>
</g>
</g>
<!-- Node3 -->
<g id="Node000003" class="node">
<title>Node3</title>
<g id="a_Node000003"><a xlink:href="d8/d62/class_testimonials_display_dialog.html" target="_top" xlink:title="The TestimonialsDisplayDialog class provides a UI to display customer testimonials.">
<polygon fill="white" stroke="#666666" points="218.75,-19.25 87.25,-19.25 87.25,0 218.75,0 218.75,-19.25"/>
<text text-anchor="middle" x="153" y="-5.75" font-family="Helvetica,sans-Serif" font-size="10.00">TestimonialsDisplayDialog</text>
</a>
</g>
</g>
<!-- Node0&#45;&gt;Node3 -->
<g id="edge3_Node000000_Node000003" class="edge">
<title>Node0&#45;&gt;Node3</title>
<g id="a_edge3_Node000000_Node000003"><a xlink:title=" ">
<path fill="none" stroke="#63b8ff" d="M62.37,-35.21C70.53,-32.66 79.18,-30.01 87.25,-27.62 96.2,-24.98 105.88,-22.23 114.96,-19.7"/>
<polygon fill="#63b8ff" stroke="#63b8ff" points="61.57,-31.79 53.08,-38.13 63.67,-38.47 61.57,-31.79"/>
</a>
</g>
</g>
</g>
</svg>
