<?xml version="1.0" encoding="UTF-8" standalone="no"?>
<!DOCTYPE svg PUBLIC "-//W3C//DTD SVG 1.1//EN"
 "http://www.w3.org/Graphics/SVG/1.1/DTD/svg11.dtd">
<!-- Generated by graphviz version 12.2.1 (20241206.2353)
 -->
<!-- Title: RenderAreaManager::saveShapes Pages: 1 -->
<svg width="629pt" height="186pt"
 viewBox="0.00 0.00 628.75 185.50" xmlns="http://www.w3.org/2000/svg" xmlns:xlink="http://www.w3.org/1999/xlink">
<g id="graph0" class="graph" transform="scale(1 1) rotate(0) translate(4 181.5)">
<title>RenderAreaManager::saveShapes</title>
<!-- Node1 -->
<g id="Node000001" class="node">
<title>Node1</title>
<g id="a_Node000001"><a xlink:title="Initiates saving the current shapes to the backend webservice.">
<polygon fill="#999999" stroke="#666666" points="620.75,-103.5 509.5,-103.5 509.5,-73 620.75,-73 620.75,-103.5"/>
<text text-anchor="start" x="517.5" y="-90" font-family="Helvetica,sans-Serif" font-size="10.00">RenderAreaManager::</text>
<text text-anchor="middle" x="565.12" y="-78.75" font-family="Helvetica,sans-Serif" font-size="10.00">saveShapes</text>
</a>
</g>
</g>
<!-- Node2 -->
<g id="Node000002" class="node">
<title>Node2</title>
<g id="a_Node000002"><a xlink:href="../../d8/d08/class_render_area_manager.html#af43a9dc571803450ae63b62a234c8d21" target="_top" xlink:title="Adds a new shape to the rendering list and triggers a save.">
<polygon fill="white" stroke="#666666" points="473.5,-177.5 362.25,-177.5 362.25,-147 473.5,-147 473.5,-177.5"/>
<text text-anchor="start" x="370.25" y="-164" font-family="Helvetica,sans-Serif" font-size="10.00">RenderAreaManager::</text>
<text text-anchor="middle" x="417.88" y="-152.75" font-family="Helvetica,sans-Serif" font-size="10.00">addShape</text>
</a>
</g>
</g>
<!-- Node1&#45;&gt;Node2 -->
<g id="edge1_Node000001_Node000002" class="edge">
<title>Node1&#45;&gt;Node2</title>
<g id="a_edge1_Node000001_Node000002"><a xlink:title=" ">
<path fill="none" stroke="#63b8ff" d="M526.56,-109.29C510.37,-118.16 491.13,-128.46 473.5,-137.25 467.25,-140.37 460.52,-143.57 454.01,-146.59"/>
<polygon fill="#63b8ff" stroke="#63b8ff" points="527.82,-112.59 534.89,-104.7 524.44,-106.46 527.82,-112.59"/>
</a>
</g>
</g>
<!-- Node3 -->
<g id="Node000003" class="node">
<title>Node3</title>
<g id="a_Node000003"><a xlink:href="../../d8/d08/class_render_area_manager.html#a5f88d7daf9c0e9e16f2f4c98b4431c01" target="_top" xlink:title="Deletes a shape identified by its tracker ID.">
<polygon fill="white" stroke="#666666" points="473.5,-128.5 362.25,-128.5 362.25,-98 473.5,-98 473.5,-128.5"/>
<text text-anchor="start" x="370.25" y="-115" font-family="Helvetica,sans-Serif" font-size="10.00">RenderAreaManager::</text>
<text text-anchor="middle" x="417.88" y="-103.75" font-family="Helvetica,sans-Serif" font-size="10.00">deleteShape</text>
</a>
</g>
</g>
<!-- Node1&#45;&gt;Node3 -->
<g id="edge2_Node000001_Node000003" class="edge">
<title>Node1&#45;&gt;Node3</title>
<g id="a_edge2_Node000001_Node000003"><a xlink:title=" ">
<path fill="none" stroke="#63b8ff" d="M497.94,-99.64C489.89,-101.03 481.73,-102.43 473.87,-103.79"/>
<polygon fill="#63b8ff" stroke="#63b8ff" points="498.46,-103.1 507.72,-97.96 497.27,-96.21 498.46,-103.1"/>
</a>
</g>
</g>
<!-- Node4 -->
<g id="Node000004" class="node">
<title>Node4</title>
<g id="a_Node000004"><a xlink:href="../../d8/d08/class_render_area_manager.html#a47f13c07bb02a5904a1ff2d162ab13b1" target="_top" xlink:title="Modifies the displayed text of a Text shape.">
<polygon fill="white" stroke="#666666" points="473.5,-79.5 362.25,-79.5 362.25,-49 473.5,-49 473.5,-79.5"/>
<text text-anchor="start" x="370.25" y="-66" font-family="Helvetica,sans-Serif" font-size="10.00">RenderAreaManager::</text>
<text text-anchor="middle" x="417.88" y="-54.75" font-family="Helvetica,sans-Serif" font-size="10.00">modifyDisplayedText</text>
</a>
</g>
</g>
<!-- Node1&#45;&gt;Node4 -->
<g id="edge3_Node000001_Node000004" class="edge">
<title>Node1&#45;&gt;Node4</title>
<g id="a_edge3_Node000001_Node000004"><a xlink:title=" ">
<path fill="none" stroke="#63b8ff" d="M497.94,-77.31C489.89,-75.98 481.73,-74.64 473.87,-73.34"/>
<polygon fill="#63b8ff" stroke="#63b8ff" points="497.28,-80.75 507.72,-78.93 498.42,-73.85 497.28,-80.75"/>
</a>
</g>
</g>
<!-- Node8 -->
<g id="Node000008" class="node">
<title>Node8</title>
<g id="a_Node000008"><a xlink:href="../../d8/d08/class_render_area_manager.html#af37e63015f3671115d0da8aff234a805" target="_top" xlink:title="Modifies a property of an existing shape based on a key&#45;value pair.">
<polygon fill="white" stroke="#666666" points="473.5,-30.5 362.25,-30.5 362.25,0 473.5,0 473.5,-30.5"/>
<text text-anchor="start" x="370.25" y="-17" font-family="Helvetica,sans-Serif" font-size="10.00">RenderAreaManager::</text>
<text text-anchor="middle" x="417.88" y="-5.75" font-family="Helvetica,sans-Serif" font-size="10.00">modifyShape</text>
</a>
</g>
</g>
<!-- Node1&#45;&gt;Node8 -->
<g id="edge7_Node000001_Node000008" class="edge">
<title>Node1&#45;&gt;Node8</title>
<g id="a_edge7_Node000001_Node000008"><a xlink:title=" ">
<path fill="none" stroke="#63b8ff" d="M525.7,-67.27C509.67,-58.68 490.79,-48.78 473.5,-40.25 467.23,-37.16 460.5,-33.97 453.99,-30.96"/>
<polygon fill="#63b8ff" stroke="#63b8ff" points="523.97,-70.31 534.44,-71.97 527.29,-64.15 523.97,-70.31"/>
</a>
</g>
</g>
<!-- Node5 -->
<g id="Node000005" class="node">
<title>Node5</title>
<g id="a_Node000005"><a xlink:href="../../d7/de6/class_app_driver.html#ad4932bc7c7019e2522503886c01ffe33" target="_top" xlink:title="Connects signals from the frontend UI to slots in this AppDriver.">
<polygon fill="white" stroke="#666666" points="326.25,-79.5 188,-79.5 188,-49 326.25,-49 326.25,-79.5"/>
<text text-anchor="start" x="196" y="-66" font-family="Helvetica,sans-Serif" font-size="10.00">AppDriver::connectFrontend</text>
<text text-anchor="middle" x="257.12" y="-54.75" font-family="Helvetica,sans-Serif" font-size="10.00">ToDriver</text>
</a>
</g>
</g>
<!-- Node4&#45;&gt;Node5 -->
<g id="edge4_Node000004_Node000005" class="edge">
<title>Node4&#45;&gt;Node5</title>
<g id="a_edge4_Node000004_Node000005"><a xlink:title=" ">
<path fill="none" stroke="#63b8ff" d="M350.4,-64.25C342.51,-64.25 334.45,-64.25 326.53,-64.25"/>
<polygon fill="#63b8ff" stroke="#63b8ff" points="350.28,-67.75 360.28,-64.25 350.28,-60.75 350.28,-67.75"/>
</a>
</g>
</g>
<!-- Node6 -->
<g id="Node000006" class="node">
<title>Node6</title>
<g id="a_Node000006"><a xlink:href="../../d7/de6/class_app_driver.html#af5bf7b6bd96161d95a0a67cc7693127d" target="_top" xlink:title="Initializes and shows the main application window and loads initial data.">
<polygon fill="white" stroke="#666666" points="152,-73.88 73,-73.88 73,-54.62 152,-54.62 152,-73.88"/>
<text text-anchor="middle" x="112.5" y="-60.38" font-family="Helvetica,sans-Serif" font-size="10.00">AppDriver::run</text>
</a>
</g>
</g>
<!-- Node5&#45;&gt;Node6 -->
<g id="edge5_Node000005_Node000006" class="edge">
<title>Node5&#45;&gt;Node6</title>
<g id="a_edge5_Node000005_Node000006"><a xlink:title=" ">
<path fill="none" stroke="#63b8ff" d="M176.35,-64.25C168.04,-64.25 159.89,-64.25 152.35,-64.25"/>
<polygon fill="#63b8ff" stroke="#63b8ff" points="176.22,-67.75 186.22,-64.25 176.22,-60.75 176.22,-67.75"/>
</a>
</g>
</g>
<!-- Node7 -->
<g id="Node000007" class="node">
<title>Node7</title>
<g id="a_Node000007"><a xlink:href="../../d8/d80/src_2backend_2main_8cpp.html#a0ddf1224851353fc92bfbff6f499fa97" target="_top" xlink:title=" ">
<polygon fill="white" stroke="#666666" points="37,-73.88 0,-73.88 0,-54.62 37,-54.62 37,-73.88"/>
<text text-anchor="middle" x="18.5" y="-60.38" font-family="Helvetica,sans-Serif" font-size="10.00">main</text>
</a>
</g>
</g>
<!-- Node6&#45;&gt;Node7 -->
<g id="edge6_Node000006_Node000007" class="edge">
<title>Node6&#45;&gt;Node7</title>
<g id="a_edge6_Node000006_Node000007"><a xlink:title=" ">
<path fill="none" stroke="#63b8ff" d="M61.34,-64.25C52.67,-64.25 44.2,-64.25 37.18,-64.25"/>
<polygon fill="#63b8ff" stroke="#63b8ff" points="61.24,-67.75 71.24,-64.25 61.24,-60.75 61.24,-67.75"/>
</a>
</g>
</g>
</g>
</svg>
