<?xml version="1.0" encoding="UTF-8" standalone="no"?>
<!DOCTYPE svg PUBLIC "-//W3C//DTD SVG 1.1//EN"
 "http://www.w3.org/Graphics/SVG/1.1/DTD/svg11.dtd">
<!-- Generated by graphviz version 12.2.1 (20241206.2353)
 -->
<!-- Title: RenderAreaManager::statusMessage Pages: 1 -->
<!--zoomable 333 -->

<svg id="main" version="1.1" xmlns="http://www.w3.org/2000/svg" xmlns:xlink="http://www.w3.org/1999/xlink" xml:space="preserve" onload="init(evt)">

<style type="text/css"><![CDATA[
.node, .edge {opacity: 0.7;}
.node.selected, .edge.selected {opacity: 1;}
.edge:hover path { stroke: red; }
.edge:hover polygon { stroke: red; fill: red; }
]]></style>

<defs>
  <circle id="rim" cx="0" cy="0" r="7"/>
  <circle id="rim2" cx="0" cy="0" r="3.5"/>
  <g id="zoomPlus">
    <use xlink:href="#rim" fill="#404040"><set attributeName="fill" to="#808080" begin="zoomplus.mouseover" end="zoomplus.mouseout"/></use>
    <path d="M-4,0h8M0,-4v8" fill="none" stroke="white" stroke-width="1.5" pointer-events="none"/>
  </g>
  <g id="zoomMin">
    <use xlink:href="#rim" fill="#404040"><set attributeName="fill" to="#808080" begin="zoomminus.mouseover" end="zoomminus.mouseout"/></use>
    <path d="M-4,0h8" fill="none" stroke="white" stroke-width="1.5" pointer-events="none"/>
  </g>
  <g id="arrowUp" transform="translate(30 24)">
    <use xlink:href="#rim"/>
    <path pointer-events="none" fill="none" stroke="white" stroke-width="1.5" d="M0,-3.0v7 M-2.5,-0.5L0,-3.0L2.5,-0.5"/>
  </g>
  <g id="arrowRight" transform="rotate(90) translate(36 -43)">
    <use xlink:href="#rim"/>
    <path pointer-events="none" fill="none" stroke="white" stroke-width="1.5" d="M0,-3.0v7 M-2.5,-0.5L0,-3.0L2.5,-0.5"/>
  </g>
  <g id="arrowDown" transform="rotate(180) translate(-30 -48)">
    <use xlink:href="#rim"/>
    <path pointer-events="none" fill="none" stroke="white" stroke-width="1.5" d="M0,-3.0v7 M-2.5,-0.5L0,-3.0L2.5,-0.5"/>
  </g>
  <g id="arrowLeft" transform="rotate(270) translate(-36 17)">
    <use xlink:href="#rim"/>
    <path pointer-events="none" fill="none" stroke="white" stroke-width="1.5" d="M0,-3.0v7 M-2.5,-0.5L0,-3.0L2.5,-0.5"/>
  </g>
  <g id="resetDef">
    <use xlink:href="#rim2" fill="#404040"><set attributeName="fill" to="#808080" begin="reset.mouseover" end="reset.mouseout"/></use>
  </g>
</defs>
<script type="application/ecmascript">
var viewWidth = 518;
var viewHeight = 333;
var sectionId = 'dynsection-24';
</script>
<script type="application/ecmascript" xlink:href="../../svg.min.js"/>
<svg id="graph" class="graph">
<g id="viewport">
<title>RenderAreaManager::statusMessage</title>
<!-- Node1 -->
<g id="Node000001" class="node">
<title>Node1</title>
<g id="a_Node000001"><a xlink:title="Emitted to provide a status message to the user.">
<polygon fill="#999999" stroke="#666666" points="510.25,-177.5 399,-177.5 399,-147 510.25,-147 510.25,-177.5"/>
<text text-anchor="start" x="407" y="-164" font-family="Helvetica,sans-Serif" font-size="10.00">RenderAreaManager::</text>
<text text-anchor="middle" x="454.62" y="-152.75" font-family="Helvetica,sans-Serif" font-size="10.00">statusMessage</text>
</a>
</g>
</g>
<!-- Node2 -->
<g id="Node000002" class="node">
<title>Node2</title>
<g id="a_Node000002"><a xlink:href="../../d7/de6/class_app_driver.html#af39fbba491cc4dc1d378d6e140507554" target="_top" xlink:title="Connects signals from backend managers to slots in the frontend UI.">
<polygon fill="white" stroke="#666666" points="363,-324.5 220.25,-324.5 220.25,-294 363,-294 363,-324.5"/>
<text text-anchor="start" x="228.25" y="-311" font-family="Helvetica,sans-Serif" font-size="10.00">AppDriver::connectManagers</text>
<text text-anchor="middle" x="291.62" y="-299.75" font-family="Helvetica,sans-Serif" font-size="10.00">ToFrontend</text>
</a>
</g>
</g>
<!-- Node1&#45;&gt;Node2 -->
<g id="edge1_Node000001_Node000002" class="edge">
<title>Node1&#45;&gt;Node2</title>
<g id="a_edge1_Node000001_Node000002"><a xlink:title=" ">
<path fill="none" stroke="#63b8ff" d="M440.71,-187.68C425.56,-215.12 398.03,-258.36 363,-284.25 358.2,-287.8 352.86,-290.87 347.32,-293.54"/>
<polygon fill="#63b8ff" stroke="#63b8ff" points="443.72,-189.47 445.36,-179 437.55,-186.17 443.72,-189.47"/>
</a>
</g>
</g>
<!-- Node5 -->
<g id="Node000005" class="node">
<title>Node5</title>
<g id="a_Node000005"><a xlink:href="../../d8/d08/class_render_area_manager.html#a5eba4d620c1b50c889012aad208bf537" target="_top" xlink:title="Slot to handle unsuccessful DELETE responses from the API client.">
<polygon fill="white" stroke="#666666" points="349.88,-275.5 233.38,-275.5 233.38,-245 349.88,-245 349.88,-275.5"/>
<text text-anchor="start" x="241.38" y="-262" font-family="Helvetica,sans-Serif" font-size="10.00">RenderAreaManager::</text>
<text text-anchor="middle" x="291.62" y="-250.75" font-family="Helvetica,sans-Serif" font-size="10.00">onBadDeleteResponse</text>
</a>
</g>
</g>
<!-- Node1&#45;&gt;Node5 -->
<g id="edge4_Node000001_Node000005" class="edge">
<title>Node1&#45;&gt;Node5</title>
<g id="a_edge4_Node000001_Node000005"><a xlink:title=" ">
<path fill="none" stroke="#63b8ff" d="M429.43,-185.54C412.05,-201.26 387.48,-221.57 363,-235.25 356.78,-238.73 349.98,-241.87 343.14,-244.65"/>
<polygon fill="#63b8ff" stroke="#63b8ff" points="431.73,-188.17 436.7,-178.82 426.98,-183.03 431.73,-188.17"/>
</a>
</g>
</g>
<!-- Node7 -->
<g id="Node000007" class="node">
<title>Node7</title>
<g id="a_Node000007"><a xlink:href="../../d8/d08/class_render_area_manager.html#a7be312bb8f2b2f172d7e7a4b2d140847" target="_top" xlink:title="Slot to handle unsuccessful GET responses from the API client.">
<polygon fill="white" stroke="#666666" points="347.25,-226.5 236,-226.5 236,-196 347.25,-196 347.25,-226.5"/>
<text text-anchor="start" x="244" y="-213" font-family="Helvetica,sans-Serif" font-size="10.00">RenderAreaManager::</text>
<text text-anchor="middle" x="291.62" y="-201.75" font-family="Helvetica,sans-Serif" font-size="10.00">onBadGetResponse</text>
</a>
</g>
</g>
<!-- Node1&#45;&gt;Node7 -->
<g id="edge6_Node000001_Node000007" class="edge">
<title>Node1&#45;&gt;Node7</title>
<g id="a_edge6_Node000001_Node000007"><a xlink:title=" ">
<path fill="none" stroke="#63b8ff" d="M391.62,-181.12C376,-185.87 359.4,-190.93 344.35,-195.51"/>
<polygon fill="#63b8ff" stroke="#63b8ff" points="392.25,-184.59 400.79,-178.33 390.21,-177.89 392.25,-184.59"/>
</a>
</g>
</g>
<!-- Node8 -->
<g id="Node000008" class="node">
<title>Node8</title>
<g id="a_Node000008"><a xlink:href="../../d8/d08/class_render_area_manager.html#ad913be20b153ae12e6769da01ca0983f" target="_top" xlink:title="Slot to handle unsuccessful POST responses from the API client.">
<polygon fill="white" stroke="#666666" points="347.25,-177.5 236,-177.5 236,-147 347.25,-147 347.25,-177.5"/>
<text text-anchor="start" x="244" y="-164" font-family="Helvetica,sans-Serif" font-size="10.00">RenderAreaManager::</text>
<text text-anchor="middle" x="291.62" y="-152.75" font-family="Helvetica,sans-Serif" font-size="10.00">onBadPostResponse</text>
</a>
</g>
</g>
<!-- Node1&#45;&gt;Node8 -->
<g id="edge8_Node000001_Node000008" class="edge">
<title>Node1&#45;&gt;Node8</title>
<g id="a_edge8_Node000001_Node000008"><a xlink:title=" ">
<path fill="none" stroke="#63b8ff" d="M387.25,-162.25C374.07,-162.25 360.36,-162.25 347.61,-162.25"/>
<polygon fill="#63b8ff" stroke="#63b8ff" points="387.15,-165.75 397.15,-162.25 387.15,-158.75 387.15,-165.75"/>
</a>
</g>
</g>
<!-- Node9 -->
<g id="Node000009" class="node">
<title>Node9</title>
<g id="a_Node000009"><a xlink:href="../../d8/d08/class_render_area_manager.html#acffe5680693aa0139963e7f0b0f44031" target="_top" xlink:title="Slot to handle successful DELETE responses from the API client.">
<polygon fill="white" stroke="#666666" points="352.88,-128.5 230.38,-128.5 230.38,-98 352.88,-98 352.88,-128.5"/>
<text text-anchor="start" x="238.38" y="-115" font-family="Helvetica,sans-Serif" font-size="10.00">RenderAreaManager::</text>
<text text-anchor="middle" x="291.62" y="-103.75" font-family="Helvetica,sans-Serif" font-size="10.00">onGoodDeleteResponse</text>
</a>
</g>
</g>
<!-- Node1&#45;&gt;Node9 -->
<g id="edge10_Node000001_Node000009" class="edge">
<title>Node1&#45;&gt;Node9</title>
<g id="a_edge10_Node000001_Node000009"><a xlink:title=" ">
<path fill="none" stroke="#63b8ff" d="M391.62,-143.38C376,-138.63 359.4,-133.57 344.35,-128.99"/>
<polygon fill="#63b8ff" stroke="#63b8ff" points="390.21,-146.61 400.79,-146.17 392.25,-139.91 390.21,-146.61"/>
</a>
</g>
</g>
<!-- Node10 -->
<g id="Node000010" class="node">
<title>Node10</title>
<g id="a_Node000010"><a xlink:href="../../d8/d08/class_render_area_manager.html#aa7435693fddb08071d18e0965cc45a9d" target="_top" xlink:title="Slot to handle successful GET responses from the API client.">
<polygon fill="white" stroke="#666666" points="347.25,-79.5 236,-79.5 236,-49 347.25,-49 347.25,-79.5"/>
<text text-anchor="start" x="244" y="-66" font-family="Helvetica,sans-Serif" font-size="10.00">RenderAreaManager::</text>
<text text-anchor="middle" x="291.62" y="-54.75" font-family="Helvetica,sans-Serif" font-size="10.00">onGoodGetResponse</text>
</a>
</g>
</g>
<!-- Node1&#45;&gt;Node10 -->
<g id="edge12_Node000001_Node000010" class="edge">
<title>Node1&#45;&gt;Node10</title>
<g id="a_edge12_Node000001_Node000010"><a xlink:title=" ">
<path fill="none" stroke="#63b8ff" d="M429.43,-138.96C412.05,-123.24 387.48,-102.93 363,-89.25 356.78,-85.77 349.98,-82.63 343.14,-79.85"/>
<polygon fill="#63b8ff" stroke="#63b8ff" points="426.98,-141.47 436.7,-145.68 431.73,-136.33 426.98,-141.47"/>
</a>
</g>
</g>
<!-- Node11 -->
<g id="Node000011" class="node">
<title>Node11</title>
<g id="a_Node000011"><a xlink:href="../../d8/d08/class_render_area_manager.html#a82240f891ea5a3ada0778574a9d9f4f4" target="_top" xlink:title="Slot to handle successful POST responses from the API client.">
<polygon fill="white" stroke="#666666" points="348.75,-30.5 234.5,-30.5 234.5,0 348.75,0 348.75,-30.5"/>
<text text-anchor="start" x="242.5" y="-17" font-family="Helvetica,sans-Serif" font-size="10.00">RenderAreaManager::</text>
<text text-anchor="middle" x="291.62" y="-5.75" font-family="Helvetica,sans-Serif" font-size="10.00">onGoodPostResponse</text>
</a>
</g>
</g>
<!-- Node1&#45;&gt;Node11 -->
<g id="edge14_Node000001_Node000011" class="edge">
<title>Node1&#45;&gt;Node11</title>
<g id="a_edge14_Node000001_Node000011"><a xlink:title=" ">
<path fill="none" stroke="#63b8ff" d="M440.71,-136.82C425.56,-109.38 398.03,-66.14 363,-40.25 358.2,-36.7 352.86,-33.63 347.32,-30.96"/>
<polygon fill="#63b8ff" stroke="#63b8ff" points="437.55,-138.33 445.36,-145.5 443.72,-135.03 437.55,-138.33"/>
</a>
</g>
</g>
<!-- Node3 -->
<g id="Node000003" class="node">
<title>Node3</title>
<g id="a_Node000003"><a xlink:href="../../d7/de6/class_app_driver.html#af5bf7b6bd96161d95a0a67cc7693127d" target="_top" xlink:title="Initializes and shows the main application window and loads initial data.">
<polygon fill="white" stroke="#666666" points="168.12,-318.88 89.12,-318.88 89.12,-299.62 168.12,-299.62 168.12,-318.88"/>
<text text-anchor="middle" x="128.62" y="-305.38" font-family="Helvetica,sans-Serif" font-size="10.00">AppDriver::run</text>
</a>
</g>
</g>
<!-- Node2&#45;&gt;Node3 -->
<g id="edge2_Node000002_Node000003" class="edge">
<title>Node2&#45;&gt;Node3</title>
<g id="a_edge2_Node000002_Node000003"><a xlink:title=" ">
<path fill="none" stroke="#63b8ff" d="M208.73,-309.25C194.63,-309.25 180.6,-309.25 168.35,-309.25"/>
<polygon fill="#63b8ff" stroke="#63b8ff" points="208.49,-312.75 218.49,-309.25 208.49,-305.75 208.49,-312.75"/>
</a>
</g>
</g>
<!-- Node4 -->
<g id="Node000004" class="node">
<title>Node4</title>
<g id="a_Node000004"><a xlink:href="../../d8/d80/src_2backend_2main_8cpp.html#a0ddf1224851353fc92bfbff6f499fa97" target="_top" xlink:title=" ">
<polygon fill="white" stroke="#666666" points="37,-318.88 0,-318.88 0,-299.62 37,-299.62 37,-318.88"/>
<text text-anchor="middle" x="18.5" y="-305.38" font-family="Helvetica,sans-Serif" font-size="10.00">main</text>
</a>
</g>
</g>
<!-- Node3&#45;&gt;Node4 -->
<g id="edge3_Node000003_Node000004" class="edge">
<title>Node3&#45;&gt;Node4</title>
<g id="a_edge3_Node000003_Node000004"><a xlink:title=" ">
<path fill="none" stroke="#63b8ff" d="M77.54,-309.25C63.18,-309.25 48.44,-309.25 37.41,-309.25"/>
<polygon fill="#63b8ff" stroke="#63b8ff" points="77.38,-312.75 87.38,-309.25 77.38,-305.75 77.38,-312.75"/>
</a>
</g>
</g>
<!-- Node6 -->
<g id="Node000006" class="node">
<title>Node6</title>
<g id="a_Node000006"><a xlink:href="../../d8/d08/class_render_area_manager.html#a40e9c4c1fdd040cbd0a0a366fb337024" target="_top" xlink:title="Constructs a RenderAreaManager object and connects API client signals.">
<polygon fill="white" stroke="#666666" points="184.25,-153.5 73,-153.5 73,-123 184.25,-123 184.25,-153.5"/>
<text text-anchor="start" x="81" y="-140" font-family="Helvetica,sans-Serif" font-size="10.00">RenderAreaManager::</text>
<text text-anchor="middle" x="128.62" y="-128.75" font-family="Helvetica,sans-Serif" font-size="10.00">RenderAreaManager</text>
</a>
</g>
</g>
<!-- Node5&#45;&gt;Node6 -->
<g id="edge5_Node000005_Node000006" class="edge">
<title>Node5&#45;&gt;Node6</title>
<g id="a_edge5_Node000005_Node000006"><a xlink:title=" ">
<path fill="none" stroke="#63b8ff" d="M227.66,-239.67C225.1,-238.28 222.62,-236.81 220.25,-235.25 186.14,-212.88 155.87,-175.08 140.44,-153.87"/>
<polygon fill="#63b8ff" stroke="#63b8ff" points="225.91,-242.71 236.43,-243.98 228.99,-236.43 225.91,-242.71"/>
</a>
</g>
</g>
<!-- Node7&#45;&gt;Node6 -->
<g id="edge7_Node000007_Node000006" class="edge">
<title>Node7&#45;&gt;Node6</title>
<g id="a_edge7_Node000007_Node000006"><a xlink:title=" ">
<path fill="none" stroke="#63b8ff" d="M232.71,-191.44C228.47,-189.76 224.27,-188.02 220.25,-186.25 198.25,-176.58 174.25,-163.76 156.48,-153.8"/>
<polygon fill="#63b8ff" stroke="#63b8ff" points="231.31,-194.65 241.9,-194.97 233.82,-188.12 231.31,-194.65"/>
</a>
</g>
</g>
<!-- Node8&#45;&gt;Node6 -->
<g id="edge9_Node000008_Node000006" class="edge">
<title>Node8&#45;&gt;Node6</title>
<g id="a_edge9_Node000008_Node000006"><a xlink:title=" ">
<path fill="none" stroke="#63b8ff" d="M224.65,-152.42C211.34,-150.43 197.49,-148.37 184.61,-146.45"/>
<polygon fill="#63b8ff" stroke="#63b8ff" points="223.76,-155.82 234.17,-153.83 224.8,-148.9 223.76,-155.82"/>
</a>
</g>
</g>
<!-- Node9&#45;&gt;Node6 -->
<g id="edge11_Node000009_Node000006" class="edge">
<title>Node9&#45;&gt;Node6</title>
<g id="a_edge11_Node000009_Node000006"><a xlink:title=" ">
<path fill="none" stroke="#63b8ff" d="M219.18,-124.34C207.56,-126.15 195.68,-127.99 184.53,-129.72"/>
<polygon fill="#63b8ff" stroke="#63b8ff" points="219.38,-127.86 228.72,-122.86 218.3,-120.94 219.38,-127.86"/>
</a>
</g>
</g>
<!-- Node10&#45;&gt;Node6 -->
<g id="edge13_Node000010_Node000006" class="edge">
<title>Node10&#45;&gt;Node6</title>
<g id="a_edge13_Node000010_Node000006"><a xlink:title=" ">
<path fill="none" stroke="#63b8ff" d="M232.7,-84.02C228.45,-85.71 224.27,-87.46 220.25,-89.25 198.02,-99.14 173.84,-112.35 156.04,-122.56"/>
<polygon fill="#63b8ff" stroke="#63b8ff" points="233.8,-87.34 241.88,-80.48 231.29,-80.81 233.8,-87.34"/>
</a>
</g>
</g>
<!-- Node11&#45;&gt;Node6 -->
<g id="edge15_Node000011_Node000006" class="edge">
<title>Node11&#45;&gt;Node6</title>
<g id="a_edge15_Node000011_Node000006"><a xlink:title=" ">
<path fill="none" stroke="#63b8ff" d="M227.23,-36.05C224.82,-37.37 222.49,-38.77 220.25,-40.25 185.81,-62.96 155.45,-101.47 140.15,-122.82"/>
<polygon fill="#63b8ff" stroke="#63b8ff" points="228.65,-39.25 236.05,-31.67 225.53,-32.98 228.65,-39.25"/>
</a>
</g>
</g>
</g>
</svg>

<g id="navigator" transform="translate(0 0)" fill="#404254">
  <rect fill="#f2f5e9" fill-opacity="0.5" stroke="#606060" stroke-width=".5" x="0" y="0" width="60" height="60"/>
  <use id="zoomplus" xlink:href="#zoomPlus" x="17" y="9" onmousedown="handleZoom(evt,'in')"/>
  <use id="zoomminus" xlink:href="#zoomMin" x="42" y="9" onmousedown="handleZoom(evt,'out')"/>
  <use id="reset" xlink:href="#resetDef" x="30" y="36" onmousedown="handleReset()"/>
   <use id="arrowup" xlink:href="#arrowUp" x="0" y="0" onmousedown="handlePan(0,-1)"/>
  <use id="arrowright" xlink:href="#arrowRight" x="0" y="0" onmousedown="handlePan(1,0)"/>
  <use id="arrowdown" xlink:href="#arrowDown" x="0" y="0" onmousedown="handlePan(0,1)"/>
  <use id="arrowleft" xlink:href="#arrowLeft" x="0" y="0" onmousedown="handlePan(-1,0)"/>
</g>
<svg viewBox="0 0 15 15" width="100%" height="30px" preserveAspectRatio="xMaxYMin meet">
 <g id="arrow_out" transform="scale(0.3 0.3)">
  <a xlink:href="class_render_area_manager_a67d3ed59f05b6fbe86d3abd42766234f_icgraph_org.svg" target="_base">
   <rect id="button" ry="5" rx="5" y="6" x="6" height="38" width="38"
        fill="#f2f5e9" fill-opacity="0.5" stroke="#606060" stroke-width="1.0"/>
   <path id="arrow"
     d="M 11.500037,31.436501 C 11.940474,20.09759 22.043105,11.32322 32.158766,21.979434 L 37.068811,17.246167 C 37.068811,17.246167 37.088388,32 37.088388,32 L 22.160133,31.978069 C 22.160133,31.978069 26.997745,27.140456 26.997745,27.140456 C 18.528582,18.264221 13.291696,25.230495 11.500037,31.436501 z"
     style="fill:#404040;"/>
  </a>
 </g>
</svg>

<style type='text/css'>
<![CDATA[
[data-mouse-over-selected='false'] { opacity: 0.7; }
[data-mouse-over-selected='true']  { opacity: 1.0; }
]]>
</style>
<script type="application/ecmascript"><![CDATA[
document.addEventListener('DOMContentLoaded', (event) => {
  highlightEdges();
  highlightAdjacentNodes();
});
]]></script>
</svg>
