<?xml version="1.0" encoding="UTF-8" standalone="no"?>
<!DOCTYPE svg PUBLIC "-//W3C//DTD SVG 1.1//EN"
 "http://www.w3.org/Graphics/SVG/1.1/DTD/svg11.dtd">
<!-- Generated by graphviz version 12.2.1 (20241206.2353)
 -->
<!-- Title: RenderAreaManager::RenderAreaManager Pages: 1 -->
<svg width="442pt" height="506pt"
 viewBox="0.00 0.00 441.50 505.88" xmlns="http://www.w3.org/2000/svg" xmlns:xlink="http://www.w3.org/1999/xlink">
<g id="graph0" class="graph" transform="scale(1 1) rotate(0) translate(4 501.88)">
<title>RenderAreaManager::RenderAreaManager</title>
<!-- Node1 -->
<g id="Node000001" class="node">
<title>Node1</title>
<g id="a_Node000001"><a xlink:title="Constructs a RenderAreaManager object and connects API client signals.">
<polygon fill="#999999" stroke="#666666" points="111.25,-296.5 0,-296.5 0,-266 111.25,-266 111.25,-296.5"/>
<text text-anchor="start" x="8" y="-283" font-family="Helvetica,sans-Serif" font-size="10.00">RenderAreaManager::</text>
<text text-anchor="middle" x="55.62" y="-271.75" font-family="Helvetica,sans-Serif" font-size="10.00">RenderAreaManager</text>
</a>
</g>
</g>
<!-- Node2 -->
<g id="Node000002" class="node">
<title>Node2</title>
<g id="a_Node000002"><a xlink:href="../../d2/dd1/class_api_client.html#a2362fb6ae6555400e50840bd2138fa3c" target="_top" xlink:title="Signal for a failed request sent to a Delete endpoint.">
<polygon fill="white" stroke="#666666" points="283.25,-497.88 150.25,-497.88 150.25,-478.62 283.25,-478.62 283.25,-497.88"/>
<text text-anchor="middle" x="216.75" y="-484.38" font-family="Helvetica,sans-Serif" font-size="10.00">ApiClient::BadDeleteReply</text>
</a>
</g>
</g>
<!-- Node1&#45;&gt;Node2 -->
<g id="edge1_Node000001_Node000002" class="edge">
<title>Node1&#45;&gt;Node2</title>
<g id="a_edge1_Node000001_Node000002"><a xlink:title=" ">
<path fill="none" stroke="#63b8ff" d="M59.51,-296.95C67.03,-333.28 90.71,-423.56 147.25,-470.25 148.22,-471.05 149.23,-471.82 150.26,-472.55"/>
<polygon fill="#63b8ff" stroke="#63b8ff" points="148.46,-475.56 158.87,-477.52 151.96,-469.49 148.46,-475.56"/>
</a>
</g>
</g>
<!-- Node3 -->
<g id="Node000003" class="node">
<title>Node3</title>
<g id="a_Node000003"><a xlink:href="../../d2/dd1/class_api_client.html#ae22339e302eb27bc51fbdfc1b7c1a4ec" target="_top" xlink:title="Signal for a failed request sent to a Get endpoint.">
<polygon fill="white" stroke="#666666" points="276.88,-460.88 156.62,-460.88 156.62,-441.62 276.88,-441.62 276.88,-460.88"/>
<text text-anchor="middle" x="216.75" y="-447.38" font-family="Helvetica,sans-Serif" font-size="10.00">ApiClient::BadGetReply</text>
</a>
</g>
</g>
<!-- Node1&#45;&gt;Node3 -->
<g id="edge2_Node000001_Node000003" class="edge">
<title>Node1&#45;&gt;Node3</title>
<g id="a_edge2_Node000001_Node000003"><a xlink:title=" ">
<path fill="none" stroke="#63b8ff" d="M61.46,-296.89C71.85,-327.89 99.38,-397.23 147.25,-433.25 148.57,-434.24 149.94,-435.18 151.35,-436.07"/>
<polygon fill="#63b8ff" stroke="#63b8ff" points="149.35,-438.97 159.83,-440.5 152.59,-432.77 149.35,-438.97"/>
</a>
</g>
</g>
<!-- Node4 -->
<g id="Node000004" class="node">
<title>Node4</title>
<g id="a_Node000004"><a xlink:href="../../d2/dd1/class_api_client.html#ac0f68b238bace3703854d7de15a3bb38" target="_top" xlink:title="Signal for a failed request sent to a Post endpoint.">
<polygon fill="white" stroke="#666666" points="279.12,-423.88 154.38,-423.88 154.38,-404.62 279.12,-404.62 279.12,-423.88"/>
<text text-anchor="middle" x="216.75" y="-410.38" font-family="Helvetica,sans-Serif" font-size="10.00">ApiClient::BadPostReply</text>
</a>
</g>
</g>
<!-- Node1&#45;&gt;Node4 -->
<g id="edge3_Node000001_Node000004" class="edge">
<title>Node1&#45;&gt;Node4</title>
<g id="a_edge3_Node000001_Node000004"><a xlink:title=" ">
<path fill="none" stroke="#63b8ff" d="M64.59,-296.93C78.11,-321.89 107.92,-370.47 147.25,-396.25 149.06,-397.44 150.95,-398.55 152.89,-399.58"/>
<polygon fill="#63b8ff" stroke="#63b8ff" points="151.06,-402.6 161.62,-403.55 153.96,-396.23 151.06,-402.6"/>
</a>
</g>
</g>
<!-- Node5 -->
<g id="Node000005" class="node">
<title>Node5</title>
<g id="a_Node000005"><a xlink:href="../../d2/dd1/class_api_client.html#a36b7d26e91c582a56da7c3bcfbdccbd9" target="_top" xlink:title="Signal for a successful request sent to a Delete endpoint.">
<polygon fill="white" stroke="#666666" points="286.25,-386.88 147.25,-386.88 147.25,-367.62 286.25,-367.62 286.25,-386.88"/>
<text text-anchor="middle" x="216.75" y="-373.38" font-family="Helvetica,sans-Serif" font-size="10.00">ApiClient::GoodDeleteReply</text>
</a>
</g>
</g>
<!-- Node1&#45;&gt;Node5 -->
<g id="edge4_Node000001_Node000005" class="edge">
<title>Node1&#45;&gt;Node5</title>
<g id="a_edge4_Node000001_Node000005"><a xlink:title=" ">
<path fill="none" stroke="#63b8ff" d="M70.44,-296.81C87,-314.51 116.38,-343.03 147.25,-359.25 149.96,-360.68 152.8,-361.99 155.7,-363.21"/>
<polygon fill="#63b8ff" stroke="#63b8ff" points="154.44,-366.48 165.03,-366.68 156.87,-359.91 154.44,-366.48"/>
</a>
</g>
</g>
<!-- Node6 -->
<g id="Node000006" class="node">
<title>Node6</title>
<g id="a_Node000006"><a xlink:href="../../d2/dd1/class_api_client.html#a940bf610f9fa472fc660e1ab60203de7" target="_top" xlink:title="Signal for a successful request sent to a Get endpoint.">
<polygon fill="white" stroke="#666666" points="279.88,-349.88 153.62,-349.88 153.62,-330.62 279.88,-330.62 279.88,-349.88"/>
<text text-anchor="middle" x="216.75" y="-336.38" font-family="Helvetica,sans-Serif" font-size="10.00">ApiClient::GoodGetReply</text>
</a>
</g>
</g>
<!-- Node1&#45;&gt;Node6 -->
<g id="edge5_Node000001_Node000006" class="edge">
<title>Node1&#45;&gt;Node6</title>
<g id="a_edge5_Node000001_Node000006"><a xlink:title=" ">
<path fill="none" stroke="#63b8ff" d="M87.55,-296.8C104.82,-305.09 126.91,-315.03 147.25,-322.25 152.01,-323.94 157,-325.55 162.03,-327.06"/>
<polygon fill="#63b8ff" stroke="#63b8ff" points="160.99,-330.4 171.57,-329.79 162.92,-323.67 160.99,-330.4"/>
</a>
</g>
</g>
<!-- Node7 -->
<g id="Node000007" class="node">
<title>Node7</title>
<g id="a_Node000007"><a xlink:href="../../d2/dd1/class_api_client.html#aa2e03a2c693acb0052f80415b453e279" target="_top" xlink:title="Signal for a successful request sent to a Post endpoint.">
<polygon fill="white" stroke="#666666" points="282.12,-312.88 151.38,-312.88 151.38,-293.62 282.12,-293.62 282.12,-312.88"/>
<text text-anchor="middle" x="216.75" y="-299.38" font-family="Helvetica,sans-Serif" font-size="10.00">ApiClient::GoodPostReply</text>
</a>
</g>
</g>
<!-- Node1&#45;&gt;Node7 -->
<g id="edge6_Node000001_Node000007" class="edge">
<title>Node1&#45;&gt;Node7</title>
<g id="a_edge6_Node000001_Node000007"><a xlink:title=" ">
<path fill="none" stroke="#63b8ff" d="M111.39,-288.82C120.56,-290.09 130.23,-291.43 139.82,-292.75"/>
<polygon fill="#63b8ff" stroke="#63b8ff" points="139.13,-296.19 149.52,-294.09 140.09,-289.26 139.13,-296.19"/>
</a>
</g>
</g>
<!-- Node8 -->
<g id="Node000008" class="node">
<title>Node8</title>
<g id="a_Node000008"><a xlink:href="../../d8/d08/class_render_area_manager.html#a5eba4d620c1b50c889012aad208bf537" target="_top" xlink:title="Slot to handle unsuccessful DELETE responses from the API client.">
<polygon fill="white" stroke="#666666" points="275,-275.5 158.5,-275.5 158.5,-245 275,-245 275,-275.5"/>
<text text-anchor="start" x="166.5" y="-262" font-family="Helvetica,sans-Serif" font-size="10.00">RenderAreaManager::</text>
<text text-anchor="middle" x="216.75" y="-250.75" font-family="Helvetica,sans-Serif" font-size="10.00">onBadDeleteResponse</text>
</a>
</g>
</g>
<!-- Node1&#45;&gt;Node8 -->
<g id="edge7_Node000001_Node000008" class="edge">
<title>Node1&#45;&gt;Node8</title>
<g id="a_edge7_Node000001_Node000008"><a xlink:title=" ">
<path fill="none" stroke="#63b8ff" d="M111.39,-274.02C122.83,-272.51 135.04,-270.9 146.92,-269.33"/>
<polygon fill="#63b8ff" stroke="#63b8ff" points="147.22,-272.82 156.68,-268.05 146.3,-265.88 147.22,-272.82"/>
</a>
</g>
</g>
<!-- Node10 -->
<g id="Node000010" class="node">
<title>Node10</title>
<g id="a_Node000010"><a xlink:href="../../d8/d08/class_render_area_manager.html#a7be312bb8f2b2f172d7e7a4b2d140847" target="_top" xlink:title="Slot to handle unsuccessful GET responses from the API client.">
<polygon fill="white" stroke="#666666" points="272.38,-226.5 161.12,-226.5 161.12,-196 272.38,-196 272.38,-226.5"/>
<text text-anchor="start" x="169.12" y="-213" font-family="Helvetica,sans-Serif" font-size="10.00">RenderAreaManager::</text>
<text text-anchor="middle" x="216.75" y="-201.75" font-family="Helvetica,sans-Serif" font-size="10.00">onBadGetResponse</text>
</a>
</g>
</g>
<!-- Node1&#45;&gt;Node10 -->
<g id="edge9_Node000001_Node000010" class="edge">
<title>Node1&#45;&gt;Node10</title>
<g id="a_edge9_Node000001_Node000010"><a xlink:title=" ">
<path fill="none" stroke="#63b8ff" d="M86.03,-265.61C103.58,-256.54 126.43,-245.19 147.25,-236.25 151.32,-234.5 155.56,-232.77 159.84,-231.07"/>
<polygon fill="#63b8ff" stroke="#63b8ff" points="161.04,-234.36 169.11,-227.5 158.52,-227.83 161.04,-234.36"/>
</a>
</g>
</g>
<!-- Node11 -->
<g id="Node000011" class="node">
<title>Node11</title>
<g id="a_Node000011"><a xlink:href="../../d8/d08/class_render_area_manager.html#ad913be20b153ae12e6769da01ca0983f" target="_top" xlink:title="Slot to handle unsuccessful POST responses from the API client.">
<polygon fill="white" stroke="#666666" points="272.38,-177.5 161.12,-177.5 161.12,-147 272.38,-147 272.38,-177.5"/>
<text text-anchor="start" x="169.12" y="-164" font-family="Helvetica,sans-Serif" font-size="10.00">RenderAreaManager::</text>
<text text-anchor="middle" x="216.75" y="-152.75" font-family="Helvetica,sans-Serif" font-size="10.00">onBadPostResponse</text>
</a>
</g>
</g>
<!-- Node1&#45;&gt;Node11 -->
<g id="edge11_Node000001_Node000011" class="edge">
<title>Node1&#45;&gt;Node11</title>
<g id="a_edge11_Node000001_Node000011"><a xlink:title=" ">
<path fill="none" stroke="#63b8ff" d="M67.85,-265.82C83.51,-245.28 113.81,-209.01 147.25,-187.25 149.62,-185.71 152.09,-184.25 154.64,-182.86"/>
<polygon fill="#63b8ff" stroke="#63b8ff" points="155.95,-186.12 163.38,-178.56 152.86,-179.84 155.95,-186.12"/>
</a>
</g>
</g>
<!-- Node12 -->
<g id="Node000012" class="node">
<title>Node12</title>
<g id="a_Node000012"><a xlink:href="../../d8/d08/class_render_area_manager.html#acffe5680693aa0139963e7f0b0f44031" target="_top" xlink:title="Slot to handle successful DELETE responses from the API client.">
<polygon fill="white" stroke="#666666" points="278,-128.5 155.5,-128.5 155.5,-98 278,-98 278,-128.5"/>
<text text-anchor="start" x="163.5" y="-115" font-family="Helvetica,sans-Serif" font-size="10.00">RenderAreaManager::</text>
<text text-anchor="middle" x="216.75" y="-103.75" font-family="Helvetica,sans-Serif" font-size="10.00">onGoodDeleteResponse</text>
</a>
</g>
</g>
<!-- Node1&#45;&gt;Node12 -->
<g id="edge13_Node000001_Node000012" class="edge">
<title>Node1&#45;&gt;Node12</title>
<g id="a_edge13_Node000001_Node000012"><a xlink:title=" ">
<path fill="none" stroke="#63b8ff" d="M62.54,-265.54C74.3,-236.38 103.3,-173.64 147.25,-138.25 148.78,-137.02 150.37,-135.85 152.01,-134.73"/>
<polygon fill="#63b8ff" stroke="#63b8ff" points="153.75,-137.77 160.59,-129.69 150.2,-131.74 153.75,-137.77"/>
</a>
</g>
</g>
<!-- Node13 -->
<g id="Node000013" class="node">
<title>Node13</title>
<g id="a_Node000013"><a xlink:href="../../d8/d08/class_render_area_manager.html#aa7435693fddb08071d18e0965cc45a9d" target="_top" xlink:title="Slot to handle successful GET responses from the API client.">
<polygon fill="white" stroke="#666666" points="272.38,-30.5 161.12,-30.5 161.12,0 272.38,0 272.38,-30.5"/>
<text text-anchor="start" x="169.12" y="-17" font-family="Helvetica,sans-Serif" font-size="10.00">RenderAreaManager::</text>
<text text-anchor="middle" x="216.75" y="-5.75" font-family="Helvetica,sans-Serif" font-size="10.00">onGoodGetResponse</text>
</a>
</g>
</g>
<!-- Node1&#45;&gt;Node13 -->
<g id="edge15_Node000001_Node000013" class="edge">
<title>Node1&#45;&gt;Node13</title>
<g id="a_edge15_Node000001_Node000013"><a xlink:title=" ">
<path fill="none" stroke="#63b8ff" d="M58.05,-265.61C62.74,-223.31 81.34,-105.52 147.25,-40.25 148.61,-38.9 150.05,-37.63 151.55,-36.42"/>
<polygon fill="#63b8ff" stroke="#63b8ff" points="153.17,-39.55 159.51,-31.07 149.26,-33.74 153.17,-39.55"/>
</a>
</g>
</g>
<!-- Node15 -->
<g id="Node000015" class="node">
<title>Node15</title>
<g id="a_Node000015"><a xlink:href="../../d8/d08/class_render_area_manager.html#a82240f891ea5a3ada0778574a9d9f4f4" target="_top" xlink:title="Slot to handle successful POST responses from the API client.">
<polygon fill="white" stroke="#666666" points="273.88,-79.5 159.62,-79.5 159.62,-49 273.88,-49 273.88,-79.5"/>
<text text-anchor="start" x="167.62" y="-66" font-family="Helvetica,sans-Serif" font-size="10.00">RenderAreaManager::</text>
<text text-anchor="middle" x="216.75" y="-54.75" font-family="Helvetica,sans-Serif" font-size="10.00">onGoodPostResponse</text>
</a>
</g>
</g>
<!-- Node1&#45;&gt;Node15 -->
<g id="edge18_Node000001_Node000015" class="edge">
<title>Node1&#45;&gt;Node15</title>
<g id="a_edge18_Node000001_Node000015"><a xlink:title=" ">
<path fill="none" stroke="#63b8ff" d="M59.74,-265.66C67.75,-229.52 92.4,-139.32 147.25,-89.25 148.48,-88.13 149.76,-87.06 151.09,-86.03"/>
<polygon fill="#63b8ff" stroke="#63b8ff" points="152.69,-89.17 159.14,-80.77 148.86,-83.31 152.69,-89.17"/>
</a>
</g>
</g>
<!-- Node9 -->
<g id="Node000009" class="node">
<title>Node9</title>
<g id="a_Node000009"><a xlink:href="../../d8/d08/class_render_area_manager.html#a67d3ed59f05b6fbe86d3abd42766234f" target="_top" xlink:title="Emitted to provide a status message to the user.">
<polygon fill="white" stroke="#666666" points="433.5,-152.5 322.25,-152.5 322.25,-122 433.5,-122 433.5,-152.5"/>
<text text-anchor="start" x="330.25" y="-139" font-family="Helvetica,sans-Serif" font-size="10.00">RenderAreaManager::</text>
<text text-anchor="middle" x="377.88" y="-127.75" font-family="Helvetica,sans-Serif" font-size="10.00">statusMessage</text>
</a>
</g>
</g>
<!-- Node8&#45;&gt;Node9 -->
<g id="edge8_Node000008_Node000009" class="edge">
<title>Node8&#45;&gt;Node9</title>
<g id="a_edge8_Node000008_Node000009"><a xlink:title=" ">
<path fill="none" stroke="#63b8ff" d="M269.2,-244.55C275.16,-241.85 280.98,-238.76 286.25,-235.25 315.99,-215.45 342.78,-183.96 359.39,-162.03"/>
<polygon fill="#63b8ff" stroke="#63b8ff" points="362.04,-164.33 365.17,-154.21 356.41,-160.17 362.04,-164.33"/>
</a>
</g>
</g>
<!-- Node10&#45;&gt;Node9 -->
<g id="edge10_Node000010_Node000009" class="edge">
<title>Node10&#45;&gt;Node9</title>
<g id="a_edge10_Node000010_Node000009"><a xlink:title=" ">
<path fill="none" stroke="#63b8ff" d="M263.44,-195.63C271.13,-192.7 278.98,-189.52 286.25,-186.25 304.62,-177.98 324.37,-167.51 340.72,-158.37"/>
<polygon fill="#63b8ff" stroke="#63b8ff" points="342.13,-161.59 349.11,-153.62 338.68,-155.5 342.13,-161.59"/>
</a>
</g>
</g>
<!-- Node11&#45;&gt;Node9 -->
<g id="edge12_Node000011_Node000009" class="edge">
<title>Node11&#45;&gt;Node9</title>
<g id="a_edge12_Node000011_Node000009"><a xlink:title=" ">
<path fill="none" stroke="#63b8ff" d="M272.51,-153.65C284.89,-151.7 298.16,-149.62 310.94,-147.61"/>
<polygon fill="#63b8ff" stroke="#63b8ff" points="311.18,-151.11 320.52,-146.1 310.09,-144.2 311.18,-151.11"/>
</a>
</g>
</g>
<!-- Node12&#45;&gt;Node9 -->
<g id="edge14_Node000012_Node000009" class="edge">
<title>Node12&#45;&gt;Node9</title>
<g id="a_edge14_Node000012_Node000009"><a xlink:title=" ">
<path fill="none" stroke="#63b8ff" d="M278.36,-122.39C288.99,-123.99 300.09,-125.67 310.86,-127.29"/>
<polygon fill="#63b8ff" stroke="#63b8ff" points="310.01,-130.7 320.42,-128.73 311.05,-123.78 310.01,-130.7"/>
</a>
</g>
</g>
<!-- Node13&#45;&gt;Node9 -->
<g id="edge17_Node000013_Node000009" class="edge">
<title>Node13&#45;&gt;Node9</title>
<g id="a_edge17_Node000013_Node000009"><a xlink:title=" ">
<path fill="none" stroke="#63b8ff" d="M269.18,-30.98C275.14,-33.67 280.97,-36.76 286.25,-40.25 315.88,-59.86 342.69,-91.04 359.33,-112.73"/>
<polygon fill="#63b8ff" stroke="#63b8ff" points="356.33,-114.55 365.12,-120.46 361.93,-110.36 356.33,-114.55"/>
</a>
</g>
</g>
<!-- Node14 -->
<g id="Node000014" class="node">
<title>Node14</title>
<g id="a_Node000014"><a xlink:href="../../d8/d08/class_render_area_manager.html#a8ae2b40cb4cd008dff584aa8cfd14870" target="_top" xlink:title="Emitted when the render area has changed and needs redrawing.">
<polygon fill="white" stroke="#666666" points="433.5,-30.5 322.25,-30.5 322.25,0 433.5,0 433.5,-30.5"/>
<text text-anchor="start" x="330.25" y="-17" font-family="Helvetica,sans-Serif" font-size="10.00">RenderAreaManager::</text>
<text text-anchor="middle" x="377.88" y="-5.75" font-family="Helvetica,sans-Serif" font-size="10.00">renderAreaChanged</text>
</a>
</g>
</g>
<!-- Node13&#45;&gt;Node14 -->
<g id="edge16_Node000013_Node000014" class="edge">
<title>Node13&#45;&gt;Node14</title>
<g id="a_edge16_Node000013_Node000014"><a xlink:title=" ">
<path fill="none" stroke="#63b8ff" d="M272.51,-15.25C284.76,-15.25 297.89,-15.25 310.55,-15.25"/>
<polygon fill="#63b8ff" stroke="#63b8ff" points="310.5,-18.75 320.5,-15.25 310.5,-11.75 310.5,-18.75"/>
</a>
</g>
</g>
<!-- Node15&#45;&gt;Node9 -->
<g id="edge19_Node000015_Node000009" class="edge">
<title>Node15&#45;&gt;Node9</title>
<g id="a_edge19_Node000015_Node000009"><a xlink:title=" ">
<path fill="none" stroke="#63b8ff" d="M263.42,-79.93C271.11,-82.85 278.96,-86.01 286.25,-89.25 304.3,-97.28 323.73,-107.37 339.95,-116.22"/>
<polygon fill="#63b8ff" stroke="#63b8ff" points="337.83,-119.04 348.27,-120.81 341.21,-112.91 337.83,-119.04"/>
</a>
</g>
</g>
</g>
</svg>
