<?xml version="1.0" encoding="UTF-8" standalone="no"?>
<!DOCTYPE svg PUBLIC "-//W3C//DTD SVG 1.1//EN"
 "http://www.w3.org/Graphics/SVG/1.1/DTD/svg11.dtd">
<!-- Generated by graphviz version 12.2.1 (20241206.2353)
 -->
<!-- Title: RenderAreaManager::deleteShape Pages: 1 -->
<svg width="273pt" height="137pt"
 viewBox="0.00 0.00 273.25 136.50" xmlns="http://www.w3.org/2000/svg" xmlns:xlink="http://www.w3.org/1999/xlink">
<g id="graph0" class="graph" transform="scale(1 1) rotate(0) translate(4 132.5)">
<title>RenderAreaManager::deleteShape</title>
<!-- Node1 -->
<g id="Node000001" class="node">
<title>Node1</title>
<g id="a_Node000001"><a xlink:title="Deletes a shape identified by its tracker ID.">
<polygon fill="#999999" stroke="#666666" points="111.25,-79.5 0,-79.5 0,-49 111.25,-49 111.25,-79.5"/>
<text text-anchor="start" x="8" y="-66" font-family="Helvetica,sans-Serif" font-size="10.00">RenderAreaManager::</text>
<text text-anchor="middle" x="55.62" y="-54.75" font-family="Helvetica,sans-Serif" font-size="10.00">deleteShape</text>
</a>
</g>
</g>
<!-- Node2 -->
<g id="Node000002" class="node">
<title>Node2</title>
<g id="a_Node000002"><a xlink:href="../../d8/d08/class_render_area_manager.html#a8ae2b40cb4cd008dff584aa8cfd14870" target="_top" xlink:title="Emitted when the render area has changed and needs redrawing.">
<polygon fill="white" stroke="#666666" points="261.88,-128.5 150.62,-128.5 150.62,-98 261.88,-98 261.88,-128.5"/>
<text text-anchor="start" x="158.62" y="-115" font-family="Helvetica,sans-Serif" font-size="10.00">RenderAreaManager::</text>
<text text-anchor="middle" x="206.25" y="-103.75" font-family="Helvetica,sans-Serif" font-size="10.00">renderAreaChanged</text>
</a>
</g>
</g>
<!-- Node1&#45;&gt;Node2 -->
<g id="edge1_Node000001_Node000002" class="edge">
<title>Node1&#45;&gt;Node2</title>
<g id="a_edge1_Node000001_Node000002"><a xlink:title=" ">
<path fill="none" stroke="#63b8ff" d="M104.06,-79.89C117.67,-84.37 132.66,-89.32 146.85,-94"/>
<polygon fill="#63b8ff" stroke="#63b8ff" points="145.47,-97.23 156.06,-97.03 147.66,-90.58 145.47,-97.23"/>
</a>
</g>
</g>
<!-- Node3 -->
<g id="Node000003" class="node">
<title>Node3</title>
<g id="a_Node000003"><a xlink:href="../../d8/d08/class_render_area_manager.html#a56824396a14f64eb605061ce4cc45898" target="_top" xlink:title="Emitted when an operation completes without changing the render area, often with a message.">
<polygon fill="white" stroke="#666666" points="265.25,-79.5 147.25,-79.5 147.25,-49 265.25,-49 265.25,-79.5"/>
<text text-anchor="start" x="155.25" y="-66" font-family="Helvetica,sans-Serif" font-size="10.00">RenderAreaManager::</text>
<text text-anchor="middle" x="206.25" y="-54.75" font-family="Helvetica,sans-Serif" font-size="10.00">renderAreaNotChanged</text>
</a>
</g>
</g>
<!-- Node1&#45;&gt;Node3 -->
<g id="edge2_Node000001_Node000003" class="edge">
<title>Node1&#45;&gt;Node3</title>
<g id="a_edge2_Node000001_Node000003"><a xlink:title=" ">
<path fill="none" stroke="#63b8ff" d="M111.55,-64.25C119.36,-64.25 127.48,-64.25 135.53,-64.25"/>
<polygon fill="#63b8ff" stroke="#63b8ff" points="135.3,-67.75 145.3,-64.25 135.3,-60.75 135.3,-67.75"/>
</a>
</g>
</g>
<!-- Node4 -->
<g id="Node000004" class="node">
<title>Node4</title>
<g id="a_Node000004"><a xlink:href="../../d8/d08/class_render_area_manager.html#a0c224de3ad3bbe2f6c81e5c40e640f64" target="_top" xlink:title="Initiates saving the current shapes to the backend webservice.">
<polygon fill="white" stroke="#666666" points="261.88,-30.5 150.62,-30.5 150.62,0 261.88,0 261.88,-30.5"/>
<text text-anchor="start" x="158.62" y="-17" font-family="Helvetica,sans-Serif" font-size="10.00">RenderAreaManager::</text>
<text text-anchor="middle" x="206.25" y="-5.75" font-family="Helvetica,sans-Serif" font-size="10.00">saveShapes</text>
</a>
</g>
</g>
<!-- Node1&#45;&gt;Node4 -->
<g id="edge3_Node000001_Node000004" class="edge">
<title>Node1&#45;&gt;Node4</title>
<g id="a_edge3_Node000001_Node000004"><a xlink:title=" ">
<path fill="none" stroke="#63b8ff" d="M104.06,-48.61C117.67,-44.13 132.66,-39.18 146.85,-34.5"/>
<polygon fill="#63b8ff" stroke="#63b8ff" points="147.66,-37.92 156.06,-31.47 145.47,-31.27 147.66,-37.92"/>
</a>
</g>
</g>
</g>
</svg>
