<?xml version="1.0" encoding="UTF-8" standalone="no"?>
<!DOCTYPE svg PUBLIC "-//W3C//DTD SVG 1.1//EN"
 "http://www.w3.org/Graphics/SVG/1.1/DTD/svg11.dtd">
<!-- Generated by graphviz version 12.2.1 (20241206.2353)
 -->
<!-- Title: RenderAreaManager::modifyDisplayedText Pages: 1 -->
<svg width="267pt" height="125pt"
 viewBox="0.00 0.00 266.50 124.88" xmlns="http://www.w3.org/2000/svg" xmlns:xlink="http://www.w3.org/1999/xlink">
<g id="graph0" class="graph" transform="scale(1 1) rotate(0) translate(4 120.88)">
<title>RenderAreaManager::modifyDisplayedText</title>
<!-- Node1 -->
<g id="Node000001" class="node">
<title>Node1</title>
<g id="a_Node000001"><a xlink:title="Modifies the displayed text of a Text shape.">
<polygon fill="#999999" stroke="#666666" points="111.25,-67.88 0,-67.88 0,-37.38 111.25,-37.38 111.25,-67.88"/>
<text text-anchor="start" x="8" y="-54.38" font-family="Helvetica,sans-Serif" font-size="10.00">RenderAreaManager::</text>
<text text-anchor="middle" x="55.62" y="-43.12" font-family="Helvetica,sans-Serif" font-size="10.00">modifyDisplayedText</text>
</a>
</g>
</g>
<!-- Node2 -->
<g id="Node000002" class="node">
<title>Node2</title>
<g id="a_Node000002"><a xlink:href="../../d8/d08/class_render_area_manager.html#a8ae2b40cb4cd008dff584aa8cfd14870" target="_top" xlink:title="Emitted when the render area has changed and needs redrawing.">
<polygon fill="white" stroke="#666666" points="258.5,-116.88 147.25,-116.88 147.25,-86.38 258.5,-86.38 258.5,-116.88"/>
<text text-anchor="start" x="155.25" y="-103.38" font-family="Helvetica,sans-Serif" font-size="10.00">RenderAreaManager::</text>
<text text-anchor="middle" x="202.88" y="-92.12" font-family="Helvetica,sans-Serif" font-size="10.00">renderAreaChanged</text>
</a>
</g>
</g>
<!-- Node1&#45;&gt;Node2 -->
<g id="edge1_Node000001_Node000002" class="edge">
<title>Node1&#45;&gt;Node2</title>
<g id="a_edge1_Node000001_Node000002"><a xlink:title=" ">
<path fill="none" stroke="#63b8ff" d="M102.98,-68.26C116.22,-72.73 130.79,-77.65 144.6,-82.3"/>
<polygon fill="#63b8ff" stroke="#63b8ff" points="143.43,-85.6 154.03,-85.48 145.67,-78.97 143.43,-85.6"/>
</a>
</g>
</g>
<!-- Node3 -->
<g id="Node000003" class="node">
<title>Node3</title>
<g id="a_Node000003"><a xlink:href="../../d8/d08/class_render_area_manager.html#a0c224de3ad3bbe2f6c81e5c40e640f64" target="_top" xlink:title="Initiates saving the current shapes to the backend webservice.">
<polygon fill="white" stroke="#666666" points="258.5,-67.88 147.25,-67.88 147.25,-37.38 258.5,-37.38 258.5,-67.88"/>
<text text-anchor="start" x="155.25" y="-54.38" font-family="Helvetica,sans-Serif" font-size="10.00">RenderAreaManager::</text>
<text text-anchor="middle" x="202.88" y="-43.12" font-family="Helvetica,sans-Serif" font-size="10.00">saveShapes</text>
</a>
</g>
</g>
<!-- Node1&#45;&gt;Node3 -->
<g id="edge2_Node000001_Node000003" class="edge">
<title>Node1&#45;&gt;Node3</title>
<g id="a_edge2_Node000001_Node000003"><a xlink:title=" ">
<path fill="none" stroke="#63b8ff" d="M111.54,-52.62C119.4,-52.62 127.56,-52.62 135.61,-52.62"/>
<polygon fill="#63b8ff" stroke="#63b8ff" points="135.37,-56.13 145.37,-52.63 135.37,-49.13 135.37,-56.13"/>
</a>
</g>
</g>
<!-- Node4 -->
<g id="Node000004" class="node">
<title>Node4</title>
<g id="a_Node000004"><a xlink:href="../../da/d0e/class_text.html#ad9de0026ba5817e2eb18d1d58875a9aa" target="_top" xlink:title="Mutator Functions.">
<polygon fill="white" stroke="#666666" points="239.38,-19.25 166.38,-19.25 166.38,0 239.38,0 239.38,-19.25"/>
<text text-anchor="middle" x="202.88" y="-5.75" font-family="Helvetica,sans-Serif" font-size="10.00">Text::setText</text>
</a>
</g>
</g>
<!-- Node1&#45;&gt;Node4 -->
<g id="edge3_Node000001_Node000004" class="edge">
<title>Node1&#45;&gt;Node4</title>
<g id="a_edge3_Node000001_Node000004"><a xlink:title=" ">
<path fill="none" stroke="#63b8ff" d="M109.47,-36.98C125.14,-32.34 142.13,-27.31 157.23,-22.84"/>
<polygon fill="#63b8ff" stroke="#63b8ff" points="157.79,-26.33 166.38,-20.13 155.8,-19.62 157.79,-26.33"/>
</a>
</g>
</g>
</g>
</svg>
