<?xml version="1.0" encoding="UTF-8" standalone="no"?>
<!DOCTYPE svg PUBLIC "-//W3C//DTD SVG 1.1//EN"
 "http://www.w3.org/Graphics/SVG/1.1/DTD/svg11.dtd">
<!-- Generated by graphviz version 12.2.1 (20241206.2353)
 -->
<!-- Title: RenderAreaManager::onGoodGetResponse Pages: 1 -->
<svg width="267pt" height="88pt"
 viewBox="0.00 0.00 266.50 87.50" xmlns="http://www.w3.org/2000/svg" xmlns:xlink="http://www.w3.org/1999/xlink">
<g id="graph0" class="graph" transform="scale(1 1) rotate(0) translate(4 83.5)">
<title>RenderAreaManager::onGoodGetResponse</title>
<!-- Node1 -->
<g id="Node000001" class="node">
<title>Node1</title>
<g id="a_Node000001"><a xlink:title="Slot to handle successful GET responses from the API client.">
<polygon fill="#999999" stroke="#666666" points="111.25,-54.5 0,-54.5 0,-24 111.25,-24 111.25,-54.5"/>
<text text-anchor="start" x="8" y="-41" font-family="Helvetica,sans-Serif" font-size="10.00">RenderAreaManager::</text>
<text text-anchor="middle" x="55.62" y="-29.75" font-family="Helvetica,sans-Serif" font-size="10.00">onGoodGetResponse</text>
</a>
</g>
</g>
<!-- Node2 -->
<g id="Node000002" class="node">
<title>Node2</title>
<g id="a_Node000002"><a xlink:href="../../d8/d08/class_render_area_manager.html#a8ae2b40cb4cd008dff584aa8cfd14870" target="_top" xlink:title="Emitted when the render area has changed and needs redrawing.">
<polygon fill="white" stroke="#666666" points="258.5,-79.5 147.25,-79.5 147.25,-49 258.5,-49 258.5,-79.5"/>
<text text-anchor="start" x="155.25" y="-66" font-family="Helvetica,sans-Serif" font-size="10.00">RenderAreaManager::</text>
<text text-anchor="middle" x="202.88" y="-54.75" font-family="Helvetica,sans-Serif" font-size="10.00">renderAreaChanged</text>
</a>
</g>
</g>
<!-- Node1&#45;&gt;Node2 -->
<g id="edge1_Node000001_Node000002" class="edge">
<title>Node1&#45;&gt;Node2</title>
<g id="a_edge1_Node000001_Node000002"><a xlink:title=" ">
<path fill="none" stroke="#63b8ff" d="M111.54,-48.7C119.4,-50.05 127.56,-51.46 135.61,-52.84"/>
<polygon fill="#63b8ff" stroke="#63b8ff" points="134.94,-56.28 145.39,-54.53 136.13,-49.38 134.94,-56.28"/>
</a>
</g>
</g>
<!-- Node3 -->
<g id="Node000003" class="node">
<title>Node3</title>
<g id="a_Node000003"><a xlink:href="../../d8/d08/class_render_area_manager.html#a67d3ed59f05b6fbe86d3abd42766234f" target="_top" xlink:title="Emitted to provide a status message to the user.">
<polygon fill="white" stroke="#666666" points="258.5,-30.5 147.25,-30.5 147.25,0 258.5,0 258.5,-30.5"/>
<text text-anchor="start" x="155.25" y="-17" font-family="Helvetica,sans-Serif" font-size="10.00">RenderAreaManager::</text>
<text text-anchor="middle" x="202.88" y="-5.75" font-family="Helvetica,sans-Serif" font-size="10.00">statusMessage</text>
</a>
</g>
</g>
<!-- Node1&#45;&gt;Node3 -->
<g id="edge2_Node000001_Node000003" class="edge">
<title>Node1&#45;&gt;Node3</title>
<g id="a_edge2_Node000001_Node000003"><a xlink:title=" ">
<path fill="none" stroke="#63b8ff" d="M111.54,-30.18C119.4,-28.88 127.56,-27.53 135.61,-26.2"/>
<polygon fill="#63b8ff" stroke="#63b8ff" points="136.1,-29.67 145.39,-24.58 134.95,-22.76 136.1,-29.67"/>
</a>
</g>
</g>
</g>
</svg>
