<?xml version="1.0" encoding="UTF-8" standalone="no"?>
<!DOCTYPE svg PUBLIC "-//W3C//DTD SVG 1.1//EN"
 "http://www.w3.org/Graphics/SVG/1.1/DTD/svg11.dtd">
<!-- Generated by graphviz version 12.2.1 (20241206.2353)
 -->
<!-- Title: RenderAreaManager::addShape Pages: 1 -->
<svg width="267pt" height="125pt"
 viewBox="0.00 0.00 266.50 124.88" xmlns="http://www.w3.org/2000/svg" xmlns:xlink="http://www.w3.org/1999/xlink">
<g id="graph0" class="graph" transform="scale(1 1) rotate(0) translate(4 120.88)">
<title>RenderAreaManager::addShape</title>
<!-- Node1 -->
<g id="Node000001" class="node">
<title>Node1</title>
<g id="a_Node000001"><a xlink:title="Adds a new shape to the rendering list and triggers a save.">
<polygon fill="#999999" stroke="#666666" points="111.25,-79.5 0,-79.5 0,-49 111.25,-49 111.25,-79.5"/>
<text text-anchor="start" x="8" y="-66" font-family="Helvetica,sans-Serif" font-size="10.00">RenderAreaManager::</text>
<text text-anchor="middle" x="55.62" y="-54.75" font-family="Helvetica,sans-Serif" font-size="10.00">addShape</text>
</a>
</g>
</g>
<!-- Node2 -->
<g id="Node000002" class="node">
<title>Node2</title>
<g id="a_Node000002"><a xlink:href="../../d7/da7/class_shape.html#aec4675c2b06d40373eefac4b982af242" target="_top" xlink:title=" ">
<polygon fill="white" stroke="#666666" points="255.12,-116.88 150.62,-116.88 150.62,-97.62 255.12,-97.62 255.12,-116.88"/>
<text text-anchor="middle" x="202.88" y="-103.38" font-family="Helvetica,sans-Serif" font-size="10.00">Shape::getTrackerId</text>
</a>
</g>
</g>
<!-- Node1&#45;&gt;Node2 -->
<g id="edge1_Node000001_Node000002" class="edge">
<title>Node1&#45;&gt;Node2</title>
<g id="a_edge1_Node000001_Node000002"><a xlink:title=" ">
<path fill="none" stroke="#63b8ff" d="M109.47,-79.9C125.14,-84.53 142.13,-89.56 157.23,-94.03"/>
<polygon fill="#63b8ff" stroke="#63b8ff" points="155.8,-97.26 166.38,-96.74 157.79,-90.55 155.8,-97.26"/>
</a>
</g>
</g>
<!-- Node3 -->
<g id="Node000003" class="node">
<title>Node3</title>
<g id="a_Node000003"><a xlink:href="../../d8/d08/class_render_area_manager.html#a8ae2b40cb4cd008dff584aa8cfd14870" target="_top" xlink:title="Emitted when the render area has changed and needs redrawing.">
<polygon fill="white" stroke="#666666" points="258.5,-79.5 147.25,-79.5 147.25,-49 258.5,-49 258.5,-79.5"/>
<text text-anchor="start" x="155.25" y="-66" font-family="Helvetica,sans-Serif" font-size="10.00">RenderAreaManager::</text>
<text text-anchor="middle" x="202.88" y="-54.75" font-family="Helvetica,sans-Serif" font-size="10.00">renderAreaChanged</text>
</a>
</g>
</g>
<!-- Node1&#45;&gt;Node3 -->
<g id="edge2_Node000001_Node000003" class="edge">
<title>Node1&#45;&gt;Node3</title>
<g id="a_edge2_Node000001_Node000003"><a xlink:title=" ">
<path fill="none" stroke="#63b8ff" d="M111.54,-64.25C119.4,-64.25 127.56,-64.25 135.61,-64.25"/>
<polygon fill="#63b8ff" stroke="#63b8ff" points="135.37,-67.75 145.37,-64.25 135.37,-60.75 135.37,-67.75"/>
</a>
</g>
</g>
<!-- Node4 -->
<g id="Node000004" class="node">
<title>Node4</title>
<g id="a_Node000004"><a xlink:href="../../d8/d08/class_render_area_manager.html#a0c224de3ad3bbe2f6c81e5c40e640f64" target="_top" xlink:title="Initiates saving the current shapes to the backend webservice.">
<polygon fill="white" stroke="#666666" points="258.5,-30.5 147.25,-30.5 147.25,0 258.5,0 258.5,-30.5"/>
<text text-anchor="start" x="155.25" y="-17" font-family="Helvetica,sans-Serif" font-size="10.00">RenderAreaManager::</text>
<text text-anchor="middle" x="202.88" y="-5.75" font-family="Helvetica,sans-Serif" font-size="10.00">saveShapes</text>
</a>
</g>
</g>
<!-- Node1&#45;&gt;Node4 -->
<g id="edge3_Node000001_Node000004" class="edge">
<title>Node1&#45;&gt;Node4</title>
<g id="a_edge3_Node000001_Node000004"><a xlink:title=" ">
<path fill="none" stroke="#63b8ff" d="M102.98,-48.61C116.22,-44.15 130.79,-39.23 144.6,-34.57"/>
<polygon fill="#63b8ff" stroke="#63b8ff" points="145.67,-37.9 154.03,-31.39 143.43,-31.27 145.67,-37.9"/>
</a>
</g>
</g>
</g>
</svg>
