<?xml version="1.0" encoding="UTF-8" standalone="no"?>
<!DOCTYPE svg PUBLIC "-//W3C//DTD SVG 1.1//EN"
 "http://www.w3.org/Graphics/SVG/1.1/DTD/svg11.dtd">
<!-- Generated by graphviz version 12.2.1 (20241206.2353)
 -->
<!-- Title: RenderAreaManager::renderAreaChanged Pages: 1 -->
<svg width="633pt" height="321pt"
 viewBox="0.00 0.00 633.25 320.50" xmlns="http://www.w3.org/2000/svg" xmlns:xlink="http://www.w3.org/1999/xlink">
<g id="graph0" class="graph" transform="scale(1 1) rotate(0) translate(4 316.5)">
<title>RenderAreaManager::renderAreaChanged</title>
<!-- Node1 -->
<g id="Node000001" class="node">
<title>Node1</title>
<g id="a_Node000001"><a xlink:title="Emitted when the render area has changed and needs redrawing.">
<polygon fill="#999999" stroke="#666666" points="625.25,-177.5 514,-177.5 514,-147 625.25,-147 625.25,-177.5"/>
<text text-anchor="start" x="522" y="-164" font-family="Helvetica,sans-Serif" font-size="10.00">RenderAreaManager::</text>
<text text-anchor="middle" x="569.62" y="-152.75" font-family="Helvetica,sans-Serif" font-size="10.00">renderAreaChanged</text>
</a>
</g>
</g>
<!-- Node2 -->
<g id="Node000002" class="node">
<title>Node2</title>
<g id="a_Node000002"><a xlink:href="../../d8/d08/class_render_area_manager.html#af43a9dc571803450ae63b62a234c8d21" target="_top" xlink:title="Adds a new shape to the rendering list and triggers a save.">
<polygon fill="white" stroke="#666666" points="478,-312.5 366.75,-312.5 366.75,-282 478,-282 478,-312.5"/>
<text text-anchor="start" x="374.75" y="-299" font-family="Helvetica,sans-Serif" font-size="10.00">RenderAreaManager::</text>
<text text-anchor="middle" x="422.38" y="-287.75" font-family="Helvetica,sans-Serif" font-size="10.00">addShape</text>
</a>
</g>
</g>
<!-- Node1&#45;&gt;Node2 -->
<g id="edge1_Node000001_Node000002" class="edge">
<title>Node1&#45;&gt;Node2</title>
<g id="a_edge1_Node000001_Node000002"><a xlink:title=" ">
<path fill="none" stroke="#63b8ff" d="M551.63,-187.05C534.89,-210.16 507.59,-244.53 478,-268.25 471.8,-273.22 464.62,-277.74 457.55,-281.65"/>
<polygon fill="#63b8ff" stroke="#63b8ff" points="554.32,-189.31 557.26,-179.13 548.62,-185.25 554.32,-189.31"/>
</a>
</g>
</g>
<!-- Node3 -->
<g id="Node000003" class="node">
<title>Node3</title>
<g id="a_Node000003"><a xlink:href="../../d7/de6/class_app_driver.html#af39fbba491cc4dc1d378d6e140507554" target="_top" xlink:title="Connects signals from backend managers to slots in the frontend UI.">
<polygon fill="white" stroke="#666666" points="330.75,-246.5 188,-246.5 188,-216 330.75,-216 330.75,-246.5"/>
<text text-anchor="start" x="196" y="-233" font-family="Helvetica,sans-Serif" font-size="10.00">AppDriver::connectManagers</text>
<text text-anchor="middle" x="259.38" y="-221.75" font-family="Helvetica,sans-Serif" font-size="10.00">ToFrontend</text>
</a>
</g>
</g>
<!-- Node1&#45;&gt;Node3 -->
<g id="edge2_Node000001_Node000003" class="edge">
<title>Node1&#45;&gt;Node3</title>
<g id="a_edge2_Node000001_Node000003"><a xlink:title=" ">
<path fill="none" stroke="#63b8ff" d="M547.95,-185.94C531.11,-203.31 505.67,-225.49 478,-235.25 430.96,-251.84 374.57,-250.26 330.98,-244.83"/>
<polygon fill="#63b8ff" stroke="#63b8ff" points="550.18,-188.68 554.46,-178.98 545.07,-183.89 550.18,-188.68"/>
</a>
</g>
</g>
<!-- Node6 -->
<g id="Node000006" class="node">
<title>Node6</title>
<g id="a_Node000006"><a xlink:href="../../d8/d08/class_render_area_manager.html#a5ea36e034fff90329526dc6c70de0b3b" target="_top" xlink:title="Requests the deletion of all shapes from the backend.">
<polygon fill="white" stroke="#666666" points="478,-226.5 366.75,-226.5 366.75,-196 478,-196 478,-226.5"/>
<text text-anchor="start" x="374.75" y="-213" font-family="Helvetica,sans-Serif" font-size="10.00">RenderAreaManager::</text>
<text text-anchor="middle" x="422.38" y="-201.75" font-family="Helvetica,sans-Serif" font-size="10.00">deleteAllShapes</text>
</a>
</g>
</g>
<!-- Node1&#45;&gt;Node6 -->
<g id="edge5_Node000001_Node000006" class="edge">
<title>Node1&#45;&gt;Node6</title>
<g id="a_edge5_Node000001_Node000006"><a xlink:title=" ">
<path fill="none" stroke="#63b8ff" d="M511.41,-181.55C497.61,-186.21 483.03,-191.13 469.79,-195.59"/>
<polygon fill="#63b8ff" stroke="#63b8ff" points="512.48,-184.89 520.83,-178.37 510.24,-178.25 512.48,-184.89"/>
</a>
</g>
</g>
<!-- Node7 -->
<g id="Node000007" class="node">
<title>Node7</title>
<g id="a_Node000007"><a xlink:href="../../d8/d08/class_render_area_manager.html#a5f88d7daf9c0e9e16f2f4c98b4431c01" target="_top" xlink:title="Deletes a shape identified by its tracker ID.">
<polygon fill="white" stroke="#666666" points="478,-177.5 366.75,-177.5 366.75,-147 478,-147 478,-177.5"/>
<text text-anchor="start" x="374.75" y="-164" font-family="Helvetica,sans-Serif" font-size="10.00">RenderAreaManager::</text>
<text text-anchor="middle" x="422.38" y="-152.75" font-family="Helvetica,sans-Serif" font-size="10.00">deleteShape</text>
</a>
</g>
</g>
<!-- Node1&#45;&gt;Node7 -->
<g id="edge6_Node000001_Node000007" class="edge">
<title>Node1&#45;&gt;Node7</title>
<g id="a_edge6_Node000001_Node000007"><a xlink:title=" ">
<path fill="none" stroke="#63b8ff" d="M502.44,-162.25C494.39,-162.25 486.23,-162.25 478.37,-162.25"/>
<polygon fill="#63b8ff" stroke="#63b8ff" points="502.2,-165.75 512.2,-162.25 502.2,-158.75 502.2,-165.75"/>
</a>
</g>
</g>
<!-- Node8 -->
<g id="Node000008" class="node">
<title>Node8</title>
<g id="a_Node000008"><a xlink:href="../../d8/d08/class_render_area_manager.html#a47f13c07bb02a5904a1ff2d162ab13b1" target="_top" xlink:title="Modifies the displayed text of a Text shape.">
<polygon fill="white" stroke="#666666" points="478,-128.5 366.75,-128.5 366.75,-98 478,-98 478,-128.5"/>
<text text-anchor="start" x="374.75" y="-115" font-family="Helvetica,sans-Serif" font-size="10.00">RenderAreaManager::</text>
<text text-anchor="middle" x="422.38" y="-103.75" font-family="Helvetica,sans-Serif" font-size="10.00">modifyDisplayedText</text>
</a>
</g>
</g>
<!-- Node1&#45;&gt;Node8 -->
<g id="edge7_Node000001_Node000008" class="edge">
<title>Node1&#45;&gt;Node8</title>
<g id="a_edge7_Node000001_Node000008"><a xlink:title=" ">
<path fill="none" stroke="#63b8ff" d="M511.41,-142.95C497.61,-138.29 483.03,-133.37 469.79,-128.91"/>
<polygon fill="#63b8ff" stroke="#63b8ff" points="510.24,-146.25 520.83,-146.13 512.48,-139.61 510.24,-146.25"/>
</a>
</g>
</g>
<!-- Node10 -->
<g id="Node000010" class="node">
<title>Node10</title>
<g id="a_Node000010"><a xlink:href="../../d8/d08/class_render_area_manager.html#af37e63015f3671115d0da8aff234a805" target="_top" xlink:title="Modifies a property of an existing shape based on a key&#45;value pair.">
<polygon fill="white" stroke="#666666" points="478,-79.5 366.75,-79.5 366.75,-49 478,-49 478,-79.5"/>
<text text-anchor="start" x="374.75" y="-66" font-family="Helvetica,sans-Serif" font-size="10.00">RenderAreaManager::</text>
<text text-anchor="middle" x="422.38" y="-54.75" font-family="Helvetica,sans-Serif" font-size="10.00">modifyShape</text>
</a>
</g>
</g>
<!-- Node1&#45;&gt;Node10 -->
<g id="edge10_Node000001_Node000010" class="edge">
<title>Node1&#45;&gt;Node10</title>
<g id="a_edge10_Node000001_Node000010"><a xlink:title=" ">
<path fill="none" stroke="#63b8ff" d="M543.38,-139.06C525.88,-123.72 501.56,-103.81 478,-89.25 472.68,-85.96 466.85,-82.84 461.04,-79.99"/>
<polygon fill="#63b8ff" stroke="#63b8ff" points="540.95,-141.58 550.75,-145.61 545.6,-136.35 540.95,-141.58"/>
</a>
</g>
</g>
<!-- Node11 -->
<g id="Node000011" class="node">
<title>Node11</title>
<g id="a_Node000011"><a xlink:href="../../d8/d08/class_render_area_manager.html#aa7435693fddb08071d18e0965cc45a9d" target="_top" xlink:title="Slot to handle successful GET responses from the API client.">
<polygon fill="white" stroke="#666666" points="478,-30.5 366.75,-30.5 366.75,0 478,0 478,-30.5"/>
<text text-anchor="start" x="374.75" y="-17" font-family="Helvetica,sans-Serif" font-size="10.00">RenderAreaManager::</text>
<text text-anchor="middle" x="422.38" y="-5.75" font-family="Helvetica,sans-Serif" font-size="10.00">onGoodGetResponse</text>
</a>
</g>
</g>
<!-- Node1&#45;&gt;Node11 -->
<g id="edge11_Node000001_Node000011" class="edge">
<title>Node1&#45;&gt;Node11</title>
<g id="a_edge11_Node000001_Node000011"><a xlink:title=" ">
<path fill="none" stroke="#63b8ff" d="M555.01,-136.96C539.43,-109.99 511.67,-67.51 478,-40.25 473.7,-36.77 468.85,-33.66 463.84,-30.92"/>
<polygon fill="#63b8ff" stroke="#63b8ff" points="551.86,-138.49 559.82,-145.48 557.96,-135.05 551.86,-138.49"/>
</a>
</g>
</g>
<!-- Node4 -->
<g id="Node000004" class="node">
<title>Node4</title>
<g id="a_Node000004"><a xlink:href="../../d7/de6/class_app_driver.html#af5bf7b6bd96161d95a0a67cc7693127d" target="_top" xlink:title="Initializes and shows the main application window and loads initial data.">
<polygon fill="white" stroke="#666666" points="152,-192.88 73,-192.88 73,-173.62 152,-173.62 152,-192.88"/>
<text text-anchor="middle" x="112.5" y="-179.38" font-family="Helvetica,sans-Serif" font-size="10.00">AppDriver::run</text>
</a>
</g>
</g>
<!-- Node3&#45;&gt;Node4 -->
<g id="edge3_Node000003_Node000004" class="edge">
<title>Node3&#45;&gt;Node4</title>
<g id="a_edge3_Node000003_Node000004"><a xlink:title=" ">
<path fill="none" stroke="#63b8ff" d="M200.08,-211.94C180.76,-205.54 160.05,-198.67 143.73,-193.26"/>
<polygon fill="#63b8ff" stroke="#63b8ff" points="198.91,-215.23 209.5,-215.06 201.11,-208.59 198.91,-215.23"/>
</a>
</g>
</g>
<!-- Node5 -->
<g id="Node000005" class="node">
<title>Node5</title>
<g id="a_Node000005"><a xlink:href="../../d8/d80/src_2backend_2main_8cpp.html#a0ddf1224851353fc92bfbff6f499fa97" target="_top" xlink:title=" ">
<polygon fill="white" stroke="#666666" points="37,-192.88 0,-192.88 0,-173.62 37,-173.62 37,-192.88"/>
<text text-anchor="middle" x="18.5" y="-179.38" font-family="Helvetica,sans-Serif" font-size="10.00">main</text>
</a>
</g>
</g>
<!-- Node4&#45;&gt;Node5 -->
<g id="edge4_Node000004_Node000005" class="edge">
<title>Node4&#45;&gt;Node5</title>
<g id="a_edge4_Node000004_Node000005"><a xlink:title=" ">
<path fill="none" stroke="#63b8ff" d="M61.34,-183.25C52.67,-183.25 44.2,-183.25 37.18,-183.25"/>
<polygon fill="#63b8ff" stroke="#63b8ff" points="61.24,-186.75 71.24,-183.25 61.24,-179.75 61.24,-186.75"/>
</a>
</g>
</g>
<!-- Node9 -->
<g id="Node000009" class="node">
<title>Node9</title>
<g id="a_Node000009"><a xlink:href="../../d7/de6/class_app_driver.html#ad4932bc7c7019e2522503886c01ffe33" target="_top" xlink:title="Connects signals from the frontend UI to slots in this AppDriver.">
<polygon fill="white" stroke="#666666" points="328.5,-151.5 190.25,-151.5 190.25,-121 328.5,-121 328.5,-151.5"/>
<text text-anchor="start" x="198.25" y="-138" font-family="Helvetica,sans-Serif" font-size="10.00">AppDriver::connectFrontend</text>
<text text-anchor="middle" x="259.38" y="-126.75" font-family="Helvetica,sans-Serif" font-size="10.00">ToDriver</text>
</a>
</g>
</g>
<!-- Node8&#45;&gt;Node9 -->
<g id="edge8_Node000008_Node000009" class="edge">
<title>Node8&#45;&gt;Node9</title>
<g id="a_edge8_Node000008_Node000009"><a xlink:title=" ">
<path fill="none" stroke="#63b8ff" d="M355.14,-122.71C346.43,-123.96 337.5,-125.23 328.75,-126.48"/>
<polygon fill="#63b8ff" stroke="#63b8ff" points="355.52,-126.19 364.92,-121.32 354.53,-119.26 355.52,-126.19"/>
</a>
</g>
</g>
<!-- Node9&#45;&gt;Node4 -->
<g id="edge9_Node000009_Node000004" class="edge">
<title>Node9&#45;&gt;Node4</title>
<g id="a_edge9_Node000009_Node000004"><a xlink:title=" ">
<path fill="none" stroke="#63b8ff" d="M199.3,-155.42C180.58,-161.49 160.64,-167.96 144.69,-173.13"/>
<polygon fill="#63b8ff" stroke="#63b8ff" points="200.26,-158.78 208.69,-152.37 198.1,-152.12 200.26,-158.78"/>
</a>
</g>
</g>
<!-- Node12 -->
<g id="Node000012" class="node">
<title>Node12</title>
<g id="a_Node000012"><a xlink:href="../../d8/d08/class_render_area_manager.html#a40e9c4c1fdd040cbd0a0a366fb337024" target="_top" xlink:title="Constructs a RenderAreaManager object and connects API client signals.">
<polygon fill="white" stroke="#666666" points="315,-30.5 203.75,-30.5 203.75,0 315,0 315,-30.5"/>
<text text-anchor="start" x="211.75" y="-17" font-family="Helvetica,sans-Serif" font-size="10.00">RenderAreaManager::</text>
<text text-anchor="middle" x="259.38" y="-5.75" font-family="Helvetica,sans-Serif" font-size="10.00">RenderAreaManager</text>
</a>
</g>
</g>
<!-- Node11&#45;&gt;Node12 -->
<g id="edge12_Node000011_Node000012" class="edge">
<title>Node11&#45;&gt;Node12</title>
<g id="a_edge12_Node000011_Node000012"><a xlink:title=" ">
<path fill="none" stroke="#63b8ff" d="M355,-15.25C341.82,-15.25 328.11,-15.25 315.36,-15.25"/>
<polygon fill="#63b8ff" stroke="#63b8ff" points="354.9,-18.75 364.9,-15.25 354.9,-11.75 354.9,-18.75"/>
</a>
</g>
</g>
</g>
</svg>
