<?xml version="1.0" encoding="UTF-8" standalone="no"?>
<!DOCTYPE svg PUBLIC "-//W3C//DTD SVG 1.1//EN"
 "http://www.w3.org/Graphics/SVG/1.1/DTD/svg11.dtd">
<!-- Generated by graphviz version 12.2.1 (20241206.2353)
 -->
<!-- Title: UserManager::saveUsers Pages: 1 -->
<svg width="303pt" height="101pt"
 viewBox="0.00 0.00 302.50 101.25" xmlns="http://www.w3.org/2000/svg" xmlns:xlink="http://www.w3.org/1999/xlink">
<g id="graph0" class="graph" transform="scale(1 1) rotate(0) translate(4 97.25)">
<title>UserManager::saveUsers</title>
<!-- Node1 -->
<g id="Node000001" class="node">
<title>Node1</title>
<g id="a_Node000001"><a xlink:title="Saves all current user accounts to the webservice.">
<polygon fill="#999999" stroke="#666666" points="294.5,-56.25 166.75,-56.25 166.75,-37 294.5,-37 294.5,-56.25"/>
<text text-anchor="middle" x="230.62" y="-42.75" font-family="Helvetica,sans-Serif" font-size="10.00">UserManager::saveUsers</text>
</a>
</g>
</g>
<!-- Node2 -->
<g id="Node000002" class="node">
<title>Node2</title>
<g id="a_Node000002"><a xlink:href="../../d1/da2/class_user_manager.html#a8860588081ca0e6a7f88fc5b689fb235" target="_top" xlink:title=" ">
<polygon fill="white" stroke="#666666" points="124,-93.25 6.75,-93.25 6.75,-74 124,-74 124,-93.25"/>
<text text-anchor="middle" x="65.38" y="-79.75" font-family="Helvetica,sans-Serif" font-size="10.00">UserManager::addUser</text>
</a>
</g>
</g>
<!-- Node1&#45;&gt;Node2 -->
<g id="edge1_Node000001_Node000002" class="edge">
<title>Node1&#45;&gt;Node2</title>
<g id="a_edge1_Node000001_Node000002"><a xlink:title=" ">
<path fill="none" stroke="#63b8ff" d="M173.89,-59.26C153.35,-63.91 130.36,-69.12 110.93,-73.53"/>
<polygon fill="#63b8ff" stroke="#63b8ff" points="174.56,-62.69 183.54,-57.07 173.01,-55.87 174.56,-62.69"/>
</a>
</g>
</g>
<!-- Node3 -->
<g id="Node000003" class="node">
<title>Node3</title>
<g id="a_Node000003"><a xlink:href="../../d1/da2/class_user_manager.html#a290e8e3f0e751870db0331bb685751c3" target="_top" xlink:title="Deletes a specific user account by username.">
<polygon fill="white" stroke="#666666" points="129.25,-56.25 1.5,-56.25 1.5,-37 129.25,-37 129.25,-56.25"/>
<text text-anchor="middle" x="65.38" y="-42.75" font-family="Helvetica,sans-Serif" font-size="10.00">UserManager::deleteUser</text>
</a>
</g>
</g>
<!-- Node1&#45;&gt;Node3 -->
<g id="edge2_Node000001_Node000003" class="edge">
<title>Node1&#45;&gt;Node3</title>
<g id="a_edge2_Node000001_Node000003"><a xlink:title=" ">
<path fill="none" stroke="#63b8ff" d="M155.02,-46.62C146.52,-46.62 137.92,-46.62 129.59,-46.62"/>
<polygon fill="#63b8ff" stroke="#63b8ff" points="154.99,-50.13 164.99,-46.63 154.99,-43.13 154.99,-50.13"/>
</a>
</g>
</g>
<!-- Node4 -->
<g id="Node000004" class="node">
<title>Node4</title>
<g id="a_Node000004"><a xlink:href="../../d1/da2/class_user_manager.html#a718dde56eb80e6bf05d74550f2dd723a" target="_top" xlink:title=" ">
<polygon fill="white" stroke="#666666" points="130.75,-19.25 0,-19.25 0,0 130.75,0 130.75,-19.25"/>
<text text-anchor="middle" x="65.38" y="-5.75" font-family="Helvetica,sans-Serif" font-size="10.00">UserManager::modifyUser</text>
</a>
</g>
</g>
<!-- Node1&#45;&gt;Node4 -->
<g id="edge3_Node000001_Node000004" class="edge">
<title>Node1&#45;&gt;Node4</title>
<g id="a_edge3_Node000001_Node000004"><a xlink:title=" ">
<path fill="none" stroke="#63b8ff" d="M173.89,-33.99C153.35,-29.34 130.36,-24.13 110.93,-19.72"/>
<polygon fill="#63b8ff" stroke="#63b8ff" points="173.01,-37.38 183.54,-36.18 174.56,-30.56 173.01,-37.38"/>
</a>
</g>
</g>
</g>
</svg>
