<?xml version="1.0" encoding="UTF-8" standalone="no"?>
<!DOCTYPE svg PUBLIC "-//W3C//DTD SVG 1.1//EN"
 "http://www.w3.org/Graphics/SVG/1.1/DTD/svg11.dtd">
<!-- Generated by graphviz version 12.2.1 (20241206.2353)
 -->
<!-- Title: UserManager::statusMessage Pages: 1 -->
<svg width="545pt" height="236pt"
 viewBox="0.00 0.00 545.00 235.88" xmlns="http://www.w3.org/2000/svg" xmlns:xlink="http://www.w3.org/1999/xlink">
<g id="graph0" class="graph" transform="scale(1 1) rotate(0) translate(4 231.88)">
<title>UserManager::statusMessage</title>
<!-- Node1 -->
<g id="Node000001" class="node">
<title>Node1</title>
<g id="a_Node000001"><a xlink:title="Emitted to provide general status updates or error messages.">
<polygon fill="#999999" stroke="#666666" points="537,-120.25 389.75,-120.25 389.75,-101 537,-101 537,-120.25"/>
<text text-anchor="middle" x="463.38" y="-106.75" font-family="Helvetica,sans-Serif" font-size="10.00">UserManager::statusMessage</text>
</a>
</g>
</g>
<!-- Node2 -->
<g id="Node000002" class="node">
<title>Node2</title>
<g id="a_Node000002"><a xlink:href="../../d1/da2/class_user_manager.html#a93243af98a0b172c5b6ff685f8d196a0" target="_top" xlink:title="Slot called when a DELETE request for user data fails.">
<polygon fill="white" stroke="#666666" points="332.75,-227.88 196,-227.88 196,-197.38 332.75,-197.38 332.75,-227.88"/>
<text text-anchor="start" x="204" y="-214.38" font-family="Helvetica,sans-Serif" font-size="10.00">UserManager::onBadDelete</text>
<text text-anchor="middle" x="264.38" y="-203.12" font-family="Helvetica,sans-Serif" font-size="10.00">Response</text>
</a>
</g>
</g>
<!-- Node1&#45;&gt;Node2 -->
<g id="edge1_Node000001_Node000002" class="edge">
<title>Node1&#45;&gt;Node2</title>
<g id="a_edge1_Node000001_Node000002"><a xlink:title=" ">
<path fill="none" stroke="#63b8ff" d="M442.99,-127.86C422.26,-145.47 387.75,-172.45 353.75,-188.62 347.15,-191.77 340.06,-194.55 332.88,-197.01"/>
<polygon fill="#63b8ff" stroke="#63b8ff" points="445.08,-130.69 450.36,-121.5 440.5,-125.39 445.08,-130.69"/>
</a>
</g>
</g>
<!-- Node4 -->
<g id="Node000004" class="node">
<title>Node4</title>
<g id="a_Node000004"><a xlink:href="../../d1/da2/class_user_manager.html#acac58c863dc2d027a297c28725d91c93" target="_top" xlink:title="Slot called when a GET request for user data fails.">
<polygon fill="white" stroke="#666666" points="348.5,-179.25 180.25,-179.25 180.25,-160 348.5,-160 348.5,-179.25"/>
<text text-anchor="middle" x="264.38" y="-165.75" font-family="Helvetica,sans-Serif" font-size="10.00">UserManager::onBadGetResponse</text>
</a>
</g>
</g>
<!-- Node1&#45;&gt;Node4 -->
<g id="edge3_Node000001_Node000004" class="edge">
<title>Node1&#45;&gt;Node4</title>
<g id="a_edge3_Node000001_Node000004"><a xlink:title=" ">
<path fill="none" stroke="#63b8ff" d="M428.6,-124.97C407.39,-133.58 379.31,-144.25 353.75,-151.62 343.52,-154.58 332.49,-157.23 321.8,-159.54"/>
<polygon fill="#63b8ff" stroke="#63b8ff" points="429.69,-128.31 437.61,-121.27 427.03,-121.83 429.69,-128.31"/>
</a>
</g>
</g>
<!-- Node5 -->
<g id="Node000005" class="node">
<title>Node5</title>
<g id="a_Node000005"><a xlink:href="../../d1/da2/class_user_manager.html#adaa13ba1ac6af2a667cde728a593ad83" target="_top" xlink:title="Slot called when a POST request to save user data fails.">
<polygon fill="white" stroke="#666666" points="350.75,-142.25 178,-142.25 178,-123 350.75,-123 350.75,-142.25"/>
<text text-anchor="middle" x="264.38" y="-128.75" font-family="Helvetica,sans-Serif" font-size="10.00">UserManager::onBadPostResponse</text>
</a>
</g>
</g>
<!-- Node1&#45;&gt;Node5 -->
<g id="edge5_Node000001_Node000005" class="edge">
<title>Node1&#45;&gt;Node5</title>
<g id="a_edge5_Node000001_Node000005"><a xlink:title=" ">
<path fill="none" stroke="#63b8ff" d="M378.05,-120.04C369.08,-121.04 359.96,-122.06 350.98,-123.07"/>
<polygon fill="#63b8ff" stroke="#63b8ff" points="378.25,-123.54 387.8,-118.95 377.47,-116.59 378.25,-123.54"/>
</a>
</g>
</g>
<!-- Node6 -->
<g id="Node000006" class="node">
<title>Node6</title>
<g id="a_Node000006"><a xlink:href="../../d1/da2/class_user_manager.html#aaae30b6ea45379ce5ecba8958d1a0a6f" target="_top" xlink:title="Slot called when a DELETE request for user data succeeds.">
<polygon fill="white" stroke="#666666" points="335.75,-104.88 193,-104.88 193,-74.38 335.75,-74.38 335.75,-104.88"/>
<text text-anchor="start" x="201" y="-91.38" font-family="Helvetica,sans-Serif" font-size="10.00">UserManager::onGoodDelete</text>
<text text-anchor="middle" x="264.38" y="-80.12" font-family="Helvetica,sans-Serif" font-size="10.00">Response</text>
</a>
</g>
</g>
<!-- Node1&#45;&gt;Node6 -->
<g id="edge7_Node000001_Node000006" class="edge">
<title>Node1&#45;&gt;Node6</title>
<g id="a_edge7_Node000001_Node000006"><a xlink:title=" ">
<path fill="none" stroke="#63b8ff" d="M378.15,-101.65C364.12,-100.15 349.69,-98.61 336.04,-97.16"/>
<polygon fill="#63b8ff" stroke="#63b8ff" points="377.48,-105.09 387.79,-102.67 378.22,-98.13 377.48,-105.09"/>
</a>
</g>
</g>
<!-- Node7 -->
<g id="Node000007" class="node">
<title>Node7</title>
<g id="a_Node000007"><a xlink:href="../../d1/da2/class_user_manager.html#a3b3f078e58e742fd67185a8438d06fd4" target="_top" xlink:title="Slot called when a GET request for user data succeeds.">
<polygon fill="white" stroke="#666666" points="351.5,-56.25 177.25,-56.25 177.25,-37 351.5,-37 351.5,-56.25"/>
<text text-anchor="middle" x="264.38" y="-42.75" font-family="Helvetica,sans-Serif" font-size="10.00">UserManager::onGoodGetResponse</text>
</a>
</g>
</g>
<!-- Node1&#45;&gt;Node7 -->
<g id="edge9_Node000001_Node000007" class="edge">
<title>Node1&#45;&gt;Node7</title>
<g id="a_edge9_Node000001_Node000007"><a xlink:title=" ">
<path fill="none" stroke="#63b8ff" d="M431.14,-95.91C409.72,-86.27 380.47,-73.96 353.75,-65.62 342.96,-62.26 331.25,-59.29 319.99,-56.75"/>
<polygon fill="#63b8ff" stroke="#63b8ff" points="429.64,-99.07 440.19,-100.05 432.54,-92.71 429.64,-99.07"/>
</a>
</g>
</g>
<!-- Node8 -->
<g id="Node000008" class="node">
<title>Node8</title>
<g id="a_Node000008"><a xlink:href="../../d1/da2/class_user_manager.html#a6c96002eef3fbb7981f569d43e163a64" target="_top" xlink:title="Slot called when a POST request to save user data succeeds.">
<polygon fill="white" stroke="#666666" points="353.75,-19.25 175,-19.25 175,0 353.75,0 353.75,-19.25"/>
<text text-anchor="middle" x="264.38" y="-5.75" font-family="Helvetica,sans-Serif" font-size="10.00">UserManager::onGoodPostResponse</text>
</a>
</g>
</g>
<!-- Node1&#45;&gt;Node8 -->
<g id="edge11_Node000001_Node000008" class="edge">
<title>Node1&#45;&gt;Node8</title>
<g id="a_edge11_Node000001_Node000008"><a xlink:title=" ">
<path fill="none" stroke="#63b8ff" d="M444.38,-92.68C424.12,-73.54 389.35,-43.81 353.75,-27.62 346.77,-24.45 339.22,-21.83 331.58,-19.67"/>
<polygon fill="#63b8ff" stroke="#63b8ff" points="441.91,-95.16 451.53,-99.59 446.77,-90.12 441.91,-95.16"/>
</a>
</g>
</g>
<!-- Node3 -->
<g id="Node000003" class="node">
<title>Node3</title>
<g id="a_Node000003"><a xlink:href="../../d1/da2/class_user_manager.html#aefc22181e82f255ad68cb91d98373077" target="_top" xlink:title="Constructor. Initializes ApiClient connections and loads users.">
<polygon fill="white" stroke="#666666" points="139,-120.25 0,-120.25 0,-101 139,-101 139,-120.25"/>
<text text-anchor="middle" x="69.5" y="-106.75" font-family="Helvetica,sans-Serif" font-size="10.00">UserManager::UserManager</text>
</a>
</g>
</g>
<!-- Node2&#45;&gt;Node3 -->
<g id="edge2_Node000002_Node000003" class="edge">
<title>Node2&#45;&gt;Node3</title>
<g id="a_edge2_Node000002_Node000003"><a xlink:title=" ">
<path fill="none" stroke="#63b8ff" d="M185.18,-193.15C181.7,-191.73 178.29,-190.23 175,-188.62 136.94,-170.09 98.72,-137.01 80.89,-120.53"/>
<polygon fill="#63b8ff" stroke="#63b8ff" points="183.8,-196.37 194.39,-196.6 186.26,-189.82 183.8,-196.37"/>
</a>
</g>
</g>
<!-- Node4&#45;&gt;Node3 -->
<g id="edge4_Node000004_Node000003" class="edge">
<title>Node4&#45;&gt;Node3</title>
<g id="a_edge4_Node000004_Node000003"><a xlink:title=" ">
<path fill="none" stroke="#63b8ff" d="M195.51,-157.05C188.54,-155.39 181.6,-153.58 175,-151.62 146.03,-143.06 113.83,-129.84 92.94,-120.74"/>
<polygon fill="#63b8ff" stroke="#63b8ff" points="194.44,-160.4 204.97,-159.21 195.99,-153.57 194.44,-160.4"/>
</a>
</g>
</g>
<!-- Node5&#45;&gt;Node3 -->
<g id="edge6_Node000005_Node000003" class="edge">
<title>Node5&#45;&gt;Node3</title>
<g id="a_edge6_Node000005_Node000003"><a xlink:title=" ">
<path fill="none" stroke="#63b8ff" d="M166.23,-121.54C157.2,-120.51 148.17,-119.48 139.47,-118.49"/>
<polygon fill="#63b8ff" stroke="#63b8ff" points="165.82,-125.02 176.15,-122.68 166.61,-118.07 165.82,-125.02"/>
</a>
</g>
</g>
<!-- Node6&#45;&gt;Node3 -->
<g id="edge8_Node000006_Node000003" class="edge">
<title>Node6&#45;&gt;Node3</title>
<g id="a_edge8_Node000006_Node000003"><a xlink:title=" ">
<path fill="none" stroke="#63b8ff" d="M181.49,-98.54C167.43,-100.07 152.96,-101.65 139.29,-103.14"/>
<polygon fill="#63b8ff" stroke="#63b8ff" points="181.58,-102.05 191.15,-97.49 180.83,-95.09 181.58,-102.05"/>
</a>
</g>
</g>
<!-- Node7&#45;&gt;Node3 -->
<g id="edge10_Node000007_Node000003" class="edge">
<title>Node7&#45;&gt;Node3</title>
<g id="a_edge10_Node000007_Node000003"><a xlink:title=" ">
<path fill="none" stroke="#63b8ff" d="M197.23,-59.37C189.67,-61.26 182.13,-63.35 175,-65.62 144.71,-75.3 111.18,-90.61 90.48,-100.63"/>
<polygon fill="#63b8ff" stroke="#63b8ff" points="197.86,-62.81 206.78,-57.09 196.24,-56 197.86,-62.81"/>
</a>
</g>
</g>
<!-- Node8&#45;&gt;Node3 -->
<g id="edge12_Node000008_Node000003" class="edge">
<title>Node8&#45;&gt;Node3</title>
<g id="a_edge12_Node000008_Node000003"><a xlink:title=" ">
<path fill="none" stroke="#63b8ff" d="M185.92,-23.15C182.17,-24.5 178.51,-25.99 175,-27.62 135.1,-46.22 96.86,-82.93 79.8,-100.63"/>
<polygon fill="#63b8ff" stroke="#63b8ff" points="186.77,-26.55 195.21,-20.14 184.62,-19.89 186.77,-26.55"/>
</a>
</g>
</g>
</g>
</svg>
