<?xml version="1.0" encoding="UTF-8" standalone="no"?>
<!DOCTYPE svg PUBLIC "-//W3C//DTD SVG 1.1//EN"
 "http://www.w3.org/Graphics/SVG/1.1/DTD/svg11.dtd">
<!-- Generated by graphviz version 12.2.1 (20241206.2353)
 -->
<!-- Title: /Users/gautam/Local/Forge/Team&#45;Alphawolves/2D&#45;Graphics&#45;Modeler/src/backend/RenderAreaManager.h Pages: 1 -->
<svg width="1854pt" height="337pt"
 viewBox="0.00 0.00 1854.00 337.25" xmlns="http://www.w3.org/2000/svg" xmlns:xlink="http://www.w3.org/1999/xlink">
<g id="graph0" class="graph" transform="scale(1 1) rotate(0) translate(4 333.25)">
<title>/Users/gautam/Local/Forge/Team&#45;Alphawolves/2D&#45;Graphics&#45;Modeler/src/backend/RenderAreaManager.h</title>
<!-- Node1 -->
<g id="Node000001" class="node">
<title>Node1</title>
<g id="a_Node000001"><a xlink:title=" ">
<polygon fill="#999999" stroke="#666666" points="560.75,-329.25 405.25,-329.25 405.25,-276.25 560.75,-276.25 560.75,-329.25"/>
<text text-anchor="start" x="413.25" y="-315.75" font-family="Helvetica,sans-Serif" font-size="10.00">/Users/gautam/Local</text>
<text text-anchor="start" x="413.25" y="-304.5" font-family="Helvetica,sans-Serif" font-size="10.00">/Forge/Team&#45;Alphawolves</text>
<text text-anchor="start" x="413.25" y="-293.25" font-family="Helvetica,sans-Serif" font-size="10.00">/2D&#45;Graphics&#45;Modeler/src</text>
<text text-anchor="middle" x="483" y="-282" font-family="Helvetica,sans-Serif" font-size="10.00">/backend/RenderAreaManager.h</text>
</a>
</g>
</g>
<!-- Node2 -->
<g id="Node000002" class="node">
<title>Node2</title>
<g id="a_Node000002"><a xlink:title=" ">
<polygon fill="#e0e0e0" stroke="#999999" points="80,-185 28,-185 28,-165.75 80,-165.75 80,-185"/>
<text text-anchor="middle" x="54" y="-171.5" font-family="Helvetica,sans-Serif" font-size="10.00">QObject</text>
</a>
</g>
</g>
<!-- Node1&#45;&gt;Node2 -->
<g id="edge1_Node000001_Node000002" class="edge">
<title>Node1&#45;&gt;Node2</title>
<g id="a_edge1_Node000001_Node000002"><a xlink:title=" ">
<path fill="none" stroke="#63b8ff" d="M404.81,-278.9C311.87,-251.74 160.62,-207.53 91.09,-187.22"/>
<polygon fill="#63b8ff" stroke="#63b8ff" points="92.3,-183.92 81.72,-184.48 90.34,-190.64 92.3,-183.92"/>
</a>
</g>
</g>
<!-- Node3 -->
<g id="Node000003" class="node">
<title>Node3</title>
<g id="a_Node000003"><a xlink:title=" ">
<polygon fill="#e0e0e0" stroke="#999999" points="679.5,-129.75 630.5,-129.75 630.5,-110.5 679.5,-110.5 679.5,-129.75"/>
<text text-anchor="middle" x="655" y="-116.25" font-family="Helvetica,sans-Serif" font-size="10.00">QString</text>
</a>
</g>
</g>
<!-- Node1&#45;&gt;Node3 -->
<g id="edge2_Node000001_Node000003" class="edge">
<title>Node1&#45;&gt;Node3</title>
<g id="a_edge2_Node000001_Node000003"><a xlink:title=" ">
<path fill="none" stroke="#63b8ff" d="M520.29,-275.88C549.86,-254.06 590.9,-220.75 620,-185 631.11,-171.35 640.49,-153.65 646.73,-140.35"/>
<polygon fill="#63b8ff" stroke="#63b8ff" points="649.85,-141.94 650.76,-131.38 643.47,-139.07 649.85,-141.94"/>
</a>
</g>
</g>
<!-- Node4 -->
<g id="Node000004" class="node">
<title>Node4</title>
<g id="a_Node000004"><a xlink:title=" ">
<polygon fill="#e0e0e0" stroke="#999999" points="365,-240.25 313,-240.25 313,-221 365,-221 365,-240.25"/>
<text text-anchor="middle" x="339" y="-226.75" font-family="Helvetica,sans-Serif" font-size="10.00">QDebug</text>
</a>
</g>
</g>
<!-- Node1&#45;&gt;Node4 -->
<g id="edge3_Node000001_Node000004" class="edge">
<title>Node1&#45;&gt;Node4</title>
<g id="a_edge3_Node000001_Node000004"><a xlink:title=" ">
<path fill="none" stroke="#63b8ff" d="M429.79,-275.84C408.82,-265.63 385.57,-254.3 367.85,-245.67"/>
<polygon fill="#63b8ff" stroke="#63b8ff" points="369.48,-242.58 358.96,-241.34 366.42,-248.87 369.48,-242.58"/>
</a>
</g>
</g>
<!-- Node5 -->
<g id="Node000005" class="node">
<title>Node5</title>
<g id="a_Node000005"><a xlink:title=" ">
<polygon fill="#e0e0e0" stroke="#999999" points="432.5,-240.25 383.5,-240.25 383.5,-221 432.5,-221 432.5,-240.25"/>
<text text-anchor="middle" x="408" y="-226.75" font-family="Helvetica,sans-Serif" font-size="10.00">QBrush</text>
</a>
</g>
</g>
<!-- Node1&#45;&gt;Node5 -->
<g id="edge4_Node000001_Node000005" class="edge">
<title>Node1&#45;&gt;Node5</title>
<g id="a_edge4_Node000001_Node000005"><a xlink:title=" ">
<path fill="none" stroke="#63b8ff" d="M455.5,-276.04C445.69,-266.87 434.9,-256.78 426.09,-248.54"/>
<polygon fill="#63b8ff" stroke="#63b8ff" points="428.55,-246.04 418.85,-241.77 423.76,-251.16 428.55,-246.04"/>
</a>
</g>
</g>
<!-- Node6 -->
<g id="Node000006" class="node">
<title>Node6</title>
<g id="a_Node000006"><a xlink:title=" ">
<polygon fill="#e0e0e0" stroke="#999999" points="529.38,-19.25 488.62,-19.25 488.62,0 529.38,0 529.38,-19.25"/>
<text text-anchor="middle" x="509" y="-5.75" font-family="Helvetica,sans-Serif" font-size="10.00">QPen</text>
</a>
</g>
</g>
<!-- Node1&#45;&gt;Node6 -->
<g id="edge5_Node000001_Node000006" class="edge">
<title>Node1&#45;&gt;Node6</title>
<g id="a_edge5_Node000001_Node000006"><a xlink:title=" ">
<path fill="none" stroke="#63b8ff" d="M404.86,-297.57C268.16,-288.1 0,-259 0,-176.38 0,-176.38 0,-176.38 0,-119.12 0,-21.15 365.29,-11.31 476.96,-10.59"/>
<polygon fill="#63b8ff" stroke="#63b8ff" points="476.92,-14.09 486.9,-10.55 476.89,-7.09 476.92,-14.09"/>
</a>
</g>
</g>
<!-- Node7 -->
<g id="Node000007" class="node">
<title>Node7</title>
<g id="a_Node000007"><a xlink:href="../../d3/dc3/_api_client_8h.html" target="_top" xlink:title="Implements the ApiClient class that makes API requests to the Crow Webservice.">
<polygon fill="white" stroke="#666666" points="515,-240.25 451,-240.25 451,-221 515,-221 515,-240.25"/>
<text text-anchor="middle" x="483" y="-226.75" font-family="Helvetica,sans-Serif" font-size="10.00">ApiClient.h</text>
</a>
</g>
</g>
<!-- Node1&#45;&gt;Node7 -->
<g id="edge6_Node000001_Node000007" class="edge">
<title>Node1&#45;&gt;Node7</title>
<g id="a_edge6_Node000001_Node000007"><a xlink:title=" ">
<path fill="none" stroke="#63b8ff" d="M483,-276.04C483,-268.12 483,-259.52 483,-252.02"/>
<polygon fill="#63b8ff" stroke="#63b8ff" points="486.5,-252.25 483,-242.25 479.5,-252.25 486.5,-252.25"/>
</a>
</g>
</g>
<!-- Node13 -->
<g id="Node000013" class="node">
<title>Node13</title>
<g id="a_Node000013"><a xlink:href="../../de/d40/_parser_8h.html" target="_top" xlink:title=" ">
<polygon fill="white" stroke="#666666" points="1081,-240.25 1029,-240.25 1029,-221 1081,-221 1081,-240.25"/>
<text text-anchor="middle" x="1055" y="-226.75" font-family="Helvetica,sans-Serif" font-size="10.00">Parser.h</text>
</a>
</g>
</g>
<!-- Node1&#45;&gt;Node13 -->
<g id="edge14_Node000001_Node000013" class="edge">
<title>Node1&#45;&gt;Node13</title>
<g id="a_edge14_Node000001_Node000013"><a xlink:title=" ">
<path fill="none" stroke="#63b8ff" d="M561.04,-292.18C685.66,-276.91 924.95,-247.57 1017.33,-236.24"/>
<polygon fill="#63b8ff" stroke="#63b8ff" points="1017.6,-239.74 1027.1,-235.05 1016.75,-232.79 1017.6,-239.74"/>
</a>
</g>
</g>
<!-- Node21 -->
<g id="Node000021" class="node">
<title>Node21</title>
<g id="a_Node000021"><a xlink:href="../../d6/d68/vector_8h.html" target="_top" xlink:title=" ">
<polygon fill="white" stroke="#666666" points="1846,-19.25 1752,-19.25 1752,0 1846,0 1846,-19.25"/>
<text text-anchor="middle" x="1799" y="-5.75" font-family="Helvetica,sans-Serif" font-size="10.00">../objects/vector.h</text>
</a>
</g>
</g>
<!-- Node1&#45;&gt;Node21 -->
<g id="edge63_Node000001_Node000021" class="edge">
<title>Node1&#45;&gt;Node21</title>
<g id="a_edge63_Node000001_Node000021"><a xlink:title=" ">
<path fill="none" stroke="#63b8ff" d="M560.89,-298.44C843.6,-285.91 1799,-238.95 1799,-176.38 1799,-176.38 1799,-176.38 1799,-119.12 1799,-88.41 1799,-52.8 1799,-30.99"/>
<polygon fill="#63b8ff" stroke="#63b8ff" points="1802.5,-31.14 1799,-21.14 1795.5,-31.14 1802.5,-31.14"/>
</a>
</g>
</g>
<!-- Node22 -->
<g id="Node000022" class="node">
<title>Node22</title>
<g id="a_Node000022"><a xlink:href="../../dc/d12/all__shapes_8h.html" target="_top" xlink:title=" ">
<polygon fill="white" stroke="#666666" points="1473.12,-185 1358.88,-185 1358.88,-165.75 1473.12,-165.75 1473.12,-185"/>
<text text-anchor="middle" x="1416" y="-171.5" font-family="Helvetica,sans-Serif" font-size="10.00">../objects/all_shapes.h</text>
</a>
</g>
</g>
<!-- Node1&#45;&gt;Node22 -->
<g id="edge62_Node000001_Node000022" class="edge">
<title>Node1&#45;&gt;Node22</title>
<g id="a_edge62_Node000001_Node000022"><a xlink:title=" ">
<path fill="none" stroke="#63b8ff" d="M560.9,-296.18C676.69,-287.37 900.88,-268.3 1090,-240.25 1187.81,-225.74 1300.84,-202.02 1364.82,-187.93"/>
<polygon fill="#63b8ff" stroke="#63b8ff" points="1365.32,-191.4 1374.33,-185.82 1363.81,-184.57 1365.32,-191.4"/>
</a>
</g>
</g>
<!-- Node7&#45;&gt;Node2 -->
<g id="edge7_Node000007_Node000002" class="edge">
<title>Node7&#45;&gt;Node2</title>
<g id="a_edge7_Node000007_Node000002"><a xlink:title=" ">
<path fill="none" stroke="#63b8ff" d="M450.96,-222.7C447.6,-222.08 444.24,-221.5 441,-221 289.2,-197.71 245.96,-211.21 91.6,-185.21"/>
<polygon fill="#63b8ff" stroke="#63b8ff" points="92.23,-181.77 81.78,-183.53 91.05,-188.67 92.23,-181.77"/>
</a>
</g>
</g>
<!-- Node7&#45;&gt;Node3 -->
<g id="edge13_Node000007_Node000003" class="edge">
<title>Node7&#45;&gt;Node3</title>
<g id="a_edge13_Node000007_Node000003"><a xlink:title=" ">
<path fill="none" stroke="#63b8ff" d="M515.23,-220.91C538.66,-213.63 570.43,-201.73 595,-185 613.6,-172.34 630.73,-152.99 641.88,-138.91"/>
<polygon fill="#63b8ff" stroke="#63b8ff" points="644.37,-141.41 647.67,-131.35 638.81,-137.16 644.37,-141.41"/>
</a>
</g>
</g>
<!-- Node8 -->
<g id="Node000008" class="node">
<title>Node8</title>
<g id="a_Node000008"><a xlink:title=" ">
<polygon fill="#e0e0e0" stroke="#999999" points="228.38,-185 97.62,-185 97.62,-165.75 228.38,-165.75 228.38,-185"/>
<text text-anchor="middle" x="163" y="-171.5" font-family="Helvetica,sans-Serif" font-size="10.00">QNetworkAccessManager</text>
</a>
</g>
</g>
<!-- Node7&#45;&gt;Node8 -->
<g id="edge8_Node000007_Node000008" class="edge">
<title>Node7&#45;&gt;Node8</title>
<g id="a_edge8_Node000007_Node000008"><a xlink:title=" ">
<path fill="none" stroke="#63b8ff" d="M450.92,-222.89C447.58,-222.23 444.22,-221.59 441,-221 371.61,-208.31 292.11,-195.75 235.95,-187.2"/>
<polygon fill="#63b8ff" stroke="#63b8ff" points="236.6,-183.76 226.19,-185.72 235.55,-190.68 236.6,-183.76"/>
</a>
</g>
</g>
<!-- Node9 -->
<g id="Node000009" class="node">
<title>Node9</title>
<g id="a_Node000009"><a xlink:title=" ">
<polygon fill="#e0e0e0" stroke="#999999" points="331.88,-185 246.12,-185 246.12,-165.75 331.88,-165.75 331.88,-185"/>
<text text-anchor="middle" x="289" y="-171.5" font-family="Helvetica,sans-Serif" font-size="10.00">QNetworkReply</text>
</a>
</g>
</g>
<!-- Node7&#45;&gt;Node9 -->
<g id="edge9_Node000007_Node000009" class="edge">
<title>Node7&#45;&gt;Node9</title>
<g id="a_edge9_Node000007_Node000009"><a xlink:title=" ">
<path fill="none" stroke="#63b8ff" d="M450.53,-220.71C418.41,-211.9 369.01,-198.34 333.3,-188.54"/>
<polygon fill="#63b8ff" stroke="#63b8ff" points="334.26,-185.17 323.69,-185.9 332.4,-191.92 334.26,-185.17"/>
</a>
</g>
</g>
<!-- Node10 -->
<g id="Node000010" class="node">
<title>Node10</title>
<g id="a_Node000010"><a xlink:title=" ">
<polygon fill="#e0e0e0" stroke="#999999" points="446.5,-185 349.5,-185 349.5,-165.75 446.5,-165.75 446.5,-185"/>
<text text-anchor="middle" x="398" y="-171.5" font-family="Helvetica,sans-Serif" font-size="10.00">QNetworkRequest</text>
</a>
</g>
</g>
<!-- Node7&#45;&gt;Node10 -->
<g id="edge10_Node000007_Node000010" class="edge">
<title>Node7&#45;&gt;Node10</title>
<g id="a_edge10_Node000007_Node000010"><a xlink:title=" ">
<path fill="none" stroke="#63b8ff" d="M468.58,-220.59C455.88,-212.64 437.13,-200.89 422.14,-191.5"/>
<polygon fill="#63b8ff" stroke="#63b8ff" points="424.1,-188.6 413.77,-186.26 420.39,-194.53 424.1,-188.6"/>
</a>
</g>
</g>
<!-- Node11 -->
<g id="Node000011" class="node">
<title>Node11</title>
<g id="a_Node000011"><a xlink:title=" ">
<polygon fill="#e0e0e0" stroke="#999999" points="501.12,-185 464.88,-185 464.88,-165.75 501.12,-165.75 501.12,-185"/>
<text text-anchor="middle" x="483" y="-171.5" font-family="Helvetica,sans-Serif" font-size="10.00">QUrl</text>
</a>
</g>
</g>
<!-- Node7&#45;&gt;Node11 -->
<g id="edge11_Node000007_Node000011" class="edge">
<title>Node7&#45;&gt;Node11</title>
<g id="a_edge11_Node000007_Node000011"><a xlink:title=" ">
<path fill="none" stroke="#63b8ff" d="M483,-220.83C483,-214.32 483,-205.17 483,-196.87"/>
<polygon fill="#63b8ff" stroke="#63b8ff" points="486.5,-196.87 483,-186.87 479.5,-196.87 486.5,-196.87"/>
</a>
</g>
</g>
<!-- Node12 -->
<g id="Node000012" class="node">
<title>Node12</title>
<g id="a_Node000012"><a xlink:title=" ">
<polygon fill="#e0e0e0" stroke="#999999" points="586.5,-185 519.5,-185 519.5,-165.75 586.5,-165.75 586.5,-185"/>
<text text-anchor="middle" x="553" y="-171.5" font-family="Helvetica,sans-Serif" font-size="10.00">QByteArray</text>
</a>
</g>
</g>
<!-- Node7&#45;&gt;Node12 -->
<g id="edge12_Node000007_Node000012" class="edge">
<title>Node7&#45;&gt;Node12</title>
<g id="a_edge12_Node000007_Node000012"><a xlink:title=" ">
<path fill="none" stroke="#63b8ff" d="M494.87,-220.59C505.09,-212.82 520.07,-201.42 532.26,-192.15"/>
<polygon fill="#63b8ff" stroke="#63b8ff" points="534.26,-195.03 540.1,-186.19 530.02,-189.46 534.26,-195.03"/>
</a>
</g>
</g>
<!-- Node14 -->
<g id="Node000014" class="node">
<title>Node14</title>
<g id="a_Node000014"><a xlink:title=" ">
<polygon fill="#e0e0e0" stroke="#999999" points="1109.75,-185 1056.25,-185 1056.25,-165.75 1109.75,-165.75 1109.75,-185"/>
<text text-anchor="middle" x="1083" y="-171.5" font-family="Helvetica,sans-Serif" font-size="10.00">iostream</text>
</a>
</g>
</g>
<!-- Node13&#45;&gt;Node14 -->
<g id="edge15_Node000013_Node000014" class="edge">
<title>Node13&#45;&gt;Node14</title>
<g id="a_edge15_Node000013_Node000014"><a xlink:title=" ">
<path fill="none" stroke="#63b8ff" d="M1059.62,-220.83C1063.25,-213.94 1068.43,-204.09 1072.99,-195.41"/>
<polygon fill="#63b8ff" stroke="#63b8ff" points="1076.02,-197.18 1077.57,-186.7 1069.82,-193.92 1076.02,-197.18"/>
</a>
</g>
</g>
<!-- Node15 -->
<g id="Node000015" class="node">
<title>Node15</title>
<g id="a_Node000015"><a xlink:title=" ">
<polygon fill="#e0e0e0" stroke="#999999" points="1211.62,-185 1166.38,-185 1166.38,-165.75 1211.62,-165.75 1211.62,-185"/>
<text text-anchor="middle" x="1189" y="-171.5" font-family="Helvetica,sans-Serif" font-size="10.00">cctype</text>
</a>
</g>
</g>
<!-- Node13&#45;&gt;Node15 -->
<g id="edge16_Node000013_Node000015" class="edge">
<title>Node13&#45;&gt;Node15</title>
<g id="a_edge16_Node000013_Node000015"><a xlink:title=" ">
<path fill="none" stroke="#63b8ff" d="M1077.73,-220.59C1099.1,-212.1 1131.34,-199.29 1155.63,-189.64"/>
<polygon fill="#63b8ff" stroke="#63b8ff" points="1156.75,-192.96 1164.75,-186.01 1154.16,-186.45 1156.75,-192.96"/>
</a>
</g>
</g>
<!-- Node16 -->
<g id="Node000016" class="node">
<title>Node16</title>
<g id="a_Node000016"><a xlink:title=" ">
<polygon fill="#e0e0e0" stroke="#999999" points="1282,-185 1230,-185 1230,-165.75 1282,-165.75 1282,-185"/>
<text text-anchor="middle" x="1256" y="-171.5" font-family="Helvetica,sans-Serif" font-size="10.00">QVector</text>
</a>
</g>
</g>
<!-- Node13&#45;&gt;Node16 -->
<g id="edge17_Node000013_Node000016" class="edge">
<title>Node13&#45;&gt;Node16</title>
<g id="a_edge17_Node000013_Node000016"><a xlink:title=" ">
<path fill="none" stroke="#63b8ff" d="M1081.28,-222.66C1116.41,-213.36 1178.9,-196.8 1218.84,-186.22"/>
<polygon fill="#63b8ff" stroke="#63b8ff" points="1219.48,-189.67 1228.25,-183.73 1217.69,-182.9 1219.48,-189.67"/>
</a>
</g>
</g>
<!-- Node17 -->
<g id="Node000017" class="node">
<title>Node17</title>
<g id="a_Node000017"><a xlink:title=" ">
<polygon fill="#e0e0e0" stroke="#999999" points="770.75,-185 681.25,-185 681.25,-165.75 770.75,-165.75 770.75,-185"/>
<text text-anchor="middle" x="726" y="-171.5" font-family="Helvetica,sans-Serif" font-size="10.00">QJsonDocument</text>
</a>
</g>
</g>
<!-- Node13&#45;&gt;Node17 -->
<g id="edge18_Node000013_Node000017" class="edge">
<title>Node13&#45;&gt;Node17</title>
<g id="a_edge18_Node000013_Node000017"><a xlink:title=" ">
<path fill="none" stroke="#63b8ff" d="M1028.74,-225.39C981.5,-217.76 878.75,-201.18 782.23,-185.52"/>
<polygon fill="#63b8ff" stroke="#63b8ff" points="783.03,-182.11 772.6,-183.96 781.91,-189.02 783.03,-182.11"/>
</a>
</g>
</g>
<!-- Node18 -->
<g id="Node000018" class="node">
<title>Node18</title>
<g id="a_Node000018"><a xlink:title=" ">
<polygon fill="#e0e0e0" stroke="#999999" points="836.88,-129.75 769.12,-129.75 769.12,-110.5 836.88,-110.5 836.88,-129.75"/>
<text text-anchor="middle" x="803" y="-116.25" font-family="Helvetica,sans-Serif" font-size="10.00">QJsonArray</text>
</a>
</g>
</g>
<!-- Node13&#45;&gt;Node18 -->
<g id="edge19_Node000013_Node000018" class="edge">
<title>Node13&#45;&gt;Node18</title>
<g id="a_edge19_Node000013_Node000018"><a xlink:title=" ">
<path fill="none" stroke="#63b8ff" d="M1028.75,-222.81C1000.56,-215.11 954.73,-201.48 917,-185 899.58,-177.39 856.11,-152.37 828.16,-136"/>
<polygon fill="#63b8ff" stroke="#63b8ff" points="830,-133.01 819.61,-130.96 826.45,-139.05 830,-133.01"/>
</a>
</g>
</g>
<!-- Node19 -->
<g id="Node000019" class="node">
<title>Node19</title>
<g id="a_Node000019"><a xlink:title=" ">
<polygon fill="#e0e0e0" stroke="#999999" points="1098.5,-129.75 1025.5,-129.75 1025.5,-110.5 1098.5,-110.5 1098.5,-129.75"/>
<text text-anchor="middle" x="1062" y="-116.25" font-family="Helvetica,sans-Serif" font-size="10.00">QJsonObject</text>
</a>
</g>
</g>
<!-- Node13&#45;&gt;Node19 -->
<g id="edge20_Node000013_Node000019" class="edge">
<title>Node13&#45;&gt;Node19</title>
<g id="a_edge20_Node000013_Node000019"><a xlink:title=" ">
<path fill="none" stroke="#63b8ff" d="M1052.33,-220.92C1048.91,-208.59 1043.79,-185.38 1047,-165.75 1048.37,-157.39 1051.09,-148.48 1053.84,-140.84"/>
<polygon fill="#63b8ff" stroke="#63b8ff" points="1057.09,-142.13 1057.46,-131.54 1050.57,-139.6 1057.09,-142.13"/>
</a>
</g>
</g>
<!-- Node20 -->
<g id="Node000020" class="node">
<title>Node20</title>
<g id="a_Node000020"><a xlink:title=" ">
<polygon fill="#e0e0e0" stroke="#999999" points="1085,-19.25 1045,-19.25 1045,0 1085,0 1085,-19.25"/>
<text text-anchor="middle" x="1065" y="-5.75" font-family="Helvetica,sans-Serif" font-size="10.00">string</text>
</a>
</g>
</g>
<!-- Node13&#45;&gt;Node20 -->
<g id="edge21_Node000013_Node000020" class="edge">
<title>Node13&#45;&gt;Node20</title>
<g id="a_edge21_Node000013_Node000020"><a xlink:title=" ">
<path fill="none" stroke="#63b8ff" d="M1077.43,-220.64C1092.17,-213.41 1110.29,-201.69 1119,-185 1147.04,-131.27 1103.06,-60.52 1079.01,-28.15"/>
<polygon fill="#63b8ff" stroke="#63b8ff" points="1082.08,-26.4 1073.21,-20.6 1076.52,-30.66 1082.08,-26.4"/>
</a>
</g>
</g>
<!-- Node13&#45;&gt;Node21 -->
<g id="edge22_Node000013_Node000021" class="edge">
<title>Node13&#45;&gt;Node21</title>
<g id="a_edge22_Node000013_Node000021"><a xlink:title=" ">
<path fill="none" stroke="#63b8ff" d="M1081.42,-229.21C1194.47,-226.94 1636.53,-212.79 1742,-129.75 1758.62,-116.67 1780.89,-60.56 1792.03,-30.25"/>
<polygon fill="#63b8ff" stroke="#63b8ff" points="1795.23,-31.72 1795.33,-21.12 1788.64,-29.34 1795.23,-31.72"/>
</a>
</g>
</g>
<!-- Node13&#45;&gt;Node22 -->
<g id="edge23_Node000013_Node000022" class="edge">
<title>Node13&#45;&gt;Node22</title>
<g id="a_edge23_Node000013_Node000022"><a xlink:title=" ">
<path fill="none" stroke="#63b8ff" d="M1081.25,-225.75C1136.57,-217.59 1266.67,-198.4 1347.41,-186.49"/>
<polygon fill="#63b8ff" stroke="#63b8ff" points="1347.58,-190 1356.97,-185.08 1346.56,-183.08 1347.58,-190"/>
</a>
</g>
</g>
<!-- Node41 -->
<g id="Node000041" class="node">
<title>Node41</title>
<g id="a_Node000041"><a xlink:href="../../d9/d9f/_user_account_8h.html" target="_top" xlink:title=" ">
<polygon fill="white" stroke="#666666" points="869.62,-185 788.38,-185 788.38,-165.75 869.62,-165.75 869.62,-185"/>
<text text-anchor="middle" x="829" y="-171.5" font-family="Helvetica,sans-Serif" font-size="10.00">UserAccount.h</text>
</a>
</g>
</g>
<!-- Node13&#45;&gt;Node41 -->
<g id="edge53_Node000013_Node000041" class="edge">
<title>Node13&#45;&gt;Node41</title>
<g id="a_edge53_Node000013_Node000041"><a xlink:title=" ">
<path fill="none" stroke="#63b8ff" d="M1028.63,-223.41C991.95,-214.77 924.83,-198.96 878.62,-188.07"/>
<polygon fill="#63b8ff" stroke="#63b8ff" points="879.65,-184.71 869.12,-185.83 878.05,-191.53 879.65,-184.71"/>
</a>
</g>
</g>
<!-- Node43 -->
<g id="Node000043" class="node">
<title>Node43</title>
<g id="a_Node000043"><a xlink:href="../../d5/d2a/_testimonial_8h.html" target="_top" xlink:title=" ">
<polygon fill="white" stroke="#666666" points="999.88,-185 926.12,-185 926.12,-165.75 999.88,-165.75 999.88,-185"/>
<text text-anchor="middle" x="963" y="-171.5" font-family="Helvetica,sans-Serif" font-size="10.00">Testimonial.h</text>
</a>
</g>
</g>
<!-- Node13&#45;&gt;Node43 -->
<g id="edge56_Node000013_Node000043" class="edge">
<title>Node13&#45;&gt;Node43</title>
<g id="a_edge56_Node000013_Node000043"><a xlink:title=" ">
<path fill="none" stroke="#63b8ff" d="M1039.39,-220.59C1025.38,-212.48 1004.57,-200.43 988.2,-190.96"/>
<polygon fill="#63b8ff" stroke="#63b8ff" points="990.4,-188.19 979.99,-186.21 986.89,-194.25 990.4,-188.19"/>
</a>
</g>
</g>
<!-- Node23 -->
<g id="Node000023" class="node">
<title>Node23</title>
<g id="a_Node000023"><a xlink:href="../../d3/db6/circle_8h.html" target="_top" xlink:title=" ">
<polygon fill="white" stroke="#666666" points="1566.75,-129.75 1519.25,-129.75 1519.25,-110.5 1566.75,-110.5 1566.75,-129.75"/>
<text text-anchor="middle" x="1543" y="-116.25" font-family="Helvetica,sans-Serif" font-size="10.00">circle.h</text>
</a>
</g>
</g>
<!-- Node22&#45;&gt;Node23 -->
<g id="edge24_Node000022_Node000023" class="edge">
<title>Node22&#45;&gt;Node23</title>
<g id="a_edge24_Node000022_Node000023"><a xlink:title=" ">
<path fill="none" stroke="#63b8ff" d="M1437.54,-165.34C1457.61,-156.93 1487.8,-144.27 1510.75,-134.65"/>
<polygon fill="#63b8ff" stroke="#63b8ff" points="1512.09,-137.88 1519.95,-130.79 1509.38,-131.43 1512.09,-137.88"/>
</a>
</g>
</g>
<!-- Node24 -->
<g id="Node000024" class="node">
<title>Node24</title>
<g id="a_Node000024"><a xlink:href="../../da/d18/shape_8h.html" target="_top" xlink:title=" ">
<polygon fill="white" stroke="#666666" points="1468.25,-74.5 1417.75,-74.5 1417.75,-55.25 1468.25,-55.25 1468.25,-74.5"/>
<text text-anchor="middle" x="1443" y="-61" font-family="Helvetica,sans-Serif" font-size="10.00">shape.h</text>
</a>
</g>
</g>
<!-- Node22&#45;&gt;Node24 -->
<g id="edge48_Node000022_Node000024" class="edge">
<title>Node22&#45;&gt;Node24</title>
<g id="a_edge48_Node000022_Node000024"><a xlink:title=" ">
<path fill="none" stroke="#63b8ff" d="M1473.45,-165.8C1514.05,-158.42 1563.4,-146.34 1576,-129.75 1603.62,-93.38 1528.25,-76.68 1479.95,-69.9"/>
<polygon fill="#63b8ff" stroke="#63b8ff" points="1480.5,-66.45 1470.13,-68.62 1479.59,-73.39 1480.5,-66.45"/>
</a>
</g>
</g>
<!-- Node34 -->
<g id="Node000034" class="node">
<title>Node34</title>
<g id="a_Node000034"><a xlink:href="../../da/dbf/ellipse_8h.html" target="_top" xlink:title=" ">
<polygon fill="white" stroke="#666666" points="1675,-129.75 1623,-129.75 1623,-110.5 1675,-110.5 1675,-129.75"/>
<text text-anchor="middle" x="1649" y="-116.25" font-family="Helvetica,sans-Serif" font-size="10.00">ellipse.h</text>
</a>
</g>
</g>
<!-- Node22&#45;&gt;Node34 -->
<g id="edge38_Node000022_Node000034" class="edge">
<title>Node22&#45;&gt;Node34</title>
<g id="a_edge38_Node000022_Node000034"><a xlink:title=" ">
<path fill="none" stroke="#63b8ff" d="M1455.79,-165.28C1499.48,-155.3 1569.1,-139.39 1611.75,-129.64"/>
<polygon fill="#63b8ff" stroke="#63b8ff" points="1612.32,-133.1 1621.29,-127.46 1610.76,-126.27 1612.32,-133.1"/>
</a>
</g>
</g>
<!-- Node35 -->
<g id="Node000035" class="node">
<title>Node35</title>
<g id="a_Node000035"><a xlink:href="../../d7/d5d/line_8h.html" target="_top" xlink:title=" ">
<polygon fill="white" stroke="#666666" points="1732.62,-129.75 1693.38,-129.75 1693.38,-110.5 1732.62,-110.5 1732.62,-129.75"/>
<text text-anchor="middle" x="1713" y="-116.25" font-family="Helvetica,sans-Serif" font-size="10.00">line.h</text>
</a>
</g>
</g>
<!-- Node22&#45;&gt;Node35 -->
<g id="edge40_Node000022_Node000035" class="edge">
<title>Node22&#45;&gt;Node35</title>
<g id="a_edge40_Node000022_Node000035"><a xlink:title=" ">
<path fill="none" stroke="#63b8ff" d="M1473.39,-166.92C1525.48,-159.68 1604.58,-147.52 1682.18,-129.91"/>
<polygon fill="#63b8ff" stroke="#63b8ff" points="1682.68,-133.39 1691.64,-127.73 1681.11,-126.57 1682.68,-133.39"/>
</a>
</g>
</g>
<!-- Node36 -->
<g id="Node000036" class="node">
<title>Node36</title>
<g id="a_Node000036"><a xlink:href="../../dc/db6/polygon_8h.html" target="_top" xlink:title=" ">
<polygon fill="white" stroke="#666666" points="1213,-129.75 1155,-129.75 1155,-110.5 1213,-110.5 1213,-129.75"/>
<text text-anchor="middle" x="1184" y="-116.25" font-family="Helvetica,sans-Serif" font-size="10.00">polygon.h</text>
</a>
</g>
</g>
<!-- Node22&#45;&gt;Node36 -->
<g id="edge42_Node000022_Node000036" class="edge">
<title>Node22&#45;&gt;Node36</title>
<g id="a_edge42_Node000022_Node000036"><a xlink:title=" ">
<path fill="none" stroke="#63b8ff" d="M1376.38,-165.28C1333.94,-155.54 1266.94,-140.16 1224.26,-130.37"/>
<polygon fill="#63b8ff" stroke="#63b8ff" points="1225.17,-126.98 1214.64,-128.16 1223.61,-133.81 1225.17,-126.98"/>
</a>
</g>
</g>
<!-- Node37 -->
<g id="Node000037" class="node">
<title>Node37</title>
<g id="a_Node000037"><a xlink:href="../../d0/ddf/polyline_8h.html" target="_top" xlink:title=" ">
<polygon fill="white" stroke="#666666" points="1288.62,-129.75 1231.38,-129.75 1231.38,-110.5 1288.62,-110.5 1288.62,-129.75"/>
<text text-anchor="middle" x="1260" y="-116.25" font-family="Helvetica,sans-Serif" font-size="10.00">polyline.h</text>
</a>
</g>
</g>
<!-- Node22&#45;&gt;Node37 -->
<g id="edge44_Node000022_Node000037" class="edge">
<title>Node22&#45;&gt;Node37</title>
<g id="a_edge44_Node000022_Node000037"><a xlink:title=" ">
<path fill="none" stroke="#63b8ff" d="M1389.54,-165.34C1364.21,-156.7 1325.77,-143.57 1297.33,-133.87"/>
<polygon fill="#63b8ff" stroke="#63b8ff" points="1298.62,-130.61 1288.03,-130.69 1296.36,-137.23 1298.62,-130.61"/>
</a>
</g>
</g>
<!-- Node38 -->
<g id="Node000038" class="node">
<title>Node38</title>
<g id="a_Node000038"><a xlink:href="../../db/dd0/rectangle_8h.html" target="_top" xlink:title=" ">
<polygon fill="white" stroke="#666666" points="1371,-129.75 1307,-129.75 1307,-110.5 1371,-110.5 1371,-129.75"/>
<text text-anchor="middle" x="1339" y="-116.25" font-family="Helvetica,sans-Serif" font-size="10.00">rectangle.h</text>
</a>
</g>
</g>
<!-- Node22&#45;&gt;Node38 -->
<g id="edge46_Node000022_Node000038" class="edge">
<title>Node22&#45;&gt;Node38</title>
<g id="a_edge46_Node000022_Node000038"><a xlink:title=" ">
<path fill="none" stroke="#63b8ff" d="M1402.94,-165.34C1391.54,-157.46 1374.77,-145.86 1361.26,-136.52"/>
<polygon fill="#63b8ff" stroke="#63b8ff" points="1363.59,-133.87 1353.37,-131.06 1359.6,-139.63 1363.59,-133.87"/>
</a>
</g>
</g>
<!-- Node39 -->
<g id="Node000039" class="node">
<title>Node39</title>
<g id="a_Node000039"><a xlink:href="../../d7/d3c/square_8h.html" target="_top" xlink:title=" ">
<polygon fill="white" stroke="#666666" points="1442.75,-129.75 1389.25,-129.75 1389.25,-110.5 1442.75,-110.5 1442.75,-129.75"/>
<text text-anchor="middle" x="1416" y="-116.25" font-family="Helvetica,sans-Serif" font-size="10.00">square.h</text>
</a>
</g>
</g>
<!-- Node22&#45;&gt;Node39 -->
<g id="edge49_Node000022_Node000039" class="edge">
<title>Node22&#45;&gt;Node39</title>
<g id="a_edge49_Node000022_Node000039"><a xlink:title=" ">
<path fill="none" stroke="#63b8ff" d="M1416,-165.58C1416,-159.07 1416,-149.92 1416,-141.62"/>
<polygon fill="#63b8ff" stroke="#63b8ff" points="1419.5,-141.62 1416,-131.62 1412.5,-141.62 1419.5,-141.62"/>
</a>
</g>
</g>
<!-- Node40 -->
<g id="Node000040" class="node">
<title>Node40</title>
<g id="a_Node000040"><a xlink:href="../../d9/dcc/text_8h.html" target="_top" xlink:title=" ">
<polygon fill="white" stroke="#666666" points="1501.38,-129.75 1460.62,-129.75 1460.62,-110.5 1501.38,-110.5 1501.38,-129.75"/>
<text text-anchor="middle" x="1481" y="-116.25" font-family="Helvetica,sans-Serif" font-size="10.00">text.h</text>
</a>
</g>
</g>
<!-- Node22&#45;&gt;Node40 -->
<g id="edge51_Node000022_Node000040" class="edge">
<title>Node22&#45;&gt;Node40</title>
<g id="a_edge51_Node000022_Node000040"><a xlink:title=" ">
<path fill="none" stroke="#63b8ff" d="M1427.03,-165.34C1436.42,-157.65 1450.15,-146.4 1461.41,-137.18"/>
<polygon fill="#63b8ff" stroke="#63b8ff" points="1463.45,-140.03 1468.97,-130.98 1459.01,-134.61 1463.45,-140.03"/>
</a>
</g>
</g>
<!-- Node23&#45;&gt;Node24 -->
<g id="edge25_Node000023_Node000024" class="edge">
<title>Node23&#45;&gt;Node24</title>
<g id="a_edge25_Node000023_Node000024"><a xlink:title=" ">
<path fill="none" stroke="#63b8ff" d="M1526.04,-110.09C1510.74,-101.94 1487.97,-89.82 1470.14,-80.33"/>
<polygon fill="#63b8ff" stroke="#63b8ff" points="1471.85,-77.27 1461.38,-75.66 1468.56,-83.45 1471.85,-77.27"/>
</a>
</g>
</g>
<!-- Node24&#45;&gt;Node6 -->
<g id="edge31_Node000024_Node000006" class="edge">
<title>Node24&#45;&gt;Node6</title>
<g id="a_edge31_Node000024_Node000006"><a xlink:title=" ">
<path fill="none" stroke="#63b8ff" d="M1417.53,-62.42C1286.29,-54.94 686.84,-20.76 541.04,-12.45"/>
<polygon fill="#63b8ff" stroke="#63b8ff" points="541.53,-8.97 531.35,-11.9 541.13,-15.96 541.53,-8.97"/>
</a>
</g>
</g>
<!-- Node24&#45;&gt;Node20 -->
<g id="edge26_Node000024_Node000020" class="edge">
<title>Node24&#45;&gt;Node20</title>
<g id="a_edge26_Node000024_Node000020"><a xlink:title=" ">
<path fill="none" stroke="#63b8ff" d="M1417.36,-62.03C1360.95,-57.66 1221.72,-45.22 1096.41,-19.45"/>
<polygon fill="#63b8ff" stroke="#63b8ff" points="1097.48,-16.1 1086.97,-17.48 1096.04,-22.95 1097.48,-16.1"/>
</a>
</g>
</g>
<!-- Node24&#45;&gt;Node21 -->
<g id="edge37_Node000024_Node000021" class="edge">
<title>Node24&#45;&gt;Node21</title>
<g id="a_edge37_Node000024_Node000021"><a xlink:title=" ">
<path fill="none" stroke="#63b8ff" d="M1468.69,-60.1C1518.78,-52.73 1633.29,-35.83 1740.32,-19.65"/>
<polygon fill="#63b8ff" stroke="#63b8ff" points="1740.79,-23.12 1750.15,-18.16 1739.74,-16.2 1740.79,-23.12"/>
</a>
</g>
</g>
<!-- Node25 -->
<g id="Node000025" class="node">
<title>Node25</title>
<g id="a_Node000025"><a xlink:title=" ">
<polygon fill="#e0e0e0" stroke="#999999" points="1328.5,-19.25 1285.5,-19.25 1285.5,0 1328.5,0 1328.5,-19.25"/>
<text text-anchor="middle" x="1307" y="-5.75" font-family="Helvetica,sans-Serif" font-size="10.00">cmath</text>
</a>
</g>
</g>
<!-- Node24&#45;&gt;Node25 -->
<g id="edge27_Node000024_Node000025" class="edge">
<title>Node24&#45;&gt;Node25</title>
<g id="a_edge27_Node000024_Node000025"><a xlink:title=" ">
<path fill="none" stroke="#63b8ff" d="M1419.93,-54.84C1397.85,-46.2 1364.33,-33.07 1339.54,-23.36"/>
<polygon fill="#63b8ff" stroke="#63b8ff" points="1340.83,-20.11 1330.24,-19.72 1338.28,-26.63 1340.83,-20.11"/>
</a>
</g>
</g>
<!-- Node26 -->
<g id="Node000026" class="node">
<title>Node26</title>
<g id="a_Node000026"><a xlink:title=" ">
<polygon fill="#e0e0e0" stroke="#999999" points="1401.12,-19.25 1346.88,-19.25 1346.88,0 1401.12,0 1401.12,-19.25"/>
<text text-anchor="middle" x="1374" y="-5.75" font-family="Helvetica,sans-Serif" font-size="10.00">QWidget</text>
</a>
</g>
</g>
<!-- Node24&#45;&gt;Node26 -->
<g id="edge28_Node000024_Node000026" class="edge">
<title>Node24&#45;&gt;Node26</title>
<g id="a_edge28_Node000024_Node000026"><a xlink:title=" ">
<path fill="none" stroke="#63b8ff" d="M1431.3,-54.84C1421.22,-47.07 1406.46,-35.67 1394.44,-26.4"/>
<polygon fill="#63b8ff" stroke="#63b8ff" points="1396.79,-23.79 1386.73,-20.45 1392.51,-29.33 1396.79,-23.79"/>
</a>
</g>
</g>
<!-- Node27 -->
<g id="Node000027" class="node">
<title>Node27</title>
<g id="a_Node000027"><a xlink:title=" ">
<polygon fill="#e0e0e0" stroke="#999999" points="1466.38,-19.25 1419.62,-19.25 1419.62,0 1466.38,0 1466.38,-19.25"/>
<text text-anchor="middle" x="1443" y="-5.75" font-family="Helvetica,sans-Serif" font-size="10.00">QColor</text>
</a>
</g>
</g>
<!-- Node24&#45;&gt;Node27 -->
<g id="edge29_Node000024_Node000027" class="edge">
<title>Node24&#45;&gt;Node27</title>
<g id="a_edge29_Node000024_Node000027"><a xlink:title=" ">
<path fill="none" stroke="#63b8ff" d="M1443,-55.08C1443,-48.57 1443,-39.42 1443,-31.12"/>
<polygon fill="#63b8ff" stroke="#63b8ff" points="1446.5,-31.12 1443,-21.12 1439.5,-31.12 1446.5,-31.12"/>
</a>
</g>
</g>
<!-- Node28 -->
<g id="Node000028" class="node">
<title>Node28</title>
<g id="a_Node000028"><a xlink:title=" ">
<polygon fill="#e0e0e0" stroke="#999999" points="1527.5,-19.25 1484.5,-19.25 1484.5,0 1527.5,0 1527.5,-19.25"/>
<text text-anchor="middle" x="1506" y="-5.75" font-family="Helvetica,sans-Serif" font-size="10.00">QFont</text>
</a>
</g>
</g>
<!-- Node24&#45;&gt;Node28 -->
<g id="edge30_Node000024_Node000028" class="edge">
<title>Node24&#45;&gt;Node28</title>
<g id="a_edge30_Node000024_Node000028"><a xlink:title=" ">
<path fill="none" stroke="#63b8ff" d="M1453.69,-54.84C1462.7,-47.22 1475.83,-36.12 1486.68,-26.95"/>
<polygon fill="#63b8ff" stroke="#63b8ff" points="1488.94,-29.63 1494.31,-20.5 1484.42,-24.28 1488.94,-29.63"/>
</a>
</g>
</g>
<!-- Node29 -->
<g id="Node000029" class="node">
<title>Node29</title>
<g id="a_Node000029"><a xlink:title=" ">
<polygon fill="#e0e0e0" stroke="#999999" points="1600.12,-19.25 1545.88,-19.25 1545.88,0 1600.12,0 1600.12,-19.25"/>
<text text-anchor="middle" x="1573" y="-5.75" font-family="Helvetica,sans-Serif" font-size="10.00">QPainter</text>
</a>
</g>
</g>
<!-- Node24&#45;&gt;Node29 -->
<g id="edge32_Node000024_Node000029" class="edge">
<title>Node24&#45;&gt;Node29</title>
<g id="a_edge32_Node000024_Node000029"><a xlink:title=" ">
<path fill="none" stroke="#63b8ff" d="M1465.05,-54.84C1485.69,-46.39 1516.78,-33.65 1540.3,-24.02"/>
<polygon fill="#63b8ff" stroke="#63b8ff" points="1541.51,-27.31 1549.44,-20.28 1538.86,-20.83 1541.51,-27.31"/>
</a>
</g>
</g>
<!-- Node30 -->
<g id="Node000030" class="node">
<title>Node30</title>
<g id="a_Node000030"><a xlink:title=" ">
<polygon fill="#e0e0e0" stroke="#999999" points="1657.62,-19.25 1618.38,-19.25 1618.38,0 1657.62,0 1657.62,-19.25"/>
<text text-anchor="middle" x="1638" y="-5.75" font-family="Helvetica,sans-Serif" font-size="10.00">QList</text>
</a>
</g>
</g>
<!-- Node24&#45;&gt;Node30 -->
<g id="edge33_Node000024_Node000030" class="edge">
<title>Node24&#45;&gt;Node30</title>
<g id="a_edge33_Node000024_Node000030"><a xlink:title=" ">
<path fill="none" stroke="#63b8ff" d="M1468.65,-57.2C1499.27,-49.19 1552.3,-35.17 1607.08,-19.74"/>
<polygon fill="#63b8ff" stroke="#63b8ff" points="1607.93,-23.13 1616.6,-17.05 1606.02,-16.4 1607.93,-23.13"/>
</a>
</g>
</g>
<!-- Node31 -->
<g id="Node000031" class="node">
<title>Node31</title>
<g id="a_Node000031"><a xlink:title=" ">
<polygon fill="#e0e0e0" stroke="#999999" points="1734.38,-19.25 1675.62,-19.25 1675.62,0 1734.38,0 1734.38,-19.25"/>
<text text-anchor="middle" x="1705" y="-5.75" font-family="Helvetica,sans-Serif" font-size="10.00">QPolygon</text>
</a>
</g>
</g>
<!-- Node24&#45;&gt;Node31 -->
<g id="edge34_Node000024_Node000031" class="edge">
<title>Node24&#45;&gt;Node31</title>
<g id="a_edge34_Node000024_Node000031"><a xlink:title=" ">
<path fill="none" stroke="#63b8ff" d="M1468.58,-59.01C1508.35,-51.39 1587.7,-36 1664.35,-19.77"/>
<polygon fill="#63b8ff" stroke="#63b8ff" points="1664.61,-23.3 1673.67,-17.79 1663.16,-16.45 1664.61,-23.3"/>
</a>
</g>
</g>
<!-- Node32 -->
<g id="Node000032" class="node">
<title>Node32</title>
<g id="a_Node000032"><a xlink:title=" ">
<polygon fill="#e0e0e0" stroke="#999999" points="1176.88,-19.25 1103.12,-19.25 1103.12,0 1176.88,0 1176.88,-19.25"/>
<text text-anchor="middle" x="1140" y="-5.75" font-family="Helvetica,sans-Serif" font-size="10.00">QTreeWidget</text>
</a>
</g>
</g>
<!-- Node24&#45;&gt;Node32 -->
<g id="edge35_Node000024_Node000032" class="edge">
<title>Node24&#45;&gt;Node32</title>
<g id="a_edge35_Node000024_Node000032"><a xlink:title=" ">
<path fill="none" stroke="#63b8ff" d="M1417.45,-59.55C1373.08,-52.03 1278.64,-35.9 1188.41,-19.67"/>
<polygon fill="#63b8ff" stroke="#63b8ff" points="1189.1,-16.23 1178.64,-17.9 1187.86,-23.12 1189.1,-16.23"/>
</a>
</g>
</g>
<!-- Node33 -->
<g id="Node000033" class="node">
<title>Node33</title>
<g id="a_Node000033"><a xlink:title=" ">
<polygon fill="#e0e0e0" stroke="#999999" points="1267.12,-19.25 1194.88,-19.25 1194.88,0 1267.12,0 1267.12,-19.25"/>
<text text-anchor="middle" x="1231" y="-5.75" font-family="Helvetica,sans-Serif" font-size="10.00">QComboBox</text>
</a>
</g>
</g>
<!-- Node24&#45;&gt;Node33 -->
<g id="edge36_Node000024_Node000033" class="edge">
<title>Node24&#45;&gt;Node33</title>
<g id="a_edge36_Node000024_Node000033"><a xlink:title=" ">
<path fill="none" stroke="#63b8ff" d="M1417.43,-57.45C1383.06,-48.82 1321.31,-33.31 1278.34,-22.52"/>
<polygon fill="#63b8ff" stroke="#63b8ff" points="1279.32,-19.15 1268.77,-20.11 1277.62,-25.94 1279.32,-19.15"/>
</a>
</g>
</g>
<!-- Node34&#45;&gt;Node24 -->
<g id="edge39_Node000034_Node000024" class="edge">
<title>Node34&#45;&gt;Node24</title>
<g id="a_edge39_Node000034_Node000024"><a xlink:title=" ">
<path fill="none" stroke="#63b8ff" d="M1622.91,-112.38C1586.59,-102.99 1520.63,-85.94 1479.46,-75.3"/>
<polygon fill="#63b8ff" stroke="#63b8ff" points="1480.58,-71.97 1470.02,-72.86 1478.83,-78.75 1480.58,-71.97"/>
</a>
</g>
</g>
<!-- Node35&#45;&gt;Node24 -->
<g id="edge41_Node000035_Node000024" class="edge">
<title>Node35&#45;&gt;Node24</title>
<g id="a_edge41_Node000035_Node000024"><a xlink:title=" ">
<path fill="none" stroke="#63b8ff" d="M1693.11,-112.91C1690.07,-112.05 1686.96,-111.21 1684,-110.5 1612.3,-93.25 1527.22,-78.9 1479.75,-71.44"/>
<polygon fill="#63b8ff" stroke="#63b8ff" points="1480.43,-68 1470.01,-69.92 1479.35,-74.92 1480.43,-68"/>
</a>
</g>
</g>
<!-- Node36&#45;&gt;Node24 -->
<g id="edge43_Node000036_Node000024" class="edge">
<title>Node36&#45;&gt;Node24</title>
<g id="a_edge43_Node000036_Node000024"><a xlink:title=" ">
<path fill="none" stroke="#63b8ff" d="M1213.44,-112.37C1216.33,-111.73 1219.22,-111.1 1222,-110.5 1286.68,-96.63 1362.28,-81.62 1406.19,-73.03"/>
<polygon fill="#63b8ff" stroke="#63b8ff" points="1406.81,-76.47 1415.95,-71.12 1405.47,-69.6 1406.81,-76.47"/>
</a>
</g>
</g>
<!-- Node37&#45;&gt;Node24 -->
<g id="edge45_Node000037_Node000024" class="edge">
<title>Node37&#45;&gt;Node24</title>
<g id="a_edge45_Node000037_Node000024"><a xlink:title=" ">
<path fill="none" stroke="#63b8ff" d="M1289,-110.69C1320.78,-101.44 1371.83,-86.58 1406.36,-76.54"/>
<polygon fill="#63b8ff" stroke="#63b8ff" points="1407.31,-79.91 1415.93,-73.75 1405.35,-73.18 1407.31,-79.91"/>
</a>
</g>
</g>
<!-- Node38&#45;&gt;Node24 -->
<g id="edge47_Node000038_Node000024" class="edge">
<title>Node38&#45;&gt;Node24</title>
<g id="a_edge47_Node000038_Node000024"><a xlink:title=" ">
<path fill="none" stroke="#63b8ff" d="M1356.64,-110.09C1372.63,-101.91 1396.46,-89.71 1415.04,-80.19"/>
<polygon fill="#63b8ff" stroke="#63b8ff" points="1416.62,-83.32 1423.92,-75.64 1413.43,-77.08 1416.62,-83.32"/>
</a>
</g>
</g>
<!-- Node39&#45;&gt;Node24 -->
<g id="edge50_Node000039_Node000024" class="edge">
<title>Node39&#45;&gt;Node24</title>
<g id="a_edge50_Node000039_Node000024"><a xlink:title=" ">
<path fill="none" stroke="#63b8ff" d="M1420.46,-110.33C1423.95,-103.44 1428.95,-93.59 1433.35,-84.91"/>
<polygon fill="#63b8ff" stroke="#63b8ff" points="1436.36,-86.71 1437.76,-76.21 1430.12,-83.55 1436.36,-86.71"/>
</a>
</g>
</g>
<!-- Node40&#45;&gt;Node24 -->
<g id="edge52_Node000040_Node000024" class="edge">
<title>Node40&#45;&gt;Node24</title>
<g id="a_edge52_Node000040_Node000024"><a xlink:title=" ">
<path fill="none" stroke="#63b8ff" d="M1474.73,-110.33C1469.64,-103.21 1462.3,-92.93 1455.97,-84.05"/>
<polygon fill="#63b8ff" stroke="#63b8ff" points="1458.95,-82.2 1450.29,-76.09 1453.25,-86.26 1458.95,-82.2"/>
</a>
</g>
</g>
<!-- Node41&#45;&gt;Node3 -->
<g id="edge54_Node000041_Node000003" class="edge">
<title>Node41&#45;&gt;Node3</title>
<g id="a_edge54_Node000041_Node000003"><a xlink:title=" ">
<path fill="none" stroke="#63b8ff" d="M799.48,-165.34C769.39,-156.13 722.68,-141.84 690.56,-132.01"/>
<polygon fill="#63b8ff" stroke="#63b8ff" points="691.9,-128.76 681.31,-129.18 689.85,-135.45 691.9,-128.76"/>
</a>
</g>
</g>
<!-- Node42 -->
<g id="Node000042" class="node">
<title>Node42</title>
<g id="a_Node000042"><a xlink:title=" ">
<polygon fill="#e0e0e0" stroke="#999999" points="750.62,-129.75 711.38,-129.75 711.38,-110.5 750.62,-110.5 750.62,-129.75"/>
<text text-anchor="middle" x="731" y="-116.25" font-family="Helvetica,sans-Serif" font-size="10.00">utility</text>
</a>
</g>
</g>
<!-- Node41&#45;&gt;Node42 -->
<g id="edge55_Node000041_Node000042" class="edge">
<title>Node41&#45;&gt;Node42</title>
<g id="a_edge55_Node000041_Node000042"><a xlink:title=" ">
<path fill="none" stroke="#63b8ff" d="M812.38,-165.34C797.31,-157.16 774.86,-144.96 757.35,-135.44"/>
<polygon fill="#63b8ff" stroke="#63b8ff" points="759.49,-132.62 749.04,-130.93 756.15,-138.77 759.49,-132.62"/>
</a>
</g>
</g>
<!-- Node43&#45;&gt;Node3 -->
<g id="edge57_Node000043_Node000003" class="edge">
<title>Node43&#45;&gt;Node3</title>
<g id="a_edge57_Node000043_Node000003"><a xlink:title=" ">
<path fill="none" stroke="#63b8ff" d="M925.8,-168.16C875.15,-159.67 781.67,-143.87 702,-129.75 698.41,-129.11 694.66,-128.44 690.92,-127.76"/>
<polygon fill="#63b8ff" stroke="#63b8ff" points="691.82,-124.37 681.36,-126.02 690.57,-131.26 691.82,-124.37"/>
</a>
</g>
</g>
<!-- Node43&#45;&gt;Node18 -->
<g id="edge60_Node000043_Node000018" class="edge">
<title>Node43&#45;&gt;Node18</title>
<g id="a_edge60_Node000043_Node000018"><a xlink:title=" ">
<path fill="none" stroke="#63b8ff" d="M935.86,-165.34C909.77,-156.66 870.1,-143.46 840.9,-133.74"/>
<polygon fill="#63b8ff" stroke="#63b8ff" points="842.3,-130.52 831.71,-130.68 840.09,-137.16 842.3,-130.52"/>
</a>
</g>
</g>
<!-- Node43&#45;&gt;Node19 -->
<g id="edge59_Node000043_Node000019" class="edge">
<title>Node43&#45;&gt;Node19</title>
<g id="a_edge59_Node000043_Node000019"><a xlink:title=" ">
<path fill="none" stroke="#63b8ff" d="M979.79,-165.34C995.01,-157.16 1017.7,-144.96 1035.38,-135.44"/>
<polygon fill="#63b8ff" stroke="#63b8ff" points="1036.64,-138.74 1043.79,-130.92 1033.33,-132.57 1036.64,-138.74"/>
</a>
</g>
</g>
<!-- Node44 -->
<g id="Node000044" class="node">
<title>Node44</title>
<g id="a_Node000044"><a xlink:title=" ">
<polygon fill="#e0e0e0" stroke="#999999" points="1007.12,-129.75 940.88,-129.75 940.88,-110.5 1007.12,-110.5 1007.12,-129.75"/>
<text text-anchor="middle" x="974" y="-116.25" font-family="Helvetica,sans-Serif" font-size="10.00">QDateTime</text>
</a>
</g>
</g>
<!-- Node43&#45;&gt;Node44 -->
<g id="edge58_Node000043_Node000044" class="edge">
<title>Node43&#45;&gt;Node44</title>
<g id="a_edge58_Node000043_Node000044"><a xlink:title=" ">
<path fill="none" stroke="#63b8ff" d="M964.82,-165.58C966.18,-158.99 968.1,-149.71 969.83,-141.32"/>
<polygon fill="#63b8ff" stroke="#63b8ff" points="973.24,-142.09 971.84,-131.59 966.39,-140.68 973.24,-142.09"/>
</a>
</g>
</g>
<!-- Node45 -->
<g id="Node000045" class="node">
<title>Node45</title>
<g id="a_Node000045"><a xlink:title=" ">
<polygon fill="#e0e0e0" stroke="#999999" points="923.25,-129.75 854.75,-129.75 854.75,-110.5 923.25,-110.5 923.25,-129.75"/>
<text text-anchor="middle" x="889" y="-116.25" font-family="Helvetica,sans-Serif" font-size="10.00">QJsonValue</text>
</a>
</g>
</g>
<!-- Node43&#45;&gt;Node45 -->
<g id="edge61_Node000043_Node000045" class="edge">
<title>Node43&#45;&gt;Node45</title>
<g id="a_edge61_Node000043_Node000045"><a xlink:title=" ">
<path fill="none" stroke="#63b8ff" d="M950.45,-165.34C939.54,-157.49 923.5,-145.95 910.54,-136.62"/>
<polygon fill="#63b8ff" stroke="#63b8ff" points="912.76,-133.91 902.6,-130.91 908.67,-139.59 912.76,-133.91"/>
</a>
</g>
</g>
</g>
</svg>
