<?xml version="1.0" encoding="UTF-8" standalone="no"?>
<!DOCTYPE svg PUBLIC "-//W3C//DTD SVG 1.1//EN"
 "http://www.w3.org/Graphics/SVG/1.1/DTD/svg11.dtd">
<!-- Generated by graphviz version 12.2.1 (20241206.2353)
 -->
<!-- Title: LoginWindow::loginRequested Pages: 1 -->
<svg width="512pt" height="64pt"
 viewBox="0.00 0.00 512.00 64.25" xmlns="http://www.w3.org/2000/svg" xmlns:xlink="http://www.w3.org/1999/xlink">
<g id="graph0" class="graph" transform="scale(1 1) rotate(0) translate(4 60.25)">
<title>LoginWindow::loginRequested</title>
<!-- Node1 -->
<g id="Node000001" class="node">
<title>Node1</title>
<g id="a_Node000001"><a xlink:title="Emitted when the user attempts to log in with the provided credentials.">
<polygon fill="#999999" stroke="#666666" points="504,-37.25 356,-37.25 356,-18 504,-18 504,-37.25"/>
<text text-anchor="middle" x="430" y="-23.75" font-family="Helvetica,sans-Serif" font-size="10.00">LoginWindow::loginRequested</text>
</a>
</g>
</g>
<!-- Node2 -->
<g id="Node000002" class="node">
<title>Node2</title>
<g id="a_Node000002"><a xlink:href="../../de/d74/class_login_window.html#a4677fdb497a115ea633069d51eb03944" target="_top" xlink:title="Emits the loginRequested signal with current input from login fields.">
<polygon fill="white" stroke="#666666" points="315.88,-56.25 179.12,-56.25 179.12,-37 315.88,-37 315.88,-56.25"/>
<text text-anchor="middle" x="247.5" y="-42.75" font-family="Helvetica,sans-Serif" font-size="10.00">LoginWindow::attemptLogin</text>
</a>
</g>
</g>
<!-- Node1&#45;&gt;Node2 -->
<g id="edge1_Node000001_Node000002" class="edge">
<title>Node1&#45;&gt;Node2</title>
<g id="a_edge1_Node000001_Node000002"><a xlink:title=" ">
<path fill="none" stroke="#63b8ff" d="M344.23,-36.55C334.87,-37.53 325.43,-38.53 316.32,-39.49"/>
<polygon fill="#63b8ff" stroke="#63b8ff" points="344.5,-40.04 354.08,-35.51 343.77,-33.08 344.5,-40.04"/>
</a>
</g>
</g>
<!-- Node4 -->
<g id="Node000004" class="node">
<title>Node4</title>
<g id="a_Node000004"><a xlink:href="../../d9/dc6/class_main_window.html#a44b1462463b23490276f54034ab12325" target="_top" xlink:title="Slot triggered when the login button is clicked, typically opening a login dialog.">
<polygon fill="white" stroke="#666666" points="320,-19.25 175,-19.25 175,0 320,0 320,-19.25"/>
<text text-anchor="middle" x="247.5" y="-5.75" font-family="Helvetica,sans-Serif" font-size="10.00">MainWindow::onLoginClicked</text>
</a>
</g>
</g>
<!-- Node1&#45;&gt;Node4 -->
<g id="edge3_Node000001_Node000004" class="edge">
<title>Node1&#45;&gt;Node4</title>
<g id="a_edge3_Node000001_Node000004"><a xlink:title=" ">
<path fill="none" stroke="#63b8ff" d="M344.33,-19.18C336.32,-18.38 328.26,-17.58 320.39,-16.79"/>
<polygon fill="#63b8ff" stroke="#63b8ff" points="343.78,-22.64 354.08,-20.15 344.47,-15.68 343.78,-22.64"/>
</a>
</g>
</g>
<!-- Node3 -->
<g id="Node000003" class="node">
<title>Node3</title>
<g id="a_Node000003"><a xlink:href="../../de/d74/class_login_window.html#aa4c04d26b299de00156bbf3c32b2a082" target="_top" xlink:title="Constructor that sets up the UI components for login and signup.">
<polygon fill="white" stroke="#666666" points="139,-56.25 0,-56.25 0,-37 139,-37 139,-56.25"/>
<text text-anchor="middle" x="69.5" y="-42.75" font-family="Helvetica,sans-Serif" font-size="10.00">LoginWindow::LoginWindow</text>
</a>
</g>
</g>
<!-- Node2&#45;&gt;Node3 -->
<g id="edge2_Node000002_Node000003" class="edge">
<title>Node2&#45;&gt;Node3</title>
<g id="a_edge2_Node000002_Node000003"><a xlink:title=" ">
<path fill="none" stroke="#63b8ff" d="M167.41,-46.62C158.08,-46.62 148.6,-46.62 139.42,-46.62"/>
<polygon fill="#63b8ff" stroke="#63b8ff" points="167.19,-50.13 177.19,-46.63 167.19,-43.13 167.19,-50.13"/>
</a>
</g>
</g>
<!-- Node5 -->
<g id="Node000005" class="node">
<title>Node5</title>
<g id="a_Node000005"><a xlink:href="../../d9/dc6/class_main_window.html#a25d06b6f11a1eb7fa2239f01e853ae29" target="_top" xlink:title=" ">
<polygon fill="white" stroke="#666666" points="136.75,-19.25 2.25,-19.25 2.25,0 136.75,0 136.75,-19.25"/>
<text text-anchor="middle" x="69.5" y="-5.75" font-family="Helvetica,sans-Serif" font-size="10.00">MainWindow::MainWindow</text>
</a>
</g>
</g>
<!-- Node4&#45;&gt;Node5 -->
<g id="edge4_Node000004_Node000005" class="edge">
<title>Node4&#45;&gt;Node5</title>
<g id="a_edge4_Node000004_Node000005"><a xlink:title=" ">
<path fill="none" stroke="#63b8ff" d="M163.18,-9.62C154.4,-9.62 145.56,-9.62 137.01,-9.62"/>
<polygon fill="#63b8ff" stroke="#63b8ff" points="163.15,-13.13 173.15,-9.63 163.15,-6.13 163.15,-13.13"/>
</a>
</g>
</g>
</g>
</svg>
