<?xml version="1.0" encoding="UTF-8" standalone="no"?>
<!DOCTYPE svg PUBLIC "-//W3C//DTD SVG 1.1//EN"
 "http://www.w3.org/Graphics/SVG/1.1/DTD/svg11.dtd">
<!-- Generated by graphviz version 12.2.1 (20241206.2353)
 -->
<!-- Title: LoginWindow::attemptSignup Pages: 1 -->
<svg width="503pt" height="64pt"
 viewBox="0.00 0.00 503.00 64.25" xmlns="http://www.w3.org/2000/svg" xmlns:xlink="http://www.w3.org/1999/xlink">
<g id="graph0" class="graph" transform="scale(1 1) rotate(0) translate(4 60.25)">
<title>LoginWindow::attemptSignup</title>
<!-- Node1 -->
<g id="Node000001" class="node">
<title>Node1</title>
<g id="a_Node000001"><a xlink:title="Emits the signupRequested signal with current input from signup fields.">
<polygon fill="#999999" stroke="#666666" points="143.5,-37.25 0,-37.25 0,-18 143.5,-18 143.5,-37.25"/>
<text text-anchor="middle" x="71.75" y="-23.75" font-family="Helvetica,sans-Serif" font-size="10.00">LoginWindow::attemptSignup</text>
</a>
</g>
</g>
<!-- Node2 -->
<g id="Node000002" class="node">
<title>Node2</title>
<g id="a_Node000002"><a xlink:href="../../de/d74/class_login_window.html#ae166943123818d0b0a3dcdcf66380994" target="_top" xlink:title="Emitted when the user attempts to sign up with the provided credentials. (Admin flag is currently har...">
<polygon fill="white" stroke="#666666" points="335.75,-37.25 179.5,-37.25 179.5,-18 335.75,-18 335.75,-37.25"/>
<text text-anchor="middle" x="257.62" y="-23.75" font-family="Helvetica,sans-Serif" font-size="10.00">LoginWindow::signupRequested</text>
</a>
</g>
</g>
<!-- Node1&#45;&gt;Node2 -->
<g id="edge1_Node000001_Node000002" class="edge">
<title>Node1&#45;&gt;Node2</title>
<g id="a_edge1_Node000001_Node000002"><a xlink:title=" ">
<path fill="none" stroke="#63b8ff" d="M143.84,-27.62C151.67,-27.62 159.71,-27.62 167.73,-27.62"/>
<polygon fill="#63b8ff" stroke="#63b8ff" points="167.5,-31.13 177.5,-27.63 167.5,-24.13 167.5,-31.13"/>
</a>
</g>
</g>
<!-- Node3 -->
<g id="Node000003" class="node">
<title>Node3</title>
<g id="a_Node000003"><a xlink:href="../../de/d74/class_login_window.html#ab207055cd16762112d1facbd35da9c25" target="_top" xlink:title="Returns the password entered in the currently active input field (login or signup).">
<polygon fill="white" stroke="#666666" points="494.62,-56.25 372.12,-56.25 372.12,-37 494.62,-37 494.62,-56.25"/>
<text text-anchor="middle" x="433.38" y="-42.75" font-family="Helvetica,sans-Serif" font-size="10.00">LoginWindow::password</text>
</a>
</g>
</g>
<!-- Node2&#45;&gt;Node3 -->
<g id="edge2_Node000002_Node000003" class="edge">
<title>Node2&#45;&gt;Node3</title>
<g id="a_edge2_Node000002_Node000003"><a xlink:title=" ">
<path fill="none" stroke="#63b8ff" d="M336.1,-36.1C344.22,-36.98 352.45,-37.88 360.5,-38.77"/>
<polygon fill="#63b8ff" stroke="#63b8ff" points="359.91,-42.22 370.23,-39.83 360.67,-35.26 359.91,-42.22"/>
</a>
</g>
</g>
<!-- Node4 -->
<g id="Node000004" class="node">
<title>Node4</title>
<g id="a_Node000004"><a xlink:href="../../de/d74/class_login_window.html#a2b28bf4bc7080e39afb0d096d212e0a0" target="_top" xlink:title="Returns the username entered in the currently active input field (login or signup).">
<polygon fill="white" stroke="#666666" points="495,-19.25 371.75,-19.25 371.75,0 495,0 495,-19.25"/>
<text text-anchor="middle" x="433.38" y="-5.75" font-family="Helvetica,sans-Serif" font-size="10.00">LoginWindow::username</text>
</a>
</g>
</g>
<!-- Node2&#45;&gt;Node4 -->
<g id="edge3_Node000002_Node000004" class="edge">
<title>Node2&#45;&gt;Node4</title>
<g id="a_edge3_Node000002_Node000004"><a xlink:title=" ">
<path fill="none" stroke="#63b8ff" d="M336.1,-19.6C344.06,-18.77 352.14,-17.94 360.04,-17.12"/>
<polygon fill="#63b8ff" stroke="#63b8ff" points="360.38,-20.6 369.97,-16.09 359.66,-13.64 360.38,-20.6"/>
</a>
</g>
</g>
</g>
</svg>
