<?xml version="1.0" encoding="UTF-8" standalone="no"?>
<!DOCTYPE svg PUBLIC "-//W3C//DTD SVG 1.1//EN"
 "http://www.w3.org/Graphics/SVG/1.1/DTD/svg11.dtd">
<!-- Generated by graphviz version 12.2.1 (20241206.2353)
 -->
<!-- Title: Rectangle::Draw Pages: 1 -->
<svg width="235pt" height="249pt"
 viewBox="0.00 0.00 235.00 249.25" xmlns="http://www.w3.org/2000/svg" xmlns:xlink="http://www.w3.org/1999/xlink">
<g id="graph0" class="graph" transform="scale(1 1) rotate(0) translate(4 245.25)">
<title>Rectangle::Draw</title>
<!-- Node1 -->
<g id="Node000001" class="node">
<title>Node1</title>
<g id="a_Node000001"><a xlink:title="Draw &#45; Draws a Rectangle at the assigned coords.">
<polygon fill="#999999" stroke="#666666" points="89.5,-130.25 0,-130.25 0,-111 89.5,-111 89.5,-130.25"/>
<text text-anchor="middle" x="44.75" y="-116.75" font-family="Helvetica,sans-Serif" font-size="10.00">Rectangle::Draw</text>
</a>
</g>
</g>
<!-- Node2 -->
<g id="Node000002" class="node">
<title>Node2</title>
<g id="a_Node000002"><a xlink:href="../../d7/da7/class_shape.html#acbb9f9354579fdaad31853d714653e0d" target="_top" xlink:title=" ">
<polygon fill="white" stroke="#666666" points="220.62,-241.25 131.88,-241.25 131.88,-222 220.62,-222 220.62,-241.25"/>
<text text-anchor="middle" x="176.25" y="-227.75" font-family="Helvetica,sans-Serif" font-size="10.00">Shape::getBrush</text>
</a>
</g>
</g>
<!-- Node1&#45;&gt;Node2 -->
<g id="edge1_Node000001_Node000002" class="edge">
<title>Node1&#45;&gt;Node2</title>
<g id="a_edge1_Node000001_Node000002"><a xlink:title=" ">
<path fill="none" stroke="#63b8ff" d="M51.73,-130.51C63.55,-149.28 91.73,-190.29 125.5,-213.62 126.89,-214.59 128.34,-215.5 129.84,-216.38"/>
<polygon fill="#63b8ff" stroke="#63b8ff" points="128.27,-219.51 138.78,-220.85 131.4,-213.25 128.27,-219.51"/>
</a>
</g>
</g>
<!-- Node3 -->
<g id="Node000003" class="node">
<title>Node3</title>
<g id="a_Node000003"><a xlink:href="../../d7/da7/class_shape.html#a754ef1fcea3fbe3c3612da480ba8dd75" target="_top" xlink:title=" ">
<polygon fill="white" stroke="#666666" points="223.25,-204.25 129.25,-204.25 129.25,-185 223.25,-185 223.25,-204.25"/>
<text text-anchor="middle" x="176.25" y="-190.75" font-family="Helvetica,sans-Serif" font-size="10.00">Shape::getPainter</text>
</a>
</g>
</g>
<!-- Node1&#45;&gt;Node3 -->
<g id="edge2_Node000001_Node000003" class="edge">
<title>Node1&#45;&gt;Node3</title>
<g id="a_edge2_Node000001_Node000003"><a xlink:title=" ">
<path fill="none" stroke="#63b8ff" d="M57.8,-130.63C72.87,-142.77 99.84,-163.27 125.5,-176.62 127.87,-177.86 130.35,-179.04 132.87,-180.18"/>
<polygon fill="#63b8ff" stroke="#63b8ff" points="131.42,-183.36 142,-183.95 134.09,-176.89 131.42,-183.36"/>
</a>
</g>
</g>
<!-- Node4 -->
<g id="Node000004" class="node">
<title>Node4</title>
<g id="a_Node000004"><a xlink:href="../../d7/da7/class_shape.html#a16aad057da1ce3475f666cbdd27da042" target="_top" xlink:title=" ">
<polygon fill="white" stroke="#666666" points="216.5,-167.25 136,-167.25 136,-148 216.5,-148 216.5,-167.25"/>
<text text-anchor="middle" x="176.25" y="-153.75" font-family="Helvetica,sans-Serif" font-size="10.00">Shape::getPen</text>
</a>
</g>
</g>
<!-- Node1&#45;&gt;Node4 -->
<g id="edge3_Node000001_Node000004" class="edge">
<title>Node1&#45;&gt;Node4</title>
<g id="a_edge3_Node000001_Node000004"><a xlink:title=" ">
<path fill="none" stroke="#63b8ff" d="M81.14,-130.74C95.98,-134.98 113.44,-139.97 129.27,-144.49"/>
<polygon fill="#63b8ff" stroke="#63b8ff" points="127.87,-147.73 138.45,-147.11 129.8,-141 127.87,-147.73"/>
</a>
</g>
</g>
<!-- Node5 -->
<g id="Node000005" class="node">
<title>Node5</title>
<g id="a_Node000005"><a xlink:href="../../d7/da7/class_shape.html#aebeb671fc243de273dc49f07ba71bac6" target="_top" xlink:title=" ">
<polygon fill="white" stroke="#666666" points="227,-130.25 125.5,-130.25 125.5,-111 227,-111 227,-130.25"/>
<text text-anchor="middle" x="176.25" y="-116.75" font-family="Helvetica,sans-Serif" font-size="10.00">Shape::getSelected</text>
</a>
</g>
</g>
<!-- Node1&#45;&gt;Node5 -->
<g id="edge4_Node000001_Node000005" class="edge">
<title>Node1&#45;&gt;Node5</title>
<g id="a_edge4_Node000001_Node000005"><a xlink:title=" ">
<path fill="none" stroke="#63b8ff" d="M89.95,-120.62C97.62,-120.62 105.72,-120.62 113.75,-120.62"/>
<polygon fill="#63b8ff" stroke="#63b8ff" points="113.5,-124.13 123.5,-120.63 113.5,-117.13 113.5,-124.13"/>
</a>
</g>
</g>
<!-- Node6 -->
<g id="Node000006" class="node">
<title>Node6</title>
<g id="a_Node000006"><a xlink:href="../../d7/da7/class_shape.html#a4b502262ae5a22122456b9624d5ccb3d" target="_top" xlink:title="Accessor Functions &#45; Returns the data named after them.">
<polygon fill="white" stroke="#666666" points="225.88,-93.25 126.62,-93.25 126.62,-74 225.88,-74 225.88,-93.25"/>
<text text-anchor="middle" x="176.25" y="-79.75" font-family="Helvetica,sans-Serif" font-size="10.00">Shape::getShapeId</text>
</a>
</g>
</g>
<!-- Node1&#45;&gt;Node6 -->
<g id="edge5_Node000001_Node000006" class="edge">
<title>Node1&#45;&gt;Node6</title>
<g id="a_edge5_Node000001_Node000006"><a xlink:title=" ">
<path fill="none" stroke="#63b8ff" d="M81.14,-110.51C95.98,-106.27 113.44,-101.28 129.27,-96.76"/>
<polygon fill="#63b8ff" stroke="#63b8ff" points="129.8,-100.25 138.45,-94.14 127.87,-93.52 129.8,-100.25"/>
</a>
</g>
</g>
<!-- Node7 -->
<g id="Node000007" class="node">
<title>Node7</title>
<g id="a_Node000007"><a xlink:href="../../d7/da7/class_shape.html#af604de36aa616c585bb30dedf5e5c68b" target="_top" xlink:title=" ">
<polygon fill="white" stroke="#666666" points="211.25,-56.25 141.25,-56.25 141.25,-37 211.25,-37 211.25,-56.25"/>
<text text-anchor="middle" x="176.25" y="-42.75" font-family="Helvetica,sans-Serif" font-size="10.00">Shape::getX</text>
</a>
</g>
</g>
<!-- Node1&#45;&gt;Node7 -->
<g id="edge6_Node000001_Node000007" class="edge">
<title>Node1&#45;&gt;Node7</title>
<g id="a_edge6_Node000001_Node000007"><a xlink:title=" ">
<path fill="none" stroke="#63b8ff" d="M57.8,-110.62C72.87,-98.48 99.84,-77.98 125.5,-64.62 127.87,-63.39 130.35,-62.21 132.87,-61.07"/>
<polygon fill="#63b8ff" stroke="#63b8ff" points="134.09,-64.36 142,-57.3 131.42,-57.89 134.09,-64.36"/>
</a>
</g>
</g>
<!-- Node8 -->
<g id="Node000008" class="node">
<title>Node8</title>
<g id="a_Node000008"><a xlink:href="../../d7/da7/class_shape.html#a2e87ea4122381ffb83474f4b69247ded" target="_top" xlink:title=" ">
<polygon fill="white" stroke="#666666" points="211.25,-19.25 141.25,-19.25 141.25,0 211.25,0 211.25,-19.25"/>
<text text-anchor="middle" x="176.25" y="-5.75" font-family="Helvetica,sans-Serif" font-size="10.00">Shape::getY</text>
</a>
</g>
</g>
<!-- Node1&#45;&gt;Node8 -->
<g id="edge7_Node000001_Node000008" class="edge">
<title>Node1&#45;&gt;Node8</title>
<g id="a_edge7_Node000001_Node000008"><a xlink:title=" ">
<path fill="none" stroke="#63b8ff" d="M51.73,-110.74C63.55,-91.97 91.73,-50.96 125.5,-27.62 127.26,-26.41 129.11,-25.27 131.01,-24.2"/>
<polygon fill="#63b8ff" stroke="#63b8ff" points="132.08,-27.57 139.55,-20.05 129.03,-21.27 132.08,-27.57"/>
</a>
</g>
</g>
</g>
</svg>
