<?xml version="1.0" encoding="UTF-8" standalone="no"?>
<!DOCTYPE svg PUBLIC "-//W3C//DTD SVG 1.1//EN"
 "http://www.w3.org/Graphics/SVG/1.1/DTD/svg11.dtd">
<!-- Generated by graphviz version 12.2.1 (20241206.2353)
 -->
<!-- Title: Rectangle::Rectangle Pages: 1 -->
<svg width="442pt" height="175pt"
 viewBox="0.00 0.00 442.25 175.25" xmlns="http://www.w3.org/2000/svg" xmlns:xlink="http://www.w3.org/1999/xlink">
<g id="graph0" class="graph" transform="scale(1 1) rotate(0) translate(4 171.25)">
<title>Rectangle::Rectangle</title>
<!-- Node1 -->
<g id="Node000001" class="node">
<title>Node1</title>
<g id="a_Node000001"><a xlink:title="Rectangle.">
<polygon fill="#999999" stroke="#666666" points="110.5,-74.25 0,-74.25 0,-55 110.5,-55 110.5,-74.25"/>
<text text-anchor="middle" x="55.25" y="-60.75" font-family="Helvetica,sans-Serif" font-size="10.00">Rectangle::Rectangle</text>
</a>
</g>
</g>
<!-- Node2 -->
<g id="Node000002" class="node">
<title>Node2</title>
<g id="a_Node000002"><a xlink:href="../../d7/da7/class_shape.html#a4a45883fd666ce244e518e808a0bd7ca" target="_top" xlink:title="CreateBrushChild &#45; Adds brush data to brushItems vector for a QTreeWidget.">
<polygon fill="white" stroke="#666666" points="273.5,-130.25 146.5,-130.25 146.5,-111 273.5,-111 273.5,-130.25"/>
<text text-anchor="middle" x="210" y="-116.75" font-family="Helvetica,sans-Serif" font-size="10.00">Shape::CreateBrushChild</text>
</a>
</g>
</g>
<!-- Node1&#45;&gt;Node2 -->
<g id="edge1_Node000001_Node000002" class="edge">
<title>Node1&#45;&gt;Node2</title>
<g id="a_edge1_Node000001_Node000002"><a xlink:title=" ">
<path fill="none" stroke="#63b8ff" d="M78.22,-74.73C96.32,-82.86 122.77,-94.25 146.5,-102.62 150.99,-104.21 155.7,-105.76 160.43,-107.25"/>
<polygon fill="#63b8ff" stroke="#63b8ff" points="159.39,-110.59 169.98,-110.14 161.42,-103.89 159.39,-110.59"/>
</a>
</g>
</g>
<!-- Node3 -->
<g id="Node000003" class="node">
<title>Node3</title>
<g id="a_Node000003"><a xlink:href="../../d7/da7/class_shape.html#ad3725fd4cfb43613897c2d3f3e647842" target="_top" xlink:title="CreateParentItem &#45; Adds data cooresponding to all shapes to parentItem for a QTreeWidget.">
<polygon fill="white" stroke="#666666" points="273.5,-93.25 146.5,-93.25 146.5,-74 273.5,-74 273.5,-93.25"/>
<text text-anchor="middle" x="210" y="-79.75" font-family="Helvetica,sans-Serif" font-size="10.00">Shape::CreateParentItem</text>
</a>
</g>
</g>
<!-- Node1&#45;&gt;Node3 -->
<g id="edge2_Node000001_Node000003" class="edge">
<title>Node1&#45;&gt;Node3</title>
<g id="a_edge2_Node000001_Node000003"><a xlink:title=" ">
<path fill="none" stroke="#63b8ff" d="M110.96,-71.43C118.7,-72.39 126.77,-73.4 134.8,-74.39"/>
<polygon fill="#63b8ff" stroke="#63b8ff" points="134.23,-77.85 144.59,-75.61 135.1,-70.91 134.23,-77.85"/>
</a>
</g>
</g>
<!-- Node8 -->
<g id="Node000008" class="node">
<title>Node8</title>
<g id="a_Node000008"><a xlink:href="../../d7/da7/class_shape.html#a54f827e6bce6b42cdb4b70c443d2c005" target="_top" xlink:title="CreatePenChild &#45; Adds pen data to penItems vector for a QTreeWidget.">
<polygon fill="white" stroke="#666666" points="269.38,-56.25 150.62,-56.25 150.62,-37 269.38,-37 269.38,-56.25"/>
<text text-anchor="middle" x="210" y="-42.75" font-family="Helvetica,sans-Serif" font-size="10.00">Shape::CreatePenChild</text>
</a>
</g>
</g>
<!-- Node1&#45;&gt;Node8 -->
<g id="edge7_Node000001_Node000008" class="edge">
<title>Node1&#45;&gt;Node8</title>
<g id="a_edge7_Node000001_Node000008"><a xlink:title=" ">
<path fill="none" stroke="#63b8ff" d="M110.96,-58.18C120.03,-57.11 129.55,-55.99 138.93,-54.88"/>
<polygon fill="#63b8ff" stroke="#63b8ff" points="139.25,-58.37 148.77,-53.72 138.43,-51.42 139.25,-58.37"/>
</a>
</g>
</g>
<!-- Node9 -->
<g id="Node000009" class="node">
<title>Node9</title>
<g id="a_Node000009"><a xlink:href="../../d7/da7/class_shape.html#a3fffc5f799f419e3e608e03ab1f3e913" target="_top" xlink:title="Shape Constructor.">
<polygon fill="white" stroke="#666666" points="248.75,-19.25 171.25,-19.25 171.25,0 248.75,0 248.75,-19.25"/>
<text text-anchor="middle" x="210" y="-5.75" font-family="Helvetica,sans-Serif" font-size="10.00">Shape::Shape</text>
</a>
</g>
</g>
<!-- Node1&#45;&gt;Node9 -->
<g id="edge8_Node000001_Node000009" class="edge">
<title>Node1&#45;&gt;Node9</title>
<g id="a_edge8_Node000001_Node000009"><a xlink:title=" ">
<path fill="none" stroke="#63b8ff" d="M78.98,-54.5C97.08,-46.64 123.15,-35.75 146.5,-27.62 151,-26.06 155.71,-24.52 160.45,-23.04"/>
<polygon fill="#63b8ff" stroke="#63b8ff" points="161.44,-26.4 170,-20.16 159.41,-19.7 161.44,-26.4"/>
</a>
</g>
</g>
<!-- Node4 -->
<g id="Node000004" class="node">
<title>Node4</title>
<g id="a_Node000004"><a xlink:href="../../d7/da7/class_shape.html#a4b502262ae5a22122456b9624d5ccb3d" target="_top" xlink:title="Accessor Functions &#45; Returns the data named after them.">
<polygon fill="white" stroke="#666666" points="421.5,-167.25 322.25,-167.25 322.25,-148 421.5,-148 421.5,-167.25"/>
<text text-anchor="middle" x="371.88" y="-153.75" font-family="Helvetica,sans-Serif" font-size="10.00">Shape::getShapeId</text>
</a>
</g>
</g>
<!-- Node3&#45;&gt;Node4 -->
<g id="edge3_Node000003_Node000004" class="edge">
<title>Node3&#45;&gt;Node4</title>
<g id="a_edge3_Node000003_Node000004"><a xlink:title=" ">
<path fill="none" stroke="#63b8ff" d="M256.6,-93.64C262.5,-95.82 268.29,-98.46 273.5,-101.62 293.38,-113.71 289.65,-127.49 309.5,-139.62 311.5,-140.85 313.58,-141.99 315.73,-143.06"/>
<polygon fill="#63b8ff" stroke="#63b8ff" points="314.14,-146.18 324.71,-146.93 316.91,-139.76 314.14,-146.18"/>
</a>
</g>
</g>
<!-- Node5 -->
<g id="Node000005" class="node">
<title>Node5</title>
<g id="a_Node000005"><a xlink:href="../../d7/da7/class_shape.html#aec4675c2b06d40373eefac4b982af242" target="_top" xlink:title=" ">
<polygon fill="white" stroke="#666666" points="424.12,-130.25 319.62,-130.25 319.62,-111 424.12,-111 424.12,-130.25"/>
<text text-anchor="middle" x="371.88" y="-116.75" font-family="Helvetica,sans-Serif" font-size="10.00">Shape::getTrackerId</text>
</a>
</g>
</g>
<!-- Node3&#45;&gt;Node5 -->
<g id="edge4_Node000003_Node000005" class="edge">
<title>Node3&#45;&gt;Node5</title>
<g id="a_edge4_Node000003_Node000005"><a xlink:title=" ">
<path fill="none" stroke="#63b8ff" d="M254.69,-93.74C273.63,-98.12 296.02,-103.3 316.07,-107.94"/>
<polygon fill="#63b8ff" stroke="#63b8ff" points="315.24,-111.34 325.77,-110.19 316.81,-104.52 315.24,-111.34"/>
</a>
</g>
</g>
<!-- Node6 -->
<g id="Node000006" class="node">
<title>Node6</title>
<g id="a_Node000006"><a xlink:href="../../d7/da7/class_shape.html#af604de36aa616c585bb30dedf5e5c68b" target="_top" xlink:title=" ">
<polygon fill="white" stroke="#666666" points="406.88,-93.25 336.88,-93.25 336.88,-74 406.88,-74 406.88,-93.25"/>
<text text-anchor="middle" x="371.88" y="-79.75" font-family="Helvetica,sans-Serif" font-size="10.00">Shape::getX</text>
</a>
</g>
</g>
<!-- Node3&#45;&gt;Node6 -->
<g id="edge5_Node000003_Node000006" class="edge">
<title>Node3&#45;&gt;Node6</title>
<g id="a_edge5_Node000003_Node000006"><a xlink:title=" ">
<path fill="none" stroke="#63b8ff" d="M273.73,-83.62C290.9,-83.62 309.19,-83.62 325.22,-83.62"/>
<polygon fill="#63b8ff" stroke="#63b8ff" points="324.92,-87.13 334.92,-83.63 324.92,-80.13 324.92,-87.13"/>
</a>
</g>
</g>
<!-- Node7 -->
<g id="Node000007" class="node">
<title>Node7</title>
<g id="a_Node000007"><a xlink:href="../../d7/da7/class_shape.html#a2e87ea4122381ffb83474f4b69247ded" target="_top" xlink:title=" ">
<polygon fill="white" stroke="#666666" points="406.88,-56.25 336.88,-56.25 336.88,-37 406.88,-37 406.88,-56.25"/>
<text text-anchor="middle" x="371.88" y="-42.75" font-family="Helvetica,sans-Serif" font-size="10.00">Shape::getY</text>
</a>
</g>
</g>
<!-- Node3&#45;&gt;Node7 -->
<g id="edge6_Node000003_Node000007" class="edge">
<title>Node3&#45;&gt;Node7</title>
<g id="a_edge6_Node000003_Node000007"><a xlink:title=" ">
<path fill="none" stroke="#63b8ff" d="M254.69,-73.51C276.65,-68.43 303.25,-62.28 325.45,-57.14"/>
<polygon fill="#63b8ff" stroke="#63b8ff" points="326.19,-60.56 335.14,-54.9 324.61,-53.74 326.19,-60.56"/>
</a>
</g>
</g>
<!-- Node10 -->
<g id="Node000010" class="node">
<title>Node10</title>
<g id="a_Node000010"><a xlink:href="../../d7/da7/class_shape.html#a520308cc2273f60cb19bf5664570bcf8" target="_top" xlink:title=" ">
<polygon fill="white" stroke="#666666" points="434.25,-19.25 309.5,-19.25 309.5,0 434.25,0 434.25,-19.25"/>
<text text-anchor="middle" x="371.88" y="-5.75" font-family="Helvetica,sans-Serif" font-size="10.00">Shape::allocateTrackerId</text>
</a>
</g>
</g>
<!-- Node9&#45;&gt;Node10 -->
<g id="edge9_Node000009_Node000010" class="edge">
<title>Node9&#45;&gt;Node10</title>
<g id="a_edge9_Node000009_Node000010"><a xlink:title=" ">
<path fill="none" stroke="#63b8ff" d="M248.89,-9.62C263.66,-9.62 281.11,-9.62 298.12,-9.62"/>
<polygon fill="#63b8ff" stroke="#63b8ff" points="297.69,-13.13 307.69,-9.63 297.69,-6.13 297.69,-13.13"/>
</a>
</g>
</g>
</g>
</svg>
