<?xml version="1.0" encoding="UTF-8" standalone="no"?>
<!DOCTYPE svg PUBLIC "-//W3C//DTD SVG 1.1//EN"
 "http://www.w3.org/Graphics/SVG/1.1/DTD/svg11.dtd">
<!-- Generated by graphviz version 12.2.1 (20241206.2353)
 -->
<!-- Title: GetConnectedClient Pages: 1 -->
<svg width="284pt" height="286pt"
 viewBox="0.00 0.00 283.75 286.25" xmlns="http://www.w3.org/2000/svg" xmlns:xlink="http://www.w3.org/1999/xlink">

<svg id="main" version="1.1" xmlns="http://www.w3.org/2000/svg" xmlns:xlink="http://www.w3.org/1999/xlink" xml:space="preserve">

<style type="text/css"><![CDATA[
.node, .edge {opacity: 0.7;}
.node.selected, .edge.selected {opacity: 1;}
.edge:hover path { stroke: red; }
.edge:hover polygon { stroke: red; fill: red; }
]]></style>
<script type="application/ecmascript" xlink:href="../../svg.min.js"/>
<svg id="graph" class="graph">
<g id="graph0" class="graph" transform="scale(1 1) rotate(0) translate(4 282.25)">
<title>GetConnectedClient</title>
<!-- Node1 -->
<g id="Node000001" class="node">
<title>Node1</title>
<g id="a_Node000001"><a xlink:title=" ">
<polygon fill="#999999" stroke="#666666" points="104.5,-148.25 0,-148.25 0,-129 104.5,-129 104.5,-148.25"/>
<text text-anchor="middle" x="52.25" y="-134.75" font-family="Helvetica,sans-Serif" font-size="10.00">GetConnectedClient</text>
</a>
</g>
</g>
<!-- Node2 -->
<g id="Node000002" class="node">
<title>Node2</title>
<g id="a_Node000002"><a xlink:href="../../d2/dd1/class_api_client.html#ae22339e302eb27bc51fbdfc1b7c1a4ec" target="_top" xlink:title="Signal for a failed request sent to a Get endpoint.">
<polygon fill="white" stroke="#666666" points="268.25,-278.25 148,-278.25 148,-259 268.25,-259 268.25,-278.25"/>
<text text-anchor="middle" x="208.12" y="-264.75" font-family="Helvetica,sans-Serif" font-size="10.00">ApiClient::BadGetReply</text>
</a>
</g>
</g>
<!-- Node1&#45;&gt;Node2 -->
<g id="edge1_Node000001_Node000002" class="edge">
<title>Node1&#45;&gt;Node2</title>
<g id="a_edge1_Node000001_Node000002"><a xlink:title=" ">
<path fill="none" stroke="#63b8ff" d="M58.05,-148.44C69.28,-170.33 99.44,-223.34 140.5,-250.62 142.3,-251.82 144.17,-252.93 146.1,-253.97"/>
<polygon fill="#63b8ff" stroke="#63b8ff" points="144.21,-256.96 154.76,-257.96 147.14,-250.6 144.21,-256.96"/>
</a>
</g>
</g>
<!-- Node3 -->
<g id="Node000003" class="node">
<title>Node3</title>
<g id="a_Node000003"><a xlink:href="../../d2/dd1/class_api_client.html#ac0f68b238bace3703854d7de15a3bb38" target="_top" xlink:title="Signal for a failed request sent to a Post endpoint.">
<polygon fill="white" stroke="#666666" points="270.5,-241.25 145.75,-241.25 145.75,-222 270.5,-222 270.5,-241.25"/>
<text text-anchor="middle" x="208.12" y="-227.75" font-family="Helvetica,sans-Serif" font-size="10.00">ApiClient::BadPostReply</text>
</a>
</g>
</g>
<!-- Node1&#45;&gt;Node3 -->
<g id="edge2_Node000001_Node000003" class="edge">
<title>Node1&#45;&gt;Node3</title>
<g id="a_edge2_Node000001_Node000003"><a xlink:title=" ">
<path fill="none" stroke="#63b8ff" d="M62.12,-148.74C76.82,-164.87 107.84,-196.33 140.5,-213.62 143.19,-215.05 146,-216.37 148.88,-217.58"/>
<polygon fill="#63b8ff" stroke="#63b8ff" points="147.52,-220.81 158.11,-221.05 149.98,-214.26 147.52,-220.81"/>
</a>
</g>
</g>
<!-- Node4 -->
<g id="Node000004" class="node">
<title>Node4</title>
<g id="a_Node000004"><a xlink:href="../../d2/dd1/class_api_client.html#a940bf610f9fa472fc660e1ab60203de7" target="_top" xlink:title="Signal for a successful request sent to a Get endpoint.">
<polygon fill="white" stroke="#666666" points="271.25,-204.25 145,-204.25 145,-185 271.25,-185 271.25,-204.25"/>
<text text-anchor="middle" x="208.12" y="-190.75" font-family="Helvetica,sans-Serif" font-size="10.00">ApiClient::GoodGetReply</text>
</a>
</g>
</g>
<!-- Node1&#45;&gt;Node4 -->
<g id="edge3_Node000001_Node000004" class="edge">
<title>Node1&#45;&gt;Node4</title>
<g id="a_edge3_Node000001_Node000004"><a xlink:title=" ">
<path fill="none" stroke="#63b8ff" d="M74.06,-148.72C91.52,-156.94 117.27,-168.48 140.5,-176.62 145.21,-178.28 150.14,-179.87 155.11,-181.37"/>
<polygon fill="#63b8ff" stroke="#63b8ff" points="153.93,-184.67 164.51,-184.1 155.88,-177.95 153.93,-184.67"/>
</a>
</g>
</g>
<!-- Node5 -->
<g id="Node000005" class="node">
<title>Node5</title>
<g id="a_Node000005"><a xlink:href="../../d2/dd1/class_api_client.html#aa2e03a2c693acb0052f80415b453e279" target="_top" xlink:title="Signal for a successful request sent to a Post endpoint.">
<polygon fill="white" stroke="#666666" points="273.5,-167.25 142.75,-167.25 142.75,-148 273.5,-148 273.5,-167.25"/>
<text text-anchor="middle" x="208.12" y="-153.75" font-family="Helvetica,sans-Serif" font-size="10.00">ApiClient::GoodPostReply</text>
</a>
</g>
</g>
<!-- Node1&#45;&gt;Node5 -->
<g id="edge4_Node000001_Node000005" class="edge">
<title>Node1&#45;&gt;Node5</title>
<g id="a_edge4_Node000001_Node000005"><a xlink:title=" ">
<path fill="none" stroke="#63b8ff" d="M104.92,-145C113.39,-146.05 122.32,-147.15 131.23,-148.25"/>
<polygon fill="#63b8ff" stroke="#63b8ff" points="130.62,-151.7 140.97,-149.46 131.48,-144.76 130.62,-151.7"/>
</a>
</g>
</g>
<!-- Node6 -->
<g id="Node000006" class="node">
<title>Node6</title>
<g id="a_Node000006"><a xlink:href="../../d8/d80/src_2backend_2main_8cpp.html#a2bf8954f452b7b34c515bd1dbd5f6432" target="_top" xlink:title=" ">
<polygon fill="white" stroke="#666666" points="270.5,-130.25 145.75,-130.25 145.75,-111 270.5,-111 270.5,-130.25"/>
<text text-anchor="middle" x="208.12" y="-116.75" font-family="Helvetica,sans-Serif" font-size="10.00">OnBadGetResponseTest</text>
</a>
</g>
</g>
<!-- Node1&#45;&gt;Node6 -->
<g id="edge5_Node000001_Node000006" class="edge">
<title>Node1&#45;&gt;Node6</title>
<g id="a_edge5_Node000001_Node000006"><a xlink:title=" ">
<path fill="none" stroke="#63b8ff" d="M104.92,-132.58C114.37,-131.48 124.39,-130.3 134.32,-129.14"/>
<polygon fill="#63b8ff" stroke="#63b8ff" points="134.43,-132.65 143.96,-128.01 133.62,-125.7 134.43,-132.65"/>
</a>
</g>
</g>
<!-- Node7 -->
<g id="Node000007" class="node">
<title>Node7</title>
<g id="a_Node000007"><a xlink:href="../../d8/d80/src_2backend_2main_8cpp.html#a053bf2cadac23eba9b4db4e26ee9498e" target="_top" xlink:title=" ">
<polygon fill="white" stroke="#666666" points="272.75,-93.25 143.5,-93.25 143.5,-74 272.75,-74 272.75,-93.25"/>
<text text-anchor="middle" x="208.12" y="-79.75" font-family="Helvetica,sans-Serif" font-size="10.00">OnBadPostResponseTest</text>
</a>
</g>
</g>
<!-- Node1&#45;&gt;Node7 -->
<g id="edge6_Node000001_Node000007" class="edge">
<title>Node1&#45;&gt;Node7</title>
<g id="a_edge6_Node000001_Node000007"><a xlink:title=" ">
<path fill="none" stroke="#63b8ff" d="M74.8,-128.51C92.26,-120.55 117.64,-109.52 140.5,-101.62 145.28,-99.97 150.29,-98.38 155.34,-96.87"/>
<polygon fill="#63b8ff" stroke="#63b8ff" points="156.24,-100.25 164.88,-94.11 154.3,-93.52 156.24,-100.25"/>
</a>
</g>
</g>
<!-- Node8 -->
<g id="Node000008" class="node">
<title>Node8</title>
<g id="a_Node000008"><a xlink:href="../../d8/d80/src_2backend_2main_8cpp.html#a2f995475b829848fd01d70876f3dbe7a" target="_top" xlink:title=" ">
<polygon fill="white" stroke="#666666" points="273.5,-56.25 142.75,-56.25 142.75,-37 273.5,-37 273.5,-56.25"/>
<text text-anchor="middle" x="208.12" y="-42.75" font-family="Helvetica,sans-Serif" font-size="10.00">OnGoodGetResponseTest</text>
</a>
</g>
</g>
<!-- Node1&#45;&gt;Node8 -->
<g id="edge7_Node000001_Node000008" class="edge">
<title>Node1&#45;&gt;Node8</title>
<g id="a_edge7_Node000001_Node000008"><a xlink:title=" ">
<path fill="none" stroke="#63b8ff" d="M62.15,-128.65C76.89,-112.75 107.97,-81.71 140.5,-64.62 143.19,-63.21 146,-61.9 148.89,-60.69"/>
<polygon fill="#63b8ff" stroke="#63b8ff" points="149.99,-64.01 158.13,-57.23 147.54,-57.46 149.99,-64.01"/>
</a>
</g>
</g>
<!-- Node9 -->
<g id="Node000009" class="node">
<title>Node9</title>
<g id="a_Node000009"><a xlink:href="../../d8/d80/src_2backend_2main_8cpp.html#a148239a6f56d9c80d24ea359591b0a93" target="_top" xlink:title=" ">
<polygon fill="white" stroke="#666666" points="275.75,-19.25 140.5,-19.25 140.5,0 275.75,0 275.75,-19.25"/>
<text text-anchor="middle" x="208.12" y="-5.75" font-family="Helvetica,sans-Serif" font-size="10.00">OnGoodPostResponseTest</text>
</a>
</g>
</g>
<!-- Node1&#45;&gt;Node9 -->
<g id="edge8_Node000001_Node000009" class="edge">
<title>Node1&#45;&gt;Node9</title>
<g id="a_edge8_Node000001_Node000009"><a xlink:title=" ">
<path fill="none" stroke="#63b8ff" d="M58.25,-128.57C69.66,-106.68 99.81,-54.53 140.5,-27.62 142.3,-26.44 144.17,-25.32 146.11,-24.29"/>
<polygon fill="#63b8ff" stroke="#63b8ff" points="147.14,-27.66 154.77,-20.31 144.22,-21.3 147.14,-27.66"/>
</a>
</g>
</g>
</g>
</svg>
</svg>

<style type='text/css'>
<![CDATA[
[data-mouse-over-selected='false'] { opacity: 0.7; }
[data-mouse-over-selected='true']  { opacity: 1.0; }
]]>
</style>
<script type="application/ecmascript"><![CDATA[
document.addEventListener('DOMContentLoaded', (event) => {
  highlightEdges();
  highlightAdjacentNodes();
});
]]></script>
</svg>
