<?xml version="1.0" encoding="UTF-8" standalone="no"?>
<!DOCTYPE svg PUBLIC "-//W3C//DTD SVG 1.1//EN"
 "http://www.w3.org/Graphics/SVG/1.1/DTD/svg11.dtd">
<!-- Generated by graphviz version 12.2.1 (20241206.2353)
 -->
<!-- Title: /Users/gautam/Local/Forge/Team&#45;Alphawolves/2D&#45;Graphics&#45;Modeler/src/backend/ShapesManager.h Pages: 1 -->
<svg width="1964pt" height="337pt"
 viewBox="0.00 0.00 1964.00 337.25" xmlns="http://www.w3.org/2000/svg" xmlns:xlink="http://www.w3.org/1999/xlink">
<g id="graph0" class="graph" transform="scale(1 1) rotate(0) translate(4 333.25)">
<title>/Users/gautam/Local/Forge/Team&#45;Alphawolves/2D&#45;Graphics&#45;Modeler/src/backend/ShapesManager.h</title>
<!-- Node1 -->
<g id="Node000001" class="node">
<title>Node1</title>
<g id="a_Node000001"><a xlink:title=" ">
<polygon fill="#999999" stroke="#666666" points="693.38,-329.25 556.62,-329.25 556.62,-276.25 693.38,-276.25 693.38,-329.25"/>
<text text-anchor="start" x="564.62" y="-315.75" font-family="Helvetica,sans-Serif" font-size="10.00">/Users/gautam/Local</text>
<text text-anchor="start" x="564.62" y="-304.5" font-family="Helvetica,sans-Serif" font-size="10.00">/Forge/Team&#45;Alphawolves</text>
<text text-anchor="start" x="564.62" y="-293.25" font-family="Helvetica,sans-Serif" font-size="10.00">/2D&#45;Graphics&#45;Modeler/src</text>
<text text-anchor="middle" x="625" y="-282" font-family="Helvetica,sans-Serif" font-size="10.00">/backend/ShapesManager.h</text>
</a>
</g>
</g>
<!-- Node2 -->
<g id="Node000002" class="node">
<title>Node2</title>
<g id="a_Node000002"><a xlink:title=" ">
<polygon fill="#e0e0e0" stroke="#999999" points="52,-185 0,-185 0,-165.75 52,-165.75 52,-185"/>
<text text-anchor="middle" x="26" y="-171.5" font-family="Helvetica,sans-Serif" font-size="10.00">QObject</text>
</a>
</g>
</g>
<!-- Node1&#45;&gt;Node2 -->
<g id="edge1_Node000001_Node000002" class="edge">
<title>Node1&#45;&gt;Node2</title>
<g id="a_edge1_Node000001_Node000002"><a xlink:title=" ">
<path fill="none" stroke="#63b8ff" d="M556.23,-288.38C451.91,-267.9 247.17,-226.97 63.31,-185.46"/>
<polygon fill="#63b8ff" stroke="#63b8ff" points="64.35,-182.11 53.82,-183.31 62.8,-188.94 64.35,-182.11"/>
</a>
</g>
</g>
<!-- Node3 -->
<g id="Node000003" class="node">
<title>Node3</title>
<g id="a_Node000003"><a xlink:title=" ">
<polygon fill="#e0e0e0" stroke="#999999" points="634.5,-129.75 585.5,-129.75 585.5,-110.5 634.5,-110.5 634.5,-129.75"/>
<text text-anchor="middle" x="610" y="-116.25" font-family="Helvetica,sans-Serif" font-size="10.00">QString</text>
</a>
</g>
</g>
<!-- Node1&#45;&gt;Node3 -->
<g id="edge2_Node000001_Node000003" class="edge">
<title>Node1&#45;&gt;Node3</title>
<g id="a_edge2_Node000001_Node000003"><a xlink:title=" ">
<path fill="none" stroke="#63b8ff" d="M622.85,-275.87C619.83,-239.53 614.4,-174.14 611.67,-141.22"/>
<polygon fill="#63b8ff" stroke="#63b8ff" points="615.18,-141.16 610.86,-131.48 608.2,-141.74 615.18,-141.16"/>
</a>
</g>
</g>
<!-- Node4 -->
<g id="Node000004" class="node">
<title>Node4</title>
<g id="a_Node000004"><a xlink:title=" ">
<polygon fill="#e0e0e0" stroke="#999999" points="597,-240.25 545,-240.25 545,-221 597,-221 597,-240.25"/>
<text text-anchor="middle" x="571" y="-226.75" font-family="Helvetica,sans-Serif" font-size="10.00">QDebug</text>
</a>
</g>
</g>
<!-- Node1&#45;&gt;Node4 -->
<g id="edge3_Node000001_Node000004" class="edge">
<title>Node1&#45;&gt;Node4</title>
<g id="a_edge3_Node000001_Node000004"><a xlink:title=" ">
<path fill="none" stroke="#63b8ff" d="M605.2,-276.04C598.51,-267.35 591.19,-257.84 585.04,-249.86"/>
<polygon fill="#63b8ff" stroke="#63b8ff" points="587.81,-247.72 578.94,-241.94 582.27,-251.99 587.81,-247.72"/>
</a>
</g>
</g>
<!-- Node5 -->
<g id="Node000005" class="node">
<title>Node5</title>
<g id="a_Node000005"><a xlink:href="../../d3/dc3/_api_client_8h.html" target="_top" xlink:title="Implements the ApiClient class that makes API requests to the Crow Webservice.">
<polygon fill="white" stroke="#666666" points="445,-240.25 381,-240.25 381,-221 445,-221 445,-240.25"/>
<text text-anchor="middle" x="413" y="-226.75" font-family="Helvetica,sans-Serif" font-size="10.00">ApiClient.h</text>
</a>
</g>
</g>
<!-- Node1&#45;&gt;Node5 -->
<g id="edge4_Node000001_Node000005" class="edge">
<title>Node1&#45;&gt;Node5</title>
<g id="a_edge4_Node000001_Node000005"><a xlink:title=" ">
<path fill="none" stroke="#63b8ff" d="M556.17,-278.98C521.22,-267.42 480.1,-253.82 450.91,-244.17"/>
<polygon fill="#63b8ff" stroke="#63b8ff" points="452.38,-240.96 441.79,-241.15 450.18,-247.61 452.38,-240.96"/>
</a>
</g>
</g>
<!-- Node11 -->
<g id="Node000011" class="node">
<title>Node11</title>
<g id="a_Node000011"><a xlink:href="../../de/d40/_parser_8h.html" target="_top" xlink:title=" ">
<polygon fill="white" stroke="#666666" points="1018,-240.25 966,-240.25 966,-221 1018,-221 1018,-240.25"/>
<text text-anchor="middle" x="992" y="-226.75" font-family="Helvetica,sans-Serif" font-size="10.00">Parser.h</text>
</a>
</g>
</g>
<!-- Node1&#45;&gt;Node11 -->
<g id="edge12_Node000001_Node000011" class="edge">
<title>Node1&#45;&gt;Node11</title>
<g id="a_edge12_Node000001_Node000011"><a xlink:title=" ">
<path fill="none" stroke="#63b8ff" d="M693.6,-288.64C770.78,-273.89 893.35,-250.48 954.59,-238.77"/>
<polygon fill="#63b8ff" stroke="#63b8ff" points="954.99,-242.26 964.15,-236.95 953.67,-235.38 954.99,-242.26"/>
</a>
</g>
</g>
<!-- Node19 -->
<g id="Node000019" class="node">
<title>Node19</title>
<g id="a_Node000019"><a xlink:href="../../d6/d68/vector_8h.html" target="_top" xlink:title=" ">
<polygon fill="white" stroke="#666666" points="1956,-19.25 1862,-19.25 1862,0 1956,0 1956,-19.25"/>
<text text-anchor="middle" x="1909" y="-5.75" font-family="Helvetica,sans-Serif" font-size="10.00">../objects/vector.h</text>
</a>
</g>
</g>
<!-- Node1&#45;&gt;Node19 -->
<g id="edge61_Node000001_Node000019" class="edge">
<title>Node1&#45;&gt;Node19</title>
<g id="a_edge61_Node000001_Node000019"><a xlink:title=" ">
<path fill="none" stroke="#63b8ff" d="M693.58,-302.32C959.66,-303.62 1909,-299.63 1909,-176.38 1909,-176.38 1909,-176.38 1909,-119.12 1909,-88.41 1909,-52.8 1909,-30.99"/>
<polygon fill="#63b8ff" stroke="#63b8ff" points="1912.5,-31.14 1909,-21.14 1905.5,-31.14 1912.5,-31.14"/>
</a>
</g>
</g>
<!-- Node20 -->
<g id="Node000020" class="node">
<title>Node20</title>
<g id="a_Node000020"><a xlink:href="../../dc/d12/all__shapes_8h.html" target="_top" xlink:title=" ">
<polygon fill="white" stroke="#666666" points="1558.12,-185 1443.88,-185 1443.88,-165.75 1558.12,-165.75 1558.12,-185"/>
<text text-anchor="middle" x="1501" y="-171.5" font-family="Helvetica,sans-Serif" font-size="10.00">../objects/all_shapes.h</text>
</a>
</g>
</g>
<!-- Node1&#45;&gt;Node20 -->
<g id="edge60_Node000001_Node000020" class="edge">
<title>Node1&#45;&gt;Node20</title>
<g id="a_edge60_Node000001_Node000020"><a xlink:title=" ">
<path fill="none" stroke="#63b8ff" d="M693.74,-291.91C857.4,-268.49 1268.67,-209.63 1432.29,-186.21"/>
<polygon fill="#63b8ff" stroke="#63b8ff" points="1432.74,-189.68 1442.14,-184.8 1431.75,-182.75 1432.74,-189.68"/>
</a>
</g>
</g>
<!-- Node5&#45;&gt;Node2 -->
<g id="edge5_Node000005_Node000002" class="edge">
<title>Node5&#45;&gt;Node2</title>
<g id="a_edge5_Node000005_Node000002"><a xlink:title=" ">
<path fill="none" stroke="#63b8ff" d="M380.78,-226.8C320.42,-221.23 186.06,-207.57 63.38,-185.25"/>
<polygon fill="#63b8ff" stroke="#63b8ff" points="64.26,-181.85 53.79,-183.48 62.99,-188.73 64.26,-181.85"/>
</a>
</g>
</g>
<!-- Node5&#45;&gt;Node3 -->
<g id="edge11_Node000005_Node000003" class="edge">
<title>Node5&#45;&gt;Node3</title>
<g id="a_edge11_Node000005_Node000003"><a xlink:title=" ">
<path fill="none" stroke="#63b8ff" d="M445.31,-226.74C478.58,-222.38 530.57,-211.57 567,-185 582.68,-173.56 594.41,-154.55 601.62,-140.24"/>
<polygon fill="#63b8ff" stroke="#63b8ff" points="604.7,-141.91 605.78,-131.37 598.36,-138.94 604.7,-141.91"/>
</a>
</g>
</g>
<!-- Node6 -->
<g id="Node000006" class="node">
<title>Node6</title>
<g id="a_Node000006"><a xlink:title=" ">
<polygon fill="#e0e0e0" stroke="#999999" points="200.38,-185 69.62,-185 69.62,-165.75 200.38,-165.75 200.38,-185"/>
<text text-anchor="middle" x="135" y="-171.5" font-family="Helvetica,sans-Serif" font-size="10.00">QNetworkAccessManager</text>
</a>
</g>
</g>
<!-- Node5&#45;&gt;Node6 -->
<g id="edge6_Node000005_Node000006" class="edge">
<title>Node5&#45;&gt;Node6</title>
<g id="a_edge6_Node000005_Node000006"><a xlink:title=" ">
<path fill="none" stroke="#63b8ff" d="M380.57,-223.41C334.78,-214.64 250.43,-198.49 193.53,-187.59"/>
<polygon fill="#63b8ff" stroke="#63b8ff" points="194.5,-184.21 184.02,-185.76 193.18,-191.08 194.5,-184.21"/>
</a>
</g>
</g>
<!-- Node7 -->
<g id="Node000007" class="node">
<title>Node7</title>
<g id="a_Node000007"><a xlink:title=" ">
<polygon fill="#e0e0e0" stroke="#999999" points="303.88,-185 218.12,-185 218.12,-165.75 303.88,-165.75 303.88,-185"/>
<text text-anchor="middle" x="261" y="-171.5" font-family="Helvetica,sans-Serif" font-size="10.00">QNetworkReply</text>
</a>
</g>
</g>
<!-- Node5&#45;&gt;Node7 -->
<g id="edge7_Node000005_Node000007" class="edge">
<title>Node5&#45;&gt;Node7</title>
<g id="a_edge7_Node000005_Node000007"><a xlink:title=" ">
<path fill="none" stroke="#63b8ff" d="M387.22,-220.59C362.65,-211.99 325.41,-198.94 297.74,-189.25"/>
<polygon fill="#63b8ff" stroke="#63b8ff" points="298.93,-185.96 288.34,-185.95 296.62,-192.56 298.93,-185.96"/>
</a>
</g>
</g>
<!-- Node8 -->
<g id="Node000008" class="node">
<title>Node8</title>
<g id="a_Node000008"><a xlink:title=" ">
<polygon fill="#e0e0e0" stroke="#999999" points="418.5,-185 321.5,-185 321.5,-165.75 418.5,-165.75 418.5,-185"/>
<text text-anchor="middle" x="370" y="-171.5" font-family="Helvetica,sans-Serif" font-size="10.00">QNetworkRequest</text>
</a>
</g>
</g>
<!-- Node5&#45;&gt;Node8 -->
<g id="edge8_Node000005_Node000008" class="edge">
<title>Node5&#45;&gt;Node8</title>
<g id="a_edge8_Node000005_Node000008"><a xlink:title=" ">
<path fill="none" stroke="#63b8ff" d="M405.9,-220.83C400.08,-213.63 391.67,-203.21 384.44,-194.26"/>
<polygon fill="#63b8ff" stroke="#63b8ff" points="387.21,-192.12 378.21,-186.54 381.77,-196.52 387.21,-192.12"/>
</a>
</g>
</g>
<!-- Node9 -->
<g id="Node000009" class="node">
<title>Node9</title>
<g id="a_Node000009"><a xlink:title=" ">
<polygon fill="#e0e0e0" stroke="#999999" points="473.12,-185 436.88,-185 436.88,-165.75 473.12,-165.75 473.12,-185"/>
<text text-anchor="middle" x="455" y="-171.5" font-family="Helvetica,sans-Serif" font-size="10.00">QUrl</text>
</a>
</g>
</g>
<!-- Node5&#45;&gt;Node9 -->
<g id="edge9_Node000005_Node000009" class="edge">
<title>Node5&#45;&gt;Node9</title>
<g id="a_edge9_Node000005_Node000009"><a xlink:title=" ">
<path fill="none" stroke="#63b8ff" d="M419.94,-220.83C425.62,-213.63 433.84,-203.21 440.89,-194.26"/>
<polygon fill="#63b8ff" stroke="#63b8ff" points="443.53,-196.57 446.98,-186.55 438.04,-192.23 443.53,-196.57"/>
</a>
</g>
</g>
<!-- Node10 -->
<g id="Node000010" class="node">
<title>Node10</title>
<g id="a_Node000010"><a xlink:title=" ">
<polygon fill="#e0e0e0" stroke="#999999" points="558.5,-185 491.5,-185 491.5,-165.75 558.5,-165.75 558.5,-185"/>
<text text-anchor="middle" x="525" y="-171.5" font-family="Helvetica,sans-Serif" font-size="10.00">QByteArray</text>
</a>
</g>
</g>
<!-- Node5&#45;&gt;Node10 -->
<g id="edge10_Node000005_Node000010" class="edge">
<title>Node5&#45;&gt;Node10</title>
<g id="a_edge10_Node000005_Node000010"><a xlink:title=" ">
<path fill="none" stroke="#63b8ff" d="M432,-220.59C449.46,-212.29 475.6,-199.86 495.72,-190.29"/>
<polygon fill="#63b8ff" stroke="#63b8ff" points="497.01,-193.56 504.54,-186.1 494.01,-187.24 497.01,-193.56"/>
</a>
</g>
</g>
<!-- Node12 -->
<g id="Node000012" class="node">
<title>Node12</title>
<g id="a_Node000012"><a xlink:title=" ">
<polygon fill="#e0e0e0" stroke="#999999" points="744.75,-185 691.25,-185 691.25,-165.75 744.75,-165.75 744.75,-185"/>
<text text-anchor="middle" x="718" y="-171.5" font-family="Helvetica,sans-Serif" font-size="10.00">iostream</text>
</a>
</g>
</g>
<!-- Node11&#45;&gt;Node12 -->
<g id="edge13_Node000011_Node000012" class="edge">
<title>Node11&#45;&gt;Node12</title>
<g id="a_edge13_Node000011_Node000012"><a xlink:title=" ">
<path fill="none" stroke="#63b8ff" d="M965.73,-225.23C923.56,-218.05 837.91,-203.05 756.32,-185.63"/>
<polygon fill="#63b8ff" stroke="#63b8ff" points="757.09,-182.22 746.58,-183.53 755.62,-189.06 757.09,-182.22"/>
</a>
</g>
</g>
<!-- Node13 -->
<g id="Node000013" class="node">
<title>Node13</title>
<g id="a_Node000013"><a xlink:title=" ">
<polygon fill="#e0e0e0" stroke="#999999" points="807.62,-185 762.38,-185 762.38,-165.75 807.62,-165.75 807.62,-185"/>
<text text-anchor="middle" x="785" y="-171.5" font-family="Helvetica,sans-Serif" font-size="10.00">cctype</text>
</a>
</g>
</g>
<!-- Node11&#45;&gt;Node13 -->
<g id="edge14_Node000011_Node000013" class="edge">
<title>Node11&#45;&gt;Node13</title>
<g id="a_edge14_Node000011_Node000013"><a xlink:title=" ">
<path fill="none" stroke="#63b8ff" d="M965.58,-223.01C933.31,-214.9 876.75,-200.6 818.88,-185.47"/>
<polygon fill="#63b8ff" stroke="#63b8ff" points="820.09,-182.16 809.53,-183.01 818.31,-188.94 820.09,-182.16"/>
</a>
</g>
</g>
<!-- Node14 -->
<g id="Node000014" class="node">
<title>Node14</title>
<g id="a_Node000014"><a xlink:title=" ">
<polygon fill="#e0e0e0" stroke="#999999" points="878,-185 826,-185 826,-165.75 878,-165.75 878,-185"/>
<text text-anchor="middle" x="852" y="-171.5" font-family="Helvetica,sans-Serif" font-size="10.00">QVector</text>
</a>
</g>
</g>
<!-- Node11&#45;&gt;Node14 -->
<g id="edge15_Node000011_Node000014" class="edge">
<title>Node11&#45;&gt;Node14</title>
<g id="a_edge15_Node000011_Node000014"><a xlink:title=" ">
<path fill="none" stroke="#63b8ff" d="M968.25,-220.59C945.83,-212.06 911.94,-199.17 886.53,-189.51"/>
<polygon fill="#63b8ff" stroke="#63b8ff" points="887.87,-186.27 877.28,-185.99 885.38,-192.82 887.87,-186.27"/>
</a>
</g>
</g>
<!-- Node15 -->
<g id="Node000015" class="node">
<title>Node15</title>
<g id="a_Node000015"><a xlink:title=" ">
<polygon fill="#e0e0e0" stroke="#999999" points="985.75,-185 896.25,-185 896.25,-165.75 985.75,-165.75 985.75,-185"/>
<text text-anchor="middle" x="941" y="-171.5" font-family="Helvetica,sans-Serif" font-size="10.00">QJsonDocument</text>
</a>
</g>
</g>
<!-- Node11&#45;&gt;Node15 -->
<g id="edge16_Node000011_Node000015" class="edge">
<title>Node11&#45;&gt;Node15</title>
<g id="a_edge16_Node000011_Node000015"><a xlink:title=" ">
<path fill="none" stroke="#63b8ff" d="M983.58,-220.83C976.46,-213.4 966.06,-202.54 957.31,-193.41"/>
<polygon fill="#63b8ff" stroke="#63b8ff" points="960.1,-191.25 950.65,-186.45 955.04,-196.1 960.1,-191.25"/>
</a>
</g>
</g>
<!-- Node16 -->
<g id="Node000016" class="node">
<title>Node16</title>
<g id="a_Node000016"><a xlink:title=" ">
<polygon fill="#e0e0e0" stroke="#999999" points="984.88,-129.75 917.12,-129.75 917.12,-110.5 984.88,-110.5 984.88,-129.75"/>
<text text-anchor="middle" x="951" y="-116.25" font-family="Helvetica,sans-Serif" font-size="10.00">QJsonArray</text>
</a>
</g>
</g>
<!-- Node11&#45;&gt;Node16 -->
<g id="edge17_Node000011_Node000016" class="edge">
<title>Node11&#45;&gt;Node16</title>
<g id="a_edge17_Node000011_Node000016"><a xlink:title=" ">
<path fill="none" stroke="#63b8ff" d="M1018.29,-224.38C1055.47,-215.74 1116.53,-196.38 1094,-165.75 1087.97,-157.56 1035.92,-142.71 996.34,-132.41"/>
<polygon fill="#63b8ff" stroke="#63b8ff" points="997.32,-129.05 986.76,-129.94 995.57,-135.83 997.32,-129.05"/>
</a>
</g>
</g>
<!-- Node17 -->
<g id="Node000017" class="node">
<title>Node17</title>
<g id="a_Node000017"><a xlink:title=" ">
<polygon fill="#e0e0e0" stroke="#999999" points="1246.5,-129.75 1173.5,-129.75 1173.5,-110.5 1246.5,-110.5 1246.5,-129.75"/>
<text text-anchor="middle" x="1210" y="-116.25" font-family="Helvetica,sans-Serif" font-size="10.00">QJsonObject</text>
</a>
</g>
</g>
<!-- Node11&#45;&gt;Node17 -->
<g id="edge18_Node000011_Node000017" class="edge">
<title>Node11&#45;&gt;Node17</title>
<g id="a_edge18_Node000011_Node000017"><a xlink:title=" ">
<path fill="none" stroke="#63b8ff" d="M1018.35,-228.61C1073.5,-225.88 1198.14,-216.31 1224,-185 1234.38,-172.43 1228.71,-153.86 1221.73,-139.98"/>
<polygon fill="#63b8ff" stroke="#63b8ff" points="1224.84,-138.37 1216.88,-131.38 1218.74,-141.81 1224.84,-138.37"/>
</a>
</g>
</g>
<!-- Node18 -->
<g id="Node000018" class="node">
<title>Node18</title>
<g id="a_Node000018"><a xlink:title=" ">
<polygon fill="#e0e0e0" stroke="#999999" points="926,-19.25 886,-19.25 886,0 926,0 926,-19.25"/>
<text text-anchor="middle" x="906" y="-5.75" font-family="Helvetica,sans-Serif" font-size="10.00">string</text>
</a>
</g>
</g>
<!-- Node11&#45;&gt;Node18 -->
<g id="edge19_Node000011_Node000018" class="edge">
<title>Node11&#45;&gt;Node18</title>
<g id="a_edge19_Node000011_Node000018"><a xlink:title=" ">
<path fill="none" stroke="#63b8ff" d="M965.83,-230.02C897.92,-230.45 718.76,-227.43 682,-185 615.85,-108.65 799.24,-42.77 874.97,-19.55"/>
<polygon fill="#63b8ff" stroke="#63b8ff" points="875.71,-22.98 884.28,-16.75 873.7,-16.27 875.71,-22.98"/>
</a>
</g>
</g>
<!-- Node11&#45;&gt;Node19 -->
<g id="edge20_Node000011_Node000019" class="edge">
<title>Node11&#45;&gt;Node19</title>
<g id="a_edge20_Node000011_Node000019"><a xlink:title=" ">
<path fill="none" stroke="#63b8ff" d="M1018.26,-230.1C1147.74,-231.92 1717.31,-233.85 1852,-129.75 1868.74,-116.82 1890.96,-60.65 1902.06,-30.28"/>
<polygon fill="#63b8ff" stroke="#63b8ff" points="1905.26,-31.73 1905.35,-21.14 1898.67,-29.37 1905.26,-31.73"/>
</a>
</g>
</g>
<!-- Node11&#45;&gt;Node20 -->
<g id="edge21_Node000011_Node000020" class="edge">
<title>Node11&#45;&gt;Node20</title>
<g id="a_edge21_Node000011_Node000020"><a xlink:title=" ">
<path fill="none" stroke="#63b8ff" d="M1018.29,-226.87C1094.66,-218.89 1318.23,-195.5 1432.32,-183.56"/>
<polygon fill="#63b8ff" stroke="#63b8ff" points="1432.59,-187.05 1442.17,-182.53 1431.86,-180.09 1432.59,-187.05"/>
</a>
</g>
</g>
<!-- Node40 -->
<g id="Node000040" class="node">
<title>Node40</title>
<g id="a_Node000040"><a xlink:href="../../d9/d9f/_user_account_8h.html" target="_top" xlink:title=" ">
<polygon fill="white" stroke="#666666" points="1084.62,-185 1003.38,-185 1003.38,-165.75 1084.62,-165.75 1084.62,-185"/>
<text text-anchor="middle" x="1044" y="-171.5" font-family="Helvetica,sans-Serif" font-size="10.00">UserAccount.h</text>
</a>
</g>
</g>
<!-- Node11&#45;&gt;Node40 -->
<g id="edge51_Node000011_Node000040" class="edge">
<title>Node11&#45;&gt;Node40</title>
<g id="a_edge51_Node000011_Node000040"><a xlink:title=" ">
<path fill="none" stroke="#63b8ff" d="M1000.59,-220.83C1007.84,-213.4 1018.45,-202.54 1027.37,-193.41"/>
<polygon fill="#63b8ff" stroke="#63b8ff" points="1029.69,-196.04 1034.17,-186.44 1024.68,-191.15 1029.69,-196.04"/>
</a>
</g>
</g>
<!-- Node42 -->
<g id="Node000042" class="node">
<title>Node42</title>
<g id="a_Node000042"><a xlink:href="../../d5/d2a/_testimonial_8h.html" target="_top" xlink:title=" ">
<polygon fill="white" stroke="#666666" points="1214.88,-185 1141.12,-185 1141.12,-165.75 1214.88,-165.75 1214.88,-185"/>
<text text-anchor="middle" x="1178" y="-171.5" font-family="Helvetica,sans-Serif" font-size="10.00">Testimonial.h</text>
</a>
</g>
</g>
<!-- Node11&#45;&gt;Node42 -->
<g id="edge54_Node000011_Node000042" class="edge">
<title>Node11&#45;&gt;Node42</title>
<g id="a_edge54_Node000011_Node000042"><a xlink:title=" ">
<path fill="none" stroke="#63b8ff" d="M1018.25,-222.11C1048.75,-213.38 1099.47,-198.86 1135.58,-188.52"/>
<polygon fill="#63b8ff" stroke="#63b8ff" points="1136.17,-191.99 1144.82,-185.87 1134.24,-185.26 1136.17,-191.99"/>
</a>
</g>
</g>
<!-- Node21 -->
<g id="Node000021" class="node">
<title>Node21</title>
<g id="a_Node000021"><a xlink:href="../../d3/db6/circle_8h.html" target="_top" xlink:title=" ">
<polygon fill="white" stroke="#666666" points="1524.75,-129.75 1477.25,-129.75 1477.25,-110.5 1524.75,-110.5 1524.75,-129.75"/>
<text text-anchor="middle" x="1501" y="-116.25" font-family="Helvetica,sans-Serif" font-size="10.00">circle.h</text>
</a>
</g>
</g>
<!-- Node20&#45;&gt;Node21 -->
<g id="edge22_Node000020_Node000021" class="edge">
<title>Node20&#45;&gt;Node21</title>
<g id="a_edge22_Node000020_Node000021"><a xlink:title=" ">
<path fill="none" stroke="#63b8ff" d="M1501,-165.58C1501,-159.07 1501,-149.92 1501,-141.62"/>
<polygon fill="#63b8ff" stroke="#63b8ff" points="1504.5,-141.62 1501,-131.62 1497.5,-141.62 1504.5,-141.62"/>
</a>
</g>
</g>
<!-- Node22 -->
<g id="Node000022" class="node">
<title>Node22</title>
<g id="a_Node000022"><a xlink:href="../../da/d18/shape_8h.html" target="_top" xlink:title=" ">
<polygon fill="white" stroke="#666666" points="1526.25,-74.5 1475.75,-74.5 1475.75,-55.25 1526.25,-55.25 1526.25,-74.5"/>
<text text-anchor="middle" x="1501" y="-61" font-family="Helvetica,sans-Serif" font-size="10.00">shape.h</text>
</a>
</g>
</g>
<!-- Node20&#45;&gt;Node22 -->
<g id="edge46_Node000020_Node000022" class="edge">
<title>Node20&#45;&gt;Node22</title>
<g id="a_edge46_Node000020_Node000022"><a xlink:title=" ">
<path fill="none" stroke="#63b8ff" d="M1510.33,-165.48C1518.36,-157.13 1529.36,-143.84 1534,-129.75 1539.42,-113.31 1529.29,-95.94 1518.86,-83.47"/>
<polygon fill="#63b8ff" stroke="#63b8ff" points="1521.44,-81.11 1512.1,-76.1 1516.28,-85.84 1521.44,-81.11"/>
</a>
</g>
</g>
<!-- Node33 -->
<g id="Node000033" class="node">
<title>Node33</title>
<g id="a_Node000033"><a xlink:href="../../da/dbf/ellipse_8h.html" target="_top" xlink:title=" ">
<polygon fill="white" stroke="#666666" points="1633,-129.75 1581,-129.75 1581,-110.5 1633,-110.5 1633,-129.75"/>
<text text-anchor="middle" x="1607" y="-116.25" font-family="Helvetica,sans-Serif" font-size="10.00">ellipse.h</text>
</a>
</g>
</g>
<!-- Node20&#45;&gt;Node33 -->
<g id="edge36_Node000020_Node000033" class="edge">
<title>Node20&#45;&gt;Node33</title>
<g id="a_edge36_Node000020_Node000033"><a xlink:title=" ">
<path fill="none" stroke="#63b8ff" d="M1518.98,-165.34C1535.35,-157.12 1559.79,-144.84 1578.76,-135.31"/>
<polygon fill="#63b8ff" stroke="#63b8ff" points="1580.21,-138.5 1587.58,-130.88 1577.07,-132.24 1580.21,-138.5"/>
</a>
</g>
</g>
<!-- Node34 -->
<g id="Node000034" class="node">
<title>Node34</title>
<g id="a_Node000034"><a xlink:href="../../d7/d5d/line_8h.html" target="_top" xlink:title=" ">
<polygon fill="white" stroke="#666666" points="1690.62,-129.75 1651.38,-129.75 1651.38,-110.5 1690.62,-110.5 1690.62,-129.75"/>
<text text-anchor="middle" x="1671" y="-116.25" font-family="Helvetica,sans-Serif" font-size="10.00">line.h</text>
</a>
</g>
</g>
<!-- Node20&#45;&gt;Node34 -->
<g id="edge38_Node000020_Node000034" class="edge">
<title>Node20&#45;&gt;Node34</title>
<g id="a_edge38_Node000020_Node000034"><a xlink:title=" ">
<path fill="none" stroke="#63b8ff" d="M1529.84,-165.34C1560.55,-155.72 1608.96,-140.56 1640.35,-130.73"/>
<polygon fill="#63b8ff" stroke="#63b8ff" points="1641.14,-134.15 1649.63,-127.82 1639.04,-127.47 1641.14,-134.15"/>
</a>
</g>
</g>
<!-- Node35 -->
<g id="Node000035" class="node">
<title>Node35</title>
<g id="a_Node000035"><a xlink:href="../../dc/db6/polygon_8h.html" target="_top" xlink:title=" ">
<polygon fill="white" stroke="#666666" points="1767,-129.75 1709,-129.75 1709,-110.5 1767,-110.5 1767,-129.75"/>
<text text-anchor="middle" x="1738" y="-116.25" font-family="Helvetica,sans-Serif" font-size="10.00">polygon.h</text>
</a>
</g>
</g>
<!-- Node20&#45;&gt;Node35 -->
<g id="edge40_Node000020_Node000035" class="edge">
<title>Node20&#45;&gt;Node35</title>
<g id="a_edge40_Node000020_Node000035"><a xlink:title=" ">
<path fill="none" stroke="#63b8ff" d="M1541.79,-165.26C1579.66,-156.79 1637.92,-143.74 1697.42,-130.33"/>
<polygon fill="#63b8ff" stroke="#63b8ff" points="1698.08,-133.77 1707.07,-128.15 1696.54,-126.94 1698.08,-133.77"/>
</a>
</g>
</g>
<!-- Node36 -->
<g id="Node000036" class="node">
<title>Node36</title>
<g id="a_Node000036"><a xlink:href="../../d0/ddf/polyline_8h.html" target="_top" xlink:title=" ">
<polygon fill="white" stroke="#666666" points="1842.62,-129.75 1785.38,-129.75 1785.38,-110.5 1842.62,-110.5 1842.62,-129.75"/>
<text text-anchor="middle" x="1814" y="-116.25" font-family="Helvetica,sans-Serif" font-size="10.00">polyline.h</text>
</a>
</g>
</g>
<!-- Node20&#45;&gt;Node36 -->
<g id="edge42_Node000020_Node000036" class="edge">
<title>Node20&#45;&gt;Node36</title>
<g id="a_edge42_Node000020_Node000036"><a xlink:title=" ">
<path fill="none" stroke="#63b8ff" d="M1558.6,-166.1C1611.97,-158.18 1693.81,-145.44 1774.18,-130"/>
<polygon fill="#63b8ff" stroke="#63b8ff" points="1774.36,-133.53 1783.51,-128.19 1773.02,-126.66 1774.36,-133.53"/>
</a>
</g>
</g>
<!-- Node37 -->
<g id="Node000037" class="node">
<title>Node37</title>
<g id="a_Node000037"><a xlink:href="../../db/dd0/rectangle_8h.html" target="_top" xlink:title=" ">
<polygon fill="white" stroke="#666666" points="1329,-129.75 1265,-129.75 1265,-110.5 1329,-110.5 1329,-129.75"/>
<text text-anchor="middle" x="1297" y="-116.25" font-family="Helvetica,sans-Serif" font-size="10.00">rectangle.h</text>
</a>
</g>
</g>
<!-- Node20&#45;&gt;Node37 -->
<g id="edge44_Node000020_Node000037" class="edge">
<title>Node20&#45;&gt;Node37</title>
<g id="a_edge44_Node000020_Node000037"><a xlink:title=" ">
<path fill="none" stroke="#63b8ff" d="M1466.39,-165.34C1431.68,-156.28 1378.11,-142.3 1340.53,-132.49"/>
<polygon fill="#63b8ff" stroke="#63b8ff" points="1341.44,-129.11 1330.88,-129.97 1339.67,-135.88 1341.44,-129.11"/>
</a>
</g>
</g>
<!-- Node38 -->
<g id="Node000038" class="node">
<title>Node38</title>
<g id="a_Node000038"><a xlink:href="../../d7/d3c/square_8h.html" target="_top" xlink:title=" ">
<polygon fill="white" stroke="#666666" points="1400.75,-129.75 1347.25,-129.75 1347.25,-110.5 1400.75,-110.5 1400.75,-129.75"/>
<text text-anchor="middle" x="1374" y="-116.25" font-family="Helvetica,sans-Serif" font-size="10.00">square.h</text>
</a>
</g>
</g>
<!-- Node20&#45;&gt;Node38 -->
<g id="edge47_Node000020_Node000038" class="edge">
<title>Node20&#45;&gt;Node38</title>
<g id="a_edge47_Node000020_Node000038"><a xlink:title=" ">
<path fill="none" stroke="#63b8ff" d="M1479.46,-165.34C1459.39,-156.93 1429.2,-144.27 1406.25,-134.65"/>
<polygon fill="#63b8ff" stroke="#63b8ff" points="1407.62,-131.43 1397.05,-130.79 1404.91,-137.88 1407.62,-131.43"/>
</a>
</g>
</g>
<!-- Node39 -->
<g id="Node000039" class="node">
<title>Node39</title>
<g id="a_Node000039"><a xlink:href="../../d9/dcc/text_8h.html" target="_top" xlink:title=" ">
<polygon fill="white" stroke="#666666" points="1459.38,-129.75 1418.62,-129.75 1418.62,-110.5 1459.38,-110.5 1459.38,-129.75"/>
<text text-anchor="middle" x="1439" y="-116.25" font-family="Helvetica,sans-Serif" font-size="10.00">text.h</text>
</a>
</g>
</g>
<!-- Node20&#45;&gt;Node39 -->
<g id="edge49_Node000020_Node000039" class="edge">
<title>Node20&#45;&gt;Node39</title>
<g id="a_edge49_Node000020_Node000039"><a xlink:title=" ">
<path fill="none" stroke="#63b8ff" d="M1490.48,-165.34C1481.61,-157.72 1468.69,-146.62 1458.01,-137.45"/>
<polygon fill="#63b8ff" stroke="#63b8ff" points="1460.38,-134.87 1450.51,-131.01 1455.82,-140.18 1460.38,-134.87"/>
</a>
</g>
</g>
<!-- Node21&#45;&gt;Node22 -->
<g id="edge23_Node000021_Node000022" class="edge">
<title>Node21&#45;&gt;Node22</title>
<g id="a_edge23_Node000021_Node000022"><a xlink:title=" ">
<path fill="none" stroke="#63b8ff" d="M1501,-110.33C1501,-103.82 1501,-94.67 1501,-86.37"/>
<polygon fill="#63b8ff" stroke="#63b8ff" points="1504.5,-86.37 1501,-76.37 1497.5,-86.37 1504.5,-86.37"/>
</a>
</g>
</g>
<!-- Node22&#45;&gt;Node18 -->
<g id="edge24_Node000022_Node000018" class="edge">
<title>Node22&#45;&gt;Node18</title>
<g id="a_edge24_Node000022_Node000018"><a xlink:title=" ">
<path fill="none" stroke="#63b8ff" d="M1475.43,-61.59C1379.79,-53.03 1043.19,-22.9 937.8,-13.47"/>
<polygon fill="#63b8ff" stroke="#63b8ff" points="938.17,-9.99 927.9,-12.59 937.55,-16.96 938.17,-9.99"/>
</a>
</g>
</g>
<!-- Node22&#45;&gt;Node19 -->
<g id="edge35_Node000022_Node000019" class="edge">
<title>Node22&#45;&gt;Node19</title>
<g id="a_edge35_Node000022_Node000019"><a xlink:title=" ">
<path fill="none" stroke="#63b8ff" d="M1526.65,-60.86C1583.13,-54.17 1722.78,-37.36 1850.52,-19.57"/>
<polygon fill="#63b8ff" stroke="#63b8ff" points="1850.74,-23.07 1860.16,-18.22 1849.77,-16.14 1850.74,-23.07"/>
</a>
</g>
</g>
<!-- Node23 -->
<g id="Node000023" class="node">
<title>Node23</title>
<g id="a_Node000023"><a xlink:title=" ">
<polygon fill="#e0e0e0" stroke="#999999" points="1771.5,-19.25 1728.5,-19.25 1728.5,0 1771.5,0 1771.5,-19.25"/>
<text text-anchor="middle" x="1750" y="-5.75" font-family="Helvetica,sans-Serif" font-size="10.00">cmath</text>
</a>
</g>
</g>
<!-- Node22&#45;&gt;Node23 -->
<g id="edge25_Node000022_Node000023" class="edge">
<title>Node22&#45;&gt;Node23</title>
<g id="a_edge25_Node000022_Node000023"><a xlink:title=" ">
<path fill="none" stroke="#63b8ff" d="M1526.63,-59.23C1565.59,-52.03 1642.27,-37.37 1717.02,-19.59"/>
<polygon fill="#63b8ff" stroke="#63b8ff" points="1717.66,-23.03 1726.56,-17.29 1716.02,-16.23 1717.66,-23.03"/>
</a>
</g>
</g>
<!-- Node24 -->
<g id="Node000024" class="node">
<title>Node24</title>
<g id="a_Node000024"><a xlink:title=" ">
<polygon fill="#e0e0e0" stroke="#999999" points="1844.12,-19.25 1789.88,-19.25 1789.88,0 1844.12,0 1844.12,-19.25"/>
<text text-anchor="middle" x="1817" y="-5.75" font-family="Helvetica,sans-Serif" font-size="10.00">QWidget</text>
</a>
</g>
</g>
<!-- Node22&#45;&gt;Node24 -->
<g id="edge26_Node000022_Node000024" class="edge">
<title>Node22&#45;&gt;Node24</title>
<g id="a_edge26_Node000022_Node000024"><a xlink:title=" ">
<path fill="none" stroke="#63b8ff" d="M1526.6,-60.47C1574.21,-53.99 1679.83,-38.95 1778.47,-19.63"/>
<polygon fill="#63b8ff" stroke="#63b8ff" points="1778.92,-23.11 1788.05,-17.73 1777.56,-16.24 1778.92,-23.11"/>
</a>
</g>
</g>
<!-- Node25 -->
<g id="Node000025" class="node">
<title>Node25</title>
<g id="a_Node000025"><a xlink:title=" ">
<polygon fill="#e0e0e0" stroke="#999999" points="1201.38,-19.25 1154.62,-19.25 1154.62,0 1201.38,0 1201.38,-19.25"/>
<text text-anchor="middle" x="1178" y="-5.75" font-family="Helvetica,sans-Serif" font-size="10.00">QColor</text>
</a>
</g>
</g>
<!-- Node22&#45;&gt;Node25 -->
<g id="edge27_Node000022_Node000025" class="edge">
<title>Node22&#45;&gt;Node25</title>
<g id="a_edge27_Node000022_Node000025"><a xlink:title=" ">
<path fill="none" stroke="#63b8ff" d="M1475.53,-60.94C1426.5,-55.07 1315.45,-40.8 1212.87,-19.66"/>
<polygon fill="#63b8ff" stroke="#63b8ff" points="1213.68,-16.26 1203.18,-17.64 1212.25,-23.11 1213.68,-16.26"/>
</a>
</g>
</g>
<!-- Node26 -->
<g id="Node000026" class="node">
<title>Node26</title>
<g id="a_Node000026"><a xlink:title=" ">
<polygon fill="#e0e0e0" stroke="#999999" points="1262.5,-19.25 1219.5,-19.25 1219.5,0 1262.5,0 1262.5,-19.25"/>
<text text-anchor="middle" x="1241" y="-5.75" font-family="Helvetica,sans-Serif" font-size="10.00">QFont</text>
</a>
</g>
</g>
<!-- Node22&#45;&gt;Node26 -->
<g id="edge28_Node000022_Node000026" class="edge">
<title>Node22&#45;&gt;Node26</title>
<g id="a_edge28_Node000022_Node000026"><a xlink:title=" ">
<path fill="none" stroke="#63b8ff" d="M1475.44,-59.57C1434.89,-52.6 1353.11,-37.96 1274.09,-19.58"/>
<polygon fill="#63b8ff" stroke="#63b8ff" points="1274.97,-16.2 1264.43,-17.31 1273.37,-23.01 1274.97,-16.2"/>
</a>
</g>
</g>
<!-- Node27 -->
<g id="Node000027" class="node">
<title>Node27</title>
<g id="a_Node000027"><a xlink:title=" ">
<polygon fill="#e0e0e0" stroke="#999999" points="1321.38,-19.25 1280.62,-19.25 1280.62,0 1321.38,0 1321.38,-19.25"/>
<text text-anchor="middle" x="1301" y="-5.75" font-family="Helvetica,sans-Serif" font-size="10.00">QPen</text>
</a>
</g>
</g>
<!-- Node22&#45;&gt;Node27 -->
<g id="edge29_Node000022_Node000027" class="edge">
<title>Node22&#45;&gt;Node27</title>
<g id="a_edge29_Node000022_Node000027"><a xlink:title=" ">
<path fill="none" stroke="#63b8ff" d="M1475.32,-57.33C1444,-49.31 1389.21,-35.14 1332.6,-19.64"/>
<polygon fill="#63b8ff" stroke="#63b8ff" points="1333.67,-16.3 1323.1,-17.03 1331.81,-23.05 1333.67,-16.3"/>
</a>
</g>
</g>
<!-- Node28 -->
<g id="Node000028" class="node">
<title>Node28</title>
<g id="a_Node000028"><a xlink:title=" ">
<polygon fill="#e0e0e0" stroke="#999999" points="1394.12,-19.25 1339.88,-19.25 1339.88,0 1394.12,0 1394.12,-19.25"/>
<text text-anchor="middle" x="1367" y="-5.75" font-family="Helvetica,sans-Serif" font-size="10.00">QPainter</text>
</a>
</g>
</g>
<!-- Node22&#45;&gt;Node28 -->
<g id="edge30_Node000022_Node000028" class="edge">
<title>Node22&#45;&gt;Node28</title>
<g id="a_edge30_Node000022_Node000028"><a xlink:title=" ">
<path fill="none" stroke="#63b8ff" d="M1478.27,-54.84C1456.9,-46.35 1424.66,-33.54 1400.37,-23.89"/>
<polygon fill="#63b8ff" stroke="#63b8ff" points="1401.84,-20.7 1391.25,-20.26 1399.25,-27.21 1401.84,-20.7"/>
</a>
</g>
</g>
<!-- Node29 -->
<g id="Node000029" class="node">
<title>Node29</title>
<g id="a_Node000029"><a xlink:title=" ">
<polygon fill="#e0e0e0" stroke="#999999" points="1451.62,-19.25 1412.38,-19.25 1412.38,0 1451.62,0 1451.62,-19.25"/>
<text text-anchor="middle" x="1432" y="-5.75" font-family="Helvetica,sans-Serif" font-size="10.00">QList</text>
</a>
</g>
</g>
<!-- Node22&#45;&gt;Node29 -->
<g id="edge31_Node000022_Node000029" class="edge">
<title>Node22&#45;&gt;Node29</title>
<g id="a_edge31_Node000022_Node000029"><a xlink:title=" ">
<path fill="none" stroke="#63b8ff" d="M1489.3,-54.84C1479.22,-47.07 1464.46,-35.67 1452.44,-26.4"/>
<polygon fill="#63b8ff" stroke="#63b8ff" points="1454.79,-23.79 1444.73,-20.45 1450.51,-29.33 1454.79,-23.79"/>
</a>
</g>
</g>
<!-- Node30 -->
<g id="Node000030" class="node">
<title>Node30</title>
<g id="a_Node000030"><a xlink:title=" ">
<polygon fill="#e0e0e0" stroke="#999999" points="1528.38,-19.25 1469.62,-19.25 1469.62,0 1528.38,0 1528.38,-19.25"/>
<text text-anchor="middle" x="1499" y="-5.75" font-family="Helvetica,sans-Serif" font-size="10.00">QPolygon</text>
</a>
</g>
</g>
<!-- Node22&#45;&gt;Node30 -->
<g id="edge32_Node000022_Node000030" class="edge">
<title>Node22&#45;&gt;Node30</title>
<g id="a_edge32_Node000022_Node000030"><a xlink:title=" ">
<path fill="none" stroke="#63b8ff" d="M1500.67,-55.08C1500.42,-48.49 1500.07,-39.21 1499.76,-30.82"/>
<polygon fill="#63b8ff" stroke="#63b8ff" points="1503.27,-30.98 1499.39,-21.12 1496.27,-31.25 1503.27,-30.98"/>
</a>
</g>
</g>
<!-- Node31 -->
<g id="Node000031" class="node">
<title>Node31</title>
<g id="a_Node000031"><a xlink:title=" ">
<polygon fill="#e0e0e0" stroke="#999999" points="1619.88,-19.25 1546.12,-19.25 1546.12,0 1619.88,0 1619.88,-19.25"/>
<text text-anchor="middle" x="1583" y="-5.75" font-family="Helvetica,sans-Serif" font-size="10.00">QTreeWidget</text>
</a>
</g>
</g>
<!-- Node22&#45;&gt;Node31 -->
<g id="edge33_Node000022_Node000031" class="edge">
<title>Node22&#45;&gt;Node31</title>
<g id="a_edge33_Node000022_Node000031"><a xlink:title=" ">
<path fill="none" stroke="#63b8ff" d="M1514.91,-54.84C1527.16,-46.89 1545.25,-35.14 1559.71,-25.75"/>
<polygon fill="#63b8ff" stroke="#63b8ff" points="1561.27,-28.91 1567.75,-20.53 1557.46,-23.04 1561.27,-28.91"/>
</a>
</g>
</g>
<!-- Node32 -->
<g id="Node000032" class="node">
<title>Node32</title>
<g id="a_Node000032"><a xlink:title=" ">
<polygon fill="#e0e0e0" stroke="#999999" points="1710.12,-19.25 1637.88,-19.25 1637.88,0 1710.12,0 1710.12,-19.25"/>
<text text-anchor="middle" x="1674" y="-5.75" font-family="Helvetica,sans-Serif" font-size="10.00">QComboBox</text>
</a>
</g>
</g>
<!-- Node22&#45;&gt;Node32 -->
<g id="edge34_Node000022_Node000032" class="edge">
<title>Node22&#45;&gt;Node32</title>
<g id="a_edge34_Node000022_Node000032"><a xlink:title=" ">
<path fill="none" stroke="#63b8ff" d="M1526.53,-56.02C1554.82,-47.31 1600.81,-33.15 1633.91,-22.96"/>
<polygon fill="#63b8ff" stroke="#63b8ff" points="1634.63,-26.41 1643.15,-20.12 1632.57,-19.72 1634.63,-26.41"/>
</a>
</g>
</g>
<!-- Node33&#45;&gt;Node22 -->
<g id="edge37_Node000033_Node000022" class="edge">
<title>Node33&#45;&gt;Node22</title>
<g id="a_edge37_Node000033_Node000022"><a xlink:title=" ">
<path fill="none" stroke="#63b8ff" d="M1589.02,-110.09C1572.65,-101.87 1548.21,-89.59 1529.24,-80.06"/>
<polygon fill="#63b8ff" stroke="#63b8ff" points="1530.93,-76.99 1520.42,-75.63 1527.79,-83.25 1530.93,-76.99"/>
</a>
</g>
</g>
<!-- Node34&#45;&gt;Node22 -->
<g id="edge39_Node000034_Node000022" class="edge">
<title>Node34&#45;&gt;Node22</title>
<g id="a_edge39_Node000034_Node000022"><a xlink:title=" ">
<path fill="none" stroke="#63b8ff" d="M1651.17,-112.91C1623.27,-104.17 1571.96,-88.1 1537.17,-77.2"/>
<polygon fill="#63b8ff" stroke="#63b8ff" points="1538.54,-73.97 1527.95,-74.32 1536.45,-80.65 1538.54,-73.97"/>
</a>
</g>
</g>
<!-- Node35&#45;&gt;Node22 -->
<g id="edge41_Node000035_Node000022" class="edge">
<title>Node35&#45;&gt;Node22</title>
<g id="a_edge41_Node000035_Node000022"><a xlink:title=" ">
<path fill="none" stroke="#63b8ff" d="M1708.54,-112.43C1705.66,-111.78 1702.77,-111.13 1700,-110.5 1643.26,-97.7 1577.39,-82.95 1537.48,-74.03"/>
<polygon fill="#63b8ff" stroke="#63b8ff" points="1538.45,-70.66 1527.93,-71.89 1536.92,-77.49 1538.45,-70.66"/>
</a>
</g>
</g>
<!-- Node36&#45;&gt;Node22 -->
<g id="edge43_Node000036_Node000022" class="edge">
<title>Node36&#45;&gt;Node22</title>
<g id="a_edge43_Node000036_Node000022"><a xlink:title=" ">
<path fill="none" stroke="#63b8ff" d="M1784.99,-112.35C1781.96,-111.7 1778.92,-111.07 1776,-110.5 1691.03,-93.98 1590.47,-78.75 1537.64,-71.08"/>
<polygon fill="#63b8ff" stroke="#63b8ff" points="1538.39,-67.65 1527.99,-69.69 1537.39,-74.58 1538.39,-67.65"/>
</a>
</g>
</g>
<!-- Node37&#45;&gt;Node22 -->
<g id="edge45_Node000037_Node000022" class="edge">
<title>Node37&#45;&gt;Node22</title>
<g id="a_edge45_Node000037_Node000022"><a xlink:title=" ">
<path fill="none" stroke="#63b8ff" d="M1329.32,-110.69C1366.14,-101.08 1426.14,-85.42 1464.58,-75.38"/>
<polygon fill="#63b8ff" stroke="#63b8ff" points="1465.03,-78.88 1473.82,-72.97 1463.26,-72.11 1465.03,-78.88"/>
</a>
</g>
</g>
<!-- Node38&#45;&gt;Node22 -->
<g id="edge48_Node000038_Node000022" class="edge">
<title>Node38&#45;&gt;Node22</title>
<g id="a_edge48_Node000038_Node000022"><a xlink:title=" ">
<path fill="none" stroke="#63b8ff" d="M1395.54,-110.09C1415.61,-101.68 1445.8,-89.02 1468.75,-79.4"/>
<polygon fill="#63b8ff" stroke="#63b8ff" points="1470.09,-82.63 1477.95,-75.54 1467.38,-76.18 1470.09,-82.63"/>
</a>
</g>
</g>
<!-- Node39&#45;&gt;Node22 -->
<g id="edge50_Node000039_Node000022" class="edge">
<title>Node39&#45;&gt;Node22</title>
<g id="a_edge50_Node000039_Node000022"><a xlink:title=" ">
<path fill="none" stroke="#63b8ff" d="M1449.52,-110.09C1458.39,-102.47 1471.31,-91.37 1481.99,-82.2"/>
<polygon fill="#63b8ff" stroke="#63b8ff" points="1484.18,-84.93 1489.49,-75.76 1479.62,-79.62 1484.18,-84.93"/>
</a>
</g>
</g>
<!-- Node40&#45;&gt;Node3 -->
<g id="edge52_Node000040_Node000003" class="edge">
<title>Node40&#45;&gt;Node3</title>
<g id="a_edge52_Node000040_Node000003"><a xlink:title=" ">
<path fill="none" stroke="#63b8ff" d="M1003.12,-166.99C1000.38,-166.56 997.65,-166.14 995,-165.75 867.18,-147.11 714.56,-131.33 646.21,-124.6"/>
<polygon fill="#63b8ff" stroke="#63b8ff" points="646.64,-121.13 636.35,-123.64 645.96,-128.1 646.64,-121.13"/>
</a>
</g>
</g>
<!-- Node41 -->
<g id="Node000041" class="node">
<title>Node41</title>
<g id="a_Node000041"><a xlink:title=" ">
<polygon fill="#e0e0e0" stroke="#999999" points="898.62,-129.75 859.38,-129.75 859.38,-110.5 898.62,-110.5 898.62,-129.75"/>
<text text-anchor="middle" x="879" y="-116.25" font-family="Helvetica,sans-Serif" font-size="10.00">utility</text>
</a>
</g>
</g>
<!-- Node40&#45;&gt;Node41 -->
<g id="edge53_Node000040_Node000041" class="edge">
<title>Node40&#45;&gt;Node41</title>
<g id="a_edge53_Node000040_Node000041"><a xlink:title=" ">
<path fill="none" stroke="#63b8ff" d="M1016.01,-165.34C986.5,-155.82 940.14,-140.86 909.66,-131.02"/>
<polygon fill="#63b8ff" stroke="#63b8ff" points="910.85,-127.73 900.26,-127.99 908.7,-134.39 910.85,-127.73"/>
</a>
</g>
</g>
<!-- Node42&#45;&gt;Node3 -->
<g id="edge55_Node000042_Node000003" class="edge">
<title>Node42&#45;&gt;Node3</title>
<g id="a_edge55_Node000042_Node000003"><a xlink:title=" ">
<path fill="none" stroke="#63b8ff" d="M1140.79,-170.47C1126.2,-168.96 1109.32,-167.24 1094,-165.75 926.84,-149.46 727.04,-131.53 646.4,-124.35"/>
<polygon fill="#63b8ff" stroke="#63b8ff" points="646.72,-120.87 636.45,-123.47 646.1,-127.84 646.72,-120.87"/>
</a>
</g>
</g>
<!-- Node42&#45;&gt;Node16 -->
<g id="edge58_Node000042_Node000016" class="edge">
<title>Node42&#45;&gt;Node16</title>
<g id="a_edge58_Node000042_Node000016"><a xlink:title=" ">
<path fill="none" stroke="#63b8ff" d="M1140.77,-165.64C1101.25,-156.37 1038.77,-141.71 996.39,-131.77"/>
<polygon fill="#63b8ff" stroke="#63b8ff" points="997.29,-128.39 986.75,-129.51 995.69,-135.2 997.29,-128.39"/>
</a>
</g>
</g>
<!-- Node42&#45;&gt;Node17 -->
<g id="edge57_Node000042_Node000017" class="edge">
<title>Node42&#45;&gt;Node17</title>
<g id="a_edge57_Node000042_Node000017"><a xlink:title=" ">
<path fill="none" stroke="#63b8ff" d="M1183.28,-165.58C1187.47,-158.61 1193.48,-148.62 1198.73,-139.87"/>
<polygon fill="#63b8ff" stroke="#63b8ff" points="1201.67,-141.78 1203.82,-131.41 1195.67,-138.18 1201.67,-141.78"/>
</a>
</g>
</g>
<!-- Node43 -->
<g id="Node000043" class="node">
<title>Node43</title>
<g id="a_Node000043"><a xlink:title=" ">
<polygon fill="#e0e0e0" stroke="#999999" points="1069.12,-129.75 1002.88,-129.75 1002.88,-110.5 1069.12,-110.5 1069.12,-129.75"/>
<text text-anchor="middle" x="1036" y="-116.25" font-family="Helvetica,sans-Serif" font-size="10.00">QDateTime</text>
</a>
</g>
</g>
<!-- Node42&#45;&gt;Node43 -->
<g id="edge56_Node000042_Node000043" class="edge">
<title>Node42&#45;&gt;Node43</title>
<g id="a_edge56_Node000042_Node000043"><a xlink:title=" ">
<path fill="none" stroke="#63b8ff" d="M1153.91,-165.34C1131.06,-156.77 1096.48,-143.81 1070.67,-134.13"/>
<polygon fill="#63b8ff" stroke="#63b8ff" points="1072.22,-130.97 1061.62,-130.73 1069.76,-137.52 1072.22,-130.97"/>
</a>
</g>
</g>
<!-- Node44 -->
<g id="Node000044" class="node">
<title>Node44</title>
<g id="a_Node000044"><a xlink:title=" ">
<polygon fill="#e0e0e0" stroke="#999999" points="1155.25,-129.75 1086.75,-129.75 1086.75,-110.5 1155.25,-110.5 1155.25,-129.75"/>
<text text-anchor="middle" x="1121" y="-116.25" font-family="Helvetica,sans-Serif" font-size="10.00">QJsonValue</text>
</a>
</g>
</g>
<!-- Node42&#45;&gt;Node44 -->
<g id="edge59_Node000042_Node000044" class="edge">
<title>Node42&#45;&gt;Node44</title>
<g id="a_edge59_Node000042_Node000044"><a xlink:title=" ">
<path fill="none" stroke="#63b8ff" d="M1168.33,-165.34C1160.26,-157.8 1148.53,-146.85 1138.78,-137.73"/>
<polygon fill="#63b8ff" stroke="#63b8ff" points="1141.33,-135.33 1131.63,-131.06 1136.55,-140.44 1141.33,-135.33"/>
</a>
</g>
</g>
</g>
</svg>
