<?xml version="1.0" encoding="UTF-8" standalone="no"?>
<!DOCTYPE svg PUBLIC "-//W3C//DTD SVG 1.1//EN"
 "http://www.w3.org/Graphics/SVG/1.1/DTD/svg11.dtd">
<!-- Generated by graphviz version 12.2.1 (20241206.2353)
 -->
<!-- Title: Polygon::Draw Pages: 1 -->
<svg width="226pt" height="212pt"
 viewBox="0.00 0.00 226.00 212.25" xmlns="http://www.w3.org/2000/svg" xmlns:xlink="http://www.w3.org/1999/xlink">
<g id="graph0" class="graph" transform="scale(1 1) rotate(0) translate(4 208.25)">
<title>Polygon::Draw</title>
<!-- Node1 -->
<g id="Node000001" class="node">
<title>Node1</title>
<g id="a_Node000001"><a xlink:title="Draw &#45; Draws a Polygon at the assigned coords with points in the pointsList.">
<polygon fill="#999999" stroke="#666666" points="80.5,-111.25 0,-111.25 0,-92 80.5,-92 80.5,-111.25"/>
<text text-anchor="middle" x="40.25" y="-97.75" font-family="Helvetica,sans-Serif" font-size="10.00">Polygon::Draw</text>
</a>
</g>
</g>
<!-- Node2 -->
<g id="Node000002" class="node">
<title>Node2</title>
<g id="a_Node000002"><a xlink:href="../../d7/da7/class_shape.html#acbb9f9354579fdaad31853d714653e0d" target="_top" xlink:title=" ">
<polygon fill="white" stroke="#666666" points="211.62,-204.25 122.88,-204.25 122.88,-185 211.62,-185 211.62,-204.25"/>
<text text-anchor="middle" x="167.25" y="-190.75" font-family="Helvetica,sans-Serif" font-size="10.00">Shape::getBrush</text>
</a>
</g>
</g>
<!-- Node1&#45;&gt;Node2 -->
<g id="edge1_Node000001_Node000002" class="edge">
<title>Node1&#45;&gt;Node2</title>
<g id="a_edge1_Node000001_Node000002"><a xlink:title=" ">
<path fill="none" stroke="#63b8ff" d="M48.76,-111.51C61.22,-127.32 87.69,-158.34 116.5,-176.62 118.3,-177.77 120.19,-178.85 122.13,-179.88"/>
<polygon fill="#63b8ff" stroke="#63b8ff" points="120.21,-182.85 130.75,-183.9 123.17,-176.5 120.21,-182.85"/>
</a>
</g>
</g>
<!-- Node3 -->
<g id="Node000003" class="node">
<title>Node3</title>
<g id="a_Node000003"><a xlink:href="../../d7/da7/class_shape.html#a754ef1fcea3fbe3c3612da480ba8dd75" target="_top" xlink:title=" ">
<polygon fill="white" stroke="#666666" points="214.25,-167.25 120.25,-167.25 120.25,-148 214.25,-148 214.25,-167.25"/>
<text text-anchor="middle" x="167.25" y="-153.75" font-family="Helvetica,sans-Serif" font-size="10.00">Shape::getPainter</text>
</a>
</g>
</g>
<!-- Node1&#45;&gt;Node3 -->
<g id="edge2_Node000001_Node000003" class="edge">
<title>Node1&#45;&gt;Node3</title>
<g id="a_edge2_Node000001_Node000003"><a xlink:title=" ">
<path fill="none" stroke="#63b8ff" d="M59.51,-111.63C74.57,-119.68 96.61,-131.04 116.5,-139.62 119.5,-140.92 122.64,-142.21 125.8,-143.46"/>
<polygon fill="#63b8ff" stroke="#63b8ff" points="124.55,-146.72 135.14,-147.01 127.04,-140.18 124.55,-146.72"/>
</a>
</g>
</g>
<!-- Node4 -->
<g id="Node000004" class="node">
<title>Node4</title>
<g id="a_Node000004"><a xlink:href="../../d7/da7/class_shape.html#a16aad057da1ce3475f666cbdd27da042" target="_top" xlink:title=" ">
<polygon fill="white" stroke="#666666" points="207.5,-130.25 127,-130.25 127,-111 207.5,-111 207.5,-130.25"/>
<text text-anchor="middle" x="167.25" y="-116.75" font-family="Helvetica,sans-Serif" font-size="10.00">Shape::getPen</text>
</a>
</g>
</g>
<!-- Node1&#45;&gt;Node4 -->
<g id="edge3_Node000001_Node000004" class="edge">
<title>Node1&#45;&gt;Node4</title>
<g id="a_edge3_Node000001_Node000004"><a xlink:title=" ">
<path fill="none" stroke="#63b8ff" d="M80.8,-107.64C91.74,-109.3 103.78,-111.13 115.27,-112.88"/>
<polygon fill="#63b8ff" stroke="#63b8ff" points="114.62,-116.32 125.03,-114.36 115.67,-109.4 114.62,-116.32"/>
</a>
</g>
</g>
<!-- Node5 -->
<g id="Node000005" class="node">
<title>Node5</title>
<g id="a_Node000005"><a xlink:href="../../d7/da7/class_shape.html#aebeb671fc243de273dc49f07ba71bac6" target="_top" xlink:title=" ">
<polygon fill="white" stroke="#666666" points="218,-93.25 116.5,-93.25 116.5,-74 218,-74 218,-93.25"/>
<text text-anchor="middle" x="167.25" y="-79.75" font-family="Helvetica,sans-Serif" font-size="10.00">Shape::getSelected</text>
</a>
</g>
</g>
<!-- Node1&#45;&gt;Node5 -->
<g id="edge4_Node000001_Node000005" class="edge">
<title>Node1&#45;&gt;Node5</title>
<g id="a_edge4_Node000001_Node000005"><a xlink:title=" ">
<path fill="none" stroke="#63b8ff" d="M80.8,-95.93C88.57,-94.81 96.89,-93.61 105.17,-92.42"/>
<polygon fill="#63b8ff" stroke="#63b8ff" points="105.5,-95.91 114.9,-91.02 104.5,-88.98 105.5,-95.91"/>
</a>
</g>
</g>
<!-- Node6 -->
<g id="Node000006" class="node">
<title>Node6</title>
<g id="a_Node000006"><a xlink:href="../../d7/da7/class_shape.html#a4b502262ae5a22122456b9624d5ccb3d" target="_top" xlink:title="Accessor Functions &#45; Returns the data named after them.">
<polygon fill="white" stroke="#666666" points="216.88,-56.25 117.62,-56.25 117.62,-37 216.88,-37 216.88,-56.25"/>
<text text-anchor="middle" x="167.25" y="-42.75" font-family="Helvetica,sans-Serif" font-size="10.00">Shape::getShapeId</text>
</a>
</g>
</g>
<!-- Node1&#45;&gt;Node6 -->
<g id="edge5_Node000001_Node000006" class="edge">
<title>Node1&#45;&gt;Node6</title>
<g id="a_edge5_Node000001_Node000006"><a xlink:title=" ">
<path fill="none" stroke="#63b8ff" d="M60.16,-91.61C75.22,-83.81 96.94,-72.94 116.5,-64.62 119.65,-63.28 122.94,-61.95 126.26,-60.65"/>
<polygon fill="#63b8ff" stroke="#63b8ff" points="127.31,-64 135.43,-57.19 124.83,-57.45 127.31,-64"/>
</a>
</g>
</g>
<!-- Node7 -->
<g id="Node000007" class="node">
<title>Node7</title>
<g id="a_Node000007"><a xlink:href="../../d7/da7/class_shape.html#af604de36aa616c585bb30dedf5e5c68b" target="_top" xlink:title=" ">
<polygon fill="white" stroke="#666666" points="202.25,-19.25 132.25,-19.25 132.25,0 202.25,0 202.25,-19.25"/>
<text text-anchor="middle" x="167.25" y="-5.75" font-family="Helvetica,sans-Serif" font-size="10.00">Shape::getX</text>
</a>
</g>
</g>
<!-- Node1&#45;&gt;Node7 -->
<g id="edge6_Node000001_Node000007" class="edge">
<title>Node1&#45;&gt;Node7</title>
<g id="a_edge6_Node000001_Node000007"><a xlink:title=" ">
<path fill="none" stroke="#63b8ff" d="M48.99,-91.62C61.58,-75.96 87.97,-45.59 116.5,-27.62 118.31,-26.49 120.2,-25.41 122.14,-24.38"/>
<polygon fill="#63b8ff" stroke="#63b8ff" points="123.17,-27.76 130.77,-20.38 120.23,-21.41 123.17,-27.76"/>
</a>
</g>
</g>
</g>
</svg>
