<?xml version="1.0" encoding="UTF-8" standalone="no"?>
<!DOCTYPE svg PUBLIC "-//W3C//DTD SVG 1.1//EN"
 "http://www.w3.org/Graphics/SVG/1.1/DTD/svg11.dtd">
<!-- Generated by graphviz version 12.2.1 (20241206.2353)
 -->
<!-- Title: /Users/gautam/Local/Forge/Team&#45;Alphawolves/2D&#45;Graphics&#45;Modeler/src/backend/Parser.h Pages: 1 -->
<!--zoomable 417 -->

<svg id="main" version="1.1" xmlns="http://www.w3.org/2000/svg" xmlns:xlink="http://www.w3.org/1999/xlink" xml:space="preserve" onload="init(evt)">

<style type="text/css"><![CDATA[
.node, .edge {opacity: 0.7;}
.node.selected, .edge.selected {opacity: 1;}
.edge:hover path { stroke: red; }
.edge:hover polygon { stroke: red; fill: red; }
]]></style>

<defs>
  <circle id="rim" cx="0" cy="0" r="7"/>
  <circle id="rim2" cx="0" cy="0" r="3.5"/>
  <g id="zoomPlus">
    <use xlink:href="#rim" fill="#404040"><set attributeName="fill" to="#808080" begin="zoomplus.mouseover" end="zoomplus.mouseout"/></use>
    <path d="M-4,0h8M0,-4v8" fill="none" stroke="white" stroke-width="1.5" pointer-events="none"/>
  </g>
  <g id="zoomMin">
    <use xlink:href="#rim" fill="#404040"><set attributeName="fill" to="#808080" begin="zoomminus.mouseover" end="zoomminus.mouseout"/></use>
    <path d="M-4,0h8" fill="none" stroke="white" stroke-width="1.5" pointer-events="none"/>
  </g>
  <g id="arrowUp" transform="translate(30 24)">
    <use xlink:href="#rim"/>
    <path pointer-events="none" fill="none" stroke="white" stroke-width="1.5" d="M0,-3.0v7 M-2.5,-0.5L0,-3.0L2.5,-0.5"/>
  </g>
  <g id="arrowRight" transform="rotate(90) translate(36 -43)">
    <use xlink:href="#rim"/>
    <path pointer-events="none" fill="none" stroke="white" stroke-width="1.5" d="M0,-3.0v7 M-2.5,-0.5L0,-3.0L2.5,-0.5"/>
  </g>
  <g id="arrowDown" transform="rotate(180) translate(-30 -48)">
    <use xlink:href="#rim"/>
    <path pointer-events="none" fill="none" stroke="white" stroke-width="1.5" d="M0,-3.0v7 M-2.5,-0.5L0,-3.0L2.5,-0.5"/>
  </g>
  <g id="arrowLeft" transform="rotate(270) translate(-36 17)">
    <use xlink:href="#rim"/>
    <path pointer-events="none" fill="none" stroke="white" stroke-width="1.5" d="M0,-3.0v7 M-2.5,-0.5L0,-3.0L2.5,-0.5"/>
  </g>
  <g id="resetDef">
    <use xlink:href="#rim2" fill="#404040"><set attributeName="fill" to="#808080" begin="reset.mouseover" end="reset.mouseout"/></use>
  </g>
</defs>
<script type="application/ecmascript">
var viewWidth = 1494;
var viewHeight = 417;
var sectionId = 'dynsection-1';
</script>
<script type="application/ecmascript" xlink:href="../../svg.min.js"/>
<svg id="graph" class="graph">
<g id="viewport">
<title>/Users/gautam/Local/Forge/Team&#45;Alphawolves/2D&#45;Graphics&#45;Modeler/src/backend/Parser.h</title>
<!-- Node1 -->
<g id="Node000001" class="node">
<title>Node1</title>
<g id="a_Node000001"><a xlink:title=" ">
<polygon fill="#999999" stroke="#666666" points="498.25,-409 369,-409 369,-356 498.25,-356 498.25,-409"/>
<text text-anchor="start" x="377" y="-395.5" font-family="Helvetica,sans-Serif" font-size="10.00">/Users/gautam/Local</text>
<text text-anchor="start" x="377" y="-384.25" font-family="Helvetica,sans-Serif" font-size="10.00">/Forge/Team&#45;Alphawolves</text>
<text text-anchor="start" x="377" y="-373" font-family="Helvetica,sans-Serif" font-size="10.00">/2D&#45;Graphics&#45;Modeler/src</text>
<text text-anchor="middle" x="433.62" y="-361.75" font-family="Helvetica,sans-Serif" font-size="10.00">/backend/Parser.h</text>
</a>
</g>
</g>
<!-- Node2 -->
<g id="Node000002" class="node">
<title>Node2</title>
<g id="a_Node000002"><a xlink:href="../../de/df6/_parser_8cpp.html" target="_top" xlink:title=" ">
<polygon fill="white" stroke="#666666" points="312.25,-320 183,-320 183,-267 312.25,-267 312.25,-320"/>
<text text-anchor="start" x="191" y="-306.5" font-family="Helvetica,sans-Serif" font-size="10.00">/Users/gautam/Local</text>
<text text-anchor="start" x="191" y="-295.25" font-family="Helvetica,sans-Serif" font-size="10.00">/Forge/Team&#45;Alphawolves</text>
<text text-anchor="start" x="191" y="-284" font-family="Helvetica,sans-Serif" font-size="10.00">/2D&#45;Graphics&#45;Modeler/src</text>
<text text-anchor="middle" x="247.62" y="-272.75" font-family="Helvetica,sans-Serif" font-size="10.00">/backend/Parser.cpp</text>
</a>
</g>
</g>
<!-- Node1&#45;&gt;Node2 -->
<g id="edge1_Node000001_Node000002" class="edge">
<title>Node1&#45;&gt;Node2</title>
<g id="a_edge1_Node000001_Node000002"><a xlink:title=" ">
<path fill="none" stroke="#63b8ff" d="M367.83,-350.73C346.6,-340.79 323.29,-329.89 302.89,-320.35"/>
<polygon fill="#63b8ff" stroke="#63b8ff" points="366.16,-353.81 376.7,-354.87 369.12,-347.47 366.16,-353.81"/>
</a>
</g>
</g>
<!-- Node3 -->
<g id="Node000003" class="node">
<title>Node3</title>
<g id="a_Node000003"><a xlink:href="../../d6/d83/_render_area_manager_8h.html" target="_top" xlink:title=" ">
<polygon fill="white" stroke="#666666" points="567.38,-320 411.88,-320 411.88,-267 567.38,-267 567.38,-320"/>
<text text-anchor="start" x="419.88" y="-306.5" font-family="Helvetica,sans-Serif" font-size="10.00">/Users/gautam/Local</text>
<text text-anchor="start" x="419.88" y="-295.25" font-family="Helvetica,sans-Serif" font-size="10.00">/Forge/Team&#45;Alphawolves</text>
<text text-anchor="start" x="419.88" y="-284" font-family="Helvetica,sans-Serif" font-size="10.00">/2D&#45;Graphics&#45;Modeler/src</text>
<text text-anchor="middle" x="489.62" y="-272.75" font-family="Helvetica,sans-Serif" font-size="10.00">/backend/RenderAreaManager.h</text>
</a>
</g>
</g>
<!-- Node1&#45;&gt;Node3 -->
<g id="edge2_Node000001_Node000003" class="edge">
<title>Node1&#45;&gt;Node3</title>
<g id="a_edge2_Node000001_Node000003"><a xlink:title=" ">
<path fill="none" stroke="#63b8ff" d="M456.28,-346.3C461.89,-337.59 467.79,-328.42 473.05,-320.25"/>
<polygon fill="#63b8ff" stroke="#63b8ff" points="453.41,-344.29 450.94,-354.6 459.3,-348.08 453.41,-344.29"/>
</a>
</g>
</g>
<!-- Node6 -->
<g id="Node000006" class="node">
<title>Node6</title>
<g id="a_Node000006"><a xlink:href="../../d8/d80/src_2backend_2main_8cpp.html" target="_top" xlink:title=" ">
<polygon fill="white" stroke="#666666" points="443.25,-53 314,-53 314,0 443.25,0 443.25,-53"/>
<text text-anchor="start" x="322" y="-39.5" font-family="Helvetica,sans-Serif" font-size="10.00">/Users/gautam/Local</text>
<text text-anchor="start" x="322" y="-28.25" font-family="Helvetica,sans-Serif" font-size="10.00">/Forge/Team&#45;Alphawolves</text>
<text text-anchor="start" x="322" y="-17" font-family="Helvetica,sans-Serif" font-size="10.00">/2D&#45;Graphics&#45;Modeler/src</text>
<text text-anchor="middle" x="378.62" y="-5.75" font-family="Helvetica,sans-Serif" font-size="10.00">/backend/main.cpp</text>
</a>
</g>
</g>
<!-- Node1&#45;&gt;Node6 -->
<g id="edge22_Node000001_Node000006" class="edge">
<title>Node1&#45;&gt;Node6</title>
<g id="a_edge22_Node000001_Node000006"><a xlink:title=" ">
<path fill="none" stroke="#63b8ff" d="M412.73,-345.77C408.74,-337.54 405.06,-328.66 402.62,-320 375.7,-224.36 375.87,-104.71 377.48,-53.12"/>
<polygon fill="#63b8ff" stroke="#63b8ff" points="409.49,-347.12 417.18,-354.42 415.72,-343.93 409.49,-347.12"/>
</a>
</g>
</g>
<!-- Node9 -->
<g id="Node000009" class="node">
<title>Node9</title>
<g id="a_Node000009"><a xlink:href="../../db/dd2/_shapes_manager_8h.html" target="_top" xlink:title=" ">
<polygon fill="white" stroke="#666666" points="1285,-320 1148.25,-320 1148.25,-267 1285,-267 1285,-320"/>
<text text-anchor="start" x="1156.25" y="-306.5" font-family="Helvetica,sans-Serif" font-size="10.00">/Users/gautam/Local</text>
<text text-anchor="start" x="1156.25" y="-295.25" font-family="Helvetica,sans-Serif" font-size="10.00">/Forge/Team&#45;Alphawolves</text>
<text text-anchor="start" x="1156.25" y="-284" font-family="Helvetica,sans-Serif" font-size="10.00">/2D&#45;Graphics&#45;Modeler/src</text>
<text text-anchor="middle" x="1216.62" y="-272.75" font-family="Helvetica,sans-Serif" font-size="10.00">/backend/ShapesManager.h</text>
</a>
</g>
</g>
<!-- Node1&#45;&gt;Node9 -->
<g id="edge8_Node000001_Node000009" class="edge">
<title>Node1&#45;&gt;Node9</title>
<g id="a_edge8_Node000001_Node000009"><a xlink:title=" ">
<path fill="none" stroke="#63b8ff" d="M509.78,-373.04C662.08,-356.12 1002.09,-318.34 1147.99,-302.13"/>
<polygon fill="#63b8ff" stroke="#63b8ff" points="509.76,-369.52 500.21,-374.1 510.53,-376.48 509.76,-369.52"/>
</a>
</g>
</g>
<!-- Node11 -->
<g id="Node000011" class="node">
<title>Node11</title>
<g id="a_Node000011"><a xlink:href="../../d4/d0a/_testimonial_manager_8h.html" target="_top" xlink:title=" ">
<polygon fill="white" stroke="#666666" points="935.25,-320 782,-320 782,-267 935.25,-267 935.25,-320"/>
<text text-anchor="start" x="790" y="-306.5" font-family="Helvetica,sans-Serif" font-size="10.00">/Users/gautam/Local</text>
<text text-anchor="start" x="790" y="-295.25" font-family="Helvetica,sans-Serif" font-size="10.00">/Forge/Team&#45;Alphawolves</text>
<text text-anchor="start" x="790" y="-284" font-family="Helvetica,sans-Serif" font-size="10.00">/2D&#45;Graphics&#45;Modeler/src</text>
<text text-anchor="middle" x="858.62" y="-272.75" font-family="Helvetica,sans-Serif" font-size="10.00">/backend/TestimonialManager.h</text>
</a>
</g>
</g>
<!-- Node1&#45;&gt;Node11 -->
<g id="edge10_Node000001_Node000011" class="edge">
<title>Node1&#45;&gt;Node11</title>
<g id="a_edge10_Node000001_Node000011"><a xlink:title=" ">
<path fill="none" stroke="#63b8ff" d="M509.66,-365.93C586.5,-350.2 704.6,-326.03 781.74,-310.24"/>
<polygon fill="#63b8ff" stroke="#63b8ff" points="509.21,-362.45 500.12,-367.89 510.62,-369.31 509.21,-362.45"/>
</a>
</g>
</g>
<!-- Node17 -->
<g id="Node000017" class="node">
<title>Node17</title>
<g id="a_Node000017"><a xlink:href="../../d1/dc5/_user_manager_8h.html" target="_top" xlink:title=" ">
<polygon fill="white" stroke="#666666" points="350.25,-231 221,-231 221,-178 350.25,-178 350.25,-231"/>
<text text-anchor="start" x="229" y="-217.5" font-family="Helvetica,sans-Serif" font-size="10.00">/Users/gautam/Local</text>
<text text-anchor="start" x="229" y="-206.25" font-family="Helvetica,sans-Serif" font-size="10.00">/Forge/Team&#45;Alphawolves</text>
<text text-anchor="start" x="229" y="-195" font-family="Helvetica,sans-Serif" font-size="10.00">/2D&#45;Graphics&#45;Modeler/src</text>
<text text-anchor="middle" x="285.62" y="-183.75" font-family="Helvetica,sans-Serif" font-size="10.00">/backend/UserManager.h</text>
</a>
</g>
</g>
<!-- Node1&#45;&gt;Node17 -->
<g id="edge17_Node000001_Node000017" class="edge">
<title>Node1&#45;&gt;Node17</title>
<g id="a_edge17_Node000001_Node000017"><a xlink:title=" ">
<path fill="none" stroke="#63b8ff" d="M393.11,-348.3C383.35,-339.53 373.25,-329.77 364.62,-320 339.69,-291.76 315.81,-255.42 300.96,-231.34"/>
<polygon fill="#63b8ff" stroke="#63b8ff" points="390.61,-350.76 400.43,-354.73 395.23,-345.5 390.61,-350.76"/>
</a>
</g>
</g>
<!-- Node4 -->
<g id="Node000004" class="node">
<title>Node4</title>
<g id="a_Node000004"><a xlink:href="../../dc/dbb/_app_driver_8h.html" target="_top" xlink:title=" ">
<polygon fill="white" stroke="#666666" points="601.25,-142 472,-142 472,-89 601.25,-89 601.25,-142"/>
<text text-anchor="start" x="480" y="-128.5" font-family="Helvetica,sans-Serif" font-size="10.00">/Users/gautam/Local</text>
<text text-anchor="start" x="480" y="-117.25" font-family="Helvetica,sans-Serif" font-size="10.00">/Forge/Team&#45;Alphawolves</text>
<text text-anchor="start" x="480" y="-106" font-family="Helvetica,sans-Serif" font-size="10.00">/2D&#45;Graphics&#45;Modeler/src</text>
<text text-anchor="middle" x="536.62" y="-94.75" font-family="Helvetica,sans-Serif" font-size="10.00">/backend/AppDriver.h</text>
</a>
</g>
</g>
<!-- Node3&#45;&gt;Node4 -->
<g id="edge3_Node000003_Node000004" class="edge">
<title>Node3&#45;&gt;Node4</title>
<g id="a_edge3_Node000003_Node000004"><a xlink:title=" ">
<path fill="none" stroke="#63b8ff" d="M555.97,-260.1C566.29,-252.06 575.53,-242.4 581.62,-231 592.73,-210.22 588.94,-200.39 581.62,-178 577.39,-165.05 569.28,-152.56 561.1,-142.26"/>
<polygon fill="#63b8ff" stroke="#63b8ff" points="554,-257.21 547.9,-265.87 558.07,-262.9 554,-257.21"/>
</a>
</g>
</g>
<!-- Node8 -->
<g id="Node000008" class="node">
<title>Node8</title>
<g id="a_Node000008"><a xlink:href="../../d1/d86/_render_area_manager_8cpp.html" target="_top" xlink:title=" ">
<polygon fill="white" stroke="#666666" points="572.62,-231 406.62,-231 406.62,-178 572.62,-178 572.62,-231"/>
<text text-anchor="start" x="414.62" y="-217.5" font-family="Helvetica,sans-Serif" font-size="10.00">/Users/gautam/Local</text>
<text text-anchor="start" x="414.62" y="-206.25" font-family="Helvetica,sans-Serif" font-size="10.00">/Forge/Team&#45;Alphawolves</text>
<text text-anchor="start" x="414.62" y="-195" font-family="Helvetica,sans-Serif" font-size="10.00">/2D&#45;Graphics&#45;Modeler/src</text>
<text text-anchor="middle" x="489.62" y="-183.75" font-family="Helvetica,sans-Serif" font-size="10.00">/backend/RenderAreaManager.cpp</text>
</a>
</g>
</g>
<!-- Node3&#45;&gt;Node8 -->
<g id="edge7_Node000003_Node000008" class="edge">
<title>Node3&#45;&gt;Node8</title>
<g id="a_edge7_Node000003_Node000008"><a xlink:title=" ">
<path fill="none" stroke="#63b8ff" d="M489.62,-255.61C489.62,-247.41 489.62,-238.89 489.62,-231.25"/>
<polygon fill="#63b8ff" stroke="#63b8ff" points="486.13,-255.35 489.63,-265.35 493.13,-255.35 486.13,-255.35"/>
</a>
</g>
</g>
<!-- Node5 -->
<g id="Node000005" class="node">
<title>Node5</title>
<g id="a_Node000005"><a xlink:href="../../dc/df3/_app_driver_8cpp.html" target="_top" xlink:title=" ">
<polygon fill="white" stroke="#666666" points="742.25,-53 613,-53 613,0 742.25,0 742.25,-53"/>
<text text-anchor="start" x="621" y="-39.5" font-family="Helvetica,sans-Serif" font-size="10.00">/Users/gautam/Local</text>
<text text-anchor="start" x="621" y="-28.25" font-family="Helvetica,sans-Serif" font-size="10.00">/Forge/Team&#45;Alphawolves</text>
<text text-anchor="start" x="621" y="-17" font-family="Helvetica,sans-Serif" font-size="10.00">/2D&#45;Graphics&#45;Modeler/src</text>
<text text-anchor="middle" x="677.62" y="-5.75" font-family="Helvetica,sans-Serif" font-size="10.00">/backend/AppDriver.cpp</text>
</a>
</g>
</g>
<!-- Node4&#45;&gt;Node5 -->
<g id="edge4_Node000004_Node000005" class="edge">
<title>Node4&#45;&gt;Node5</title>
<g id="a_edge4_Node000004_Node000005"><a xlink:title=" ">
<path fill="none" stroke="#63b8ff" d="M588.08,-82.75C603.71,-73.11 620.69,-62.63 635.62,-53.42"/>
<polygon fill="#63b8ff" stroke="#63b8ff" points="586.51,-79.61 579.84,-87.84 590.18,-85.57 586.51,-79.61"/>
</a>
</g>
</g>
<!-- Node4&#45;&gt;Node6 -->
<g id="edge5_Node000004_Node000006" class="edge">
<title>Node4&#45;&gt;Node6</title>
<g id="a_edge5_Node000004_Node000006"><a xlink:title=" ">
<path fill="none" stroke="#63b8ff" d="M479.96,-83.3C462.17,-73.5 442.74,-62.8 425.69,-53.42"/>
<polygon fill="#63b8ff" stroke="#63b8ff" points="477.87,-86.15 488.32,-87.9 481.25,-80.01 477.87,-86.15"/>
</a>
</g>
</g>
<!-- Node7 -->
<g id="Node000007" class="node">
<title>Node7</title>
<g id="a_Node000007"><a xlink:href="../../d2/d21/src_2frontend_2main_8cpp.html" target="_top" xlink:title="Main entry point for the 2D Graphics Modeler application.">
<polygon fill="white" stroke="#666666" points="595.25,-53 466,-53 466,0 595.25,0 595.25,-53"/>
<text text-anchor="start" x="474" y="-39.5" font-family="Helvetica,sans-Serif" font-size="10.00">/Users/gautam/Local</text>
<text text-anchor="start" x="474" y="-28.25" font-family="Helvetica,sans-Serif" font-size="10.00">/Forge/Team&#45;Alphawolves</text>
<text text-anchor="start" x="474" y="-17" font-family="Helvetica,sans-Serif" font-size="10.00">/2D&#45;Graphics&#45;Modeler/src</text>
<text text-anchor="middle" x="530.62" y="-5.75" font-family="Helvetica,sans-Serif" font-size="10.00">/frontend/main.cpp</text>
</a>
</g>
</g>
<!-- Node4&#45;&gt;Node7 -->
<g id="edge6_Node000004_Node000007" class="edge">
<title>Node4&#45;&gt;Node7</title>
<g id="a_edge6_Node000004_Node000007"><a xlink:title=" ">
<path fill="none" stroke="#63b8ff" d="M534.08,-77.61C533.52,-69.41 532.93,-60.89 532.4,-53.25"/>
<polygon fill="#63b8ff" stroke="#63b8ff" points="530.57,-77.62 534.75,-87.36 537.56,-77.14 530.57,-77.62"/>
</a>
</g>
</g>
<!-- Node10 -->
<g id="Node000010" class="node">
<title>Node10</title>
<g id="a_Node000010"><a xlink:href="../../d0/d45/_shapes_manager_8cpp.html" target="_top" xlink:title=" ">
<polygon fill="white" stroke="#666666" points="1486.25,-231 1339,-231 1339,-178 1486.25,-178 1486.25,-231"/>
<text text-anchor="start" x="1347" y="-217.5" font-family="Helvetica,sans-Serif" font-size="10.00">/Users/gautam/Local</text>
<text text-anchor="start" x="1347" y="-206.25" font-family="Helvetica,sans-Serif" font-size="10.00">/Forge/Team&#45;Alphawolves</text>
<text text-anchor="start" x="1347" y="-195" font-family="Helvetica,sans-Serif" font-size="10.00">/2D&#45;Graphics&#45;Modeler/src</text>
<text text-anchor="middle" x="1412.62" y="-183.75" font-family="Helvetica,sans-Serif" font-size="10.00">/backend/ShapesManager.cpp</text>
</a>
</g>
</g>
<!-- Node9&#45;&gt;Node10 -->
<g id="edge9_Node000009_Node000010" class="edge">
<title>Node9&#45;&gt;Node10</title>
<g id="a_edge9_Node000009_Node000010"><a xlink:title=" ">
<path fill="none" stroke="#63b8ff" d="M1285.65,-261.86C1308.11,-251.89 1332.8,-240.93 1354.39,-231.35"/>
<polygon fill="#63b8ff" stroke="#63b8ff" points="1284.27,-258.64 1276.55,-265.9 1287.11,-265.04 1284.27,-258.64"/>
</a>
</g>
</g>
<!-- Node12 -->
<g id="Node000012" class="node">
<title>Node12</title>
<g id="a_Node000012"><a xlink:href="../../d7/d96/_testimonial_manager_8cpp.html" target="_top" xlink:title=" ">
<polygon fill="white" stroke="#666666" points="940.5,-231 776.75,-231 776.75,-178 940.5,-178 940.5,-231"/>
<text text-anchor="start" x="784.75" y="-217.5" font-family="Helvetica,sans-Serif" font-size="10.00">/Users/gautam/Local</text>
<text text-anchor="start" x="784.75" y="-206.25" font-family="Helvetica,sans-Serif" font-size="10.00">/Forge/Team&#45;Alphawolves</text>
<text text-anchor="start" x="784.75" y="-195" font-family="Helvetica,sans-Serif" font-size="10.00">/2D&#45;Graphics&#45;Modeler/src</text>
<text text-anchor="middle" x="858.62" y="-183.75" font-family="Helvetica,sans-Serif" font-size="10.00">/backend/TestimonialManager.cpp</text>
</a>
</g>
</g>
<!-- Node11&#45;&gt;Node12 -->
<g id="edge11_Node000011_Node000012" class="edge">
<title>Node11&#45;&gt;Node12</title>
<g id="a_edge11_Node000011_Node000012"><a xlink:title=" ">
<path fill="none" stroke="#63b8ff" d="M858.62,-255.61C858.62,-247.41 858.62,-238.89 858.62,-231.25"/>
<polygon fill="#63b8ff" stroke="#63b8ff" points="855.13,-255.35 858.63,-265.35 862.13,-255.35 855.13,-255.35"/>
</a>
</g>
</g>
<!-- Node13 -->
<g id="Node000013" class="node">
<title>Node13</title>
<g id="a_Node000013"><a xlink:href="../../da/d08/_testimonial_dialog_8cpp.html" target="_top" xlink:title=" ">
<polygon fill="white" stroke="#666666" points="1112.25,-231 959,-231 959,-178 1112.25,-178 1112.25,-231"/>
<text text-anchor="start" x="967" y="-217.5" font-family="Helvetica,sans-Serif" font-size="10.00">/Users/gautam/Local</text>
<text text-anchor="start" x="967" y="-206.25" font-family="Helvetica,sans-Serif" font-size="10.00">/Forge/Team&#45;Alphawolves</text>
<text text-anchor="start" x="967" y="-195" font-family="Helvetica,sans-Serif" font-size="10.00">/2D&#45;Graphics&#45;Modeler/src</text>
<text text-anchor="middle" x="1035.62" y="-183.75" font-family="Helvetica,sans-Serif" font-size="10.00">/frontend/TestimonialDialog.cpp</text>
</a>
</g>
</g>
<!-- Node11&#45;&gt;Node13 -->
<g id="edge12_Node000011_Node000013" class="edge">
<title>Node11&#45;&gt;Node13</title>
<g id="a_edge12_Node000011_Node000013"><a xlink:title=" ">
<path fill="none" stroke="#63b8ff" d="M921.55,-261.57C941.63,-251.7 963.62,-240.89 982.9,-231.42"/>
<polygon fill="#63b8ff" stroke="#63b8ff" points="920.04,-258.41 912.61,-265.97 923.13,-264.69 920.04,-258.41"/>
</a>
</g>
</g>
<!-- Node14 -->
<g id="Node000014" class="node">
<title>Node14</title>
<g id="a_Node000014"><a xlink:href="../../d6/db1/_testimonials_display_dialog_8cpp.html" target="_top" xlink:title=" ">
<polygon fill="white" stroke="#666666" points="1321.38,-231 1129.88,-231 1129.88,-178 1321.38,-178 1321.38,-231"/>
<text text-anchor="start" x="1137.88" y="-217.5" font-family="Helvetica,sans-Serif" font-size="10.00">/Users/gautam/Local</text>
<text text-anchor="start" x="1137.88" y="-206.25" font-family="Helvetica,sans-Serif" font-size="10.00">/Forge/Team&#45;Alphawolves</text>
<text text-anchor="start" x="1137.88" y="-195" font-family="Helvetica,sans-Serif" font-size="10.00">/2D&#45;Graphics&#45;Modeler/src</text>
<text text-anchor="middle" x="1225.62" y="-183.75" font-family="Helvetica,sans-Serif" font-size="10.00">/frontend/TestimonialsDisplayDialog.cpp</text>
</a>
</g>
</g>
<!-- Node11&#45;&gt;Node14 -->
<g id="edge13_Node000011_Node000014" class="edge">
<title>Node11&#45;&gt;Node14</title>
<g id="a_edge13_Node000011_Node000014"><a xlink:title=" ">
<path fill="none" stroke="#63b8ff" d="M946.51,-272.2C997.64,-260.32 1063.32,-244.97 1121.62,-231 1124.25,-230.37 1126.9,-229.73 1129.59,-229.09"/>
<polygon fill="#63b8ff" stroke="#63b8ff" points="945.92,-268.74 936.97,-274.41 947.5,-275.56 945.92,-268.74"/>
</a>
</g>
</g>
<!-- Node15 -->
<g id="Node000015" class="node">
<title>Node15</title>
<g id="a_Node000015"><a xlink:href="../../d9/d53/mainwindow_8h.html" target="_top" xlink:title=" ">
<polygon fill="white" stroke="#666666" points="758.25,-231 629,-231 629,-178 758.25,-178 758.25,-231"/>
<text text-anchor="start" x="637" y="-217.5" font-family="Helvetica,sans-Serif" font-size="10.00">/Users/gautam/Local</text>
<text text-anchor="start" x="637" y="-206.25" font-family="Helvetica,sans-Serif" font-size="10.00">/Forge/Team&#45;Alphawolves</text>
<text text-anchor="start" x="637" y="-195" font-family="Helvetica,sans-Serif" font-size="10.00">/2D&#45;Graphics&#45;Modeler/src</text>
<text text-anchor="middle" x="693.62" y="-183.75" font-family="Helvetica,sans-Serif" font-size="10.00">/frontend/mainwindow.h</text>
</a>
</g>
</g>
<!-- Node11&#45;&gt;Node15 -->
<g id="edge14_Node000011_Node000015" class="edge">
<title>Node11&#45;&gt;Node15</title>
<g id="a_edge14_Node000011_Node000015"><a xlink:title=" ">
<path fill="none" stroke="#63b8ff" d="M799.45,-261.3C780.88,-251.5 760.58,-240.8 742.78,-231.42"/>
<polygon fill="#63b8ff" stroke="#63b8ff" points="797.75,-264.36 808.23,-265.93 801.01,-258.17 797.75,-264.36"/>
</a>
</g>
</g>
<!-- Node15&#45;&gt;Node4 -->
<g id="edge15_Node000015_Node000004" class="edge">
<title>Node15&#45;&gt;Node4</title>
<g id="a_edge15_Node000015_Node000004"><a xlink:title=" ">
<path fill="none" stroke="#63b8ff" d="M637.32,-172.3C619.65,-162.5 600.34,-151.8 583.4,-142.42"/>
<polygon fill="#63b8ff" stroke="#63b8ff" points="635.18,-175.11 645.62,-176.9 638.57,-168.99 635.18,-175.11"/>
</a>
</g>
</g>
<!-- Node16 -->
<g id="Node000016" class="node">
<title>Node16</title>
<g id="a_Node000016"><a xlink:href="../../d8/dd9/mainwindow_8cpp.html" target="_top" xlink:title=" ">
<polygon fill="white" stroke="#666666" points="758.25,-142 629,-142 629,-89 758.25,-89 758.25,-142"/>
<text text-anchor="start" x="637" y="-128.5" font-family="Helvetica,sans-Serif" font-size="10.00">/Users/gautam/Local</text>
<text text-anchor="start" x="637" y="-117.25" font-family="Helvetica,sans-Serif" font-size="10.00">/Forge/Team&#45;Alphawolves</text>
<text text-anchor="start" x="637" y="-106" font-family="Helvetica,sans-Serif" font-size="10.00">/2D&#45;Graphics&#45;Modeler/src</text>
<text text-anchor="middle" x="693.62" y="-94.75" font-family="Helvetica,sans-Serif" font-size="10.00">/frontend/mainwindow.cpp</text>
</a>
</g>
</g>
<!-- Node15&#45;&gt;Node16 -->
<g id="edge16_Node000015_Node000016" class="edge">
<title>Node15&#45;&gt;Node16</title>
<g id="a_edge16_Node000015_Node000016"><a xlink:title=" ">
<path fill="none" stroke="#63b8ff" d="M693.62,-166.61C693.62,-158.41 693.62,-149.89 693.62,-142.25"/>
<polygon fill="#63b8ff" stroke="#63b8ff" points="690.13,-166.35 693.63,-176.35 697.13,-166.35 690.13,-166.35"/>
</a>
</g>
</g>
<!-- Node17&#45;&gt;Node4 -->
<g id="edge18_Node000017_Node000004" class="edge">
<title>Node17&#45;&gt;Node4</title>
<g id="a_edge18_Node000017_Node000004"><a xlink:title=" ">
<path fill="none" stroke="#63b8ff" d="M361.32,-177.26C396.6,-165.03 438.14,-150.64 471.93,-138.92"/>
<polygon fill="#63b8ff" stroke="#63b8ff" points="360.32,-173.9 352.02,-180.49 362.62,-180.52 360.32,-173.9"/>
</a>
</g>
</g>
<!-- Node17&#45;&gt;Node6 -->
<g id="edge20_Node000017_Node000006" class="edge">
<title>Node17&#45;&gt;Node6</title>
<g id="a_edge20_Node000017_Node000006"><a xlink:title=" ">
<path fill="none" stroke="#63b8ff" d="M307.07,-167.8C311.97,-159.4 317.06,-150.43 321.62,-142 337.89,-111.92 355.21,-76.6 366.44,-53.22"/>
<polygon fill="#63b8ff" stroke="#63b8ff" points="304.08,-165.99 302.03,-176.38 310.11,-169.54 304.08,-165.99"/>
</a>
</g>
</g>
<!-- Node18 -->
<g id="Node000018" class="node">
<title>Node18</title>
<g id="a_Node000018"><a xlink:href="../../d4/d3b/_user_manager_8cpp.html" target="_top" xlink:title=" ">
<polygon fill="white" stroke="#666666" points="135.25,-142 0,-142 0,-89 135.25,-89 135.25,-142"/>
<text text-anchor="start" x="8" y="-128.5" font-family="Helvetica,sans-Serif" font-size="10.00">/Users/gautam/Local</text>
<text text-anchor="start" x="8" y="-117.25" font-family="Helvetica,sans-Serif" font-size="10.00">/Forge/Team&#45;Alphawolves</text>
<text text-anchor="start" x="8" y="-106" font-family="Helvetica,sans-Serif" font-size="10.00">/2D&#45;Graphics&#45;Modeler/src</text>
<text text-anchor="middle" x="67.62" y="-94.75" font-family="Helvetica,sans-Serif" font-size="10.00">/backend/UserManager.cpp</text>
</a>
</g>
</g>
<!-- Node17&#45;&gt;Node18 -->
<g id="edge19_Node000017_Node000018" class="edge">
<title>Node17&#45;&gt;Node18</title>
<g id="a_edge19_Node000017_Node000018"><a xlink:title=" ">
<path fill="none" stroke="#63b8ff" d="M209.87,-173.27C184.62,-163.19 156.74,-152.06 132.4,-142.35"/>
<polygon fill="#63b8ff" stroke="#63b8ff" points="208.52,-176.5 219.11,-176.95 211.12,-170 208.52,-176.5"/>
</a>
</g>
</g>
<!-- Node19 -->
<g id="Node000019" class="node">
<title>Node19</title>
<g id="a_Node000019"><a xlink:href="../../de/d9f/moc___user_manager_8cpp.html" target="_top" xlink:title=" ">
<polygon fill="white" stroke="#666666" points="312.25,-142 153,-142 153,-89 312.25,-89 312.25,-142"/>
<text text-anchor="start" x="161" y="-128.5" font-family="Helvetica,sans-Serif" font-size="10.00">/Users/gautam/Local</text>
<text text-anchor="start" x="161" y="-117.25" font-family="Helvetica,sans-Serif" font-size="10.00">/Forge/Team&#45;Alphawolves</text>
<text text-anchor="start" x="161" y="-106" font-family="Helvetica,sans-Serif" font-size="10.00">/2D&#45;Graphics&#45;Modeler/src</text>
<text text-anchor="middle" x="232.62" y="-94.75" font-family="Helvetica,sans-Serif" font-size="10.00">/backend/moc_UserManager.cpp</text>
</a>
</g>
</g>
<!-- Node17&#45;&gt;Node19 -->
<g id="edge21_Node000017_Node000019" class="edge">
<title>Node17&#45;&gt;Node19</title>
<g id="a_edge21_Node000017_Node000019"><a xlink:title=" ">
<path fill="none" stroke="#63b8ff" d="M264.18,-168.3C258.88,-159.59 253.29,-150.42 248.31,-142.25"/>
<polygon fill="#63b8ff" stroke="#63b8ff" points="261.03,-169.86 269.22,-176.58 267.01,-166.21 261.03,-169.86"/>
</a>
</g>
</g>
</g>
</svg>

<g id="navigator" transform="translate(0 0)" fill="#404254">
  <rect fill="#f2f5e9" fill-opacity="0.5" stroke="#606060" stroke-width=".5" x="0" y="0" width="60" height="60"/>
  <use id="zoomplus" xlink:href="#zoomPlus" x="17" y="9" onmousedown="handleZoom(evt,'in')"/>
  <use id="zoomminus" xlink:href="#zoomMin" x="42" y="9" onmousedown="handleZoom(evt,'out')"/>
  <use id="reset" xlink:href="#resetDef" x="30" y="36" onmousedown="handleReset()"/>
   <use id="arrowup" xlink:href="#arrowUp" x="0" y="0" onmousedown="handlePan(0,-1)"/>
  <use id="arrowright" xlink:href="#arrowRight" x="0" y="0" onmousedown="handlePan(1,0)"/>
  <use id="arrowdown" xlink:href="#arrowDown" x="0" y="0" onmousedown="handlePan(0,1)"/>
  <use id="arrowleft" xlink:href="#arrowLeft" x="0" y="0" onmousedown="handlePan(-1,0)"/>
</g>
<svg viewBox="0 0 15 15" width="100%" height="30px" preserveAspectRatio="xMaxYMin meet">
 <g id="arrow_out" transform="scale(0.3 0.3)">
  <a xlink:href="_parser_8h__dep__incl_org.svg" target="_base">
   <rect id="button" ry="5" rx="5" y="6" x="6" height="38" width="38"
        fill="#f2f5e9" fill-opacity="0.5" stroke="#606060" stroke-width="1.0"/>
   <path id="arrow"
     d="M 11.500037,31.436501 C 11.940474,20.09759 22.043105,11.32322 32.158766,21.979434 L 37.068811,17.246167 C 37.068811,17.246167 37.088388,32 37.088388,32 L 22.160133,31.978069 C 22.160133,31.978069 26.997745,27.140456 26.997745,27.140456 C 18.528582,18.264221 13.291696,25.230495 11.500037,31.436501 z"
     style="fill:#404040;"/>
  </a>
 </g>
</svg>

<style type='text/css'>
<![CDATA[
[data-mouse-over-selected='false'] { opacity: 0.7; }
[data-mouse-over-selected='true']  { opacity: 1.0; }
]]>
</style>
<script type="application/ecmascript"><![CDATA[
document.addEventListener('DOMContentLoaded', (event) => {
  highlightEdges();
  highlightAdjacentNodes();
});
]]></script>
</svg>
