<?xml version="1.0" encoding="UTF-8" standalone="no"?>
<!DOCTYPE svg PUBLIC "-//W3C//DTD SVG 1.1//EN"
 "http://www.w3.org/Graphics/SVG/1.1/DTD/svg11.dtd">
<!-- Generated by graphviz version 12.2.1 (20241206.2353)
 -->
<!-- Title: Shape::setTrackerId Pages: 1 -->
<svg width="400pt" height="27pt"
 viewBox="0.00 0.00 399.50 27.25" xmlns="http://www.w3.org/2000/svg" xmlns:xlink="http://www.w3.org/1999/xlink">
<g id="graph0" class="graph" transform="scale(1 1) rotate(0) translate(4 23.25)">
<title>Shape::setTrackerId</title>
<!-- Node1 -->
<g id="Node000001" class="node">
<title>Node1</title>
<g id="a_Node000001"><a xlink:title=" ">
<polygon fill="#999999" stroke="#666666" points="391.5,-19.25 287,-19.25 287,0 391.5,0 391.5,-19.25"/>
<text text-anchor="middle" x="339.25" y="-5.75" font-family="Helvetica,sans-Serif" font-size="10.00">Shape::setTrackerId</text>
</a>
</g>
</g>
<!-- Node2 -->
<g id="Node000002" class="node">
<title>Node2</title>
<g id="a_Node000002"><a xlink:href="../../dc/db7/class_parser.html#a991032ca21e8e64a0fa274b8056cc669" target="_top" xlink:title="Constructs a concrete Shape object from a populated MorphicShape accumulator.">
<polygon fill="white" stroke="#666666" points="251,-19.25 151,-19.25 151,0 251,0 251,-19.25"/>
<text text-anchor="middle" x="201" y="-5.75" font-family="Helvetica,sans-Serif" font-size="10.00">Parser::BuildShape</text>
</a>
</g>
</g>
<!-- Node1&#45;&gt;Node2 -->
<g id="edge1_Node000001_Node000002" class="edge">
<title>Node1&#45;&gt;Node2</title>
<g id="a_edge1_Node000001_Node000002"><a xlink:title=" ">
<path fill="none" stroke="#63b8ff" d="M275.42,-9.62C267.34,-9.62 259.16,-9.62 251.33,-9.62"/>
<polygon fill="#63b8ff" stroke="#63b8ff" points="275.23,-13.13 285.23,-9.63 275.23,-6.13 275.23,-13.13"/>
</a>
</g>
</g>
<!-- Node3 -->
<g id="Node000003" class="node">
<title>Node3</title>
<g id="a_Node000003"><a xlink:href="../../dc/db7/class_parser.html#a9c4bd21d0d23be70682e026d6e702ec9" target="_top" xlink:title="Converts a JSON string representation into a vector of Shape objects.">
<polygon fill="white" stroke="#666666" points="115,-19.25 0,-19.25 0,0 115,0 115,-19.25"/>
<text text-anchor="middle" x="57.5" y="-5.75" font-family="Helvetica,sans-Serif" font-size="10.00">Parser::JsonToShapes</text>
</a>
</g>
</g>
<!-- Node2&#45;&gt;Node3 -->
<g id="edge2_Node000002_Node000003" class="edge">
<title>Node2&#45;&gt;Node3</title>
<g id="a_edge2_Node000002_Node000003"><a xlink:title=" ">
<path fill="none" stroke="#63b8ff" d="M139.16,-9.62C131.3,-9.62 123.27,-9.62 115.47,-9.62"/>
<polygon fill="#63b8ff" stroke="#63b8ff" points="139,-13.13 149,-9.63 139,-6.13 139,-13.13"/>
</a>
</g>
</g>
</g>
</svg>
