<?xml version="1.0" encoding="UTF-8" standalone="no"?>
<!DOCTYPE svg PUBLIC "-//W3C//DTD SVG 1.1//EN"
 "http://www.w3.org/Graphics/SVG/1.1/DTD/svg11.dtd">
<!-- Generated by graphviz version 12.2.1 (20241206.2353)
 -->
<!-- Title: Shape::Shape Pages: 1 -->
<svg width="232pt" height="434pt"
 viewBox="0.00 0.00 232.00 434.25" xmlns="http://www.w3.org/2000/svg" xmlns:xlink="http://www.w3.org/1999/xlink">

<svg id="main" version="1.1" xmlns="http://www.w3.org/2000/svg" xmlns:xlink="http://www.w3.org/1999/xlink" xml:space="preserve">

<style type="text/css"><![CDATA[
.node, .edge {opacity: 0.7;}
.node.selected, .edge.selected {opacity: 1;}
.edge:hover path { stroke: red; }
.edge:hover polygon { stroke: red; fill: red; }
]]></style>
<script type="application/ecmascript" xlink:href="../../svg.min.js"/>
<svg id="graph" class="graph">
<g id="graph0" class="graph" transform="scale(1 1) rotate(0) translate(4 430.25)">
<title>Shape::Shape</title>
<!-- Node1 -->
<g id="Node000001" class="node">
<title>Node1</title>
<g id="a_Node000001"><a xlink:title="Shape Constructor.">
<polygon fill="#999999" stroke="#666666" points="224,-222.25 146.5,-222.25 146.5,-203 224,-203 224,-222.25"/>
<text text-anchor="middle" x="185.25" y="-208.75" font-family="Helvetica,sans-Serif" font-size="10.00">Shape::Shape</text>
</a>
</g>
</g>
<!-- Node2 -->
<g id="Node000002" class="node">
<title>Node2</title>
<g id="a_Node000002"><a xlink:href="../../d0/d88/class_circle.html#a782690f42da545ac8e35d3732ed76f42" target="_top" xlink:title="Circle Constructor.">
<polygon fill="white" stroke="#666666" points="91.75,-426.25 18.75,-426.25 18.75,-407 91.75,-407 91.75,-426.25"/>
<text text-anchor="middle" x="55.25" y="-412.75" font-family="Helvetica,sans-Serif" font-size="10.00">Circle::Circle</text>
</a>
</g>
</g>
<!-- Node1&#45;&gt;Node2 -->
<g id="edge1_Node000001_Node000002" class="edge">
<title>Node1&#45;&gt;Node2</title>
<g id="a_edge1_Node000001_Node000002"><a xlink:title=" ">
<path fill="none" stroke="#63b8ff" d="M181.68,-234.02C175.95,-272.4 158.6,-353.2 110.5,-398.62 105.31,-403.53 98.74,-407.1 91.99,-409.7"/>
<polygon fill="#63b8ff" stroke="#63b8ff" points="185.13,-234.62 183,-224.24 178.2,-233.68 185.13,-234.62"/>
</a>
</g>
</g>
<!-- Node3 -->
<g id="Node000003" class="node">
<title>Node3</title>
<g id="a_Node000003"><a xlink:href="../../dc/d25/class_ellipse.html#a6fd6f0bad023ecfd3d607142c21846c4" target="_top" xlink:title="Ellipse Constructor.">
<polygon fill="white" stroke="#666666" points="95.5,-389.25 15,-389.25 15,-370 95.5,-370 95.5,-389.25"/>
<text text-anchor="middle" x="55.25" y="-375.75" font-family="Helvetica,sans-Serif" font-size="10.00">Ellipse::Ellipse</text>
</a>
</g>
</g>
<!-- Node1&#45;&gt;Node3 -->
<g id="edge2_Node000001_Node000003" class="edge">
<title>Node1&#45;&gt;Node3</title>
<g id="a_edge2_Node000001_Node000003"><a xlink:title=" ">
<path fill="none" stroke="#63b8ff" d="M179.37,-233.74C170.86,-265.89 150.3,-327.01 110.5,-361.62 106.23,-365.34 101.17,-368.29 95.89,-370.63"/>
<polygon fill="#63b8ff" stroke="#63b8ff" points="182.75,-234.62 181.77,-224.07 175.96,-232.93 182.75,-234.62"/>
</a>
</g>
</g>
<!-- Node4 -->
<g id="Node000004" class="node">
<title>Node4</title>
<g id="a_Node000004"><a xlink:href="../../dd/db4/class_line.html#aab2a9c230d1bbb8a9e07f4c554e00c26" target="_top" xlink:title="Line Constructor.">
<polygon fill="white" stroke="#666666" points="84.25,-352.25 26.25,-352.25 26.25,-333 84.25,-333 84.25,-352.25"/>
<text text-anchor="middle" x="55.25" y="-338.75" font-family="Helvetica,sans-Serif" font-size="10.00">Line::Line</text>
</a>
</g>
</g>
<!-- Node1&#45;&gt;Node4 -->
<g id="edge3_Node000001_Node000004" class="edge">
<title>Node1&#45;&gt;Node4</title>
<g id="a_edge3_Node000001_Node000004"><a xlink:title=" ">
<path fill="none" stroke="#63b8ff" d="M175.86,-233.1C164.59,-258.17 142.23,-300.28 110.5,-324.62 102.94,-330.42 93.42,-334.4 84.48,-337.12"/>
<polygon fill="#63b8ff" stroke="#63b8ff" points="179.04,-234.57 179.78,-224.01 172.61,-231.81 179.04,-234.57"/>
</a>
</g>
</g>
<!-- Node5 -->
<g id="Node000005" class="node">
<title>Node5</title>
<g id="a_Node000005"><a xlink:href="../../d7/da7/class_shape.html#a2582cd6fab0db2870c09baff73db0f7a" target="_top" xlink:title="operator &lt; &#45; Overloaded less than operator for comparing two shapeId&#39;s">
<polygon fill="white" stroke="#666666" points="100.75,-315.25 9.75,-315.25 9.75,-296 100.75,-296 100.75,-315.25"/>
<text text-anchor="middle" x="55.25" y="-301.75" font-family="Helvetica,sans-Serif" font-size="10.00">Shape::operator&lt;</text>
</a>
</g>
</g>
<!-- Node1&#45;&gt;Node5 -->
<g id="edge4_Node000001_Node000005" class="edge">
<title>Node1&#45;&gt;Node5</title>
<g id="a_edge4_Node000001_Node000005"><a xlink:title=" ">
<path fill="none" stroke="#63b8ff" d="M170,-231.56C156.39,-248.43 134.47,-272.69 110.5,-287.62 105.53,-290.72 99.97,-293.35 94.36,-295.55"/>
<polygon fill="#63b8ff" stroke="#63b8ff" points="172.66,-233.84 176.06,-223.8 167.15,-229.52 172.66,-233.84"/>
</a>
</g>
</g>
<!-- Node6 -->
<g id="Node000006" class="node">
<title>Node6</title>
<g id="a_Node000006"><a xlink:href="../../d7/da7/class_shape.html#a7828d1802cccac883bb941c058207996" target="_top" xlink:title=" ">
<polygon fill="white" stroke="#666666" points="100.75,-278.25 9.75,-278.25 9.75,-259 100.75,-259 100.75,-278.25"/>
<text text-anchor="middle" x="55.25" y="-264.75" font-family="Helvetica,sans-Serif" font-size="10.00">Shape::operator=</text>
</a>
</g>
</g>
<!-- Node1&#45;&gt;Node6 -->
<g id="edge5_Node000001_Node000006" class="edge">
<title>Node1&#45;&gt;Node6</title>
<g id="a_edge5_Node000001_Node000006"><a xlink:title=" ">
<path fill="none" stroke="#63b8ff" d="M156.98,-227.97C143.27,-235.34 126.26,-244 110.5,-250.62 103.73,-253.47 96.34,-256.18 89.26,-258.58"/>
<polygon fill="#63b8ff" stroke="#63b8ff" points="158.31,-231.22 165.41,-223.36 154.95,-225.08 158.31,-231.22"/>
</a>
</g>
</g>
<!-- Node7 -->
<g id="Node000007" class="node">
<title>Node7</title>
<g id="a_Node000007"><a xlink:href="../../d7/da7/class_shape.html#aae03c0cb0523a8e5efa15e40176ebdbd" target="_top" xlink:title="operator == &#45; Overloaded equality operator for comparing two shapeId&#39;s">
<polygon fill="white" stroke="#666666" points="103.75,-241.25 6.75,-241.25 6.75,-222 103.75,-222 103.75,-241.25"/>
<text text-anchor="middle" x="55.25" y="-227.75" font-family="Helvetica,sans-Serif" font-size="10.00">Shape::operator==</text>
</a>
</g>
</g>
<!-- Node1&#45;&gt;Node7 -->
<g id="edge6_Node000001_Node000007" class="edge">
<title>Node1&#45;&gt;Node7</title>
<g id="a_edge6_Node000001_Node000007"><a xlink:title=" ">
<path fill="none" stroke="#63b8ff" d="M134.97,-219.94C124.78,-221.45 114.06,-223.04 103.93,-224.55"/>
<polygon fill="#63b8ff" stroke="#63b8ff" points="135.32,-223.43 144.7,-218.5 134.29,-216.5 135.32,-223.43"/>
</a>
</g>
</g>
<!-- Node8 -->
<g id="Node000008" class="node">
<title>Node8</title>
<g id="a_Node000008"><a xlink:href="../../d1/db0/class_polygon.html#a7ab0204bb62eddea1fb659e8a6ecd202" target="_top" xlink:title="Polygon Constructor.">
<polygon fill="white" stroke="#666666" points="101.5,-204.25 9,-204.25 9,-185 101.5,-185 101.5,-204.25"/>
<text text-anchor="middle" x="55.25" y="-190.75" font-family="Helvetica,sans-Serif" font-size="10.00">Polygon::Polygon</text>
</a>
</g>
</g>
<!-- Node1&#45;&gt;Node8 -->
<g id="edge7_Node000001_Node000008" class="edge">
<title>Node1&#45;&gt;Node8</title>
<g id="a_edge7_Node000001_Node000008"><a xlink:title=" ">
<path fill="none" stroke="#63b8ff" d="M135.02,-205.7C124.04,-204.16 112.44,-202.53 101.61,-201"/>
<polygon fill="#63b8ff" stroke="#63b8ff" points="134.3,-209.14 144.69,-207.06 135.28,-202.2 134.3,-209.14"/>
</a>
</g>
</g>
<!-- Node9 -->
<g id="Node000009" class="node">
<title>Node9</title>
<g id="a_Node000009"><a xlink:href="../../d1/d42/class_polyline.html#a27e879d516bc07264e2e871211df3a1f" target="_top" xlink:title="Polyline.">
<polygon fill="white" stroke="#666666" points="100.75,-167.25 9.75,-167.25 9.75,-148 100.75,-148 100.75,-167.25"/>
<text text-anchor="middle" x="55.25" y="-153.75" font-family="Helvetica,sans-Serif" font-size="10.00">Polyline::Polyline</text>
</a>
</g>
</g>
<!-- Node1&#45;&gt;Node9 -->
<g id="edge8_Node000001_Node000009" class="edge">
<title>Node1&#45;&gt;Node9</title>
<g id="a_edge8_Node000001_Node000009"><a xlink:title=" ">
<path fill="none" stroke="#63b8ff" d="M155.98,-197.23C142.43,-190.18 125.85,-181.98 110.5,-175.62 103.72,-172.81 96.32,-170.13 89.23,-167.72"/>
<polygon fill="#63b8ff" stroke="#63b8ff" points="154.29,-200.3 164.77,-201.89 157.57,-194.12 154.29,-200.3"/>
</a>
</g>
</g>
<!-- Node10 -->
<g id="Node000010" class="node">
<title>Node10</title>
<g id="a_Node000010"><a xlink:href="../../d9/dc7/class_rectangle.html#af84479273a72d93294cd210732117dd7" target="_top" xlink:title="Rectangle.">
<polygon fill="white" stroke="#666666" points="110.5,-130.25 0,-130.25 0,-111 110.5,-111 110.5,-130.25"/>
<text text-anchor="middle" x="55.25" y="-116.75" font-family="Helvetica,sans-Serif" font-size="10.00">Rectangle::Rectangle</text>
</a>
</g>
</g>
<!-- Node1&#45;&gt;Node10 -->
<g id="edge9_Node000001_Node000010" class="edge">
<title>Node1&#45;&gt;Node10</title>
<g id="a_edge9_Node000001_Node000010"><a xlink:title=" ">
<path fill="none" stroke="#63b8ff" d="M169.72,-193.68C156.07,-177.05 134.23,-153.3 110.5,-138.62 105.52,-135.55 99.95,-132.93 94.34,-130.73"/>
<polygon fill="#63b8ff" stroke="#63b8ff" points="166.85,-195.7 175.82,-201.34 172.33,-191.34 166.85,-195.7"/>
</a>
</g>
</g>
<!-- Node11 -->
<g id="Node000011" class="node">
<title>Node11</title>
<g id="a_Node000011"><a xlink:href="../../d7/da7/class_shape.html#a7eda07b6d943d13721e1787f2e527a25" target="_top" xlink:title=" ">
<polygon fill="white" stroke="#666666" points="94,-93.25 16.5,-93.25 16.5,-74 94,-74 94,-93.25"/>
<text text-anchor="middle" x="55.25" y="-79.75" font-family="Helvetica,sans-Serif" font-size="10.00">Shape::Shape</text>
</a>
</g>
</g>
<!-- Node1&#45;&gt;Node11 -->
<g id="edge10_Node000001_Node000011" class="edge">
<title>Node1&#45;&gt;Node11</title>
<g id="a_edge10_Node000001_Node000011"><a xlink:title=" ">
<path fill="none" stroke="#63b8ff" d="M175.81,-192.33C164.49,-167.49 142.09,-125.75 110.5,-101.62 105.69,-97.95 100.09,-95 94.35,-92.65"/>
<polygon fill="#63b8ff" stroke="#63b8ff" points="172.54,-193.57 179.75,-201.34 178.95,-190.77 172.54,-193.57"/>
</a>
</g>
</g>
<!-- Node12 -->
<g id="Node000012" class="node">
<title>Node12</title>
<g id="a_Node000012"><a xlink:href="../../d9/d0c/class_square.html#a4b6e69fc0dda7084eb3db5d3fe92dfb3" target="_top" xlink:title="Square.">
<polygon fill="white" stroke="#666666" points="97,-56.25 13.5,-56.25 13.5,-37 97,-37 97,-56.25"/>
<text text-anchor="middle" x="55.25" y="-42.75" font-family="Helvetica,sans-Serif" font-size="10.00">Square::Square</text>
</a>
</g>
</g>
<!-- Node1&#45;&gt;Node12 -->
<g id="edge11_Node000001_Node000012" class="edge">
<title>Node1&#45;&gt;Node12</title>
<g id="a_edge11_Node000001_Node000012"><a xlink:title=" ">
<path fill="none" stroke="#63b8ff" d="M179.32,-191.65C170.76,-159.71 150.13,-99 110.5,-64.62 106.6,-61.24 102.05,-58.49 97.27,-56.26"/>
<polygon fill="#63b8ff" stroke="#63b8ff" points="175.91,-192.4 181.74,-201.25 182.69,-190.69 175.91,-192.4"/>
</a>
</g>
</g>
<!-- Node13 -->
<g id="Node000013" class="node">
<title>Node13</title>
<g id="a_Node000013"><a xlink:href="../../da/d0e/class_text.html#a3c521086182cf14349dc8c120afd9d09" target="_top" xlink:title="Text.">
<polygon fill="white" stroke="#666666" points="85,-19.25 25.5,-19.25 25.5,0 85,0 85,-19.25"/>
<text text-anchor="middle" x="55.25" y="-5.75" font-family="Helvetica,sans-Serif" font-size="10.00">Text::Text</text>
</a>
</g>
</g>
<!-- Node1&#45;&gt;Node13 -->
<g id="edge12_Node000001_Node000013" class="edge">
<title>Node1&#45;&gt;Node13</title>
<g id="a_edge12_Node000001_Node000013"><a xlink:title=" ">
<path fill="none" stroke="#63b8ff" d="M181.65,-191.34C175.86,-153.16 158.42,-72.8 110.5,-27.62 103.64,-21.16 94.4,-17.01 85.49,-14.36"/>
<polygon fill="#63b8ff" stroke="#63b8ff" points="178.15,-191.64 182.98,-201.07 185.09,-190.68 178.15,-191.64"/>
</a>
</g>
</g>
</g>
</svg>
</svg>

<style type='text/css'>
<![CDATA[
[data-mouse-over-selected='false'] { opacity: 0.7; }
[data-mouse-over-selected='true']  { opacity: 1.0; }
]]>
</style>
<script type="application/ecmascript"><![CDATA[
document.addEventListener('DOMContentLoaded', (event) => {
  highlightEdges();
  highlightAdjacentNodes();
});
]]></script>
</svg>
