<?xml version="1.0" encoding="UTF-8" standalone="no"?>
<!DOCTYPE svg PUBLIC "-//W3C//DTD SVG 1.1//EN"
 "http://www.w3.org/Graphics/SVG/1.1/DTD/svg11.dtd">
<!-- Generated by graphviz version 12.2.1 (20241206.2353)
 -->
<!-- Title: Shape::allocateTrackerId Pages: 1 -->
<svg width="571pt" height="471pt"
 viewBox="0.00 0.00 570.75 471.25" xmlns="http://www.w3.org/2000/svg" xmlns:xlink="http://www.w3.org/1999/xlink">
<g id="graph0" class="graph" transform="scale(1 1) rotate(0) translate(4 467.25)">
<title>Shape::allocateTrackerId</title>
<!-- Node1 -->
<g id="Node000001" class="node">
<title>Node1</title>
<g id="a_Node000001"><a xlink:title=" ">
<polygon fill="#999999" stroke="#666666" points="562.75,-259.25 438,-259.25 438,-240 562.75,-240 562.75,-259.25"/>
<text text-anchor="middle" x="500.38" y="-245.75" font-family="Helvetica,sans-Serif" font-size="10.00">Shape::allocateTrackerId</text>
</a>
</g>
</g>
<!-- Node2 -->
<g id="Node000002" class="node">
<title>Node2</title>
<g id="a_Node000002"><a xlink:href="../../d7/da7/class_shape.html#af00c8cc69ddcc455d010997254e5d84f" target="_top" xlink:title=" ">
<polygon fill="white" stroke="#666666" points="402,-370.25 297.5,-370.25 297.5,-351 402,-351 402,-370.25"/>
<text text-anchor="middle" x="349.75" y="-356.75" font-family="Helvetica,sans-Serif" font-size="10.00">Shape::setTrackerId</text>
</a>
</g>
</g>
<!-- Node1&#45;&gt;Node2 -->
<g id="edge1_Node000001_Node000002" class="edge">
<title>Node1&#45;&gt;Node2</title>
<g id="a_edge1_Node000001_Node000002"><a xlink:title=" ">
<path fill="none" stroke="#63b8ff" d="M477.05,-266.3C445.69,-289.72 389.6,-331.61 364.06,-350.68"/>
<polygon fill="#63b8ff" stroke="#63b8ff" points="478.79,-269.37 484.71,-260.58 474.6,-263.76 478.79,-269.37"/>
</a>
</g>
</g>
<!-- Node5 -->
<g id="Node000005" class="node">
<title>Node5</title>
<g id="a_Node000005"><a xlink:href="../../d7/da7/class_shape.html#a3fffc5f799f419e3e608e03ab1f3e913" target="_top" xlink:title="Shape Constructor.">
<polygon fill="white" stroke="#666666" points="388.5,-241.25 311,-241.25 311,-222 388.5,-222 388.5,-241.25"/>
<text text-anchor="middle" x="349.75" y="-227.75" font-family="Helvetica,sans-Serif" font-size="10.00">Shape::Shape</text>
</a>
</g>
</g>
<!-- Node1&#45;&gt;Node5 -->
<g id="edge4_Node000001_Node000005" class="edge">
<title>Node1&#45;&gt;Node5</title>
<g id="a_edge4_Node000001_Node000005"><a xlink:title=" ">
<path fill="none" stroke="#63b8ff" d="M426.27,-240.77C413.27,-239.2 400.23,-237.62 388.72,-236.22"/>
<polygon fill="#63b8ff" stroke="#63b8ff" points="425.78,-244.24 436.13,-241.97 426.63,-237.29 425.78,-244.24"/>
</a>
</g>
</g>
<!-- Node3 -->
<g id="Node000003" class="node">
<title>Node3</title>
<g id="a_Node000003"><a xlink:href="../../dc/db7/class_parser.html#a991032ca21e8e64a0fa274b8056cc669" target="_top" xlink:title="Constructs a concrete Shape object from a populated MorphicShape accumulator.">
<polygon fill="white" stroke="#666666" points="256.25,-463.25 156.25,-463.25 156.25,-444 256.25,-444 256.25,-463.25"/>
<text text-anchor="middle" x="206.25" y="-449.75" font-family="Helvetica,sans-Serif" font-size="10.00">Parser::BuildShape</text>
</a>
</g>
</g>
<!-- Node2&#45;&gt;Node3 -->
<g id="edge2_Node000002_Node000003" class="edge">
<title>Node2&#45;&gt;Node3</title>
<g id="a_edge2_Node000002_Node000003"><a xlink:title=" ">
<path fill="none" stroke="#63b8ff" d="M332.11,-378.49C315.61,-395.3 288.88,-420.12 261.5,-435.62 256.15,-438.66 250.2,-441.28 244.27,-443.5"/>
<polygon fill="#63b8ff" stroke="#63b8ff" points="334.31,-381.26 338.71,-371.62 329.26,-376.41 334.31,-381.26"/>
</a>
</g>
</g>
<!-- Node4 -->
<g id="Node000004" class="node">
<title>Node4</title>
<g id="a_Node000004"><a xlink:href="../../dc/db7/class_parser.html#a9c4bd21d0d23be70682e026d6e702ec9" target="_top" xlink:title="Converts a JSON string representation into a vector of Shape objects.">
<polygon fill="white" stroke="#666666" points="115,-463.25 0,-463.25 0,-444 115,-444 115,-463.25"/>
<text text-anchor="middle" x="57.5" y="-449.75" font-family="Helvetica,sans-Serif" font-size="10.00">Parser::JsonToShapes</text>
</a>
</g>
</g>
<!-- Node3&#45;&gt;Node4 -->
<g id="edge3_Node000003_Node000004" class="edge">
<title>Node3&#45;&gt;Node4</title>
<g id="a_edge3_Node000003_Node000004"><a xlink:title=" ">
<path fill="none" stroke="#63b8ff" d="M144.72,-453.62C134.97,-453.62 124.9,-453.62 115.25,-453.62"/>
<polygon fill="#63b8ff" stroke="#63b8ff" points="144.46,-457.13 154.46,-453.63 144.46,-450.13 144.46,-457.13"/>
</a>
</g>
</g>
<!-- Node6 -->
<g id="Node000006" class="node">
<title>Node6</title>
<g id="a_Node000006"><a xlink:href="../../d0/d88/class_circle.html#a782690f42da545ac8e35d3732ed76f42" target="_top" xlink:title="Circle Constructor.">
<polygon fill="white" stroke="#666666" points="242.75,-426.25 169.75,-426.25 169.75,-407 242.75,-407 242.75,-426.25"/>
<text text-anchor="middle" x="206.25" y="-412.75" font-family="Helvetica,sans-Serif" font-size="10.00">Circle::Circle</text>
</a>
</g>
</g>
<!-- Node5&#45;&gt;Node6 -->
<g id="edge5_Node000005_Node000006" class="edge">
<title>Node5&#45;&gt;Node6</title>
<g id="a_edge5_Node000005_Node000006"><a xlink:title=" ">
<path fill="none" stroke="#63b8ff" d="M339.2,-251.93C319.22,-294.1 273.82,-388.14 261.5,-398.62 256.21,-403.13 249.76,-406.51 243.17,-409.05"/>
<polygon fill="#63b8ff" stroke="#63b8ff" points="342.26,-253.65 343.36,-243.11 335.93,-250.66 342.26,-253.65"/>
</a>
</g>
</g>
<!-- Node7 -->
<g id="Node000007" class="node">
<title>Node7</title>
<g id="a_Node000007"><a xlink:href="../../dc/d25/class_ellipse.html#a6fd6f0bad023ecfd3d607142c21846c4" target="_top" xlink:title="Ellipse Constructor.">
<polygon fill="white" stroke="#666666" points="246.5,-389.25 166,-389.25 166,-370 246.5,-370 246.5,-389.25"/>
<text text-anchor="middle" x="206.25" y="-375.75" font-family="Helvetica,sans-Serif" font-size="10.00">Ellipse::Ellipse</text>
</a>
</g>
</g>
<!-- Node5&#45;&gt;Node7 -->
<g id="edge6_Node000005_Node000007" class="edge">
<title>Node5&#45;&gt;Node7</title>
<g id="a_edge6_Node000005_Node000007"><a xlink:title=" ">
<path fill="none" stroke="#63b8ff" d="M340.2,-252.12C327.28,-280.69 300.11,-332.27 261.5,-361.62 257.08,-364.99 251.99,-367.74 246.75,-369.99"/>
<polygon fill="#63b8ff" stroke="#63b8ff" points="343.34,-253.69 344.12,-243.13 336.92,-250.9 343.34,-253.69"/>
</a>
</g>
</g>
<!-- Node8 -->
<g id="Node000008" class="node">
<title>Node8</title>
<g id="a_Node000008"><a xlink:href="../../dd/db4/class_line.html#aab2a9c230d1bbb8a9e07f4c554e00c26" target="_top" xlink:title="Line Constructor.">
<polygon fill="white" stroke="#666666" points="235.25,-352.25 177.25,-352.25 177.25,-333 235.25,-333 235.25,-352.25"/>
<text text-anchor="middle" x="206.25" y="-338.75" font-family="Helvetica,sans-Serif" font-size="10.00">Line::Line</text>
</a>
</g>
</g>
<!-- Node5&#45;&gt;Node8 -->
<g id="edge7_Node000005_Node000008" class="edge">
<title>Node5&#45;&gt;Node8</title>
<g id="a_edge7_Node000005_Node000008"><a xlink:title=" ">
<path fill="none" stroke="#63b8ff" d="M335.42,-250.74C319.91,-271.66 292.44,-304.85 261.5,-324.62 253.64,-329.65 244.24,-333.41 235.49,-336.16"/>
<polygon fill="#63b8ff" stroke="#63b8ff" points="338.14,-252.95 341.15,-242.8 332.46,-248.86 338.14,-252.95"/>
</a>
</g>
</g>
<!-- Node9 -->
<g id="Node000009" class="node">
<title>Node9</title>
<g id="a_Node000009"><a xlink:href="../../d7/da7/class_shape.html#a2582cd6fab0db2870c09baff73db0f7a" target="_top" xlink:title="operator &lt; &#45; Overloaded less than operator for comparing two shapeId&#39;s">
<polygon fill="white" stroke="#666666" points="251.75,-315.25 160.75,-315.25 160.75,-296 251.75,-296 251.75,-315.25"/>
<text text-anchor="middle" x="206.25" y="-301.75" font-family="Helvetica,sans-Serif" font-size="10.00">Shape::operator&lt;</text>
</a>
</g>
</g>
<!-- Node5&#45;&gt;Node9 -->
<g id="edge8_Node000005_Node000009" class="edge">
<title>Node5&#45;&gt;Node9</title>
<g id="a_edge8_Node000005_Node000009"><a xlink:title=" ">
<path fill="none" stroke="#63b8ff" d="M326.32,-248.26C309.21,-260.37 284.72,-276.54 261.5,-287.62 255.32,-290.58 248.53,-293.24 241.91,-295.57"/>
<polygon fill="#63b8ff" stroke="#63b8ff" points="328.17,-251.23 334.24,-242.55 324.08,-245.55 328.17,-251.23"/>
</a>
</g>
</g>
<!-- Node10 -->
<g id="Node000010" class="node">
<title>Node10</title>
<g id="a_Node000010"><a xlink:href="../../d7/da7/class_shape.html#a7828d1802cccac883bb941c058207996" target="_top" xlink:title=" ">
<polygon fill="white" stroke="#666666" points="251.75,-278.25 160.75,-278.25 160.75,-259 251.75,-259 251.75,-278.25"/>
<text text-anchor="middle" x="206.25" y="-264.75" font-family="Helvetica,sans-Serif" font-size="10.00">Shape::operator=</text>
</a>
</g>
</g>
<!-- Node5&#45;&gt;Node10 -->
<g id="edge9_Node000005_Node000010" class="edge">
<title>Node5&#45;&gt;Node10</title>
<g id="a_edge9_Node000005_Node000010"><a xlink:title=" ">
<path fill="none" stroke="#63b8ff" d="M299.84,-244.41C282.15,-249.04 262.44,-254.19 245.77,-258.55"/>
<polygon fill="#63b8ff" stroke="#63b8ff" points="300.58,-247.84 309.37,-241.92 298.81,-241.07 300.58,-247.84"/>
</a>
</g>
</g>
<!-- Node11 -->
<g id="Node000011" class="node">
<title>Node11</title>
<g id="a_Node000011"><a xlink:href="../../d7/da7/class_shape.html#aae03c0cb0523a8e5efa15e40176ebdbd" target="_top" xlink:title="operator == &#45; Overloaded equality operator for comparing two shapeId&#39;s">
<polygon fill="white" stroke="#666666" points="254.75,-241.25 157.75,-241.25 157.75,-222 254.75,-222 254.75,-241.25"/>
<text text-anchor="middle" x="206.25" y="-227.75" font-family="Helvetica,sans-Serif" font-size="10.00">Shape::operator==</text>
</a>
</g>
</g>
<!-- Node5&#45;&gt;Node11 -->
<g id="edge10_Node000005_Node000011" class="edge">
<title>Node5&#45;&gt;Node11</title>
<g id="a_edge10_Node000005_Node000011"><a xlink:title=" ">
<path fill="none" stroke="#63b8ff" d="M299.62,-231.62C285.21,-231.62 269.49,-231.62 255.17,-231.62"/>
<polygon fill="#63b8ff" stroke="#63b8ff" points="299.32,-235.13 309.32,-231.63 299.32,-228.13 299.32,-235.13"/>
</a>
</g>
</g>
<!-- Node12 -->
<g id="Node000012" class="node">
<title>Node12</title>
<g id="a_Node000012"><a xlink:href="../../d1/db0/class_polygon.html#a7ab0204bb62eddea1fb659e8a6ecd202" target="_top" xlink:title="Polygon Constructor.">
<polygon fill="white" stroke="#666666" points="252.5,-204.25 160,-204.25 160,-185 252.5,-185 252.5,-204.25"/>
<text text-anchor="middle" x="206.25" y="-190.75" font-family="Helvetica,sans-Serif" font-size="10.00">Polygon::Polygon</text>
</a>
</g>
</g>
<!-- Node5&#45;&gt;Node12 -->
<g id="edge11_Node000005_Node000012" class="edge">
<title>Node5&#45;&gt;Node12</title>
<g id="a_edge11_Node000005_Node000012"><a xlink:title=" ">
<path fill="none" stroke="#63b8ff" d="M299.84,-218.84C282.15,-214.21 262.44,-209.06 245.77,-204.7"/>
<polygon fill="#63b8ff" stroke="#63b8ff" points="298.81,-222.18 309.37,-221.33 300.58,-215.41 298.81,-222.18"/>
</a>
</g>
</g>
<!-- Node13 -->
<g id="Node000013" class="node">
<title>Node13</title>
<g id="a_Node000013"><a xlink:href="../../d1/d42/class_polyline.html#a27e879d516bc07264e2e871211df3a1f" target="_top" xlink:title="Polyline.">
<polygon fill="white" stroke="#666666" points="251.75,-167.25 160.75,-167.25 160.75,-148 251.75,-148 251.75,-167.25"/>
<text text-anchor="middle" x="206.25" y="-153.75" font-family="Helvetica,sans-Serif" font-size="10.00">Polyline::Polyline</text>
</a>
</g>
</g>
<!-- Node5&#45;&gt;Node13 -->
<g id="edge12_Node000005_Node000013" class="edge">
<title>Node5&#45;&gt;Node13</title>
<g id="a_edge12_Node000005_Node000013"><a xlink:title=" ">
<path fill="none" stroke="#63b8ff" d="M326.32,-214.99C309.21,-202.88 284.72,-186.71 261.5,-175.62 255.32,-172.67 248.53,-170.01 241.91,-167.68"/>
<polygon fill="#63b8ff" stroke="#63b8ff" points="324.08,-217.7 334.24,-220.7 328.17,-212.02 324.08,-217.7"/>
</a>
</g>
</g>
<!-- Node14 -->
<g id="Node000014" class="node">
<title>Node14</title>
<g id="a_Node000014"><a xlink:href="../../d9/dc7/class_rectangle.html#af84479273a72d93294cd210732117dd7" target="_top" xlink:title="Rectangle.">
<polygon fill="white" stroke="#666666" points="261.5,-130.25 151,-130.25 151,-111 261.5,-111 261.5,-130.25"/>
<text text-anchor="middle" x="206.25" y="-116.75" font-family="Helvetica,sans-Serif" font-size="10.00">Rectangle::Rectangle</text>
</a>
</g>
</g>
<!-- Node5&#45;&gt;Node14 -->
<g id="edge13_Node000005_Node000014" class="edge">
<title>Node5&#45;&gt;Node14</title>
<g id="a_edge13_Node000005_Node000014"><a xlink:title=" ">
<path fill="none" stroke="#63b8ff" d="M335.42,-212.51C319.91,-191.59 292.44,-158.4 261.5,-138.62 256.65,-135.52 251.21,-132.91 245.71,-130.71"/>
<polygon fill="#63b8ff" stroke="#63b8ff" points="332.46,-214.39 341.15,-220.45 338.14,-210.3 332.46,-214.39"/>
</a>
</g>
</g>
<!-- Node15 -->
<g id="Node000015" class="node">
<title>Node15</title>
<g id="a_Node000015"><a xlink:href="../../d7/da7/class_shape.html#a7eda07b6d943d13721e1787f2e527a25" target="_top" xlink:title=" ">
<polygon fill="white" stroke="#666666" points="245,-93.25 167.5,-93.25 167.5,-74 245,-74 245,-93.25"/>
<text text-anchor="middle" x="206.25" y="-79.75" font-family="Helvetica,sans-Serif" font-size="10.00">Shape::Shape</text>
</a>
</g>
</g>
<!-- Node5&#45;&gt;Node15 -->
<g id="edge14_Node000005_Node000015" class="edge">
<title>Node5&#45;&gt;Node15</title>
<g id="a_edge14_Node000005_Node000015"><a xlink:title=" ">
<path fill="none" stroke="#63b8ff" d="M340.2,-211.13C327.28,-182.56 300.11,-130.98 261.5,-101.62 256.68,-97.96 251.08,-95.02 245.34,-92.67"/>
<polygon fill="#63b8ff" stroke="#63b8ff" points="336.92,-212.35 344.12,-220.12 343.34,-209.56 336.92,-212.35"/>
</a>
</g>
</g>
<!-- Node16 -->
<g id="Node000016" class="node">
<title>Node16</title>
<g id="a_Node000016"><a xlink:href="../../d9/d0c/class_square.html#a4b6e69fc0dda7084eb3db5d3fe92dfb3" target="_top" xlink:title="Square.">
<polygon fill="white" stroke="#666666" points="248,-56.25 164.5,-56.25 164.5,-37 248,-37 248,-56.25"/>
<text text-anchor="middle" x="206.25" y="-42.75" font-family="Helvetica,sans-Serif" font-size="10.00">Square::Square</text>
</a>
</g>
</g>
<!-- Node5&#45;&gt;Node16 -->
<g id="edge15_Node000005_Node000016" class="edge">
<title>Node5&#45;&gt;Node16</title>
<g id="a_edge15_Node000005_Node000016"><a xlink:title=" ">
<path fill="none" stroke="#63b8ff" d="M343.44,-210.89C333.4,-175.74 308.31,-104.44 261.5,-64.62 257.65,-61.35 253.17,-58.66 248.48,-56.46"/>
<polygon fill="#63b8ff" stroke="#63b8ff" points="339.98,-211.5 345.98,-220.24 346.74,-209.67 339.98,-211.5"/>
</a>
</g>
</g>
<!-- Node17 -->
<g id="Node000017" class="node">
<title>Node17</title>
<g id="a_Node000017"><a xlink:href="../../da/d0e/class_text.html#a3c521086182cf14349dc8c120afd9d09" target="_top" xlink:title="Text.">
<polygon fill="white" stroke="#666666" points="236,-19.25 176.5,-19.25 176.5,0 236,0 236,-19.25"/>
<text text-anchor="middle" x="206.25" y="-5.75" font-family="Helvetica,sans-Serif" font-size="10.00">Text::Text</text>
</a>
</g>
</g>
<!-- Node5&#45;&gt;Node17 -->
<g id="edge16_Node000005_Node000017" class="edge">
<title>Node5&#45;&gt;Node17</title>
<g id="a_edge16_Node000005_Node000017"><a xlink:title=" ">
<path fill="none" stroke="#63b8ff" d="M345.6,-210.69C338.35,-169.68 316.63,-78.32 261.5,-27.62 254.56,-21.24 245.3,-17.12 236.4,-14.46"/>
<polygon fill="#63b8ff" stroke="#63b8ff" points="342.13,-211.12 347.2,-220.42 349.03,-209.99 342.13,-211.12"/>
</a>
</g>
</g>
</g>
</svg>
