<?xml version="1.0" encoding="UTF-8" standalone="no"?>
<!DOCTYPE svg PUBLIC "-//W3C//DTD SVG 1.1//EN"
 "http://www.w3.org/Graphics/SVG/1.1/DTD/svg11.dtd">
<!-- Generated by graphviz version 12.2.1 (20241206.2353)
 -->
<!-- Title: Shape::setX Pages: 1 -->
<!--zoomable 328 -->

<svg id="main" version="1.1" xmlns="http://www.w3.org/2000/svg" xmlns:xlink="http://www.w3.org/1999/xlink" xml:space="preserve" onload="init(evt)">

<style type="text/css"><![CDATA[
.node, .edge {opacity: 0.7;}
.node.selected, .edge.selected {opacity: 1;}
.edge:hover path { stroke: red; }
.edge:hover polygon { stroke: red; fill: red; }
]]></style>

<defs>
  <circle id="rim" cx="0" cy="0" r="7"/>
  <circle id="rim2" cx="0" cy="0" r="3.5"/>
  <g id="zoomPlus">
    <use xlink:href="#rim" fill="#404040"><set attributeName="fill" to="#808080" begin="zoomplus.mouseover" end="zoomplus.mouseout"/></use>
    <path d="M-4,0h8M0,-4v8" fill="none" stroke="white" stroke-width="1.5" pointer-events="none"/>
  </g>
  <g id="zoomMin">
    <use xlink:href="#rim" fill="#404040"><set attributeName="fill" to="#808080" begin="zoomminus.mouseover" end="zoomminus.mouseout"/></use>
    <path d="M-4,0h8" fill="none" stroke="white" stroke-width="1.5" pointer-events="none"/>
  </g>
  <g id="arrowUp" transform="translate(30 24)">
    <use xlink:href="#rim"/>
    <path pointer-events="none" fill="none" stroke="white" stroke-width="1.5" d="M0,-3.0v7 M-2.5,-0.5L0,-3.0L2.5,-0.5"/>
  </g>
  <g id="arrowRight" transform="rotate(90) translate(36 -43)">
    <use xlink:href="#rim"/>
    <path pointer-events="none" fill="none" stroke="white" stroke-width="1.5" d="M0,-3.0v7 M-2.5,-0.5L0,-3.0L2.5,-0.5"/>
  </g>
  <g id="arrowDown" transform="rotate(180) translate(-30 -48)">
    <use xlink:href="#rim"/>
    <path pointer-events="none" fill="none" stroke="white" stroke-width="1.5" d="M0,-3.0v7 M-2.5,-0.5L0,-3.0L2.5,-0.5"/>
  </g>
  <g id="arrowLeft" transform="rotate(270) translate(-36 17)">
    <use xlink:href="#rim"/>
    <path pointer-events="none" fill="none" stroke="white" stroke-width="1.5" d="M0,-3.0v7 M-2.5,-0.5L0,-3.0L2.5,-0.5"/>
  </g>
  <g id="resetDef">
    <use xlink:href="#rim2" fill="#404040"><set attributeName="fill" to="#808080" begin="reset.mouseover" end="reset.mouseout"/></use>
  </g>
</defs>
<script type="application/ecmascript">
var viewWidth = 527;
var viewHeight = 328;
var sectionId = 'dynsection-46';
</script>
<script type="application/ecmascript" xlink:href="../../svg.min.js"/>
<svg id="graph" class="graph">
<g id="viewport">
<title>Shape::setX</title>
<!-- Node1 -->
<g id="Node000001" class="node">
<title>Node1</title>
<g id="a_Node000001"><a xlink:title=" ">
<polygon fill="#999999" stroke="#666666" points="519.25,-170.25 449.25,-170.25 449.25,-151 519.25,-151 519.25,-170.25"/>
<text text-anchor="middle" x="484.25" y="-156.75" font-family="Helvetica,sans-Serif" font-size="10.00">Shape::setX</text>
</a>
</g>
</g>
<!-- Node2 -->
<g id="Node000002" class="node">
<title>Node2</title>
<g id="a_Node000002"><a xlink:href="../../d7/da7/class_shape.html#a92caf93f740dc9f39677632151be9341" target="_top" xlink:title="Move &#45; Moves the shape to the x and y coords.">
<polygon fill="white" stroke="#666666" points="411.38,-320.25 337.62,-320.25 337.62,-301 411.38,-301 411.38,-320.25"/>
<text text-anchor="middle" x="374.5" y="-306.75" font-family="Helvetica,sans-Serif" font-size="10.00">Shape::Move</text>
</a>
</g>
</g>
<!-- Node1&#45;&gt;Node2 -->
<g id="edge1_Node000001_Node000002" class="edge">
<title>Node1&#45;&gt;Node2</title>
<g id="a_edge1_Node000001_Node000002"><a xlink:title=" ">
<path fill="none" stroke="#63b8ff" d="M475.55,-181.23C464.8,-207.95 443.17,-254.88 413.25,-286.62 408.14,-292.05 401.55,-296.78 395.31,-300.58"/>
<polygon fill="#63b8ff" stroke="#63b8ff" points="478.81,-182.5 479.17,-171.92 472.29,-179.97 478.81,-182.5"/>
</a>
</g>
</g>
<!-- Node4 -->
<g id="Node000004" class="node">
<title>Node4</title>
<g id="a_Node000004"><a xlink:href="../../d0/d88/class_circle.html#a3285002c730183acf265f57eaae5e267" target="_top" xlink:title=" ">
<polygon fill="white" stroke="#666666" points="257.38,-282.25 189.62,-282.25 189.62,-263 257.38,-263 257.38,-282.25"/>
<text text-anchor="middle" x="223.5" y="-268.75" font-family="Helvetica,sans-Serif" font-size="10.00">Circle::setX</text>
</a>
</g>
</g>
<!-- Node1&#45;&gt;Node4 -->
<g id="edge3_Node000001_Node000004" class="edge">
<title>Node1&#45;&gt;Node4</title>
<g id="a_edge3_Node000001_Node000004"><a xlink:title=" ">
<path fill="none" stroke="#63b8ff" d="M474.23,-180.9C463.25,-202.92 442.49,-237.16 413.25,-253.62 364.47,-281.1 297.24,-280.46 257.58,-276.94"/>
<polygon fill="#63b8ff" stroke="#63b8ff" points="477.31,-182.56 478.42,-172.02 470.98,-179.57 477.31,-182.56"/>
</a>
</g>
</g>
<!-- Node6 -->
<g id="Node000006" class="node">
<title>Node6</title>
<g id="a_Node000006"><a xlink:href="../../dc/d25/class_ellipse.html#a9ce9a1de3f181bac0a9c4e914ffc3c2d" target="_top" xlink:title=" ">
<polygon fill="white" stroke="#666666" points="410.25,-244.25 338.75,-244.25 338.75,-225 410.25,-225 410.25,-244.25"/>
<text text-anchor="middle" x="374.5" y="-230.75" font-family="Helvetica,sans-Serif" font-size="10.00">Ellipse::setX</text>
</a>
</g>
</g>
<!-- Node1&#45;&gt;Node6 -->
<g id="edge5_Node000001_Node000006" class="edge">
<title>Node1&#45;&gt;Node6</title>
<g id="a_edge5_Node000001_Node000006"><a xlink:title=" ">
<path fill="none" stroke="#63b8ff" d="M463.98,-178.05C450.4,-189.81 431.46,-205.21 413.25,-216.62 408.7,-219.48 403.62,-222.19 398.71,-224.59"/>
<polygon fill="#63b8ff" stroke="#63b8ff" points="466.13,-180.82 471.31,-171.58 461.5,-175.57 466.13,-180.82"/>
</a>
</g>
</g>
<!-- Node7 -->
<g id="Node000007" class="node">
<title>Node7</title>
<g id="a_Node000007"><a xlink:href="../../dd/db4/class_line.html#ace1900e93794a3f8bfbfdc8ac1b0ed13" target="_top" xlink:title=" ">
<polygon fill="white" stroke="#666666" points="404.62,-207.25 344.38,-207.25 344.38,-188 404.62,-188 404.62,-207.25"/>
<text text-anchor="middle" x="374.5" y="-193.75" font-family="Helvetica,sans-Serif" font-size="10.00">Line::setX</text>
</a>
</g>
</g>
<!-- Node1&#45;&gt;Node7 -->
<g id="edge7_Node000001_Node000007" class="edge">
<title>Node1&#45;&gt;Node7</title>
<g id="a_edge7_Node000001_Node000007"><a xlink:title=" ">
<path fill="none" stroke="#63b8ff" d="M443.04,-174.43C430.39,-178.78 416.66,-183.49 404.91,-187.53"/>
<polygon fill="#63b8ff" stroke="#63b8ff" points="444.05,-177.79 452.38,-171.23 441.78,-171.16 444.05,-177.79"/>
</a>
</g>
</g>
<!-- Node9 -->
<g id="Node000009" class="node">
<title>Node9</title>
<g id="a_Node000009"><a xlink:href="../../d1/db0/class_polygon.html#a9d5e9087bf324719995b4af2931c77f3" target="_top" xlink:title=" ">
<polygon fill="white" stroke="#666666" points="413.25,-170.25 335.75,-170.25 335.75,-151 413.25,-151 413.25,-170.25"/>
<text text-anchor="middle" x="374.5" y="-156.75" font-family="Helvetica,sans-Serif" font-size="10.00">Polygon::setX</text>
</a>
</g>
</g>
<!-- Node1&#45;&gt;Node9 -->
<g id="edge10_Node000001_Node000009" class="edge">
<title>Node1&#45;&gt;Node9</title>
<g id="a_edge10_Node000001_Node000009"><a xlink:title=" ">
<path fill="none" stroke="#63b8ff" d="M437.49,-160.62C429.55,-160.62 421.38,-160.62 413.67,-160.62"/>
<polygon fill="#63b8ff" stroke="#63b8ff" points="437.35,-164.13 447.35,-160.63 437.35,-157.13 437.35,-164.13"/>
</a>
</g>
</g>
<!-- Node11 -->
<g id="Node000011" class="node">
<title>Node11</title>
<g id="a_Node000011"><a xlink:href="../../d1/d42/class_polyline.html#aa681c72b6c1193af016b4fe521eb2e86" target="_top" xlink:title=" ">
<polygon fill="white" stroke="#666666" points="412.88,-133.25 336.12,-133.25 336.12,-114 412.88,-114 412.88,-133.25"/>
<text text-anchor="middle" x="374.5" y="-119.75" font-family="Helvetica,sans-Serif" font-size="10.00">Polyline::setX</text>
</a>
</g>
</g>
<!-- Node1&#45;&gt;Node11 -->
<g id="edge13_Node000001_Node000011" class="edge">
<title>Node1&#45;&gt;Node11</title>
<g id="a_edge13_Node000001_Node000011"><a xlink:title=" ">
<path fill="none" stroke="#63b8ff" d="M443.04,-146.82C430.39,-142.47 416.66,-137.76 404.91,-133.72"/>
<polygon fill="#63b8ff" stroke="#63b8ff" points="441.78,-150.09 452.38,-150.02 444.05,-143.46 441.78,-150.09"/>
</a>
</g>
</g>
<!-- Node13 -->
<g id="Node000013" class="node">
<title>Node13</title>
<g id="a_Node000013"><a xlink:href="../../d9/dc7/class_rectangle.html#a2d6f53490569f61403e0030d13411fd8" target="_top" xlink:title=" ">
<polygon fill="white" stroke="#666666" points="266.75,-95.25 180.25,-95.25 180.25,-76 266.75,-76 266.75,-95.25"/>
<text text-anchor="middle" x="223.5" y="-81.75" font-family="Helvetica,sans-Serif" font-size="10.00">Rectangle::setX</text>
</a>
</g>
</g>
<!-- Node1&#45;&gt;Node13 -->
<g id="edge16_Node000001_Node000013" class="edge">
<title>Node1&#45;&gt;Node13</title>
<g id="a_edge16_Node000001_Node000013"><a xlink:title=" ">
<path fill="none" stroke="#63b8ff" d="M466.42,-142.44C453.28,-129.52 433.85,-113.04 413.25,-104.62 365.83,-85.27 306.38,-82.42 267.01,-83.16"/>
<polygon fill="#63b8ff" stroke="#63b8ff" points="463.9,-144.87 473.39,-149.59 468.91,-139.98 463.9,-144.87"/>
</a>
</g>
</g>
<!-- Node14 -->
<g id="Node000014" class="node">
<title>Node14</title>
<g id="a_Node000014"><a xlink:href="../../d9/d0c/class_square.html#a33c07be8d278b4cc9275654a9a9d5680" target="_top" xlink:title=" ">
<polygon fill="white" stroke="#666666" points="411,-57.25 338,-57.25 338,-38 411,-38 411,-57.25"/>
<text text-anchor="middle" x="374.5" y="-43.75" font-family="Helvetica,sans-Serif" font-size="10.00">Square::setX</text>
</a>
</g>
</g>
<!-- Node1&#45;&gt;Node14 -->
<g id="edge18_Node000001_Node000014" class="edge">
<title>Node1&#45;&gt;Node14</title>
<g id="a_edge18_Node000001_Node000014"><a xlink:title=" ">
<path fill="none" stroke="#63b8ff" d="M470.81,-141.17C457.95,-122.02 436.5,-92.65 413.25,-71.62 407.49,-66.42 400.47,-61.61 394.05,-57.7"/>
<polygon fill="#63b8ff" stroke="#63b8ff" points="467.79,-142.95 476.21,-149.38 473.64,-139.1 467.79,-142.95"/>
</a>
</g>
</g>
<!-- Node15 -->
<g id="Node000015" class="node">
<title>Node15</title>
<g id="a_Node000015"><a xlink:href="../../da/d0e/class_text.html#a351027602090f29a33adf048d8adafc3" target="_top" xlink:title=" ">
<polygon fill="white" stroke="#666666" points="254,-19.25 193,-19.25 193,0 254,0 254,-19.25"/>
<text text-anchor="middle" x="223.5" y="-5.75" font-family="Helvetica,sans-Serif" font-size="10.00">Text::setX</text>
</a>
</g>
</g>
<!-- Node1&#45;&gt;Node15 -->
<g id="edge20_Node000001_Node000015" class="edge">
<title>Node1&#45;&gt;Node15</title>
<g id="a_edge20_Node000001_Node000015"><a xlink:title=" ">
<path fill="none" stroke="#63b8ff" d="M478.67,-139.61C470.9,-109.46 452.04,-54.7 413.25,-28.62 365.14,3.71 293.97,0.56 254.18,-4.56"/>
<polygon fill="#63b8ff" stroke="#63b8ff" points="475.2,-140.14 480.93,-149.06 482.01,-138.52 475.2,-140.14"/>
</a>
</g>
</g>
<!-- Node3 -->
<g id="Node000003" class="node">
<title>Node3</title>
<g id="a_Node000003"><a xlink:href="../../d9/ddf/class_render_area.html#afc1cb0383844d8cba93282f0b0a440c6" target="_top" xlink:title="Handles mouse move events to drag selected shapes if editing is allowed.">
<polygon fill="white" stroke="#666666" points="299.75,-320.25 147.25,-320.25 147.25,-301 299.75,-301 299.75,-320.25"/>
<text text-anchor="middle" x="223.5" y="-306.75" font-family="Helvetica,sans-Serif" font-size="10.00">RenderArea::mouseMoveEvent</text>
</a>
</g>
</g>
<!-- Node2&#45;&gt;Node3 -->
<g id="edge2_Node000002_Node000003" class="edge">
<title>Node2&#45;&gt;Node3</title>
<g id="a_edge2_Node000002_Node000003"><a xlink:title=" ">
<path fill="none" stroke="#63b8ff" d="M326.05,-310.62C317.72,-310.62 308.87,-310.62 300,-310.62"/>
<polygon fill="#63b8ff" stroke="#63b8ff" points="325.92,-314.13 335.92,-310.63 325.92,-307.13 325.92,-314.13"/>
</a>
</g>
</g>
<!-- Node5 -->
<g id="Node000005" class="node">
<title>Node5</title>
<g id="a_Node000005"><a xlink:href="../../d8/d08/class_render_area_manager.html#af37e63015f3671115d0da8aff234a805" target="_top" xlink:title="Modifies a property of an existing shape based on a key&#45;value pair.">
<polygon fill="white" stroke="#666666" points="111.25,-155.88 0,-155.88 0,-125.38 111.25,-125.38 111.25,-155.88"/>
<text text-anchor="start" x="8" y="-142.38" font-family="Helvetica,sans-Serif" font-size="10.00">RenderAreaManager::</text>
<text text-anchor="middle" x="55.62" y="-131.12" font-family="Helvetica,sans-Serif" font-size="10.00">modifyShape</text>
</a>
</g>
</g>
<!-- Node4&#45;&gt;Node5 -->
<g id="edge4_Node000004_Node000005" class="edge">
<title>Node4&#45;&gt;Node5</title>
<g id="a_edge4_Node000004_Node000005"><a xlink:title=" ">
<path fill="none" stroke="#63b8ff" d="M178.27,-263.07C167.57,-259.56 156.55,-254.86 147.25,-248.62 110.25,-223.81 80.06,-179.69 65.69,-156.26"/>
<polygon fill="#63b8ff" stroke="#63b8ff" points="177.18,-266.4 187.76,-265.88 179.17,-259.68 177.18,-266.4"/>
</a>
</g>
</g>
<!-- Node6&#45;&gt;Node5 -->
<g id="edge6_Node000006_Node000005" class="edge">
<title>Node6&#45;&gt;Node5</title>
<g id="a_edge6_Node000006_Node000005"><a xlink:title=" ">
<path fill="none" stroke="#63b8ff" d="M326.91,-238.65C279.8,-240.93 205.79,-239.52 147.25,-215.62 115.3,-202.58 86.04,-174.07 69.84,-156.2"/>
<polygon fill="#63b8ff" stroke="#63b8ff" points="326.98,-242.15 336.77,-238.09 326.58,-235.16 326.98,-242.15"/>
</a>
</g>
</g>
<!-- Node8 -->
<g id="Node000008" class="node">
<title>Node8</title>
<g id="a_Node000008"><a xlink:href="../../dd/db4/class_line.html#a09745a7cb17e1639c4f63fbdf7716795" target="_top" xlink:title="Move &#45; Moves the Line coords to the passed x and y.">
<polygon fill="white" stroke="#666666" points="255.5,-206.25 191.5,-206.25 191.5,-187 255.5,-187 255.5,-206.25"/>
<text text-anchor="middle" x="223.5" y="-192.75" font-family="Helvetica,sans-Serif" font-size="10.00">Line::Move</text>
</a>
</g>
</g>
<!-- Node7&#45;&gt;Node8 -->
<g id="edge8_Node000007_Node000008" class="edge">
<title>Node7&#45;&gt;Node8</title>
<g id="a_edge8_Node000007_Node000008"><a xlink:title=" ">
<path fill="none" stroke="#63b8ff" d="M332.72,-197.35C308.52,-197.19 278.29,-196.99 255.93,-196.84"/>
<polygon fill="#63b8ff" stroke="#63b8ff" points="332.53,-200.85 342.55,-197.42 332.57,-193.85 332.53,-200.85"/>
</a>
</g>
</g>
<!-- Node8&#45;&gt;Node5 -->
<g id="edge9_Node000008_Node000005" class="edge">
<title>Node8&#45;&gt;Node5</title>
<g id="a_edge9_Node000008_Node000005"><a xlink:title=" ">
<path fill="none" stroke="#63b8ff" d="M180.13,-187.76C169.31,-185.15 157.77,-182.06 147.25,-178.62 127.95,-172.32 107.01,-163.66 90.13,-156.21"/>
<polygon fill="#63b8ff" stroke="#63b8ff" points="179.06,-191.11 189.59,-189.96 180.64,-184.29 179.06,-191.11"/>
</a>
</g>
</g>
<!-- Node10 -->
<g id="Node000010" class="node">
<title>Node10</title>
<g id="a_Node000010"><a xlink:href="../../d1/db0/class_polygon.html#ab1d251a36ab0d229313daa05ef43ebe3" target="_top" xlink:title="Move &#45; Moves the Polygon to the passed x and y coordinates.">
<polygon fill="white" stroke="#666666" points="264.12,-169.25 182.88,-169.25 182.88,-150 264.12,-150 264.12,-169.25"/>
<text text-anchor="middle" x="223.5" y="-155.75" font-family="Helvetica,sans-Serif" font-size="10.00">Polygon::Move</text>
</a>
</g>
</g>
<!-- Node9&#45;&gt;Node10 -->
<g id="edge11_Node000009_Node000010" class="edge">
<title>Node9&#45;&gt;Node10</title>
<g id="a_edge11_Node000009_Node000010"><a xlink:title=" ">
<path fill="none" stroke="#63b8ff" d="M324.15,-160.29C304.79,-160.16 282.85,-160.02 264.5,-159.89"/>
<polygon fill="#63b8ff" stroke="#63b8ff" points="323.98,-163.79 334,-160.36 324.03,-156.79 323.98,-163.79"/>
</a>
</g>
</g>
<!-- Node10&#45;&gt;Node5 -->
<g id="edge12_Node000010_Node000005" class="edge">
<title>Node10&#45;&gt;Node5</title>
<g id="a_edge12_Node000010_Node000005"><a xlink:title=" ">
<path fill="none" stroke="#63b8ff" d="M171.37,-153.77C152.47,-151.6 130.96,-149.14 111.71,-146.93"/>
<polygon fill="#63b8ff" stroke="#63b8ff" points="170.93,-157.24 181.27,-154.9 171.73,-150.29 170.93,-157.24"/>
</a>
</g>
</g>
<!-- Node12 -->
<g id="Node000012" class="node">
<title>Node12</title>
<g id="a_Node000012"><a xlink:href="../../d1/d42/class_polyline.html#a98f16a2f50d4ce8ef70444c284e299d7" target="_top" xlink:title="Move &#45; Moves the Polyline to the passed x and y coordinates.">
<polygon fill="white" stroke="#666666" points="263.75,-132.25 183.25,-132.25 183.25,-113 263.75,-113 263.75,-132.25"/>
<text text-anchor="middle" x="223.5" y="-118.75" font-family="Helvetica,sans-Serif" font-size="10.00">Polyline::Move</text>
</a>
</g>
</g>
<!-- Node11&#45;&gt;Node12 -->
<g id="edge14_Node000011_Node000012" class="edge">
<title>Node11&#45;&gt;Node12</title>
<g id="a_edge14_Node000011_Node000012"><a xlink:title=" ">
<path fill="none" stroke="#63b8ff" d="M324.44,-123.3C304.89,-123.16 282.68,-123.02 264.17,-122.89"/>
<polygon fill="#63b8ff" stroke="#63b8ff" points="324.36,-126.8 334.39,-123.36 324.41,-119.8 324.36,-126.8"/>
</a>
</g>
</g>
<!-- Node12&#45;&gt;Node5 -->
<g id="edge15_Node000012_Node000005" class="edge">
<title>Node12&#45;&gt;Node5</title>
<g id="a_edge15_Node000012_Node000005"><a xlink:title=" ">
<path fill="none" stroke="#63b8ff" d="M171.37,-128.17C152.47,-130.22 130.96,-132.56 111.71,-134.65"/>
<polygon fill="#63b8ff" stroke="#63b8ff" points="171.7,-131.66 181.26,-127.1 170.94,-124.7 171.7,-131.66"/>
</a>
</g>
</g>
<!-- Node13&#45;&gt;Node5 -->
<g id="edge17_Node000013_Node000005" class="edge">
<title>Node13&#45;&gt;Node5</title>
<g id="a_edge17_Node000013_Node000005"><a xlink:title=" ">
<path fill="none" stroke="#63b8ff" d="M168.96,-97.36C161.62,-99.28 154.21,-101.39 147.25,-103.62 128.48,-109.66 108.12,-117.82 91.45,-124.95"/>
<polygon fill="#63b8ff" stroke="#63b8ff" points="169.68,-100.79 178.53,-94.96 167.98,-94 169.68,-100.79"/>
</a>
</g>
</g>
<!-- Node14&#45;&gt;Node5 -->
<g id="edge19_Node000014_Node000005" class="edge">
<title>Node14&#45;&gt;Node5</title>
<g id="a_edge19_Node000014_Node000005"><a xlink:title=" ">
<path fill="none" stroke="#63b8ff" d="M326.12,-43.64C279.01,-41.48 205.53,-43.06 147.25,-66.62 115.61,-79.42 86.47,-107.29 70.17,-124.94"/>
<polygon fill="#63b8ff" stroke="#63b8ff" points="325.82,-47.13 336,-44.18 326.2,-40.14 325.82,-47.13"/>
</a>
</g>
</g>
<!-- Node15&#45;&gt;Node5 -->
<g id="edge21_Node000015_Node000005" class="edge">
<title>Node15&#45;&gt;Node5</title>
<g id="a_edge21_Node000015_Node000005"><a xlink:title=" ">
<path fill="none" stroke="#63b8ff" d="M181.63,-18.15C169.91,-21.76 157.54,-26.76 147.25,-33.62 110.4,-58.22 80.14,-101.92 65.73,-125.14"/>
<polygon fill="#63b8ff" stroke="#63b8ff" points="182.42,-21.56 191.12,-15.51 180.55,-14.82 182.42,-21.56"/>
</a>
</g>
</g>
</g>
</svg>

<g id="navigator" transform="translate(0 0)" fill="#404254">
  <rect fill="#f2f5e9" fill-opacity="0.5" stroke="#606060" stroke-width=".5" x="0" y="0" width="60" height="60"/>
  <use id="zoomplus" xlink:href="#zoomPlus" x="17" y="9" onmousedown="handleZoom(evt,'in')"/>
  <use id="zoomminus" xlink:href="#zoomMin" x="42" y="9" onmousedown="handleZoom(evt,'out')"/>
  <use id="reset" xlink:href="#resetDef" x="30" y="36" onmousedown="handleReset()"/>
   <use id="arrowup" xlink:href="#arrowUp" x="0" y="0" onmousedown="handlePan(0,-1)"/>
  <use id="arrowright" xlink:href="#arrowRight" x="0" y="0" onmousedown="handlePan(1,0)"/>
  <use id="arrowdown" xlink:href="#arrowDown" x="0" y="0" onmousedown="handlePan(0,1)"/>
  <use id="arrowleft" xlink:href="#arrowLeft" x="0" y="0" onmousedown="handlePan(-1,0)"/>
</g>
<svg viewBox="0 0 15 15" width="100%" height="30px" preserveAspectRatio="xMaxYMin meet">
 <g id="arrow_out" transform="scale(0.3 0.3)">
  <a xlink:href="class_shape_a2d8fd6861bf7906e0152a699ce6054c8_icgraph_org.svg" target="_base">
   <rect id="button" ry="5" rx="5" y="6" x="6" height="38" width="38"
        fill="#f2f5e9" fill-opacity="0.5" stroke="#606060" stroke-width="1.0"/>
   <path id="arrow"
     d="M 11.500037,31.436501 C 11.940474,20.09759 22.043105,11.32322 32.158766,21.979434 L 37.068811,17.246167 C 37.068811,17.246167 37.088388,32 37.088388,32 L 22.160133,31.978069 C 22.160133,31.978069 26.997745,27.140456 26.997745,27.140456 C 18.528582,18.264221 13.291696,25.230495 11.500037,31.436501 z"
     style="fill:#404040;"/>
  </a>
 </g>
</svg>

<style type='text/css'>
<![CDATA[
[data-mouse-over-selected='false'] { opacity: 0.7; }
[data-mouse-over-selected='true']  { opacity: 1.0; }
]]>
</style>
<script type="application/ecmascript"><![CDATA[
document.addEventListener('DOMContentLoaded', (event) => {
  highlightEdges();
  highlightAdjacentNodes();
});
]]></script>
</svg>
