<?xml version="1.0" encoding="UTF-8" standalone="no"?>
<!DOCTYPE svg PUBLIC "-//W3C//DTD SVG 1.1//EN"
 "http://www.w3.org/Graphics/SVG/1.1/DTD/svg11.dtd">
<!-- Generated by graphviz version 12.2.1 (20241206.2353)
 -->
<!-- Title: Shape::getPen Pages: 1 -->
<svg width="448pt" height="286pt"
 viewBox="0.00 0.00 447.50 286.25" xmlns="http://www.w3.org/2000/svg" xmlns:xlink="http://www.w3.org/1999/xlink">
<g id="graph0" class="graph" transform="scale(1 1) rotate(0) translate(4 282.25)">
<title>Shape::getPen</title>
<!-- Node1 -->
<g id="Node000001" class="node">
<title>Node1</title>
<g id="a_Node000001"><a xlink:title=" ">
<polygon fill="#999999" stroke="#666666" points="439.5,-148.25 359,-148.25 359,-129 439.5,-129 439.5,-148.25"/>
<text text-anchor="middle" x="399.25" y="-134.75" font-family="Helvetica,sans-Serif" font-size="10.00">Shape::getPen</text>
</a>
</g>
</g>
<!-- Node2 -->
<g id="Node000002" class="node">
<title>Node2</title>
<g id="a_Node000002"><a xlink:href="../../dc/db7/class_parser.html#a8f8932bed758cd3e61de3669fdef1110" target="_top" xlink:title="Appends common shape properties (ID, Type, Dimensions, Pen properties) to a JSON string.">
<polygon fill="white" stroke="#666666" points="323,-278.25 151,-278.25 151,-259 323,-259 323,-278.25"/>
<text text-anchor="middle" x="237" y="-264.75" font-family="Helvetica,sans-Serif" font-size="10.00">Parser::AppendCommonShapeData</text>
</a>
</g>
</g>
<!-- Node1&#45;&gt;Node2 -->
<g id="edge1_Node000001_Node000002" class="edge">
<title>Node1&#45;&gt;Node2</title>
<g id="a_edge1_Node000001_Node000002"><a xlink:title=" ">
<path fill="none" stroke="#63b8ff" d="M390.32,-158.96C379.26,-184.55 356.67,-227.89 323,-250.62 318.37,-253.75 313.31,-256.34 308.03,-258.5"/>
<polygon fill="#63b8ff" stroke="#63b8ff" points="393.45,-160.57 394.02,-149.99 386.97,-157.91 393.45,-160.57"/>
</a>
</g>
</g>
<!-- Node4 -->
<g id="Node000004" class="node">
<title>Node4</title>
<g id="a_Node000004"><a xlink:href="../../d0/d88/class_circle.html#ac05f869cde1af46ac56ff2e0318980bb" target="_top" xlink:title="Draw &#45; Draws a circle at the assigned coords with the given radius.">
<polygon fill="white" stroke="#666666" points="272.38,-241.25 201.62,-241.25 201.62,-222 272.38,-222 272.38,-241.25"/>
<text text-anchor="middle" x="237" y="-227.75" font-family="Helvetica,sans-Serif" font-size="10.00">Circle::Draw</text>
</a>
</g>
</g>
<!-- Node1&#45;&gt;Node4 -->
<g id="edge3_Node000001_Node000004" class="edge">
<title>Node1&#45;&gt;Node4</title>
<g id="a_edge3_Node000001_Node000004"><a xlink:title=" ">
<path fill="none" stroke="#63b8ff" d="M384.6,-157.43C370.98,-174.77 348.46,-199.84 323,-213.62 307.61,-221.96 288.72,-226.43 272.65,-228.84"/>
<polygon fill="#63b8ff" stroke="#63b8ff" points="387.04,-160.01 390.3,-149.92 381.47,-155.77 387.04,-160.01"/>
</a>
</g>
</g>
<!-- Node5 -->
<g id="Node000005" class="node">
<title>Node5</title>
<g id="a_Node000005"><a xlink:href="../../dc/d25/class_ellipse.html#a76eaec1becd0860f48dd5c39bb00dabf" target="_top" xlink:title="Draw &#45; Draws the ellipse to the passed renderArea.">
<polygon fill="white" stroke="#666666" points="274.25,-204.25 199.75,-204.25 199.75,-185 274.25,-185 274.25,-204.25"/>
<text text-anchor="middle" x="237" y="-190.75" font-family="Helvetica,sans-Serif" font-size="10.00">Ellipse::Draw</text>
</a>
</g>
</g>
<!-- Node1&#45;&gt;Node5 -->
<g id="edge4_Node000001_Node000005" class="edge">
<title>Node1&#45;&gt;Node5</title>
<g id="a_edge4_Node000001_Node000005"><a xlink:title=" ">
<path fill="none" stroke="#63b8ff" d="M371.52,-154.26C357.47,-161.92 339.72,-170.74 323,-176.62 307.49,-182.08 289.78,-186.15 274.55,-189.03"/>
<polygon fill="#63b8ff" stroke="#63b8ff" points="373.13,-157.37 380.15,-149.43 369.72,-151.26 373.13,-157.37"/>
</a>
</g>
</g>
<!-- Node6 -->
<g id="Node000006" class="node">
<title>Node6</title>
<g id="a_Node000006"><a xlink:href="../../dd/db4/class_line.html#ad68aeb558c52eace258a55e24f45d11e" target="_top" xlink:title="Draw &#45; Draws a line from startPoint to endPoint.">
<polygon fill="white" stroke="#666666" points="268.62,-167.25 205.38,-167.25 205.38,-148 268.62,-148 268.62,-167.25"/>
<text text-anchor="middle" x="237" y="-153.75" font-family="Helvetica,sans-Serif" font-size="10.00">Line::Draw</text>
</a>
</g>
</g>
<!-- Node1&#45;&gt;Node6 -->
<g id="edge5_Node000001_Node000006" class="edge">
<title>Node1&#45;&gt;Node6</title>
<g id="a_edge5_Node000001_Node000006"><a xlink:title=" ">
<path fill="none" stroke="#63b8ff" d="M347.53,-144.64C321.7,-147.7 291.14,-151.32 268.88,-153.96"/>
<polygon fill="#63b8ff" stroke="#63b8ff" points="347.62,-148.15 357.13,-143.5 346.79,-141.2 347.62,-148.15"/>
</a>
</g>
</g>
<!-- Node7 -->
<g id="Node000007" class="node">
<title>Node7</title>
<g id="a_Node000007"><a xlink:href="../../d1/db0/class_polygon.html#ae6ac66f1548f1d4baf2ceea00feea940" target="_top" xlink:title="Draw &#45; Draws a Polygon at the assigned coords with points in the pointsList.">
<polygon fill="white" stroke="#666666" points="277.25,-130.25 196.75,-130.25 196.75,-111 277.25,-111 277.25,-130.25"/>
<text text-anchor="middle" x="237" y="-116.75" font-family="Helvetica,sans-Serif" font-size="10.00">Polygon::Draw</text>
</a>
</g>
</g>
<!-- Node1&#45;&gt;Node7 -->
<g id="edge6_Node000001_Node000007" class="edge">
<title>Node1&#45;&gt;Node7</title>
<g id="a_edge6_Node000001_Node000007"><a xlink:title=" ">
<path fill="none" stroke="#63b8ff" d="M347.25,-132.9C324.76,-130.37 298.72,-127.45 277.71,-125.09"/>
<polygon fill="#63b8ff" stroke="#63b8ff" points="346.81,-136.37 357.13,-134.01 347.59,-129.41 346.81,-136.37"/>
</a>
</g>
</g>
<!-- Node8 -->
<g id="Node000008" class="node">
<title>Node8</title>
<g id="a_Node000008"><a xlink:href="../../d1/d42/class_polyline.html#a554e950db881f3d67e05f453c1f22e77" target="_top" xlink:title="Draw &#45; Draws a Polyline at the assigne coords with points in the pointsList.">
<polygon fill="white" stroke="#666666" points="276.88,-93.25 197.12,-93.25 197.12,-74 276.88,-74 276.88,-93.25"/>
<text text-anchor="middle" x="237" y="-79.75" font-family="Helvetica,sans-Serif" font-size="10.00">Polyline::Draw</text>
</a>
</g>
</g>
<!-- Node1&#45;&gt;Node8 -->
<g id="edge7_Node000001_Node000008" class="edge">
<title>Node1&#45;&gt;Node8</title>
<g id="a_edge7_Node000001_Node000008"><a xlink:title=" ">
<path fill="none" stroke="#63b8ff" d="M370.92,-123.14C356.94,-115.75 339.45,-107.31 323,-101.62 308.32,-96.55 291.69,-92.64 277.06,-89.79"/>
<polygon fill="#63b8ff" stroke="#63b8ff" points="369.05,-126.11 379.51,-127.8 372.39,-119.96 369.05,-126.11"/>
</a>
</g>
</g>
<!-- Node9 -->
<g id="Node000009" class="node">
<title>Node9</title>
<g id="a_Node000009"><a xlink:href="../../d9/dc7/class_rectangle.html#a146fede0215e7c98fbc99b6c302ed743" target="_top" xlink:title="Draw &#45; Draws a Rectangle at the assigned coords.">
<polygon fill="white" stroke="#666666" points="281.75,-56.25 192.25,-56.25 192.25,-37 281.75,-37 281.75,-56.25"/>
<text text-anchor="middle" x="237" y="-42.75" font-family="Helvetica,sans-Serif" font-size="10.00">Rectangle::Draw</text>
</a>
</g>
</g>
<!-- Node1&#45;&gt;Node9 -->
<g id="edge8_Node000001_Node000009" class="edge">
<title>Node1&#45;&gt;Node9</title>
<g id="a_edge8_Node000001_Node000009"><a xlink:title=" ">
<path fill="none" stroke="#63b8ff" d="M384.17,-119.59C370.47,-102.51 348.1,-78.1 323,-64.62 310.51,-57.92 295.73,-53.71 282.03,-51.07"/>
<polygon fill="#63b8ff" stroke="#63b8ff" points="381.37,-121.7 390.26,-127.47 386.91,-117.42 381.37,-121.7"/>
</a>
</g>
</g>
<!-- Node10 -->
<g id="Node000010" class="node">
<title>Node10</title>
<g id="a_Node000010"><a xlink:href="../../d9/d0c/class_square.html#a76509a6807c851fb2fd88713cd856f64" target="_top" xlink:title="Draw &#45; Draws a Square at the assigned coords.">
<polygon fill="white" stroke="#666666" points="275,-19.25 199,-19.25 199,0 275,0 275,-19.25"/>
<text text-anchor="middle" x="237" y="-5.75" font-family="Helvetica,sans-Serif" font-size="10.00">Square::Draw</text>
</a>
</g>
</g>
<!-- Node1&#45;&gt;Node10 -->
<g id="edge9_Node000001_Node000010" class="edge">
<title>Node1&#45;&gt;Node10</title>
<g id="a_edge9_Node000001_Node000010"><a xlink:title=" ">
<path fill="none" stroke="#63b8ff" d="M390.27,-118.47C379.15,-93.1 356.51,-50.15 323,-27.62 308.98,-18.2 290.96,-13.58 275.12,-11.36"/>
<polygon fill="#63b8ff" stroke="#63b8ff" points="386.9,-119.47 393.99,-127.35 393.36,-116.77 386.9,-119.47"/>
</a>
</g>
</g>
<!-- Node3 -->
<g id="Node000003" class="node">
<title>Node3</title>
<g id="a_Node000003"><a xlink:href="../../dc/db7/class_parser.html#ac0dc74d228421b62ece9d9e93511509e" target="_top" xlink:title="Converts a vector of Shape pointers into a JSON string representation.">
<polygon fill="white" stroke="#666666" points="115,-278.25 0,-278.25 0,-259 115,-259 115,-278.25"/>
<text text-anchor="middle" x="57.5" y="-264.75" font-family="Helvetica,sans-Serif" font-size="10.00">Parser::ShapesToJson</text>
</a>
</g>
</g>
<!-- Node2&#45;&gt;Node3 -->
<g id="edge2_Node000002_Node000003" class="edge">
<title>Node2&#45;&gt;Node3</title>
<g id="a_edge2_Node000002_Node000003"><a xlink:title=" ">
<path fill="none" stroke="#63b8ff" d="M139.39,-268.62C131.17,-268.62 123.04,-268.62 115.29,-268.62"/>
<polygon fill="#63b8ff" stroke="#63b8ff" points="139.12,-272.13 149.12,-268.63 139.12,-265.13 139.12,-272.13"/>
</a>
</g>
</g>
</g>
</svg>
