<?xml version="1.0" encoding="UTF-8" standalone="no"?>
<!DOCTYPE svg PUBLIC "-//W3C//DTD SVG 1.1//EN"
 "http://www.w3.org/Graphics/SVG/1.1/DTD/svg11.dtd">
<!-- Generated by graphviz version 12.2.1 (20241206.2353)
 -->
<!-- Title: Shape::getTrackerId Pages: 1 -->
<svg width="1046pt" height="431pt"
 viewBox="0.00 0.00 1046.25 430.50" xmlns="http://www.w3.org/2000/svg" xmlns:xlink="http://www.w3.org/1999/xlink">
<g id="graph0" class="graph" transform="scale(1 1) rotate(0) translate(4 426.5)">
<title>Shape::getTrackerId</title>
<!-- Node1 -->
<g id="Node000001" class="node">
<title>Node1</title>
<g id="a_Node000001"><a xlink:title=" ">
<polygon fill="#999999" stroke="#666666" points="1038.25,-254.88 933.75,-254.88 933.75,-235.62 1038.25,-235.62 1038.25,-254.88"/>
<text text-anchor="middle" x="986" y="-241.38" font-family="Helvetica,sans-Serif" font-size="10.00">Shape::getTrackerId</text>
</a>
</g>
</g>
<!-- Node2 -->
<g id="Node000002" class="node">
<title>Node2</title>
<g id="a_Node000002"><a xlink:href="../../d8/d08/class_render_area_manager.html#af43a9dc571803450ae63b62a234c8d21" target="_top" xlink:title="Adds a new shape to the rendering list and triggers a save.">
<polygon fill="white" stroke="#666666" points="867.38,-414.5 756.12,-414.5 756.12,-384 867.38,-384 867.38,-414.5"/>
<text text-anchor="start" x="764.12" y="-401" font-family="Helvetica,sans-Serif" font-size="10.00">RenderAreaManager::</text>
<text text-anchor="middle" x="811.75" y="-389.75" font-family="Helvetica,sans-Serif" font-size="10.00">addShape</text>
</a>
</g>
</g>
<!-- Node1&#45;&gt;Node2 -->
<g id="edge1_Node000001_Node000002" class="edge">
<title>Node1&#45;&gt;Node2</title>
<g id="a_edge1_Node000001_Node000002"><a xlink:title=" ">
<path fill="none" stroke="#63b8ff" d="M976.82,-265.56C964.19,-294.34 937.2,-346.64 897.75,-375.25 888.81,-381.73 878.18,-386.47 867.51,-389.92"/>
<polygon fill="#63b8ff" stroke="#63b8ff" points="979.97,-267.1 980.63,-256.53 973.52,-264.38 979.97,-267.1"/>
</a>
</g>
</g>
<!-- Node3 -->
<g id="Node000003" class="node">
<title>Node3</title>
<g id="a_Node000003"><a xlink:href="../../d3/dde/class_shapes_manager.html#ae851cda2501ba8af0f6f44d5361a5348" target="_top" xlink:title="These functions are used to add, delete, and load shapes in the ShapesManager.">
<polygon fill="white" stroke="#666666" points="879.75,-365.88 743.75,-365.88 743.75,-346.62 879.75,-346.62 879.75,-365.88"/>
<text text-anchor="middle" x="811.75" y="-352.38" font-family="Helvetica,sans-Serif" font-size="10.00">ShapesManager::addShape</text>
</a>
</g>
</g>
<!-- Node1&#45;&gt;Node3 -->
<g id="edge2_Node000001_Node000003" class="edge">
<title>Node1&#45;&gt;Node3</title>
<g id="a_edge2_Node000001_Node000003"><a xlink:title=" ">
<path fill="none" stroke="#63b8ff" d="M972.3,-264.68C957.19,-286.17 929.91,-320.14 897.75,-338.25 892.1,-341.43 885.95,-344.06 879.62,-346.21"/>
<polygon fill="#63b8ff" stroke="#63b8ff" points="975.13,-266.75 977.86,-256.51 969.34,-262.81 975.13,-266.75"/>
</a>
</g>
</g>
<!-- Node4 -->
<g id="Node000004" class="node">
<title>Node4</title>
<g id="a_Node000004"><a xlink:href="../../dc/db7/class_parser.html#a8f8932bed758cd3e61de3669fdef1110" target="_top" xlink:title="Appends common shape properties (ID, Type, Dimensions, Pen properties) to a JSON string.">
<polygon fill="white" stroke="#666666" points="897.75,-328.88 725.75,-328.88 725.75,-309.62 897.75,-309.62 897.75,-328.88"/>
<text text-anchor="middle" x="811.75" y="-315.38" font-family="Helvetica,sans-Serif" font-size="10.00">Parser::AppendCommonShapeData</text>
</a>
</g>
</g>
<!-- Node1&#45;&gt;Node4 -->
<g id="edge3_Node000001_Node000004" class="edge">
<title>Node1&#45;&gt;Node4</title>
<g id="a_edge3_Node000001_Node000004"><a xlink:title=" ">
<path fill="none" stroke="#63b8ff" d="M963.5,-262.21C946.55,-274.77 921.83,-291.36 897.75,-301.25 890.08,-304.4 881.78,-307.03 873.47,-309.21"/>
<polygon fill="#63b8ff" stroke="#63b8ff" points="965.46,-265.11 971.31,-256.28 961.23,-259.54 965.46,-265.11"/>
</a>
</g>
</g>
<!-- Node6 -->
<g id="Node000006" class="node">
<title>Node6</title>
<g id="a_Node000006"><a xlink:href="../../dc/db7/class_parser.html#a3c8d6dcf6e07231eaedb036ebe90b51f" target="_top" xlink:title="Appends all properties specific to Text objects to a JSON string.">
<polygon fill="white" stroke="#666666" points="873.38,-291.88 750.12,-291.88 750.12,-272.62 873.38,-272.62 873.38,-291.88"/>
<text text-anchor="middle" x="811.75" y="-278.38" font-family="Helvetica,sans-Serif" font-size="10.00">Parser::AppendTextData</text>
</a>
</g>
</g>
<!-- Node1&#45;&gt;Node6 -->
<g id="edge5_Node000001_Node000006" class="edge">
<title>Node1&#45;&gt;Node6</title>
<g id="a_edge5_Node000001_Node000006"><a xlink:title=" ">
<path fill="none" stroke="#63b8ff" d="M927.72,-257.77C917.73,-259.94 907.44,-262.17 897.75,-264.25 885.66,-266.85 872.59,-269.63 860.41,-272.21"/>
<polygon fill="#63b8ff" stroke="#63b8ff" points="928.32,-261.22 937.35,-255.68 926.83,-254.38 928.32,-261.22"/>
</a>
</g>
</g>
<!-- Node7 -->
<g id="Node000007" class="node">
<title>Node7</title>
<g id="a_Node000007"><a xlink:href="../../d7/da7/class_shape.html#ad3725fd4cfb43613897c2d3f3e647842" target="_top" xlink:title="CreateParentItem &#45; Adds data cooresponding to all shapes to parentItem for a QTreeWidget.">
<polygon fill="white" stroke="#666666" points="875.25,-254.88 748.25,-254.88 748.25,-235.62 875.25,-235.62 875.25,-254.88"/>
<text text-anchor="middle" x="811.75" y="-241.38" font-family="Helvetica,sans-Serif" font-size="10.00">Shape::CreateParentItem</text>
</a>
</g>
</g>
<!-- Node1&#45;&gt;Node7 -->
<g id="edge7_Node000001_Node000007" class="edge">
<title>Node1&#45;&gt;Node7</title>
<g id="a_edge7_Node000001_Node000007"><a xlink:title=" ">
<path fill="none" stroke="#63b8ff" d="M922,-245.25C906.89,-245.25 890.76,-245.25 875.66,-245.25"/>
<polygon fill="#63b8ff" stroke="#63b8ff" points="921.81,-248.75 931.81,-245.25 921.81,-241.75 921.81,-248.75"/>
</a>
</g>
</g>
<!-- Node16 -->
<g id="Node000016" class="node">
<title>Node16</title>
<g id="a_Node000016"><a xlink:href="../../d8/d08/class_render_area_manager.html#af37e63015f3671115d0da8aff234a805" target="_top" xlink:title="Modifies a property of an existing shape based on a key&#45;value pair.">
<polygon fill="white" stroke="#666666" points="867.38,-217.5 756.12,-217.5 756.12,-187 867.38,-187 867.38,-217.5"/>
<text text-anchor="start" x="764.12" y="-204" font-family="Helvetica,sans-Serif" font-size="10.00">RenderAreaManager::</text>
<text text-anchor="middle" x="811.75" y="-192.75" font-family="Helvetica,sans-Serif" font-size="10.00">modifyShape</text>
</a>
</g>
</g>
<!-- Node1&#45;&gt;Node16 -->
<g id="edge16_Node000001_Node000016" class="edge">
<title>Node1&#45;&gt;Node16</title>
<g id="a_edge16_Node000001_Node000016"><a xlink:title=" ">
<path fill="none" stroke="#63b8ff" d="M933.73,-232.45C912.88,-227.25 888.75,-221.22 867.55,-215.93"/>
<polygon fill="#63b8ff" stroke="#63b8ff" points="932.6,-235.78 943.15,-234.8 934.29,-228.98 932.6,-235.78"/>
</a>
</g>
</g>
<!-- Node17 -->
<g id="Node000017" class="node">
<title>Node17</title>
<g id="a_Node000017"><a xlink:href="../../d3/dde/class_shapes_manager.html#aeb0348ac6e97b3248dfc262bfd4eceaa" target="_top" xlink:title=" ">
<polygon fill="white" stroke="#666666" points="886.5,-168.88 737,-168.88 737,-149.62 886.5,-149.62 886.5,-168.88"/>
<text text-anchor="middle" x="811.75" y="-155.38" font-family="Helvetica,sans-Serif" font-size="10.00">ShapesManager::modifyShape</text>
</a>
</g>
</g>
<!-- Node1&#45;&gt;Node17 -->
<g id="edge17_Node000001_Node000017" class="edge">
<title>Node1&#45;&gt;Node17</title>
<g id="a_edge17_Node000001_Node000017"><a xlink:title=" ">
<path fill="none" stroke="#63b8ff" d="M966.76,-227.37C950.12,-212.06 924.17,-190.6 897.75,-178.25 890.08,-174.66 881.7,-171.74 873.28,-169.35"/>
<polygon fill="#63b8ff" stroke="#63b8ff" points="964.21,-229.78 973.88,-234.1 969.02,-224.69 964.21,-229.78"/>
</a>
</g>
</g>
<!-- Node18 -->
<g id="Node000018" class="node">
<title>Node18</title>
<g id="a_Node000018"><a xlink:href="../../d9/dc6/class_main_window.html#a7d524432f3c348d51c52b6bbca13df57" target="_top" xlink:title="Slot triggered when a QSpinBox value in the tree widget changes.">
<polygon fill="white" stroke="#666666" points="894,-127.88 729.5,-127.88 729.5,-108.62 894,-108.62 894,-127.88"/>
<text text-anchor="middle" x="811.75" y="-114.38" font-family="Helvetica,sans-Serif" font-size="10.00">MainWindow::onSpinBoxChanged</text>
</a>
</g>
</g>
<!-- Node1&#45;&gt;Node18 -->
<g id="edge18_Node000001_Node000018" class="edge">
<title>Node1&#45;&gt;Node18</title>
<g id="a_edge18_Node000001_Node000018"><a xlink:title=" ">
<path fill="none" stroke="#63b8ff" d="M974.03,-225.68C959.63,-201.84 932.11,-162.05 897.75,-140.25 889.77,-135.19 880.67,-131.29 871.46,-128.28"/>
<polygon fill="#63b8ff" stroke="#63b8ff" points="970.87,-227.22 978.93,-234.09 976.91,-223.69 970.87,-227.22"/>
</a>
</g>
</g>
<!-- Node19 -->
<g id="Node000019" class="node">
<title>Node19</title>
<g id="a_Node000019"><a xlink:href="../../d9/dc6/class_main_window.html#a5ff173340d6b138bee993d26454d2aaa" target="_top" xlink:title="Populates the tree widget with details of the current shapes and sets up editing controls.">
<polygon fill="white" stroke="#666666" points="687.12,-73.5 577.38,-73.5 577.38,-43 687.12,-43 687.12,-73.5"/>
<text text-anchor="start" x="585.38" y="-60" font-family="Helvetica,sans-Serif" font-size="10.00">MainWindow::shapes</text>
<text text-anchor="middle" x="632.25" y="-48.75" font-family="Helvetica,sans-Serif" font-size="10.00">_to_treeWidget</text>
</a>
</g>
</g>
<!-- Node1&#45;&gt;Node19 -->
<g id="edge35_Node000001_Node000019" class="edge">
<title>Node1&#45;&gt;Node19</title>
<g id="a_edge35_Node000001_Node000019"><a xlink:title=" ">
<path fill="none" stroke="#63b8ff" d="M978.95,-224.54C968.29,-192.05 942.91,-129.68 897.75,-99.25 834.84,-56.86 744.6,-51.86 687.48,-53.8"/>
<polygon fill="#63b8ff" stroke="#63b8ff" points="975.56,-225.44 981.87,-233.95 982.25,-223.36 975.56,-225.44"/>
</a>
</g>
</g>
<!-- Node5 -->
<g id="Node000005" class="node">
<title>Node5</title>
<g id="a_Node000005"><a xlink:href="../../dc/db7/class_parser.html#ac0dc74d228421b62ece9d9e93511509e" target="_top" xlink:title="Converts a vector of Shape pointers into a JSON string representation.">
<polygon fill="white" stroke="#666666" points="689.75,-406.88 574.75,-406.88 574.75,-387.62 689.75,-387.62 689.75,-406.88"/>
<text text-anchor="middle" x="632.25" y="-393.38" font-family="Helvetica,sans-Serif" font-size="10.00">Parser::ShapesToJson</text>
</a>
</g>
</g>
<!-- Node4&#45;&gt;Node5 -->
<g id="edge4_Node000004_Node000005" class="edge">
<title>Node4&#45;&gt;Node5</title>
<g id="a_edge4_Node000004_Node000005"><a xlink:title=" ">
<path fill="none" stroke="#63b8ff" d="M732.45,-333.67C730.15,-334.78 727.91,-335.97 725.75,-337.25 704.61,-349.79 710.24,-365.67 689.75,-379.25 685.03,-382.38 679.73,-384.99 674.32,-387.17"/>
<polygon fill="#63b8ff" stroke="#63b8ff" points="733.57,-337 741.45,-329.92 730.87,-330.53 733.57,-337"/>
</a>
</g>
</g>
<!-- Node6&#45;&gt;Node5 -->
<g id="edge6_Node000006_Node000005" class="edge">
<title>Node6&#45;&gt;Node5</title>
<g id="a_edge6_Node000006_Node000005"><a xlink:title=" ">
<path fill="none" stroke="#63b8ff" d="M739.55,-291.83C734.61,-294.11 729.94,-296.89 725.75,-300.25 695.65,-324.39 718.61,-353.64 689.75,-379.25 686.21,-382.39 682.11,-384.99 677.78,-387.13"/>
<polygon fill="#63b8ff" stroke="#63b8ff" points="740.51,-295.21 748.57,-288.34 737.98,-288.68 740.51,-295.21"/>
</a>
</g>
</g>
<!-- Node8 -->
<g id="Node000008" class="node">
<title>Node8</title>
<g id="a_Node000008"><a xlink:href="../../d0/d88/class_circle.html#a782690f42da545ac8e35d3732ed76f42" target="_top" xlink:title="Circle Constructor.">
<polygon fill="white" stroke="#666666" points="668.75,-369.88 595.75,-369.88 595.75,-350.62 668.75,-350.62 668.75,-369.88"/>
<text text-anchor="middle" x="632.25" y="-356.38" font-family="Helvetica,sans-Serif" font-size="10.00">Circle::Circle</text>
</a>
</g>
</g>
<!-- Node7&#45;&gt;Node8 -->
<g id="edge8_Node000007_Node000008" class="edge">
<title>Node7&#45;&gt;Node8</title>
<g id="a_edge8_Node000007_Node000008"><a xlink:title=" ">
<path fill="none" stroke="#63b8ff" d="M737.26,-255.93C733.17,-257.99 729.29,-260.41 725.75,-263.25 695.65,-287.39 718.61,-316.64 689.75,-342.25 683.9,-347.44 676.54,-351.14 669.09,-353.77"/>
<polygon fill="#63b8ff" stroke="#63b8ff" points="738.54,-259.19 746.41,-252.1 735.83,-252.74 738.54,-259.19"/>
</a>
</g>
</g>
<!-- Node9 -->
<g id="Node000009" class="node">
<title>Node9</title>
<g id="a_Node000009"><a xlink:href="../../dc/d25/class_ellipse.html#a6fd6f0bad023ecfd3d607142c21846c4" target="_top" xlink:title="Ellipse Constructor.">
<polygon fill="white" stroke="#666666" points="672.5,-332.88 592,-332.88 592,-313.62 672.5,-313.62 672.5,-332.88"/>
<text text-anchor="middle" x="632.25" y="-319.38" font-family="Helvetica,sans-Serif" font-size="10.00">Ellipse::Ellipse</text>
</a>
</g>
</g>
<!-- Node7&#45;&gt;Node9 -->
<g id="edge9_Node000007_Node000009" class="edge">
<title>Node7&#45;&gt;Node9</title>
<g id="a_edge9_Node000007_Node000009"><a xlink:title=" ">
<path fill="none" stroke="#63b8ff" d="M737.64,-257.35C733.51,-259.06 729.51,-261.02 725.75,-263.25 704.61,-275.79 710.24,-291.67 689.75,-305.25 684.6,-308.66 678.76,-311.46 672.84,-313.75"/>
<polygon fill="#63b8ff" stroke="#63b8ff" points="738.5,-260.76 746.72,-254.07 736.12,-254.17 738.5,-260.76"/>
</a>
</g>
</g>
<!-- Node10 -->
<g id="Node000010" class="node">
<title>Node10</title>
<g id="a_Node000010"><a xlink:href="../../dd/db4/class_line.html#aab2a9c230d1bbb8a9e07f4c554e00c26" target="_top" xlink:title="Line Constructor.">
<polygon fill="white" stroke="#666666" points="661.25,-295.88 603.25,-295.88 603.25,-276.62 661.25,-276.62 661.25,-295.88"/>
<text text-anchor="middle" x="632.25" y="-282.38" font-family="Helvetica,sans-Serif" font-size="10.00">Line::Line</text>
</a>
</g>
</g>
<!-- Node7&#45;&gt;Node10 -->
<g id="edge10_Node000007_Node000010" class="edge">
<title>Node7&#45;&gt;Node10</title>
<g id="a_edge10_Node000007_Node000010"><a xlink:title=" ">
<path fill="none" stroke="#63b8ff" d="M750.47,-257.74C742.16,-259.54 733.73,-261.41 725.75,-263.25 704.14,-268.22 679.81,-274.29 661.53,-278.95"/>
<polygon fill="#63b8ff" stroke="#63b8ff" points="751.17,-261.17 760.21,-255.65 749.7,-254.33 751.17,-261.17"/>
</a>
</g>
</g>
<!-- Node11 -->
<g id="Node000011" class="node">
<title>Node11</title>
<g id="a_Node000011"><a xlink:href="../../d1/db0/class_polygon.html#a7ab0204bb62eddea1fb659e8a6ecd202" target="_top" xlink:title="Polygon Constructor.">
<polygon fill="white" stroke="#666666" points="678.5,-258.88 586,-258.88 586,-239.62 678.5,-239.62 678.5,-258.88"/>
<text text-anchor="middle" x="632.25" y="-245.38" font-family="Helvetica,sans-Serif" font-size="10.00">Polygon::Polygon</text>
</a>
</g>
</g>
<!-- Node7&#45;&gt;Node11 -->
<g id="edge11_Node000007_Node000011" class="edge">
<title>Node7&#45;&gt;Node11</title>
<g id="a_edge11_Node000007_Node000011"><a xlink:title=" ">
<path fill="none" stroke="#63b8ff" d="M736.75,-246.92C717.09,-247.36 696.45,-247.83 678.82,-248.22"/>
<polygon fill="#63b8ff" stroke="#63b8ff" points="736.74,-250.42 746.66,-246.69 736.58,-243.42 736.74,-250.42"/>
</a>
</g>
</g>
<!-- Node12 -->
<g id="Node000012" class="node">
<title>Node12</title>
<g id="a_Node000012"><a xlink:href="../../d1/d42/class_polyline.html#a27e879d516bc07264e2e871211df3a1f" target="_top" xlink:title="Polyline.">
<polygon fill="white" stroke="#666666" points="677.75,-221.88 586.75,-221.88 586.75,-202.62 677.75,-202.62 677.75,-221.88"/>
<text text-anchor="middle" x="632.25" y="-208.38" font-family="Helvetica,sans-Serif" font-size="10.00">Polyline::Polyline</text>
</a>
</g>
</g>
<!-- Node7&#45;&gt;Node12 -->
<g id="edge12_Node000007_Node000012" class="edge">
<title>Node7&#45;&gt;Node12</title>
<g id="a_edge12_Node000007_Node000012"><a xlink:title=" ">
<path fill="none" stroke="#63b8ff" d="M745.41,-233.1C723.06,-228.95 698.57,-224.39 678.19,-220.61"/>
<polygon fill="#63b8ff" stroke="#63b8ff" points="744.57,-236.51 755.04,-234.89 745.85,-229.62 744.57,-236.51"/>
</a>
</g>
</g>
<!-- Node13 -->
<g id="Node000013" class="node">
<title>Node13</title>
<g id="a_Node000013"><a xlink:href="../../d9/dc7/class_rectangle.html#af84479273a72d93294cd210732117dd7" target="_top" xlink:title="Rectangle.">
<polygon fill="white" stroke="#666666" points="687.5,-184.88 577,-184.88 577,-165.62 687.5,-165.62 687.5,-184.88"/>
<text text-anchor="middle" x="632.25" y="-171.38" font-family="Helvetica,sans-Serif" font-size="10.00">Rectangle::Rectangle</text>
</a>
</g>
</g>
<!-- Node7&#45;&gt;Node13 -->
<g id="edge13_Node000007_Node000013" class="edge">
<title>Node7&#45;&gt;Node13</title>
<g id="a_edge13_Node000007_Node000013"><a xlink:title=" ">
<path fill="none" stroke="#63b8ff" d="M737.35,-231.48C733.35,-229.92 729.45,-228.18 725.75,-226.25 706.51,-216.21 708.53,-204.13 689.75,-193.25 684.41,-190.15 678.46,-187.52 672.5,-185.3"/>
<polygon fill="#63b8ff" stroke="#63b8ff" points="736.1,-234.75 746.7,-234.72 738.39,-228.14 736.1,-234.75"/>
</a>
</g>
</g>
<!-- Node14 -->
<g id="Node000014" class="node">
<title>Node14</title>
<g id="a_Node000014"><a xlink:href="../../d9/d0c/class_square.html#a4b6e69fc0dda7084eb3db5d3fe92dfb3" target="_top" xlink:title="Square.">
<polygon fill="white" stroke="#666666" points="674,-147.88 590.5,-147.88 590.5,-128.62 674,-128.62 674,-147.88"/>
<text text-anchor="middle" x="632.25" y="-134.38" font-family="Helvetica,sans-Serif" font-size="10.00">Square::Square</text>
</a>
</g>
</g>
<!-- Node7&#45;&gt;Node14 -->
<g id="edge14_Node000007_Node000014" class="edge">
<title>Node7&#45;&gt;Node14</title>
<g id="a_edge14_Node000007_Node000014"><a xlink:title=" ">
<path fill="none" stroke="#63b8ff" d="M737.4,-233.47C733.28,-231.42 729.35,-229.03 725.75,-226.25 698.07,-204.86 716.46,-178.84 689.75,-156.25 685.27,-152.46 679.98,-149.47 674.47,-147.1"/>
<polygon fill="#63b8ff" stroke="#63b8ff" points="736.03,-236.69 746.61,-237.32 738.73,-230.24 736.03,-236.69"/>
</a>
</g>
</g>
<!-- Node15 -->
<g id="Node000015" class="node">
<title>Node15</title>
<g id="a_Node000015"><a xlink:href="../../da/d0e/class_text.html#a3c521086182cf14349dc8c120afd9d09" target="_top" xlink:title="Text.">
<polygon fill="white" stroke="#666666" points="662,-110.88 602.5,-110.88 602.5,-91.62 662,-91.62 662,-110.88"/>
<text text-anchor="middle" x="632.25" y="-97.38" font-family="Helvetica,sans-Serif" font-size="10.00">Text::Text</text>
</a>
</g>
</g>
<!-- Node7&#45;&gt;Node15 -->
<g id="edge15_Node000007_Node000015" class="edge">
<title>Node7&#45;&gt;Node15</title>
<g id="a_edge15_Node000007_Node000015"><a xlink:title=" ">
<path fill="none" stroke="#63b8ff" d="M737.69,-234.52C733.39,-232.22 729.35,-229.49 725.75,-226.25 688.46,-192.67 725.51,-154.44 689.75,-119.25 682.41,-112.03 672.19,-107.7 662.45,-105.11"/>
<polygon fill="#63b8ff" stroke="#63b8ff" points="736.18,-237.68 746.74,-238.5 739,-231.27 736.18,-237.68"/>
</a>
</g>
</g>
<!-- Node18&#45;&gt;Node19 -->
<g id="edge19_Node000018_Node000019" class="edge">
<title>Node18&#45;&gt;Node19</title>
<g id="a_edge19_Node000018_Node000019"><a xlink:title=" ">
<path fill="none" stroke="#63b8ff" d="M770.43,-104.62C743.47,-95.51 707.92,-83.49 679.76,-73.97"/>
<polygon fill="#63b8ff" stroke="#63b8ff" points="769.01,-107.84 779.61,-107.72 771.25,-101.2 769.01,-107.84"/>
</a>
</g>
</g>
<!-- Node20 -->
<g id="Node000020" class="node">
<title>Node20</title>
<g id="a_Node000020"><a xlink:href="../../d9/dc6/class_main_window.html#afe8619a02bba82d0ad5e05065d6c0ea1" target="_top" xlink:title="Adds a given shape to the properties tree widget and emits shapeAdded signal.">
<polygon fill="white" stroke="#666666" points="528.62,-220.88 376.88,-220.88 376.88,-201.62 528.62,-201.62 528.62,-220.88"/>
<text text-anchor="middle" x="452.75" y="-207.38" font-family="Helvetica,sans-Serif" font-size="10.00">MainWindow::addToShapeTree</text>
</a>
</g>
</g>
<!-- Node19&#45;&gt;Node20 -->
<g id="edge20_Node000019_Node000020" class="edge">
<title>Node19&#45;&gt;Node20</title>
<g id="a_edge20_Node000019_Node000020"><a xlink:title=" ">
<path fill="none" stroke="#63b8ff" d="M578.97,-79.47C577.52,-80.37 576.12,-81.3 574.75,-82.25 523.89,-117.76 477.96,-177.55 460.84,-201.19"/>
<polygon fill="#63b8ff" stroke="#63b8ff" points="580.52,-82.61 587.54,-74.67 577.1,-76.5 580.52,-82.61"/>
</a>
</g>
</g>
<!-- Node29 -->
<g id="Node000029" class="node">
<title>Node29</title>
<g id="a_Node000029"><a xlink:href="../../d9/dc6/class_main_window.html#a841a40f673ad191cd737b49591568446" target="_top" xlink:title="Slot triggered when the render area&#39;s content has changed, requiring a UI update.">
<polygon fill="white" stroke="#666666" points="523,-73.5 382.5,-73.5 382.5,-43 523,-43 523,-73.5"/>
<text text-anchor="start" x="390.5" y="-60" font-family="Helvetica,sans-Serif" font-size="10.00">MainWindow::onRenderArea</text>
<text text-anchor="middle" x="452.75" y="-48.75" font-family="Helvetica,sans-Serif" font-size="10.00">Changed</text>
</a>
</g>
</g>
<!-- Node19&#45;&gt;Node29 -->
<g id="edge29_Node000019_Node000029" class="edge">
<title>Node19&#45;&gt;Node29</title>
<g id="a_edge29_Node000019_Node000029"><a xlink:title=" ">
<path fill="none" stroke="#63b8ff" d="M565.67,-58.25C551.88,-58.25 537.3,-58.25 523.37,-58.25"/>
<polygon fill="#63b8ff" stroke="#63b8ff" points="565.52,-61.75 575.52,-58.25 565.52,-54.75 565.52,-61.75"/>
</a>
</g>
</g>
<!-- Node33 -->
<g id="Node000033" class="node">
<title>Node33</title>
<g id="a_Node000033"><a xlink:href="../../d9/dc6/class_main_window.html#a04d9898f7479308e0e7e2b8796426c2b" target="_top" xlink:title="Slot triggered upon successful user authentication. Updates UI with user info.">
<polygon fill="white" stroke="#666666" points="538.75,-24.88 366.75,-24.88 366.75,-5.62 538.75,-5.62 538.75,-24.88"/>
<text text-anchor="middle" x="452.75" y="-11.38" font-family="Helvetica,sans-Serif" font-size="10.00">MainWindow::onUserAuthentication</text>
</a>
</g>
</g>
<!-- Node19&#45;&gt;Node33 -->
<g id="edge33_Node000019_Node000033" class="edge">
<title>Node19&#45;&gt;Node33</title>
<g id="a_edge33_Node000019_Node000033"><a xlink:title=" ">
<path fill="none" stroke="#63b8ff" d="M566,-41.02C556.86,-38.7 547.58,-36.38 538.75,-34.25 526.26,-31.23 512.69,-28.13 500.14,-25.32"/>
<polygon fill="#63b8ff" stroke="#63b8ff" points="565.01,-44.39 575.57,-43.48 566.75,-37.6 565.01,-44.39"/>
</a>
</g>
</g>
<!-- Node21 -->
<g id="Node000021" class="node">
<title>Node21</title>
<g id="a_Node000021"><a xlink:href="../../d9/dc6/class_main_window.html#a9b9bf9b3d640e2bcace3cbfdc5d75d8b" target="_top" xlink:title="Slot triggered to create and add a new Circle shape.">
<polygon fill="white" stroke="#666666" points="328.5,-422.5 190.25,-422.5 190.25,-392 328.5,-392 328.5,-422.5"/>
<text text-anchor="start" x="198.25" y="-409" font-family="Helvetica,sans-Serif" font-size="10.00">MainWindow::on_actionnew</text>
<text text-anchor="middle" x="259.38" y="-397.75" font-family="Helvetica,sans-Serif" font-size="10.00">_circle_button_triggered</text>
</a>
</g>
</g>
<!-- Node20&#45;&gt;Node21 -->
<g id="edge21_Node000020_Node000021" class="edge">
<title>Node20&#45;&gt;Node21</title>
<g id="a_edge21_Node000020_Node000021"><a xlink:title=" ">
<path fill="none" stroke="#63b8ff" d="M442.62,-231.45C425.59,-266.94 385.69,-340.64 330.75,-382.25 326,-385.85 320.68,-388.96 315.15,-391.65"/>
<polygon fill="#63b8ff" stroke="#63b8ff" points="445.63,-233.28 446.69,-222.73 439.29,-230.31 445.63,-233.28"/>
</a>
</g>
</g>
<!-- Node22 -->
<g id="Node000022" class="node">
<title>Node22</title>
<g id="a_Node000022"><a xlink:href="../../d9/dc6/class_main_window.html#a4e25fe2c6dd72b44efdf2d1b1e9c1846" target="_top" xlink:title="Slot triggered to create and add a new Ellipse shape.">
<polygon fill="white" stroke="#666666" points="328.5,-373.5 190.25,-373.5 190.25,-343 328.5,-343 328.5,-373.5"/>
<text text-anchor="start" x="198.25" y="-360" font-family="Helvetica,sans-Serif" font-size="10.00">MainWindow::on_actionnew</text>
<text text-anchor="middle" x="259.38" y="-348.75" font-family="Helvetica,sans-Serif" font-size="10.00">_ellipse_button_triggered</text>
</a>
</g>
</g>
<!-- Node20&#45;&gt;Node22 -->
<g id="edge22_Node000020_Node000022" class="edge">
<title>Node20&#45;&gt;Node22</title>
<g id="a_edge22_Node000020_Node000022"><a xlink:title=" ">
<path fill="none" stroke="#63b8ff" d="M437.46,-230.3C416.68,-256.81 375.64,-304.76 330.75,-333.25 325.17,-336.79 319.01,-339.92 312.74,-342.65"/>
<polygon fill="#63b8ff" stroke="#63b8ff" points="440.16,-232.54 443.48,-222.48 434.61,-228.27 440.16,-232.54"/>
</a>
</g>
</g>
<!-- Node23 -->
<g id="Node000023" class="node">
<title>Node23</title>
<g id="a_Node000023"><a xlink:href="../../d9/dc6/class_main_window.html#abd3987548635bfd1133f8f0d5e0a1879" target="_top" xlink:title="Slot triggered to create and add a new Line shape.">
<polygon fill="white" stroke="#666666" points="328.5,-324.5 190.25,-324.5 190.25,-294 328.5,-294 328.5,-324.5"/>
<text text-anchor="start" x="198.25" y="-311" font-family="Helvetica,sans-Serif" font-size="10.00">MainWindow::on_actionnew</text>
<text text-anchor="middle" x="259.38" y="-299.75" font-family="Helvetica,sans-Serif" font-size="10.00">_line_button_triggered</text>
</a>
</g>
</g>
<!-- Node20&#45;&gt;Node23 -->
<g id="edge23_Node000020_Node000023" class="edge">
<title>Node20&#45;&gt;Node23</title>
<g id="a_edge23_Node000020_Node000023"><a xlink:title=" ">
<path fill="none" stroke="#63b8ff" d="M428.1,-227.49C404.27,-243.37 366.06,-267.53 330.75,-284.25 323.72,-287.58 316.12,-290.72 308.6,-293.58"/>
<polygon fill="#63b8ff" stroke="#63b8ff" points="429.79,-230.57 436.13,-222.08 425.88,-224.76 429.79,-230.57"/>
</a>
</g>
</g>
<!-- Node24 -->
<g id="Node000024" class="node">
<title>Node24</title>
<g id="a_Node000024"><a xlink:href="../../d9/dc6/class_main_window.html#a28e2b0b2efac43e0553aef6a8d23aee5" target="_top" xlink:title="Slot triggered to create and add a new Polygon shape.">
<polygon fill="white" stroke="#666666" points="328.5,-275.5 190.25,-275.5 190.25,-245 328.5,-245 328.5,-275.5"/>
<text text-anchor="start" x="198.25" y="-262" font-family="Helvetica,sans-Serif" font-size="10.00">MainWindow::on_actionnew</text>
<text text-anchor="middle" x="259.38" y="-250.75" font-family="Helvetica,sans-Serif" font-size="10.00">_polygon_button_triggered</text>
</a>
</g>
</g>
<!-- Node20&#45;&gt;Node24 -->
<g id="edge24_Node000020_Node000024" class="edge">
<title>Node20&#45;&gt;Node24</title>
<g id="a_edge24_Node000020_Node000024"><a xlink:title=" ">
<path fill="none" stroke="#63b8ff" d="M401.72,-224.06C377.25,-230.33 347.57,-237.92 321.74,-244.54"/>
<polygon fill="#63b8ff" stroke="#63b8ff" points="402.28,-227.53 411.09,-221.66 400.54,-220.75 402.28,-227.53"/>
</a>
</g>
</g>
<!-- Node25 -->
<g id="Node000025" class="node">
<title>Node25</title>
<g id="a_Node000025"><a xlink:href="../../d9/dc6/class_main_window.html#ab4fc6a65cac38759157fd77d12497a89" target="_top" xlink:title="Slot triggered to create and add a new Polyline shape.">
<polygon fill="white" stroke="#666666" points="328.5,-226.5 190.25,-226.5 190.25,-196 328.5,-196 328.5,-226.5"/>
<text text-anchor="start" x="198.25" y="-213" font-family="Helvetica,sans-Serif" font-size="10.00">MainWindow::on_actionnew</text>
<text text-anchor="middle" x="259.38" y="-201.75" font-family="Helvetica,sans-Serif" font-size="10.00">_polyline_button_triggered</text>
</a>
</g>
</g>
<!-- Node20&#45;&gt;Node25 -->
<g id="edge25_Node000020_Node000025" class="edge">
<title>Node20&#45;&gt;Node25</title>
<g id="a_edge25_Node000020_Node000025"><a xlink:title=" ">
<path fill="none" stroke="#63b8ff" d="M364.88,-211.25C352.79,-211.25 340.51,-211.25 328.82,-211.25"/>
<polygon fill="#63b8ff" stroke="#63b8ff" points="364.87,-214.75 374.87,-211.25 364.87,-207.75 364.87,-214.75"/>
</a>
</g>
</g>
<!-- Node26 -->
<g id="Node000026" class="node">
<title>Node26</title>
<g id="a_Node000026"><a xlink:href="../../d9/dc6/class_main_window.html#af65e6b1a5513198eece131b1d164a978" target="_top" xlink:title="Slot triggered to create and add a new Rectangle shape.">
<polygon fill="white" stroke="#666666" points="328.5,-177.5 190.25,-177.5 190.25,-147 328.5,-147 328.5,-177.5"/>
<text text-anchor="start" x="198.25" y="-164" font-family="Helvetica,sans-Serif" font-size="10.00">MainWindow::on_actionnew</text>
<text text-anchor="middle" x="259.38" y="-152.75" font-family="Helvetica,sans-Serif" font-size="10.00">_rectange_button_triggered</text>
</a>
</g>
</g>
<!-- Node20&#45;&gt;Node26 -->
<g id="edge26_Node000020_Node000026" class="edge">
<title>Node20&#45;&gt;Node26</title>
<g id="a_edge26_Node000020_Node000026"><a xlink:title=" ">
<path fill="none" stroke="#63b8ff" d="M401.72,-198.44C377.25,-192.17 347.57,-184.58 321.74,-177.96"/>
<polygon fill="#63b8ff" stroke="#63b8ff" points="400.54,-201.75 411.09,-200.84 402.28,-194.97 400.54,-201.75"/>
</a>
</g>
</g>
<!-- Node27 -->
<g id="Node000027" class="node">
<title>Node27</title>
<g id="a_Node000027"><a xlink:href="../../d9/dc6/class_main_window.html#a7d1d40640f58ce6dd36eabcee8ecdc6e" target="_top" xlink:title="Slot triggered to create and add a new Square shape.">
<polygon fill="white" stroke="#666666" points="328.5,-128.5 190.25,-128.5 190.25,-98 328.5,-98 328.5,-128.5"/>
<text text-anchor="start" x="198.25" y="-115" font-family="Helvetica,sans-Serif" font-size="10.00">MainWindow::on_actionnew</text>
<text text-anchor="middle" x="259.38" y="-103.75" font-family="Helvetica,sans-Serif" font-size="10.00">_square_button_triggered</text>
</a>
</g>
</g>
<!-- Node20&#45;&gt;Node27 -->
<g id="edge27_Node000020_Node000027" class="edge">
<title>Node20&#45;&gt;Node27</title>
<g id="a_edge27_Node000020_Node000027"><a xlink:title=" ">
<path fill="none" stroke="#63b8ff" d="M428.1,-195.01C404.27,-179.13 366.06,-154.97 330.75,-138.25 323.72,-134.92 316.12,-131.78 308.6,-128.92"/>
<polygon fill="#63b8ff" stroke="#63b8ff" points="425.88,-197.74 436.13,-200.42 429.79,-191.93 425.88,-197.74"/>
</a>
</g>
</g>
<!-- Node28 -->
<g id="Node000028" class="node">
<title>Node28</title>
<g id="a_Node000028"><a xlink:href="../../d9/dc6/class_main_window.html#aebcb152e26ef6d6bd4fc348e815fe8c8" target="_top" xlink:title="Slot triggered to create and add a new Text shape.">
<polygon fill="white" stroke="#666666" points="328.5,-79.5 190.25,-79.5 190.25,-49 328.5,-49 328.5,-79.5"/>
<text text-anchor="start" x="198.25" y="-66" font-family="Helvetica,sans-Serif" font-size="10.00">MainWindow::on_actionnew</text>
<text text-anchor="middle" x="259.38" y="-54.75" font-family="Helvetica,sans-Serif" font-size="10.00">_text_button_triggered</text>
</a>
</g>
</g>
<!-- Node20&#45;&gt;Node28 -->
<g id="edge28_Node000020_Node000028" class="edge">
<title>Node20&#45;&gt;Node28</title>
<g id="a_edge28_Node000020_Node000028"><a xlink:title=" ">
<path fill="none" stroke="#63b8ff" d="M437.46,-192.2C416.68,-165.69 375.64,-117.74 330.75,-89.25 325.17,-85.71 319.01,-82.58 312.74,-79.85"/>
<polygon fill="#63b8ff" stroke="#63b8ff" points="434.61,-194.23 443.48,-200.02 440.16,-189.96 434.61,-194.23"/>
</a>
</g>
</g>
<!-- Node30 -->
<g id="Node000030" class="node">
<title>Node30</title>
<g id="a_Node000030"><a xlink:href="../../d7/de6/class_app_driver.html#af39fbba491cc4dc1d378d6e140507554" target="_top" xlink:title="Connects signals from backend managers to slots in the frontend UI.">
<polygon fill="white" stroke="#666666" points="330.75,-30.5 188,-30.5 188,0 330.75,0 330.75,-30.5"/>
<text text-anchor="start" x="196" y="-17" font-family="Helvetica,sans-Serif" font-size="10.00">AppDriver::connectManagers</text>
<text text-anchor="middle" x="259.38" y="-5.75" font-family="Helvetica,sans-Serif" font-size="10.00">ToFrontend</text>
</a>
</g>
</g>
<!-- Node29&#45;&gt;Node30 -->
<g id="edge30_Node000029_Node000030" class="edge">
<title>Node29&#45;&gt;Node30</title>
<g id="a_edge30_Node000029_Node000030"><a xlink:title=" ">
<path fill="none" stroke="#63b8ff" d="M370.89,-40.08C357.39,-37.05 343.48,-33.92 330.28,-30.96"/>
<polygon fill="#63b8ff" stroke="#63b8ff" points="370.12,-43.5 380.64,-42.27 371.65,-36.67 370.12,-43.5"/>
</a>
</g>
</g>
<!-- Node31 -->
<g id="Node000031" class="node">
<title>Node31</title>
<g id="a_Node000031"><a xlink:href="../../d7/de6/class_app_driver.html#af5bf7b6bd96161d95a0a67cc7693127d" target="_top" xlink:title="Initializes and shows the main application window and loads initial data.">
<polygon fill="white" stroke="#666666" points="152,-24.88 73,-24.88 73,-5.62 152,-5.62 152,-24.88"/>
<text text-anchor="middle" x="112.5" y="-11.38" font-family="Helvetica,sans-Serif" font-size="10.00">AppDriver::run</text>
</a>
</g>
</g>
<!-- Node30&#45;&gt;Node31 -->
<g id="edge31_Node000030_Node000031" class="edge">
<title>Node30&#45;&gt;Node31</title>
<g id="a_edge31_Node000030_Node000031"><a xlink:title=" ">
<path fill="none" stroke="#63b8ff" d="M176.21,-15.25C167.88,-15.25 159.73,-15.25 152.2,-15.25"/>
<polygon fill="#63b8ff" stroke="#63b8ff" points="176.12,-18.75 186.12,-15.25 176.12,-11.75 176.12,-18.75"/>
</a>
</g>
</g>
<!-- Node32 -->
<g id="Node000032" class="node">
<title>Node32</title>
<g id="a_Node000032"><a xlink:href="../../d8/d80/src_2backend_2main_8cpp.html#a0ddf1224851353fc92bfbff6f499fa97" target="_top" xlink:title=" ">
<polygon fill="white" stroke="#666666" points="37,-24.88 0,-24.88 0,-5.62 37,-5.62 37,-24.88"/>
<text text-anchor="middle" x="18.5" y="-11.38" font-family="Helvetica,sans-Serif" font-size="10.00">main</text>
</a>
</g>
</g>
<!-- Node31&#45;&gt;Node32 -->
<g id="edge32_Node000031_Node000032" class="edge">
<title>Node31&#45;&gt;Node32</title>
<g id="a_edge32_Node000031_Node000032"><a xlink:title=" ">
<path fill="none" stroke="#63b8ff" d="M61.34,-15.25C52.67,-15.25 44.2,-15.25 37.18,-15.25"/>
<polygon fill="#63b8ff" stroke="#63b8ff" points="61.24,-18.75 71.24,-15.25 61.24,-11.75 61.24,-18.75"/>
</a>
</g>
</g>
<!-- Node33&#45;&gt;Node30 -->
<g id="edge34_Node000033_Node000030" class="edge">
<title>Node33&#45;&gt;Node30</title>
<g id="a_edge34_Node000033_Node000030"><a xlink:title=" ">
<path fill="none" stroke="#63b8ff" d="M355.07,-15.25C347.04,-15.25 339.01,-15.25 331.22,-15.25"/>
<polygon fill="#63b8ff" stroke="#63b8ff" points="354.9,-18.75 364.9,-15.25 354.9,-11.75 354.9,-18.75"/>
</a>
</g>
</g>
</g>
</svg>
