<?xml version="1.0" encoding="UTF-8" standalone="no"?>
<!DOCTYPE svg PUBLIC "-//W3C//DTD SVG 1.1//EN"
 "http://www.w3.org/Graphics/SVG/1.1/DTD/svg11.dtd">
<!-- Generated by graphviz version 12.2.1 (20241206.2353)
 -->
<!-- Title: Shape::getPoints Pages: 1 -->
<svg width="647pt" height="181pt"
 viewBox="0.00 0.00 646.50 180.88" xmlns="http://www.w3.org/2000/svg" xmlns:xlink="http://www.w3.org/1999/xlink">
<g id="graph0" class="graph" transform="scale(1 1) rotate(0) translate(4 176.88)">
<title>Shape::getPoints</title>
<!-- Node1 -->
<g id="Node000001" class="node">
<title>Node1</title>
<g id="a_Node000001"><a xlink:title=" ">
<polygon fill="#999999" stroke="#666666" points="638.5,-98.88 547.5,-98.88 547.5,-79.62 638.5,-79.62 638.5,-98.88"/>
<text text-anchor="middle" x="593" y="-85.38" font-family="Helvetica,sans-Serif" font-size="10.00">Shape::getPoints</text>
</a>
</g>
</g>
<!-- Node2 -->
<g id="Node000002" class="node">
<title>Node2</title>
<g id="a_Node000002"><a xlink:href="../../d0/d88/class_circle.html#ac05f869cde1af46ac56ff2e0318980bb" target="_top" xlink:title="Draw &#45; Draws a circle at the assigned coords with the given radius.">
<polygon fill="white" stroke="#666666" points="470.62,-172.88 399.88,-172.88 399.88,-153.62 470.62,-153.62 470.62,-172.88"/>
<text text-anchor="middle" x="435.25" y="-159.38" font-family="Helvetica,sans-Serif" font-size="10.00">Circle::Draw</text>
</a>
</g>
</g>
<!-- Node1&#45;&gt;Node2 -->
<g id="edge1_Node000001_Node000002" class="edge">
<title>Node1&#45;&gt;Node2</title>
<g id="a_edge1_Node000001_Node000002"><a xlink:title=" ">
<path fill="none" stroke="#63b8ff" d="M571.87,-106.46C556.31,-118.93 533.76,-135.28 511.5,-145.25 498.75,-150.96 483.94,-155 470.85,-157.79"/>
<polygon fill="#63b8ff" stroke="#63b8ff" points="573.91,-109.31 579.41,-100.26 569.46,-103.91 573.91,-109.31"/>
</a>
</g>
</g>
<!-- Node3 -->
<g id="Node000003" class="node">
<title>Node3</title>
<g id="a_Node000003"><a xlink:href="../../dc/d25/class_ellipse.html#a76eaec1becd0860f48dd5c39bb00dabf" target="_top" xlink:title="Draw &#45; Draws the ellipse to the passed renderArea.">
<polygon fill="white" stroke="#666666" points="472.5,-135.88 398,-135.88 398,-116.62 472.5,-116.62 472.5,-135.88"/>
<text text-anchor="middle" x="435.25" y="-122.38" font-family="Helvetica,sans-Serif" font-size="10.00">Ellipse::Draw</text>
</a>
</g>
</g>
<!-- Node1&#45;&gt;Node3 -->
<g id="edge2_Node000001_Node000003" class="edge">
<title>Node1&#45;&gt;Node3</title>
<g id="a_edge2_Node000001_Node000003"><a xlink:title=" ">
<path fill="none" stroke="#63b8ff" d="M538.44,-101.97C516.84,-107.11 492.46,-112.9 472.94,-117.53"/>
<polygon fill="#63b8ff" stroke="#63b8ff" points="539.05,-105.43 547.97,-99.71 537.43,-98.62 539.05,-105.43"/>
</a>
</g>
</g>
<!-- Node4 -->
<g id="Node000004" class="node">
<title>Node4</title>
<g id="a_Node000004"><a xlink:href="../../dc/db7/class_parser.html#af246a0732ef6c7518e5aaee1043d12e4" target="_top" xlink:title="Gets the geometric dimensions of a shape as a JSON array string.">
<polygon fill="white" stroke="#666666" points="508.12,-98.88 362.38,-98.88 362.38,-79.62 508.12,-79.62 508.12,-98.88"/>
<text text-anchor="middle" x="435.25" y="-85.38" font-family="Helvetica,sans-Serif" font-size="10.00">Parser::GetShapeDimensions</text>
</a>
</g>
</g>
<!-- Node1&#45;&gt;Node4 -->
<g id="edge3_Node000001_Node000004" class="edge">
<title>Node1&#45;&gt;Node4</title>
<g id="a_edge3_Node000001_Node000004"><a xlink:title=" ">
<path fill="none" stroke="#63b8ff" d="M535.95,-89.25C527.05,-89.25 517.74,-89.25 508.53,-89.25"/>
<polygon fill="#63b8ff" stroke="#63b8ff" points="535.85,-92.75 545.85,-89.25 535.85,-85.75 535.85,-92.75"/>
</a>
</g>
</g>
<!-- Node8 -->
<g id="Node000008" class="node">
<title>Node8</title>
<g id="a_Node000008"><a xlink:href="../../d9/ddf/class_render_area.html#afc1cb0383844d8cba93282f0b0a440c6" target="_top" xlink:title="Handles mouse move events to drag selected shapes if editing is allowed.">
<polygon fill="white" stroke="#666666" points="511.5,-61.88 359,-61.88 359,-42.62 511.5,-42.62 511.5,-61.88"/>
<text text-anchor="middle" x="435.25" y="-48.38" font-family="Helvetica,sans-Serif" font-size="10.00">RenderArea::mouseMoveEvent</text>
</a>
</g>
</g>
<!-- Node1&#45;&gt;Node8 -->
<g id="edge8_Node000001_Node000008" class="edge">
<title>Node1&#45;&gt;Node8</title>
<g id="a_edge8_Node000001_Node000008"><a xlink:title=" ">
<path fill="none" stroke="#63b8ff" d="M538.28,-76.49C518.82,-71.87 497.12,-66.71 478.76,-62.35"/>
<polygon fill="#63b8ff" stroke="#63b8ff" points="537.43,-79.88 547.97,-78.79 539.05,-73.07 537.43,-79.88"/>
</a>
</g>
</g>
<!-- Node9 -->
<g id="Node000009" class="node">
<title>Node9</title>
<g id="a_Node000009"><a xlink:href="../../dd/db4/class_line.html#a09745a7cb17e1639c4f63fbdf7716795" target="_top" xlink:title="Move &#45; Moves the Line coords to the passed x and y.">
<polygon fill="white" stroke="#666666" points="467.25,-24.88 403.25,-24.88 403.25,-5.63 467.25,-5.63 467.25,-24.88"/>
<text text-anchor="middle" x="435.25" y="-11.38" font-family="Helvetica,sans-Serif" font-size="10.00">Line::Move</text>
</a>
</g>
</g>
<!-- Node1&#45;&gt;Node9 -->
<g id="edge9_Node000001_Node000009" class="edge">
<title>Node1&#45;&gt;Node9</title>
<g id="a_edge9_Node000001_Node000009"><a xlink:title=" ">
<path fill="none" stroke="#63b8ff" d="M571.87,-72.04C556.31,-59.57 533.76,-43.22 511.5,-33.25 497.65,-27.04 481.36,-22.81 467.49,-20.01"/>
<polygon fill="#63b8ff" stroke="#63b8ff" points="569.46,-74.59 579.41,-78.24 573.91,-69.19 569.46,-74.59"/>
</a>
</g>
</g>
<!-- Node5 -->
<g id="Node000005" class="node">
<title>Node5</title>
<g id="a_Node000005"><a xlink:href="../../dc/db7/class_parser.html#a8f8932bed758cd3e61de3669fdef1110" target="_top" xlink:title="Appends common shape properties (ID, Type, Dimensions, Pen properties) to a JSON string.">
<polygon fill="white" stroke="#666666" points="323,-119.88 151,-119.88 151,-100.62 323,-100.62 323,-119.88"/>
<text text-anchor="middle" x="237" y="-106.38" font-family="Helvetica,sans-Serif" font-size="10.00">Parser::AppendCommonShapeData</text>
</a>
</g>
</g>
<!-- Node4&#45;&gt;Node5 -->
<g id="edge4_Node000004_Node000005" class="edge">
<title>Node4&#45;&gt;Node5</title>
<g id="a_edge4_Node000004_Node000005"><a xlink:title=" ">
<path fill="none" stroke="#63b8ff" d="M350.68,-98.19C341.64,-99.16 332.44,-100.14 323.38,-101.11"/>
<polygon fill="#63b8ff" stroke="#63b8ff" points="350.93,-101.69 360.5,-97.14 350.19,-94.73 350.93,-101.69"/>
</a>
</g>
</g>
<!-- Node7 -->
<g id="Node000007" class="node">
<title>Node7</title>
<g id="a_Node000007"><a xlink:href="../../dc/db7/class_parser.html#a3c8d6dcf6e07231eaedb036ebe90b51f" target="_top" xlink:title="Appends all properties specific to Text objects to a JSON string.">
<polygon fill="white" stroke="#666666" points="298.62,-82.88 175.38,-82.88 175.38,-63.62 298.62,-63.62 298.62,-82.88"/>
<text text-anchor="middle" x="237" y="-69.38" font-family="Helvetica,sans-Serif" font-size="10.00">Parser::AppendTextData</text>
</a>
</g>
</g>
<!-- Node4&#45;&gt;Node7 -->
<g id="edge6_Node000004_Node000007" class="edge">
<title>Node4&#45;&gt;Node7</title>
<g id="a_edge6_Node000004_Node000007"><a xlink:title=" ">
<path fill="none" stroke="#63b8ff" d="M350.68,-82.44C333.26,-81.02 315.22,-79.55 298.81,-78.21"/>
<polygon fill="#63b8ff" stroke="#63b8ff" points="350.25,-85.91 360.5,-83.24 350.82,-78.94 350.25,-85.91"/>
</a>
</g>
</g>
<!-- Node6 -->
<g id="Node000006" class="node">
<title>Node6</title>
<g id="a_Node000006"><a xlink:href="../../dc/db7/class_parser.html#ac0dc74d228421b62ece9d9e93511509e" target="_top" xlink:title="Converts a vector of Shape pointers into a JSON string representation.">
<polygon fill="white" stroke="#666666" points="115,-100.88 0,-100.88 0,-81.62 115,-81.62 115,-100.88"/>
<text text-anchor="middle" x="57.5" y="-87.38" font-family="Helvetica,sans-Serif" font-size="10.00">Parser::ShapesToJson</text>
</a>
</g>
</g>
<!-- Node5&#45;&gt;Node6 -->
<g id="edge5_Node000005_Node000006" class="edge">
<title>Node5&#45;&gt;Node6</title>
<g id="a_edge5_Node000005_Node000006"><a xlink:title=" ">
<path fill="none" stroke="#63b8ff" d="M139.39,-99.91C131.17,-99.03 123.04,-98.16 115.29,-97.33"/>
<polygon fill="#63b8ff" stroke="#63b8ff" points="138.81,-103.37 149.12,-100.95 139.55,-96.41 138.81,-103.37"/>
</a>
</g>
</g>
<!-- Node7&#45;&gt;Node6 -->
<g id="edge7_Node000007_Node000006" class="edge">
<title>Node7&#45;&gt;Node6</title>
<g id="a_edge7_Node000007_Node000006"><a xlink:title=" ">
<path fill="none" stroke="#63b8ff" d="M163.85,-80.57C147.65,-82.21 130.69,-83.93 115.22,-85.5"/>
<polygon fill="#63b8ff" stroke="#63b8ff" points="163.81,-84.09 173.41,-79.6 163.11,-77.12 163.81,-84.09"/>
</a>
</g>
</g>
<!-- Node10 -->
<g id="Node000010" class="node">
<title>Node10</title>
<g id="a_Node000010"><a xlink:href="../../d8/d08/class_render_area_manager.html#af37e63015f3671115d0da8aff234a805" target="_top" xlink:title="Modifies a property of an existing shape based on a key&#45;value pair.">
<polygon fill="white" stroke="#666666" points="292.62,-30.5 181.38,-30.5 181.38,0 292.62,0 292.62,-30.5"/>
<text text-anchor="start" x="189.38" y="-17" font-family="Helvetica,sans-Serif" font-size="10.00">RenderAreaManager::</text>
<text text-anchor="middle" x="237" y="-5.75" font-family="Helvetica,sans-Serif" font-size="10.00">modifyShape</text>
</a>
</g>
</g>
<!-- Node9&#45;&gt;Node10 -->
<g id="edge10_Node000009_Node000010" class="edge">
<title>Node9&#45;&gt;Node10</title>
<g id="a_edge10_Node000009_Node000010"><a xlink:title=" ">
<path fill="none" stroke="#63b8ff" d="M391.8,-15.25C362.89,-15.25 324.34,-15.25 293.08,-15.25"/>
<polygon fill="#63b8ff" stroke="#63b8ff" points="391.64,-18.75 401.64,-15.25 391.64,-11.75 391.64,-18.75"/>
</a>
</g>
</g>
</g>
</svg>
