<?xml version="1.0" encoding="UTF-8" standalone="no"?>
<!DOCTYPE svg PUBLIC "-//W3C//DTD SVG 1.1//EN"
 "http://www.w3.org/Graphics/SVG/1.1/DTD/svg11.dtd">
<!-- Generated by graphviz version 12.2.1 (20241206.2353)
 -->
<!-- Title: Shape::getBrush Pages: 1 -->
<svg width="222pt" height="249pt"
 viewBox="0.00 0.00 222.25 249.25" xmlns="http://www.w3.org/2000/svg" xmlns:xlink="http://www.w3.org/1999/xlink">

<svg id="main" version="1.1" xmlns="http://www.w3.org/2000/svg" xmlns:xlink="http://www.w3.org/1999/xlink" xml:space="preserve">

<style type="text/css"><![CDATA[
.node, .edge {opacity: 0.7;}
.node.selected, .edge.selected {opacity: 1;}
.edge:hover path { stroke: red; }
.edge:hover polygon { stroke: red; fill: red; }
]]></style>
<script type="application/ecmascript" xlink:href="../../svg.min.js"/>
<svg id="graph" class="graph">
<g id="graph0" class="graph" transform="scale(1 1) rotate(0) translate(4 245.25)">
<title>Shape::getBrush</title>
<!-- Node1 -->
<g id="Node000001" class="node">
<title>Node1</title>
<g id="a_Node000001"><a xlink:title=" ">
<polygon fill="#999999" stroke="#666666" points="214.25,-130.25 125.5,-130.25 125.5,-111 214.25,-111 214.25,-130.25"/>
<text text-anchor="middle" x="169.88" y="-116.75" font-family="Helvetica,sans-Serif" font-size="10.00">Shape::getBrush</text>
</a>
</g>
</g>
<!-- Node2 -->
<g id="Node000002" class="node">
<title>Node2</title>
<g id="a_Node000002"><a xlink:href="../../d0/d88/class_circle.html#ac05f869cde1af46ac56ff2e0318980bb" target="_top" xlink:title="Draw &#45; Draws a circle at the assigned coords with the given radius.">
<polygon fill="white" stroke="#666666" points="80.12,-241.25 9.38,-241.25 9.38,-222 80.12,-222 80.12,-241.25"/>
<text text-anchor="middle" x="44.75" y="-227.75" font-family="Helvetica,sans-Serif" font-size="10.00">Circle::Draw</text>
</a>
</g>
</g>
<!-- Node1&#45;&gt;Node2 -->
<g id="edge1_Node000001_Node000002" class="edge">
<title>Node1&#45;&gt;Node2</title>
<g id="a_edge1_Node000001_Node000002"><a xlink:title=" ">
<path fill="none" stroke="#63b8ff" d="M156.47,-140.01C142.41,-160.67 117.73,-193.16 89.5,-213.62 85.24,-216.71 80.38,-219.38 75.48,-221.64"/>
<polygon fill="#63b8ff" stroke="#63b8ff" points="159.22,-142.2 161.82,-131.93 153.38,-138.34 159.22,-142.2"/>
</a>
</g>
</g>
<!-- Node3 -->
<g id="Node000003" class="node">
<title>Node3</title>
<g id="a_Node000003"><a xlink:href="../../dc/d25/class_ellipse.html#a76eaec1becd0860f48dd5c39bb00dabf" target="_top" xlink:title="Draw &#45; Draws the ellipse to the passed renderArea.">
<polygon fill="white" stroke="#666666" points="82,-204.25 7.5,-204.25 7.5,-185 82,-185 82,-204.25"/>
<text text-anchor="middle" x="44.75" y="-190.75" font-family="Helvetica,sans-Serif" font-size="10.00">Ellipse::Draw</text>
</a>
</g>
</g>
<!-- Node1&#45;&gt;Node3 -->
<g id="edge2_Node000001_Node000003" class="edge">
<title>Node1&#45;&gt;Node3</title>
<g id="a_edge2_Node000001_Node000003"><a xlink:title=" ">
<path fill="none" stroke="#63b8ff" d="M147.76,-137.5C132.24,-149.4 110.31,-165.19 89.5,-176.62 84.32,-179.47 78.59,-182.14 73.03,-184.51"/>
<polygon fill="#63b8ff" stroke="#63b8ff" points="149.6,-140.5 155.33,-131.59 145.29,-134.98 149.6,-140.5"/>
</a>
</g>
</g>
<!-- Node4 -->
<g id="Node000004" class="node">
<title>Node4</title>
<g id="a_Node000004"><a xlink:href="../../dd/db4/class_line.html#ad68aeb558c52eace258a55e24f45d11e" target="_top" xlink:title="Draw &#45; Draws a line from startPoint to endPoint.">
<polygon fill="white" stroke="#666666" points="76.38,-167.25 13.12,-167.25 13.12,-148 76.38,-148 76.38,-167.25"/>
<text text-anchor="middle" x="44.75" y="-153.75" font-family="Helvetica,sans-Serif" font-size="10.00">Line::Draw</text>
</a>
</g>
</g>
<!-- Node1&#45;&gt;Node4 -->
<g id="edge3_Node000001_Node000004" class="edge">
<title>Node1&#45;&gt;Node4</title>
<g id="a_edge3_Node000001_Node000004"><a xlink:title=" ">
<path fill="none" stroke="#63b8ff" d="M124.6,-133.93C108.77,-138.69 91.29,-143.94 76.82,-148.29"/>
<polygon fill="#63b8ff" stroke="#63b8ff" points="125.21,-137.4 133.78,-131.17 123.2,-130.7 125.21,-137.4"/>
</a>
</g>
</g>
<!-- Node5 -->
<g id="Node000005" class="node">
<title>Node5</title>
<g id="a_Node000005"><a xlink:href="../../d1/db0/class_polygon.html#ae6ac66f1548f1d4baf2ceea00feea940" target="_top" xlink:title="Draw &#45; Draws a Polygon at the assigned coords with points in the pointsList.">
<polygon fill="white" stroke="#666666" points="85,-130.25 4.5,-130.25 4.5,-111 85,-111 85,-130.25"/>
<text text-anchor="middle" x="44.75" y="-116.75" font-family="Helvetica,sans-Serif" font-size="10.00">Polygon::Draw</text>
</a>
</g>
</g>
<!-- Node1&#45;&gt;Node5 -->
<g id="edge4_Node000001_Node000005" class="edge">
<title>Node1&#45;&gt;Node5</title>
<g id="a_edge4_Node000001_Node000005"><a xlink:title=" ">
<path fill="none" stroke="#63b8ff" d="M113.62,-120.62C104.06,-120.62 94.3,-120.62 85.26,-120.62"/>
<polygon fill="#63b8ff" stroke="#63b8ff" points="113.61,-124.13 123.61,-120.63 113.61,-117.13 113.61,-124.13"/>
</a>
</g>
</g>
<!-- Node6 -->
<g id="Node000006" class="node">
<title>Node6</title>
<g id="a_Node000006"><a xlink:href="../../d1/d42/class_polyline.html#a554e950db881f3d67e05f453c1f22e77" target="_top" xlink:title="Draw &#45; Draws a Polyline at the assigne coords with points in the pointsList.">
<polygon fill="white" stroke="#666666" points="84.62,-93.25 4.88,-93.25 4.88,-74 84.62,-74 84.62,-93.25"/>
<text text-anchor="middle" x="44.75" y="-79.75" font-family="Helvetica,sans-Serif" font-size="10.00">Polyline::Draw</text>
</a>
</g>
</g>
<!-- Node1&#45;&gt;Node6 -->
<g id="edge5_Node000001_Node000006" class="edge">
<title>Node1&#45;&gt;Node6</title>
<g id="a_edge5_Node000001_Node000006"><a xlink:title=" ">
<path fill="none" stroke="#63b8ff" d="M124.24,-107.21C109.43,-102.76 93.19,-97.88 79.35,-93.72"/>
<polygon fill="#63b8ff" stroke="#63b8ff" points="123.2,-110.55 133.78,-110.08 125.21,-103.85 123.2,-110.55"/>
</a>
</g>
</g>
<!-- Node7 -->
<g id="Node000007" class="node">
<title>Node7</title>
<g id="a_Node000007"><a xlink:href="../../d9/dc7/class_rectangle.html#a146fede0215e7c98fbc99b6c302ed743" target="_top" xlink:title="Draw &#45; Draws a Rectangle at the assigned coords.">
<polygon fill="white" stroke="#666666" points="89.5,-56.25 0,-56.25 0,-37 89.5,-37 89.5,-56.25"/>
<text text-anchor="middle" x="44.75" y="-42.75" font-family="Helvetica,sans-Serif" font-size="10.00">Rectangle::Draw</text>
</a>
</g>
</g>
<!-- Node1&#45;&gt;Node7 -->
<g id="edge6_Node000001_Node000007" class="edge">
<title>Node1&#45;&gt;Node7</title>
<g id="a_edge6_Node000001_Node000007"><a xlink:title=" ">
<path fill="none" stroke="#63b8ff" d="M147.76,-103.75C132.24,-91.85 110.31,-76.06 89.5,-64.62 84.32,-61.78 78.59,-59.11 73.03,-56.74"/>
<polygon fill="#63b8ff" stroke="#63b8ff" points="145.29,-106.27 155.33,-109.66 149.6,-100.75 145.29,-106.27"/>
</a>
</g>
</g>
<!-- Node8 -->
<g id="Node000008" class="node">
<title>Node8</title>
<g id="a_Node000008"><a xlink:href="../../d9/d0c/class_square.html#a76509a6807c851fb2fd88713cd856f64" target="_top" xlink:title="Draw &#45; Draws a Square at the assigned coords.">
<polygon fill="white" stroke="#666666" points="82.75,-19.25 6.75,-19.25 6.75,0 82.75,0 82.75,-19.25"/>
<text text-anchor="middle" x="44.75" y="-5.75" font-family="Helvetica,sans-Serif" font-size="10.00">Square::Draw</text>
</a>
</g>
</g>
<!-- Node1&#45;&gt;Node8 -->
<g id="edge7_Node000001_Node000008" class="edge">
<title>Node1&#45;&gt;Node8</title>
<g id="a_edge7_Node000001_Node000008"><a xlink:title=" ">
<path fill="none" stroke="#63b8ff" d="M156.47,-101.24C142.41,-80.58 117.73,-48.09 89.5,-27.62 85.24,-24.54 80.38,-21.87 75.48,-19.61"/>
<polygon fill="#63b8ff" stroke="#63b8ff" points="153.38,-102.91 161.82,-109.32 159.22,-99.05 153.38,-102.91"/>
</a>
</g>
</g>
</g>
</svg>
</svg>

<style type='text/css'>
<![CDATA[
[data-mouse-over-selected='false'] { opacity: 0.7; }
[data-mouse-over-selected='true']  { opacity: 1.0; }
]]>
</style>
<script type="application/ecmascript"><![CDATA[
document.addEventListener('DOMContentLoaded', (event) => {
  highlightEdges();
  highlightAdjacentNodes();
});
]]></script>
</svg>
