<?xml version="1.0" encoding="UTF-8" standalone="no"?>
<!DOCTYPE svg PUBLIC "-//W3C//DTD SVG 1.1//EN"
 "http://www.w3.org/Graphics/SVG/1.1/DTD/svg11.dtd">
<!-- Generated by graphviz version 12.2.1 (20241206.2353)
 -->
<!-- Title: Shape::getSelected Pages: 1 -->
<svg width="235pt" height="286pt"
 viewBox="0.00 0.00 235.00 286.25" xmlns="http://www.w3.org/2000/svg" xmlns:xlink="http://www.w3.org/1999/xlink">
<g id="graph0" class="graph" transform="scale(1 1) rotate(0) translate(4 282.25)">
<title>Shape::getSelected</title>
<!-- Node1 -->
<g id="Node000001" class="node">
<title>Node1</title>
<g id="a_Node000001"><a xlink:title=" ">
<polygon fill="#999999" stroke="#666666" points="227,-148.25 125.5,-148.25 125.5,-129 227,-129 227,-148.25"/>
<text text-anchor="middle" x="176.25" y="-134.75" font-family="Helvetica,sans-Serif" font-size="10.00">Shape::getSelected</text>
</a>
</g>
</g>
<!-- Node2 -->
<g id="Node000002" class="node">
<title>Node2</title>
<g id="a_Node000002"><a xlink:href="../../d0/d88/class_circle.html#ac05f869cde1af46ac56ff2e0318980bb" target="_top" xlink:title="Draw &#45; Draws a circle at the assigned coords with the given radius.">
<polygon fill="white" stroke="#666666" points="80.12,-278.25 9.38,-278.25 9.38,-259 80.12,-259 80.12,-278.25"/>
<text text-anchor="middle" x="44.75" y="-264.75" font-family="Helvetica,sans-Serif" font-size="10.00">Circle::Draw</text>
</a>
</g>
</g>
<!-- Node1&#45;&gt;Node2 -->
<g id="edge1_Node000001_Node000002" class="edge">
<title>Node1&#45;&gt;Node2</title>
<g id="a_edge1_Node000001_Node000002"><a xlink:title=" ">
<path fill="none" stroke="#63b8ff" d="M164.34,-158.74C150.06,-183.4 122.88,-225.05 89.5,-250.62 85.46,-253.72 80.81,-256.38 76.08,-258.62"/>
<polygon fill="#63b8ff" stroke="#63b8ff" points="167.38,-160.48 169.22,-150.04 161.27,-157.05 167.38,-160.48"/>
</a>
</g>
</g>
<!-- Node3 -->
<g id="Node000003" class="node">
<title>Node3</title>
<g id="a_Node000003"><a xlink:href="../../dc/d25/class_ellipse.html#a76eaec1becd0860f48dd5c39bb00dabf" target="_top" xlink:title="Draw &#45; Draws the ellipse to the passed renderArea.">
<polygon fill="white" stroke="#666666" points="82,-241.25 7.5,-241.25 7.5,-222 82,-222 82,-241.25"/>
<text text-anchor="middle" x="44.75" y="-227.75" font-family="Helvetica,sans-Serif" font-size="10.00">Ellipse::Draw</text>
</a>
</g>
</g>
<!-- Node1&#45;&gt;Node3 -->
<g id="edge2_Node000001_Node000003" class="edge">
<title>Node1&#45;&gt;Node3</title>
<g id="a_edge2_Node000001_Node000003"><a xlink:title=" ">
<path fill="none" stroke="#63b8ff" d="M158.44,-156.36C142.07,-172.87 115.85,-197.31 89.5,-213.62 84.75,-216.57 79.44,-219.21 74.2,-221.52"/>
<polygon fill="#63b8ff" stroke="#63b8ff" points="160.54,-159.23 165,-149.62 155.52,-154.35 160.54,-159.23"/>
</a>
</g>
</g>
<!-- Node4 -->
<g id="Node000004" class="node">
<title>Node4</title>
<g id="a_Node000004"><a xlink:href="../../dd/db4/class_line.html#ad68aeb558c52eace258a55e24f45d11e" target="_top" xlink:title="Draw &#45; Draws a line from startPoint to endPoint.">
<polygon fill="white" stroke="#666666" points="76.38,-204.25 13.12,-204.25 13.12,-185 76.38,-185 76.38,-204.25"/>
<text text-anchor="middle" x="44.75" y="-190.75" font-family="Helvetica,sans-Serif" font-size="10.00">Line::Draw</text>
</a>
</g>
</g>
<!-- Node1&#45;&gt;Node4 -->
<g id="edge3_Node000001_Node000004" class="edge">
<title>Node1&#45;&gt;Node4</title>
<g id="a_edge3_Node000001_Node000004"><a xlink:title=" ">
<path fill="none" stroke="#63b8ff" d="M142.69,-153.3C126.71,-160.44 107.14,-169.09 89.5,-176.62 83.31,-179.27 76.59,-182.07 70.33,-184.65"/>
<polygon fill="#63b8ff" stroke="#63b8ff" points="144.04,-156.53 151.73,-149.25 141.17,-150.14 144.04,-156.53"/>
</a>
</g>
</g>
<!-- Node5 -->
<g id="Node000005" class="node">
<title>Node5</title>
<g id="a_Node000005"><a xlink:href="../../d1/db0/class_polygon.html#ae6ac66f1548f1d4baf2ceea00feea940" target="_top" xlink:title="Draw &#45; Draws a Polygon at the assigned coords with points in the pointsList.">
<polygon fill="white" stroke="#666666" points="85,-167.25 4.5,-167.25 4.5,-148 85,-148 85,-167.25"/>
<text text-anchor="middle" x="44.75" y="-153.75" font-family="Helvetica,sans-Serif" font-size="10.00">Polygon::Draw</text>
</a>
</g>
</g>
<!-- Node1&#45;&gt;Node5 -->
<g id="edge4_Node000001_Node000005" class="edge">
<title>Node1&#45;&gt;Node5</title>
<g id="a_edge4_Node000001_Node000005"><a xlink:title=" ">
<path fill="none" stroke="#63b8ff" d="M113.86,-147.63C104.13,-149.06 94.3,-150.5 85.25,-151.83"/>
<polygon fill="#63b8ff" stroke="#63b8ff" points="114.3,-151.11 123.68,-146.19 113.28,-144.18 114.3,-151.11"/>
</a>
</g>
</g>
<!-- Node6 -->
<g id="Node000006" class="node">
<title>Node6</title>
<g id="a_Node000006"><a xlink:href="../../d1/d42/class_polyline.html#a554e950db881f3d67e05f453c1f22e77" target="_top" xlink:title="Draw &#45; Draws a Polyline at the assigne coords with points in the pointsList.">
<polygon fill="white" stroke="#666666" points="84.62,-130.25 4.88,-130.25 4.88,-111 84.62,-111 84.62,-130.25"/>
<text text-anchor="middle" x="44.75" y="-116.75" font-family="Helvetica,sans-Serif" font-size="10.00">Polyline::Draw</text>
</a>
</g>
</g>
<!-- Node1&#45;&gt;Node6 -->
<g id="edge5_Node000001_Node000006" class="edge">
<title>Node1&#45;&gt;Node6</title>
<g id="a_edge5_Node000001_Node000006"><a xlink:title=" ">
<path fill="none" stroke="#63b8ff" d="M114.06,-130.12C104.12,-128.74 94.07,-127.34 84.84,-126.06"/>
<polygon fill="#63b8ff" stroke="#63b8ff" points="113.3,-133.55 123.68,-131.46 114.26,-126.61 113.3,-133.55"/>
</a>
</g>
</g>
<!-- Node7 -->
<g id="Node000007" class="node">
<title>Node7</title>
<g id="a_Node000007"><a xlink:href="../../d9/dc7/class_rectangle.html#a146fede0215e7c98fbc99b6c302ed743" target="_top" xlink:title="Draw &#45; Draws a Rectangle at the assigned coords.">
<polygon fill="white" stroke="#666666" points="89.5,-93.25 0,-93.25 0,-74 89.5,-74 89.5,-93.25"/>
<text text-anchor="middle" x="44.75" y="-79.75" font-family="Helvetica,sans-Serif" font-size="10.00">Rectangle::Draw</text>
</a>
</g>
</g>
<!-- Node1&#45;&gt;Node7 -->
<g id="edge6_Node000001_Node000007" class="edge">
<title>Node1&#45;&gt;Node7</title>
<g id="a_edge6_Node000001_Node000007"><a xlink:title=" ">
<path fill="none" stroke="#63b8ff" d="M141.99,-124.12C126.13,-117.24 106.86,-108.94 89.5,-101.62 83.29,-99.01 76.57,-96.22 70.31,-93.64"/>
<polygon fill="#63b8ff" stroke="#63b8ff" points="140.41,-127.25 150.98,-128.02 143.2,-120.83 140.41,-127.25"/>
</a>
</g>
</g>
<!-- Node8 -->
<g id="Node000008" class="node">
<title>Node8</title>
<g id="a_Node000008"><a xlink:href="../../d9/d0c/class_square.html#a76509a6807c851fb2fd88713cd856f64" target="_top" xlink:title="Draw &#45; Draws a Square at the assigned coords.">
<polygon fill="white" stroke="#666666" points="82.75,-56.25 6.75,-56.25 6.75,-37 82.75,-37 82.75,-56.25"/>
<text text-anchor="middle" x="44.75" y="-42.75" font-family="Helvetica,sans-Serif" font-size="10.00">Square::Draw</text>
</a>
</g>
</g>
<!-- Node1&#45;&gt;Node8 -->
<g id="edge7_Node000001_Node000008" class="edge">
<title>Node1&#45;&gt;Node8</title>
<g id="a_edge7_Node000001_Node000008"><a xlink:title=" ">
<path fill="none" stroke="#63b8ff" d="M158.13,-120.87C141.7,-104.6 115.61,-80.67 89.5,-64.62 84.6,-61.61 79.11,-58.9 73.72,-56.56"/>
<polygon fill="#63b8ff" stroke="#63b8ff" points="155.2,-122.89 164.72,-127.53 160.17,-117.96 155.2,-122.89"/>
</a>
</g>
</g>
<!-- Node9 -->
<g id="Node000009" class="node">
<title>Node9</title>
<g id="a_Node000009"><a xlink:href="../../da/d0e/class_text.html#aac7609b2292703561a26921d23aa2541" target="_top" xlink:title="Draw &#45; Draws the text to the assigned coords.">
<polygon fill="white" stroke="#666666" points="76.75,-19.25 12.75,-19.25 12.75,0 76.75,0 76.75,-19.25"/>
<text text-anchor="middle" x="44.75" y="-5.75" font-family="Helvetica,sans-Serif" font-size="10.00">Text::Draw</text>
</a>
</g>
</g>
<!-- Node1&#45;&gt;Node9 -->
<g id="edge8_Node000001_Node000009" class="edge">
<title>Node1&#45;&gt;Node9</title>
<g id="a_edge8_Node000001_Node000009"><a xlink:title=" ">
<path fill="none" stroke="#63b8ff" d="M164.29,-118.69C149.97,-94.26 122.74,-52.98 89.5,-27.62 85.45,-24.54 80.8,-21.89 76.07,-19.65"/>
<polygon fill="#63b8ff" stroke="#63b8ff" points="161.2,-120.34 169.19,-127.3 167.29,-116.88 161.2,-120.34"/>
</a>
</g>
</g>
</g>
</svg>
