<?xml version="1.0" encoding="UTF-8" standalone="no"?>
<!DOCTYPE svg PUBLIC "-//W3C//DTD SVG 1.1//EN"
 "http://www.w3.org/Graphics/SVG/1.1/DTD/svg11.dtd">
<!-- Generated by graphviz version 12.2.1 (20241206.2353)
 -->
<!-- Title: Shape::getY Pages: 1 -->
<!--zoomable 621 -->

<svg id="main" version="1.1" xmlns="http://www.w3.org/2000/svg" xmlns:xlink="http://www.w3.org/1999/xlink" xml:space="preserve" onload="init(evt)">

<style type="text/css"><![CDATA[
.node, .edge {opacity: 0.7;}
.node.selected, .edge.selected {opacity: 1;}
.edge:hover path { stroke: red; }
.edge:hover polygon { stroke: red; fill: red; }
]]></style>

<defs>
  <circle id="rim" cx="0" cy="0" r="7"/>
  <circle id="rim2" cx="0" cy="0" r="3.5"/>
  <g id="zoomPlus">
    <use xlink:href="#rim" fill="#404040"><set attributeName="fill" to="#808080" begin="zoomplus.mouseover" end="zoomplus.mouseout"/></use>
    <path d="M-4,0h8M0,-4v8" fill="none" stroke="white" stroke-width="1.5" pointer-events="none"/>
  </g>
  <g id="zoomMin">
    <use xlink:href="#rim" fill="#404040"><set attributeName="fill" to="#808080" begin="zoomminus.mouseover" end="zoomminus.mouseout"/></use>
    <path d="M-4,0h8" fill="none" stroke="white" stroke-width="1.5" pointer-events="none"/>
  </g>
  <g id="arrowUp" transform="translate(30 24)">
    <use xlink:href="#rim"/>
    <path pointer-events="none" fill="none" stroke="white" stroke-width="1.5" d="M0,-3.0v7 M-2.5,-0.5L0,-3.0L2.5,-0.5"/>
  </g>
  <g id="arrowRight" transform="rotate(90) translate(36 -43)">
    <use xlink:href="#rim"/>
    <path pointer-events="none" fill="none" stroke="white" stroke-width="1.5" d="M0,-3.0v7 M-2.5,-0.5L0,-3.0L2.5,-0.5"/>
  </g>
  <g id="arrowDown" transform="rotate(180) translate(-30 -48)">
    <use xlink:href="#rim"/>
    <path pointer-events="none" fill="none" stroke="white" stroke-width="1.5" d="M0,-3.0v7 M-2.5,-0.5L0,-3.0L2.5,-0.5"/>
  </g>
  <g id="arrowLeft" transform="rotate(270) translate(-36 17)">
    <use xlink:href="#rim"/>
    <path pointer-events="none" fill="none" stroke="white" stroke-width="1.5" d="M0,-3.0v7 M-2.5,-0.5L0,-3.0L2.5,-0.5"/>
  </g>
  <g id="resetDef">
    <use xlink:href="#rim2" fill="#404040"><set attributeName="fill" to="#808080" begin="reset.mouseover" end="reset.mouseout"/></use>
  </g>
</defs>
<script type="application/ecmascript">
var viewWidth = 391;
var viewHeight = 621;
var sectionId = 'dynsection-37';
</script>
<script type="application/ecmascript" xlink:href="../../svg.min.js"/>
<svg id="graph" class="graph">
<g id="viewport">
<title>Shape::getY</title>
<!-- Node1 -->
<g id="Node000001" class="node">
<title>Node1</title>
<g id="a_Node000001"><a xlink:title=" ">
<polygon fill="#999999" stroke="#666666" points="382.5,-280.25 312.5,-280.25 312.5,-261 382.5,-261 382.5,-280.25"/>
<text text-anchor="middle" x="347.5" y="-266.75" font-family="Helvetica,sans-Serif" font-size="10.00">Shape::getY</text>
</a>
</g>
</g>
<!-- Node2 -->
<g id="Node000002" class="node">
<title>Node2</title>
<g id="a_Node000002"><a xlink:href="../../d7/da7/class_shape.html#ad3725fd4cfb43613897c2d3f3e647842" target="_top" xlink:title="CreateParentItem &#45; Adds data cooresponding to all shapes to parentItem for a QTreeWidget.">
<polygon fill="white" stroke="#666666" points="275.38,-502.25 148.38,-502.25 148.38,-483 275.38,-483 275.38,-502.25"/>
<text text-anchor="middle" x="211.88" y="-488.75" font-family="Helvetica,sans-Serif" font-size="10.00">Shape::CreateParentItem</text>
</a>
</g>
</g>
<!-- Node1&#45;&gt;Node2 -->
<g id="edge1_Node000001_Node000002" class="edge">
<title>Node1&#45;&gt;Node2</title>
<g id="a_edge1_Node000001_Node000002"><a xlink:title=" ">
<path fill="none" stroke="#63b8ff" d="M345.47,-291.67C342.31,-332.88 329.37,-424.58 276.5,-474.62 273.17,-477.78 269.32,-480.39 265.2,-482.55"/>
<polygon fill="#63b8ff" stroke="#63b8ff" points="348.95,-292.1 346.09,-281.9 341.97,-291.66 348.95,-292.1"/>
</a>
</g>
</g>
<!-- Node11 -->
<g id="Node000011" class="node">
<title>Node11</title>
<g id="a_Node000011"><a xlink:href="../../d7/da7/class_shape.html#aa7c347f6f5b1add61d6cad5a01f1c7a4" target="_top" xlink:title="CreatePointsChild &#45; Adds points data to pointsItems vector for a QTreeWidget.">
<polygon fill="white" stroke="#666666" points="276.5,-558.25 147.25,-558.25 147.25,-539 276.5,-539 276.5,-558.25"/>
<text text-anchor="middle" x="211.88" y="-544.75" font-family="Helvetica,sans-Serif" font-size="10.00">Shape::CreatePointsChild</text>
</a>
</g>
</g>
<!-- Node1&#45;&gt;Node11 -->
<g id="edge10_Node000001_Node000011" class="edge">
<title>Node1&#45;&gt;Node11</title>
<g id="a_edge10_Node000001_Node000011"><a xlink:title=" ">
<path fill="none" stroke="#63b8ff" d="M345.51,-292C342.38,-337.19 329.49,-443.82 276.5,-511.62 267.06,-523.71 252.49,-532.59 239.67,-538.62"/>
<polygon fill="#63b8ff" stroke="#63b8ff" points="349,-292.21 346.09,-282.02 342.01,-291.8 349,-292.21"/>
</a>
</g>
</g>
<!-- Node12 -->
<g id="Node000012" class="node">
<title>Node12</title>
<g id="a_Node000012"><a xlink:href="../../d0/d88/class_circle.html#ac05f869cde1af46ac56ff2e0318980bb" target="_top" xlink:title="Draw &#45; Draws a circle at the assigned coords with the given radius.">
<polygon fill="white" stroke="#666666" points="247.25,-465.25 176.5,-465.25 176.5,-446 247.25,-446 247.25,-465.25"/>
<text text-anchor="middle" x="211.88" y="-451.75" font-family="Helvetica,sans-Serif" font-size="10.00">Circle::Draw</text>
</a>
</g>
</g>
<!-- Node1&#45;&gt;Node12 -->
<g id="edge14_Node000001_Node000012" class="edge">
<title>Node1&#45;&gt;Node12</title>
<g id="a_edge14_Node000001_Node000012"><a xlink:title=" ">
<path fill="none" stroke="#63b8ff" d="M343.58,-291.97C337.58,-327.48 320.52,-398.64 276.5,-437.62 268.51,-444.7 257.93,-449.01 247.69,-451.63"/>
<polygon fill="#63b8ff" stroke="#63b8ff" points="347.03,-292.53 345.09,-282.12 340.12,-291.47 347.03,-292.53"/>
</a>
</g>
</g>
<!-- Node13 -->
<g id="Node000013" class="node">
<title>Node13</title>
<g id="a_Node000013"><a xlink:href="../../dc/d25/class_ellipse.html#a76eaec1becd0860f48dd5c39bb00dabf" target="_top" xlink:title="Draw &#45; Draws the ellipse to the passed renderArea.">
<polygon fill="white" stroke="#666666" points="249.12,-428.25 174.62,-428.25 174.62,-409 249.12,-409 249.12,-428.25"/>
<text text-anchor="middle" x="211.88" y="-414.75" font-family="Helvetica,sans-Serif" font-size="10.00">Ellipse::Draw</text>
</a>
</g>
</g>
<!-- Node1&#45;&gt;Node13 -->
<g id="edge15_Node000001_Node000013" class="edge">
<title>Node1&#45;&gt;Node13</title>
<g id="a_edge15_Node000001_Node000013"><a xlink:title=" ">
<path fill="none" stroke="#63b8ff" d="M340.95,-291.28C332.14,-320.08 312.19,-371.99 276.5,-400.62 268.8,-406.8 259.09,-410.86 249.6,-413.53"/>
<polygon fill="#63b8ff" stroke="#63b8ff" points="344.24,-292.52 343.64,-281.94 337.51,-290.58 344.24,-292.52"/>
</a>
</g>
</g>
<!-- Node14 -->
<g id="Node000014" class="node">
<title>Node14</title>
<g id="a_Node000014"><a xlink:href="../../d9/dc7/class_rectangle.html#a146fede0215e7c98fbc99b6c302ed743" target="_top" xlink:title="Draw &#45; Draws a Rectangle at the assigned coords.">
<polygon fill="white" stroke="#666666" points="256.62,-391.25 167.12,-391.25 167.12,-372 256.62,-372 256.62,-391.25"/>
<text text-anchor="middle" x="211.88" y="-377.75" font-family="Helvetica,sans-Serif" font-size="10.00">Rectangle::Draw</text>
</a>
</g>
</g>
<!-- Node1&#45;&gt;Node14 -->
<g id="edge16_Node000001_Node000014" class="edge">
<title>Node1&#45;&gt;Node14</title>
<g id="a_edge16_Node000001_Node000014"><a xlink:title=" ">
<path fill="none" stroke="#63b8ff" d="M336.38,-290.92C324.78,-312.16 303.77,-344.94 276.5,-363.62 270.63,-367.65 263.87,-370.78 257,-373.21"/>
<polygon fill="#63b8ff" stroke="#63b8ff" points="339.47,-292.57 341.01,-282.09 333.27,-289.32 339.47,-292.57"/>
</a>
</g>
</g>
<!-- Node15 -->
<g id="Node000015" class="node">
<title>Node15</title>
<g id="a_Node000015"><a xlink:href="../../d9/d0c/class_square.html#a76509a6807c851fb2fd88713cd856f64" target="_top" xlink:title="Draw &#45; Draws a Square at the assigned coords.">
<polygon fill="white" stroke="#666666" points="249.88,-354.25 173.88,-354.25 173.88,-335 249.88,-335 249.88,-354.25"/>
<text text-anchor="middle" x="211.88" y="-340.75" font-family="Helvetica,sans-Serif" font-size="10.00">Square::Draw</text>
</a>
</g>
</g>
<!-- Node1&#45;&gt;Node15 -->
<g id="edge17_Node000001_Node000015" class="edge">
<title>Node1&#45;&gt;Node15</title>
<g id="a_edge17_Node000001_Node000015"><a xlink:title=" ">
<path fill="none" stroke="#63b8ff" d="M328.73,-288.2C315.37,-300.53 296.06,-316.56 276.5,-326.62 268.33,-330.83 259.06,-334.16 250.16,-336.76"/>
<polygon fill="#63b8ff" stroke="#63b8ff" points="331.04,-290.84 335.87,-281.41 326.21,-285.77 331.04,-290.84"/>
</a>
</g>
</g>
<!-- Node16 -->
<g id="Node000016" class="node">
<title>Node16</title>
<g id="a_Node000016"><a xlink:href="../../da/d0e/class_text.html#aac7609b2292703561a26921d23aa2541" target="_top" xlink:title="Draw &#45; Draws the text to the assigned coords.">
<polygon fill="white" stroke="#666666" points="243.88,-317.25 179.88,-317.25 179.88,-298 243.88,-298 243.88,-317.25"/>
<text text-anchor="middle" x="211.88" y="-303.75" font-family="Helvetica,sans-Serif" font-size="10.00">Text::Draw</text>
</a>
</g>
</g>
<!-- Node1&#45;&gt;Node16 -->
<g id="edge18_Node000001_Node000016" class="edge">
<title>Node1&#45;&gt;Node16</title>
<g id="a_edge18_Node000001_Node000016"><a xlink:title=" ">
<path fill="none" stroke="#63b8ff" d="M301.07,-283.2C282.27,-288.41 260.94,-294.32 243.97,-299.01"/>
<polygon fill="#63b8ff" stroke="#63b8ff" points="301.93,-286.6 310.63,-280.56 300.06,-279.85 301.93,-286.6"/>
</a>
</g>
</g>
<!-- Node17 -->
<g id="Node000017" class="node">
<title>Node17</title>
<g id="a_Node000017"><a xlink:href="../../d0/d88/class_circle.html#aaf2531a14efd9446e7b9c8775eb9874a" target="_top" xlink:title="isPointInside &#45; Returns True if point is inside the circle">
<polygon fill="white" stroke="#666666" points="263.75,-280.25 160,-280.25 160,-261 263.75,-261 263.75,-280.25"/>
<text text-anchor="middle" x="211.88" y="-266.75" font-family="Helvetica,sans-Serif" font-size="10.00">Circle::isPointInside</text>
</a>
</g>
</g>
<!-- Node1&#45;&gt;Node17 -->
<g id="edge19_Node000001_Node000017" class="edge">
<title>Node1&#45;&gt;Node17</title>
<g id="a_edge19_Node000001_Node000017"><a xlink:title=" ">
<path fill="none" stroke="#63b8ff" d="M300.68,-270.62C288.88,-270.62 276.11,-270.62 264.06,-270.62"/>
<polygon fill="#63b8ff" stroke="#63b8ff" points="300.57,-274.13 310.57,-270.63 300.57,-267.13 300.57,-274.13"/>
</a>
</g>
</g>
<!-- Node18 -->
<g id="Node000018" class="node">
<title>Node18</title>
<g id="a_Node000018"><a xlink:href="../../dc/d25/class_ellipse.html#a7bdfa634aa63d5380b31b45fa38921d9" target="_top" xlink:title="isPointInside &#45; Returns True if point is inside the circle">
<polygon fill="white" stroke="#666666" points="265.62,-243.25 158.12,-243.25 158.12,-224 265.62,-224 265.62,-243.25"/>
<text text-anchor="middle" x="211.88" y="-229.75" font-family="Helvetica,sans-Serif" font-size="10.00">Ellipse::isPointInside</text>
</a>
</g>
</g>
<!-- Node1&#45;&gt;Node18 -->
<g id="edge20_Node000001_Node000018" class="edge">
<title>Node1&#45;&gt;Node18</title>
<g id="a_edge20_Node000001_Node000018"><a xlink:title=" ">
<path fill="none" stroke="#63b8ff" d="M301.26,-258.1C284.24,-253.38 265.13,-248.09 249.04,-243.64"/>
<polygon fill="#63b8ff" stroke="#63b8ff" points="300.06,-261.4 310.63,-260.69 301.93,-254.65 300.06,-261.4"/>
</a>
</g>
</g>
<!-- Node19 -->
<g id="Node000019" class="node">
<title>Node19</title>
<g id="a_Node000019"><a xlink:href="../../d9/dc7/class_rectangle.html#a15db47c277092fbef7cb2a4ea0026e32" target="_top" xlink:title="isPointInside &#45; Returns True if point is inside the Rectangle">
<polygon fill="white" stroke="#666666" points="273.12,-206.25 150.62,-206.25 150.62,-187 273.12,-187 273.12,-206.25"/>
<text text-anchor="middle" x="211.88" y="-192.75" font-family="Helvetica,sans-Serif" font-size="10.00">Rectangle::isPointInside</text>
</a>
</g>
</g>
<!-- Node1&#45;&gt;Node19 -->
<g id="edge21_Node000001_Node000019" class="edge">
<title>Node1&#45;&gt;Node19</title>
<g id="a_edge21_Node000001_Node000019"><a xlink:title=" ">
<path fill="none" stroke="#63b8ff" d="M328.73,-253.05C315.37,-240.72 296.06,-224.69 276.5,-214.62 270.48,-211.53 263.85,-208.9 257.22,-206.69"/>
<polygon fill="#63b8ff" stroke="#63b8ff" points="326.21,-255.48 335.87,-259.84 331.04,-250.41 326.21,-255.48"/>
</a>
</g>
</g>
<!-- Node20 -->
<g id="Node000020" class="node">
<title>Node20</title>
<g id="a_Node000020"><a xlink:href="../../d9/d0c/class_square.html#a5ba5f957a402decfcc2a6b425f43b464" target="_top" xlink:title="isPointInside &#45; Returns True if point is inside the Square">
<polygon fill="white" stroke="#666666" points="266.38,-169.25 157.38,-169.25 157.38,-150 266.38,-150 266.38,-169.25"/>
<text text-anchor="middle" x="211.88" y="-155.75" font-family="Helvetica,sans-Serif" font-size="10.00">Square::isPointInside</text>
</a>
</g>
</g>
<!-- Node1&#45;&gt;Node20 -->
<g id="edge22_Node000001_Node000020" class="edge">
<title>Node1&#45;&gt;Node20</title>
<g id="a_edge22_Node000001_Node000020"><a xlink:title=" ">
<path fill="none" stroke="#63b8ff" d="M336.38,-250.33C324.78,-229.09 303.77,-196.31 276.5,-177.62 271.86,-174.45 266.66,-171.82 261.3,-169.66"/>
<polygon fill="#63b8ff" stroke="#63b8ff" points="333.27,-251.93 341.01,-259.16 339.47,-248.68 333.27,-251.93"/>
</a>
</g>
</g>
<!-- Node21 -->
<g id="Node000021" class="node">
<title>Node21</title>
<g id="a_Node000021"><a xlink:href="../../da/d0e/class_text.html#afa809544954f7c4b3d9102692c6db53f" target="_top" xlink:title="isPointInside &#45; Returns True if point is inside the text box">
<polygon fill="white" stroke="#666666" points="260.38,-132.25 163.38,-132.25 163.38,-113 260.38,-113 260.38,-132.25"/>
<text text-anchor="middle" x="211.88" y="-118.75" font-family="Helvetica,sans-Serif" font-size="10.00">Text::isPointInside</text>
</a>
</g>
</g>
<!-- Node1&#45;&gt;Node21 -->
<g id="edge23_Node000001_Node000021" class="edge">
<title>Node1&#45;&gt;Node21</title>
<g id="a_edge23_Node000001_Node000021"><a xlink:title=" ">
<path fill="none" stroke="#63b8ff" d="M340.95,-249.97C332.14,-221.17 312.19,-169.26 276.5,-140.62 271.84,-136.89 266.46,-133.93 260.82,-131.58"/>
<polygon fill="#63b8ff" stroke="#63b8ff" points="337.51,-250.67 343.64,-259.31 344.24,-248.73 337.51,-250.67"/>
</a>
</g>
</g>
<!-- Node22 -->
<g id="Node000022" class="node">
<title>Node22</title>
<g id="a_Node000022"><a xlink:href="../../d8/d08/class_render_area_manager.html#af37e63015f3671115d0da8aff234a805" target="_top" xlink:title="Modifies a property of an existing shape based on a key&#45;value pair.">
<polygon fill="white" stroke="#666666" points="111.25,-61.88 0,-61.88 0,-31.38 111.25,-31.38 111.25,-61.88"/>
<text text-anchor="start" x="8" y="-48.38" font-family="Helvetica,sans-Serif" font-size="10.00">RenderAreaManager::</text>
<text text-anchor="middle" x="55.62" y="-37.12" font-family="Helvetica,sans-Serif" font-size="10.00">modifyShape</text>
</a>
</g>
</g>
<!-- Node1&#45;&gt;Node22 -->
<g id="edge24_Node000001_Node000022" class="edge">
<title>Node1&#45;&gt;Node22</title>
<g id="a_edge24_Node000001_Node000022"><a xlink:title=" ">
<path fill="none" stroke="#63b8ff" d="M343.75,-249.64C337.96,-214.13 321.14,-142.29 276.5,-103.62 263.94,-92.75 172.66,-71.5 111.73,-58.24"/>
<polygon fill="#63b8ff" stroke="#63b8ff" points="340.22,-249.7 345.14,-259.08 347.14,-248.67 340.22,-249.7"/>
</a>
</g>
</g>
<!-- Node23 -->
<g id="Node000023" class="node">
<title>Node23</title>
<g id="a_Node000023"><a xlink:href="../../d1/db0/class_polygon.html#ab1d251a36ab0d229313daa05ef43ebe3" target="_top" xlink:title="Move &#45; Moves the Polygon to the passed x and y coordinates.">
<polygon fill="white" stroke="#666666" points="252.5,-56.25 171.25,-56.25 171.25,-37 252.5,-37 252.5,-56.25"/>
<text text-anchor="middle" x="211.88" y="-42.75" font-family="Helvetica,sans-Serif" font-size="10.00">Polygon::Move</text>
</a>
</g>
</g>
<!-- Node1&#45;&gt;Node23 -->
<g id="edge25_Node000001_Node000023" class="edge">
<title>Node1&#45;&gt;Node23</title>
<g id="a_edge25_Node000001_Node000023"><a xlink:title=" ">
<path fill="none" stroke="#63b8ff" d="M344.89,-249.54C340.71,-209.4 326.12,-121.46 276.5,-70.62 269.98,-63.95 261.43,-59.11 252.72,-55.61"/>
<polygon fill="#63b8ff" stroke="#63b8ff" points="341.38,-249.64 345.77,-259.28 348.35,-249.01 341.38,-249.64"/>
</a>
</g>
</g>
<!-- Node24 -->
<g id="Node000024" class="node">
<title>Node24</title>
<g id="a_Node000024"><a xlink:href="../../d1/d42/class_polyline.html#a98f16a2f50d4ce8ef70444c284e299d7" target="_top" xlink:title="Move &#45; Moves the Polyline to the passed x and y coordinates.">
<polygon fill="white" stroke="#666666" points="252.12,-19.25 171.62,-19.25 171.62,0 252.12,0 252.12,-19.25"/>
<text text-anchor="middle" x="211.88" y="-5.75" font-family="Helvetica,sans-Serif" font-size="10.00">Polyline::Move</text>
</a>
</g>
</g>
<!-- Node1&#45;&gt;Node24 -->
<g id="edge27_Node000001_Node000024" class="edge">
<title>Node1&#45;&gt;Node24</title>
<g id="a_edge27_Node000001_Node000024"><a xlink:title=" ">
<path fill="none" stroke="#63b8ff" d="M346.85,-249.2C346.4,-202.21 338.51,-89.34 276.5,-27.62 269.99,-21.15 261.34,-16.96 252.51,-14.26"/>
<polygon fill="#63b8ff" stroke="#63b8ff" points="343.35,-249.09 346.82,-259.1 350.35,-249.11 343.35,-249.09"/>
</a>
</g>
</g>
<!-- Node3 -->
<g id="Node000003" class="node">
<title>Node3</title>
<g id="a_Node000003"><a xlink:href="../../d0/d88/class_circle.html#a782690f42da545ac8e35d3732ed76f42" target="_top" xlink:title="Circle Constructor.">
<polygon fill="white" stroke="#666666" points="92.12,-428.25 19.12,-428.25 19.12,-409 92.12,-409 92.12,-428.25"/>
<text text-anchor="middle" x="55.62" y="-414.75" font-family="Helvetica,sans-Serif" font-size="10.00">Circle::Circle</text>
</a>
</g>
</g>
<!-- Node2&#45;&gt;Node3 -->
<g id="edge2_Node000002_Node000003" class="edge">
<title>Node2&#45;&gt;Node3</title>
<g id="a_edge2_Node000002_Node000003"><a xlink:title=" ">
<path fill="none" stroke="#63b8ff" d="M153.58,-478.08C151.4,-477 149.28,-475.86 147.25,-474.62 127.34,-462.58 130.89,-449.09 111.25,-436.62 105.52,-432.99 98.98,-430.01 92.46,-427.6"/>
<polygon fill="#63b8ff" stroke="#63b8ff" points="152.16,-481.27 162.73,-481.97 154.9,-474.83 152.16,-481.27"/>
</a>
</g>
</g>
<!-- Node4 -->
<g id="Node000004" class="node">
<title>Node4</title>
<g id="a_Node000004"><a xlink:href="../../dc/d25/class_ellipse.html#a6fd6f0bad023ecfd3d607142c21846c4" target="_top" xlink:title="Ellipse Constructor.">
<polygon fill="white" stroke="#666666" points="95.88,-391.25 15.38,-391.25 15.38,-372 95.88,-372 95.88,-391.25"/>
<text text-anchor="middle" x="55.62" y="-377.75" font-family="Helvetica,sans-Serif" font-size="10.00">Ellipse::Ellipse</text>
</a>
</g>
</g>
<!-- Node2&#45;&gt;Node4 -->
<g id="edge3_Node000002_Node000004" class="edge">
<title>Node2&#45;&gt;Node4</title>
<g id="a_edge3_Node000002_Node000004"><a xlink:title=" ">
<path fill="none" stroke="#63b8ff" d="M150.18,-476.91C149.17,-476.18 148.19,-475.42 147.25,-474.62 118.96,-450.82 139.03,-424.03 111.25,-399.62 106.9,-395.8 101.72,-392.79 96.3,-390.41"/>
<polygon fill="#63b8ff" stroke="#63b8ff" points="148.17,-479.79 158.57,-481.81 151.71,-473.74 148.17,-479.79"/>
</a>
</g>
</g>
<!-- Node5 -->
<g id="Node000005" class="node">
<title>Node5</title>
<g id="a_Node000005"><a xlink:href="../../dd/db4/class_line.html#aab2a9c230d1bbb8a9e07f4c554e00c26" target="_top" xlink:title="Line Constructor.">
<polygon fill="white" stroke="#666666" points="84.62,-613.25 26.62,-613.25 26.62,-594 84.62,-594 84.62,-613.25"/>
<text text-anchor="middle" x="55.62" y="-599.75" font-family="Helvetica,sans-Serif" font-size="10.00">Line::Line</text>
</a>
</g>
</g>
<!-- Node2&#45;&gt;Node5 -->
<g id="edge4_Node000002_Node000005" class="edge">
<title>Node2&#45;&gt;Node5</title>
<g id="a_edge4_Node000002_Node000005"><a xlink:title=" ">
<path fill="none" stroke="#63b8ff" d="M177.77,-507.98C167.28,-513.82 156.12,-521.15 147.25,-529.62 125.87,-550.08 134.64,-567.51 111.25,-585.62 103.67,-591.49 94.09,-595.49 85.08,-598.2"/>
<polygon fill="#63b8ff" stroke="#63b8ff" points="179.36,-511.1 186.59,-503.35 176.11,-504.9 179.36,-511.1"/>
</a>
</g>
</g>
<!-- Node6 -->
<g id="Node000006" class="node">
<title>Node6</title>
<g id="a_Node000006"><a xlink:href="../../d1/db0/class_polygon.html#a7ab0204bb62eddea1fb659e8a6ecd202" target="_top" xlink:title="Polygon Constructor.">
<polygon fill="white" stroke="#666666" points="101.88,-576.25 9.38,-576.25 9.38,-557 101.88,-557 101.88,-576.25"/>
<text text-anchor="middle" x="55.62" y="-562.75" font-family="Helvetica,sans-Serif" font-size="10.00">Polygon::Polygon</text>
</a>
</g>
</g>
<!-- Node2&#45;&gt;Node6 -->
<g id="edge5_Node000002_Node000006" class="edge">
<title>Node2&#45;&gt;Node6</title>
<g id="a_edge5_Node000002_Node000006"><a xlink:title=" ">
<path fill="none" stroke="#63b8ff" d="M184.33,-508.32C159.96,-522.58 125.55,-542.32 111.25,-548.62 104.67,-551.52 97.47,-554.22 90.52,-556.59"/>
<polygon fill="#63b8ff" stroke="#63b8ff" points="185.91,-511.45 192.76,-503.36 182.37,-505.41 185.91,-511.45"/>
</a>
</g>
</g>
<!-- Node7 -->
<g id="Node000007" class="node">
<title>Node7</title>
<g id="a_Node000007"><a xlink:href="../../d1/d42/class_polyline.html#a27e879d516bc07264e2e871211df3a1f" target="_top" xlink:title="Polyline.">
<polygon fill="white" stroke="#666666" points="101.12,-539.25 10.12,-539.25 10.12,-520 101.12,-520 101.12,-539.25"/>
<text text-anchor="middle" x="55.62" y="-525.75" font-family="Helvetica,sans-Serif" font-size="10.00">Polyline::Polyline</text>
</a>
</g>
</g>
<!-- Node2&#45;&gt;Node7 -->
<g id="edge6_Node000002_Node000007" class="edge">
<title>Node2&#45;&gt;Node7</title>
<g id="a_edge6_Node000002_Node000007"><a xlink:title=" ">
<path fill="none" stroke="#63b8ff" d="M157.67,-505.39C138.4,-510.01 116.91,-515.16 98.72,-519.53"/>
<polygon fill="#63b8ff" stroke="#63b8ff" points="158.35,-508.82 167.25,-503.09 156.71,-502.02 158.35,-508.82"/>
</a>
</g>
</g>
<!-- Node8 -->
<g id="Node000008" class="node">
<title>Node8</title>
<g id="a_Node000008"><a xlink:href="../../d9/dc7/class_rectangle.html#af84479273a72d93294cd210732117dd7" target="_top" xlink:title="Rectangle.">
<polygon fill="white" stroke="#666666" points="110.88,-354.25 0.38,-354.25 0.38,-335 110.88,-335 110.88,-354.25"/>
<text text-anchor="middle" x="55.62" y="-340.75" font-family="Helvetica,sans-Serif" font-size="10.00">Rectangle::Rectangle</text>
</a>
</g>
</g>
<!-- Node2&#45;&gt;Node8 -->
<g id="edge7_Node000002_Node000008" class="edge">
<title>Node2&#45;&gt;Node8</title>
<g id="a_edge7_Node000002_Node000008"><a xlink:title=" ">
<path fill="none" stroke="#63b8ff" d="M149.16,-476.36C148.51,-475.8 147.87,-475.22 147.25,-474.62 109.63,-438.31 148.09,-399.73 111.25,-362.62 108.08,-359.44 104.34,-356.81 100.33,-354.65"/>
<polygon fill="#63b8ff" stroke="#63b8ff" points="146.97,-479.11 157.22,-481.77 150.87,-473.29 146.97,-479.11"/>
</a>
</g>
</g>
<!-- Node9 -->
<g id="Node000009" class="node">
<title>Node9</title>
<g id="a_Node000009"><a xlink:href="../../d9/d0c/class_square.html#a4b6e69fc0dda7084eb3db5d3fe92dfb3" target="_top" xlink:title="Square.">
<polygon fill="white" stroke="#666666" points="97.38,-502.25 13.88,-502.25 13.88,-483 97.38,-483 97.38,-502.25"/>
<text text-anchor="middle" x="55.62" y="-488.75" font-family="Helvetica,sans-Serif" font-size="10.00">Square::Square</text>
</a>
</g>
</g>
<!-- Node2&#45;&gt;Node9 -->
<g id="edge8_Node000002_Node000009" class="edge">
<title>Node2&#45;&gt;Node9</title>
<g id="a_edge8_Node000002_Node000009"><a xlink:title=" ">
<path fill="none" stroke="#63b8ff" d="M136.87,-492.62C123.37,-492.62 109.75,-492.62 97.66,-492.62"/>
<polygon fill="#63b8ff" stroke="#63b8ff" points="136.62,-496.13 146.62,-492.63 136.62,-489.13 136.62,-496.13"/>
</a>
</g>
</g>
<!-- Node10 -->
<g id="Node000010" class="node">
<title>Node10</title>
<g id="a_Node000010"><a xlink:href="../../da/d0e/class_text.html#a3c521086182cf14349dc8c120afd9d09" target="_top" xlink:title="Text.">
<polygon fill="white" stroke="#666666" points="85.38,-465.25 25.87,-465.25 25.87,-446 85.38,-446 85.38,-465.25"/>
<text text-anchor="middle" x="55.62" y="-451.75" font-family="Helvetica,sans-Serif" font-size="10.00">Text::Text</text>
</a>
</g>
</g>
<!-- Node2&#45;&gt;Node10 -->
<g id="edge9_Node000002_Node000010" class="edge">
<title>Node2&#45;&gt;Node10</title>
<g id="a_edge9_Node000002_Node000010"><a xlink:title=" ">
<path fill="none" stroke="#63b8ff" d="M157.55,-479.83C133.39,-474.04 105.78,-467.42 85.55,-462.56"/>
<polygon fill="#63b8ff" stroke="#63b8ff" points="156.71,-483.23 167.25,-482.16 158.35,-476.43 156.71,-483.23"/>
</a>
</g>
</g>
<!-- Node11&#45;&gt;Node5 -->
<g id="edge11_Node000011_Node000005" class="edge">
<title>Node11&#45;&gt;Node5</title>
<g id="a_edge11_Node000011_Node000005"><a xlink:title=" ">
<path fill="none" stroke="#63b8ff" d="M174,-562.69C155.27,-569.74 132.11,-578.32 111.25,-585.62 102.77,-588.6 93.5,-591.7 85.04,-594.48"/>
<polygon fill="#63b8ff" stroke="#63b8ff" points="175.22,-565.97 183.34,-559.17 172.74,-559.43 175.22,-565.97"/>
</a>
</g>
</g>
<!-- Node11&#45;&gt;Node6 -->
<g id="edge12_Node000011_Node000006" class="edge">
<title>Node11&#45;&gt;Node6</title>
<g id="a_edge12_Node000011_Node000006"><a xlink:title=" ">
<path fill="none" stroke="#63b8ff" d="M135.41,-557.43C123.97,-558.77 112.47,-560.11 101.94,-561.34"/>
<polygon fill="#63b8ff" stroke="#63b8ff" points="135.77,-560.91 145.3,-556.28 134.96,-553.96 135.77,-560.91"/>
</a>
</g>
</g>
<!-- Node11&#45;&gt;Node7 -->
<g id="edge13_Node000011_Node000007" class="edge">
<title>Node11&#45;&gt;Node7</title>
<g id="a_edge13_Node000011_Node000007"><a xlink:title=" ">
<path fill="none" stroke="#63b8ff" d="M135.65,-539.36C123.96,-537.92 112.21,-536.47 101.48,-535.15"/>
<polygon fill="#63b8ff" stroke="#63b8ff" points="134.94,-542.8 145.3,-540.55 135.8,-535.85 134.94,-542.8"/>
</a>
</g>
</g>
<!-- Node23&#45;&gt;Node22 -->
<g id="edge26_Node000023_Node000022" class="edge">
<title>Node23&#45;&gt;Node22</title>
<g id="a_edge26_Node000023_Node000022"><a xlink:title=" ">
<path fill="none" stroke="#63b8ff" d="M159.37,-46.62C144.04,-46.62 127.19,-46.62 111.64,-46.62"/>
<polygon fill="#63b8ff" stroke="#63b8ff" points="159.24,-50.13 169.24,-46.63 159.24,-43.13 159.24,-50.13"/>
</a>
</g>
</g>
<!-- Node24&#45;&gt;Node22 -->
<g id="edge28_Node000024_Node000022" class="edge">
<title>Node24&#45;&gt;Node22</title>
<g id="a_edge28_Node000024_Node000022"><a xlink:title=" ">
<path fill="none" stroke="#63b8ff" d="M160.16,-21.79C144.61,-25.52 127.44,-29.64 111.62,-33.43"/>
<polygon fill="#63b8ff" stroke="#63b8ff" points="160.77,-25.24 169.68,-19.51 159.14,-18.44 160.77,-25.24"/>
</a>
</g>
</g>
</g>
</svg>

<g id="navigator" transform="translate(0 0)" fill="#404254">
  <rect fill="#f2f5e9" fill-opacity="0.5" stroke="#606060" stroke-width=".5" x="0" y="0" width="60" height="60"/>
  <use id="zoomplus" xlink:href="#zoomPlus" x="17" y="9" onmousedown="handleZoom(evt,'in')"/>
  <use id="zoomminus" xlink:href="#zoomMin" x="42" y="9" onmousedown="handleZoom(evt,'out')"/>
  <use id="reset" xlink:href="#resetDef" x="30" y="36" onmousedown="handleReset()"/>
   <use id="arrowup" xlink:href="#arrowUp" x="0" y="0" onmousedown="handlePan(0,-1)"/>
  <use id="arrowright" xlink:href="#arrowRight" x="0" y="0" onmousedown="handlePan(1,0)"/>
  <use id="arrowdown" xlink:href="#arrowDown" x="0" y="0" onmousedown="handlePan(0,1)"/>
  <use id="arrowleft" xlink:href="#arrowLeft" x="0" y="0" onmousedown="handlePan(-1,0)"/>
</g>
<svg viewBox="0 0 15 15" width="100%" height="30px" preserveAspectRatio="xMaxYMin meet">
 <g id="arrow_out" transform="scale(0.3 0.3)">
  <a xlink:href="class_shape_a2e87ea4122381ffb83474f4b69247ded_icgraph_org.svg" target="_base">
   <rect id="button" ry="5" rx="5" y="6" x="6" height="38" width="38"
        fill="#f2f5e9" fill-opacity="0.5" stroke="#606060" stroke-width="1.0"/>
   <path id="arrow"
     d="M 11.500037,31.436501 C 11.940474,20.09759 22.043105,11.32322 32.158766,21.979434 L 37.068811,17.246167 C 37.068811,17.246167 37.088388,32 37.088388,32 L 22.160133,31.978069 C 22.160133,31.978069 26.997745,27.140456 26.997745,27.140456 C 18.528582,18.264221 13.291696,25.230495 11.500037,31.436501 z"
     style="fill:#404040;"/>
  </a>
 </g>
</svg>

<style type='text/css'>
<![CDATA[
[data-mouse-over-selected='false'] { opacity: 0.7; }
[data-mouse-over-selected='true']  { opacity: 1.0; }
]]>
</style>
<script type="application/ecmascript"><![CDATA[
document.addEventListener('DOMContentLoaded', (event) => {
  highlightEdges();
  highlightAdjacentNodes();
});
]]></script>
</svg>
