<?xml version="1.0" encoding="UTF-8" standalone="no"?>
<!DOCTYPE svg PUBLIC "-//W3C//DTD SVG 1.1//EN"
 "http://www.w3.org/Graphics/SVG/1.1/DTD/svg11.dtd">
<!-- Generated by graphviz version 12.2.1 (20241206.2353)
 -->
<!-- Title: Ellipse::Ellipse Pages: 1 -->
<svg width="412pt" height="175pt"
 viewBox="0.00 0.00 412.25 175.25" xmlns="http://www.w3.org/2000/svg" xmlns:xlink="http://www.w3.org/1999/xlink">
<g id="graph0" class="graph" transform="scale(1 1) rotate(0) translate(4 171.25)">
<title>Ellipse::Ellipse</title>
<!-- Node1 -->
<g id="Node000001" class="node">
<title>Node1</title>
<g id="a_Node000001"><a xlink:title="Ellipse Constructor.">
<polygon fill="#999999" stroke="#666666" points="80.5,-74.25 0,-74.25 0,-55 80.5,-55 80.5,-74.25"/>
<text text-anchor="middle" x="40.25" y="-60.75" font-family="Helvetica,sans-Serif" font-size="10.00">Ellipse::Ellipse</text>
</a>
</g>
</g>
<!-- Node2 -->
<g id="Node000002" class="node">
<title>Node2</title>
<g id="a_Node000002"><a xlink:href="../../d7/da7/class_shape.html#a4a45883fd666ce244e518e808a0bd7ca" target="_top" xlink:title="CreateBrushChild &#45; Adds brush data to brushItems vector for a QTreeWidget.">
<polygon fill="white" stroke="#666666" points="243.5,-130.25 116.5,-130.25 116.5,-111 243.5,-111 243.5,-130.25"/>
<text text-anchor="middle" x="180" y="-116.75" font-family="Helvetica,sans-Serif" font-size="10.00">Shape::CreateBrushChild</text>
</a>
</g>
</g>
<!-- Node1&#45;&gt;Node2 -->
<g id="edge1_Node000001_Node000002" class="edge">
<title>Node1&#45;&gt;Node2</title>
<g id="a_edge1_Node000001_Node000002"><a xlink:title=" ">
<path fill="none" stroke="#63b8ff" d="M58.76,-74.65C73.74,-82.94 96.06,-94.6 116.5,-102.62 120.58,-104.23 124.86,-105.76 129.19,-107.2"/>
<polygon fill="#63b8ff" stroke="#63b8ff" points="127.91,-110.47 138.5,-110.14 130.02,-103.79 127.91,-110.47"/>
</a>
</g>
</g>
<!-- Node3 -->
<g id="Node000003" class="node">
<title>Node3</title>
<g id="a_Node000003"><a xlink:href="../../d7/da7/class_shape.html#ad3725fd4cfb43613897c2d3f3e647842" target="_top" xlink:title="CreateParentItem &#45; Adds data cooresponding to all shapes to parentItem for a QTreeWidget.">
<polygon fill="white" stroke="#666666" points="243.5,-93.25 116.5,-93.25 116.5,-74 243.5,-74 243.5,-93.25"/>
<text text-anchor="middle" x="180" y="-79.75" font-family="Helvetica,sans-Serif" font-size="10.00">Shape::CreateParentItem</text>
</a>
</g>
</g>
<!-- Node1&#45;&gt;Node3 -->
<g id="edge2_Node000001_Node000003" class="edge">
<title>Node1&#45;&gt;Node3</title>
<g id="a_edge2_Node000001_Node000003"><a xlink:title=" ">
<path fill="none" stroke="#63b8ff" d="M80.72,-70.07C88.32,-71.12 96.51,-72.25 104.79,-73.39"/>
<polygon fill="#63b8ff" stroke="#63b8ff" points="104.23,-76.85 114.62,-74.74 105.19,-69.91 104.23,-76.85"/>
</a>
</g>
</g>
<!-- Node8 -->
<g id="Node000008" class="node">
<title>Node8</title>
<g id="a_Node000008"><a xlink:href="../../d7/da7/class_shape.html#a54f827e6bce6b42cdb4b70c443d2c005" target="_top" xlink:title="CreatePenChild &#45; Adds pen data to penItems vector for a QTreeWidget.">
<polygon fill="white" stroke="#666666" points="239.38,-56.25 120.62,-56.25 120.62,-37 239.38,-37 239.38,-56.25"/>
<text text-anchor="middle" x="180" y="-42.75" font-family="Helvetica,sans-Serif" font-size="10.00">Shape::CreatePenChild</text>
</a>
</g>
</g>
<!-- Node1&#45;&gt;Node8 -->
<g id="edge7_Node000001_Node000008" class="edge">
<title>Node1&#45;&gt;Node8</title>
<g id="a_edge7_Node000001_Node000008"><a xlink:title=" ">
<path fill="none" stroke="#63b8ff" d="M80.72,-59.47C89.58,-58.31 99.24,-57.05 108.92,-55.78"/>
<polygon fill="#63b8ff" stroke="#63b8ff" points="109.3,-59.26 118.76,-54.5 108.39,-52.32 109.3,-59.26"/>
</a>
</g>
</g>
<!-- Node9 -->
<g id="Node000009" class="node">
<title>Node9</title>
<g id="a_Node000009"><a xlink:href="../../d7/da7/class_shape.html#a3fffc5f799f419e3e608e03ab1f3e913" target="_top" xlink:title="Shape Constructor.">
<polygon fill="white" stroke="#666666" points="218.75,-19.25 141.25,-19.25 141.25,0 218.75,0 218.75,-19.25"/>
<text text-anchor="middle" x="180" y="-5.75" font-family="Helvetica,sans-Serif" font-size="10.00">Shape::Shape</text>
</a>
</g>
</g>
<!-- Node1&#45;&gt;Node9 -->
<g id="edge8_Node000001_Node000009" class="edge">
<title>Node1&#45;&gt;Node9</title>
<g id="a_edge8_Node000001_Node000009"><a xlink:title=" ">
<path fill="none" stroke="#63b8ff" d="M59.4,-54.57C74.39,-46.54 96.4,-35.39 116.5,-27.62 120.88,-25.93 125.5,-24.31 130.14,-22.79"/>
<polygon fill="#63b8ff" stroke="#63b8ff" points="131.02,-26.18 139.52,-19.87 128.93,-19.5 131.02,-26.18"/>
</a>
</g>
</g>
<!-- Node4 -->
<g id="Node000004" class="node">
<title>Node4</title>
<g id="a_Node000004"><a xlink:href="../../d7/da7/class_shape.html#a4b502262ae5a22122456b9624d5ccb3d" target="_top" xlink:title="Accessor Functions &#45; Returns the data named after them.">
<polygon fill="white" stroke="#666666" points="391.5,-167.25 292.25,-167.25 292.25,-148 391.5,-148 391.5,-167.25"/>
<text text-anchor="middle" x="341.88" y="-153.75" font-family="Helvetica,sans-Serif" font-size="10.00">Shape::getShapeId</text>
</a>
</g>
</g>
<!-- Node3&#45;&gt;Node4 -->
<g id="edge3_Node000003_Node000004" class="edge">
<title>Node3&#45;&gt;Node4</title>
<g id="a_edge3_Node000003_Node000004"><a xlink:title=" ">
<path fill="none" stroke="#63b8ff" d="M226.6,-93.64C232.5,-95.82 238.29,-98.46 243.5,-101.62 263.38,-113.71 259.65,-127.49 279.5,-139.62 281.5,-140.85 283.58,-141.99 285.73,-143.06"/>
<polygon fill="#63b8ff" stroke="#63b8ff" points="284.14,-146.18 294.71,-146.93 286.91,-139.76 284.14,-146.18"/>
</a>
</g>
</g>
<!-- Node5 -->
<g id="Node000005" class="node">
<title>Node5</title>
<g id="a_Node000005"><a xlink:href="../../d7/da7/class_shape.html#aec4675c2b06d40373eefac4b982af242" target="_top" xlink:title=" ">
<polygon fill="white" stroke="#666666" points="394.12,-130.25 289.62,-130.25 289.62,-111 394.12,-111 394.12,-130.25"/>
<text text-anchor="middle" x="341.88" y="-116.75" font-family="Helvetica,sans-Serif" font-size="10.00">Shape::getTrackerId</text>
</a>
</g>
</g>
<!-- Node3&#45;&gt;Node5 -->
<g id="edge4_Node000003_Node000005" class="edge">
<title>Node3&#45;&gt;Node5</title>
<g id="a_edge4_Node000003_Node000005"><a xlink:title=" ">
<path fill="none" stroke="#63b8ff" d="M224.69,-93.74C243.63,-98.12 266.02,-103.3 286.07,-107.94"/>
<polygon fill="#63b8ff" stroke="#63b8ff" points="285.24,-111.34 295.77,-110.19 286.81,-104.52 285.24,-111.34"/>
</a>
</g>
</g>
<!-- Node6 -->
<g id="Node000006" class="node">
<title>Node6</title>
<g id="a_Node000006"><a xlink:href="../../d7/da7/class_shape.html#af604de36aa616c585bb30dedf5e5c68b" target="_top" xlink:title=" ">
<polygon fill="white" stroke="#666666" points="376.88,-93.25 306.88,-93.25 306.88,-74 376.88,-74 376.88,-93.25"/>
<text text-anchor="middle" x="341.88" y="-79.75" font-family="Helvetica,sans-Serif" font-size="10.00">Shape::getX</text>
</a>
</g>
</g>
<!-- Node3&#45;&gt;Node6 -->
<g id="edge5_Node000003_Node000006" class="edge">
<title>Node3&#45;&gt;Node6</title>
<g id="a_edge5_Node000003_Node000006"><a xlink:title=" ">
<path fill="none" stroke="#63b8ff" d="M243.73,-83.62C260.9,-83.62 279.19,-83.62 295.22,-83.62"/>
<polygon fill="#63b8ff" stroke="#63b8ff" points="294.92,-87.13 304.92,-83.63 294.92,-80.13 294.92,-87.13"/>
</a>
</g>
</g>
<!-- Node7 -->
<g id="Node000007" class="node">
<title>Node7</title>
<g id="a_Node000007"><a xlink:href="../../d7/da7/class_shape.html#a2e87ea4122381ffb83474f4b69247ded" target="_top" xlink:title=" ">
<polygon fill="white" stroke="#666666" points="376.88,-56.25 306.88,-56.25 306.88,-37 376.88,-37 376.88,-56.25"/>
<text text-anchor="middle" x="341.88" y="-42.75" font-family="Helvetica,sans-Serif" font-size="10.00">Shape::getY</text>
</a>
</g>
</g>
<!-- Node3&#45;&gt;Node7 -->
<g id="edge6_Node000003_Node000007" class="edge">
<title>Node3&#45;&gt;Node7</title>
<g id="a_edge6_Node000003_Node000007"><a xlink:title=" ">
<path fill="none" stroke="#63b8ff" d="M224.69,-73.51C246.65,-68.43 273.25,-62.28 295.45,-57.14"/>
<polygon fill="#63b8ff" stroke="#63b8ff" points="296.19,-60.56 305.14,-54.9 294.61,-53.74 296.19,-60.56"/>
</a>
</g>
</g>
<!-- Node10 -->
<g id="Node000010" class="node">
<title>Node10</title>
<g id="a_Node000010"><a xlink:href="../../d7/da7/class_shape.html#a520308cc2273f60cb19bf5664570bcf8" target="_top" xlink:title=" ">
<polygon fill="white" stroke="#666666" points="404.25,-19.25 279.5,-19.25 279.5,0 404.25,0 404.25,-19.25"/>
<text text-anchor="middle" x="341.88" y="-5.75" font-family="Helvetica,sans-Serif" font-size="10.00">Shape::allocateTrackerId</text>
</a>
</g>
</g>
<!-- Node9&#45;&gt;Node10 -->
<g id="edge9_Node000009_Node000010" class="edge">
<title>Node9&#45;&gt;Node10</title>
<g id="a_edge9_Node000009_Node000010"><a xlink:title=" ">
<path fill="none" stroke="#63b8ff" d="M218.89,-9.62C233.66,-9.62 251.11,-9.62 268.12,-9.62"/>
<polygon fill="#63b8ff" stroke="#63b8ff" points="267.69,-13.13 277.69,-9.63 267.69,-6.13 267.69,-13.13"/>
</a>
</g>
</g>
</g>
</svg>
