<?xml version="1.0" encoding="UTF-8" standalone="no"?>
<!DOCTYPE svg PUBLIC "-//W3C//DTD SVG 1.1//EN"
 "http://www.w3.org/Graphics/SVG/1.1/DTD/svg11.dtd">
<!-- Generated by graphviz version 12.2.1 (20241206.2353)
 -->
<!-- Title: Polyline::Move Pages: 1 -->
<svg width="307pt" height="138pt"
 viewBox="0.00 0.00 307.25 138.25" xmlns="http://www.w3.org/2000/svg" xmlns:xlink="http://www.w3.org/1999/xlink">
<g id="graph0" class="graph" transform="scale(1 1) rotate(0) translate(4 134.25)">
<title>Polyline::Move</title>
<!-- Node1 -->
<g id="Node000001" class="node">
<title>Node1</title>
<g id="a_Node000001"><a xlink:title="Move &#45; Moves the Polyline to the passed x and y coordinates.">
<polygon fill="#999999" stroke="#666666" points="80.5,-74.25 0,-74.25 0,-55 80.5,-55 80.5,-74.25"/>
<text text-anchor="middle" x="40.25" y="-60.75" font-family="Helvetica,sans-Serif" font-size="10.00">Polyline::Move</text>
</a>
</g>
</g>
<!-- Node2 -->
<g id="Node000002" class="node">
<title>Node2</title>
<g id="a_Node000002"><a xlink:href="../../d7/da7/class_shape.html#af604de36aa616c585bb30dedf5e5c68b" target="_top" xlink:title=" ">
<polygon fill="white" stroke="#666666" points="189.88,-130.25 119.88,-130.25 119.88,-111 189.88,-111 189.88,-130.25"/>
<text text-anchor="middle" x="154.88" y="-116.75" font-family="Helvetica,sans-Serif" font-size="10.00">Shape::getX</text>
</a>
</g>
</g>
<!-- Node1&#45;&gt;Node2 -->
<g id="edge1_Node000001_Node000002" class="edge">
<title>Node1&#45;&gt;Node2</title>
<g id="a_edge1_Node000001_Node000002"><a xlink:title=" ">
<path fill="none" stroke="#63b8ff" d="M61,-74.73C76.15,-82.44 97.6,-93.3 116.5,-102.62 118.49,-103.6 120.53,-104.61 122.6,-105.62"/>
<polygon fill="#63b8ff" stroke="#63b8ff" points="121,-108.73 131.53,-109.94 124.05,-102.43 121,-108.73"/>
</a>
</g>
</g>
<!-- Node3 -->
<g id="Node000003" class="node">
<title>Node3</title>
<g id="a_Node000003"><a xlink:href="../../d7/da7/class_shape.html#a2e87ea4122381ffb83474f4b69247ded" target="_top" xlink:title=" ">
<polygon fill="white" stroke="#666666" points="189.88,-93.25 119.88,-93.25 119.88,-74 189.88,-74 189.88,-93.25"/>
<text text-anchor="middle" x="154.88" y="-79.75" font-family="Helvetica,sans-Serif" font-size="10.00">Shape::getY</text>
</a>
</g>
</g>
<!-- Node1&#45;&gt;Node3 -->
<g id="edge2_Node000001_Node000003" class="edge">
<title>Node1&#45;&gt;Node3</title>
<g id="a_edge2_Node000001_Node000003"><a xlink:title=" ">
<path fill="none" stroke="#63b8ff" d="M80.96,-71.32C89.77,-72.81 99.19,-74.4 108.22,-75.92"/>
<polygon fill="#63b8ff" stroke="#63b8ff" points="107.45,-79.34 117.89,-77.55 108.62,-72.44 107.45,-79.34"/>
</a>
</g>
</g>
<!-- Node4 -->
<g id="Node000004" class="node">
<title>Node4</title>
<g id="a_Node000004"><a xlink:href="../../d1/d42/class_polyline.html#aa681c72b6c1193af016b4fe521eb2e86" target="_top" xlink:title=" ">
<polygon fill="white" stroke="#666666" points="193.25,-56.25 116.5,-56.25 116.5,-37 193.25,-37 193.25,-56.25"/>
<text text-anchor="middle" x="154.88" y="-42.75" font-family="Helvetica,sans-Serif" font-size="10.00">Polyline::setX</text>
</a>
</g>
</g>
<!-- Node1&#45;&gt;Node4 -->
<g id="edge3_Node000001_Node000004" class="edge">
<title>Node1&#45;&gt;Node4</title>
<g id="a_edge3_Node000001_Node000004"><a xlink:title=" ">
<path fill="none" stroke="#63b8ff" d="M80.96,-58.28C88.71,-57.04 96.91,-55.73 104.92,-54.45"/>
<polygon fill="#63b8ff" stroke="#63b8ff" points="105.22,-57.95 114.54,-52.91 104.12,-51.03 105.22,-57.95"/>
</a>
</g>
</g>
<!-- Node6 -->
<g id="Node000006" class="node">
<title>Node6</title>
<g id="a_Node000006"><a xlink:href="../../d1/d42/class_polyline.html#ae29af65ed91787a955b03a7ebc983a76" target="_top" xlink:title=" ">
<polygon fill="white" stroke="#666666" points="193.25,-19.25 116.5,-19.25 116.5,0 193.25,0 193.25,-19.25"/>
<text text-anchor="middle" x="154.88" y="-5.75" font-family="Helvetica,sans-Serif" font-size="10.00">Polyline::setY</text>
</a>
</g>
</g>
<!-- Node1&#45;&gt;Node6 -->
<g id="edge5_Node000001_Node000006" class="edge">
<title>Node1&#45;&gt;Node6</title>
<g id="a_edge5_Node000001_Node000006"><a xlink:title=" ">
<path fill="none" stroke="#63b8ff" d="M61.67,-54.53C76.79,-47.07 97.91,-36.67 116.5,-27.62 118.49,-26.66 120.54,-25.66 122.61,-24.66"/>
<polygon fill="#63b8ff" stroke="#63b8ff" points="124.06,-27.85 131.54,-20.34 121.02,-21.54 124.06,-27.85"/>
</a>
</g>
</g>
<!-- Node5 -->
<g id="Node000005" class="node">
<title>Node5</title>
<g id="a_Node000005"><a xlink:href="../../d7/da7/class_shape.html#a2d8fd6861bf7906e0152a699ce6054c8" target="_top" xlink:title=" ">
<polygon fill="white" stroke="#666666" points="299.25,-56.25 229.25,-56.25 229.25,-37 299.25,-37 299.25,-56.25"/>
<text text-anchor="middle" x="264.25" y="-42.75" font-family="Helvetica,sans-Serif" font-size="10.00">Shape::setX</text>
</a>
</g>
</g>
<!-- Node4&#45;&gt;Node5 -->
<g id="edge4_Node000004_Node000005" class="edge">
<title>Node4&#45;&gt;Node5</title>
<g id="a_edge4_Node000004_Node000005"><a xlink:title=" ">
<path fill="none" stroke="#63b8ff" d="M193.73,-46.62C201.44,-46.62 209.62,-46.62 217.57,-46.62"/>
<polygon fill="#63b8ff" stroke="#63b8ff" points="217.45,-50.13 227.45,-46.63 217.45,-43.13 217.45,-50.13"/>
</a>
</g>
</g>
<!-- Node7 -->
<g id="Node000007" class="node">
<title>Node7</title>
<g id="a_Node000007"><a xlink:href="../../d7/da7/class_shape.html#aa2b8845b186bf95781ca5d5e22316343" target="_top" xlink:title=" ">
<polygon fill="white" stroke="#666666" points="299.25,-19.25 229.25,-19.25 229.25,0 299.25,0 299.25,-19.25"/>
<text text-anchor="middle" x="264.25" y="-5.75" font-family="Helvetica,sans-Serif" font-size="10.00">Shape::setY</text>
</a>
</g>
</g>
<!-- Node6&#45;&gt;Node7 -->
<g id="edge6_Node000006_Node000007" class="edge">
<title>Node6&#45;&gt;Node7</title>
<g id="a_edge6_Node000006_Node000007"><a xlink:title=" ">
<path fill="none" stroke="#63b8ff" d="M193.73,-9.62C201.44,-9.62 209.62,-9.62 217.57,-9.62"/>
<polygon fill="#63b8ff" stroke="#63b8ff" points="217.45,-13.13 227.45,-9.63 217.45,-6.13 217.45,-13.13"/>
</a>
</g>
</g>
</g>
</svg>
