<?xml version="1.0" encoding="UTF-8" standalone="no"?>
<!DOCTYPE svg PUBLIC "-//W3C//DTD SVG 1.1//EN"
 "http://www.w3.org/Graphics/SVG/1.1/DTD/svg11.dtd">
<!-- Generated by graphviz version 12.2.1 (20241206.2353)
 -->
<!-- Title: /Users/gautam/Local/Forge/Team&#45;Alphawolves/2D&#45;Graphics&#45;Modeler/src/frontend/loginwindow.cpp Pages: 1 -->
<svg width="686pt" height="172pt"
 viewBox="0.00 0.00 686.00 171.50" xmlns="http://www.w3.org/2000/svg" xmlns:xlink="http://www.w3.org/1999/xlink">
<g id="graph0" class="graph" transform="scale(1 1) rotate(0) translate(4 167.5)">
<title>/Users/gautam/Local/Forge/Team&#45;Alphawolves/2D&#45;Graphics&#45;Modeler/src/frontend/loginwindow.cpp</title>
<!-- Node1 -->
<g id="Node000001" class="node">
<title>Node1</title>
<g id="a_Node000001"><a xlink:title=" ">
<polygon fill="#999999" stroke="#666666" points="404.25,-163.5 275,-163.5 275,-110.5 404.25,-110.5 404.25,-163.5"/>
<text text-anchor="start" x="283" y="-150" font-family="Helvetica,sans-Serif" font-size="10.00">/Users/gautam/Local</text>
<text text-anchor="start" x="283" y="-138.75" font-family="Helvetica,sans-Serif" font-size="10.00">/Forge/Team&#45;Alphawolves</text>
<text text-anchor="start" x="283" y="-127.5" font-family="Helvetica,sans-Serif" font-size="10.00">/2D&#45;Graphics&#45;Modeler/src</text>
<text text-anchor="middle" x="339.62" y="-116.25" font-family="Helvetica,sans-Serif" font-size="10.00">/frontend/loginwindow.cpp</text>
</a>
</g>
</g>
<!-- Node2 -->
<g id="Node000002" class="node">
<title>Node2</title>
<g id="a_Node000002"><a xlink:href="../../d0/d47/loginwindow_8h.html" target="_top" xlink:title=" ">
<polygon fill="white" stroke="#666666" points="377.62,-74.5 301.62,-74.5 301.62,-55.25 377.62,-55.25 377.62,-74.5"/>
<text text-anchor="middle" x="339.62" y="-61" font-family="Helvetica,sans-Serif" font-size="10.00">loginwindow.h</text>
</a>
</g>
</g>
<!-- Node1&#45;&gt;Node2 -->
<g id="edge1_Node000001_Node000002" class="edge">
<title>Node1&#45;&gt;Node2</title>
<g id="a_edge1_Node000001_Node000002"><a xlink:title=" ">
<path fill="none" stroke="#63b8ff" d="M339.62,-110.29C339.62,-102.37 339.62,-93.77 339.62,-86.27"/>
<polygon fill="#63b8ff" stroke="#63b8ff" points="343.13,-86.5 339.63,-76.5 336.13,-86.5 343.13,-86.5"/>
</a>
</g>
</g>
<!-- Node3 -->
<g id="Node000003" class="node">
<title>Node3</title>
<g id="a_Node000003"><a xlink:title=" ">
<polygon fill="#e0e0e0" stroke="#999999" points="51.25,-19.25 0,-19.25 0,0 51.25,0 51.25,-19.25"/>
<text text-anchor="middle" x="25.62" y="-5.75" font-family="Helvetica,sans-Serif" font-size="10.00">QDialog</text>
</a>
</g>
</g>
<!-- Node2&#45;&gt;Node3 -->
<g id="edge2_Node000002_Node000003" class="edge">
<title>Node2&#45;&gt;Node3</title>
<g id="a_edge2_Node000002_Node000003"><a xlink:title=" ">
<path fill="none" stroke="#63b8ff" d="M301.54,-58.8C249.76,-51.69 154.05,-37.75 62.68,-19.52"/>
<polygon fill="#63b8ff" stroke="#63b8ff" points="63.54,-16.12 53.05,-17.57 62.16,-22.98 63.54,-16.12"/>
</a>
</g>
</g>
<!-- Node4 -->
<g id="Node000004" class="node">
<title>Node4</title>
<g id="a_Node000004"><a xlink:title=" ">
<polygon fill="#e0e0e0" stroke="#999999" points="159.75,-19.25 69.5,-19.25 69.5,0 159.75,0 159.75,-19.25"/>
<text text-anchor="middle" x="114.62" y="-5.75" font-family="Helvetica,sans-Serif" font-size="10.00">QStackedWidget</text>
</a>
</g>
</g>
<!-- Node2&#45;&gt;Node4 -->
<g id="edge3_Node000002_Node000004" class="edge">
<title>Node2&#45;&gt;Node4</title>
<g id="a_edge3_Node000002_Node000004"><a xlink:title=" ">
<path fill="none" stroke="#63b8ff" d="M301.2,-54.78C263.34,-45.82 205.33,-32.09 164.06,-22.32"/>
<polygon fill="#63b8ff" stroke="#63b8ff" points="164.9,-18.93 154.36,-20.03 163.29,-25.74 164.9,-18.93"/>
</a>
</g>
</g>
<!-- Node5 -->
<g id="Node000005" class="node">
<title>Node5</title>
<g id="a_Node000005"><a xlink:title=" ">
<polygon fill="#e0e0e0" stroke="#999999" points="237,-19.25 178.25,-19.25 178.25,0 237,0 237,-19.25"/>
<text text-anchor="middle" x="207.62" y="-5.75" font-family="Helvetica,sans-Serif" font-size="10.00">QLineEdit</text>
</a>
</g>
</g>
<!-- Node2&#45;&gt;Node5 -->
<g id="edge4_Node000002_Node000005" class="edge">
<title>Node2&#45;&gt;Node5</title>
<g id="a_edge4_Node000002_Node000005"><a xlink:title=" ">
<path fill="none" stroke="#63b8ff" d="M317.23,-54.84C296.18,-46.35 264.42,-33.54 240.5,-23.89"/>
<polygon fill="#63b8ff" stroke="#63b8ff" points="242.11,-20.76 231.53,-20.27 239.49,-27.26 242.11,-20.76"/>
</a>
</g>
</g>
<!-- Node6 -->
<g id="Node000006" class="node">
<title>Node6</title>
<g id="a_Node000006"><a xlink:title=" ">
<polygon fill="#e0e0e0" stroke="#999999" points="329.88,-19.25 255.38,-19.25 255.38,0 329.88,0 329.88,-19.25"/>
<text text-anchor="middle" x="292.62" y="-5.75" font-family="Helvetica,sans-Serif" font-size="10.00">QPushButton</text>
</a>
</g>
</g>
<!-- Node2&#45;&gt;Node6 -->
<g id="edge5_Node000002_Node000006" class="edge">
<title>Node2&#45;&gt;Node6</title>
<g id="a_edge5_Node000002_Node000006"><a xlink:title=" ">
<path fill="none" stroke="#63b8ff" d="M331.86,-55.08C325.44,-47.8 316.11,-37.23 308.16,-28.23"/>
<polygon fill="#63b8ff" stroke="#63b8ff" points="310.8,-25.93 301.56,-20.74 305.55,-30.56 310.8,-25.93"/>
</a>
</g>
</g>
<!-- Node7 -->
<g id="Node000007" class="node">
<title>Node7</title>
<g id="a_Node000007"><a xlink:title=" ">
<polygon fill="#e0e0e0" stroke="#999999" points="425,-19.25 348.25,-19.25 348.25,0 425,0 425,-19.25"/>
<text text-anchor="middle" x="386.62" y="-5.75" font-family="Helvetica,sans-Serif" font-size="10.00">QVBoxLayout</text>
</a>
</g>
</g>
<!-- Node2&#45;&gt;Node7 -->
<g id="edge6_Node000002_Node000007" class="edge">
<title>Node2&#45;&gt;Node7</title>
<g id="a_edge6_Node000002_Node000007"><a xlink:title=" ">
<path fill="none" stroke="#63b8ff" d="M347.39,-55.08C353.81,-47.8 363.14,-37.23 371.09,-28.23"/>
<polygon fill="#63b8ff" stroke="#63b8ff" points="373.7,-30.56 377.69,-20.74 368.45,-25.93 373.7,-30.56"/>
</a>
</g>
</g>
<!-- Node8 -->
<g id="Node000008" class="node">
<title>Node8</title>
<g id="a_Node000008"><a xlink:title=" ">
<polygon fill="#e0e0e0" stroke="#999999" points="518.25,-19.25 443,-19.25 443,0 518.25,0 518.25,-19.25"/>
<text text-anchor="middle" x="480.62" y="-5.75" font-family="Helvetica,sans-Serif" font-size="10.00">QFormLayout</text>
</a>
</g>
</g>
<!-- Node2&#45;&gt;Node8 -->
<g id="edge7_Node000002_Node000008" class="edge">
<title>Node2&#45;&gt;Node8</title>
<g id="a_edge7_Node000002_Node000008"><a xlink:title=" ">
<path fill="none" stroke="#63b8ff" d="M363.54,-54.84C386.13,-46.31 420.26,-33.42 445.85,-23.76"/>
<polygon fill="#63b8ff" stroke="#63b8ff" points="447.05,-27.04 455.17,-20.24 444.58,-20.5 447.05,-27.04"/>
</a>
</g>
</g>
<!-- Node9 -->
<g id="Node000009" class="node">
<title>Node9</title>
<g id="a_Node000009"><a xlink:title=" ">
<polygon fill="#e0e0e0" stroke="#999999" points="613.38,-19.25 535.88,-19.25 535.88,0 613.38,0 613.38,-19.25"/>
<text text-anchor="middle" x="574.62" y="-5.75" font-family="Helvetica,sans-Serif" font-size="10.00">QHBoxLayout</text>
</a>
</g>
</g>
<!-- Node2&#45;&gt;Node9 -->
<g id="edge8_Node000002_Node000009" class="edge">
<title>Node2&#45;&gt;Node9</title>
<g id="a_edge8_Node000002_Node000009"><a xlink:title=" ">
<path fill="none" stroke="#63b8ff" d="M377.9,-55.2C417.87,-46.15 480.71,-31.91 524.58,-21.96"/>
<polygon fill="#63b8ff" stroke="#63b8ff" points="525.12,-25.43 534.1,-19.81 523.58,-18.6 525.12,-25.43"/>
</a>
</g>
</g>
<!-- Node10 -->
<g id="Node000010" class="node">
<title>Node10</title>
<g id="a_Node000010"><a xlink:title=" ">
<polygon fill="#e0e0e0" stroke="#999999" points="678,-19.25 631.25,-19.25 631.25,0 678,0 678,-19.25"/>
<text text-anchor="middle" x="654.62" y="-5.75" font-family="Helvetica,sans-Serif" font-size="10.00">QLabel</text>
</a>
</g>
</g>
<!-- Node2&#45;&gt;Node10 -->
<g id="edge9_Node000002_Node000010" class="edge">
<title>Node2&#45;&gt;Node10</title>
<g id="a_edge9_Node000002_Node000010"><a xlink:title=" ">
<path fill="none" stroke="#63b8ff" d="M377.86,-59.17C430.33,-52.42 527.79,-38.86 619.74,-19.68"/>
<polygon fill="#63b8ff" stroke="#63b8ff" points="620.39,-23.12 629.45,-17.63 618.94,-16.27 620.39,-23.12"/>
</a>
</g>
</g>
</g>
</svg>
