<?xml version="1.0" encoding="UTF-8" standalone="no"?>
<!DOCTYPE svg PUBLIC "-//W3C//DTD SVG 1.1//EN"
 "http://www.w3.org/Graphics/SVG/1.1/DTD/svg11.dtd">
<!-- Generated by graphviz version 12.2.1 (20241206.2353)
 -->
<!-- Title: TestimonialsDisplayDialog Pages: 1 -->
<svg width="163pt" height="181pt"
 viewBox="0.00 0.00 162.50 181.25" xmlns="http://www.w3.org/2000/svg" xmlns:xlink="http://www.w3.org/1999/xlink">

<svg id="main" version="1.1" xmlns="http://www.w3.org/2000/svg" xmlns:xlink="http://www.w3.org/1999/xlink" xml:space="preserve">

<style type="text/css"><![CDATA[
.node, .edge {opacity: 0.7;}
.node.selected, .edge.selected {opacity: 1;}
.edge:hover path { stroke: red; }
.edge:hover polygon { stroke: red; fill: red; }
]]></style>
<script type="application/ecmascript" xlink:href="../../svg.min.js"/>
<svg id="graph" class="graph">
<g id="graph0" class="graph" transform="scale(1 1) rotate(0) translate(4 177.25)">
<title>TestimonialsDisplayDialog</title>
<!-- Node1 -->
<g id="Node000001" class="node">
<title>Node1</title>
<g id="a_Node000001"><a xlink:title="The TestimonialsDisplayDialog class provides a UI to display customer testimonials.">
<polygon fill="#999999" stroke="none" points="154.5,-87.5 0,-87.5 0,0 154.5,0 154.5,-87.5"/>
<text text-anchor="start" x="19.5" y="-74" font-family="Helvetica,sans-Serif" font-size="10.00">TestimonialsDisplayDialog</text>
<text text-anchor="start" x="5.5" y="-58.75" font-family="Helvetica,sans-Serif" font-size="10.00">&#45;</text>
<text text-anchor="start" x="14" y="-58.75" font-family="Helvetica,sans-Serif" font-size="10.00">QVBoxLayout * m_testimonials</text>
<text text-anchor="start" x="14" y="-47.5" font-family="Helvetica,sans-Serif" font-size="10.00">Layout</text>
<text text-anchor="start" x="4" y="-32.25" font-family="Helvetica,sans-Serif" font-size="10.00">+</text>
<text text-anchor="start" x="14" y="-32.25" font-family="Helvetica,sans-Serif" font-size="10.00">TestimonialsDisplayDialog</text>
<text text-anchor="start" x="14" y="-21" font-family="Helvetica,sans-Serif" font-size="10.00">(QWidget *parent=nullptr)</text>
<text text-anchor="start" x="5.5" y="-5.75" font-family="Helvetica,sans-Serif" font-size="10.00">&#45;</text>
<text text-anchor="start" x="14" y="-5.75" font-family="Helvetica,sans-Serif" font-size="10.00">void refreshTestimonials()</text>
<polygon fill="#666666" stroke="#666666" points="0,-70.25 0,-70.25 154.5,-70.25 154.5,-70.25 0,-70.25"/>
<polygon fill="#666666" stroke="#666666" points="0,-43.75 0,-43.75 12,-43.75 12,-43.75 0,-43.75"/>
<polygon fill="#666666" stroke="#666666" points="12,-43.75 12,-43.75 154.5,-43.75 154.5,-43.75 12,-43.75"/>
<polygon fill="none" stroke="#666666" points="0,0 0,-87.5 154.5,-87.5 154.5,0 0,0"/>
</a>
</g>
</g>
<!-- Node2 -->
<g id="Node000002" class="node">
<title>Node2</title>
<g id="a_Node000002"><a xlink:title=" ">
<polygon fill="white" stroke="none" points="98.88,-173.25 55.62,-173.25 55.62,-123.5 98.88,-123.5 98.88,-173.25"/>
<text text-anchor="start" x="59.62" y="-159.75" font-family="Helvetica,sans-Serif" font-size="10.00">QDialog</text>
<text text-anchor="start" x="75.75" y="-144.5" font-family="Helvetica,sans-Serif" font-size="10.00"> </text>
<text text-anchor="start" x="75.75" y="-129.25" font-family="Helvetica,sans-Serif" font-size="10.00"> </text>
<polygon fill="#666666" stroke="#666666" points="55.62,-156 55.62,-156 98.88,-156 98.88,-156 55.62,-156"/>
<polygon fill="#666666" stroke="#666666" points="55.62,-140.75 55.62,-140.75 98.88,-140.75 98.88,-140.75 55.62,-140.75"/>
<polygon fill="none" stroke="#666666" points="55.62,-123.5 55.62,-173.25 98.88,-173.25 98.88,-123.5 55.62,-123.5"/>
</a>
</g>
</g>
<!-- Node2&#45;&gt;Node1 -->
<g id="edge1_Node000001_Node000002" class="edge">
<title>Node2&#45;&gt;Node1</title>
<g id="a_edge1_Node000001_Node000002"><a xlink:title=" ">
<path fill="none" stroke="#63b8ff" d="M77.25,-112.33C77.25,-104.29 77.25,-95.66 77.25,-87.34"/>
<polygon fill="none" stroke="#63b8ff" points="73.75,-112.06 77.25,-122.06 80.75,-112.06 73.75,-112.06"/>
</a>
</g>
</g>
</g>
</svg>
</svg>

<style type='text/css'>
<![CDATA[
[data-mouse-over-selected='false'] { opacity: 0.7; }
[data-mouse-over-selected='true']  { opacity: 1.0; }
]]>
</style>
<script type="application/ecmascript"><![CDATA[
document.addEventListener('DOMContentLoaded', (event) => {
  highlightEdges();
  highlightAdjacentNodes();
});
]]></script>
</svg>
