<?xml version="1.0" encoding="UTF-8" standalone="no"?>
<!DOCTYPE svg PUBLIC "-//W3C//DTD SVG 1.1//EN"
 "http://www.w3.org/Graphics/SVG/1.1/DTD/svg11.dtd">
<!-- Generated by graphviz version 12.2.1 (20241206.2353)
 -->
<!-- Title: Circle::Draw Pages: 1 -->
<svg width="216pt" height="286pt"
 viewBox="0.00 0.00 216.25 286.25" xmlns="http://www.w3.org/2000/svg" xmlns:xlink="http://www.w3.org/1999/xlink">

<svg id="main" version="1.1" xmlns="http://www.w3.org/2000/svg" xmlns:xlink="http://www.w3.org/1999/xlink" xml:space="preserve">

<style type="text/css"><![CDATA[
.node, .edge {opacity: 0.7;}
.node.selected, .edge.selected {opacity: 1;}
.edge:hover path { stroke: red; }
.edge:hover polygon { stroke: red; fill: red; }
]]></style>
<script type="application/ecmascript" xlink:href="../../svg.min.js"/>
<svg id="graph" class="graph">
<g id="graph0" class="graph" transform="scale(1 1) rotate(0) translate(4 282.25)">
<title>Circle::Draw</title>
<!-- Node1 -->
<g id="Node000001" class="node">
<title>Node1</title>
<g id="a_Node000001"><a xlink:title="Draw &#45; Draws a circle at the assigned coords with the given radius.">
<polygon fill="#999999" stroke="#666666" points="70.75,-148.25 0,-148.25 0,-129 70.75,-129 70.75,-148.25"/>
<text text-anchor="middle" x="35.38" y="-134.75" font-family="Helvetica,sans-Serif" font-size="10.00">Circle::Draw</text>
</a>
</g>
</g>
<!-- Node2 -->
<g id="Node000002" class="node">
<title>Node2</title>
<g id="a_Node000002"><a xlink:href="../../d7/da7/class_shape.html#acbb9f9354579fdaad31853d714653e0d" target="_top" xlink:title=" ">
<polygon fill="white" stroke="#666666" points="201.88,-278.25 113.12,-278.25 113.12,-259 201.88,-259 201.88,-278.25"/>
<text text-anchor="middle" x="157.5" y="-264.75" font-family="Helvetica,sans-Serif" font-size="10.00">Shape::getBrush</text>
</a>
</g>
</g>
<!-- Node1&#45;&gt;Node2 -->
<g id="edge1_Node000001_Node000002" class="edge">
<title>Node1&#45;&gt;Node2</title>
<g id="a_edge1_Node000001_Node000002"><a xlink:title=" ">
<path fill="none" stroke="#63b8ff" d="M40,-148.54C48.38,-170.18 71.17,-221.94 106.75,-250.62 107.72,-251.4 108.72,-252.15 109.75,-252.86"/>
<polygon fill="#63b8ff" stroke="#63b8ff" points="107.93,-255.86 118.35,-257.76 111.39,-249.77 107.93,-255.86"/>
</a>
</g>
</g>
<!-- Node3 -->
<g id="Node000003" class="node">
<title>Node3</title>
<g id="a_Node000003"><a xlink:href="../../d7/da7/class_shape.html#a754ef1fcea3fbe3c3612da480ba8dd75" target="_top" xlink:title=" ">
<polygon fill="white" stroke="#666666" points="204.5,-241.25 110.5,-241.25 110.5,-222 204.5,-222 204.5,-241.25"/>
<text text-anchor="middle" x="157.5" y="-227.75" font-family="Helvetica,sans-Serif" font-size="10.00">Shape::getPainter</text>
</a>
</g>
</g>
<!-- Node1&#45;&gt;Node3 -->
<g id="edge2_Node000001_Node000003" class="edge">
<title>Node1&#45;&gt;Node3</title>
<g id="a_edge2_Node000001_Node000003"><a xlink:title=" ">
<path fill="none" stroke="#63b8ff" d="M43.25,-148.54C54.69,-164.38 79.16,-195.46 106.75,-213.62 108.36,-214.68 110.04,-215.69 111.76,-216.65"/>
<polygon fill="#63b8ff" stroke="#63b8ff" points="110.13,-219.74 120.66,-220.91 113.16,-213.43 110.13,-219.74"/>
</a>
</g>
</g>
<!-- Node4 -->
<g id="Node000004" class="node">
<title>Node4</title>
<g id="a_Node000004"><a xlink:href="../../d7/da7/class_shape.html#a16aad057da1ce3475f666cbdd27da042" target="_top" xlink:title=" ">
<polygon fill="white" stroke="#666666" points="197.75,-204.25 117.25,-204.25 117.25,-185 197.75,-185 197.75,-204.25"/>
<text text-anchor="middle" x="157.5" y="-190.75" font-family="Helvetica,sans-Serif" font-size="10.00">Shape::getPen</text>
</a>
</g>
</g>
<!-- Node1&#45;&gt;Node4 -->
<g id="edge3_Node000001_Node000004" class="edge">
<title>Node1&#45;&gt;Node4</title>
<g id="a_edge3_Node000001_Node000004"><a xlink:title=" ">
<path fill="none" stroke="#63b8ff" d="M53.37,-148.72C67.4,-156.84 88,-168.22 106.75,-176.62 109.7,-177.95 112.77,-179.24 115.89,-180.5"/>
<polygon fill="#63b8ff" stroke="#63b8ff" points="114.48,-183.71 125.07,-184.03 117,-177.18 114.48,-183.71"/>
</a>
</g>
</g>
<!-- Node5 -->
<g id="Node000005" class="node">
<title>Node5</title>
<g id="a_Node000005"><a xlink:href="../../d7/da7/class_shape.html#ab1cc10b4862f2e16db50622e2df278f3" target="_top" xlink:title=" ">
<polygon fill="white" stroke="#666666" points="203,-167.25 112,-167.25 112,-148 203,-148 203,-167.25"/>
<text text-anchor="middle" x="157.5" y="-153.75" font-family="Helvetica,sans-Serif" font-size="10.00">Shape::getPoints</text>
</a>
</g>
</g>
<!-- Node1&#45;&gt;Node5 -->
<g id="edge4_Node000001_Node000005" class="edge">
<title>Node1&#45;&gt;Node5</title>
<g id="a_edge4_Node000001_Node000005"><a xlink:title=" ">
<path fill="none" stroke="#63b8ff" d="M71.12,-144.12C80.28,-145.57 90.41,-147.17 100.39,-148.75"/>
<polygon fill="#63b8ff" stroke="#63b8ff" points="99.61,-152.17 110.04,-150.28 100.71,-145.26 99.61,-152.17"/>
</a>
</g>
</g>
<!-- Node6 -->
<g id="Node000006" class="node">
<title>Node6</title>
<g id="a_Node000006"><a xlink:href="../../d7/da7/class_shape.html#aebeb671fc243de273dc49f07ba71bac6" target="_top" xlink:title=" ">
<polygon fill="white" stroke="#666666" points="208.25,-130.25 106.75,-130.25 106.75,-111 208.25,-111 208.25,-130.25"/>
<text text-anchor="middle" x="157.5" y="-116.75" font-family="Helvetica,sans-Serif" font-size="10.00">Shape::getSelected</text>
</a>
</g>
</g>
<!-- Node1&#45;&gt;Node6 -->
<g id="edge5_Node000001_Node000006" class="edge">
<title>Node1&#45;&gt;Node6</title>
<g id="a_edge5_Node000001_Node000006"><a xlink:title=" ">
<path fill="none" stroke="#63b8ff" d="M71.12,-133.42C78.74,-132.28 87.03,-131.03 95.35,-129.79"/>
<polygon fill="#63b8ff" stroke="#63b8ff" points="95.78,-133.26 105.15,-128.32 94.74,-126.34 95.78,-133.26"/>
</a>
</g>
</g>
<!-- Node7 -->
<g id="Node000007" class="node">
<title>Node7</title>
<g id="a_Node000007"><a xlink:href="../../d7/da7/class_shape.html#a4b502262ae5a22122456b9624d5ccb3d" target="_top" xlink:title="Accessor Functions &#45; Returns the data named after them.">
<polygon fill="white" stroke="#666666" points="207.12,-93.25 107.88,-93.25 107.88,-74 207.12,-74 207.12,-93.25"/>
<text text-anchor="middle" x="157.5" y="-79.75" font-family="Helvetica,sans-Serif" font-size="10.00">Shape::getShapeId</text>
</a>
</g>
</g>
<!-- Node1&#45;&gt;Node7 -->
<g id="edge6_Node000001_Node000007" class="edge">
<title>Node1&#45;&gt;Node7</title>
<g id="a_edge6_Node000001_Node000007"><a xlink:title=" ">
<path fill="none" stroke="#63b8ff" d="M53.98,-128.51C68.02,-120.65 88.31,-109.76 106.75,-101.62 109.7,-100.32 112.79,-99.04 115.9,-97.79"/>
<polygon fill="#63b8ff" stroke="#63b8ff" points="117.01,-101.11 125.1,-94.27 114.51,-94.58 117.01,-101.11"/>
</a>
</g>
</g>
<!-- Node8 -->
<g id="Node000008" class="node">
<title>Node8</title>
<g id="a_Node000008"><a xlink:href="../../d7/da7/class_shape.html#af604de36aa616c585bb30dedf5e5c68b" target="_top" xlink:title=" ">
<polygon fill="white" stroke="#666666" points="192.5,-56.25 122.5,-56.25 122.5,-37 192.5,-37 192.5,-56.25"/>
<text text-anchor="middle" x="157.5" y="-42.75" font-family="Helvetica,sans-Serif" font-size="10.00">Shape::getX</text>
</a>
</g>
</g>
<!-- Node1&#45;&gt;Node8 -->
<g id="edge7_Node000001_Node000008" class="edge">
<title>Node1&#45;&gt;Node8</title>
<g id="a_edge7_Node000001_Node000008"><a xlink:title=" ">
<path fill="none" stroke="#63b8ff" d="M43.46,-128.59C55.03,-112.89 79.44,-82.47 106.75,-64.62 108.36,-63.57 110.04,-62.57 111.77,-61.62"/>
<polygon fill="#63b8ff" stroke="#63b8ff" points="113.16,-64.83 120.68,-57.36 110.14,-58.52 113.16,-64.83"/>
</a>
</g>
</g>
<!-- Node9 -->
<g id="Node000009" class="node">
<title>Node9</title>
<g id="a_Node000009"><a xlink:href="../../d7/da7/class_shape.html#a2e87ea4122381ffb83474f4b69247ded" target="_top" xlink:title=" ">
<polygon fill="white" stroke="#666666" points="192.5,-19.25 122.5,-19.25 122.5,0 192.5,0 192.5,-19.25"/>
<text text-anchor="middle" x="157.5" y="-5.75" font-family="Helvetica,sans-Serif" font-size="10.00">Shape::getY</text>
</a>
</g>
</g>
<!-- Node1&#45;&gt;Node9 -->
<g id="edge8_Node000001_Node000009" class="edge">
<title>Node1&#45;&gt;Node9</title>
<g id="a_edge8_Node000001_Node000009"><a xlink:title=" ">
<path fill="none" stroke="#63b8ff" d="M40.02,-128.79C48.46,-107.36 71.34,-56.05 106.75,-27.62 108.44,-26.27 110.25,-25.01 112.13,-23.84"/>
<polygon fill="#63b8ff" stroke="#63b8ff" points="113.39,-27.12 120.66,-19.41 110.17,-20.91 113.39,-27.12"/>
</a>
</g>
</g>
</g>
</svg>
</svg>

<style type='text/css'>
<![CDATA[
[data-mouse-over-selected='false'] { opacity: 0.7; }
[data-mouse-over-selected='true']  { opacity: 1.0; }
]]>
</style>
<script type="application/ecmascript"><![CDATA[
document.addEventListener('DOMContentLoaded', (event) => {
  highlightEdges();
  highlightAdjacentNodes();
});
]]></script>
</svg>
