<?xml version="1.0" encoding="UTF-8" standalone="no"?>
<!DOCTYPE svg PUBLIC "-//W3C//DTD SVG 1.1//EN"
 "http://www.w3.org/Graphics/SVG/1.1/DTD/svg11.dtd">
<!-- Generated by graphviz version 12.2.1 (20241206.2353)
 -->
<!-- Title: Circle::Circle Pages: 1 -->
<svg width="405pt" height="175pt"
 viewBox="0.00 0.00 404.75 175.25" xmlns="http://www.w3.org/2000/svg" xmlns:xlink="http://www.w3.org/1999/xlink">
<g id="graph0" class="graph" transform="scale(1 1) rotate(0) translate(4 171.25)">
<title>Circle::Circle</title>
<!-- Node1 -->
<g id="Node000001" class="node">
<title>Node1</title>
<g id="a_Node000001"><a xlink:title="Circle Constructor.">
<polygon fill="#999999" stroke="#666666" points="73,-74.25 0,-74.25 0,-55 73,-55 73,-74.25"/>
<text text-anchor="middle" x="36.5" y="-60.75" font-family="Helvetica,sans-Serif" font-size="10.00">Circle::Circle</text>
</a>
</g>
</g>
<!-- Node2 -->
<g id="Node000002" class="node">
<title>Node2</title>
<g id="a_Node000002"><a xlink:href="../../d7/da7/class_shape.html#a4a45883fd666ce244e518e808a0bd7ca" target="_top" xlink:title="CreateBrushChild &#45; Adds brush data to brushItems vector for a QTreeWidget.">
<polygon fill="white" stroke="#666666" points="236,-130.25 109,-130.25 109,-111 236,-111 236,-130.25"/>
<text text-anchor="middle" x="172.5" y="-116.75" font-family="Helvetica,sans-Serif" font-size="10.00">Shape::CreateBrushChild</text>
</a>
</g>
</g>
<!-- Node1&#45;&gt;Node2 -->
<g id="edge1_Node000001_Node000002" class="edge">
<title>Node1&#45;&gt;Node2</title>
<g id="a_edge1_Node000001_Node000002"><a xlink:title=" ">
<path fill="none" stroke="#63b8ff" d="M54.07,-74.71C68.27,-83.03 89.45,-94.72 109,-102.62 112.84,-104.18 116.86,-105.65 120.93,-107.05"/>
<polygon fill="#63b8ff" stroke="#63b8ff" points="119.7,-110.33 130.29,-110.06 121.85,-103.66 119.7,-110.33"/>
</a>
</g>
</g>
<!-- Node3 -->
<g id="Node000003" class="node">
<title>Node3</title>
<g id="a_Node000003"><a xlink:href="../../d7/da7/class_shape.html#ad3725fd4cfb43613897c2d3f3e647842" target="_top" xlink:title="CreateParentItem &#45; Adds data cooresponding to all shapes to parentItem for a QTreeWidget.">
<polygon fill="white" stroke="#666666" points="236,-93.25 109,-93.25 109,-74 236,-74 236,-93.25"/>
<text text-anchor="middle" x="172.5" y="-79.75" font-family="Helvetica,sans-Serif" font-size="10.00">Shape::CreateParentItem</text>
</a>
</g>
</g>
<!-- Node1&#45;&gt;Node3 -->
<g id="edge2_Node000001_Node000003" class="edge">
<title>Node1&#45;&gt;Node3</title>
<g id="a_edge2_Node000001_Node000003"><a xlink:title=" ">
<path fill="none" stroke="#63b8ff" d="M73.41,-69.72C80.87,-70.77 88.99,-71.93 97.27,-73.1"/>
<polygon fill="#63b8ff" stroke="#63b8ff" points="96.7,-76.55 107.09,-74.49 97.68,-69.62 96.7,-76.55"/>
</a>
</g>
</g>
<!-- Node8 -->
<g id="Node000008" class="node">
<title>Node8</title>
<g id="a_Node000008"><a xlink:href="../../d7/da7/class_shape.html#a54f827e6bce6b42cdb4b70c443d2c005" target="_top" xlink:title="CreatePenChild &#45; Adds pen data to penItems vector for a QTreeWidget.">
<polygon fill="white" stroke="#666666" points="231.88,-56.25 113.12,-56.25 113.12,-37 231.88,-37 231.88,-56.25"/>
<text text-anchor="middle" x="172.5" y="-42.75" font-family="Helvetica,sans-Serif" font-size="10.00">Shape::CreatePenChild</text>
</a>
</g>
</g>
<!-- Node1&#45;&gt;Node8 -->
<g id="edge7_Node000001_Node000008" class="edge">
<title>Node1&#45;&gt;Node8</title>
<g id="a_edge7_Node000001_Node000008"><a xlink:title=" ">
<path fill="none" stroke="#63b8ff" d="M73.41,-59.8C82.1,-58.63 91.69,-57.35 101.37,-56.05"/>
<polygon fill="#63b8ff" stroke="#63b8ff" points="101.77,-59.52 111.22,-54.72 100.84,-52.58 101.77,-59.52"/>
</a>
</g>
</g>
<!-- Node9 -->
<g id="Node000009" class="node">
<title>Node9</title>
<g id="a_Node000009"><a xlink:href="../../d7/da7/class_shape.html#a3fffc5f799f419e3e608e03ab1f3e913" target="_top" xlink:title="Shape Constructor.">
<polygon fill="white" stroke="#666666" points="211.25,-19.25 133.75,-19.25 133.75,0 211.25,0 211.25,-19.25"/>
<text text-anchor="middle" x="172.5" y="-5.75" font-family="Helvetica,sans-Serif" font-size="10.00">Shape::Shape</text>
</a>
</g>
</g>
<!-- Node1&#45;&gt;Node9 -->
<g id="edge8_Node000001_Node000009" class="edge">
<title>Node1&#45;&gt;Node9</title>
<g id="a_edge8_Node000001_Node000009"><a xlink:title=" ">
<path fill="none" stroke="#63b8ff" d="M54.68,-54.51C68.89,-46.45 89.78,-35.28 109,-27.62 113.37,-25.89 117.97,-24.24 122.61,-22.69"/>
<polygon fill="#63b8ff" stroke="#63b8ff" points="123.48,-26.09 131.97,-19.75 121.39,-19.41 123.48,-26.09"/>
</a>
</g>
</g>
<!-- Node4 -->
<g id="Node000004" class="node">
<title>Node4</title>
<g id="a_Node000004"><a xlink:href="../../d7/da7/class_shape.html#a4b502262ae5a22122456b9624d5ccb3d" target="_top" xlink:title="Accessor Functions &#45; Returns the data named after them.">
<polygon fill="white" stroke="#666666" points="384,-167.25 284.75,-167.25 284.75,-148 384,-148 384,-167.25"/>
<text text-anchor="middle" x="334.38" y="-153.75" font-family="Helvetica,sans-Serif" font-size="10.00">Shape::getShapeId</text>
</a>
</g>
</g>
<!-- Node3&#45;&gt;Node4 -->
<g id="edge3_Node000003_Node000004" class="edge">
<title>Node3&#45;&gt;Node4</title>
<g id="a_edge3_Node000003_Node000004"><a xlink:title=" ">
<path fill="none" stroke="#63b8ff" d="M219.1,-93.64C225,-95.82 230.79,-98.46 236,-101.62 255.88,-113.71 252.15,-127.49 272,-139.62 274,-140.85 276.08,-141.99 278.23,-143.06"/>
<polygon fill="#63b8ff" stroke="#63b8ff" points="276.64,-146.18 287.21,-146.93 279.41,-139.76 276.64,-146.18"/>
</a>
</g>
</g>
<!-- Node5 -->
<g id="Node000005" class="node">
<title>Node5</title>
<g id="a_Node000005"><a xlink:href="../../d7/da7/class_shape.html#aec4675c2b06d40373eefac4b982af242" target="_top" xlink:title=" ">
<polygon fill="white" stroke="#666666" points="386.62,-130.25 282.12,-130.25 282.12,-111 386.62,-111 386.62,-130.25"/>
<text text-anchor="middle" x="334.38" y="-116.75" font-family="Helvetica,sans-Serif" font-size="10.00">Shape::getTrackerId</text>
</a>
</g>
</g>
<!-- Node3&#45;&gt;Node5 -->
<g id="edge4_Node000003_Node000005" class="edge">
<title>Node3&#45;&gt;Node5</title>
<g id="a_edge4_Node000003_Node000005"><a xlink:title=" ">
<path fill="none" stroke="#63b8ff" d="M217.19,-93.74C236.13,-98.12 258.52,-103.3 278.57,-107.94"/>
<polygon fill="#63b8ff" stroke="#63b8ff" points="277.74,-111.34 288.27,-110.19 279.31,-104.52 277.74,-111.34"/>
</a>
</g>
</g>
<!-- Node6 -->
<g id="Node000006" class="node">
<title>Node6</title>
<g id="a_Node000006"><a xlink:href="../../d7/da7/class_shape.html#af604de36aa616c585bb30dedf5e5c68b" target="_top" xlink:title=" ">
<polygon fill="white" stroke="#666666" points="369.38,-93.25 299.38,-93.25 299.38,-74 369.38,-74 369.38,-93.25"/>
<text text-anchor="middle" x="334.38" y="-79.75" font-family="Helvetica,sans-Serif" font-size="10.00">Shape::getX</text>
</a>
</g>
</g>
<!-- Node3&#45;&gt;Node6 -->
<g id="edge5_Node000003_Node000006" class="edge">
<title>Node3&#45;&gt;Node6</title>
<g id="a_edge5_Node000003_Node000006"><a xlink:title=" ">
<path fill="none" stroke="#63b8ff" d="M236.23,-83.62C253.4,-83.62 271.69,-83.62 287.72,-83.62"/>
<polygon fill="#63b8ff" stroke="#63b8ff" points="287.42,-87.13 297.42,-83.63 287.42,-80.13 287.42,-87.13"/>
</a>
</g>
</g>
<!-- Node7 -->
<g id="Node000007" class="node">
<title>Node7</title>
<g id="a_Node000007"><a xlink:href="../../d7/da7/class_shape.html#a2e87ea4122381ffb83474f4b69247ded" target="_top" xlink:title=" ">
<polygon fill="white" stroke="#666666" points="369.38,-56.25 299.38,-56.25 299.38,-37 369.38,-37 369.38,-56.25"/>
<text text-anchor="middle" x="334.38" y="-42.75" font-family="Helvetica,sans-Serif" font-size="10.00">Shape::getY</text>
</a>
</g>
</g>
<!-- Node3&#45;&gt;Node7 -->
<g id="edge6_Node000003_Node000007" class="edge">
<title>Node3&#45;&gt;Node7</title>
<g id="a_edge6_Node000003_Node000007"><a xlink:title=" ">
<path fill="none" stroke="#63b8ff" d="M217.19,-73.51C239.15,-68.43 265.75,-62.28 287.95,-57.14"/>
<polygon fill="#63b8ff" stroke="#63b8ff" points="288.69,-60.56 297.64,-54.9 287.11,-53.74 288.69,-60.56"/>
</a>
</g>
</g>
<!-- Node10 -->
<g id="Node000010" class="node">
<title>Node10</title>
<g id="a_Node000010"><a xlink:href="../../d7/da7/class_shape.html#a520308cc2273f60cb19bf5664570bcf8" target="_top" xlink:title=" ">
<polygon fill="white" stroke="#666666" points="396.75,-19.25 272,-19.25 272,0 396.75,0 396.75,-19.25"/>
<text text-anchor="middle" x="334.38" y="-5.75" font-family="Helvetica,sans-Serif" font-size="10.00">Shape::allocateTrackerId</text>
</a>
</g>
</g>
<!-- Node9&#45;&gt;Node10 -->
<g id="edge9_Node000009_Node000010" class="edge">
<title>Node9&#45;&gt;Node10</title>
<g id="a_edge9_Node000009_Node000010"><a xlink:title=" ">
<path fill="none" stroke="#63b8ff" d="M211.39,-9.62C226.16,-9.62 243.61,-9.62 260.62,-9.62"/>
<polygon fill="#63b8ff" stroke="#63b8ff" points="260.19,-13.13 270.19,-9.63 260.19,-6.13 260.19,-13.13"/>
</a>
</g>
</g>
</g>
</svg>
