<?xml version="1.0" encoding="UTF-8" standalone="no"?>
<!DOCTYPE svg PUBLIC "-//W3C//DTD SVG 1.1//EN"
 "http://www.w3.org/Graphics/SVG/1.1/DTD/svg11.dtd">
<!-- Generated by graphviz version 12.2.1 (20241206.2353)
 -->
<!-- Title: /Users/gautam/Local/Forge/Team&#45;Alphawolves/2D&#45;Graphics&#45;Modeler/src/backend/Testimonial.h Pages: 1 -->
<svg width="1331pt" height="506pt"
 viewBox="0.00 0.00 1330.50 506.00" xmlns="http://www.w3.org/2000/svg" xmlns:xlink="http://www.w3.org/1999/xlink">
<g id="graph0" class="graph" transform="scale(1 1) rotate(0) translate(4 502)">
<title>/Users/gautam/Local/Forge/Team&#45;Alphawolves/2D&#45;Graphics&#45;Modeler/src/backend/Testimonial.h</title>
<!-- Node1 -->
<g id="Node000001" class="node">
<title>Node1</title>
<g id="a_Node000001"><a xlink:title=" ">
<polygon fill="#999999" stroke="#666666" points="754.25,-498 625,-498 625,-445 754.25,-445 754.25,-498"/>
<text text-anchor="start" x="633" y="-484.5" font-family="Helvetica,sans-Serif" font-size="10.00">/Users/gautam/Local</text>
<text text-anchor="start" x="633" y="-473.25" font-family="Helvetica,sans-Serif" font-size="10.00">/Forge/Team&#45;Alphawolves</text>
<text text-anchor="start" x="633" y="-462" font-family="Helvetica,sans-Serif" font-size="10.00">/2D&#45;Graphics&#45;Modeler/src</text>
<text text-anchor="middle" x="689.62" y="-450.75" font-family="Helvetica,sans-Serif" font-size="10.00">/backend/Testimonial.h</text>
</a>
</g>
</g>
<!-- Node2 -->
<g id="Node000002" class="node">
<title>Node2</title>
<g id="a_Node000002"><a xlink:href="../../de/d40/_parser_8h.html" target="_top" xlink:title=" ">
<polygon fill="white" stroke="#666666" points="551.25,-409 422,-409 422,-356 551.25,-356 551.25,-409"/>
<text text-anchor="start" x="430" y="-395.5" font-family="Helvetica,sans-Serif" font-size="10.00">/Users/gautam/Local</text>
<text text-anchor="start" x="430" y="-384.25" font-family="Helvetica,sans-Serif" font-size="10.00">/Forge/Team&#45;Alphawolves</text>
<text text-anchor="start" x="430" y="-373" font-family="Helvetica,sans-Serif" font-size="10.00">/2D&#45;Graphics&#45;Modeler/src</text>
<text text-anchor="middle" x="486.62" y="-361.75" font-family="Helvetica,sans-Serif" font-size="10.00">/backend/Parser.h</text>
</a>
</g>
</g>
<!-- Node1&#45;&gt;Node2 -->
<g id="edge1_Node000001_Node000002" class="edge">
<title>Node1&#45;&gt;Node2</title>
<g id="a_edge1_Node000001_Node000002"><a xlink:title=" ">
<path fill="none" stroke="#63b8ff" d="M618.45,-440C595.11,-429.99 569.41,-418.98 546.94,-409.35"/>
<polygon fill="#63b8ff" stroke="#63b8ff" points="617.03,-443.2 627.6,-443.92 619.79,-436.76 617.03,-443.2"/>
</a>
</g>
</g>
<!-- Node12 -->
<g id="Node000012" class="node">
<title>Node12</title>
<g id="a_Node000012"><a xlink:href="../../d4/d0a/_testimonial_manager_8h.html" target="_top" xlink:title=" ">
<polygon fill="white" stroke="#666666" points="925.25,-320 772,-320 772,-267 925.25,-267 925.25,-320"/>
<text text-anchor="start" x="780" y="-306.5" font-family="Helvetica,sans-Serif" font-size="10.00">/Users/gautam/Local</text>
<text text-anchor="start" x="780" y="-295.25" font-family="Helvetica,sans-Serif" font-size="10.00">/Forge/Team&#45;Alphawolves</text>
<text text-anchor="start" x="780" y="-284" font-family="Helvetica,sans-Serif" font-size="10.00">/2D&#45;Graphics&#45;Modeler/src</text>
<text text-anchor="middle" x="848.62" y="-272.75" font-family="Helvetica,sans-Serif" font-size="10.00">/backend/TestimonialManager.h</text>
</a>
</g>
</g>
<!-- Node1&#45;&gt;Node12 -->
<g id="edge25_Node000001_Node000012" class="edge">
<title>Node1&#45;&gt;Node12</title>
<g id="a_edge25_Node000001_Node000012"><a xlink:title=" ">
<path fill="none" stroke="#63b8ff" d="M687.15,-433.22C687.46,-408.89 691.73,-377.74 708.62,-356 724.35,-335.77 748.11,-322.06 771.61,-312.82"/>
<polygon fill="#63b8ff" stroke="#63b8ff" points="683.64,-433.06 687.26,-443.02 690.64,-432.98 683.64,-433.06"/>
</a>
</g>
</g>
<!-- Node21 -->
<g id="Node000021" class="node">
<title>Node21</title>
<g id="a_Node000021"><a xlink:href="../../d7/d82/_testimonial_8cpp.html" target="_top" xlink:title=" ">
<polygon fill="white" stroke="#666666" points="847.25,-409 718,-409 718,-356 847.25,-356 847.25,-409"/>
<text text-anchor="start" x="726" y="-395.5" font-family="Helvetica,sans-Serif" font-size="10.00">/Users/gautam/Local</text>
<text text-anchor="start" x="726" y="-384.25" font-family="Helvetica,sans-Serif" font-size="10.00">/Forge/Team&#45;Alphawolves</text>
<text text-anchor="start" x="726" y="-373" font-family="Helvetica,sans-Serif" font-size="10.00">/2D&#45;Graphics&#45;Modeler/src</text>
<text text-anchor="middle" x="782.62" y="-361.75" font-family="Helvetica,sans-Serif" font-size="10.00">/backend/Testimonial.cpp</text>
</a>
</g>
</g>
<!-- Node1&#45;&gt;Node21 -->
<g id="edge24_Node000001_Node000021" class="edge">
<title>Node1&#45;&gt;Node21</title>
<g id="a_edge24_Node000001_Node000021"><a xlink:title=" ">
<path fill="none" stroke="#63b8ff" d="M725.61,-436.83C735.34,-427.73 745.72,-418.02 754.92,-409.42"/>
<polygon fill="#63b8ff" stroke="#63b8ff" points="723.29,-434.21 718.38,-443.6 728.08,-439.32 723.29,-434.21"/>
</a>
</g>
</g>
<!-- Node3 -->
<g id="Node000003" class="node">
<title>Node3</title>
<g id="a_Node000003"><a xlink:href="../../de/df6/_parser_8cpp.html" target="_top" xlink:title=" ">
<polygon fill="white" stroke="#666666" points="551.25,-320 422,-320 422,-267 551.25,-267 551.25,-320"/>
<text text-anchor="start" x="430" y="-306.5" font-family="Helvetica,sans-Serif" font-size="10.00">/Users/gautam/Local</text>
<text text-anchor="start" x="430" y="-295.25" font-family="Helvetica,sans-Serif" font-size="10.00">/Forge/Team&#45;Alphawolves</text>
<text text-anchor="start" x="430" y="-284" font-family="Helvetica,sans-Serif" font-size="10.00">/2D&#45;Graphics&#45;Modeler/src</text>
<text text-anchor="middle" x="486.62" y="-272.75" font-family="Helvetica,sans-Serif" font-size="10.00">/backend/Parser.cpp</text>
</a>
</g>
</g>
<!-- Node2&#45;&gt;Node3 -->
<g id="edge2_Node000002_Node000003" class="edge">
<title>Node2&#45;&gt;Node3</title>
<g id="a_edge2_Node000002_Node000003"><a xlink:title=" ">
<path fill="none" stroke="#63b8ff" d="M486.62,-344.61C486.62,-336.41 486.62,-327.89 486.62,-320.25"/>
<polygon fill="#63b8ff" stroke="#63b8ff" points="483.13,-344.35 486.63,-354.35 490.13,-344.35 483.13,-344.35"/>
</a>
</g>
</g>
<!-- Node4 -->
<g id="Node000004" class="node">
<title>Node4</title>
<g id="a_Node000004"><a xlink:href="../../d6/d83/_render_area_manager_8h.html" target="_top" xlink:title=" ">
<polygon fill="white" stroke="#666666" points="404.38,-320 248.88,-320 248.88,-267 404.38,-267 404.38,-320"/>
<text text-anchor="start" x="256.88" y="-306.5" font-family="Helvetica,sans-Serif" font-size="10.00">/Users/gautam/Local</text>
<text text-anchor="start" x="256.88" y="-295.25" font-family="Helvetica,sans-Serif" font-size="10.00">/Forge/Team&#45;Alphawolves</text>
<text text-anchor="start" x="256.88" y="-284" font-family="Helvetica,sans-Serif" font-size="10.00">/2D&#45;Graphics&#45;Modeler/src</text>
<text text-anchor="middle" x="326.62" y="-272.75" font-family="Helvetica,sans-Serif" font-size="10.00">/backend/RenderAreaManager.h</text>
</a>
</g>
</g>
<!-- Node2&#45;&gt;Node4 -->
<g id="edge3_Node000002_Node000004" class="edge">
<title>Node2&#45;&gt;Node4</title>
<g id="a_edge3_Node000002_Node000004"><a xlink:title=" ">
<path fill="none" stroke="#63b8ff" d="M428.99,-350.16C411.05,-340.41 391.47,-329.76 374.29,-320.42"/>
<polygon fill="#63b8ff" stroke="#63b8ff" points="427.27,-353.21 437.72,-354.91 430.61,-347.06 427.27,-353.21"/>
</a>
</g>
</g>
<!-- Node7 -->
<g id="Node000007" class="node">
<title>Node7</title>
<g id="a_Node000007"><a xlink:href="../../d8/d80/src_2backend_2main_8cpp.html" target="_top" xlink:title=" ">
<polygon fill="white" stroke="#666666" points="129.25,-53 0,-53 0,0 129.25,0 129.25,-53"/>
<text text-anchor="start" x="8" y="-39.5" font-family="Helvetica,sans-Serif" font-size="10.00">/Users/gautam/Local</text>
<text text-anchor="start" x="8" y="-28.25" font-family="Helvetica,sans-Serif" font-size="10.00">/Forge/Team&#45;Alphawolves</text>
<text text-anchor="start" x="8" y="-17" font-family="Helvetica,sans-Serif" font-size="10.00">/2D&#45;Graphics&#45;Modeler/src</text>
<text text-anchor="middle" x="64.62" y="-5.75" font-family="Helvetica,sans-Serif" font-size="10.00">/backend/main.cpp</text>
</a>
</g>
</g>
<!-- Node2&#45;&gt;Node7 -->
<g id="edge23_Node000002_Node000007" class="edge">
<title>Node2&#45;&gt;Node7</title>
<g id="a_edge23_Node000002_Node000007"><a xlink:title=" ">
<path fill="none" stroke="#63b8ff" d="M410.3,-376.68C347.68,-370.24 258.17,-355.18 187.62,-320 101.12,-276.86 75.32,-237.83 62.62,-142 58.6,-111.65 60.14,-76.38 62.01,-53.09"/>
<polygon fill="#63b8ff" stroke="#63b8ff" points="409.87,-380.16 420.16,-377.64 410.54,-373.19 409.87,-380.16"/>
</a>
</g>
</g>
<!-- Node10 -->
<g id="Node000010" class="node">
<title>Node10</title>
<g id="a_Node000010"><a xlink:href="../../db/dd2/_shapes_manager_8h.html" target="_top" xlink:title=" ">
<polygon fill="white" stroke="#666666" points="706,-320 569.25,-320 569.25,-267 706,-267 706,-320"/>
<text text-anchor="start" x="577.25" y="-306.5" font-family="Helvetica,sans-Serif" font-size="10.00">/Users/gautam/Local</text>
<text text-anchor="start" x="577.25" y="-295.25" font-family="Helvetica,sans-Serif" font-size="10.00">/Forge/Team&#45;Alphawolves</text>
<text text-anchor="start" x="577.25" y="-284" font-family="Helvetica,sans-Serif" font-size="10.00">/2D&#45;Graphics&#45;Modeler/src</text>
<text text-anchor="middle" x="637.62" y="-272.75" font-family="Helvetica,sans-Serif" font-size="10.00">/backend/ShapesManager.h</text>
</a>
</g>
</g>
<!-- Node2&#45;&gt;Node10 -->
<g id="edge9_Node000002_Node000010" class="edge">
<title>Node2&#45;&gt;Node10</title>
<g id="a_edge9_Node000002_Node000010"><a xlink:title=" ">
<path fill="none" stroke="#63b8ff" d="M541.25,-350.03C558.12,-340.31 576.5,-329.72 592.64,-320.42"/>
<polygon fill="#63b8ff" stroke="#63b8ff" points="539.75,-346.85 532.83,-354.88 543.24,-352.92 539.75,-346.85"/>
</a>
</g>
</g>
<!-- Node2&#45;&gt;Node12 -->
<g id="edge11_Node000002_Node000012" class="edge">
<title>Node2&#45;&gt;Node12</title>
<g id="a_edge11_Node000002_Node000012"><a xlink:title=" ">
<path fill="none" stroke="#63b8ff" d="M562.5,-363.26C623.87,-348.52 709.91,-327.84 771.59,-313.01"/>
<polygon fill="#63b8ff" stroke="#63b8ff" points="561.72,-359.85 552.81,-365.59 563.36,-366.66 561.72,-359.85"/>
</a>
</g>
</g>
<!-- Node18 -->
<g id="Node000018" class="node">
<title>Node18</title>
<g id="a_Node000018"><a xlink:href="../../d1/dc5/_user_manager_8h.html" target="_top" xlink:title=" ">
<polygon fill="white" stroke="#666666" points="225.25,-231 96,-231 96,-178 225.25,-178 225.25,-231"/>
<text text-anchor="start" x="104" y="-217.5" font-family="Helvetica,sans-Serif" font-size="10.00">/Users/gautam/Local</text>
<text text-anchor="start" x="104" y="-206.25" font-family="Helvetica,sans-Serif" font-size="10.00">/Forge/Team&#45;Alphawolves</text>
<text text-anchor="start" x="104" y="-195" font-family="Helvetica,sans-Serif" font-size="10.00">/2D&#45;Graphics&#45;Modeler/src</text>
<text text-anchor="middle" x="160.62" y="-183.75" font-family="Helvetica,sans-Serif" font-size="10.00">/backend/UserManager.h</text>
</a>
</g>
</g>
<!-- Node2&#45;&gt;Node18 -->
<g id="edge18_Node000002_Node000018" class="edge">
<title>Node2&#45;&gt;Node18</title>
<g id="a_edge18_Node000002_Node000018"><a xlink:title=" ">
<path fill="none" stroke="#63b8ff" d="M410.45,-376.58C358.43,-370.05 290.07,-354.91 239.62,-320 207.45,-297.73 184.36,-257.8 171.74,-231.47"/>
<polygon fill="#63b8ff" stroke="#63b8ff" points="409.78,-380.03 420.12,-377.71 410.59,-373.08 409.78,-380.03"/>
</a>
</g>
</g>
<!-- Node5 -->
<g id="Node000005" class="node">
<title>Node5</title>
<g id="a_Node000005"><a xlink:href="../../dc/dbb/_app_driver_8h.html" target="_top" xlink:title=" ">
<polygon fill="white" stroke="#666666" points="552.25,-142 423,-142 423,-89 552.25,-89 552.25,-142"/>
<text text-anchor="start" x="431" y="-128.5" font-family="Helvetica,sans-Serif" font-size="10.00">/Users/gautam/Local</text>
<text text-anchor="start" x="431" y="-117.25" font-family="Helvetica,sans-Serif" font-size="10.00">/Forge/Team&#45;Alphawolves</text>
<text text-anchor="start" x="431" y="-106" font-family="Helvetica,sans-Serif" font-size="10.00">/2D&#45;Graphics&#45;Modeler/src</text>
<text text-anchor="middle" x="487.62" y="-94.75" font-family="Helvetica,sans-Serif" font-size="10.00">/backend/AppDriver.h</text>
</a>
</g>
</g>
<!-- Node4&#45;&gt;Node5 -->
<g id="edge4_Node000004_Node000005" class="edge">
<title>Node4&#45;&gt;Node5</title>
<g id="a_edge4_Node000004_Node000005"><a xlink:title=" ">
<path fill="none" stroke="#63b8ff" d="M383.16,-260.4C395.67,-251.81 408.27,-241.86 418.62,-231 432.16,-216.81 457.9,-171.46 473.83,-142.27"/>
<polygon fill="#63b8ff" stroke="#63b8ff" points="381.31,-257.43 374.91,-265.87 385.18,-263.26 381.31,-257.43"/>
</a>
</g>
</g>
<!-- Node9 -->
<g id="Node000009" class="node">
<title>Node9</title>
<g id="a_Node000009"><a xlink:href="../../d1/d86/_render_area_manager_8cpp.html" target="_top" xlink:title=" ">
<polygon fill="white" stroke="#666666" points="409.62,-231 243.62,-231 243.62,-178 409.62,-178 409.62,-231"/>
<text text-anchor="start" x="251.62" y="-217.5" font-family="Helvetica,sans-Serif" font-size="10.00">/Users/gautam/Local</text>
<text text-anchor="start" x="251.62" y="-206.25" font-family="Helvetica,sans-Serif" font-size="10.00">/Forge/Team&#45;Alphawolves</text>
<text text-anchor="start" x="251.62" y="-195" font-family="Helvetica,sans-Serif" font-size="10.00">/2D&#45;Graphics&#45;Modeler/src</text>
<text text-anchor="middle" x="326.62" y="-183.75" font-family="Helvetica,sans-Serif" font-size="10.00">/backend/RenderAreaManager.cpp</text>
</a>
</g>
</g>
<!-- Node4&#45;&gt;Node9 -->
<g id="edge8_Node000004_Node000009" class="edge">
<title>Node4&#45;&gt;Node9</title>
<g id="a_edge8_Node000004_Node000009"><a xlink:title=" ">
<path fill="none" stroke="#63b8ff" d="M326.62,-255.61C326.62,-247.41 326.62,-238.89 326.62,-231.25"/>
<polygon fill="#63b8ff" stroke="#63b8ff" points="323.13,-255.35 326.63,-265.35 330.13,-255.35 323.13,-255.35"/>
</a>
</g>
</g>
<!-- Node6 -->
<g id="Node000006" class="node">
<title>Node6</title>
<g id="a_Node000006"><a xlink:href="../../dc/df3/_app_driver_8cpp.html" target="_top" xlink:title=" ">
<polygon fill="white" stroke="#666666" points="625.25,-53 496,-53 496,0 625.25,0 625.25,-53"/>
<text text-anchor="start" x="504" y="-39.5" font-family="Helvetica,sans-Serif" font-size="10.00">/Users/gautam/Local</text>
<text text-anchor="start" x="504" y="-28.25" font-family="Helvetica,sans-Serif" font-size="10.00">/Forge/Team&#45;Alphawolves</text>
<text text-anchor="start" x="504" y="-17" font-family="Helvetica,sans-Serif" font-size="10.00">/2D&#45;Graphics&#45;Modeler/src</text>
<text text-anchor="middle" x="560.62" y="-5.75" font-family="Helvetica,sans-Serif" font-size="10.00">/backend/AppDriver.cpp</text>
</a>
</g>
</g>
<!-- Node5&#45;&gt;Node6 -->
<g id="edge5_Node000005_Node000006" class="edge">
<title>Node5&#45;&gt;Node6</title>
<g id="a_edge5_Node000005_Node000006"><a xlink:title=" ">
<path fill="none" stroke="#63b8ff" d="M516.45,-80.15C523.97,-71.18 531.94,-61.68 539.02,-53.25"/>
<polygon fill="#63b8ff" stroke="#63b8ff" points="513.85,-77.8 510.11,-87.71 519.21,-82.3 513.85,-77.8"/>
</a>
</g>
</g>
<!-- Node5&#45;&gt;Node7 -->
<g id="edge6_Node000005_Node000007" class="edge">
<title>Node5&#45;&gt;Node7</title>
<g id="a_edge6_Node000005_Node000007"><a xlink:title=" ">
<path fill="none" stroke="#63b8ff" d="M411.62,-88.36C308.67,-62.21 197.84,-45.03 129.49,-35.69"/>
<polygon fill="#63b8ff" stroke="#63b8ff" points="410.49,-91.68 421.05,-90.79 412.24,-84.91 410.49,-91.68"/>
</a>
</g>
</g>
<!-- Node8 -->
<g id="Node000008" class="node">
<title>Node8</title>
<g id="a_Node000008"><a xlink:href="../../d2/d21/src_2frontend_2main_8cpp.html" target="_top" xlink:title="Main entry point for the 2D Graphics Modeler application.">
<polygon fill="white" stroke="#666666" points="478.25,-53 349,-53 349,0 478.25,0 478.25,-53"/>
<text text-anchor="start" x="357" y="-39.5" font-family="Helvetica,sans-Serif" font-size="10.00">/Users/gautam/Local</text>
<text text-anchor="start" x="357" y="-28.25" font-family="Helvetica,sans-Serif" font-size="10.00">/Forge/Team&#45;Alphawolves</text>
<text text-anchor="start" x="357" y="-17" font-family="Helvetica,sans-Serif" font-size="10.00">/2D&#45;Graphics&#45;Modeler/src</text>
<text text-anchor="middle" x="413.62" y="-5.75" font-family="Helvetica,sans-Serif" font-size="10.00">/frontend/main.cpp</text>
</a>
</g>
</g>
<!-- Node5&#45;&gt;Node8 -->
<g id="edge7_Node000005_Node000008" class="edge">
<title>Node5&#45;&gt;Node8</title>
<g id="a_edge7_Node000005_Node000008"><a xlink:title=" ">
<path fill="none" stroke="#63b8ff" d="M458.4,-80.15C450.78,-71.18 442.7,-61.68 435.53,-53.25"/>
<polygon fill="#63b8ff" stroke="#63b8ff" points="455.7,-82.37 464.84,-87.71 461.03,-77.83 455.7,-82.37"/>
</a>
</g>
</g>
<!-- Node11 -->
<g id="Node000011" class="node">
<title>Node11</title>
<g id="a_Node000011"><a xlink:href="../../d0/d45/_shapes_manager_8cpp.html" target="_top" xlink:title=" ">
<polygon fill="white" stroke="#666666" points="613.25,-231 466,-231 466,-178 613.25,-178 613.25,-231"/>
<text text-anchor="start" x="474" y="-217.5" font-family="Helvetica,sans-Serif" font-size="10.00">/Users/gautam/Local</text>
<text text-anchor="start" x="474" y="-206.25" font-family="Helvetica,sans-Serif" font-size="10.00">/Forge/Team&#45;Alphawolves</text>
<text text-anchor="start" x="474" y="-195" font-family="Helvetica,sans-Serif" font-size="10.00">/2D&#45;Graphics&#45;Modeler/src</text>
<text text-anchor="middle" x="539.62" y="-183.75" font-family="Helvetica,sans-Serif" font-size="10.00">/backend/ShapesManager.cpp</text>
</a>
</g>
</g>
<!-- Node10&#45;&gt;Node11 -->
<g id="edge10_Node000010_Node000011" class="edge">
<title>Node10&#45;&gt;Node11</title>
<g id="a_edge10_Node000010_Node000011"><a xlink:title=" ">
<path fill="none" stroke="#63b8ff" d="M600.01,-259.11C589.67,-249.93 578.61,-240.11 568.82,-231.42"/>
<polygon fill="#63b8ff" stroke="#63b8ff" points="597.55,-261.61 607.36,-265.63 602.2,-256.37 597.55,-261.61"/>
</a>
</g>
</g>
<!-- Node13 -->
<g id="Node000013" class="node">
<title>Node13</title>
<g id="a_Node000013"><a xlink:href="../../d7/d96/_testimonial_manager_8cpp.html" target="_top" xlink:title=" ">
<polygon fill="white" stroke="#666666" points="1322.5,-231 1158.75,-231 1158.75,-178 1322.5,-178 1322.5,-231"/>
<text text-anchor="start" x="1166.75" y="-217.5" font-family="Helvetica,sans-Serif" font-size="10.00">/Users/gautam/Local</text>
<text text-anchor="start" x="1166.75" y="-206.25" font-family="Helvetica,sans-Serif" font-size="10.00">/Forge/Team&#45;Alphawolves</text>
<text text-anchor="start" x="1166.75" y="-195" font-family="Helvetica,sans-Serif" font-size="10.00">/2D&#45;Graphics&#45;Modeler/src</text>
<text text-anchor="middle" x="1240.62" y="-183.75" font-family="Helvetica,sans-Serif" font-size="10.00">/backend/TestimonialManager.cpp</text>
</a>
</g>
</g>
<!-- Node12&#45;&gt;Node13 -->
<g id="edge12_Node000012_Node000013" class="edge">
<title>Node12&#45;&gt;Node13</title>
<g id="a_edge12_Node000012_Node000013"><a xlink:title=" ">
<path fill="none" stroke="#63b8ff" d="M936.65,-276.24C996.86,-264.69 1078.37,-248.24 1149.62,-231 1152.5,-230.31 1155.41,-229.58 1158.35,-228.84"/>
<polygon fill="#63b8ff" stroke="#63b8ff" points="936.32,-272.74 927.15,-278.05 937.63,-279.62 936.32,-272.74"/>
</a>
</g>
</g>
<!-- Node14 -->
<g id="Node000014" class="node">
<title>Node14</title>
<g id="a_Node000014"><a xlink:href="../../da/d08/_testimonial_dialog_8cpp.html" target="_top" xlink:title=" ">
<polygon fill="white" stroke="#666666" points="784.25,-231 631,-231 631,-178 784.25,-178 784.25,-231"/>
<text text-anchor="start" x="639" y="-217.5" font-family="Helvetica,sans-Serif" font-size="10.00">/Users/gautam/Local</text>
<text text-anchor="start" x="639" y="-206.25" font-family="Helvetica,sans-Serif" font-size="10.00">/Forge/Team&#45;Alphawolves</text>
<text text-anchor="start" x="639" y="-195" font-family="Helvetica,sans-Serif" font-size="10.00">/2D&#45;Graphics&#45;Modeler/src</text>
<text text-anchor="middle" x="707.62" y="-183.75" font-family="Helvetica,sans-Serif" font-size="10.00">/frontend/TestimonialDialog.cpp</text>
</a>
</g>
</g>
<!-- Node12&#45;&gt;Node14 -->
<g id="edge13_Node000012_Node000014" class="edge">
<title>Node12&#45;&gt;Node14</title>
<g id="a_edge13_Node000012_Node000014"><a xlink:title=" ">
<path fill="none" stroke="#63b8ff" d="M797.17,-260.75C781.54,-251.11 764.56,-240.63 749.63,-231.42"/>
<polygon fill="#63b8ff" stroke="#63b8ff" points="795.07,-263.57 805.41,-265.84 798.74,-257.61 795.07,-263.57"/>
</a>
</g>
</g>
<!-- Node15 -->
<g id="Node000015" class="node">
<title>Node15</title>
<g id="a_Node000015"><a xlink:href="../../d6/db1/_testimonials_display_dialog_8cpp.html" target="_top" xlink:title=" ">
<polygon fill="white" stroke="#666666" points="993.38,-231 801.88,-231 801.88,-178 993.38,-178 993.38,-231"/>
<text text-anchor="start" x="809.88" y="-217.5" font-family="Helvetica,sans-Serif" font-size="10.00">/Users/gautam/Local</text>
<text text-anchor="start" x="809.88" y="-206.25" font-family="Helvetica,sans-Serif" font-size="10.00">/Forge/Team&#45;Alphawolves</text>
<text text-anchor="start" x="809.88" y="-195" font-family="Helvetica,sans-Serif" font-size="10.00">/2D&#45;Graphics&#45;Modeler/src</text>
<text text-anchor="middle" x="897.62" y="-183.75" font-family="Helvetica,sans-Serif" font-size="10.00">/frontend/TestimonialsDisplayDialog.cpp</text>
</a>
</g>
</g>
<!-- Node12&#45;&gt;Node15 -->
<g id="edge14_Node000012_Node000015" class="edge">
<title>Node12&#45;&gt;Node15</title>
<g id="a_edge14_Node000012_Node000015"><a xlink:title=" ">
<path fill="none" stroke="#63b8ff" d="M868.61,-257.02C873.47,-248.39 878.57,-239.33 883.12,-231.25"/>
<polygon fill="#63b8ff" stroke="#63b8ff" points="865.66,-255.12 863.8,-265.55 871.76,-258.55 865.66,-255.12"/>
</a>
</g>
</g>
<!-- Node16 -->
<g id="Node000016" class="node">
<title>Node16</title>
<g id="a_Node000016"><a xlink:href="../../d9/d53/mainwindow_8h.html" target="_top" xlink:title=" ">
<polygon fill="white" stroke="#666666" points="1140.25,-231 1011,-231 1011,-178 1140.25,-178 1140.25,-231"/>
<text text-anchor="start" x="1019" y="-217.5" font-family="Helvetica,sans-Serif" font-size="10.00">/Users/gautam/Local</text>
<text text-anchor="start" x="1019" y="-206.25" font-family="Helvetica,sans-Serif" font-size="10.00">/Forge/Team&#45;Alphawolves</text>
<text text-anchor="start" x="1019" y="-195" font-family="Helvetica,sans-Serif" font-size="10.00">/2D&#45;Graphics&#45;Modeler/src</text>
<text text-anchor="middle" x="1075.62" y="-183.75" font-family="Helvetica,sans-Serif" font-size="10.00">/frontend/mainwindow.h</text>
</a>
</g>
</g>
<!-- Node12&#45;&gt;Node16 -->
<g id="edge15_Node000012_Node000016" class="edge">
<title>Node12&#45;&gt;Node16</title>
<g id="a_edge15_Node000012_Node000016"><a xlink:title=" ">
<path fill="none" stroke="#63b8ff" d="M927.09,-262.43C954.3,-252 984.49,-240.43 1010.51,-230.46"/>
<polygon fill="#63b8ff" stroke="#63b8ff" points="925.92,-259.13 917.84,-265.97 928.43,-265.66 925.92,-259.13"/>
</a>
</g>
</g>
<!-- Node16&#45;&gt;Node5 -->
<g id="edge16_Node000016_Node000005" class="edge">
<title>Node16&#45;&gt;Node5</title>
<g id="a_edge16_Node000016_Node000005"><a xlink:title=" ">
<path fill="none" stroke="#63b8ff" d="M999.75,-177.52C835.18,-140.48 648.97,-125.51 552.63,-119.73"/>
<polygon fill="#63b8ff" stroke="#63b8ff" points="998.56,-180.83 1009.09,-179.65 1000.12,-174.01 998.56,-180.83"/>
</a>
</g>
</g>
<!-- Node17 -->
<g id="Node000017" class="node">
<title>Node17</title>
<g id="a_Node000017"><a xlink:href="../../d8/dd9/mainwindow_8cpp.html" target="_top" xlink:title=" ">
<polygon fill="white" stroke="#666666" points="1140.25,-142 1011,-142 1011,-89 1140.25,-89 1140.25,-142"/>
<text text-anchor="start" x="1019" y="-128.5" font-family="Helvetica,sans-Serif" font-size="10.00">/Users/gautam/Local</text>
<text text-anchor="start" x="1019" y="-117.25" font-family="Helvetica,sans-Serif" font-size="10.00">/Forge/Team&#45;Alphawolves</text>
<text text-anchor="start" x="1019" y="-106" font-family="Helvetica,sans-Serif" font-size="10.00">/2D&#45;Graphics&#45;Modeler/src</text>
<text text-anchor="middle" x="1075.62" y="-94.75" font-family="Helvetica,sans-Serif" font-size="10.00">/frontend/mainwindow.cpp</text>
</a>
</g>
</g>
<!-- Node16&#45;&gt;Node17 -->
<g id="edge17_Node000016_Node000017" class="edge">
<title>Node16&#45;&gt;Node17</title>
<g id="a_edge17_Node000016_Node000017"><a xlink:title=" ">
<path fill="none" stroke="#63b8ff" d="M1075.62,-166.61C1075.62,-158.41 1075.62,-149.89 1075.62,-142.25"/>
<polygon fill="#63b8ff" stroke="#63b8ff" points="1072.13,-166.35 1075.63,-176.35 1079.13,-166.35 1072.13,-166.35"/>
</a>
</g>
</g>
<!-- Node18&#45;&gt;Node5 -->
<g id="edge19_Node000018_Node000005" class="edge">
<title>Node18&#45;&gt;Node5</title>
<g id="a_edge19_Node000018_Node000005"><a xlink:title=" ">
<path fill="none" stroke="#63b8ff" d="M236.43,-177.69C315.41,-157.2 339.31,-162.58 414.62,-142 417.34,-141.26 420.11,-140.46 422.89,-139.63"/>
<polygon fill="#63b8ff" stroke="#63b8ff" points="235.67,-174.27 226.91,-180.22 237.47,-181.03 235.67,-174.27"/>
</a>
</g>
</g>
<!-- Node18&#45;&gt;Node7 -->
<g id="edge21_Node000018_Node000007" class="edge">
<title>Node18&#45;&gt;Node7</title>
<g id="a_edge21_Node000018_Node000007"><a xlink:title=" ">
<path fill="none" stroke="#63b8ff" d="M108.42,-170.57C98.86,-162.33 89.92,-152.73 83.62,-142 67.61,-114.71 64.1,-77.83 63.77,-53.39"/>
<polygon fill="#63b8ff" stroke="#63b8ff" points="106.17,-173.25 116.15,-176.81 110.56,-167.8 106.17,-173.25"/>
</a>
</g>
</g>
<!-- Node19 -->
<g id="Node000019" class="node">
<title>Node19</title>
<g id="a_Node000019"><a xlink:href="../../d4/d3b/_user_manager_8cpp.html" target="_top" xlink:title=" ">
<polygon fill="white" stroke="#666666" points="228.25,-142 93,-142 93,-89 228.25,-89 228.25,-142"/>
<text text-anchor="start" x="101" y="-128.5" font-family="Helvetica,sans-Serif" font-size="10.00">/Users/gautam/Local</text>
<text text-anchor="start" x="101" y="-117.25" font-family="Helvetica,sans-Serif" font-size="10.00">/Forge/Team&#45;Alphawolves</text>
<text text-anchor="start" x="101" y="-106" font-family="Helvetica,sans-Serif" font-size="10.00">/2D&#45;Graphics&#45;Modeler/src</text>
<text text-anchor="middle" x="160.62" y="-94.75" font-family="Helvetica,sans-Serif" font-size="10.00">/backend/UserManager.cpp</text>
</a>
</g>
</g>
<!-- Node18&#45;&gt;Node19 -->
<g id="edge20_Node000018_Node000019" class="edge">
<title>Node18&#45;&gt;Node19</title>
<g id="a_edge20_Node000018_Node000019"><a xlink:title=" ">
<path fill="none" stroke="#63b8ff" d="M160.62,-166.61C160.62,-158.41 160.62,-149.89 160.62,-142.25"/>
<polygon fill="#63b8ff" stroke="#63b8ff" points="157.13,-166.35 160.63,-176.35 164.13,-166.35 157.13,-166.35"/>
</a>
</g>
</g>
<!-- Node20 -->
<g id="Node000020" class="node">
<title>Node20</title>
<g id="a_Node000020"><a xlink:href="../../de/d9f/moc___user_manager_8cpp.html" target="_top" xlink:title=" ">
<polygon fill="white" stroke="#666666" points="405.25,-142 246,-142 246,-89 405.25,-89 405.25,-142"/>
<text text-anchor="start" x="254" y="-128.5" font-family="Helvetica,sans-Serif" font-size="10.00">/Users/gautam/Local</text>
<text text-anchor="start" x="254" y="-117.25" font-family="Helvetica,sans-Serif" font-size="10.00">/Forge/Team&#45;Alphawolves</text>
<text text-anchor="start" x="254" y="-106" font-family="Helvetica,sans-Serif" font-size="10.00">/2D&#45;Graphics&#45;Modeler/src</text>
<text text-anchor="middle" x="325.62" y="-94.75" font-family="Helvetica,sans-Serif" font-size="10.00">/backend/moc_UserManager.cpp</text>
</a>
</g>
</g>
<!-- Node18&#45;&gt;Node20 -->
<g id="edge22_Node000018_Node000020" class="edge">
<title>Node18&#45;&gt;Node20</title>
<g id="a_edge22_Node000018_Node000020"><a xlink:title=" ">
<path fill="none" stroke="#63b8ff" d="M219.8,-172.3C238.37,-162.5 258.67,-151.8 276.47,-142.42"/>
<polygon fill="#63b8ff" stroke="#63b8ff" points="218.24,-169.17 211.02,-176.93 221.5,-175.36 218.24,-169.17"/>
</a>
</g>
</g>
</g>
</svg>
