<?xml version="1.0" encoding="UTF-8" standalone="no"?>
<!DOCTYPE svg PUBLIC "-//W3C//DTD SVG 1.1//EN"
 "http://www.w3.org/Graphics/SVG/1.1/DTD/svg11.dtd">
<!-- Generated by graphviz version 12.2.1 (20241206.2353)
 -->
<!-- Title: Polygon::Move Pages: 1 -->
<svg width="309pt" height="138pt"
 viewBox="0.00 0.00 308.75 138.25" xmlns="http://www.w3.org/2000/svg" xmlns:xlink="http://www.w3.org/1999/xlink">

<svg id="main" version="1.1" xmlns="http://www.w3.org/2000/svg" xmlns:xlink="http://www.w3.org/1999/xlink" xml:space="preserve">

<style type="text/css"><![CDATA[
.node, .edge {opacity: 0.7;}
.node.selected, .edge.selected {opacity: 1;}
.edge:hover path { stroke: red; }
.edge:hover polygon { stroke: red; fill: red; }
]]></style>
<script type="application/ecmascript" xlink:href="../../svg.min.js"/>
<svg id="graph" class="graph">
<g id="graph0" class="graph" transform="scale(1 1) rotate(0) translate(4 134.25)">
<title>Polygon::Move</title>
<!-- Node1 -->
<g id="Node000001" class="node">
<title>Node1</title>
<g id="a_Node000001"><a xlink:title="Move &#45; Moves the Polygon to the passed x and y coordinates.">
<polygon fill="#999999" stroke="#666666" points="81.25,-74.25 0,-74.25 0,-55 81.25,-55 81.25,-74.25"/>
<text text-anchor="middle" x="40.62" y="-60.75" font-family="Helvetica,sans-Serif" font-size="10.00">Polygon::Move</text>
</a>
</g>
</g>
<!-- Node2 -->
<g id="Node000002" class="node">
<title>Node2</title>
<g id="a_Node000002"><a xlink:href="../../d7/da7/class_shape.html#af604de36aa616c585bb30dedf5e5c68b" target="_top" xlink:title=" ">
<polygon fill="white" stroke="#666666" points="191,-130.25 121,-130.25 121,-111 191,-111 191,-130.25"/>
<text text-anchor="middle" x="156" y="-116.75" font-family="Helvetica,sans-Serif" font-size="10.00">Shape::getX</text>
</a>
</g>
</g>
<!-- Node1&#45;&gt;Node2 -->
<g id="edge1_Node000001_Node000002" class="edge">
<title>Node1&#45;&gt;Node2</title>
<g id="a_edge1_Node000001_Node000002"><a xlink:title=" ">
<path fill="none" stroke="#63b8ff" d="M61.47,-74.74C76.69,-82.46 98.25,-93.32 117.25,-102.62 119.34,-103.65 121.5,-104.7 123.67,-105.75"/>
<polygon fill="#63b8ff" stroke="#63b8ff" points="121.91,-108.78 132.43,-109.96 124.93,-102.47 121.91,-108.78"/>
</a>
</g>
</g>
<!-- Node3 -->
<g id="Node000003" class="node">
<title>Node3</title>
<g id="a_Node000003"><a xlink:href="../../d7/da7/class_shape.html#a2e87ea4122381ffb83474f4b69247ded" target="_top" xlink:title=" ">
<polygon fill="white" stroke="#666666" points="191,-93.25 121,-93.25 121,-74 191,-74 191,-93.25"/>
<text text-anchor="middle" x="156" y="-79.75" font-family="Helvetica,sans-Serif" font-size="10.00">Shape::getY</text>
</a>
</g>
</g>
<!-- Node1&#45;&gt;Node3 -->
<g id="edge2_Node000001_Node000003" class="edge">
<title>Node1&#45;&gt;Node3</title>
<g id="a_edge2_Node000001_Node000003"><a xlink:title=" ">
<path fill="none" stroke="#63b8ff" d="M81.6,-71.32C90.56,-72.83 100.14,-74.43 109.32,-75.97"/>
<polygon fill="#63b8ff" stroke="#63b8ff" points="108.72,-79.42 119.16,-77.62 109.88,-72.51 108.72,-79.42"/>
</a>
</g>
</g>
<!-- Node4 -->
<g id="Node000004" class="node">
<title>Node4</title>
<g id="a_Node000004"><a xlink:href="../../d1/db0/class_polygon.html#a9d5e9087bf324719995b4af2931c77f3" target="_top" xlink:title=" ">
<polygon fill="white" stroke="#666666" points="194.75,-56.25 117.25,-56.25 117.25,-37 194.75,-37 194.75,-56.25"/>
<text text-anchor="middle" x="156" y="-42.75" font-family="Helvetica,sans-Serif" font-size="10.00">Polygon::setX</text>
</a>
</g>
</g>
<!-- Node1&#45;&gt;Node4 -->
<g id="edge3_Node000001_Node000004" class="edge">
<title>Node1&#45;&gt;Node4</title>
<g id="a_edge3_Node000001_Node000004"><a xlink:title=" ">
<path fill="none" stroke="#63b8ff" d="M81.6,-58.28C89.4,-57.04 97.66,-55.73 105.72,-54.45"/>
<polygon fill="#63b8ff" stroke="#63b8ff" points="106.09,-57.93 115.42,-52.91 104.99,-51.02 106.09,-57.93"/>
</a>
</g>
</g>
<!-- Node6 -->
<g id="Node000006" class="node">
<title>Node6</title>
<g id="a_Node000006"><a xlink:href="../../d1/db0/class_polygon.html#ab19e68c8d4d2546262ec5880a33053af" target="_top" xlink:title=" ">
<polygon fill="white" stroke="#666666" points="194.75,-19.25 117.25,-19.25 117.25,0 194.75,0 194.75,-19.25"/>
<text text-anchor="middle" x="156" y="-5.75" font-family="Helvetica,sans-Serif" font-size="10.00">Polygon::setY</text>
</a>
</g>
</g>
<!-- Node1&#45;&gt;Node6 -->
<g id="edge5_Node000001_Node000006" class="edge">
<title>Node1&#45;&gt;Node6</title>
<g id="a_edge5_Node000001_Node000006"><a xlink:title=" ">
<path fill="none" stroke="#63b8ff" d="M62.14,-54.52C77.34,-47.05 98.56,-36.65 117.25,-27.62 119.34,-26.61 121.51,-25.57 123.68,-24.53"/>
<polygon fill="#63b8ff" stroke="#63b8ff" points="124.94,-27.81 132.45,-20.33 121.92,-21.49 124.94,-27.81"/>
</a>
</g>
</g>
<!-- Node5 -->
<g id="Node000005" class="node">
<title>Node5</title>
<g id="a_Node000005"><a xlink:href="../../d7/da7/class_shape.html#a2d8fd6861bf7906e0152a699ce6054c8" target="_top" xlink:title=" ">
<polygon fill="white" stroke="#666666" points="300.75,-56.25 230.75,-56.25 230.75,-37 300.75,-37 300.75,-56.25"/>
<text text-anchor="middle" x="265.75" y="-42.75" font-family="Helvetica,sans-Serif" font-size="10.00">Shape::setX</text>
</a>
</g>
</g>
<!-- Node4&#45;&gt;Node5 -->
<g id="edge4_Node000004_Node000005" class="edge">
<title>Node4&#45;&gt;Node5</title>
<g id="a_edge4_Node000004_Node000005"><a xlink:title=" ">
<path fill="none" stroke="#63b8ff" d="M194.99,-46.62C202.72,-46.62 210.94,-46.62 218.91,-46.62"/>
<polygon fill="#63b8ff" stroke="#63b8ff" points="218.83,-50.13 228.83,-46.63 218.83,-43.13 218.83,-50.13"/>
</a>
</g>
</g>
<!-- Node7 -->
<g id="Node000007" class="node">
<title>Node7</title>
<g id="a_Node000007"><a xlink:href="../../d7/da7/class_shape.html#aa2b8845b186bf95781ca5d5e22316343" target="_top" xlink:title=" ">
<polygon fill="white" stroke="#666666" points="300.75,-19.25 230.75,-19.25 230.75,0 300.75,0 300.75,-19.25"/>
<text text-anchor="middle" x="265.75" y="-5.75" font-family="Helvetica,sans-Serif" font-size="10.00">Shape::setY</text>
</a>
</g>
</g>
<!-- Node6&#45;&gt;Node7 -->
<g id="edge6_Node000006_Node000007" class="edge">
<title>Node6&#45;&gt;Node7</title>
<g id="a_edge6_Node000006_Node000007"><a xlink:title=" ">
<path fill="none" stroke="#63b8ff" d="M194.99,-9.62C202.72,-9.62 210.94,-9.62 218.91,-9.62"/>
<polygon fill="#63b8ff" stroke="#63b8ff" points="218.83,-13.13 228.83,-9.63 218.83,-6.13 218.83,-13.13"/>
</a>
</g>
</g>
</g>
</svg>
</svg>

<style type='text/css'>
<![CDATA[
[data-mouse-over-selected='false'] { opacity: 0.7; }
[data-mouse-over-selected='true']  { opacity: 1.0; }
]]>
</style>
<script type="application/ecmascript"><![CDATA[
document.addEventListener('DOMContentLoaded', (event) => {
  highlightEdges();
  highlightAdjacentNodes();
});
]]></script>
</svg>
