<?xml version="1.0" encoding="UTF-8" standalone="no"?>
<!DOCTYPE svg PUBLIC "-//W3C//DTD SVG 1.1//EN"
 "http://www.w3.org/Graphics/SVG/1.1/DTD/svg11.dtd">
<!-- Generated by graphviz version 12.2.1 (20241206.2353)
 -->
<!-- Title: Polygon::Polygon Pages: 1 -->
<svg width="427pt" height="230pt"
 viewBox="0.00 0.00 426.50 230.25" xmlns="http://www.w3.org/2000/svg" xmlns:xlink="http://www.w3.org/1999/xlink">
<g id="graph0" class="graph" transform="scale(1 1) rotate(0) translate(4 226.25)">
<title>Polygon::Polygon</title>
<!-- Node1 -->
<g id="Node000001" class="node">
<title>Node1</title>
<g id="a_Node000001"><a xlink:title="Polygon Constructor.">
<polygon fill="#999999" stroke="#666666" points="92.5,-111.25 0,-111.25 0,-92 92.5,-92 92.5,-111.25"/>
<text text-anchor="middle" x="46.25" y="-97.75" font-family="Helvetica,sans-Serif" font-size="10.00">Polygon::Polygon</text>
</a>
</g>
</g>
<!-- Node2 -->
<g id="Node000002" class="node">
<title>Node2</title>
<g id="a_Node000002"><a xlink:href="../../d7/da7/class_shape.html#a4a45883fd666ce244e518e808a0bd7ca" target="_top" xlink:title="CreateBrushChild &#45; Adds brush data to brushItems vector for a QTreeWidget.">
<polygon fill="white" stroke="#666666" points="256.62,-204.25 129.62,-204.25 129.62,-185 256.62,-185 256.62,-204.25"/>
<text text-anchor="middle" x="193.12" y="-190.75" font-family="Helvetica,sans-Serif" font-size="10.00">Shape::CreateBrushChild</text>
</a>
</g>
</g>
<!-- Node1&#45;&gt;Node2 -->
<g id="edge1_Node000001_Node000002" class="edge">
<title>Node1&#45;&gt;Node2</title>
<g id="a_edge1_Node000001_Node000002"><a xlink:title=" ">
<path fill="none" stroke="#63b8ff" d="M55.38,-111.73C68.88,-127.83 97.51,-159.27 128.5,-176.62 130.87,-177.95 133.34,-179.18 135.87,-180.33"/>
<polygon fill="#63b8ff" stroke="#63b8ff" points="134.58,-183.58 145.17,-184.03 137.16,-177.08 134.58,-183.58"/>
</a>
</g>
</g>
<!-- Node3 -->
<g id="Node000003" class="node">
<title>Node3</title>
<g id="a_Node000003"><a xlink:href="../../d7/da7/class_shape.html#ad3725fd4cfb43613897c2d3f3e647842" target="_top" xlink:title="CreateParentItem &#45; Adds data cooresponding to all shapes to parentItem for a QTreeWidget.">
<polygon fill="white" stroke="#666666" points="256.62,-167.25 129.62,-167.25 129.62,-148 256.62,-148 256.62,-167.25"/>
<text text-anchor="middle" x="193.12" y="-153.75" font-family="Helvetica,sans-Serif" font-size="10.00">Shape::CreateParentItem</text>
</a>
</g>
</g>
<!-- Node1&#45;&gt;Node3 -->
<g id="edge2_Node000001_Node000003" class="edge">
<title>Node1&#45;&gt;Node3</title>
<g id="a_edge2_Node000001_Node000003"><a xlink:title=" ">
<path fill="none" stroke="#63b8ff" d="M66.57,-111.75C82.8,-119.98 106.76,-131.53 128.5,-139.62 132.86,-141.25 137.43,-142.81 142.04,-144.28"/>
<polygon fill="#63b8ff" stroke="#63b8ff" points="140.74,-147.55 151.32,-147.12 142.78,-140.85 140.74,-147.55"/>
</a>
</g>
</g>
<!-- Node8 -->
<g id="Node000008" class="node">
<title>Node8</title>
<g id="a_Node000008"><a xlink:href="../../d7/da7/class_shape.html#a54f827e6bce6b42cdb4b70c443d2c005" target="_top" xlink:title="CreatePenChild &#45; Adds pen data to penItems vector for a QTreeWidget.">
<polygon fill="white" stroke="#666666" points="252.5,-93.25 133.75,-93.25 133.75,-74 252.5,-74 252.5,-93.25"/>
<text text-anchor="middle" x="193.12" y="-79.75" font-family="Helvetica,sans-Serif" font-size="10.00">Shape::CreatePenChild</text>
</a>
</g>
</g>
<!-- Node1&#45;&gt;Node8 -->
<g id="edge7_Node000001_Node000008" class="edge">
<title>Node1&#45;&gt;Node8</title>
<g id="a_edge7_Node000001_Node000008"><a xlink:title=" ">
<path fill="none" stroke="#63b8ff" d="M92.69,-95.98C102.04,-94.82 112.08,-93.57 122.07,-92.33"/>
<polygon fill="#63b8ff" stroke="#63b8ff" points="122.28,-95.83 131.77,-91.12 121.42,-88.88 122.28,-95.83"/>
</a>
</g>
</g>
<!-- Node9 -->
<g id="Node000009" class="node">
<title>Node9</title>
<g id="a_Node000009"><a xlink:href="../../d7/da7/class_shape.html#aa7c347f6f5b1add61d6cad5a01f1c7a4" target="_top" xlink:title="CreatePointsChild &#45; Adds points data to pointsItems vector for a QTreeWidget.">
<polygon fill="white" stroke="#666666" points="257.75,-130.25 128.5,-130.25 128.5,-111 257.75,-111 257.75,-130.25"/>
<text text-anchor="middle" x="193.12" y="-116.75" font-family="Helvetica,sans-Serif" font-size="10.00">Shape::CreatePointsChild</text>
</a>
</g>
</g>
<!-- Node1&#45;&gt;Node9 -->
<g id="edge8_Node000001_Node000009" class="edge">
<title>Node1&#45;&gt;Node9</title>
<g id="a_edge8_Node000001_Node000009"><a xlink:title=" ">
<path fill="none" stroke="#63b8ff" d="M92.69,-107.58C100.39,-108.59 108.57,-109.67 116.8,-110.75"/>
<polygon fill="#63b8ff" stroke="#63b8ff" points="116.14,-114.19 126.51,-112.02 117.05,-107.25 116.14,-114.19"/>
</a>
</g>
</g>
<!-- Node10 -->
<g id="Node000010" class="node">
<title>Node10</title>
<g id="a_Node000010"><a xlink:href="../../d1/db0/class_polygon.html#aa29df027578f8427676e9eb4a5ee67c2" target="_top" xlink:title="getPointsList &#45; Returns the pointsList by value">
<polygon fill="white" stroke="#666666" points="250.25,-56.25 136,-56.25 136,-37 250.25,-37 250.25,-56.25"/>
<text text-anchor="middle" x="193.12" y="-42.75" font-family="Helvetica,sans-Serif" font-size="10.00">Polygon::getPointsList</text>
</a>
</g>
</g>
<!-- Node1&#45;&gt;Node10 -->
<g id="edge11_Node000001_Node000010" class="edge">
<title>Node1&#45;&gt;Node10</title>
<g id="a_edge11_Node000001_Node000010"><a xlink:title=" ">
<path fill="none" stroke="#63b8ff" d="M66.93,-91.64C83.17,-83.66 106.96,-72.52 128.5,-64.62 132.86,-63.02 137.44,-61.48 142.05,-60.01"/>
<polygon fill="#63b8ff" stroke="#63b8ff" points="142.8,-63.44 151.35,-57.18 140.76,-56.75 142.8,-63.44"/>
</a>
</g>
</g>
<!-- Node11 -->
<g id="Node000011" class="node">
<title>Node11</title>
<g id="a_Node000011"><a xlink:href="../../d7/da7/class_shape.html#a3fffc5f799f419e3e608e03ab1f3e913" target="_top" xlink:title="Shape Constructor.">
<polygon fill="white" stroke="#666666" points="231.88,-19.25 154.38,-19.25 154.38,0 231.88,0 231.88,-19.25"/>
<text text-anchor="middle" x="193.12" y="-5.75" font-family="Helvetica,sans-Serif" font-size="10.00">Shape::Shape</text>
</a>
</g>
</g>
<!-- Node1&#45;&gt;Node11 -->
<g id="edge12_Node000001_Node000011" class="edge">
<title>Node1&#45;&gt;Node11</title>
<g id="a_edge12_Node000001_Node000011"><a xlink:title=" ">
<path fill="none" stroke="#63b8ff" d="M55.41,-91.66C68.95,-75.78 97.65,-44.77 128.5,-27.62 133.15,-25.04 138.2,-22.81 143.35,-20.87"/>
<polygon fill="#63b8ff" stroke="#63b8ff" points="144.16,-24.29 152.54,-17.8 141.94,-17.65 144.16,-24.29"/>
</a>
</g>
</g>
<!-- Node4 -->
<g id="Node000004" class="node">
<title>Node4</title>
<g id="a_Node000004"><a xlink:href="../../d7/da7/class_shape.html#a4b502262ae5a22122456b9624d5ccb3d" target="_top" xlink:title="Accessor Functions &#45; Returns the data named after them.">
<polygon fill="white" stroke="#666666" points="405.75,-185.25 306.5,-185.25 306.5,-166 405.75,-166 405.75,-185.25"/>
<text text-anchor="middle" x="356.12" y="-171.75" font-family="Helvetica,sans-Serif" font-size="10.00">Shape::getShapeId</text>
</a>
</g>
</g>
<!-- Node3&#45;&gt;Node4 -->
<g id="edge3_Node000003_Node000004" class="edge">
<title>Node3&#45;&gt;Node4</title>
<g id="a_edge3_Node000003_Node000004"><a xlink:title=" ">
<path fill="none" stroke="#63b8ff" d="M256.83,-164.64C269.34,-166.03 282.45,-167.5 294.87,-168.89"/>
<polygon fill="#63b8ff" stroke="#63b8ff" points="294.21,-172.34 304.54,-169.97 294.99,-165.38 294.21,-172.34"/>
</a>
</g>
</g>
<!-- Node5 -->
<g id="Node000005" class="node">
<title>Node5</title>
<g id="a_Node000005"><a xlink:href="../../d7/da7/class_shape.html#aec4675c2b06d40373eefac4b982af242" target="_top" xlink:title=" ">
<polygon fill="white" stroke="#666666" points="408.38,-222.25 303.88,-222.25 303.88,-203 408.38,-203 408.38,-222.25"/>
<text text-anchor="middle" x="356.12" y="-208.75" font-family="Helvetica,sans-Serif" font-size="10.00">Shape::getTrackerId</text>
</a>
</g>
</g>
<!-- Node3&#45;&gt;Node5 -->
<g id="edge4_Node000003_Node000005" class="edge">
<title>Node3&#45;&gt;Node5</title>
<g id="a_edge4_Node000003_Node000005"><a xlink:title=" ">
<path fill="none" stroke="#63b8ff" d="M234.6,-167.7C242.38,-170.02 250.4,-172.68 257.75,-175.62 274.55,-182.35 276.99,-187.82 293.75,-194.62 297.58,-196.18 301.59,-197.66 305.65,-199.06"/>
<polygon fill="#63b8ff" stroke="#63b8ff" points="304.38,-202.33 314.97,-202.09 306.54,-195.67 304.38,-202.33"/>
</a>
</g>
</g>
<!-- Node6 -->
<g id="Node000006" class="node">
<title>Node6</title>
<g id="a_Node000006"><a xlink:href="../../d7/da7/class_shape.html#af604de36aa616c585bb30dedf5e5c68b" target="_top" xlink:title=" ">
<polygon fill="white" stroke="#666666" points="391.12,-111.25 321.12,-111.25 321.12,-92 391.12,-92 391.12,-111.25"/>
<text text-anchor="middle" x="356.12" y="-97.75" font-family="Helvetica,sans-Serif" font-size="10.00">Shape::getX</text>
</a>
</g>
</g>
<!-- Node3&#45;&gt;Node6 -->
<g id="edge5_Node000003_Node000006" class="edge">
<title>Node3&#45;&gt;Node6</title>
<g id="a_edge5_Node000003_Node000006"><a xlink:title=" ">
<path fill="none" stroke="#63b8ff" d="M234.99,-147.58C242.66,-145.27 250.53,-142.6 257.75,-139.62 274.67,-132.64 276.86,-126.69 293.75,-119.62 298.99,-117.43 304.59,-115.4 310.2,-113.54"/>
<polygon fill="#63b8ff" stroke="#63b8ff" points="310.94,-116.98 319.45,-110.66 308.86,-110.29 310.94,-116.98"/>
</a>
</g>
</g>
<!-- Node7 -->
<g id="Node000007" class="node">
<title>Node7</title>
<g id="a_Node000007"><a xlink:href="../../d7/da7/class_shape.html#a2e87ea4122381ffb83474f4b69247ded" target="_top" xlink:title=" ">
<polygon fill="white" stroke="#666666" points="391.12,-148.25 321.12,-148.25 321.12,-129 391.12,-129 391.12,-148.25"/>
<text text-anchor="middle" x="356.12" y="-134.75" font-family="Helvetica,sans-Serif" font-size="10.00">Shape::getY</text>
</a>
</g>
</g>
<!-- Node3&#45;&gt;Node7 -->
<g id="edge6_Node000003_Node000007" class="edge">
<title>Node3&#45;&gt;Node7</title>
<g id="a_edge6_Node000003_Node000007"><a xlink:title=" ">
<path fill="none" stroke="#63b8ff" d="M256.83,-150.22C274.31,-148.16 292.97,-145.96 309.28,-144.04"/>
<polygon fill="#63b8ff" stroke="#63b8ff" points="309.66,-147.51 319.19,-142.87 308.84,-140.56 309.66,-147.51"/>
</a>
</g>
</g>
<!-- Node9&#45;&gt;Node6 -->
<g id="edge9_Node000009_Node000006" class="edge">
<title>Node9&#45;&gt;Node6</title>
<g id="a_edge9_Node000009_Node000006"><a xlink:title=" ">
<path fill="none" stroke="#63b8ff" d="M258.22,-113.06C275.44,-111.03 293.7,-108.87 309.67,-106.99"/>
<polygon fill="#63b8ff" stroke="#63b8ff" points="309.83,-110.49 319.35,-105.85 309.01,-103.54 309.83,-110.49"/>
</a>
</g>
</g>
<!-- Node9&#45;&gt;Node7 -->
<g id="edge10_Node000009_Node000007" class="edge">
<title>Node9&#45;&gt;Node7</title>
<g id="a_edge10_Node000009_Node000007"><a xlink:title=" ">
<path fill="none" stroke="#63b8ff" d="M258.22,-127.79C275.44,-129.72 293.7,-131.76 309.67,-133.54"/>
<polygon fill="#63b8ff" stroke="#63b8ff" points="309.02,-136.99 319.35,-134.63 309.8,-130.04 309.02,-136.99"/>
</a>
</g>
</g>
<!-- Node12 -->
<g id="Node000012" class="node">
<title>Node12</title>
<g id="a_Node000012"><a xlink:href="../../d7/da7/class_shape.html#a520308cc2273f60cb19bf5664570bcf8" target="_top" xlink:title=" ">
<polygon fill="white" stroke="#666666" points="418.5,-19.25 293.75,-19.25 293.75,0 418.5,0 418.5,-19.25"/>
<text text-anchor="middle" x="356.12" y="-5.75" font-family="Helvetica,sans-Serif" font-size="10.00">Shape::allocateTrackerId</text>
</a>
</g>
</g>
<!-- Node11&#45;&gt;Node12 -->
<g id="edge13_Node000011_Node000012" class="edge">
<title>Node11&#45;&gt;Node12</title>
<g id="a_edge13_Node000011_Node000012"><a xlink:title=" ">
<path fill="none" stroke="#63b8ff" d="M232.28,-9.62C247.23,-9.62 264.91,-9.62 282.12,-9.62"/>
<polygon fill="#63b8ff" stroke="#63b8ff" points="281.82,-13.13 291.82,-9.63 281.82,-6.13 281.82,-13.13"/>
</a>
</g>
</g>
</g>
</svg>
