<?xml version="1.0" encoding="UTF-8" standalone="no"?>
<!DOCTYPE svg PUBLIC "-//W3C//DTD SVG 1.1//EN"
 "http://www.w3.org/Graphics/SVG/1.1/DTD/svg11.dtd">
<!-- Generated by graphviz version 12.2.1 (20241206.2353)
 -->
<!-- Title: Text::getFont Pages: 1 -->
<!--zoomable 468 -->

<svg id="main" version="1.1" xmlns="http://www.w3.org/2000/svg" xmlns:xlink="http://www.w3.org/1999/xlink" xml:space="preserve" onload="init(evt)">

<style type="text/css"><![CDATA[
.node, .edge {opacity: 0.7;}
.node.selected, .edge.selected {opacity: 1;}
.edge:hover path { stroke: red; }
.edge:hover polygon { stroke: red; fill: red; }
]]></style>

<defs>
  <circle id="rim" cx="0" cy="0" r="7"/>
  <circle id="rim2" cx="0" cy="0" r="3.5"/>
  <g id="zoomPlus">
    <use xlink:href="#rim" fill="#404040"><set attributeName="fill" to="#808080" begin="zoomplus.mouseover" end="zoomplus.mouseout"/></use>
    <path d="M-4,0h8M0,-4v8" fill="none" stroke="white" stroke-width="1.5" pointer-events="none"/>
  </g>
  <g id="zoomMin">
    <use xlink:href="#rim" fill="#404040"><set attributeName="fill" to="#808080" begin="zoomminus.mouseover" end="zoomminus.mouseout"/></use>
    <path d="M-4,0h8" fill="none" stroke="white" stroke-width="1.5" pointer-events="none"/>
  </g>
  <g id="arrowUp" transform="translate(30 24)">
    <use xlink:href="#rim"/>
    <path pointer-events="none" fill="none" stroke="white" stroke-width="1.5" d="M0,-3.0v7 M-2.5,-0.5L0,-3.0L2.5,-0.5"/>
  </g>
  <g id="arrowRight" transform="rotate(90) translate(36 -43)">
    <use xlink:href="#rim"/>
    <path pointer-events="none" fill="none" stroke="white" stroke-width="1.5" d="M0,-3.0v7 M-2.5,-0.5L0,-3.0L2.5,-0.5"/>
  </g>
  <g id="arrowDown" transform="rotate(180) translate(-30 -48)">
    <use xlink:href="#rim"/>
    <path pointer-events="none" fill="none" stroke="white" stroke-width="1.5" d="M0,-3.0v7 M-2.5,-0.5L0,-3.0L2.5,-0.5"/>
  </g>
  <g id="arrowLeft" transform="rotate(270) translate(-36 17)">
    <use xlink:href="#rim"/>
    <path pointer-events="none" fill="none" stroke="white" stroke-width="1.5" d="M0,-3.0v7 M-2.5,-0.5L0,-3.0L2.5,-0.5"/>
  </g>
  <g id="resetDef">
    <use xlink:href="#rim2" fill="#404040"><set attributeName="fill" to="#808080" begin="reset.mouseover" end="reset.mouseout"/></use>
  </g>
</defs>
<script type="application/ecmascript">
var viewWidth = 808;
var viewHeight = 468;
var sectionId = 'dynsection-4';
</script>
<script type="application/ecmascript" xlink:href="../../svg.min.js"/>
<svg id="graph" class="graph">
<g id="viewport">
<title>Text::getFont</title>
<!-- Node1 -->
<g id="Node000001" class="node">
<title>Node1</title>
<g id="a_Node000001"><a xlink:title=" ">
<polygon fill="#999999" stroke="#666666" points="800.25,-265.88 726.5,-265.88 726.5,-246.62 800.25,-246.62 800.25,-265.88"/>
<text text-anchor="middle" x="763.38" y="-252.38" font-family="Helvetica,sans-Serif" font-size="10.00">Text::getFont</text>
</a>
</g>
</g>
<!-- Node2 -->
<g id="Node000002" class="node">
<title>Node2</title>
<g id="a_Node000002"><a xlink:href="../../dc/db7/class_parser.html#a3c8d6dcf6e07231eaedb036ebe90b51f" target="_top" xlink:title="Appends all properties specific to Text objects to a JSON string.">
<polygon fill="white" stroke="#666666" points="514.38,-303.88 391.12,-303.88 391.12,-284.62 514.38,-284.62 514.38,-303.88"/>
<text text-anchor="middle" x="452.75" y="-290.38" font-family="Helvetica,sans-Serif" font-size="10.00">Parser::AppendTextData</text>
</a>
</g>
</g>
<!-- Node1&#45;&gt;Node2 -->
<g id="edge1_Node000001_Node000002" class="edge">
<title>Node1&#45;&gt;Node2</title>
<g id="a_edge1_Node000001_Node000002"><a xlink:title=" ">
<path fill="none" stroke="#63b8ff" d="M738.92,-272.4C725.42,-280.71 707.75,-289.97 690.5,-294.25 632.06,-308.75 562.97,-306.65 514.56,-302.21"/>
<polygon fill="#63b8ff" stroke="#63b8ff" points="740.57,-275.5 747.08,-267.15 736.78,-269.62 740.57,-275.5"/>
</a>
</g>
</g>
<!-- Node4 -->
<g id="Node000004" class="node">
<title>Node4</title>
<g id="a_Node000004"><a xlink:href="../../dc/db7/class_parser.html#a772810a8efbdda40d51d9a81125a45c0" target="_top" xlink:title="Gets the font style of a Text object as a string (e.g., &quot;StyleNormal&quot;, &quot;StyleItalic&quot;).">
<polygon fill="white" stroke="#666666" points="686.75,-284.88 578.5,-284.88 578.5,-265.62 686.75,-265.62 686.75,-284.88"/>
<text text-anchor="middle" x="632.62" y="-271.38" font-family="Helvetica,sans-Serif" font-size="10.00">Parser::GetFontStyle</text>
</a>
</g>
</g>
<!-- Node1&#45;&gt;Node4 -->
<g id="edge3_Node000001_Node000004" class="edge">
<title>Node1&#45;&gt;Node4</title>
<g id="a_edge3_Node000001_Node000004"><a xlink:title=" ">
<path fill="none" stroke="#63b8ff" d="M714.92,-263.25C705.79,-264.6 696.16,-266.02 686.86,-267.39"/>
<polygon fill="#63b8ff" stroke="#63b8ff" points="715.29,-266.74 724.67,-261.81 714.27,-259.81 715.29,-266.74"/>
</a>
</g>
</g>
<!-- Node5 -->
<g id="Node000005" class="node">
<title>Node5</title>
<g id="a_Node000005"><a xlink:href="../../dc/db7/class_parser.html#ae8599ff5bde69ad1ceb08f81b955539d" target="_top" xlink:title="Gets the font weight of a Text object as a string (e.g., &quot;Normal&quot;, &quot;Bold&quot;).">
<polygon fill="white" stroke="#666666" points="690.5,-247.88 574.75,-247.88 574.75,-228.62 690.5,-228.62 690.5,-247.88"/>
<text text-anchor="middle" x="632.62" y="-234.38" font-family="Helvetica,sans-Serif" font-size="10.00">Parser::GetFontWeight</text>
</a>
</g>
</g>
<!-- Node1&#45;&gt;Node5 -->
<g id="edge5_Node000001_Node000005" class="edge">
<title>Node1&#45;&gt;Node5</title>
<g id="a_edge5_Node000001_Node000005"><a xlink:title=" ">
<path fill="none" stroke="#63b8ff" d="M714.95,-249.62C707.08,-248.52 698.84,-247.37 690.75,-246.24"/>
<polygon fill="#63b8ff" stroke="#63b8ff" points="714.28,-253.06 724.67,-250.98 715.25,-246.13 714.28,-253.06"/>
</a>
</g>
</g>
<!-- Node6 -->
<g id="Node000006" class="node">
<title>Node6</title>
<g id="a_Node000006"><a xlink:href="../../d9/dc6/class_main_window.html#a5ff173340d6b138bee993d26454d2aaa" target="_top" xlink:title="Populates the tree widget with details of the current shapes and sets up editing controls.">
<polygon fill="white" stroke="#666666" points="687.5,-192.5 577.75,-192.5 577.75,-162 687.5,-162 687.5,-192.5"/>
<text text-anchor="start" x="585.75" y="-179" font-family="Helvetica,sans-Serif" font-size="10.00">MainWindow::shapes</text>
<text text-anchor="middle" x="632.62" y="-167.75" font-family="Helvetica,sans-Serif" font-size="10.00">_to_treeWidget</text>
</a>
</g>
</g>
<!-- Node1&#45;&gt;Node6 -->
<g id="edge7_Node000001_Node000006" class="edge">
<title>Node1&#45;&gt;Node6</title>
<g id="a_edge7_Node000001_Node000006"><a xlink:title=" ">
<path fill="none" stroke="#63b8ff" d="M736.49,-240.37C713.97,-226.55 681.51,-206.63 659.11,-192.88"/>
<polygon fill="#63b8ff" stroke="#63b8ff" points="734.42,-243.21 744.78,-245.45 738.09,-237.24 734.42,-243.21"/>
</a>
</g>
</g>
<!-- Node3 -->
<g id="Node000003" class="node">
<title>Node3</title>
<g id="a_Node000003"><a xlink:href="../../dc/db7/class_parser.html#ac0dc74d228421b62ece9d9e93511509e" target="_top" xlink:title="Converts a vector of Shape pointers into a JSON string representation.">
<polygon fill="white" stroke="#666666" points="316.88,-459.88 201.88,-459.88 201.88,-440.62 316.88,-440.62 316.88,-459.88"/>
<text text-anchor="middle" x="259.38" y="-446.38" font-family="Helvetica,sans-Serif" font-size="10.00">Parser::ShapesToJson</text>
</a>
</g>
</g>
<!-- Node2&#45;&gt;Node3 -->
<g id="edge2_Node000002_Node000003" class="edge">
<title>Node2&#45;&gt;Node3</title>
<g id="a_edge2_Node000002_Node000003"><a xlink:title=" ">
<path fill="none" stroke="#63b8ff" d="M439.75,-314.05C420.53,-344.04 379.98,-400.69 330.75,-431.25 324.94,-434.85 318.46,-437.78 311.83,-440.16"/>
<polygon fill="#63b8ff" stroke="#63b8ff" points="442.7,-315.93 445.04,-305.59 436.77,-312.22 442.7,-315.93"/>
</a>
</g>
</g>
<!-- Node4&#45;&gt;Node2 -->
<g id="edge4_Node000004_Node000002" class="edge">
<title>Node4&#45;&gt;Node2</title>
<g id="a_edge4_Node000004_Node000002"><a xlink:title=" ">
<path fill="none" stroke="#63b8ff" d="M567.19,-282.13C550.03,-283.97 531.54,-285.94 514.57,-287.75"/>
<polygon fill="#63b8ff" stroke="#63b8ff" points="567.18,-285.65 576.75,-281.11 566.44,-278.69 567.18,-285.65"/>
</a>
</g>
</g>
<!-- Node5&#45;&gt;Node2 -->
<g id="edge6_Node000005_Node000002" class="edge">
<title>Node5&#45;&gt;Node2</title>
<g id="a_edge6_Node000005_Node000002"><a xlink:title=" ">
<path fill="none" stroke="#63b8ff" d="M589.11,-251.64C557.4,-261.62 514.76,-275.04 485.87,-284.14"/>
<polygon fill="#63b8ff" stroke="#63b8ff" points="589.89,-255.06 598.38,-248.72 587.79,-248.38 589.89,-255.06"/>
</a>
</g>
</g>
<!-- Node7 -->
<g id="Node000007" class="node">
<title>Node7</title>
<g id="a_Node000007"><a xlink:href="../../d9/dc6/class_main_window.html#afe8619a02bba82d0ad5e05065d6c0ea1" target="_top" xlink:title="Adds a given shape to the properties tree widget and emits shapeAdded signal.">
<polygon fill="white" stroke="#666666" points="528.62,-220.88 376.88,-220.88 376.88,-201.62 528.62,-201.62 528.62,-220.88"/>
<text text-anchor="middle" x="452.75" y="-207.38" font-family="Helvetica,sans-Serif" font-size="10.00">MainWindow::addToShapeTree</text>
</a>
</g>
</g>
<!-- Node6&#45;&gt;Node7 -->
<g id="edge8_Node000006_Node000007" class="edge">
<title>Node6&#45;&gt;Node7</title>
<g id="a_edge8_Node000006_Node000007"><a xlink:title=" ">
<path fill="none" stroke="#63b8ff" d="M566.25,-189.75C546.59,-193.5 525.27,-197.58 506.53,-201.16"/>
<polygon fill="#63b8ff" stroke="#63b8ff" points="566.64,-193.24 575.8,-187.92 565.32,-186.36 566.64,-193.24"/>
</a>
</g>
</g>
<!-- Node16 -->
<g id="Node000016" class="node">
<title>Node16</title>
<g id="a_Node000016"><a xlink:href="../../d9/dc6/class_main_window.html#a841a40f673ad191cd737b49591568446" target="_top" xlink:title="Slot triggered when the render area&#39;s content has changed, requiring a UI update.">
<polygon fill="white" stroke="#666666" points="523,-156.5 382.5,-156.5 382.5,-126 523,-126 523,-156.5"/>
<text text-anchor="start" x="390.5" y="-143" font-family="Helvetica,sans-Serif" font-size="10.00">MainWindow::onRenderArea</text>
<text text-anchor="middle" x="452.75" y="-131.75" font-family="Helvetica,sans-Serif" font-size="10.00">Changed</text>
</a>
</g>
</g>
<!-- Node6&#45;&gt;Node16 -->
<g id="edge17_Node000006_Node000016" class="edge">
<title>Node6&#45;&gt;Node16</title>
<g id="a_edge17_Node000006_Node000016"><a xlink:title=" ">
<path fill="none" stroke="#63b8ff" d="M566.25,-164.02C552.23,-161.18 537.36,-158.17 523.19,-155.3"/>
<polygon fill="#63b8ff" stroke="#63b8ff" points="565.31,-167.4 575.81,-165.95 566.7,-160.54 565.31,-167.4"/>
</a>
</g>
</g>
<!-- Node20 -->
<g id="Node000020" class="node">
<title>Node20</title>
<g id="a_Node000020"><a xlink:href="../../d9/dc6/class_main_window.html#a04d9898f7479308e0e7e2b8796426c2b" target="_top" xlink:title="Slot triggered upon successful user authentication. Updates UI with user info.">
<polygon fill="white" stroke="#666666" points="538.75,-98.88 366.75,-98.88 366.75,-79.62 538.75,-79.62 538.75,-98.88"/>
<text text-anchor="middle" x="452.75" y="-85.38" font-family="Helvetica,sans-Serif" font-size="10.00">MainWindow::onUserAuthentication</text>
</a>
</g>
</g>
<!-- Node6&#45;&gt;Node20 -->
<g id="edge21_Node000006_Node000020" class="edge">
<title>Node6&#45;&gt;Node20</title>
<g id="a_edge21_Node000006_Node000020"><a xlink:title=" ">
<path fill="none" stroke="#63b8ff" d="M601.57,-155.03C583.92,-142.71 560.82,-127.8 538.75,-117.25 523.61,-110.01 506.12,-103.9 490.95,-99.25"/>
<polygon fill="#63b8ff" stroke="#63b8ff" points="599.35,-157.75 609.53,-160.68 603.41,-152.04 599.35,-157.75"/>
</a>
</g>
</g>
<!-- Node8 -->
<g id="Node000008" class="node">
<title>Node8</title>
<g id="a_Node000008"><a xlink:href="../../d9/dc6/class_main_window.html#a9b9bf9b3d640e2bcace3cbfdc5d75d8b" target="_top" xlink:title="Slot triggered to create and add a new Circle shape.">
<polygon fill="white" stroke="#666666" points="328.5,-422.5 190.25,-422.5 190.25,-392 328.5,-392 328.5,-422.5"/>
<text text-anchor="start" x="198.25" y="-409" font-family="Helvetica,sans-Serif" font-size="10.00">MainWindow::on_actionnew</text>
<text text-anchor="middle" x="259.38" y="-397.75" font-family="Helvetica,sans-Serif" font-size="10.00">_circle_button_triggered</text>
</a>
</g>
</g>
<!-- Node7&#45;&gt;Node8 -->
<g id="edge9_Node000007_Node000008" class="edge">
<title>Node7&#45;&gt;Node8</title>
<g id="a_edge9_Node000007_Node000008"><a xlink:title=" ">
<path fill="none" stroke="#63b8ff" d="M422.6,-227.02C404.25,-238.28 381.36,-254.99 366.75,-275.25 337.39,-315.94 365.93,-346.47 330.75,-382.25 327.2,-385.86 323.11,-388.94 318.71,-391.59"/>
<polygon fill="#63b8ff" stroke="#63b8ff" points="424.36,-230.04 431.21,-221.95 420.81,-224.01 424.36,-230.04"/>
</a>
</g>
</g>
<!-- Node9 -->
<g id="Node000009" class="node">
<title>Node9</title>
<g id="a_Node000009"><a xlink:href="../../d9/dc6/class_main_window.html#a4e25fe2c6dd72b44efdf2d1b1e9c1846" target="_top" xlink:title="Slot triggered to create and add a new Ellipse shape.">
<polygon fill="white" stroke="#666666" points="328.5,-373.5 190.25,-373.5 190.25,-343 328.5,-343 328.5,-373.5"/>
<text text-anchor="start" x="198.25" y="-360" font-family="Helvetica,sans-Serif" font-size="10.00">MainWindow::on_actionnew</text>
<text text-anchor="middle" x="259.38" y="-348.75" font-family="Helvetica,sans-Serif" font-size="10.00">_ellipse_button_triggered</text>
</a>
</g>
</g>
<!-- Node7&#45;&gt;Node9 -->
<g id="edge10_Node000007_Node000009" class="edge">
<title>Node7&#45;&gt;Node9</title>
<g id="a_edge10_Node000007_Node000009"><a xlink:title=" ">
<path fill="none" stroke="#63b8ff" d="M425.4,-227.37C407.5,-239.16 384.02,-256.35 366.75,-275.25 346.28,-297.65 354.37,-314.21 330.75,-333.25 326.31,-336.83 321.31,-339.92 316.09,-342.58"/>
<polygon fill="#63b8ff" stroke="#63b8ff" points="427.16,-230.4 433.69,-222.05 423.38,-224.51 427.16,-230.4"/>
</a>
</g>
</g>
<!-- Node10 -->
<g id="Node000010" class="node">
<title>Node10</title>
<g id="a_Node000010"><a xlink:href="../../d9/dc6/class_main_window.html#abd3987548635bfd1133f8f0d5e0a1879" target="_top" xlink:title="Slot triggered to create and add a new Line shape.">
<polygon fill="white" stroke="#666666" points="328.5,-324.5 190.25,-324.5 190.25,-294 328.5,-294 328.5,-324.5"/>
<text text-anchor="start" x="198.25" y="-311" font-family="Helvetica,sans-Serif" font-size="10.00">MainWindow::on_actionnew</text>
<text text-anchor="middle" x="259.38" y="-299.75" font-family="Helvetica,sans-Serif" font-size="10.00">_line_button_triggered</text>
</a>
</g>
</g>
<!-- Node7&#45;&gt;Node10 -->
<g id="edge11_Node000007_Node000010" class="edge">
<title>Node7&#45;&gt;Node10</title>
<g id="a_edge11_Node000007_Node000010"><a xlink:title=" ">
<path fill="none" stroke="#63b8ff" d="M428.1,-227.49C404.27,-243.37 366.06,-267.53 330.75,-284.25 323.72,-287.58 316.12,-290.72 308.6,-293.58"/>
<polygon fill="#63b8ff" stroke="#63b8ff" points="429.79,-230.57 436.13,-222.08 425.88,-224.76 429.79,-230.57"/>
</a>
</g>
</g>
<!-- Node11 -->
<g id="Node000011" class="node">
<title>Node11</title>
<g id="a_Node000011"><a xlink:href="../../d9/dc6/class_main_window.html#a28e2b0b2efac43e0553aef6a8d23aee5" target="_top" xlink:title="Slot triggered to create and add a new Polygon shape.">
<polygon fill="white" stroke="#666666" points="328.5,-275.5 190.25,-275.5 190.25,-245 328.5,-245 328.5,-275.5"/>
<text text-anchor="start" x="198.25" y="-262" font-family="Helvetica,sans-Serif" font-size="10.00">MainWindow::on_actionnew</text>
<text text-anchor="middle" x="259.38" y="-250.75" font-family="Helvetica,sans-Serif" font-size="10.00">_polygon_button_triggered</text>
</a>
</g>
</g>
<!-- Node7&#45;&gt;Node11 -->
<g id="edge12_Node000007_Node000011" class="edge">
<title>Node7&#45;&gt;Node11</title>
<g id="a_edge12_Node000007_Node000011"><a xlink:title=" ">
<path fill="none" stroke="#63b8ff" d="M401.72,-224.06C377.25,-230.33 347.57,-237.92 321.74,-244.54"/>
<polygon fill="#63b8ff" stroke="#63b8ff" points="402.28,-227.53 411.09,-221.66 400.54,-220.75 402.28,-227.53"/>
</a>
</g>
</g>
<!-- Node12 -->
<g id="Node000012" class="node">
<title>Node12</title>
<g id="a_Node000012"><a xlink:href="../../d9/dc6/class_main_window.html#ab4fc6a65cac38759157fd77d12497a89" target="_top" xlink:title="Slot triggered to create and add a new Polyline shape.">
<polygon fill="white" stroke="#666666" points="328.5,-226.5 190.25,-226.5 190.25,-196 328.5,-196 328.5,-226.5"/>
<text text-anchor="start" x="198.25" y="-213" font-family="Helvetica,sans-Serif" font-size="10.00">MainWindow::on_actionnew</text>
<text text-anchor="middle" x="259.38" y="-201.75" font-family="Helvetica,sans-Serif" font-size="10.00">_polyline_button_triggered</text>
</a>
</g>
</g>
<!-- Node7&#45;&gt;Node12 -->
<g id="edge13_Node000007_Node000012" class="edge">
<title>Node7&#45;&gt;Node12</title>
<g id="a_edge13_Node000007_Node000012"><a xlink:title=" ">
<path fill="none" stroke="#63b8ff" d="M364.88,-211.25C352.79,-211.25 340.51,-211.25 328.82,-211.25"/>
<polygon fill="#63b8ff" stroke="#63b8ff" points="364.87,-214.75 374.87,-211.25 364.87,-207.75 364.87,-214.75"/>
</a>
</g>
</g>
<!-- Node13 -->
<g id="Node000013" class="node">
<title>Node13</title>
<g id="a_Node000013"><a xlink:href="../../d9/dc6/class_main_window.html#af65e6b1a5513198eece131b1d164a978" target="_top" xlink:title="Slot triggered to create and add a new Rectangle shape.">
<polygon fill="white" stroke="#666666" points="328.5,-177.5 190.25,-177.5 190.25,-147 328.5,-147 328.5,-177.5"/>
<text text-anchor="start" x="198.25" y="-164" font-family="Helvetica,sans-Serif" font-size="10.00">MainWindow::on_actionnew</text>
<text text-anchor="middle" x="259.38" y="-152.75" font-family="Helvetica,sans-Serif" font-size="10.00">_rectange_button_triggered</text>
</a>
</g>
</g>
<!-- Node7&#45;&gt;Node13 -->
<g id="edge14_Node000007_Node000013" class="edge">
<title>Node7&#45;&gt;Node13</title>
<g id="a_edge14_Node000007_Node000013"><a xlink:title=" ">
<path fill="none" stroke="#63b8ff" d="M401.72,-198.44C377.25,-192.17 347.57,-184.58 321.74,-177.96"/>
<polygon fill="#63b8ff" stroke="#63b8ff" points="400.54,-201.75 411.09,-200.84 402.28,-194.97 400.54,-201.75"/>
</a>
</g>
</g>
<!-- Node14 -->
<g id="Node000014" class="node">
<title>Node14</title>
<g id="a_Node000014"><a xlink:href="../../d9/dc6/class_main_window.html#a7d1d40640f58ce6dd36eabcee8ecdc6e" target="_top" xlink:title="Slot triggered to create and add a new Square shape.">
<polygon fill="white" stroke="#666666" points="328.5,-128.5 190.25,-128.5 190.25,-98 328.5,-98 328.5,-128.5"/>
<text text-anchor="start" x="198.25" y="-115" font-family="Helvetica,sans-Serif" font-size="10.00">MainWindow::on_actionnew</text>
<text text-anchor="middle" x="259.38" y="-103.75" font-family="Helvetica,sans-Serif" font-size="10.00">_square_button_triggered</text>
</a>
</g>
</g>
<!-- Node7&#45;&gt;Node14 -->
<g id="edge15_Node000007_Node000014" class="edge">
<title>Node7&#45;&gt;Node14</title>
<g id="a_edge15_Node000007_Node000014"><a xlink:title=" ">
<path fill="none" stroke="#63b8ff" d="M421.18,-196.1C404.72,-187.59 384.25,-176.46 366.75,-165.25 349.91,-154.46 348.37,-147.71 330.75,-138.25 324.35,-134.82 317.39,-131.69 310.41,-128.9"/>
<polygon fill="#63b8ff" stroke="#63b8ff" points="419.5,-199.17 430,-200.59 422.68,-192.93 419.5,-199.17"/>
</a>
</g>
</g>
<!-- Node15 -->
<g id="Node000015" class="node">
<title>Node15</title>
<g id="a_Node000015"><a xlink:href="../../d9/dc6/class_main_window.html#aebcb152e26ef6d6bd4fc348e815fe8c8" target="_top" xlink:title="Slot triggered to create and add a new Text shape.">
<polygon fill="white" stroke="#666666" points="328.5,-79.5 190.25,-79.5 190.25,-49 328.5,-49 328.5,-79.5"/>
<text text-anchor="start" x="198.25" y="-66" font-family="Helvetica,sans-Serif" font-size="10.00">MainWindow::on_actionnew</text>
<text text-anchor="middle" x="259.38" y="-54.75" font-family="Helvetica,sans-Serif" font-size="10.00">_text_button_triggered</text>
</a>
</g>
</g>
<!-- Node7&#45;&gt;Node15 -->
<g id="edge16_Node000007_Node000015" class="edge">
<title>Node7&#45;&gt;Node15</title>
<g id="a_edge16_Node000007_Node000015"><a xlink:title=" ">
<path fill="none" stroke="#63b8ff" d="M413.05,-196.65C397.16,-189.16 379.53,-178.74 366.75,-165.25 341.04,-138.12 358.48,-114.31 330.75,-89.25 326.81,-85.69 322.32,-82.62 317.57,-79.99"/>
<polygon fill="#63b8ff" stroke="#63b8ff" points="411.23,-199.67 421.79,-200.54 414.08,-193.28 411.23,-199.67"/>
</a>
</g>
</g>
<!-- Node17 -->
<g id="Node000017" class="node">
<title>Node17</title>
<g id="a_Node000017"><a xlink:href="../../d7/de6/class_app_driver.html#af39fbba491cc4dc1d378d6e140507554" target="_top" xlink:title="Connects signals from backend managers to slots in the frontend UI.">
<polygon fill="white" stroke="#666666" points="330.75,-30.5 188,-30.5 188,0 330.75,0 330.75,-30.5"/>
<text text-anchor="start" x="196" y="-17" font-family="Helvetica,sans-Serif" font-size="10.00">AppDriver::connectManagers</text>
<text text-anchor="middle" x="259.38" y="-5.75" font-family="Helvetica,sans-Serif" font-size="10.00">ToFrontend</text>
</a>
</g>
</g>
<!-- Node16&#45;&gt;Node17 -->
<g id="edge18_Node000016_Node000017" class="edge">
<title>Node16&#45;&gt;Node17</title>
<g id="a_edge18_Node000016_Node000017"><a xlink:title=" ">
<path fill="none" stroke="#63b8ff" d="M384.39,-120.51C378.05,-117.01 372.03,-112.95 366.75,-108.25 341.2,-85.52 356.62,-62.61 330.75,-40.25 326.63,-36.69 321.97,-33.62 317.05,-30.99"/>
<polygon fill="#63b8ff" stroke="#63b8ff" points="382.7,-123.58 393.21,-124.9 385.82,-117.31 382.7,-123.58"/>
</a>
</g>
</g>
<!-- Node18 -->
<g id="Node000018" class="node">
<title>Node18</title>
<g id="a_Node000018"><a xlink:href="../../d7/de6/class_app_driver.html#af5bf7b6bd96161d95a0a67cc7693127d" target="_top" xlink:title="Initializes and shows the main application window and loads initial data.">
<polygon fill="white" stroke="#666666" points="152,-24.88 73,-24.88 73,-5.63 152,-5.63 152,-24.88"/>
<text text-anchor="middle" x="112.5" y="-11.38" font-family="Helvetica,sans-Serif" font-size="10.00">AppDriver::run</text>
</a>
</g>
</g>
<!-- Node17&#45;&gt;Node18 -->
<g id="edge19_Node000017_Node000018" class="edge">
<title>Node17&#45;&gt;Node18</title>
<g id="a_edge19_Node000017_Node000018"><a xlink:title=" ">
<path fill="none" stroke="#63b8ff" d="M176.21,-15.25C167.88,-15.25 159.73,-15.25 152.2,-15.25"/>
<polygon fill="#63b8ff" stroke="#63b8ff" points="176.12,-18.75 186.12,-15.25 176.12,-11.75 176.12,-18.75"/>
</a>
</g>
</g>
<!-- Node19 -->
<g id="Node000019" class="node">
<title>Node19</title>
<g id="a_Node000019"><a xlink:href="../../d8/d80/src_2backend_2main_8cpp.html#a0ddf1224851353fc92bfbff6f499fa97" target="_top" xlink:title=" ">
<polygon fill="white" stroke="#666666" points="37,-24.88 0,-24.88 0,-5.63 37,-5.63 37,-24.88"/>
<text text-anchor="middle" x="18.5" y="-11.38" font-family="Helvetica,sans-Serif" font-size="10.00">main</text>
</a>
</g>
</g>
<!-- Node18&#45;&gt;Node19 -->
<g id="edge20_Node000018_Node000019" class="edge">
<title>Node18&#45;&gt;Node19</title>
<g id="a_edge20_Node000018_Node000019"><a xlink:title=" ">
<path fill="none" stroke="#63b8ff" d="M61.34,-15.25C52.67,-15.25 44.2,-15.25 37.18,-15.25"/>
<polygon fill="#63b8ff" stroke="#63b8ff" points="61.24,-18.75 71.24,-15.25 61.24,-11.75 61.24,-18.75"/>
</a>
</g>
</g>
<!-- Node20&#45;&gt;Node17 -->
<g id="edge22_Node000020_Node000017" class="edge">
<title>Node20&#45;&gt;Node17</title>
<g id="a_edge22_Node000020_Node000017"><a xlink:title=" ">
<path fill="none" stroke="#63b8ff" d="M417.35,-74.86C393.22,-64.87 360.15,-51.42 330.75,-40.25 322.63,-37.16 313.94,-33.98 305.53,-30.96"/>
<polygon fill="#63b8ff" stroke="#63b8ff" points="415.79,-78 426.37,-78.6 418.47,-71.53 415.79,-78"/>
</a>
</g>
</g>
</g>
</svg>

<g id="navigator" transform="translate(0 0)" fill="#404254">
  <rect fill="#f2f5e9" fill-opacity="0.5" stroke="#606060" stroke-width=".5" x="0" y="0" width="60" height="60"/>
  <use id="zoomplus" xlink:href="#zoomPlus" x="17" y="9" onmousedown="handleZoom(evt,'in')"/>
  <use id="zoomminus" xlink:href="#zoomMin" x="42" y="9" onmousedown="handleZoom(evt,'out')"/>
  <use id="reset" xlink:href="#resetDef" x="30" y="36" onmousedown="handleReset()"/>
   <use id="arrowup" xlink:href="#arrowUp" x="0" y="0" onmousedown="handlePan(0,-1)"/>
  <use id="arrowright" xlink:href="#arrowRight" x="0" y="0" onmousedown="handlePan(1,0)"/>
  <use id="arrowdown" xlink:href="#arrowDown" x="0" y="0" onmousedown="handlePan(0,1)"/>
  <use id="arrowleft" xlink:href="#arrowLeft" x="0" y="0" onmousedown="handlePan(-1,0)"/>
</g>
<svg viewBox="0 0 15 15" width="100%" height="30px" preserveAspectRatio="xMaxYMin meet">
 <g id="arrow_out" transform="scale(0.3 0.3)">
  <a xlink:href="class_text_ace6ab02148fe23efffcd3f7c3dde9183_icgraph_org.svg" target="_base">
   <rect id="button" ry="5" rx="5" y="6" x="6" height="38" width="38"
        fill="#f2f5e9" fill-opacity="0.5" stroke="#606060" stroke-width="1.0"/>
   <path id="arrow"
     d="M 11.500037,31.436501 C 11.940474,20.09759 22.043105,11.32322 32.158766,21.979434 L 37.068811,17.246167 C 37.068811,17.246167 37.088388,32 37.088388,32 L 22.160133,31.978069 C 22.160133,31.978069 26.997745,27.140456 26.997745,27.140456 C 18.528582,18.264221 13.291696,25.230495 11.500037,31.436501 z"
     style="fill:#404040;"/>
  </a>
 </g>
</svg>

<style type='text/css'>
<![CDATA[
[data-mouse-over-selected='false'] { opacity: 0.7; }
[data-mouse-over-selected='true']  { opacity: 1.0; }
]]>
</style>
<script type="application/ecmascript"><![CDATA[
document.addEventListener('DOMContentLoaded', (event) => {
  highlightEdges();
  highlightAdjacentNodes();
});
]]></script>
</svg>
