<?xml version="1.0" encoding="UTF-8" standalone="no"?>
<!DOCTYPE svg PUBLIC "-//W3C//DTD SVG 1.1//EN"
 "http://www.w3.org/Graphics/SVG/1.1/DTD/svg11.dtd">
<!-- Generated by graphviz version 12.2.1 (20241206.2353)
 -->
<!-- Title: Text::getTextString Pages: 1 -->
<svg width="417pt" height="64pt"
 viewBox="0.00 0.00 416.75 64.25" xmlns="http://www.w3.org/2000/svg" xmlns:xlink="http://www.w3.org/1999/xlink">
<g id="graph0" class="graph" transform="scale(1 1) rotate(0) translate(4 60.25)">
<title>Text::getTextString</title>
<!-- Node1 -->
<g id="Node000001" class="node">
<title>Node1</title>
<g id="a_Node000001"><a xlink:title=" ">
<polygon fill="#999999" stroke="#666666" points="408.75,-37.25 310.25,-37.25 310.25,-18 408.75,-18 408.75,-37.25"/>
<text text-anchor="middle" x="359.5" y="-23.75" font-family="Helvetica,sans-Serif" font-size="10.00">Text::getTextString</text>
</a>
</g>
</g>
<!-- Node2 -->
<g id="Node000002" class="node">
<title>Node2</title>
<g id="a_Node000002"><a xlink:href="../../dc/db7/class_parser.html#a3c8d6dcf6e07231eaedb036ebe90b51f" target="_top" xlink:title="Appends all properties specific to Text objects to a JSON string.">
<polygon fill="white" stroke="#666666" points="274.25,-56.25 151,-56.25 151,-37 274.25,-37 274.25,-56.25"/>
<text text-anchor="middle" x="212.62" y="-42.75" font-family="Helvetica,sans-Serif" font-size="10.00">Parser::AppendTextData</text>
</a>
</g>
</g>
<!-- Node1&#45;&gt;Node2 -->
<g id="edge1_Node000001_Node000002" class="edge">
<title>Node1&#45;&gt;Node2</title>
<g id="a_edge1_Node000001_Node000002"><a xlink:title=" ">
<path fill="none" stroke="#63b8ff" d="M298.54,-35.49C290.68,-36.52 282.62,-37.58 274.75,-38.61"/>
<polygon fill="#63b8ff" stroke="#63b8ff" points="298.9,-38.97 308.36,-34.2 297.98,-32.03 298.9,-38.97"/>
</a>
</g>
</g>
<!-- Node4 -->
<g id="Node000004" class="node">
<title>Node4</title>
<g id="a_Node000004"><a xlink:href="../../da/d0e/class_text.html#a3c521086182cf14349dc8c120afd9d09" target="_top" xlink:title="Text.">
<polygon fill="white" stroke="#666666" points="242.38,-19.25 182.88,-19.25 182.88,0 242.38,0 242.38,-19.25"/>
<text text-anchor="middle" x="212.62" y="-5.75" font-family="Helvetica,sans-Serif" font-size="10.00">Text::Text</text>
</a>
</g>
</g>
<!-- Node1&#45;&gt;Node4 -->
<g id="edge3_Node000001_Node000004" class="edge">
<title>Node1&#45;&gt;Node4</title>
<g id="a_edge3_Node000001_Node000004"><a xlink:title=" ">
<path fill="none" stroke="#63b8ff" d="M298.62,-20.19C279.22,-17.77 258.58,-15.21 242.5,-13.21"/>
<polygon fill="#63b8ff" stroke="#63b8ff" points="298,-23.63 308.35,-21.39 298.86,-16.69 298,-23.63"/>
</a>
</g>
</g>
<!-- Node3 -->
<g id="Node000003" class="node">
<title>Node3</title>
<g id="a_Node000003"><a xlink:href="../../dc/db7/class_parser.html#ac0dc74d228421b62ece9d9e93511509e" target="_top" xlink:title="Converts a vector of Shape pointers into a JSON string representation.">
<polygon fill="white" stroke="#666666" points="115,-56.25 0,-56.25 0,-37 115,-37 115,-56.25"/>
<text text-anchor="middle" x="57.5" y="-42.75" font-family="Helvetica,sans-Serif" font-size="10.00">Parser::ShapesToJson</text>
</a>
</g>
</g>
<!-- Node2&#45;&gt;Node3 -->
<g id="edge2_Node000002_Node000003" class="edge">
<title>Node2&#45;&gt;Node3</title>
<g id="a_edge2_Node000002_Node000003"><a xlink:title=" ">
<path fill="none" stroke="#63b8ff" d="M139.33,-46.62C131.25,-46.62 123.11,-46.62 115.27,-46.62"/>
<polygon fill="#63b8ff" stroke="#63b8ff" points="139.15,-50.13 149.15,-46.63 139.15,-43.13 139.15,-50.13"/>
</a>
</g>
</g>
</g>
</svg>
