<?xml version="1.0" encoding="UTF-8" standalone="no"?>
<!DOCTYPE svg PUBLIC "-//W3C//DTD SVG 1.1//EN"
 "http://www.w3.org/Graphics/SVG/1.1/DTD/svg11.dtd">
<!-- Generated by graphviz version 12.2.1 (20241206.2353)
 -->
<!-- Title: Text::getFontStyle Pages: 1 -->
<!--zoomable 431 -->

<svg id="main" version="1.1" xmlns="http://www.w3.org/2000/svg" xmlns:xlink="http://www.w3.org/1999/xlink" xml:space="preserve" onload="init(evt)">

<style type="text/css"><![CDATA[
.node, .edge {opacity: 0.7;}
.node.selected, .edge.selected {opacity: 1;}
.edge:hover path { stroke: red; }
.edge:hover polygon { stroke: red; fill: red; }
]]></style>

<defs>
  <circle id="rim" cx="0" cy="0" r="7"/>
  <circle id="rim2" cx="0" cy="0" r="3.5"/>
  <g id="zoomPlus">
    <use xlink:href="#rim" fill="#404040"><set attributeName="fill" to="#808080" begin="zoomplus.mouseover" end="zoomplus.mouseout"/></use>
    <path d="M-4,0h8M0,-4v8" fill="none" stroke="white" stroke-width="1.5" pointer-events="none"/>
  </g>
  <g id="zoomMin">
    <use xlink:href="#rim" fill="#404040"><set attributeName="fill" to="#808080" begin="zoomminus.mouseover" end="zoomminus.mouseout"/></use>
    <path d="M-4,0h8" fill="none" stroke="white" stroke-width="1.5" pointer-events="none"/>
  </g>
  <g id="arrowUp" transform="translate(30 24)">
    <use xlink:href="#rim"/>
    <path pointer-events="none" fill="none" stroke="white" stroke-width="1.5" d="M0,-3.0v7 M-2.5,-0.5L0,-3.0L2.5,-0.5"/>
  </g>
  <g id="arrowRight" transform="rotate(90) translate(36 -43)">
    <use xlink:href="#rim"/>
    <path pointer-events="none" fill="none" stroke="white" stroke-width="1.5" d="M0,-3.0v7 M-2.5,-0.5L0,-3.0L2.5,-0.5"/>
  </g>
  <g id="arrowDown" transform="rotate(180) translate(-30 -48)">
    <use xlink:href="#rim"/>
    <path pointer-events="none" fill="none" stroke="white" stroke-width="1.5" d="M0,-3.0v7 M-2.5,-0.5L0,-3.0L2.5,-0.5"/>
  </g>
  <g id="arrowLeft" transform="rotate(270) translate(-36 17)">
    <use xlink:href="#rim"/>
    <path pointer-events="none" fill="none" stroke="white" stroke-width="1.5" d="M0,-3.0v7 M-2.5,-0.5L0,-3.0L2.5,-0.5"/>
  </g>
  <g id="resetDef">
    <use xlink:href="#rim2" fill="#404040"><set attributeName="fill" to="#808080" begin="reset.mouseover" end="reset.mouseout"/></use>
  </g>
</defs>
<script type="application/ecmascript">
var viewWidth = 825;
var viewHeight = 431;
var sectionId = 'dynsection-5';
</script>
<script type="application/ecmascript" xlink:href="../../svg.min.js"/>
<svg id="graph" class="graph">
<g id="viewport">
<title>Text::getFontStyle</title>
<!-- Node1 -->
<g id="Node000001" class="node">
<title>Node1</title>
<g id="a_Node000001"><a xlink:title=" ">
<polygon fill="#999999" stroke="#666666" points="816.75,-67.88 720.5,-67.88 720.5,-48.62 816.75,-48.62 816.75,-67.88"/>
<text text-anchor="middle" x="768.62" y="-54.38" font-family="Helvetica,sans-Serif" font-size="10.00">Text::getFontStyle</text>
</a>
</g>
</g>
<!-- Node2 -->
<g id="Node000002" class="node">
<title>Node2</title>
<g id="a_Node000002"><a xlink:href="../../d9/dc6/class_main_window.html#a5ff173340d6b138bee993d26454d2aaa" target="_top" xlink:title="Populates the tree widget with details of the current shapes and sets up editing controls.">
<polygon fill="white" stroke="#666666" points="684.5,-73.5 574.75,-73.5 574.75,-43 684.5,-43 684.5,-73.5"/>
<text text-anchor="start" x="582.75" y="-60" font-family="Helvetica,sans-Serif" font-size="10.00">MainWindow::shapes</text>
<text text-anchor="middle" x="629.62" y="-48.75" font-family="Helvetica,sans-Serif" font-size="10.00">_to_treeWidget</text>
</a>
</g>
</g>
<!-- Node1&#45;&gt;Node2 -->
<g id="edge1_Node000001_Node000002" class="edge">
<title>Node1&#45;&gt;Node2</title>
<g id="a_edge1_Node000001_Node000002"><a xlink:title=" ">
<path fill="none" stroke="#63b8ff" d="M708.61,-58.25C700.65,-58.25 692.51,-58.25 684.65,-58.25"/>
<polygon fill="#63b8ff" stroke="#63b8ff" points="708.58,-61.75 718.58,-58.25 708.58,-54.75 708.58,-61.75"/>
</a>
</g>
</g>
<!-- Node3 -->
<g id="Node000003" class="node">
<title>Node3</title>
<g id="a_Node000003"><a xlink:href="../../d9/dc6/class_main_window.html#afe8619a02bba82d0ad5e05065d6c0ea1" target="_top" xlink:title="Adds a given shape to the properties tree widget and emits shapeAdded signal.">
<polygon fill="white" stroke="#666666" points="528.62,-220.88 376.88,-220.88 376.88,-201.62 528.62,-201.62 528.62,-220.88"/>
<text text-anchor="middle" x="452.75" y="-207.38" font-family="Helvetica,sans-Serif" font-size="10.00">MainWindow::addToShapeTree</text>
</a>
</g>
</g>
<!-- Node2&#45;&gt;Node3 -->
<g id="edge2_Node000002_Node000003" class="edge">
<title>Node2&#45;&gt;Node3</title>
<g id="a_edge2_Node000002_Node000003"><a xlink:title=" ">
<path fill="none" stroke="#63b8ff" d="M602.24,-81.34C563.53,-115.2 492.95,-176.95 465.3,-201.15"/>
<polygon fill="#63b8ff" stroke="#63b8ff" points="604.53,-83.98 609.76,-74.76 599.92,-78.71 604.53,-83.98"/>
</a>
</g>
</g>
<!-- Node12 -->
<g id="Node000012" class="node">
<title>Node12</title>
<g id="a_Node000012"><a xlink:href="../../d9/dc6/class_main_window.html#a841a40f673ad191cd737b49591568446" target="_top" xlink:title="Slot triggered when the render area&#39;s content has changed, requiring a UI update.">
<polygon fill="white" stroke="#666666" points="523,-73.5 382.5,-73.5 382.5,-43 523,-43 523,-73.5"/>
<text text-anchor="start" x="390.5" y="-60" font-family="Helvetica,sans-Serif" font-size="10.00">MainWindow::onRenderArea</text>
<text text-anchor="middle" x="452.75" y="-48.75" font-family="Helvetica,sans-Serif" font-size="10.00">Changed</text>
</a>
</g>
</g>
<!-- Node2&#45;&gt;Node12 -->
<g id="edge11_Node000002_Node000012" class="edge">
<title>Node2&#45;&gt;Node12</title>
<g id="a_edge11_Node000002_Node000012"><a xlink:title=" ">
<path fill="none" stroke="#63b8ff" d="M563.04,-58.25C550.04,-58.25 536.36,-58.25 523.24,-58.25"/>
<polygon fill="#63b8ff" stroke="#63b8ff" points="562.74,-61.75 572.74,-58.25 562.74,-54.75 562.74,-61.75"/>
</a>
</g>
</g>
<!-- Node16 -->
<g id="Node000016" class="node">
<title>Node16</title>
<g id="a_Node000016"><a xlink:href="../../d9/dc6/class_main_window.html#a04d9898f7479308e0e7e2b8796426c2b" target="_top" xlink:title="Slot triggered upon successful user authentication. Updates UI with user info.">
<polygon fill="white" stroke="#666666" points="538.75,-24.88 366.75,-24.88 366.75,-5.63 538.75,-5.63 538.75,-24.88"/>
<text text-anchor="middle" x="452.75" y="-11.38" font-family="Helvetica,sans-Serif" font-size="10.00">MainWindow::onUserAuthentication</text>
</a>
</g>
</g>
<!-- Node2&#45;&gt;Node16 -->
<g id="edge15_Node000002_Node000016" class="edge">
<title>Node2&#45;&gt;Node16</title>
<g id="a_edge15_Node000002_Node000016"><a xlink:title=" ">
<path fill="none" stroke="#63b8ff" d="M563.64,-40.56C555.28,-38.38 546.82,-36.23 538.75,-34.25 526.41,-31.23 513.02,-28.14 500.59,-25.36"/>
<polygon fill="#63b8ff" stroke="#63b8ff" points="562.51,-43.88 573.07,-43.04 564.29,-37.11 562.51,-43.88"/>
</a>
</g>
</g>
<!-- Node4 -->
<g id="Node000004" class="node">
<title>Node4</title>
<g id="a_Node000004"><a xlink:href="../../d9/dc6/class_main_window.html#a9b9bf9b3d640e2bcace3cbfdc5d75d8b" target="_top" xlink:title="Slot triggered to create and add a new Circle shape.">
<polygon fill="white" stroke="#666666" points="328.5,-422.5 190.25,-422.5 190.25,-392 328.5,-392 328.5,-422.5"/>
<text text-anchor="start" x="198.25" y="-409" font-family="Helvetica,sans-Serif" font-size="10.00">MainWindow::on_actionnew</text>
<text text-anchor="middle" x="259.38" y="-397.75" font-family="Helvetica,sans-Serif" font-size="10.00">_circle_button_triggered</text>
</a>
</g>
</g>
<!-- Node3&#45;&gt;Node4 -->
<g id="edge3_Node000003_Node000004" class="edge">
<title>Node3&#45;&gt;Node4</title>
<g id="a_edge3_Node000003_Node000004"><a xlink:title=" ">
<path fill="none" stroke="#63b8ff" d="M442.62,-231.45C425.59,-266.94 385.69,-340.64 330.75,-382.25 326,-385.85 320.68,-388.96 315.15,-391.65"/>
<polygon fill="#63b8ff" stroke="#63b8ff" points="445.63,-233.28 446.69,-222.73 439.29,-230.31 445.63,-233.28"/>
</a>
</g>
</g>
<!-- Node5 -->
<g id="Node000005" class="node">
<title>Node5</title>
<g id="a_Node000005"><a xlink:href="../../d9/dc6/class_main_window.html#a4e25fe2c6dd72b44efdf2d1b1e9c1846" target="_top" xlink:title="Slot triggered to create and add a new Ellipse shape.">
<polygon fill="white" stroke="#666666" points="328.5,-373.5 190.25,-373.5 190.25,-343 328.5,-343 328.5,-373.5"/>
<text text-anchor="start" x="198.25" y="-360" font-family="Helvetica,sans-Serif" font-size="10.00">MainWindow::on_actionnew</text>
<text text-anchor="middle" x="259.38" y="-348.75" font-family="Helvetica,sans-Serif" font-size="10.00">_ellipse_button_triggered</text>
</a>
</g>
</g>
<!-- Node3&#45;&gt;Node5 -->
<g id="edge4_Node000003_Node000005" class="edge">
<title>Node3&#45;&gt;Node5</title>
<g id="a_edge4_Node000003_Node000005"><a xlink:title=" ">
<path fill="none" stroke="#63b8ff" d="M437.46,-230.3C416.68,-256.81 375.64,-304.76 330.75,-333.25 325.17,-336.79 319.01,-339.92 312.74,-342.65"/>
<polygon fill="#63b8ff" stroke="#63b8ff" points="440.16,-232.54 443.48,-222.48 434.61,-228.27 440.16,-232.54"/>
</a>
</g>
</g>
<!-- Node6 -->
<g id="Node000006" class="node">
<title>Node6</title>
<g id="a_Node000006"><a xlink:href="../../d9/dc6/class_main_window.html#abd3987548635bfd1133f8f0d5e0a1879" target="_top" xlink:title="Slot triggered to create and add a new Line shape.">
<polygon fill="white" stroke="#666666" points="328.5,-324.5 190.25,-324.5 190.25,-294 328.5,-294 328.5,-324.5"/>
<text text-anchor="start" x="198.25" y="-311" font-family="Helvetica,sans-Serif" font-size="10.00">MainWindow::on_actionnew</text>
<text text-anchor="middle" x="259.38" y="-299.75" font-family="Helvetica,sans-Serif" font-size="10.00">_line_button_triggered</text>
</a>
</g>
</g>
<!-- Node3&#45;&gt;Node6 -->
<g id="edge5_Node000003_Node000006" class="edge">
<title>Node3&#45;&gt;Node6</title>
<g id="a_edge5_Node000003_Node000006"><a xlink:title=" ">
<path fill="none" stroke="#63b8ff" d="M428.1,-227.49C404.27,-243.37 366.06,-267.53 330.75,-284.25 323.72,-287.58 316.12,-290.72 308.6,-293.58"/>
<polygon fill="#63b8ff" stroke="#63b8ff" points="429.79,-230.57 436.13,-222.08 425.88,-224.76 429.79,-230.57"/>
</a>
</g>
</g>
<!-- Node7 -->
<g id="Node000007" class="node">
<title>Node7</title>
<g id="a_Node000007"><a xlink:href="../../d9/dc6/class_main_window.html#a28e2b0b2efac43e0553aef6a8d23aee5" target="_top" xlink:title="Slot triggered to create and add a new Polygon shape.">
<polygon fill="white" stroke="#666666" points="328.5,-275.5 190.25,-275.5 190.25,-245 328.5,-245 328.5,-275.5"/>
<text text-anchor="start" x="198.25" y="-262" font-family="Helvetica,sans-Serif" font-size="10.00">MainWindow::on_actionnew</text>
<text text-anchor="middle" x="259.38" y="-250.75" font-family="Helvetica,sans-Serif" font-size="10.00">_polygon_button_triggered</text>
</a>
</g>
</g>
<!-- Node3&#45;&gt;Node7 -->
<g id="edge6_Node000003_Node000007" class="edge">
<title>Node3&#45;&gt;Node7</title>
<g id="a_edge6_Node000003_Node000007"><a xlink:title=" ">
<path fill="none" stroke="#63b8ff" d="M401.72,-224.06C377.25,-230.33 347.57,-237.92 321.74,-244.54"/>
<polygon fill="#63b8ff" stroke="#63b8ff" points="402.28,-227.53 411.09,-221.66 400.54,-220.75 402.28,-227.53"/>
</a>
</g>
</g>
<!-- Node8 -->
<g id="Node000008" class="node">
<title>Node8</title>
<g id="a_Node000008"><a xlink:href="../../d9/dc6/class_main_window.html#ab4fc6a65cac38759157fd77d12497a89" target="_top" xlink:title="Slot triggered to create and add a new Polyline shape.">
<polygon fill="white" stroke="#666666" points="328.5,-226.5 190.25,-226.5 190.25,-196 328.5,-196 328.5,-226.5"/>
<text text-anchor="start" x="198.25" y="-213" font-family="Helvetica,sans-Serif" font-size="10.00">MainWindow::on_actionnew</text>
<text text-anchor="middle" x="259.38" y="-201.75" font-family="Helvetica,sans-Serif" font-size="10.00">_polyline_button_triggered</text>
</a>
</g>
</g>
<!-- Node3&#45;&gt;Node8 -->
<g id="edge7_Node000003_Node000008" class="edge">
<title>Node3&#45;&gt;Node8</title>
<g id="a_edge7_Node000003_Node000008"><a xlink:title=" ">
<path fill="none" stroke="#63b8ff" d="M364.88,-211.25C352.79,-211.25 340.51,-211.25 328.82,-211.25"/>
<polygon fill="#63b8ff" stroke="#63b8ff" points="364.87,-214.75 374.87,-211.25 364.87,-207.75 364.87,-214.75"/>
</a>
</g>
</g>
<!-- Node9 -->
<g id="Node000009" class="node">
<title>Node9</title>
<g id="a_Node000009"><a xlink:href="../../d9/dc6/class_main_window.html#af65e6b1a5513198eece131b1d164a978" target="_top" xlink:title="Slot triggered to create and add a new Rectangle shape.">
<polygon fill="white" stroke="#666666" points="328.5,-177.5 190.25,-177.5 190.25,-147 328.5,-147 328.5,-177.5"/>
<text text-anchor="start" x="198.25" y="-164" font-family="Helvetica,sans-Serif" font-size="10.00">MainWindow::on_actionnew</text>
<text text-anchor="middle" x="259.38" y="-152.75" font-family="Helvetica,sans-Serif" font-size="10.00">_rectange_button_triggered</text>
</a>
</g>
</g>
<!-- Node3&#45;&gt;Node9 -->
<g id="edge8_Node000003_Node000009" class="edge">
<title>Node3&#45;&gt;Node9</title>
<g id="a_edge8_Node000003_Node000009"><a xlink:title=" ">
<path fill="none" stroke="#63b8ff" d="M401.72,-198.44C377.25,-192.17 347.57,-184.58 321.74,-177.96"/>
<polygon fill="#63b8ff" stroke="#63b8ff" points="400.54,-201.75 411.09,-200.84 402.28,-194.97 400.54,-201.75"/>
</a>
</g>
</g>
<!-- Node10 -->
<g id="Node000010" class="node">
<title>Node10</title>
<g id="a_Node000010"><a xlink:href="../../d9/dc6/class_main_window.html#a7d1d40640f58ce6dd36eabcee8ecdc6e" target="_top" xlink:title="Slot triggered to create and add a new Square shape.">
<polygon fill="white" stroke="#666666" points="328.5,-128.5 190.25,-128.5 190.25,-98 328.5,-98 328.5,-128.5"/>
<text text-anchor="start" x="198.25" y="-115" font-family="Helvetica,sans-Serif" font-size="10.00">MainWindow::on_actionnew</text>
<text text-anchor="middle" x="259.38" y="-103.75" font-family="Helvetica,sans-Serif" font-size="10.00">_square_button_triggered</text>
</a>
</g>
</g>
<!-- Node3&#45;&gt;Node10 -->
<g id="edge9_Node000003_Node000010" class="edge">
<title>Node3&#45;&gt;Node10</title>
<g id="a_edge9_Node000003_Node000010"><a xlink:title=" ">
<path fill="none" stroke="#63b8ff" d="M428.1,-195.01C404.27,-179.13 366.06,-154.97 330.75,-138.25 323.72,-134.92 316.12,-131.78 308.6,-128.92"/>
<polygon fill="#63b8ff" stroke="#63b8ff" points="425.88,-197.74 436.13,-200.42 429.79,-191.93 425.88,-197.74"/>
</a>
</g>
</g>
<!-- Node11 -->
<g id="Node000011" class="node">
<title>Node11</title>
<g id="a_Node000011"><a xlink:href="../../d9/dc6/class_main_window.html#aebcb152e26ef6d6bd4fc348e815fe8c8" target="_top" xlink:title="Slot triggered to create and add a new Text shape.">
<polygon fill="white" stroke="#666666" points="328.5,-79.5 190.25,-79.5 190.25,-49 328.5,-49 328.5,-79.5"/>
<text text-anchor="start" x="198.25" y="-66" font-family="Helvetica,sans-Serif" font-size="10.00">MainWindow::on_actionnew</text>
<text text-anchor="middle" x="259.38" y="-54.75" font-family="Helvetica,sans-Serif" font-size="10.00">_text_button_triggered</text>
</a>
</g>
</g>
<!-- Node3&#45;&gt;Node11 -->
<g id="edge10_Node000003_Node000011" class="edge">
<title>Node3&#45;&gt;Node11</title>
<g id="a_edge10_Node000003_Node000011"><a xlink:title=" ">
<path fill="none" stroke="#63b8ff" d="M437.46,-192.2C416.68,-165.69 375.64,-117.74 330.75,-89.25 325.17,-85.71 319.01,-82.58 312.74,-79.85"/>
<polygon fill="#63b8ff" stroke="#63b8ff" points="434.61,-194.23 443.48,-200.02 440.16,-189.96 434.61,-194.23"/>
</a>
</g>
</g>
<!-- Node13 -->
<g id="Node000013" class="node">
<title>Node13</title>
<g id="a_Node000013"><a xlink:href="../../d7/de6/class_app_driver.html#af39fbba491cc4dc1d378d6e140507554" target="_top" xlink:title="Connects signals from backend managers to slots in the frontend UI.">
<polygon fill="white" stroke="#666666" points="330.75,-30.5 188,-30.5 188,0 330.75,0 330.75,-30.5"/>
<text text-anchor="start" x="196" y="-17" font-family="Helvetica,sans-Serif" font-size="10.00">AppDriver::connectManagers</text>
<text text-anchor="middle" x="259.38" y="-5.75" font-family="Helvetica,sans-Serif" font-size="10.00">ToFrontend</text>
</a>
</g>
</g>
<!-- Node12&#45;&gt;Node13 -->
<g id="edge12_Node000012_Node000013" class="edge">
<title>Node12&#45;&gt;Node13</title>
<g id="a_edge12_Node000012_Node000013"><a xlink:title=" ">
<path fill="none" stroke="#63b8ff" d="M370.89,-40.08C357.39,-37.05 343.48,-33.92 330.28,-30.96"/>
<polygon fill="#63b8ff" stroke="#63b8ff" points="370.12,-43.5 380.64,-42.27 371.65,-36.67 370.12,-43.5"/>
</a>
</g>
</g>
<!-- Node14 -->
<g id="Node000014" class="node">
<title>Node14</title>
<g id="a_Node000014"><a xlink:href="../../d7/de6/class_app_driver.html#af5bf7b6bd96161d95a0a67cc7693127d" target="_top" xlink:title="Initializes and shows the main application window and loads initial data.">
<polygon fill="white" stroke="#666666" points="152,-24.88 73,-24.88 73,-5.63 152,-5.63 152,-24.88"/>
<text text-anchor="middle" x="112.5" y="-11.38" font-family="Helvetica,sans-Serif" font-size="10.00">AppDriver::run</text>
</a>
</g>
</g>
<!-- Node13&#45;&gt;Node14 -->
<g id="edge13_Node000013_Node000014" class="edge">
<title>Node13&#45;&gt;Node14</title>
<g id="a_edge13_Node000013_Node000014"><a xlink:title=" ">
<path fill="none" stroke="#63b8ff" d="M176.21,-15.25C167.88,-15.25 159.73,-15.25 152.2,-15.25"/>
<polygon fill="#63b8ff" stroke="#63b8ff" points="176.12,-18.75 186.12,-15.25 176.12,-11.75 176.12,-18.75"/>
</a>
</g>
</g>
<!-- Node15 -->
<g id="Node000015" class="node">
<title>Node15</title>
<g id="a_Node000015"><a xlink:href="../../d8/d80/src_2backend_2main_8cpp.html#a0ddf1224851353fc92bfbff6f499fa97" target="_top" xlink:title=" ">
<polygon fill="white" stroke="#666666" points="37,-24.88 0,-24.88 0,-5.63 37,-5.63 37,-24.88"/>
<text text-anchor="middle" x="18.5" y="-11.38" font-family="Helvetica,sans-Serif" font-size="10.00">main</text>
</a>
</g>
</g>
<!-- Node14&#45;&gt;Node15 -->
<g id="edge14_Node000014_Node000015" class="edge">
<title>Node14&#45;&gt;Node15</title>
<g id="a_edge14_Node000014_Node000015"><a xlink:title=" ">
<path fill="none" stroke="#63b8ff" d="M61.34,-15.25C52.67,-15.25 44.2,-15.25 37.18,-15.25"/>
<polygon fill="#63b8ff" stroke="#63b8ff" points="61.24,-18.75 71.24,-15.25 61.24,-11.75 61.24,-18.75"/>
</a>
</g>
</g>
<!-- Node16&#45;&gt;Node13 -->
<g id="edge16_Node000016_Node000013" class="edge">
<title>Node16&#45;&gt;Node13</title>
<g id="a_edge16_Node000016_Node000013"><a xlink:title=" ">
<path fill="none" stroke="#63b8ff" d="M355.07,-15.25C347.04,-15.25 339.01,-15.25 331.22,-15.25"/>
<polygon fill="#63b8ff" stroke="#63b8ff" points="354.9,-18.75 364.9,-15.25 354.9,-11.75 354.9,-18.75"/>
</a>
</g>
</g>
</g>
</svg>

<g id="navigator" transform="translate(0 0)" fill="#404254">
  <rect fill="#f2f5e9" fill-opacity="0.5" stroke="#606060" stroke-width=".5" x="0" y="0" width="60" height="60"/>
  <use id="zoomplus" xlink:href="#zoomPlus" x="17" y="9" onmousedown="handleZoom(evt,'in')"/>
  <use id="zoomminus" xlink:href="#zoomMin" x="42" y="9" onmousedown="handleZoom(evt,'out')"/>
  <use id="reset" xlink:href="#resetDef" x="30" y="36" onmousedown="handleReset()"/>
   <use id="arrowup" xlink:href="#arrowUp" x="0" y="0" onmousedown="handlePan(0,-1)"/>
  <use id="arrowright" xlink:href="#arrowRight" x="0" y="0" onmousedown="handlePan(1,0)"/>
  <use id="arrowdown" xlink:href="#arrowDown" x="0" y="0" onmousedown="handlePan(0,1)"/>
  <use id="arrowleft" xlink:href="#arrowLeft" x="0" y="0" onmousedown="handlePan(-1,0)"/>
</g>
<svg viewBox="0 0 15 15" width="100%" height="30px" preserveAspectRatio="xMaxYMin meet">
 <g id="arrow_out" transform="scale(0.3 0.3)">
  <a xlink:href="class_text_a0a3c00384e73eed7af1d20cffca51b18_icgraph_org.svg" target="_base">
   <rect id="button" ry="5" rx="5" y="6" x="6" height="38" width="38"
        fill="#f2f5e9" fill-opacity="0.5" stroke="#606060" stroke-width="1.0"/>
   <path id="arrow"
     d="M 11.500037,31.436501 C 11.940474,20.09759 22.043105,11.32322 32.158766,21.979434 L 37.068811,17.246167 C 37.068811,17.246167 37.088388,32 37.088388,32 L 22.160133,31.978069 C 22.160133,31.978069 26.997745,27.140456 26.997745,27.140456 C 18.528582,18.264221 13.291696,25.230495 11.500037,31.436501 z"
     style="fill:#404040;"/>
  </a>
 </g>
</svg>

<style type='text/css'>
<![CDATA[
[data-mouse-over-selected='false'] { opacity: 0.7; }
[data-mouse-over-selected='true']  { opacity: 1.0; }
]]>
</style>
<script type="application/ecmascript"><![CDATA[
document.addEventListener('DOMContentLoaded', (event) => {
  highlightEdges();
  highlightAdjacentNodes();
});
]]></script>
</svg>
