<?xml version="1.0" encoding="UTF-8" standalone="no"?>
<!DOCTYPE svg PUBLIC "-//W3C//DTD SVG 1.1//EN"
 "http://www.w3.org/Graphics/SVG/1.1/DTD/svg11.dtd">
<!-- Generated by graphviz version 12.2.1 (20241206.2353)
 -->
<!-- Title: Text::Text Pages: 1 -->
<svg width="391pt" height="175pt"
 viewBox="0.00 0.00 391.25 175.25" xmlns="http://www.w3.org/2000/svg" xmlns:xlink="http://www.w3.org/1999/xlink">
<g id="graph0" class="graph" transform="scale(1 1) rotate(0) translate(4 171.25)">
<title>Text::Text</title>
<!-- Node1 -->
<g id="Node000001" class="node">
<title>Node1</title>
<g id="a_Node000001"><a xlink:title="Text.">
<polygon fill="#999999" stroke="#666666" points="59.5,-56.25 0,-56.25 0,-37 59.5,-37 59.5,-56.25"/>
<text text-anchor="middle" x="29.75" y="-42.75" font-family="Helvetica,sans-Serif" font-size="10.00">Text::Text</text>
</a>
</g>
</g>
<!-- Node2 -->
<g id="Node000002" class="node">
<title>Node2</title>
<g id="a_Node000002"><a xlink:href="../../d7/da7/class_shape.html#ad3725fd4cfb43613897c2d3f3e647842" target="_top" xlink:title="CreateParentItem &#45; Adds data cooresponding to all shapes to parentItem for a QTreeWidget.">
<polygon fill="white" stroke="#666666" points="222.5,-93.25 95.5,-93.25 95.5,-74 222.5,-74 222.5,-93.25"/>
<text text-anchor="middle" x="159" y="-79.75" font-family="Helvetica,sans-Serif" font-size="10.00">Shape::CreateParentItem</text>
</a>
</g>
</g>
<!-- Node1&#45;&gt;Node2 -->
<g id="edge1_Node000001_Node000002" class="edge">
<title>Node1&#45;&gt;Node2</title>
<g id="a_edge1_Node000001_Node000002"><a xlink:title=" ">
<path fill="none" stroke="#63b8ff" d="M59.75,-55.17C70.92,-58.45 83.8,-62.22 95.5,-65.62 100.92,-67.2 106.6,-68.85 112.24,-70.48"/>
<polygon fill="#63b8ff" stroke="#63b8ff" points="110.92,-73.74 121.5,-73.15 112.86,-67.01 110.92,-73.74"/>
</a>
</g>
</g>
<!-- Node7 -->
<g id="Node000007" class="node">
<title>Node7</title>
<g id="a_Node000007"><a xlink:href="../../da/d0e/class_text.html#ac4d54ea22e31be28700336bbc5bde23e" target="_top" xlink:title=" ">
<polygon fill="white" stroke="#666666" points="208.25,-56.25 109.75,-56.25 109.75,-37 208.25,-37 208.25,-56.25"/>
<text text-anchor="middle" x="159" y="-42.75" font-family="Helvetica,sans-Serif" font-size="10.00">Text::getTextString</text>
</a>
</g>
</g>
<!-- Node1&#45;&gt;Node7 -->
<g id="edge6_Node000001_Node000007" class="edge">
<title>Node1&#45;&gt;Node7</title>
<g id="a_edge6_Node000001_Node000007"><a xlink:title=" ">
<path fill="none" stroke="#63b8ff" d="M59.94,-46.62C71.41,-46.62 85.01,-46.62 98.37,-46.62"/>
<polygon fill="#63b8ff" stroke="#63b8ff" points="97.98,-50.13 107.98,-46.63 97.98,-43.13 97.98,-50.13"/>
</a>
</g>
</g>
<!-- Node8 -->
<g id="Node000008" class="node">
<title>Node8</title>
<g id="a_Node000008"><a xlink:href="../../d7/da7/class_shape.html#a3fffc5f799f419e3e608e03ab1f3e913" target="_top" xlink:title="Shape Constructor.">
<polygon fill="white" stroke="#666666" points="197.75,-19.25 120.25,-19.25 120.25,0 197.75,0 197.75,-19.25"/>
<text text-anchor="middle" x="159" y="-5.75" font-family="Helvetica,sans-Serif" font-size="10.00">Shape::Shape</text>
</a>
</g>
</g>
<!-- Node1&#45;&gt;Node8 -->
<g id="edge7_Node000001_Node000008" class="edge">
<title>Node1&#45;&gt;Node8</title>
<g id="a_edge7_Node000001_Node000008"><a xlink:title=" ">
<path fill="none" stroke="#63b8ff" d="M59.75,-38.08C70.92,-34.8 83.8,-31.03 95.5,-27.62 100.92,-26.05 106.6,-24.4 112.24,-22.77"/>
<polygon fill="#63b8ff" stroke="#63b8ff" points="112.86,-26.24 121.5,-20.1 110.92,-19.51 112.86,-26.24"/>
</a>
</g>
</g>
<!-- Node3 -->
<g id="Node000003" class="node">
<title>Node3</title>
<g id="a_Node000003"><a xlink:href="../../d7/da7/class_shape.html#a4b502262ae5a22122456b9624d5ccb3d" target="_top" xlink:title="Accessor Functions &#45; Returns the data named after them.">
<polygon fill="white" stroke="#666666" points="370.5,-167.25 271.25,-167.25 271.25,-148 370.5,-148 370.5,-167.25"/>
<text text-anchor="middle" x="320.88" y="-153.75" font-family="Helvetica,sans-Serif" font-size="10.00">Shape::getShapeId</text>
</a>
</g>
</g>
<!-- Node2&#45;&gt;Node3 -->
<g id="edge2_Node000002_Node000003" class="edge">
<title>Node2&#45;&gt;Node3</title>
<g id="a_edge2_Node000002_Node000003"><a xlink:title=" ">
<path fill="none" stroke="#63b8ff" d="M175.12,-93.7C193.99,-105.92 227.53,-126.49 258.5,-139.62 262.08,-141.15 265.84,-142.59 269.65,-143.94"/>
<polygon fill="#63b8ff" stroke="#63b8ff" points="268.41,-147.22 279,-147.05 270.62,-140.58 268.41,-147.22"/>
</a>
</g>
</g>
<!-- Node4 -->
<g id="Node000004" class="node">
<title>Node4</title>
<g id="a_Node000004"><a xlink:href="../../d7/da7/class_shape.html#aec4675c2b06d40373eefac4b982af242" target="_top" xlink:title=" ">
<polygon fill="white" stroke="#666666" points="373.12,-130.25 268.62,-130.25 268.62,-111 373.12,-111 373.12,-130.25"/>
<text text-anchor="middle" x="320.88" y="-116.75" font-family="Helvetica,sans-Serif" font-size="10.00">Shape::getTrackerId</text>
</a>
</g>
</g>
<!-- Node2&#45;&gt;Node4 -->
<g id="edge3_Node000002_Node000004" class="edge">
<title>Node2&#45;&gt;Node4</title>
<g id="a_edge3_Node000002_Node000004"><a xlink:title=" ">
<path fill="none" stroke="#63b8ff" d="M203.69,-93.74C222.63,-98.12 245.02,-103.3 265.07,-107.94"/>
<polygon fill="#63b8ff" stroke="#63b8ff" points="264.24,-111.34 274.77,-110.19 265.81,-104.52 264.24,-111.34"/>
</a>
</g>
</g>
<!-- Node5 -->
<g id="Node000005" class="node">
<title>Node5</title>
<g id="a_Node000005"><a xlink:href="../../d7/da7/class_shape.html#af604de36aa616c585bb30dedf5e5c68b" target="_top" xlink:title=" ">
<polygon fill="white" stroke="#666666" points="355.88,-93.25 285.88,-93.25 285.88,-74 355.88,-74 355.88,-93.25"/>
<text text-anchor="middle" x="320.88" y="-79.75" font-family="Helvetica,sans-Serif" font-size="10.00">Shape::getX</text>
</a>
</g>
</g>
<!-- Node2&#45;&gt;Node5 -->
<g id="edge4_Node000002_Node000005" class="edge">
<title>Node2&#45;&gt;Node5</title>
<g id="a_edge4_Node000002_Node000005"><a xlink:title=" ">
<path fill="none" stroke="#63b8ff" d="M222.73,-83.62C239.9,-83.62 258.19,-83.62 274.22,-83.62"/>
<polygon fill="#63b8ff" stroke="#63b8ff" points="273.92,-87.13 283.92,-83.63 273.92,-80.13 273.92,-87.13"/>
</a>
</g>
</g>
<!-- Node6 -->
<g id="Node000006" class="node">
<title>Node6</title>
<g id="a_Node000006"><a xlink:href="../../d7/da7/class_shape.html#a2e87ea4122381ffb83474f4b69247ded" target="_top" xlink:title=" ">
<polygon fill="white" stroke="#666666" points="355.88,-56.25 285.88,-56.25 285.88,-37 355.88,-37 355.88,-56.25"/>
<text text-anchor="middle" x="320.88" y="-42.75" font-family="Helvetica,sans-Serif" font-size="10.00">Shape::getY</text>
</a>
</g>
</g>
<!-- Node2&#45;&gt;Node6 -->
<g id="edge5_Node000002_Node000006" class="edge">
<title>Node2&#45;&gt;Node6</title>
<g id="a_edge5_Node000002_Node000006"><a xlink:title=" ">
<path fill="none" stroke="#63b8ff" d="M203.69,-73.51C225.65,-68.43 252.25,-62.28 274.45,-57.14"/>
<polygon fill="#63b8ff" stroke="#63b8ff" points="275.19,-60.56 284.14,-54.9 273.61,-53.74 275.19,-60.56"/>
</a>
</g>
</g>
<!-- Node9 -->
<g id="Node000009" class="node">
<title>Node9</title>
<g id="a_Node000009"><a xlink:href="../../d7/da7/class_shape.html#a520308cc2273f60cb19bf5664570bcf8" target="_top" xlink:title=" ">
<polygon fill="white" stroke="#666666" points="383.25,-19.25 258.5,-19.25 258.5,0 383.25,0 383.25,-19.25"/>
<text text-anchor="middle" x="320.88" y="-5.75" font-family="Helvetica,sans-Serif" font-size="10.00">Shape::allocateTrackerId</text>
</a>
</g>
</g>
<!-- Node8&#45;&gt;Node9 -->
<g id="edge8_Node000008_Node000009" class="edge">
<title>Node8&#45;&gt;Node9</title>
<g id="a_edge8_Node000008_Node000009"><a xlink:title=" ">
<path fill="none" stroke="#63b8ff" d="M197.89,-9.62C212.66,-9.62 230.11,-9.62 247.12,-9.62"/>
<polygon fill="#63b8ff" stroke="#63b8ff" points="246.69,-13.13 256.69,-9.63 246.69,-6.13 246.69,-13.13"/>
</a>
</g>
</g>
</g>
</svg>
