<?xml version="1.0" encoding="UTF-8" standalone="no"?>
<!DOCTYPE svg PUBLIC "-//W3C//DTD SVG 1.1//EN"
 "http://www.w3.org/Graphics/SVG/1.1/DTD/svg11.dtd">
<!-- Generated by graphviz version 12.2.1 (20241206.2353)
 -->
<!-- Title: UserManager::statusMessage Pages: 1 -->
<!--zoomable 236 -->

<svg id="main" version="1.1" xmlns="http://www.w3.org/2000/svg" xmlns:xlink="http://www.w3.org/1999/xlink" xml:space="preserve" onload="init(evt)">

<style type="text/css"><![CDATA[
.node, .edge {opacity: 0.7;}
.node.selected, .edge.selected {opacity: 1;}
.edge:hover path { stroke: red; }
.edge:hover polygon { stroke: red; fill: red; }
]]></style>

<defs>
  <circle id="rim" cx="0" cy="0" r="7"/>
  <circle id="rim2" cx="0" cy="0" r="3.5"/>
  <g id="zoomPlus">
    <use xlink:href="#rim" fill="#404040"><set attributeName="fill" to="#808080" begin="zoomplus.mouseover" end="zoomplus.mouseout"/></use>
    <path d="M-4,0h8M0,-4v8" fill="none" stroke="white" stroke-width="1.5" pointer-events="none"/>
  </g>
  <g id="zoomMin">
    <use xlink:href="#rim" fill="#404040"><set attributeName="fill" to="#808080" begin="zoomminus.mouseover" end="zoomminus.mouseout"/></use>
    <path d="M-4,0h8" fill="none" stroke="white" stroke-width="1.5" pointer-events="none"/>
  </g>
  <g id="arrowUp" transform="translate(30 24)">
    <use xlink:href="#rim"/>
    <path pointer-events="none" fill="none" stroke="white" stroke-width="1.5" d="M0,-3.0v7 M-2.5,-0.5L0,-3.0L2.5,-0.5"/>
  </g>
  <g id="arrowRight" transform="rotate(90) translate(36 -43)">
    <use xlink:href="#rim"/>
    <path pointer-events="none" fill="none" stroke="white" stroke-width="1.5" d="M0,-3.0v7 M-2.5,-0.5L0,-3.0L2.5,-0.5"/>
  </g>
  <g id="arrowDown" transform="rotate(180) translate(-30 -48)">
    <use xlink:href="#rim"/>
    <path pointer-events="none" fill="none" stroke="white" stroke-width="1.5" d="M0,-3.0v7 M-2.5,-0.5L0,-3.0L2.5,-0.5"/>
  </g>
  <g id="arrowLeft" transform="rotate(270) translate(-36 17)">
    <use xlink:href="#rim"/>
    <path pointer-events="none" fill="none" stroke="white" stroke-width="1.5" d="M0,-3.0v7 M-2.5,-0.5L0,-3.0L2.5,-0.5"/>
  </g>
  <g id="resetDef">
    <use xlink:href="#rim2" fill="#404040"><set attributeName="fill" to="#808080" begin="reset.mouseover" end="reset.mouseout"/></use>
  </g>
</defs>
<script type="application/ecmascript">
var viewWidth = 545;
var viewHeight = 236;
var sectionId = 'dynsection-22';
</script>
<script type="application/ecmascript" xlink:href="../../svg.min.js"/>
<svg id="graph" class="graph">
<g id="viewport">
<title>UserManager::statusMessage</title>
<!-- Node1 -->
<g id="Node000001" class="node">
<title>Node1</title>
<g id="a_Node000001"><a xlink:title="Emitted to provide general status updates or error messages.">
<polygon fill="#999999" stroke="#666666" points="537,-120.25 389.75,-120.25 389.75,-101 537,-101 537,-120.25"/>
<text text-anchor="middle" x="463.38" y="-106.75" font-family="Helvetica,sans-Serif" font-size="10.00">UserManager::statusMessage</text>
</a>
</g>
</g>
<!-- Node2 -->
<g id="Node000002" class="node">
<title>Node2</title>
<g id="a_Node000002"><a xlink:href="../../d1/da2/class_user_manager.html#a93243af98a0b172c5b6ff685f8d196a0" target="_top" xlink:title="Slot called when a DELETE request for user data fails.">
<polygon fill="white" stroke="#666666" points="332.75,-227.88 196,-227.88 196,-197.38 332.75,-197.38 332.75,-227.88"/>
<text text-anchor="start" x="204" y="-214.38" font-family="Helvetica,sans-Serif" font-size="10.00">UserManager::onBadDelete</text>
<text text-anchor="middle" x="264.38" y="-203.12" font-family="Helvetica,sans-Serif" font-size="10.00">Response</text>
</a>
</g>
</g>
<!-- Node1&#45;&gt;Node2 -->
<g id="edge1_Node000001_Node000002" class="edge">
<title>Node1&#45;&gt;Node2</title>
<g id="a_edge1_Node000001_Node000002"><a xlink:title=" ">
<path fill="none" stroke="#63b8ff" d="M442.99,-127.86C422.26,-145.47 387.75,-172.45 353.75,-188.62 347.15,-191.77 340.06,-194.55 332.88,-197.01"/>
<polygon fill="#63b8ff" stroke="#63b8ff" points="445.08,-130.69 450.36,-121.5 440.5,-125.39 445.08,-130.69"/>
</a>
</g>
</g>
<!-- Node4 -->
<g id="Node000004" class="node">
<title>Node4</title>
<g id="a_Node000004"><a xlink:href="../../d1/da2/class_user_manager.html#acac58c863dc2d027a297c28725d91c93" target="_top" xlink:title="Slot called when a GET request for user data fails.">
<polygon fill="white" stroke="#666666" points="348.5,-179.25 180.25,-179.25 180.25,-160 348.5,-160 348.5,-179.25"/>
<text text-anchor="middle" x="264.38" y="-165.75" font-family="Helvetica,sans-Serif" font-size="10.00">UserManager::onBadGetResponse</text>
</a>
</g>
</g>
<!-- Node1&#45;&gt;Node4 -->
<g id="edge3_Node000001_Node000004" class="edge">
<title>Node1&#45;&gt;Node4</title>
<g id="a_edge3_Node000001_Node000004"><a xlink:title=" ">
<path fill="none" stroke="#63b8ff" d="M428.6,-124.97C407.39,-133.58 379.31,-144.25 353.75,-151.62 343.52,-154.58 332.49,-157.23 321.8,-159.54"/>
<polygon fill="#63b8ff" stroke="#63b8ff" points="429.69,-128.31 437.61,-121.27 427.03,-121.83 429.69,-128.31"/>
</a>
</g>
</g>
<!-- Node5 -->
<g id="Node000005" class="node">
<title>Node5</title>
<g id="a_Node000005"><a xlink:href="../../d1/da2/class_user_manager.html#adaa13ba1ac6af2a667cde728a593ad83" target="_top" xlink:title="Slot called when a POST request to save user data fails.">
<polygon fill="white" stroke="#666666" points="350.75,-142.25 178,-142.25 178,-123 350.75,-123 350.75,-142.25"/>
<text text-anchor="middle" x="264.38" y="-128.75" font-family="Helvetica,sans-Serif" font-size="10.00">UserManager::onBadPostResponse</text>
</a>
</g>
</g>
<!-- Node1&#45;&gt;Node5 -->
<g id="edge5_Node000001_Node000005" class="edge">
<title>Node1&#45;&gt;Node5</title>
<g id="a_edge5_Node000001_Node000005"><a xlink:title=" ">
<path fill="none" stroke="#63b8ff" d="M378.05,-120.04C369.08,-121.04 359.96,-122.06 350.98,-123.07"/>
<polygon fill="#63b8ff" stroke="#63b8ff" points="378.25,-123.54 387.8,-118.95 377.47,-116.59 378.25,-123.54"/>
</a>
</g>
</g>
<!-- Node6 -->
<g id="Node000006" class="node">
<title>Node6</title>
<g id="a_Node000006"><a xlink:href="../../d1/da2/class_user_manager.html#aaae30b6ea45379ce5ecba8958d1a0a6f" target="_top" xlink:title="Slot called when a DELETE request for user data succeeds.">
<polygon fill="white" stroke="#666666" points="335.75,-104.88 193,-104.88 193,-74.38 335.75,-74.38 335.75,-104.88"/>
<text text-anchor="start" x="201" y="-91.38" font-family="Helvetica,sans-Serif" font-size="10.00">UserManager::onGoodDelete</text>
<text text-anchor="middle" x="264.38" y="-80.12" font-family="Helvetica,sans-Serif" font-size="10.00">Response</text>
</a>
</g>
</g>
<!-- Node1&#45;&gt;Node6 -->
<g id="edge7_Node000001_Node000006" class="edge">
<title>Node1&#45;&gt;Node6</title>
<g id="a_edge7_Node000001_Node000006"><a xlink:title=" ">
<path fill="none" stroke="#63b8ff" d="M378.15,-101.65C364.12,-100.15 349.69,-98.61 336.04,-97.16"/>
<polygon fill="#63b8ff" stroke="#63b8ff" points="377.48,-105.09 387.79,-102.67 378.22,-98.13 377.48,-105.09"/>
</a>
</g>
</g>
<!-- Node7 -->
<g id="Node000007" class="node">
<title>Node7</title>
<g id="a_Node000007"><a xlink:href="../../d1/da2/class_user_manager.html#a3b3f078e58e742fd67185a8438d06fd4" target="_top" xlink:title="Slot called when a GET request for user data succeeds.">
<polygon fill="white" stroke="#666666" points="351.5,-56.25 177.25,-56.25 177.25,-37 351.5,-37 351.5,-56.25"/>
<text text-anchor="middle" x="264.38" y="-42.75" font-family="Helvetica,sans-Serif" font-size="10.00">UserManager::onGoodGetResponse</text>
</a>
</g>
</g>
<!-- Node1&#45;&gt;Node7 -->
<g id="edge9_Node000001_Node000007" class="edge">
<title>Node1&#45;&gt;Node7</title>
<g id="a_edge9_Node000001_Node000007"><a xlink:title=" ">
<path fill="none" stroke="#63b8ff" d="M431.14,-95.91C409.72,-86.27 380.47,-73.96 353.75,-65.62 342.96,-62.26 331.25,-59.29 319.99,-56.75"/>
<polygon fill="#63b8ff" stroke="#63b8ff" points="429.64,-99.07 440.19,-100.05 432.54,-92.71 429.64,-99.07"/>
</a>
</g>
</g>
<!-- Node8 -->
<g id="Node000008" class="node">
<title>Node8</title>
<g id="a_Node000008"><a xlink:href="../../d1/da2/class_user_manager.html#a6c96002eef3fbb7981f569d43e163a64" target="_top" xlink:title="Slot called when a POST request to save user data succeeds.">
<polygon fill="white" stroke="#666666" points="353.75,-19.25 175,-19.25 175,0 353.75,0 353.75,-19.25"/>
<text text-anchor="middle" x="264.38" y="-5.75" font-family="Helvetica,sans-Serif" font-size="10.00">UserManager::onGoodPostResponse</text>
</a>
</g>
</g>
<!-- Node1&#45;&gt;Node8 -->
<g id="edge11_Node000001_Node000008" class="edge">
<title>Node1&#45;&gt;Node8</title>
<g id="a_edge11_Node000001_Node000008"><a xlink:title=" ">
<path fill="none" stroke="#63b8ff" d="M444.38,-92.68C424.12,-73.54 389.35,-43.81 353.75,-27.62 346.77,-24.45 339.22,-21.83 331.58,-19.67"/>
<polygon fill="#63b8ff" stroke="#63b8ff" points="441.91,-95.16 451.53,-99.59 446.77,-90.12 441.91,-95.16"/>
</a>
</g>
</g>
<!-- Node3 -->
<g id="Node000003" class="node">
<title>Node3</title>
<g id="a_Node000003"><a xlink:href="../../d1/da2/class_user_manager.html#aefc22181e82f255ad68cb91d98373077" target="_top" xlink:title="Constructor. Initializes ApiClient connections and loads users.">
<polygon fill="white" stroke="#666666" points="139,-120.25 0,-120.25 0,-101 139,-101 139,-120.25"/>
<text text-anchor="middle" x="69.5" y="-106.75" font-family="Helvetica,sans-Serif" font-size="10.00">UserManager::UserManager</text>
</a>
</g>
</g>
<!-- Node2&#45;&gt;Node3 -->
<g id="edge2_Node000002_Node000003" class="edge">
<title>Node2&#45;&gt;Node3</title>
<g id="a_edge2_Node000002_Node000003"><a xlink:title=" ">
<path fill="none" stroke="#63b8ff" d="M185.18,-193.15C181.7,-191.73 178.29,-190.23 175,-188.62 136.94,-170.09 98.72,-137.01 80.89,-120.53"/>
<polygon fill="#63b8ff" stroke="#63b8ff" points="183.8,-196.37 194.39,-196.6 186.26,-189.82 183.8,-196.37"/>
</a>
</g>
</g>
<!-- Node4&#45;&gt;Node3 -->
<g id="edge4_Node000004_Node000003" class="edge">
<title>Node4&#45;&gt;Node3</title>
<g id="a_edge4_Node000004_Node000003"><a xlink:title=" ">
<path fill="none" stroke="#63b8ff" d="M195.51,-157.05C188.54,-155.39 181.6,-153.58 175,-151.62 146.03,-143.06 113.83,-129.84 92.94,-120.74"/>
<polygon fill="#63b8ff" stroke="#63b8ff" points="194.44,-160.4 204.97,-159.21 195.99,-153.57 194.44,-160.4"/>
</a>
</g>
</g>
<!-- Node5&#45;&gt;Node3 -->
<g id="edge6_Node000005_Node000003" class="edge">
<title>Node5&#45;&gt;Node3</title>
<g id="a_edge6_Node000005_Node000003"><a xlink:title=" ">
<path fill="none" stroke="#63b8ff" d="M166.23,-121.54C157.2,-120.51 148.17,-119.48 139.47,-118.49"/>
<polygon fill="#63b8ff" stroke="#63b8ff" points="165.82,-125.02 176.15,-122.68 166.61,-118.07 165.82,-125.02"/>
</a>
</g>
</g>
<!-- Node6&#45;&gt;Node3 -->
<g id="edge8_Node000006_Node000003" class="edge">
<title>Node6&#45;&gt;Node3</title>
<g id="a_edge8_Node000006_Node000003"><a xlink:title=" ">
<path fill="none" stroke="#63b8ff" d="M181.49,-98.54C167.43,-100.07 152.96,-101.65 139.29,-103.14"/>
<polygon fill="#63b8ff" stroke="#63b8ff" points="181.58,-102.05 191.15,-97.49 180.83,-95.09 181.58,-102.05"/>
</a>
</g>
</g>
<!-- Node7&#45;&gt;Node3 -->
<g id="edge10_Node000007_Node000003" class="edge">
<title>Node7&#45;&gt;Node3</title>
<g id="a_edge10_Node000007_Node000003"><a xlink:title=" ">
<path fill="none" stroke="#63b8ff" d="M197.23,-59.37C189.67,-61.26 182.13,-63.35 175,-65.62 144.71,-75.3 111.18,-90.61 90.48,-100.63"/>
<polygon fill="#63b8ff" stroke="#63b8ff" points="197.86,-62.81 206.78,-57.09 196.24,-56 197.86,-62.81"/>
</a>
</g>
</g>
<!-- Node8&#45;&gt;Node3 -->
<g id="edge12_Node000008_Node000003" class="edge">
<title>Node8&#45;&gt;Node3</title>
<g id="a_edge12_Node000008_Node000003"><a xlink:title=" ">
<path fill="none" stroke="#63b8ff" d="M185.92,-23.15C182.17,-24.5 178.51,-25.99 175,-27.62 135.1,-46.22 96.86,-82.93 79.8,-100.63"/>
<polygon fill="#63b8ff" stroke="#63b8ff" points="186.77,-26.55 195.21,-20.14 184.62,-19.89 186.77,-26.55"/>
</a>
</g>
</g>
</g>
</svg>

<g id="navigator" transform="translate(0 0)" fill="#404254">
  <rect fill="#f2f5e9" fill-opacity="0.5" stroke="#606060" stroke-width=".5" x="0" y="0" width="60" height="60"/>
  <use id="zoomplus" xlink:href="#zoomPlus" x="17" y="9" onmousedown="handleZoom(evt,'in')"/>
  <use id="zoomminus" xlink:href="#zoomMin" x="42" y="9" onmousedown="handleZoom(evt,'out')"/>
  <use id="reset" xlink:href="#resetDef" x="30" y="36" onmousedown="handleReset()"/>
   <use id="arrowup" xlink:href="#arrowUp" x="0" y="0" onmousedown="handlePan(0,-1)"/>
  <use id="arrowright" xlink:href="#arrowRight" x="0" y="0" onmousedown="handlePan(1,0)"/>
  <use id="arrowdown" xlink:href="#arrowDown" x="0" y="0" onmousedown="handlePan(0,1)"/>
  <use id="arrowleft" xlink:href="#arrowLeft" x="0" y="0" onmousedown="handlePan(-1,0)"/>
</g>
<svg viewBox="0 0 15 15" width="100%" height="30px" preserveAspectRatio="xMaxYMin meet">
 <g id="arrow_out" transform="scale(0.3 0.3)">
  <a xlink:href="class_user_manager_ad725cb6519b4256e254da21ff5741e78_icgraph_org.svg" target="_base">
   <rect id="button" ry="5" rx="5" y="6" x="6" height="38" width="38"
        fill="#f2f5e9" fill-opacity="0.5" stroke="#606060" stroke-width="1.0"/>
   <path id="arrow"
     d="M 11.500037,31.436501 C 11.940474,20.09759 22.043105,11.32322 32.158766,21.979434 L 37.068811,17.246167 C 37.068811,17.246167 37.088388,32 37.088388,32 L 22.160133,31.978069 C 22.160133,31.978069 26.997745,27.140456 26.997745,27.140456 C 18.528582,18.264221 13.291696,25.230495 11.500037,31.436501 z"
     style="fill:#404040;"/>
  </a>
 </g>
</svg>

<style type='text/css'>
<![CDATA[
[data-mouse-over-selected='false'] { opacity: 0.7; }
[data-mouse-over-selected='true']  { opacity: 1.0; }
]]>
</style>
<script type="application/ecmascript"><![CDATA[
document.addEventListener('DOMContentLoaded', (event) => {
  highlightEdges();
  highlightAdjacentNodes();
});
]]></script>
</svg>
