<?xml version="1.0" encoding="UTF-8" standalone="no"?>
<!DOCTYPE svg PUBLIC "-//W3C//DTD SVG 1.1//EN"
 "http://www.w3.org/Graphics/SVG/1.1/DTD/svg11.dtd">
<!-- Generated by graphviz version 12.2.1 (20241206.2353)
 -->
<!-- Title: UserManager::UserManager Pages: 1 -->
<!--zoomable 458 -->

<svg id="main" version="1.1" xmlns="http://www.w3.org/2000/svg" xmlns:xlink="http://www.w3.org/1999/xlink" xml:space="preserve" onload="init(evt)">

<style type="text/css"><![CDATA[
.node, .edge {opacity: 0.7;}
.node.selected, .edge.selected {opacity: 1;}
.edge:hover path { stroke: red; }
.edge:hover polygon { stroke: red; fill: red; }
]]></style>

<defs>
  <circle id="rim" cx="0" cy="0" r="7"/>
  <circle id="rim2" cx="0" cy="0" r="3.5"/>
  <g id="zoomPlus">
    <use xlink:href="#rim" fill="#404040"><set attributeName="fill" to="#808080" begin="zoomplus.mouseover" end="zoomplus.mouseout"/></use>
    <path d="M-4,0h8M0,-4v8" fill="none" stroke="white" stroke-width="1.5" pointer-events="none"/>
  </g>
  <g id="zoomMin">
    <use xlink:href="#rim" fill="#404040"><set attributeName="fill" to="#808080" begin="zoomminus.mouseover" end="zoomminus.mouseout"/></use>
    <path d="M-4,0h8" fill="none" stroke="white" stroke-width="1.5" pointer-events="none"/>
  </g>
  <g id="arrowUp" transform="translate(30 24)">
    <use xlink:href="#rim"/>
    <path pointer-events="none" fill="none" stroke="white" stroke-width="1.5" d="M0,-3.0v7 M-2.5,-0.5L0,-3.0L2.5,-0.5"/>
  </g>
  <g id="arrowRight" transform="rotate(90) translate(36 -43)">
    <use xlink:href="#rim"/>
    <path pointer-events="none" fill="none" stroke="white" stroke-width="1.5" d="M0,-3.0v7 M-2.5,-0.5L0,-3.0L2.5,-0.5"/>
  </g>
  <g id="arrowDown" transform="rotate(180) translate(-30 -48)">
    <use xlink:href="#rim"/>
    <path pointer-events="none" fill="none" stroke="white" stroke-width="1.5" d="M0,-3.0v7 M-2.5,-0.5L0,-3.0L2.5,-0.5"/>
  </g>
  <g id="arrowLeft" transform="rotate(270) translate(-36 17)">
    <use xlink:href="#rim"/>
    <path pointer-events="none" fill="none" stroke="white" stroke-width="1.5" d="M0,-3.0v7 M-2.5,-0.5L0,-3.0L2.5,-0.5"/>
  </g>
  <g id="resetDef">
    <use xlink:href="#rim2" fill="#404040"><set attributeName="fill" to="#808080" begin="reset.mouseover" end="reset.mouseout"/></use>
  </g>
</defs>
<script type="application/ecmascript">
var viewWidth = 545;
var viewHeight = 458;
var sectionId = 'dynsection-2';
</script>
<script type="application/ecmascript" xlink:href="../../svg.min.js"/>
<svg id="graph" class="graph">
<g id="viewport">
<title>UserManager::UserManager</title>
<!-- Node1 -->
<g id="Node000001" class="node">
<title>Node1</title>
<g id="a_Node000001"><a xlink:title="Constructor. Initializes ApiClient connections and loads users.">
<polygon fill="#999999" stroke="#666666" points="139,-243.25 0,-243.25 0,-224 139,-224 139,-243.25"/>
<text text-anchor="middle" x="69.5" y="-229.75" font-family="Helvetica,sans-Serif" font-size="10.00">UserManager::UserManager</text>
</a>
</g>
</g>
<!-- Node2 -->
<g id="Node000002" class="node">
<title>Node2</title>
<g id="a_Node000002"><a xlink:href="../../d2/dd1/class_api_client.html#a2362fb6ae6555400e50840bd2138fa3c" target="_top" xlink:title="Signal for a failed request sent to a Delete endpoint.">
<polygon fill="white" stroke="#666666" points="330.88,-450.25 197.88,-450.25 197.88,-431 330.88,-431 330.88,-450.25"/>
<text text-anchor="middle" x="264.38" y="-436.75" font-family="Helvetica,sans-Serif" font-size="10.00">ApiClient::BadDeleteReply</text>
</a>
</g>
</g>
<!-- Node1&#45;&gt;Node2 -->
<g id="edge1_Node000001_Node000002" class="edge">
<title>Node1&#45;&gt;Node2</title>
<g id="a_edge1_Node000001_Node000002"><a xlink:title=" ">
<path fill="none" stroke="#63b8ff" d="M72.79,-243.38C80.75,-274.97 110.32,-375.14 175,-422.62 178.66,-425.31 182.62,-427.62 186.77,-429.6"/>
<polygon fill="#63b8ff" stroke="#63b8ff" points="185.43,-432.83 196.01,-433.32 188.04,-426.34 185.43,-432.83"/>
</a>
</g>
</g>
<!-- Node3 -->
<g id="Node000003" class="node">
<title>Node3</title>
<g id="a_Node000003"><a xlink:href="../../d2/dd1/class_api_client.html#ae22339e302eb27bc51fbdfc1b7c1a4ec" target="_top" xlink:title="Signal for a failed request sent to a Get endpoint.">
<polygon fill="white" stroke="#666666" points="324.5,-413.25 204.25,-413.25 204.25,-394 324.5,-394 324.5,-413.25"/>
<text text-anchor="middle" x="264.38" y="-399.75" font-family="Helvetica,sans-Serif" font-size="10.00">ApiClient::BadGetReply</text>
</a>
</g>
</g>
<!-- Node1&#45;&gt;Node3 -->
<g id="edge2_Node000001_Node000003" class="edge">
<title>Node1&#45;&gt;Node3</title>
<g id="a_edge2_Node000001_Node000003"><a xlink:title=" ">
<path fill="none" stroke="#63b8ff" d="M74.13,-243.38C84.86,-270.75 119.19,-348.68 175,-385.62 180.52,-389.28 186.63,-392.22 192.98,-394.58"/>
<polygon fill="#63b8ff" stroke="#63b8ff" points="191.8,-397.87 202.39,-397.57 193.92,-391.2 191.8,-397.87"/>
</a>
</g>
</g>
<!-- Node4 -->
<g id="Node000004" class="node">
<title>Node4</title>
<g id="a_Node000004"><a xlink:href="../../d2/dd1/class_api_client.html#ac0f68b238bace3703854d7de15a3bb38" target="_top" xlink:title="Signal for a failed request sent to a Post endpoint.">
<polygon fill="white" stroke="#666666" points="326.75,-376.25 202,-376.25 202,-357 326.75,-357 326.75,-376.25"/>
<text text-anchor="middle" x="264.38" y="-362.75" font-family="Helvetica,sans-Serif" font-size="10.00">ApiClient::BadPostReply</text>
</a>
</g>
</g>
<!-- Node1&#45;&gt;Node4 -->
<g id="edge3_Node000001_Node000004" class="edge">
<title>Node1&#45;&gt;Node4</title>
<g id="a_edge3_Node000001_Node000004"><a xlink:title=" ">
<path fill="none" stroke="#63b8ff" d="M76.37,-243.56C90.33,-266.21 127.86,-321.82 175,-348.62 179.98,-351.45 185.33,-353.84 190.86,-355.86"/>
<polygon fill="#63b8ff" stroke="#63b8ff" points="189.62,-359.14 200.21,-358.84 191.74,-352.47 189.62,-359.14"/>
</a>
</g>
</g>
<!-- Node5 -->
<g id="Node000005" class="node">
<title>Node5</title>
<g id="a_Node000005"><a xlink:href="../../d2/dd1/class_api_client.html#a36b7d26e91c582a56da7c3bcfbdccbd9" target="_top" xlink:title="Signal for a successful request sent to a Delete endpoint.">
<polygon fill="white" stroke="#666666" points="333.88,-339.25 194.88,-339.25 194.88,-320 333.88,-320 333.88,-339.25"/>
<text text-anchor="middle" x="264.38" y="-325.75" font-family="Helvetica,sans-Serif" font-size="10.00">ApiClient::GoodDeleteReply</text>
</a>
</g>
</g>
<!-- Node1&#45;&gt;Node5 -->
<g id="edge4_Node000001_Node000005" class="edge">
<title>Node1&#45;&gt;Node5</title>
<g id="a_edge4_Node000001_Node000005"><a xlink:title=" ">
<path fill="none" stroke="#63b8ff" d="M80.48,-243.53C98.01,-260.32 136.16,-294.23 175,-311.62 178.72,-313.29 182.6,-314.8 186.56,-316.18"/>
<polygon fill="#63b8ff" stroke="#63b8ff" points="185.17,-319.41 195.76,-319.05 187.26,-312.73 185.17,-319.41"/>
</a>
</g>
</g>
<!-- Node6 -->
<g id="Node000006" class="node">
<title>Node6</title>
<g id="a_Node000006"><a xlink:href="../../d2/dd1/class_api_client.html#a940bf610f9fa472fc660e1ab60203de7" target="_top" xlink:title="Signal for a successful request sent to a Get endpoint.">
<polygon fill="white" stroke="#666666" points="327.5,-302.25 201.25,-302.25 201.25,-283 327.5,-283 327.5,-302.25"/>
<text text-anchor="middle" x="264.38" y="-288.75" font-family="Helvetica,sans-Serif" font-size="10.00">ApiClient::GoodGetReply</text>
</a>
</g>
</g>
<!-- Node1&#45;&gt;Node6 -->
<g id="edge5_Node000001_Node000006" class="edge">
<title>Node1&#45;&gt;Node6</title>
<g id="a_edge5_Node000001_Node000006"><a xlink:title=" ">
<path fill="none" stroke="#63b8ff" d="M92.94,-243.74C113.83,-252.84 146.03,-266.06 175,-274.62 181.6,-276.58 188.54,-278.39 195.51,-280.05"/>
<polygon fill="#63b8ff" stroke="#63b8ff" points="194.44,-283.4 204.97,-282.21 195.99,-276.57 194.44,-283.4"/>
</a>
</g>
</g>
<!-- Node7 -->
<g id="Node000007" class="node">
<title>Node7</title>
<g id="a_Node000007"><a xlink:href="../../d2/dd1/class_api_client.html#aa2e03a2c693acb0052f80415b453e279" target="_top" xlink:title="Signal for a successful request sent to a Post endpoint.">
<polygon fill="white" stroke="#666666" points="329.75,-265.25 199,-265.25 199,-246 329.75,-246 329.75,-265.25"/>
<text text-anchor="middle" x="264.38" y="-251.75" font-family="Helvetica,sans-Serif" font-size="10.00">ApiClient::GoodPostReply</text>
</a>
</g>
</g>
<!-- Node1&#45;&gt;Node7 -->
<g id="edge6_Node000001_Node000007" class="edge">
<title>Node1&#45;&gt;Node7</title>
<g id="a_edge6_Node000001_Node000007"><a xlink:title=" ">
<path fill="none" stroke="#63b8ff" d="M139.32,-241.47C154.9,-243.25 171.53,-245.15 187.39,-246.96"/>
<polygon fill="#63b8ff" stroke="#63b8ff" points="186.94,-250.43 197.27,-248.09 187.74,-243.47 186.94,-250.43"/>
</a>
</g>
</g>
<!-- Node8 -->
<g id="Node000008" class="node">
<title>Node8</title>
<g id="a_Node000008"><a xlink:href="../../d1/da2/class_user_manager.html#a93243af98a0b172c5b6ff685f8d196a0" target="_top" xlink:title="Slot called when a DELETE request for user data fails.">
<polygon fill="white" stroke="#666666" points="332.75,-227.88 196,-227.88 196,-197.38 332.75,-197.38 332.75,-227.88"/>
<text text-anchor="start" x="204" y="-214.38" font-family="Helvetica,sans-Serif" font-size="10.00">UserManager::onBadDelete</text>
<text text-anchor="middle" x="264.38" y="-203.12" font-family="Helvetica,sans-Serif" font-size="10.00">Response</text>
</a>
</g>
</g>
<!-- Node1&#45;&gt;Node8 -->
<g id="edge7_Node000001_Node000008" class="edge">
<title>Node1&#45;&gt;Node8</title>
<g id="a_edge7_Node000001_Node000008"><a xlink:title=" ">
<path fill="none" stroke="#63b8ff" d="M139.32,-226.13C153.88,-224.55 169.37,-222.86 184.29,-221.24"/>
<polygon fill="#63b8ff" stroke="#63b8ff" points="184.49,-224.73 194.05,-220.17 183.73,-217.78 184.49,-224.73"/>
</a>
</g>
</g>
<!-- Node10 -->
<g id="Node000010" class="node">
<title>Node10</title>
<g id="a_Node000010"><a xlink:href="../../d1/da2/class_user_manager.html#acac58c863dc2d027a297c28725d91c93" target="_top" xlink:title="Slot called when a GET request for user data fails.">
<polygon fill="white" stroke="#666666" points="348.5,-179.25 180.25,-179.25 180.25,-160 348.5,-160 348.5,-179.25"/>
<text text-anchor="middle" x="264.38" y="-165.75" font-family="Helvetica,sans-Serif" font-size="10.00">UserManager::onBadGetResponse</text>
</a>
</g>
</g>
<!-- Node1&#45;&gt;Node10 -->
<g id="edge9_Node000001_Node000010" class="edge">
<title>Node1&#45;&gt;Node10</title>
<g id="a_edge9_Node000001_Node000010"><a xlink:title=" ">
<path fill="none" stroke="#63b8ff" d="M90.48,-223.63C111.18,-213.61 144.71,-198.3 175,-188.62 182.13,-186.35 189.67,-184.26 197.23,-182.37"/>
<polygon fill="#63b8ff" stroke="#63b8ff" points="197.86,-185.81 206.78,-180.09 196.24,-179 197.86,-185.81"/>
</a>
</g>
</g>
<!-- Node11 -->
<g id="Node000011" class="node">
<title>Node11</title>
<g id="a_Node000011"><a xlink:href="../../d1/da2/class_user_manager.html#adaa13ba1ac6af2a667cde728a593ad83" target="_top" xlink:title="Slot called when a POST request to save user data fails.">
<polygon fill="white" stroke="#666666" points="350.75,-142.25 178,-142.25 178,-123 350.75,-123 350.75,-142.25"/>
<text text-anchor="middle" x="264.38" y="-128.75" font-family="Helvetica,sans-Serif" font-size="10.00">UserManager::onBadPostResponse</text>
</a>
</g>
</g>
<!-- Node1&#45;&gt;Node11 -->
<g id="edge11_Node000001_Node000011" class="edge">
<title>Node1&#45;&gt;Node11</title>
<g id="a_edge11_Node000001_Node000011"><a xlink:title=" ">
<path fill="none" stroke="#63b8ff" d="M79.8,-223.63C96.86,-205.93 135.1,-169.22 175,-150.62 178.51,-148.99 182.17,-147.5 185.92,-146.15"/>
<polygon fill="#63b8ff" stroke="#63b8ff" points="186.77,-149.55 195.21,-143.14 184.62,-142.89 186.77,-149.55"/>
</a>
</g>
</g>
<!-- Node12 -->
<g id="Node000012" class="node">
<title>Node12</title>
<g id="a_Node000012"><a xlink:href="../../d1/da2/class_user_manager.html#aaae30b6ea45379ce5ecba8958d1a0a6f" target="_top" xlink:title="Slot called when a DELETE request for user data succeeds.">
<polygon fill="white" stroke="#666666" points="335.75,-104.88 193,-104.88 193,-74.38 335.75,-74.38 335.75,-104.88"/>
<text text-anchor="start" x="201" y="-91.38" font-family="Helvetica,sans-Serif" font-size="10.00">UserManager::onGoodDelete</text>
<text text-anchor="middle" x="264.38" y="-80.12" font-family="Helvetica,sans-Serif" font-size="10.00">Response</text>
</a>
</g>
</g>
<!-- Node1&#45;&gt;Node12 -->
<g id="edge13_Node000001_Node000012" class="edge">
<title>Node1&#45;&gt;Node12</title>
<g id="a_edge13_Node000001_Node000012"><a xlink:title=" ">
<path fill="none" stroke="#63b8ff" d="M76.18,-223.81C89.99,-200.84 127.71,-143.26 175,-113.62 177.42,-112.11 179.93,-110.69 182.51,-109.36"/>
<polygon fill="#63b8ff" stroke="#63b8ff" points="183.76,-112.64 191.39,-105.28 180.84,-106.28 183.76,-112.64"/>
</a>
</g>
</g>
<!-- Node13 -->
<g id="Node000013" class="node">
<title>Node13</title>
<g id="a_Node000013"><a xlink:href="../../d1/da2/class_user_manager.html#a3b3f078e58e742fd67185a8438d06fd4" target="_top" xlink:title="Slot called when a GET request for user data succeeds.">
<polygon fill="white" stroke="#666666" points="351.5,-56.25 177.25,-56.25 177.25,-37 351.5,-37 351.5,-56.25"/>
<text text-anchor="middle" x="264.38" y="-42.75" font-family="Helvetica,sans-Serif" font-size="10.00">UserManager::onGoodGetResponse</text>
</a>
</g>
</g>
<!-- Node1&#45;&gt;Node13 -->
<g id="edge15_Node000001_Node000013" class="edge">
<title>Node1&#45;&gt;Node13</title>
<g id="a_edge15_Node000001_Node000013"><a xlink:title=" ">
<path fill="none" stroke="#63b8ff" d="M73.56,-223.74C83.17,-194.41 115.72,-107.33 175,-65.62 177.09,-64.16 179.26,-62.8 181.51,-61.54"/>
<polygon fill="#63b8ff" stroke="#63b8ff" points="182.87,-64.77 190.4,-57.31 179.86,-58.45 182.87,-64.77"/>
</a>
</g>
</g>
<!-- Node14 -->
<g id="Node000014" class="node">
<title>Node14</title>
<g id="a_Node000014"><a xlink:href="../../d1/da2/class_user_manager.html#a6c96002eef3fbb7981f569d43e163a64" target="_top" xlink:title="Slot called when a POST request to save user data succeeds.">
<polygon fill="white" stroke="#666666" points="353.75,-19.25 175,-19.25 175,0 353.75,0 353.75,-19.25"/>
<text text-anchor="middle" x="264.38" y="-5.75" font-family="Helvetica,sans-Serif" font-size="10.00">UserManager::onGoodPostResponse</text>
</a>
</g>
</g>
<!-- Node1&#45;&gt;Node14 -->
<g id="edge17_Node000001_Node000014" class="edge">
<title>Node1&#45;&gt;Node14</title>
<g id="a_edge17_Node000001_Node000014"><a xlink:title=" ">
<path fill="none" stroke="#63b8ff" d="M72.31,-223.95C79.07,-190.69 106.1,-80.13 175,-27.62 176.16,-26.74 177.34,-25.9 178.56,-25.1"/>
<polygon fill="#63b8ff" stroke="#63b8ff" points="180,-28.31 187.06,-20.41 176.61,-22.18 180,-28.31"/>
</a>
</g>
</g>
<!-- Node9 -->
<g id="Node000009" class="node">
<title>Node9</title>
<g id="a_Node000009"><a xlink:href="../../d1/da2/class_user_manager.html#ad725cb6519b4256e254da21ff5741e78" target="_top" xlink:title="Emitted to provide general status updates or error messages.">
<polygon fill="white" stroke="#666666" points="537,-120.25 389.75,-120.25 389.75,-101 537,-101 537,-120.25"/>
<text text-anchor="middle" x="463.38" y="-106.75" font-family="Helvetica,sans-Serif" font-size="10.00">UserManager::statusMessage</text>
</a>
</g>
</g>
<!-- Node8&#45;&gt;Node9 -->
<g id="edge8_Node000008_Node000009" class="edge">
<title>Node8&#45;&gt;Node9</title>
<g id="a_edge8_Node000008_Node000009"><a xlink:title=" ">
<path fill="none" stroke="#63b8ff" d="M332.88,-197.01C340.06,-194.55 347.15,-191.77 353.75,-188.62 387.75,-172.45 422.26,-145.47 442.99,-127.86"/>
<polygon fill="#63b8ff" stroke="#63b8ff" points="445.08,-130.69 450.36,-121.5 440.5,-125.39 445.08,-130.69"/>
</a>
</g>
</g>
<!-- Node10&#45;&gt;Node9 -->
<g id="edge10_Node000010_Node000009" class="edge">
<title>Node10&#45;&gt;Node9</title>
<g id="a_edge10_Node000010_Node000009"><a xlink:title=" ">
<path fill="none" stroke="#63b8ff" d="M321.8,-159.54C332.49,-157.23 343.52,-154.58 353.75,-151.62 379.31,-144.25 407.39,-133.58 428.6,-124.97"/>
<polygon fill="#63b8ff" stroke="#63b8ff" points="429.69,-128.31 437.61,-121.27 427.03,-121.83 429.69,-128.31"/>
</a>
</g>
</g>
<!-- Node11&#45;&gt;Node9 -->
<g id="edge12_Node000011_Node000009" class="edge">
<title>Node11&#45;&gt;Node9</title>
<g id="a_edge12_Node000011_Node000009"><a xlink:title=" ">
<path fill="none" stroke="#63b8ff" d="M351.21,-123.04C360.18,-122.04 369.29,-121.02 378.23,-120.02"/>
<polygon fill="#63b8ff" stroke="#63b8ff" points="378.41,-123.52 387.95,-118.94 377.63,-116.57 378.41,-123.52"/>
</a>
</g>
</g>
<!-- Node12&#45;&gt;Node9 -->
<g id="edge14_Node000012_Node000009" class="edge">
<title>Node12&#45;&gt;Node9</title>
<g id="a_edge14_Node000012_Node000009"><a xlink:title=" ">
<path fill="none" stroke="#63b8ff" d="M336.22,-97.18C349.88,-98.63 364.32,-100.17 378.36,-101.67"/>
<polygon fill="#63b8ff" stroke="#63b8ff" points="377.69,-105.12 388,-102.7 378.43,-98.16 377.69,-105.12"/>
</a>
</g>
</g>
<!-- Node13&#45;&gt;Node9 -->
<g id="edge16_Node000013_Node000009" class="edge">
<title>Node13&#45;&gt;Node9</title>
<g id="a_edge16_Node000013_Node000009"><a xlink:title=" ">
<path fill="none" stroke="#63b8ff" d="M319.99,-56.75C331.25,-59.29 342.96,-62.26 353.75,-65.62 380.47,-73.96 409.72,-86.27 431.14,-95.91"/>
<polygon fill="#63b8ff" stroke="#63b8ff" points="429.64,-99.07 440.19,-100.05 432.54,-92.71 429.64,-99.07"/>
</a>
</g>
</g>
<!-- Node14&#45;&gt;Node9 -->
<g id="edge18_Node000014_Node000009" class="edge">
<title>Node14&#45;&gt;Node9</title>
<g id="a_edge18_Node000014_Node000009"><a xlink:title=" ">
<path fill="none" stroke="#63b8ff" d="M331.58,-19.67C339.22,-21.83 346.77,-24.45 353.75,-27.62 389.35,-43.81 424.12,-73.54 444.38,-92.68"/>
<polygon fill="#63b8ff" stroke="#63b8ff" points="441.91,-95.16 451.53,-99.59 446.77,-90.12 441.91,-95.16"/>
</a>
</g>
</g>
</g>
</svg>

<g id="navigator" transform="translate(0 0)" fill="#404254">
  <rect fill="#f2f5e9" fill-opacity="0.5" stroke="#606060" stroke-width=".5" x="0" y="0" width="60" height="60"/>
  <use id="zoomplus" xlink:href="#zoomPlus" x="17" y="9" onmousedown="handleZoom(evt,'in')"/>
  <use id="zoomminus" xlink:href="#zoomMin" x="42" y="9" onmousedown="handleZoom(evt,'out')"/>
  <use id="reset" xlink:href="#resetDef" x="30" y="36" onmousedown="handleReset()"/>
   <use id="arrowup" xlink:href="#arrowUp" x="0" y="0" onmousedown="handlePan(0,-1)"/>
  <use id="arrowright" xlink:href="#arrowRight" x="0" y="0" onmousedown="handlePan(1,0)"/>
  <use id="arrowdown" xlink:href="#arrowDown" x="0" y="0" onmousedown="handlePan(0,1)"/>
  <use id="arrowleft" xlink:href="#arrowLeft" x="0" y="0" onmousedown="handlePan(-1,0)"/>
</g>
<svg viewBox="0 0 15 15" width="100%" height="30px" preserveAspectRatio="xMaxYMin meet">
 <g id="arrow_out" transform="scale(0.3 0.3)">
  <a xlink:href="class_user_manager_aefc22181e82f255ad68cb91d98373077_cgraph_org.svg" target="_base">
   <rect id="button" ry="5" rx="5" y="6" x="6" height="38" width="38"
        fill="#f2f5e9" fill-opacity="0.5" stroke="#606060" stroke-width="1.0"/>
   <path id="arrow"
     d="M 11.500037,31.436501 C 11.940474,20.09759 22.043105,11.32322 32.158766,21.979434 L 37.068811,17.246167 C 37.068811,17.246167 37.088388,32 37.088388,32 L 22.160133,31.978069 C 22.160133,31.978069 26.997745,27.140456 26.997745,27.140456 C 18.528582,18.264221 13.291696,25.230495 11.500037,31.436501 z"
     style="fill:#404040;"/>
  </a>
 </g>
</svg>

<style type='text/css'>
<![CDATA[
[data-mouse-over-selected='false'] { opacity: 0.7; }
[data-mouse-over-selected='true']  { opacity: 1.0; }
]]>
</style>
<script type="application/ecmascript"><![CDATA[
document.addEventListener('DOMContentLoaded', (event) => {
  highlightEdges();
  highlightAdjacentNodes();
});
]]></script>
</svg>
