<?xml version="1.0" encoding="UTF-8" standalone="no"?>
<!DOCTYPE svg PUBLIC "-//W3C//DTD SVG 1.1//EN"
 "http://www.w3.org/Graphics/SVG/1.1/DTD/svg11.dtd">
<!-- Generated by graphviz version 12.2.1 (20241206.2353)
 -->
<!-- Title: UserManager::authenticationFailed Pages: 1 -->
<svg width="554pt" height="76pt"
 viewBox="0.00 0.00 554.25 75.88" xmlns="http://www.w3.org/2000/svg" xmlns:xlink="http://www.w3.org/1999/xlink">
<g id="graph0" class="graph" transform="scale(1 1) rotate(0) translate(4 71.88)">
<title>UserManager::authenticationFailed</title>
<!-- Node1 -->
<g id="Node000001" class="node">
<title>Node1</title>
<g id="a_Node000001"><a xlink:title="Emitted when user authentication fails.">
<polygon fill="#999999" stroke="#666666" points="546.25,-51.5 405,-51.5 405,-21 546.25,-21 546.25,-51.5"/>
<text text-anchor="start" x="413" y="-38" font-family="Helvetica,sans-Serif" font-size="10.00">UserManager::authentication</text>
<text text-anchor="middle" x="475.62" y="-26.75" font-family="Helvetica,sans-Serif" font-size="10.00">Failed</text>
</a>
</g>
</g>
<!-- Node2 -->
<g id="Node000002" class="node">
<title>Node2</title>
<g id="a_Node000002"><a xlink:href="../../d1/da2/class_user_manager.html#a65e90a5565b65c8feb3b9299872d609d" target="_top" xlink:title=" ">
<polygon fill="white" stroke="#666666" points="364.5,-67.88 230.75,-67.88 230.75,-48.62 364.5,-48.62 364.5,-67.88"/>
<text text-anchor="middle" x="297.62" y="-54.38" font-family="Helvetica,sans-Serif" font-size="10.00">UserManager::authenticate</text>
</a>
</g>
</g>
<!-- Node1&#45;&gt;Node2 -->
<g id="edge1_Node000001_Node000002" class="edge">
<title>Node1&#45;&gt;Node2</title>
<g id="a_edge1_Node000001_Node000002"><a xlink:title=" ">
<path fill="none" stroke="#63b8ff" d="M393.37,-46.41C383.78,-47.61 374.08,-48.82 364.73,-49.99"/>
<polygon fill="#63b8ff" stroke="#63b8ff" points="393.57,-49.91 403.06,-45.2 392.7,-42.96 393.57,-49.91"/>
</a>
</g>
</g>
<!-- Node4 -->
<g id="Node000004" class="node">
<title>Node4</title>
<g id="a_Node000004"><a xlink:href="../../d7/de6/class_app_driver.html#af39fbba491cc4dc1d378d6e140507554" target="_top" xlink:title="Connects signals from backend managers to slots in the frontend UI.">
<polygon fill="white" stroke="#666666" points="369,-30.5 226.25,-30.5 226.25,0 369,0 369,-30.5"/>
<text text-anchor="start" x="234.25" y="-17" font-family="Helvetica,sans-Serif" font-size="10.00">AppDriver::connectManagers</text>
<text text-anchor="middle" x="297.62" y="-5.75" font-family="Helvetica,sans-Serif" font-size="10.00">ToFrontend</text>
</a>
</g>
</g>
<!-- Node1&#45;&gt;Node4 -->
<g id="edge3_Node000001_Node000004" class="edge">
<title>Node1&#45;&gt;Node4</title>
<g id="a_edge3_Node000001_Node000004"><a xlink:title=" ">
<path fill="none" stroke="#63b8ff" d="M393.31,-26.55C385.29,-25.59 377.21,-24.63 369.31,-23.68"/>
<polygon fill="#63b8ff" stroke="#63b8ff" points="392.71,-30 403.06,-27.71 393.54,-23.05 392.71,-30"/>
</a>
</g>
</g>
<!-- Node3 -->
<g id="Node000003" class="node">
<title>Node3</title>
<g id="a_Node000003"><a xlink:href="../../d1/da2/class_user_manager.html#a8860588081ca0e6a7f88fc5b689fb235" target="_top" xlink:title=" ">
<polygon fill="white" stroke="#666666" points="190.25,-67.88 73,-67.88 73,-48.62 190.25,-48.62 190.25,-67.88"/>
<text text-anchor="middle" x="131.62" y="-54.38" font-family="Helvetica,sans-Serif" font-size="10.00">UserManager::addUser</text>
</a>
</g>
</g>
<!-- Node2&#45;&gt;Node3 -->
<g id="edge2_Node000002_Node000003" class="edge">
<title>Node2&#45;&gt;Node3</title>
<g id="a_edge2_Node000002_Node000003"><a xlink:title=" ">
<path fill="none" stroke="#63b8ff" d="M219.19,-58.25C209.59,-58.25 199.9,-58.25 190.66,-58.25"/>
<polygon fill="#63b8ff" stroke="#63b8ff" points="218.88,-61.75 228.88,-58.25 218.88,-54.75 218.88,-61.75"/>
</a>
</g>
</g>
<!-- Node5 -->
<g id="Node000005" class="node">
<title>Node5</title>
<g id="a_Node000005"><a xlink:href="../../d7/de6/class_app_driver.html#af5bf7b6bd96161d95a0a67cc7693127d" target="_top" xlink:title="Initializes and shows the main application window and loads initial data.">
<polygon fill="white" stroke="#666666" points="171.12,-24.88 92.12,-24.88 92.12,-5.63 171.12,-5.63 171.12,-24.88"/>
<text text-anchor="middle" x="131.62" y="-11.38" font-family="Helvetica,sans-Serif" font-size="10.00">AppDriver::run</text>
</a>
</g>
</g>
<!-- Node4&#45;&gt;Node5 -->
<g id="edge4_Node000004_Node000005" class="edge">
<title>Node4&#45;&gt;Node5</title>
<g id="a_edge4_Node000004_Node000005"><a xlink:title=" ">
<path fill="none" stroke="#63b8ff" d="M214.63,-15.25C199.55,-15.25 184.48,-15.25 171.44,-15.25"/>
<polygon fill="#63b8ff" stroke="#63b8ff" points="214.61,-18.75 224.61,-15.25 214.61,-11.75 214.61,-18.75"/>
</a>
</g>
</g>
<!-- Node6 -->
<g id="Node000006" class="node">
<title>Node6</title>
<g id="a_Node000006"><a xlink:href="../../d8/d80/src_2backend_2main_8cpp.html#a0ddf1224851353fc92bfbff6f499fa97" target="_top" xlink:title=" ">
<polygon fill="white" stroke="#666666" points="37,-24.88 0,-24.88 0,-5.63 37,-5.63 37,-24.88"/>
<text text-anchor="middle" x="18.5" y="-11.38" font-family="Helvetica,sans-Serif" font-size="10.00">main</text>
</a>
</g>
</g>
<!-- Node5&#45;&gt;Node6 -->
<g id="edge5_Node000005_Node000006" class="edge">
<title>Node5&#45;&gt;Node6</title>
<g id="a_edge5_Node000005_Node000006"><a xlink:title=" ">
<path fill="none" stroke="#63b8ff" d="M80.66,-15.25C65.18,-15.25 49.12,-15.25 37.34,-15.25"/>
<polygon fill="#63b8ff" stroke="#63b8ff" points="80.25,-18.75 90.25,-15.25 80.25,-11.75 80.25,-18.75"/>
</a>
</g>
</g>
</g>
</svg>
