<?xml version="1.0" encoding="UTF-8" standalone="no"?>
<!DOCTYPE svg PUBLIC "-//W3C//DTD SVG 1.1//EN"
 "http://www.w3.org/Graphics/SVG/1.1/DTD/svg11.dtd">
<!-- Generated by graphviz version 12.2.1 (20241206.2353)
 -->
<!-- Title: UserManager::authenticate Pages: 1 -->
<svg width="337pt" height="76pt"
 viewBox="0.00 0.00 337.00 75.88" xmlns="http://www.w3.org/2000/svg" xmlns:xlink="http://www.w3.org/1999/xlink">
<g id="graph0" class="graph" transform="scale(1 1) rotate(0) translate(4 71.88)">
<title>UserManager::authenticate</title>
<!-- Node1 -->
<g id="Node000001" class="node">
<title>Node1</title>
<g id="a_Node000001"><a xlink:title=" ">
<polygon fill="#999999" stroke="#666666" points="133.75,-40.25 0,-40.25 0,-21 133.75,-21 133.75,-40.25"/>
<text text-anchor="middle" x="66.88" y="-26.75" font-family="Helvetica,sans-Serif" font-size="10.00">UserManager::authenticate</text>
</a>
</g>
</g>
<!-- Node2 -->
<g id="Node000002" class="node">
<title>Node2</title>
<g id="a_Node000002"><a xlink:href="../../d1/da2/class_user_manager.html#ab930b67c285d8ba31325a2621fe5ea5d" target="_top" xlink:title="Emitted when user authentication fails.">
<polygon fill="white" stroke="#666666" points="320,-67.88 178.75,-67.88 178.75,-37.38 320,-37.38 320,-67.88"/>
<text text-anchor="start" x="186.75" y="-54.38" font-family="Helvetica,sans-Serif" font-size="10.00">UserManager::authentication</text>
<text text-anchor="middle" x="249.38" y="-43.12" font-family="Helvetica,sans-Serif" font-size="10.00">Failed</text>
</a>
</g>
</g>
<!-- Node1&#45;&gt;Node2 -->
<g id="edge1_Node000001_Node000002" class="edge">
<title>Node1&#45;&gt;Node2</title>
<g id="a_edge1_Node000001_Node000002"><a xlink:title=" ">
<path fill="none" stroke="#63b8ff" d="M134.06,-38.69C144.74,-39.99 155.9,-41.35 166.89,-42.69"/>
<polygon fill="#63b8ff" stroke="#63b8ff" points="166.4,-46.16 176.75,-43.9 167.25,-39.21 166.4,-46.16"/>
</a>
</g>
</g>
<!-- Node3 -->
<g id="Node000003" class="node">
<title>Node3</title>
<g id="a_Node000003"><a xlink:href="../../d1/da2/class_user_manager.html#abc36e1a0307e39413bf7e1ef9c487d61" target="_top" xlink:title="Emitted upon successful user authentication, providing the authenticated user.">
<polygon fill="white" stroke="#666666" points="329,-19.25 169.75,-19.25 169.75,0 329,0 329,-19.25"/>
<text text-anchor="middle" x="249.38" y="-5.75" font-family="Helvetica,sans-Serif" font-size="10.00">UserManager::userAuthenticated</text>
</a>
</g>
</g>
<!-- Node1&#45;&gt;Node3 -->
<g id="edge2_Node000001_Node000003" class="edge">
<title>Node1&#45;&gt;Node3</title>
<g id="a_edge2_Node000001_Node000003"><a xlink:title=" ">
<path fill="none" stroke="#63b8ff" d="M134.06,-22.92C141.86,-22.02 149.91,-21.08 157.97,-20.14"/>
<polygon fill="#63b8ff" stroke="#63b8ff" points="158.3,-23.63 167.83,-19 157.49,-16.68 158.3,-23.63"/>
</a>
</g>
</g>
</g>
</svg>
