<?xml version="1.0" encoding="UTF-8" standalone="no"?>
<!DOCTYPE svg PUBLIC "-//W3C//DTD SVG 1.1//EN"
 "http://www.w3.org/Graphics/SVG/1.1/DTD/svg11.dtd">
<!-- Generated by graphviz version 12.2.1 (20241206.2353)
 -->
<!-- Title: UserManager::userAuthenticated Pages: 1 -->
<!--zoomable 76 -->

<svg id="main" version="1.1" xmlns="http://www.w3.org/2000/svg" xmlns:xlink="http://www.w3.org/1999/xlink" xml:space="preserve" onload="init(evt)">

<style type="text/css"><![CDATA[
.node, .edge {opacity: 0.7;}
.node.selected, .edge.selected {opacity: 1;}
.edge:hover path { stroke: red; }
.edge:hover polygon { stroke: red; fill: red; }
]]></style>

<defs>
  <circle id="rim" cx="0" cy="0" r="7"/>
  <circle id="rim2" cx="0" cy="0" r="3.5"/>
  <g id="zoomPlus">
    <use xlink:href="#rim" fill="#404040"><set attributeName="fill" to="#808080" begin="zoomplus.mouseover" end="zoomplus.mouseout"/></use>
    <path d="M-4,0h8M0,-4v8" fill="none" stroke="white" stroke-width="1.5" pointer-events="none"/>
  </g>
  <g id="zoomMin">
    <use xlink:href="#rim" fill="#404040"><set attributeName="fill" to="#808080" begin="zoomminus.mouseover" end="zoomminus.mouseout"/></use>
    <path d="M-4,0h8" fill="none" stroke="white" stroke-width="1.5" pointer-events="none"/>
  </g>
  <g id="arrowUp" transform="translate(30 24)">
    <use xlink:href="#rim"/>
    <path pointer-events="none" fill="none" stroke="white" stroke-width="1.5" d="M0,-3.0v7 M-2.5,-0.5L0,-3.0L2.5,-0.5"/>
  </g>
  <g id="arrowRight" transform="rotate(90) translate(36 -43)">
    <use xlink:href="#rim"/>
    <path pointer-events="none" fill="none" stroke="white" stroke-width="1.5" d="M0,-3.0v7 M-2.5,-0.5L0,-3.0L2.5,-0.5"/>
  </g>
  <g id="arrowDown" transform="rotate(180) translate(-30 -48)">
    <use xlink:href="#rim"/>
    <path pointer-events="none" fill="none" stroke="white" stroke-width="1.5" d="M0,-3.0v7 M-2.5,-0.5L0,-3.0L2.5,-0.5"/>
  </g>
  <g id="arrowLeft" transform="rotate(270) translate(-36 17)">
    <use xlink:href="#rim"/>
    <path pointer-events="none" fill="none" stroke="white" stroke-width="1.5" d="M0,-3.0v7 M-2.5,-0.5L0,-3.0L2.5,-0.5"/>
  </g>
  <g id="resetDef">
    <use xlink:href="#rim2" fill="#404040"><set attributeName="fill" to="#808080" begin="reset.mouseover" end="reset.mouseout"/></use>
  </g>
</defs>
<script type="application/ecmascript">
var viewWidth = 572;
var viewHeight = 76;
var sectionId = 'dynsection-23';
</script>
<script type="application/ecmascript" xlink:href="../../svg.min.js"/>
<svg id="graph" class="graph">
<g id="viewport">
<title>UserManager::userAuthenticated</title>
<!-- Node1 -->
<g id="Node000001" class="node">
<title>Node1</title>
<g id="a_Node000001"><a xlink:title="Emitted upon successful user authentication, providing the authenticated user.">
<polygon fill="#999999" stroke="#666666" points="564.25,-45.88 405,-45.88 405,-26.62 564.25,-26.62 564.25,-45.88"/>
<text text-anchor="middle" x="484.62" y="-32.38" font-family="Helvetica,sans-Serif" font-size="10.00">UserManager::userAuthenticated</text>
</a>
</g>
</g>
<!-- Node2 -->
<g id="Node000002" class="node">
<title>Node2</title>
<g id="a_Node000002"><a xlink:href="../../d1/da2/class_user_manager.html#a65e90a5565b65c8feb3b9299872d609d" target="_top" xlink:title=" ">
<polygon fill="white" stroke="#666666" points="364.5,-67.88 230.75,-67.88 230.75,-48.62 364.5,-48.62 364.5,-67.88"/>
<text text-anchor="middle" x="297.62" y="-54.38" font-family="Helvetica,sans-Serif" font-size="10.00">UserManager::authenticate</text>
</a>
</g>
</g>
<!-- Node1&#45;&gt;Node2 -->
<g id="edge1_Node000001_Node000002" class="edge">
<title>Node1&#45;&gt;Node2</title>
<g id="a_edge1_Node000001_Node000002"><a xlink:title=" ">
<path fill="none" stroke="#63b8ff" d="M393.38,-46.98C383.76,-48.13 374.11,-49.27 364.84,-50.38"/>
<polygon fill="#63b8ff" stroke="#63b8ff" points="393.61,-50.48 403.13,-45.82 392.79,-43.53 393.61,-50.48"/>
</a>
</g>
</g>
<!-- Node4 -->
<g id="Node000004" class="node">
<title>Node4</title>
<g id="a_Node000004"><a xlink:href="../../d7/de6/class_app_driver.html#af39fbba491cc4dc1d378d6e140507554" target="_top" xlink:title="Connects signals from backend managers to slots in the frontend UI.">
<polygon fill="white" stroke="#666666" points="369,-30.5 226.25,-30.5 226.25,0 369,0 369,-30.5"/>
<text text-anchor="start" x="234.25" y="-17" font-family="Helvetica,sans-Serif" font-size="10.00">AppDriver::connectManagers</text>
<text text-anchor="middle" x="297.62" y="-5.75" font-family="Helvetica,sans-Serif" font-size="10.00">ToFrontend</text>
</a>
</g>
</g>
<!-- Node1&#45;&gt;Node4 -->
<g id="edge3_Node000001_Node000004" class="edge">
<title>Node1&#45;&gt;Node4</title>
<g id="a_edge3_Node000001_Node000004"><a xlink:title=" ">
<path fill="none" stroke="#63b8ff" d="M393.34,-26C385.32,-25.09 377.28,-24.18 369.46,-23.29"/>
<polygon fill="#63b8ff" stroke="#63b8ff" points="392.8,-29.46 403.13,-27.11 393.59,-22.51 392.8,-29.46"/>
</a>
</g>
</g>
<!-- Node3 -->
<g id="Node000003" class="node">
<title>Node3</title>
<g id="a_Node000003"><a xlink:href="../../d1/da2/class_user_manager.html#a8860588081ca0e6a7f88fc5b689fb235" target="_top" xlink:title=" ">
<polygon fill="white" stroke="#666666" points="190.25,-67.88 73,-67.88 73,-48.62 190.25,-48.62 190.25,-67.88"/>
<text text-anchor="middle" x="131.62" y="-54.38" font-family="Helvetica,sans-Serif" font-size="10.00">UserManager::addUser</text>
</a>
</g>
</g>
<!-- Node2&#45;&gt;Node3 -->
<g id="edge2_Node000002_Node000003" class="edge">
<title>Node2&#45;&gt;Node3</title>
<g id="a_edge2_Node000002_Node000003"><a xlink:title=" ">
<path fill="none" stroke="#63b8ff" d="M219.19,-58.25C209.59,-58.25 199.9,-58.25 190.66,-58.25"/>
<polygon fill="#63b8ff" stroke="#63b8ff" points="218.88,-61.75 228.88,-58.25 218.88,-54.75 218.88,-61.75"/>
</a>
</g>
</g>
<!-- Node5 -->
<g id="Node000005" class="node">
<title>Node5</title>
<g id="a_Node000005"><a xlink:href="../../d7/de6/class_app_driver.html#af5bf7b6bd96161d95a0a67cc7693127d" target="_top" xlink:title="Initializes and shows the main application window and loads initial data.">
<polygon fill="white" stroke="#666666" points="171.12,-24.88 92.12,-24.88 92.12,-5.63 171.12,-5.63 171.12,-24.88"/>
<text text-anchor="middle" x="131.62" y="-11.38" font-family="Helvetica,sans-Serif" font-size="10.00">AppDriver::run</text>
</a>
</g>
</g>
<!-- Node4&#45;&gt;Node5 -->
<g id="edge4_Node000004_Node000005" class="edge">
<title>Node4&#45;&gt;Node5</title>
<g id="a_edge4_Node000004_Node000005"><a xlink:title=" ">
<path fill="none" stroke="#63b8ff" d="M214.63,-15.25C199.55,-15.25 184.48,-15.25 171.44,-15.25"/>
<polygon fill="#63b8ff" stroke="#63b8ff" points="214.61,-18.75 224.61,-15.25 214.61,-11.75 214.61,-18.75"/>
</a>
</g>
</g>
<!-- Node6 -->
<g id="Node000006" class="node">
<title>Node6</title>
<g id="a_Node000006"><a xlink:href="../../d8/d80/src_2backend_2main_8cpp.html#a0ddf1224851353fc92bfbff6f499fa97" target="_top" xlink:title=" ">
<polygon fill="white" stroke="#666666" points="37,-24.88 0,-24.88 0,-5.63 37,-5.63 37,-24.88"/>
<text text-anchor="middle" x="18.5" y="-11.38" font-family="Helvetica,sans-Serif" font-size="10.00">main</text>
</a>
</g>
</g>
<!-- Node5&#45;&gt;Node6 -->
<g id="edge5_Node000005_Node000006" class="edge">
<title>Node5&#45;&gt;Node6</title>
<g id="a_edge5_Node000005_Node000006"><a xlink:title=" ">
<path fill="none" stroke="#63b8ff" d="M80.66,-15.25C65.18,-15.25 49.12,-15.25 37.34,-15.25"/>
<polygon fill="#63b8ff" stroke="#63b8ff" points="80.25,-18.75 90.25,-15.25 80.25,-11.75 80.25,-18.75"/>
</a>
</g>
</g>
</g>
</svg>

<g id="navigator" transform="translate(0 0)" fill="#404254">
  <rect fill="#f2f5e9" fill-opacity="0.5" stroke="#606060" stroke-width=".5" x="0" y="0" width="60" height="60"/>
  <use id="zoomplus" xlink:href="#zoomPlus" x="17" y="9" onmousedown="handleZoom(evt,'in')"/>
  <use id="zoomminus" xlink:href="#zoomMin" x="42" y="9" onmousedown="handleZoom(evt,'out')"/>
  <use id="reset" xlink:href="#resetDef" x="30" y="36" onmousedown="handleReset()"/>
   <use id="arrowup" xlink:href="#arrowUp" x="0" y="0" onmousedown="handlePan(0,-1)"/>
  <use id="arrowright" xlink:href="#arrowRight" x="0" y="0" onmousedown="handlePan(1,0)"/>
  <use id="arrowdown" xlink:href="#arrowDown" x="0" y="0" onmousedown="handlePan(0,1)"/>
  <use id="arrowleft" xlink:href="#arrowLeft" x="0" y="0" onmousedown="handlePan(-1,0)"/>
</g>
<svg viewBox="0 0 15 15" width="100%" height="30px" preserveAspectRatio="xMaxYMin meet">
 <g id="arrow_out" transform="scale(0.3 0.3)">
  <a xlink:href="class_user_manager_abc36e1a0307e39413bf7e1ef9c487d61_icgraph_org.svg" target="_base">
   <rect id="button" ry="5" rx="5" y="6" x="6" height="38" width="38"
        fill="#f2f5e9" fill-opacity="0.5" stroke="#606060" stroke-width="1.0"/>
   <path id="arrow"
     d="M 11.500037,31.436501 C 11.940474,20.09759 22.043105,11.32322 32.158766,21.979434 L 37.068811,17.246167 C 37.068811,17.246167 37.088388,32 37.088388,32 L 22.160133,31.978069 C 22.160133,31.978069 26.997745,27.140456 26.997745,27.140456 C 18.528582,18.264221 13.291696,25.230495 11.500037,31.436501 z"
     style="fill:#404040;"/>
  </a>
 </g>
</svg>

<style type='text/css'>
<![CDATA[
[data-mouse-over-selected='false'] { opacity: 0.7; }
[data-mouse-over-selected='true']  { opacity: 1.0; }
]]>
</style>
<script type="application/ecmascript"><![CDATA[
document.addEventListener('DOMContentLoaded', (event) => {
  highlightEdges();
  highlightAdjacentNodes();
});
]]></script>
</svg>
