<?xml version="1.0" encoding="UTF-8" standalone="no"?>
<!DOCTYPE svg PUBLIC "-//W3C//DTD SVG 1.1//EN"
 "http://www.w3.org/Graphics/SVG/1.1/DTD/svg11.dtd">
<!-- Generated by graphviz version 12.2.1 (20241206.2353)
 -->
<!-- Title: UserManager::addUser Pages: 1 -->
<svg width="511pt" height="128pt"
 viewBox="0.00 0.00 510.50 127.88" xmlns="http://www.w3.org/2000/svg" xmlns:xlink="http://www.w3.org/1999/xlink">
<g id="graph0" class="graph" transform="scale(1 1) rotate(0) translate(4 123.88)">
<title>UserManager::addUser</title>
<!-- Node1 -->
<g id="Node000001" class="node">
<title>Node1</title>
<g id="a_Node000001"><a xlink:title=" ">
<polygon fill="#999999" stroke="#666666" points="117.25,-56.25 0,-56.25 0,-37 117.25,-37 117.25,-56.25"/>
<text text-anchor="middle" x="58.62" y="-42.75" font-family="Helvetica,sans-Serif" font-size="10.00">UserManager::addUser</text>
</a>
</g>
</g>
<!-- Node2 -->
<g id="Node000002" class="node">
<title>Node2</title>
<g id="a_Node000002"><a xlink:href="../../d1/da2/class_user_manager.html#a65e90a5565b65c8feb3b9299872d609d" target="_top" xlink:title=" ">
<polygon fill="white" stroke="#666666" points="297.12,-93.25 163.38,-93.25 163.38,-74 297.12,-74 297.12,-93.25"/>
<text text-anchor="middle" x="230.25" y="-79.75" font-family="Helvetica,sans-Serif" font-size="10.00">UserManager::authenticate</text>
</a>
</g>
</g>
<!-- Node1&#45;&gt;Node2 -->
<g id="edge1_Node000001_Node000002" class="edge">
<title>Node1&#45;&gt;Node2</title>
<g id="a_edge1_Node000001_Node000002"><a xlink:title=" ">
<path fill="none" stroke="#63b8ff" d="M105.98,-56.74C126.36,-61.18 150.5,-66.45 171.99,-71.14"/>
<polygon fill="#63b8ff" stroke="#63b8ff" points="170.96,-74.49 181.48,-73.2 172.45,-67.65 170.96,-74.49"/>
</a>
</g>
</g>
<!-- Node5 -->
<g id="Node000005" class="node">
<title>Node5</title>
<g id="a_Node000005"><a xlink:href="../../d1/da2/class_user_manager.html#ae723fce00890079d4702ba901f7d39a9" target="_top" xlink:title="Saves all current user accounts to the webservice.">
<polygon fill="white" stroke="#666666" points="294.12,-56.25 166.38,-56.25 166.38,-37 294.12,-37 294.12,-56.25"/>
<text text-anchor="middle" x="230.25" y="-42.75" font-family="Helvetica,sans-Serif" font-size="10.00">UserManager::saveUsers</text>
</a>
</g>
</g>
<!-- Node1&#45;&gt;Node5 -->
<g id="edge4_Node000001_Node000005" class="edge">
<title>Node1&#45;&gt;Node5</title>
<g id="a_edge4_Node000001_Node000005"><a xlink:title=" ">
<path fill="none" stroke="#63b8ff" d="M117.53,-46.62C129.5,-46.62 142.28,-46.62 154.75,-46.62"/>
<polygon fill="#63b8ff" stroke="#63b8ff" points="154.58,-50.13 164.58,-46.63 154.58,-43.13 154.58,-50.13"/>
</a>
</g>
</g>
<!-- Node6 -->
<g id="Node000006" class="node">
<title>Node6</title>
<g id="a_Node000006"><a xlink:href="../../d1/da2/class_user_manager.html#a971a7f0b550dd6ac2c314a977aea395b" target="_top" xlink:title="Emitted when an operation that would change users fails (e.g., user not found, username taken).">
<polygon fill="white" stroke="#666666" points="307.25,-19.25 153.25,-19.25 153.25,0 307.25,0 307.25,-19.25"/>
<text text-anchor="middle" x="230.25" y="-5.75" font-family="Helvetica,sans-Serif" font-size="10.00">UserManager::userNotChanged</text>
</a>
</g>
</g>
<!-- Node1&#45;&gt;Node6 -->
<g id="edge5_Node000001_Node000006" class="edge">
<title>Node1&#45;&gt;Node6</title>
<g id="a_edge5_Node000001_Node000006"><a xlink:title=" ">
<path fill="none" stroke="#63b8ff" d="M105.98,-36.51C126.36,-32.07 150.5,-26.8 171.99,-22.11"/>
<polygon fill="#63b8ff" stroke="#63b8ff" points="172.45,-25.6 181.48,-20.05 170.96,-18.76 172.45,-25.6"/>
</a>
</g>
</g>
<!-- Node3 -->
<g id="Node000003" class="node">
<title>Node3</title>
<g id="a_Node000003"><a xlink:href="../../d1/da2/class_user_manager.html#ab930b67c285d8ba31325a2621fe5ea5d" target="_top" xlink:title="Emitted when user authentication fails.">
<polygon fill="white" stroke="#666666" points="493.5,-119.88 352.25,-119.88 352.25,-89.38 493.5,-89.38 493.5,-119.88"/>
<text text-anchor="start" x="360.25" y="-106.38" font-family="Helvetica,sans-Serif" font-size="10.00">UserManager::authentication</text>
<text text-anchor="middle" x="422.88" y="-95.12" font-family="Helvetica,sans-Serif" font-size="10.00">Failed</text>
</a>
</g>
</g>
<!-- Node2&#45;&gt;Node3 -->
<g id="edge2_Node000002_Node000003" class="edge">
<title>Node2&#45;&gt;Node3</title>
<g id="a_edge2_Node000002_Node000003"><a xlink:title=" ">
<path fill="none" stroke="#63b8ff" d="M297.39,-90.91C311.3,-92.44 326.14,-94.08 340.53,-95.66"/>
<polygon fill="#63b8ff" stroke="#63b8ff" points="340.14,-99.14 350.46,-96.76 340.9,-92.18 340.14,-99.14"/>
</a>
</g>
</g>
<!-- Node4 -->
<g id="Node000004" class="node">
<title>Node4</title>
<g id="a_Node000004"><a xlink:href="../../d1/da2/class_user_manager.html#abc36e1a0307e39413bf7e1ef9c487d61" target="_top" xlink:title="Emitted upon successful user authentication, providing the authenticated user.">
<polygon fill="white" stroke="#666666" points="502.5,-71.25 343.25,-71.25 343.25,-52 502.5,-52 502.5,-71.25"/>
<text text-anchor="middle" x="422.88" y="-57.75" font-family="Helvetica,sans-Serif" font-size="10.00">UserManager::userAuthenticated</text>
</a>
</g>
</g>
<!-- Node2&#45;&gt;Node4 -->
<g id="edge3_Node000002_Node000004" class="edge">
<title>Node2&#45;&gt;Node4</title>
<g id="a_edge3_Node000002_Node000004"><a xlink:title=" ">
<path fill="none" stroke="#63b8ff" d="M297.39,-75.99C308.55,-74.7 320.31,-73.35 331.95,-72"/>
<polygon fill="#63b8ff" stroke="#63b8ff" points="332.03,-75.52 341.56,-70.89 331.23,-68.56 332.03,-75.52"/>
</a>
</g>
</g>
</g>
</svg>
