<?xml version="1.0" encoding="UTF-8" standalone="no"?>
<!DOCTYPE svg PUBLIC "-//W3C//DTD SVG 1.1//EN"
 "http://www.w3.org/Graphics/SVG/1.1/DTD/svg11.dtd">
<!-- Generated by graphviz version 12.2.1 (20241206.2353)
 -->
<!-- Title: MainWindow::setupTestimonials Pages: 1 -->
<!--zoomable 567 -->

<svg id="main" version="1.1" xmlns="http://www.w3.org/2000/svg" xmlns:xlink="http://www.w3.org/1999/xlink" xml:space="preserve" onload="init(evt)">

<style type="text/css"><![CDATA[
.node, .edge {opacity: 0.7;}
.node.selected, .edge.selected {opacity: 1;}
.edge:hover path { stroke: red; }
.edge:hover polygon { stroke: red; fill: red; }
]]></style>

<defs>
  <circle id="rim" cx="0" cy="0" r="7"/>
  <circle id="rim2" cx="0" cy="0" r="3.5"/>
  <g id="zoomPlus">
    <use xlink:href="#rim" fill="#404040"><set attributeName="fill" to="#808080" begin="zoomplus.mouseover" end="zoomplus.mouseout"/></use>
    <path d="M-4,0h8M0,-4v8" fill="none" stroke="white" stroke-width="1.5" pointer-events="none"/>
  </g>
  <g id="zoomMin">
    <use xlink:href="#rim" fill="#404040"><set attributeName="fill" to="#808080" begin="zoomminus.mouseover" end="zoomminus.mouseout"/></use>
    <path d="M-4,0h8" fill="none" stroke="white" stroke-width="1.5" pointer-events="none"/>
  </g>
  <g id="arrowUp" transform="translate(30 24)">
    <use xlink:href="#rim"/>
    <path pointer-events="none" fill="none" stroke="white" stroke-width="1.5" d="M0,-3.0v7 M-2.5,-0.5L0,-3.0L2.5,-0.5"/>
  </g>
  <g id="arrowRight" transform="rotate(90) translate(36 -43)">
    <use xlink:href="#rim"/>
    <path pointer-events="none" fill="none" stroke="white" stroke-width="1.5" d="M0,-3.0v7 M-2.5,-0.5L0,-3.0L2.5,-0.5"/>
  </g>
  <g id="arrowDown" transform="rotate(180) translate(-30 -48)">
    <use xlink:href="#rim"/>
    <path pointer-events="none" fill="none" stroke="white" stroke-width="1.5" d="M0,-3.0v7 M-2.5,-0.5L0,-3.0L2.5,-0.5"/>
  </g>
  <g id="arrowLeft" transform="rotate(270) translate(-36 17)">
    <use xlink:href="#rim"/>
    <path pointer-events="none" fill="none" stroke="white" stroke-width="1.5" d="M0,-3.0v7 M-2.5,-0.5L0,-3.0L2.5,-0.5"/>
  </g>
  <g id="resetDef">
    <use xlink:href="#rim2" fill="#404040"><set attributeName="fill" to="#808080" begin="reset.mouseover" end="reset.mouseout"/></use>
  </g>
</defs>
<script type="application/ecmascript">
var viewWidth = 851;
var viewHeight = 567;
var sectionId = 'dynsection-63';
</script>
<script type="application/ecmascript" xlink:href="../../svg.min.js"/>
<svg id="graph" class="graph">
<g id="viewport">
<title>MainWindow::setupTestimonials</title>
<!-- Node1 -->
<g id="Node000001" class="node">
<title>Node1</title>
<g id="a_Node000001"><a xlink:title="Sets up connections and UI elements for the testimonial feature.">
<polygon fill="#999999" stroke="#666666" points="157,-122.88 0,-122.88 0,-103.62 157,-103.62 157,-122.88"/>
<text text-anchor="middle" x="78.5" y="-109.38" font-family="Helvetica,sans-Serif" font-size="10.00">MainWindow::setupTestimonials</text>
</a>
</g>
</g>
<!-- Node2 -->
<g id="Node000002" class="node">
<title>Node2</title>
<g id="a_Node000002"><a xlink:href="../../d4/d0d/class_testimonial_manager.html#a7b05489ceb9a8bd5e94e955c50b9515f" target="_top" xlink:title="Returns a reference to the singleton TestimonialManager instance.">
<polygon fill="white" stroke="#666666" points="322.62,-309.5 219.62,-309.5 219.62,-279 322.62,-279 322.62,-309.5"/>
<text text-anchor="start" x="227.62" y="-296" font-family="Helvetica,sans-Serif" font-size="10.00">TestimonialManager</text>
<text text-anchor="middle" x="271.12" y="-284.75" font-family="Helvetica,sans-Serif" font-size="10.00">::getInstance</text>
</a>
</g>
</g>
<!-- Node1&#45;&gt;Node2 -->
<g id="edge1_Node000001_Node000002" class="edge">
<title>Node1&#45;&gt;Node2</title>
<g id="a_edge1_Node000001_Node000002"><a xlink:title=" ">
<path fill="none" stroke="#63b8ff" d="M90.02,-123.24C119.46,-151.19 203.26,-230.76 245.36,-270.73"/>
<polygon fill="#63b8ff" stroke="#63b8ff" points="242.91,-273.24 252.58,-277.59 247.73,-268.16 242.91,-273.24"/>
</a>
</g>
</g>
<!-- Node9 -->
<g id="Node000009" class="node">
<title>Node9</title>
<g id="a_Node000009"><a xlink:href="../../d4/d0d/class_testimonial_manager.html#ade7e70f55550c1417ab7d0ca7b3b3142" target="_top" xlink:title="Emitted to prompt the user for a testimonial.">
<polygon fill="white" stroke="#666666" points="842.75,-303.5 697,-303.5 697,-273 842.75,-273 842.75,-303.5"/>
<text text-anchor="start" x="705" y="-290" font-family="Helvetica,sans-Serif" font-size="10.00">TestimonialManager</text>
<text text-anchor="middle" x="769.88" y="-278.75" font-family="Helvetica,sans-Serif" font-size="10.00">::shouldPromptForTestimonial</text>
</a>
</g>
</g>
<!-- Node1&#45;&gt;Node9 -->
<g id="edge15_Node000001_Node000009" class="edge">
<title>Node1&#45;&gt;Node9</title>
<g id="a_edge15_Node000001_Node000009"><a xlink:title=" ">
<path fill="none" stroke="#63b8ff" d="M121.05,-123.36C142.43,-128.23 168.98,-133.75 193,-137.25 399.5,-167.34 472.62,-85.46 661,-175.25 701.6,-194.6 734.86,-236.29 753.26,-263.26"/>
<polygon fill="#63b8ff" stroke="#63b8ff" points="750.3,-265.13 758.73,-271.54 756.14,-261.27 750.3,-265.13"/>
</a>
</g>
</g>
<!-- Node16 -->
<g id="Node000016" class="node">
<title>Node16</title>
<g id="a_Node000016"><a xlink:href="../../d9/dc6/class_main_window.html#ade3d9ed9b1c685f1ba1044cf10a401a4" target="_top" xlink:title="Displays a dialog prompting the user to submit a testimonial.">
<polygon fill="white" stroke="#666666" points="346.62,-128.5 195.62,-128.5 195.62,-98 346.62,-98 346.62,-128.5"/>
<text text-anchor="start" x="203.62" y="-115" font-family="Helvetica,sans-Serif" font-size="10.00">MainWindow::showTestimonial</text>
<text text-anchor="middle" x="271.12" y="-103.75" font-family="Helvetica,sans-Serif" font-size="10.00">Prompt</text>
</a>
</g>
</g>
<!-- Node1&#45;&gt;Node16 -->
<g id="edge16_Node000001_Node000016" class="edge">
<title>Node1&#45;&gt;Node16</title>
<g id="a_edge16_Node000001_Node000016"><a xlink:title=" ">
<path fill="none" stroke="#63b8ff" d="M157.31,-113.25C166.14,-113.25 175.18,-113.25 184.11,-113.25"/>
<polygon fill="#63b8ff" stroke="#63b8ff" points="183.82,-116.75 193.82,-113.25 183.82,-109.75 183.82,-116.75"/>
</a>
</g>
</g>
<!-- Node17 -->
<g id="Node000017" class="node">
<title>Node17</title>
<g id="a_Node000017"><a xlink:href="../../d9/dc6/class_main_window.html#a415d10b19b2dd2e7ba99d0dd5fcb76da" target="_top" xlink:title="Displays a dialog showing existing testimonials.">
<polygon fill="white" stroke="#666666" points="349.25,-79.5 193,-79.5 193,-49 349.25,-49 349.25,-79.5"/>
<text text-anchor="start" x="201" y="-66" font-family="Helvetica,sans-Serif" font-size="10.00">MainWindow::showTestimonials</text>
<text text-anchor="middle" x="271.12" y="-54.75" font-family="Helvetica,sans-Serif" font-size="10.00">Display</text>
</a>
</g>
</g>
<!-- Node1&#45;&gt;Node17 -->
<g id="edge17_Node000001_Node000017" class="edge">
<title>Node1&#45;&gt;Node17</title>
<g id="a_edge17_Node000001_Node000017"><a xlink:title=" ">
<path fill="none" stroke="#63b8ff" d="M118.54,-103.22C141.42,-97.33 171.04,-89.72 198.02,-82.78"/>
<polygon fill="#63b8ff" stroke="#63b8ff" points="198.72,-86.22 207.53,-80.34 196.97,-79.44 198.72,-86.22"/>
</a>
</g>
</g>
<!-- Node18 -->
<g id="Node000018" class="node">
<title>Node18</title>
<g id="a_Node000018"><a xlink:href="../../d4/d0d/class_testimonial_manager.html#a06504060ff2ed420035a8433e03d8fa5" target="_top" xlink:title="Starts the timer for tracking user activity time.">
<polygon fill="white" stroke="#666666" points="322.62,-30.5 219.62,-30.5 219.62,0 322.62,0 322.62,-30.5"/>
<text text-anchor="start" x="227.62" y="-17" font-family="Helvetica,sans-Serif" font-size="10.00">TestimonialManager</text>
<text text-anchor="middle" x="271.12" y="-5.75" font-family="Helvetica,sans-Serif" font-size="10.00">::startTrackingTime</text>
</a>
</g>
</g>
<!-- Node1&#45;&gt;Node18 -->
<g id="edge18_Node000001_Node000018" class="edge">
<title>Node1&#45;&gt;Node18</title>
<g id="a_edge18_Node000001_Node000018"><a xlink:title=" ">
<path fill="none" stroke="#63b8ff" d="M92.47,-103.31C112.9,-88.02 154.26,-58.61 193,-40.25 198.04,-37.86 203.36,-35.62 208.77,-33.52"/>
<polygon fill="#63b8ff" stroke="#63b8ff" points="209.6,-36.95 217.78,-30.21 207.18,-30.38 209.6,-36.95"/>
</a>
</g>
</g>
<!-- Node3 -->
<g id="Node000003" class="node">
<title>Node3</title>
<g id="a_Node000003"><a xlink:href="../../d4/d0d/class_testimonial_manager.html#aded0ef0783e1e67e701f7c3bf3a80072" target="_top" xlink:title="Private constructor to enforce singleton pattern. Initializes API connections and timer.">
<polygon fill="white" stroke="#666666" points="494.25,-382.5 385.25,-382.5 385.25,-352 494.25,-352 494.25,-382.5"/>
<text text-anchor="start" x="393.25" y="-369" font-family="Helvetica,sans-Serif" font-size="10.00">TestimonialManager</text>
<text text-anchor="middle" x="439.75" y="-357.75" font-family="Helvetica,sans-Serif" font-size="10.00">::TestimonialManager</text>
</a>
</g>
</g>
<!-- Node2&#45;&gt;Node3 -->
<g id="edge2_Node000002_Node000003" class="edge">
<title>Node2&#45;&gt;Node3</title>
<g id="a_edge2_Node000002_Node000003"><a xlink:title=" ">
<path fill="none" stroke="#63b8ff" d="M307.87,-309.91C332.69,-320.78 365.98,-335.37 392.77,-347.11"/>
<polygon fill="#63b8ff" stroke="#63b8ff" points="391.11,-350.2 401.68,-351.01 393.92,-343.79 391.11,-350.2"/>
</a>
</g>
</g>
<!-- Node4 -->
<g id="Node000004" class="node">
<title>Node4</title>
<g id="a_Node000004"><a xlink:href="../../d2/dd1/class_api_client.html#ae22339e302eb27bc51fbdfc1b7c1a4ec" target="_top" xlink:title="Signal for a failed request sent to a Get endpoint.">
<polygon fill="white" stroke="#666666" points="655.75,-558.88 535.5,-558.88 535.5,-539.62 655.75,-539.62 655.75,-558.88"/>
<text text-anchor="middle" x="595.62" y="-545.38" font-family="Helvetica,sans-Serif" font-size="10.00">ApiClient::BadGetReply</text>
</a>
</g>
</g>
<!-- Node3&#45;&gt;Node4 -->
<g id="edge3_Node000003_Node000004" class="edge">
<title>Node3&#45;&gt;Node4</title>
<g id="a_edge3_Node000003_Node000004"><a xlink:title=" ">
<path fill="none" stroke="#63b8ff" d="M444.71,-382.53C453.94,-415.03 479.99,-491.27 530.25,-531.25 531.37,-532.14 532.54,-532.99 533.74,-533.8"/>
<polygon fill="#63b8ff" stroke="#63b8ff" points="531.75,-536.7 542.2,-538.47 535.14,-530.57 531.75,-536.7"/>
</a>
</g>
</g>
<!-- Node5 -->
<g id="Node000005" class="node">
<title>Node5</title>
<g id="a_Node000005"><a xlink:href="../../d2/dd1/class_api_client.html#ac0f68b238bace3703854d7de15a3bb38" target="_top" xlink:title="Signal for a failed request sent to a Post endpoint.">
<polygon fill="white" stroke="#666666" points="658,-521.88 533.25,-521.88 533.25,-502.62 658,-502.62 658,-521.88"/>
<text text-anchor="middle" x="595.62" y="-508.38" font-family="Helvetica,sans-Serif" font-size="10.00">ApiClient::BadPostReply</text>
</a>
</g>
</g>
<!-- Node3&#45;&gt;Node5 -->
<g id="edge4_Node000003_Node000005" class="edge">
<title>Node3&#45;&gt;Node5</title>
<g id="a_edge4_Node000003_Node000005"><a xlink:title=" ">
<path fill="none" stroke="#63b8ff" d="M447.65,-382.99C460.17,-409.72 489.2,-463.94 530.25,-493.25 532.29,-494.71 534.45,-496.06 536.68,-497.3"/>
<polygon fill="#63b8ff" stroke="#63b8ff" points="534.96,-500.36 545.5,-501.48 537.96,-494.03 534.96,-500.36"/>
</a>
</g>
</g>
<!-- Node6 -->
<g id="Node000006" class="node">
<title>Node6</title>
<g id="a_Node000006"><a xlink:href="../../d4/d0d/class_testimonial_manager.html#a69979eb09835fcb35d804fa169b63f0f" target="_top" xlink:title="Checks accumulated user time and emits shouldPromptForTestimonial if criteria are met.">
<polygon fill="white" stroke="#666666" points="655,-484.5 536.25,-484.5 536.25,-454 655,-454 655,-484.5"/>
<text text-anchor="start" x="544.25" y="-471" font-family="Helvetica,sans-Serif" font-size="10.00">TestimonialManager</text>
<text text-anchor="middle" x="595.62" y="-459.75" font-family="Helvetica,sans-Serif" font-size="10.00">::checkTimeAndPrompt</text>
</a>
</g>
</g>
<!-- Node3&#45;&gt;Node6 -->
<g id="edge5_Node000003_Node000006" class="edge">
<title>Node3&#45;&gt;Node6</title>
<g id="a_edge5_Node000003_Node000006"><a xlink:title=" ">
<path fill="none" stroke="#63b8ff" d="M455.26,-382.9C471.95,-400.15 500.85,-427.75 530.25,-445.25 532.25,-446.44 534.32,-447.59 536.44,-448.7"/>
<polygon fill="#63b8ff" stroke="#63b8ff" points="534.72,-451.75 545.25,-452.91 537.74,-445.44 534.72,-451.75"/>
</a>
</g>
</g>
<!-- Node10 -->
<g id="Node000010" class="node">
<title>Node10</title>
<g id="a_Node000010"><a xlink:href="../../d2/dd1/class_api_client.html#a940bf610f9fa472fc660e1ab60203de7" target="_top" xlink:title="Signal for a successful request sent to a Get endpoint.">
<polygon fill="white" stroke="#666666" points="658.75,-435.88 532.5,-435.88 532.5,-416.62 658.75,-416.62 658.75,-435.88"/>
<text text-anchor="middle" x="595.62" y="-422.38" font-family="Helvetica,sans-Serif" font-size="10.00">ApiClient::GoodGetReply</text>
</a>
</g>
</g>
<!-- Node3&#45;&gt;Node10 -->
<g id="edge9_Node000003_Node000010" class="edge">
<title>Node3&#45;&gt;Node10</title>
<g id="a_edge9_Node000003_Node000010"><a xlink:title=" ">
<path fill="none" stroke="#63b8ff" d="M471.72,-382.9C488.73,-391.11 510.35,-400.96 530.25,-408.25 534.66,-409.87 539.29,-411.42 543.96,-412.9"/>
<polygon fill="#63b8ff" stroke="#63b8ff" points="542.79,-416.2 553.37,-415.74 544.81,-409.5 542.79,-416.2"/>
</a>
</g>
</g>
<!-- Node11 -->
<g id="Node000011" class="node">
<title>Node11</title>
<g id="a_Node000011"><a xlink:href="../../d2/dd1/class_api_client.html#aa2e03a2c693acb0052f80415b453e279" target="_top" xlink:title="Signal for a successful request sent to a Post endpoint.">
<polygon fill="white" stroke="#666666" points="661,-398.88 530.25,-398.88 530.25,-379.62 661,-379.62 661,-398.88"/>
<text text-anchor="middle" x="595.62" y="-385.38" font-family="Helvetica,sans-Serif" font-size="10.00">ApiClient::GoodPostReply</text>
</a>
</g>
</g>
<!-- Node3&#45;&gt;Node11 -->
<g id="edge10_Node000003_Node000011" class="edge">
<title>Node3&#45;&gt;Node11</title>
<g id="a_edge10_Node000003_Node000011"><a xlink:title=" ">
<path fill="none" stroke="#63b8ff" d="M494.57,-374.94C502.43,-376.07 510.65,-377.24 518.86,-378.42"/>
<polygon fill="#63b8ff" stroke="#63b8ff" points="518.1,-381.84 528.5,-379.8 519.09,-374.92 518.1,-381.84"/>
</a>
</g>
</g>
<!-- Node12 -->
<g id="Node000012" class="node">
<title>Node12</title>
<g id="a_Node000012"><a xlink:href="../../d4/d0d/class_testimonial_manager.html#aa256bebedcc689ce416c7a2fcade3900" target="_top" xlink:title="Slot called when a GET request for testimonials fails.">
<polygon fill="white" stroke="#666666" points="650.5,-361.5 540.75,-361.5 540.75,-331 650.5,-331 650.5,-361.5"/>
<text text-anchor="start" x="548.75" y="-348" font-family="Helvetica,sans-Serif" font-size="10.00">TestimonialManager</text>
<text text-anchor="middle" x="595.62" y="-336.75" font-family="Helvetica,sans-Serif" font-size="10.00">::onBadGetResponse</text>
</a>
</g>
</g>
<!-- Node3&#45;&gt;Node12 -->
<g id="edge11_Node000003_Node000012" class="edge">
<title>Node3&#45;&gt;Node12</title>
<g id="a_edge11_Node000003_Node000012"><a xlink:title=" ">
<path fill="none" stroke="#63b8ff" d="M494.57,-359.91C505.68,-358.39 517.51,-356.77 528.99,-355.21"/>
<polygon fill="#63b8ff" stroke="#63b8ff" points="529.38,-358.69 538.82,-353.87 528.44,-351.75 529.38,-358.69"/>
</a>
</g>
</g>
<!-- Node13 -->
<g id="Node000013" class="node">
<title>Node13</title>
<g id="a_Node000013"><a xlink:href="../../d4/d0d/class_testimonial_manager.html#acfda7a2d454b513c1c75d8d030a43dd9" target="_top" xlink:title="Slot called when a POST request to save testimonials fails.">
<polygon fill="white" stroke="#666666" points="652.75,-312.5 538.5,-312.5 538.5,-282 652.75,-282 652.75,-312.5"/>
<text text-anchor="start" x="546.5" y="-299" font-family="Helvetica,sans-Serif" font-size="10.00">TestimonialManager</text>
<text text-anchor="middle" x="595.62" y="-287.75" font-family="Helvetica,sans-Serif" font-size="10.00">::onBadPostResponse</text>
</a>
</g>
</g>
<!-- Node3&#45;&gt;Node13 -->
<g id="edge12_Node000003_Node000013" class="edge">
<title>Node3&#45;&gt;Node13</title>
<g id="a_edge12_Node000003_Node000013"><a xlink:title=" ">
<path fill="none" stroke="#63b8ff" d="M470.24,-351.53C487.53,-342.54 509.91,-331.29 530.25,-322.25 534.03,-320.57 537.97,-318.89 541.94,-317.23"/>
<polygon fill="#63b8ff" stroke="#63b8ff" points="543.14,-320.53 551.08,-313.52 540.5,-314.04 543.14,-320.53"/>
</a>
</g>
</g>
<!-- Node14 -->
<g id="Node000014" class="node">
<title>Node14</title>
<g id="a_Node000014"><a xlink:href="../../d4/d0d/class_testimonial_manager.html#a2a9ada04ab15847f2c1b3c81deb994d7" target="_top" xlink:title="Slot called when a GET request for testimonials succeeds.">
<polygon fill="white" stroke="#666666" points="653.5,-263.5 537.75,-263.5 537.75,-233 653.5,-233 653.5,-263.5"/>
<text text-anchor="start" x="545.75" y="-250" font-family="Helvetica,sans-Serif" font-size="10.00">TestimonialManager</text>
<text text-anchor="middle" x="595.62" y="-238.75" font-family="Helvetica,sans-Serif" font-size="10.00">::onGoodGetResponse</text>
</a>
</g>
</g>
<!-- Node3&#45;&gt;Node14 -->
<g id="edge13_Node000003_Node000014" class="edge">
<title>Node3&#45;&gt;Node14</title>
<g id="a_edge13_Node000003_Node000014"><a xlink:title=" ">
<path fill="none" stroke="#63b8ff" d="M452.12,-351.56C467.69,-331.06 497.49,-295.19 530.25,-273.25 532.35,-271.84 534.55,-270.49 536.81,-269.21"/>
<polygon fill="#63b8ff" stroke="#63b8ff" points="538.37,-272.34 545.66,-264.66 535.17,-266.12 538.37,-272.34"/>
</a>
</g>
</g>
<!-- Node15 -->
<g id="Node000015" class="node">
<title>Node15</title>
<g id="a_Node000015"><a xlink:href="../../d4/d0d/class_testimonial_manager.html#ad384569c01fdadf0bb38e053a7bee337" target="_top" xlink:title="Slot called when a POST request to save testimonials succeeds.">
<polygon fill="white" stroke="#666666" points="655.75,-214.5 535.5,-214.5 535.5,-184 655.75,-184 655.75,-214.5"/>
<text text-anchor="start" x="543.5" y="-201" font-family="Helvetica,sans-Serif" font-size="10.00">TestimonialManager</text>
<text text-anchor="middle" x="595.62" y="-189.75" font-family="Helvetica,sans-Serif" font-size="10.00">::onGoodPostResponse</text>
</a>
</g>
</g>
<!-- Node3&#45;&gt;Node15 -->
<g id="edge14_Node000003_Node000015" class="edge">
<title>Node3&#45;&gt;Node15</title>
<g id="a_edge14_Node000003_Node000015"><a xlink:title=" ">
<path fill="none" stroke="#63b8ff" d="M446.61,-351.63C458.24,-322.61 486.92,-260.09 530.25,-224.25 531.74,-223.02 533.3,-221.84 534.92,-220.71"/>
<polygon fill="#63b8ff" stroke="#63b8ff" points="536.59,-223.79 543.35,-215.63 532.98,-217.8 536.59,-223.79"/>
</a>
</g>
</g>
<!-- Node7 -->
<g id="Node000007" class="node">
<title>Node7</title>
<g id="a_Node000007"><a xlink:href="../../d4/d0d/class_testimonial_manager.html#a1ebec1a781a7508501e398bb042a0b2d" target="_top" xlink:title="Retrieves the &quot;do not show again&quot; preference for a user.">
<polygon fill="white" stroke="#666666" points="826.62,-508.5 713.12,-508.5 713.12,-478 826.62,-478 826.62,-508.5"/>
<text text-anchor="start" x="721.12" y="-495" font-family="Helvetica,sans-Serif" font-size="10.00">TestimonialManager</text>
<text text-anchor="middle" x="769.88" y="-483.75" font-family="Helvetica,sans-Serif" font-size="10.00">::getDoNotShowAgain</text>
</a>
</g>
</g>
<!-- Node6&#45;&gt;Node7 -->
<g id="edge6_Node000006_Node000007" class="edge">
<title>Node6&#45;&gt;Node7</title>
<g id="a_edge6_Node000006_Node000007"><a xlink:title=" ">
<path fill="none" stroke="#63b8ff" d="M655.42,-477.44C670.18,-479.5 686.13,-481.72 701.28,-483.83"/>
<polygon fill="#63b8ff" stroke="#63b8ff" points="700.78,-487.3 711.17,-485.21 701.75,-480.36 700.78,-487.3"/>
</a>
</g>
</g>
<!-- Node8 -->
<g id="Node000008" class="node">
<title>Node8</title>
<g id="a_Node000008"><a xlink:href="../../d4/d0d/class_testimonial_manager.html#a9466acdac4dddfe8947b41cb637cb556" target="_top" xlink:title="Checks if a user with the given username has already submitted a testimonial.">
<polygon fill="white" stroke="#666666" points="836.75,-459.5 703,-459.5 703,-429 836.75,-429 836.75,-459.5"/>
<text text-anchor="start" x="711" y="-446" font-family="Helvetica,sans-Serif" font-size="10.00">TestimonialManager</text>
<text text-anchor="middle" x="769.88" y="-434.75" font-family="Helvetica,sans-Serif" font-size="10.00">::hasUserGivenTestimonial</text>
</a>
</g>
</g>
<!-- Node6&#45;&gt;Node8 -->
<g id="edge7_Node000006_Node000008" class="edge">
<title>Node6&#45;&gt;Node8</title>
<g id="a_edge7_Node000006_Node000008"><a xlink:title=" ">
<path fill="none" stroke="#63b8ff" d="M655.42,-460.72C667.06,-459.03 679.45,-457.23 691.59,-455.47"/>
<polygon fill="#63b8ff" stroke="#63b8ff" points="691.76,-458.98 701.15,-454.08 690.76,-452.05 691.76,-458.98"/>
</a>
</g>
</g>
<!-- Node6&#45;&gt;Node9 -->
<g id="edge8_Node000006_Node000009" class="edge">
<title>Node6&#45;&gt;Node9</title>
<g id="a_edge8_Node000006_Node000009"><a xlink:title=" ">
<path fill="none" stroke="#63b8ff" d="M647.76,-453.61C652.46,-451.18 656.96,-448.41 661,-445.25 706.87,-409.44 740.65,-348.69 757.28,-314.2"/>
<polygon fill="#63b8ff" stroke="#63b8ff" points="760.35,-315.89 761.43,-305.36 754.02,-312.92 760.35,-315.89"/>
</a>
</g>
</g>
</g>
</svg>

<g id="navigator" transform="translate(0 0)" fill="#404254">
  <rect fill="#f2f5e9" fill-opacity="0.5" stroke="#606060" stroke-width=".5" x="0" y="0" width="60" height="60"/>
  <use id="zoomplus" xlink:href="#zoomPlus" x="17" y="9" onmousedown="handleZoom(evt,'in')"/>
  <use id="zoomminus" xlink:href="#zoomMin" x="42" y="9" onmousedown="handleZoom(evt,'out')"/>
  <use id="reset" xlink:href="#resetDef" x="30" y="36" onmousedown="handleReset()"/>
   <use id="arrowup" xlink:href="#arrowUp" x="0" y="0" onmousedown="handlePan(0,-1)"/>
  <use id="arrowright" xlink:href="#arrowRight" x="0" y="0" onmousedown="handlePan(1,0)"/>
  <use id="arrowdown" xlink:href="#arrowDown" x="0" y="0" onmousedown="handlePan(0,1)"/>
  <use id="arrowleft" xlink:href="#arrowLeft" x="0" y="0" onmousedown="handlePan(-1,0)"/>
</g>
<svg viewBox="0 0 15 15" width="100%" height="30px" preserveAspectRatio="xMaxYMin meet">
 <g id="arrow_out" transform="scale(0.3 0.3)">
  <a xlink:href="class_main_window_aa2910dbb80e3e72ef731d27d70100d8e_cgraph_org.svg" target="_base">
   <rect id="button" ry="5" rx="5" y="6" x="6" height="38" width="38"
        fill="#f2f5e9" fill-opacity="0.5" stroke="#606060" stroke-width="1.0"/>
   <path id="arrow"
     d="M 11.500037,31.436501 C 11.940474,20.09759 22.043105,11.32322 32.158766,21.979434 L 37.068811,17.246167 C 37.068811,17.246167 37.088388,32 37.088388,32 L 22.160133,31.978069 C 22.160133,31.978069 26.997745,27.140456 26.997745,27.140456 C 18.528582,18.264221 13.291696,25.230495 11.500037,31.436501 z"
     style="fill:#404040;"/>
  </a>
 </g>
</svg>

<style type='text/css'>
<![CDATA[
[data-mouse-over-selected='false'] { opacity: 0.7; }
[data-mouse-over-selected='true']  { opacity: 1.0; }
]]>
</style>
<script type="application/ecmascript"><![CDATA[
document.addEventListener('DOMContentLoaded', (event) => {
  highlightEdges();
  highlightAdjacentNodes();
});
]]></script>
</svg>
