<?xml version="1.0" encoding="UTF-8" standalone="no"?>
<!DOCTYPE svg PUBLIC "-//W3C//DTD SVG 1.1//EN"
 "http://www.w3.org/Graphics/SVG/1.1/DTD/svg11.dtd">
<!-- Generated by graphviz version 12.2.1 (20241206.2353)
 -->
<!-- Title: MainWindow::addToShapeTree Pages: 1 -->
<svg width="721pt" height="1275pt"
 viewBox="0.00 0.00 720.75 1274.88" xmlns="http://www.w3.org/2000/svg" xmlns:xlink="http://www.w3.org/1999/xlink">
<g id="graph0" class="graph" transform="scale(1 1) rotate(0) translate(4 1270.88)">
<title>MainWindow::addToShapeTree</title>
<!-- Node1 -->
<g id="Node000001" class="node">
<title>Node1</title>
<g id="a_Node000001"><a xlink:title="Adds a given shape to the properties tree widget and emits shapeAdded signal.">
<polygon fill="#999999" stroke="#666666" points="151.75,-618.25 0,-618.25 0,-599 151.75,-599 151.75,-618.25"/>
<text text-anchor="middle" x="75.88" y="-604.75" font-family="Helvetica,sans-Serif" font-size="10.00">MainWindow::addToShapeTree</text>
</a>
</g>
</g>
<!-- Node2 -->
<g id="Node000002" class="node">
<title>Node2</title>
<g id="a_Node000002"><a xlink:href="../../d9/dc6/class_main_window.html#af82d1897a3213375ae0f1c7d7652150a" target="_top" xlink:title="Emitted when a new shape is added by the user.">
<polygon fill="white" stroke="#666666" points="320,-640.25 187.75,-640.25 187.75,-621 320,-621 320,-640.25"/>
<text text-anchor="middle" x="253.88" y="-626.75" font-family="Helvetica,sans-Serif" font-size="10.00">MainWindow::shapeAdded</text>
</a>
</g>
</g>
<!-- Node1&#45;&gt;Node2 -->
<g id="edge1_Node000001_Node000002" class="edge">
<title>Node1&#45;&gt;Node2</title>
<g id="a_edge1_Node000001_Node000002"><a xlink:title=" ">
<path fill="none" stroke="#63b8ff" d="M152.03,-618.02C160.03,-619.02 168.17,-620.04 176.19,-621.04"/>
<polygon fill="#63b8ff" stroke="#63b8ff" points="175.56,-624.49 185.91,-622.25 176.42,-617.54 175.56,-624.49"/>
</a>
</g>
</g>
<!-- Node3 -->
<g id="Node000003" class="node">
<title>Node3</title>
<g id="a_Node000003"><a xlink:href="../../d9/dc6/class_main_window.html#a5ff173340d6b138bee993d26454d2aaa" target="_top" xlink:title="Populates the tree widget with details of the current shapes and sets up editing controls.">
<polygon fill="white" stroke="#666666" points="308.75,-602.88 199,-602.88 199,-572.38 308.75,-572.38 308.75,-602.88"/>
<text text-anchor="start" x="207" y="-589.38" font-family="Helvetica,sans-Serif" font-size="10.00">MainWindow::shapes</text>
<text text-anchor="middle" x="253.88" y="-578.12" font-family="Helvetica,sans-Serif" font-size="10.00">_to_treeWidget</text>
</a>
</g>
</g>
<!-- Node1&#45;&gt;Node3 -->
<g id="edge2_Node000001_Node000003" class="edge">
<title>Node1&#45;&gt;Node3</title>
<g id="a_edge2_Node000001_Node000003"><a xlink:title=" ">
<path fill="none" stroke="#63b8ff" d="M152.03,-599.66C163.8,-598.25 175.88,-596.81 187.42,-595.44"/>
<polygon fill="#63b8ff" stroke="#63b8ff" points="187.71,-598.92 197.23,-594.26 186.88,-591.97 187.71,-598.92"/>
</a>
</g>
</g>
<!-- Node4 -->
<g id="Node000004" class="node">
<title>Node4</title>
<g id="a_Node000004"><a xlink:href="../../d9/dc6/class_main_window.html#a405427dd9586218cba7d02d495bb88cc" target="_top" xlink:title="Creates and configures a QComboBox for selecting text alignment.">
<polygon fill="white" stroke="#666666" points="519,-1266.88 370.25,-1266.88 370.25,-1236.38 519,-1236.38 519,-1266.88"/>
<text text-anchor="start" x="378.25" y="-1253.38" font-family="Helvetica,sans-Serif" font-size="10.00">MainWindow::createAlignment</text>
<text text-anchor="middle" x="444.62" y="-1242.12" font-family="Helvetica,sans-Serif" font-size="10.00">ComboBox</text>
</a>
</g>
</g>
<!-- Node3&#45;&gt;Node4 -->
<g id="edge3_Node000003_Node000004" class="edge">
<title>Node3&#45;&gt;Node4</title>
<g id="a_edge3_Node000003_Node000004"><a xlink:title=" ">
<path fill="none" stroke="#63b8ff" d="M309,-601.38C313.21,-604.18 316.99,-607.56 320,-611.62 401.55,-721.59 270.38,-1119.8 356,-1226.62 357.45,-1228.43 359.01,-1230.11 360.68,-1231.68"/>
<polygon fill="#63b8ff" stroke="#63b8ff" points="358.5,-1234.41 368.59,-1237.65 362.73,-1228.83 358.5,-1234.41"/>
</a>
</g>
</g>
<!-- Node5 -->
<g id="Node000005" class="node">
<title>Node5</title>
<g id="a_Node000005"><a xlink:href="../../d9/dc6/class_main_window.html#a77d4dace8cb3dab4130649f4dd61f90e" target="_top" xlink:title="Creates and configures a QComboBox for selecting brush styles.">
<polygon fill="white" stroke="#666666" points="521.25,-1217.88 368,-1217.88 368,-1187.38 521.25,-1187.38 521.25,-1217.88"/>
<text text-anchor="start" x="376" y="-1204.38" font-family="Helvetica,sans-Serif" font-size="10.00">MainWindow::createBrushStyle</text>
<text text-anchor="middle" x="444.62" y="-1193.12" font-family="Helvetica,sans-Serif" font-size="10.00">ComboBox</text>
</a>
</g>
</g>
<!-- Node3&#45;&gt;Node5 -->
<g id="edge4_Node000003_Node000005" class="edge">
<title>Node3&#45;&gt;Node5</title>
<g id="a_edge4_Node000003_Node000005"><a xlink:title=" ">
<path fill="none" stroke="#63b8ff" d="M308.98,-601.39C313.19,-604.2 316.98,-607.57 320,-611.62 395.46,-712.85 276.28,-1080.73 356,-1178.62 356.95,-1179.79 357.96,-1180.91 359.01,-1181.97"/>
<polygon fill="#63b8ff" stroke="#63b8ff" points="356.72,-1184.63 366.69,-1188.21 361.13,-1179.19 356.72,-1184.63"/>
</a>
</g>
</g>
<!-- Node6 -->
<g id="Node000006" class="node">
<title>Node6</title>
<g id="a_Node000006"><a xlink:href="../../d9/dc6/class_main_window.html#a13cf8174967b39a40231f9a98dd21565" target="_top" xlink:title="Creates and configures a QComboBox for selecting colors.">
<polygon fill="white" stroke="#666666" points="533.25,-1169.25 356,-1169.25 356,-1150 533.25,-1150 533.25,-1169.25"/>
<text text-anchor="middle" x="444.62" y="-1155.75" font-family="Helvetica,sans-Serif" font-size="10.00">MainWindow::createColorComboBox</text>
</a>
</g>
</g>
<!-- Node3&#45;&gt;Node6 -->
<g id="edge5_Node000003_Node000006" class="edge">
<title>Node3&#45;&gt;Node6</title>
<g id="a_edge5_Node000003_Node000006"><a xlink:title=" ">
<path fill="none" stroke="#63b8ff" d="M308.96,-601.41C313.18,-604.21 316.97,-607.57 320,-611.62 390.76,-706.12 278.34,-1052.72 356,-1141.62 356.17,-1141.82 356.33,-1142 356.5,-1142.19"/>
<polygon fill="#63b8ff" stroke="#63b8ff" points="353.96,-1144.62 363.82,-1148.52 358.54,-1139.33 353.96,-1144.62"/>
</a>
</g>
</g>
<!-- Node7 -->
<g id="Node000007" class="node">
<title>Node7</title>
<g id="a_Node000007"><a xlink:href="../../d9/dc6/class_main_window.html#a3785b3b7329dcdaf51f45312abe7dd6a" target="_top" xlink:title="Creates and configures a QComboBox for selecting font families.">
<polygon fill="white" stroke="#666666" points="531.38,-1132.25 357.88,-1132.25 357.88,-1113 531.38,-1113 531.38,-1132.25"/>
<text text-anchor="middle" x="444.62" y="-1118.75" font-family="Helvetica,sans-Serif" font-size="10.00">MainWindow::createFontComboBox</text>
</a>
</g>
</g>
<!-- Node3&#45;&gt;Node7 -->
<g id="edge6_Node000003_Node000007" class="edge">
<title>Node3&#45;&gt;Node7</title>
<g id="a_edge6_Node000003_Node000007"><a xlink:title=" ">
<path fill="none" stroke="#63b8ff" d="M309.24,-601.62C313.34,-604.38 317.03,-607.68 320,-611.62 385.94,-699.2 284.11,-1020.86 356,-1103.62 356.57,-1104.29 357.17,-1104.93 357.77,-1105.55"/>
<polygon fill="#63b8ff" stroke="#63b8ff" points="355.33,-1108.08 365.31,-1111.64 359.73,-1102.63 355.33,-1108.08"/>
</a>
</g>
</g>
<!-- Node8 -->
<g id="Node000008" class="node">
<title>Node8</title>
<g id="a_Node000008"><a xlink:href="../../d9/dc6/class_main_window.html#a59688ddfdfc0f919ff7058dfcda42fa1" target="_top" xlink:title="Creates and configures a QComboBox for selecting font styles (normal, italic, oblique).">
<polygon fill="white" stroke="#666666" points="518.25,-1094.88 371,-1094.88 371,-1064.38 518.25,-1064.38 518.25,-1094.88"/>
<text text-anchor="start" x="379" y="-1081.38" font-family="Helvetica,sans-Serif" font-size="10.00">MainWindow::createFontStyle</text>
<text text-anchor="middle" x="444.62" y="-1070.12" font-family="Helvetica,sans-Serif" font-size="10.00">ComboBox</text>
</a>
</g>
</g>
<!-- Node3&#45;&gt;Node8 -->
<g id="edge7_Node000003_Node000008" class="edge">
<title>Node3&#45;&gt;Node8</title>
<g id="a_edge7_Node000003_Node000008"><a xlink:title=" ">
<path fill="none" stroke="#63b8ff" d="M309.2,-601.65C313.31,-604.4 317.01,-607.69 320,-611.62 379.73,-690.29 293.36,-978.26 356,-1054.62 357.67,-1056.66 359.5,-1058.54 361.45,-1060.27"/>
<polygon fill="#63b8ff" stroke="#63b8ff" points="359.34,-1063.07 369.5,-1066.07 363.43,-1057.39 359.34,-1063.07"/>
</a>
</g>
</g>
<!-- Node9 -->
<g id="Node000009" class="node">
<title>Node9</title>
<g id="a_Node000009"><a xlink:href="../../d9/dc6/class_main_window.html#aca7d4f5f2149d757046f5d7cd8d5f8f7" target="_top" xlink:title="Creates and configures a QComboBox for selecting font weights.">
<polygon fill="white" stroke="#666666" points="522,-1045.88 367.25,-1045.88 367.25,-1015.38 522,-1015.38 522,-1045.88"/>
<text text-anchor="start" x="375.25" y="-1032.38" font-family="Helvetica,sans-Serif" font-size="10.00">MainWindow::createFontWeight</text>
<text text-anchor="middle" x="444.62" y="-1021.12" font-family="Helvetica,sans-Serif" font-size="10.00">ComboBox</text>
</a>
</g>
</g>
<!-- Node3&#45;&gt;Node9 -->
<g id="edge8_Node000003_Node000009" class="edge">
<title>Node3&#45;&gt;Node9</title>
<g id="a_edge8_Node000003_Node000009"><a xlink:title=" ">
<path fill="none" stroke="#63b8ff" d="M309.16,-601.68C313.28,-604.43 316.99,-607.71 320,-611.62 373.52,-681.38 299.9,-937.93 356,-1005.62 356.68,-1006.45 357.39,-1007.25 358.13,-1008.03"/>
<polygon fill="#63b8ff" stroke="#63b8ff" points="355.75,-1010.6 365.64,-1014.41 360.29,-1005.27 355.75,-1010.6"/>
</a>
</g>
</g>
<!-- Node10 -->
<g id="Node000010" class="node">
<title>Node10</title>
<g id="a_Node000010"><a xlink:href="../../d9/dc6/class_main_window.html#ad2ca8de275eb8d22001fc8ae43a5b263" target="_top" xlink:title="Creates and configures a QComboBox for selecting pen cap styles.">
<polygon fill="white" stroke="#666666" points="514.88,-996.88 374.38,-996.88 374.38,-966.38 514.88,-966.38 514.88,-996.88"/>
<text text-anchor="start" x="382.38" y="-983.38" font-family="Helvetica,sans-Serif" font-size="10.00">MainWindow::createPenCap</text>
<text text-anchor="middle" x="444.62" y="-972.12" font-family="Helvetica,sans-Serif" font-size="10.00">StyleComboBox</text>
</a>
</g>
</g>
<!-- Node3&#45;&gt;Node10 -->
<g id="edge9_Node000003_Node000010" class="edge">
<title>Node3&#45;&gt;Node10</title>
<g id="a_edge9_Node000003_Node000010"><a xlink:title=" ">
<path fill="none" stroke="#63b8ff" d="M309.11,-601.72C313.24,-604.46 316.97,-607.72 320,-611.62 414.62,-733.33 256.87,-838.56 356,-956.62 358.57,-959.69 361.49,-962.39 364.66,-964.77"/>
<polygon fill="#63b8ff" stroke="#63b8ff" points="362.55,-967.58 372.89,-969.87 366.23,-961.63 362.55,-967.58"/>
</a>
</g>
</g>
<!-- Node11 -->
<g id="Node000011" class="node">
<title>Node11</title>
<g id="a_Node000011"><a xlink:href="../../d9/dc6/class_main_window.html#ae585cf395690d3bf28b9ff94f8506a03" target="_top" xlink:title="Creates and configures a QComboBox for selecting pen join styles.">
<polygon fill="white" stroke="#666666" points="514.88,-947.88 374.38,-947.88 374.38,-917.38 514.88,-917.38 514.88,-947.88"/>
<text text-anchor="start" x="382.38" y="-934.38" font-family="Helvetica,sans-Serif" font-size="10.00">MainWindow::createPenJoin</text>
<text text-anchor="middle" x="444.62" y="-923.12" font-family="Helvetica,sans-Serif" font-size="10.00">StyleComboBox</text>
</a>
</g>
</g>
<!-- Node3&#45;&gt;Node11 -->
<g id="edge10_Node000003_Node000011" class="edge">
<title>Node3&#45;&gt;Node11</title>
<g id="a_edge10_Node000003_Node000011"><a xlink:title=" ">
<path fill="none" stroke="#63b8ff" d="M309.04,-601.78C313.18,-604.5 316.93,-607.75 320,-611.62 402.23,-715.55 269.92,-806.86 356,-907.62 358.6,-910.66 361.53,-913.35 364.72,-915.71"/>
<polygon fill="#63b8ff" stroke="#63b8ff" points="362.63,-918.54 372.99,-920.79 366.3,-912.58 362.63,-918.54"/>
</a>
</g>
</g>
<!-- Node12 -->
<g id="Node000012" class="node">
<title>Node12</title>
<g id="a_Node000012"><a xlink:href="../../d9/dc6/class_main_window.html#a55eed5bdf9b2ec38f0d86c661acddcb5" target="_top" xlink:title="Creates and configures a QComboBox for selecting pen styles.">
<polygon fill="white" stroke="#666666" points="517.12,-898.88 372.12,-898.88 372.12,-868.38 517.12,-868.38 517.12,-898.88"/>
<text text-anchor="start" x="380.12" y="-885.38" font-family="Helvetica,sans-Serif" font-size="10.00">MainWindow::createPenStyle</text>
<text text-anchor="middle" x="444.62" y="-874.12" font-family="Helvetica,sans-Serif" font-size="10.00">ComboBox</text>
</a>
</g>
</g>
<!-- Node3&#45;&gt;Node12 -->
<g id="edge11_Node000003_Node000012" class="edge">
<title>Node3&#45;&gt;Node12</title>
<g id="a_edge11_Node000003_Node000012"><a xlink:title=" ">
<path fill="none" stroke="#63b8ff" d="M309.24,-602.05C313.29,-604.72 316.96,-607.88 320,-611.62 389.86,-697.8 282.95,-775.13 356,-858.62 357.96,-860.86 360.1,-862.91 362.4,-864.78"/>
<polygon fill="#63b8ff" stroke="#63b8ff" points="360.38,-867.64 370.63,-870.29 364.27,-861.82 360.38,-867.64"/>
</a>
</g>
</g>
<!-- Node13 -->
<g id="Node000013" class="node">
<title>Node13</title>
<g id="a_Node000013"><a xlink:href="../../d9/dc6/class_main_window.html#a78611ff63653443ba2244f2f94ad67b2" target="_top" xlink:title="Creates and configures a QSpinBox for editing pen width.">
<polygon fill="white" stroke="#666666" points="518.62,-849.88 370.62,-849.88 370.62,-819.38 518.62,-819.38 518.62,-849.88"/>
<text text-anchor="start" x="378.62" y="-836.38" font-family="Helvetica,sans-Serif" font-size="10.00">MainWindow::createPenWidth</text>
<text text-anchor="middle" x="444.62" y="-825.12" font-family="Helvetica,sans-Serif" font-size="10.00">SpinBox</text>
</a>
</g>
</g>
<!-- Node3&#45;&gt;Node13 -->
<g id="edge12_Node000003_Node000013" class="edge">
<title>Node3&#45;&gt;Node13</title>
<g id="a_edge12_Node000003_Node000013"><a xlink:title=" ">
<path fill="none" stroke="#63b8ff" d="M309.11,-602.17C313.18,-604.81 316.9,-607.93 320,-611.62 377.79,-680.46 295.31,-744.33 356,-810.62 357.56,-812.33 359.22,-813.91 360.98,-815.39"/>
<polygon fill="#63b8ff" stroke="#63b8ff" points="358.97,-818.25 369.19,-821.05 362.94,-812.49 358.97,-818.25"/>
</a>
</g>
</g>
<!-- Node14 -->
<g id="Node000014" class="node">
<title>Node14</title>
<g id="a_Node000014"><a xlink:href="../../d7/da7/class_shape.html#a8b5e05c84e401dddad339a15fa7d8ab1" target="_top" xlink:title=" ">
<polygon fill="white" stroke="#666666" points="500.62,-801.25 388.62,-801.25 388.62,-782 500.62,-782 500.62,-801.25"/>
<text text-anchor="middle" x="444.62" y="-787.75" font-family="Helvetica,sans-Serif" font-size="10.00">Shape::getBrushColor</text>
</a>
</g>
</g>
<!-- Node3&#45;&gt;Node14 -->
<g id="edge13_Node000003_Node000014" class="edge">
<title>Node3&#45;&gt;Node14</title>
<g id="a_edge13_Node000003_Node000014"><a xlink:title=" ">
<path fill="none" stroke="#63b8ff" d="M308.95,-602.3C313.06,-604.91 316.83,-608 320,-611.62 368.53,-667.16 303.43,-721.89 356,-773.62 362.08,-779.61 369.59,-783.85 377.62,-786.83"/>
<polygon fill="#63b8ff" stroke="#63b8ff" points="376.39,-790.11 386.97,-789.62 378.39,-783.41 376.39,-790.11"/>
</a>
</g>
</g>
<!-- Node15 -->
<g id="Node000015" class="node">
<title>Node15</title>
<g id="a_Node000015"><a xlink:href="../../d7/da7/class_shape.html#a32f4199b1d1c9283c88e4199e787be2e" target="_top" xlink:title=" ">
<polygon fill="white" stroke="#666666" points="501.38,-764.25 387.88,-764.25 387.88,-745 501.38,-745 501.38,-764.25"/>
<text text-anchor="middle" x="444.62" y="-750.75" font-family="Helvetica,sans-Serif" font-size="10.00">Shape::getBrushItems</text>
</a>
</g>
</g>
<!-- Node3&#45;&gt;Node15 -->
<g id="edge14_Node000003_Node000015" class="edge">
<title>Node3&#45;&gt;Node15</title>
<g id="a_edge14_Node000003_Node000015"><a xlink:title=" ">
<path fill="none" stroke="#63b8ff" d="M309.03,-602.71C313.06,-605.23 316.8,-608.18 320,-611.62 359.37,-653.96 313.56,-697.37 356,-736.62 361.89,-742.07 368.97,-746.05 376.52,-748.94"/>
<polygon fill="#63b8ff" stroke="#63b8ff" points="375.4,-752.26 385.99,-751.88 377.48,-745.57 375.4,-752.26"/>
</a>
</g>
</g>
<!-- Node16 -->
<g id="Node000016" class="node">
<title>Node16</title>
<g id="a_Node000016"><a xlink:href="../../d7/da7/class_shape.html#af9f3e91f66f410f59065a28bb8021d4d" target="_top" xlink:title=" ">
<polygon fill="white" stroke="#666666" points="510,-727.25 379.25,-727.25 379.25,-708 510,-708 510,-727.25"/>
<text text-anchor="middle" x="444.62" y="-713.75" font-family="Helvetica,sans-Serif" font-size="10.00">Shape::getBrushItemsEnd</text>
</a>
</g>
</g>
<!-- Node3&#45;&gt;Node16 -->
<g id="edge15_Node000003_Node000016" class="edge">
<title>Node3&#45;&gt;Node16</title>
<g id="a_edge15_Node000003_Node000016"><a xlink:title=" ">
<path fill="none" stroke="#63b8ff" d="M308.95,-603.28C312.95,-605.68 316.71,-608.44 320,-611.62 350.4,-640.97 323.48,-672.64 356,-699.62 359.87,-702.84 364.16,-705.52 368.71,-707.76"/>
<polygon fill="#63b8ff" stroke="#63b8ff" points="367.02,-710.86 377.6,-711.42 369.69,-704.38 367.02,-710.86"/>
</a>
</g>
</g>
<!-- Node17 -->
<g id="Node000017" class="node">
<title>Node17</title>
<g id="a_Node000017"><a xlink:href="../../d7/da7/class_shape.html#a32e7b26329177063e40671687a0c62be" target="_top" xlink:title=" ">
<polygon fill="white" stroke="#666666" points="500.25,-690.25 389,-690.25 389,-671 500.25,-671 500.25,-690.25"/>
<text text-anchor="middle" x="444.62" y="-676.75" font-family="Helvetica,sans-Serif" font-size="10.00">Shape::getBrushStyle</text>
</a>
</g>
</g>
<!-- Node3&#45;&gt;Node17 -->
<g id="edge16_Node000003_Node000017" class="edge">
<title>Node3&#45;&gt;Node17</title>
<g id="a_edge16_Node000003_Node000017"><a xlink:title=" ">
<path fill="none" stroke="#63b8ff" d="M306.57,-603.27C311.32,-605.7 315.89,-608.47 320,-611.62 342.01,-628.52 332.78,-647.43 356,-662.62 362.62,-666.96 370.09,-670.28 377.79,-672.82"/>
<polygon fill="#63b8ff" stroke="#63b8ff" points="376.74,-676.16 387.32,-675.51 378.64,-669.43 376.74,-676.16"/>
</a>
</g>
</g>
<!-- Node18 -->
<g id="Node000018" class="node">
<title>Node18</title>
<g id="a_Node000018"><a xlink:href="../../d7/da7/class_shape.html#a4718fe1b6fc5d30e83a8761175b77344" target="_top" xlink:title=" ">
<polygon fill="white" stroke="#666666" points="496.12,-653.25 393.12,-653.25 393.12,-634 496.12,-634 496.12,-653.25"/>
<text text-anchor="middle" x="444.62" y="-639.75" font-family="Helvetica,sans-Serif" font-size="10.00">Shape::getChildEnd</text>
</a>
</g>
</g>
<!-- Node3&#45;&gt;Node18 -->
<g id="edge17_Node000003_Node000018" class="edge">
<title>Node3&#45;&gt;Node18</title>
<g id="a_edge17_Node000003_Node000018"><a xlink:title=" ">
<path fill="none" stroke="#63b8ff" d="M297.65,-603.27C305.11,-606.03 312.79,-608.89 320,-611.62 336.05,-617.7 339.53,-620.77 356,-625.62 364.18,-628.04 372.89,-630.24 381.51,-632.22"/>
<polygon fill="#63b8ff" stroke="#63b8ff" points="380.76,-635.64 391.28,-634.36 382.26,-628.8 380.76,-635.64"/>
</a>
</g>
</g>
<!-- Node19 -->
<g id="Node000019" class="node">
<title>Node19</title>
<g id="a_Node000019"><a xlink:href="../../d7/da7/class_shape.html#a8e5d4c7be5890c73cab44af6005573d4" target="_top" xlink:title=" ">
<polygon fill="white" stroke="#666666" points="499.88,-616.25 389.38,-616.25 389.38,-597 499.88,-597 499.88,-616.25"/>
<text text-anchor="middle" x="444.62" y="-602.75" font-family="Helvetica,sans-Serif" font-size="10.00">Shape::getChildItems</text>
</a>
</g>
</g>
<!-- Node3&#45;&gt;Node19 -->
<g id="edge18_Node000003_Node000019" class="edge">
<title>Node3&#45;&gt;Node19</title>
<g id="a_edge18_Node000003_Node000019"><a xlink:title=" ">
<path fill="none" stroke="#63b8ff" d="M309.22,-593.1C330.55,-595.24 355.23,-597.73 377.57,-599.98"/>
<polygon fill="#63b8ff" stroke="#63b8ff" points="377.21,-603.46 387.51,-600.98 377.91,-596.49 377.21,-603.46"/>
</a>
</g>
</g>
<!-- Node20 -->
<g id="Node000020" class="node">
<title>Node20</title>
<g id="a_Node000020"><a xlink:href="../../da/d0e/class_text.html#ace6ab02148fe23efffcd3f7c3dde9183" target="_top" xlink:title=" ">
<polygon fill="white" stroke="#666666" points="481.5,-579.25 407.75,-579.25 407.75,-560 481.5,-560 481.5,-579.25"/>
<text text-anchor="middle" x="444.62" y="-565.75" font-family="Helvetica,sans-Serif" font-size="10.00">Text::getFont</text>
</a>
</g>
</g>
<!-- Node3&#45;&gt;Node20 -->
<g id="edge19_Node000003_Node000020" class="edge">
<title>Node3&#45;&gt;Node20</title>
<g id="a_edge19_Node000003_Node000020"><a xlink:title=" ">
<path fill="none" stroke="#63b8ff" d="M309.22,-582.44C336.63,-579.83 369.58,-576.69 396,-574.17"/>
<polygon fill="#63b8ff" stroke="#63b8ff" points="396.13,-577.67 405.75,-573.24 395.46,-570.7 396.13,-577.67"/>
</a>
</g>
</g>
<!-- Node21 -->
<g id="Node000021" class="node">
<title>Node21</title>
<g id="a_Node000021"><a xlink:href="../../da/d0e/class_text.html#a0a3c00384e73eed7af1d20cffca51b18" target="_top" xlink:title=" ">
<polygon fill="white" stroke="#666666" points="492.75,-542.25 396.5,-542.25 396.5,-523 492.75,-523 492.75,-542.25"/>
<text text-anchor="middle" x="444.62" y="-528.75" font-family="Helvetica,sans-Serif" font-size="10.00">Text::getFontStyle</text>
</a>
</g>
</g>
<!-- Node3&#45;&gt;Node21 -->
<g id="edge20_Node000003_Node000021" class="edge">
<title>Node3&#45;&gt;Node21</title>
<g id="a_edge20_Node000003_Node000021"><a xlink:title=" ">
<path fill="none" stroke="#63b8ff" d="M293.33,-572.03C312.03,-564.84 334.96,-556.6 356,-550.62 365.23,-548 375.12,-545.6 384.8,-543.46"/>
<polygon fill="#63b8ff" stroke="#63b8ff" points="385.49,-546.89 394.54,-541.38 384.03,-540.04 385.49,-546.89"/>
</a>
</g>
</g>
<!-- Node22 -->
<g id="Node000022" class="node">
<title>Node22</title>
<g id="a_Node000022"><a xlink:href="../../da/d0e/class_text.html#a4b4b411734e3f6ceace9e73d293e2f64" target="_top" xlink:title=" ">
<polygon fill="white" stroke="#666666" points="496.5,-505.25 392.75,-505.25 392.75,-486 496.5,-486 496.5,-505.25"/>
<text text-anchor="middle" x="444.62" y="-491.75" font-family="Helvetica,sans-Serif" font-size="10.00">Text::getFontWeight</text>
</a>
</g>
</g>
<!-- Node3&#45;&gt;Node22 -->
<g id="edge21_Node000003_Node000022" class="edge">
<title>Node3&#45;&gt;Node22</title>
<g id="a_edge21_Node000003_Node000022"><a xlink:title=" ">
<path fill="none" stroke="#63b8ff" d="M271.34,-572.04C290.27,-555.03 322.98,-528.26 356,-513.62 363.99,-510.09 372.69,-507.23 381.42,-504.93"/>
<polygon fill="#63b8ff" stroke="#63b8ff" points="382.04,-508.39 390.96,-502.66 380.42,-501.58 382.04,-508.39"/>
</a>
</g>
</g>
<!-- Node23 -->
<g id="Node000023" class="node">
<title>Node23</title>
<g id="a_Node000023"><a xlink:href="../../d7/da7/class_shape.html#a3cca235345ab6f173c4e52a8598ee6b1" target="_top" xlink:title=" ">
<polygon fill="white" stroke="#666666" points="500.25,-468.25 389,-468.25 389,-449 500.25,-449 500.25,-468.25"/>
<text text-anchor="middle" x="444.62" y="-454.75" font-family="Helvetica,sans-Serif" font-size="10.00">Shape::getParentItem</text>
</a>
</g>
</g>
<!-- Node3&#45;&gt;Node23 -->
<g id="edge22_Node000003_Node000023" class="edge">
<title>Node3&#45;&gt;Node23</title>
<g id="a_edge22_Node000003_Node000023"><a xlink:title=" ">
<path fill="none" stroke="#63b8ff" d="M264.22,-572.25C279.94,-547.82 314.08,-500.47 356,-476.62 362.79,-472.76 370.29,-469.72 377.97,-467.33"/>
<polygon fill="#63b8ff" stroke="#63b8ff" points="378.69,-470.76 387.42,-464.76 376.85,-464.01 378.69,-470.76"/>
</a>
</g>
</g>
<!-- Node24 -->
<g id="Node000024" class="node">
<title>Node24</title>
<g id="a_Node000024"><a xlink:href="../../d7/da7/class_shape.html#a1eaba6ddbc4404e64fc6910fa9a9fa11" target="_top" xlink:title=" ">
<polygon fill="white" stroke="#666666" points="505.12,-431.25 384.12,-431.25 384.12,-412 505.12,-412 505.12,-431.25"/>
<text text-anchor="middle" x="444.62" y="-417.75" font-family="Helvetica,sans-Serif" font-size="10.00">Shape::getPenCapStyle</text>
</a>
</g>
</g>
<!-- Node3&#45;&gt;Node24 -->
<g id="edge23_Node000003_Node000024" class="edge">
<title>Node3&#45;&gt;Node24</title>
<g id="a_edge23_Node000003_Node000024"><a xlink:title=" ">
<path fill="none" stroke="#63b8ff" d="M260.76,-572.15C273.25,-541.51 305.47,-473.24 356,-439.62 361.17,-436.18 366.87,-433.38 372.8,-431.1"/>
<polygon fill="#63b8ff" stroke="#63b8ff" points="373.81,-434.45 382.22,-428 371.63,-427.8 373.81,-434.45"/>
</a>
</g>
</g>
<!-- Node25 -->
<g id="Node000025" class="node">
<title>Node25</title>
<g id="a_Node000025"><a xlink:href="../../d7/da7/class_shape.html#a4cbfcdf734ed9633dfb4dad1dab1cb6f" target="_top" xlink:title=" ">
<polygon fill="white" stroke="#666666" points="496.5,-394.25 392.75,-394.25 392.75,-375 496.5,-375 496.5,-394.25"/>
<text text-anchor="middle" x="444.62" y="-380.75" font-family="Helvetica,sans-Serif" font-size="10.00">Shape::getPenColor</text>
</a>
</g>
</g>
<!-- Node3&#45;&gt;Node25 -->
<g id="edge24_Node000003_Node000025" class="edge">
<title>Node3&#45;&gt;Node25</title>
<g id="a_edge24_Node000003_Node000025"><a xlink:title=" ">
<path fill="none" stroke="#63b8ff" d="M258.61,-572C268.1,-535.91 296.69,-446.47 356,-402.62 363.46,-397.11 372.2,-393.19 381.23,-390.42"/>
<polygon fill="#63b8ff" stroke="#63b8ff" points="382.03,-393.83 390.85,-387.96 380.3,-387.05 382.03,-393.83"/>
</a>
</g>
</g>
<!-- Node26 -->
<g id="Node000026" class="node">
<title>Node26</title>
<g id="a_Node000026"><a xlink:href="../../d7/da7/class_shape.html#a633352978d8776c142b848b8d682587a" target="_top" xlink:title=" ">
<polygon fill="white" stroke="#666666" points="693.62,-337.25 588.38,-337.25 588.38,-318 693.62,-318 693.62,-337.25"/>
<text text-anchor="middle" x="641" y="-323.75" font-family="Helvetica,sans-Serif" font-size="10.00">Shape::getPenItems</text>
</a>
</g>
</g>
<!-- Node3&#45;&gt;Node26 -->
<g id="edge25_Node000003_Node000026" class="edge">
<title>Node3&#45;&gt;Node26</title>
<g id="a_edge25_Node000003_Node000026"><a xlink:title=" ">
<path fill="none" stroke="#63b8ff" d="M256.83,-572.08C262.93,-530.77 285.59,-417.85 356,-365.62 389.94,-340.45 503.93,-331.95 576.76,-329.09"/>
<polygon fill="#63b8ff" stroke="#63b8ff" points="576.7,-332.59 586.57,-328.73 576.45,-325.59 576.7,-332.59"/>
</a>
</g>
</g>
<!-- Node27 -->
<g id="Node000027" class="node">
<title>Node27</title>
<g id="a_Node000027"><a xlink:href="../../d7/da7/class_shape.html#a581611275dae291b4d82927dcd6114b7" target="_top" xlink:title=" ">
<polygon fill="white" stroke="#666666" points="702.25,-290.25 579.75,-290.25 579.75,-271 702.25,-271 702.25,-290.25"/>
<text text-anchor="middle" x="641" y="-276.75" font-family="Helvetica,sans-Serif" font-size="10.00">Shape::getPenItemsEnd</text>
</a>
</g>
</g>
<!-- Node3&#45;&gt;Node27 -->
<g id="edge26_Node000003_Node000027" class="edge">
<title>Node3&#45;&gt;Node27</title>
<g id="a_edge26_Node000003_Node000027"><a xlink:title=" ">
<path fill="none" stroke="#63b8ff" d="M254.56,-572.17C254.48,-521.46 261.84,-359.39 356,-289.62 426,-237.76 534.59,-253.17 595.21,-267.72"/>
<polygon fill="#63b8ff" stroke="#63b8ff" points="594.28,-271.1 604.84,-270.14 595.99,-264.31 594.28,-271.1"/>
</a>
</g>
</g>
<!-- Node28 -->
<g id="Node000028" class="node">
<title>Node28</title>
<g id="a_Node000028"><a xlink:href="../../d7/da7/class_shape.html#a7cf1547b5328248b8a4c066b4c714efa" target="_top" xlink:title=" ">
<polygon fill="white" stroke="#666666" points="505.12,-204.25 384.12,-204.25 384.12,-185 505.12,-185 505.12,-204.25"/>
<text text-anchor="middle" x="444.62" y="-190.75" font-family="Helvetica,sans-Serif" font-size="10.00">Shape::getPenJoinStyle</text>
</a>
</g>
</g>
<!-- Node3&#45;&gt;Node28 -->
<g id="edge27_Node000003_Node000028" class="edge">
<title>Node3&#45;&gt;Node28</title>
<g id="a_edge27_Node000003_Node000028"><a xlink:title=" ">
<path fill="none" stroke="#63b8ff" d="M257.06,-572.16C266.27,-508.89 303.98,-270.64 356,-218.62 361.05,-213.58 367.06,-209.56 373.52,-206.37"/>
<polygon fill="#63b8ff" stroke="#63b8ff" points="374.7,-209.67 382.59,-202.6 372.01,-203.21 374.7,-209.67"/>
</a>
</g>
</g>
<!-- Node29 -->
<g id="Node000029" class="node">
<title>Node29</title>
<g id="a_Node000029"><a xlink:href="../../d7/da7/class_shape.html#ad336858f193d765d831deb9ce29246aa" target="_top" xlink:title=" ">
<polygon fill="white" stroke="#666666" points="496.12,-167.25 393.12,-167.25 393.12,-148 496.12,-148 496.12,-167.25"/>
<text text-anchor="middle" x="444.62" y="-153.75" font-family="Helvetica,sans-Serif" font-size="10.00">Shape::getPenStyle</text>
</a>
</g>
</g>
<!-- Node3&#45;&gt;Node29 -->
<g id="edge28_Node000003_Node000029" class="edge">
<title>Node3&#45;&gt;Node29</title>
<g id="a_edge28_Node000003_Node000029"><a xlink:title=" ">
<path fill="none" stroke="#63b8ff" d="M256.48,-572.15C263.87,-504.15 296.7,-232.7 356,-175.62 363.15,-168.74 372.2,-164.17 381.75,-161.19"/>
<polygon fill="#63b8ff" stroke="#63b8ff" points="382.34,-164.65 391.2,-158.83 380.65,-157.86 382.34,-164.65"/>
</a>
</g>
</g>
<!-- Node30 -->
<g id="Node000030" class="node">
<title>Node30</title>
<g id="a_Node000030"><a xlink:href="../../d7/da7/class_shape.html#a400f7b5ca58fc561b106a3a672f3f432" target="_top" xlink:title=" ">
<polygon fill="white" stroke="#666666" points="497.62,-130.25 391.62,-130.25 391.62,-111 497.62,-111 497.62,-130.25"/>
<text text-anchor="middle" x="444.62" y="-116.75" font-family="Helvetica,sans-Serif" font-size="10.00">Shape::getPenWidth</text>
</a>
</g>
</g>
<!-- Node3&#45;&gt;Node30 -->
<g id="edge29_Node000003_Node000030" class="edge">
<title>Node3&#45;&gt;Node30</title>
<g id="a_edge29_Node000003_Node000030"><a xlink:title=" ">
<path fill="none" stroke="#63b8ff" d="M256.14,-572.24C262.34,-500.71 291.84,-201.58 356,-138.62 362.7,-132.05 371.12,-127.58 380.07,-124.58"/>
<polygon fill="#63b8ff" stroke="#63b8ff" points="380.96,-127.97 389.72,-122 379.15,-121.2 380.96,-127.97"/>
</a>
</g>
</g>
<!-- Node31 -->
<g id="Node000031" class="node">
<title>Node31</title>
<g id="a_Node000031"><a xlink:href="../../d7/da7/class_shape.html#a4b502262ae5a22122456b9624d5ccb3d" target="_top" xlink:title="Accessor Functions &#45; Returns the data named after them.">
<polygon fill="white" stroke="#666666" points="494.25,-93.25 395,-93.25 395,-74 494.25,-74 494.25,-93.25"/>
<text text-anchor="middle" x="444.62" y="-79.75" font-family="Helvetica,sans-Serif" font-size="10.00">Shape::getShapeId</text>
</a>
</g>
</g>
<!-- Node3&#45;&gt;Node31 -->
<g id="edge30_Node000003_Node000031" class="edge">
<title>Node3&#45;&gt;Node31</title>
<g id="a_edge30_Node000003_Node000031"><a xlink:title=" ">
<path fill="none" stroke="#63b8ff" d="M255.88,-572C261.03,-496.51 287.05,-170.4 356,-101.62 363.59,-94.05 373.46,-89.26 383.82,-86.29"/>
<polygon fill="#63b8ff" stroke="#63b8ff" points="384.27,-89.78 393.25,-84.15 382.73,-82.95 384.27,-89.78"/>
</a>
</g>
</g>
<!-- Node32 -->
<g id="Node000032" class="node">
<title>Node32</title>
<g id="a_Node000032"><a xlink:href="../../da/d0e/class_text.html#a3d6716fc88f895932e2c96940188c647" target="_top" xlink:title=" ">
<polygon fill="white" stroke="#666666" points="502.88,-56.25 386.38,-56.25 386.38,-37 502.88,-37 502.88,-56.25"/>
<text text-anchor="middle" x="444.62" y="-42.75" font-family="Helvetica,sans-Serif" font-size="10.00">Text::getTextAlignment</text>
</a>
</g>
</g>
<!-- Node3&#45;&gt;Node32 -->
<g id="edge31_Node000003_Node000032" class="edge">
<title>Node3&#45;&gt;Node32</title>
<g id="a_edge31_Node000003_Node000032"><a xlink:title=" ">
<path fill="none" stroke="#63b8ff" d="M255.63,-571.89C259.77,-492.76 282.21,-139.28 356,-64.62 361.43,-59.13 368.05,-55.1 375.2,-52.16"/>
<polygon fill="#63b8ff" stroke="#63b8ff" points="376.15,-55.53 384.55,-49.06 373.95,-48.88 376.15,-55.53"/>
</a>
</g>
</g>
<!-- Node33 -->
<g id="Node000033" class="node">
<title>Node33</title>
<g id="a_Node000033"><a xlink:href="../../d7/da7/class_shape.html#aec4675c2b06d40373eefac4b982af242" target="_top" xlink:title=" ">
<polygon fill="white" stroke="#666666" points="693.25,-242.25 588.75,-242.25 588.75,-223 693.25,-223 693.25,-242.25"/>
<text text-anchor="middle" x="641" y="-228.75" font-family="Helvetica,sans-Serif" font-size="10.00">Shape::getTrackerId</text>
</a>
</g>
</g>
<!-- Node3&#45;&gt;Node33 -->
<g id="edge32_Node000003_Node000033" class="edge">
<title>Node3&#45;&gt;Node33</title>
<g id="a_edge32_Node000003_Node000033"><a xlink:title=" ">
<path fill="none" stroke="#63b8ff" d="M257.18,-571.93C266.46,-511.01 303.19,-291.46 356,-249.62 388.98,-223.5 503.87,-224.62 577.02,-228.29"/>
<polygon fill="#63b8ff" stroke="#63b8ff" points="576.7,-231.78 586.87,-228.82 577.07,-224.79 576.7,-231.78"/>
</a>
</g>
</g>
<!-- Node34 -->
<g id="Node000034" class="node">
<title>Node34</title>
<g id="a_Node000034"><a xlink:href="../../d9/dc6/class_main_window.html#ab5aea14b9366d3d78c9d6e9353e8f5d0" target="_top" xlink:title="Slot triggered when a QComboBox value in the tree widget changes.">
<polygon fill="white" stroke="#666666" points="532.88,-19.25 356.38,-19.25 356.38,0 532.88,0 532.88,-19.25"/>
<text text-anchor="middle" x="444.62" y="-5.75" font-family="Helvetica,sans-Serif" font-size="10.00">MainWindow::onComboBoxChanged</text>
</a>
</g>
</g>
<!-- Node3&#45;&gt;Node34 -->
<g id="edge33_Node000003_Node000034" class="edge">
<title>Node3&#45;&gt;Node34</title>
<g id="a_edge33_Node000003_Node000034"><a xlink:title=" ">
<path fill="none" stroke="#63b8ff" d="M255.42,-571.88C258.58,-489.45 277.32,-108.21 356,-27.62 356.38,-27.24 356.77,-26.85 357.16,-26.48"/>
<polygon fill="#63b8ff" stroke="#63b8ff" points="359.11,-29.39 364.94,-20.54 354.87,-23.82 359.11,-29.39"/>
</a>
</g>
</g>
<!-- Node36 -->
<g id="Node000036" class="node">
<title>Node36</title>
<g id="a_Node000036"><a xlink:href="../../d9/dc6/class_main_window.html#a7d524432f3c348d51c52b6bbca13df57" target="_top" xlink:title="Slot triggered when a QSpinBox value in the tree widget changes.">
<polygon fill="white" stroke="#666666" points="526.88,-318.25 362.38,-318.25 362.38,-299 526.88,-299 526.88,-318.25"/>
<text text-anchor="middle" x="444.62" y="-304.75" font-family="Helvetica,sans-Serif" font-size="10.00">MainWindow::onSpinBoxChanged</text>
</a>
</g>
</g>
<!-- Node3&#45;&gt;Node36 -->
<g id="edge35_Node000003_Node000036" class="edge">
<title>Node3&#45;&gt;Node36</title>
<g id="a_edge35_Node000003_Node000036"><a xlink:title=" ">
<path fill="none" stroke="#63b8ff" d="M256.32,-572.03C261.27,-527.58 281.67,-399.18 356,-332.62 359.98,-329.06 364.43,-326.03 369.17,-323.43"/>
<polygon fill="#63b8ff" stroke="#63b8ff" points="370.3,-326.77 377.87,-319.36 367.33,-320.43 370.3,-326.77"/>
</a>
</g>
</g>
<!-- Node35 -->
<g id="Node000035" class="node">
<title>Node35</title>
<g id="a_Node000035"><a xlink:href="../../d9/dc6/class_main_window.html#af971d03f10fd514287332e2adfd79bea" target="_top" xlink:title="Emitted when a property of an existing shape is changed.">
<polygon fill="white" stroke="#666666" points="712.75,-19.25 569.25,-19.25 569.25,0 712.75,0 712.75,-19.25"/>
<text text-anchor="middle" x="641" y="-5.75" font-family="Helvetica,sans-Serif" font-size="10.00">MainWindow::shapeChanged</text>
</a>
</g>
</g>
<!-- Node34&#45;&gt;Node35 -->
<g id="edge34_Node000034_Node000035" class="edge">
<title>Node34&#45;&gt;Node35</title>
<g id="a_edge34_Node000034_Node000035"><a xlink:title=" ">
<path fill="none" stroke="#63b8ff" d="M533.15,-9.62C541.3,-9.62 549.54,-9.62 557.64,-9.62"/>
<polygon fill="#63b8ff" stroke="#63b8ff" points="557.46,-13.13 567.46,-9.63 557.46,-6.13 557.46,-13.13"/>
</a>
</g>
</g>
<!-- Node36&#45;&gt;Node26 -->
<g id="edge36_Node000036_Node000026" class="edge">
<title>Node36&#45;&gt;Node26</title>
<g id="a_edge36_Node000036_Node000026"><a xlink:title=" ">
<path fill="none" stroke="#63b8ff" d="M527.21,-316.6C543.77,-318.22 560.94,-319.9 576.74,-321.44"/>
<polygon fill="#63b8ff" stroke="#63b8ff" points="576.18,-324.9 586.47,-322.39 576.86,-317.94 576.18,-324.9"/>
</a>
</g>
</g>
<!-- Node36&#45;&gt;Node27 -->
<g id="edge37_Node000036_Node000027" class="edge">
<title>Node36&#45;&gt;Node27</title>
<g id="a_edge37_Node000036_Node000027"><a xlink:title=" ">
<path fill="none" stroke="#63b8ff" d="M515.8,-298.52C532.93,-296.05 551.27,-293.41 568.46,-290.93"/>
<polygon fill="#63b8ff" stroke="#63b8ff" points="568.67,-294.44 578.07,-289.55 567.67,-287.51 568.67,-294.44"/>
</a>
</g>
</g>
<!-- Node36&#45;&gt;Node33 -->
<g id="edge38_Node000036_Node000033" class="edge">
<title>Node36&#45;&gt;Node33</title>
<g id="a_edge38_Node000036_Node000033"><a xlink:title=" ">
<path fill="none" stroke="#63b8ff" d="M471.44,-298.53C505.51,-285.21 565.68,-261.68 604.15,-246.64"/>
<polygon fill="#63b8ff" stroke="#63b8ff" points="604.94,-250.09 612.98,-243.19 602.39,-243.57 604.94,-250.09"/>
</a>
</g>
</g>
</g>
</svg>
