<?xml version="1.0" encoding="UTF-8" standalone="no"?>
<!DOCTYPE svg PUBLIC "-//W3C//DTD SVG 1.1//EN"
 "http://www.w3.org/Graphics/SVG/1.1/DTD/svg11.dtd">
<!-- Generated by graphviz version 12.2.1 (20241206.2353)
 -->
<!-- Title: MainWindow::onSignupRequest Pages: 1 -->
<svg width="515pt" height="27pt"
 viewBox="0.00 0.00 515.00 27.25" xmlns="http://www.w3.org/2000/svg" xmlns:xlink="http://www.w3.org/1999/xlink">
<g id="graph0" class="graph" transform="scale(1 1) rotate(0) translate(4 23.25)">
<title>MainWindow::onSignupRequest</title>
<!-- Node1 -->
<g id="Node000001" class="node">
<title>Node1</title>
<g id="a_Node000001"><a xlink:title=" ">
<polygon fill="#999999" stroke="#666666" points="507,-19.25 351.5,-19.25 351.5,0 507,0 507,-19.25"/>
<text text-anchor="middle" x="429.25" y="-5.75" font-family="Helvetica,sans-Serif" font-size="10.00">MainWindow::onSignupRequest</text>
</a>
</g>
</g>
<!-- Node2 -->
<g id="Node000002" class="node">
<title>Node2</title>
<g id="a_Node000002"><a xlink:href="../../d9/dc6/class_main_window.html#a44b1462463b23490276f54034ab12325" target="_top" xlink:title="Slot triggered when the login button is clicked, typically opening a login dialog.">
<polygon fill="white" stroke="#666666" points="315.5,-19.25 170.5,-19.25 170.5,0 315.5,0 315.5,-19.25"/>
<text text-anchor="middle" x="243" y="-5.75" font-family="Helvetica,sans-Serif" font-size="10.00">MainWindow::onLoginClicked</text>
</a>
</g>
</g>
<!-- Node1&#45;&gt;Node2 -->
<g id="edge1_Node000001_Node000002" class="edge">
<title>Node1&#45;&gt;Node2</title>
<g id="a_edge1_Node000001_Node000002"><a xlink:title=" ">
<path fill="none" stroke="#63b8ff" d="M339.83,-9.62C331.76,-9.62 323.65,-9.62 315.76,-9.62"/>
<polygon fill="#63b8ff" stroke="#63b8ff" points="339.67,-13.13 349.67,-9.63 339.67,-6.13 339.67,-13.13"/>
</a>
</g>
</g>
<!-- Node3 -->
<g id="Node000003" class="node">
<title>Node3</title>
<g id="a_Node000003"><a xlink:href="../../d9/dc6/class_main_window.html#a25d06b6f11a1eb7fa2239f01e853ae29" target="_top" xlink:title=" ">
<polygon fill="white" stroke="#666666" points="134.5,-19.25 0,-19.25 0,0 134.5,0 134.5,-19.25"/>
<text text-anchor="middle" x="67.25" y="-5.75" font-family="Helvetica,sans-Serif" font-size="10.00">MainWindow::MainWindow</text>
</a>
</g>
</g>
<!-- Node2&#45;&gt;Node3 -->
<g id="edge2_Node000002_Node000003" class="edge">
<title>Node2&#45;&gt;Node3</title>
<g id="a_edge2_Node000002_Node000003"><a xlink:title=" ">
<path fill="none" stroke="#63b8ff" d="M158.78,-9.62C150.74,-9.62 142.67,-9.62 134.83,-9.62"/>
<polygon fill="#63b8ff" stroke="#63b8ff" points="158.56,-13.13 168.56,-9.63 158.56,-6.13 158.56,-13.13"/>
</a>
</g>
</g>
</g>
</svg>
