<?xml version="1.0" encoding="UTF-8" standalone="no"?>
<!DOCTYPE svg PUBLIC "-//W3C//DTD SVG 1.1//EN"
 "http://www.w3.org/Graphics/SVG/1.1/DTD/svg11.dtd">
<!-- Generated by graphviz version 12.2.1 (20241206.2353)
 -->
<!-- Title: MainWindow::sortByPerimeter Pages: 1 -->
<svg width="710pt" height="39pt"
 viewBox="0.00 0.00 710.25 38.50" xmlns="http://www.w3.org/2000/svg" xmlns:xlink="http://www.w3.org/1999/xlink">
<g id="graph0" class="graph" transform="scale(1 1) rotate(0) translate(4 34.5)">
<title>MainWindow::sortByPerimeter</title>
<!-- Node1 -->
<g id="Node000001" class="node">
<title>Node1</title>
<g id="a_Node000001"><a xlink:title="Static comparison function to sort shapes by their calculated perimeter.">
<polygon fill="#999999" stroke="#666666" points="702.25,-24.88 553.5,-24.88 553.5,-5.63 702.25,-5.63 702.25,-24.88"/>
<text text-anchor="middle" x="627.88" y="-11.38" font-family="Helvetica,sans-Serif" font-size="10.00">MainWindow::sortByPerimeter</text>
</a>
</g>
</g>
<!-- Node2 -->
<g id="Node000002" class="node">
<title>Node2</title>
<g id="a_Node000002"><a xlink:href="../../d9/dc6/class_main_window.html#a755e3ce5cc1f97792cc7f7eff9da3858" target="_top" xlink:title="Slot triggered when the sort method or order in the shape report table changes.">
<polygon fill="white" stroke="#666666" points="517.5,-30.5 378.5,-30.5 378.5,0 517.5,0 517.5,-30.5"/>
<text text-anchor="start" x="386.5" y="-17" font-family="Helvetica,sans-Serif" font-size="10.00">MainWindow::onSortMethod</text>
<text text-anchor="middle" x="448" y="-5.75" font-family="Helvetica,sans-Serif" font-size="10.00">Changed</text>
</a>
</g>
</g>
<!-- Node1&#45;&gt;Node2 -->
<g id="edge1_Node000001_Node000002" class="edge">
<title>Node1&#45;&gt;Node2</title>
<g id="a_edge1_Node000001_Node000002"><a xlink:title=" ">
<path fill="none" stroke="#63b8ff" d="M541.86,-15.25C533.77,-15.25 525.64,-15.25 517.73,-15.25"/>
<polygon fill="#63b8ff" stroke="#63b8ff" points="541.73,-18.75 551.73,-15.25 541.73,-11.75 541.73,-18.75"/>
</a>
</g>
</g>
<!-- Node3 -->
<g id="Node000003" class="node">
<title>Node3</title>
<g id="a_Node000003"><a xlink:href="../../d9/dc6/class_main_window.html#ac4c479f9beafaee136b98e7fac6761ee" target="_top" xlink:title="Creates and displays a new tab or window containing the shape report table.">
<polygon fill="white" stroke="#666666" points="342.5,-24.88 170.5,-24.88 170.5,-5.63 342.5,-5.63 342.5,-24.88"/>
<text text-anchor="middle" x="256.5" y="-11.38" font-family="Helvetica,sans-Serif" font-size="10.00">MainWindow::createShapeTableTab</text>
</a>
</g>
</g>
<!-- Node2&#45;&gt;Node3 -->
<g id="edge2_Node000002_Node000003" class="edge">
<title>Node2&#45;&gt;Node3</title>
<g id="a_edge2_Node000002_Node000003"><a xlink:title=" ">
<path fill="none" stroke="#63b8ff" d="M366.65,-15.25C358.79,-15.25 350.79,-15.25 342.87,-15.25"/>
<polygon fill="#63b8ff" stroke="#63b8ff" points="366.54,-18.75 376.54,-15.25 366.54,-11.75 366.54,-18.75"/>
</a>
</g>
</g>
<!-- Node4 -->
<g id="Node000004" class="node">
<title>Node4</title>
<g id="a_Node000004"><a xlink:href="../../d9/dc6/class_main_window.html#a25d06b6f11a1eb7fa2239f01e853ae29" target="_top" xlink:title=" ">
<polygon fill="white" stroke="#666666" points="134.5,-24.88 0,-24.88 0,-5.63 134.5,-5.63 134.5,-24.88"/>
<text text-anchor="middle" x="67.25" y="-11.38" font-family="Helvetica,sans-Serif" font-size="10.00">MainWindow::MainWindow</text>
</a>
</g>
</g>
<!-- Node3&#45;&gt;Node4 -->
<g id="edge3_Node000003_Node000004" class="edge">
<title>Node3&#45;&gt;Node4</title>
<g id="a_edge3_Node000003_Node000004"><a xlink:title=" ">
<path fill="none" stroke="#63b8ff" d="M158.66,-15.25C150.58,-15.25 142.52,-15.25 134.74,-15.25"/>
<polygon fill="#63b8ff" stroke="#63b8ff" points="158.58,-18.75 168.58,-15.25 158.58,-11.75 158.58,-18.75"/>
</a>
</g>
</g>
</g>
</svg>
