<?xml version="1.0" encoding="UTF-8" standalone="no"?>
<!DOCTYPE svg PUBLIC "-//W3C//DTD SVG 1.1//EN"
 "http://www.w3.org/Graphics/SVG/1.1/DTD/svg11.dtd">
<!-- Generated by graphviz version 12.2.1 (20241206.2353)
 -->
<!-- Title: MainWindow::MainWindow Pages: 1 -->
<!--zoomable 567 -->

<svg id="main" version="1.1" xmlns="http://www.w3.org/2000/svg" xmlns:xlink="http://www.w3.org/1999/xlink" xml:space="preserve" onload="init(evt)">

<style type="text/css"><![CDATA[
.node, .edge {opacity: 0.7;}
.node.selected, .edge.selected {opacity: 1;}
.edge:hover path { stroke: red; }
.edge:hover polygon { stroke: red; fill: red; }
]]></style>

<defs>
  <circle id="rim" cx="0" cy="0" r="7"/>
  <circle id="rim2" cx="0" cy="0" r="3.5"/>
  <g id="zoomPlus">
    <use xlink:href="#rim" fill="#404040"><set attributeName="fill" to="#808080" begin="zoomplus.mouseover" end="zoomplus.mouseout"/></use>
    <path d="M-4,0h8M0,-4v8" fill="none" stroke="white" stroke-width="1.5" pointer-events="none"/>
  </g>
  <g id="zoomMin">
    <use xlink:href="#rim" fill="#404040"><set attributeName="fill" to="#808080" begin="zoomminus.mouseover" end="zoomminus.mouseout"/></use>
    <path d="M-4,0h8" fill="none" stroke="white" stroke-width="1.5" pointer-events="none"/>
  </g>
  <g id="arrowUp" transform="translate(30 24)">
    <use xlink:href="#rim"/>
    <path pointer-events="none" fill="none" stroke="white" stroke-width="1.5" d="M0,-3.0v7 M-2.5,-0.5L0,-3.0L2.5,-0.5"/>
  </g>
  <g id="arrowRight" transform="rotate(90) translate(36 -43)">
    <use xlink:href="#rim"/>
    <path pointer-events="none" fill="none" stroke="white" stroke-width="1.5" d="M0,-3.0v7 M-2.5,-0.5L0,-3.0L2.5,-0.5"/>
  </g>
  <g id="arrowDown" transform="rotate(180) translate(-30 -48)">
    <use xlink:href="#rim"/>
    <path pointer-events="none" fill="none" stroke="white" stroke-width="1.5" d="M0,-3.0v7 M-2.5,-0.5L0,-3.0L2.5,-0.5"/>
  </g>
  <g id="arrowLeft" transform="rotate(270) translate(-36 17)">
    <use xlink:href="#rim"/>
    <path pointer-events="none" fill="none" stroke="white" stroke-width="1.5" d="M0,-3.0v7 M-2.5,-0.5L0,-3.0L2.5,-0.5"/>
  </g>
  <g id="resetDef">
    <use xlink:href="#rim2" fill="#404040"><set attributeName="fill" to="#808080" begin="reset.mouseover" end="reset.mouseout"/></use>
  </g>
</defs>
<script type="application/ecmascript">
var viewWidth = 1021;
var viewHeight = 567;
var sectionId = 'dynsection-2';
</script>
<script type="application/ecmascript" xlink:href="../../svg.min.js"/>
<svg id="graph" class="graph">
<g id="viewport">
<title>MainWindow::MainWindow</title>
<!-- Node1 -->
<g id="Node000001" class="node">
<title>Node1</title>
<g id="a_Node000001"><a xlink:title="Default constructor.">
<polygon fill="#999999" stroke="#666666" points="134.5,-122.88 0,-122.88 0,-103.62 134.5,-103.62 134.5,-122.88"/>
<text text-anchor="middle" x="67.25" y="-109.38" font-family="Helvetica,sans-Serif" font-size="10.00">MainWindow::MainWindow</text>
</a>
</g>
</g>
<!-- Node1&#45;&gt;Node1 -->
<g id="edge1_Node000001_Node000001" class="edge">
<title>Node1&#45;&gt;Node1</title>
<g id="a_edge1_Node000001_Node000001"><a xlink:title=" ">
<path fill="none" stroke="#63b8ff" d="M38.8,-123.16C25.82,-131.77 35.3,-140.88 67.25,-140.88 85.72,-140.88 96.68,-137.83 100.14,-133.6"/>
<polygon fill="#63b8ff" stroke="#63b8ff" points="103.43,-132.39 96.3,-124.56 96.98,-135.13 103.43,-132.39"/>
</a>
</g>
</g>
<!-- Node2 -->
<g id="Node000002" class="node">
<title>Node2</title>
<g id="a_Node000002"><a xlink:href="../../d9/dc6/class_main_window.html#aa2910dbb80e3e72ef731d27d70100d8e" target="_top" xlink:title="Sets up connections and UI elements for the testimonial feature.">
<polygon fill="white" stroke="#666666" points="327.5,-122.88 170.5,-122.88 170.5,-103.62 327.5,-103.62 327.5,-122.88"/>
<text text-anchor="middle" x="249" y="-109.38" font-family="Helvetica,sans-Serif" font-size="10.00">MainWindow::setupTestimonials</text>
</a>
</g>
</g>
<!-- Node1&#45;&gt;Node2 -->
<g id="edge2_Node000001_Node000002" class="edge">
<title>Node1&#45;&gt;Node2</title>
<g id="a_edge2_Node000001_Node000002"><a xlink:title=" ">
<path fill="none" stroke="#63b8ff" d="M134.93,-113.25C142.74,-113.25 150.8,-113.25 158.85,-113.25"/>
<polygon fill="#63b8ff" stroke="#63b8ff" points="158.69,-116.75 168.69,-113.25 158.69,-109.75 158.69,-116.75"/>
</a>
</g>
</g>
<!-- Node3 -->
<g id="Node000003" class="node">
<title>Node3</title>
<g id="a_Node000003"><a xlink:href="../../d4/d0d/class_testimonial_manager.html#a7b05489ceb9a8bd5e94e955c50b9515f" target="_top" xlink:title="Returns a reference to the singleton TestimonialManager instance.">
<polygon fill="white" stroke="#666666" points="493.12,-309.5 390.12,-309.5 390.12,-279 493.12,-279 493.12,-309.5"/>
<text text-anchor="start" x="398.12" y="-296" font-family="Helvetica,sans-Serif" font-size="10.00">TestimonialManager</text>
<text text-anchor="middle" x="441.62" y="-284.75" font-family="Helvetica,sans-Serif" font-size="10.00">::getInstance</text>
</a>
</g>
</g>
<!-- Node2&#45;&gt;Node3 -->
<g id="edge3_Node000002_Node000003" class="edge">
<title>Node2&#45;&gt;Node3</title>
<g id="a_edge3_Node000002_Node000003"><a xlink:title=" ">
<path fill="none" stroke="#63b8ff" d="M260.52,-123.24C289.96,-151.19 373.76,-230.76 415.86,-270.73"/>
<polygon fill="#63b8ff" stroke="#63b8ff" points="413.41,-273.24 423.08,-277.59 418.23,-268.16 413.41,-273.24"/>
</a>
</g>
</g>
<!-- Node10 -->
<g id="Node000010" class="node">
<title>Node10</title>
<g id="a_Node000010"><a xlink:href="../../d4/d0d/class_testimonial_manager.html#ade7e70f55550c1417ab7d0ca7b3b3142" target="_top" xlink:title="Emitted to prompt the user for a testimonial.">
<polygon fill="white" stroke="#666666" points="1013.25,-303.5 867.5,-303.5 867.5,-273 1013.25,-273 1013.25,-303.5"/>
<text text-anchor="start" x="875.5" y="-290" font-family="Helvetica,sans-Serif" font-size="10.00">TestimonialManager</text>
<text text-anchor="middle" x="940.38" y="-278.75" font-family="Helvetica,sans-Serif" font-size="10.00">::shouldPromptForTestimonial</text>
</a>
</g>
</g>
<!-- Node2&#45;&gt;Node10 -->
<g id="edge17_Node000002_Node000010" class="edge">
<title>Node2&#45;&gt;Node10</title>
<g id="a_edge17_Node000002_Node000010"><a xlink:title=" ">
<path fill="none" stroke="#63b8ff" d="M291.55,-123.36C312.93,-128.23 339.48,-133.75 363.5,-137.25 570,-167.34 643.12,-85.46 831.5,-175.25 872.1,-194.6 905.36,-236.29 923.76,-263.26"/>
<polygon fill="#63b8ff" stroke="#63b8ff" points="920.8,-265.13 929.23,-271.54 926.64,-261.27 920.8,-265.13"/>
</a>
</g>
</g>
<!-- Node17 -->
<g id="Node000017" class="node">
<title>Node17</title>
<g id="a_Node000017"><a xlink:href="../../d9/dc6/class_main_window.html#ade3d9ed9b1c685f1ba1044cf10a401a4" target="_top" xlink:title="Displays a dialog prompting the user to submit a testimonial.">
<polygon fill="white" stroke="#666666" points="517.12,-128.5 366.12,-128.5 366.12,-98 517.12,-98 517.12,-128.5"/>
<text text-anchor="start" x="374.12" y="-115" font-family="Helvetica,sans-Serif" font-size="10.00">MainWindow::showTestimonial</text>
<text text-anchor="middle" x="441.62" y="-103.75" font-family="Helvetica,sans-Serif" font-size="10.00">Prompt</text>
</a>
</g>
</g>
<!-- Node2&#45;&gt;Node17 -->
<g id="edge18_Node000002_Node000017" class="edge">
<title>Node2&#45;&gt;Node17</title>
<g id="a_edge18_Node000002_Node000017"><a xlink:title=" ">
<path fill="none" stroke="#63b8ff" d="M327.81,-113.25C336.64,-113.25 345.68,-113.25 354.61,-113.25"/>
<polygon fill="#63b8ff" stroke="#63b8ff" points="354.32,-116.75 364.32,-113.25 354.32,-109.75 354.32,-116.75"/>
</a>
</g>
</g>
<!-- Node18 -->
<g id="Node000018" class="node">
<title>Node18</title>
<g id="a_Node000018"><a xlink:href="../../d9/dc6/class_main_window.html#a415d10b19b2dd2e7ba99d0dd5fcb76da" target="_top" xlink:title="Displays a dialog showing existing testimonials.">
<polygon fill="white" stroke="#666666" points="519.75,-79.5 363.5,-79.5 363.5,-49 519.75,-49 519.75,-79.5"/>
<text text-anchor="start" x="371.5" y="-66" font-family="Helvetica,sans-Serif" font-size="10.00">MainWindow::showTestimonials</text>
<text text-anchor="middle" x="441.62" y="-54.75" font-family="Helvetica,sans-Serif" font-size="10.00">Display</text>
</a>
</g>
</g>
<!-- Node2&#45;&gt;Node18 -->
<g id="edge19_Node000002_Node000018" class="edge">
<title>Node2&#45;&gt;Node18</title>
<g id="a_edge19_Node000002_Node000018"><a xlink:title=" ">
<path fill="none" stroke="#63b8ff" d="M289.04,-103.22C311.92,-97.33 341.54,-89.72 368.52,-82.78"/>
<polygon fill="#63b8ff" stroke="#63b8ff" points="369.22,-86.22 378.03,-80.34 367.47,-79.44 369.22,-86.22"/>
</a>
</g>
</g>
<!-- Node19 -->
<g id="Node000019" class="node">
<title>Node19</title>
<g id="a_Node000019"><a xlink:href="../../d4/d0d/class_testimonial_manager.html#a06504060ff2ed420035a8433e03d8fa5" target="_top" xlink:title="Starts the timer for tracking user activity time.">
<polygon fill="white" stroke="#666666" points="493.12,-30.5 390.12,-30.5 390.12,0 493.12,0 493.12,-30.5"/>
<text text-anchor="start" x="398.12" y="-17" font-family="Helvetica,sans-Serif" font-size="10.00">TestimonialManager</text>
<text text-anchor="middle" x="441.62" y="-5.75" font-family="Helvetica,sans-Serif" font-size="10.00">::startTrackingTime</text>
</a>
</g>
</g>
<!-- Node2&#45;&gt;Node19 -->
<g id="edge20_Node000002_Node000019" class="edge">
<title>Node2&#45;&gt;Node19</title>
<g id="a_edge20_Node000002_Node000019"><a xlink:title=" ">
<path fill="none" stroke="#63b8ff" d="M262.97,-103.31C283.4,-88.02 324.76,-58.61 363.5,-40.25 368.54,-37.86 373.86,-35.62 379.27,-33.52"/>
<polygon fill="#63b8ff" stroke="#63b8ff" points="380.1,-36.95 388.28,-30.21 377.68,-30.38 380.1,-36.95"/>
</a>
</g>
</g>
<!-- Node4 -->
<g id="Node000004" class="node">
<title>Node4</title>
<g id="a_Node000004"><a xlink:href="../../d4/d0d/class_testimonial_manager.html#aded0ef0783e1e67e701f7c3bf3a80072" target="_top" xlink:title="Private constructor to enforce singleton pattern. Initializes API connections and timer.">
<polygon fill="white" stroke="#666666" points="664.75,-382.5 555.75,-382.5 555.75,-352 664.75,-352 664.75,-382.5"/>
<text text-anchor="start" x="563.75" y="-369" font-family="Helvetica,sans-Serif" font-size="10.00">TestimonialManager</text>
<text text-anchor="middle" x="610.25" y="-357.75" font-family="Helvetica,sans-Serif" font-size="10.00">::TestimonialManager</text>
</a>
</g>
</g>
<!-- Node3&#45;&gt;Node4 -->
<g id="edge4_Node000003_Node000004" class="edge">
<title>Node3&#45;&gt;Node4</title>
<g id="a_edge4_Node000003_Node000004"><a xlink:title=" ">
<path fill="none" stroke="#63b8ff" d="M478.37,-309.91C503.19,-320.78 536.48,-335.37 563.27,-347.11"/>
<polygon fill="#63b8ff" stroke="#63b8ff" points="561.61,-350.2 572.18,-351.01 564.42,-343.79 561.61,-350.2"/>
</a>
</g>
</g>
<!-- Node5 -->
<g id="Node000005" class="node">
<title>Node5</title>
<g id="a_Node000005"><a xlink:href="../../d2/dd1/class_api_client.html#ae22339e302eb27bc51fbdfc1b7c1a4ec" target="_top" xlink:title="Signal for a failed request sent to a Get endpoint.">
<polygon fill="white" stroke="#666666" points="826.25,-558.88 706,-558.88 706,-539.62 826.25,-539.62 826.25,-558.88"/>
<text text-anchor="middle" x="766.12" y="-545.38" font-family="Helvetica,sans-Serif" font-size="10.00">ApiClient::BadGetReply</text>
</a>
</g>
</g>
<!-- Node4&#45;&gt;Node5 -->
<g id="edge5_Node000004_Node000005" class="edge">
<title>Node4&#45;&gt;Node5</title>
<g id="a_edge5_Node000004_Node000005"><a xlink:title=" ">
<path fill="none" stroke="#63b8ff" d="M615.21,-382.53C624.44,-415.03 650.49,-491.27 700.75,-531.25 701.87,-532.14 703.04,-532.99 704.24,-533.8"/>
<polygon fill="#63b8ff" stroke="#63b8ff" points="702.25,-536.7 712.7,-538.47 705.64,-530.57 702.25,-536.7"/>
</a>
</g>
</g>
<!-- Node6 -->
<g id="Node000006" class="node">
<title>Node6</title>
<g id="a_Node000006"><a xlink:href="../../d2/dd1/class_api_client.html#ac0f68b238bace3703854d7de15a3bb38" target="_top" xlink:title="Signal for a failed request sent to a Post endpoint.">
<polygon fill="white" stroke="#666666" points="828.5,-521.88 703.75,-521.88 703.75,-502.62 828.5,-502.62 828.5,-521.88"/>
<text text-anchor="middle" x="766.12" y="-508.38" font-family="Helvetica,sans-Serif" font-size="10.00">ApiClient::BadPostReply</text>
</a>
</g>
</g>
<!-- Node4&#45;&gt;Node6 -->
<g id="edge6_Node000004_Node000006" class="edge">
<title>Node4&#45;&gt;Node6</title>
<g id="a_edge6_Node000004_Node000006"><a xlink:title=" ">
<path fill="none" stroke="#63b8ff" d="M618.15,-382.99C630.67,-409.72 659.7,-463.94 700.75,-493.25 702.79,-494.71 704.95,-496.06 707.18,-497.3"/>
<polygon fill="#63b8ff" stroke="#63b8ff" points="705.46,-500.36 716,-501.48 708.46,-494.03 705.46,-500.36"/>
</a>
</g>
</g>
<!-- Node7 -->
<g id="Node000007" class="node">
<title>Node7</title>
<g id="a_Node000007"><a xlink:href="../../d4/d0d/class_testimonial_manager.html#a69979eb09835fcb35d804fa169b63f0f" target="_top" xlink:title="Checks accumulated user time and emits shouldPromptForTestimonial if criteria are met.">
<polygon fill="white" stroke="#666666" points="825.5,-484.5 706.75,-484.5 706.75,-454 825.5,-454 825.5,-484.5"/>
<text text-anchor="start" x="714.75" y="-471" font-family="Helvetica,sans-Serif" font-size="10.00">TestimonialManager</text>
<text text-anchor="middle" x="766.12" y="-459.75" font-family="Helvetica,sans-Serif" font-size="10.00">::checkTimeAndPrompt</text>
</a>
</g>
</g>
<!-- Node4&#45;&gt;Node7 -->
<g id="edge7_Node000004_Node000007" class="edge">
<title>Node4&#45;&gt;Node7</title>
<g id="a_edge7_Node000004_Node000007"><a xlink:title=" ">
<path fill="none" stroke="#63b8ff" d="M625.76,-382.9C642.45,-400.15 671.35,-427.75 700.75,-445.25 702.75,-446.44 704.82,-447.59 706.94,-448.7"/>
<polygon fill="#63b8ff" stroke="#63b8ff" points="705.22,-451.75 715.75,-452.91 708.24,-445.44 705.22,-451.75"/>
</a>
</g>
</g>
<!-- Node11 -->
<g id="Node000011" class="node">
<title>Node11</title>
<g id="a_Node000011"><a xlink:href="../../d2/dd1/class_api_client.html#a940bf610f9fa472fc660e1ab60203de7" target="_top" xlink:title="Signal for a successful request sent to a Get endpoint.">
<polygon fill="white" stroke="#666666" points="829.25,-435.88 703,-435.88 703,-416.62 829.25,-416.62 829.25,-435.88"/>
<text text-anchor="middle" x="766.12" y="-422.38" font-family="Helvetica,sans-Serif" font-size="10.00">ApiClient::GoodGetReply</text>
</a>
</g>
</g>
<!-- Node4&#45;&gt;Node11 -->
<g id="edge11_Node000004_Node000011" class="edge">
<title>Node4&#45;&gt;Node11</title>
<g id="a_edge11_Node000004_Node000011"><a xlink:title=" ">
<path fill="none" stroke="#63b8ff" d="M642.22,-382.9C659.23,-391.11 680.85,-400.96 700.75,-408.25 705.16,-409.87 709.79,-411.42 714.46,-412.9"/>
<polygon fill="#63b8ff" stroke="#63b8ff" points="713.29,-416.2 723.87,-415.74 715.31,-409.5 713.29,-416.2"/>
</a>
</g>
</g>
<!-- Node12 -->
<g id="Node000012" class="node">
<title>Node12</title>
<g id="a_Node000012"><a xlink:href="../../d2/dd1/class_api_client.html#aa2e03a2c693acb0052f80415b453e279" target="_top" xlink:title="Signal for a successful request sent to a Post endpoint.">
<polygon fill="white" stroke="#666666" points="831.5,-398.88 700.75,-398.88 700.75,-379.62 831.5,-379.62 831.5,-398.88"/>
<text text-anchor="middle" x="766.12" y="-385.38" font-family="Helvetica,sans-Serif" font-size="10.00">ApiClient::GoodPostReply</text>
</a>
</g>
</g>
<!-- Node4&#45;&gt;Node12 -->
<g id="edge12_Node000004_Node000012" class="edge">
<title>Node4&#45;&gt;Node12</title>
<g id="a_edge12_Node000004_Node000012"><a xlink:title=" ">
<path fill="none" stroke="#63b8ff" d="M665.07,-374.94C672.93,-376.07 681.15,-377.24 689.36,-378.42"/>
<polygon fill="#63b8ff" stroke="#63b8ff" points="688.6,-381.84 699,-379.8 689.59,-374.92 688.6,-381.84"/>
</a>
</g>
</g>
<!-- Node13 -->
<g id="Node000013" class="node">
<title>Node13</title>
<g id="a_Node000013"><a xlink:href="../../d4/d0d/class_testimonial_manager.html#aa256bebedcc689ce416c7a2fcade3900" target="_top" xlink:title="Slot called when a GET request for testimonials fails.">
<polygon fill="white" stroke="#666666" points="821,-361.5 711.25,-361.5 711.25,-331 821,-331 821,-361.5"/>
<text text-anchor="start" x="719.25" y="-348" font-family="Helvetica,sans-Serif" font-size="10.00">TestimonialManager</text>
<text text-anchor="middle" x="766.12" y="-336.75" font-family="Helvetica,sans-Serif" font-size="10.00">::onBadGetResponse</text>
</a>
</g>
</g>
<!-- Node4&#45;&gt;Node13 -->
<g id="edge13_Node000004_Node000013" class="edge">
<title>Node4&#45;&gt;Node13</title>
<g id="a_edge13_Node000004_Node000013"><a xlink:title=" ">
<path fill="none" stroke="#63b8ff" d="M665.07,-359.91C676.18,-358.39 688.01,-356.77 699.49,-355.21"/>
<polygon fill="#63b8ff" stroke="#63b8ff" points="699.88,-358.69 709.32,-353.87 698.94,-351.75 699.88,-358.69"/>
</a>
</g>
</g>
<!-- Node14 -->
<g id="Node000014" class="node">
<title>Node14</title>
<g id="a_Node000014"><a xlink:href="../../d4/d0d/class_testimonial_manager.html#acfda7a2d454b513c1c75d8d030a43dd9" target="_top" xlink:title="Slot called when a POST request to save testimonials fails.">
<polygon fill="white" stroke="#666666" points="823.25,-312.5 709,-312.5 709,-282 823.25,-282 823.25,-312.5"/>
<text text-anchor="start" x="717" y="-299" font-family="Helvetica,sans-Serif" font-size="10.00">TestimonialManager</text>
<text text-anchor="middle" x="766.12" y="-287.75" font-family="Helvetica,sans-Serif" font-size="10.00">::onBadPostResponse</text>
</a>
</g>
</g>
<!-- Node4&#45;&gt;Node14 -->
<g id="edge14_Node000004_Node000014" class="edge">
<title>Node4&#45;&gt;Node14</title>
<g id="a_edge14_Node000004_Node000014"><a xlink:title=" ">
<path fill="none" stroke="#63b8ff" d="M640.74,-351.53C658.03,-342.54 680.41,-331.29 700.75,-322.25 704.53,-320.57 708.47,-318.89 712.44,-317.23"/>
<polygon fill="#63b8ff" stroke="#63b8ff" points="713.64,-320.53 721.58,-313.52 711,-314.04 713.64,-320.53"/>
</a>
</g>
</g>
<!-- Node15 -->
<g id="Node000015" class="node">
<title>Node15</title>
<g id="a_Node000015"><a xlink:href="../../d4/d0d/class_testimonial_manager.html#a2a9ada04ab15847f2c1b3c81deb994d7" target="_top" xlink:title="Slot called when a GET request for testimonials succeeds.">
<polygon fill="white" stroke="#666666" points="824,-263.5 708.25,-263.5 708.25,-233 824,-233 824,-263.5"/>
<text text-anchor="start" x="716.25" y="-250" font-family="Helvetica,sans-Serif" font-size="10.00">TestimonialManager</text>
<text text-anchor="middle" x="766.12" y="-238.75" font-family="Helvetica,sans-Serif" font-size="10.00">::onGoodGetResponse</text>
</a>
</g>
</g>
<!-- Node4&#45;&gt;Node15 -->
<g id="edge15_Node000004_Node000015" class="edge">
<title>Node4&#45;&gt;Node15</title>
<g id="a_edge15_Node000004_Node000015"><a xlink:title=" ">
<path fill="none" stroke="#63b8ff" d="M622.62,-351.56C638.19,-331.06 667.99,-295.19 700.75,-273.25 702.85,-271.84 705.05,-270.49 707.31,-269.21"/>
<polygon fill="#63b8ff" stroke="#63b8ff" points="708.87,-272.34 716.16,-264.66 705.67,-266.12 708.87,-272.34"/>
</a>
</g>
</g>
<!-- Node16 -->
<g id="Node000016" class="node">
<title>Node16</title>
<g id="a_Node000016"><a xlink:href="../../d4/d0d/class_testimonial_manager.html#ad384569c01fdadf0bb38e053a7bee337" target="_top" xlink:title="Slot called when a POST request to save testimonials succeeds.">
<polygon fill="white" stroke="#666666" points="826.25,-214.5 706,-214.5 706,-184 826.25,-184 826.25,-214.5"/>
<text text-anchor="start" x="714" y="-201" font-family="Helvetica,sans-Serif" font-size="10.00">TestimonialManager</text>
<text text-anchor="middle" x="766.12" y="-189.75" font-family="Helvetica,sans-Serif" font-size="10.00">::onGoodPostResponse</text>
</a>
</g>
</g>
<!-- Node4&#45;&gt;Node16 -->
<g id="edge16_Node000004_Node000016" class="edge">
<title>Node4&#45;&gt;Node16</title>
<g id="a_edge16_Node000004_Node000016"><a xlink:title=" ">
<path fill="none" stroke="#63b8ff" d="M617.11,-351.63C628.74,-322.61 657.42,-260.09 700.75,-224.25 702.24,-223.02 703.8,-221.84 705.42,-220.71"/>
<polygon fill="#63b8ff" stroke="#63b8ff" points="707.09,-223.79 713.85,-215.63 703.48,-217.8 707.09,-223.79"/>
</a>
</g>
</g>
<!-- Node8 -->
<g id="Node000008" class="node">
<title>Node8</title>
<g id="a_Node000008"><a xlink:href="../../d4/d0d/class_testimonial_manager.html#a1ebec1a781a7508501e398bb042a0b2d" target="_top" xlink:title="Retrieves the &quot;do not show again&quot; preference for a user.">
<polygon fill="white" stroke="#666666" points="997.12,-508.5 883.62,-508.5 883.62,-478 997.12,-478 997.12,-508.5"/>
<text text-anchor="start" x="891.62" y="-495" font-family="Helvetica,sans-Serif" font-size="10.00">TestimonialManager</text>
<text text-anchor="middle" x="940.38" y="-483.75" font-family="Helvetica,sans-Serif" font-size="10.00">::getDoNotShowAgain</text>
</a>
</g>
</g>
<!-- Node7&#45;&gt;Node8 -->
<g id="edge8_Node000007_Node000008" class="edge">
<title>Node7&#45;&gt;Node8</title>
<g id="a_edge8_Node000007_Node000008"><a xlink:title=" ">
<path fill="none" stroke="#63b8ff" d="M825.92,-477.44C840.68,-479.5 856.63,-481.72 871.78,-483.83"/>
<polygon fill="#63b8ff" stroke="#63b8ff" points="871.28,-487.3 881.67,-485.21 872.25,-480.36 871.28,-487.3"/>
</a>
</g>
</g>
<!-- Node9 -->
<g id="Node000009" class="node">
<title>Node9</title>
<g id="a_Node000009"><a xlink:href="../../d4/d0d/class_testimonial_manager.html#a9466acdac4dddfe8947b41cb637cb556" target="_top" xlink:title="Checks if a user with the given username has already submitted a testimonial.">
<polygon fill="white" stroke="#666666" points="1007.25,-459.5 873.5,-459.5 873.5,-429 1007.25,-429 1007.25,-459.5"/>
<text text-anchor="start" x="881.5" y="-446" font-family="Helvetica,sans-Serif" font-size="10.00">TestimonialManager</text>
<text text-anchor="middle" x="940.38" y="-434.75" font-family="Helvetica,sans-Serif" font-size="10.00">::hasUserGivenTestimonial</text>
</a>
</g>
</g>
<!-- Node7&#45;&gt;Node9 -->
<g id="edge9_Node000007_Node000009" class="edge">
<title>Node7&#45;&gt;Node9</title>
<g id="a_edge9_Node000007_Node000009"><a xlink:title=" ">
<path fill="none" stroke="#63b8ff" d="M825.92,-460.72C837.56,-459.03 849.95,-457.23 862.09,-455.47"/>
<polygon fill="#63b8ff" stroke="#63b8ff" points="862.26,-458.98 871.65,-454.08 861.26,-452.05 862.26,-458.98"/>
</a>
</g>
</g>
<!-- Node7&#45;&gt;Node10 -->
<g id="edge10_Node000007_Node000010" class="edge">
<title>Node7&#45;&gt;Node10</title>
<g id="a_edge10_Node000007_Node000010"><a xlink:title=" ">
<path fill="none" stroke="#63b8ff" d="M818.26,-453.61C822.96,-451.18 827.46,-448.41 831.5,-445.25 877.37,-409.44 911.15,-348.69 927.78,-314.2"/>
<polygon fill="#63b8ff" stroke="#63b8ff" points="930.85,-315.89 931.93,-305.36 924.52,-312.92 930.85,-315.89"/>
</a>
</g>
</g>
</g>
</svg>

<g id="navigator" transform="translate(0 0)" fill="#404254">
  <rect fill="#f2f5e9" fill-opacity="0.5" stroke="#606060" stroke-width=".5" x="0" y="0" width="60" height="60"/>
  <use id="zoomplus" xlink:href="#zoomPlus" x="17" y="9" onmousedown="handleZoom(evt,'in')"/>
  <use id="zoomminus" xlink:href="#zoomMin" x="42" y="9" onmousedown="handleZoom(evt,'out')"/>
  <use id="reset" xlink:href="#resetDef" x="30" y="36" onmousedown="handleReset()"/>
   <use id="arrowup" xlink:href="#arrowUp" x="0" y="0" onmousedown="handlePan(0,-1)"/>
  <use id="arrowright" xlink:href="#arrowRight" x="0" y="0" onmousedown="handlePan(1,0)"/>
  <use id="arrowdown" xlink:href="#arrowDown" x="0" y="0" onmousedown="handlePan(0,1)"/>
  <use id="arrowleft" xlink:href="#arrowLeft" x="0" y="0" onmousedown="handlePan(-1,0)"/>
</g>
<svg viewBox="0 0 15 15" width="100%" height="30px" preserveAspectRatio="xMaxYMin meet">
 <g id="arrow_out" transform="scale(0.3 0.3)">
  <a xlink:href="class_main_window_a996c5a2b6f77944776856f08ec30858d_cgraph_org.svg" target="_base">
   <rect id="button" ry="5" rx="5" y="6" x="6" height="38" width="38"
        fill="#f2f5e9" fill-opacity="0.5" stroke="#606060" stroke-width="1.0"/>
   <path id="arrow"
     d="M 11.500037,31.436501 C 11.940474,20.09759 22.043105,11.32322 32.158766,21.979434 L 37.068811,17.246167 C 37.068811,17.246167 37.088388,32 37.088388,32 L 22.160133,31.978069 C 22.160133,31.978069 26.997745,27.140456 26.997745,27.140456 C 18.528582,18.264221 13.291696,25.230495 11.500037,31.436501 z"
     style="fill:#404040;"/>
  </a>
 </g>
</svg>

<style type='text/css'>
<![CDATA[
[data-mouse-over-selected='false'] { opacity: 0.7; }
[data-mouse-over-selected='true']  { opacity: 1.0; }
]]>
</style>
<script type="application/ecmascript"><![CDATA[
document.addEventListener('DOMContentLoaded', (event) => {
  highlightEdges();
  highlightAdjacentNodes();
});
]]></script>
</svg>
