<?xml version="1.0" encoding="UTF-8" standalone="no"?>
<!DOCTYPE svg PUBLIC "-//W3C//DTD SVG 1.1//EN"
 "http://www.w3.org/Graphics/SVG/1.1/DTD/svg11.dtd">
<!-- Generated by graphviz version 12.2.1 (20241206.2353)
 -->
<!-- Title: MainWindow::showTestimonialPrompt Pages: 1 -->
<svg width="693pt" height="61pt"
 viewBox="0.00 0.00 693.00 60.88" xmlns="http://www.w3.org/2000/svg" xmlns:xlink="http://www.w3.org/1999/xlink">
<g id="graph0" class="graph" transform="scale(1 1) rotate(0) translate(4 56.88)">
<title>MainWindow::showTestimonialPrompt</title>
<!-- Node1 -->
<g id="Node000001" class="node">
<title>Node1</title>
<g id="a_Node000001"><a xlink:title="Displays a dialog prompting the user to submit a testimonial.">
<polygon fill="#999999" stroke="#666666" points="685,-52.88 534,-52.88 534,-22.38 685,-22.38 685,-52.88"/>
<text text-anchor="start" x="542" y="-39.38" font-family="Helvetica,sans-Serif" font-size="10.00">MainWindow::showTestimonial</text>
<text text-anchor="middle" x="609.5" y="-28.12" font-family="Helvetica,sans-Serif" font-size="10.00">Prompt</text>
</a>
</g>
</g>
<!-- Node2 -->
<g id="Node000002" class="node">
<title>Node2</title>
<g id="a_Node000002"><a xlink:href="../../d9/dc6/class_main_window.html#aa2910dbb80e3e72ef731d27d70100d8e" target="_top" xlink:title="Sets up connections and UI elements for the testimonial feature.">
<polygon fill="white" stroke="#666666" points="498,-47.25 341,-47.25 341,-28 498,-28 498,-47.25"/>
<text text-anchor="middle" x="419.5" y="-33.75" font-family="Helvetica,sans-Serif" font-size="10.00">MainWindow::setupTestimonials</text>
</a>
</g>
</g>
<!-- Node1&#45;&gt;Node2 -->
<g id="edge1_Node000001_Node000002" class="edge">
<title>Node1&#45;&gt;Node2</title>
<g id="a_edge1_Node000001_Node000002"><a xlink:title=" ">
<path fill="none" stroke="#63b8ff" d="M522.16,-37.62C514.26,-37.62 506.29,-37.62 498.47,-37.62"/>
<polygon fill="#63b8ff" stroke="#63b8ff" points="522.14,-41.13 532.14,-37.63 522.14,-34.13 522.14,-41.13"/>
</a>
</g>
</g>
<!-- Node3 -->
<g id="Node000003" class="node">
<title>Node3</title>
<g id="a_Node000003"><a xlink:href="../../d9/dc6/class_main_window.html#a25d06b6f11a1eb7fa2239f01e853ae29" target="_top" xlink:title=" ">
<polygon fill="white" stroke="#666666" points="134.5,-47.25 0,-47.25 0,-28 134.5,-28 134.5,-47.25"/>
<text text-anchor="middle" x="67.25" y="-33.75" font-family="Helvetica,sans-Serif" font-size="10.00">MainWindow::MainWindow</text>
</a>
</g>
</g>
<!-- Node2&#45;&gt;Node3 -->
<g id="edge2_Node000002_Node000003" class="edge">
<title>Node2&#45;&gt;Node3</title>
<g id="a_edge2_Node000002_Node000003"><a xlink:title=" ">
<path fill="none" stroke="#63b8ff" d="M329.46,-45.36C321.19,-45.87 312.94,-46.31 305,-46.62 245.27,-48.99 230.22,-49.25 170.5,-46.62 158.93,-46.12 146.64,-45.29 134.75,-44.33"/>
<polygon fill="#63b8ff" stroke="#63b8ff" points="329.45,-48.87 339.19,-44.71 328.98,-41.88 329.45,-48.87"/>
</a>
</g>
</g>
<!-- Node4 -->
<g id="Node000004" class="node">
<title>Node4</title>
<g id="a_Node000004"><a xlink:href="../../d9/dc6/class_main_window.html#a996c5a2b6f77944776856f08ec30858d" target="_top" xlink:title="Default constructor.">
<polygon fill="white" stroke="#666666" points="305,-19.25 170.5,-19.25 170.5,0 305,0 305,-19.25"/>
<text text-anchor="middle" x="237.75" y="-5.75" font-family="Helvetica,sans-Serif" font-size="10.00">MainWindow::MainWindow</text>
</a>
</g>
</g>
<!-- Node2&#45;&gt;Node4 -->
<g id="edge3_Node000002_Node000004" class="edge">
<title>Node2&#45;&gt;Node4</title>
<g id="a_edge3_Node000002_Node000004"><a xlink:title=" ">
<path fill="none" stroke="#63b8ff" d="M342.38,-25.77C329.46,-23.75 316.15,-21.68 303.55,-19.72"/>
<polygon fill="#63b8ff" stroke="#63b8ff" points="341.69,-29.2 352.11,-27.28 342.77,-22.29 341.69,-29.2"/>
</a>
</g>
</g>
<!-- Node4&#45;&gt;Node3 -->
<g id="edge4_Node000004_Node000003" class="edge">
<title>Node4&#45;&gt;Node3</title>
<g id="a_edge4_Node000004_Node000003"><a xlink:title=" ">
<path fill="none" stroke="#63b8ff" d="M164.66,-21.6C152.77,-23.58 140.56,-25.61 128.99,-27.53"/>
<polygon fill="#63b8ff" stroke="#63b8ff" points="165.13,-25.07 174.42,-19.98 163.99,-18.17 165.13,-25.07"/>
</a>
</g>
</g>
<!-- Node4&#45;&gt;Node4 -->
<g id="edge5_Node000004_Node000004" class="edge">
<title>Node4&#45;&gt;Node4</title>
<g id="a_edge5_Node000004_Node000004"><a xlink:title=" ">
<path fill="none" stroke="#63b8ff" d="M268.32,-30.32C264.8,-34.37 254.61,-37.25 237.75,-37.25 207.78,-37.25 198.88,-28.15 211.06,-19.54"/>
<polygon fill="#63b8ff" stroke="#63b8ff" points="271.64,-29.19 264.96,-20.96 265.05,-31.56 271.64,-29.19"/>
</a>
</g>
</g>
</g>
</svg>
