<?xml version="1.0" encoding="UTF-8" standalone="no"?>
<!DOCTYPE svg PUBLIC "-//W3C//DTD SVG 1.1//EN"
 "http://www.w3.org/Graphics/SVG/1.1/DTD/svg11.dtd">
<!-- Generated by graphviz version 12.2.1 (20241206.2353)
 -->
<!-- Title: MainWindow::onRenderAreaChanged Pages: 1 -->
<svg width="687pt" height="1275pt"
 viewBox="0.00 0.00 687.00 1274.88" xmlns="http://www.w3.org/2000/svg" xmlns:xlink="http://www.w3.org/1999/xlink">
<g id="graph0" class="graph" transform="scale(1 1) rotate(0) translate(4 1270.88)">
<title>MainWindow::onRenderAreaChanged</title>
<!-- Node1 -->
<g id="Node000001" class="node">
<title>Node1</title>
<g id="a_Node000001"><a xlink:title="Slot triggered when the render area&#39;s content has changed, requiring a UI update.">
<polygon fill="#999999" stroke="#666666" points="140.5,-602.88 0,-602.88 0,-572.38 140.5,-572.38 140.5,-602.88"/>
<text text-anchor="start" x="8" y="-589.38" font-family="Helvetica,sans-Serif" font-size="10.00">MainWindow::onRenderArea</text>
<text text-anchor="middle" x="70.25" y="-578.12" font-family="Helvetica,sans-Serif" font-size="10.00">Changed</text>
</a>
</g>
</g>
<!-- Node2 -->
<g id="Node000002" class="node">
<title>Node2</title>
<g id="a_Node000002"><a xlink:href="../../d9/dc6/class_main_window.html#a5ff173340d6b138bee993d26454d2aaa" target="_top" xlink:title="Populates the tree widget with details of the current shapes and sets up editing controls.">
<polygon fill="white" stroke="#666666" points="286.25,-602.88 176.5,-602.88 176.5,-572.38 286.25,-572.38 286.25,-602.88"/>
<text text-anchor="start" x="184.5" y="-589.38" font-family="Helvetica,sans-Serif" font-size="10.00">MainWindow::shapes</text>
<text text-anchor="middle" x="231.38" y="-578.12" font-family="Helvetica,sans-Serif" font-size="10.00">_to_treeWidget</text>
</a>
</g>
</g>
<!-- Node1&#45;&gt;Node2 -->
<g id="edge1_Node000001_Node000002" class="edge">
<title>Node1&#45;&gt;Node2</title>
<g id="a_edge1_Node000001_Node000002"><a xlink:title=" ">
<path fill="none" stroke="#63b8ff" d="M140.58,-587.62C148.57,-587.62 156.7,-587.62 164.64,-587.62"/>
<polygon fill="#63b8ff" stroke="#63b8ff" points="164.59,-591.13 174.59,-587.63 164.59,-584.13 164.59,-591.13"/>
</a>
</g>
</g>
<!-- Node3 -->
<g id="Node000003" class="node">
<title>Node3</title>
<g id="a_Node000003"><a xlink:href="../../d9/dc6/class_main_window.html#a405427dd9586218cba7d02d495bb88cc" target="_top" xlink:title="Creates and configures a QComboBox for selecting text alignment.">
<polygon fill="white" stroke="#666666" points="485.25,-1266.88 336.5,-1266.88 336.5,-1236.38 485.25,-1236.38 485.25,-1266.88"/>
<text text-anchor="start" x="344.5" y="-1253.38" font-family="Helvetica,sans-Serif" font-size="10.00">MainWindow::createAlignment</text>
<text text-anchor="middle" x="410.88" y="-1242.12" font-family="Helvetica,sans-Serif" font-size="10.00">ComboBox</text>
</a>
</g>
</g>
<!-- Node2&#45;&gt;Node3 -->
<g id="edge2_Node000002_Node000003" class="edge">
<title>Node2&#45;&gt;Node3</title>
<g id="a_edge2_Node000002_Node000003"><a xlink:title=" ">
<path fill="none" stroke="#63b8ff" d="M232.35,-603.34C232.53,-692.05 237.75,-1129.56 322.25,-1226.62 323.73,-1228.33 325.32,-1229.91 326.99,-1231.4"/>
<polygon fill="#63b8ff" stroke="#63b8ff" points="324.68,-1234.04 334.83,-1237.09 328.8,-1228.38 324.68,-1234.04"/>
</a>
</g>
</g>
<!-- Node4 -->
<g id="Node000004" class="node">
<title>Node4</title>
<g id="a_Node000004"><a xlink:href="../../d9/dc6/class_main_window.html#a77d4dace8cb3dab4130649f4dd61f90e" target="_top" xlink:title="Creates and configures a QComboBox for selecting brush styles.">
<polygon fill="white" stroke="#666666" points="487.5,-1217.88 334.25,-1217.88 334.25,-1187.38 487.5,-1187.38 487.5,-1217.88"/>
<text text-anchor="start" x="342.25" y="-1204.38" font-family="Helvetica,sans-Serif" font-size="10.00">MainWindow::createBrushStyle</text>
<text text-anchor="middle" x="410.88" y="-1193.12" font-family="Helvetica,sans-Serif" font-size="10.00">ComboBox</text>
</a>
</g>
</g>
<!-- Node2&#45;&gt;Node4 -->
<g id="edge3_Node000002_Node000004" class="edge">
<title>Node2&#45;&gt;Node4</title>
<g id="a_edge3_Node000002_Node000004"><a xlink:title=" ">
<path fill="none" stroke="#63b8ff" d="M232.53,-603.27C233.69,-687.87 243.34,-1089.95 322.25,-1178.62 323.22,-1179.72 324.24,-1180.76 325.3,-1181.76"/>
<polygon fill="#63b8ff" stroke="#63b8ff" points="322.87,-1184.31 332.92,-1187.65 327.14,-1178.77 322.87,-1184.31"/>
</a>
</g>
</g>
<!-- Node5 -->
<g id="Node000005" class="node">
<title>Node5</title>
<g id="a_Node000005"><a xlink:href="../../d9/dc6/class_main_window.html#a13cf8174967b39a40231f9a98dd21565" target="_top" xlink:title="Creates and configures a QComboBox for selecting colors.">
<polygon fill="white" stroke="#666666" points="499.5,-1169.25 322.25,-1169.25 322.25,-1150 499.5,-1150 499.5,-1169.25"/>
<text text-anchor="middle" x="410.88" y="-1155.75" font-family="Helvetica,sans-Serif" font-size="10.00">MainWindow::createColorComboBox</text>
</a>
</g>
</g>
<!-- Node2&#45;&gt;Node5 -->
<g id="edge4_Node000002_Node000005" class="edge">
<title>Node2&#45;&gt;Node5</title>
<g id="a_edge4_Node000002_Node000005"><a xlink:title=" ">
<path fill="none" stroke="#63b8ff" d="M232.61,-603.18C234.14,-684.65 245.36,-1061.46 322.25,-1141.62 322.63,-1142.02 323.01,-1142.4 323.4,-1142.78"/>
<polygon fill="#63b8ff" stroke="#63b8ff" points="321.08,-1145.41 331.13,-1148.77 325.37,-1139.88 321.08,-1145.41"/>
</a>
</g>
</g>
<!-- Node6 -->
<g id="Node000006" class="node">
<title>Node6</title>
<g id="a_Node000006"><a xlink:href="../../d9/dc6/class_main_window.html#a3785b3b7329dcdaf51f45312abe7dd6a" target="_top" xlink:title="Creates and configures a QComboBox for selecting font families.">
<polygon fill="white" stroke="#666666" points="497.62,-1132.25 324.12,-1132.25 324.12,-1113 497.62,-1113 497.62,-1132.25"/>
<text text-anchor="middle" x="410.88" y="-1118.75" font-family="Helvetica,sans-Serif" font-size="10.00">MainWindow::createFontComboBox</text>
</a>
</g>
</g>
<!-- Node2&#45;&gt;Node6 -->
<g id="edge5_Node000002_Node000006" class="edge">
<title>Node2&#45;&gt;Node6</title>
<g id="a_edge5_Node000002_Node000006"><a xlink:title=" ">
<path fill="none" stroke="#63b8ff" d="M232.82,-603.12C235.39,-681.04 250.79,-1029.16 322.25,-1103.62 323.11,-1104.52 324.01,-1105.38 324.93,-1106.21"/>
<polygon fill="#63b8ff" stroke="#63b8ff" points="322.55,-1108.81 332.71,-1111.81 326.64,-1103.13 322.55,-1108.81"/>
</a>
</g>
</g>
<!-- Node7 -->
<g id="Node000007" class="node">
<title>Node7</title>
<g id="a_Node000007"><a xlink:href="../../d9/dc6/class_main_window.html#a59688ddfdfc0f919ff7058dfcda42fa1" target="_top" xlink:title="Creates and configures a QComboBox for selecting font styles (normal, italic, oblique).">
<polygon fill="white" stroke="#666666" points="484.5,-1094.88 337.25,-1094.88 337.25,-1064.38 484.5,-1064.38 484.5,-1094.88"/>
<text text-anchor="start" x="345.25" y="-1081.38" font-family="Helvetica,sans-Serif" font-size="10.00">MainWindow::createFontStyle</text>
<text text-anchor="middle" x="410.88" y="-1070.12" font-family="Helvetica,sans-Serif" font-size="10.00">ComboBox</text>
</a>
</g>
</g>
<!-- Node2&#45;&gt;Node7 -->
<g id="edge6_Node000002_Node000007" class="edge">
<title>Node2&#45;&gt;Node7</title>
<g id="a_edge6_Node000002_Node000007"><a xlink:title=" ">
<path fill="none" stroke="#63b8ff" d="M233.22,-603.01C237.53,-675.92 259.38,-985.97 322.25,-1054.62 323.99,-1056.52 325.86,-1058.28 327.83,-1059.9"/>
<polygon fill="#63b8ff" stroke="#63b8ff" points="325.64,-1062.64 335.88,-1065.38 329.58,-1056.86 325.64,-1062.64"/>
</a>
</g>
</g>
<!-- Node8 -->
<g id="Node000008" class="node">
<title>Node8</title>
<g id="a_Node000008"><a xlink:href="../../d9/dc6/class_main_window.html#aca7d4f5f2149d757046f5d7cd8d5f8f7" target="_top" xlink:title="Creates and configures a QComboBox for selecting font weights.">
<polygon fill="white" stroke="#666666" points="488.25,-1045.88 333.5,-1045.88 333.5,-1015.38 488.25,-1015.38 488.25,-1045.88"/>
<text text-anchor="start" x="341.5" y="-1032.38" font-family="Helvetica,sans-Serif" font-size="10.00">MainWindow::createFontWeight</text>
<text text-anchor="middle" x="410.88" y="-1021.12" font-family="Helvetica,sans-Serif" font-size="10.00">ComboBox</text>
</a>
</g>
</g>
<!-- Node2&#45;&gt;Node8 -->
<g id="edge7_Node000002_Node000008" class="edge">
<title>Node2&#45;&gt;Node8</title>
<g id="a_edge7_Node000002_Node000008"><a xlink:title=" ">
<path fill="none" stroke="#63b8ff" d="M233.61,-603.2C239.35,-671.64 265.57,-945.06 322.25,-1005.62 322.98,-1006.41 323.74,-1007.17 324.52,-1007.9"/>
<polygon fill="#63b8ff" stroke="#63b8ff" points="322.32,-1010.63 332.36,-1014 326.62,-1005.1 322.32,-1010.63"/>
</a>
</g>
</g>
<!-- Node9 -->
<g id="Node000009" class="node">
<title>Node9</title>
<g id="a_Node000009"><a xlink:href="../../d9/dc6/class_main_window.html#ad2ca8de275eb8d22001fc8ae43a5b263" target="_top" xlink:title="Creates and configures a QComboBox for selecting pen cap styles.">
<polygon fill="white" stroke="#666666" points="481.12,-996.88 340.62,-996.88 340.62,-966.38 481.12,-966.38 481.12,-996.88"/>
<text text-anchor="start" x="348.62" y="-983.38" font-family="Helvetica,sans-Serif" font-size="10.00">MainWindow::createPenCap</text>
<text text-anchor="middle" x="410.88" y="-972.12" font-family="Helvetica,sans-Serif" font-size="10.00">StyleComboBox</text>
</a>
</g>
</g>
<!-- Node2&#45;&gt;Node9 -->
<g id="edge8_Node000002_Node000009" class="edge">
<title>Node2&#45;&gt;Node9</title>
<g id="a_edge8_Node000002_Node000009"><a xlink:title=" ">
<path fill="none" stroke="#63b8ff" d="M234.07,-603.06C241.32,-666.19 271.63,-903.99 322.25,-956.62 324.83,-959.3 327.67,-961.7 330.71,-963.85"/>
<polygon fill="#63b8ff" stroke="#63b8ff" points="328.64,-966.69 339.03,-968.79 332.22,-960.67 328.64,-966.69"/>
</a>
</g>
</g>
<!-- Node10 -->
<g id="Node000010" class="node">
<title>Node10</title>
<g id="a_Node000010"><a xlink:href="../../d9/dc6/class_main_window.html#ae585cf395690d3bf28b9ff94f8506a03" target="_top" xlink:title="Creates and configures a QComboBox for selecting pen join styles.">
<polygon fill="white" stroke="#666666" points="481.12,-947.88 340.62,-947.88 340.62,-917.38 481.12,-917.38 481.12,-947.88"/>
<text text-anchor="start" x="348.62" y="-934.38" font-family="Helvetica,sans-Serif" font-size="10.00">MainWindow::createPenJoin</text>
<text text-anchor="middle" x="410.88" y="-923.12" font-family="Helvetica,sans-Serif" font-size="10.00">StyleComboBox</text>
</a>
</g>
</g>
<!-- Node2&#45;&gt;Node10 -->
<g id="edge9_Node000002_Node000010" class="edge">
<title>Node2&#45;&gt;Node10</title>
<g id="a_edge9_Node000002_Node000010"><a xlink:title=" ">
<path fill="none" stroke="#63b8ff" d="M231.81,-603.21C230.83,-654.53 234.91,-819.92 322.25,-907.62 324.87,-910.26 327.75,-912.62 330.82,-914.74"/>
<polygon fill="#63b8ff" stroke="#63b8ff" points="328.81,-917.61 339.21,-919.62 332.33,-911.56 328.81,-917.61"/>
</a>
</g>
</g>
<!-- Node11 -->
<g id="Node000011" class="node">
<title>Node11</title>
<g id="a_Node000011"><a xlink:href="../../d9/dc6/class_main_window.html#a55eed5bdf9b2ec38f0d86c661acddcb5" target="_top" xlink:title="Creates and configures a QComboBox for selecting pen styles.">
<polygon fill="white" stroke="#666666" points="483.38,-898.88 338.38,-898.88 338.38,-868.38 483.38,-868.38 483.38,-898.88"/>
<text text-anchor="start" x="346.38" y="-885.38" font-family="Helvetica,sans-Serif" font-size="10.00">MainWindow::createPenStyle</text>
<text text-anchor="middle" x="410.88" y="-874.12" font-family="Helvetica,sans-Serif" font-size="10.00">ComboBox</text>
</a>
</g>
</g>
<!-- Node2&#45;&gt;Node11 -->
<g id="edge10_Node000002_Node000011" class="edge">
<title>Node2&#45;&gt;Node11</title>
<g id="a_edge10_Node000002_Node000011"><a xlink:title=" ">
<path fill="none" stroke="#63b8ff" d="M232.73,-603.09C234.65,-649.08 246.75,-786.25 322.25,-858.62 324.3,-860.59 326.49,-862.4 328.79,-864.07"/>
<polygon fill="#63b8ff" stroke="#63b8ff" points="326.54,-866.79 336.89,-869.05 330.21,-860.83 326.54,-866.79"/>
</a>
</g>
</g>
<!-- Node12 -->
<g id="Node000012" class="node">
<title>Node12</title>
<g id="a_Node000012"><a xlink:href="../../d9/dc6/class_main_window.html#a78611ff63653443ba2244f2f94ad67b2" target="_top" xlink:title="Creates and configures a QSpinBox for editing pen width.">
<polygon fill="white" stroke="#666666" points="484.88,-849.88 336.88,-849.88 336.88,-819.38 484.88,-819.38 484.88,-849.88"/>
<text text-anchor="start" x="344.88" y="-836.38" font-family="Helvetica,sans-Serif" font-size="10.00">MainWindow::createPenWidth</text>
<text text-anchor="middle" x="410.88" y="-825.12" font-family="Helvetica,sans-Serif" font-size="10.00">SpinBox</text>
</a>
</g>
</g>
<!-- Node2&#45;&gt;Node12 -->
<g id="edge11_Node000002_Node000012" class="edge">
<title>Node2&#45;&gt;Node12</title>
<g id="a_edge11_Node000002_Node000012"><a xlink:title=" ">
<path fill="none" stroke="#63b8ff" d="M233.97,-603.28C238.97,-643.89 258.03,-753.44 322.25,-810.62 323.88,-812.08 325.6,-813.45 327.38,-814.73"/>
<polygon fill="#63b8ff" stroke="#63b8ff" points="325.14,-817.46 335.49,-819.71 328.8,-811.5 325.14,-817.46"/>
</a>
</g>
</g>
<!-- Node13 -->
<g id="Node000013" class="node">
<title>Node13</title>
<g id="a_Node000013"><a xlink:href="../../d7/da7/class_shape.html#a8b5e05c84e401dddad339a15fa7d8ab1" target="_top" xlink:title=" ">
<polygon fill="white" stroke="#666666" points="466.88,-801.25 354.88,-801.25 354.88,-782 466.88,-782 466.88,-801.25"/>
<text text-anchor="middle" x="410.88" y="-787.75" font-family="Helvetica,sans-Serif" font-size="10.00">Shape::getBrushColor</text>
</a>
</g>
</g>
<!-- Node2&#45;&gt;Node13 -->
<g id="edge12_Node000002_Node000013" class="edge">
<title>Node2&#45;&gt;Node13</title>
<g id="a_edge12_Node000002_Node000013"><a xlink:title=" ">
<path fill="none" stroke="#63b8ff" d="M235.11,-603.29C242.29,-639.49 265.23,-729.22 322.25,-773.62 328.58,-778.55 335.92,-782.23 343.61,-784.95"/>
<polygon fill="#63b8ff" stroke="#63b8ff" points="342.61,-788.3 353.19,-787.77 344.59,-781.59 342.61,-788.3"/>
</a>
</g>
</g>
<!-- Node14 -->
<g id="Node000014" class="node">
<title>Node14</title>
<g id="a_Node000014"><a xlink:href="../../d7/da7/class_shape.html#a32f4199b1d1c9283c88e4199e787be2e" target="_top" xlink:title=" ">
<polygon fill="white" stroke="#666666" points="467.62,-764.25 354.12,-764.25 354.12,-745 467.62,-745 467.62,-764.25"/>
<text text-anchor="middle" x="410.88" y="-750.75" font-family="Helvetica,sans-Serif" font-size="10.00">Shape::getBrushItems</text>
</a>
</g>
</g>
<!-- Node2&#45;&gt;Node14 -->
<g id="edge13_Node000002_Node000014" class="edge">
<title>Node2&#45;&gt;Node14</title>
<g id="a_edge13_Node000002_Node000014"><a xlink:title=" ">
<path fill="none" stroke="#63b8ff" d="M237.06,-603.18C247.18,-633.97 274.15,-702.62 322.25,-736.62 328.47,-741.02 335.52,-744.39 342.86,-746.97"/>
<polygon fill="#63b8ff" stroke="#63b8ff" points="341.72,-750.29 352.3,-749.78 343.72,-743.58 341.72,-750.29"/>
</a>
</g>
</g>
<!-- Node15 -->
<g id="Node000015" class="node">
<title>Node15</title>
<g id="a_Node000015"><a xlink:href="../../d7/da7/class_shape.html#af9f3e91f66f410f59065a28bb8021d4d" target="_top" xlink:title=" ">
<polygon fill="white" stroke="#666666" points="476.25,-727.25 345.5,-727.25 345.5,-708 476.25,-708 476.25,-727.25"/>
<text text-anchor="middle" x="410.88" y="-713.75" font-family="Helvetica,sans-Serif" font-size="10.00">Shape::getBrushItemsEnd</text>
</a>
</g>
</g>
<!-- Node2&#45;&gt;Node15 -->
<g id="edge14_Node000002_Node000015" class="edge">
<title>Node2&#45;&gt;Node15</title>
<g id="a_edge14_Node000002_Node000015"><a xlink:title=" ">
<path fill="none" stroke="#63b8ff" d="M240.2,-603.14C253.48,-627.79 282.9,-675.57 322.25,-699.62 326.09,-701.97 330.19,-704.02 334.43,-705.8"/>
<polygon fill="#63b8ff" stroke="#63b8ff" points="333.19,-709.08 343.79,-709.2 335.58,-702.5 333.19,-709.08"/>
</a>
</g>
</g>
<!-- Node16 -->
<g id="Node000016" class="node">
<title>Node16</title>
<g id="a_Node000016"><a xlink:href="../../d7/da7/class_shape.html#a32e7b26329177063e40671687a0c62be" target="_top" xlink:title=" ">
<polygon fill="white" stroke="#666666" points="466.5,-690.25 355.25,-690.25 355.25,-671 466.5,-671 466.5,-690.25"/>
<text text-anchor="middle" x="410.88" y="-676.75" font-family="Helvetica,sans-Serif" font-size="10.00">Shape::getBrushStyle</text>
</a>
</g>
</g>
<!-- Node2&#45;&gt;Node16 -->
<g id="edge15_Node000002_Node000016" class="edge">
<title>Node2&#45;&gt;Node16</title>
<g id="a_edge15_Node000002_Node000016"><a xlink:title=" ">
<path fill="none" stroke="#63b8ff" d="M246.32,-603.17C262.74,-620.47 291.68,-647.89 322.25,-662.62 329.02,-665.89 336.36,-668.56 343.81,-670.75"/>
<polygon fill="#63b8ff" stroke="#63b8ff" points="342.73,-674.08 353.29,-673.23 344.51,-667.31 342.73,-674.08"/>
</a>
</g>
</g>
<!-- Node17 -->
<g id="Node000017" class="node">
<title>Node17</title>
<g id="a_Node000017"><a xlink:href="../../d7/da7/class_shape.html#a4718fe1b6fc5d30e83a8761175b77344" target="_top" xlink:title=" ">
<polygon fill="white" stroke="#666666" points="462.38,-653.25 359.38,-653.25 359.38,-634 462.38,-634 462.38,-653.25"/>
<text text-anchor="middle" x="410.88" y="-639.75" font-family="Helvetica,sans-Serif" font-size="10.00">Shape::getChildEnd</text>
</a>
</g>
</g>
<!-- Node2&#45;&gt;Node17 -->
<g id="edge16_Node000002_Node000017" class="edge">
<title>Node2&#45;&gt;Node17</title>
<g id="a_edge16_Node000002_Node000017"><a xlink:title=" ">
<path fill="none" stroke="#63b8ff" d="M265.08,-603.3C281.88,-610.87 302.84,-619.59 322.25,-625.62 330.4,-628.16 339.08,-630.43 347.7,-632.44"/>
<polygon fill="#63b8ff" stroke="#63b8ff" points="346.94,-635.86 357.46,-634.6 348.45,-629.02 346.94,-635.86"/>
</a>
</g>
</g>
<!-- Node18 -->
<g id="Node000018" class="node">
<title>Node18</title>
<g id="a_Node000018"><a xlink:href="../../d7/da7/class_shape.html#a8e5d4c7be5890c73cab44af6005573d4" target="_top" xlink:title=" ">
<polygon fill="white" stroke="#666666" points="466.12,-616.25 355.62,-616.25 355.62,-597 466.12,-597 466.12,-616.25"/>
<text text-anchor="middle" x="410.88" y="-602.75" font-family="Helvetica,sans-Serif" font-size="10.00">Shape::getChildItems</text>
</a>
</g>
</g>
<!-- Node2&#45;&gt;Node18 -->
<g id="edge17_Node000002_Node000018" class="edge">
<title>Node2&#45;&gt;Node18</title>
<g id="a_edge17_Node000002_Node000018"><a xlink:title=" ">
<path fill="none" stroke="#63b8ff" d="M286.6,-593.43C304.75,-595.37 325.18,-597.56 344.12,-599.59"/>
<polygon fill="#63b8ff" stroke="#63b8ff" points="343.55,-603.05 353.87,-600.63 344.3,-596.09 343.55,-603.05"/>
</a>
</g>
</g>
<!-- Node19 -->
<g id="Node000019" class="node">
<title>Node19</title>
<g id="a_Node000019"><a xlink:href="../../da/d0e/class_text.html#ace6ab02148fe23efffcd3f7c3dde9183" target="_top" xlink:title=" ">
<polygon fill="white" stroke="#666666" points="447.75,-579.25 374,-579.25 374,-560 447.75,-560 447.75,-579.25"/>
<text text-anchor="middle" x="410.88" y="-565.75" font-family="Helvetica,sans-Serif" font-size="10.00">Text::getFont</text>
</a>
</g>
</g>
<!-- Node2&#45;&gt;Node19 -->
<g id="edge18_Node000002_Node000019" class="edge">
<title>Node2&#45;&gt;Node19</title>
<g id="a_edge18_Node000002_Node000019"><a xlink:title=" ">
<path fill="none" stroke="#63b8ff" d="M286.6,-582.13C310.75,-579.68 338.96,-576.82 362.29,-574.45"/>
<polygon fill="#63b8ff" stroke="#63b8ff" points="362.55,-577.94 372.15,-573.45 361.84,-570.98 362.55,-577.94"/>
</a>
</g>
</g>
<!-- Node20 -->
<g id="Node000020" class="node">
<title>Node20</title>
<g id="a_Node000020"><a xlink:href="../../da/d0e/class_text.html#a0a3c00384e73eed7af1d20cffca51b18" target="_top" xlink:title=" ">
<polygon fill="white" stroke="#666666" points="459,-542.25 362.75,-542.25 362.75,-523 459,-523 459,-542.25"/>
<text text-anchor="middle" x="410.88" y="-528.75" font-family="Helvetica,sans-Serif" font-size="10.00">Text::getFontStyle</text>
</a>
</g>
</g>
<!-- Node2&#45;&gt;Node20 -->
<g id="edge19_Node000002_Node000020" class="edge">
<title>Node2&#45;&gt;Node20</title>
<g id="a_edge19_Node000002_Node000020"><a xlink:title=" ">
<path fill="none" stroke="#63b8ff" d="M265.97,-572.03C282.63,-564.76 303.21,-556.44 322.25,-550.62 331.64,-547.76 341.73,-545.21 351.61,-542.99"/>
<polygon fill="#63b8ff" stroke="#63b8ff" points="352.1,-546.47 361.15,-540.96 350.63,-539.62 352.1,-546.47"/>
</a>
</g>
</g>
<!-- Node21 -->
<g id="Node000021" class="node">
<title>Node21</title>
<g id="a_Node000021"><a xlink:href="../../da/d0e/class_text.html#a4b4b411734e3f6ceace9e73d293e2f64" target="_top" xlink:title=" ">
<polygon fill="white" stroke="#666666" points="462.75,-505.25 359,-505.25 359,-486 462.75,-486 462.75,-505.25"/>
<text text-anchor="middle" x="410.88" y="-491.75" font-family="Helvetica,sans-Serif" font-size="10.00">Text::getFontWeight</text>
</a>
</g>
</g>
<!-- Node2&#45;&gt;Node21 -->
<g id="edge20_Node000002_Node000021" class="edge">
<title>Node2&#45;&gt;Node21</title>
<g id="a_edge20_Node000002_Node000021"><a xlink:title=" ">
<path fill="none" stroke="#63b8ff" d="M246.66,-571.98C263.17,-554.91 291.98,-528.09 322.25,-513.62 330.23,-509.81 339,-506.8 347.81,-504.43"/>
<polygon fill="#63b8ff" stroke="#63b8ff" points="348.55,-507.85 357.46,-502.11 346.92,-501.05 348.55,-507.85"/>
</a>
</g>
</g>
<!-- Node22 -->
<g id="Node000022" class="node">
<title>Node22</title>
<g id="a_Node000022"><a xlink:href="../../d7/da7/class_shape.html#a3cca235345ab6f173c4e52a8598ee6b1" target="_top" xlink:title=" ">
<polygon fill="white" stroke="#666666" points="466.5,-468.25 355.25,-468.25 355.25,-449 466.5,-449 466.5,-468.25"/>
<text text-anchor="middle" x="410.88" y="-454.75" font-family="Helvetica,sans-Serif" font-size="10.00">Shape::getParentItem</text>
</a>
</g>
</g>
<!-- Node2&#45;&gt;Node22 -->
<g id="edge21_Node000002_Node000022" class="edge">
<title>Node2&#45;&gt;Node22</title>
<g id="a_edge21_Node000002_Node000022"><a xlink:title=" ">
<path fill="none" stroke="#63b8ff" d="M240.24,-572.25C253.57,-547.81 283.06,-500.46 322.25,-476.62 328.92,-472.57 336.36,-469.41 344,-466.95"/>
<polygon fill="#63b8ff" stroke="#63b8ff" points="344.72,-470.38 353.41,-464.33 342.84,-463.64 344.72,-470.38"/>
</a>
</g>
</g>
<!-- Node23 -->
<g id="Node000023" class="node">
<title>Node23</title>
<g id="a_Node000023"><a xlink:href="../../d7/da7/class_shape.html#a1eaba6ddbc4404e64fc6910fa9a9fa11" target="_top" xlink:title=" ">
<polygon fill="white" stroke="#666666" points="471.38,-431.25 350.38,-431.25 350.38,-412 471.38,-412 471.38,-431.25"/>
<text text-anchor="middle" x="410.88" y="-417.75" font-family="Helvetica,sans-Serif" font-size="10.00">Shape::getPenCapStyle</text>
</a>
</g>
</g>
<!-- Node2&#45;&gt;Node23 -->
<g id="edge22_Node000002_Node000023" class="edge">
<title>Node2&#45;&gt;Node23</title>
<g id="a_edge22_Node000002_Node000023"><a xlink:title=" ">
<path fill="none" stroke="#63b8ff" d="M237.09,-572.17C247.27,-541.59 274.33,-473.39 322.25,-439.62 327.54,-435.9 333.42,-432.91 339.57,-430.52"/>
<polygon fill="#63b8ff" stroke="#63b8ff" points="340.28,-433.97 348.67,-427.5 338.08,-427.32 340.28,-433.97"/>
</a>
</g>
</g>
<!-- Node24 -->
<g id="Node000024" class="node">
<title>Node24</title>
<g id="a_Node000024"><a xlink:href="../../d7/da7/class_shape.html#a4cbfcdf734ed9633dfb4dad1dab1cb6f" target="_top" xlink:title=" ">
<polygon fill="white" stroke="#666666" points="462.75,-394.25 359,-394.25 359,-375 462.75,-375 462.75,-394.25"/>
<text text-anchor="middle" x="410.88" y="-380.75" font-family="Helvetica,sans-Serif" font-size="10.00">Shape::getPenColor</text>
</a>
</g>
</g>
<!-- Node2&#45;&gt;Node24 -->
<g id="edge23_Node000002_Node000024" class="edge">
<title>Node2&#45;&gt;Node24</title>
<g id="a_edge23_Node000002_Node000024"><a xlink:title=" ">
<path fill="none" stroke="#63b8ff" d="M235.14,-572.04C242.38,-536.04 265.44,-446.77 322.25,-402.62 329.74,-396.8 338.65,-392.74 347.87,-389.92"/>
<polygon fill="#63b8ff" stroke="#63b8ff" points="348.47,-393.37 357.3,-387.52 346.75,-386.59 348.47,-393.37"/>
</a>
</g>
</g>
<!-- Node25 -->
<g id="Node000025" class="node">
<title>Node25</title>
<g id="a_Node000025"><a xlink:href="../../d7/da7/class_shape.html#a633352978d8776c142b848b8d682587a" target="_top" xlink:title=" ">
<polygon fill="white" stroke="#666666" points="659.88,-337.25 554.62,-337.25 554.62,-318 659.88,-318 659.88,-337.25"/>
<text text-anchor="middle" x="607.25" y="-323.75" font-family="Helvetica,sans-Serif" font-size="10.00">Shape::getPenItems</text>
</a>
</g>
</g>
<!-- Node2&#45;&gt;Node25 -->
<g id="edge24_Node000002_Node000025" class="edge">
<title>Node2&#45;&gt;Node25</title>
<g id="a_edge24_Node000002_Node000025"><a xlink:title=" ">
<path fill="none" stroke="#63b8ff" d="M233.52,-572.14C237.45,-530.96 254.23,-418.37 322.25,-365.62 355.65,-339.73 469.82,-331.47 542.83,-328.84"/>
<polygon fill="#63b8ff" stroke="#63b8ff" points="542.78,-332.34 552.66,-328.52 542.55,-325.35 542.78,-332.34"/>
</a>
</g>
</g>
<!-- Node26 -->
<g id="Node000026" class="node">
<title>Node26</title>
<g id="a_Node000026"><a xlink:href="../../d7/da7/class_shape.html#a581611275dae291b4d82927dcd6114b7" target="_top" xlink:title=" ">
<polygon fill="white" stroke="#666666" points="668.5,-290.25 546,-290.25 546,-271 668.5,-271 668.5,-290.25"/>
<text text-anchor="middle" x="607.25" y="-276.75" font-family="Helvetica,sans-Serif" font-size="10.00">Shape::getPenItemsEnd</text>
</a>
</g>
</g>
<!-- Node2&#45;&gt;Node26 -->
<g id="edge25_Node000002_Node000026" class="edge">
<title>Node2&#45;&gt;Node26</title>
<g id="a_edge25_Node000002_Node000026"><a xlink:title=" ">
<path fill="none" stroke="#63b8ff" d="M234.64,-572.25C243.21,-516.37 275.53,-325.49 322.25,-289.62 391.91,-236.14 502.03,-252.69 562.65,-267.74"/>
<polygon fill="#63b8ff" stroke="#63b8ff" points="561.7,-271.11 572.26,-270.23 563.46,-264.33 561.7,-271.11"/>
</a>
</g>
</g>
<!-- Node27 -->
<g id="Node000027" class="node">
<title>Node27</title>
<g id="a_Node000027"><a xlink:href="../../d7/da7/class_shape.html#a7cf1547b5328248b8a4c066b4c714efa" target="_top" xlink:title=" ">
<polygon fill="white" stroke="#666666" points="471.38,-204.25 350.38,-204.25 350.38,-185 471.38,-185 471.38,-204.25"/>
<text text-anchor="middle" x="410.88" y="-190.75" font-family="Helvetica,sans-Serif" font-size="10.00">Shape::getPenJoinStyle</text>
</a>
</g>
</g>
<!-- Node2&#45;&gt;Node27 -->
<g id="edge26_Node000002_Node000027" class="edge">
<title>Node2&#45;&gt;Node27</title>
<g id="a_edge26_Node000002_Node000027"><a xlink:title=" ">
<path fill="none" stroke="#63b8ff" d="M234.06,-572.18C241.25,-508.98 271.35,-270.99 322.25,-218.62 327.23,-213.5 333.19,-209.44 339.62,-206.23"/>
<polygon fill="#63b8ff" stroke="#63b8ff" points="340.8,-209.53 348.66,-202.43 338.09,-203.08 340.8,-209.53"/>
</a>
</g>
</g>
<!-- Node28 -->
<g id="Node000028" class="node">
<title>Node28</title>
<g id="a_Node000028"><a xlink:href="../../d7/da7/class_shape.html#ad336858f193d765d831deb9ce29246aa" target="_top" xlink:title=" ">
<polygon fill="white" stroke="#666666" points="462.38,-167.25 359.38,-167.25 359.38,-148 462.38,-148 462.38,-167.25"/>
<text text-anchor="middle" x="410.88" y="-153.75" font-family="Helvetica,sans-Serif" font-size="10.00">Shape::getPenStyle</text>
</a>
</g>
</g>
<!-- Node2&#45;&gt;Node28 -->
<g id="edge27_Node000002_Node000028" class="edge">
<title>Node2&#45;&gt;Node28</title>
<g id="a_edge27_Node000002_Node000028"><a xlink:title=" ">
<path fill="none" stroke="#63b8ff" d="M233.54,-572.17C238.97,-504.25 264.05,-233.12 322.25,-175.62 329.39,-168.57 338.52,-163.93 348.17,-160.93"/>
<polygon fill="#63b8ff" stroke="#63b8ff" points="348.87,-164.36 357.74,-158.57 347.2,-157.57 348.87,-164.36"/>
</a>
</g>
</g>
<!-- Node29 -->
<g id="Node000029" class="node">
<title>Node29</title>
<g id="a_Node000029"><a xlink:href="../../d7/da7/class_shape.html#a400f7b5ca58fc561b106a3a672f3f432" target="_top" xlink:title=" ">
<polygon fill="white" stroke="#666666" points="463.88,-130.25 357.88,-130.25 357.88,-111 463.88,-111 463.88,-130.25"/>
<text text-anchor="middle" x="410.88" y="-116.75" font-family="Helvetica,sans-Serif" font-size="10.00">Shape::getPenWidth</text>
</a>
</g>
</g>
<!-- Node2&#45;&gt;Node29 -->
<g id="edge28_Node000002_Node000029" class="edge">
<title>Node2&#45;&gt;Node29</title>
<g id="a_edge28_Node000002_Node000029"><a xlink:title=" ">
<path fill="none" stroke="#63b8ff" d="M233.23,-572.26C237.55,-500.82 259.17,-202.02 322.25,-138.62 329.02,-131.82 337.63,-127.25 346.8,-124.24"/>
<polygon fill="#63b8ff" stroke="#63b8ff" points="347.48,-127.67 356.27,-121.75 345.71,-120.9 347.48,-127.67"/>
</a>
</g>
</g>
<!-- Node30 -->
<g id="Node000030" class="node">
<title>Node30</title>
<g id="a_Node000030"><a xlink:href="../../d7/da7/class_shape.html#a4b502262ae5a22122456b9624d5ccb3d" target="_top" xlink:title="Accessor Functions &#45; Returns the data named after them.">
<polygon fill="white" stroke="#666666" points="460.5,-93.25 361.25,-93.25 361.25,-74 460.5,-74 460.5,-93.25"/>
<text text-anchor="middle" x="410.88" y="-79.75" font-family="Helvetica,sans-Serif" font-size="10.00">Shape::getShapeId</text>
</a>
</g>
</g>
<!-- Node2&#45;&gt;Node30 -->
<g id="edge29_Node000002_Node000030" class="edge">
<title>Node2&#45;&gt;Node30</title>
<g id="a_edge29_Node000002_Node000030"><a xlink:title=" ">
<path fill="none" stroke="#63b8ff" d="M232.99,-572.02C236.3,-496.62 254.37,-170.86 322.25,-101.62 329.75,-93.97 339.58,-89.14 349.94,-86.16"/>
<polygon fill="#63b8ff" stroke="#63b8ff" points="350.38,-89.64 359.36,-84.02 348.84,-82.82 350.38,-89.64"/>
</a>
</g>
</g>
<!-- Node31 -->
<g id="Node000031" class="node">
<title>Node31</title>
<g id="a_Node000031"><a xlink:href="../../da/d0e/class_text.html#a3d6716fc88f895932e2c96940188c647" target="_top" xlink:title=" ">
<polygon fill="white" stroke="#666666" points="469.12,-56.25 352.62,-56.25 352.62,-37 469.12,-37 469.12,-56.25"/>
<text text-anchor="middle" x="410.88" y="-42.75" font-family="Helvetica,sans-Serif" font-size="10.00">Text::getTextAlignment</text>
</a>
</g>
</g>
<!-- Node2&#45;&gt;Node31 -->
<g id="edge30_Node000002_Node000031" class="edge">
<title>Node2&#45;&gt;Node31</title>
<g id="a_edge30_Node000002_Node000031"><a xlink:title=" ">
<path fill="none" stroke="#63b8ff" d="M232.77,-571.9C235.11,-492.87 249.52,-139.75 322.25,-64.62 327.69,-59 334.39,-54.9 341.63,-51.93"/>
<polygon fill="#63b8ff" stroke="#63b8ff" points="342.71,-55.26 351.12,-48.82 340.52,-48.61 342.71,-55.26"/>
</a>
</g>
</g>
<!-- Node32 -->
<g id="Node000032" class="node">
<title>Node32</title>
<g id="a_Node000032"><a xlink:href="../../d7/da7/class_shape.html#aec4675c2b06d40373eefac4b982af242" target="_top" xlink:title=" ">
<polygon fill="white" stroke="#666666" points="659.5,-242.25 555,-242.25 555,-223 659.5,-223 659.5,-242.25"/>
<text text-anchor="middle" x="607.25" y="-228.75" font-family="Helvetica,sans-Serif" font-size="10.00">Shape::getTrackerId</text>
</a>
</g>
</g>
<!-- Node2&#45;&gt;Node32 -->
<g id="edge31_Node000002_Node000032" class="edge">
<title>Node2&#45;&gt;Node32</title>
<g id="a_edge31_Node000002_Node000032"><a xlink:title=" ">
<path fill="none" stroke="#63b8ff" d="M234.13,-571.91C241.27,-510.89 270.34,-290.95 322.25,-248.62 354.86,-222.04 469.87,-223.76 543.14,-227.88"/>
<polygon fill="#63b8ff" stroke="#63b8ff" points="542.83,-231.36 553.02,-228.46 543.24,-224.38 542.83,-231.36"/>
</a>
</g>
</g>
<!-- Node33 -->
<g id="Node000033" class="node">
<title>Node33</title>
<g id="a_Node000033"><a xlink:href="../../d9/dc6/class_main_window.html#ab5aea14b9366d3d78c9d6e9353e8f5d0" target="_top" xlink:title="Slot triggered when a QComboBox value in the tree widget changes.">
<polygon fill="white" stroke="#666666" points="499.12,-19.25 322.62,-19.25 322.62,0 499.12,0 499.12,-19.25"/>
<text text-anchor="middle" x="410.88" y="-5.75" font-family="Helvetica,sans-Serif" font-size="10.00">MainWindow::onComboBoxChanged</text>
</a>
</g>
</g>
<!-- Node2&#45;&gt;Node33 -->
<g id="edge32_Node000002_Node000033" class="edge">
<title>Node2&#45;&gt;Node33</title>
<g id="a_edge32_Node000002_Node000033"><a xlink:title=" ">
<path fill="none" stroke="#63b8ff" d="M232.58,-571.9C233.98,-489.56 244.62,-108.71 322.25,-27.62 322.63,-27.23 323.01,-26.85 323.4,-26.47"/>
<polygon fill="#63b8ff" stroke="#63b8ff" points="325.37,-29.37 331.13,-20.48 321.08,-23.84 325.37,-29.37"/>
</a>
</g>
</g>
<!-- Node35 -->
<g id="Node000035" class="node">
<title>Node35</title>
<g id="a_Node000035"><a xlink:href="../../d9/dc6/class_main_window.html#a7d524432f3c348d51c52b6bbca13df57" target="_top" xlink:title="Slot triggered when a QSpinBox value in the tree widget changes.">
<polygon fill="white" stroke="#666666" points="493.12,-318.25 328.62,-318.25 328.62,-299 493.12,-299 493.12,-318.25"/>
<text text-anchor="middle" x="410.88" y="-304.75" font-family="Helvetica,sans-Serif" font-size="10.00">MainWindow::onSpinBoxChanged</text>
</a>
</g>
</g>
<!-- Node2&#45;&gt;Node35 -->
<g id="edge34_Node000002_Node000035" class="edge">
<title>Node2&#45;&gt;Node35</title>
<g id="a_edge34_Node000002_Node000035"><a xlink:title=" ">
<path fill="none" stroke="#63b8ff" d="M233.07,-572.07C235.91,-527.74 250.27,-399.63 322.25,-332.62 325.99,-329.15 330.18,-326.16 334.66,-323.61"/>
<polygon fill="#63b8ff" stroke="#63b8ff" points="336.01,-326.84 343.47,-319.32 332.95,-320.54 336.01,-326.84"/>
</a>
</g>
</g>
<!-- Node34 -->
<g id="Node000034" class="node">
<title>Node34</title>
<g id="a_Node000034"><a xlink:href="../../d9/dc6/class_main_window.html#af971d03f10fd514287332e2adfd79bea" target="_top" xlink:title="Emitted when a property of an existing shape is changed.">
<polygon fill="white" stroke="#666666" points="679,-19.25 535.5,-19.25 535.5,0 679,0 679,-19.25"/>
<text text-anchor="middle" x="607.25" y="-5.75" font-family="Helvetica,sans-Serif" font-size="10.00">MainWindow::shapeChanged</text>
</a>
</g>
</g>
<!-- Node33&#45;&gt;Node34 -->
<g id="edge33_Node000033_Node000034" class="edge">
<title>Node33&#45;&gt;Node34</title>
<g id="a_edge33_Node000033_Node000034"><a xlink:title=" ">
<path fill="none" stroke="#63b8ff" d="M499.4,-9.62C507.55,-9.62 515.79,-9.62 523.89,-9.62"/>
<polygon fill="#63b8ff" stroke="#63b8ff" points="523.71,-13.13 533.71,-9.63 523.71,-6.13 523.71,-13.13"/>
</a>
</g>
</g>
<!-- Node35&#45;&gt;Node25 -->
<g id="edge35_Node000035_Node000025" class="edge">
<title>Node35&#45;&gt;Node25</title>
<g id="a_edge35_Node000035_Node000025"><a xlink:title=" ">
<path fill="none" stroke="#63b8ff" d="M493.46,-316.6C510.02,-318.22 527.19,-319.9 542.99,-321.44"/>
<polygon fill="#63b8ff" stroke="#63b8ff" points="542.43,-324.9 552.72,-322.39 543.11,-317.94 542.43,-324.9"/>
</a>
</g>
</g>
<!-- Node35&#45;&gt;Node26 -->
<g id="edge36_Node000035_Node000026" class="edge">
<title>Node35&#45;&gt;Node26</title>
<g id="a_edge36_Node000035_Node000026"><a xlink:title=" ">
<path fill="none" stroke="#63b8ff" d="M482.05,-298.52C499.18,-296.05 517.52,-293.41 534.71,-290.93"/>
<polygon fill="#63b8ff" stroke="#63b8ff" points="534.92,-294.44 544.32,-289.55 533.92,-287.51 534.92,-294.44"/>
</a>
</g>
</g>
<!-- Node35&#45;&gt;Node32 -->
<g id="edge37_Node000035_Node000032" class="edge">
<title>Node35&#45;&gt;Node32</title>
<g id="a_edge37_Node000035_Node000032"><a xlink:title=" ">
<path fill="none" stroke="#63b8ff" d="M437.69,-298.53C471.76,-285.21 531.93,-261.68 570.4,-246.64"/>
<polygon fill="#63b8ff" stroke="#63b8ff" points="571.19,-250.09 579.23,-243.19 568.64,-243.57 571.19,-250.09"/>
</a>
</g>
</g>
</g>
</svg>
