<?xml version="1.0" encoding="UTF-8" standalone="no"?>
<!DOCTYPE svg PUBLIC "-//W3C//DTD SVG 1.1//EN"
 "http://www.w3.org/Graphics/SVG/1.1/DTD/svg11.dtd">
<!-- Generated by graphviz version 12.2.1 (20241206.2353)
 -->
<!-- Title: MainWindow::onLoginClicked Pages: 1 -->
<!--zoomable 175 -->

<svg id="main" version="1.1" xmlns="http://www.w3.org/2000/svg" xmlns:xlink="http://www.w3.org/1999/xlink" xml:space="preserve" onload="init(evt)">

<style type="text/css"><![CDATA[
.node, .edge {opacity: 0.7;}
.node.selected, .edge.selected {opacity: 1;}
.edge:hover path { stroke: red; }
.edge:hover polygon { stroke: red; fill: red; }
]]></style>

<defs>
  <circle id="rim" cx="0" cy="0" r="7"/>
  <circle id="rim2" cx="0" cy="0" r="3.5"/>
  <g id="zoomPlus">
    <use xlink:href="#rim" fill="#404040"><set attributeName="fill" to="#808080" begin="zoomplus.mouseover" end="zoomplus.mouseout"/></use>
    <path d="M-4,0h8M0,-4v8" fill="none" stroke="white" stroke-width="1.5" pointer-events="none"/>
  </g>
  <g id="zoomMin">
    <use xlink:href="#rim" fill="#404040"><set attributeName="fill" to="#808080" begin="zoomminus.mouseover" end="zoomminus.mouseout"/></use>
    <path d="M-4,0h8" fill="none" stroke="white" stroke-width="1.5" pointer-events="none"/>
  </g>
  <g id="arrowUp" transform="translate(30 24)">
    <use xlink:href="#rim"/>
    <path pointer-events="none" fill="none" stroke="white" stroke-width="1.5" d="M0,-3.0v7 M-2.5,-0.5L0,-3.0L2.5,-0.5"/>
  </g>
  <g id="arrowRight" transform="rotate(90) translate(36 -43)">
    <use xlink:href="#rim"/>
    <path pointer-events="none" fill="none" stroke="white" stroke-width="1.5" d="M0,-3.0v7 M-2.5,-0.5L0,-3.0L2.5,-0.5"/>
  </g>
  <g id="arrowDown" transform="rotate(180) translate(-30 -48)">
    <use xlink:href="#rim"/>
    <path pointer-events="none" fill="none" stroke="white" stroke-width="1.5" d="M0,-3.0v7 M-2.5,-0.5L0,-3.0L2.5,-0.5"/>
  </g>
  <g id="arrowLeft" transform="rotate(270) translate(-36 17)">
    <use xlink:href="#rim"/>
    <path pointer-events="none" fill="none" stroke="white" stroke-width="1.5" d="M0,-3.0v7 M-2.5,-0.5L0,-3.0L2.5,-0.5"/>
  </g>
  <g id="resetDef">
    <use xlink:href="#rim2" fill="#404040"><set attributeName="fill" to="#808080" begin="reset.mouseover" end="reset.mouseout"/></use>
  </g>
</defs>
<script type="application/ecmascript">
var viewWidth = 526;
var viewHeight = 175;
var sectionId = 'dynsection-38';
</script>
<script type="application/ecmascript" xlink:href="../../svg.min.js"/>
<svg id="graph" class="graph">
<g id="viewport">
<title>MainWindow::onLoginClicked</title>
<!-- Node1 -->
<g id="Node000001" class="node">
<title>Node1</title>
<g id="a_Node000001"><a xlink:title="Slot triggered when the login button is clicked, typically opening a login dialog.">
<polygon fill="#999999" stroke="#666666" points="145,-93.25 0,-93.25 0,-74 145,-74 145,-93.25"/>
<text text-anchor="middle" x="72.5" y="-79.75" font-family="Helvetica,sans-Serif" font-size="10.00">MainWindow::onLoginClicked</text>
</a>
</g>
</g>
<!-- Node2 -->
<g id="Node000002" class="node">
<title>Node2</title>
<g id="a_Node000002"><a xlink:href="../../de/d74/class_login_window.html#a075f5a5f9da1f4b202aec66d6bd7ec76" target="_top" xlink:title="Emitted when the user attempts to log in with the provided credentials.">
<polygon fill="white" stroke="#666666" points="333.12,-130.25 185.12,-130.25 185.12,-111 333.12,-111 333.12,-130.25"/>
<text text-anchor="middle" x="259.12" y="-116.75" font-family="Helvetica,sans-Serif" font-size="10.00">LoginWindow::loginRequested</text>
</a>
</g>
</g>
<!-- Node1&#45;&gt;Node2 -->
<g id="edge1_Node000001_Node000002" class="edge">
<title>Node1&#45;&gt;Node2</title>
<g id="a_edge1_Node000001_Node000002"><a xlink:title=" ">
<path fill="none" stroke="#63b8ff" d="M123.95,-93.74C146.44,-98.24 173.13,-103.59 196.77,-108.33"/>
<polygon fill="#63b8ff" stroke="#63b8ff" points="195.76,-111.7 206.25,-110.23 197.14,-104.83 195.76,-111.7"/>
</a>
</g>
</g>
<!-- Node5 -->
<g id="Node000005" class="node">
<title>Node5</title>
<g id="a_Node000005"><a xlink:href="../../d9/dc6/class_main_window.html#a8cdec14167c6164f6efa118d09e501f5" target="_top" xlink:title="Emitted when a login attempt is successful.">
<polygon fill="white" stroke="#666666" points="327.5,-93.25 190.75,-93.25 190.75,-74 327.5,-74 327.5,-93.25"/>
<text text-anchor="middle" x="259.12" y="-79.75" font-family="Helvetica,sans-Serif" font-size="10.00">MainWindow::loginSuccess</text>
</a>
</g>
</g>
<!-- Node1&#45;&gt;Node5 -->
<g id="edge4_Node000001_Node000005" class="edge">
<title>Node1&#45;&gt;Node5</title>
<g id="a_edge4_Node000001_Node000005"><a xlink:title=" ">
<path fill="none" stroke="#63b8ff" d="M145.41,-83.62C156.38,-83.62 167.76,-83.62 178.87,-83.62"/>
<polygon fill="#63b8ff" stroke="#63b8ff" points="178.83,-87.13 188.83,-83.63 178.83,-80.13 178.83,-87.13"/>
</a>
</g>
</g>
<!-- Node6 -->
<g id="Node000006" class="node">
<title>Node6</title>
<g id="a_Node000006"><a xlink:href="../../d9/dc6/class_main_window.html#a92cfa580b2445cdcb78fedea04dece1f" target="_top" xlink:title="Slot triggered by a login dialog to initiate a login attempt.">
<polygon fill="white" stroke="#666666" points="333.5,-56.25 184.75,-56.25 184.75,-37 333.5,-37 333.5,-56.25"/>
<text text-anchor="middle" x="259.12" y="-42.75" font-family="Helvetica,sans-Serif" font-size="10.00">MainWindow::onLoginRequest</text>
</a>
</g>
</g>
<!-- Node1&#45;&gt;Node6 -->
<g id="edge5_Node000001_Node000006" class="edge">
<title>Node1&#45;&gt;Node6</title>
<g id="a_edge5_Node000001_Node000006"><a xlink:title=" ">
<path fill="none" stroke="#63b8ff" d="M123.95,-73.51C146.44,-69.01 173.13,-63.66 196.77,-58.92"/>
<polygon fill="#63b8ff" stroke="#63b8ff" points="197.14,-62.42 206.25,-57.02 195.76,-55.55 197.14,-62.42"/>
</a>
</g>
</g>
<!-- Node8 -->
<g id="Node000008" class="node">
<title>Node8</title>
<g id="a_Node000008"><a xlink:href="../../d9/dc6/class_main_window.html#adc5a0eea13e703cb3826e9221e19df22" target="_top" xlink:title=" ">
<polygon fill="white" stroke="#666666" points="336.88,-19.25 181.38,-19.25 181.38,0 336.88,0 336.88,-19.25"/>
<text text-anchor="middle" x="259.12" y="-5.75" font-family="Helvetica,sans-Serif" font-size="10.00">MainWindow::onSignupRequest</text>
</a>
</g>
</g>
<!-- Node1&#45;&gt;Node8 -->
<g id="edge7_Node000001_Node000008" class="edge">
<title>Node1&#45;&gt;Node8</title>
<g id="a_edge7_Node000001_Node000008"><a xlink:title=" ">
<path fill="none" stroke="#63b8ff" d="M89.66,-73.55C110.2,-61.16 147.06,-40.2 181,-27.62 185.9,-25.81 191.04,-24.14 196.25,-22.6"/>
<polygon fill="#63b8ff" stroke="#63b8ff" points="196.8,-26.08 205.52,-20.06 194.95,-19.33 196.8,-26.08"/>
</a>
</g>
</g>
<!-- Node10 -->
<g id="Node000010" class="node">
<title>Node10</title>
<g id="a_Node000010"><a xlink:href="../../de/d74/class_login_window.html#ae166943123818d0b0a3dcdcf66380994" target="_top" xlink:title="Emitted when the user attempts to sign up with the provided credentials. (Admin flag is currently har...">
<polygon fill="white" stroke="#666666" points="337.25,-167.25 181,-167.25 181,-148 337.25,-148 337.25,-167.25"/>
<text text-anchor="middle" x="259.12" y="-153.75" font-family="Helvetica,sans-Serif" font-size="10.00">LoginWindow::signupRequested</text>
</a>
</g>
</g>
<!-- Node1&#45;&gt;Node10 -->
<g id="edge9_Node000001_Node000010" class="edge">
<title>Node1&#45;&gt;Node10</title>
<g id="a_edge9_Node000001_Node000010"><a xlink:title=" ">
<path fill="none" stroke="#63b8ff" d="M89.66,-93.7C110.2,-106.09 147.06,-127.05 181,-139.62 185.9,-141.44 191.04,-143.11 196.25,-144.65"/>
<polygon fill="#63b8ff" stroke="#63b8ff" points="194.95,-147.92 205.52,-147.19 196.8,-141.17 194.95,-147.92"/>
</a>
</g>
</g>
<!-- Node3 -->
<g id="Node000003" class="node">
<title>Node3</title>
<g id="a_Node000003"><a xlink:href="../../de/d74/class_login_window.html#ab207055cd16762112d1facbd35da9c25" target="_top" xlink:title="Returns the password entered in the currently active input field (login or signup).">
<polygon fill="white" stroke="#666666" points="507,-167.25 384.5,-167.25 384.5,-148 507,-148 507,-167.25"/>
<text text-anchor="middle" x="445.75" y="-153.75" font-family="Helvetica,sans-Serif" font-size="10.00">LoginWindow::password</text>
</a>
</g>
</g>
<!-- Node2&#45;&gt;Node3 -->
<g id="edge2_Node000002_Node000003" class="edge">
<title>Node2&#45;&gt;Node3</title>
<g id="a_edge2_Node000002_Node000003"><a xlink:title=" ">
<path fill="none" stroke="#63b8ff" d="M310.57,-130.74C333.06,-135.24 359.76,-140.59 383.39,-145.33"/>
<polygon fill="#63b8ff" stroke="#63b8ff" points="382.38,-148.7 392.88,-147.23 383.76,-141.83 382.38,-148.7"/>
</a>
</g>
</g>
<!-- Node4 -->
<g id="Node000004" class="node">
<title>Node4</title>
<g id="a_Node000004"><a xlink:href="../../de/d74/class_login_window.html#a2b28bf4bc7080e39afb0d096d212e0a0" target="_top" xlink:title="Returns the username entered in the currently active input field (login or signup).">
<polygon fill="white" stroke="#666666" points="507.38,-130.25 384.12,-130.25 384.12,-111 507.38,-111 507.38,-130.25"/>
<text text-anchor="middle" x="445.75" y="-116.75" font-family="Helvetica,sans-Serif" font-size="10.00">LoginWindow::username</text>
</a>
</g>
</g>
<!-- Node2&#45;&gt;Node4 -->
<g id="edge3_Node000002_Node000004" class="edge">
<title>Node2&#45;&gt;Node4</title>
<g id="a_edge3_Node000002_Node000004"><a xlink:title=" ">
<path fill="none" stroke="#63b8ff" d="M333.62,-120.62C346.33,-120.62 359.53,-120.62 372.21,-120.62"/>
<polygon fill="#63b8ff" stroke="#63b8ff" points="372.16,-124.13 382.16,-120.63 372.16,-117.13 372.16,-124.13"/>
</a>
</g>
</g>
<!-- Node7 -->
<g id="Node000007" class="node">
<title>Node7</title>
<g id="a_Node000007"><a xlink:href="../../d9/dc6/class_main_window.html#a3f4e695043359e8f535699cd7da3d15c" target="_top" xlink:title="Emitted when a user attempts to log in.">
<polygon fill="white" stroke="#666666" points="512.25,-56.25 379.25,-56.25 379.25,-37 512.25,-37 512.25,-56.25"/>
<text text-anchor="middle" x="445.75" y="-42.75" font-family="Helvetica,sans-Serif" font-size="10.00">MainWindow::loginAttempt</text>
</a>
</g>
</g>
<!-- Node6&#45;&gt;Node7 -->
<g id="edge6_Node000006_Node000007" class="edge">
<title>Node6&#45;&gt;Node7</title>
<g id="a_edge6_Node000006_Node000007"><a xlink:title=" ">
<path fill="none" stroke="#63b8ff" d="M333.89,-46.62C344.92,-46.62 356.32,-46.62 367.43,-46.62"/>
<polygon fill="#63b8ff" stroke="#63b8ff" points="367.35,-50.13 377.35,-46.63 367.35,-43.13 367.35,-50.13"/>
</a>
</g>
</g>
<!-- Node9 -->
<g id="Node000009" class="node">
<title>Node9</title>
<g id="a_Node000009"><a xlink:href="../../d9/dc6/class_main_window.html#a4ca72692ae6775c322b3534c18f3e9aa" target="_top" xlink:title=" ">
<polygon fill="white" stroke="#666666" points="518.25,-19.25 373.25,-19.25 373.25,0 518.25,0 518.25,-19.25"/>
<text text-anchor="middle" x="445.75" y="-5.75" font-family="Helvetica,sans-Serif" font-size="10.00">MainWindow::newUserAdded</text>
</a>
</g>
</g>
<!-- Node8&#45;&gt;Node9 -->
<g id="edge8_Node000008_Node000009" class="edge">
<title>Node8&#45;&gt;Node9</title>
<g id="a_edge8_Node000008_Node000009"><a xlink:title=" ">
<path fill="none" stroke="#63b8ff" d="M337.35,-9.62C345.35,-9.62 353.49,-9.62 361.55,-9.62"/>
<polygon fill="#63b8ff" stroke="#63b8ff" points="361.33,-13.13 371.33,-9.63 361.33,-6.13 361.33,-13.13"/>
</a>
</g>
</g>
<!-- Node10&#45;&gt;Node3 -->
<g id="edge10_Node000010_Node000003" class="edge">
<title>Node10&#45;&gt;Node3</title>
<g id="a_edge10_Node000010_Node000003"><a xlink:title=" ">
<path fill="none" stroke="#63b8ff" d="M337.62,-157.62C349.24,-157.62 361.18,-157.62 372.68,-157.62"/>
<polygon fill="#63b8ff" stroke="#63b8ff" points="372.49,-161.13 382.49,-157.63 372.49,-154.13 372.49,-161.13"/>
</a>
</g>
</g>
<!-- Node10&#45;&gt;Node4 -->
<g id="edge11_Node000010_Node000004" class="edge">
<title>Node10&#45;&gt;Node4</title>
<g id="a_edge11_Node000010_Node000004"><a xlink:title=" ">
<path fill="none" stroke="#63b8ff" d="M310.57,-147.51C333.06,-143.01 359.76,-137.66 383.39,-132.92"/>
<polygon fill="#63b8ff" stroke="#63b8ff" points="383.76,-136.42 392.88,-131.02 382.38,-129.55 383.76,-136.42"/>
</a>
</g>
</g>
</g>
</svg>

<g id="navigator" transform="translate(0 0)" fill="#404254">
  <rect fill="#f2f5e9" fill-opacity="0.5" stroke="#606060" stroke-width=".5" x="0" y="0" width="60" height="60"/>
  <use id="zoomplus" xlink:href="#zoomPlus" x="17" y="9" onmousedown="handleZoom(evt,'in')"/>
  <use id="zoomminus" xlink:href="#zoomMin" x="42" y="9" onmousedown="handleZoom(evt,'out')"/>
  <use id="reset" xlink:href="#resetDef" x="30" y="36" onmousedown="handleReset()"/>
   <use id="arrowup" xlink:href="#arrowUp" x="0" y="0" onmousedown="handlePan(0,-1)"/>
  <use id="arrowright" xlink:href="#arrowRight" x="0" y="0" onmousedown="handlePan(1,0)"/>
  <use id="arrowdown" xlink:href="#arrowDown" x="0" y="0" onmousedown="handlePan(0,1)"/>
  <use id="arrowleft" xlink:href="#arrowLeft" x="0" y="0" onmousedown="handlePan(-1,0)"/>
</g>
<svg viewBox="0 0 15 15" width="100%" height="30px" preserveAspectRatio="xMaxYMin meet">
 <g id="arrow_out" transform="scale(0.3 0.3)">
  <a xlink:href="class_main_window_a44b1462463b23490276f54034ab12325_cgraph_org.svg" target="_base">
   <rect id="button" ry="5" rx="5" y="6" x="6" height="38" width="38"
        fill="#f2f5e9" fill-opacity="0.5" stroke="#606060" stroke-width="1.0"/>
   <path id="arrow"
     d="M 11.500037,31.436501 C 11.940474,20.09759 22.043105,11.32322 32.158766,21.979434 L 37.068811,17.246167 C 37.068811,17.246167 37.088388,32 37.088388,32 L 22.160133,31.978069 C 22.160133,31.978069 26.997745,27.140456 26.997745,27.140456 C 18.528582,18.264221 13.291696,25.230495 11.500037,31.436501 z"
     style="fill:#404040;"/>
  </a>
 </g>
</svg>

<style type='text/css'>
<![CDATA[
[data-mouse-over-selected='false'] { opacity: 0.7; }
[data-mouse-over-selected='true']  { opacity: 1.0; }
]]>
</style>
<script type="application/ecmascript"><![CDATA[
document.addEventListener('DOMContentLoaded', (event) => {
  highlightEdges();
  highlightAdjacentNodes();
});
]]></script>
</svg>
