<?xml version="1.0" encoding="UTF-8" standalone="no"?>
<!DOCTYPE svg PUBLIC "-//W3C//DTD SVG 1.1//EN"
 "http://www.w3.org/Graphics/SVG/1.1/DTD/svg11.dtd">
<!-- Generated by graphviz version 12.2.1 (20241206.2353)
 -->
<!-- Title: MainWindow::createShapeTableTab Pages: 1 -->
<!--zoomable 224 -->

<svg id="main" version="1.1" xmlns="http://www.w3.org/2000/svg" xmlns:xlink="http://www.w3.org/1999/xlink" xml:space="preserve" onload="init(evt)">

<style type="text/css"><![CDATA[
.node, .edge {opacity: 0.7;}
.node.selected, .edge.selected {opacity: 1;}
.edge:hover path { stroke: red; }
.edge:hover polygon { stroke: red; fill: red; }
]]></style>

<defs>
  <circle id="rim" cx="0" cy="0" r="7"/>
  <circle id="rim2" cx="0" cy="0" r="3.5"/>
  <g id="zoomPlus">
    <use xlink:href="#rim" fill="#404040"><set attributeName="fill" to="#808080" begin="zoomplus.mouseover" end="zoomplus.mouseout"/></use>
    <path d="M-4,0h8M0,-4v8" fill="none" stroke="white" stroke-width="1.5" pointer-events="none"/>
  </g>
  <g id="zoomMin">
    <use xlink:href="#rim" fill="#404040"><set attributeName="fill" to="#808080" begin="zoomminus.mouseover" end="zoomminus.mouseout"/></use>
    <path d="M-4,0h8" fill="none" stroke="white" stroke-width="1.5" pointer-events="none"/>
  </g>
  <g id="arrowUp" transform="translate(30 24)">
    <use xlink:href="#rim"/>
    <path pointer-events="none" fill="none" stroke="white" stroke-width="1.5" d="M0,-3.0v7 M-2.5,-0.5L0,-3.0L2.5,-0.5"/>
  </g>
  <g id="arrowRight" transform="rotate(90) translate(36 -43)">
    <use xlink:href="#rim"/>
    <path pointer-events="none" fill="none" stroke="white" stroke-width="1.5" d="M0,-3.0v7 M-2.5,-0.5L0,-3.0L2.5,-0.5"/>
  </g>
  <g id="arrowDown" transform="rotate(180) translate(-30 -48)">
    <use xlink:href="#rim"/>
    <path pointer-events="none" fill="none" stroke="white" stroke-width="1.5" d="M0,-3.0v7 M-2.5,-0.5L0,-3.0L2.5,-0.5"/>
  </g>
  <g id="arrowLeft" transform="rotate(270) translate(-36 17)">
    <use xlink:href="#rim"/>
    <path pointer-events="none" fill="none" stroke="white" stroke-width="1.5" d="M0,-3.0v7 M-2.5,-0.5L0,-3.0L2.5,-0.5"/>
  </g>
  <g id="resetDef">
    <use xlink:href="#rim2" fill="#404040"><set attributeName="fill" to="#808080" begin="reset.mouseover" end="reset.mouseout"/></use>
  </g>
</defs>
<script type="application/ecmascript">
var viewWidth = 686;
var viewHeight = 224;
var sectionId = 'dynsection-17';
</script>
<script type="application/ecmascript" xlink:href="../../svg.min.js"/>
<svg id="graph" class="graph">
<g id="viewport">
<title>MainWindow::createShapeTableTab</title>
<!-- Node1 -->
<g id="Node000001" class="node">
<title>Node1</title>
<g id="a_Node000001"><a xlink:title="Creates and displays a new tab or window containing the shape report table.">
<polygon fill="#999999" stroke="#666666" points="172,-145.25 0,-145.25 0,-126 172,-126 172,-145.25"/>
<text text-anchor="middle" x="86" y="-131.75" font-family="Helvetica,sans-Serif" font-size="10.00">MainWindow::createShapeTableTab</text>
</a>
</g>
</g>
<!-- Node2 -->
<g id="Node000002" class="node">
<title>Node2</title>
<g id="a_Node000002"><a xlink:href="../../d9/dc6/class_main_window.html#a755e3ce5cc1f97792cc7f7eff9da3858" target="_top" xlink:title="Slot triggered when the sort method or order in the shape report table changes.">
<polygon fill="white" stroke="#666666" points="347,-129.88 208,-129.88 208,-99.38 347,-99.38 347,-129.88"/>
<text text-anchor="start" x="216" y="-116.38" font-family="Helvetica,sans-Serif" font-size="10.00">MainWindow::onSortMethod</text>
<text text-anchor="middle" x="277.5" y="-105.12" font-family="Helvetica,sans-Serif" font-size="10.00">Changed</text>
</a>
</g>
</g>
<!-- Node1&#45;&gt;Node2 -->
<g id="edge1_Node000001_Node000002" class="edge">
<title>Node1&#45;&gt;Node2</title>
<g id="a_edge1_Node000001_Node000002"><a xlink:title=" ">
<path fill="none" stroke="#63b8ff" d="M172.33,-126.17C180.25,-125.29 188.26,-124.4 196.13,-123.53"/>
<polygon fill="#63b8ff" stroke="#63b8ff" points="196.48,-127.01 206.04,-122.43 195.71,-120.06 196.48,-127.01"/>
</a>
</g>
</g>
<!-- Node3 -->
<g id="Node000003" class="node">
<title>Node3</title>
<g id="a_Node000003"><a xlink:href="../../d9/dc6/class_main_window.html#a90f63362e90934cea68694f0207dd7dc" target="_top" xlink:title="Populates the shape report table with data from the provided vector of shapes.">
<polygon fill="white" stroke="#666666" points="528.75,-215.88 386,-215.88 386,-185.38 528.75,-185.38 528.75,-215.88"/>
<text text-anchor="start" x="394" y="-202.38" font-family="Helvetica,sans-Serif" font-size="10.00">MainWindow::populateShape</text>
<text text-anchor="middle" x="457.38" y="-191.12" font-family="Helvetica,sans-Serif" font-size="10.00">Table</text>
</a>
</g>
</g>
<!-- Node1&#45;&gt;Node3 -->
<g id="edge14_Node000001_Node000003" class="edge">
<title>Node1&#45;&gt;Node3</title>
<g id="a_edge14_Node000001_Node000003"><a xlink:title=" ">
<path fill="none" stroke="#63b8ff" d="M133.45,-145.72C155.92,-150.48 183.32,-156.09 208,-160.62 263.28,-170.78 325.74,-180.83 374.2,-188.32"/>
<polygon fill="#63b8ff" stroke="#63b8ff" points="373.66,-191.78 384.08,-189.84 374.73,-184.86 373.66,-191.78"/>
</a>
</g>
</g>
<!-- Node7 -->
<g id="Node000007" class="node">
<title>Node7</title>
<g id="a_Node000007"><a xlink:href="../../d9/dc6/class_main_window.html#ae822357dee3e9aad5cf276768b7f8019" target="_top" xlink:title=" ">
<polygon fill="white" stroke="#666666" points="526.88,-167.25 387.88,-167.25 387.88,-148 526.88,-148 526.88,-167.25"/>
<text text-anchor="middle" x="457.38" y="-153.75" font-family="Helvetica,sans-Serif" font-size="10.00">MainWindow::selection_sort</text>
</a>
</g>
</g>
<!-- Node1&#45;&gt;Node7 -->
<g id="edge15_Node000001_Node000007" class="edge">
<title>Node1&#45;&gt;Node7</title>
<g id="a_edge15_Node000001_Node000007"><a xlink:title=" ">
<path fill="none" stroke="#63b8ff" d="M172.21,-140.7C233.65,-144.36 316.04,-149.27 376.29,-152.85"/>
<polygon fill="#63b8ff" stroke="#63b8ff" points="375.94,-156.34 386.13,-153.44 376.36,-149.35 375.94,-156.34"/>
</a>
</g>
</g>
<!-- Node10 -->
<g id="Node000010" class="node">
<title>Node10</title>
<g id="a_Node000010"><a xlink:href="../../d9/dc6/class_main_window.html#a517b645d625b741b3d8aae6d62abe3cb" target="_top" xlink:title="Static comparison function to sort shapes by their ID.">
<polygon fill="white" stroke="#666666" points="514.88,-19.25 399.88,-19.25 399.88,0 514.88,0 514.88,-19.25"/>
<text text-anchor="middle" x="457.38" y="-5.75" font-family="Helvetica,sans-Serif" font-size="10.00">MainWindow::sortById</text>
</a>
</g>
</g>
<!-- Node1&#45;&gt;Node10 -->
<g id="edge16_Node000001_Node000010" class="edge">
<title>Node1&#45;&gt;Node10</title>
<g id="a_edge16_Node000001_Node000010"><a xlink:title=" ">
<path fill="none" stroke="#63b8ff" d="M111.63,-125.56C161.98,-105.21 280.62,-58.52 383,-27.62 388.81,-25.87 394.91,-24.17 401.02,-22.55"/>
<polygon fill="#63b8ff" stroke="#63b8ff" points="401.66,-25.99 410.47,-20.11 399.92,-19.21 401.66,-25.99"/>
</a>
</g>
</g>
<!-- Node2&#45;&gt;Node3 -->
<g id="edge2_Node000002_Node000003" class="edge">
<title>Node2&#45;&gt;Node3</title>
<g id="a_edge2_Node000002_Node000003"><a xlink:title=" ">
<path fill="none" stroke="#63b8ff" d="M301.36,-130.18C322.02,-143.75 353.61,-163.29 383,-176.62 386.3,-178.12 389.71,-179.57 393.19,-180.96"/>
<polygon fill="#63b8ff" stroke="#63b8ff" points="391.72,-184.15 402.31,-184.42 394.21,-177.6 391.72,-184.15"/>
</a>
</g>
</g>
<!-- Node5 -->
<g id="Node000005" class="node">
<title>Node5</title>
<g id="a_Node000005"><a xlink:href="../../db/d35/classalpha_1_1vector.html#a8305c181181e4739a1c5f29cf3a2c144" target="_top" xlink:title=" ">
<polygon fill="white" stroke="#666666" points="520.12,-130.25 394.62,-130.25 394.62,-111 520.12,-111 520.12,-130.25"/>
<text text-anchor="middle" x="457.38" y="-116.75" font-family="Helvetica,sans-Serif" font-size="10.00">alpha::vector::push_back</text>
</a>
</g>
</g>
<!-- Node2&#45;&gt;Node5 -->
<g id="edge4_Node000002_Node000005" class="edge">
<title>Node2&#45;&gt;Node5</title>
<g id="a_edge4_Node000002_Node000005"><a xlink:title=" ">
<path fill="none" stroke="#63b8ff" d="M347.27,-116.94C358.98,-117.34 371.17,-117.75 382.99,-118.15"/>
<polygon fill="#63b8ff" stroke="#63b8ff" points="382.56,-121.64 392.67,-118.48 382.79,-114.64 382.56,-121.64"/>
</a>
</g>
</g>
<!-- Node2&#45;&gt;Node7 -->
<g id="edge6_Node000002_Node000007" class="edge">
<title>Node2&#45;&gt;Node7</title>
<g id="a_edge6_Node000002_Node000007"><a xlink:title=" ">
<path fill="none" stroke="#63b8ff" d="M343.47,-130.33C363.21,-135.1 384.64,-140.28 403.48,-144.84"/>
<polygon fill="#63b8ff" stroke="#63b8ff" points="402.53,-148.21 413.07,-147.16 404.17,-141.4 402.53,-148.21"/>
</a>
</g>
</g>
<!-- Node8 -->
<g id="Node000008" class="node">
<title>Node8</title>
<g id="a_Node000008"><a xlink:href="../../d9/dc6/class_main_window.html#affcce0444db65d4438f852dbd97424bd" target="_top" xlink:title="Static comparison function to sort shapes by their calculated area.">
<polygon fill="white" stroke="#666666" points="520.88,-93.25 393.88,-93.25 393.88,-74 520.88,-74 520.88,-93.25"/>
<text text-anchor="middle" x="457.38" y="-79.75" font-family="Helvetica,sans-Serif" font-size="10.00">MainWindow::sortByArea</text>
</a>
</g>
</g>
<!-- Node2&#45;&gt;Node8 -->
<g id="edge8_Node000002_Node000008" class="edge">
<title>Node2&#45;&gt;Node8</title>
<g id="a_edge8_Node000002_Node000008"><a xlink:title=" ">
<path fill="none" stroke="#63b8ff" d="M347.27,-102.64C360.35,-100.36 374.05,-97.97 387.14,-95.69"/>
<polygon fill="#63b8ff" stroke="#63b8ff" points="387.72,-99.14 396.97,-93.98 386.52,-92.25 387.72,-99.14"/>
</a>
</g>
</g>
<!-- Node2&#45;&gt;Node10 -->
<g id="edge10_Node000002_Node000010" class="edge">
<title>Node2&#45;&gt;Node10</title>
<g id="a_edge10_Node000002_Node000010"><a xlink:title=" ">
<path fill="none" stroke="#63b8ff" d="M296.35,-99.01C323.56,-75.32 373.31,-32.52 383,-27.62 385.91,-26.16 388.94,-24.8 392.05,-23.56"/>
<polygon fill="#63b8ff" stroke="#63b8ff" points="393.17,-26.88 401.41,-20.23 390.82,-20.28 393.17,-26.88"/>
</a>
</g>
</g>
<!-- Node12 -->
<g id="Node000012" class="node">
<title>Node12</title>
<g id="a_Node000012"><a xlink:href="../../d9/dc6/class_main_window.html#a792a6a99346642416c84649e67e85125" target="_top" xlink:title="Static comparison function to sort shapes by their calculated perimeter.">
<polygon fill="white" stroke="#666666" points="531.75,-56.25 383,-56.25 383,-37 531.75,-37 531.75,-56.25"/>
<text text-anchor="middle" x="457.38" y="-42.75" font-family="Helvetica,sans-Serif" font-size="10.00">MainWindow::sortByPerimeter</text>
</a>
</g>
</g>
<!-- Node2&#45;&gt;Node12 -->
<g id="edge12_Node000002_Node000012" class="edge">
<title>Node2&#45;&gt;Node12</title>
<g id="a_edge12_Node000002_Node000012"><a xlink:title=" ">
<path fill="none" stroke="#63b8ff" d="M307.09,-98.97C327.72,-88.17 356.49,-74.11 383,-64.62 387.91,-62.87 393.07,-61.22 398.28,-59.7"/>
<polygon fill="#63b8ff" stroke="#63b8ff" points="398.82,-63.18 407.52,-57.14 396.95,-56.43 398.82,-63.18"/>
</a>
</g>
</g>
<!-- Node4 -->
<g id="Node000004" class="node">
<title>Node4</title>
<g id="a_Node000004"><a xlink:href="../../db/d35/classalpha_1_1vector.html#a78b5e138cba3b9bc0f9d569c6dd96156" target="_top" xlink:title=" ">
<polygon fill="white" stroke="#666666" points="671.12,-188.25 574.88,-188.25 574.88,-169 671.12,-169 671.12,-188.25"/>
<text text-anchor="middle" x="623" y="-174.75" font-family="Helvetica,sans-Serif" font-size="10.00">alpha::vector::size</text>
</a>
</g>
</g>
<!-- Node3&#45;&gt;Node4 -->
<g id="edge3_Node000003_Node000004" class="edge">
<title>Node3&#45;&gt;Node4</title>
<g id="a_edge3_Node000003_Node000004"><a xlink:title=" ">
<path fill="none" stroke="#63b8ff" d="M529.19,-191.1C540.6,-189.57 552.3,-188 563.38,-186.51"/>
<polygon fill="#63b8ff" stroke="#63b8ff" points="563.73,-189.99 573.17,-185.19 562.79,-183.05 563.73,-189.99"/>
</a>
</g>
</g>
<!-- Node6 -->
<g id="Node000006" class="node">
<title>Node6</title>
<g id="a_Node000006"><a xlink:href="../../db/d35/classalpha_1_1vector.html#a6dd9585078696eb1d5e7186435f0e41c" target="_top" xlink:title=" ">
<polygon fill="white" stroke="#666666" points="678.25,-130.25 567.75,-130.25 567.75,-111 678.25,-111 678.25,-130.25"/>
<text text-anchor="middle" x="623" y="-116.75" font-family="Helvetica,sans-Serif" font-size="10.00">alpha::vector::reserve</text>
</a>
</g>
</g>
<!-- Node5&#45;&gt;Node6 -->
<g id="edge5_Node000005_Node000006" class="edge">
<title>Node5&#45;&gt;Node6</title>
<g id="a_edge5_Node000005_Node000006"><a xlink:title=" ">
<path fill="none" stroke="#63b8ff" d="M520.23,-120.62C531.96,-120.62 544.27,-120.62 556.12,-120.62"/>
<polygon fill="#63b8ff" stroke="#63b8ff" points="555.79,-124.13 565.79,-120.63 555.79,-117.13 555.79,-124.13"/>
</a>
</g>
</g>
<!-- Node7&#45;&gt;Node4 -->
<g id="edge7_Node000007_Node000004" class="edge">
<title>Node7&#45;&gt;Node4</title>
<g id="a_edge7_Node000007_Node000004"><a xlink:title=" ">
<path fill="none" stroke="#63b8ff" d="M527.29,-166.47C539.21,-168 551.51,-169.58 563.13,-171.07"/>
<polygon fill="#63b8ff" stroke="#63b8ff" points="562.63,-174.53 572.99,-172.34 563.52,-167.59 562.63,-174.53"/>
</a>
</g>
</g>
<!-- Node9 -->
<g id="Node000009" class="node">
<title>Node9</title>
<g id="a_Node000009"><a xlink:href="../../d7/da7/class_shape.html#a7d09aae7e39d5ecb7ced4e8026ff5c6c" target="_top" xlink:title="Area &#45; Returns the area of the shape.">
<polygon fill="white" stroke="#666666" points="658,-93.25 588,-93.25 588,-74 658,-74 658,-93.25"/>
<text text-anchor="middle" x="623" y="-79.75" font-family="Helvetica,sans-Serif" font-size="10.00">Shape::Area</text>
</a>
</g>
</g>
<!-- Node8&#45;&gt;Node9 -->
<g id="edge9_Node000008_Node000009" class="edge">
<title>Node8&#45;&gt;Node9</title>
<g id="a_edge9_Node000008_Node000009"><a xlink:title=" ">
<path fill="none" stroke="#63b8ff" d="M521.17,-83.62C539.48,-83.62 559.13,-83.62 576.17,-83.62"/>
<polygon fill="#63b8ff" stroke="#63b8ff" points="576,-87.13 586,-83.63 576,-80.13 576,-87.13"/>
</a>
</g>
</g>
<!-- Node11 -->
<g id="Node000011" class="node">
<title>Node11</title>
<g id="a_Node000011"><a xlink:href="../../d7/da7/class_shape.html#a4b502262ae5a22122456b9624d5ccb3d" target="_top" xlink:title="Accessor Functions &#45; Returns the data named after them.">
<polygon fill="white" stroke="#666666" points="672.62,-19.25 573.38,-19.25 573.38,0 672.62,0 672.62,-19.25"/>
<text text-anchor="middle" x="623" y="-5.75" font-family="Helvetica,sans-Serif" font-size="10.00">Shape::getShapeId</text>
</a>
</g>
</g>
<!-- Node10&#45;&gt;Node11 -->
<g id="edge11_Node000010_Node000011" class="edge">
<title>Node10&#45;&gt;Node11</title>
<g id="a_edge11_Node000010_Node000011"><a xlink:title=" ">
<path fill="none" stroke="#63b8ff" d="M515.14,-9.62C530.15,-9.62 546.4,-9.62 561.59,-9.62"/>
<polygon fill="#63b8ff" stroke="#63b8ff" points="561.45,-13.13 571.45,-9.63 561.45,-6.13 561.45,-13.13"/>
</a>
</g>
</g>
<!-- Node13 -->
<g id="Node000013" class="node">
<title>Node13</title>
<g id="a_Node000013"><a xlink:href="../../d7/da7/class_shape.html#ac33d1f4554e4b4d9cbbe7159411b111c" target="_top" xlink:title="Perimeter &#45; Returns the perimeter of the shape.">
<polygon fill="white" stroke="#666666" points="668.88,-56.25 577.12,-56.25 577.12,-37 668.88,-37 668.88,-56.25"/>
<text text-anchor="middle" x="623" y="-42.75" font-family="Helvetica,sans-Serif" font-size="10.00">Shape::Perimeter</text>
</a>
</g>
</g>
<!-- Node12&#45;&gt;Node13 -->
<g id="edge13_Node000012_Node000013" class="edge">
<title>Node12&#45;&gt;Node13</title>
<g id="a_edge13_Node000012_Node000013"><a xlink:title=" ">
<path fill="none" stroke="#63b8ff" d="M532.05,-46.62C543.26,-46.62 554.68,-46.62 565.45,-46.62"/>
<polygon fill="#63b8ff" stroke="#63b8ff" points="565.33,-50.13 575.33,-46.63 565.33,-43.13 565.33,-50.13"/>
</a>
</g>
</g>
</g>
</svg>

<g id="navigator" transform="translate(0 0)" fill="#404254">
  <rect fill="#f2f5e9" fill-opacity="0.5" stroke="#606060" stroke-width=".5" x="0" y="0" width="60" height="60"/>
  <use id="zoomplus" xlink:href="#zoomPlus" x="17" y="9" onmousedown="handleZoom(evt,'in')"/>
  <use id="zoomminus" xlink:href="#zoomMin" x="42" y="9" onmousedown="handleZoom(evt,'out')"/>
  <use id="reset" xlink:href="#resetDef" x="30" y="36" onmousedown="handleReset()"/>
   <use id="arrowup" xlink:href="#arrowUp" x="0" y="0" onmousedown="handlePan(0,-1)"/>
  <use id="arrowright" xlink:href="#arrowRight" x="0" y="0" onmousedown="handlePan(1,0)"/>
  <use id="arrowdown" xlink:href="#arrowDown" x="0" y="0" onmousedown="handlePan(0,1)"/>
  <use id="arrowleft" xlink:href="#arrowLeft" x="0" y="0" onmousedown="handlePan(-1,0)"/>
</g>
<svg viewBox="0 0 15 15" width="100%" height="30px" preserveAspectRatio="xMaxYMin meet">
 <g id="arrow_out" transform="scale(0.3 0.3)">
  <a xlink:href="class_main_window_ac4c479f9beafaee136b98e7fac6761ee_cgraph_org.svg" target="_base">
   <rect id="button" ry="5" rx="5" y="6" x="6" height="38" width="38"
        fill="#f2f5e9" fill-opacity="0.5" stroke="#606060" stroke-width="1.0"/>
   <path id="arrow"
     d="M 11.500037,31.436501 C 11.940474,20.09759 22.043105,11.32322 32.158766,21.979434 L 37.068811,17.246167 C 37.068811,17.246167 37.088388,32 37.088388,32 L 22.160133,31.978069 C 22.160133,31.978069 26.997745,27.140456 26.997745,27.140456 C 18.528582,18.264221 13.291696,25.230495 11.500037,31.436501 z"
     style="fill:#404040;"/>
  </a>
 </g>
</svg>

<style type='text/css'>
<![CDATA[
[data-mouse-over-selected='false'] { opacity: 0.7; }
[data-mouse-over-selected='true']  { opacity: 1.0; }
]]>
</style>
<script type="application/ecmascript"><![CDATA[
document.addEventListener('DOMContentLoaded', (event) => {
  highlightEdges();
  highlightAdjacentNodes();
});
]]></script>
</svg>
