<?xml version="1.0" encoding="UTF-8" standalone="no"?>
<!DOCTYPE svg PUBLIC "-//W3C//DTD SVG 1.1//EN"
 "http://www.w3.org/Graphics/SVG/1.1/DTD/svg11.dtd">
<!-- Generated by graphviz version 12.2.1 (20241206.2353)
 -->
<!-- Title: MainWindow::showTestimonialsDisplay Pages: 1 -->
<svg width="698pt" height="108pt"
 viewBox="0.00 0.00 698.25 107.88" xmlns="http://www.w3.org/2000/svg" xmlns:xlink="http://www.w3.org/1999/xlink">
<g id="graph0" class="graph" transform="scale(1 1) rotate(0) translate(4 103.88)">
<title>MainWindow::showTestimonialsDisplay</title>
<!-- Node1 -->
<g id="Node000001" class="node">
<title>Node1</title>
<g id="a_Node000001"><a xlink:title="Displays a dialog showing existing testimonials.">
<polygon fill="#999999" stroke="#666666" points="690.25,-99.88 534,-99.88 534,-69.38 690.25,-69.38 690.25,-99.88"/>
<text text-anchor="start" x="542" y="-86.38" font-family="Helvetica,sans-Serif" font-size="10.00">MainWindow::showTestimonials</text>
<text text-anchor="middle" x="612.12" y="-75.12" font-family="Helvetica,sans-Serif" font-size="10.00">Display</text>
</a>
</g>
</g>
<!-- Node2 -->
<g id="Node000002" class="node">
<title>Node2</title>
<g id="a_Node000002"><a xlink:href="../../d9/dc6/class_main_window.html#a25d06b6f11a1eb7fa2239f01e853ae29" target="_top" xlink:title=" ">
<polygon fill="white" stroke="#666666" points="134.5,-75.25 0,-75.25 0,-56 134.5,-56 134.5,-75.25"/>
<text text-anchor="middle" x="67.25" y="-61.75" font-family="Helvetica,sans-Serif" font-size="10.00">MainWindow::MainWindow</text>
</a>
</g>
</g>
<!-- Node1&#45;&gt;Node2 -->
<g id="edge1_Node000001_Node000002" class="edge">
<title>Node1&#45;&gt;Node2</title>
<g id="a_edge1_Node000001_Node000002"><a xlink:title=" ">
<path fill="none" stroke="#63b8ff" d="M522.35,-87.33C433.24,-89.16 292.11,-89.7 170.5,-79.62 158.8,-78.66 146.4,-77.27 134.41,-75.73"/>
<polygon fill="#63b8ff" stroke="#63b8ff" points="522.33,-90.83 532.25,-87.11 522.17,-83.83 522.33,-90.83"/>
</a>
</g>
</g>
<!-- Node3 -->
<g id="Node000003" class="node">
<title>Node3</title>
<g id="a_Node000003"><a xlink:href="../../d9/dc6/class_main_window.html#aa2910dbb80e3e72ef731d27d70100d8e" target="_top" xlink:title="Sets up connections and UI elements for the testimonial feature.">
<polygon fill="white" stroke="#666666" points="498,-75.25 341,-75.25 341,-56 498,-56 498,-75.25"/>
<text text-anchor="middle" x="419.5" y="-61.75" font-family="Helvetica,sans-Serif" font-size="10.00">MainWindow::setupTestimonials</text>
</a>
</g>
</g>
<!-- Node1&#45;&gt;Node3 -->
<g id="edge2_Node000001_Node000003" class="edge">
<title>Node1&#45;&gt;Node3</title>
<g id="a_edge2_Node000001_Node000003"><a xlink:title=" ">
<path fill="none" stroke="#63b8ff" d="M522.31,-75.77C514.28,-74.97 506.2,-74.17 498.28,-73.38"/>
<polygon fill="#63b8ff" stroke="#63b8ff" points="521.79,-79.24 532.08,-76.75 522.48,-72.27 521.79,-79.24"/>
</a>
</g>
</g>
<!-- Node3&#45;&gt;Node2 -->
<g id="edge3_Node000003_Node000002" class="edge">
<title>Node3&#45;&gt;Node2</title>
<g id="a_edge3_Node000003_Node000002"><a xlink:title=" ">
<path fill="none" stroke="#63b8ff" d="M329.3,-65.62C268.75,-65.62 189.97,-65.62 134.86,-65.62"/>
<polygon fill="#63b8ff" stroke="#63b8ff" points="329.25,-69.13 339.25,-65.63 329.25,-62.13 329.25,-69.13"/>
</a>
</g>
</g>
<!-- Node4 -->
<g id="Node000004" class="node">
<title>Node4</title>
<g id="a_Node000004"><a xlink:href="../../d9/dc6/class_main_window.html#a996c5a2b6f77944776856f08ec30858d" target="_top" xlink:title="Default constructor.">
<polygon fill="white" stroke="#666666" points="305,-19.25 170.5,-19.25 170.5,0 305,0 305,-19.25"/>
<text text-anchor="middle" x="237.75" y="-5.75" font-family="Helvetica,sans-Serif" font-size="10.00">MainWindow::MainWindow</text>
</a>
</g>
</g>
<!-- Node3&#45;&gt;Node4 -->
<g id="edge4_Node000003_Node000004" class="edge">
<title>Node3&#45;&gt;Node4</title>
<g id="a_edge4_Node000003_Node000004"><a xlink:title=" ">
<path fill="none" stroke="#63b8ff" d="M375.53,-52.24C343.49,-42.26 300.4,-28.83 271.21,-19.74"/>
<polygon fill="#63b8ff" stroke="#63b8ff" points="374.33,-55.53 384.92,-55.16 376.41,-48.85 374.33,-55.53"/>
</a>
</g>
</g>
<!-- Node4&#45;&gt;Node2 -->
<g id="edge5_Node000004_Node000002" class="edge">
<title>Node4&#45;&gt;Node2</title>
<g id="a_edge5_Node000004_Node000002"><a xlink:title=" ">
<path fill="none" stroke="#63b8ff" d="M196.08,-23.14C166.09,-33.11 125.93,-46.46 98.68,-55.51"/>
<polygon fill="#63b8ff" stroke="#63b8ff" points="196.8,-26.59 205.19,-20.11 194.6,-19.95 196.8,-26.59"/>
</a>
</g>
</g>
<!-- Node4&#45;&gt;Node4 -->
<g id="edge6_Node000004_Node000004" class="edge">
<title>Node4&#45;&gt;Node4</title>
<g id="a_edge6_Node000004_Node000004"><a xlink:title=" ">
<path fill="none" stroke="#63b8ff" d="M268.32,-30.32C264.8,-34.37 254.61,-37.25 237.75,-37.25 207.78,-37.25 198.88,-28.15 211.06,-19.54"/>
<polygon fill="#63b8ff" stroke="#63b8ff" points="271.64,-29.19 264.96,-20.96 265.05,-31.56 271.64,-29.19"/>
</a>
</g>
</g>
</g>
</svg>
