<?xml version="1.0" encoding="UTF-8" standalone="no"?>
<!DOCTYPE svg PUBLIC "-//W3C//DTD SVG 1.1//EN"
 "http://www.w3.org/Graphics/SVG/1.1/DTD/svg11.dtd">
<!-- Generated by graphviz version 12.2.1 (20241206.2353)
 -->
<!-- Title: MainWindow::shapeAdded Pages: 1 -->
<svg width="575pt" height="419pt"
 viewBox="0.00 0.00 575.25 418.88" xmlns="http://www.w3.org/2000/svg" xmlns:xlink="http://www.w3.org/1999/xlink">
<g id="graph0" class="graph" transform="scale(1 1) rotate(0) translate(4 414.88)">
<title>MainWindow::shapeAdded</title>
<!-- Node1 -->
<g id="Node000001" class="node">
<title>Node1</title>
<g id="a_Node000001"><a xlink:title="Emitted when a new shape is added by the user.">
<polygon fill="#999999" stroke="#666666" points="567.25,-114.25 435,-114.25 435,-95 567.25,-95 567.25,-114.25"/>
<text text-anchor="middle" x="501.12" y="-100.75" font-family="Helvetica,sans-Serif" font-size="10.00">MainWindow::shapeAdded</text>
</a>
</g>
</g>
<!-- Node2 -->
<g id="Node000002" class="node">
<title>Node2</title>
<g id="a_Node000002"><a xlink:href="../../d9/dc6/class_main_window.html#afe8619a02bba82d0ad5e05065d6c0ea1" target="_top" xlink:title="Adds a given shape to the properties tree widget and emits shapeAdded signal.">
<polygon fill="white" stroke="#666666" points="399,-209.25 247.25,-209.25 247.25,-190 399,-190 399,-209.25"/>
<text text-anchor="middle" x="323.12" y="-195.75" font-family="Helvetica,sans-Serif" font-size="10.00">MainWindow::addToShapeTree</text>
</a>
</g>
</g>
<!-- Node1&#45;&gt;Node2 -->
<g id="edge1_Node000001_Node000002" class="edge">
<title>Node1&#45;&gt;Node2</title>
<g id="a_edge1_Node000001_Node000002"><a xlink:title=" ">
<path fill="none" stroke="#63b8ff" d="M471.66,-119.99C435.3,-139.62 373.42,-173.02 342.64,-189.63"/>
<polygon fill="#63b8ff" stroke="#63b8ff" points="473.15,-123.16 480.29,-115.33 469.83,-117 473.15,-123.16"/>
</a>
</g>
</g>
<!-- Node11 -->
<g id="Node000011" class="node">
<title>Node11</title>
<g id="a_Node000011"><a xlink:href="../../d7/de6/class_app_driver.html#ad4932bc7c7019e2522503886c01ffe33" target="_top" xlink:title="Connects signals from the frontend UI to slots in this AppDriver.">
<polygon fill="white" stroke="#666666" points="392.25,-98.88 254,-98.88 254,-68.38 392.25,-68.38 392.25,-98.88"/>
<text text-anchor="start" x="262" y="-85.38" font-family="Helvetica,sans-Serif" font-size="10.00">AppDriver::connectFrontend</text>
<text text-anchor="middle" x="323.12" y="-74.12" font-family="Helvetica,sans-Serif" font-size="10.00">ToDriver</text>
</a>
</g>
</g>
<!-- Node1&#45;&gt;Node11 -->
<g id="edge10_Node000001_Node000011" class="edge">
<title>Node1&#45;&gt;Node11</title>
<g id="a_edge10_Node000001_Node000011"><a xlink:title=" ">
<path fill="none" stroke="#63b8ff" d="M423.22,-95.45C413.05,-94.24 402.68,-93 392.66,-91.8"/>
<polygon fill="#63b8ff" stroke="#63b8ff" points="422.74,-98.92 433.09,-96.63 423.57,-91.97 422.74,-98.92"/>
</a>
</g>
</g>
<!-- Node3 -->
<g id="Node000003" class="node">
<title>Node3</title>
<g id="a_Node000003"><a xlink:href="../../d9/dc6/class_main_window.html#a9b9bf9b3d640e2bcace3cbfdc5d75d8b" target="_top" xlink:title="Slot triggered to create and add a new Circle shape.">
<polygon fill="white" stroke="#666666" points="211.25,-410.88 73,-410.88 73,-380.38 211.25,-380.38 211.25,-410.88"/>
<text text-anchor="start" x="81" y="-397.38" font-family="Helvetica,sans-Serif" font-size="10.00">MainWindow::on_actionnew</text>
<text text-anchor="middle" x="142.12" y="-386.12" font-family="Helvetica,sans-Serif" font-size="10.00">_circle_button_triggered</text>
</a>
</g>
</g>
<!-- Node2&#45;&gt;Node3 -->
<g id="edge2_Node000002_Node000003" class="edge">
<title>Node2&#45;&gt;Node3</title>
<g id="a_edge2_Node000002_Node000003"><a xlink:title=" ">
<path fill="none" stroke="#63b8ff" d="M313.98,-220.25C298.92,-255.84 263.42,-328.98 211.25,-370.62 206.82,-374.16 201.84,-377.23 196.64,-379.88"/>
<polygon fill="#63b8ff" stroke="#63b8ff" points="317.17,-221.7 317.72,-211.11 310.69,-219.04 317.17,-221.7"/>
</a>
</g>
</g>
<!-- Node4 -->
<g id="Node000004" class="node">
<title>Node4</title>
<g id="a_Node000004"><a xlink:href="../../d9/dc6/class_main_window.html#a4e25fe2c6dd72b44efdf2d1b1e9c1846" target="_top" xlink:title="Slot triggered to create and add a new Ellipse shape.">
<polygon fill="white" stroke="#666666" points="211.25,-361.88 73,-361.88 73,-331.38 211.25,-331.38 211.25,-361.88"/>
<text text-anchor="start" x="81" y="-348.38" font-family="Helvetica,sans-Serif" font-size="10.00">MainWindow::on_actionnew</text>
<text text-anchor="middle" x="142.12" y="-337.12" font-family="Helvetica,sans-Serif" font-size="10.00">_ellipse_button_triggered</text>
</a>
</g>
</g>
<!-- Node2&#45;&gt;Node4 -->
<g id="edge3_Node000002_Node000004" class="edge">
<title>Node2&#45;&gt;Node4</title>
<g id="a_edge3_Node000002_Node000004"><a xlink:title=" ">
<path fill="none" stroke="#63b8ff" d="M309.11,-219.03C290.38,-245.61 253.38,-293.27 211.25,-321.62 206.02,-325.14 200.24,-328.24 194.32,-330.95"/>
<polygon fill="#63b8ff" stroke="#63b8ff" points="311.92,-221.12 314.72,-210.9 306.16,-217.14 311.92,-221.12"/>
</a>
</g>
</g>
<!-- Node5 -->
<g id="Node000005" class="node">
<title>Node5</title>
<g id="a_Node000005"><a xlink:href="../../d9/dc6/class_main_window.html#abd3987548635bfd1133f8f0d5e0a1879" target="_top" xlink:title="Slot triggered to create and add a new Line shape.">
<polygon fill="white" stroke="#666666" points="211.25,-312.88 73,-312.88 73,-282.38 211.25,-282.38 211.25,-312.88"/>
<text text-anchor="start" x="81" y="-299.38" font-family="Helvetica,sans-Serif" font-size="10.00">MainWindow::on_actionnew</text>
<text text-anchor="middle" x="142.12" y="-288.12" font-family="Helvetica,sans-Serif" font-size="10.00">_line_button_triggered</text>
</a>
</g>
</g>
<!-- Node2&#45;&gt;Node5 -->
<g id="edge4_Node000002_Node000005" class="edge">
<title>Node2&#45;&gt;Node5</title>
<g id="a_edge4_Node000002_Node000005"><a xlink:title=" ">
<path fill="none" stroke="#63b8ff" d="M300.04,-216.37C278.3,-232.32 243.73,-256.25 211.25,-272.62 204.61,-275.97 197.42,-279.1 190.27,-281.94"/>
<polygon fill="#63b8ff" stroke="#63b8ff" points="301.92,-219.34 307.86,-210.57 297.75,-213.72 301.92,-219.34"/>
</a>
</g>
</g>
<!-- Node6 -->
<g id="Node000006" class="node">
<title>Node6</title>
<g id="a_Node000006"><a xlink:href="../../d9/dc6/class_main_window.html#a28e2b0b2efac43e0553aef6a8d23aee5" target="_top" xlink:title="Slot triggered to create and add a new Polygon shape.">
<polygon fill="white" stroke="#666666" points="211.25,-263.88 73,-263.88 73,-233.38 211.25,-233.38 211.25,-263.88"/>
<text text-anchor="start" x="81" y="-250.38" font-family="Helvetica,sans-Serif" font-size="10.00">MainWindow::on_actionnew</text>
<text text-anchor="middle" x="142.12" y="-239.12" font-family="Helvetica,sans-Serif" font-size="10.00">_polygon_button_triggered</text>
</a>
</g>
</g>
<!-- Node2&#45;&gt;Node6 -->
<g id="edge5_Node000002_Node000006" class="edge">
<title>Node2&#45;&gt;Node6</title>
<g id="a_edge5_Node000002_Node000006"><a xlink:title=" ">
<path fill="none" stroke="#63b8ff" d="M274.4,-212.69C251.69,-218.91 224.36,-226.39 200.53,-232.91"/>
<polygon fill="#63b8ff" stroke="#63b8ff" points="275.29,-216.07 284.01,-210.06 273.44,-209.32 275.29,-216.07"/>
</a>
</g>
</g>
<!-- Node7 -->
<g id="Node000007" class="node">
<title>Node7</title>
<g id="a_Node000007"><a xlink:href="../../d9/dc6/class_main_window.html#ab4fc6a65cac38759157fd77d12497a89" target="_top" xlink:title="Slot triggered to create and add a new Polyline shape.">
<polygon fill="white" stroke="#666666" points="211.25,-214.88 73,-214.88 73,-184.38 211.25,-184.38 211.25,-214.88"/>
<text text-anchor="start" x="81" y="-201.38" font-family="Helvetica,sans-Serif" font-size="10.00">MainWindow::on_actionnew</text>
<text text-anchor="middle" x="142.12" y="-190.12" font-family="Helvetica,sans-Serif" font-size="10.00">_polyline_button_triggered</text>
</a>
</g>
</g>
<!-- Node2&#45;&gt;Node7 -->
<g id="edge6_Node000002_Node000007" class="edge">
<title>Node2&#45;&gt;Node7</title>
<g id="a_edge6_Node000002_Node000007"><a xlink:title=" ">
<path fill="none" stroke="#63b8ff" d="M235.61,-199.62C227.52,-199.62 219.4,-199.62 211.51,-199.62"/>
<polygon fill="#63b8ff" stroke="#63b8ff" points="235.48,-203.13 245.48,-199.63 235.48,-196.13 235.48,-203.13"/>
</a>
</g>
</g>
<!-- Node8 -->
<g id="Node000008" class="node">
<title>Node8</title>
<g id="a_Node000008"><a xlink:href="../../d9/dc6/class_main_window.html#af65e6b1a5513198eece131b1d164a978" target="_top" xlink:title="Slot triggered to create and add a new Rectangle shape.">
<polygon fill="white" stroke="#666666" points="211.25,-165.88 73,-165.88 73,-135.38 211.25,-135.38 211.25,-165.88"/>
<text text-anchor="start" x="81" y="-152.38" font-family="Helvetica,sans-Serif" font-size="10.00">MainWindow::on_actionnew</text>
<text text-anchor="middle" x="142.12" y="-141.12" font-family="Helvetica,sans-Serif" font-size="10.00">_rectange_button_triggered</text>
</a>
</g>
</g>
<!-- Node2&#45;&gt;Node8 -->
<g id="edge7_Node000002_Node000008" class="edge">
<title>Node2&#45;&gt;Node8</title>
<g id="a_edge7_Node000002_Node000008"><a xlink:title=" ">
<path fill="none" stroke="#63b8ff" d="M274.4,-186.56C251.69,-180.34 224.36,-172.86 200.53,-166.34"/>
<polygon fill="#63b8ff" stroke="#63b8ff" points="273.44,-189.93 284.01,-189.19 275.29,-183.18 273.44,-189.93"/>
</a>
</g>
</g>
<!-- Node9 -->
<g id="Node000009" class="node">
<title>Node9</title>
<g id="a_Node000009"><a xlink:href="../../d9/dc6/class_main_window.html#a7d1d40640f58ce6dd36eabcee8ecdc6e" target="_top" xlink:title="Slot triggered to create and add a new Square shape.">
<polygon fill="white" stroke="#666666" points="211.25,-116.88 73,-116.88 73,-86.38 211.25,-86.38 211.25,-116.88"/>
<text text-anchor="start" x="81" y="-103.38" font-family="Helvetica,sans-Serif" font-size="10.00">MainWindow::on_actionnew</text>
<text text-anchor="middle" x="142.12" y="-92.12" font-family="Helvetica,sans-Serif" font-size="10.00">_square_button_triggered</text>
</a>
</g>
</g>
<!-- Node2&#45;&gt;Node9 -->
<g id="edge8_Node000002_Node000009" class="edge">
<title>Node2&#45;&gt;Node9</title>
<g id="a_edge8_Node000002_Node000009"><a xlink:title=" ">
<path fill="none" stroke="#63b8ff" d="M300.04,-182.88C278.3,-166.93 243.73,-143 211.25,-126.62 204.61,-123.28 197.42,-120.15 190.27,-117.31"/>
<polygon fill="#63b8ff" stroke="#63b8ff" points="297.75,-185.53 307.86,-188.68 301.92,-179.91 297.75,-185.53"/>
</a>
</g>
</g>
<!-- Node10 -->
<g id="Node000010" class="node">
<title>Node10</title>
<g id="a_Node000010"><a xlink:href="../../d9/dc6/class_main_window.html#aebcb152e26ef6d6bd4fc348e815fe8c8" target="_top" xlink:title="Slot triggered to create and add a new Text shape.">
<polygon fill="white" stroke="#666666" points="211.25,-67.88 73,-67.88 73,-37.38 211.25,-37.38 211.25,-67.88"/>
<text text-anchor="start" x="81" y="-54.38" font-family="Helvetica,sans-Serif" font-size="10.00">MainWindow::on_actionnew</text>
<text text-anchor="middle" x="142.12" y="-43.12" font-family="Helvetica,sans-Serif" font-size="10.00">_text_button_triggered</text>
</a>
</g>
</g>
<!-- Node2&#45;&gt;Node10 -->
<g id="edge9_Node000002_Node000010" class="edge">
<title>Node2&#45;&gt;Node10</title>
<g id="a_edge9_Node000002_Node000010"><a xlink:title=" ">
<path fill="none" stroke="#63b8ff" d="M307.06,-180.97C282.27,-150.64 233.42,-92.55 211.25,-77.62 206.02,-74.11 200.24,-71.01 194.32,-68.3"/>
<polygon fill="#63b8ff" stroke="#63b8ff" points="304.22,-183.02 313.24,-188.57 309.65,-178.6 304.22,-183.02"/>
</a>
</g>
</g>
<!-- Node12 -->
<g id="Node000012" class="node">
<title>Node12</title>
<g id="a_Node000012"><a xlink:href="../../d7/de6/class_app_driver.html#af5bf7b6bd96161d95a0a67cc7693127d" target="_top" xlink:title="Initializes and shows the main application window and loads initial data.">
<polygon fill="white" stroke="#666666" points="181.62,-19.25 102.62,-19.25 102.62,0 181.62,0 181.62,-19.25"/>
<text text-anchor="middle" x="142.12" y="-5.75" font-family="Helvetica,sans-Serif" font-size="10.00">AppDriver::run</text>
</a>
</g>
</g>
<!-- Node11&#45;&gt;Node12 -->
<g id="edge11_Node000011_Node000012" class="edge">
<title>Node11&#45;&gt;Node12</title>
<g id="a_edge11_Node000011_Node000012"><a xlink:title=" ">
<path fill="none" stroke="#63b8ff" d="M284.39,-62.69C263.31,-51.56 236.31,-38.24 211.25,-28.62 201.96,-25.06 191.73,-21.85 182.09,-19.13"/>
<polygon fill="#63b8ff" stroke="#63b8ff" points="282.72,-65.77 293.19,-67.4 286.03,-59.59 282.72,-65.77"/>
</a>
</g>
</g>
<!-- Node13 -->
<g id="Node000013" class="node">
<title>Node13</title>
<g id="a_Node000013"><a xlink:href="../../d8/d80/src_2backend_2main_8cpp.html#a0ddf1224851353fc92bfbff6f499fa97" target="_top" xlink:title=" ">
<polygon fill="white" stroke="#666666" points="37,-19.25 0,-19.25 0,0 37,0 37,-19.25"/>
<text text-anchor="middle" x="18.5" y="-5.75" font-family="Helvetica,sans-Serif" font-size="10.00">main</text>
</a>
</g>
</g>
<!-- Node12&#45;&gt;Node13 -->
<g id="edge12_Node000012_Node000013" class="edge">
<title>Node12&#45;&gt;Node13</title>
<g id="a_edge12_Node000012_Node000013"><a xlink:title=" ">
<path fill="none" stroke="#63b8ff" d="M91,-9.62C71.94,-9.62 51.42,-9.62 37.28,-9.62"/>
<polygon fill="#63b8ff" stroke="#63b8ff" points="90.79,-13.13 100.79,-9.63 90.79,-6.13 90.79,-13.13"/>
</a>
</g>
</g>
</g>
</svg>
