<?xml version="1.0" encoding="UTF-8" standalone="no"?>
<!DOCTYPE svg PUBLIC "-//W3C//DTD SVG 1.1//EN"
 "http://www.w3.org/Graphics/SVG/1.1/DTD/svg11.dtd">
<!-- Generated by graphviz version 12.2.1 (20241206.2353)
 -->
<!-- Title: MainWindow::shapes_to_treeWidget Pages: 1 -->
<!--zoomable 1275 -->

<svg id="main" version="1.1" xmlns="http://www.w3.org/2000/svg" xmlns:xlink="http://www.w3.org/1999/xlink" xml:space="preserve" onload="init(evt)">

<style type="text/css"><![CDATA[
.node, .edge {opacity: 0.7;}
.node.selected, .edge.selected {opacity: 1;}
.edge:hover path { stroke: red; }
.edge:hover polygon { stroke: red; fill: red; }
]]></style>

<defs>
  <circle id="rim" cx="0" cy="0" r="7"/>
  <circle id="rim2" cx="0" cy="0" r="3.5"/>
  <g id="zoomPlus">
    <use xlink:href="#rim" fill="#404040"><set attributeName="fill" to="#808080" begin="zoomplus.mouseover" end="zoomplus.mouseout"/></use>
    <path d="M-4,0h8M0,-4v8" fill="none" stroke="white" stroke-width="1.5" pointer-events="none"/>
  </g>
  <g id="zoomMin">
    <use xlink:href="#rim" fill="#404040"><set attributeName="fill" to="#808080" begin="zoomminus.mouseover" end="zoomminus.mouseout"/></use>
    <path d="M-4,0h8" fill="none" stroke="white" stroke-width="1.5" pointer-events="none"/>
  </g>
  <g id="arrowUp" transform="translate(30 24)">
    <use xlink:href="#rim"/>
    <path pointer-events="none" fill="none" stroke="white" stroke-width="1.5" d="M0,-3.0v7 M-2.5,-0.5L0,-3.0L2.5,-0.5"/>
  </g>
  <g id="arrowRight" transform="rotate(90) translate(36 -43)">
    <use xlink:href="#rim"/>
    <path pointer-events="none" fill="none" stroke="white" stroke-width="1.5" d="M0,-3.0v7 M-2.5,-0.5L0,-3.0L2.5,-0.5"/>
  </g>
  <g id="arrowDown" transform="rotate(180) translate(-30 -48)">
    <use xlink:href="#rim"/>
    <path pointer-events="none" fill="none" stroke="white" stroke-width="1.5" d="M0,-3.0v7 M-2.5,-0.5L0,-3.0L2.5,-0.5"/>
  </g>
  <g id="arrowLeft" transform="rotate(270) translate(-36 17)">
    <use xlink:href="#rim"/>
    <path pointer-events="none" fill="none" stroke="white" stroke-width="1.5" d="M0,-3.0v7 M-2.5,-0.5L0,-3.0L2.5,-0.5"/>
  </g>
  <g id="resetDef">
    <use xlink:href="#rim2" fill="#404040"><set attributeName="fill" to="#808080" begin="reset.mouseover" end="reset.mouseout"/></use>
  </g>
</defs>
<script type="application/ecmascript">
var viewWidth = 511;
var viewHeight = 1275;
var sectionId = 'dynsection-68';
</script>
<script type="application/ecmascript" xlink:href="../../svg.min.js"/>
<svg id="graph" class="graph">
<g id="viewport">
<title>MainWindow::shapes_to_treeWidget</title>
<!-- Node1 -->
<g id="Node000001" class="node">
<title>Node1</title>
<g id="a_Node000001"><a xlink:title="Populates the tree widget with details of the current shapes and sets up editing controls.">
<polygon fill="#999999" stroke="#666666" points="109.75,-602.88 0,-602.88 0,-572.38 109.75,-572.38 109.75,-602.88"/>
<text text-anchor="start" x="8" y="-589.38" font-family="Helvetica,sans-Serif" font-size="10.00">MainWindow::shapes</text>
<text text-anchor="middle" x="54.88" y="-578.12" font-family="Helvetica,sans-Serif" font-size="10.00">_to_treeWidget</text>
</a>
</g>
</g>
<!-- Node2 -->
<g id="Node000002" class="node">
<title>Node2</title>
<g id="a_Node000002"><a xlink:href="../../d9/dc6/class_main_window.html#a405427dd9586218cba7d02d495bb88cc" target="_top" xlink:title="Creates and configures a QComboBox for selecting text alignment.">
<polygon fill="white" stroke="#666666" points="308.75,-1266.88 160,-1266.88 160,-1236.38 308.75,-1236.38 308.75,-1266.88"/>
<text text-anchor="start" x="168" y="-1253.38" font-family="Helvetica,sans-Serif" font-size="10.00">MainWindow::createAlignment</text>
<text text-anchor="middle" x="234.38" y="-1242.12" font-family="Helvetica,sans-Serif" font-size="10.00">ComboBox</text>
</a>
</g>
</g>
<!-- Node1&#45;&gt;Node2 -->
<g id="edge1_Node000001_Node000002" class="edge">
<title>Node1&#45;&gt;Node2</title>
<g id="a_edge1_Node000001_Node000002"><a xlink:title=" ">
<path fill="none" stroke="#63b8ff" d="M55.85,-603.34C56.03,-692.05 61.25,-1129.56 145.75,-1226.62 147.23,-1228.33 148.82,-1229.91 150.49,-1231.4"/>
<polygon fill="#63b8ff" stroke="#63b8ff" points="148.18,-1234.04 158.33,-1237.09 152.3,-1228.38 148.18,-1234.04"/>
</a>
</g>
</g>
<!-- Node3 -->
<g id="Node000003" class="node">
<title>Node3</title>
<g id="a_Node000003"><a xlink:href="../../d9/dc6/class_main_window.html#a77d4dace8cb3dab4130649f4dd61f90e" target="_top" xlink:title="Creates and configures a QComboBox for selecting brush styles.">
<polygon fill="white" stroke="#666666" points="311,-1217.88 157.75,-1217.88 157.75,-1187.38 311,-1187.38 311,-1217.88"/>
<text text-anchor="start" x="165.75" y="-1204.38" font-family="Helvetica,sans-Serif" font-size="10.00">MainWindow::createBrushStyle</text>
<text text-anchor="middle" x="234.38" y="-1193.12" font-family="Helvetica,sans-Serif" font-size="10.00">ComboBox</text>
</a>
</g>
</g>
<!-- Node1&#45;&gt;Node3 -->
<g id="edge2_Node000001_Node000003" class="edge">
<title>Node1&#45;&gt;Node3</title>
<g id="a_edge2_Node000001_Node000003"><a xlink:title=" ">
<path fill="none" stroke="#63b8ff" d="M56.03,-603.27C57.19,-687.87 66.84,-1089.95 145.75,-1178.62 146.72,-1179.72 147.74,-1180.76 148.8,-1181.76"/>
<polygon fill="#63b8ff" stroke="#63b8ff" points="146.37,-1184.31 156.42,-1187.65 150.64,-1178.77 146.37,-1184.31"/>
</a>
</g>
</g>
<!-- Node4 -->
<g id="Node000004" class="node">
<title>Node4</title>
<g id="a_Node000004"><a xlink:href="../../d9/dc6/class_main_window.html#a13cf8174967b39a40231f9a98dd21565" target="_top" xlink:title="Creates and configures a QComboBox for selecting colors.">
<polygon fill="white" stroke="#666666" points="323,-1169.25 145.75,-1169.25 145.75,-1150 323,-1150 323,-1169.25"/>
<text text-anchor="middle" x="234.38" y="-1155.75" font-family="Helvetica,sans-Serif" font-size="10.00">MainWindow::createColorComboBox</text>
</a>
</g>
</g>
<!-- Node1&#45;&gt;Node4 -->
<g id="edge3_Node000001_Node000004" class="edge">
<title>Node1&#45;&gt;Node4</title>
<g id="a_edge3_Node000001_Node000004"><a xlink:title=" ">
<path fill="none" stroke="#63b8ff" d="M56.11,-603.18C57.64,-684.65 68.86,-1061.46 145.75,-1141.62 146.13,-1142.02 146.51,-1142.4 146.9,-1142.78"/>
<polygon fill="#63b8ff" stroke="#63b8ff" points="144.58,-1145.41 154.63,-1148.77 148.87,-1139.88 144.58,-1145.41"/>
</a>
</g>
</g>
<!-- Node5 -->
<g id="Node000005" class="node">
<title>Node5</title>
<g id="a_Node000005"><a xlink:href="../../d9/dc6/class_main_window.html#a3785b3b7329dcdaf51f45312abe7dd6a" target="_top" xlink:title="Creates and configures a QComboBox for selecting font families.">
<polygon fill="white" stroke="#666666" points="321.12,-1132.25 147.62,-1132.25 147.62,-1113 321.12,-1113 321.12,-1132.25"/>
<text text-anchor="middle" x="234.38" y="-1118.75" font-family="Helvetica,sans-Serif" font-size="10.00">MainWindow::createFontComboBox</text>
</a>
</g>
</g>
<!-- Node1&#45;&gt;Node5 -->
<g id="edge4_Node000001_Node000005" class="edge">
<title>Node1&#45;&gt;Node5</title>
<g id="a_edge4_Node000001_Node000005"><a xlink:title=" ">
<path fill="none" stroke="#63b8ff" d="M56.32,-603.12C58.89,-681.04 74.29,-1029.16 145.75,-1103.62 146.61,-1104.52 147.51,-1105.38 148.43,-1106.21"/>
<polygon fill="#63b8ff" stroke="#63b8ff" points="146.05,-1108.81 156.21,-1111.81 150.14,-1103.13 146.05,-1108.81"/>
</a>
</g>
</g>
<!-- Node6 -->
<g id="Node000006" class="node">
<title>Node6</title>
<g id="a_Node000006"><a xlink:href="../../d9/dc6/class_main_window.html#a59688ddfdfc0f919ff7058dfcda42fa1" target="_top" xlink:title="Creates and configures a QComboBox for selecting font styles (normal, italic, oblique).">
<polygon fill="white" stroke="#666666" points="308,-1094.88 160.75,-1094.88 160.75,-1064.38 308,-1064.38 308,-1094.88"/>
<text text-anchor="start" x="168.75" y="-1081.38" font-family="Helvetica,sans-Serif" font-size="10.00">MainWindow::createFontStyle</text>
<text text-anchor="middle" x="234.38" y="-1070.12" font-family="Helvetica,sans-Serif" font-size="10.00">ComboBox</text>
</a>
</g>
</g>
<!-- Node1&#45;&gt;Node6 -->
<g id="edge5_Node000001_Node000006" class="edge">
<title>Node1&#45;&gt;Node6</title>
<g id="a_edge5_Node000001_Node000006"><a xlink:title=" ">
<path fill="none" stroke="#63b8ff" d="M56.72,-603.01C61.03,-675.92 82.88,-985.97 145.75,-1054.62 147.49,-1056.52 149.36,-1058.28 151.33,-1059.9"/>
<polygon fill="#63b8ff" stroke="#63b8ff" points="149.14,-1062.64 159.38,-1065.38 153.08,-1056.86 149.14,-1062.64"/>
</a>
</g>
</g>
<!-- Node7 -->
<g id="Node000007" class="node">
<title>Node7</title>
<g id="a_Node000007"><a xlink:href="../../d9/dc6/class_main_window.html#aca7d4f5f2149d757046f5d7cd8d5f8f7" target="_top" xlink:title="Creates and configures a QComboBox for selecting font weights.">
<polygon fill="white" stroke="#666666" points="311.75,-1045.88 157,-1045.88 157,-1015.38 311.75,-1015.38 311.75,-1045.88"/>
<text text-anchor="start" x="165" y="-1032.38" font-family="Helvetica,sans-Serif" font-size="10.00">MainWindow::createFontWeight</text>
<text text-anchor="middle" x="234.38" y="-1021.12" font-family="Helvetica,sans-Serif" font-size="10.00">ComboBox</text>
</a>
</g>
</g>
<!-- Node1&#45;&gt;Node7 -->
<g id="edge6_Node000001_Node000007" class="edge">
<title>Node1&#45;&gt;Node7</title>
<g id="a_edge6_Node000001_Node000007"><a xlink:title=" ">
<path fill="none" stroke="#63b8ff" d="M57.11,-603.2C62.85,-671.64 89.07,-945.06 145.75,-1005.62 146.48,-1006.41 147.24,-1007.17 148.02,-1007.9"/>
<polygon fill="#63b8ff" stroke="#63b8ff" points="145.82,-1010.63 155.86,-1014 150.12,-1005.1 145.82,-1010.63"/>
</a>
</g>
</g>
<!-- Node8 -->
<g id="Node000008" class="node">
<title>Node8</title>
<g id="a_Node000008"><a xlink:href="../../d9/dc6/class_main_window.html#ad2ca8de275eb8d22001fc8ae43a5b263" target="_top" xlink:title="Creates and configures a QComboBox for selecting pen cap styles.">
<polygon fill="white" stroke="#666666" points="304.62,-996.88 164.12,-996.88 164.12,-966.38 304.62,-966.38 304.62,-996.88"/>
<text text-anchor="start" x="172.12" y="-983.38" font-family="Helvetica,sans-Serif" font-size="10.00">MainWindow::createPenCap</text>
<text text-anchor="middle" x="234.38" y="-972.12" font-family="Helvetica,sans-Serif" font-size="10.00">StyleComboBox</text>
</a>
</g>
</g>
<!-- Node1&#45;&gt;Node8 -->
<g id="edge7_Node000001_Node000008" class="edge">
<title>Node1&#45;&gt;Node8</title>
<g id="a_edge7_Node000001_Node000008"><a xlink:title=" ">
<path fill="none" stroke="#63b8ff" d="M57.57,-603.06C64.82,-666.19 95.13,-903.99 145.75,-956.62 148.33,-959.3 151.17,-961.7 154.21,-963.85"/>
<polygon fill="#63b8ff" stroke="#63b8ff" points="152.14,-966.69 162.53,-968.79 155.72,-960.67 152.14,-966.69"/>
</a>
</g>
</g>
<!-- Node9 -->
<g id="Node000009" class="node">
<title>Node9</title>
<g id="a_Node000009"><a xlink:href="../../d9/dc6/class_main_window.html#ae585cf395690d3bf28b9ff94f8506a03" target="_top" xlink:title="Creates and configures a QComboBox for selecting pen join styles.">
<polygon fill="white" stroke="#666666" points="304.62,-947.88 164.12,-947.88 164.12,-917.38 304.62,-917.38 304.62,-947.88"/>
<text text-anchor="start" x="172.12" y="-934.38" font-family="Helvetica,sans-Serif" font-size="10.00">MainWindow::createPenJoin</text>
<text text-anchor="middle" x="234.38" y="-923.12" font-family="Helvetica,sans-Serif" font-size="10.00">StyleComboBox</text>
</a>
</g>
</g>
<!-- Node1&#45;&gt;Node9 -->
<g id="edge8_Node000001_Node000009" class="edge">
<title>Node1&#45;&gt;Node9</title>
<g id="a_edge8_Node000001_Node000009"><a xlink:title=" ">
<path fill="none" stroke="#63b8ff" d="M55.31,-603.21C54.33,-654.53 58.41,-819.92 145.75,-907.62 148.37,-910.26 151.25,-912.62 154.32,-914.74"/>
<polygon fill="#63b8ff" stroke="#63b8ff" points="152.31,-917.61 162.71,-919.62 155.83,-911.56 152.31,-917.61"/>
</a>
</g>
</g>
<!-- Node10 -->
<g id="Node000010" class="node">
<title>Node10</title>
<g id="a_Node000010"><a xlink:href="../../d9/dc6/class_main_window.html#a55eed5bdf9b2ec38f0d86c661acddcb5" target="_top" xlink:title="Creates and configures a QComboBox for selecting pen styles.">
<polygon fill="white" stroke="#666666" points="306.88,-898.88 161.88,-898.88 161.88,-868.38 306.88,-868.38 306.88,-898.88"/>
<text text-anchor="start" x="169.88" y="-885.38" font-family="Helvetica,sans-Serif" font-size="10.00">MainWindow::createPenStyle</text>
<text text-anchor="middle" x="234.38" y="-874.12" font-family="Helvetica,sans-Serif" font-size="10.00">ComboBox</text>
</a>
</g>
</g>
<!-- Node1&#45;&gt;Node10 -->
<g id="edge9_Node000001_Node000010" class="edge">
<title>Node1&#45;&gt;Node10</title>
<g id="a_edge9_Node000001_Node000010"><a xlink:title=" ">
<path fill="none" stroke="#63b8ff" d="M56.23,-603.09C58.15,-649.08 70.25,-786.25 145.75,-858.62 147.8,-860.59 149.99,-862.4 152.29,-864.07"/>
<polygon fill="#63b8ff" stroke="#63b8ff" points="150.04,-866.79 160.39,-869.05 153.71,-860.83 150.04,-866.79"/>
</a>
</g>
</g>
<!-- Node11 -->
<g id="Node000011" class="node">
<title>Node11</title>
<g id="a_Node000011"><a xlink:href="../../d9/dc6/class_main_window.html#a78611ff63653443ba2244f2f94ad67b2" target="_top" xlink:title="Creates and configures a QSpinBox for editing pen width.">
<polygon fill="white" stroke="#666666" points="308.38,-849.88 160.38,-849.88 160.38,-819.38 308.38,-819.38 308.38,-849.88"/>
<text text-anchor="start" x="168.38" y="-836.38" font-family="Helvetica,sans-Serif" font-size="10.00">MainWindow::createPenWidth</text>
<text text-anchor="middle" x="234.38" y="-825.12" font-family="Helvetica,sans-Serif" font-size="10.00">SpinBox</text>
</a>
</g>
</g>
<!-- Node1&#45;&gt;Node11 -->
<g id="edge10_Node000001_Node000011" class="edge">
<title>Node1&#45;&gt;Node11</title>
<g id="a_edge10_Node000001_Node000011"><a xlink:title=" ">
<path fill="none" stroke="#63b8ff" d="M57.47,-603.28C62.47,-643.89 81.53,-753.44 145.75,-810.62 147.38,-812.08 149.1,-813.45 150.88,-814.73"/>
<polygon fill="#63b8ff" stroke="#63b8ff" points="148.64,-817.46 158.99,-819.71 152.3,-811.5 148.64,-817.46"/>
</a>
</g>
</g>
<!-- Node12 -->
<g id="Node000012" class="node">
<title>Node12</title>
<g id="a_Node000012"><a xlink:href="../../d7/da7/class_shape.html#a8b5e05c84e401dddad339a15fa7d8ab1" target="_top" xlink:title=" ">
<polygon fill="white" stroke="#666666" points="290.38,-801.25 178.38,-801.25 178.38,-782 290.38,-782 290.38,-801.25"/>
<text text-anchor="middle" x="234.38" y="-787.75" font-family="Helvetica,sans-Serif" font-size="10.00">Shape::getBrushColor</text>
</a>
</g>
</g>
<!-- Node1&#45;&gt;Node12 -->
<g id="edge11_Node000001_Node000012" class="edge">
<title>Node1&#45;&gt;Node12</title>
<g id="a_edge11_Node000001_Node000012"><a xlink:title=" ">
<path fill="none" stroke="#63b8ff" d="M58.61,-603.29C65.79,-639.49 88.73,-729.22 145.75,-773.62 152.08,-778.55 159.42,-782.23 167.11,-784.95"/>
<polygon fill="#63b8ff" stroke="#63b8ff" points="166.11,-788.3 176.69,-787.77 168.09,-781.59 166.11,-788.3"/>
</a>
</g>
</g>
<!-- Node13 -->
<g id="Node000013" class="node">
<title>Node13</title>
<g id="a_Node000013"><a xlink:href="../../d7/da7/class_shape.html#a32f4199b1d1c9283c88e4199e787be2e" target="_top" xlink:title=" ">
<polygon fill="white" stroke="#666666" points="291.12,-764.25 177.62,-764.25 177.62,-745 291.12,-745 291.12,-764.25"/>
<text text-anchor="middle" x="234.38" y="-750.75" font-family="Helvetica,sans-Serif" font-size="10.00">Shape::getBrushItems</text>
</a>
</g>
</g>
<!-- Node1&#45;&gt;Node13 -->
<g id="edge12_Node000001_Node000013" class="edge">
<title>Node1&#45;&gt;Node13</title>
<g id="a_edge12_Node000001_Node000013"><a xlink:title=" ">
<path fill="none" stroke="#63b8ff" d="M60.56,-603.18C70.68,-633.97 97.65,-702.62 145.75,-736.62 151.97,-741.02 159.02,-744.39 166.36,-746.97"/>
<polygon fill="#63b8ff" stroke="#63b8ff" points="165.22,-750.29 175.8,-749.78 167.22,-743.58 165.22,-750.29"/>
</a>
</g>
</g>
<!-- Node14 -->
<g id="Node000014" class="node">
<title>Node14</title>
<g id="a_Node000014"><a xlink:href="../../d7/da7/class_shape.html#af9f3e91f66f410f59065a28bb8021d4d" target="_top" xlink:title=" ">
<polygon fill="white" stroke="#666666" points="299.75,-727.25 169,-727.25 169,-708 299.75,-708 299.75,-727.25"/>
<text text-anchor="middle" x="234.38" y="-713.75" font-family="Helvetica,sans-Serif" font-size="10.00">Shape::getBrushItemsEnd</text>
</a>
</g>
</g>
<!-- Node1&#45;&gt;Node14 -->
<g id="edge13_Node000001_Node000014" class="edge">
<title>Node1&#45;&gt;Node14</title>
<g id="a_edge13_Node000001_Node000014"><a xlink:title=" ">
<path fill="none" stroke="#63b8ff" d="M63.7,-603.14C76.98,-627.79 106.4,-675.57 145.75,-699.62 149.59,-701.97 153.69,-704.02 157.93,-705.8"/>
<polygon fill="#63b8ff" stroke="#63b8ff" points="156.69,-709.08 167.29,-709.2 159.08,-702.5 156.69,-709.08"/>
</a>
</g>
</g>
<!-- Node15 -->
<g id="Node000015" class="node">
<title>Node15</title>
<g id="a_Node000015"><a xlink:href="../../d7/da7/class_shape.html#a32e7b26329177063e40671687a0c62be" target="_top" xlink:title=" ">
<polygon fill="white" stroke="#666666" points="290,-690.25 178.75,-690.25 178.75,-671 290,-671 290,-690.25"/>
<text text-anchor="middle" x="234.38" y="-676.75" font-family="Helvetica,sans-Serif" font-size="10.00">Shape::getBrushStyle</text>
</a>
</g>
</g>
<!-- Node1&#45;&gt;Node15 -->
<g id="edge14_Node000001_Node000015" class="edge">
<title>Node1&#45;&gt;Node15</title>
<g id="a_edge14_Node000001_Node000015"><a xlink:title=" ">
<path fill="none" stroke="#63b8ff" d="M69.82,-603.17C86.24,-620.47 115.18,-647.89 145.75,-662.62 152.52,-665.89 159.86,-668.56 167.31,-670.75"/>
<polygon fill="#63b8ff" stroke="#63b8ff" points="166.23,-674.08 176.79,-673.23 168.01,-667.31 166.23,-674.08"/>
</a>
</g>
</g>
<!-- Node16 -->
<g id="Node000016" class="node">
<title>Node16</title>
<g id="a_Node000016"><a xlink:href="../../d7/da7/class_shape.html#a4718fe1b6fc5d30e83a8761175b77344" target="_top" xlink:title=" ">
<polygon fill="white" stroke="#666666" points="285.88,-653.25 182.88,-653.25 182.88,-634 285.88,-634 285.88,-653.25"/>
<text text-anchor="middle" x="234.38" y="-639.75" font-family="Helvetica,sans-Serif" font-size="10.00">Shape::getChildEnd</text>
</a>
</g>
</g>
<!-- Node1&#45;&gt;Node16 -->
<g id="edge15_Node000001_Node000016" class="edge">
<title>Node1&#45;&gt;Node16</title>
<g id="a_edge15_Node000001_Node000016"><a xlink:title=" ">
<path fill="none" stroke="#63b8ff" d="M88.58,-603.3C105.38,-610.87 126.34,-619.59 145.75,-625.62 153.9,-628.16 162.58,-630.43 171.2,-632.44"/>
<polygon fill="#63b8ff" stroke="#63b8ff" points="170.44,-635.86 180.96,-634.6 171.95,-629.02 170.44,-635.86"/>
</a>
</g>
</g>
<!-- Node17 -->
<g id="Node000017" class="node">
<title>Node17</title>
<g id="a_Node000017"><a xlink:href="../../d7/da7/class_shape.html#a8e5d4c7be5890c73cab44af6005573d4" target="_top" xlink:title=" ">
<polygon fill="white" stroke="#666666" points="289.62,-616.25 179.12,-616.25 179.12,-597 289.62,-597 289.62,-616.25"/>
<text text-anchor="middle" x="234.38" y="-602.75" font-family="Helvetica,sans-Serif" font-size="10.00">Shape::getChildItems</text>
</a>
</g>
</g>
<!-- Node1&#45;&gt;Node17 -->
<g id="edge16_Node000001_Node000017" class="edge">
<title>Node1&#45;&gt;Node17</title>
<g id="a_edge16_Node000001_Node000017"><a xlink:title=" ">
<path fill="none" stroke="#63b8ff" d="M110.1,-593.43C128.25,-595.37 148.68,-597.56 167.62,-599.59"/>
<polygon fill="#63b8ff" stroke="#63b8ff" points="167.05,-603.05 177.37,-600.63 167.8,-596.09 167.05,-603.05"/>
</a>
</g>
</g>
<!-- Node18 -->
<g id="Node000018" class="node">
<title>Node18</title>
<g id="a_Node000018"><a xlink:href="../../da/d0e/class_text.html#ace6ab02148fe23efffcd3f7c3dde9183" target="_top" xlink:title=" ">
<polygon fill="white" stroke="#666666" points="271.25,-579.25 197.5,-579.25 197.5,-560 271.25,-560 271.25,-579.25"/>
<text text-anchor="middle" x="234.38" y="-565.75" font-family="Helvetica,sans-Serif" font-size="10.00">Text::getFont</text>
</a>
</g>
</g>
<!-- Node1&#45;&gt;Node18 -->
<g id="edge17_Node000001_Node000018" class="edge">
<title>Node1&#45;&gt;Node18</title>
<g id="a_edge17_Node000001_Node000018"><a xlink:title=" ">
<path fill="none" stroke="#63b8ff" d="M110.1,-582.13C134.25,-579.68 162.46,-576.82 185.79,-574.45"/>
<polygon fill="#63b8ff" stroke="#63b8ff" points="186.05,-577.94 195.65,-573.45 185.34,-570.98 186.05,-577.94"/>
</a>
</g>
</g>
<!-- Node19 -->
<g id="Node000019" class="node">
<title>Node19</title>
<g id="a_Node000019"><a xlink:href="../../da/d0e/class_text.html#a0a3c00384e73eed7af1d20cffca51b18" target="_top" xlink:title=" ">
<polygon fill="white" stroke="#666666" points="282.5,-542.25 186.25,-542.25 186.25,-523 282.5,-523 282.5,-542.25"/>
<text text-anchor="middle" x="234.38" y="-528.75" font-family="Helvetica,sans-Serif" font-size="10.00">Text::getFontStyle</text>
</a>
</g>
</g>
<!-- Node1&#45;&gt;Node19 -->
<g id="edge18_Node000001_Node000019" class="edge">
<title>Node1&#45;&gt;Node19</title>
<g id="a_edge18_Node000001_Node000019"><a xlink:title=" ">
<path fill="none" stroke="#63b8ff" d="M89.47,-572.03C106.13,-564.76 126.71,-556.44 145.75,-550.62 155.14,-547.76 165.23,-545.21 175.11,-542.99"/>
<polygon fill="#63b8ff" stroke="#63b8ff" points="175.6,-546.47 184.65,-540.96 174.13,-539.62 175.6,-546.47"/>
</a>
</g>
</g>
<!-- Node20 -->
<g id="Node000020" class="node">
<title>Node20</title>
<g id="a_Node000020"><a xlink:href="../../da/d0e/class_text.html#a4b4b411734e3f6ceace9e73d293e2f64" target="_top" xlink:title=" ">
<polygon fill="white" stroke="#666666" points="286.25,-505.25 182.5,-505.25 182.5,-486 286.25,-486 286.25,-505.25"/>
<text text-anchor="middle" x="234.38" y="-491.75" font-family="Helvetica,sans-Serif" font-size="10.00">Text::getFontWeight</text>
</a>
</g>
</g>
<!-- Node1&#45;&gt;Node20 -->
<g id="edge19_Node000001_Node000020" class="edge">
<title>Node1&#45;&gt;Node20</title>
<g id="a_edge19_Node000001_Node000020"><a xlink:title=" ">
<path fill="none" stroke="#63b8ff" d="M70.16,-571.98C86.67,-554.91 115.48,-528.09 145.75,-513.62 153.73,-509.81 162.5,-506.8 171.31,-504.43"/>
<polygon fill="#63b8ff" stroke="#63b8ff" points="172.05,-507.85 180.96,-502.11 170.42,-501.05 172.05,-507.85"/>
</a>
</g>
</g>
<!-- Node21 -->
<g id="Node000021" class="node">
<title>Node21</title>
<g id="a_Node000021"><a xlink:href="../../d7/da7/class_shape.html#a3cca235345ab6f173c4e52a8598ee6b1" target="_top" xlink:title=" ">
<polygon fill="white" stroke="#666666" points="290,-468.25 178.75,-468.25 178.75,-449 290,-449 290,-468.25"/>
<text text-anchor="middle" x="234.38" y="-454.75" font-family="Helvetica,sans-Serif" font-size="10.00">Shape::getParentItem</text>
</a>
</g>
</g>
<!-- Node1&#45;&gt;Node21 -->
<g id="edge20_Node000001_Node000021" class="edge">
<title>Node1&#45;&gt;Node21</title>
<g id="a_edge20_Node000001_Node000021"><a xlink:title=" ">
<path fill="none" stroke="#63b8ff" d="M63.74,-572.25C77.07,-547.81 106.56,-500.46 145.75,-476.62 152.42,-472.57 159.86,-469.41 167.5,-466.95"/>
<polygon fill="#63b8ff" stroke="#63b8ff" points="168.22,-470.38 176.91,-464.33 166.34,-463.64 168.22,-470.38"/>
</a>
</g>
</g>
<!-- Node22 -->
<g id="Node000022" class="node">
<title>Node22</title>
<g id="a_Node000022"><a xlink:href="../../d7/da7/class_shape.html#a1eaba6ddbc4404e64fc6910fa9a9fa11" target="_top" xlink:title=" ">
<polygon fill="white" stroke="#666666" points="294.88,-431.25 173.88,-431.25 173.88,-412 294.88,-412 294.88,-431.25"/>
<text text-anchor="middle" x="234.38" y="-417.75" font-family="Helvetica,sans-Serif" font-size="10.00">Shape::getPenCapStyle</text>
</a>
</g>
</g>
<!-- Node1&#45;&gt;Node22 -->
<g id="edge21_Node000001_Node000022" class="edge">
<title>Node1&#45;&gt;Node22</title>
<g id="a_edge21_Node000001_Node000022"><a xlink:title=" ">
<path fill="none" stroke="#63b8ff" d="M60.59,-572.17C70.77,-541.59 97.83,-473.39 145.75,-439.62 151.04,-435.9 156.92,-432.91 163.07,-430.52"/>
<polygon fill="#63b8ff" stroke="#63b8ff" points="163.78,-433.97 172.17,-427.5 161.58,-427.32 163.78,-433.97"/>
</a>
</g>
</g>
<!-- Node23 -->
<g id="Node000023" class="node">
<title>Node23</title>
<g id="a_Node000023"><a xlink:href="../../d7/da7/class_shape.html#a4cbfcdf734ed9633dfb4dad1dab1cb6f" target="_top" xlink:title=" ">
<polygon fill="white" stroke="#666666" points="286.25,-394.25 182.5,-394.25 182.5,-375 286.25,-375 286.25,-394.25"/>
<text text-anchor="middle" x="234.38" y="-380.75" font-family="Helvetica,sans-Serif" font-size="10.00">Shape::getPenColor</text>
</a>
</g>
</g>
<!-- Node1&#45;&gt;Node23 -->
<g id="edge22_Node000001_Node000023" class="edge">
<title>Node1&#45;&gt;Node23</title>
<g id="a_edge22_Node000001_Node000023"><a xlink:title=" ">
<path fill="none" stroke="#63b8ff" d="M58.64,-572.04C65.88,-536.04 88.94,-446.77 145.75,-402.62 153.24,-396.8 162.15,-392.74 171.37,-389.92"/>
<polygon fill="#63b8ff" stroke="#63b8ff" points="171.97,-393.37 180.8,-387.52 170.25,-386.59 171.97,-393.37"/>
</a>
</g>
</g>
<!-- Node24 -->
<g id="Node000024" class="node">
<title>Node24</title>
<g id="a_Node000024"><a xlink:href="../../d7/da7/class_shape.html#a633352978d8776c142b848b8d682587a" target="_top" xlink:title=" ">
<polygon fill="white" stroke="#666666" points="483.38,-337.25 378.12,-337.25 378.12,-318 483.38,-318 483.38,-337.25"/>
<text text-anchor="middle" x="430.75" y="-323.75" font-family="Helvetica,sans-Serif" font-size="10.00">Shape::getPenItems</text>
</a>
</g>
</g>
<!-- Node1&#45;&gt;Node24 -->
<g id="edge23_Node000001_Node000024" class="edge">
<title>Node1&#45;&gt;Node24</title>
<g id="a_edge23_Node000001_Node000024"><a xlink:title=" ">
<path fill="none" stroke="#63b8ff" d="M57.02,-572.14C60.95,-530.96 77.73,-418.37 145.75,-365.62 179.15,-339.73 293.32,-331.47 366.33,-328.84"/>
<polygon fill="#63b8ff" stroke="#63b8ff" points="366.28,-332.34 376.16,-328.52 366.05,-325.35 366.28,-332.34"/>
</a>
</g>
</g>
<!-- Node25 -->
<g id="Node000025" class="node">
<title>Node25</title>
<g id="a_Node000025"><a xlink:href="../../d7/da7/class_shape.html#a581611275dae291b4d82927dcd6114b7" target="_top" xlink:title=" ">
<polygon fill="white" stroke="#666666" points="492,-290.25 369.5,-290.25 369.5,-271 492,-271 492,-290.25"/>
<text text-anchor="middle" x="430.75" y="-276.75" font-family="Helvetica,sans-Serif" font-size="10.00">Shape::getPenItemsEnd</text>
</a>
</g>
</g>
<!-- Node1&#45;&gt;Node25 -->
<g id="edge24_Node000001_Node000025" class="edge">
<title>Node1&#45;&gt;Node25</title>
<g id="a_edge24_Node000001_Node000025"><a xlink:title=" ">
<path fill="none" stroke="#63b8ff" d="M58.14,-572.25C66.71,-516.37 99.03,-325.49 145.75,-289.62 215.41,-236.14 325.53,-252.69 386.15,-267.74"/>
<polygon fill="#63b8ff" stroke="#63b8ff" points="385.2,-271.11 395.76,-270.23 386.96,-264.33 385.2,-271.11"/>
</a>
</g>
</g>
<!-- Node26 -->
<g id="Node000026" class="node">
<title>Node26</title>
<g id="a_Node000026"><a xlink:href="../../d7/da7/class_shape.html#a7cf1547b5328248b8a4c066b4c714efa" target="_top" xlink:title=" ">
<polygon fill="white" stroke="#666666" points="294.88,-204.25 173.88,-204.25 173.88,-185 294.88,-185 294.88,-204.25"/>
<text text-anchor="middle" x="234.38" y="-190.75" font-family="Helvetica,sans-Serif" font-size="10.00">Shape::getPenJoinStyle</text>
</a>
</g>
</g>
<!-- Node1&#45;&gt;Node26 -->
<g id="edge25_Node000001_Node000026" class="edge">
<title>Node1&#45;&gt;Node26</title>
<g id="a_edge25_Node000001_Node000026"><a xlink:title=" ">
<path fill="none" stroke="#63b8ff" d="M57.56,-572.18C64.75,-508.98 94.85,-270.99 145.75,-218.62 150.73,-213.5 156.69,-209.44 163.12,-206.23"/>
<polygon fill="#63b8ff" stroke="#63b8ff" points="164.3,-209.53 172.16,-202.43 161.59,-203.08 164.3,-209.53"/>
</a>
</g>
</g>
<!-- Node27 -->
<g id="Node000027" class="node">
<title>Node27</title>
<g id="a_Node000027"><a xlink:href="../../d7/da7/class_shape.html#ad336858f193d765d831deb9ce29246aa" target="_top" xlink:title=" ">
<polygon fill="white" stroke="#666666" points="285.88,-167.25 182.88,-167.25 182.88,-148 285.88,-148 285.88,-167.25"/>
<text text-anchor="middle" x="234.38" y="-153.75" font-family="Helvetica,sans-Serif" font-size="10.00">Shape::getPenStyle</text>
</a>
</g>
</g>
<!-- Node1&#45;&gt;Node27 -->
<g id="edge26_Node000001_Node000027" class="edge">
<title>Node1&#45;&gt;Node27</title>
<g id="a_edge26_Node000001_Node000027"><a xlink:title=" ">
<path fill="none" stroke="#63b8ff" d="M57.04,-572.17C62.47,-504.25 87.55,-233.12 145.75,-175.62 152.89,-168.57 162.02,-163.93 171.67,-160.93"/>
<polygon fill="#63b8ff" stroke="#63b8ff" points="172.37,-164.36 181.24,-158.57 170.7,-157.57 172.37,-164.36"/>
</a>
</g>
</g>
<!-- Node28 -->
<g id="Node000028" class="node">
<title>Node28</title>
<g id="a_Node000028"><a xlink:href="../../d7/da7/class_shape.html#a400f7b5ca58fc561b106a3a672f3f432" target="_top" xlink:title=" ">
<polygon fill="white" stroke="#666666" points="287.38,-130.25 181.38,-130.25 181.38,-111 287.38,-111 287.38,-130.25"/>
<text text-anchor="middle" x="234.38" y="-116.75" font-family="Helvetica,sans-Serif" font-size="10.00">Shape::getPenWidth</text>
</a>
</g>
</g>
<!-- Node1&#45;&gt;Node28 -->
<g id="edge27_Node000001_Node000028" class="edge">
<title>Node1&#45;&gt;Node28</title>
<g id="a_edge27_Node000001_Node000028"><a xlink:title=" ">
<path fill="none" stroke="#63b8ff" d="M56.73,-572.26C61.05,-500.82 82.67,-202.02 145.75,-138.62 152.52,-131.82 161.13,-127.25 170.3,-124.24"/>
<polygon fill="#63b8ff" stroke="#63b8ff" points="170.98,-127.67 179.77,-121.75 169.21,-120.9 170.98,-127.67"/>
</a>
</g>
</g>
<!-- Node29 -->
<g id="Node000029" class="node">
<title>Node29</title>
<g id="a_Node000029"><a xlink:href="../../d7/da7/class_shape.html#a4b502262ae5a22122456b9624d5ccb3d" target="_top" xlink:title="Accessor Functions &#45; Returns the data named after them.">
<polygon fill="white" stroke="#666666" points="284,-93.25 184.75,-93.25 184.75,-74 284,-74 284,-93.25"/>
<text text-anchor="middle" x="234.38" y="-79.75" font-family="Helvetica,sans-Serif" font-size="10.00">Shape::getShapeId</text>
</a>
</g>
</g>
<!-- Node1&#45;&gt;Node29 -->
<g id="edge28_Node000001_Node000029" class="edge">
<title>Node1&#45;&gt;Node29</title>
<g id="a_edge28_Node000001_Node000029"><a xlink:title=" ">
<path fill="none" stroke="#63b8ff" d="M56.49,-572.02C59.8,-496.62 77.87,-170.86 145.75,-101.62 153.25,-93.97 163.08,-89.14 173.44,-86.16"/>
<polygon fill="#63b8ff" stroke="#63b8ff" points="173.88,-89.64 182.86,-84.02 172.34,-82.82 173.88,-89.64"/>
</a>
</g>
</g>
<!-- Node30 -->
<g id="Node000030" class="node">
<title>Node30</title>
<g id="a_Node000030"><a xlink:href="../../da/d0e/class_text.html#a3d6716fc88f895932e2c96940188c647" target="_top" xlink:title=" ">
<polygon fill="white" stroke="#666666" points="292.62,-56.25 176.12,-56.25 176.12,-37 292.62,-37 292.62,-56.25"/>
<text text-anchor="middle" x="234.38" y="-42.75" font-family="Helvetica,sans-Serif" font-size="10.00">Text::getTextAlignment</text>
</a>
</g>
</g>
<!-- Node1&#45;&gt;Node30 -->
<g id="edge29_Node000001_Node000030" class="edge">
<title>Node1&#45;&gt;Node30</title>
<g id="a_edge29_Node000001_Node000030"><a xlink:title=" ">
<path fill="none" stroke="#63b8ff" d="M56.27,-571.9C58.61,-492.87 73.02,-139.75 145.75,-64.62 151.19,-59 157.89,-54.9 165.13,-51.93"/>
<polygon fill="#63b8ff" stroke="#63b8ff" points="166.21,-55.26 174.62,-48.82 164.02,-48.61 166.21,-55.26"/>
</a>
</g>
</g>
<!-- Node31 -->
<g id="Node000031" class="node">
<title>Node31</title>
<g id="a_Node000031"><a xlink:href="../../d7/da7/class_shape.html#aec4675c2b06d40373eefac4b982af242" target="_top" xlink:title=" ">
<polygon fill="white" stroke="#666666" points="483,-242.25 378.5,-242.25 378.5,-223 483,-223 483,-242.25"/>
<text text-anchor="middle" x="430.75" y="-228.75" font-family="Helvetica,sans-Serif" font-size="10.00">Shape::getTrackerId</text>
</a>
</g>
</g>
<!-- Node1&#45;&gt;Node31 -->
<g id="edge30_Node000001_Node000031" class="edge">
<title>Node1&#45;&gt;Node31</title>
<g id="a_edge30_Node000001_Node000031"><a xlink:title=" ">
<path fill="none" stroke="#63b8ff" d="M57.63,-571.91C64.77,-510.89 93.84,-290.95 145.75,-248.62 178.36,-222.04 293.37,-223.76 366.64,-227.88"/>
<polygon fill="#63b8ff" stroke="#63b8ff" points="366.33,-231.36 376.52,-228.46 366.74,-224.38 366.33,-231.36"/>
</a>
</g>
</g>
<!-- Node32 -->
<g id="Node000032" class="node">
<title>Node32</title>
<g id="a_Node000032"><a xlink:href="../../d9/dc6/class_main_window.html#ab5aea14b9366d3d78c9d6e9353e8f5d0" target="_top" xlink:title="Slot triggered when a QComboBox value in the tree widget changes.">
<polygon fill="white" stroke="#666666" points="322.62,-19.25 146.12,-19.25 146.12,0 322.62,0 322.62,-19.25"/>
<text text-anchor="middle" x="234.38" y="-5.75" font-family="Helvetica,sans-Serif" font-size="10.00">MainWindow::onComboBoxChanged</text>
</a>
</g>
</g>
<!-- Node1&#45;&gt;Node32 -->
<g id="edge31_Node000001_Node000032" class="edge">
<title>Node1&#45;&gt;Node32</title>
<g id="a_edge31_Node000001_Node000032"><a xlink:title=" ">
<path fill="none" stroke="#63b8ff" d="M56.08,-571.9C57.48,-489.56 68.12,-108.71 145.75,-27.62 146.13,-27.23 146.51,-26.85 146.9,-26.47"/>
<polygon fill="#63b8ff" stroke="#63b8ff" points="148.87,-29.37 154.63,-20.48 144.58,-23.84 148.87,-29.37"/>
</a>
</g>
</g>
<!-- Node34 -->
<g id="Node000034" class="node">
<title>Node34</title>
<g id="a_Node000034"><a xlink:href="../../d9/dc6/class_main_window.html#a7d524432f3c348d51c52b6bbca13df57" target="_top" xlink:title="Slot triggered when a QSpinBox value in the tree widget changes.">
<polygon fill="white" stroke="#666666" points="316.62,-318.25 152.12,-318.25 152.12,-299 316.62,-299 316.62,-318.25"/>
<text text-anchor="middle" x="234.38" y="-304.75" font-family="Helvetica,sans-Serif" font-size="10.00">MainWindow::onSpinBoxChanged</text>
</a>
</g>
</g>
<!-- Node1&#45;&gt;Node34 -->
<g id="edge33_Node000001_Node000034" class="edge">
<title>Node1&#45;&gt;Node34</title>
<g id="a_edge33_Node000001_Node000034"><a xlink:title=" ">
<path fill="none" stroke="#63b8ff" d="M56.57,-572.07C59.41,-527.74 73.77,-399.63 145.75,-332.62 149.49,-329.15 153.68,-326.16 158.16,-323.61"/>
<polygon fill="#63b8ff" stroke="#63b8ff" points="159.51,-326.84 166.97,-319.32 156.45,-320.54 159.51,-326.84"/>
</a>
</g>
</g>
<!-- Node33 -->
<g id="Node000033" class="node">
<title>Node33</title>
<g id="a_Node000033"><a xlink:href="../../d9/dc6/class_main_window.html#af971d03f10fd514287332e2adfd79bea" target="_top" xlink:title="Emitted when a property of an existing shape is changed.">
<polygon fill="white" stroke="#666666" points="502.5,-19.25 359,-19.25 359,0 502.5,0 502.5,-19.25"/>
<text text-anchor="middle" x="430.75" y="-5.75" font-family="Helvetica,sans-Serif" font-size="10.00">MainWindow::shapeChanged</text>
</a>
</g>
</g>
<!-- Node32&#45;&gt;Node33 -->
<g id="edge32_Node000032_Node000033" class="edge">
<title>Node32&#45;&gt;Node33</title>
<g id="a_edge32_Node000032_Node000033"><a xlink:title=" ">
<path fill="none" stroke="#63b8ff" d="M322.9,-9.62C331.05,-9.62 339.29,-9.62 347.39,-9.62"/>
<polygon fill="#63b8ff" stroke="#63b8ff" points="347.21,-13.13 357.21,-9.63 347.21,-6.13 347.21,-13.13"/>
</a>
</g>
</g>
<!-- Node34&#45;&gt;Node24 -->
<g id="edge34_Node000034_Node000024" class="edge">
<title>Node34&#45;&gt;Node24</title>
<g id="a_edge34_Node000034_Node000024"><a xlink:title=" ">
<path fill="none" stroke="#63b8ff" d="M316.96,-316.6C333.52,-318.22 350.69,-319.9 366.49,-321.44"/>
<polygon fill="#63b8ff" stroke="#63b8ff" points="365.93,-324.9 376.22,-322.39 366.61,-317.94 365.93,-324.9"/>
</a>
</g>
</g>
<!-- Node34&#45;&gt;Node25 -->
<g id="edge35_Node000034_Node000025" class="edge">
<title>Node34&#45;&gt;Node25</title>
<g id="a_edge35_Node000034_Node000025"><a xlink:title=" ">
<path fill="none" stroke="#63b8ff" d="M305.55,-298.52C322.68,-296.05 341.02,-293.41 358.21,-290.93"/>
<polygon fill="#63b8ff" stroke="#63b8ff" points="358.42,-294.44 367.82,-289.55 357.42,-287.51 358.42,-294.44"/>
</a>
</g>
</g>
<!-- Node34&#45;&gt;Node31 -->
<g id="edge36_Node000034_Node000031" class="edge">
<title>Node34&#45;&gt;Node31</title>
<g id="a_edge36_Node000034_Node000031"><a xlink:title=" ">
<path fill="none" stroke="#63b8ff" d="M261.19,-298.53C295.26,-285.21 355.43,-261.68 393.9,-246.64"/>
<polygon fill="#63b8ff" stroke="#63b8ff" points="394.69,-250.09 402.73,-243.19 392.14,-243.57 394.69,-250.09"/>
</a>
</g>
</g>
</g>
</svg>

<g id="navigator" transform="translate(0 0)" fill="#404254">
  <rect fill="#f2f5e9" fill-opacity="0.5" stroke="#606060" stroke-width=".5" x="0" y="0" width="60" height="60"/>
  <use id="zoomplus" xlink:href="#zoomPlus" x="17" y="9" onmousedown="handleZoom(evt,'in')"/>
  <use id="zoomminus" xlink:href="#zoomMin" x="42" y="9" onmousedown="handleZoom(evt,'out')"/>
  <use id="reset" xlink:href="#resetDef" x="30" y="36" onmousedown="handleReset()"/>
   <use id="arrowup" xlink:href="#arrowUp" x="0" y="0" onmousedown="handlePan(0,-1)"/>
  <use id="arrowright" xlink:href="#arrowRight" x="0" y="0" onmousedown="handlePan(1,0)"/>
  <use id="arrowdown" xlink:href="#arrowDown" x="0" y="0" onmousedown="handlePan(0,1)"/>
  <use id="arrowleft" xlink:href="#arrowLeft" x="0" y="0" onmousedown="handlePan(-1,0)"/>
</g>
<svg viewBox="0 0 15 15" width="100%" height="30px" preserveAspectRatio="xMaxYMin meet">
 <g id="arrow_out" transform="scale(0.3 0.3)">
  <a xlink:href="class_main_window_a5ff173340d6b138bee993d26454d2aaa_cgraph_org.svg" target="_base">
   <rect id="button" ry="5" rx="5" y="6" x="6" height="38" width="38"
        fill="#f2f5e9" fill-opacity="0.5" stroke="#606060" stroke-width="1.0"/>
   <path id="arrow"
     d="M 11.500037,31.436501 C 11.940474,20.09759 22.043105,11.32322 32.158766,21.979434 L 37.068811,17.246167 C 37.068811,17.246167 37.088388,32 37.088388,32 L 22.160133,31.978069 C 22.160133,31.978069 26.997745,27.140456 26.997745,27.140456 C 18.528582,18.264221 13.291696,25.230495 11.500037,31.436501 z"
     style="fill:#404040;"/>
  </a>
 </g>
</svg>

<style type='text/css'>
<![CDATA[
[data-mouse-over-selected='false'] { opacity: 0.7; }
[data-mouse-over-selected='true']  { opacity: 1.0; }
]]>
</style>
<script type="application/ecmascript"><![CDATA[
document.addEventListener('DOMContentLoaded', (event) => {
  highlightEdges();
  highlightAdjacentNodes();
});
]]></script>
</svg>
