<?xml version="1.0" encoding="UTF-8" standalone="no"?>
<!DOCTYPE svg PUBLIC "-//W3C//DTD SVG 1.1//EN"
 "http://www.w3.org/Graphics/SVG/1.1/DTD/svg11.dtd">
<!-- Generated by graphviz version 12.2.1 (20241206.2353)
 -->
<!-- Title: MainWindow::shapeChanged Pages: 1 -->
<svg width="1113pt" height="476pt"
 viewBox="0.00 0.00 1113.00 475.88" xmlns="http://www.w3.org/2000/svg" xmlns:xlink="http://www.w3.org/1999/xlink">
<g id="graph0" class="graph" transform="scale(1 1) rotate(0) translate(4 471.88)">
<title>MainWindow::shapeChanged</title>
<!-- Node1 -->
<g id="Node000001" class="node">
<title>Node1</title>
<g id="a_Node000001"><a xlink:title="Emitted when a property of an existing shape is changed.">
<polygon fill="#999999" stroke="#666666" points="1105,-185.88 961.5,-185.88 961.5,-166.62 1105,-166.62 1105,-185.88"/>
<text text-anchor="middle" x="1033.25" y="-172.38" font-family="Helvetica,sans-Serif" font-size="10.00">MainWindow::shapeChanged</text>
</a>
</g>
</g>
<!-- Node2 -->
<g id="Node000002" class="node">
<title>Node2</title>
<g id="a_Node000002"><a xlink:href="../../d7/de6/class_app_driver.html#ad4932bc7c7019e2522503886c01ffe33" target="_top" xlink:title="Connects signals from the frontend UI to slots in this AppDriver.">
<polygon fill="white" stroke="#666666" points="713,-356.5 574.75,-356.5 574.75,-326 713,-326 713,-356.5"/>
<text text-anchor="start" x="582.75" y="-343" font-family="Helvetica,sans-Serif" font-size="10.00">AppDriver::connectFrontend</text>
<text text-anchor="middle" x="643.88" y="-331.75" font-family="Helvetica,sans-Serif" font-size="10.00">ToDriver</text>
</a>
</g>
</g>
<!-- Node1&#45;&gt;Node2 -->
<g id="edge1_Node000001_Node000002" class="edge">
<title>Node1&#45;&gt;Node2</title>
<g id="a_edge1_Node000001_Node000002"><a xlink:title=" ">
<path fill="none" stroke="#63b8ff" d="M998.23,-190.74C925.79,-221.6 756.77,-293.59 681.81,-325.52"/>
<polygon fill="#63b8ff" stroke="#63b8ff" points="999.38,-194.06 1007.21,-186.92 996.64,-187.61 999.38,-194.06"/>
</a>
</g>
</g>
<!-- Node5 -->
<g id="Node000005" class="node">
<title>Node5</title>
<g id="a_Node000005"><a xlink:href="../../d9/dc6/class_main_window.html#ab5aea14b9366d3d78c9d6e9353e8f5d0" target="_top" xlink:title="Slot triggered when a QComboBox value in the tree widget changes.">
<polygon fill="white" stroke="#666666" points="925.5,-185.88 749,-185.88 749,-166.62 925.5,-166.62 925.5,-185.88"/>
<text text-anchor="middle" x="837.25" y="-172.38" font-family="Helvetica,sans-Serif" font-size="10.00">MainWindow::onComboBoxChanged</text>
</a>
</g>
</g>
<!-- Node1&#45;&gt;Node5 -->
<g id="edge4_Node000001_Node000005" class="edge">
<title>Node1&#45;&gt;Node5</title>
<g id="a_edge4_Node000001_Node000005"><a xlink:title=" ">
<path fill="none" stroke="#63b8ff" d="M949.69,-176.25C941.81,-176.25 933.8,-176.25 925.87,-176.25"/>
<polygon fill="#63b8ff" stroke="#63b8ff" points="949.6,-179.75 959.6,-176.25 949.6,-172.75 949.6,-179.75"/>
</a>
</g>
</g>
<!-- Node19 -->
<g id="Node000019" class="node">
<title>Node19</title>
<g id="a_Node000019"><a xlink:href="../../d9/dc6/class_main_window.html#a29a83bfdca71f74fbfdf49686763a843" target="_top" xlink:title="Slot triggered when an item in the shape properties tree widget is changed.">
<polygon fill="white" stroke="#666666" points="906.75,-148.5 767.75,-148.5 767.75,-118 906.75,-118 906.75,-148.5"/>
<text text-anchor="start" x="775.75" y="-135" font-family="Helvetica,sans-Serif" font-size="10.00">MainWindow::onTreeWidget</text>
<text text-anchor="middle" x="837.25" y="-123.75" font-family="Helvetica,sans-Serif" font-size="10.00">ItemChanged</text>
</a>
</g>
</g>
<!-- Node1&#45;&gt;Node19 -->
<g id="edge20_Node000001_Node000019" class="edge">
<title>Node1&#45;&gt;Node19</title>
<g id="a_edge20_Node000001_Node000019"><a xlink:title=" ">
<path fill="none" stroke="#63b8ff" d="M975.54,-163.68C954.09,-158.93 929.45,-153.46 907.01,-148.49"/>
<polygon fill="#63b8ff" stroke="#63b8ff" points="974.77,-167.09 985.29,-165.84 976.28,-160.26 974.77,-167.09"/>
</a>
</g>
</g>
<!-- Node3 -->
<g id="Node000003" class="node">
<title>Node3</title>
<g id="a_Node000003"><a xlink:href="../../d7/de6/class_app_driver.html#af5bf7b6bd96161d95a0a67cc7693127d" target="_top" xlink:title="Initializes and shows the main application window and loads initial data.">
<polygon fill="white" stroke="#666666" points="152,-241.88 73,-241.88 73,-222.62 152,-222.62 152,-241.88"/>
<text text-anchor="middle" x="112.5" y="-228.38" font-family="Helvetica,sans-Serif" font-size="10.00">AppDriver::run</text>
</a>
</g>
</g>
<!-- Node2&#45;&gt;Node3 -->
<g id="edge2_Node000002_Node000003" class="edge">
<title>Node2&#45;&gt;Node3</title>
<g id="a_edge2_Node000002_Node000003"><a xlink:title=" ">
<path fill="none" stroke="#63b8ff" d="M610.09,-362.97C530.25,-412.88 322.49,-524.51 188,-431.25 122.52,-385.84 114.5,-275.39 113.59,-241.98"/>
<polygon fill="#63b8ff" stroke="#63b8ff" points="611.76,-366.05 618.33,-357.74 608.01,-360.14 611.76,-366.05"/>
</a>
</g>
</g>
<!-- Node4 -->
<g id="Node000004" class="node">
<title>Node4</title>
<g id="a_Node000004"><a xlink:href="../../d8/d80/src_2backend_2main_8cpp.html#a0ddf1224851353fc92bfbff6f499fa97" target="_top" xlink:title=" ">
<polygon fill="white" stroke="#666666" points="37,-241.88 0,-241.88 0,-222.62 37,-222.62 37,-241.88"/>
<text text-anchor="middle" x="18.5" y="-228.38" font-family="Helvetica,sans-Serif" font-size="10.00">main</text>
</a>
</g>
</g>
<!-- Node3&#45;&gt;Node4 -->
<g id="edge3_Node000003_Node000004" class="edge">
<title>Node3&#45;&gt;Node4</title>
<g id="a_edge3_Node000003_Node000004"><a xlink:title=" ">
<path fill="none" stroke="#63b8ff" d="M61.34,-232.25C52.67,-232.25 44.2,-232.25 37.18,-232.25"/>
<polygon fill="#63b8ff" stroke="#63b8ff" points="61.24,-235.75 71.24,-232.25 61.24,-228.75 61.24,-235.75"/>
</a>
</g>
</g>
<!-- Node6 -->
<g id="Node000006" class="node">
<title>Node6</title>
<g id="a_Node000006"><a xlink:href="../../d9/dc6/class_main_window.html#a5ff173340d6b138bee993d26454d2aaa" target="_top" xlink:title="Populates the tree widget with details of the current shapes and sets up editing controls.">
<polygon fill="white" stroke="#666666" points="698.75,-191.5 589,-191.5 589,-161 698.75,-161 698.75,-191.5"/>
<text text-anchor="start" x="597" y="-178" font-family="Helvetica,sans-Serif" font-size="10.00">MainWindow::shapes</text>
<text text-anchor="middle" x="643.88" y="-166.75" font-family="Helvetica,sans-Serif" font-size="10.00">_to_treeWidget</text>
</a>
</g>
</g>
<!-- Node5&#45;&gt;Node6 -->
<g id="edge5_Node000005_Node000006" class="edge">
<title>Node5&#45;&gt;Node6</title>
<g id="a_edge5_Node000005_Node000006"><a xlink:title=" ">
<path fill="none" stroke="#63b8ff" d="M737.55,-176.25C724.29,-176.25 711.1,-176.25 699.01,-176.25"/>
<polygon fill="#63b8ff" stroke="#63b8ff" points="737.17,-179.75 747.17,-176.25 737.17,-172.75 737.17,-179.75"/>
</a>
</g>
</g>
<!-- Node7 -->
<g id="Node000007" class="node">
<title>Node7</title>
<g id="a_Node000007"><a xlink:href="../../d9/dc6/class_main_window.html#afe8619a02bba82d0ad5e05065d6c0ea1" target="_top" xlink:title="Adds a given shape to the properties tree widget and emits shapeAdded signal.">
<polygon fill="white" stroke="#666666" points="528.62,-220.88 376.88,-220.88 376.88,-201.62 528.62,-201.62 528.62,-220.88"/>
<text text-anchor="middle" x="452.75" y="-207.38" font-family="Helvetica,sans-Serif" font-size="10.00">MainWindow::addToShapeTree</text>
</a>
</g>
</g>
<!-- Node6&#45;&gt;Node7 -->
<g id="edge6_Node000006_Node000007" class="edge">
<title>Node6&#45;&gt;Node7</title>
<g id="a_edge6_Node000006_Node000007"><a xlink:title=" ">
<path fill="none" stroke="#63b8ff" d="M577.48,-188.35C554.91,-192.53 529.89,-197.16 508.28,-201.16"/>
<polygon fill="#63b8ff" stroke="#63b8ff" points="577.99,-191.82 587.19,-186.56 576.72,-184.93 577.99,-191.82"/>
</a>
</g>
</g>
<!-- Node16 -->
<g id="Node000016" class="node">
<title>Node16</title>
<g id="a_Node000016"><a xlink:href="../../d9/dc6/class_main_window.html#a841a40f673ad191cd737b49591568446" target="_top" xlink:title="Slot triggered when the render area&#39;s content has changed, requiring a UI update.">
<polygon fill="white" stroke="#666666" points="523,-156.5 382.5,-156.5 382.5,-126 523,-126 523,-156.5"/>
<text text-anchor="start" x="390.5" y="-143" font-family="Helvetica,sans-Serif" font-size="10.00">MainWindow::onRenderArea</text>
<text text-anchor="middle" x="452.75" y="-131.75" font-family="Helvetica,sans-Serif" font-size="10.00">Changed</text>
</a>
</g>
</g>
<!-- Node6&#45;&gt;Node16 -->
<g id="edge15_Node000006_Node000016" class="edge">
<title>Node6&#45;&gt;Node16</title>
<g id="a_edge15_Node000006_Node000016"><a xlink:title=" ">
<path fill="none" stroke="#63b8ff" d="M577.41,-164.13C559.88,-160.89 540.88,-157.38 523.16,-154.09"/>
<polygon fill="#63b8ff" stroke="#63b8ff" points="576.72,-167.57 587.19,-165.94 577.99,-160.68 576.72,-167.57"/>
</a>
</g>
</g>
<!-- Node18 -->
<g id="Node000018" class="node">
<title>Node18</title>
<g id="a_Node000018"><a xlink:href="../../d9/dc6/class_main_window.html#a04d9898f7479308e0e7e2b8796426c2b" target="_top" xlink:title="Slot triggered upon successful user authentication. Updates UI with user info.">
<polygon fill="white" stroke="#666666" points="538.75,-52.88 366.75,-52.88 366.75,-33.62 538.75,-33.62 538.75,-52.88"/>
<text text-anchor="middle" x="452.75" y="-39.38" font-family="Helvetica,sans-Serif" font-size="10.00">MainWindow::onUserAuthentication</text>
</a>
</g>
</g>
<!-- Node6&#45;&gt;Node18 -->
<g id="edge18_Node000006_Node000018" class="edge">
<title>Node6&#45;&gt;Node18</title>
<g id="a_edge18_Node000006_Node000018"><a xlink:title=" ">
<path fill="none" stroke="#63b8ff" d="M580.56,-155.61C578.57,-154.53 576.63,-153.41 574.75,-152.25 555.78,-140.49 555.17,-132.36 538.75,-117.25 513.27,-93.8 482.39,-67.4 465.76,-53.34"/>
<polygon fill="#63b8ff" stroke="#63b8ff" points="578.93,-158.7 589.45,-159.93 581.99,-152.41 578.93,-158.7"/>
</a>
</g>
</g>
<!-- Node8 -->
<g id="Node000008" class="node">
<title>Node8</title>
<g id="a_Node000008"><a xlink:href="../../d9/dc6/class_main_window.html#a9b9bf9b3d640e2bcace3cbfdc5d75d8b" target="_top" xlink:title="Slot triggered to create and add a new Circle shape.">
<polygon fill="white" stroke="#666666" points="328.5,-422.5 190.25,-422.5 190.25,-392 328.5,-392 328.5,-422.5"/>
<text text-anchor="start" x="198.25" y="-409" font-family="Helvetica,sans-Serif" font-size="10.00">MainWindow::on_actionnew</text>
<text text-anchor="middle" x="259.38" y="-397.75" font-family="Helvetica,sans-Serif" font-size="10.00">_circle_button_triggered</text>
</a>
</g>
</g>
<!-- Node7&#45;&gt;Node8 -->
<g id="edge7_Node000007_Node000008" class="edge">
<title>Node7&#45;&gt;Node8</title>
<g id="a_edge7_Node000007_Node000008"><a xlink:title=" ">
<path fill="none" stroke="#63b8ff" d="M442.62,-231.45C425.59,-266.94 385.69,-340.64 330.75,-382.25 326,-385.85 320.68,-388.96 315.15,-391.65"/>
<polygon fill="#63b8ff" stroke="#63b8ff" points="445.63,-233.28 446.69,-222.73 439.29,-230.31 445.63,-233.28"/>
</a>
</g>
</g>
<!-- Node9 -->
<g id="Node000009" class="node">
<title>Node9</title>
<g id="a_Node000009"><a xlink:href="../../d9/dc6/class_main_window.html#a4e25fe2c6dd72b44efdf2d1b1e9c1846" target="_top" xlink:title="Slot triggered to create and add a new Ellipse shape.">
<polygon fill="white" stroke="#666666" points="328.5,-373.5 190.25,-373.5 190.25,-343 328.5,-343 328.5,-373.5"/>
<text text-anchor="start" x="198.25" y="-360" font-family="Helvetica,sans-Serif" font-size="10.00">MainWindow::on_actionnew</text>
<text text-anchor="middle" x="259.38" y="-348.75" font-family="Helvetica,sans-Serif" font-size="10.00">_ellipse_button_triggered</text>
</a>
</g>
</g>
<!-- Node7&#45;&gt;Node9 -->
<g id="edge8_Node000007_Node000009" class="edge">
<title>Node7&#45;&gt;Node9</title>
<g id="a_edge8_Node000007_Node000009"><a xlink:title=" ">
<path fill="none" stroke="#63b8ff" d="M437.46,-230.3C416.68,-256.81 375.64,-304.76 330.75,-333.25 325.17,-336.79 319.01,-339.92 312.74,-342.65"/>
<polygon fill="#63b8ff" stroke="#63b8ff" points="440.16,-232.54 443.48,-222.48 434.61,-228.27 440.16,-232.54"/>
</a>
</g>
</g>
<!-- Node10 -->
<g id="Node000010" class="node">
<title>Node10</title>
<g id="a_Node000010"><a xlink:href="../../d9/dc6/class_main_window.html#abd3987548635bfd1133f8f0d5e0a1879" target="_top" xlink:title="Slot triggered to create and add a new Line shape.">
<polygon fill="white" stroke="#666666" points="328.5,-324.5 190.25,-324.5 190.25,-294 328.5,-294 328.5,-324.5"/>
<text text-anchor="start" x="198.25" y="-311" font-family="Helvetica,sans-Serif" font-size="10.00">MainWindow::on_actionnew</text>
<text text-anchor="middle" x="259.38" y="-299.75" font-family="Helvetica,sans-Serif" font-size="10.00">_line_button_triggered</text>
</a>
</g>
</g>
<!-- Node7&#45;&gt;Node10 -->
<g id="edge9_Node000007_Node000010" class="edge">
<title>Node7&#45;&gt;Node10</title>
<g id="a_edge9_Node000007_Node000010"><a xlink:title=" ">
<path fill="none" stroke="#63b8ff" d="M428.1,-227.49C404.27,-243.37 366.06,-267.53 330.75,-284.25 323.72,-287.58 316.12,-290.72 308.6,-293.58"/>
<polygon fill="#63b8ff" stroke="#63b8ff" points="429.79,-230.57 436.13,-222.08 425.88,-224.76 429.79,-230.57"/>
</a>
</g>
</g>
<!-- Node11 -->
<g id="Node000011" class="node">
<title>Node11</title>
<g id="a_Node000011"><a xlink:href="../../d9/dc6/class_main_window.html#a28e2b0b2efac43e0553aef6a8d23aee5" target="_top" xlink:title="Slot triggered to create and add a new Polygon shape.">
<polygon fill="white" stroke="#666666" points="328.5,-275.5 190.25,-275.5 190.25,-245 328.5,-245 328.5,-275.5"/>
<text text-anchor="start" x="198.25" y="-262" font-family="Helvetica,sans-Serif" font-size="10.00">MainWindow::on_actionnew</text>
<text text-anchor="middle" x="259.38" y="-250.75" font-family="Helvetica,sans-Serif" font-size="10.00">_polygon_button_triggered</text>
</a>
</g>
</g>
<!-- Node7&#45;&gt;Node11 -->
<g id="edge10_Node000007_Node000011" class="edge">
<title>Node7&#45;&gt;Node11</title>
<g id="a_edge10_Node000007_Node000011"><a xlink:title=" ">
<path fill="none" stroke="#63b8ff" d="M401.72,-224.06C377.25,-230.33 347.57,-237.92 321.74,-244.54"/>
<polygon fill="#63b8ff" stroke="#63b8ff" points="402.28,-227.53 411.09,-221.66 400.54,-220.75 402.28,-227.53"/>
</a>
</g>
</g>
<!-- Node12 -->
<g id="Node000012" class="node">
<title>Node12</title>
<g id="a_Node000012"><a xlink:href="../../d9/dc6/class_main_window.html#ab4fc6a65cac38759157fd77d12497a89" target="_top" xlink:title="Slot triggered to create and add a new Polyline shape.">
<polygon fill="white" stroke="#666666" points="328.5,-226.5 190.25,-226.5 190.25,-196 328.5,-196 328.5,-226.5"/>
<text text-anchor="start" x="198.25" y="-213" font-family="Helvetica,sans-Serif" font-size="10.00">MainWindow::on_actionnew</text>
<text text-anchor="middle" x="259.38" y="-201.75" font-family="Helvetica,sans-Serif" font-size="10.00">_polyline_button_triggered</text>
</a>
</g>
</g>
<!-- Node7&#45;&gt;Node12 -->
<g id="edge11_Node000007_Node000012" class="edge">
<title>Node7&#45;&gt;Node12</title>
<g id="a_edge11_Node000007_Node000012"><a xlink:title=" ">
<path fill="none" stroke="#63b8ff" d="M364.88,-211.25C352.79,-211.25 340.51,-211.25 328.82,-211.25"/>
<polygon fill="#63b8ff" stroke="#63b8ff" points="364.87,-214.75 374.87,-211.25 364.87,-207.75 364.87,-214.75"/>
</a>
</g>
</g>
<!-- Node13 -->
<g id="Node000013" class="node">
<title>Node13</title>
<g id="a_Node000013"><a xlink:href="../../d9/dc6/class_main_window.html#af65e6b1a5513198eece131b1d164a978" target="_top" xlink:title="Slot triggered to create and add a new Rectangle shape.">
<polygon fill="white" stroke="#666666" points="328.5,-177.5 190.25,-177.5 190.25,-147 328.5,-147 328.5,-177.5"/>
<text text-anchor="start" x="198.25" y="-164" font-family="Helvetica,sans-Serif" font-size="10.00">MainWindow::on_actionnew</text>
<text text-anchor="middle" x="259.38" y="-152.75" font-family="Helvetica,sans-Serif" font-size="10.00">_rectange_button_triggered</text>
</a>
</g>
</g>
<!-- Node7&#45;&gt;Node13 -->
<g id="edge12_Node000007_Node000013" class="edge">
<title>Node7&#45;&gt;Node13</title>
<g id="a_edge12_Node000007_Node000013"><a xlink:title=" ">
<path fill="none" stroke="#63b8ff" d="M401.72,-198.44C377.25,-192.17 347.57,-184.58 321.74,-177.96"/>
<polygon fill="#63b8ff" stroke="#63b8ff" points="400.54,-201.75 411.09,-200.84 402.28,-194.97 400.54,-201.75"/>
</a>
</g>
</g>
<!-- Node14 -->
<g id="Node000014" class="node">
<title>Node14</title>
<g id="a_Node000014"><a xlink:href="../../d9/dc6/class_main_window.html#a7d1d40640f58ce6dd36eabcee8ecdc6e" target="_top" xlink:title="Slot triggered to create and add a new Square shape.">
<polygon fill="white" stroke="#666666" points="328.5,-128.5 190.25,-128.5 190.25,-98 328.5,-98 328.5,-128.5"/>
<text text-anchor="start" x="198.25" y="-115" font-family="Helvetica,sans-Serif" font-size="10.00">MainWindow::on_actionnew</text>
<text text-anchor="middle" x="259.38" y="-103.75" font-family="Helvetica,sans-Serif" font-size="10.00">_square_button_triggered</text>
</a>
</g>
</g>
<!-- Node7&#45;&gt;Node14 -->
<g id="edge13_Node000007_Node000014" class="edge">
<title>Node7&#45;&gt;Node14</title>
<g id="a_edge13_Node000007_Node000014"><a xlink:title=" ">
<path fill="none" stroke="#63b8ff" d="M421.18,-196.1C404.72,-187.59 384.25,-176.46 366.75,-165.25 349.91,-154.46 348.37,-147.71 330.75,-138.25 324.35,-134.82 317.39,-131.69 310.41,-128.9"/>
<polygon fill="#63b8ff" stroke="#63b8ff" points="419.5,-199.17 430,-200.59 422.68,-192.93 419.5,-199.17"/>
</a>
</g>
</g>
<!-- Node15 -->
<g id="Node000015" class="node">
<title>Node15</title>
<g id="a_Node000015"><a xlink:href="../../d9/dc6/class_main_window.html#aebcb152e26ef6d6bd4fc348e815fe8c8" target="_top" xlink:title="Slot triggered to create and add a new Text shape.">
<polygon fill="white" stroke="#666666" points="328.5,-79.5 190.25,-79.5 190.25,-49 328.5,-49 328.5,-79.5"/>
<text text-anchor="start" x="198.25" y="-66" font-family="Helvetica,sans-Serif" font-size="10.00">MainWindow::on_actionnew</text>
<text text-anchor="middle" x="259.38" y="-54.75" font-family="Helvetica,sans-Serif" font-size="10.00">_text_button_triggered</text>
</a>
</g>
</g>
<!-- Node7&#45;&gt;Node15 -->
<g id="edge14_Node000007_Node000015" class="edge">
<title>Node7&#45;&gt;Node15</title>
<g id="a_edge14_Node000007_Node000015"><a xlink:title=" ">
<path fill="none" stroke="#63b8ff" d="M413.05,-196.65C397.16,-189.16 379.53,-178.74 366.75,-165.25 341.04,-138.12 358.48,-114.31 330.75,-89.25 326.81,-85.69 322.32,-82.62 317.57,-79.99"/>
<polygon fill="#63b8ff" stroke="#63b8ff" points="411.23,-199.67 421.79,-200.54 414.08,-193.28 411.23,-199.67"/>
</a>
</g>
</g>
<!-- Node17 -->
<g id="Node000017" class="node">
<title>Node17</title>
<g id="a_Node000017"><a xlink:href="../../d7/de6/class_app_driver.html#af39fbba491cc4dc1d378d6e140507554" target="_top" xlink:title="Connects signals from backend managers to slots in the frontend UI.">
<polygon fill="white" stroke="#666666" points="330.75,-30.5 188,-30.5 188,0 330.75,0 330.75,-30.5"/>
<text text-anchor="start" x="196" y="-17" font-family="Helvetica,sans-Serif" font-size="10.00">AppDriver::connectManagers</text>
<text text-anchor="middle" x="259.38" y="-5.75" font-family="Helvetica,sans-Serif" font-size="10.00">ToFrontend</text>
</a>
</g>
</g>
<!-- Node16&#45;&gt;Node17 -->
<g id="edge16_Node000016_Node000017" class="edge">
<title>Node16&#45;&gt;Node17</title>
<g id="a_edge16_Node000016_Node000017"><a xlink:title=" ">
<path fill="none" stroke="#63b8ff" d="M428.57,-117.53C405.52,-95.06 368.26,-61.65 330.75,-40.25 324.67,-36.78 318.02,-33.66 311.32,-30.9"/>
<polygon fill="#63b8ff" stroke="#63b8ff" points="426.03,-119.94 435.6,-124.49 430.96,-114.97 426.03,-119.94"/>
</a>
</g>
</g>
<!-- Node17&#45;&gt;Node3 -->
<g id="edge17_Node000017_Node000003" class="edge">
<title>Node17&#45;&gt;Node3</title>
<g id="a_edge17_Node000017_Node000003"><a xlink:title=" ">
<path fill="none" stroke="#63b8ff" d="M191.26,-37.32C190.14,-38.26 189.05,-39.23 188,-40.25 133.38,-93.32 118.08,-191 114.48,-222.31"/>
<polygon fill="#63b8ff" stroke="#63b8ff" points="193.08,-40.32 199.32,-31.75 189.1,-34.56 193.08,-40.32"/>
</a>
</g>
</g>
<!-- Node18&#45;&gt;Node17 -->
<g id="edge19_Node000018_Node000017" class="edge">
<title>Node18&#45;&gt;Node17</title>
<g id="a_edge19_Node000018_Node000017"><a xlink:title=" ">
<path fill="none" stroke="#63b8ff" d="M371.48,-31.51C358.03,-29.54 344.16,-27.51 330.97,-25.58"/>
<polygon fill="#63b8ff" stroke="#63b8ff" points="370.76,-34.94 381.16,-32.92 371.77,-28.01 370.76,-34.94"/>
</a>
</g>
</g>
<!-- Node20 -->
<g id="Node000020" class="node">
<title>Node20</title>
<g id="a_Node000020"><a xlink:href="../../d9/dc6/class_main_window.html#a25d06b6f11a1eb7fa2239f01e853ae29" target="_top" xlink:title=" ">
<polygon fill="white" stroke="#666666" points="711.12,-142.88 576.62,-142.88 576.62,-123.62 711.12,-123.62 711.12,-142.88"/>
<text text-anchor="middle" x="643.88" y="-129.38" font-family="Helvetica,sans-Serif" font-size="10.00">MainWindow::MainWindow</text>
</a>
</g>
</g>
<!-- Node19&#45;&gt;Node20 -->
<g id="edge21_Node000019_Node000020" class="edge">
<title>Node19&#45;&gt;Node20</title>
<g id="a_edge21_Node000019_Node000020"><a xlink:title=" ">
<path fill="none" stroke="#63b8ff" d="M756.18,-133.25C741.3,-133.25 725.91,-133.25 711.48,-133.25"/>
<polygon fill="#63b8ff" stroke="#63b8ff" points="755.92,-136.75 765.92,-133.25 755.92,-129.75 755.92,-136.75"/>
</a>
</g>
</g>
</g>
</svg>
