<?xml version="1.0" encoding="UTF-8" standalone="no"?>
<!DOCTYPE svg PUBLIC "-//W3C//DTD SVG 1.1//EN"
 "http://www.w3.org/Graphics/SVG/1.1/DTD/svg11.dtd">
<!-- Generated by graphviz version 12.2.1 (20241206.2353)
 -->
<!-- Title: MainWindow::loginFailed Pages: 1 -->
<svg width="708pt" height="39pt"
 viewBox="0.00 0.00 707.50 38.50" xmlns="http://www.w3.org/2000/svg" xmlns:xlink="http://www.w3.org/1999/xlink">
<g id="graph0" class="graph" transform="scale(1 1) rotate(0) translate(4 34.5)">
<title>MainWindow::loginFailed</title>
<!-- Node1 -->
<g id="Node000001" class="node">
<title>Node1</title>
<g id="a_Node000001"><a xlink:title="Emitted when a login attempt fails, providing an error message.">
<polygon fill="#999999" stroke="#666666" points="699.5,-24.88 574.75,-24.88 574.75,-5.63 699.5,-5.63 699.5,-24.88"/>
<text text-anchor="middle" x="637.12" y="-11.38" font-family="Helvetica,sans-Serif" font-size="10.00">MainWindow::loginFailed</text>
</a>
</g>
</g>
<!-- Node2 -->
<g id="Node000002" class="node">
<title>Node2</title>
<g id="a_Node000002"><a xlink:href="../../d9/dc6/class_main_window.html#a1a3b782f396969a9fa4316bc4841865d" target="_top" xlink:title="Slot triggered when user authentication fails. Displays an error message.">
<polygon fill="white" stroke="#666666" points="538.75,-30.5 366.75,-30.5 366.75,0 538.75,0 538.75,-30.5"/>
<text text-anchor="start" x="374.75" y="-17" font-family="Helvetica,sans-Serif" font-size="10.00">MainWindow::onUserAuthentication</text>
<text text-anchor="middle" x="452.75" y="-5.75" font-family="Helvetica,sans-Serif" font-size="10.00">Failure</text>
</a>
</g>
</g>
<!-- Node1&#45;&gt;Node2 -->
<g id="edge1_Node000001_Node000002" class="edge">
<title>Node1&#45;&gt;Node2</title>
<g id="a_edge1_Node000001_Node000002"><a xlink:title=" ">
<path fill="none" stroke="#63b8ff" d="M563,-15.25C555.12,-15.25 547.05,-15.25 539.05,-15.25"/>
<polygon fill="#63b8ff" stroke="#63b8ff" points="562.87,-18.75 572.87,-15.25 562.87,-11.75 562.87,-18.75"/>
</a>
</g>
</g>
<!-- Node3 -->
<g id="Node000003" class="node">
<title>Node3</title>
<g id="a_Node000003"><a xlink:href="../../d7/de6/class_app_driver.html#af39fbba491cc4dc1d378d6e140507554" target="_top" xlink:title="Connects signals from backend managers to slots in the frontend UI.">
<polygon fill="white" stroke="#666666" points="330.75,-30.5 188,-30.5 188,0 330.75,0 330.75,-30.5"/>
<text text-anchor="start" x="196" y="-17" font-family="Helvetica,sans-Serif" font-size="10.00">AppDriver::connectManagers</text>
<text text-anchor="middle" x="259.38" y="-5.75" font-family="Helvetica,sans-Serif" font-size="10.00">ToFrontend</text>
</a>
</g>
</g>
<!-- Node2&#45;&gt;Node3 -->
<g id="edge2_Node000002_Node000003" class="edge">
<title>Node2&#45;&gt;Node3</title>
<g id="a_edge2_Node000002_Node000003"><a xlink:title=" ">
<path fill="none" stroke="#63b8ff" d="M355.07,-15.25C347.04,-15.25 339.01,-15.25 331.22,-15.25"/>
<polygon fill="#63b8ff" stroke="#63b8ff" points="354.9,-18.75 364.9,-15.25 354.9,-11.75 354.9,-18.75"/>
</a>
</g>
</g>
<!-- Node4 -->
<g id="Node000004" class="node">
<title>Node4</title>
<g id="a_Node000004"><a xlink:href="../../d7/de6/class_app_driver.html#af5bf7b6bd96161d95a0a67cc7693127d" target="_top" xlink:title="Initializes and shows the main application window and loads initial data.">
<polygon fill="white" stroke="#666666" points="152,-24.88 73,-24.88 73,-5.63 152,-5.63 152,-24.88"/>
<text text-anchor="middle" x="112.5" y="-11.38" font-family="Helvetica,sans-Serif" font-size="10.00">AppDriver::run</text>
</a>
</g>
</g>
<!-- Node3&#45;&gt;Node4 -->
<g id="edge3_Node000003_Node000004" class="edge">
<title>Node3&#45;&gt;Node4</title>
<g id="a_edge3_Node000003_Node000004"><a xlink:title=" ">
<path fill="none" stroke="#63b8ff" d="M176.21,-15.25C167.88,-15.25 159.73,-15.25 152.2,-15.25"/>
<polygon fill="#63b8ff" stroke="#63b8ff" points="176.12,-18.75 186.12,-15.25 176.12,-11.75 176.12,-18.75"/>
</a>
</g>
</g>
<!-- Node5 -->
<g id="Node000005" class="node">
<title>Node5</title>
<g id="a_Node000005"><a xlink:href="../../d8/d80/src_2backend_2main_8cpp.html#a0ddf1224851353fc92bfbff6f499fa97" target="_top" xlink:title=" ">
<polygon fill="white" stroke="#666666" points="37,-24.88 0,-24.88 0,-5.63 37,-5.63 37,-24.88"/>
<text text-anchor="middle" x="18.5" y="-11.38" font-family="Helvetica,sans-Serif" font-size="10.00">main</text>
</a>
</g>
</g>
<!-- Node4&#45;&gt;Node5 -->
<g id="edge4_Node000004_Node000005" class="edge">
<title>Node4&#45;&gt;Node5</title>
<g id="a_edge4_Node000004_Node000005"><a xlink:title=" ">
<path fill="none" stroke="#63b8ff" d="M61.34,-15.25C52.67,-15.25 44.2,-15.25 37.18,-15.25"/>
<polygon fill="#63b8ff" stroke="#63b8ff" points="61.24,-18.75 71.24,-15.25 61.24,-11.75 61.24,-18.75"/>
</a>
</g>
</g>
</g>
</svg>
