<?xml version="1.0" encoding="UTF-8" standalone="no"?>
<!DOCTYPE svg PUBLIC "-//W3C//DTD SVG 1.1//EN"
 "http://www.w3.org/Graphics/SVG/1.1/DTD/svg11.dtd">
<!-- Generated by graphviz version 12.2.1 (20241206.2353)
 -->
<!-- Title: Parser::MorphicShape Pages: 1 -->
<!--zoomable 868 -->

<svg id="main" version="1.1" xmlns="http://www.w3.org/2000/svg" xmlns:xlink="http://www.w3.org/1999/xlink" xml:space="preserve" onload="init(evt)">

<style type="text/css"><![CDATA[
.node, .edge {opacity: 0.7;}
.node.selected, .edge.selected {opacity: 1;}
.edge:hover path { stroke: red; }
.edge:hover polygon { stroke: red; fill: red; }
]]></style>

<defs>
  <circle id="rim" cx="0" cy="0" r="7"/>
  <circle id="rim2" cx="0" cy="0" r="3.5"/>
  <g id="zoomPlus">
    <use xlink:href="#rim" fill="#404040"><set attributeName="fill" to="#808080" begin="zoomplus.mouseover" end="zoomplus.mouseout"/></use>
    <path d="M-4,0h8M0,-4v8" fill="none" stroke="white" stroke-width="1.5" pointer-events="none"/>
  </g>
  <g id="zoomMin">
    <use xlink:href="#rim" fill="#404040"><set attributeName="fill" to="#808080" begin="zoomminus.mouseover" end="zoomminus.mouseout"/></use>
    <path d="M-4,0h8" fill="none" stroke="white" stroke-width="1.5" pointer-events="none"/>
  </g>
  <g id="arrowUp" transform="translate(30 24)">
    <use xlink:href="#rim"/>
    <path pointer-events="none" fill="none" stroke="white" stroke-width="1.5" d="M0,-3.0v7 M-2.5,-0.5L0,-3.0L2.5,-0.5"/>
  </g>
  <g id="arrowRight" transform="rotate(90) translate(36 -43)">
    <use xlink:href="#rim"/>
    <path pointer-events="none" fill="none" stroke="white" stroke-width="1.5" d="M0,-3.0v7 M-2.5,-0.5L0,-3.0L2.5,-0.5"/>
  </g>
  <g id="arrowDown" transform="rotate(180) translate(-30 -48)">
    <use xlink:href="#rim"/>
    <path pointer-events="none" fill="none" stroke="white" stroke-width="1.5" d="M0,-3.0v7 M-2.5,-0.5L0,-3.0L2.5,-0.5"/>
  </g>
  <g id="arrowLeft" transform="rotate(270) translate(-36 17)">
    <use xlink:href="#rim"/>
    <path pointer-events="none" fill="none" stroke="white" stroke-width="1.5" d="M0,-3.0v7 M-2.5,-0.5L0,-3.0L2.5,-0.5"/>
  </g>
  <g id="resetDef">
    <use xlink:href="#rim2" fill="#404040"><set attributeName="fill" to="#808080" begin="reset.mouseover" end="reset.mouseout"/></use>
  </g>
</defs>
<script type="application/ecmascript">
var viewWidth = 167;
var viewHeight = 868;
var sectionId = 'dynsection-0';
</script>
<script type="application/ecmascript" xlink:href="../../svg.min.js"/>
<svg id="graph" class="graph">
<g id="viewport">
<title>Parser::MorphicShape</title>
<!-- Node1 -->
<g id="Node000001" class="node">
<title>Node1</title>
<g id="a_Node000001"><a xlink:title="Internal accumulator structure for parsing shape data from JSON.">
<polygon fill="#999999" stroke="none" points="143.25,-187 0,-187 0,0 143.25,0 143.25,-187"/>
<text text-anchor="start" x="23.25" y="-173.5" font-family="Helvetica,sans-Serif" font-size="10.00">Parser::MorphicShape</text>
<text text-anchor="start" x="4" y="-158.25" font-family="Helvetica,sans-Serif" font-size="10.00">+</text>
<text text-anchor="start" x="14" y="-158.25" font-family="Helvetica,sans-Serif" font-size="10.00">std::string shapeType</text>
<text text-anchor="start" x="4" y="-143" font-family="Helvetica,sans-Serif" font-size="10.00">+</text>
<text text-anchor="start" x="14" y="-143" font-family="Helvetica,sans-Serif" font-size="10.00">int shapeId</text>
<text text-anchor="start" x="4" y="-127.75" font-family="Helvetica,sans-Serif" font-size="10.00">+</text>
<text text-anchor="start" x="14" y="-127.75" font-family="Helvetica,sans-Serif" font-size="10.00">int trackerId</text>
<text text-anchor="start" x="4" y="-112.5" font-family="Helvetica,sans-Serif" font-size="10.00">+</text>
<text text-anchor="start" x="14" y="-112.5" font-family="Helvetica,sans-Serif" font-size="10.00">QPen pen</text>
<text text-anchor="start" x="4" y="-97.25" font-family="Helvetica,sans-Serif" font-size="10.00">+</text>
<text text-anchor="start" x="14" y="-97.25" font-family="Helvetica,sans-Serif" font-size="10.00">QBrush brush</text>
<text text-anchor="start" x="4" y="-82" font-family="Helvetica,sans-Serif" font-size="10.00">+</text>
<text text-anchor="start" x="14" y="-82" font-family="Helvetica,sans-Serif" font-size="10.00">QPoint coords</text>
<text text-anchor="start" x="4" y="-66.75" font-family="Helvetica,sans-Serif" font-size="10.00">+</text>
<text text-anchor="start" x="14" y="-66.75" font-family="Helvetica,sans-Serif" font-size="10.00">QString textString</text>
<text text-anchor="start" x="4" y="-51.5" font-family="Helvetica,sans-Serif" font-size="10.00">+</text>
<text text-anchor="start" x="14" y="-51.5" font-family="Helvetica,sans-Serif" font-size="10.00">GlobalColor textColor</text>
<text text-anchor="start" x="4" y="-36.25" font-family="Helvetica,sans-Serif" font-size="10.00">+</text>
<text text-anchor="start" x="14" y="-36.25" font-family="Helvetica,sans-Serif" font-size="10.00">QFont font</text>
<text text-anchor="start" x="4" y="-21" font-family="Helvetica,sans-Serif" font-size="10.00">+</text>
<text text-anchor="start" x="14" y="-21" font-family="Helvetica,sans-Serif" font-size="10.00">AlignmentFlag textAlignment</text>
<text text-anchor="start" x="70.12" y="-5.75" font-family="Helvetica,sans-Serif" font-size="10.00"> </text>
<polygon fill="#666666" stroke="#666666" points="0,-169.75 0,-169.75 143.25,-169.75 143.25,-169.75 0,-169.75"/>
<polygon fill="#666666" stroke="#666666" points="0,-17.25 0,-17.25 12,-17.25 12,-17.25 0,-17.25"/>
<polygon fill="#666666" stroke="#666666" points="12,-17.25 12,-17.25 143.25,-17.25 143.25,-17.25 12,-17.25"/>
<polygon fill="none" stroke="#666666" points="0,0 0,-187 143.25,-187 143.25,0 0,0"/>
</a>
</g>
</g>
<!-- Node2 -->
<g id="Node000002" class="node">
<title>Node2</title>
<g id="a_Node000002"><a xlink:href="../../db/d35/classalpha_1_1vector.html" target="_top" xlink:title=" ">
<polygon fill="white" stroke="none" points="137.62,-523.25 5.62,-523.25 5.62,-234.25 137.62,-234.25 137.62,-523.25"/>
<text text-anchor="start" x="29.25" y="-509.75" font-family="Helvetica,sans-Serif" font-size="10.00">alpha::vector&lt; int &gt;</text>
<text text-anchor="start" x="11.12" y="-494.5" font-family="Helvetica,sans-Serif" font-size="10.00">&#45;</text>
<text text-anchor="start" x="19.62" y="-494.5" font-family="Helvetica,sans-Serif" font-size="10.00">int size_v</text>
<text text-anchor="start" x="11.12" y="-479.25" font-family="Helvetica,sans-Serif" font-size="10.00">&#45;</text>
<text text-anchor="start" x="19.62" y="-479.25" font-family="Helvetica,sans-Serif" font-size="10.00">int * elem</text>
<text text-anchor="start" x="11.12" y="-464" font-family="Helvetica,sans-Serif" font-size="10.00">&#45;</text>
<text text-anchor="start" x="19.62" y="-464" font-family="Helvetica,sans-Serif" font-size="10.00">int space</text>
<text text-anchor="start" x="9.62" y="-448.75" font-family="Helvetica,sans-Serif" font-size="10.00">+</text>
<text text-anchor="start" x="19.62" y="-448.75" font-family="Helvetica,sans-Serif" font-size="10.00">vector()</text>
<text text-anchor="start" x="9.62" y="-433.5" font-family="Helvetica,sans-Serif" font-size="10.00">+</text>
<text text-anchor="start" x="19.62" y="-433.5" font-family="Helvetica,sans-Serif" font-size="10.00">vector(int s)</text>
<text text-anchor="start" x="9.62" y="-418.25" font-family="Helvetica,sans-Serif" font-size="10.00">+</text>
<text text-anchor="start" x="19.62" y="-418.25" font-family="Helvetica,sans-Serif" font-size="10.00">vector(const vector</text>
<text text-anchor="start" x="19.62" y="-407" font-family="Helvetica,sans-Serif" font-size="10.00"> &amp;other)</text>
<text text-anchor="start" x="9.62" y="-391.75" font-family="Helvetica,sans-Serif" font-size="10.00">+</text>
<text text-anchor="start" x="19.62" y="-391.75" font-family="Helvetica,sans-Serif" font-size="10.00">vector(vector &amp;&amp;other)</text>
<text text-anchor="start" x="19.62" y="-380.5" font-family="Helvetica,sans-Serif" font-size="10.00"> noexcept</text>
<text text-anchor="start" x="9.62" y="-365.25" font-family="Helvetica,sans-Serif" font-size="10.00">+</text>
<text text-anchor="start" x="19.62" y="-365.25" font-family="Helvetica,sans-Serif" font-size="10.00">vector &amp; operator=</text>
<text text-anchor="start" x="19.62" y="-354" font-family="Helvetica,sans-Serif" font-size="10.00">(const vector &amp;other)</text>
<text text-anchor="start" x="9.62" y="-338.75" font-family="Helvetica,sans-Serif" font-size="10.00">+</text>
<text text-anchor="start" x="19.62" y="-338.75" font-family="Helvetica,sans-Serif" font-size="10.00">vector &amp; operator=</text>
<text text-anchor="start" x="19.62" y="-327.5" font-family="Helvetica,sans-Serif" font-size="10.00">(vector &amp;&amp;other) noexcept</text>
<text text-anchor="start" x="9.62" y="-312.25" font-family="Helvetica,sans-Serif" font-size="10.00">+</text>
<text text-anchor="start" x="19.62" y="-312.25" font-family="Helvetica,sans-Serif" font-size="10.00">~vector()</text>
<text text-anchor="start" x="9.62" y="-297" font-family="Helvetica,sans-Serif" font-size="10.00">+</text>
<text text-anchor="start" x="19.62" y="-297" font-family="Helvetica,sans-Serif" font-size="10.00">int &amp; operator[](int n)</text>
<text text-anchor="start" x="9.62" y="-281.75" font-family="Helvetica,sans-Serif" font-size="10.00">+</text>
<text text-anchor="start" x="19.62" y="-281.75" font-family="Helvetica,sans-Serif" font-size="10.00">const int &amp; operator</text>
<text text-anchor="start" x="19.62" y="-270.5" font-family="Helvetica,sans-Serif" font-size="10.00">[](int n) const</text>
<text text-anchor="start" x="9.62" y="-255.25" font-family="Helvetica,sans-Serif" font-size="10.00">+</text>
<text text-anchor="start" x="19.62" y="-255.25" font-family="Helvetica,sans-Serif" font-size="10.00">int size() const</text>
<text text-anchor="start" x="19.62" y="-240" font-family="Helvetica,sans-Serif" font-size="10.00">and 10 more...</text>
<polygon fill="#666666" stroke="#666666" points="5.62,-506 5.62,-506 137.62,-506 137.62,-506 5.62,-506"/>
<polygon fill="#666666" stroke="#666666" points="5.62,-460.25 5.62,-460.25 17.62,-460.25 17.62,-460.25 5.62,-460.25"/>
<polygon fill="#666666" stroke="#666666" points="17.62,-460.25 17.62,-460.25 137.62,-460.25 137.62,-460.25 17.62,-460.25"/>
<polygon fill="none" stroke="#666666" points="5.62,-234.25 5.62,-523.25 137.62,-523.25 137.62,-234.25 5.62,-234.25"/>
</a>
</g>
</g>
<!-- Node2&#45;&gt;Node1 -->
<g id="edge1_Node000001_Node000002" class="edge">
<title>Node2&#45;&gt;Node1</title>
<g id="a_edge1_Node000001_Node000002"><a xlink:title=" ">
<path fill="none" stroke="#63b8ff" d="M71.62,-234.47C71.62,-222.7 71.62,-210.95 71.62,-199.54"/>
<polygon fill="none" stroke="#63b8ff" points="71.63,-199.73 67.63,-193.73 71.63,-187.73 75.63,-193.73 71.63,-199.73"/>
</a>
</g>
<text text-anchor="middle" x="115.12" y="-206.75" font-family="Helvetica,sans-Serif" font-size="10.00" fill="grey"> +shapeDimensions</text>
</g>
<!-- Node3 -->
<g id="Node000003" class="node">
<title>Node3</title>
<g id="a_Node000003"><a xlink:href="../../db/d35/classalpha_1_1vector.html" target="_top" xlink:title=" ">
<polygon fill="white" stroke="none" points="137.62,-859.5 5.62,-859.5 5.62,-570.5 137.62,-570.5 137.62,-859.5"/>
<text text-anchor="start" x="31.5" y="-846" font-family="Helvetica,sans-Serif" font-size="10.00">alpha::vector&lt; T &gt;</text>
<text text-anchor="start" x="11.12" y="-830.75" font-family="Helvetica,sans-Serif" font-size="10.00">&#45;</text>
<text text-anchor="start" x="19.62" y="-830.75" font-family="Helvetica,sans-Serif" font-size="10.00">int size_v</text>
<text text-anchor="start" x="11.12" y="-815.5" font-family="Helvetica,sans-Serif" font-size="10.00">&#45;</text>
<text text-anchor="start" x="19.62" y="-815.5" font-family="Helvetica,sans-Serif" font-size="10.00">T * elem</text>
<text text-anchor="start" x="11.12" y="-800.25" font-family="Helvetica,sans-Serif" font-size="10.00">&#45;</text>
<text text-anchor="start" x="19.62" y="-800.25" font-family="Helvetica,sans-Serif" font-size="10.00">int space</text>
<text text-anchor="start" x="9.62" y="-785" font-family="Helvetica,sans-Serif" font-size="10.00">+</text>
<text text-anchor="start" x="19.62" y="-785" font-family="Helvetica,sans-Serif" font-size="10.00">vector()</text>
<text text-anchor="start" x="9.62" y="-769.75" font-family="Helvetica,sans-Serif" font-size="10.00">+</text>
<text text-anchor="start" x="19.62" y="-769.75" font-family="Helvetica,sans-Serif" font-size="10.00">vector(int s)</text>
<text text-anchor="start" x="9.62" y="-754.5" font-family="Helvetica,sans-Serif" font-size="10.00">+</text>
<text text-anchor="start" x="19.62" y="-754.5" font-family="Helvetica,sans-Serif" font-size="10.00">vector(const vector</text>
<text text-anchor="start" x="19.62" y="-743.25" font-family="Helvetica,sans-Serif" font-size="10.00"> &amp;other)</text>
<text text-anchor="start" x="9.62" y="-728" font-family="Helvetica,sans-Serif" font-size="10.00">+</text>
<text text-anchor="start" x="19.62" y="-728" font-family="Helvetica,sans-Serif" font-size="10.00">vector &amp; operator=</text>
<text text-anchor="start" x="19.62" y="-716.75" font-family="Helvetica,sans-Serif" font-size="10.00">(const vector &amp;other)</text>
<text text-anchor="start" x="9.62" y="-701.5" font-family="Helvetica,sans-Serif" font-size="10.00">+</text>
<text text-anchor="start" x="19.62" y="-701.5" font-family="Helvetica,sans-Serif" font-size="10.00">vector(vector &amp;&amp;other)</text>
<text text-anchor="start" x="19.62" y="-690.25" font-family="Helvetica,sans-Serif" font-size="10.00"> noexcept</text>
<text text-anchor="start" x="9.62" y="-675" font-family="Helvetica,sans-Serif" font-size="10.00">+</text>
<text text-anchor="start" x="19.62" y="-675" font-family="Helvetica,sans-Serif" font-size="10.00">vector &amp; operator=</text>
<text text-anchor="start" x="19.62" y="-663.75" font-family="Helvetica,sans-Serif" font-size="10.00">(vector &amp;&amp;other) noexcept</text>
<text text-anchor="start" x="9.62" y="-648.5" font-family="Helvetica,sans-Serif" font-size="10.00">+</text>
<text text-anchor="start" x="19.62" y="-648.5" font-family="Helvetica,sans-Serif" font-size="10.00">~vector()</text>
<text text-anchor="start" x="9.62" y="-633.25" font-family="Helvetica,sans-Serif" font-size="10.00">+</text>
<text text-anchor="start" x="19.62" y="-633.25" font-family="Helvetica,sans-Serif" font-size="10.00">T &amp; operator[](int n)</text>
<text text-anchor="start" x="9.62" y="-618" font-family="Helvetica,sans-Serif" font-size="10.00">+</text>
<text text-anchor="start" x="19.62" y="-618" font-family="Helvetica,sans-Serif" font-size="10.00">const T &amp; operator</text>
<text text-anchor="start" x="19.62" y="-606.75" font-family="Helvetica,sans-Serif" font-size="10.00">[](int n) const</text>
<text text-anchor="start" x="9.62" y="-591.5" font-family="Helvetica,sans-Serif" font-size="10.00">+</text>
<text text-anchor="start" x="19.62" y="-591.5" font-family="Helvetica,sans-Serif" font-size="10.00">int size() const</text>
<text text-anchor="start" x="19.62" y="-576.25" font-family="Helvetica,sans-Serif" font-size="10.00">and 10 more...</text>
<polygon fill="#666666" stroke="#666666" points="5.62,-842.25 5.62,-842.25 137.62,-842.25 137.62,-842.25 5.62,-842.25"/>
<polygon fill="#666666" stroke="#666666" points="5.62,-796.5 5.62,-796.5 17.62,-796.5 17.62,-796.5 5.62,-796.5"/>
<polygon fill="#666666" stroke="#666666" points="17.62,-796.5 17.62,-796.5 137.62,-796.5 137.62,-796.5 17.62,-796.5"/>
<polygon fill="none" stroke="#666666" points="5.62,-570.5 5.62,-859.5 137.62,-859.5 137.62,-570.5 5.62,-570.5"/>
</a>
</g>
</g>
<!-- Node3&#45;&gt;Node2 -->
<g id="edge2_Node000002_Node000003" class="edge">
<title>Node3&#45;&gt;Node2</title>
<g id="a_edge2_Node000002_Node000003"><a xlink:title=" ">
<path fill="none" stroke="orange" d="M71.62,-559.29C71.62,-547.26 71.62,-535.14 71.62,-523.19"/>
<polygon fill="orange" stroke="orange" points="68.13,-559.28 71.63,-569.28 75.13,-559.28 68.13,-559.28"/>
</a>
</g>
<text text-anchor="middle" x="87.38" y="-543" font-family="Helvetica,sans-Serif" font-size="10.00" fill="grey"> &lt; int &gt;</text>
</g>
</g>
</svg>

<g id="navigator" transform="translate(0 0)" fill="#404254">
  <rect fill="#f2f5e9" fill-opacity="0.5" stroke="#606060" stroke-width=".5" x="0" y="0" width="60" height="60"/>
  <use id="zoomplus" xlink:href="#zoomPlus" x="17" y="9" onmousedown="handleZoom(evt,'in')"/>
  <use id="zoomminus" xlink:href="#zoomMin" x="42" y="9" onmousedown="handleZoom(evt,'out')"/>
  <use id="reset" xlink:href="#resetDef" x="30" y="36" onmousedown="handleReset()"/>
   <use id="arrowup" xlink:href="#arrowUp" x="0" y="0" onmousedown="handlePan(0,-1)"/>
  <use id="arrowright" xlink:href="#arrowRight" x="0" y="0" onmousedown="handlePan(1,0)"/>
  <use id="arrowdown" xlink:href="#arrowDown" x="0" y="0" onmousedown="handlePan(0,1)"/>
  <use id="arrowleft" xlink:href="#arrowLeft" x="0" y="0" onmousedown="handlePan(-1,0)"/>
</g>
<svg viewBox="0 0 15 15" width="100%" height="30px" preserveAspectRatio="xMaxYMin meet">
 <g id="arrow_out" transform="scale(0.3 0.3)">
  <a xlink:href="struct_parser_1_1_morphic_shape__coll__graph_org.svg" target="_base">
   <rect id="button" ry="5" rx="5" y="6" x="6" height="38" width="38"
        fill="#f2f5e9" fill-opacity="0.5" stroke="#606060" stroke-width="1.0"/>
   <path id="arrow"
     d="M 11.500037,31.436501 C 11.940474,20.09759 22.043105,11.32322 32.158766,21.979434 L 37.068811,17.246167 C 37.068811,17.246167 37.088388,32 37.088388,32 L 22.160133,31.978069 C 22.160133,31.978069 26.997745,27.140456 26.997745,27.140456 C 18.528582,18.264221 13.291696,25.230495 11.500037,31.436501 z"
     style="fill:#404040;"/>
  </a>
 </g>
</svg>

<style type='text/css'>
<![CDATA[
[data-mouse-over-selected='false'] { opacity: 0.7; }
[data-mouse-over-selected='true']  { opacity: 1.0; }
]]>
</style>
<script type="application/ecmascript"><![CDATA[
document.addEventListener('DOMContentLoaded', (event) => {
  highlightEdges();
  highlightAdjacentNodes();
});
]]></script>
</svg>
