<?xml version="1.0" encoding="UTF-8" standalone="no"?>
<!DOCTYPE svg PUBLIC "-//W3C//DTD SVG 1.1//EN"
 "http://www.w3.org/Graphics/SVG/1.1/DTD/svg11.dtd">
<!-- Generated by graphviz version 12.2.1 (20241206.2353)
 -->
<!-- Title: Line::Draw Pages: 1 -->
<svg width="209pt" height="175pt"
 viewBox="0.00 0.00 208.75 175.25" xmlns="http://www.w3.org/2000/svg" xmlns:xlink="http://www.w3.org/1999/xlink">
<g id="graph0" class="graph" transform="scale(1 1) rotate(0) translate(4 171.25)">
<title>Line::Draw</title>
<!-- Node1 -->
<g id="Node000001" class="node">
<title>Node1</title>
<g id="a_Node000001"><a xlink:title="Draw &#45; Draws a line from startPoint to endPoint.">
<polygon fill="#999999" stroke="#666666" points="63.25,-93.25 0,-93.25 0,-74 63.25,-74 63.25,-93.25"/>
<text text-anchor="middle" x="31.62" y="-79.75" font-family="Helvetica,sans-Serif" font-size="10.00">Line::Draw</text>
</a>
</g>
</g>
<!-- Node2 -->
<g id="Node000002" class="node">
<title>Node2</title>
<g id="a_Node000002"><a xlink:href="../../d7/da7/class_shape.html#acbb9f9354579fdaad31853d714653e0d" target="_top" xlink:title=" ">
<polygon fill="white" stroke="#666666" points="194.38,-167.25 105.62,-167.25 105.62,-148 194.38,-148 194.38,-167.25"/>
<text text-anchor="middle" x="150" y="-153.75" font-family="Helvetica,sans-Serif" font-size="10.00">Shape::getBrush</text>
</a>
</g>
</g>
<!-- Node1&#45;&gt;Node2 -->
<g id="edge1_Node000001_Node000002" class="edge">
<title>Node1&#45;&gt;Node2</title>
<g id="a_edge1_Node000001_Node000002"><a xlink:title=" ">
<path fill="none" stroke="#63b8ff" d="M42.17,-93.56C54.4,-105.83 76.74,-126.64 99.25,-139.62 101.3,-140.81 103.44,-141.94 105.64,-143.01"/>
<polygon fill="#63b8ff" stroke="#63b8ff" points="104.19,-146.19 114.76,-146.99 107,-139.78 104.19,-146.19"/>
</a>
</g>
</g>
<!-- Node3 -->
<g id="Node000003" class="node">
<title>Node3</title>
<g id="a_Node000003"><a xlink:href="../../d7/da7/class_shape.html#a754ef1fcea3fbe3c3612da480ba8dd75" target="_top" xlink:title=" ">
<polygon fill="white" stroke="#666666" points="197,-130.25 103,-130.25 103,-111 197,-111 197,-130.25"/>
<text text-anchor="middle" x="150" y="-116.75" font-family="Helvetica,sans-Serif" font-size="10.00">Shape::getPainter</text>
</a>
</g>
</g>
<!-- Node1&#45;&gt;Node3 -->
<g id="edge2_Node000001_Node000003" class="edge">
<title>Node1&#45;&gt;Node3</title>
<g id="a_edge2_Node000001_Node000003"><a xlink:title=" ">
<path fill="none" stroke="#63b8ff" d="M63.51,-93.44C76.71,-97.64 92.33,-102.61 106.59,-107.14"/>
<polygon fill="#63b8ff" stroke="#63b8ff" points="105.13,-110.35 115.72,-110.04 107.25,-103.68 105.13,-110.35"/>
</a>
</g>
</g>
<!-- Node4 -->
<g id="Node000004" class="node">
<title>Node4</title>
<g id="a_Node000004"><a xlink:href="../../d7/da7/class_shape.html#a16aad057da1ce3475f666cbdd27da042" target="_top" xlink:title=" ">
<polygon fill="white" stroke="#666666" points="190.25,-93.25 109.75,-93.25 109.75,-74 190.25,-74 190.25,-93.25"/>
<text text-anchor="middle" x="150" y="-79.75" font-family="Helvetica,sans-Serif" font-size="10.00">Shape::getPen</text>
</a>
</g>
</g>
<!-- Node1&#45;&gt;Node4 -->
<g id="edge3_Node000001_Node000004" class="edge">
<title>Node1&#45;&gt;Node4</title>
<g id="a_edge3_Node000001_Node000004"><a xlink:title=" ">
<path fill="none" stroke="#63b8ff" d="M63.51,-83.62C74.22,-83.62 86.54,-83.62 98.42,-83.62"/>
<polygon fill="#63b8ff" stroke="#63b8ff" points="98.1,-87.13 108.1,-83.63 98.1,-80.13 98.1,-87.13"/>
</a>
</g>
</g>
<!-- Node5 -->
<g id="Node000005" class="node">
<title>Node5</title>
<g id="a_Node000005"><a xlink:href="../../d7/da7/class_shape.html#aebeb671fc243de273dc49f07ba71bac6" target="_top" xlink:title=" ">
<polygon fill="white" stroke="#666666" points="200.75,-56.25 99.25,-56.25 99.25,-37 200.75,-37 200.75,-56.25"/>
<text text-anchor="middle" x="150" y="-42.75" font-family="Helvetica,sans-Serif" font-size="10.00">Shape::getSelected</text>
</a>
</g>
</g>
<!-- Node1&#45;&gt;Node5 -->
<g id="edge4_Node000001_Node000005" class="edge">
<title>Node1&#45;&gt;Node5</title>
<g id="a_edge4_Node000001_Node000005"><a xlink:title=" ">
<path fill="none" stroke="#63b8ff" d="M63.51,-73.81C76.71,-69.61 92.33,-64.64 106.59,-60.11"/>
<polygon fill="#63b8ff" stroke="#63b8ff" points="107.25,-63.57 115.72,-57.21 105.13,-56.9 107.25,-63.57"/>
</a>
</g>
</g>
<!-- Node6 -->
<g id="Node000006" class="node">
<title>Node6</title>
<g id="a_Node000006"><a xlink:href="../../d7/da7/class_shape.html#a4b502262ae5a22122456b9624d5ccb3d" target="_top" xlink:title="Accessor Functions &#45; Returns the data named after them.">
<polygon fill="white" stroke="#666666" points="199.62,-19.25 100.38,-19.25 100.38,0 199.62,0 199.62,-19.25"/>
<text text-anchor="middle" x="150" y="-5.75" font-family="Helvetica,sans-Serif" font-size="10.00">Shape::getShapeId</text>
</a>
</g>
</g>
<!-- Node1&#45;&gt;Node6 -->
<g id="edge5_Node000001_Node000006" class="edge">
<title>Node1&#45;&gt;Node6</title>
<g id="a_edge5_Node000001_Node000006"><a xlink:title=" ">
<path fill="none" stroke="#63b8ff" d="M42.17,-73.69C54.4,-61.42 76.74,-40.61 99.25,-27.62 101.3,-26.44 103.44,-25.31 105.64,-24.24"/>
<polygon fill="#63b8ff" stroke="#63b8ff" points="107,-27.47 114.76,-20.26 104.19,-21.06 107,-27.47"/>
</a>
</g>
</g>
</g>
</svg>
