<?xml version="1.0" encoding="UTF-8" standalone="no"?>
<!DOCTYPE svg PUBLIC "-//W3C//DTD SVG 1.1//EN"
 "http://www.w3.org/Graphics/SVG/1.1/DTD/svg11.dtd">
<!-- Generated by graphviz version 12.2.1 (20241206.2353)
 -->
<!-- Title: Line::getStartPoint Pages: 1 -->
<svg width="664pt" height="143pt"
 viewBox="0.00 0.00 663.75 142.88" xmlns="http://www.w3.org/2000/svg" xmlns:xlink="http://www.w3.org/1999/xlink">
<g id="graph0" class="graph" transform="scale(1 1) rotate(0) translate(4 138.88)">
<title>Line::getStartPoint</title>
<!-- Node1 -->
<g id="Node000001" class="node">
<title>Node1</title>
<g id="a_Node000001"><a xlink:title="Accessor Functions.">
<polygon fill="#999999" stroke="#666666" points="655.75,-73.88 558.75,-73.88 558.75,-54.62 655.75,-54.62 655.75,-73.88"/>
<text text-anchor="middle" x="607.25" y="-60.38" font-family="Helvetica,sans-Serif" font-size="10.00">Line::getStartPoint</text>
</a>
</g>
</g>
<!-- Node2 -->
<g id="Node000002" class="node">
<title>Node2</title>
<g id="a_Node000002"><a xlink:href="../../dc/db7/class_parser.html#af246a0732ef6c7518e5aaee1043d12e4" target="_top" xlink:title="Gets the geometric dimensions of a shape as a JSON array string.">
<polygon fill="white" stroke="#666666" points="513.75,-116.88 368,-116.88 368,-97.62 513.75,-97.62 513.75,-116.88"/>
<text text-anchor="middle" x="440.88" y="-103.38" font-family="Helvetica,sans-Serif" font-size="10.00">Parser::GetShapeDimensions</text>
</a>
</g>
</g>
<!-- Node1&#45;&gt;Node2 -->
<g id="edge1_Node000001_Node000002" class="edge">
<title>Node1&#45;&gt;Node2</title>
<g id="a_edge1_Node000001_Node000002"><a xlink:title=" ">
<path fill="none" stroke="#63b8ff" d="M561.9,-77.44C549.28,-81.07 535.51,-84.92 522.75,-88.25 511.03,-91.31 498.29,-94.41 486.47,-97.19"/>
<polygon fill="#63b8ff" stroke="#63b8ff" points="562.55,-80.89 571.18,-74.74 560.6,-74.17 562.55,-80.89"/>
</a>
</g>
</g>
<!-- Node6 -->
<g id="Node000006" class="node">
<title>Node6</title>
<g id="a_Node000006"><a xlink:href="../../d8/d08/class_render_area_manager.html#af37e63015f3671115d0da8aff234a805" target="_top" xlink:title="Modifies a property of an existing shape based on a key&#45;value pair.">
<polygon fill="white" stroke="#666666" points="496.5,-79.5 385.25,-79.5 385.25,-49 496.5,-49 496.5,-79.5"/>
<text text-anchor="start" x="393.25" y="-66" font-family="Helvetica,sans-Serif" font-size="10.00">RenderAreaManager::</text>
<text text-anchor="middle" x="440.88" y="-54.75" font-family="Helvetica,sans-Serif" font-size="10.00">modifyShape</text>
</a>
</g>
</g>
<!-- Node1&#45;&gt;Node6 -->
<g id="edge6_Node000001_Node000006" class="edge">
<title>Node1&#45;&gt;Node6</title>
<g id="a_edge6_Node000001_Node000006"><a xlink:title=" ">
<path fill="none" stroke="#63b8ff" d="M547.16,-64.25C530.76,-64.25 513.02,-64.25 496.86,-64.25"/>
<polygon fill="#63b8ff" stroke="#63b8ff" points="546.75,-67.75 556.75,-64.25 546.75,-60.75 546.75,-67.75"/>
</a>
</g>
</g>
<!-- Node7 -->
<g id="Node000007" class="node">
<title>Node7</title>
<g id="a_Node000007"><a xlink:href="../../d9/ddf/class_render_area.html#a7fd734dcf63055b10a414b143a45a226" target="_top" xlink:title="Updates display coordinates of a shape&#39;s properties, typically in an associated view.">
<polygon fill="white" stroke="#666666" points="522.75,-30.5 359,-30.5 359,0 522.75,0 522.75,-30.5"/>
<text text-anchor="start" x="367" y="-17" font-family="Helvetica,sans-Serif" font-size="10.00">RenderArea::updateShapeDisplay</text>
<text text-anchor="middle" x="440.88" y="-5.75" font-family="Helvetica,sans-Serif" font-size="10.00">Coords</text>
</a>
</g>
</g>
<!-- Node1&#45;&gt;Node7 -->
<g id="edge7_Node000001_Node000007" class="edge">
<title>Node1&#45;&gt;Node7</title>
<g id="a_edge7_Node000001_Node000007"><a xlink:title=" ">
<path fill="none" stroke="#63b8ff" d="M561.56,-50.93C540.88,-44.76 516.17,-37.4 494.59,-30.96"/>
<polygon fill="#63b8ff" stroke="#63b8ff" points="560.56,-54.28 571.14,-53.78 562.56,-47.57 560.56,-54.28"/>
</a>
</g>
</g>
<!-- Node3 -->
<g id="Node000003" class="node">
<title>Node3</title>
<g id="a_Node000003"><a xlink:href="../../dc/db7/class_parser.html#a8f8932bed758cd3e61de3669fdef1110" target="_top" xlink:title="Appends common shape properties (ID, Type, Dimensions, Pen properties) to a JSON string.">
<polygon fill="white" stroke="#666666" points="323,-134.88 151,-134.88 151,-115.62 323,-115.62 323,-134.88"/>
<text text-anchor="middle" x="237" y="-121.38" font-family="Helvetica,sans-Serif" font-size="10.00">Parser::AppendCommonShapeData</text>
</a>
</g>
</g>
<!-- Node2&#45;&gt;Node3 -->
<g id="edge2_Node000002_Node000003" class="edge">
<title>Node2&#45;&gt;Node3</title>
<g id="a_edge2_Node000002_Node000003"><a xlink:title=" ">
<path fill="none" stroke="#63b8ff" d="M356.3,-114.7C345.38,-115.68 334.18,-116.67 323.23,-117.65"/>
<polygon fill="#63b8ff" stroke="#63b8ff" points="356.41,-118.21 366.06,-113.83 355.78,-111.23 356.41,-118.21"/>
</a>
</g>
</g>
<!-- Node5 -->
<g id="Node000005" class="node">
<title>Node5</title>
<g id="a_Node000005"><a xlink:href="../../dc/db7/class_parser.html#a3c8d6dcf6e07231eaedb036ebe90b51f" target="_top" xlink:title="Appends all properties specific to Text objects to a JSON string.">
<polygon fill="white" stroke="#666666" points="298.62,-97.88 175.38,-97.88 175.38,-78.62 298.62,-78.62 298.62,-97.88"/>
<text text-anchor="middle" x="237" y="-84.38" font-family="Helvetica,sans-Serif" font-size="10.00">Parser::AppendTextData</text>
</a>
</g>
</g>
<!-- Node2&#45;&gt;Node5 -->
<g id="edge4_Node000002_Node000005" class="edge">
<title>Node2&#45;&gt;Node5</title>
<g id="a_edge4_Node000002_Node000005"><a xlink:title=" ">
<path fill="none" stroke="#63b8ff" d="M356.34,-99.39C337.06,-97.57 316.91,-95.68 298.82,-93.97"/>
<polygon fill="#63b8ff" stroke="#63b8ff" points="355.77,-102.85 366.06,-100.3 356.43,-95.88 355.77,-102.85"/>
</a>
</g>
</g>
<!-- Node4 -->
<g id="Node000004" class="node">
<title>Node4</title>
<g id="a_Node000004"><a xlink:href="../../dc/db7/class_parser.html#ac0dc74d228421b62ece9d9e93511509e" target="_top" xlink:title="Converts a vector of Shape pointers into a JSON string representation.">
<polygon fill="white" stroke="#666666" points="115,-115.88 0,-115.88 0,-96.62 115,-96.62 115,-115.88"/>
<text text-anchor="middle" x="57.5" y="-102.38" font-family="Helvetica,sans-Serif" font-size="10.00">Parser::ShapesToJson</text>
</a>
</g>
</g>
<!-- Node3&#45;&gt;Node4 -->
<g id="edge3_Node000003_Node000004" class="edge">
<title>Node3&#45;&gt;Node4</title>
<g id="a_edge3_Node000003_Node000004"><a xlink:title=" ">
<path fill="none" stroke="#63b8ff" d="M139.39,-114.91C131.17,-114.03 123.04,-113.16 115.29,-112.33"/>
<polygon fill="#63b8ff" stroke="#63b8ff" points="138.81,-118.37 149.12,-115.95 139.55,-111.41 138.81,-118.37"/>
</a>
</g>
</g>
<!-- Node5&#45;&gt;Node4 -->
<g id="edge5_Node000005_Node000004" class="edge">
<title>Node5&#45;&gt;Node4</title>
<g id="a_edge5_Node000005_Node000004"><a xlink:title=" ">
<path fill="none" stroke="#63b8ff" d="M163.85,-95.57C147.65,-97.21 130.69,-98.93 115.22,-100.5"/>
<polygon fill="#63b8ff" stroke="#63b8ff" points="163.81,-99.09 173.41,-94.6 163.11,-92.12 163.81,-99.09"/>
</a>
</g>
</g>
<!-- Node8 -->
<g id="Node000008" class="node">
<title>Node8</title>
<g id="a_Node000008"><a xlink:href="../../d9/ddf/class_render_area.html#a84f2ea379248266648d22338e3904b45" target="_top" xlink:title="Handles mouse release events to finalize a shape move operation.">
<polygon fill="white" stroke="#666666" points="306.5,-30.5 167.5,-30.5 167.5,0 306.5,0 306.5,-30.5"/>
<text text-anchor="start" x="175.5" y="-17" font-family="Helvetica,sans-Serif" font-size="10.00">RenderArea::mouseRelease</text>
<text text-anchor="middle" x="237" y="-5.75" font-family="Helvetica,sans-Serif" font-size="10.00">Event</text>
</a>
</g>
</g>
<!-- Node7&#45;&gt;Node8 -->
<g id="edge8_Node000007_Node000008" class="edge">
<title>Node7&#45;&gt;Node8</title>
<g id="a_edge8_Node000007_Node000008"><a xlink:title=" ">
<path fill="none" stroke="#63b8ff" d="M347.26,-15.25C333.63,-15.25 319.79,-15.25 306.76,-15.25"/>
<polygon fill="#63b8ff" stroke="#63b8ff" points="347.12,-18.75 357.12,-15.25 347.12,-11.75 347.12,-18.75"/>
</a>
</g>
</g>
</g>
</svg>
