<?xml version="1.0" encoding="UTF-8" standalone="no"?>
<!DOCTYPE svg PUBLIC "-//W3C//DTD SVG 1.1//EN"
 "http://www.w3.org/Graphics/SVG/1.1/DTD/svg11.dtd">
<!-- Generated by graphviz version 12.2.1 (20241206.2353)
 -->
<!-- Title: Line::Line Pages: 1 -->
<svg width="392pt" height="193pt"
 viewBox="0.00 0.00 392.00 193.25" xmlns="http://www.w3.org/2000/svg" xmlns:xlink="http://www.w3.org/1999/xlink">

<svg id="main" version="1.1" xmlns="http://www.w3.org/2000/svg" xmlns:xlink="http://www.w3.org/1999/xlink" xml:space="preserve">

<style type="text/css"><![CDATA[
.node, .edge {opacity: 0.7;}
.node.selected, .edge.selected {opacity: 1;}
.edge:hover path { stroke: red; }
.edge:hover polygon { stroke: red; fill: red; }
]]></style>
<script type="application/ecmascript" xlink:href="../../svg.min.js"/>
<svg id="graph" class="graph">
<g id="graph0" class="graph" transform="scale(1 1) rotate(0) translate(4 189.25)">
<title>Line::Line</title>
<!-- Node1 -->
<g id="Node000001" class="node">
<title>Node1</title>
<g id="a_Node000001"><a xlink:title="Line Constructor.">
<polygon fill="#999999" stroke="#666666" points="58,-74.25 0,-74.25 0,-55 58,-55 58,-74.25"/>
<text text-anchor="middle" x="29" y="-60.75" font-family="Helvetica,sans-Serif" font-size="10.00">Line::Line</text>
</a>
</g>
</g>
<!-- Node2 -->
<g id="Node000002" class="node">
<title>Node2</title>
<g id="a_Node000002"><a xlink:href="../../d7/da7/class_shape.html#ad3725fd4cfb43613897c2d3f3e647842" target="_top" xlink:title="CreateParentItem &#45; Adds data cooresponding to all shapes to parentItem for a QTreeWidget.">
<polygon fill="white" stroke="#666666" points="222.12,-130.25 95.12,-130.25 95.12,-111 222.12,-111 222.12,-130.25"/>
<text text-anchor="middle" x="158.62" y="-116.75" font-family="Helvetica,sans-Serif" font-size="10.00">Shape::CreateParentItem</text>
</a>
</g>
</g>
<!-- Node1&#45;&gt;Node2 -->
<g id="edge1_Node000001_Node000002" class="edge">
<title>Node1&#45;&gt;Node2</title>
<g id="a_edge1_Node000001_Node000002"><a xlink:title=" ">
<path fill="none" stroke="#63b8ff" d="M44.42,-74.67C57.03,-83.09 76.07,-94.92 94,-102.62 97.59,-104.17 101.35,-105.62 105.17,-106.97"/>
<polygon fill="#63b8ff" stroke="#63b8ff" points="103.98,-110.27 114.57,-110.07 106.17,-103.62 103.98,-110.27"/>
</a>
</g>
</g>
<!-- Node7 -->
<g id="Node000007" class="node">
<title>Node7</title>
<g id="a_Node000007"><a xlink:href="../../d7/da7/class_shape.html#a54f827e6bce6b42cdb4b70c443d2c005" target="_top" xlink:title="CreatePenChild &#45; Adds pen data to penItems vector for a QTreeWidget.">
<polygon fill="white" stroke="#666666" points="218,-56.25 99.25,-56.25 99.25,-37 218,-37 218,-56.25"/>
<text text-anchor="middle" x="158.62" y="-42.75" font-family="Helvetica,sans-Serif" font-size="10.00">Shape::CreatePenChild</text>
</a>
</g>
</g>
<!-- Node1&#45;&gt;Node7 -->
<g id="edge6_Node000001_Node000007" class="edge">
<title>Node1&#45;&gt;Node7</title>
<g id="a_edge6_Node000001_Node000007"><a xlink:title=" ">
<path fill="none" stroke="#63b8ff" d="M58.32,-60.63C67.11,-59.39 77.22,-57.96 87.55,-56.51"/>
<polygon fill="#63b8ff" stroke="#63b8ff" points="87.88,-60 97.3,-55.13 86.9,-53.06 87.88,-60"/>
</a>
</g>
</g>
<!-- Node8 -->
<g id="Node000008" class="node">
<title>Node8</title>
<g id="a_Node000008"><a xlink:href="../../d7/da7/class_shape.html#aa7c347f6f5b1add61d6cad5a01f1c7a4" target="_top" xlink:title="CreatePointsChild &#45; Adds points data to pointsItems vector for a QTreeWidget.">
<polygon fill="white" stroke="#666666" points="223.25,-93.25 94,-93.25 94,-74 223.25,-74 223.25,-93.25"/>
<text text-anchor="middle" x="158.62" y="-79.75" font-family="Helvetica,sans-Serif" font-size="10.00">Shape::CreatePointsChild</text>
</a>
</g>
</g>
<!-- Node1&#45;&gt;Node8 -->
<g id="edge7_Node000001_Node000008" class="edge">
<title>Node1&#45;&gt;Node8</title>
<g id="a_edge7_Node000001_Node000008"><a xlink:title=" ">
<path fill="none" stroke="#63b8ff" d="M58.32,-68.84C65.63,-69.93 73.84,-71.15 82.33,-72.42"/>
<polygon fill="#63b8ff" stroke="#63b8ff" points="81.7,-75.86 92.1,-73.87 82.73,-68.94 81.7,-75.86"/>
</a>
</g>
</g>
<!-- Node9 -->
<g id="Node000009" class="node">
<title>Node9</title>
<g id="a_Node000009"><a xlink:href="../../d7/da7/class_shape.html#a3fffc5f799f419e3e608e03ab1f3e913" target="_top" xlink:title="Shape Constructor.">
<polygon fill="white" stroke="#666666" points="197.38,-19.25 119.88,-19.25 119.88,0 197.38,0 197.38,-19.25"/>
<text text-anchor="middle" x="158.62" y="-5.75" font-family="Helvetica,sans-Serif" font-size="10.00">Shape::Shape</text>
</a>
</g>
</g>
<!-- Node1&#45;&gt;Node9 -->
<g id="edge10_Node000001_Node000009" class="edge">
<title>Node1&#45;&gt;Node9</title>
<g id="a_edge10_Node000001_Node000009"><a xlink:title=" ">
<path fill="none" stroke="#63b8ff" d="M44.96,-54.54C57.6,-46.38 76.39,-35.07 94,-27.62 98.65,-25.66 103.57,-23.84 108.54,-22.17"/>
<polygon fill="#63b8ff" stroke="#63b8ff" points="109.47,-25.55 117.97,-19.22 107.38,-18.87 109.47,-25.55"/>
</a>
</g>
</g>
<!-- Node3 -->
<g id="Node000003" class="node">
<title>Node3</title>
<g id="a_Node000003"><a xlink:href="../../d7/da7/class_shape.html#a4b502262ae5a22122456b9624d5ccb3d" target="_top" xlink:title="Accessor Functions &#45; Returns the data named after them.">
<polygon fill="white" stroke="#666666" points="371.25,-148.25 272,-148.25 272,-129 371.25,-129 371.25,-148.25"/>
<text text-anchor="middle" x="321.62" y="-134.75" font-family="Helvetica,sans-Serif" font-size="10.00">Shape::getShapeId</text>
</a>
</g>
</g>
<!-- Node2&#45;&gt;Node3 -->
<g id="edge2_Node000002_Node000003" class="edge">
<title>Node2&#45;&gt;Node3</title>
<g id="a_edge2_Node000002_Node000003"><a xlink:title=" ">
<path fill="none" stroke="#63b8ff" d="M222.33,-127.64C234.84,-129.03 247.95,-130.5 260.37,-131.89"/>
<polygon fill="#63b8ff" stroke="#63b8ff" points="259.71,-135.34 270.04,-132.97 260.49,-128.38 259.71,-135.34"/>
</a>
</g>
</g>
<!-- Node4 -->
<g id="Node000004" class="node">
<title>Node4</title>
<g id="a_Node000004"><a xlink:href="../../d7/da7/class_shape.html#aec4675c2b06d40373eefac4b982af242" target="_top" xlink:title=" ">
<polygon fill="white" stroke="#666666" points="373.88,-185.25 269.38,-185.25 269.38,-166 373.88,-166 373.88,-185.25"/>
<text text-anchor="middle" x="321.62" y="-171.75" font-family="Helvetica,sans-Serif" font-size="10.00">Shape::getTrackerId</text>
</a>
</g>
</g>
<!-- Node2&#45;&gt;Node4 -->
<g id="edge3_Node000002_Node000004" class="edge">
<title>Node2&#45;&gt;Node4</title>
<g id="a_edge3_Node000002_Node000004"><a xlink:title=" ">
<path fill="none" stroke="#63b8ff" d="M185.25,-130.71C205.27,-138.45 233.86,-149.2 259.25,-157.62 264,-159.2 268.98,-160.78 273.97,-162.32"/>
<polygon fill="#63b8ff" stroke="#63b8ff" points="272.76,-165.61 283.34,-165.14 274.78,-158.9 272.76,-165.61"/>
</a>
</g>
</g>
<!-- Node5 -->
<g id="Node000005" class="node">
<title>Node5</title>
<g id="a_Node000005"><a xlink:href="../../d7/da7/class_shape.html#af604de36aa616c585bb30dedf5e5c68b" target="_top" xlink:title=" ">
<polygon fill="white" stroke="#666666" points="356.62,-74.25 286.62,-74.25 286.62,-55 356.62,-55 356.62,-74.25"/>
<text text-anchor="middle" x="321.62" y="-60.75" font-family="Helvetica,sans-Serif" font-size="10.00">Shape::getX</text>
</a>
</g>
</g>
<!-- Node2&#45;&gt;Node5 -->
<g id="edge4_Node000002_Node000005" class="edge">
<title>Node2&#45;&gt;Node5</title>
<g id="a_edge4_Node000002_Node000005"><a xlink:title=" ">
<path fill="none" stroke="#63b8ff" d="M200.49,-110.58C208.16,-108.27 216.03,-105.6 223.25,-102.62 240.17,-95.64 242.36,-89.69 259.25,-82.62 264.49,-80.43 270.09,-78.4 275.7,-76.54"/>
<polygon fill="#63b8ff" stroke="#63b8ff" points="276.44,-79.98 284.95,-73.66 274.36,-73.29 276.44,-79.98"/>
</a>
</g>
</g>
<!-- Node6 -->
<g id="Node000006" class="node">
<title>Node6</title>
<g id="a_Node000006"><a xlink:href="../../d7/da7/class_shape.html#a2e87ea4122381ffb83474f4b69247ded" target="_top" xlink:title=" ">
<polygon fill="white" stroke="#666666" points="356.62,-111.25 286.62,-111.25 286.62,-92 356.62,-92 356.62,-111.25"/>
<text text-anchor="middle" x="321.62" y="-97.75" font-family="Helvetica,sans-Serif" font-size="10.00">Shape::getY</text>
</a>
</g>
</g>
<!-- Node2&#45;&gt;Node6 -->
<g id="edge5_Node000002_Node000006" class="edge">
<title>Node2&#45;&gt;Node6</title>
<g id="a_edge5_Node000002_Node000006"><a xlink:title=" ">
<path fill="none" stroke="#63b8ff" d="M222.33,-113.22C239.81,-111.16 258.47,-108.96 274.78,-107.04"/>
<polygon fill="#63b8ff" stroke="#63b8ff" points="275.16,-110.51 284.69,-105.87 274.34,-103.56 275.16,-110.51"/>
</a>
</g>
</g>
<!-- Node8&#45;&gt;Node5 -->
<g id="edge8_Node000008_Node000005" class="edge">
<title>Node8&#45;&gt;Node5</title>
<g id="a_edge8_Node000008_Node000005"><a xlink:title=" ">
<path fill="none" stroke="#63b8ff" d="M223.72,-76.06C240.94,-74.03 259.2,-71.87 275.17,-69.99"/>
<polygon fill="#63b8ff" stroke="#63b8ff" points="275.33,-73.49 284.85,-68.85 274.51,-66.54 275.33,-73.49"/>
</a>
</g>
</g>
<!-- Node8&#45;&gt;Node6 -->
<g id="edge9_Node000008_Node000006" class="edge">
<title>Node8&#45;&gt;Node6</title>
<g id="a_edge9_Node000008_Node000006"><a xlink:title=" ">
<path fill="none" stroke="#63b8ff" d="M223.72,-90.79C240.94,-92.72 259.2,-94.76 275.17,-96.54"/>
<polygon fill="#63b8ff" stroke="#63b8ff" points="274.52,-99.99 284.85,-97.63 275.3,-93.04 274.52,-99.99"/>
</a>
</g>
</g>
<!-- Node10 -->
<g id="Node000010" class="node">
<title>Node10</title>
<g id="a_Node000010"><a xlink:href="../../d7/da7/class_shape.html#a520308cc2273f60cb19bf5664570bcf8" target="_top" xlink:title=" ">
<polygon fill="white" stroke="#666666" points="384,-19.25 259.25,-19.25 259.25,0 384,0 384,-19.25"/>
<text text-anchor="middle" x="321.62" y="-5.75" font-family="Helvetica,sans-Serif" font-size="10.00">Shape::allocateTrackerId</text>
</a>
</g>
</g>
<!-- Node9&#45;&gt;Node10 -->
<g id="edge11_Node000009_Node000010" class="edge">
<title>Node9&#45;&gt;Node10</title>
<g id="a_edge11_Node000009_Node000010"><a xlink:title=" ">
<path fill="none" stroke="#63b8ff" d="M197.78,-9.62C212.73,-9.62 230.41,-9.62 247.62,-9.62"/>
<polygon fill="#63b8ff" stroke="#63b8ff" points="247.32,-13.13 257.32,-9.63 247.32,-6.13 247.32,-13.13"/>
</a>
</g>
</g>
</g>
</svg>
</svg>

<style type='text/css'>
<![CDATA[
[data-mouse-over-selected='false'] { opacity: 0.7; }
[data-mouse-over-selected='true']  { opacity: 1.0; }
]]>
</style>
<script type="application/ecmascript"><![CDATA[
document.addEventListener('DOMContentLoaded', (event) => {
  highlightEdges();
  highlightAdjacentNodes();
});
]]></script>
</svg>
