<?xml version="1.0" encoding="UTF-8" standalone="no"?>
<!DOCTYPE svg PUBLIC "-//W3C//DTD SVG 1.1//EN"
 "http://www.w3.org/Graphics/SVG/1.1/DTD/svg11.dtd">
<!-- Generated by graphviz version 12.2.1 (20241206.2353)
 -->
<!-- Title: Line::Move Pages: 1 -->
<svg width="305pt" height="101pt"
 viewBox="0.00 0.00 305.00 101.25" xmlns="http://www.w3.org/2000/svg" xmlns:xlink="http://www.w3.org/1999/xlink">

<svg id="main" version="1.1" xmlns="http://www.w3.org/2000/svg" xmlns:xlink="http://www.w3.org/1999/xlink" xml:space="preserve">

<style type="text/css"><![CDATA[
.node, .edge {opacity: 0.7;}
.node.selected, .edge.selected {opacity: 1;}
.edge:hover path { stroke: red; }
.edge:hover polygon { stroke: red; fill: red; }
]]></style>
<script type="application/ecmascript" xlink:href="../../svg.min.js"/>
<svg id="graph" class="graph">
<g id="graph0" class="graph" transform="scale(1 1) rotate(0) translate(4 97.25)">
<title>Line::Move</title>
<!-- Node1 -->
<g id="Node000001" class="node">
<title>Node1</title>
<g id="a_Node000001"><a xlink:title="Move &#45; Moves the Line coords to the passed x and y.">
<polygon fill="#999999" stroke="#666666" points="64,-56.25 0,-56.25 0,-37 64,-37 64,-56.25"/>
<text text-anchor="middle" x="32" y="-42.75" font-family="Helvetica,sans-Serif" font-size="10.00">Line::Move</text>
</a>
</g>
</g>
<!-- Node2 -->
<g id="Node000002" class="node">
<title>Node2</title>
<g id="a_Node000002"><a xlink:href="../../d7/da7/class_shape.html#ab1cc10b4862f2e16db50622e2df278f3" target="_top" xlink:title=" ">
<polygon fill="white" stroke="#666666" points="191,-93.25 100,-93.25 100,-74 191,-74 191,-93.25"/>
<text text-anchor="middle" x="145.5" y="-79.75" font-family="Helvetica,sans-Serif" font-size="10.00">Shape::getPoints</text>
</a>
</g>
</g>
<!-- Node1&#45;&gt;Node2 -->
<g id="edge1_Node000001_Node000002" class="edge">
<title>Node1&#45;&gt;Node2</title>
<g id="a_edge1_Node000001_Node000002"><a xlink:title=" ">
<path fill="none" stroke="#63b8ff" d="M63.47,-56.74C75.76,-60.81 90.13,-65.58 103.33,-69.96"/>
<polygon fill="#63b8ff" stroke="#63b8ff" points="102.04,-73.22 112.63,-73.05 104.24,-66.58 102.04,-73.22"/>
</a>
</g>
</g>
<!-- Node3 -->
<g id="Node000003" class="node">
<title>Node3</title>
<g id="a_Node000003"><a xlink:href="../../dd/db4/class_line.html#ace1900e93794a3f8bfbfdc8ac1b0ed13" target="_top" xlink:title=" ">
<polygon fill="white" stroke="#666666" points="175.62,-56.25 115.38,-56.25 115.38,-37 175.62,-37 175.62,-56.25"/>
<text text-anchor="middle" x="145.5" y="-42.75" font-family="Helvetica,sans-Serif" font-size="10.00">Line::setX</text>
</a>
</g>
</g>
<!-- Node1&#45;&gt;Node3 -->
<g id="edge2_Node000001_Node000003" class="edge">
<title>Node1&#45;&gt;Node3</title>
<g id="a_edge2_Node000001_Node000003"><a xlink:title=" ">
<path fill="none" stroke="#63b8ff" d="M64.36,-46.62C76.49,-46.62 90.54,-46.62 103.46,-46.62"/>
<polygon fill="#63b8ff" stroke="#63b8ff" points="103.4,-50.13 113.4,-46.63 103.4,-43.13 103.4,-50.13"/>
</a>
</g>
</g>
<!-- Node5 -->
<g id="Node000005" class="node">
<title>Node5</title>
<g id="a_Node000005"><a xlink:href="../../dd/db4/class_line.html#a1b3068a1d2a5e4d6141511e637f1d1d9" target="_top" xlink:title=" ">
<polygon fill="white" stroke="#666666" points="175.62,-19.25 115.38,-19.25 115.38,0 175.62,0 175.62,-19.25"/>
<text text-anchor="middle" x="145.5" y="-5.75" font-family="Helvetica,sans-Serif" font-size="10.00">Line::setY</text>
</a>
</g>
</g>
<!-- Node1&#45;&gt;Node5 -->
<g id="edge4_Node000001_Node000005" class="edge">
<title>Node1&#45;&gt;Node5</title>
<g id="a_edge4_Node000001_Node000005"><a xlink:title=" ">
<path fill="none" stroke="#63b8ff" d="M63.47,-36.51C76.06,-32.34 90.84,-27.43 104.3,-22.96"/>
<polygon fill="#63b8ff" stroke="#63b8ff" points="105.4,-26.29 113.79,-19.82 103.19,-19.64 105.4,-26.29"/>
</a>
</g>
</g>
<!-- Node4 -->
<g id="Node000004" class="node">
<title>Node4</title>
<g id="a_Node000004"><a xlink:href="../../d7/da7/class_shape.html#a2d8fd6861bf7906e0152a699ce6054c8" target="_top" xlink:title=" ">
<polygon fill="white" stroke="#666666" points="297,-56.25 227,-56.25 227,-37 297,-37 297,-56.25"/>
<text text-anchor="middle" x="262" y="-42.75" font-family="Helvetica,sans-Serif" font-size="10.00">Shape::setX</text>
</a>
</g>
</g>
<!-- Node3&#45;&gt;Node4 -->
<g id="edge3_Node000003_Node000004" class="edge">
<title>Node3&#45;&gt;Node4</title>
<g id="a_edge3_Node000003_Node000004"><a xlink:title=" ">
<path fill="none" stroke="#63b8ff" d="M175.99,-46.62C187.98,-46.62 202.12,-46.62 215.38,-46.62"/>
<polygon fill="#63b8ff" stroke="#63b8ff" points="215.23,-50.13 225.23,-46.63 215.23,-43.13 215.23,-50.13"/>
</a>
</g>
</g>
<!-- Node6 -->
<g id="Node000006" class="node">
<title>Node6</title>
<g id="a_Node000006"><a xlink:href="../../d7/da7/class_shape.html#aa2b8845b186bf95781ca5d5e22316343" target="_top" xlink:title=" ">
<polygon fill="white" stroke="#666666" points="297,-19.25 227,-19.25 227,0 297,0 297,-19.25"/>
<text text-anchor="middle" x="262" y="-5.75" font-family="Helvetica,sans-Serif" font-size="10.00">Shape::setY</text>
</a>
</g>
</g>
<!-- Node5&#45;&gt;Node6 -->
<g id="edge5_Node000005_Node000006" class="edge">
<title>Node5&#45;&gt;Node6</title>
<g id="a_edge5_Node000005_Node000006"><a xlink:title=" ">
<path fill="none" stroke="#63b8ff" d="M175.99,-9.62C187.98,-9.62 202.12,-9.62 215.38,-9.62"/>
<polygon fill="#63b8ff" stroke="#63b8ff" points="215.23,-13.13 225.23,-9.63 215.23,-6.13 215.23,-13.13"/>
</a>
</g>
</g>
</g>
</svg>
</svg>

<style type='text/css'>
<![CDATA[
[data-mouse-over-selected='false'] { opacity: 0.7; }
[data-mouse-over-selected='true']  { opacity: 1.0; }
]]>
</style>
<script type="application/ecmascript"><![CDATA[
document.addEventListener('DOMContentLoaded', (event) => {
  highlightEdges();
  highlightAdjacentNodes();
});
]]></script>
</svg>
