<?xml version="1.0" encoding="UTF-8" standalone="no"?>
<!DOCTYPE svg PUBLIC "-//W3C//DTD SVG 1.1//EN"
 "http://www.w3.org/Graphics/SVG/1.1/DTD/svg11.dtd">
<!-- Generated by graphviz version 12.2.1 (20241206.2353)
 -->
<!-- Title: /Users/gautam/Local/Forge/Team&#45;Alphawolves/2D&#45;Graphics&#45;Modeler/src/frontend/renderarea.h Pages: 1 -->
<svg width="879pt" height="282pt"
 viewBox="0.00 0.00 879.25 282.00" xmlns="http://www.w3.org/2000/svg" xmlns:xlink="http://www.w3.org/1999/xlink">
<g id="graph0" class="graph" transform="scale(1 1) rotate(0) translate(4 278)">
<title>/Users/gautam/Local/Forge/Team&#45;Alphawolves/2D&#45;Graphics&#45;Modeler/src/frontend/renderarea.h</title>
<!-- Node1 -->
<g id="Node000001" class="node">
<title>Node1</title>
<g id="a_Node000001"><a xlink:title="Defines the RenderArea class, a custom QWidget for drawing and interacting with 2D shapes.">
<polygon fill="#999999" stroke="#666666" points="772.75,-274 643.5,-274 643.5,-221 772.75,-221 772.75,-274"/>
<text text-anchor="start" x="651.5" y="-260.5" font-family="Helvetica,sans-Serif" font-size="10.00">/Users/gautam/Local</text>
<text text-anchor="start" x="651.5" y="-249.25" font-family="Helvetica,sans-Serif" font-size="10.00">/Forge/Team&#45;Alphawolves</text>
<text text-anchor="start" x="651.5" y="-238" font-family="Helvetica,sans-Serif" font-size="10.00">/2D&#45;Graphics&#45;Modeler/src</text>
<text text-anchor="middle" x="708.12" y="-226.75" font-family="Helvetica,sans-Serif" font-size="10.00">/frontend/renderarea.h</text>
</a>
</g>
</g>
<!-- Node2 -->
<g id="Node000002" class="node">
<title>Node2</title>
<g id="a_Node000002"><a xlink:title=" ">
<polygon fill="#e0e0e0" stroke="#999999" points="54.25,-19.25 0,-19.25 0,0 54.25,0 54.25,-19.25"/>
<text text-anchor="middle" x="27.12" y="-5.75" font-family="Helvetica,sans-Serif" font-size="10.00">QWidget</text>
</a>
</g>
</g>
<!-- Node1&#45;&gt;Node2 -->
<g id="edge1_Node000001_Node000002" class="edge">
<title>Node1&#45;&gt;Node2</title>
<g id="a_edge1_Node000001_Node000002"><a xlink:title=" ">
<path fill="none" stroke="#63b8ff" d="M643.15,-242.64C499.2,-232.85 159.41,-202.44 74.12,-129.75 44.46,-104.47 33.38,-57.95 29.35,-31.13"/>
<polygon fill="#63b8ff" stroke="#63b8ff" points="32.82,-30.7 28.08,-21.23 25.88,-31.6 32.82,-30.7"/>
</a>
</g>
</g>
<!-- Node3 -->
<g id="Node000003" class="node">
<title>Node3</title>
<g id="a_Node000003"><a xlink:title=" ">
<polygon fill="#e0e0e0" stroke="#999999" points="688.25,-19.25 634,-19.25 634,0 688.25,0 688.25,-19.25"/>
<text text-anchor="middle" x="661.12" y="-5.75" font-family="Helvetica,sans-Serif" font-size="10.00">QPainter</text>
</a>
</g>
</g>
<!-- Node1&#45;&gt;Node3 -->
<g id="edge2_Node000001_Node000003" class="edge">
<title>Node1&#45;&gt;Node3</title>
<g id="a_edge2_Node000001_Node000003"><a xlink:title=" ">
<path fill="none" stroke="#63b8ff" d="M703.01,-220.81C693.58,-173.53 673.69,-73.66 665.15,-30.83"/>
<polygon fill="#63b8ff" stroke="#63b8ff" points="668.62,-30.31 663.23,-21.19 661.75,-31.68 668.62,-30.31"/>
</a>
</g>
</g>
<!-- Node4 -->
<g id="Node000004" class="node">
<title>Node4</title>
<g id="a_Node000004"><a xlink:title=" ">
<polygon fill="#e0e0e0" stroke="#999999" points="747.5,-19.25 706.75,-19.25 706.75,0 747.5,0 747.5,-19.25"/>
<text text-anchor="middle" x="727.12" y="-5.75" font-family="Helvetica,sans-Serif" font-size="10.00">QPen</text>
</a>
</g>
</g>
<!-- Node1&#45;&gt;Node4 -->
<g id="edge3_Node000001_Node000004" class="edge">
<title>Node1&#45;&gt;Node4</title>
<g id="a_edge3_Node000001_Node000004"><a xlink:title=" ">
<path fill="none" stroke="#63b8ff" d="M710.19,-220.81C713.99,-173.63 722.01,-74.09 725.48,-31.11"/>
<polygon fill="#63b8ff" stroke="#63b8ff" points="728.96,-31.46 726.27,-21.21 721.98,-30.9 728.96,-31.46"/>
</a>
</g>
</g>
<!-- Node5 -->
<g id="Node000005" class="node">
<title>Node5</title>
<g id="a_Node000005"><a xlink:title=" ">
<polygon fill="#e0e0e0" stroke="#999999" points="871.25,-185 793,-185 793,-165.75 871.25,-165.75 871.25,-185"/>
<text text-anchor="middle" x="832.12" y="-171.5" font-family="Helvetica,sans-Serif" font-size="10.00">QMouseEvent</text>
</a>
</g>
</g>
<!-- Node1&#45;&gt;Node5 -->
<g id="edge4_Node000001_Node000005" class="edge">
<title>Node1&#45;&gt;Node5</title>
<g id="a_edge4_Node000001_Node000005"><a xlink:title=" ">
<path fill="none" stroke="#63b8ff" d="M753.95,-220.59C771.66,-210.57 791.27,-199.48 806.41,-190.92"/>
<polygon fill="#63b8ff" stroke="#63b8ff" points="807.81,-194.15 814.79,-186.18 804.37,-188.05 807.81,-194.15"/>
</a>
</g>
</g>
<!-- Node6 -->
<g id="Node000006" class="node">
<title>Node6</title>
<g id="a_Node000006"><a xlink:href="../../dc/d12/all__shapes_8h.html" target="_top" xlink:title=" ">
<polygon fill="white" stroke="#666666" points="448.25,-185 334,-185 334,-165.75 448.25,-165.75 448.25,-185"/>
<text text-anchor="middle" x="391.12" y="-171.5" font-family="Helvetica,sans-Serif" font-size="10.00">../objects/all_shapes.h</text>
</a>
</g>
</g>
<!-- Node1&#45;&gt;Node6 -->
<g id="edge5_Node000001_Node000006" class="edge">
<title>Node1&#45;&gt;Node6</title>
<g id="a_edge5_Node000001_Node000006"><a xlink:title=" ">
<path fill="none" stroke="#63b8ff" d="M643.21,-232.14C584.19,-219.08 498.2,-200.06 443.47,-187.95"/>
<polygon fill="#63b8ff" stroke="#63b8ff" points="444.28,-184.55 433.76,-185.81 442.77,-191.38 444.28,-184.55"/>
</a>
</g>
</g>
<!-- Node17 -->
<g id="Node000017" class="node">
<title>Node17</title>
<g id="a_Node000017"><a xlink:href="../../d6/d68/vector_8h.html" target="_top" xlink:title=" ">
<polygon fill="white" stroke="#666666" points="816.38,-19.25 765.88,-19.25 765.88,0 816.38,0 816.38,-19.25"/>
<text text-anchor="middle" x="791.12" y="-5.75" font-family="Helvetica,sans-Serif" font-size="10.00">vector.h</text>
</a>
</g>
</g>
<!-- Node1&#45;&gt;Node17 -->
<g id="edge35_Node000001_Node000017" class="edge">
<title>Node1&#45;&gt;Node17</title>
<g id="a_edge35_Node000001_Node000017"><a xlink:title=" ">
<path fill="none" stroke="#63b8ff" d="M717.17,-220.81C733.84,-173.43 769.09,-73.23 784.11,-30.55"/>
<polygon fill="#63b8ff" stroke="#63b8ff" points="787.41,-31.72 787.43,-21.13 780.81,-29.4 787.41,-31.72"/>
</a>
</g>
</g>
<!-- Node7 -->
<g id="Node000007" class="node">
<title>Node7</title>
<g id="a_Node000007"><a xlink:href="../../d3/db6/circle_8h.html" target="_top" xlink:title=" ">
<polygon fill="white" stroke="#666666" points="380.88,-129.75 333.38,-129.75 333.38,-110.5 380.88,-110.5 380.88,-129.75"/>
<text text-anchor="middle" x="357.12" y="-116.25" font-family="Helvetica,sans-Serif" font-size="10.00">circle.h</text>
</a>
</g>
</g>
<!-- Node6&#45;&gt;Node7 -->
<g id="edge6_Node000006_Node000007" class="edge">
<title>Node6&#45;&gt;Node7</title>
<g id="a_edge6_Node000006_Node000007"><a xlink:title=" ">
<path fill="none" stroke="#63b8ff" d="M385.51,-165.58C381.01,-158.53 374.54,-148.4 368.91,-139.58"/>
<polygon fill="#63b8ff" stroke="#63b8ff" points="372.01,-137.93 363.68,-131.38 366.11,-141.7 372.01,-137.93"/>
</a>
</g>
</g>
<!-- Node8 -->
<g id="Node000008" class="node">
<title>Node8</title>
<g id="a_Node000008"><a xlink:href="../../da/d18/shape_8h.html" target="_top" xlink:title=" ">
<polygon fill="white" stroke="#666666" points="433.38,-74.5 382.88,-74.5 382.88,-55.25 433.38,-55.25 433.38,-74.5"/>
<text text-anchor="middle" x="408.12" y="-61" font-family="Helvetica,sans-Serif" font-size="10.00">shape.h</text>
</a>
</g>
</g>
<!-- Node6&#45;&gt;Node8 -->
<g id="edge30_Node000006_Node000008" class="edge">
<title>Node6&#45;&gt;Node8</title>
<g id="a_edge30_Node000006_Node000008"><a xlink:title=" ">
<path fill="none" stroke="#63b8ff" d="M368.32,-165.32C343.81,-154.16 310.13,-133.78 324.12,-110.5 334.55,-93.15 354.25,-82.19 371.95,-75.47"/>
<polygon fill="#63b8ff" stroke="#63b8ff" points="372.85,-78.86 381.18,-72.31 370.59,-72.24 372.85,-78.86"/>
</a>
</g>
</g>
<!-- Node18 -->
<g id="Node000018" class="node">
<title>Node18</title>
<g id="a_Node000018"><a xlink:href="../../da/dbf/ellipse_8h.html" target="_top" xlink:title=" ">
<polygon fill="white" stroke="#666666" points="451.12,-129.75 399.12,-129.75 399.12,-110.5 451.12,-110.5 451.12,-129.75"/>
<text text-anchor="middle" x="425.12" y="-116.25" font-family="Helvetica,sans-Serif" font-size="10.00">ellipse.h</text>
</a>
</g>
</g>
<!-- Node6&#45;&gt;Node18 -->
<g id="edge20_Node000006_Node000018" class="edge">
<title>Node6&#45;&gt;Node18</title>
<g id="a_edge20_Node000006_Node000018"><a xlink:title=" ">
<path fill="none" stroke="#63b8ff" d="M396.74,-165.58C401.24,-158.53 407.71,-148.4 413.34,-139.58"/>
<polygon fill="#63b8ff" stroke="#63b8ff" points="416.14,-141.7 418.57,-131.38 410.24,-137.93 416.14,-141.7"/>
</a>
</g>
</g>
<!-- Node19 -->
<g id="Node000019" class="node">
<title>Node19</title>
<g id="a_Node000019"><a xlink:href="../../d7/d5d/line_8h.html" target="_top" xlink:title=" ">
<polygon fill="white" stroke="#666666" points="508.75,-129.75 469.5,-129.75 469.5,-110.5 508.75,-110.5 508.75,-129.75"/>
<text text-anchor="middle" x="489.12" y="-116.25" font-family="Helvetica,sans-Serif" font-size="10.00">line.h</text>
</a>
</g>
</g>
<!-- Node6&#45;&gt;Node19 -->
<g id="edge22_Node000006_Node000019" class="edge">
<title>Node6&#45;&gt;Node19</title>
<g id="a_edge22_Node000006_Node000019"><a xlink:title=" ">
<path fill="none" stroke="#63b8ff" d="M407.75,-165.34C422.81,-157.16 445.27,-144.96 462.78,-135.44"/>
<polygon fill="#63b8ff" stroke="#63b8ff" points="463.97,-138.77 471.09,-130.93 460.63,-132.62 463.97,-138.77"/>
</a>
</g>
</g>
<!-- Node20 -->
<g id="Node000020" class="node">
<title>Node20</title>
<g id="a_Node000020"><a xlink:href="../../dc/db6/polygon_8h.html" target="_top" xlink:title=" ">
<polygon fill="white" stroke="#666666" points="585.12,-129.75 527.12,-129.75 527.12,-110.5 585.12,-110.5 585.12,-129.75"/>
<text text-anchor="middle" x="556.12" y="-116.25" font-family="Helvetica,sans-Serif" font-size="10.00">polygon.h</text>
</a>
</g>
</g>
<!-- Node6&#45;&gt;Node20 -->
<g id="edge24_Node000006_Node000020" class="edge">
<title>Node6&#45;&gt;Node20</title>
<g id="a_edge24_Node000006_Node000020"><a xlink:title=" ">
<path fill="none" stroke="#63b8ff" d="M419.12,-165.34C446.14,-156.62 487.28,-143.34 517.43,-133.61"/>
<polygon fill="#63b8ff" stroke="#63b8ff" points="518.12,-137.07 526.56,-130.67 515.97,-130.41 518.12,-137.07"/>
</a>
</g>
</g>
<!-- Node21 -->
<g id="Node000021" class="node">
<title>Node21</title>
<g id="a_Node000021"><a xlink:href="../../d0/ddf/polyline_8h.html" target="_top" xlink:title=" ">
<polygon fill="white" stroke="#666666" points="660.75,-129.75 603.5,-129.75 603.5,-110.5 660.75,-110.5 660.75,-129.75"/>
<text text-anchor="middle" x="632.12" y="-116.25" font-family="Helvetica,sans-Serif" font-size="10.00">polyline.h</text>
</a>
</g>
</g>
<!-- Node6&#45;&gt;Node21 -->
<g id="edge26_Node000006_Node000021" class="edge">
<title>Node6&#45;&gt;Node21</title>
<g id="a_edge26_Node000006_Node000021"><a xlink:title=" ">
<path fill="none" stroke="#63b8ff" d="M432.74,-165.31C471.47,-156.86 531.07,-143.8 592.08,-130.19"/>
<polygon fill="#63b8ff" stroke="#63b8ff" points="592.61,-133.66 601.61,-128.07 591.08,-126.83 592.61,-133.66"/>
</a>
</g>
</g>
<!-- Node22 -->
<g id="Node000022" class="node">
<title>Node22</title>
<g id="a_Node000022"><a xlink:href="../../db/dd0/rectangle_8h.html" target="_top" xlink:title=" ">
<polygon fill="white" stroke="#666666" points="147.12,-129.75 83.12,-129.75 83.12,-110.5 147.12,-110.5 147.12,-129.75"/>
<text text-anchor="middle" x="115.12" y="-116.25" font-family="Helvetica,sans-Serif" font-size="10.00">rectangle.h</text>
</a>
</g>
</g>
<!-- Node6&#45;&gt;Node22 -->
<g id="edge28_Node000006_Node000022" class="edge">
<title>Node6&#45;&gt;Node22</title>
<g id="a_edge28_Node000006_Node000022"><a xlink:title=" ">
<path fill="none" stroke="#63b8ff" d="M341.56,-165.26C296.38,-156.88 227.49,-143.94 158.42,-130.18"/>
<polygon fill="#63b8ff" stroke="#63b8ff" points="159.32,-126.79 148.83,-128.26 157.95,-133.65 159.32,-126.79"/>
</a>
</g>
</g>
<!-- Node23 -->
<g id="Node000023" class="node">
<title>Node23</title>
<g id="a_Node000023"><a xlink:href="../../d7/d3c/square_8h.html" target="_top" xlink:title=" ">
<polygon fill="white" stroke="#666666" points="218.88,-129.75 165.38,-129.75 165.38,-110.5 218.88,-110.5 218.88,-129.75"/>
<text text-anchor="middle" x="192.12" y="-116.25" font-family="Helvetica,sans-Serif" font-size="10.00">square.h</text>
</a>
</g>
</g>
<!-- Node6&#45;&gt;Node23 -->
<g id="edge31_Node000006_Node000023" class="edge">
<title>Node6&#45;&gt;Node23</title>
<g id="a_edge31_Node000006_Node000023"><a xlink:title=" ">
<path fill="none" stroke="#63b8ff" d="M357.37,-165.34C322.09,-155.9 266.87,-141.13 230.1,-131.29"/>
<polygon fill="#63b8ff" stroke="#63b8ff" points="231.35,-128 220.78,-128.79 229.54,-134.76 231.35,-128"/>
</a>
</g>
</g>
<!-- Node24 -->
<g id="Node000024" class="node">
<title>Node24</title>
<g id="a_Node000024"><a xlink:href="../../d9/dcc/text_8h.html" target="_top" xlink:title=" ">
<polygon fill="white" stroke="#666666" points="277.5,-129.75 236.75,-129.75 236.75,-110.5 277.5,-110.5 277.5,-129.75"/>
<text text-anchor="middle" x="257.12" y="-116.25" font-family="Helvetica,sans-Serif" font-size="10.00">text.h</text>
</a>
</g>
</g>
<!-- Node6&#45;&gt;Node24 -->
<g id="edge33_Node000006_Node000024" class="edge">
<title>Node6&#45;&gt;Node24</title>
<g id="a_edge33_Node000006_Node000024"><a xlink:title=" ">
<path fill="none" stroke="#63b8ff" d="M368.39,-165.34C346.38,-156.59 312.82,-143.26 288.31,-133.52"/>
<polygon fill="#63b8ff" stroke="#63b8ff" points="289.76,-130.33 279.17,-129.89 287.17,-136.83 289.76,-130.33"/>
</a>
</g>
</g>
<!-- Node7&#45;&gt;Node8 -->
<g id="edge7_Node000007_Node000008" class="edge">
<title>Node7&#45;&gt;Node8</title>
<g id="a_edge7_Node000007_Node000008"><a xlink:title=" ">
<path fill="none" stroke="#63b8ff" d="M365.55,-110.33C372.66,-102.9 383.07,-92.04 391.81,-82.91"/>
<polygon fill="#63b8ff" stroke="#63b8ff" points="394.08,-85.6 398.47,-75.95 389.03,-80.75 394.08,-85.6"/>
</a>
</g>
</g>
<!-- Node8&#45;&gt;Node2 -->
<g id="edge10_Node000008_Node000002" class="edge">
<title>Node8&#45;&gt;Node2</title>
<g id="a_edge10_Node000008_Node000002"><a xlink:title=" ">
<path fill="none" stroke="#63b8ff" d="M382.44,-61.5C326.64,-56.13 189.95,-41.91 65.78,-19.57"/>
<polygon fill="#63b8ff" stroke="#63b8ff" points="66.53,-16.15 56.07,-17.79 65.28,-23.03 66.53,-16.15"/>
</a>
</g>
</g>
<!-- Node8&#45;&gt;Node3 -->
<g id="edge14_Node000008_Node000003" class="edge">
<title>Node8&#45;&gt;Node3</title>
<g id="a_edge14_Node000008_Node000003"><a xlink:title=" ">
<path fill="none" stroke="#63b8ff" d="M433.57,-58.92C472.26,-51.32 548.46,-36.14 622.69,-19.74"/>
<polygon fill="#63b8ff" stroke="#63b8ff" points="623.15,-23.22 632.15,-17.64 621.63,-16.39 623.15,-23.22"/>
</a>
</g>
</g>
<!-- Node8&#45;&gt;Node4 -->
<g id="edge13_Node000008_Node000004" class="edge">
<title>Node8&#45;&gt;Node4</title>
<g id="a_edge13_Node000008_Node000004"><a xlink:title=" ">
<path fill="none" stroke="#63b8ff" d="M433.84,-61.01C482.78,-55.34 592.83,-41.44 695.38,-19.36"/>
<polygon fill="#63b8ff" stroke="#63b8ff" points="696.06,-22.79 705.08,-17.23 694.56,-15.95 696.06,-22.79"/>
</a>
</g>
</g>
<!-- Node9 -->
<g id="Node000009" class="node">
<title>Node9</title>
<g id="a_Node000009"><a xlink:title=" ">
<polygon fill="#e0e0e0" stroke="#999999" points="428.12,-19.25 388.12,-19.25 388.12,0 428.12,0 428.12,-19.25"/>
<text text-anchor="middle" x="408.12" y="-5.75" font-family="Helvetica,sans-Serif" font-size="10.00">string</text>
</a>
</g>
</g>
<!-- Node8&#45;&gt;Node9 -->
<g id="edge8_Node000008_Node000009" class="edge">
<title>Node8&#45;&gt;Node9</title>
<g id="a_edge8_Node000008_Node000009"><a xlink:title=" ">
<path fill="none" stroke="#63b8ff" d="M408.12,-55.08C408.12,-48.57 408.12,-39.42 408.12,-31.12"/>
<polygon fill="#63b8ff" stroke="#63b8ff" points="411.63,-31.12 408.13,-21.12 404.63,-31.12 411.63,-31.12"/>
</a>
</g>
</g>
<!-- Node10 -->
<g id="Node000010" class="node">
<title>Node10</title>
<g id="a_Node000010"><a xlink:title=" ">
<polygon fill="#e0e0e0" stroke="#999999" points="489.62,-19.25 446.62,-19.25 446.62,0 489.62,0 489.62,-19.25"/>
<text text-anchor="middle" x="468.12" y="-5.75" font-family="Helvetica,sans-Serif" font-size="10.00">cmath</text>
</a>
</g>
</g>
<!-- Node8&#45;&gt;Node10 -->
<g id="edge9_Node000008_Node000010" class="edge">
<title>Node8&#45;&gt;Node10</title>
<g id="a_edge9_Node000008_Node000010"><a xlink:title=" ">
<path fill="none" stroke="#63b8ff" d="M418.3,-54.84C426.89,-47.22 439.39,-36.12 449.73,-26.95"/>
<polygon fill="#63b8ff" stroke="#63b8ff" points="451.81,-29.79 456.97,-20.53 447.16,-24.55 451.81,-29.79"/>
</a>
</g>
</g>
<!-- Node11 -->
<g id="Node000011" class="node">
<title>Node11</title>
<g id="a_Node000011"><a xlink:title=" ">
<polygon fill="#e0e0e0" stroke="#999999" points="554.5,-19.25 507.75,-19.25 507.75,0 554.5,0 554.5,-19.25"/>
<text text-anchor="middle" x="531.12" y="-5.75" font-family="Helvetica,sans-Serif" font-size="10.00">QColor</text>
</a>
</g>
</g>
<!-- Node8&#45;&gt;Node11 -->
<g id="edge11_Node000008_Node000011" class="edge">
<title>Node8&#45;&gt;Node11</title>
<g id="a_edge11_Node000008_Node000011"><a xlink:title=" ">
<path fill="none" stroke="#63b8ff" d="M428.99,-54.84C448.43,-46.43 477.67,-33.77 499.89,-24.15"/>
<polygon fill="#63b8ff" stroke="#63b8ff" points="500.98,-27.49 508.77,-20.3 498.2,-21.06 500.98,-27.49"/>
</a>
</g>
</g>
<!-- Node12 -->
<g id="Node000012" class="node">
<title>Node12</title>
<g id="a_Node000012"><a xlink:title=" ">
<polygon fill="#e0e0e0" stroke="#999999" points="615.62,-19.25 572.62,-19.25 572.62,0 615.62,0 615.62,-19.25"/>
<text text-anchor="middle" x="594.12" y="-5.75" font-family="Helvetica,sans-Serif" font-size="10.00">QFont</text>
</a>
</g>
</g>
<!-- Node8&#45;&gt;Node12 -->
<g id="edge12_Node000008_Node000012" class="edge">
<title>Node8&#45;&gt;Node12</title>
<g id="a_edge12_Node000008_Node000012"><a xlink:title=" ">
<path fill="none" stroke="#63b8ff" d="M433.6,-56.58C466.73,-47.1 524.66,-30.51 561.12,-20.07"/>
<polygon fill="#63b8ff" stroke="#63b8ff" points="562.04,-23.45 570.69,-17.33 560.11,-16.72 562.04,-23.45"/>
</a>
</g>
</g>
<!-- Node13 -->
<g id="Node000013" class="node">
<title>Node13</title>
<g id="a_Node000013"><a xlink:title=" ">
<polygon fill="#e0e0e0" stroke="#999999" points="111.75,-19.25 72.5,-19.25 72.5,0 111.75,0 111.75,-19.25"/>
<text text-anchor="middle" x="92.12" y="-5.75" font-family="Helvetica,sans-Serif" font-size="10.00">QList</text>
</a>
</g>
</g>
<!-- Node8&#45;&gt;Node13 -->
<g id="edge15_Node000008_Node000013" class="edge">
<title>Node8&#45;&gt;Node13</title>
<g id="a_edge15_Node000008_Node000013"><a xlink:title=" ">
<path fill="none" stroke="#63b8ff" d="M382.57,-61.07C333.94,-55.5 224.6,-41.77 123.07,-19.4"/>
<polygon fill="#63b8ff" stroke="#63b8ff" points="124,-16.02 113.48,-17.25 122.47,-22.85 124,-16.02"/>
</a>
</g>
</g>
<!-- Node14 -->
<g id="Node000014" class="node">
<title>Node14</title>
<g id="a_Node000014"><a xlink:title=" ">
<polygon fill="#e0e0e0" stroke="#999999" points="188.5,-19.25 129.75,-19.25 129.75,0 188.5,0 188.5,-19.25"/>
<text text-anchor="middle" x="159.12" y="-5.75" font-family="Helvetica,sans-Serif" font-size="10.00">QPolygon</text>
</a>
</g>
</g>
<!-- Node8&#45;&gt;Node14 -->
<g id="edge16_Node000008_Node000014" class="edge">
<title>Node8&#45;&gt;Node14</title>
<g id="a_edge16_Node000008_Node000014"><a xlink:title=" ">
<path fill="none" stroke="#63b8ff" d="M382.44,-58.57C344.63,-50.73 271.48,-35.47 199.98,-19.85"/>
<polygon fill="#63b8ff" stroke="#63b8ff" points="200.98,-16.49 190.46,-17.77 199.48,-23.33 200.98,-16.49"/>
</a>
</g>
</g>
<!-- Node15 -->
<g id="Node000015" class="node">
<title>Node15</title>
<g id="a_Node000015"><a xlink:title=" ">
<polygon fill="#e0e0e0" stroke="#999999" points="280,-19.25 206.25,-19.25 206.25,0 280,0 280,-19.25"/>
<text text-anchor="middle" x="243.12" y="-5.75" font-family="Helvetica,sans-Serif" font-size="10.00">QTreeWidget</text>
</a>
</g>
</g>
<!-- Node8&#45;&gt;Node15 -->
<g id="edge17_Node000008_Node000015" class="edge">
<title>Node8&#45;&gt;Node15</title>
<g id="a_edge17_Node000008_Node000015"><a xlink:title=" ">
<path fill="none" stroke="#63b8ff" d="M382.71,-55.67C355.9,-47.02 313.31,-33.28 282.22,-23.24"/>
<polygon fill="#63b8ff" stroke="#63b8ff" points="283.37,-19.94 272.78,-20.2 281.22,-26.6 283.37,-19.94"/>
</a>
</g>
</g>
<!-- Node16 -->
<g id="Node000016" class="node">
<title>Node16</title>
<g id="a_Node000016"><a xlink:title=" ">
<polygon fill="#e0e0e0" stroke="#999999" points="370.25,-19.25 298,-19.25 298,0 370.25,0 370.25,-19.25"/>
<text text-anchor="middle" x="334.12" y="-5.75" font-family="Helvetica,sans-Serif" font-size="10.00">QComboBox</text>
</a>
</g>
</g>
<!-- Node8&#45;&gt;Node16 -->
<g id="edge18_Node000008_Node000016" class="edge">
<title>Node8&#45;&gt;Node16</title>
<g id="a_edge18_Node000008_Node000016"><a xlink:title=" ">
<path fill="none" stroke="#63b8ff" d="M395.57,-54.84C384.66,-46.99 368.62,-35.45 355.66,-26.12"/>
<polygon fill="#63b8ff" stroke="#63b8ff" points="357.88,-23.41 347.72,-20.41 353.79,-29.09 357.88,-23.41"/>
</a>
</g>
</g>
<!-- Node8&#45;&gt;Node17 -->
<g id="edge19_Node000008_Node000017" class="edge">
<title>Node8&#45;&gt;Node17</title>
<g id="a_edge19_Node000008_Node000017"><a xlink:title=" ">
<path fill="none" stroke="#63b8ff" d="M433.61,-61.61C489.7,-56.42 628.23,-42.43 754.57,-19.32"/>
<polygon fill="#63b8ff" stroke="#63b8ff" points="754.9,-22.82 764.1,-17.55 753.63,-15.94 754.9,-22.82"/>
</a>
</g>
</g>
<!-- Node18&#45;&gt;Node8 -->
<g id="edge21_Node000018_Node000008" class="edge">
<title>Node18&#45;&gt;Node8</title>
<g id="a_edge21_Node000018_Node000008"><a xlink:title=" ">
<path fill="none" stroke="#63b8ff" d="M422.32,-110.33C420.19,-103.67 417.18,-94.24 414.48,-85.78"/>
<polygon fill="#63b8ff" stroke="#63b8ff" points="417.83,-84.76 411.45,-76.3 411.16,-86.89 417.83,-84.76"/>
</a>
</g>
</g>
<!-- Node19&#45;&gt;Node8 -->
<g id="edge23_Node000019_Node000008" class="edge">
<title>Node19&#45;&gt;Node8</title>
<g id="a_edge23_Node000019_Node000008"><a xlink:title=" ">
<path fill="none" stroke="#63b8ff" d="M475.38,-110.09C463.4,-102.21 445.75,-90.61 431.54,-81.27"/>
<polygon fill="#63b8ff" stroke="#63b8ff" points="433.48,-78.35 423.2,-75.78 429.63,-84.2 433.48,-78.35"/>
</a>
</g>
</g>
<!-- Node20&#45;&gt;Node8 -->
<g id="edge25_Node000020_Node000008" class="edge">
<title>Node20&#45;&gt;Node8</title>
<g id="a_edge25_Node000020_Node000008"><a xlink:title=" ">
<path fill="none" stroke="#63b8ff" d="M531.02,-110.09C507.1,-101.49 470.84,-88.44 443.9,-78.75"/>
<polygon fill="#63b8ff" stroke="#63b8ff" points="445.37,-75.56 434.78,-75.46 443,-82.14 445.37,-75.56"/>
</a>
</g>
</g>
<!-- Node21&#45;&gt;Node8 -->
<g id="edge27_Node000021_Node000008" class="edge">
<title>Node21&#45;&gt;Node8</title>
<g id="a_edge27_Node000021_Node000008"><a xlink:title=" ">
<path fill="none" stroke="#63b8ff" d="M603.3,-112.27C562.84,-102.65 489.21,-85.15 444.87,-74.61"/>
<polygon fill="#63b8ff" stroke="#63b8ff" points="445.74,-71.22 435.2,-72.31 444.12,-78.03 445.74,-71.22"/>
</a>
</g>
</g>
<!-- Node22&#45;&gt;Node8 -->
<g id="edge29_Node000022_Node000008" class="edge">
<title>Node22&#45;&gt;Node8</title>
<g id="a_edge29_Node000022_Node000008"><a xlink:title=" ">
<path fill="none" stroke="#63b8ff" d="M147.33,-112.25C150.3,-111.64 153.27,-111.05 156.12,-110.5 232.49,-95.71 322.26,-80.28 371.39,-72"/>
<polygon fill="#63b8ff" stroke="#63b8ff" points="371.9,-75.46 381.19,-70.35 370.74,-68.56 371.9,-75.46"/>
</a>
</g>
</g>
<!-- Node23&#45;&gt;Node8 -->
<g id="edge32_Node000023_Node000008" class="edge">
<title>Node23&#45;&gt;Node8</title>
<g id="a_edge32_Node000023_Node000008"><a xlink:title=" ">
<path fill="none" stroke="#63b8ff" d="M219.04,-112.49C257.48,-103.01 328.19,-85.58 371.4,-74.93"/>
<polygon fill="#63b8ff" stroke="#63b8ff" points="372.21,-78.33 381.08,-72.54 370.53,-71.54 372.21,-78.33"/>
</a>
</g>
</g>
<!-- Node24&#45;&gt;Node8 -->
<g id="edge34_Node000024_Node000008" class="edge">
<title>Node24&#45;&gt;Node8</title>
<g id="a_edge34_Node000024_Node000008"><a xlink:title=" ">
<path fill="none" stroke="#63b8ff" d="M277.8,-111.83C301.94,-103.32 342.3,-89.09 371.71,-78.71"/>
<polygon fill="#63b8ff" stroke="#63b8ff" points="372.7,-82.08 380.97,-75.45 370.38,-75.48 372.7,-82.08"/>
</a>
</g>
</g>
</g>
</svg>
