<?xml version="1.0" encoding="UTF-8" standalone="no"?>
<!DOCTYPE svg PUBLIC "-//W3C//DTD SVG 1.1//EN"
 "http://www.w3.org/Graphics/SVG/1.1/DTD/svg11.dtd">
<!-- Generated by graphviz version 12.2.1 (20241206.2353)
 -->
<!-- Title: MainWindow::onSortMethodChanged Pages: 1 -->
<svg width="478pt" height="224pt"
 viewBox="0.00 0.00 478.25 223.88" xmlns="http://www.w3.org/2000/svg" xmlns:xlink="http://www.w3.org/1999/xlink">
<g id="graph0" class="graph" transform="scale(1 1) rotate(0) translate(4 219.88)">
<title>MainWindow::onSortMethodChanged</title>
<!-- Node1 -->
<g id="Node000001" class="node">
<title>Node1</title>
<g id="a_Node000001"><a xlink:title="Slot triggered when the sort method or order in the shape report table changes.">
<polygon fill="#999999" stroke="#666666" points="139,-116.88 0,-116.88 0,-86.38 139,-86.38 139,-116.88"/>
<text text-anchor="start" x="8" y="-103.38" font-family="Helvetica,sans-Serif" font-size="10.00">MainWindow::onSortMethod</text>
<text text-anchor="middle" x="69.5" y="-92.12" font-family="Helvetica,sans-Serif" font-size="10.00">Changed</text>
</a>
</g>
</g>
<!-- Node2 -->
<g id="Node000002" class="node">
<title>Node2</title>
<g id="a_Node000002"><a xlink:href="../../d9/dc6/class_main_window.html#a90f63362e90934cea68694f0207dd7dc" target="_top" xlink:title="Populates the shape report table with data from the provided vector of shapes.">
<polygon fill="white" stroke="#666666" points="320.75,-215.88 178,-215.88 178,-185.38 320.75,-185.38 320.75,-215.88"/>
<text text-anchor="start" x="186" y="-202.38" font-family="Helvetica,sans-Serif" font-size="10.00">MainWindow::populateShape</text>
<text text-anchor="middle" x="249.38" y="-191.12" font-family="Helvetica,sans-Serif" font-size="10.00">Table</text>
</a>
</g>
</g>
<!-- Node1&#45;&gt;Node2 -->
<g id="edge1_Node000001_Node000002" class="edge">
<title>Node1&#45;&gt;Node2</title>
<g id="a_edge1_Node000001_Node000002"><a xlink:title=" ">
<path fill="none" stroke="#63b8ff" d="M88.63,-117.3C108.64,-133.94 142.34,-160.06 175,-176.62 177.71,-178 180.51,-179.32 183.37,-180.58"/>
<polygon fill="#63b8ff" stroke="#63b8ff" points="181.93,-183.77 192.51,-184.33 184.59,-177.29 181.93,-183.77"/>
</a>
</g>
</g>
<!-- Node4 -->
<g id="Node000004" class="node">
<title>Node4</title>
<g id="a_Node000004"><a xlink:href="../../db/d35/classalpha_1_1vector.html#a8305c181181e4739a1c5f29cf3a2c144" target="_top" xlink:title=" ">
<polygon fill="white" stroke="#666666" points="312.12,-130.25 186.62,-130.25 186.62,-111 312.12,-111 312.12,-130.25"/>
<text text-anchor="middle" x="249.38" y="-116.75" font-family="Helvetica,sans-Serif" font-size="10.00">alpha::vector::push_back</text>
</a>
</g>
</g>
<!-- Node1&#45;&gt;Node4 -->
<g id="edge3_Node000001_Node000004" class="edge">
<title>Node1&#45;&gt;Node4</title>
<g id="a_edge3_Node000001_Node000004"><a xlink:title=" ">
<path fill="none" stroke="#63b8ff" d="M139.27,-108.97C150.98,-110.22 163.17,-111.52 174.99,-112.79"/>
<polygon fill="#63b8ff" stroke="#63b8ff" points="174.36,-116.24 184.68,-113.82 175.1,-109.28 174.36,-116.24"/>
</a>
</g>
</g>
<!-- Node6 -->
<g id="Node000006" class="node">
<title>Node6</title>
<g id="a_Node000006"><a xlink:href="../../d9/dc6/class_main_window.html#ae822357dee3e9aad5cf276768b7f8019" target="_top" xlink:title=" ">
<polygon fill="white" stroke="#666666" points="318.88,-167.25 179.88,-167.25 179.88,-148 318.88,-148 318.88,-167.25"/>
<text text-anchor="middle" x="249.38" y="-153.75" font-family="Helvetica,sans-Serif" font-size="10.00">MainWindow::selection_sort</text>
</a>
</g>
</g>
<!-- Node1&#45;&gt;Node6 -->
<g id="edge5_Node000001_Node000006" class="edge">
<title>Node1&#45;&gt;Node6</title>
<g id="a_edge5_Node000001_Node000006"><a xlink:title=" ">
<path fill="none" stroke="#63b8ff" d="M110.35,-117.27C129.7,-124.56 153.39,-133.07 175,-139.62 180.8,-141.39 186.91,-143.1 193.01,-144.72"/>
<polygon fill="#63b8ff" stroke="#63b8ff" points="191.91,-148.05 202.47,-147.16 193.66,-141.28 191.91,-148.05"/>
</a>
</g>
</g>
<!-- Node7 -->
<g id="Node000007" class="node">
<title>Node7</title>
<g id="a_Node000007"><a xlink:href="../../d9/dc6/class_main_window.html#affcce0444db65d4438f852dbd97424bd" target="_top" xlink:title="Static comparison function to sort shapes by their calculated area.">
<polygon fill="white" stroke="#666666" points="312.88,-93.25 185.88,-93.25 185.88,-74 312.88,-74 312.88,-93.25"/>
<text text-anchor="middle" x="249.38" y="-79.75" font-family="Helvetica,sans-Serif" font-size="10.00">MainWindow::sortByArea</text>
</a>
</g>
</g>
<!-- Node1&#45;&gt;Node7 -->
<g id="edge7_Node000001_Node000007" class="edge">
<title>Node1&#45;&gt;Node7</title>
<g id="a_edge7_Node000001_Node000007"><a xlink:title=" ">
<path fill="none" stroke="#63b8ff" d="M139.27,-94.67C150.71,-93.51 162.62,-92.3 174.18,-91.13"/>
<polygon fill="#63b8ff" stroke="#63b8ff" points="174.5,-94.62 184.1,-90.13 173.8,-87.65 174.5,-94.62"/>
</a>
</g>
</g>
<!-- Node9 -->
<g id="Node000009" class="node">
<title>Node9</title>
<g id="a_Node000009"><a xlink:href="../../d9/dc6/class_main_window.html#a517b645d625b741b3d8aae6d62abe3cb" target="_top" xlink:title="Static comparison function to sort shapes by their ID.">
<polygon fill="white" stroke="#666666" points="306.88,-56.25 191.88,-56.25 191.88,-37 306.88,-37 306.88,-56.25"/>
<text text-anchor="middle" x="249.38" y="-42.75" font-family="Helvetica,sans-Serif" font-size="10.00">MainWindow::sortById</text>
</a>
</g>
</g>
<!-- Node1&#45;&gt;Node9 -->
<g id="edge9_Node000001_Node000009" class="edge">
<title>Node1&#45;&gt;Node9</title>
<g id="a_edge9_Node000001_Node000009"><a xlink:title=" ">
<path fill="none" stroke="#63b8ff" d="M111.88,-85.9C130.96,-78.93 153.98,-70.91 175,-64.62 180.89,-62.86 187.08,-61.14 193.27,-59.51"/>
<polygon fill="#63b8ff" stroke="#63b8ff" points="194.06,-62.92 202.87,-57.05 192.32,-56.14 194.06,-62.92"/>
</a>
</g>
</g>
<!-- Node11 -->
<g id="Node000011" class="node">
<title>Node11</title>
<g id="a_Node000011"><a xlink:href="../../d9/dc6/class_main_window.html#a792a6a99346642416c84649e67e85125" target="_top" xlink:title="Static comparison function to sort shapes by their calculated perimeter.">
<polygon fill="white" stroke="#666666" points="323.75,-19.25 175,-19.25 175,0 323.75,0 323.75,-19.25"/>
<text text-anchor="middle" x="249.38" y="-5.75" font-family="Helvetica,sans-Serif" font-size="10.00">MainWindow::sortByPerimeter</text>
</a>
</g>
</g>
<!-- Node1&#45;&gt;Node11 -->
<g id="edge11_Node000001_Node000011" class="edge">
<title>Node1&#45;&gt;Node11</title>
<g id="a_edge11_Node000001_Node000011"><a xlink:title=" ">
<path fill="none" stroke="#63b8ff" d="M88.08,-86C107.87,-69.2 141.63,-42.86 175,-27.62 178.51,-26.02 182.18,-24.55 185.92,-23.2"/>
<polygon fill="#63b8ff" stroke="#63b8ff" points="186.76,-26.61 195.18,-20.18 184.59,-19.96 186.76,-26.61"/>
</a>
</g>
</g>
<!-- Node3 -->
<g id="Node000003" class="node">
<title>Node3</title>
<g id="a_Node000003"><a xlink:href="../../db/d35/classalpha_1_1vector.html#a78b5e138cba3b9bc0f9d569c6dd96156" target="_top" xlink:title=" ">
<polygon fill="white" stroke="#666666" points="463.12,-188.25 366.88,-188.25 366.88,-169 463.12,-169 463.12,-188.25"/>
<text text-anchor="middle" x="415" y="-174.75" font-family="Helvetica,sans-Serif" font-size="10.00">alpha::vector::size</text>
</a>
</g>
</g>
<!-- Node2&#45;&gt;Node3 -->
<g id="edge2_Node000002_Node000003" class="edge">
<title>Node2&#45;&gt;Node3</title>
<g id="a_edge2_Node000002_Node000003"><a xlink:title=" ">
<path fill="none" stroke="#63b8ff" d="M321.19,-191.1C332.6,-189.57 344.3,-188 355.38,-186.51"/>
<polygon fill="#63b8ff" stroke="#63b8ff" points="355.73,-189.99 365.17,-185.19 354.79,-183.05 355.73,-189.99"/>
</a>
</g>
</g>
<!-- Node5 -->
<g id="Node000005" class="node">
<title>Node5</title>
<g id="a_Node000005"><a xlink:href="../../db/d35/classalpha_1_1vector.html#a6dd9585078696eb1d5e7186435f0e41c" target="_top" xlink:title=" ">
<polygon fill="white" stroke="#666666" points="470.25,-130.25 359.75,-130.25 359.75,-111 470.25,-111 470.25,-130.25"/>
<text text-anchor="middle" x="415" y="-116.75" font-family="Helvetica,sans-Serif" font-size="10.00">alpha::vector::reserve</text>
</a>
</g>
</g>
<!-- Node4&#45;&gt;Node5 -->
<g id="edge4_Node000004_Node000005" class="edge">
<title>Node4&#45;&gt;Node5</title>
<g id="a_edge4_Node000004_Node000005"><a xlink:title=" ">
<path fill="none" stroke="#63b8ff" d="M312.23,-120.62C323.96,-120.62 336.27,-120.62 348.12,-120.62"/>
<polygon fill="#63b8ff" stroke="#63b8ff" points="347.79,-124.13 357.79,-120.63 347.79,-117.13 347.79,-124.13"/>
</a>
</g>
</g>
<!-- Node6&#45;&gt;Node3 -->
<g id="edge6_Node000006_Node000003" class="edge">
<title>Node6&#45;&gt;Node3</title>
<g id="a_edge6_Node000006_Node000003"><a xlink:title=" ">
<path fill="none" stroke="#63b8ff" d="M319.29,-166.47C331.21,-168 343.51,-169.58 355.13,-171.07"/>
<polygon fill="#63b8ff" stroke="#63b8ff" points="354.63,-174.53 364.99,-172.34 355.52,-167.59 354.63,-174.53"/>
</a>
</g>
</g>
<!-- Node8 -->
<g id="Node000008" class="node">
<title>Node8</title>
<g id="a_Node000008"><a xlink:href="../../d7/da7/class_shape.html#a7d09aae7e39d5ecb7ced4e8026ff5c6c" target="_top" xlink:title="Area &#45; Returns the area of the shape.">
<polygon fill="white" stroke="#666666" points="450,-93.25 380,-93.25 380,-74 450,-74 450,-93.25"/>
<text text-anchor="middle" x="415" y="-79.75" font-family="Helvetica,sans-Serif" font-size="10.00">Shape::Area</text>
</a>
</g>
</g>
<!-- Node7&#45;&gt;Node8 -->
<g id="edge8_Node000007_Node000008" class="edge">
<title>Node7&#45;&gt;Node8</title>
<g id="a_edge8_Node000007_Node000008"><a xlink:title=" ">
<path fill="none" stroke="#63b8ff" d="M313.17,-83.62C331.48,-83.62 351.13,-83.62 368.17,-83.62"/>
<polygon fill="#63b8ff" stroke="#63b8ff" points="368,-87.13 378,-83.63 368,-80.13 368,-87.13"/>
</a>
</g>
</g>
<!-- Node10 -->
<g id="Node000010" class="node">
<title>Node10</title>
<g id="a_Node000010"><a xlink:href="../../d7/da7/class_shape.html#a4b502262ae5a22122456b9624d5ccb3d" target="_top" xlink:title="Accessor Functions &#45; Returns the data named after them.">
<polygon fill="white" stroke="#666666" points="464.62,-56.25 365.38,-56.25 365.38,-37 464.62,-37 464.62,-56.25"/>
<text text-anchor="middle" x="415" y="-42.75" font-family="Helvetica,sans-Serif" font-size="10.00">Shape::getShapeId</text>
</a>
</g>
</g>
<!-- Node9&#45;&gt;Node10 -->
<g id="edge10_Node000009_Node000010" class="edge">
<title>Node9&#45;&gt;Node10</title>
<g id="a_edge10_Node000009_Node000010"><a xlink:title=" ">
<path fill="none" stroke="#63b8ff" d="M307.14,-46.62C322.15,-46.62 338.4,-46.62 353.59,-46.62"/>
<polygon fill="#63b8ff" stroke="#63b8ff" points="353.45,-50.13 363.45,-46.63 353.45,-43.13 353.45,-50.13"/>
</a>
</g>
</g>
<!-- Node12 -->
<g id="Node000012" class="node">
<title>Node12</title>
<g id="a_Node000012"><a xlink:href="../../d7/da7/class_shape.html#ac33d1f4554e4b4d9cbbe7159411b111c" target="_top" xlink:title="Perimeter &#45; Returns the perimeter of the shape.">
<polygon fill="white" stroke="#666666" points="460.88,-19.25 369.12,-19.25 369.12,0 460.88,0 460.88,-19.25"/>
<text text-anchor="middle" x="415" y="-5.75" font-family="Helvetica,sans-Serif" font-size="10.00">Shape::Perimeter</text>
</a>
</g>
</g>
<!-- Node11&#45;&gt;Node12 -->
<g id="edge12_Node000011_Node000012" class="edge">
<title>Node11&#45;&gt;Node12</title>
<g id="a_edge12_Node000011_Node000012"><a xlink:title=" ">
<path fill="none" stroke="#63b8ff" d="M324.05,-9.62C335.26,-9.62 346.68,-9.62 357.45,-9.62"/>
<polygon fill="#63b8ff" stroke="#63b8ff" points="357.33,-13.13 367.33,-9.63 357.33,-6.13 357.33,-13.13"/>
</a>
</g>
</g>
</g>
</svg>
