<?xml version="1.0" encoding="UTF-8" standalone="no"?>
<!DOCTYPE svg PUBLIC "-//W3C//DTD SVG 1.1//EN"
 "http://www.w3.org/Graphics/SVG/1.1/DTD/svg11.dtd">
<!-- Generated by graphviz version 12.2.1 (20241206.2353)
 -->
<!-- Title: MainWindow::shapeDeleted Pages: 1 -->
<svg width="523pt" height="88pt"
 viewBox="0.00 0.00 522.75 87.50" xmlns="http://www.w3.org/2000/svg" xmlns:xlink="http://www.w3.org/1999/xlink">
<g id="graph0" class="graph" transform="scale(1 1) rotate(0) translate(4 83.5)">
<title>MainWindow::shapeDeleted</title>
<!-- Node1 -->
<g id="Node000001" class="node">
<title>Node1</title>
<g id="a_Node000001"><a xlink:title="Emitted when a shape is requested to be deleted.">
<polygon fill="#999999" stroke="#666666" points="514.75,-48.88 376.5,-48.88 376.5,-29.62 514.75,-29.62 514.75,-48.88"/>
<text text-anchor="middle" x="445.62" y="-35.38" font-family="Helvetica,sans-Serif" font-size="10.00">MainWindow::shapeDeleted</text>
</a>
</g>
</g>
<!-- Node2 -->
<g id="Node000002" class="node">
<title>Node2</title>
<g id="a_Node000002"><a xlink:href="../../d7/de6/class_app_driver.html#ad4932bc7c7019e2522503886c01ffe33" target="_top" xlink:title="Connects signals from the frontend UI to slots in this AppDriver.">
<polygon fill="white" stroke="#666666" points="333.38,-79.5 195.12,-79.5 195.12,-49 333.38,-49 333.38,-79.5"/>
<text text-anchor="start" x="203.12" y="-66" font-family="Helvetica,sans-Serif" font-size="10.00">AppDriver::connectFrontend</text>
<text text-anchor="middle" x="264.25" y="-54.75" font-family="Helvetica,sans-Serif" font-size="10.00">ToDriver</text>
</a>
</g>
</g>
<!-- Node1&#45;&gt;Node2 -->
<g id="edge1_Node000001_Node000002" class="edge">
<title>Node1&#45;&gt;Node2</title>
<g id="a_edge1_Node000001_Node000002"><a xlink:title=" ">
<path fill="none" stroke="#63b8ff" d="M364.89,-50.36C354.51,-51.81 343.96,-53.28 333.79,-54.7"/>
<polygon fill="#63b8ff" stroke="#63b8ff" points="365.12,-53.86 374.54,-49.02 364.16,-46.93 365.12,-53.86"/>
</a>
</g>
</g>
<!-- Node5 -->
<g id="Node000005" class="node">
<title>Node5</title>
<g id="a_Node000005"><a xlink:href="../../d9/dc6/class_main_window.html#a9412a0e88fa1892ccdbc8a35b85f66b7" target="_top" xlink:title="Slot triggered to remove the currently selected shape.">
<polygon fill="white" stroke="#666666" points="340.5,-30.5 188,-30.5 188,0 340.5,0 340.5,-30.5"/>
<text text-anchor="start" x="196" y="-17" font-family="Helvetica,sans-Serif" font-size="10.00">MainWindow::on_actionremove</text>
<text text-anchor="middle" x="264.25" y="-5.75" font-family="Helvetica,sans-Serif" font-size="10.00">_shape_button_triggered</text>
</a>
</g>
</g>
<!-- Node1&#45;&gt;Node5 -->
<g id="edge4_Node000001_Node000005" class="edge">
<title>Node1&#45;&gt;Node5</title>
<g id="a_edge4_Node000001_Node000005"><a xlink:title=" ">
<path fill="none" stroke="#63b8ff" d="M364.89,-28.58C356.94,-27.52 348.88,-26.44 340.97,-25.38"/>
<polygon fill="#63b8ff" stroke="#63b8ff" points="364.17,-32.02 374.54,-29.87 365.1,-25.08 364.17,-32.02"/>
</a>
</g>
</g>
<!-- Node3 -->
<g id="Node000003" class="node">
<title>Node3</title>
<g id="a_Node000003"><a xlink:href="../../d7/de6/class_app_driver.html#af5bf7b6bd96161d95a0a67cc7693127d" target="_top" xlink:title="Initializes and shows the main application window and loads initial data.">
<polygon fill="white" stroke="#666666" points="152,-73.88 73,-73.88 73,-54.62 152,-54.62 152,-73.88"/>
<text text-anchor="middle" x="112.5" y="-60.38" font-family="Helvetica,sans-Serif" font-size="10.00">AppDriver::run</text>
</a>
</g>
</g>
<!-- Node2&#45;&gt;Node3 -->
<g id="edge2_Node000002_Node000003" class="edge">
<title>Node2&#45;&gt;Node3</title>
<g id="a_edge2_Node000002_Node000003"><a xlink:title=" ">
<path fill="none" stroke="#63b8ff" d="M183.58,-64.25C172.69,-64.25 161.93,-64.25 152.23,-64.25"/>
<polygon fill="#63b8ff" stroke="#63b8ff" points="183.43,-67.75 193.43,-64.25 183.43,-60.75 183.43,-67.75"/>
</a>
</g>
</g>
<!-- Node4 -->
<g id="Node000004" class="node">
<title>Node4</title>
<g id="a_Node000004"><a xlink:href="../../d8/d80/src_2backend_2main_8cpp.html#a0ddf1224851353fc92bfbff6f499fa97" target="_top" xlink:title=" ">
<polygon fill="white" stroke="#666666" points="37,-73.88 0,-73.88 0,-54.62 37,-54.62 37,-73.88"/>
<text text-anchor="middle" x="18.5" y="-60.38" font-family="Helvetica,sans-Serif" font-size="10.00">main</text>
</a>
</g>
</g>
<!-- Node3&#45;&gt;Node4 -->
<g id="edge3_Node000003_Node000004" class="edge">
<title>Node3&#45;&gt;Node4</title>
<g id="a_edge3_Node000003_Node000004"><a xlink:title=" ">
<path fill="none" stroke="#63b8ff" d="M61.34,-64.25C52.67,-64.25 44.2,-64.25 37.18,-64.25"/>
<polygon fill="#63b8ff" stroke="#63b8ff" points="61.24,-67.75 71.24,-64.25 61.24,-60.75 61.24,-67.75"/>
</a>
</g>
</g>
</g>
</svg>
