<?xml version="1.0" encoding="UTF-8" standalone="no"?>
<!DOCTYPE svg PUBLIC "-//W3C//DTD SVG 1.1//EN"
 "http://www.w3.org/Graphics/SVG/1.1/DTD/svg11.dtd">
<!-- Generated by graphviz version 12.2.1 (20241206.2353)
 -->
<!-- Title: MainWindow::loginAttempt Pages: 1 -->
<!--zoomable 76 -->

<svg id="main" version="1.1" xmlns="http://www.w3.org/2000/svg" xmlns:xlink="http://www.w3.org/1999/xlink" xml:space="preserve" onload="init(evt)">

<style type="text/css"><![CDATA[
.node, .edge {opacity: 0.7;}
.node.selected, .edge.selected {opacity: 1;}
.edge:hover path { stroke: red; }
.edge:hover polygon { stroke: red; fill: red; }
]]></style>

<defs>
  <circle id="rim" cx="0" cy="0" r="7"/>
  <circle id="rim2" cx="0" cy="0" r="3.5"/>
  <g id="zoomPlus">
    <use xlink:href="#rim" fill="#404040"><set attributeName="fill" to="#808080" begin="zoomplus.mouseover" end="zoomplus.mouseout"/></use>
    <path d="M-4,0h8M0,-4v8" fill="none" stroke="white" stroke-width="1.5" pointer-events="none"/>
  </g>
  <g id="zoomMin">
    <use xlink:href="#rim" fill="#404040"><set attributeName="fill" to="#808080" begin="zoomminus.mouseover" end="zoomminus.mouseout"/></use>
    <path d="M-4,0h8" fill="none" stroke="white" stroke-width="1.5" pointer-events="none"/>
  </g>
  <g id="arrowUp" transform="translate(30 24)">
    <use xlink:href="#rim"/>
    <path pointer-events="none" fill="none" stroke="white" stroke-width="1.5" d="M0,-3.0v7 M-2.5,-0.5L0,-3.0L2.5,-0.5"/>
  </g>
  <g id="arrowRight" transform="rotate(90) translate(36 -43)">
    <use xlink:href="#rim"/>
    <path pointer-events="none" fill="none" stroke="white" stroke-width="1.5" d="M0,-3.0v7 M-2.5,-0.5L0,-3.0L2.5,-0.5"/>
  </g>
  <g id="arrowDown" transform="rotate(180) translate(-30 -48)">
    <use xlink:href="#rim"/>
    <path pointer-events="none" fill="none" stroke="white" stroke-width="1.5" d="M0,-3.0v7 M-2.5,-0.5L0,-3.0L2.5,-0.5"/>
  </g>
  <g id="arrowLeft" transform="rotate(270) translate(-36 17)">
    <use xlink:href="#rim"/>
    <path pointer-events="none" fill="none" stroke="white" stroke-width="1.5" d="M0,-3.0v7 M-2.5,-0.5L0,-3.0L2.5,-0.5"/>
  </g>
  <g id="resetDef">
    <use xlink:href="#rim2" fill="#404040"><set attributeName="fill" to="#808080" begin="reset.mouseover" end="reset.mouseout"/></use>
  </g>
</defs>
<script type="application/ecmascript">
var viewWidth = 677;
var viewHeight = 76;
var sectionId = 'dynsection-22';
</script>
<script type="application/ecmascript" xlink:href="../../svg.min.js"/>
<svg id="graph" class="graph">
<g id="viewport">
<title>MainWindow::loginAttempt</title>
<!-- Node1 -->
<g id="Node000001" class="node">
<title>Node1</title>
<g id="a_Node000001"><a xlink:title="Emitted when a user attempts to log in.">
<polygon fill="#999999" stroke="#666666" points="669.25,-40.25 536.25,-40.25 536.25,-21 669.25,-21 669.25,-40.25"/>
<text text-anchor="middle" x="602.75" y="-26.75" font-family="Helvetica,sans-Serif" font-size="10.00">MainWindow::loginAttempt</text>
</a>
</g>
</g>
<!-- Node2 -->
<g id="Node000002" class="node">
<title>Node2</title>
<g id="a_Node000002"><a xlink:href="../../d7/de6/class_app_driver.html#ad4932bc7c7019e2522503886c01ffe33" target="_top" xlink:title="Connects signals from the frontend UI to slots in this AppDriver.">
<polygon fill="white" stroke="#666666" points="495,-67.88 356.75,-67.88 356.75,-37.38 495,-37.38 495,-67.88"/>
<text text-anchor="start" x="364.75" y="-54.38" font-family="Helvetica,sans-Serif" font-size="10.00">AppDriver::connectFrontend</text>
<text text-anchor="middle" x="425.88" y="-43.12" font-family="Helvetica,sans-Serif" font-size="10.00">ToDriver</text>
</a>
</g>
</g>
<!-- Node1&#45;&gt;Node2 -->
<g id="edge1_Node000001_Node000002" class="edge">
<title>Node1&#45;&gt;Node2</title>
<g id="a_edge1_Node000001_Node000002"><a xlink:title=" ">
<path fill="none" stroke="#63b8ff" d="M524.79,-40.31C515.03,-41.53 505.1,-42.78 495.49,-43.99"/>
<polygon fill="#63b8ff" stroke="#63b8ff" points="525.15,-43.79 534.63,-39.07 524.28,-36.84 525.15,-43.79"/>
</a>
</g>
</g>
<!-- Node5 -->
<g id="Node000005" class="node">
<title>Node5</title>
<g id="a_Node000005"><a xlink:href="../../d9/dc6/class_main_window.html#a92cfa580b2445cdcb78fedea04dece1f" target="_top" xlink:title="Slot triggered by a login dialog to initiate a login attempt.">
<polygon fill="white" stroke="#666666" points="500.25,-19.25 351.5,-19.25 351.5,0 500.25,0 500.25,-19.25"/>
<text text-anchor="middle" x="425.88" y="-5.75" font-family="Helvetica,sans-Serif" font-size="10.00">MainWindow::onLoginRequest</text>
</a>
</g>
</g>
<!-- Node1&#45;&gt;Node5 -->
<g id="edge4_Node000001_Node000005" class="edge">
<title>Node1&#45;&gt;Node5</title>
<g id="a_edge4_Node000001_Node000005"><a xlink:title=" ">
<path fill="none" stroke="#63b8ff" d="M524.82,-21.39C516.74,-20.42 508.53,-19.43 500.49,-18.47"/>
<polygon fill="#63b8ff" stroke="#63b8ff" points="524.29,-24.85 534.63,-22.57 525.12,-17.9 524.29,-24.85"/>
</a>
</g>
</g>
<!-- Node3 -->
<g id="Node000003" class="node">
<title>Node3</title>
<g id="a_Node000003"><a xlink:href="../../d7/de6/class_app_driver.html#af5bf7b6bd96161d95a0a67cc7693127d" target="_top" xlink:title="Initializes and shows the main application window and loads initial data.">
<polygon fill="white" stroke="#666666" points="282.5,-62.25 203.5,-62.25 203.5,-43 282.5,-43 282.5,-62.25"/>
<text text-anchor="middle" x="243" y="-48.75" font-family="Helvetica,sans-Serif" font-size="10.00">AppDriver::run</text>
</a>
</g>
</g>
<!-- Node2&#45;&gt;Node3 -->
<g id="edge2_Node000002_Node000003" class="edge">
<title>Node2&#45;&gt;Node3</title>
<g id="a_edge2_Node000002_Node000003"><a xlink:title=" ">
<path fill="none" stroke="#63b8ff" d="M345.27,-52.62C323.61,-52.62 301.11,-52.62 282.84,-52.62"/>
<polygon fill="#63b8ff" stroke="#63b8ff" points="344.98,-56.13 354.98,-52.63 344.98,-49.13 344.98,-56.13"/>
</a>
</g>
</g>
<!-- Node4 -->
<g id="Node000004" class="node">
<title>Node4</title>
<g id="a_Node000004"><a xlink:href="../../d8/d80/src_2backend_2main_8cpp.html#a0ddf1224851353fc92bfbff6f499fa97" target="_top" xlink:title=" ">
<polygon fill="white" stroke="#666666" points="85.75,-62.25 48.75,-62.25 48.75,-43 85.75,-43 85.75,-62.25"/>
<text text-anchor="middle" x="67.25" y="-48.75" font-family="Helvetica,sans-Serif" font-size="10.00">main</text>
</a>
</g>
</g>
<!-- Node3&#45;&gt;Node4 -->
<g id="edge3_Node000003_Node000004" class="edge">
<title>Node3&#45;&gt;Node4</title>
<g id="a_edge3_Node000003_Node000004"><a xlink:title=" ">
<path fill="none" stroke="#63b8ff" d="M191.85,-52.62C156.26,-52.62 110.59,-52.62 85.94,-52.62"/>
<polygon fill="#63b8ff" stroke="#63b8ff" points="191.49,-56.13 201.49,-52.63 191.49,-49.13 191.49,-56.13"/>
</a>
</g>
</g>
<!-- Node6 -->
<g id="Node000006" class="node">
<title>Node6</title>
<g id="a_Node000006"><a xlink:href="../../d9/dc6/class_main_window.html#a44b1462463b23490276f54034ab12325" target="_top" xlink:title="Slot triggered when the login button is clicked, typically opening a login dialog.">
<polygon fill="white" stroke="#666666" points="315.5,-19.25 170.5,-19.25 170.5,0 315.5,0 315.5,-19.25"/>
<text text-anchor="middle" x="243" y="-5.75" font-family="Helvetica,sans-Serif" font-size="10.00">MainWindow::onLoginClicked</text>
</a>
</g>
</g>
<!-- Node5&#45;&gt;Node6 -->
<g id="edge5_Node000005_Node000006" class="edge">
<title>Node5&#45;&gt;Node6</title>
<g id="a_edge5_Node000005_Node000006"><a xlink:title=" ">
<path fill="none" stroke="#63b8ff" d="M339.78,-9.62C331.77,-9.62 323.71,-9.62 315.84,-9.62"/>
<polygon fill="#63b8ff" stroke="#63b8ff" points="339.53,-13.13 349.53,-9.63 339.53,-6.13 339.53,-13.13"/>
</a>
</g>
</g>
<!-- Node7 -->
<g id="Node000007" class="node">
<title>Node7</title>
<g id="a_Node000007"><a xlink:href="../../d9/dc6/class_main_window.html#a25d06b6f11a1eb7fa2239f01e853ae29" target="_top" xlink:title=" ">
<polygon fill="white" stroke="#666666" points="134.5,-19.25 0,-19.25 0,0 134.5,0 134.5,-19.25"/>
<text text-anchor="middle" x="67.25" y="-5.75" font-family="Helvetica,sans-Serif" font-size="10.00">MainWindow::MainWindow</text>
</a>
</g>
</g>
<!-- Node6&#45;&gt;Node7 -->
<g id="edge6_Node000006_Node000007" class="edge">
<title>Node6&#45;&gt;Node7</title>
<g id="a_edge6_Node000006_Node000007"><a xlink:title=" ">
<path fill="none" stroke="#63b8ff" d="M158.78,-9.62C150.74,-9.62 142.67,-9.62 134.83,-9.62"/>
<polygon fill="#63b8ff" stroke="#63b8ff" points="158.56,-13.13 168.56,-9.63 158.56,-6.13 158.56,-13.13"/>
</a>
</g>
</g>
</g>
</svg>

<g id="navigator" transform="translate(0 0)" fill="#404254">
  <rect fill="#f2f5e9" fill-opacity="0.5" stroke="#606060" stroke-width=".5" x="0" y="0" width="60" height="60"/>
  <use id="zoomplus" xlink:href="#zoomPlus" x="17" y="9" onmousedown="handleZoom(evt,'in')"/>
  <use id="zoomminus" xlink:href="#zoomMin" x="42" y="9" onmousedown="handleZoom(evt,'out')"/>
  <use id="reset" xlink:href="#resetDef" x="30" y="36" onmousedown="handleReset()"/>
   <use id="arrowup" xlink:href="#arrowUp" x="0" y="0" onmousedown="handlePan(0,-1)"/>
  <use id="arrowright" xlink:href="#arrowRight" x="0" y="0" onmousedown="handlePan(1,0)"/>
  <use id="arrowdown" xlink:href="#arrowDown" x="0" y="0" onmousedown="handlePan(0,1)"/>
  <use id="arrowleft" xlink:href="#arrowLeft" x="0" y="0" onmousedown="handlePan(-1,0)"/>
</g>
<svg viewBox="0 0 15 15" width="100%" height="30px" preserveAspectRatio="xMaxYMin meet">
 <g id="arrow_out" transform="scale(0.3 0.3)">
  <a xlink:href="class_main_window_a3f4e695043359e8f535699cd7da3d15c_icgraph_org.svg" target="_base">
   <rect id="button" ry="5" rx="5" y="6" x="6" height="38" width="38"
        fill="#f2f5e9" fill-opacity="0.5" stroke="#606060" stroke-width="1.0"/>
   <path id="arrow"
     d="M 11.500037,31.436501 C 11.940474,20.09759 22.043105,11.32322 32.158766,21.979434 L 37.068811,17.246167 C 37.068811,17.246167 37.088388,32 37.088388,32 L 22.160133,31.978069 C 22.160133,31.978069 26.997745,27.140456 26.997745,27.140456 C 18.528582,18.264221 13.291696,25.230495 11.500037,31.436501 z"
     style="fill:#404040;"/>
  </a>
 </g>
</svg>

<style type='text/css'>
<![CDATA[
[data-mouse-over-selected='false'] { opacity: 0.7; }
[data-mouse-over-selected='true']  { opacity: 1.0; }
]]>
</style>
<script type="application/ecmascript"><![CDATA[
document.addEventListener('DOMContentLoaded', (event) => {
  highlightEdges();
  highlightAdjacentNodes();
});
]]></script>
</svg>
