<?xml version="1.0" encoding="UTF-8" standalone="no"?>
<!DOCTYPE svg PUBLIC "-//W3C//DTD SVG 1.1//EN"
 "http://www.w3.org/Graphics/SVG/1.1/DTD/svg11.dtd">
<!-- Generated by graphviz version 12.2.1 (20241206.2353)
 -->
<!-- Title: MainWindow::onUserAuthentication Pages: 1 -->
<!--zoomable 1275 -->

<svg id="main" version="1.1" xmlns="http://www.w3.org/2000/svg" xmlns:xlink="http://www.w3.org/1999/xlink" xml:space="preserve" onload="init(evt)">

<style type="text/css"><![CDATA[
.node, .edge {opacity: 0.7;}
.node.selected, .edge.selected {opacity: 1;}
.edge:hover path { stroke: red; }
.edge:hover polygon { stroke: red; fill: red; }
]]></style>

<defs>
  <circle id="rim" cx="0" cy="0" r="7"/>
  <circle id="rim2" cx="0" cy="0" r="3.5"/>
  <g id="zoomPlus">
    <use xlink:href="#rim" fill="#404040"><set attributeName="fill" to="#808080" begin="zoomplus.mouseover" end="zoomplus.mouseout"/></use>
    <path d="M-4,0h8M0,-4v8" fill="none" stroke="white" stroke-width="1.5" pointer-events="none"/>
  </g>
  <g id="zoomMin">
    <use xlink:href="#rim" fill="#404040"><set attributeName="fill" to="#808080" begin="zoomminus.mouseover" end="zoomminus.mouseout"/></use>
    <path d="M-4,0h8" fill="none" stroke="white" stroke-width="1.5" pointer-events="none"/>
  </g>
  <g id="arrowUp" transform="translate(30 24)">
    <use xlink:href="#rim"/>
    <path pointer-events="none" fill="none" stroke="white" stroke-width="1.5" d="M0,-3.0v7 M-2.5,-0.5L0,-3.0L2.5,-0.5"/>
  </g>
  <g id="arrowRight" transform="rotate(90) translate(36 -43)">
    <use xlink:href="#rim"/>
    <path pointer-events="none" fill="none" stroke="white" stroke-width="1.5" d="M0,-3.0v7 M-2.5,-0.5L0,-3.0L2.5,-0.5"/>
  </g>
  <g id="arrowDown" transform="rotate(180) translate(-30 -48)">
    <use xlink:href="#rim"/>
    <path pointer-events="none" fill="none" stroke="white" stroke-width="1.5" d="M0,-3.0v7 M-2.5,-0.5L0,-3.0L2.5,-0.5"/>
  </g>
  <g id="arrowLeft" transform="rotate(270) translate(-36 17)">
    <use xlink:href="#rim"/>
    <path pointer-events="none" fill="none" stroke="white" stroke-width="1.5" d="M0,-3.0v7 M-2.5,-0.5L0,-3.0L2.5,-0.5"/>
  </g>
  <g id="resetDef">
    <use xlink:href="#rim2" fill="#404040"><set attributeName="fill" to="#808080" begin="reset.mouseover" end="reset.mouseout"/></use>
  </g>
</defs>
<script type="application/ecmascript">
var viewWidth = 746;
var viewHeight = 1275;
var sectionId = 'dynsection-55';
</script>
<script type="application/ecmascript" xlink:href="../../svg.min.js"/>
<svg id="graph" class="graph">
<g id="viewport">
<title>MainWindow::onUserAuthentication</title>
<!-- Node1 -->
<g id="Node000001" class="node">
<title>Node1</title>
<g id="a_Node000001"><a xlink:title="Slot triggered upon successful user authentication. Updates UI with user info.">
<polygon fill="#999999" stroke="#666666" points="172,-618.25 0,-618.25 0,-599 172,-599 172,-618.25"/>
<text text-anchor="middle" x="86" y="-604.75" font-family="Helvetica,sans-Serif" font-size="10.00">MainWindow::onUserAuthentication</text>
</a>
</g>
</g>
<!-- Node2 -->
<g id="Node000002" class="node">
<title>Node2</title>
<g id="a_Node000002"><a xlink:href="../../d9/dc6/class_main_window.html#a8cdec14167c6164f6efa118d09e501f5" target="_top" xlink:title="Emitted when a login attempt is successful.">
<polygon fill="white" stroke="#666666" points="344.75,-640.25 208,-640.25 208,-621 344.75,-621 344.75,-640.25"/>
<text text-anchor="middle" x="276.38" y="-626.75" font-family="Helvetica,sans-Serif" font-size="10.00">MainWindow::loginSuccess</text>
</a>
</g>
</g>
<!-- Node1&#45;&gt;Node2 -->
<g id="edge1_Node000001_Node000002" class="edge">
<title>Node1&#45;&gt;Node2</title>
<g id="a_edge1_Node000001_Node000002"><a xlink:title=" ">
<path fill="none" stroke="#63b8ff" d="M172.37,-618.6C180.28,-619.52 188.28,-620.45 196.14,-621.37"/>
<polygon fill="#63b8ff" stroke="#63b8ff" points="195.68,-624.84 206.01,-622.52 196.49,-617.89 195.68,-624.84"/>
</a>
</g>
</g>
<!-- Node3 -->
<g id="Node000003" class="node">
<title>Node3</title>
<g id="a_Node000003"><a xlink:href="../../d9/dc6/class_main_window.html#a5ff173340d6b138bee993d26454d2aaa" target="_top" xlink:title="Populates the tree widget with details of the current shapes and sets up editing controls.">
<polygon fill="white" stroke="#666666" points="331.25,-602.88 221.5,-602.88 221.5,-572.38 331.25,-572.38 331.25,-602.88"/>
<text text-anchor="start" x="229.5" y="-589.38" font-family="Helvetica,sans-Serif" font-size="10.00">MainWindow::shapes</text>
<text text-anchor="middle" x="276.38" y="-578.12" font-family="Helvetica,sans-Serif" font-size="10.00">_to_treeWidget</text>
</a>
</g>
</g>
<!-- Node1&#45;&gt;Node3 -->
<g id="edge2_Node000001_Node000003" class="edge">
<title>Node1&#45;&gt;Node3</title>
<g id="a_edge2_Node000001_Node000003"><a xlink:title=" ">
<path fill="none" stroke="#63b8ff" d="M172.37,-599.11C184.91,-597.71 197.66,-596.29 209.72,-594.94"/>
<polygon fill="#63b8ff" stroke="#63b8ff" points="209.99,-598.44 219.54,-593.85 209.22,-591.48 209.99,-598.44"/>
</a>
</g>
</g>
<!-- Node4 -->
<g id="Node000004" class="node">
<title>Node4</title>
<g id="a_Node000004"><a xlink:href="../../d9/dc6/class_main_window.html#a405427dd9586218cba7d02d495bb88cc" target="_top" xlink:title="Creates and configures a QComboBox for selecting text alignment.">
<polygon fill="white" stroke="#666666" points="543.75,-1266.88 395,-1266.88 395,-1236.38 543.75,-1236.38 543.75,-1266.88"/>
<text text-anchor="start" x="403" y="-1253.38" font-family="Helvetica,sans-Serif" font-size="10.00">MainWindow::createAlignment</text>
<text text-anchor="middle" x="469.38" y="-1242.12" font-family="Helvetica,sans-Serif" font-size="10.00">ComboBox</text>
</a>
</g>
</g>
<!-- Node3&#45;&gt;Node4 -->
<g id="edge3_Node000003_Node000004" class="edge">
<title>Node3&#45;&gt;Node4</title>
<g id="a_edge3_Node000003_Node000004"><a xlink:title=" ">
<path fill="none" stroke="#63b8ff" d="M331.45,-599.97C336.57,-603.03 341.17,-606.86 344.75,-611.62 426.89,-721.14 295.13,-1119.8 380.75,-1226.62 382.2,-1228.43 383.76,-1230.11 385.43,-1231.68"/>
<polygon fill="#63b8ff" stroke="#63b8ff" points="383.25,-1234.41 393.34,-1237.65 387.48,-1228.83 383.25,-1234.41"/>
</a>
</g>
</g>
<!-- Node5 -->
<g id="Node000005" class="node">
<title>Node5</title>
<g id="a_Node000005"><a xlink:href="../../d9/dc6/class_main_window.html#a77d4dace8cb3dab4130649f4dd61f90e" target="_top" xlink:title="Creates and configures a QComboBox for selecting brush styles.">
<polygon fill="white" stroke="#666666" points="546,-1217.88 392.75,-1217.88 392.75,-1187.38 546,-1187.38 546,-1217.88"/>
<text text-anchor="start" x="400.75" y="-1204.38" font-family="Helvetica,sans-Serif" font-size="10.00">MainWindow::createBrushStyle</text>
<text text-anchor="middle" x="469.38" y="-1193.12" font-family="Helvetica,sans-Serif" font-size="10.00">ComboBox</text>
</a>
</g>
</g>
<!-- Node3&#45;&gt;Node5 -->
<g id="edge4_Node000003_Node000005" class="edge">
<title>Node3&#45;&gt;Node5</title>
<g id="a_edge4_Node000003_Node000005"><a xlink:title=" ">
<path fill="none" stroke="#63b8ff" d="M331.75,-600.18C336.74,-603.21 341.24,-606.96 344.75,-611.62 420.75,-712.44 301.03,-1080.73 380.75,-1178.62 381.7,-1179.79 382.71,-1180.91 383.76,-1181.97"/>
<polygon fill="#63b8ff" stroke="#63b8ff" points="381.47,-1184.63 391.44,-1188.21 385.88,-1179.19 381.47,-1184.63"/>
</a>
</g>
</g>
<!-- Node6 -->
<g id="Node000006" class="node">
<title>Node6</title>
<g id="a_Node000006"><a xlink:href="../../d9/dc6/class_main_window.html#a13cf8174967b39a40231f9a98dd21565" target="_top" xlink:title="Creates and configures a QComboBox for selecting colors.">
<polygon fill="white" stroke="#666666" points="558,-1169.25 380.75,-1169.25 380.75,-1150 558,-1150 558,-1169.25"/>
<text text-anchor="middle" x="469.38" y="-1155.75" font-family="Helvetica,sans-Serif" font-size="10.00">MainWindow::createColorComboBox</text>
</a>
</g>
</g>
<!-- Node3&#45;&gt;Node6 -->
<g id="edge5_Node000003_Node000006" class="edge">
<title>Node3&#45;&gt;Node6</title>
<g id="a_edge5_Node000003_Node000006"><a xlink:title=" ">
<path fill="none" stroke="#63b8ff" d="M331.73,-600.19C336.73,-603.22 341.23,-606.97 344.75,-611.62 416.02,-705.73 303.09,-1052.72 380.75,-1141.62 380.92,-1141.82 381.08,-1142 381.25,-1142.19"/>
<polygon fill="#63b8ff" stroke="#63b8ff" points="378.71,-1144.62 388.57,-1148.52 383.29,-1139.33 378.71,-1144.62"/>
</a>
</g>
</g>
<!-- Node7 -->
<g id="Node000007" class="node">
<title>Node7</title>
<g id="a_Node000007"><a xlink:href="../../d9/dc6/class_main_window.html#a3785b3b7329dcdaf51f45312abe7dd6a" target="_top" xlink:title="Creates and configures a QComboBox for selecting font families.">
<polygon fill="white" stroke="#666666" points="556.12,-1132.25 382.62,-1132.25 382.62,-1113 556.12,-1113 556.12,-1132.25"/>
<text text-anchor="middle" x="469.38" y="-1118.75" font-family="Helvetica,sans-Serif" font-size="10.00">MainWindow::createFontComboBox</text>
</a>
</g>
</g>
<!-- Node3&#45;&gt;Node7 -->
<g id="edge6_Node000003_Node000007" class="edge">
<title>Node3&#45;&gt;Node7</title>
<g id="a_edge6_Node000003_Node000007"><a xlink:title=" ">
<path fill="none" stroke="#63b8ff" d="M331.7,-600.21C336.71,-603.23 341.21,-606.98 344.75,-611.62 411.17,-698.84 308.86,-1020.86 380.75,-1103.62 381.32,-1104.29 381.92,-1104.93 382.52,-1105.55"/>
<polygon fill="#63b8ff" stroke="#63b8ff" points="380.08,-1108.08 390.06,-1111.64 384.48,-1102.63 380.08,-1108.08"/>
</a>
</g>
</g>
<!-- Node8 -->
<g id="Node000008" class="node">
<title>Node8</title>
<g id="a_Node000008"><a xlink:href="../../d9/dc6/class_main_window.html#a59688ddfdfc0f919ff7058dfcda42fa1" target="_top" xlink:title="Creates and configures a QComboBox for selecting font styles (normal, italic, oblique).">
<polygon fill="white" stroke="#666666" points="543,-1094.88 395.75,-1094.88 395.75,-1064.38 543,-1064.38 543,-1094.88"/>
<text text-anchor="start" x="403.75" y="-1081.38" font-family="Helvetica,sans-Serif" font-size="10.00">MainWindow::createFontStyle</text>
<text text-anchor="middle" x="469.38" y="-1070.12" font-family="Helvetica,sans-Serif" font-size="10.00">ComboBox</text>
</a>
</g>
</g>
<!-- Node3&#45;&gt;Node8 -->
<g id="edge7_Node000003_Node000008" class="edge">
<title>Node3&#45;&gt;Node8</title>
<g id="a_edge7_Node000003_Node000008"><a xlink:title=" ">
<path fill="none" stroke="#63b8ff" d="M331.66,-600.24C336.68,-603.26 341.2,-607 344.75,-611.62 404.9,-689.96 318.11,-978.26 380.75,-1054.62 382.42,-1056.66 384.25,-1058.54 386.2,-1060.27"/>
<polygon fill="#63b8ff" stroke="#63b8ff" points="384.09,-1063.07 394.25,-1066.07 388.18,-1057.39 384.09,-1063.07"/>
</a>
</g>
</g>
<!-- Node9 -->
<g id="Node000009" class="node">
<title>Node9</title>
<g id="a_Node000009"><a xlink:href="../../d9/dc6/class_main_window.html#aca7d4f5f2149d757046f5d7cd8d5f8f7" target="_top" xlink:title="Creates and configures a QComboBox for selecting font weights.">
<polygon fill="white" stroke="#666666" points="546.75,-1045.88 392,-1045.88 392,-1015.38 546.75,-1015.38 546.75,-1045.88"/>
<text text-anchor="start" x="400" y="-1032.38" font-family="Helvetica,sans-Serif" font-size="10.00">MainWindow::createFontWeight</text>
<text text-anchor="middle" x="469.38" y="-1021.12" font-family="Helvetica,sans-Serif" font-size="10.00">ComboBox</text>
</a>
</g>
</g>
<!-- Node3&#45;&gt;Node9 -->
<g id="edge8_Node000003_Node000009" class="edge">
<title>Node3&#45;&gt;Node9</title>
<g id="a_edge8_Node000003_Node000009"><a xlink:title=" ">
<path fill="none" stroke="#63b8ff" d="M331.62,-600.28C336.64,-603.29 341.17,-607.01 344.75,-611.62 398.65,-681.09 324.65,-937.93 380.75,-1005.62 381.43,-1006.45 382.14,-1007.25 382.88,-1008.03"/>
<polygon fill="#63b8ff" stroke="#63b8ff" points="380.5,-1010.6 390.39,-1014.41 385.04,-1005.27 380.5,-1010.6"/>
</a>
</g>
</g>
<!-- Node10 -->
<g id="Node000010" class="node">
<title>Node10</title>
<g id="a_Node000010"><a xlink:href="../../d9/dc6/class_main_window.html#ad2ca8de275eb8d22001fc8ae43a5b263" target="_top" xlink:title="Creates and configures a QComboBox for selecting pen cap styles.">
<polygon fill="white" stroke="#666666" points="539.62,-996.88 399.12,-996.88 399.12,-966.38 539.62,-966.38 539.62,-996.88"/>
<text text-anchor="start" x="407.12" y="-983.38" font-family="Helvetica,sans-Serif" font-size="10.00">MainWindow::createPenCap</text>
<text text-anchor="middle" x="469.38" y="-972.12" font-family="Helvetica,sans-Serif" font-size="10.00">StyleComboBox</text>
</a>
</g>
</g>
<!-- Node3&#45;&gt;Node10 -->
<g id="edge9_Node000003_Node000010" class="edge">
<title>Node3&#45;&gt;Node10</title>
<g id="a_edge9_Node000003_Node000010"><a xlink:title=" ">
<path fill="none" stroke="#63b8ff" d="M331.56,-600.32C336.59,-603.32 341.14,-607.04 344.75,-611.62 440.04,-732.82 281.62,-838.56 380.75,-956.62 383.32,-959.69 386.24,-962.39 389.41,-964.77"/>
<polygon fill="#63b8ff" stroke="#63b8ff" points="387.3,-967.58 397.64,-969.87 390.98,-961.63 387.3,-967.58"/>
</a>
</g>
</g>
<!-- Node11 -->
<g id="Node000011" class="node">
<title>Node11</title>
<g id="a_Node000011"><a xlink:href="../../d9/dc6/class_main_window.html#ae585cf395690d3bf28b9ff94f8506a03" target="_top" xlink:title="Creates and configures a QComboBox for selecting pen join styles.">
<polygon fill="white" stroke="#666666" points="539.62,-947.88 399.12,-947.88 399.12,-917.38 539.62,-917.38 539.62,-947.88"/>
<text text-anchor="start" x="407.12" y="-934.38" font-family="Helvetica,sans-Serif" font-size="10.00">MainWindow::createPenJoin</text>
<text text-anchor="middle" x="469.38" y="-923.12" font-family="Helvetica,sans-Serif" font-size="10.00">StyleComboBox</text>
</a>
</g>
</g>
<!-- Node3&#45;&gt;Node11 -->
<g id="edge10_Node000003_Node000011" class="edge">
<title>Node3&#45;&gt;Node11</title>
<g id="a_edge10_Node000003_Node000011"><a xlink:title=" ">
<path fill="none" stroke="#63b8ff" d="M331.48,-600.38C336.53,-603.38 341.1,-607.07 344.75,-611.62 427.54,-715.1 294.67,-806.86 380.75,-907.62 383.35,-910.66 386.28,-913.35 389.47,-915.71"/>
<polygon fill="#63b8ff" stroke="#63b8ff" points="387.38,-918.54 397.74,-920.79 391.05,-912.58 387.38,-918.54"/>
</a>
</g>
</g>
<!-- Node12 -->
<g id="Node000012" class="node">
<title>Node12</title>
<g id="a_Node000012"><a xlink:href="../../d9/dc6/class_main_window.html#a55eed5bdf9b2ec38f0d86c661acddcb5" target="_top" xlink:title="Creates and configures a QComboBox for selecting pen styles.">
<polygon fill="white" stroke="#666666" points="541.88,-898.88 396.88,-898.88 396.88,-868.38 541.88,-868.38 541.88,-898.88"/>
<text text-anchor="start" x="404.88" y="-885.38" font-family="Helvetica,sans-Serif" font-size="10.00">MainWindow::createPenStyle</text>
<text text-anchor="middle" x="469.38" y="-874.12" font-family="Helvetica,sans-Serif" font-size="10.00">ComboBox</text>
</a>
</g>
</g>
<!-- Node3&#45;&gt;Node12 -->
<g id="edge11_Node000003_Node000012" class="edge">
<title>Node3&#45;&gt;Node12</title>
<g id="a_edge11_Node000003_Node000012"><a xlink:title=" ">
<path fill="none" stroke="#63b8ff" d="M331.7,-600.66C336.63,-603.6 341.13,-607.21 344.75,-611.62 415.08,-697.42 307.7,-775.13 380.75,-858.62 382.71,-860.86 384.85,-862.91 387.15,-864.78"/>
<polygon fill="#63b8ff" stroke="#63b8ff" points="385.13,-867.64 395.38,-870.29 389.02,-861.82 385.13,-867.64"/>
</a>
</g>
</g>
<!-- Node13 -->
<g id="Node000013" class="node">
<title>Node13</title>
<g id="a_Node000013"><a xlink:href="../../d9/dc6/class_main_window.html#a78611ff63653443ba2244f2f94ad67b2" target="_top" xlink:title="Creates and configures a QSpinBox for editing pen width.">
<polygon fill="white" stroke="#666666" points="543.38,-849.88 395.38,-849.88 395.38,-819.38 543.38,-819.38 543.38,-849.88"/>
<text text-anchor="start" x="403.38" y="-836.38" font-family="Helvetica,sans-Serif" font-size="10.00">MainWindow::createPenWidth</text>
<text text-anchor="middle" x="469.38" y="-825.12" font-family="Helvetica,sans-Serif" font-size="10.00">SpinBox</text>
</a>
</g>
</g>
<!-- Node3&#45;&gt;Node13 -->
<g id="edge12_Node000003_Node000013" class="edge">
<title>Node3&#45;&gt;Node13</title>
<g id="a_edge12_Node000003_Node000013"><a xlink:title=" ">
<path fill="none" stroke="#63b8ff" d="M331.54,-600.79C336.51,-603.71 341.05,-607.27 344.75,-611.62 402.91,-680.15 320.06,-744.33 380.75,-810.62 382.31,-812.33 383.97,-813.91 385.73,-815.39"/>
<polygon fill="#63b8ff" stroke="#63b8ff" points="383.72,-818.25 393.94,-821.05 387.69,-812.49 383.72,-818.25"/>
</a>
</g>
</g>
<!-- Node14 -->
<g id="Node000014" class="node">
<title>Node14</title>
<g id="a_Node000014"><a xlink:href="../../d7/da7/class_shape.html#a8b5e05c84e401dddad339a15fa7d8ab1" target="_top" xlink:title=" ">
<polygon fill="white" stroke="#666666" points="525.38,-801.25 413.38,-801.25 413.38,-782 525.38,-782 525.38,-801.25"/>
<text text-anchor="middle" x="469.38" y="-787.75" font-family="Helvetica,sans-Serif" font-size="10.00">Shape::getBrushColor</text>
</a>
</g>
</g>
<!-- Node3&#45;&gt;Node14 -->
<g id="edge13_Node000003_Node000014" class="edge">
<title>Node3&#45;&gt;Node14</title>
<g id="a_edge13_Node000003_Node000014"><a xlink:title=" ">
<path fill="none" stroke="#63b8ff" d="M331.7,-601.13C336.57,-603.98 341.05,-607.44 344.75,-611.62 393.58,-666.9 328.18,-721.89 380.75,-773.62 386.83,-779.61 394.34,-783.85 402.37,-786.83"/>
<polygon fill="#63b8ff" stroke="#63b8ff" points="401.14,-790.11 411.72,-789.62 403.14,-783.41 401.14,-790.11"/>
</a>
</g>
</g>
<!-- Node15 -->
<g id="Node000015" class="node">
<title>Node15</title>
<g id="a_Node000015"><a xlink:href="../../d7/da7/class_shape.html#a32f4199b1d1c9283c88e4199e787be2e" target="_top" xlink:title=" ">
<polygon fill="white" stroke="#666666" points="526.12,-764.25 412.62,-764.25 412.62,-745 526.12,-745 526.12,-764.25"/>
<text text-anchor="middle" x="469.38" y="-750.75" font-family="Helvetica,sans-Serif" font-size="10.00">Shape::getBrushItems</text>
</a>
</g>
</g>
<!-- Node3&#45;&gt;Node15 -->
<g id="edge14_Node000003_Node000015" class="edge">
<title>Node3&#45;&gt;Node15</title>
<g id="a_edge14_Node000003_Node000015"><a xlink:title=" ">
<path fill="none" stroke="#63b8ff" d="M331.44,-601.36C336.36,-604.17 340.92,-607.55 344.75,-611.62 384.35,-653.75 338.31,-697.37 380.75,-736.62 386.64,-742.07 393.72,-746.05 401.27,-748.94"/>
<polygon fill="#63b8ff" stroke="#63b8ff" points="400.15,-752.26 410.74,-751.88 402.23,-745.57 400.15,-752.26"/>
</a>
</g>
</g>
<!-- Node16 -->
<g id="Node000016" class="node">
<title>Node16</title>
<g id="a_Node000016"><a xlink:href="../../d7/da7/class_shape.html#af9f3e91f66f410f59065a28bb8021d4d" target="_top" xlink:title=" ">
<polygon fill="white" stroke="#666666" points="534.75,-727.25 404,-727.25 404,-708 534.75,-708 534.75,-727.25"/>
<text text-anchor="middle" x="469.38" y="-713.75" font-family="Helvetica,sans-Serif" font-size="10.00">Shape::getBrushItemsEnd</text>
</a>
</g>
</g>
<!-- Node3&#45;&gt;Node16 -->
<g id="edge15_Node000003_Node000016" class="edge">
<title>Node3&#45;&gt;Node16</title>
<g id="a_edge15_Node000003_Node000016"><a xlink:title=" ">
<path fill="none" stroke="#63b8ff" d="M331.67,-602.16C336.42,-604.81 340.89,-607.94 344.75,-611.62 375.31,-640.81 348.23,-672.64 380.75,-699.62 384.62,-702.84 388.91,-705.52 393.46,-707.76"/>
<polygon fill="#63b8ff" stroke="#63b8ff" points="391.77,-710.86 402.35,-711.42 394.44,-704.38 391.77,-710.86"/>
</a>
</g>
</g>
<!-- Node17 -->
<g id="Node000017" class="node">
<title>Node17</title>
<g id="a_Node000017"><a xlink:href="../../d7/da7/class_shape.html#a32e7b26329177063e40671687a0c62be" target="_top" xlink:title=" ">
<polygon fill="white" stroke="#666666" points="525,-690.25 413.75,-690.25 413.75,-671 525,-671 525,-690.25"/>
<text text-anchor="middle" x="469.38" y="-676.75" font-family="Helvetica,sans-Serif" font-size="10.00">Shape::getBrushStyle</text>
</a>
</g>
</g>
<!-- Node3&#45;&gt;Node17 -->
<g id="edge16_Node000003_Node000017" class="edge">
<title>Node3&#45;&gt;Node17</title>
<g id="a_edge16_Node000003_Node000017"><a xlink:title=" ">
<path fill="none" stroke="#63b8ff" d="M331.2,-603.29C335.99,-605.71 340.6,-608.47 344.75,-611.62 366.85,-628.4 357.53,-647.43 380.75,-662.62 387.37,-666.96 394.84,-670.28 402.54,-672.82"/>
<polygon fill="#63b8ff" stroke="#63b8ff" points="401.49,-676.16 412.07,-675.51 403.39,-669.43 401.49,-676.16"/>
</a>
</g>
</g>
<!-- Node18 -->
<g id="Node000018" class="node">
<title>Node18</title>
<g id="a_Node000018"><a xlink:href="../../d7/da7/class_shape.html#a4718fe1b6fc5d30e83a8761175b77344" target="_top" xlink:title=" ">
<polygon fill="white" stroke="#666666" points="520.88,-653.25 417.88,-653.25 417.88,-634 520.88,-634 520.88,-653.25"/>
<text text-anchor="middle" x="469.38" y="-639.75" font-family="Helvetica,sans-Serif" font-size="10.00">Shape::getChildEnd</text>
</a>
</g>
</g>
<!-- Node3&#45;&gt;Node18 -->
<g id="edge17_Node000003_Node000018" class="edge">
<title>Node3&#45;&gt;Node18</title>
<g id="a_edge17_Node000003_Node000018"><a xlink:title=" ">
<path fill="none" stroke="#63b8ff" d="M322.02,-603.32C329.62,-606.05 337.42,-608.89 344.75,-611.62 360.84,-617.62 364.28,-620.77 380.75,-625.62 388.93,-628.04 397.64,-630.24 406.26,-632.22"/>
<polygon fill="#63b8ff" stroke="#63b8ff" points="405.51,-635.64 416.03,-634.36 407.01,-628.8 405.51,-635.64"/>
</a>
</g>
</g>
<!-- Node19 -->
<g id="Node000019" class="node">
<title>Node19</title>
<g id="a_Node000019"><a xlink:href="../../d7/da7/class_shape.html#a8e5d4c7be5890c73cab44af6005573d4" target="_top" xlink:title=" ">
<polygon fill="white" stroke="#666666" points="524.62,-616.25 414.12,-616.25 414.12,-597 524.62,-597 524.62,-616.25"/>
<text text-anchor="middle" x="469.38" y="-602.75" font-family="Helvetica,sans-Serif" font-size="10.00">Shape::getChildItems</text>
</a>
</g>
</g>
<!-- Node3&#45;&gt;Node19 -->
<g id="edge18_Node000003_Node000019" class="edge">
<title>Node3&#45;&gt;Node19</title>
<g id="a_edge18_Node000003_Node000019"><a xlink:title=" ">
<path fill="none" stroke="#63b8ff" d="M331.6,-593.02C353.58,-595.21 379.18,-597.75 402.24,-600.05"/>
<polygon fill="#63b8ff" stroke="#63b8ff" points="401.88,-603.53 412.18,-601.03 402.58,-596.56 401.88,-603.53"/>
</a>
</g>
</g>
<!-- Node20 -->
<g id="Node000020" class="node">
<title>Node20</title>
<g id="a_Node000020"><a xlink:href="../../da/d0e/class_text.html#ace6ab02148fe23efffcd3f7c3dde9183" target="_top" xlink:title=" ">
<polygon fill="white" stroke="#666666" points="506.25,-579.25 432.5,-579.25 432.5,-560 506.25,-560 506.25,-579.25"/>
<text text-anchor="middle" x="469.38" y="-565.75" font-family="Helvetica,sans-Serif" font-size="10.00">Text::getFont</text>
</a>
</g>
</g>
<!-- Node3&#45;&gt;Node20 -->
<g id="edge19_Node000003_Node000020" class="edge">
<title>Node3&#45;&gt;Node20</title>
<g id="a_edge19_Node000003_Node000020"><a xlink:title=" ">
<path fill="none" stroke="#63b8ff" d="M331.6,-582.52C359.78,-579.86 393.89,-576.64 421,-574.09"/>
<polygon fill="#63b8ff" stroke="#63b8ff" points="421.02,-577.6 430.65,-573.18 420.36,-570.63 421.02,-577.6"/>
</a>
</g>
</g>
<!-- Node21 -->
<g id="Node000021" class="node">
<title>Node21</title>
<g id="a_Node000021"><a xlink:href="../../da/d0e/class_text.html#a0a3c00384e73eed7af1d20cffca51b18" target="_top" xlink:title=" ">
<polygon fill="white" stroke="#666666" points="517.5,-542.25 421.25,-542.25 421.25,-523 517.5,-523 517.5,-542.25"/>
<text text-anchor="middle" x="469.38" y="-528.75" font-family="Helvetica,sans-Serif" font-size="10.00">Text::getFontStyle</text>
</a>
</g>
</g>
<!-- Node3&#45;&gt;Node21 -->
<g id="edge20_Node000003_Node000021" class="edge">
<title>Node3&#45;&gt;Node21</title>
<g id="a_edge20_Node000003_Node000021"><a xlink:title=" ">
<path fill="none" stroke="#63b8ff" d="M317.21,-571.88C336.24,-564.75 359.46,-556.59 380.75,-550.62 389.99,-548.04 399.88,-545.65 409.57,-543.51"/>
<polygon fill="#63b8ff" stroke="#63b8ff" points="410.25,-546.95 419.31,-541.44 408.8,-540.1 410.25,-546.95"/>
</a>
</g>
</g>
<!-- Node22 -->
<g id="Node000022" class="node">
<title>Node22</title>
<g id="a_Node000022"><a xlink:href="../../da/d0e/class_text.html#a4b4b411734e3f6ceace9e73d293e2f64" target="_top" xlink:title=" ">
<polygon fill="white" stroke="#666666" points="521.25,-505.25 417.5,-505.25 417.5,-486 521.25,-486 521.25,-505.25"/>
<text text-anchor="middle" x="469.38" y="-491.75" font-family="Helvetica,sans-Serif" font-size="10.00">Text::getFontWeight</text>
</a>
</g>
</g>
<!-- Node3&#45;&gt;Node22 -->
<g id="edge21_Node000003_Node000022" class="edge">
<title>Node3&#45;&gt;Node22</title>
<g id="a_edge21_Node000003_Node000022"><a xlink:title=" ">
<path fill="none" stroke="#63b8ff" d="M294.27,-572.06C313.68,-555.05 347.18,-528.29 380.75,-513.62 388.76,-510.13 397.47,-507.3 406.2,-505.01"/>
<polygon fill="#63b8ff" stroke="#63b8ff" points="406.82,-508.46 415.74,-502.75 405.21,-501.65 406.82,-508.46"/>
</a>
</g>
</g>
<!-- Node23 -->
<g id="Node000023" class="node">
<title>Node23</title>
<g id="a_Node000023"><a xlink:href="../../d7/da7/class_shape.html#a3cca235345ab6f173c4e52a8598ee6b1" target="_top" xlink:title=" ">
<polygon fill="white" stroke="#666666" points="525,-468.25 413.75,-468.25 413.75,-449 525,-449 525,-468.25"/>
<text text-anchor="middle" x="469.38" y="-454.75" font-family="Helvetica,sans-Serif" font-size="10.00">Shape::getParentItem</text>
</a>
</g>
</g>
<!-- Node3&#45;&gt;Node23 -->
<g id="edge22_Node000003_Node000023" class="edge">
<title>Node3&#45;&gt;Node23</title>
<g id="a_edge22_Node000003_Node000023"><a xlink:title=" ">
<path fill="none" stroke="#63b8ff" d="M287.02,-572.25C303.2,-547.83 338.27,-500.48 380.75,-476.62 387.56,-472.8 395.08,-469.78 402.76,-467.4"/>
<polygon fill="#63b8ff" stroke="#63b8ff" points="403.48,-470.84 412.21,-464.84 401.65,-464.08 403.48,-470.84"/>
</a>
</g>
</g>
<!-- Node24 -->
<g id="Node000024" class="node">
<title>Node24</title>
<g id="a_Node000024"><a xlink:href="../../d7/da7/class_shape.html#a1eaba6ddbc4404e64fc6910fa9a9fa11" target="_top" xlink:title=" ">
<polygon fill="white" stroke="#666666" points="529.88,-431.25 408.88,-431.25 408.88,-412 529.88,-412 529.88,-431.25"/>
<text text-anchor="middle" x="469.38" y="-417.75" font-family="Helvetica,sans-Serif" font-size="10.00">Shape::getPenCapStyle</text>
</a>
</g>
</g>
<!-- Node3&#45;&gt;Node24 -->
<g id="edge23_Node000003_Node000024" class="edge">
<title>Node3&#45;&gt;Node24</title>
<g id="a_edge23_Node000003_Node000024"><a xlink:title=" ">
<path fill="none" stroke="#63b8ff" d="M283.49,-572.14C296.44,-541.5 329.69,-473.21 380.75,-439.62 385.94,-436.21 391.65,-433.42 397.58,-431.15"/>
<polygon fill="#63b8ff" stroke="#63b8ff" points="398.6,-434.5 407.02,-428.07 396.42,-427.85 398.6,-434.5"/>
</a>
</g>
</g>
<!-- Node25 -->
<g id="Node000025" class="node">
<title>Node25</title>
<g id="a_Node000025"><a xlink:href="../../d7/da7/class_shape.html#a4cbfcdf734ed9633dfb4dad1dab1cb6f" target="_top" xlink:title=" ">
<polygon fill="white" stroke="#666666" points="521.25,-394.25 417.5,-394.25 417.5,-375 521.25,-375 521.25,-394.25"/>
<text text-anchor="middle" x="469.38" y="-380.75" font-family="Helvetica,sans-Serif" font-size="10.00">Shape::getPenColor</text>
</a>
</g>
</g>
<!-- Node3&#45;&gt;Node25 -->
<g id="edge24_Node000003_Node000025" class="edge">
<title>Node3&#45;&gt;Node25</title>
<g id="a_edge24_Node000003_Node000025"><a xlink:title=" ">
<path fill="none" stroke="#63b8ff" d="M281.3,-572C291.23,-535.89 320.93,-446.42 380.75,-402.62 388.23,-397.15 396.99,-393.24 406.03,-390.48"/>
<polygon fill="#63b8ff" stroke="#63b8ff" points="406.83,-393.89 415.65,-388.02 405.1,-387.11 406.83,-393.89"/>
</a>
</g>
</g>
<!-- Node26 -->
<g id="Node000026" class="node">
<title>Node26</title>
<g id="a_Node000026"><a xlink:href="../../d7/da7/class_shape.html#a633352978d8776c142b848b8d682587a" target="_top" xlink:title=" ">
<polygon fill="white" stroke="#666666" points="718.38,-337.25 613.12,-337.25 613.12,-318 718.38,-318 718.38,-337.25"/>
<text text-anchor="middle" x="665.75" y="-323.75" font-family="Helvetica,sans-Serif" font-size="10.00">Shape::getPenItems</text>
</a>
</g>
</g>
<!-- Node3&#45;&gt;Node26 -->
<g id="edge25_Node000003_Node000026" class="edge">
<title>Node3&#45;&gt;Node26</title>
<g id="a_edge25_Node000003_Node000026"><a xlink:title=" ">
<path fill="none" stroke="#63b8ff" d="M279.49,-572.07C286.02,-530.73 309.85,-417.76 380.75,-365.62 414.8,-340.59 528.76,-332.05 601.55,-329.13"/>
<polygon fill="#63b8ff" stroke="#63b8ff" points="601.49,-332.64 611.35,-328.77 601.23,-325.64 601.49,-332.64"/>
</a>
</g>
</g>
<!-- Node27 -->
<g id="Node000027" class="node">
<title>Node27</title>
<g id="a_Node000027"><a xlink:href="../../d7/da7/class_shape.html#a581611275dae291b4d82927dcd6114b7" target="_top" xlink:title=" ">
<polygon fill="white" stroke="#666666" points="727,-290.25 604.5,-290.25 604.5,-271 727,-271 727,-290.25"/>
<text text-anchor="middle" x="665.75" y="-276.75" font-family="Helvetica,sans-Serif" font-size="10.00">Shape::getPenItemsEnd</text>
</a>
</g>
</g>
<!-- Node3&#45;&gt;Node27 -->
<g id="edge26_Node000003_Node000027" class="edge">
<title>Node3&#45;&gt;Node27</title>
<g id="a_edge26_Node000003_Node000027"><a xlink:title=" ">
<path fill="none" stroke="#63b8ff" d="M277.18,-572.16C277.5,-521.41 286.14,-359.23 380.75,-289.62 450.93,-237.99 559.45,-253.32 620.01,-267.79"/>
<polygon fill="#63b8ff" stroke="#63b8ff" points="619.07,-271.17 629.62,-270.19 620.77,-264.37 619.07,-271.17"/>
</a>
</g>
</g>
<!-- Node28 -->
<g id="Node000028" class="node">
<title>Node28</title>
<g id="a_Node000028"><a xlink:href="../../d7/da7/class_shape.html#a7cf1547b5328248b8a4c066b4c714efa" target="_top" xlink:title=" ">
<polygon fill="white" stroke="#666666" points="529.88,-204.25 408.88,-204.25 408.88,-185 529.88,-185 529.88,-204.25"/>
<text text-anchor="middle" x="469.38" y="-190.75" font-family="Helvetica,sans-Serif" font-size="10.00">Shape::getPenJoinStyle</text>
</a>
</g>
</g>
<!-- Node3&#45;&gt;Node28 -->
<g id="edge27_Node000003_Node000028" class="edge">
<title>Node3&#45;&gt;Node28</title>
<g id="a_edge27_Node000003_Node000028"><a xlink:title=" ">
<path fill="none" stroke="#63b8ff" d="M276.72,-572.02C275.27,-515.67 278.13,-320.65 380.75,-218.62 385.81,-213.59 391.83,-209.58 398.3,-206.4"/>
<polygon fill="#63b8ff" stroke="#63b8ff" points="399.48,-209.7 407.37,-202.63 396.8,-203.24 399.48,-209.7"/>
</a>
</g>
</g>
<!-- Node29 -->
<g id="Node000029" class="node">
<title>Node29</title>
<g id="a_Node000029"><a xlink:href="../../d7/da7/class_shape.html#ad336858f193d765d831deb9ce29246aa" target="_top" xlink:title=" ">
<polygon fill="white" stroke="#666666" points="520.88,-167.25 417.88,-167.25 417.88,-148 520.88,-148 520.88,-167.25"/>
<text text-anchor="middle" x="469.38" y="-153.75" font-family="Helvetica,sans-Serif" font-size="10.00">Shape::getPenStyle</text>
</a>
</g>
</g>
<!-- Node3&#45;&gt;Node29 -->
<g id="edge28_Node000003_Node000029" class="edge">
<title>Node3&#45;&gt;Node29</title>
<g id="a_edge28_Node000003_Node000029"><a xlink:title=" ">
<path fill="none" stroke="#63b8ff" d="M279.07,-572.15C286.84,-504.13 321.23,-232.62 380.75,-175.62 387.92,-168.76 396.98,-164.2 406.53,-161.22"/>
<polygon fill="#63b8ff" stroke="#63b8ff" points="407.12,-164.68 415.98,-158.86 405.43,-157.89 407.12,-164.68"/>
</a>
</g>
</g>
<!-- Node30 -->
<g id="Node000030" class="node">
<title>Node30</title>
<g id="a_Node000030"><a xlink:href="../../d7/da7/class_shape.html#a400f7b5ca58fc561b106a3a672f3f432" target="_top" xlink:title=" ">
<polygon fill="white" stroke="#666666" points="522.38,-130.25 416.38,-130.25 416.38,-111 522.38,-111 522.38,-130.25"/>
<text text-anchor="middle" x="469.38" y="-116.75" font-family="Helvetica,sans-Serif" font-size="10.00">Shape::getPenWidth</text>
</a>
</g>
</g>
<!-- Node3&#45;&gt;Node30 -->
<g id="edge29_Node000003_Node000030" class="edge">
<title>Node3&#45;&gt;Node30</title>
<g id="a_edge29_Node000003_Node000030"><a xlink:title=" ">
<path fill="none" stroke="#63b8ff" d="M278.72,-572.23C285.3,-500.69 316.37,-201.5 380.75,-138.62 387.46,-132.07 395.89,-127.6 404.85,-124.61"/>
<polygon fill="#63b8ff" stroke="#63b8ff" points="405.74,-127.99 414.49,-122.03 403.93,-121.23 405.74,-127.99"/>
</a>
</g>
</g>
<!-- Node31 -->
<g id="Node000031" class="node">
<title>Node31</title>
<g id="a_Node000031"><a xlink:href="../../d7/da7/class_shape.html#a4b502262ae5a22122456b9624d5ccb3d" target="_top" xlink:title="Accessor Functions &#45; Returns the data named after them.">
<polygon fill="white" stroke="#666666" points="519,-93.25 419.75,-93.25 419.75,-74 519,-74 519,-93.25"/>
<text text-anchor="middle" x="469.38" y="-79.75" font-family="Helvetica,sans-Serif" font-size="10.00">Shape::getShapeId</text>
</a>
</g>
</g>
<!-- Node3&#45;&gt;Node31 -->
<g id="edge30_Node000003_Node000031" class="edge">
<title>Node3&#45;&gt;Node31</title>
<g id="a_edge30_Node000003_Node000031"><a xlink:title=" ">
<path fill="none" stroke="#63b8ff" d="M278.45,-572C283.97,-496.49 311.58,-170.31 380.75,-101.62 388.36,-94.07 398.23,-89.28 408.6,-86.32"/>
<polygon fill="#63b8ff" stroke="#63b8ff" points="409.05,-89.8 418.03,-84.18 407.5,-82.98 409.05,-89.8"/>
</a>
</g>
</g>
<!-- Node32 -->
<g id="Node000032" class="node">
<title>Node32</title>
<g id="a_Node000032"><a xlink:href="../../da/d0e/class_text.html#a3d6716fc88f895932e2c96940188c647" target="_top" xlink:title=" ">
<polygon fill="white" stroke="#666666" points="527.62,-56.25 411.12,-56.25 411.12,-37 527.62,-37 527.62,-56.25"/>
<text text-anchor="middle" x="469.38" y="-42.75" font-family="Helvetica,sans-Serif" font-size="10.00">Text::getTextAlignment</text>
</a>
</g>
</g>
<!-- Node3&#45;&gt;Node32 -->
<g id="edge31_Node000003_Node000032" class="edge">
<title>Node3&#45;&gt;Node32</title>
<g id="a_edge31_Node000003_Node000032"><a xlink:title=" ">
<path fill="none" stroke="#63b8ff" d="M278.21,-571.88C282.7,-492.74 306.75,-139.18 380.75,-64.62 386.19,-59.14 392.82,-55.11 399.98,-52.18"/>
<polygon fill="#63b8ff" stroke="#63b8ff" points="400.92,-55.55 409.32,-49.09 398.73,-48.9 400.92,-55.55"/>
</a>
</g>
</g>
<!-- Node33 -->
<g id="Node000033" class="node">
<title>Node33</title>
<g id="a_Node000033"><a xlink:href="../../d7/da7/class_shape.html#aec4675c2b06d40373eefac4b982af242" target="_top" xlink:title=" ">
<polygon fill="white" stroke="#666666" points="718,-242.25 613.5,-242.25 613.5,-223 718,-223 718,-242.25"/>
<text text-anchor="middle" x="665.75" y="-228.75" font-family="Helvetica,sans-Serif" font-size="10.00">Shape::getTrackerId</text>
</a>
</g>
</g>
<!-- Node3&#45;&gt;Node33 -->
<g id="edge32_Node000003_Node000033" class="edge">
<title>Node3&#45;&gt;Node33</title>
<g id="a_edge32_Node000003_Node000033"><a xlink:title=" ">
<path fill="none" stroke="#63b8ff" d="M279.79,-571.93C289.49,-510.99 327.71,-291.38 380.75,-249.62 413.81,-223.6 528.67,-224.68 601.8,-228.32"/>
<polygon fill="#63b8ff" stroke="#63b8ff" points="601.47,-231.81 611.65,-228.85 601.84,-224.82 601.47,-231.81"/>
</a>
</g>
</g>
<!-- Node34 -->
<g id="Node000034" class="node">
<title>Node34</title>
<g id="a_Node000034"><a xlink:href="../../d9/dc6/class_main_window.html#ab5aea14b9366d3d78c9d6e9353e8f5d0" target="_top" xlink:title="Slot triggered when a QComboBox value in the tree widget changes.">
<polygon fill="white" stroke="#666666" points="557.62,-19.25 381.12,-19.25 381.12,0 557.62,0 557.62,-19.25"/>
<text text-anchor="middle" x="469.38" y="-5.75" font-family="Helvetica,sans-Serif" font-size="10.00">MainWindow::onComboBoxChanged</text>
</a>
</g>
</g>
<!-- Node3&#45;&gt;Node34 -->
<g id="edge33_Node000003_Node000034" class="edge">
<title>Node3&#45;&gt;Node34</title>
<g id="a_edge33_Node000003_Node000034"><a xlink:title=" ">
<path fill="none" stroke="#63b8ff" d="M277.98,-571.88C281.49,-489.43 301.86,-108.12 380.75,-27.62 381.13,-27.24 381.52,-26.86 381.91,-26.48"/>
<polygon fill="#63b8ff" stroke="#63b8ff" points="383.86,-29.39 389.7,-20.55 379.63,-23.82 383.86,-29.39"/>
</a>
</g>
</g>
<!-- Node36 -->
<g id="Node000036" class="node">
<title>Node36</title>
<g id="a_Node000036"><a xlink:href="../../d9/dc6/class_main_window.html#a7d524432f3c348d51c52b6bbca13df57" target="_top" xlink:title="Slot triggered when a QSpinBox value in the tree widget changes.">
<polygon fill="white" stroke="#666666" points="551.62,-318.25 387.12,-318.25 387.12,-299 551.62,-299 551.62,-318.25"/>
<text text-anchor="middle" x="469.38" y="-304.75" font-family="Helvetica,sans-Serif" font-size="10.00">MainWindow::onSpinBoxChanged</text>
</a>
</g>
</g>
<!-- Node3&#45;&gt;Node36 -->
<g id="edge35_Node000003_Node000036" class="edge">
<title>Node3&#45;&gt;Node36</title>
<g id="a_edge35_Node000003_Node000036"><a xlink:title=" ">
<path fill="none" stroke="#63b8ff" d="M278.96,-572.02C284.34,-527.55 305.94,-399.1 380.75,-332.62 384.81,-329.02 389.36,-325.95 394.2,-323.33"/>
<polygon fill="#63b8ff" stroke="#63b8ff" points="395.5,-326.59 403.1,-319.22 392.56,-320.24 395.5,-326.59"/>
</a>
</g>
</g>
<!-- Node35 -->
<g id="Node000035" class="node">
<title>Node35</title>
<g id="a_Node000035"><a xlink:href="../../d9/dc6/class_main_window.html#af971d03f10fd514287332e2adfd79bea" target="_top" xlink:title="Emitted when a property of an existing shape is changed.">
<polygon fill="white" stroke="#666666" points="737.5,-19.25 594,-19.25 594,0 737.5,0 737.5,-19.25"/>
<text text-anchor="middle" x="665.75" y="-5.75" font-family="Helvetica,sans-Serif" font-size="10.00">MainWindow::shapeChanged</text>
</a>
</g>
</g>
<!-- Node34&#45;&gt;Node35 -->
<g id="edge34_Node000034_Node000035" class="edge">
<title>Node34&#45;&gt;Node35</title>
<g id="a_edge34_Node000034_Node000035"><a xlink:title=" ">
<path fill="none" stroke="#63b8ff" d="M557.9,-9.62C566.05,-9.62 574.29,-9.62 582.39,-9.62"/>
<polygon fill="#63b8ff" stroke="#63b8ff" points="582.21,-13.13 592.21,-9.63 582.21,-6.13 582.21,-13.13"/>
</a>
</g>
</g>
<!-- Node36&#45;&gt;Node26 -->
<g id="edge36_Node000036_Node000026" class="edge">
<title>Node36&#45;&gt;Node26</title>
<g id="a_edge36_Node000036_Node000026"><a xlink:title=" ">
<path fill="none" stroke="#63b8ff" d="M551.96,-316.6C568.52,-318.22 585.69,-319.9 601.49,-321.44"/>
<polygon fill="#63b8ff" stroke="#63b8ff" points="600.93,-324.9 611.22,-322.39 601.61,-317.94 600.93,-324.9"/>
</a>
</g>
</g>
<!-- Node36&#45;&gt;Node27 -->
<g id="edge37_Node000036_Node000027" class="edge">
<title>Node36&#45;&gt;Node27</title>
<g id="a_edge37_Node000036_Node000027"><a xlink:title=" ">
<path fill="none" stroke="#63b8ff" d="M540.55,-298.52C557.68,-296.05 576.02,-293.41 593.21,-290.93"/>
<polygon fill="#63b8ff" stroke="#63b8ff" points="593.42,-294.44 602.82,-289.55 592.42,-287.51 593.42,-294.44"/>
</a>
</g>
</g>
<!-- Node36&#45;&gt;Node33 -->
<g id="edge38_Node000036_Node000033" class="edge">
<title>Node36&#45;&gt;Node33</title>
<g id="a_edge38_Node000036_Node000033"><a xlink:title=" ">
<path fill="none" stroke="#63b8ff" d="M496.19,-298.53C530.26,-285.21 590.43,-261.68 628.9,-246.64"/>
<polygon fill="#63b8ff" stroke="#63b8ff" points="629.69,-250.09 637.73,-243.19 627.14,-243.57 629.69,-250.09"/>
</a>
</g>
</g>
</g>
</svg>

<g id="navigator" transform="translate(0 0)" fill="#404254">
  <rect fill="#f2f5e9" fill-opacity="0.5" stroke="#606060" stroke-width=".5" x="0" y="0" width="60" height="60"/>
  <use id="zoomplus" xlink:href="#zoomPlus" x="17" y="9" onmousedown="handleZoom(evt,'in')"/>
  <use id="zoomminus" xlink:href="#zoomMin" x="42" y="9" onmousedown="handleZoom(evt,'out')"/>
  <use id="reset" xlink:href="#resetDef" x="30" y="36" onmousedown="handleReset()"/>
   <use id="arrowup" xlink:href="#arrowUp" x="0" y="0" onmousedown="handlePan(0,-1)"/>
  <use id="arrowright" xlink:href="#arrowRight" x="0" y="0" onmousedown="handlePan(1,0)"/>
  <use id="arrowdown" xlink:href="#arrowDown" x="0" y="0" onmousedown="handlePan(0,1)"/>
  <use id="arrowleft" xlink:href="#arrowLeft" x="0" y="0" onmousedown="handlePan(-1,0)"/>
</g>
<svg viewBox="0 0 15 15" width="100%" height="30px" preserveAspectRatio="xMaxYMin meet">
 <g id="arrow_out" transform="scale(0.3 0.3)">
  <a xlink:href="class_main_window_a04d9898f7479308e0e7e2b8796426c2b_cgraph_org.svg" target="_base">
   <rect id="button" ry="5" rx="5" y="6" x="6" height="38" width="38"
        fill="#f2f5e9" fill-opacity="0.5" stroke="#606060" stroke-width="1.0"/>
   <path id="arrow"
     d="M 11.500037,31.436501 C 11.940474,20.09759 22.043105,11.32322 32.158766,21.979434 L 37.068811,17.246167 C 37.068811,17.246167 37.088388,32 37.088388,32 L 22.160133,31.978069 C 22.160133,31.978069 26.997745,27.140456 26.997745,27.140456 C 18.528582,18.264221 13.291696,25.230495 11.500037,31.436501 z"
     style="fill:#404040;"/>
  </a>
 </g>
</svg>

<style type='text/css'>
<![CDATA[
[data-mouse-over-selected='false'] { opacity: 0.7; }
[data-mouse-over-selected='true']  { opacity: 1.0; }
]]>
</style>
<script type="application/ecmascript"><![CDATA[
document.addEventListener('DOMContentLoaded', (event) => {
  highlightEdges();
  highlightAdjacentNodes();
});
]]></script>
</svg>
