<?xml version="1.0" encoding="UTF-8" standalone="no"?>
<!DOCTYPE svg PUBLIC "-//W3C//DTD SVG 1.1//EN"
 "http://www.w3.org/Graphics/SVG/1.1/DTD/svg11.dtd">
<!-- Generated by graphviz version 12.2.1 (20241206.2353)
 -->
<!-- Title: MainWindow::loadStyleSheet Pages: 1 -->
<svg width="499pt" height="27pt"
 viewBox="0.00 0.00 498.50 27.25" xmlns="http://www.w3.org/2000/svg" xmlns:xlink="http://www.w3.org/1999/xlink">
<g id="graph0" class="graph" transform="scale(1 1) rotate(0) translate(4 23.25)">
<title>MainWindow::loadStyleSheet</title>
<!-- Node1 -->
<g id="Node000001" class="node">
<title>Node1</title>
<g id="a_Node000001"><a xlink:title="Loads a Qt stylesheet from the specified file path.">
<polygon fill="#999999" stroke="#666666" points="490.5,-19.25 346.25,-19.25 346.25,0 490.5,0 490.5,-19.25"/>
<text text-anchor="middle" x="418.38" y="-5.75" font-family="Helvetica,sans-Serif" font-size="10.00">MainWindow::loadStyleSheet</text>
</a>
</g>
</g>
<!-- Node2 -->
<g id="Node000002" class="node">
<title>Node2</title>
<g id="a_Node000002"><a xlink:href="../../d9/dc6/class_main_window.html#a2cffa46e8e27e187a30438c2aa0fe04b" target="_top" xlink:title="Toggles the application&#39;s stylesheet between predefined styles.">
<polygon fill="white" stroke="#666666" points="310.25,-19.25 170.5,-19.25 170.5,0 310.25,0 310.25,-19.25"/>
<text text-anchor="middle" x="240.38" y="-5.75" font-family="Helvetica,sans-Serif" font-size="10.00">MainWindow::onToggleStyle</text>
</a>
</g>
</g>
<!-- Node1&#45;&gt;Node2 -->
<g id="edge1_Node000001_Node000002" class="edge">
<title>Node1&#45;&gt;Node2</title>
<g id="a_edge1_Node000001_Node000002"><a xlink:title=" ">
<path fill="none" stroke="#63b8ff" d="M334.54,-9.62C326.53,-9.62 318.47,-9.62 310.62,-9.62"/>
<polygon fill="#63b8ff" stroke="#63b8ff" points="334.28,-13.13 344.28,-9.63 334.28,-6.13 334.28,-13.13"/>
</a>
</g>
</g>
<!-- Node3 -->
<g id="Node000003" class="node">
<title>Node3</title>
<g id="a_Node000003"><a xlink:href="../../d9/dc6/class_main_window.html#a25d06b6f11a1eb7fa2239f01e853ae29" target="_top" xlink:title=" ">
<polygon fill="white" stroke="#666666" points="134.5,-19.25 0,-19.25 0,0 134.5,0 134.5,-19.25"/>
<text text-anchor="middle" x="67.25" y="-5.75" font-family="Helvetica,sans-Serif" font-size="10.00">MainWindow::MainWindow</text>
</a>
</g>
</g>
<!-- Node2&#45;&gt;Node3 -->
<g id="edge2_Node000002_Node000003" class="edge">
<title>Node2&#45;&gt;Node3</title>
<g id="a_edge2_Node000002_Node000003"><a xlink:title=" ">
<path fill="none" stroke="#63b8ff" d="M158.93,-9.62C150.87,-9.62 142.74,-9.62 134.84,-9.62"/>
<polygon fill="#63b8ff" stroke="#63b8ff" points="158.75,-13.13 168.75,-9.63 158.75,-6.13 158.75,-13.13"/>
</a>
</g>
</g>
</g>
</svg>
