<?xml version="1.0" encoding="UTF-8" standalone="no"?>
<!DOCTYPE svg PUBLIC "-//W3C//DTD SVG 1.1//EN"
 "http://www.w3.org/Graphics/SVG/1.1/DTD/svg11.dtd">
<!-- Generated by graphviz version 12.2.1 (20241206.2353)
 -->
<!-- Title: MainWindow::selection_sort Pages: 1 -->
<svg width="701pt" height="54pt"
 viewBox="0.00 0.00 700.50 53.88" xmlns="http://www.w3.org/2000/svg" xmlns:xlink="http://www.w3.org/1999/xlink">
<g id="graph0" class="graph" transform="scale(1 1) rotate(0) translate(4 49.88)">
<title>MainWindow::selection_sort</title>
<!-- Node1 -->
<g id="Node000001" class="node">
<title>Node1</title>
<g id="a_Node000001"><a xlink:title=" ">
<polygon fill="#999999" stroke="#666666" points="692.5,-45.88 553.5,-45.88 553.5,-26.62 692.5,-26.62 692.5,-45.88"/>
<text text-anchor="middle" x="623" y="-32.38" font-family="Helvetica,sans-Serif" font-size="10.00">MainWindow::selection_sort</text>
</a>
</g>
</g>
<!-- Node2 -->
<g id="Node000002" class="node">
<title>Node2</title>
<g id="a_Node000002"><a xlink:href="../../d9/dc6/class_main_window.html#ac4c479f9beafaee136b98e7fac6761ee" target="_top" xlink:title="Creates and displays a new tab or window containing the shape report table.">
<polygon fill="white" stroke="#666666" points="342.5,-45.88 170.5,-45.88 170.5,-26.62 342.5,-26.62 342.5,-45.88"/>
<text text-anchor="middle" x="256.5" y="-32.38" font-family="Helvetica,sans-Serif" font-size="10.00">MainWindow::createShapeTableTab</text>
</a>
</g>
</g>
<!-- Node1&#45;&gt;Node2 -->
<g id="edge1_Node000001_Node000002" class="edge">
<title>Node1&#45;&gt;Node2</title>
<g id="a_edge1_Node000001_Node000002"><a xlink:title=" ">
<path fill="none" stroke="#63b8ff" d="M541.65,-38.79C533.49,-38.98 525.33,-39.14 517.5,-39.25 455.73,-40.14 440.27,-40.02 378.5,-39.25 366.94,-39.11 354.77,-38.89 342.77,-38.63"/>
<polygon fill="#63b8ff" stroke="#63b8ff" points="541.72,-42.29 551.63,-38.54 541.55,-35.29 541.72,-42.29"/>
</a>
</g>
</g>
<!-- Node4 -->
<g id="Node000004" class="node">
<title>Node4</title>
<g id="a_Node000004"><a xlink:href="../../d9/dc6/class_main_window.html#a755e3ce5cc1f97792cc7f7eff9da3858" target="_top" xlink:title="Slot triggered when the sort method or order in the shape report table changes.">
<polygon fill="white" stroke="#666666" points="517.5,-30.5 378.5,-30.5 378.5,0 517.5,0 517.5,-30.5"/>
<text text-anchor="start" x="386.5" y="-17" font-family="Helvetica,sans-Serif" font-size="10.00">MainWindow::onSortMethod</text>
<text text-anchor="middle" x="448" y="-5.75" font-family="Helvetica,sans-Serif" font-size="10.00">Changed</text>
</a>
</g>
</g>
<!-- Node1&#45;&gt;Node4 -->
<g id="edge3_Node000001_Node000004" class="edge">
<title>Node1&#45;&gt;Node4</title>
<g id="a_edge3_Node000001_Node000004"><a xlink:title=" ">
<path fill="none" stroke="#63b8ff" d="M541.88,-26.53C533.88,-25.55 525.8,-24.57 517.92,-23.62"/>
<polygon fill="#63b8ff" stroke="#63b8ff" points="541.28,-29.98 551.63,-27.71 542.12,-23.03 541.28,-29.98"/>
</a>
</g>
</g>
<!-- Node3 -->
<g id="Node000003" class="node">
<title>Node3</title>
<g id="a_Node000003"><a xlink:href="../../d9/dc6/class_main_window.html#a25d06b6f11a1eb7fa2239f01e853ae29" target="_top" xlink:title=" ">
<polygon fill="white" stroke="#666666" points="134.5,-45.88 0,-45.88 0,-26.62 134.5,-26.62 134.5,-45.88"/>
<text text-anchor="middle" x="67.25" y="-32.38" font-family="Helvetica,sans-Serif" font-size="10.00">MainWindow::MainWindow</text>
</a>
</g>
</g>
<!-- Node2&#45;&gt;Node3 -->
<g id="edge2_Node000002_Node000003" class="edge">
<title>Node2&#45;&gt;Node3</title>
<g id="a_edge2_Node000002_Node000003"><a xlink:title=" ">
<path fill="none" stroke="#63b8ff" d="M158.66,-36.25C150.58,-36.25 142.52,-36.25 134.74,-36.25"/>
<polygon fill="#63b8ff" stroke="#63b8ff" points="158.58,-39.75 168.58,-36.25 158.58,-32.75 158.58,-39.75"/>
</a>
</g>
</g>
<!-- Node4&#45;&gt;Node2 -->
<g id="edge4_Node000004_Node000002" class="edge">
<title>Node4&#45;&gt;Node2</title>
<g id="a_edge4_Node000004_Node000002"><a xlink:title=" ">
<path fill="none" stroke="#63b8ff" d="M366.65,-24.15C358.79,-25.03 350.79,-25.91 342.87,-26.79"/>
<polygon fill="#63b8ff" stroke="#63b8ff" points="366.99,-27.64 376.55,-23.06 366.22,-20.68 366.99,-27.64"/>
</a>
</g>
</g>
</g>
</svg>
