<?xml version="1.0" encoding="UTF-8" standalone="no"?>
<!DOCTYPE svg PUBLIC "-//W3C//DTD SVG 1.1//EN"
 "http://www.w3.org/Graphics/SVG/1.1/DTD/svg11.dtd">
<!-- Generated by graphviz version 12.2.1 (20241206.2353)
 -->
<!-- Title: MainWindow::loginAttempt Pages: 1 -->
<svg width="677pt" height="76pt"
 viewBox="0.00 0.00 677.25 75.88" xmlns="http://www.w3.org/2000/svg" xmlns:xlink="http://www.w3.org/1999/xlink">
<g id="graph0" class="graph" transform="scale(1 1) rotate(0) translate(4 71.88)">
<title>MainWindow::loginAttempt</title>
<!-- Node1 -->
<g id="Node000001" class="node">
<title>Node1</title>
<g id="a_Node000001"><a xlink:title="Emitted when a user attempts to log in.">
<polygon fill="#999999" stroke="#666666" points="669.25,-40.25 536.25,-40.25 536.25,-21 669.25,-21 669.25,-40.25"/>
<text text-anchor="middle" x="602.75" y="-26.75" font-family="Helvetica,sans-Serif" font-size="10.00">MainWindow::loginAttempt</text>
</a>
</g>
</g>
<!-- Node2 -->
<g id="Node000002" class="node">
<title>Node2</title>
<g id="a_Node000002"><a xlink:href="../../d7/de6/class_app_driver.html#ad4932bc7c7019e2522503886c01ffe33" target="_top" xlink:title="Connects signals from the frontend UI to slots in this AppDriver.">
<polygon fill="white" stroke="#666666" points="495,-67.88 356.75,-67.88 356.75,-37.38 495,-37.38 495,-67.88"/>
<text text-anchor="start" x="364.75" y="-54.38" font-family="Helvetica,sans-Serif" font-size="10.00">AppDriver::connectFrontend</text>
<text text-anchor="middle" x="425.88" y="-43.12" font-family="Helvetica,sans-Serif" font-size="10.00">ToDriver</text>
</a>
</g>
</g>
<!-- Node1&#45;&gt;Node2 -->
<g id="edge1_Node000001_Node000002" class="edge">
<title>Node1&#45;&gt;Node2</title>
<g id="a_edge1_Node000001_Node000002"><a xlink:title=" ">
<path fill="none" stroke="#63b8ff" d="M524.79,-40.31C515.03,-41.53 505.1,-42.78 495.49,-43.99"/>
<polygon fill="#63b8ff" stroke="#63b8ff" points="525.15,-43.79 534.63,-39.07 524.28,-36.84 525.15,-43.79"/>
</a>
</g>
</g>
<!-- Node5 -->
<g id="Node000005" class="node">
<title>Node5</title>
<g id="a_Node000005"><a xlink:href="../../d9/dc6/class_main_window.html#a92cfa580b2445cdcb78fedea04dece1f" target="_top" xlink:title="Slot triggered by a login dialog to initiate a login attempt.">
<polygon fill="white" stroke="#666666" points="500.25,-19.25 351.5,-19.25 351.5,0 500.25,0 500.25,-19.25"/>
<text text-anchor="middle" x="425.88" y="-5.75" font-family="Helvetica,sans-Serif" font-size="10.00">MainWindow::onLoginRequest</text>
</a>
</g>
</g>
<!-- Node1&#45;&gt;Node5 -->
<g id="edge4_Node000001_Node000005" class="edge">
<title>Node1&#45;&gt;Node5</title>
<g id="a_edge4_Node000001_Node000005"><a xlink:title=" ">
<path fill="none" stroke="#63b8ff" d="M524.82,-21.39C516.74,-20.42 508.53,-19.43 500.49,-18.47"/>
<polygon fill="#63b8ff" stroke="#63b8ff" points="524.29,-24.85 534.63,-22.57 525.12,-17.9 524.29,-24.85"/>
</a>
</g>
</g>
<!-- Node3 -->
<g id="Node000003" class="node">
<title>Node3</title>
<g id="a_Node000003"><a xlink:href="../../d7/de6/class_app_driver.html#af5bf7b6bd96161d95a0a67cc7693127d" target="_top" xlink:title="Initializes and shows the main application window and loads initial data.">
<polygon fill="white" stroke="#666666" points="282.5,-62.25 203.5,-62.25 203.5,-43 282.5,-43 282.5,-62.25"/>
<text text-anchor="middle" x="243" y="-48.75" font-family="Helvetica,sans-Serif" font-size="10.00">AppDriver::run</text>
</a>
</g>
</g>
<!-- Node2&#45;&gt;Node3 -->
<g id="edge2_Node000002_Node000003" class="edge">
<title>Node2&#45;&gt;Node3</title>
<g id="a_edge2_Node000002_Node000003"><a xlink:title=" ">
<path fill="none" stroke="#63b8ff" d="M345.27,-52.62C323.61,-52.62 301.11,-52.62 282.84,-52.62"/>
<polygon fill="#63b8ff" stroke="#63b8ff" points="344.98,-56.13 354.98,-52.63 344.98,-49.13 344.98,-56.13"/>
</a>
</g>
</g>
<!-- Node4 -->
<g id="Node000004" class="node">
<title>Node4</title>
<g id="a_Node000004"><a xlink:href="../../d8/d80/src_2backend_2main_8cpp.html#a0ddf1224851353fc92bfbff6f499fa97" target="_top" xlink:title=" ">
<polygon fill="white" stroke="#666666" points="85.75,-62.25 48.75,-62.25 48.75,-43 85.75,-43 85.75,-62.25"/>
<text text-anchor="middle" x="67.25" y="-48.75" font-family="Helvetica,sans-Serif" font-size="10.00">main</text>
</a>
</g>
</g>
<!-- Node3&#45;&gt;Node4 -->
<g id="edge3_Node000003_Node000004" class="edge">
<title>Node3&#45;&gt;Node4</title>
<g id="a_edge3_Node000003_Node000004"><a xlink:title=" ">
<path fill="none" stroke="#63b8ff" d="M191.85,-52.62C156.26,-52.62 110.59,-52.62 85.94,-52.62"/>
<polygon fill="#63b8ff" stroke="#63b8ff" points="191.49,-56.13 201.49,-52.63 191.49,-49.13 191.49,-56.13"/>
</a>
</g>
</g>
<!-- Node6 -->
<g id="Node000006" class="node">
<title>Node6</title>
<g id="a_Node000006"><a xlink:href="../../d9/dc6/class_main_window.html#a44b1462463b23490276f54034ab12325" target="_top" xlink:title="Slot triggered when the login button is clicked, typically opening a login dialog.">
<polygon fill="white" stroke="#666666" points="315.5,-19.25 170.5,-19.25 170.5,0 315.5,0 315.5,-19.25"/>
<text text-anchor="middle" x="243" y="-5.75" font-family="Helvetica,sans-Serif" font-size="10.00">MainWindow::onLoginClicked</text>
</a>
</g>
</g>
<!-- Node5&#45;&gt;Node6 -->
<g id="edge5_Node000005_Node000006" class="edge">
<title>Node5&#45;&gt;Node6</title>
<g id="a_edge5_Node000005_Node000006"><a xlink:title=" ">
<path fill="none" stroke="#63b8ff" d="M339.78,-9.62C331.77,-9.62 323.71,-9.62 315.84,-9.62"/>
<polygon fill="#63b8ff" stroke="#63b8ff" points="339.53,-13.13 349.53,-9.63 339.53,-6.13 339.53,-13.13"/>
</a>
</g>
</g>
<!-- Node7 -->
<g id="Node000007" class="node">
<title>Node7</title>
<g id="a_Node000007"><a xlink:href="../../d9/dc6/class_main_window.html#a25d06b6f11a1eb7fa2239f01e853ae29" target="_top" xlink:title=" ">
<polygon fill="white" stroke="#666666" points="134.5,-19.25 0,-19.25 0,0 134.5,0 134.5,-19.25"/>
<text text-anchor="middle" x="67.25" y="-5.75" font-family="Helvetica,sans-Serif" font-size="10.00">MainWindow::MainWindow</text>
</a>
</g>
</g>
<!-- Node6&#45;&gt;Node7 -->
<g id="edge6_Node000006_Node000007" class="edge">
<title>Node6&#45;&gt;Node7</title>
<g id="a_edge6_Node000006_Node000007"><a xlink:title=" ">
<path fill="none" stroke="#63b8ff" d="M158.78,-9.62C150.74,-9.62 142.67,-9.62 134.83,-9.62"/>
<polygon fill="#63b8ff" stroke="#63b8ff" points="158.56,-13.13 168.56,-9.63 158.56,-6.13 158.56,-13.13"/>
</a>
</g>
</g>
</g>
</svg>
