<?xml version="1.0" encoding="UTF-8" standalone="no"?>
<!DOCTYPE svg PUBLIC "-//W3C//DTD SVG 1.1//EN"
 "http://www.w3.org/Graphics/SVG/1.1/DTD/svg11.dtd">
<!-- Generated by graphviz version 12.2.1 (20241206.2353)
 -->
<!-- Title: MainWindow::on_actionnew_square_button_triggered Pages: 1 -->
<!--zoomable 1275 -->

<svg id="main" version="1.1" xmlns="http://www.w3.org/2000/svg" xmlns:xlink="http://www.w3.org/1999/xlink" xml:space="preserve" onload="init(evt)">

<style type="text/css"><![CDATA[
.node, .edge {opacity: 0.7;}
.node.selected, .edge.selected {opacity: 1;}
.edge:hover path { stroke: red; }
.edge:hover polygon { stroke: red; fill: red; }
]]></style>

<defs>
  <circle id="rim" cx="0" cy="0" r="7"/>
  <circle id="rim2" cx="0" cy="0" r="3.5"/>
  <g id="zoomPlus">
    <use xlink:href="#rim" fill="#404040"><set attributeName="fill" to="#808080" begin="zoomplus.mouseover" end="zoomplus.mouseout"/></use>
    <path d="M-4,0h8M0,-4v8" fill="none" stroke="white" stroke-width="1.5" pointer-events="none"/>
  </g>
  <g id="zoomMin">
    <use xlink:href="#rim" fill="#404040"><set attributeName="fill" to="#808080" begin="zoomminus.mouseover" end="zoomminus.mouseout"/></use>
    <path d="M-4,0h8" fill="none" stroke="white" stroke-width="1.5" pointer-events="none"/>
  </g>
  <g id="arrowUp" transform="translate(30 24)">
    <use xlink:href="#rim"/>
    <path pointer-events="none" fill="none" stroke="white" stroke-width="1.5" d="M0,-3.0v7 M-2.5,-0.5L0,-3.0L2.5,-0.5"/>
  </g>
  <g id="arrowRight" transform="rotate(90) translate(36 -43)">
    <use xlink:href="#rim"/>
    <path pointer-events="none" fill="none" stroke="white" stroke-width="1.5" d="M0,-3.0v7 M-2.5,-0.5L0,-3.0L2.5,-0.5"/>
  </g>
  <g id="arrowDown" transform="rotate(180) translate(-30 -48)">
    <use xlink:href="#rim"/>
    <path pointer-events="none" fill="none" stroke="white" stroke-width="1.5" d="M0,-3.0v7 M-2.5,-0.5L0,-3.0L2.5,-0.5"/>
  </g>
  <g id="arrowLeft" transform="rotate(270) translate(-36 17)">
    <use xlink:href="#rim"/>
    <path pointer-events="none" fill="none" stroke="white" stroke-width="1.5" d="M0,-3.0v7 M-2.5,-0.5L0,-3.0L2.5,-0.5"/>
  </g>
  <g id="resetDef">
    <use xlink:href="#rim2" fill="#404040"><set attributeName="fill" to="#808080" begin="reset.mouseover" end="reset.mouseout"/></use>
  </g>
</defs>
<script type="application/ecmascript">
var viewWidth = 895;
var viewHeight = 1275;
var sectionId = 'dynsection-32';
</script>
<script type="application/ecmascript" xlink:href="../../svg.min.js"/>
<svg id="graph" class="graph">
<g id="viewport">
<title>MainWindow::on_actionnew_square_button_triggered</title>
<!-- Node1 -->
<g id="Node000001" class="node">
<title>Node1</title>
<g id="a_Node000001"><a xlink:title="Slot triggered to create and add a new Square shape.">
<polygon fill="#999999" stroke="#666666" points="138.25,-623.88 0,-623.88 0,-593.38 138.25,-593.38 138.25,-623.88"/>
<text text-anchor="start" x="8" y="-610.38" font-family="Helvetica,sans-Serif" font-size="10.00">MainWindow::on_actionnew</text>
<text text-anchor="middle" x="69.12" y="-599.12" font-family="Helvetica,sans-Serif" font-size="10.00">_square_button_triggered</text>
</a>
</g>
</g>
<!-- Node2 -->
<g id="Node000002" class="node">
<title>Node2</title>
<g id="a_Node000002"><a xlink:href="../../d9/dc6/class_main_window.html#afe8619a02bba82d0ad5e05065d6c0ea1" target="_top" xlink:title="Adds a given shape to the properties tree widget and emits shapeAdded signal.">
<polygon fill="white" stroke="#666666" points="326,-618.25 174.25,-618.25 174.25,-599 326,-599 326,-618.25"/>
<text text-anchor="middle" x="250.12" y="-604.75" font-family="Helvetica,sans-Serif" font-size="10.00">MainWindow::addToShapeTree</text>
</a>
</g>
</g>
<!-- Node1&#45;&gt;Node2 -->
<g id="edge1_Node000001_Node000002" class="edge">
<title>Node1&#45;&gt;Node2</title>
<g id="a_edge1_Node000001_Node000002"><a xlink:title=" ">
<path fill="none" stroke="#63b8ff" d="M138.56,-608.62C146.41,-608.62 154.49,-608.62 162.54,-608.62"/>
<polygon fill="#63b8ff" stroke="#63b8ff" points="162.35,-612.13 172.35,-608.63 162.35,-605.13 162.35,-612.13"/>
</a>
</g>
</g>
<!-- Node3 -->
<g id="Node000003" class="node">
<title>Node3</title>
<g id="a_Node000003"><a xlink:href="../../d9/dc6/class_main_window.html#af82d1897a3213375ae0f1c7d7652150a" target="_top" xlink:title="Emitted when a new shape is added by the user.">
<polygon fill="white" stroke="#666666" points="494.25,-640.25 362,-640.25 362,-621 494.25,-621 494.25,-640.25"/>
<text text-anchor="middle" x="428.12" y="-626.75" font-family="Helvetica,sans-Serif" font-size="10.00">MainWindow::shapeAdded</text>
</a>
</g>
</g>
<!-- Node2&#45;&gt;Node3 -->
<g id="edge2_Node000002_Node000003" class="edge">
<title>Node2&#45;&gt;Node3</title>
<g id="a_edge2_Node000002_Node000003"><a xlink:title=" ">
<path fill="none" stroke="#63b8ff" d="M326.28,-618.02C334.28,-619.02 342.42,-620.04 350.44,-621.04"/>
<polygon fill="#63b8ff" stroke="#63b8ff" points="349.81,-624.49 360.16,-622.25 350.67,-617.54 349.81,-624.49"/>
</a>
</g>
</g>
<!-- Node4 -->
<g id="Node000004" class="node">
<title>Node4</title>
<g id="a_Node000004"><a xlink:href="../../d9/dc6/class_main_window.html#a5ff173340d6b138bee993d26454d2aaa" target="_top" xlink:title="Populates the tree widget with details of the current shapes and sets up editing controls.">
<polygon fill="white" stroke="#666666" points="483,-602.88 373.25,-602.88 373.25,-572.38 483,-572.38 483,-602.88"/>
<text text-anchor="start" x="381.25" y="-589.38" font-family="Helvetica,sans-Serif" font-size="10.00">MainWindow::shapes</text>
<text text-anchor="middle" x="428.12" y="-578.12" font-family="Helvetica,sans-Serif" font-size="10.00">_to_treeWidget</text>
</a>
</g>
</g>
<!-- Node2&#45;&gt;Node4 -->
<g id="edge3_Node000002_Node000004" class="edge">
<title>Node2&#45;&gt;Node4</title>
<g id="a_edge3_Node000002_Node000004"><a xlink:title=" ">
<path fill="none" stroke="#63b8ff" d="M326.28,-599.66C338.05,-598.25 350.13,-596.81 361.67,-595.44"/>
<polygon fill="#63b8ff" stroke="#63b8ff" points="361.96,-598.92 371.48,-594.26 361.13,-591.97 361.96,-598.92"/>
</a>
</g>
</g>
<!-- Node5 -->
<g id="Node000005" class="node">
<title>Node5</title>
<g id="a_Node000005"><a xlink:href="../../d9/dc6/class_main_window.html#a405427dd9586218cba7d02d495bb88cc" target="_top" xlink:title="Creates and configures a QComboBox for selecting text alignment.">
<polygon fill="white" stroke="#666666" points="693.25,-1266.88 544.5,-1266.88 544.5,-1236.38 693.25,-1236.38 693.25,-1266.88"/>
<text text-anchor="start" x="552.5" y="-1253.38" font-family="Helvetica,sans-Serif" font-size="10.00">MainWindow::createAlignment</text>
<text text-anchor="middle" x="618.88" y="-1242.12" font-family="Helvetica,sans-Serif" font-size="10.00">ComboBox</text>
</a>
</g>
</g>
<!-- Node4&#45;&gt;Node5 -->
<g id="edge4_Node000004_Node000005" class="edge">
<title>Node4&#45;&gt;Node5</title>
<g id="a_edge4_Node000004_Node000005"><a xlink:title=" ">
<path fill="none" stroke="#63b8ff" d="M483.25,-601.38C487.46,-604.18 491.24,-607.56 494.25,-611.62 575.8,-721.59 444.63,-1119.8 530.25,-1226.62 531.7,-1228.43 533.26,-1230.11 534.93,-1231.68"/>
<polygon fill="#63b8ff" stroke="#63b8ff" points="532.75,-1234.41 542.84,-1237.65 536.98,-1228.83 532.75,-1234.41"/>
</a>
</g>
</g>
<!-- Node6 -->
<g id="Node000006" class="node">
<title>Node6</title>
<g id="a_Node000006"><a xlink:href="../../d9/dc6/class_main_window.html#a77d4dace8cb3dab4130649f4dd61f90e" target="_top" xlink:title="Creates and configures a QComboBox for selecting brush styles.">
<polygon fill="white" stroke="#666666" points="695.5,-1217.88 542.25,-1217.88 542.25,-1187.38 695.5,-1187.38 695.5,-1217.88"/>
<text text-anchor="start" x="550.25" y="-1204.38" font-family="Helvetica,sans-Serif" font-size="10.00">MainWindow::createBrushStyle</text>
<text text-anchor="middle" x="618.88" y="-1193.12" font-family="Helvetica,sans-Serif" font-size="10.00">ComboBox</text>
</a>
</g>
</g>
<!-- Node4&#45;&gt;Node6 -->
<g id="edge5_Node000004_Node000006" class="edge">
<title>Node4&#45;&gt;Node6</title>
<g id="a_edge5_Node000004_Node000006"><a xlink:title=" ">
<path fill="none" stroke="#63b8ff" d="M483.23,-601.39C487.44,-604.2 491.23,-607.57 494.25,-611.62 569.71,-712.85 450.53,-1080.73 530.25,-1178.62 531.2,-1179.79 532.21,-1180.91 533.26,-1181.97"/>
<polygon fill="#63b8ff" stroke="#63b8ff" points="530.97,-1184.63 540.94,-1188.21 535.38,-1179.19 530.97,-1184.63"/>
</a>
</g>
</g>
<!-- Node7 -->
<g id="Node000007" class="node">
<title>Node7</title>
<g id="a_Node000007"><a xlink:href="../../d9/dc6/class_main_window.html#a13cf8174967b39a40231f9a98dd21565" target="_top" xlink:title="Creates and configures a QComboBox for selecting colors.">
<polygon fill="white" stroke="#666666" points="707.5,-1169.25 530.25,-1169.25 530.25,-1150 707.5,-1150 707.5,-1169.25"/>
<text text-anchor="middle" x="618.88" y="-1155.75" font-family="Helvetica,sans-Serif" font-size="10.00">MainWindow::createColorComboBox</text>
</a>
</g>
</g>
<!-- Node4&#45;&gt;Node7 -->
<g id="edge6_Node000004_Node000007" class="edge">
<title>Node4&#45;&gt;Node7</title>
<g id="a_edge6_Node000004_Node000007"><a xlink:title=" ">
<path fill="none" stroke="#63b8ff" d="M483.21,-601.41C487.43,-604.21 491.22,-607.57 494.25,-611.62 565.01,-706.12 452.59,-1052.72 530.25,-1141.62 530.42,-1141.82 530.58,-1142 530.75,-1142.19"/>
<polygon fill="#63b8ff" stroke="#63b8ff" points="528.21,-1144.62 538.07,-1148.52 532.79,-1139.33 528.21,-1144.62"/>
</a>
</g>
</g>
<!-- Node8 -->
<g id="Node000008" class="node">
<title>Node8</title>
<g id="a_Node000008"><a xlink:href="../../d9/dc6/class_main_window.html#a3785b3b7329dcdaf51f45312abe7dd6a" target="_top" xlink:title="Creates and configures a QComboBox for selecting font families.">
<polygon fill="white" stroke="#666666" points="705.62,-1132.25 532.12,-1132.25 532.12,-1113 705.62,-1113 705.62,-1132.25"/>
<text text-anchor="middle" x="618.88" y="-1118.75" font-family="Helvetica,sans-Serif" font-size="10.00">MainWindow::createFontComboBox</text>
</a>
</g>
</g>
<!-- Node4&#45;&gt;Node8 -->
<g id="edge7_Node000004_Node000008" class="edge">
<title>Node4&#45;&gt;Node8</title>
<g id="a_edge7_Node000004_Node000008"><a xlink:title=" ">
<path fill="none" stroke="#63b8ff" d="M483.49,-601.62C487.59,-604.38 491.28,-607.68 494.25,-611.62 560.19,-699.2 458.36,-1020.86 530.25,-1103.62 530.82,-1104.29 531.42,-1104.93 532.02,-1105.55"/>
<polygon fill="#63b8ff" stroke="#63b8ff" points="529.58,-1108.08 539.56,-1111.64 533.98,-1102.63 529.58,-1108.08"/>
</a>
</g>
</g>
<!-- Node9 -->
<g id="Node000009" class="node">
<title>Node9</title>
<g id="a_Node000009"><a xlink:href="../../d9/dc6/class_main_window.html#a59688ddfdfc0f919ff7058dfcda42fa1" target="_top" xlink:title="Creates and configures a QComboBox for selecting font styles (normal, italic, oblique).">
<polygon fill="white" stroke="#666666" points="692.5,-1094.88 545.25,-1094.88 545.25,-1064.38 692.5,-1064.38 692.5,-1094.88"/>
<text text-anchor="start" x="553.25" y="-1081.38" font-family="Helvetica,sans-Serif" font-size="10.00">MainWindow::createFontStyle</text>
<text text-anchor="middle" x="618.88" y="-1070.12" font-family="Helvetica,sans-Serif" font-size="10.00">ComboBox</text>
</a>
</g>
</g>
<!-- Node4&#45;&gt;Node9 -->
<g id="edge8_Node000004_Node000009" class="edge">
<title>Node4&#45;&gt;Node9</title>
<g id="a_edge8_Node000004_Node000009"><a xlink:title=" ">
<path fill="none" stroke="#63b8ff" d="M483.45,-601.65C487.56,-604.4 491.26,-607.69 494.25,-611.62 553.98,-690.29 467.61,-978.26 530.25,-1054.62 531.92,-1056.66 533.75,-1058.54 535.7,-1060.27"/>
<polygon fill="#63b8ff" stroke="#63b8ff" points="533.59,-1063.07 543.75,-1066.07 537.68,-1057.39 533.59,-1063.07"/>
</a>
</g>
</g>
<!-- Node10 -->
<g id="Node000010" class="node">
<title>Node10</title>
<g id="a_Node000010"><a xlink:href="../../d9/dc6/class_main_window.html#aca7d4f5f2149d757046f5d7cd8d5f8f7" target="_top" xlink:title="Creates and configures a QComboBox for selecting font weights.">
<polygon fill="white" stroke="#666666" points="696.25,-1045.88 541.5,-1045.88 541.5,-1015.38 696.25,-1015.38 696.25,-1045.88"/>
<text text-anchor="start" x="549.5" y="-1032.38" font-family="Helvetica,sans-Serif" font-size="10.00">MainWindow::createFontWeight</text>
<text text-anchor="middle" x="618.88" y="-1021.12" font-family="Helvetica,sans-Serif" font-size="10.00">ComboBox</text>
</a>
</g>
</g>
<!-- Node4&#45;&gt;Node10 -->
<g id="edge9_Node000004_Node000010" class="edge">
<title>Node4&#45;&gt;Node10</title>
<g id="a_edge9_Node000004_Node000010"><a xlink:title=" ">
<path fill="none" stroke="#63b8ff" d="M483.41,-601.68C487.53,-604.43 491.24,-607.71 494.25,-611.62 547.77,-681.38 474.15,-937.93 530.25,-1005.62 530.93,-1006.45 531.64,-1007.25 532.38,-1008.03"/>
<polygon fill="#63b8ff" stroke="#63b8ff" points="530,-1010.6 539.89,-1014.41 534.54,-1005.27 530,-1010.6"/>
</a>
</g>
</g>
<!-- Node11 -->
<g id="Node000011" class="node">
<title>Node11</title>
<g id="a_Node000011"><a xlink:href="../../d9/dc6/class_main_window.html#ad2ca8de275eb8d22001fc8ae43a5b263" target="_top" xlink:title="Creates and configures a QComboBox for selecting pen cap styles.">
<polygon fill="white" stroke="#666666" points="689.12,-996.88 548.62,-996.88 548.62,-966.38 689.12,-966.38 689.12,-996.88"/>
<text text-anchor="start" x="556.62" y="-983.38" font-family="Helvetica,sans-Serif" font-size="10.00">MainWindow::createPenCap</text>
<text text-anchor="middle" x="618.88" y="-972.12" font-family="Helvetica,sans-Serif" font-size="10.00">StyleComboBox</text>
</a>
</g>
</g>
<!-- Node4&#45;&gt;Node11 -->
<g id="edge10_Node000004_Node000011" class="edge">
<title>Node4&#45;&gt;Node11</title>
<g id="a_edge10_Node000004_Node000011"><a xlink:title=" ">
<path fill="none" stroke="#63b8ff" d="M483.36,-601.72C487.49,-604.46 491.22,-607.72 494.25,-611.62 588.87,-733.33 431.12,-838.56 530.25,-956.62 532.82,-959.69 535.74,-962.39 538.91,-964.77"/>
<polygon fill="#63b8ff" stroke="#63b8ff" points="536.8,-967.58 547.14,-969.87 540.48,-961.63 536.8,-967.58"/>
</a>
</g>
</g>
<!-- Node12 -->
<g id="Node000012" class="node">
<title>Node12</title>
<g id="a_Node000012"><a xlink:href="../../d9/dc6/class_main_window.html#ae585cf395690d3bf28b9ff94f8506a03" target="_top" xlink:title="Creates and configures a QComboBox for selecting pen join styles.">
<polygon fill="white" stroke="#666666" points="689.12,-947.88 548.62,-947.88 548.62,-917.38 689.12,-917.38 689.12,-947.88"/>
<text text-anchor="start" x="556.62" y="-934.38" font-family="Helvetica,sans-Serif" font-size="10.00">MainWindow::createPenJoin</text>
<text text-anchor="middle" x="618.88" y="-923.12" font-family="Helvetica,sans-Serif" font-size="10.00">StyleComboBox</text>
</a>
</g>
</g>
<!-- Node4&#45;&gt;Node12 -->
<g id="edge11_Node000004_Node000012" class="edge">
<title>Node4&#45;&gt;Node12</title>
<g id="a_edge11_Node000004_Node000012"><a xlink:title=" ">
<path fill="none" stroke="#63b8ff" d="M483.29,-601.78C487.43,-604.5 491.18,-607.75 494.25,-611.62 576.48,-715.55 444.17,-806.86 530.25,-907.62 532.85,-910.66 535.78,-913.35 538.97,-915.71"/>
<polygon fill="#63b8ff" stroke="#63b8ff" points="536.88,-918.54 547.24,-920.79 540.55,-912.58 536.88,-918.54"/>
</a>
</g>
</g>
<!-- Node13 -->
<g id="Node000013" class="node">
<title>Node13</title>
<g id="a_Node000013"><a xlink:href="../../d9/dc6/class_main_window.html#a55eed5bdf9b2ec38f0d86c661acddcb5" target="_top" xlink:title="Creates and configures a QComboBox for selecting pen styles.">
<polygon fill="white" stroke="#666666" points="691.38,-898.88 546.38,-898.88 546.38,-868.38 691.38,-868.38 691.38,-898.88"/>
<text text-anchor="start" x="554.38" y="-885.38" font-family="Helvetica,sans-Serif" font-size="10.00">MainWindow::createPenStyle</text>
<text text-anchor="middle" x="618.88" y="-874.12" font-family="Helvetica,sans-Serif" font-size="10.00">ComboBox</text>
</a>
</g>
</g>
<!-- Node4&#45;&gt;Node13 -->
<g id="edge12_Node000004_Node000013" class="edge">
<title>Node4&#45;&gt;Node13</title>
<g id="a_edge12_Node000004_Node000013"><a xlink:title=" ">
<path fill="none" stroke="#63b8ff" d="M483.49,-602.05C487.54,-604.72 491.21,-607.88 494.25,-611.62 564.11,-697.8 457.2,-775.13 530.25,-858.62 532.21,-860.86 534.35,-862.91 536.65,-864.78"/>
<polygon fill="#63b8ff" stroke="#63b8ff" points="534.63,-867.64 544.88,-870.29 538.52,-861.82 534.63,-867.64"/>
</a>
</g>
</g>
<!-- Node14 -->
<g id="Node000014" class="node">
<title>Node14</title>
<g id="a_Node000014"><a xlink:href="../../d9/dc6/class_main_window.html#a78611ff63653443ba2244f2f94ad67b2" target="_top" xlink:title="Creates and configures a QSpinBox for editing pen width.">
<polygon fill="white" stroke="#666666" points="692.88,-849.88 544.88,-849.88 544.88,-819.38 692.88,-819.38 692.88,-849.88"/>
<text text-anchor="start" x="552.88" y="-836.38" font-family="Helvetica,sans-Serif" font-size="10.00">MainWindow::createPenWidth</text>
<text text-anchor="middle" x="618.88" y="-825.12" font-family="Helvetica,sans-Serif" font-size="10.00">SpinBox</text>
</a>
</g>
</g>
<!-- Node4&#45;&gt;Node14 -->
<g id="edge13_Node000004_Node000014" class="edge">
<title>Node4&#45;&gt;Node14</title>
<g id="a_edge13_Node000004_Node000014"><a xlink:title=" ">
<path fill="none" stroke="#63b8ff" d="M483.36,-602.17C487.43,-604.81 491.15,-607.93 494.25,-611.62 552.04,-680.46 469.56,-744.33 530.25,-810.62 531.81,-812.33 533.47,-813.91 535.23,-815.39"/>
<polygon fill="#63b8ff" stroke="#63b8ff" points="533.22,-818.25 543.44,-821.05 537.19,-812.49 533.22,-818.25"/>
</a>
</g>
</g>
<!-- Node15 -->
<g id="Node000015" class="node">
<title>Node15</title>
<g id="a_Node000015"><a xlink:href="../../d7/da7/class_shape.html#a8b5e05c84e401dddad339a15fa7d8ab1" target="_top" xlink:title=" ">
<polygon fill="white" stroke="#666666" points="674.88,-801.25 562.88,-801.25 562.88,-782 674.88,-782 674.88,-801.25"/>
<text text-anchor="middle" x="618.88" y="-787.75" font-family="Helvetica,sans-Serif" font-size="10.00">Shape::getBrushColor</text>
</a>
</g>
</g>
<!-- Node4&#45;&gt;Node15 -->
<g id="edge14_Node000004_Node000015" class="edge">
<title>Node4&#45;&gt;Node15</title>
<g id="a_edge14_Node000004_Node000015"><a xlink:title=" ">
<path fill="none" stroke="#63b8ff" d="M483.2,-602.3C487.31,-604.91 491.08,-608 494.25,-611.62 542.78,-667.16 477.68,-721.89 530.25,-773.62 536.33,-779.61 543.84,-783.85 551.87,-786.83"/>
<polygon fill="#63b8ff" stroke="#63b8ff" points="550.64,-790.11 561.22,-789.62 552.64,-783.41 550.64,-790.11"/>
</a>
</g>
</g>
<!-- Node16 -->
<g id="Node000016" class="node">
<title>Node16</title>
<g id="a_Node000016"><a xlink:href="../../d7/da7/class_shape.html#a32f4199b1d1c9283c88e4199e787be2e" target="_top" xlink:title=" ">
<polygon fill="white" stroke="#666666" points="675.62,-764.25 562.12,-764.25 562.12,-745 675.62,-745 675.62,-764.25"/>
<text text-anchor="middle" x="618.88" y="-750.75" font-family="Helvetica,sans-Serif" font-size="10.00">Shape::getBrushItems</text>
</a>
</g>
</g>
<!-- Node4&#45;&gt;Node16 -->
<g id="edge15_Node000004_Node000016" class="edge">
<title>Node4&#45;&gt;Node16</title>
<g id="a_edge15_Node000004_Node000016"><a xlink:title=" ">
<path fill="none" stroke="#63b8ff" d="M483.28,-602.71C487.31,-605.23 491.05,-608.18 494.25,-611.62 533.62,-653.96 487.81,-697.37 530.25,-736.62 536.14,-742.07 543.22,-746.05 550.77,-748.94"/>
<polygon fill="#63b8ff" stroke="#63b8ff" points="549.65,-752.26 560.24,-751.88 551.73,-745.57 549.65,-752.26"/>
</a>
</g>
</g>
<!-- Node17 -->
<g id="Node000017" class="node">
<title>Node17</title>
<g id="a_Node000017"><a xlink:href="../../d7/da7/class_shape.html#af9f3e91f66f410f59065a28bb8021d4d" target="_top" xlink:title=" ">
<polygon fill="white" stroke="#666666" points="684.25,-727.25 553.5,-727.25 553.5,-708 684.25,-708 684.25,-727.25"/>
<text text-anchor="middle" x="618.88" y="-713.75" font-family="Helvetica,sans-Serif" font-size="10.00">Shape::getBrushItemsEnd</text>
</a>
</g>
</g>
<!-- Node4&#45;&gt;Node17 -->
<g id="edge16_Node000004_Node000017" class="edge">
<title>Node4&#45;&gt;Node17</title>
<g id="a_edge16_Node000004_Node000017"><a xlink:title=" ">
<path fill="none" stroke="#63b8ff" d="M483.2,-603.28C487.2,-605.68 490.96,-608.44 494.25,-611.62 524.65,-640.97 497.73,-672.64 530.25,-699.62 534.12,-702.84 538.41,-705.52 542.96,-707.76"/>
<polygon fill="#63b8ff" stroke="#63b8ff" points="541.27,-710.86 551.85,-711.42 543.94,-704.38 541.27,-710.86"/>
</a>
</g>
</g>
<!-- Node18 -->
<g id="Node000018" class="node">
<title>Node18</title>
<g id="a_Node000018"><a xlink:href="../../d7/da7/class_shape.html#a32e7b26329177063e40671687a0c62be" target="_top" xlink:title=" ">
<polygon fill="white" stroke="#666666" points="674.5,-690.25 563.25,-690.25 563.25,-671 674.5,-671 674.5,-690.25"/>
<text text-anchor="middle" x="618.88" y="-676.75" font-family="Helvetica,sans-Serif" font-size="10.00">Shape::getBrushStyle</text>
</a>
</g>
</g>
<!-- Node4&#45;&gt;Node18 -->
<g id="edge17_Node000004_Node000018" class="edge">
<title>Node4&#45;&gt;Node18</title>
<g id="a_edge17_Node000004_Node000018"><a xlink:title=" ">
<path fill="none" stroke="#63b8ff" d="M480.82,-603.27C485.57,-605.7 490.14,-608.47 494.25,-611.62 516.26,-628.52 507.03,-647.43 530.25,-662.62 536.87,-666.96 544.34,-670.28 552.04,-672.82"/>
<polygon fill="#63b8ff" stroke="#63b8ff" points="550.99,-676.16 561.57,-675.51 552.89,-669.43 550.99,-676.16"/>
</a>
</g>
</g>
<!-- Node19 -->
<g id="Node000019" class="node">
<title>Node19</title>
<g id="a_Node000019"><a xlink:href="../../d7/da7/class_shape.html#a4718fe1b6fc5d30e83a8761175b77344" target="_top" xlink:title=" ">
<polygon fill="white" stroke="#666666" points="670.38,-653.25 567.38,-653.25 567.38,-634 670.38,-634 670.38,-653.25"/>
<text text-anchor="middle" x="618.88" y="-639.75" font-family="Helvetica,sans-Serif" font-size="10.00">Shape::getChildEnd</text>
</a>
</g>
</g>
<!-- Node4&#45;&gt;Node19 -->
<g id="edge18_Node000004_Node000019" class="edge">
<title>Node4&#45;&gt;Node19</title>
<g id="a_edge18_Node000004_Node000019"><a xlink:title=" ">
<path fill="none" stroke="#63b8ff" d="M471.9,-603.27C479.36,-606.03 487.04,-608.89 494.25,-611.62 510.3,-617.7 513.78,-620.77 530.25,-625.62 538.43,-628.04 547.14,-630.24 555.76,-632.22"/>
<polygon fill="#63b8ff" stroke="#63b8ff" points="555.01,-635.64 565.53,-634.36 556.51,-628.8 555.01,-635.64"/>
</a>
</g>
</g>
<!-- Node20 -->
<g id="Node000020" class="node">
<title>Node20</title>
<g id="a_Node000020"><a xlink:href="../../d7/da7/class_shape.html#a8e5d4c7be5890c73cab44af6005573d4" target="_top" xlink:title=" ">
<polygon fill="white" stroke="#666666" points="674.12,-616.25 563.62,-616.25 563.62,-597 674.12,-597 674.12,-616.25"/>
<text text-anchor="middle" x="618.88" y="-602.75" font-family="Helvetica,sans-Serif" font-size="10.00">Shape::getChildItems</text>
</a>
</g>
</g>
<!-- Node4&#45;&gt;Node20 -->
<g id="edge19_Node000004_Node000020" class="edge">
<title>Node4&#45;&gt;Node20</title>
<g id="a_edge19_Node000004_Node000020"><a xlink:title=" ">
<path fill="none" stroke="#63b8ff" d="M483.47,-593.1C504.8,-595.24 529.48,-597.73 551.82,-599.98"/>
<polygon fill="#63b8ff" stroke="#63b8ff" points="551.46,-603.46 561.76,-600.98 552.16,-596.49 551.46,-603.46"/>
</a>
</g>
</g>
<!-- Node21 -->
<g id="Node000021" class="node">
<title>Node21</title>
<g id="a_Node000021"><a xlink:href="../../da/d0e/class_text.html#ace6ab02148fe23efffcd3f7c3dde9183" target="_top" xlink:title=" ">
<polygon fill="white" stroke="#666666" points="655.75,-579.25 582,-579.25 582,-560 655.75,-560 655.75,-579.25"/>
<text text-anchor="middle" x="618.88" y="-565.75" font-family="Helvetica,sans-Serif" font-size="10.00">Text::getFont</text>
</a>
</g>
</g>
<!-- Node4&#45;&gt;Node21 -->
<g id="edge20_Node000004_Node000021" class="edge">
<title>Node4&#45;&gt;Node21</title>
<g id="a_edge20_Node000004_Node000021"><a xlink:title=" ">
<path fill="none" stroke="#63b8ff" d="M483.47,-582.44C510.88,-579.83 543.83,-576.69 570.25,-574.17"/>
<polygon fill="#63b8ff" stroke="#63b8ff" points="570.38,-577.67 580,-573.24 569.71,-570.7 570.38,-577.67"/>
</a>
</g>
</g>
<!-- Node22 -->
<g id="Node000022" class="node">
<title>Node22</title>
<g id="a_Node000022"><a xlink:href="../../da/d0e/class_text.html#a0a3c00384e73eed7af1d20cffca51b18" target="_top" xlink:title=" ">
<polygon fill="white" stroke="#666666" points="667,-542.25 570.75,-542.25 570.75,-523 667,-523 667,-542.25"/>
<text text-anchor="middle" x="618.88" y="-528.75" font-family="Helvetica,sans-Serif" font-size="10.00">Text::getFontStyle</text>
</a>
</g>
</g>
<!-- Node4&#45;&gt;Node22 -->
<g id="edge21_Node000004_Node000022" class="edge">
<title>Node4&#45;&gt;Node22</title>
<g id="a_edge21_Node000004_Node000022"><a xlink:title=" ">
<path fill="none" stroke="#63b8ff" d="M467.58,-572.03C486.28,-564.84 509.21,-556.6 530.25,-550.62 539.48,-548 549.37,-545.6 559.05,-543.46"/>
<polygon fill="#63b8ff" stroke="#63b8ff" points="559.74,-546.89 568.79,-541.38 558.28,-540.04 559.74,-546.89"/>
</a>
</g>
</g>
<!-- Node23 -->
<g id="Node000023" class="node">
<title>Node23</title>
<g id="a_Node000023"><a xlink:href="../../da/d0e/class_text.html#a4b4b411734e3f6ceace9e73d293e2f64" target="_top" xlink:title=" ">
<polygon fill="white" stroke="#666666" points="670.75,-505.25 567,-505.25 567,-486 670.75,-486 670.75,-505.25"/>
<text text-anchor="middle" x="618.88" y="-491.75" font-family="Helvetica,sans-Serif" font-size="10.00">Text::getFontWeight</text>
</a>
</g>
</g>
<!-- Node4&#45;&gt;Node23 -->
<g id="edge22_Node000004_Node000023" class="edge">
<title>Node4&#45;&gt;Node23</title>
<g id="a_edge22_Node000004_Node000023"><a xlink:title=" ">
<path fill="none" stroke="#63b8ff" d="M445.59,-572.04C464.52,-555.03 497.23,-528.26 530.25,-513.62 538.24,-510.09 546.94,-507.23 555.67,-504.93"/>
<polygon fill="#63b8ff" stroke="#63b8ff" points="556.29,-508.39 565.21,-502.66 554.67,-501.58 556.29,-508.39"/>
</a>
</g>
</g>
<!-- Node24 -->
<g id="Node000024" class="node">
<title>Node24</title>
<g id="a_Node000024"><a xlink:href="../../d7/da7/class_shape.html#a3cca235345ab6f173c4e52a8598ee6b1" target="_top" xlink:title=" ">
<polygon fill="white" stroke="#666666" points="674.5,-468.25 563.25,-468.25 563.25,-449 674.5,-449 674.5,-468.25"/>
<text text-anchor="middle" x="618.88" y="-454.75" font-family="Helvetica,sans-Serif" font-size="10.00">Shape::getParentItem</text>
</a>
</g>
</g>
<!-- Node4&#45;&gt;Node24 -->
<g id="edge23_Node000004_Node000024" class="edge">
<title>Node4&#45;&gt;Node24</title>
<g id="a_edge23_Node000004_Node000024"><a xlink:title=" ">
<path fill="none" stroke="#63b8ff" d="M438.47,-572.25C454.19,-547.82 488.33,-500.47 530.25,-476.62 537.04,-472.76 544.54,-469.72 552.22,-467.33"/>
<polygon fill="#63b8ff" stroke="#63b8ff" points="552.94,-470.76 561.67,-464.76 551.1,-464.01 552.94,-470.76"/>
</a>
</g>
</g>
<!-- Node25 -->
<g id="Node000025" class="node">
<title>Node25</title>
<g id="a_Node000025"><a xlink:href="../../d7/da7/class_shape.html#a1eaba6ddbc4404e64fc6910fa9a9fa11" target="_top" xlink:title=" ">
<polygon fill="white" stroke="#666666" points="679.38,-431.25 558.38,-431.25 558.38,-412 679.38,-412 679.38,-431.25"/>
<text text-anchor="middle" x="618.88" y="-417.75" font-family="Helvetica,sans-Serif" font-size="10.00">Shape::getPenCapStyle</text>
</a>
</g>
</g>
<!-- Node4&#45;&gt;Node25 -->
<g id="edge24_Node000004_Node000025" class="edge">
<title>Node4&#45;&gt;Node25</title>
<g id="a_edge24_Node000004_Node000025"><a xlink:title=" ">
<path fill="none" stroke="#63b8ff" d="M435.01,-572.15C447.5,-541.51 479.72,-473.24 530.25,-439.62 535.42,-436.18 541.12,-433.38 547.05,-431.1"/>
<polygon fill="#63b8ff" stroke="#63b8ff" points="548.06,-434.45 556.47,-428 545.88,-427.8 548.06,-434.45"/>
</a>
</g>
</g>
<!-- Node26 -->
<g id="Node000026" class="node">
<title>Node26</title>
<g id="a_Node000026"><a xlink:href="../../d7/da7/class_shape.html#a4cbfcdf734ed9633dfb4dad1dab1cb6f" target="_top" xlink:title=" ">
<polygon fill="white" stroke="#666666" points="670.75,-394.25 567,-394.25 567,-375 670.75,-375 670.75,-394.25"/>
<text text-anchor="middle" x="618.88" y="-380.75" font-family="Helvetica,sans-Serif" font-size="10.00">Shape::getPenColor</text>
</a>
</g>
</g>
<!-- Node4&#45;&gt;Node26 -->
<g id="edge25_Node000004_Node000026" class="edge">
<title>Node4&#45;&gt;Node26</title>
<g id="a_edge25_Node000004_Node000026"><a xlink:title=" ">
<path fill="none" stroke="#63b8ff" d="M432.86,-572C442.35,-535.91 470.94,-446.47 530.25,-402.62 537.71,-397.11 546.45,-393.19 555.48,-390.42"/>
<polygon fill="#63b8ff" stroke="#63b8ff" points="556.28,-393.83 565.1,-387.96 554.55,-387.05 556.28,-393.83"/>
</a>
</g>
</g>
<!-- Node27 -->
<g id="Node000027" class="node">
<title>Node27</title>
<g id="a_Node000027"><a xlink:href="../../d7/da7/class_shape.html#a633352978d8776c142b848b8d682587a" target="_top" xlink:title=" ">
<polygon fill="white" stroke="#666666" points="867.88,-337.25 762.62,-337.25 762.62,-318 867.88,-318 867.88,-337.25"/>
<text text-anchor="middle" x="815.25" y="-323.75" font-family="Helvetica,sans-Serif" font-size="10.00">Shape::getPenItems</text>
</a>
</g>
</g>
<!-- Node4&#45;&gt;Node27 -->
<g id="edge26_Node000004_Node000027" class="edge">
<title>Node4&#45;&gt;Node27</title>
<g id="a_edge26_Node000004_Node000027"><a xlink:title=" ">
<path fill="none" stroke="#63b8ff" d="M431.08,-572.08C437.18,-530.77 459.84,-417.85 530.25,-365.62 564.19,-340.45 678.18,-331.95 751.01,-329.09"/>
<polygon fill="#63b8ff" stroke="#63b8ff" points="750.95,-332.59 760.82,-328.73 750.7,-325.59 750.95,-332.59"/>
</a>
</g>
</g>
<!-- Node28 -->
<g id="Node000028" class="node">
<title>Node28</title>
<g id="a_Node000028"><a xlink:href="../../d7/da7/class_shape.html#a581611275dae291b4d82927dcd6114b7" target="_top" xlink:title=" ">
<polygon fill="white" stroke="#666666" points="876.5,-290.25 754,-290.25 754,-271 876.5,-271 876.5,-290.25"/>
<text text-anchor="middle" x="815.25" y="-276.75" font-family="Helvetica,sans-Serif" font-size="10.00">Shape::getPenItemsEnd</text>
</a>
</g>
</g>
<!-- Node4&#45;&gt;Node28 -->
<g id="edge27_Node000004_Node000028" class="edge">
<title>Node4&#45;&gt;Node28</title>
<g id="a_edge27_Node000004_Node000028"><a xlink:title=" ">
<path fill="none" stroke="#63b8ff" d="M428.81,-572.17C428.73,-521.46 436.09,-359.39 530.25,-289.62 600.25,-237.76 708.84,-253.17 769.46,-267.72"/>
<polygon fill="#63b8ff" stroke="#63b8ff" points="768.53,-271.1 779.09,-270.14 770.24,-264.31 768.53,-271.1"/>
</a>
</g>
</g>
<!-- Node29 -->
<g id="Node000029" class="node">
<title>Node29</title>
<g id="a_Node000029"><a xlink:href="../../d7/da7/class_shape.html#a7cf1547b5328248b8a4c066b4c714efa" target="_top" xlink:title=" ">
<polygon fill="white" stroke="#666666" points="679.38,-204.25 558.38,-204.25 558.38,-185 679.38,-185 679.38,-204.25"/>
<text text-anchor="middle" x="618.88" y="-190.75" font-family="Helvetica,sans-Serif" font-size="10.00">Shape::getPenJoinStyle</text>
</a>
</g>
</g>
<!-- Node4&#45;&gt;Node29 -->
<g id="edge28_Node000004_Node000029" class="edge">
<title>Node4&#45;&gt;Node29</title>
<g id="a_edge28_Node000004_Node000029"><a xlink:title=" ">
<path fill="none" stroke="#63b8ff" d="M431.31,-572.16C440.52,-508.89 478.23,-270.64 530.25,-218.62 535.3,-213.58 541.31,-209.56 547.77,-206.37"/>
<polygon fill="#63b8ff" stroke="#63b8ff" points="548.95,-209.67 556.84,-202.6 546.26,-203.21 548.95,-209.67"/>
</a>
</g>
</g>
<!-- Node30 -->
<g id="Node000030" class="node">
<title>Node30</title>
<g id="a_Node000030"><a xlink:href="../../d7/da7/class_shape.html#ad336858f193d765d831deb9ce29246aa" target="_top" xlink:title=" ">
<polygon fill="white" stroke="#666666" points="670.38,-167.25 567.38,-167.25 567.38,-148 670.38,-148 670.38,-167.25"/>
<text text-anchor="middle" x="618.88" y="-153.75" font-family="Helvetica,sans-Serif" font-size="10.00">Shape::getPenStyle</text>
</a>
</g>
</g>
<!-- Node4&#45;&gt;Node30 -->
<g id="edge29_Node000004_Node000030" class="edge">
<title>Node4&#45;&gt;Node30</title>
<g id="a_edge29_Node000004_Node000030"><a xlink:title=" ">
<path fill="none" stroke="#63b8ff" d="M430.73,-572.15C438.12,-504.15 470.95,-232.7 530.25,-175.62 537.4,-168.74 546.45,-164.17 556,-161.19"/>
<polygon fill="#63b8ff" stroke="#63b8ff" points="556.59,-164.65 565.45,-158.83 554.9,-157.86 556.59,-164.65"/>
</a>
</g>
</g>
<!-- Node31 -->
<g id="Node000031" class="node">
<title>Node31</title>
<g id="a_Node000031"><a xlink:href="../../d7/da7/class_shape.html#a400f7b5ca58fc561b106a3a672f3f432" target="_top" xlink:title=" ">
<polygon fill="white" stroke="#666666" points="671.88,-130.25 565.88,-130.25 565.88,-111 671.88,-111 671.88,-130.25"/>
<text text-anchor="middle" x="618.88" y="-116.75" font-family="Helvetica,sans-Serif" font-size="10.00">Shape::getPenWidth</text>
</a>
</g>
</g>
<!-- Node4&#45;&gt;Node31 -->
<g id="edge30_Node000004_Node000031" class="edge">
<title>Node4&#45;&gt;Node31</title>
<g id="a_edge30_Node000004_Node000031"><a xlink:title=" ">
<path fill="none" stroke="#63b8ff" d="M430.39,-572.24C436.59,-500.71 466.09,-201.58 530.25,-138.62 536.95,-132.05 545.37,-127.58 554.32,-124.58"/>
<polygon fill="#63b8ff" stroke="#63b8ff" points="555.21,-127.97 563.97,-122 553.4,-121.2 555.21,-127.97"/>
</a>
</g>
</g>
<!-- Node32 -->
<g id="Node000032" class="node">
<title>Node32</title>
<g id="a_Node000032"><a xlink:href="../../d7/da7/class_shape.html#a4b502262ae5a22122456b9624d5ccb3d" target="_top" xlink:title="Accessor Functions &#45; Returns the data named after them.">
<polygon fill="white" stroke="#666666" points="668.5,-93.25 569.25,-93.25 569.25,-74 668.5,-74 668.5,-93.25"/>
<text text-anchor="middle" x="618.88" y="-79.75" font-family="Helvetica,sans-Serif" font-size="10.00">Shape::getShapeId</text>
</a>
</g>
</g>
<!-- Node4&#45;&gt;Node32 -->
<g id="edge31_Node000004_Node000032" class="edge">
<title>Node4&#45;&gt;Node32</title>
<g id="a_edge31_Node000004_Node000032"><a xlink:title=" ">
<path fill="none" stroke="#63b8ff" d="M430.13,-572C435.28,-496.51 461.3,-170.4 530.25,-101.62 537.84,-94.05 547.71,-89.26 558.07,-86.29"/>
<polygon fill="#63b8ff" stroke="#63b8ff" points="558.52,-89.78 567.5,-84.15 556.98,-82.95 558.52,-89.78"/>
</a>
</g>
</g>
<!-- Node33 -->
<g id="Node000033" class="node">
<title>Node33</title>
<g id="a_Node000033"><a xlink:href="../../da/d0e/class_text.html#a3d6716fc88f895932e2c96940188c647" target="_top" xlink:title=" ">
<polygon fill="white" stroke="#666666" points="677.12,-56.25 560.62,-56.25 560.62,-37 677.12,-37 677.12,-56.25"/>
<text text-anchor="middle" x="618.88" y="-42.75" font-family="Helvetica,sans-Serif" font-size="10.00">Text::getTextAlignment</text>
</a>
</g>
</g>
<!-- Node4&#45;&gt;Node33 -->
<g id="edge32_Node000004_Node000033" class="edge">
<title>Node4&#45;&gt;Node33</title>
<g id="a_edge32_Node000004_Node000033"><a xlink:title=" ">
<path fill="none" stroke="#63b8ff" d="M429.88,-571.89C434.02,-492.76 456.46,-139.28 530.25,-64.62 535.68,-59.13 542.3,-55.1 549.45,-52.16"/>
<polygon fill="#63b8ff" stroke="#63b8ff" points="550.4,-55.53 558.8,-49.06 548.2,-48.88 550.4,-55.53"/>
</a>
</g>
</g>
<!-- Node34 -->
<g id="Node000034" class="node">
<title>Node34</title>
<g id="a_Node000034"><a xlink:href="../../d7/da7/class_shape.html#aec4675c2b06d40373eefac4b982af242" target="_top" xlink:title=" ">
<polygon fill="white" stroke="#666666" points="867.5,-242.25 763,-242.25 763,-223 867.5,-223 867.5,-242.25"/>
<text text-anchor="middle" x="815.25" y="-228.75" font-family="Helvetica,sans-Serif" font-size="10.00">Shape::getTrackerId</text>
</a>
</g>
</g>
<!-- Node4&#45;&gt;Node34 -->
<g id="edge33_Node000004_Node000034" class="edge">
<title>Node4&#45;&gt;Node34</title>
<g id="a_edge33_Node000004_Node000034"><a xlink:title=" ">
<path fill="none" stroke="#63b8ff" d="M431.43,-571.93C440.71,-511.01 477.44,-291.46 530.25,-249.62 563.23,-223.5 678.12,-224.62 751.27,-228.29"/>
<polygon fill="#63b8ff" stroke="#63b8ff" points="750.95,-231.78 761.12,-228.82 751.32,-224.79 750.95,-231.78"/>
</a>
</g>
</g>
<!-- Node35 -->
<g id="Node000035" class="node">
<title>Node35</title>
<g id="a_Node000035"><a xlink:href="../../d9/dc6/class_main_window.html#ab5aea14b9366d3d78c9d6e9353e8f5d0" target="_top" xlink:title="Slot triggered when a QComboBox value in the tree widget changes.">
<polygon fill="white" stroke="#666666" points="707.12,-19.25 530.62,-19.25 530.62,0 707.12,0 707.12,-19.25"/>
<text text-anchor="middle" x="618.88" y="-5.75" font-family="Helvetica,sans-Serif" font-size="10.00">MainWindow::onComboBoxChanged</text>
</a>
</g>
</g>
<!-- Node4&#45;&gt;Node35 -->
<g id="edge34_Node000004_Node000035" class="edge">
<title>Node4&#45;&gt;Node35</title>
<g id="a_edge34_Node000004_Node000035"><a xlink:title=" ">
<path fill="none" stroke="#63b8ff" d="M429.67,-571.88C432.83,-489.45 451.57,-108.21 530.25,-27.62 530.63,-27.24 531.02,-26.85 531.41,-26.48"/>
<polygon fill="#63b8ff" stroke="#63b8ff" points="533.36,-29.39 539.19,-20.54 529.12,-23.82 533.36,-29.39"/>
</a>
</g>
</g>
<!-- Node37 -->
<g id="Node000037" class="node">
<title>Node37</title>
<g id="a_Node000037"><a xlink:href="../../d9/dc6/class_main_window.html#a7d524432f3c348d51c52b6bbca13df57" target="_top" xlink:title="Slot triggered when a QSpinBox value in the tree widget changes.">
<polygon fill="white" stroke="#666666" points="701.12,-318.25 536.62,-318.25 536.62,-299 701.12,-299 701.12,-318.25"/>
<text text-anchor="middle" x="618.88" y="-304.75" font-family="Helvetica,sans-Serif" font-size="10.00">MainWindow::onSpinBoxChanged</text>
</a>
</g>
</g>
<!-- Node4&#45;&gt;Node37 -->
<g id="edge36_Node000004_Node000037" class="edge">
<title>Node4&#45;&gt;Node37</title>
<g id="a_edge36_Node000004_Node000037"><a xlink:title=" ">
<path fill="none" stroke="#63b8ff" d="M430.57,-572.03C435.52,-527.58 455.92,-399.18 530.25,-332.62 534.23,-329.06 538.68,-326.03 543.42,-323.43"/>
<polygon fill="#63b8ff" stroke="#63b8ff" points="544.55,-326.77 552.12,-319.36 541.58,-320.43 544.55,-326.77"/>
</a>
</g>
</g>
<!-- Node36 -->
<g id="Node000036" class="node">
<title>Node36</title>
<g id="a_Node000036"><a xlink:href="../../d9/dc6/class_main_window.html#af971d03f10fd514287332e2adfd79bea" target="_top" xlink:title="Emitted when a property of an existing shape is changed.">
<polygon fill="white" stroke="#666666" points="887,-19.25 743.5,-19.25 743.5,0 887,0 887,-19.25"/>
<text text-anchor="middle" x="815.25" y="-5.75" font-family="Helvetica,sans-Serif" font-size="10.00">MainWindow::shapeChanged</text>
</a>
</g>
</g>
<!-- Node35&#45;&gt;Node36 -->
<g id="edge35_Node000035_Node000036" class="edge">
<title>Node35&#45;&gt;Node36</title>
<g id="a_edge35_Node000035_Node000036"><a xlink:title=" ">
<path fill="none" stroke="#63b8ff" d="M707.4,-9.62C715.55,-9.62 723.79,-9.62 731.89,-9.62"/>
<polygon fill="#63b8ff" stroke="#63b8ff" points="731.71,-13.13 741.71,-9.63 731.71,-6.13 731.71,-13.13"/>
</a>
</g>
</g>
<!-- Node37&#45;&gt;Node27 -->
<g id="edge37_Node000037_Node000027" class="edge">
<title>Node37&#45;&gt;Node27</title>
<g id="a_edge37_Node000037_Node000027"><a xlink:title=" ">
<path fill="none" stroke="#63b8ff" d="M701.46,-316.6C718.02,-318.22 735.19,-319.9 750.99,-321.44"/>
<polygon fill="#63b8ff" stroke="#63b8ff" points="750.43,-324.9 760.72,-322.39 751.11,-317.94 750.43,-324.9"/>
</a>
</g>
</g>
<!-- Node37&#45;&gt;Node28 -->
<g id="edge38_Node000037_Node000028" class="edge">
<title>Node37&#45;&gt;Node28</title>
<g id="a_edge38_Node000037_Node000028"><a xlink:title=" ">
<path fill="none" stroke="#63b8ff" d="M690.05,-298.52C707.18,-296.05 725.52,-293.41 742.71,-290.93"/>
<polygon fill="#63b8ff" stroke="#63b8ff" points="742.92,-294.44 752.32,-289.55 741.92,-287.51 742.92,-294.44"/>
</a>
</g>
</g>
<!-- Node37&#45;&gt;Node34 -->
<g id="edge39_Node000037_Node000034" class="edge">
<title>Node37&#45;&gt;Node34</title>
<g id="a_edge39_Node000037_Node000034"><a xlink:title=" ">
<path fill="none" stroke="#63b8ff" d="M645.69,-298.53C679.76,-285.21 739.93,-261.68 778.4,-246.64"/>
<polygon fill="#63b8ff" stroke="#63b8ff" points="779.19,-250.09 787.23,-243.19 776.64,-243.57 779.19,-250.09"/>
</a>
</g>
</g>
</g>
</svg>

<g id="navigator" transform="translate(0 0)" fill="#404254">
  <rect fill="#f2f5e9" fill-opacity="0.5" stroke="#606060" stroke-width=".5" x="0" y="0" width="60" height="60"/>
  <use id="zoomplus" xlink:href="#zoomPlus" x="17" y="9" onmousedown="handleZoom(evt,'in')"/>
  <use id="zoomminus" xlink:href="#zoomMin" x="42" y="9" onmousedown="handleZoom(evt,'out')"/>
  <use id="reset" xlink:href="#resetDef" x="30" y="36" onmousedown="handleReset()"/>
   <use id="arrowup" xlink:href="#arrowUp" x="0" y="0" onmousedown="handlePan(0,-1)"/>
  <use id="arrowright" xlink:href="#arrowRight" x="0" y="0" onmousedown="handlePan(1,0)"/>
  <use id="arrowdown" xlink:href="#arrowDown" x="0" y="0" onmousedown="handlePan(0,1)"/>
  <use id="arrowleft" xlink:href="#arrowLeft" x="0" y="0" onmousedown="handlePan(-1,0)"/>
</g>
<svg viewBox="0 0 15 15" width="100%" height="30px" preserveAspectRatio="xMaxYMin meet">
 <g id="arrow_out" transform="scale(0.3 0.3)">
  <a xlink:href="class_main_window_a7d1d40640f58ce6dd36eabcee8ecdc6e_cgraph_org.svg" target="_base">
   <rect id="button" ry="5" rx="5" y="6" x="6" height="38" width="38"
        fill="#f2f5e9" fill-opacity="0.5" stroke="#606060" stroke-width="1.0"/>
   <path id="arrow"
     d="M 11.500037,31.436501 C 11.940474,20.09759 22.043105,11.32322 32.158766,21.979434 L 37.068811,17.246167 C 37.068811,17.246167 37.088388,32 37.088388,32 L 22.160133,31.978069 C 22.160133,31.978069 26.997745,27.140456 26.997745,27.140456 C 18.528582,18.264221 13.291696,25.230495 11.500037,31.436501 z"
     style="fill:#404040;"/>
  </a>
 </g>
</svg>

<style type='text/css'>
<![CDATA[
[data-mouse-over-selected='false'] { opacity: 0.7; }
[data-mouse-over-selected='true']  { opacity: 1.0; }
]]>
</style>
<script type="application/ecmascript"><![CDATA[
document.addEventListener('DOMContentLoaded', (event) => {
  highlightEdges();
  highlightAdjacentNodes();
});
]]></script>
</svg>
