<?xml version="1.0" encoding="UTF-8" standalone="no"?>
<!DOCTYPE svg PUBLIC "-//W3C//DTD SVG 1.1//EN"
 "http://www.w3.org/Graphics/SVG/1.1/DTD/svg11.dtd">
<!-- Generated by graphviz version 12.2.1 (20241206.2353)
 -->
<!-- Title: MainWindow::displayedTextChanged Pages: 1 -->
<svg width="565pt" height="88pt"
 viewBox="0.00 0.00 564.75 87.50" xmlns="http://www.w3.org/2000/svg" xmlns:xlink="http://www.w3.org/1999/xlink">
<g id="graph0" class="graph" transform="scale(1 1) rotate(0) translate(4 83.5)">
<title>MainWindow::displayedTextChanged</title>
<!-- Node1 -->
<g id="Node000001" class="node">
<title>Node1</title>
<g id="a_Node000001"><a xlink:title="Emitted when the displayed text of a Text shape is changed.">
<polygon fill="#999999" stroke="#666666" points="556.75,-54.5 418.5,-54.5 418.5,-24 556.75,-24 556.75,-54.5"/>
<text text-anchor="start" x="426.5" y="-41" font-family="Helvetica,sans-Serif" font-size="10.00">MainWindow::displayedText</text>
<text text-anchor="middle" x="487.62" y="-29.75" font-family="Helvetica,sans-Serif" font-size="10.00">Changed</text>
</a>
</g>
</g>
<!-- Node2 -->
<g id="Node000002" class="node">
<title>Node2</title>
<g id="a_Node000002"><a xlink:href="../../d7/de6/class_app_driver.html#ad4932bc7c7019e2522503886c01ffe33" target="_top" xlink:title="Connects signals from the frontend UI to slots in this AppDriver.">
<polygon fill="white" stroke="#666666" points="382.12,-79.5 243.88,-79.5 243.88,-49 382.12,-49 382.12,-79.5"/>
<text text-anchor="start" x="251.88" y="-66" font-family="Helvetica,sans-Serif" font-size="10.00">AppDriver::connectFrontend</text>
<text text-anchor="middle" x="313" y="-54.75" font-family="Helvetica,sans-Serif" font-size="10.00">ToDriver</text>
</a>
</g>
</g>
<!-- Node1&#45;&gt;Node2 -->
<g id="edge1_Node000001_Node000002" class="edge">
<title>Node1&#45;&gt;Node2</title>
<g id="a_edge1_Node000001_Node000002"><a xlink:title=" ">
<path fill="none" stroke="#63b8ff" d="M407.25,-50.75C399.01,-51.94 390.68,-53.14 382.58,-54.32"/>
<polygon fill="#63b8ff" stroke="#63b8ff" points="407.51,-54.24 416.9,-49.35 406.5,-47.32 407.51,-54.24"/>
</a>
</g>
</g>
<!-- Node5 -->
<g id="Node000005" class="node">
<title>Node5</title>
<g id="a_Node000005"><a xlink:href="../../d9/dc6/class_main_window.html#a29a83bfdca71f74fbfdf49686763a843" target="_top" xlink:title="Slot triggered when an item in the shape properties tree widget is changed.">
<polygon fill="white" stroke="#666666" points="382.5,-30.5 243.5,-30.5 243.5,0 382.5,0 382.5,-30.5"/>
<text text-anchor="start" x="251.5" y="-17" font-family="Helvetica,sans-Serif" font-size="10.00">MainWindow::onTreeWidget</text>
<text text-anchor="middle" x="313" y="-5.75" font-family="Helvetica,sans-Serif" font-size="10.00">ItemChanged</text>
</a>
</g>
</g>
<!-- Node1&#45;&gt;Node5 -->
<g id="edge4_Node000001_Node000005" class="edge">
<title>Node1&#45;&gt;Node5</title>
<g id="a_edge4_Node000001_Node000005"><a xlink:title=" ">
<path fill="none" stroke="#63b8ff" d="M407.06,-28.19C398.98,-27.06 390.82,-25.93 382.86,-24.82"/>
<polygon fill="#63b8ff" stroke="#63b8ff" points="406.51,-31.65 416.9,-29.56 407.48,-24.71 406.51,-31.65"/>
</a>
</g>
</g>
<!-- Node3 -->
<g id="Node000003" class="node">
<title>Node3</title>
<g id="a_Node000003"><a xlink:href="../../d7/de6/class_app_driver.html#af5bf7b6bd96161d95a0a67cc7693127d" target="_top" xlink:title="Initializes and shows the main application window and loads initial data.">
<polygon fill="white" stroke="#666666" points="179.75,-73.88 100.75,-73.88 100.75,-54.62 179.75,-54.62 179.75,-73.88"/>
<text text-anchor="middle" x="140.25" y="-60.38" font-family="Helvetica,sans-Serif" font-size="10.00">AppDriver::run</text>
</a>
</g>
</g>
<!-- Node2&#45;&gt;Node3 -->
<g id="edge2_Node000002_Node000003" class="edge">
<title>Node2&#45;&gt;Node3</title>
<g id="a_edge2_Node000002_Node000003"><a xlink:title=" ">
<path fill="none" stroke="#63b8ff" d="M232.07,-64.25C214.05,-64.25 195.69,-64.25 180.25,-64.25"/>
<polygon fill="#63b8ff" stroke="#63b8ff" points="232.02,-67.75 242.02,-64.25 232.02,-60.75 232.02,-67.75"/>
</a>
</g>
</g>
<!-- Node4 -->
<g id="Node000004" class="node">
<title>Node4</title>
<g id="a_Node000004"><a xlink:href="../../d8/d80/src_2backend_2main_8cpp.html#a0ddf1224851353fc92bfbff6f499fa97" target="_top" xlink:title=" ">
<polygon fill="white" stroke="#666666" points="37,-73.88 0,-73.88 0,-54.62 37,-54.62 37,-73.88"/>
<text text-anchor="middle" x="18.5" y="-60.38" font-family="Helvetica,sans-Serif" font-size="10.00">main</text>
</a>
</g>
</g>
<!-- Node3&#45;&gt;Node4 -->
<g id="edge3_Node000003_Node000004" class="edge">
<title>Node3&#45;&gt;Node4</title>
<g id="a_edge3_Node000003_Node000004"><a xlink:title=" ">
<path fill="none" stroke="#63b8ff" d="M88.9,-64.25C70.61,-64.25 51.11,-64.25 37.44,-64.25"/>
<polygon fill="#63b8ff" stroke="#63b8ff" points="88.86,-67.75 98.86,-64.25 88.86,-60.75 88.86,-67.75"/>
</a>
</g>
</g>
<!-- Node6 -->
<g id="Node000006" class="node">
<title>Node6</title>
<g id="a_Node000006"><a xlink:href="../../d9/dc6/class_main_window.html#a25d06b6f11a1eb7fa2239f01e853ae29" target="_top" xlink:title=" ">
<polygon fill="white" stroke="#666666" points="207.5,-24.88 73,-24.88 73,-5.63 207.5,-5.63 207.5,-24.88"/>
<text text-anchor="middle" x="140.25" y="-11.38" font-family="Helvetica,sans-Serif" font-size="10.00">MainWindow::MainWindow</text>
</a>
</g>
</g>
<!-- Node5&#45;&gt;Node6 -->
<g id="edge5_Node000005_Node000006" class="edge">
<title>Node5&#45;&gt;Node6</title>
<g id="a_edge5_Node000005_Node000006"><a xlink:title=" ">
<path fill="none" stroke="#63b8ff" d="M231.55,-15.25C223.66,-15.25 215.71,-15.25 207.97,-15.25"/>
<polygon fill="#63b8ff" stroke="#63b8ff" points="231.53,-18.75 241.53,-15.25 231.53,-11.75 231.53,-18.75"/>
</a>
</g>
</g>
</g>
</svg>
