<?xml version="1.0" encoding="UTF-8" standalone="no"?>
<!DOCTYPE svg PUBLIC "-//W3C//DTD SVG 1.1//EN"
 "http://www.w3.org/Graphics/SVG/1.1/DTD/svg11.dtd">
<!-- Generated by graphviz version 12.2.1 (20241206.2353)
 -->
<!-- Title: RenderArea::updateShapeDisplayCoords Pages: 1 -->
<svg width="480pt" height="323pt"
 viewBox="0.00 0.00 479.75 323.25" xmlns="http://www.w3.org/2000/svg" xmlns:xlink="http://www.w3.org/1999/xlink">

<svg id="main" version="1.1" xmlns="http://www.w3.org/2000/svg" xmlns:xlink="http://www.w3.org/1999/xlink" xml:space="preserve">

<style type="text/css"><![CDATA[
.node, .edge {opacity: 0.7;}
.node.selected, .edge.selected {opacity: 1;}
.edge:hover path { stroke: red; }
.edge:hover polygon { stroke: red; fill: red; }
]]></style>
<script type="application/ecmascript" xlink:href="../../svg.min.js"/>
<svg id="graph" class="graph">
<g id="graph0" class="graph" transform="scale(1 1) rotate(0) translate(4 319.25)">
<title>RenderArea::updateShapeDisplayCoords</title>
<!-- Node1 -->
<g id="Node000001" class="node">
<title>Node1</title>
<g id="a_Node000001"><a xlink:title="Updates display coordinates of a shape&#39;s properties, typically in an associated view.">
<polygon fill="#999999" stroke="#666666" points="163.75,-172.88 0,-172.88 0,-142.38 163.75,-142.38 163.75,-172.88"/>
<text text-anchor="start" x="8" y="-159.38" font-family="Helvetica,sans-Serif" font-size="10.00">RenderArea::updateShapeDisplay</text>
<text text-anchor="middle" x="81.88" y="-148.12" font-family="Helvetica,sans-Serif" font-size="10.00">Coords</text>
</a>
</g>
</g>
<!-- Node2 -->
<g id="Node000002" class="node">
<title>Node2</title>
<g id="a_Node000002"><a xlink:href="../../d7/da7/class_shape.html#a8e5d4c7be5890c73cab44af6005573d4" target="_top" xlink:title=" ">
<polygon fill="white" stroke="#666666" points="317.75,-315.25 207.25,-315.25 207.25,-296 317.75,-296 317.75,-315.25"/>
<text text-anchor="middle" x="262.5" y="-301.75" font-family="Helvetica,sans-Serif" font-size="10.00">Shape::getChildItems</text>
</a>
</g>
</g>
<!-- Node1&#45;&gt;Node2 -->
<g id="edge1_Node000001_Node000002" class="edge">
<title>Node1&#45;&gt;Node2</title>
<g id="a_edge1_Node000001_Node000002"><a xlink:title=" ">
<path fill="none" stroke="#63b8ff" d="M92.44,-172.97C110.2,-200.19 150.93,-256.94 199.75,-287.62 201.63,-288.81 203.59,-289.91 205.6,-290.95"/>
<polygon fill="#63b8ff" stroke="#63b8ff" points="204.1,-294.11 214.66,-294.95 206.93,-287.71 204.1,-294.11"/>
</a>
</g>
</g>
<!-- Node3 -->
<g id="Node000003" class="node">
<title>Node3</title>
<g id="a_Node000003"><a xlink:href="../../dd/db4/class_line.html#aedb630a8121c423320ef5e369e17f65f" target="_top" xlink:title=" ">
<polygon fill="white" stroke="#666666" points="309.12,-278.25 215.88,-278.25 215.88,-259 309.12,-259 309.12,-278.25"/>
<text text-anchor="middle" x="262.5" y="-264.75" font-family="Helvetica,sans-Serif" font-size="10.00">Line::getEndPoint</text>
</a>
</g>
</g>
<!-- Node1&#45;&gt;Node3 -->
<g id="edge2_Node000001_Node000003" class="edge">
<title>Node1&#45;&gt;Node3</title>
<g id="a_edge2_Node000001_Node000003"><a xlink:title=" ">
<path fill="none" stroke="#63b8ff" d="M98.11,-173.05C119.18,-193.55 159.22,-229.64 199.75,-250.62 202.45,-252.02 205.27,-253.32 208.15,-254.54"/>
<polygon fill="#63b8ff" stroke="#63b8ff" points="206.79,-257.76 217.38,-258.01 209.26,-251.21 206.79,-257.76"/>
</a>
</g>
</g>
<!-- Node4 -->
<g id="Node000004" class="node">
<title>Node4</title>
<g id="a_Node000004"><a xlink:href="../../d7/da7/class_shape.html#a516fb93ee4883eabf72c7dc1dc9cd25f" target="_top" xlink:title=" ">
<polygon fill="white" stroke="#666666" points="320.38,-241.25 204.62,-241.25 204.62,-222 320.38,-222 320.38,-241.25"/>
<text text-anchor="middle" x="262.5" y="-227.75" font-family="Helvetica,sans-Serif" font-size="10.00">Shape::getPointsItems</text>
</a>
</g>
</g>
<!-- Node1&#45;&gt;Node4 -->
<g id="edge3_Node000001_Node000004" class="edge">
<title>Node1&#45;&gt;Node4</title>
<g id="a_edge3_Node000001_Node000004"><a xlink:title=" ">
<path fill="none" stroke="#63b8ff" d="M112.07,-173.26C135.37,-185.33 169.07,-201.89 199.75,-213.62 203.86,-215.2 208.16,-216.71 212.51,-218.14"/>
<polygon fill="#63b8ff" stroke="#63b8ff" points="211.26,-221.42 221.85,-221.09 213.37,-214.75 211.26,-221.42"/>
</a>
</g>
</g>
<!-- Node5 -->
<g id="Node000005" class="node">
<title>Node5</title>
<g id="a_Node000005"><a xlink:href="../../d1/db0/class_polygon.html#aa29df027578f8427676e9eb4a5ee67c2" target="_top" xlink:title="getPointsList &#45; Returns the pointsList by value">
<polygon fill="white" stroke="#666666" points="319.62,-204.25 205.38,-204.25 205.38,-185 319.62,-185 319.62,-204.25"/>
<text text-anchor="middle" x="262.5" y="-190.75" font-family="Helvetica,sans-Serif" font-size="10.00">Polygon::getPointsList</text>
</a>
</g>
</g>
<!-- Node1&#45;&gt;Node5 -->
<g id="edge4_Node000001_Node000005" class="edge">
<title>Node1&#45;&gt;Node5</title>
<g id="a_edge4_Node000001_Node000005"><a xlink:title=" ">
<path fill="none" stroke="#63b8ff" d="M158.89,-173.37C173.13,-176.32 187.84,-179.37 201.51,-182.2"/>
<polygon fill="#63b8ff" stroke="#63b8ff" points="200.74,-185.61 211.24,-184.21 202.16,-178.76 200.74,-185.61"/>
</a>
</g>
</g>
<!-- Node6 -->
<g id="Node000006" class="node">
<title>Node6</title>
<g id="a_Node000006"><a xlink:href="../../d1/d42/class_polyline.html#acb3340122423e1c80e3aa7c7a30fda84" target="_top" xlink:title="getPointsList &#45; Returns the pointsList by value">
<polygon fill="white" stroke="#666666" points="319.25,-167.25 205.75,-167.25 205.75,-148 319.25,-148 319.25,-167.25"/>
<text text-anchor="middle" x="262.5" y="-153.75" font-family="Helvetica,sans-Serif" font-size="10.00">Polyline::getPointsList</text>
</a>
</g>
</g>
<!-- Node1&#45;&gt;Node6 -->
<g id="edge5_Node000001_Node000006" class="edge">
<title>Node1&#45;&gt;Node6</title>
<g id="a_edge5_Node000001_Node000006"><a xlink:title=" ">
<path fill="none" stroke="#63b8ff" d="M164.09,-157.62C174.09,-157.62 184.23,-157.62 194,-157.62"/>
<polygon fill="#63b8ff" stroke="#63b8ff" points="193.75,-161.13 203.75,-157.63 193.75,-154.13 193.75,-161.13"/>
</a>
</g>
</g>
<!-- Node7 -->
<g id="Node000007" class="node">
<title>Node7</title>
<g id="a_Node000007"><a xlink:href="../../d7/da7/class_shape.html#a4b502262ae5a22122456b9624d5ccb3d" target="_top" xlink:title="Accessor Functions &#45; Returns the data named after them.">
<polygon fill="white" stroke="#666666" points="312.12,-130.25 212.88,-130.25 212.88,-111 312.12,-111 312.12,-130.25"/>
<text text-anchor="middle" x="262.5" y="-116.75" font-family="Helvetica,sans-Serif" font-size="10.00">Shape::getShapeId</text>
</a>
</g>
</g>
<!-- Node1&#45;&gt;Node7 -->
<g id="edge6_Node000001_Node000007" class="edge">
<title>Node1&#45;&gt;Node7</title>
<g id="a_edge6_Node000001_Node000007"><a xlink:title=" ">
<path fill="none" stroke="#63b8ff" d="M158.89,-141.88C173.13,-138.93 187.84,-135.88 201.51,-133.05"/>
<polygon fill="#63b8ff" stroke="#63b8ff" points="202.16,-136.49 211.24,-131.04 200.74,-129.64 202.16,-136.49"/>
</a>
</g>
</g>
<!-- Node8 -->
<g id="Node000008" class="node">
<title>Node8</title>
<g id="a_Node000008"><a xlink:href="../../dd/db4/class_line.html#ae0c35900f7e283b3559263455ac18669" target="_top" xlink:title="Accessor Functions.">
<polygon fill="white" stroke="#666666" points="311,-93.25 214,-93.25 214,-74 311,-74 311,-93.25"/>
<text text-anchor="middle" x="262.5" y="-79.75" font-family="Helvetica,sans-Serif" font-size="10.00">Line::getStartPoint</text>
</a>
</g>
</g>
<!-- Node1&#45;&gt;Node8 -->
<g id="edge7_Node000001_Node000008" class="edge">
<title>Node1&#45;&gt;Node8</title>
<g id="a_edge7_Node000001_Node000008"><a xlink:title=" ">
<path fill="none" stroke="#63b8ff" d="M112.07,-141.99C135.37,-129.92 169.07,-113.36 199.75,-101.62 203.86,-100.05 208.16,-98.54 212.51,-97.11"/>
<polygon fill="#63b8ff" stroke="#63b8ff" points="213.37,-100.5 221.85,-94.16 211.26,-93.83 213.37,-100.5"/>
</a>
</g>
</g>
<!-- Node9 -->
<g id="Node000009" class="node">
<title>Node9</title>
<g id="a_Node000009"><a xlink:href="../../db/d35/classalpha_1_1vector.html#a8305c181181e4739a1c5f29cf3a2c144" target="_top" xlink:title=" ">
<polygon fill="white" stroke="#666666" points="325.25,-56.25 199.75,-56.25 199.75,-37 325.25,-37 325.25,-56.25"/>
<text text-anchor="middle" x="262.5" y="-42.75" font-family="Helvetica,sans-Serif" font-size="10.00">alpha::vector::push_back</text>
</a>
</g>
</g>
<!-- Node1&#45;&gt;Node9 -->
<g id="edge8_Node000001_Node000009" class="edge">
<title>Node1&#45;&gt;Node9</title>
<g id="a_edge8_Node000001_Node000009"><a xlink:title=" ">
<path fill="none" stroke="#63b8ff" d="M98.11,-142.2C119.18,-121.7 159.22,-85.61 199.75,-64.62 202.45,-63.23 205.27,-61.93 208.15,-60.71"/>
<polygon fill="#63b8ff" stroke="#63b8ff" points="209.26,-64.04 217.38,-57.24 206.79,-57.49 209.26,-64.04"/>
</a>
</g>
</g>
<!-- Node11 -->
<g id="Node000011" class="node">
<title>Node11</title>
<g id="a_Node000011"><a xlink:href="../../db/d35/classalpha_1_1vector.html#a78b5e138cba3b9bc0f9d569c6dd96156" target="_top" xlink:title=" ">
<polygon fill="white" stroke="#666666" points="310.62,-19.25 214.38,-19.25 214.38,0 310.62,0 310.62,-19.25"/>
<text text-anchor="middle" x="262.5" y="-5.75" font-family="Helvetica,sans-Serif" font-size="10.00">alpha::vector::size</text>
</a>
</g>
</g>
<!-- Node1&#45;&gt;Node11 -->
<g id="edge10_Node000001_Node000011" class="edge">
<title>Node1&#45;&gt;Node11</title>
<g id="a_edge10_Node000001_Node000011"><a xlink:title=" ">
<path fill="none" stroke="#63b8ff" d="M92.44,-142.28C110.2,-115.06 150.93,-58.31 199.75,-27.62 201.63,-26.44 203.59,-25.34 205.6,-24.3"/>
<polygon fill="#63b8ff" stroke="#63b8ff" points="206.93,-27.54 214.66,-20.3 204.1,-21.14 206.93,-27.54"/>
</a>
</g>
</g>
<!-- Node10 -->
<g id="Node000010" class="node">
<title>Node10</title>
<g id="a_Node000010"><a xlink:href="../../db/d35/classalpha_1_1vector.html#a6dd9585078696eb1d5e7186435f0e41c" target="_top" xlink:title=" ">
<polygon fill="white" stroke="#666666" points="471.75,-56.25 361.25,-56.25 361.25,-37 471.75,-37 471.75,-56.25"/>
<text text-anchor="middle" x="416.5" y="-42.75" font-family="Helvetica,sans-Serif" font-size="10.00">alpha::vector::reserve</text>
</a>
</g>
</g>
<!-- Node9&#45;&gt;Node10 -->
<g id="edge9_Node000009_Node000010" class="edge">
<title>Node9&#45;&gt;Node10</title>
<g id="a_edge9_Node000009_Node000010"><a xlink:title=" ">
<path fill="none" stroke="#63b8ff" d="M325.32,-46.62C333.37,-46.62 341.63,-46.62 349.74,-46.62"/>
<polygon fill="#63b8ff" stroke="#63b8ff" points="349.54,-50.13 359.54,-46.63 349.54,-43.13 349.54,-50.13"/>
</a>
</g>
</g>
</g>
</svg>
</svg>

<style type='text/css'>
<![CDATA[
[data-mouse-over-selected='false'] { opacity: 0.7; }
[data-mouse-over-selected='true']  { opacity: 1.0; }
]]>
</style>
<script type="application/ecmascript"><![CDATA[
document.addEventListener('DOMContentLoaded', (event) => {
  highlightEdges();
  highlightAdjacentNodes();
});
]]></script>
</svg>
