<?xml version="1.0" encoding="UTF-8" standalone="no"?>
<!DOCTYPE svg PUBLIC "-//W3C//DTD SVG 1.1//EN"
 "http://www.w3.org/Graphics/SVG/1.1/DTD/svg11.dtd">
<!-- Generated by graphviz version 12.2.1 (20241206.2353)
 -->
<!-- Title: AppDriver::connectFrontendToDriver Pages: 1 -->
<svg width="478pt" height="580pt"
 viewBox="0.00 0.00 478.25 580.25" xmlns="http://www.w3.org/2000/svg" xmlns:xlink="http://www.w3.org/1999/xlink">
<g id="graph0" class="graph" transform="scale(1 1) rotate(0) translate(4 576.25)">
<title>AppDriver::connectFrontendToDriver</title>
<!-- Node1 -->
<g id="Node000001" class="node">
<title>Node1</title>
<g id="a_Node000001"><a xlink:title="Connects signals from the frontend UI to slots in this AppDriver.">
<polygon fill="#999999" stroke="#666666" points="138.25,-309.88 0,-309.88 0,-279.38 138.25,-279.38 138.25,-309.88"/>
<text text-anchor="start" x="8" y="-296.38" font-family="Helvetica,sans-Serif" font-size="10.00">AppDriver::connectFrontend</text>
<text text-anchor="middle" x="69.12" y="-285.12" font-family="Helvetica,sans-Serif" font-size="10.00">ToDriver</text>
</a>
</g>
</g>
<!-- Node2 -->
<g id="Node000002" class="node">
<title>Node2</title>
<g id="a_Node000002"><a xlink:href="../../d9/dc6/class_main_window.html#a4d205f76440a771278bf5b64df8de0b2" target="_top" xlink:title="Emitted when a request to delete all shapes is made.">
<polygon fill="white" stroke="#666666" points="323,-572.25 174.25,-572.25 174.25,-553 323,-553 323,-572.25"/>
<text text-anchor="middle" x="248.62" y="-558.75" font-family="Helvetica,sans-Serif" font-size="10.00">MainWindow::deleteAllShapes</text>
</a>
</g>
</g>
<!-- Node1&#45;&gt;Node2 -->
<g id="edge1_Node000001_Node000002" class="edge">
<title>Node1&#45;&gt;Node2</title>
<g id="a_edge1_Node000001_Node000002"><a xlink:title=" ">
<path fill="none" stroke="#63b8ff" d="M71.88,-310.24C77.67,-354.11 100.24,-479.49 174.25,-543.62 175.56,-544.76 176.92,-545.82 178.33,-546.82"/>
<polygon fill="#63b8ff" stroke="#63b8ff" points="176.56,-549.84 186.97,-551.82 180.07,-543.78 176.56,-549.84"/>
</a>
</g>
</g>
<!-- Node3 -->
<g id="Node000003" class="node">
<title>Node3</title>
<g id="a_Node000003"><a xlink:href="../../d9/dc6/class_main_window.html#a1f2cddcea15650f8ef72e8862fd945df" target="_top" xlink:title="Emitted when the displayed text of a Text shape is changed.">
<polygon fill="white" stroke="#666666" points="317.75,-534.88 179.5,-534.88 179.5,-504.38 317.75,-504.38 317.75,-534.88"/>
<text text-anchor="start" x="187.5" y="-521.38" font-family="Helvetica,sans-Serif" font-size="10.00">MainWindow::displayedText</text>
<text text-anchor="middle" x="248.62" y="-510.12" font-family="Helvetica,sans-Serif" font-size="10.00">Changed</text>
</a>
</g>
</g>
<!-- Node1&#45;&gt;Node3 -->
<g id="edge2_Node000001_Node000003" class="edge">
<title>Node1&#45;&gt;Node3</title>
<g id="a_edge2_Node000001_Node000003"><a xlink:title=" ">
<path fill="none" stroke="#63b8ff" d="M73.85,-310.26C83.61,-347.84 113.46,-443.96 174.25,-495.62 175.19,-496.43 176.17,-497.2 177.16,-497.95"/>
<polygon fill="#63b8ff" stroke="#63b8ff" points="175.11,-500.8 185.42,-503.22 178.87,-494.89 175.11,-500.8"/>
</a>
</g>
</g>
<!-- Node4 -->
<g id="Node000004" class="node">
<title>Node4</title>
<g id="a_Node000004"><a xlink:href="../../d9/dc6/class_main_window.html#a3f4e695043359e8f535699cd7da3d15c" target="_top" xlink:title="Emitted when a user attempts to log in.">
<polygon fill="white" stroke="#666666" points="315.12,-486.25 182.12,-486.25 182.12,-467 315.12,-467 315.12,-486.25"/>
<text text-anchor="middle" x="248.62" y="-472.75" font-family="Helvetica,sans-Serif" font-size="10.00">MainWindow::loginAttempt</text>
</a>
</g>
</g>
<!-- Node1&#45;&gt;Node4 -->
<g id="edge3_Node000001_Node000004" class="edge">
<title>Node1&#45;&gt;Node4</title>
<g id="a_edge3_Node000001_Node000004"><a xlink:title=" ">
<path fill="none" stroke="#63b8ff" d="M75.45,-309.92C87.58,-342.42 120.44,-418.57 174.25,-457.62 176.28,-459.1 178.42,-460.46 180.64,-461.72"/>
<polygon fill="#63b8ff" stroke="#63b8ff" points="178.87,-464.75 189.4,-465.92 181.9,-458.44 178.87,-464.75"/>
</a>
</g>
</g>
<!-- Node5 -->
<g id="Node000005" class="node">
<title>Node5</title>
<g id="a_Node000005"><a xlink:href="../../d8/d08/class_render_area_manager.html#a47f13c07bb02a5904a1ff2d162ab13b1" target="_top" xlink:title="Modifies the displayed text of a Text shape.">
<polygon fill="white" stroke="#666666" points="304.25,-448.88 193,-448.88 193,-418.38 304.25,-418.38 304.25,-448.88"/>
<text text-anchor="start" x="201" y="-435.38" font-family="Helvetica,sans-Serif" font-size="10.00">RenderAreaManager::</text>
<text text-anchor="middle" x="248.62" y="-424.12" font-family="Helvetica,sans-Serif" font-size="10.00">modifyDisplayedText</text>
</a>
</g>
</g>
<!-- Node1&#45;&gt;Node5 -->
<g id="edge4_Node000001_Node000005" class="edge">
<title>Node1&#45;&gt;Node5</title>
<g id="a_edge4_Node000001_Node000005"><a xlink:title=" ">
<path fill="none" stroke="#63b8ff" d="M80.06,-310C96.69,-334.52 132.45,-382.5 174.25,-409.62 176.94,-411.37 179.76,-413 182.68,-414.51"/>
<polygon fill="#63b8ff" stroke="#63b8ff" points="180.94,-417.57 191.49,-418.62 183.9,-411.22 180.94,-417.57"/>
</a>
</g>
</g>
<!-- Node9 -->
<g id="Node000009" class="node">
<title>Node9</title>
<g id="a_Node000009"><a xlink:href="../../d9/dc6/class_main_window.html#a4ca72692ae6775c322b3534c18f3e9aa" target="_top" xlink:title=" ">
<polygon fill="white" stroke="#666666" points="321.12,-400.25 176.12,-400.25 176.12,-381 321.12,-381 321.12,-400.25"/>
<text text-anchor="middle" x="248.62" y="-386.75" font-family="Helvetica,sans-Serif" font-size="10.00">MainWindow::newUserAdded</text>
</a>
</g>
</g>
<!-- Node1&#45;&gt;Node9 -->
<g id="edge8_Node000001_Node000009" class="edge">
<title>Node1&#45;&gt;Node9</title>
<g id="a_edge8_Node000001_Node000009"><a xlink:title=" ">
<path fill="none" stroke="#63b8ff" d="M86.42,-310.19C105.82,-327.88 139.95,-356.4 174.25,-372.62 177.57,-374.2 181.04,-375.64 184.59,-376.96"/>
<polygon fill="#63b8ff" stroke="#63b8ff" points="183.38,-380.24 193.97,-380.1 185.6,-373.61 183.38,-380.24"/>
</a>
</g>
</g>
<!-- Node10 -->
<g id="Node000010" class="node">
<title>Node10</title>
<g id="a_Node000010"><a xlink:href="../../d7/de6/class_app_driver.html#a4667f3275f8339cfd63fc487c2f8e5be" target="_top" xlink:title=" ">
<polygon fill="white" stroke="#666666" points="315.5,-363.25 181.75,-363.25 181.75,-344 315.5,-344 315.5,-363.25"/>
<text text-anchor="middle" x="248.62" y="-349.75" font-family="Helvetica,sans-Serif" font-size="10.00">AppDriver::onLoginAttempt</text>
</a>
</g>
</g>
<!-- Node1&#45;&gt;Node10 -->
<g id="edge9_Node000001_Node000010" class="edge">
<title>Node1&#45;&gt;Node10</title>
<g id="a_edge9_Node000001_Node000010"><a xlink:title=" ">
<path fill="none" stroke="#63b8ff" d="M106.32,-310.26C126.14,-318.48 151.29,-328.33 174.25,-335.62 179.73,-337.37 185.49,-339.04 191.27,-340.62"/>
<polygon fill="#63b8ff" stroke="#63b8ff" points="190.32,-343.99 200.88,-343.15 192.1,-337.22 190.32,-343.99"/>
</a>
</g>
</g>
<!-- Node11 -->
<g id="Node000011" class="node">
<title>Node11</title>
<g id="a_Node000011"><a xlink:href="../../d7/de6/class_app_driver.html#a7b4a395a8915f12ab4548ee3769c725d" target="_top" xlink:title=" ">
<polygon fill="white" stroke="#666666" points="307.25,-326.25 190,-326.25 190,-307 307.25,-307 307.25,-326.25"/>
<text text-anchor="middle" x="248.62" y="-312.75" font-family="Helvetica,sans-Serif" font-size="10.00">AppDriver::onNewUser</text>
</a>
</g>
</g>
<!-- Node1&#45;&gt;Node11 -->
<g id="edge10_Node000001_Node000011" class="edge">
<title>Node1&#45;&gt;Node11</title>
<g id="a_edge10_Node000001_Node000011"><a xlink:title=" ">
<path fill="none" stroke="#63b8ff" d="M138.5,-303.1C151.56,-304.72 165.26,-306.42 178.35,-308.04"/>
<polygon fill="#63b8ff" stroke="#63b8ff" points="177.82,-311.5 188.17,-309.26 178.68,-304.55 177.82,-311.5"/>
</a>
</g>
</g>
<!-- Node12 -->
<g id="Node000012" class="node">
<title>Node12</title>
<g id="a_Node000012"><a xlink:href="../../d7/de6/class_app_driver.html#a6388332db51c6d2a143dbd4f7f7eaf80" target="_top" xlink:title="Handles the request to delete all shapes from the render area.">
<polygon fill="white" stroke="#666666" points="316.62,-288.88 180.62,-288.88 180.62,-258.38 316.62,-258.38 316.62,-288.88"/>
<text text-anchor="start" x="188.62" y="-275.38" font-family="Helvetica,sans-Serif" font-size="10.00">AppDriver::onRenderDelete</text>
<text text-anchor="middle" x="248.62" y="-264.12" font-family="Helvetica,sans-Serif" font-size="10.00">AllShapes</text>
</a>
</g>
</g>
<!-- Node1&#45;&gt;Node12 -->
<g id="edge11_Node000001_Node000012" class="edge">
<title>Node1&#45;&gt;Node12</title>
<g id="a_edge11_Node000001_Node000012"><a xlink:title=" ">
<path fill="none" stroke="#63b8ff" d="M138.5,-286.54C148.43,-285.36 158.73,-284.14 168.84,-282.95"/>
<polygon fill="#63b8ff" stroke="#63b8ff" points="169.14,-286.43 178.66,-281.78 168.32,-279.48 169.14,-286.43"/>
</a>
</g>
</g>
<!-- Node13 -->
<g id="Node000013" class="node">
<title>Node13</title>
<g id="a_Node000013"><a xlink:href="../../d7/de6/class_app_driver.html#af7c6017ee07a238811388b878a8754ef" target="_top" xlink:title="Handles the addition of a new shape from the render area.">
<polygon fill="white" stroke="#666666" points="316.25,-239.88 181,-239.88 181,-209.38 316.25,-209.38 316.25,-239.88"/>
<text text-anchor="start" x="189" y="-226.38" font-family="Helvetica,sans-Serif" font-size="10.00">AppDriver::onRenderShape</text>
<text text-anchor="middle" x="248.62" y="-215.12" font-family="Helvetica,sans-Serif" font-size="10.00">Added</text>
</a>
</g>
</g>
<!-- Node1&#45;&gt;Node13 -->
<g id="edge12_Node000001_Node000013" class="edge">
<title>Node1&#45;&gt;Node13</title>
<g id="a_edge12_Node000001_Node000013"><a xlink:title=" ">
<path fill="none" stroke="#63b8ff" d="M104.55,-278.93C124.7,-269.95 150.73,-258.7 174.25,-249.62 178.97,-247.8 183.88,-245.98 188.83,-244.19"/>
<polygon fill="#63b8ff" stroke="#63b8ff" points="189.99,-247.5 198.24,-240.86 187.65,-240.9 189.99,-247.5"/>
</a>
</g>
</g>
<!-- Node14 -->
<g id="Node000014" class="node">
<title>Node14</title>
<g id="a_Node000014"><a xlink:href="../../d7/de6/class_app_driver.html#a066bb9f3ff8745b923751f7937120e15" target="_top" xlink:title=" ">
<polygon fill="white" stroke="#666666" points="316.25,-190.88 181,-190.88 181,-160.38 316.25,-160.38 316.25,-190.88"/>
<text text-anchor="start" x="189" y="-177.38" font-family="Helvetica,sans-Serif" font-size="10.00">AppDriver::onRenderShape</text>
<text text-anchor="middle" x="248.62" y="-166.12" font-family="Helvetica,sans-Serif" font-size="10.00">Changed</text>
</a>
</g>
</g>
<!-- Node1&#45;&gt;Node14 -->
<g id="edge13_Node000001_Node000014" class="edge">
<title>Node1&#45;&gt;Node14</title>
<g id="a_edge13_Node000001_Node000014"><a xlink:title=" ">
<path fill="none" stroke="#63b8ff" d="M83.45,-279.19C101.94,-258.63 137.3,-222.34 174.25,-200.62 177.02,-198.99 179.92,-197.45 182.89,-195.99"/>
<polygon fill="#63b8ff" stroke="#63b8ff" points="184.14,-199.27 191.83,-191.97 181.27,-192.88 184.14,-199.27"/>
</a>
</g>
</g>
<!-- Node15 -->
<g id="Node000015" class="node">
<title>Node15</title>
<g id="a_Node000015"><a xlink:href="../../d7/de6/class_app_driver.html#aa45f4621257463400bdc17aad71a276f" target="_top" xlink:title="Handles the deletion of a single shape from the render area.">
<polygon fill="white" stroke="#666666" points="316.25,-141.88 181,-141.88 181,-111.38 316.25,-111.38 316.25,-141.88"/>
<text text-anchor="start" x="189" y="-128.38" font-family="Helvetica,sans-Serif" font-size="10.00">AppDriver::onRenderShape</text>
<text text-anchor="middle" x="248.62" y="-117.12" font-family="Helvetica,sans-Serif" font-size="10.00">Deleted</text>
</a>
</g>
</g>
<!-- Node1&#45;&gt;Node15 -->
<g id="edge14_Node000001_Node000015" class="edge">
<title>Node1&#45;&gt;Node15</title>
<g id="a_edge14_Node000001_Node000015"><a xlink:title=" ">
<path fill="none" stroke="#63b8ff" d="M77.27,-279.29C91.58,-250.2 126.53,-186.78 174.25,-151.62 176.23,-150.17 178.3,-148.79 180.44,-147.49"/>
<polygon fill="#63b8ff" stroke="#63b8ff" points="181.7,-150.78 188.86,-142.97 178.39,-144.62 181.7,-150.78"/>
</a>
</g>
</g>
<!-- Node16 -->
<g id="Node000016" class="node">
<title>Node16</title>
<g id="a_Node000016"><a xlink:href="../../d9/dc6/class_main_window.html#af82d1897a3213375ae0f1c7d7652150a" target="_top" xlink:title="Emitted when a new shape is added by the user.">
<polygon fill="white" stroke="#666666" points="314.75,-93.25 182.5,-93.25 182.5,-74 314.75,-74 314.75,-93.25"/>
<text text-anchor="middle" x="248.62" y="-79.75" font-family="Helvetica,sans-Serif" font-size="10.00">MainWindow::shapeAdded</text>
</a>
</g>
</g>
<!-- Node1&#45;&gt;Node16 -->
<g id="edge15_Node000001_Node000016" class="edge">
<title>Node1&#45;&gt;Node16</title>
<g id="a_edge15_Node000001_Node000016"><a xlink:title=" ">
<path fill="none" stroke="#63b8ff" d="M74.01,-278.9C83.96,-242.07 113.91,-149.81 174.25,-102.62 176,-101.26 177.84,-99.99 179.74,-98.81"/>
<polygon fill="#63b8ff" stroke="#63b8ff" points="181.14,-102.03 188.42,-94.33 177.93,-95.81 181.14,-102.03"/>
</a>
</g>
</g>
<!-- Node17 -->
<g id="Node000017" class="node">
<title>Node17</title>
<g id="a_Node000017"><a xlink:href="../../d9/dc6/class_main_window.html#af971d03f10fd514287332e2adfd79bea" target="_top" xlink:title="Emitted when a property of an existing shape is changed.">
<polygon fill="white" stroke="#666666" points="320.38,-56.25 176.88,-56.25 176.88,-37 320.38,-37 320.38,-56.25"/>
<text text-anchor="middle" x="248.62" y="-42.75" font-family="Helvetica,sans-Serif" font-size="10.00">MainWindow::shapeChanged</text>
</a>
</g>
</g>
<!-- Node1&#45;&gt;Node17 -->
<g id="edge16_Node000001_Node000017" class="edge">
<title>Node1&#45;&gt;Node17</title>
<g id="a_edge16_Node000001_Node000017"><a xlink:title=" ">
<path fill="none" stroke="#63b8ff" d="M72.44,-278.94C79.45,-237.2 104.45,-122.6 174.25,-64.62 175.21,-63.83 176.2,-63.07 177.21,-62.34"/>
<polygon fill="#63b8ff" stroke="#63b8ff" points="178.8,-65.47 185.66,-57.39 175.26,-59.43 178.8,-65.47"/>
</a>
</g>
</g>
<!-- Node18 -->
<g id="Node000018" class="node">
<title>Node18</title>
<g id="a_Node000018"><a xlink:href="../../d9/dc6/class_main_window.html#a906062572c910e53ece385587548e981" target="_top" xlink:title="Emitted when a shape is requested to be deleted.">
<polygon fill="white" stroke="#666666" points="317.75,-19.25 179.5,-19.25 179.5,0 317.75,0 317.75,-19.25"/>
<text text-anchor="middle" x="248.62" y="-5.75" font-family="Helvetica,sans-Serif" font-size="10.00">MainWindow::shapeDeleted</text>
</a>
</g>
</g>
<!-- Node1&#45;&gt;Node18 -->
<g id="edge17_Node000001_Node000018" class="edge">
<title>Node1&#45;&gt;Node18</title>
<g id="a_edge17_Node000001_Node000018"><a xlink:title=" ">
<path fill="none" stroke="#63b8ff" d="M71.33,-279.19C75.76,-233.34 95.31,-96.83 174.25,-27.62 175.05,-26.93 175.87,-26.25 176.71,-25.6"/>
<polygon fill="#63b8ff" stroke="#63b8ff" points="178.48,-28.63 185.13,-20.38 174.79,-22.68 178.48,-28.63"/>
</a>
</g>
</g>
<!-- Node6 -->
<g id="Node000006" class="node">
<title>Node6</title>
<g id="a_Node000006"><a xlink:href="../../d8/d08/class_render_area_manager.html#a8ae2b40cb4cd008dff584aa8cfd14870" target="_top" xlink:title="Emitted when the render area has changed and needs redrawing.">
<polygon fill="white" stroke="#666666" points="470.25,-497.88 359,-497.88 359,-467.38 470.25,-467.38 470.25,-497.88"/>
<text text-anchor="start" x="367" y="-484.38" font-family="Helvetica,sans-Serif" font-size="10.00">RenderAreaManager::</text>
<text text-anchor="middle" x="414.62" y="-473.12" font-family="Helvetica,sans-Serif" font-size="10.00">renderAreaChanged</text>
</a>
</g>
</g>
<!-- Node5&#45;&gt;Node6 -->
<g id="edge5_Node000005_Node000006" class="edge">
<title>Node5&#45;&gt;Node6</title>
<g id="a_edge5_Node000005_Node000006"><a xlink:title=" ">
<path fill="none" stroke="#63b8ff" d="M301.97,-449.26C317.28,-453.84 334.18,-458.89 350.1,-463.65"/>
<polygon fill="#63b8ff" stroke="#63b8ff" points="348.9,-466.94 359.49,-466.45 350.91,-460.23 348.9,-466.94"/>
</a>
</g>
</g>
<!-- Node7 -->
<g id="Node000007" class="node">
<title>Node7</title>
<g id="a_Node000007"><a xlink:href="../../d8/d08/class_render_area_manager.html#a0c224de3ad3bbe2f6c81e5c40e640f64" target="_top" xlink:title="Initiates saving the current shapes to the backend webservice.">
<polygon fill="white" stroke="#666666" points="470.25,-448.88 359,-448.88 359,-418.38 470.25,-418.38 470.25,-448.88"/>
<text text-anchor="start" x="367" y="-435.38" font-family="Helvetica,sans-Serif" font-size="10.00">RenderAreaManager::</text>
<text text-anchor="middle" x="414.62" y="-424.12" font-family="Helvetica,sans-Serif" font-size="10.00">saveShapes</text>
</a>
</g>
</g>
<!-- Node5&#45;&gt;Node7 -->
<g id="edge6_Node000005_Node000007" class="edge">
<title>Node5&#45;&gt;Node7</title>
<g id="a_edge6_Node000005_Node000007"><a xlink:title=" ">
<path fill="none" stroke="#63b8ff" d="M304.69,-433.62C318.42,-433.62 333.29,-433.62 347.49,-433.62"/>
<polygon fill="#63b8ff" stroke="#63b8ff" points="347.19,-437.13 357.19,-433.63 347.19,-430.13 347.19,-437.13"/>
</a>
</g>
</g>
<!-- Node8 -->
<g id="Node000008" class="node">
<title>Node8</title>
<g id="a_Node000008"><a xlink:href="../../da/d0e/class_text.html#ad9de0026ba5817e2eb18d1d58875a9aa" target="_top" xlink:title="Mutator Functions.">
<polygon fill="white" stroke="#666666" points="451.12,-400.25 378.12,-400.25 378.12,-381 451.12,-381 451.12,-400.25"/>
<text text-anchor="middle" x="414.62" y="-386.75" font-family="Helvetica,sans-Serif" font-size="10.00">Text::setText</text>
</a>
</g>
</g>
<!-- Node5&#45;&gt;Node8 -->
<g id="edge7_Node000005_Node000008" class="edge">
<title>Node5&#45;&gt;Node8</title>
<g id="a_edge7_Node000005_Node000008"><a xlink:title=" ">
<path fill="none" stroke="#63b8ff" d="M304.69,-419.19C324.92,-413.88 347.6,-407.94 367.01,-402.85"/>
<polygon fill="#63b8ff" stroke="#63b8ff" points="367.77,-406.27 376.55,-400.35 365.99,-399.5 367.77,-406.27"/>
</a>
</g>
</g>
</g>
</svg>
